G04 #@! TF.GenerationSoftware,KiCad,Pcbnew,9.0.6*
G04 #@! TF.CreationDate,2026-01-05T13:28:29-06:00*
G04 #@! TF.ProjectId,SSOP-28_5.3x10.2_P0.65,53534f50-2d32-4385-9f35-2e337831302e,rev?*
G04 #@! TF.SameCoordinates,Original*
G04 #@! TF.FileFunction,Copper,L2,Bot*
G04 #@! TF.FilePolarity,Positive*
%FSLAX46Y46*%
G04 Gerber Fmt 4.6, Leading zero omitted, Abs format (unit mm)*
G04 Created by KiCad (PCBNEW 9.0.6) date 2026-01-05 13:28:29*
%MOMM*%
%LPD*%
G01*
G04 APERTURE LIST*
G04 #@! TA.AperFunction,ComponentPad*
%ADD10C,1.700000*%
G04 #@! TD*
G04 #@! TA.AperFunction,ComponentPad*
%ADD11R,1.700000X1.700000*%
G04 #@! TD*
G04 #@! TA.AperFunction,SMDPad,CuDef*
%ADD12R,2.510000X1.000000*%
G04 #@! TD*
G04 #@! TA.AperFunction,Conductor*
%ADD13C,0.500000*%
G04 #@! TD*
G04 APERTURE END LIST*
D10*
X139192000Y-119634000D03*
X139192000Y-117094000D03*
X139192000Y-114554000D03*
X139192000Y-112014000D03*
X139192000Y-109474000D03*
X139192000Y-106934000D03*
X139192000Y-104394000D03*
X139192000Y-101854000D03*
X139192000Y-99314000D03*
X139192000Y-96774000D03*
X139192000Y-94234000D03*
X139192000Y-91694000D03*
X139192000Y-89154000D03*
X139192000Y-86614000D03*
X123952000Y-119634000D03*
X123952000Y-117094000D03*
X123952000Y-114554000D03*
X123952000Y-112014000D03*
X123952000Y-109474000D03*
X123952000Y-106934000D03*
X123952000Y-104394000D03*
X123952000Y-101854000D03*
X123952000Y-99314000D03*
X123952000Y-96774000D03*
X123952000Y-94234000D03*
X123952000Y-91694000D03*
X123952000Y-89154000D03*
D11*
X123952000Y-86614000D03*
D12*
X135767000Y-119634000D03*
X132457000Y-117094000D03*
X135767000Y-114554000D03*
X132457000Y-112014000D03*
X135767000Y-109474000D03*
X132457000Y-106934000D03*
X135767000Y-104394000D03*
X132457000Y-101854000D03*
X135767000Y-99314000D03*
X132457000Y-96774000D03*
X135767000Y-94234000D03*
X132457000Y-91694000D03*
X135767000Y-89154000D03*
X132457000Y-86614000D03*
X127377000Y-86614000D03*
X130687000Y-89154000D03*
X127377000Y-91694000D03*
X130687000Y-94234000D03*
X127377000Y-96774000D03*
X130687000Y-99314000D03*
X127377000Y-101854000D03*
X130687000Y-104394000D03*
X127377000Y-106934000D03*
X130687000Y-109474000D03*
X127377000Y-112014000D03*
X130687000Y-114554000D03*
X127377000Y-117094000D03*
X130687000Y-119634000D03*
D13*
X135767000Y-119634000D02*
X139192000Y-119634000D01*
X123952000Y-119634000D02*
X130687000Y-119634000D01*
X127377000Y-117094000D02*
X123952000Y-117094000D01*
X139192000Y-117094000D02*
X132457000Y-117094000D01*
X135767000Y-114554000D02*
X139192000Y-114554000D01*
X123952000Y-114554000D02*
X130687000Y-114554000D01*
X127377000Y-112014000D02*
X123952000Y-112014000D01*
X139192000Y-112014000D02*
X132457000Y-112014000D01*
X135767000Y-109474000D02*
X139192000Y-109474000D01*
X123952000Y-109474000D02*
X130687000Y-109474000D01*
X127377000Y-106934000D02*
X123952000Y-106934000D01*
X139192000Y-106934000D02*
X132457000Y-106934000D01*
X135767000Y-104394000D02*
X139192000Y-104394000D01*
X123952000Y-104394000D02*
X130687000Y-104394000D01*
X127377000Y-101854000D02*
X123952000Y-101854000D01*
X139192000Y-101854000D02*
X132457000Y-101854000D01*
X135767000Y-99314000D02*
X139192000Y-99314000D01*
X130687000Y-99314000D02*
X123952000Y-99314000D01*
X132457000Y-96774000D02*
X139192000Y-96774000D01*
X127377000Y-96774000D02*
X123952000Y-96774000D01*
X130687000Y-94234000D02*
X123952000Y-94234000D01*
X139192000Y-94234000D02*
X135767000Y-94234000D01*
X132457000Y-91694000D02*
X139192000Y-91694000D01*
X123952000Y-91694000D02*
X127377000Y-91694000D01*
X130687000Y-89154000D02*
X123952000Y-89154000D01*
X139192000Y-89154000D02*
X135767000Y-89154000D01*
X132457000Y-86614000D02*
X139192000Y-86614000D01*
X127377000Y-86614000D02*
X123952000Y-86614000D01*
M02*
