G04 #@! TF.GenerationSoftware,KiCad,Pcbnew,9.0.6*
G04 #@! TF.CreationDate,2026-01-05T13:28:29-06:00*
G04 #@! TF.ProjectId,SSOP-28_5.3x10.2_P0.65,53534f50-2d32-4385-9f35-2e337831302e,rev?*
G04 #@! TF.SameCoordinates,Original*
G04 #@! TF.FileFunction,Soldermask,Top*
G04 #@! TF.FilePolarity,Negative*
%FSLAX46Y46*%
G04 Gerber Fmt 4.6, Leading zero omitted, Abs format (unit mm)*
G04 Created by KiCad (PCBNEW 9.0.6) date 2026-01-05 13:28:29*
%MOMM*%
%LPD*%
G01*
G04 APERTURE LIST*
G04 Aperture macros list*
%AMRoundRect*
0 Rectangle with rounded corners*
0 $1 Rounding radius*
0 $2 $3 $4 $5 $6 $7 $8 $9 X,Y pos of 4 corners*
0 Add a 4 corners polygon primitive as box body*
4,1,4,$2,$3,$4,$5,$6,$7,$8,$9,$2,$3,0*
0 Add four circle primitives for the rounded corners*
1,1,$1+$1,$2,$3*
1,1,$1+$1,$4,$5*
1,1,$1+$1,$6,$7*
1,1,$1+$1,$8,$9*
0 Add four rect primitives between the rounded corners*
20,1,$1+$1,$2,$3,$4,$5,0*
20,1,$1+$1,$4,$5,$6,$7,0*
20,1,$1+$1,$6,$7,$8,$9,0*
20,1,$1+$1,$8,$9,$2,$3,0*%
G04 Aperture macros list end*
%ADD10C,1.700000*%
%ADD11R,1.700000X1.700000*%
%ADD12RoundRect,0.100000X-0.850000X-0.100000X0.850000X-0.100000X0.850000X0.100000X-0.850000X0.100000X0*%
G04 APERTURE END LIST*
D10*
X139192000Y-119634000D03*
X139192000Y-117094000D03*
X139192000Y-114554000D03*
X139192000Y-112014000D03*
X139192000Y-109474000D03*
X139192000Y-106934000D03*
X139192000Y-104394000D03*
X139192000Y-101854000D03*
X139192000Y-99314000D03*
X139192000Y-96774000D03*
X139192000Y-94234000D03*
X139192000Y-91694000D03*
X139192000Y-89154000D03*
X139192000Y-86614000D03*
X123952000Y-119634000D03*
X123952000Y-117094000D03*
X123952000Y-114554000D03*
X123952000Y-112014000D03*
X123952000Y-109474000D03*
X123952000Y-106934000D03*
X123952000Y-104394000D03*
X123952000Y-101854000D03*
X123952000Y-99314000D03*
X123952000Y-96774000D03*
X123952000Y-94234000D03*
X123952000Y-91694000D03*
X123952000Y-89154000D03*
D11*
X123952000Y-86614000D03*
D12*
X135072000Y-98899000D03*
X135072000Y-99549000D03*
X135072000Y-100199000D03*
X135072000Y-100849000D03*
X135072000Y-101499000D03*
X135072000Y-102149000D03*
X135072000Y-102799000D03*
X135072000Y-103449000D03*
X135072000Y-104099000D03*
X135072000Y-104749000D03*
X135072000Y-105399000D03*
X135072000Y-106049000D03*
X135072000Y-106699000D03*
X135072000Y-107349000D03*
X128072000Y-107349000D03*
X128072000Y-106699000D03*
X128072000Y-106049000D03*
X128072000Y-105399000D03*
X128072000Y-104749000D03*
X128072000Y-104099000D03*
X128072000Y-103449000D03*
X128072000Y-102799000D03*
X128072000Y-102149000D03*
X128072000Y-101499000D03*
X128072000Y-100849000D03*
X128072000Y-100199000D03*
X128072000Y-99549000D03*
X128072000Y-98899000D03*
M02*
