G04 #@! TF.GenerationSoftware,KiCad,Pcbnew,9.0.6*
G04 #@! TF.CreationDate,2026-01-07T20:22:05-06:00*
G04 #@! TF.ProjectId,SSOP-28_5.3x10.2_P0.65,53534f50-2d32-4385-9f35-2e337831302e,rev?*
G04 #@! TF.SameCoordinates,Original*
G04 #@! TF.FileFunction,Legend,Top*
G04 #@! TF.FilePolarity,Positive*
%FSLAX46Y46*%
G04 Gerber Fmt 4.6, Leading zero omitted, Abs format (unit mm)*
G04 Created by KiCad (PCBNEW 9.0.6) date 2026-01-07 20:22:05*
%MOMM*%
%LPD*%
G01*
G04 APERTURE LIST*
G04 Aperture macros list*
%AMRoundRect*
0 Rectangle with rounded corners*
0 $1 Rounding radius*
0 $2 $3 $4 $5 $6 $7 $8 $9 X,Y pos of 4 corners*
0 Add a 4 corners polygon primitive as box body*
4,1,4,$2,$3,$4,$5,$6,$7,$8,$9,$2,$3,0*
0 Add four circle primitives for the rounded corners*
1,1,$1+$1,$2,$3*
1,1,$1+$1,$4,$5*
1,1,$1+$1,$6,$7*
1,1,$1+$1,$8,$9*
0 Add four rect primitives between the rounded corners*
20,1,$1+$1,$2,$3,$4,$5,0*
20,1,$1+$1,$4,$5,$6,$7,0*
20,1,$1+$1,$6,$7,$8,$9,0*
20,1,$1+$1,$8,$9,$2,$3,0*%
G04 Aperture macros list end*
%ADD10C,0.200000*%
%ADD11C,0.100000*%
%ADD12C,0.150000*%
%ADD13C,0.000000*%
%ADD14C,0.120000*%
%ADD15R,1.700000X1.700000*%
%ADD16C,1.700000*%
%ADD17RoundRect,0.100000X-0.850000X-0.100000X0.850000X-0.100000X0.850000X0.100000X-0.850000X0.100000X0*%
G04 APERTURE END LIST*
D10*
X136505564Y-109932219D02*
X135934136Y-109932219D01*
X136219850Y-109932219D02*
X136219850Y-108932219D01*
X136219850Y-108932219D02*
X136124612Y-109075076D01*
X136124612Y-109075076D02*
X136029374Y-109170314D01*
X136029374Y-109170314D02*
X135934136Y-109217933D01*
X136981755Y-109932219D02*
X137172231Y-109932219D01*
X137172231Y-109932219D02*
X137267469Y-109884600D01*
X137267469Y-109884600D02*
X137315088Y-109836980D01*
X137315088Y-109836980D02*
X137410326Y-109694123D01*
X137410326Y-109694123D02*
X137457945Y-109503647D01*
X137457945Y-109503647D02*
X137457945Y-109122695D01*
X137457945Y-109122695D02*
X137410326Y-109027457D01*
X137410326Y-109027457D02*
X137362707Y-108979838D01*
X137362707Y-108979838D02*
X137267469Y-108932219D01*
X137267469Y-108932219D02*
X137076993Y-108932219D01*
X137076993Y-108932219D02*
X136981755Y-108979838D01*
X136981755Y-108979838D02*
X136934136Y-109027457D01*
X136934136Y-109027457D02*
X136886517Y-109122695D01*
X136886517Y-109122695D02*
X136886517Y-109360790D01*
X136886517Y-109360790D02*
X136934136Y-109456028D01*
X136934136Y-109456028D02*
X136981755Y-109503647D01*
X136981755Y-109503647D02*
X137076993Y-109551266D01*
X137076993Y-109551266D02*
X137267469Y-109551266D01*
X137267469Y-109551266D02*
X137362707Y-109503647D01*
X137362707Y-109503647D02*
X137410326Y-109456028D01*
X137410326Y-109456028D02*
X137457945Y-109360790D01*
X126233482Y-109942219D02*
X125662054Y-109942219D01*
X125947768Y-109942219D02*
X125947768Y-108942219D01*
X125947768Y-108942219D02*
X125852530Y-109085076D01*
X125852530Y-109085076D02*
X125757292Y-109180314D01*
X125757292Y-109180314D02*
X125662054Y-109227933D01*
X126852530Y-108942219D02*
X126947768Y-108942219D01*
X126947768Y-108942219D02*
X127043006Y-108989838D01*
X127043006Y-108989838D02*
X127090625Y-109037457D01*
X127090625Y-109037457D02*
X127138244Y-109132695D01*
X127138244Y-109132695D02*
X127185863Y-109323171D01*
X127185863Y-109323171D02*
X127185863Y-109561266D01*
X127185863Y-109561266D02*
X127138244Y-109751742D01*
X127138244Y-109751742D02*
X127090625Y-109846980D01*
X127090625Y-109846980D02*
X127043006Y-109894600D01*
X127043006Y-109894600D02*
X126947768Y-109942219D01*
X126947768Y-109942219D02*
X126852530Y-109942219D01*
X126852530Y-109942219D02*
X126757292Y-109894600D01*
X126757292Y-109894600D02*
X126709673Y-109846980D01*
X126709673Y-109846980D02*
X126662054Y-109751742D01*
X126662054Y-109751742D02*
X126614435Y-109561266D01*
X126614435Y-109561266D02*
X126614435Y-109323171D01*
X126614435Y-109323171D02*
X126662054Y-109132695D01*
X126662054Y-109132695D02*
X126709673Y-109037457D01*
X126709673Y-109037457D02*
X126757292Y-108989838D01*
X126757292Y-108989838D02*
X126852530Y-108942219D01*
D11*
X126362925Y-95779273D02*
X128057546Y-95779273D01*
X128057546Y-97392712D01*
X126362925Y-97392712D01*
X126362925Y-95779273D01*
G36*
X126362925Y-95779273D02*
G01*
X128057546Y-95779273D01*
X128057546Y-97392712D01*
X126362925Y-97392712D01*
X126362925Y-95779273D01*
G37*
X126495379Y-85837000D02*
X135739983Y-85837000D01*
X135739983Y-97393439D01*
X126495379Y-97393439D01*
X126495379Y-85837000D01*
G36*
X126495379Y-85837000D02*
G01*
X135739983Y-85837000D01*
X135739983Y-97393439D01*
X126495379Y-97393439D01*
X126495379Y-85837000D01*
G37*
D10*
G36*
X126364593Y-97443330D02*
G01*
X125371410Y-97443330D01*
X125371410Y-96718062D01*
X125482521Y-96718062D01*
X125483975Y-96722880D01*
X125483975Y-96727918D01*
X125489571Y-96741427D01*
X125493792Y-96755417D01*
X125496979Y-96759313D01*
X125498907Y-96763966D01*
X125509243Y-96774302D01*
X125518499Y-96785615D01*
X125522936Y-96787995D01*
X125526497Y-96791556D01*
X125540002Y-96797150D01*
X125552883Y-96804060D01*
X125557892Y-96804560D01*
X125562545Y-96806488D01*
X125577166Y-96806488D01*
X125591707Y-96807942D01*
X125596526Y-96806488D01*
X125601563Y-96806488D01*
X125615072Y-96800891D01*
X125629062Y-96796671D01*
X125632958Y-96793483D01*
X125637611Y-96791556D01*
X125652765Y-96779120D01*
X125688908Y-96742975D01*
X125748518Y-96713171D01*
X125939399Y-96713171D01*
X125999008Y-96742976D01*
X126023677Y-96767644D01*
X126053482Y-96827254D01*
X126053482Y-97018135D01*
X126023677Y-97077743D01*
X125999008Y-97102413D01*
X125939399Y-97132219D01*
X125748518Y-97132219D01*
X125688908Y-97102414D01*
X125652765Y-97066270D01*
X125637612Y-97053833D01*
X125601564Y-97038902D01*
X125562546Y-97038901D01*
X125526497Y-97053832D01*
X125498907Y-97081422D01*
X125483976Y-97117470D01*
X125483975Y-97156488D01*
X125498906Y-97192537D01*
X125511343Y-97207690D01*
X125558961Y-97255310D01*
X125566629Y-97261603D01*
X125568361Y-97263600D01*
X125571369Y-97265493D01*
X125574115Y-97267747D01*
X125576555Y-97268757D01*
X125584952Y-97274043D01*
X125680189Y-97321662D01*
X125698498Y-97328668D01*
X125702081Y-97328922D01*
X125705402Y-97330298D01*
X125724911Y-97332219D01*
X125963006Y-97332219D01*
X125982515Y-97330298D01*
X125985835Y-97328922D01*
X125989419Y-97328668D01*
X126007727Y-97321662D01*
X126102965Y-97274043D01*
X126111360Y-97268758D01*
X126113802Y-97267747D01*
X126116549Y-97265491D01*
X126119555Y-97263600D01*
X126121285Y-97261605D01*
X126128955Y-97255310D01*
X126176574Y-97207690D01*
X126182866Y-97200023D01*
X126184863Y-97198292D01*
X126186756Y-97195284D01*
X126189011Y-97192537D01*
X126190022Y-97190095D01*
X126195306Y-97181701D01*
X126242925Y-97086464D01*
X126249931Y-97068155D01*
X126250185Y-97064571D01*
X126251561Y-97061251D01*
X126253482Y-97041742D01*
X126253482Y-96803647D01*
X126251561Y-96784138D01*
X126250185Y-96780817D01*
X126249931Y-96777234D01*
X126242925Y-96758925D01*
X126195306Y-96663688D01*
X126190020Y-96655291D01*
X126189010Y-96652851D01*
X126186756Y-96650105D01*
X126184863Y-96647097D01*
X126182865Y-96645364D01*
X126176573Y-96637698D01*
X126128955Y-96590079D01*
X126121284Y-96583784D01*
X126119555Y-96581790D01*
X126116547Y-96579896D01*
X126113801Y-96577643D01*
X126111361Y-96576632D01*
X126102965Y-96571347D01*
X126007727Y-96523728D01*
X125989419Y-96516722D01*
X125985835Y-96516467D01*
X125982515Y-96515092D01*
X125963006Y-96513171D01*
X125724911Y-96513171D01*
X125705402Y-96515092D01*
X125702081Y-96516467D01*
X125701744Y-96516491D01*
X125720172Y-96332219D01*
X126105863Y-96332219D01*
X126125372Y-96330298D01*
X126161420Y-96315366D01*
X126189010Y-96287776D01*
X126203942Y-96251728D01*
X126203942Y-96212710D01*
X126189010Y-96176662D01*
X126161420Y-96149072D01*
X126125372Y-96134140D01*
X126105863Y-96132219D01*
X125629673Y-96132219D01*
X125622456Y-96132929D01*
X125620020Y-96132686D01*
X125617641Y-96133403D01*
X125610164Y-96134140D01*
X125596654Y-96139736D01*
X125582665Y-96143957D01*
X125578768Y-96147144D01*
X125574116Y-96149072D01*
X125563779Y-96159408D01*
X125552467Y-96168664D01*
X125550086Y-96173101D01*
X125546526Y-96176662D01*
X125540931Y-96190167D01*
X125534022Y-96203048D01*
X125532545Y-96210412D01*
X125531594Y-96212710D01*
X125531594Y-96215160D01*
X125530169Y-96222269D01*
X125482550Y-96698459D01*
X125482521Y-96718062D01*
X125371410Y-96718062D01*
X125371410Y-96021108D01*
X126364593Y-96021108D01*
X126364593Y-97443330D01*
G37*
G36*
X137774754Y-97443330D02*
G01*
X135737327Y-97443330D01*
X135737327Y-97212710D01*
X135848438Y-97212710D01*
X135848438Y-97251728D01*
X135863370Y-97287776D01*
X135890960Y-97315366D01*
X135927008Y-97330298D01*
X135946517Y-97332219D01*
X136565564Y-97332219D01*
X136585073Y-97330298D01*
X136621121Y-97315366D01*
X136648711Y-97287776D01*
X136663643Y-97251728D01*
X136663643Y-97212710D01*
X136648711Y-97176662D01*
X136621121Y-97149072D01*
X136585073Y-97134140D01*
X136565564Y-97132219D01*
X136187939Y-97132219D01*
X136433779Y-96886378D01*
X136847302Y-96886378D01*
X136848438Y-96902362D01*
X136848438Y-96918394D01*
X136849813Y-96921714D01*
X136850068Y-96925298D01*
X136857235Y-96939633D01*
X136863370Y-96954442D01*
X136865910Y-96956982D01*
X136867518Y-96960197D01*
X136879629Y-96970701D01*
X136890960Y-96982032D01*
X136894278Y-96983406D01*
X136896994Y-96985762D01*
X136912203Y-96990831D01*
X136927008Y-96996964D01*
X136932108Y-96997466D01*
X136934010Y-96998100D01*
X136936643Y-96997912D01*
X136946517Y-96998885D01*
X137322707Y-96998885D01*
X137322707Y-97232219D01*
X137324628Y-97251728D01*
X137339560Y-97287776D01*
X137367150Y-97315366D01*
X137403198Y-97330298D01*
X137442216Y-97330298D01*
X137478264Y-97315366D01*
X137505854Y-97287776D01*
X137520786Y-97251728D01*
X137522707Y-97232219D01*
X137522707Y-96998885D01*
X137565564Y-96998885D01*
X137585073Y-96996964D01*
X137621121Y-96982032D01*
X137648711Y-96954442D01*
X137663643Y-96918394D01*
X137663643Y-96879376D01*
X137648711Y-96843328D01*
X137621121Y-96815738D01*
X137585073Y-96800806D01*
X137565564Y-96798885D01*
X137522707Y-96798885D01*
X137522707Y-96565552D01*
X137520786Y-96546043D01*
X137505854Y-96509995D01*
X137478264Y-96482405D01*
X137442216Y-96467473D01*
X137403198Y-96467473D01*
X137367150Y-96482405D01*
X137339560Y-96509995D01*
X137324628Y-96546043D01*
X137322707Y-96565552D01*
X137322707Y-96798885D01*
X137085259Y-96798885D01*
X137279480Y-96216223D01*
X137283827Y-96197108D01*
X137281061Y-96158188D01*
X137263611Y-96123289D01*
X137234135Y-96097724D01*
X137197119Y-96085385D01*
X137158199Y-96088152D01*
X137123300Y-96105601D01*
X137097735Y-96135077D01*
X137089744Y-96152978D01*
X136851649Y-96867262D01*
X136849449Y-96876933D01*
X136848438Y-96879376D01*
X136848438Y-96881382D01*
X136847302Y-96886378D01*
X136433779Y-96886378D01*
X136588656Y-96731501D01*
X136601092Y-96716347D01*
X136602466Y-96713028D01*
X136604822Y-96710313D01*
X136612813Y-96692413D01*
X136660432Y-96549556D01*
X136662631Y-96539883D01*
X136663643Y-96537442D01*
X136663991Y-96533904D01*
X136664779Y-96530441D01*
X136664591Y-96527806D01*
X136665564Y-96517933D01*
X136665564Y-96422695D01*
X136663643Y-96403186D01*
X136662267Y-96399865D01*
X136662013Y-96396282D01*
X136655007Y-96377973D01*
X136607388Y-96282736D01*
X136602102Y-96274339D01*
X136601092Y-96271899D01*
X136598838Y-96269153D01*
X136596945Y-96266145D01*
X136594947Y-96264412D01*
X136588655Y-96256746D01*
X136541037Y-96209127D01*
X136533366Y-96202832D01*
X136531637Y-96200838D01*
X136528629Y-96198944D01*
X136525883Y-96196691D01*
X136523443Y-96195680D01*
X136515047Y-96190395D01*
X136419809Y-96142776D01*
X136401501Y-96135770D01*
X136397917Y-96135515D01*
X136394597Y-96134140D01*
X136375088Y-96132219D01*
X136136993Y-96132219D01*
X136117484Y-96134140D01*
X136114163Y-96135515D01*
X136110580Y-96135770D01*
X136092271Y-96142776D01*
X135997034Y-96190395D01*
X135988637Y-96195680D01*
X135986197Y-96196691D01*
X135983451Y-96198944D01*
X135980443Y-96200838D01*
X135978710Y-96202835D01*
X135971044Y-96209128D01*
X135923425Y-96256746D01*
X135910989Y-96271900D01*
X135896057Y-96307948D01*
X135896057Y-96346966D01*
X135910989Y-96383014D01*
X135938579Y-96410604D01*
X135974627Y-96425536D01*
X136013645Y-96425536D01*
X136049693Y-96410604D01*
X136064847Y-96398168D01*
X136100990Y-96362023D01*
X136160600Y-96332219D01*
X136351481Y-96332219D01*
X136411090Y-96362024D01*
X136435759Y-96386692D01*
X136465564Y-96446302D01*
X136465564Y-96501706D01*
X136430542Y-96606770D01*
X135875806Y-97161508D01*
X135863370Y-97176662D01*
X135848438Y-97212710D01*
X135737327Y-97212710D01*
X135737327Y-95974274D01*
X137774754Y-95974274D01*
X137774754Y-97443330D01*
G37*
D11*
X125332000Y-85837000D02*
X125450000Y-85837000D01*
X125450000Y-87330000D01*
X125332000Y-87330000D01*
X125332000Y-85837000D01*
G36*
X125332000Y-85837000D02*
G01*
X125450000Y-85837000D01*
X125450000Y-87330000D01*
X125332000Y-87330000D01*
X125332000Y-85837000D01*
G37*
X125349000Y-87290500D02*
X137795000Y-87290500D01*
X137795000Y-95987500D01*
X125349000Y-95987500D01*
X125349000Y-87290500D01*
G36*
X125349000Y-87290500D02*
G01*
X137795000Y-87290500D01*
X137795000Y-95987500D01*
X125349000Y-95987500D01*
X125349000Y-87290500D01*
G37*
X137682000Y-85887000D02*
X137800000Y-85887000D01*
X137800000Y-87380000D01*
X137682000Y-87380000D01*
X137682000Y-85887000D01*
G36*
X137682000Y-85887000D02*
G01*
X137800000Y-85887000D01*
X137800000Y-87380000D01*
X137682000Y-87380000D01*
X137682000Y-85887000D01*
G37*
X125332000Y-85344000D02*
X137812000Y-85344000D01*
X137812000Y-85837000D01*
X125332000Y-85837000D01*
X125332000Y-85344000D01*
G36*
X125332000Y-85344000D02*
G01*
X137812000Y-85344000D01*
X137812000Y-85837000D01*
X125332000Y-85837000D01*
X125332000Y-85344000D01*
G37*
D10*
X126233482Y-120092219D02*
X125662054Y-120092219D01*
X125947768Y-120092219D02*
X125947768Y-119092219D01*
X125947768Y-119092219D02*
X125852530Y-119235076D01*
X125852530Y-119235076D02*
X125757292Y-119330314D01*
X125757292Y-119330314D02*
X125662054Y-119377933D01*
X127090625Y-119425552D02*
X127090625Y-120092219D01*
X126852530Y-119044600D02*
X126614435Y-119758885D01*
X126614435Y-119758885D02*
X127233482Y-119758885D01*
D12*
X128884285Y-116130290D02*
X128998571Y-116168385D01*
X128998571Y-116168385D02*
X129189047Y-116168385D01*
X129189047Y-116168385D02*
X129265238Y-116130290D01*
X129265238Y-116130290D02*
X129303333Y-116092194D01*
X129303333Y-116092194D02*
X129341428Y-116016004D01*
X129341428Y-116016004D02*
X129341428Y-115939813D01*
X129341428Y-115939813D02*
X129303333Y-115863623D01*
X129303333Y-115863623D02*
X129265238Y-115825528D01*
X129265238Y-115825528D02*
X129189047Y-115787432D01*
X129189047Y-115787432D02*
X129036666Y-115749337D01*
X129036666Y-115749337D02*
X128960476Y-115711242D01*
X128960476Y-115711242D02*
X128922381Y-115673147D01*
X128922381Y-115673147D02*
X128884285Y-115596956D01*
X128884285Y-115596956D02*
X128884285Y-115520766D01*
X128884285Y-115520766D02*
X128922381Y-115444575D01*
X128922381Y-115444575D02*
X128960476Y-115406480D01*
X128960476Y-115406480D02*
X129036666Y-115368385D01*
X129036666Y-115368385D02*
X129227143Y-115368385D01*
X129227143Y-115368385D02*
X129341428Y-115406480D01*
X129646190Y-116130290D02*
X129760476Y-116168385D01*
X129760476Y-116168385D02*
X129950952Y-116168385D01*
X129950952Y-116168385D02*
X130027143Y-116130290D01*
X130027143Y-116130290D02*
X130065238Y-116092194D01*
X130065238Y-116092194D02*
X130103333Y-116016004D01*
X130103333Y-116016004D02*
X130103333Y-115939813D01*
X130103333Y-115939813D02*
X130065238Y-115863623D01*
X130065238Y-115863623D02*
X130027143Y-115825528D01*
X130027143Y-115825528D02*
X129950952Y-115787432D01*
X129950952Y-115787432D02*
X129798571Y-115749337D01*
X129798571Y-115749337D02*
X129722381Y-115711242D01*
X129722381Y-115711242D02*
X129684286Y-115673147D01*
X129684286Y-115673147D02*
X129646190Y-115596956D01*
X129646190Y-115596956D02*
X129646190Y-115520766D01*
X129646190Y-115520766D02*
X129684286Y-115444575D01*
X129684286Y-115444575D02*
X129722381Y-115406480D01*
X129722381Y-115406480D02*
X129798571Y-115368385D01*
X129798571Y-115368385D02*
X129989048Y-115368385D01*
X129989048Y-115368385D02*
X130103333Y-115406480D01*
X130598572Y-115368385D02*
X130750953Y-115368385D01*
X130750953Y-115368385D02*
X130827143Y-115406480D01*
X130827143Y-115406480D02*
X130903334Y-115482670D01*
X130903334Y-115482670D02*
X130941429Y-115635051D01*
X130941429Y-115635051D02*
X130941429Y-115901718D01*
X130941429Y-115901718D02*
X130903334Y-116054099D01*
X130903334Y-116054099D02*
X130827143Y-116130290D01*
X130827143Y-116130290D02*
X130750953Y-116168385D01*
X130750953Y-116168385D02*
X130598572Y-116168385D01*
X130598572Y-116168385D02*
X130522381Y-116130290D01*
X130522381Y-116130290D02*
X130446191Y-116054099D01*
X130446191Y-116054099D02*
X130408095Y-115901718D01*
X130408095Y-115901718D02*
X130408095Y-115635051D01*
X130408095Y-115635051D02*
X130446191Y-115482670D01*
X130446191Y-115482670D02*
X130522381Y-115406480D01*
X130522381Y-115406480D02*
X130598572Y-115368385D01*
X131284286Y-116168385D02*
X131284286Y-115368385D01*
X131284286Y-115368385D02*
X131589048Y-115368385D01*
X131589048Y-115368385D02*
X131665238Y-115406480D01*
X131665238Y-115406480D02*
X131703333Y-115444575D01*
X131703333Y-115444575D02*
X131741429Y-115520766D01*
X131741429Y-115520766D02*
X131741429Y-115635051D01*
X131741429Y-115635051D02*
X131703333Y-115711242D01*
X131703333Y-115711242D02*
X131665238Y-115749337D01*
X131665238Y-115749337D02*
X131589048Y-115787432D01*
X131589048Y-115787432D02*
X131284286Y-115787432D01*
X132084286Y-115863623D02*
X132693810Y-115863623D01*
X133036666Y-115444575D02*
X133074762Y-115406480D01*
X133074762Y-115406480D02*
X133150952Y-115368385D01*
X133150952Y-115368385D02*
X133341428Y-115368385D01*
X133341428Y-115368385D02*
X133417619Y-115406480D01*
X133417619Y-115406480D02*
X133455714Y-115444575D01*
X133455714Y-115444575D02*
X133493809Y-115520766D01*
X133493809Y-115520766D02*
X133493809Y-115596956D01*
X133493809Y-115596956D02*
X133455714Y-115711242D01*
X133455714Y-115711242D02*
X132998571Y-116168385D01*
X132998571Y-116168385D02*
X133493809Y-116168385D01*
X133950952Y-115711242D02*
X133874762Y-115673147D01*
X133874762Y-115673147D02*
X133836667Y-115635051D01*
X133836667Y-115635051D02*
X133798571Y-115558861D01*
X133798571Y-115558861D02*
X133798571Y-115520766D01*
X133798571Y-115520766D02*
X133836667Y-115444575D01*
X133836667Y-115444575D02*
X133874762Y-115406480D01*
X133874762Y-115406480D02*
X133950952Y-115368385D01*
X133950952Y-115368385D02*
X134103333Y-115368385D01*
X134103333Y-115368385D02*
X134179524Y-115406480D01*
X134179524Y-115406480D02*
X134217619Y-115444575D01*
X134217619Y-115444575D02*
X134255714Y-115520766D01*
X134255714Y-115520766D02*
X134255714Y-115558861D01*
X134255714Y-115558861D02*
X134217619Y-115635051D01*
X134217619Y-115635051D02*
X134179524Y-115673147D01*
X134179524Y-115673147D02*
X134103333Y-115711242D01*
X134103333Y-115711242D02*
X133950952Y-115711242D01*
X133950952Y-115711242D02*
X133874762Y-115749337D01*
X133874762Y-115749337D02*
X133836667Y-115787432D01*
X133836667Y-115787432D02*
X133798571Y-115863623D01*
X133798571Y-115863623D02*
X133798571Y-116016004D01*
X133798571Y-116016004D02*
X133836667Y-116092194D01*
X133836667Y-116092194D02*
X133874762Y-116130290D01*
X133874762Y-116130290D02*
X133950952Y-116168385D01*
X133950952Y-116168385D02*
X134103333Y-116168385D01*
X134103333Y-116168385D02*
X134179524Y-116130290D01*
X134179524Y-116130290D02*
X134217619Y-116092194D01*
X134217619Y-116092194D02*
X134255714Y-116016004D01*
X134255714Y-116016004D02*
X134255714Y-115863623D01*
X134255714Y-115863623D02*
X134217619Y-115787432D01*
X134217619Y-115787432D02*
X134179524Y-115749337D01*
X134179524Y-115749337D02*
X134103333Y-115711242D01*
X128465237Y-116656340D02*
X128084285Y-116656340D01*
X128084285Y-116656340D02*
X128046189Y-117037292D01*
X128046189Y-117037292D02*
X128084285Y-116999197D01*
X128084285Y-116999197D02*
X128160475Y-116961102D01*
X128160475Y-116961102D02*
X128350951Y-116961102D01*
X128350951Y-116961102D02*
X128427142Y-116999197D01*
X128427142Y-116999197D02*
X128465237Y-117037292D01*
X128465237Y-117037292D02*
X128503332Y-117113483D01*
X128503332Y-117113483D02*
X128503332Y-117303959D01*
X128503332Y-117303959D02*
X128465237Y-117380149D01*
X128465237Y-117380149D02*
X128427142Y-117418245D01*
X128427142Y-117418245D02*
X128350951Y-117456340D01*
X128350951Y-117456340D02*
X128160475Y-117456340D01*
X128160475Y-117456340D02*
X128084285Y-117418245D01*
X128084285Y-117418245D02*
X128046189Y-117380149D01*
X128846190Y-117380149D02*
X128884285Y-117418245D01*
X128884285Y-117418245D02*
X128846190Y-117456340D01*
X128846190Y-117456340D02*
X128808094Y-117418245D01*
X128808094Y-117418245D02*
X128846190Y-117380149D01*
X128846190Y-117380149D02*
X128846190Y-117456340D01*
X129150951Y-116656340D02*
X129646189Y-116656340D01*
X129646189Y-116656340D02*
X129379523Y-116961102D01*
X129379523Y-116961102D02*
X129493808Y-116961102D01*
X129493808Y-116961102D02*
X129569999Y-116999197D01*
X129569999Y-116999197D02*
X129608094Y-117037292D01*
X129608094Y-117037292D02*
X129646189Y-117113483D01*
X129646189Y-117113483D02*
X129646189Y-117303959D01*
X129646189Y-117303959D02*
X129608094Y-117380149D01*
X129608094Y-117380149D02*
X129569999Y-117418245D01*
X129569999Y-117418245D02*
X129493808Y-117456340D01*
X129493808Y-117456340D02*
X129265237Y-117456340D01*
X129265237Y-117456340D02*
X129189046Y-117418245D01*
X129189046Y-117418245D02*
X129150951Y-117380149D01*
X129912856Y-117456340D02*
X130331904Y-116923006D01*
X129912856Y-116923006D02*
X130331904Y-117456340D01*
X131055713Y-117456340D02*
X130598570Y-117456340D01*
X130827142Y-117456340D02*
X130827142Y-116656340D01*
X130827142Y-116656340D02*
X130750951Y-116770625D01*
X130750951Y-116770625D02*
X130674761Y-116846816D01*
X130674761Y-116846816D02*
X130598570Y-116884911D01*
X131550952Y-116656340D02*
X131627142Y-116656340D01*
X131627142Y-116656340D02*
X131703333Y-116694435D01*
X131703333Y-116694435D02*
X131741428Y-116732530D01*
X131741428Y-116732530D02*
X131779523Y-116808721D01*
X131779523Y-116808721D02*
X131817618Y-116961102D01*
X131817618Y-116961102D02*
X131817618Y-117151578D01*
X131817618Y-117151578D02*
X131779523Y-117303959D01*
X131779523Y-117303959D02*
X131741428Y-117380149D01*
X131741428Y-117380149D02*
X131703333Y-117418245D01*
X131703333Y-117418245D02*
X131627142Y-117456340D01*
X131627142Y-117456340D02*
X131550952Y-117456340D01*
X131550952Y-117456340D02*
X131474761Y-117418245D01*
X131474761Y-117418245D02*
X131436666Y-117380149D01*
X131436666Y-117380149D02*
X131398571Y-117303959D01*
X131398571Y-117303959D02*
X131360475Y-117151578D01*
X131360475Y-117151578D02*
X131360475Y-116961102D01*
X131360475Y-116961102D02*
X131398571Y-116808721D01*
X131398571Y-116808721D02*
X131436666Y-116732530D01*
X131436666Y-116732530D02*
X131474761Y-116694435D01*
X131474761Y-116694435D02*
X131550952Y-116656340D01*
X132160476Y-117380149D02*
X132198571Y-117418245D01*
X132198571Y-117418245D02*
X132160476Y-117456340D01*
X132160476Y-117456340D02*
X132122380Y-117418245D01*
X132122380Y-117418245D02*
X132160476Y-117380149D01*
X132160476Y-117380149D02*
X132160476Y-117456340D01*
X132503332Y-116732530D02*
X132541428Y-116694435D01*
X132541428Y-116694435D02*
X132617618Y-116656340D01*
X132617618Y-116656340D02*
X132808094Y-116656340D01*
X132808094Y-116656340D02*
X132884285Y-116694435D01*
X132884285Y-116694435D02*
X132922380Y-116732530D01*
X132922380Y-116732530D02*
X132960475Y-116808721D01*
X132960475Y-116808721D02*
X132960475Y-116884911D01*
X132960475Y-116884911D02*
X132922380Y-116999197D01*
X132922380Y-116999197D02*
X132465237Y-117456340D01*
X132465237Y-117456340D02*
X132960475Y-117456340D01*
X133303333Y-117456340D02*
X133303333Y-116923006D01*
X133303333Y-116999197D02*
X133341428Y-116961102D01*
X133341428Y-116961102D02*
X133417618Y-116923006D01*
X133417618Y-116923006D02*
X133531904Y-116923006D01*
X133531904Y-116923006D02*
X133608095Y-116961102D01*
X133608095Y-116961102D02*
X133646190Y-117037292D01*
X133646190Y-117037292D02*
X133646190Y-117456340D01*
X133646190Y-117037292D02*
X133684285Y-116961102D01*
X133684285Y-116961102D02*
X133760476Y-116923006D01*
X133760476Y-116923006D02*
X133874761Y-116923006D01*
X133874761Y-116923006D02*
X133950952Y-116961102D01*
X133950952Y-116961102D02*
X133989047Y-117037292D01*
X133989047Y-117037292D02*
X133989047Y-117456340D01*
X134370000Y-117456340D02*
X134370000Y-116923006D01*
X134370000Y-116999197D02*
X134408095Y-116961102D01*
X134408095Y-116961102D02*
X134484285Y-116923006D01*
X134484285Y-116923006D02*
X134598571Y-116923006D01*
X134598571Y-116923006D02*
X134674762Y-116961102D01*
X134674762Y-116961102D02*
X134712857Y-117037292D01*
X134712857Y-117037292D02*
X134712857Y-117456340D01*
X134712857Y-117037292D02*
X134750952Y-116961102D01*
X134750952Y-116961102D02*
X134827143Y-116923006D01*
X134827143Y-116923006D02*
X134941428Y-116923006D01*
X134941428Y-116923006D02*
X135017619Y-116961102D01*
X135017619Y-116961102D02*
X135055714Y-117037292D01*
X135055714Y-117037292D02*
X135055714Y-117456340D01*
X127684285Y-117944295D02*
X127760475Y-117944295D01*
X127760475Y-117944295D02*
X127836666Y-117982390D01*
X127836666Y-117982390D02*
X127874761Y-118020485D01*
X127874761Y-118020485D02*
X127912856Y-118096676D01*
X127912856Y-118096676D02*
X127950951Y-118249057D01*
X127950951Y-118249057D02*
X127950951Y-118439533D01*
X127950951Y-118439533D02*
X127912856Y-118591914D01*
X127912856Y-118591914D02*
X127874761Y-118668104D01*
X127874761Y-118668104D02*
X127836666Y-118706200D01*
X127836666Y-118706200D02*
X127760475Y-118744295D01*
X127760475Y-118744295D02*
X127684285Y-118744295D01*
X127684285Y-118744295D02*
X127608094Y-118706200D01*
X127608094Y-118706200D02*
X127569999Y-118668104D01*
X127569999Y-118668104D02*
X127531904Y-118591914D01*
X127531904Y-118591914D02*
X127493808Y-118439533D01*
X127493808Y-118439533D02*
X127493808Y-118249057D01*
X127493808Y-118249057D02*
X127531904Y-118096676D01*
X127531904Y-118096676D02*
X127569999Y-118020485D01*
X127569999Y-118020485D02*
X127608094Y-117982390D01*
X127608094Y-117982390D02*
X127684285Y-117944295D01*
X128293809Y-118668104D02*
X128331904Y-118706200D01*
X128331904Y-118706200D02*
X128293809Y-118744295D01*
X128293809Y-118744295D02*
X128255713Y-118706200D01*
X128255713Y-118706200D02*
X128293809Y-118668104D01*
X128293809Y-118668104D02*
X128293809Y-118744295D01*
X129017618Y-117944295D02*
X128865237Y-117944295D01*
X128865237Y-117944295D02*
X128789046Y-117982390D01*
X128789046Y-117982390D02*
X128750951Y-118020485D01*
X128750951Y-118020485D02*
X128674761Y-118134771D01*
X128674761Y-118134771D02*
X128636665Y-118287152D01*
X128636665Y-118287152D02*
X128636665Y-118591914D01*
X128636665Y-118591914D02*
X128674761Y-118668104D01*
X128674761Y-118668104D02*
X128712856Y-118706200D01*
X128712856Y-118706200D02*
X128789046Y-118744295D01*
X128789046Y-118744295D02*
X128941427Y-118744295D01*
X128941427Y-118744295D02*
X129017618Y-118706200D01*
X129017618Y-118706200D02*
X129055713Y-118668104D01*
X129055713Y-118668104D02*
X129093808Y-118591914D01*
X129093808Y-118591914D02*
X129093808Y-118401438D01*
X129093808Y-118401438D02*
X129055713Y-118325247D01*
X129055713Y-118325247D02*
X129017618Y-118287152D01*
X129017618Y-118287152D02*
X128941427Y-118249057D01*
X128941427Y-118249057D02*
X128789046Y-118249057D01*
X128789046Y-118249057D02*
X128712856Y-118287152D01*
X128712856Y-118287152D02*
X128674761Y-118325247D01*
X128674761Y-118325247D02*
X128636665Y-118401438D01*
X129817618Y-117944295D02*
X129436666Y-117944295D01*
X129436666Y-117944295D02*
X129398570Y-118325247D01*
X129398570Y-118325247D02*
X129436666Y-118287152D01*
X129436666Y-118287152D02*
X129512856Y-118249057D01*
X129512856Y-118249057D02*
X129703332Y-118249057D01*
X129703332Y-118249057D02*
X129779523Y-118287152D01*
X129779523Y-118287152D02*
X129817618Y-118325247D01*
X129817618Y-118325247D02*
X129855713Y-118401438D01*
X129855713Y-118401438D02*
X129855713Y-118591914D01*
X129855713Y-118591914D02*
X129817618Y-118668104D01*
X129817618Y-118668104D02*
X129779523Y-118706200D01*
X129779523Y-118706200D02*
X129703332Y-118744295D01*
X129703332Y-118744295D02*
X129512856Y-118744295D01*
X129512856Y-118744295D02*
X129436666Y-118706200D01*
X129436666Y-118706200D02*
X129398570Y-118668104D01*
X130198571Y-118744295D02*
X130198571Y-118210961D01*
X130198571Y-118287152D02*
X130236666Y-118249057D01*
X130236666Y-118249057D02*
X130312856Y-118210961D01*
X130312856Y-118210961D02*
X130427142Y-118210961D01*
X130427142Y-118210961D02*
X130503333Y-118249057D01*
X130503333Y-118249057D02*
X130541428Y-118325247D01*
X130541428Y-118325247D02*
X130541428Y-118744295D01*
X130541428Y-118325247D02*
X130579523Y-118249057D01*
X130579523Y-118249057D02*
X130655714Y-118210961D01*
X130655714Y-118210961D02*
X130769999Y-118210961D01*
X130769999Y-118210961D02*
X130846190Y-118249057D01*
X130846190Y-118249057D02*
X130884285Y-118325247D01*
X130884285Y-118325247D02*
X130884285Y-118744295D01*
X131265238Y-118744295D02*
X131265238Y-118210961D01*
X131265238Y-118287152D02*
X131303333Y-118249057D01*
X131303333Y-118249057D02*
X131379523Y-118210961D01*
X131379523Y-118210961D02*
X131493809Y-118210961D01*
X131493809Y-118210961D02*
X131570000Y-118249057D01*
X131570000Y-118249057D02*
X131608095Y-118325247D01*
X131608095Y-118325247D02*
X131608095Y-118744295D01*
X131608095Y-118325247D02*
X131646190Y-118249057D01*
X131646190Y-118249057D02*
X131722381Y-118210961D01*
X131722381Y-118210961D02*
X131836666Y-118210961D01*
X131836666Y-118210961D02*
X131912857Y-118249057D01*
X131912857Y-118249057D02*
X131950952Y-118325247D01*
X131950952Y-118325247D02*
X131950952Y-118744295D01*
X132941429Y-118744295D02*
X132941429Y-117944295D01*
X132941429Y-117944295D02*
X133246191Y-117944295D01*
X133246191Y-117944295D02*
X133322381Y-117982390D01*
X133322381Y-117982390D02*
X133360476Y-118020485D01*
X133360476Y-118020485D02*
X133398572Y-118096676D01*
X133398572Y-118096676D02*
X133398572Y-118210961D01*
X133398572Y-118210961D02*
X133360476Y-118287152D01*
X133360476Y-118287152D02*
X133322381Y-118325247D01*
X133322381Y-118325247D02*
X133246191Y-118363342D01*
X133246191Y-118363342D02*
X132941429Y-118363342D01*
X133741429Y-118744295D02*
X133741429Y-118210961D01*
X133741429Y-117944295D02*
X133703333Y-117982390D01*
X133703333Y-117982390D02*
X133741429Y-118020485D01*
X133741429Y-118020485D02*
X133779524Y-117982390D01*
X133779524Y-117982390D02*
X133741429Y-117944295D01*
X133741429Y-117944295D02*
X133741429Y-118020485D01*
X134008095Y-118210961D02*
X134312857Y-118210961D01*
X134122381Y-117944295D02*
X134122381Y-118630009D01*
X134122381Y-118630009D02*
X134160476Y-118706200D01*
X134160476Y-118706200D02*
X134236666Y-118744295D01*
X134236666Y-118744295D02*
X134312857Y-118744295D01*
X134922381Y-118706200D02*
X134846190Y-118744295D01*
X134846190Y-118744295D02*
X134693809Y-118744295D01*
X134693809Y-118744295D02*
X134617619Y-118706200D01*
X134617619Y-118706200D02*
X134579524Y-118668104D01*
X134579524Y-118668104D02*
X134541428Y-118591914D01*
X134541428Y-118591914D02*
X134541428Y-118363342D01*
X134541428Y-118363342D02*
X134579524Y-118287152D01*
X134579524Y-118287152D02*
X134617619Y-118249057D01*
X134617619Y-118249057D02*
X134693809Y-118210961D01*
X134693809Y-118210961D02*
X134846190Y-118210961D01*
X134846190Y-118210961D02*
X134922381Y-118249057D01*
X135265238Y-118744295D02*
X135265238Y-117944295D01*
X135608095Y-118744295D02*
X135608095Y-118325247D01*
X135608095Y-118325247D02*
X135570000Y-118249057D01*
X135570000Y-118249057D02*
X135493809Y-118210961D01*
X135493809Y-118210961D02*
X135379523Y-118210961D01*
X135379523Y-118210961D02*
X135303333Y-118249057D01*
X135303333Y-118249057D02*
X135265238Y-118287152D01*
D10*
G36*
X126452672Y-87283330D02*
G01*
X125461728Y-87283330D01*
X125461728Y-86345426D01*
X125572839Y-86345426D01*
X125575605Y-86384346D01*
X125593054Y-86419245D01*
X125622531Y-86444809D01*
X125659547Y-86457148D01*
X125698467Y-86454382D01*
X125716775Y-86447376D01*
X125812013Y-86399757D01*
X125820409Y-86394471D01*
X125822849Y-86393461D01*
X125825595Y-86391207D01*
X125828603Y-86389314D01*
X125830332Y-86387319D01*
X125838003Y-86381025D01*
X125857768Y-86361260D01*
X125857768Y-86972219D01*
X125672054Y-86972219D01*
X125652545Y-86974140D01*
X125616497Y-86989072D01*
X125588907Y-87016662D01*
X125573975Y-87052710D01*
X125573975Y-87091728D01*
X125588907Y-87127776D01*
X125616497Y-87155366D01*
X125652545Y-87170298D01*
X125672054Y-87172219D01*
X126243482Y-87172219D01*
X126262991Y-87170298D01*
X126299039Y-87155366D01*
X126326629Y-87127776D01*
X126341561Y-87091728D01*
X126341561Y-87052710D01*
X126326629Y-87016662D01*
X126299039Y-86989072D01*
X126262991Y-86974140D01*
X126243482Y-86972219D01*
X126057768Y-86972219D01*
X126057768Y-86072219D01*
X126057761Y-86072148D01*
X126057768Y-86072114D01*
X126057747Y-86072012D01*
X126055847Y-86052710D01*
X126052057Y-86043561D01*
X126050116Y-86033854D01*
X126044664Y-86025713D01*
X126040915Y-86016662D01*
X126033915Y-86009662D01*
X126028405Y-86001434D01*
X126020250Y-85995997D01*
X126013325Y-85989072D01*
X126004181Y-85985284D01*
X125995940Y-85979790D01*
X125986326Y-85977888D01*
X125977277Y-85974140D01*
X125967376Y-85974140D01*
X125957664Y-85972219D01*
X125948059Y-85974140D01*
X125938259Y-85974140D01*
X125929110Y-85977929D01*
X125919403Y-85979871D01*
X125911262Y-85985322D01*
X125902211Y-85989072D01*
X125895211Y-85996071D01*
X125886983Y-86001582D01*
X125874694Y-86016588D01*
X125874621Y-86016662D01*
X125874607Y-86016694D01*
X125874563Y-86016749D01*
X125784819Y-86151365D01*
X125708055Y-86228128D01*
X125627333Y-86268490D01*
X125610742Y-86278933D01*
X125585178Y-86308410D01*
X125572839Y-86345426D01*
X125461728Y-86345426D01*
X125461728Y-85861108D01*
X126452672Y-85861108D01*
X126452672Y-87283330D01*
G37*
X136535564Y-120082219D02*
X135964136Y-120082219D01*
X136249850Y-120082219D02*
X136249850Y-119082219D01*
X136249850Y-119082219D02*
X136154612Y-119225076D01*
X136154612Y-119225076D02*
X136059374Y-119320314D01*
X136059374Y-119320314D02*
X135964136Y-119367933D01*
X137440326Y-119082219D02*
X136964136Y-119082219D01*
X136964136Y-119082219D02*
X136916517Y-119558409D01*
X136916517Y-119558409D02*
X136964136Y-119510790D01*
X136964136Y-119510790D02*
X137059374Y-119463171D01*
X137059374Y-119463171D02*
X137297469Y-119463171D01*
X137297469Y-119463171D02*
X137392707Y-119510790D01*
X137392707Y-119510790D02*
X137440326Y-119558409D01*
X137440326Y-119558409D02*
X137487945Y-119653647D01*
X137487945Y-119653647D02*
X137487945Y-119891742D01*
X137487945Y-119891742D02*
X137440326Y-119986980D01*
X137440326Y-119986980D02*
X137392707Y-120034600D01*
X137392707Y-120034600D02*
X137297469Y-120082219D01*
X137297469Y-120082219D02*
X137059374Y-120082219D01*
X137059374Y-120082219D02*
X136964136Y-120034600D01*
X136964136Y-120034600D02*
X136916517Y-119986980D01*
G36*
X137333471Y-86630595D02*
G01*
X137358140Y-86655263D01*
X137387945Y-86714873D01*
X137387945Y-86858135D01*
X137358140Y-86917743D01*
X137333471Y-86942413D01*
X137273862Y-86972219D01*
X137130600Y-86972219D01*
X137070990Y-86942414D01*
X137046323Y-86917746D01*
X137016517Y-86858134D01*
X137016517Y-86714873D01*
X137046322Y-86655263D01*
X137070990Y-86630594D01*
X137130600Y-86600790D01*
X137273862Y-86600790D01*
X137333471Y-86630595D01*
G37*
G36*
X137333471Y-86202024D02*
G01*
X137358140Y-86226692D01*
X137387945Y-86286302D01*
X137387945Y-86286707D01*
X137358140Y-86346316D01*
X137333471Y-86370984D01*
X137273862Y-86400790D01*
X137130600Y-86400790D01*
X137070990Y-86370985D01*
X137046322Y-86346316D01*
X137016517Y-86286706D01*
X137016517Y-86286302D01*
X137046322Y-86226692D01*
X137070990Y-86202023D01*
X137130600Y-86172219D01*
X137273862Y-86172219D01*
X137333471Y-86202024D01*
G37*
G36*
X137699056Y-87283330D02*
G01*
X135707327Y-87283330D01*
X135707327Y-87052710D01*
X135818438Y-87052710D01*
X135818438Y-87091728D01*
X135833370Y-87127776D01*
X135860960Y-87155366D01*
X135897008Y-87170298D01*
X135916517Y-87172219D01*
X136535564Y-87172219D01*
X136555073Y-87170298D01*
X136591121Y-87155366D01*
X136618711Y-87127776D01*
X136633643Y-87091728D01*
X136633643Y-87052710D01*
X136618711Y-87016662D01*
X136591121Y-86989072D01*
X136555073Y-86974140D01*
X136535564Y-86972219D01*
X136157939Y-86972219D01*
X136558656Y-86571501D01*
X136571092Y-86556347D01*
X136572466Y-86553028D01*
X136574822Y-86550313D01*
X136582813Y-86532413D01*
X136630432Y-86389556D01*
X136632631Y-86379883D01*
X136633643Y-86377442D01*
X136633991Y-86373904D01*
X136634779Y-86370441D01*
X136634591Y-86367806D01*
X136635564Y-86357933D01*
X136635564Y-86262695D01*
X136816517Y-86262695D01*
X136816517Y-86310314D01*
X136818438Y-86329823D01*
X136819813Y-86333143D01*
X136820068Y-86336727D01*
X136827074Y-86355035D01*
X136874693Y-86450273D01*
X136879978Y-86458669D01*
X136880989Y-86461109D01*
X136883242Y-86463855D01*
X136885136Y-86466863D01*
X136887130Y-86468592D01*
X136893425Y-86476263D01*
X136917952Y-86500790D01*
X136893425Y-86525317D01*
X136887130Y-86532987D01*
X136885136Y-86534717D01*
X136883242Y-86537724D01*
X136880989Y-86540471D01*
X136879978Y-86542910D01*
X136874693Y-86551307D01*
X136827074Y-86646545D01*
X136820068Y-86664853D01*
X136819813Y-86668436D01*
X136818438Y-86671757D01*
X136816517Y-86691266D01*
X136816517Y-86881742D01*
X136818438Y-86901251D01*
X136819813Y-86904571D01*
X136820068Y-86908155D01*
X136827074Y-86926463D01*
X136874693Y-87021701D01*
X136879976Y-87030093D01*
X136880988Y-87032537D01*
X136883244Y-87035286D01*
X136885136Y-87038291D01*
X136887130Y-87040020D01*
X136893425Y-87047690D01*
X136941043Y-87095310D01*
X136948711Y-87101603D01*
X136950443Y-87103600D01*
X136953451Y-87105493D01*
X136956197Y-87107747D01*
X136958637Y-87108757D01*
X136967034Y-87114043D01*
X137062271Y-87161662D01*
X137080580Y-87168668D01*
X137084163Y-87168922D01*
X137087484Y-87170298D01*
X137106993Y-87172219D01*
X137297469Y-87172219D01*
X137316978Y-87170298D01*
X137320298Y-87168922D01*
X137323882Y-87168668D01*
X137342190Y-87161662D01*
X137437428Y-87114043D01*
X137445823Y-87108758D01*
X137448265Y-87107747D01*
X137451012Y-87105491D01*
X137454018Y-87103600D01*
X137455748Y-87101605D01*
X137463418Y-87095310D01*
X137511037Y-87047690D01*
X137517329Y-87040023D01*
X137519326Y-87038292D01*
X137521219Y-87035284D01*
X137523474Y-87032537D01*
X137524485Y-87030095D01*
X137529769Y-87021701D01*
X137577388Y-86926464D01*
X137584394Y-86908155D01*
X137584648Y-86904571D01*
X137586024Y-86901251D01*
X137587945Y-86881742D01*
X137587945Y-86691266D01*
X137586024Y-86671757D01*
X137584648Y-86668436D01*
X137584394Y-86664853D01*
X137577388Y-86646544D01*
X137529769Y-86551307D01*
X137524483Y-86542910D01*
X137523473Y-86540470D01*
X137521219Y-86537724D01*
X137519326Y-86534716D01*
X137517328Y-86532983D01*
X137511036Y-86525317D01*
X137486509Y-86500790D01*
X137511036Y-86476263D01*
X137517328Y-86468596D01*
X137519326Y-86466864D01*
X137521219Y-86463855D01*
X137523473Y-86461110D01*
X137524483Y-86458669D01*
X137529769Y-86450273D01*
X137577388Y-86355036D01*
X137584394Y-86336727D01*
X137584648Y-86333143D01*
X137586024Y-86329823D01*
X137587945Y-86310314D01*
X137587945Y-86262695D01*
X137586024Y-86243186D01*
X137584648Y-86239865D01*
X137584394Y-86236282D01*
X137577388Y-86217973D01*
X137529769Y-86122736D01*
X137524483Y-86114339D01*
X137523473Y-86111899D01*
X137521219Y-86109153D01*
X137519326Y-86106145D01*
X137517328Y-86104412D01*
X137511036Y-86096746D01*
X137463418Y-86049127D01*
X137455747Y-86042832D01*
X137454018Y-86040838D01*
X137451010Y-86038944D01*
X137448264Y-86036691D01*
X137445824Y-86035680D01*
X137437428Y-86030395D01*
X137342190Y-85982776D01*
X137323882Y-85975770D01*
X137320298Y-85975515D01*
X137316978Y-85974140D01*
X137297469Y-85972219D01*
X137106993Y-85972219D01*
X137087484Y-85974140D01*
X137084163Y-85975515D01*
X137080580Y-85975770D01*
X137062271Y-85982776D01*
X136967034Y-86030395D01*
X136958637Y-86035680D01*
X136956197Y-86036691D01*
X136953451Y-86038944D01*
X136950443Y-86040838D01*
X136948710Y-86042835D01*
X136941044Y-86049128D01*
X136893425Y-86096746D01*
X136887130Y-86104416D01*
X136885136Y-86106146D01*
X136883242Y-86109153D01*
X136880989Y-86111900D01*
X136879978Y-86114339D01*
X136874693Y-86122736D01*
X136827074Y-86217974D01*
X136820068Y-86236282D01*
X136819813Y-86239865D01*
X136818438Y-86243186D01*
X136816517Y-86262695D01*
X136635564Y-86262695D01*
X136633643Y-86243186D01*
X136632267Y-86239865D01*
X136632013Y-86236282D01*
X136625007Y-86217973D01*
X136577388Y-86122736D01*
X136572102Y-86114339D01*
X136571092Y-86111899D01*
X136568838Y-86109153D01*
X136566945Y-86106145D01*
X136564947Y-86104412D01*
X136558655Y-86096746D01*
X136511037Y-86049127D01*
X136503366Y-86042832D01*
X136501637Y-86040838D01*
X136498629Y-86038944D01*
X136495883Y-86036691D01*
X136493443Y-86035680D01*
X136485047Y-86030395D01*
X136389809Y-85982776D01*
X136371501Y-85975770D01*
X136367917Y-85975515D01*
X136364597Y-85974140D01*
X136345088Y-85972219D01*
X136106993Y-85972219D01*
X136087484Y-85974140D01*
X136084163Y-85975515D01*
X136080580Y-85975770D01*
X136062271Y-85982776D01*
X135967034Y-86030395D01*
X135958637Y-86035680D01*
X135956197Y-86036691D01*
X135953451Y-86038944D01*
X135950443Y-86040838D01*
X135948710Y-86042835D01*
X135941044Y-86049128D01*
X135893425Y-86096746D01*
X135880989Y-86111900D01*
X135866057Y-86147948D01*
X135866057Y-86186966D01*
X135880989Y-86223014D01*
X135908579Y-86250604D01*
X135944627Y-86265536D01*
X135983645Y-86265536D01*
X136019693Y-86250604D01*
X136034847Y-86238168D01*
X136070990Y-86202023D01*
X136130600Y-86172219D01*
X136321481Y-86172219D01*
X136381090Y-86202024D01*
X136405759Y-86226692D01*
X136435564Y-86286302D01*
X136435564Y-86341706D01*
X136400542Y-86446770D01*
X135845806Y-87001508D01*
X135833370Y-87016662D01*
X135818438Y-87052710D01*
X135707327Y-87052710D01*
X135707327Y-85861108D01*
X137699056Y-85861108D01*
X137699056Y-87283330D01*
G37*
D12*
X122666285Y-83688819D02*
X122666285Y-84403104D01*
X122666285Y-84403104D02*
X122618666Y-84545961D01*
X122618666Y-84545961D02*
X122523428Y-84641200D01*
X122523428Y-84641200D02*
X122380571Y-84688819D01*
X122380571Y-84688819D02*
X122285333Y-84688819D01*
X123666285Y-84688819D02*
X123094857Y-84688819D01*
X123380571Y-84688819D02*
X123380571Y-83688819D01*
X123380571Y-83688819D02*
X123285333Y-83831676D01*
X123285333Y-83831676D02*
X123190095Y-83926914D01*
X123190095Y-83926914D02*
X123094857Y-83974533D01*
X124285333Y-83688819D02*
X124380571Y-83688819D01*
X124380571Y-83688819D02*
X124475809Y-83736438D01*
X124475809Y-83736438D02*
X124523428Y-83784057D01*
X124523428Y-83784057D02*
X124571047Y-83879295D01*
X124571047Y-83879295D02*
X124618666Y-84069771D01*
X124618666Y-84069771D02*
X124618666Y-84307866D01*
X124618666Y-84307866D02*
X124571047Y-84498342D01*
X124571047Y-84498342D02*
X124523428Y-84593580D01*
X124523428Y-84593580D02*
X124475809Y-84641200D01*
X124475809Y-84641200D02*
X124380571Y-84688819D01*
X124380571Y-84688819D02*
X124285333Y-84688819D01*
X124285333Y-84688819D02*
X124190095Y-84641200D01*
X124190095Y-84641200D02*
X124142476Y-84593580D01*
X124142476Y-84593580D02*
X124094857Y-84498342D01*
X124094857Y-84498342D02*
X124047238Y-84307866D01*
X124047238Y-84307866D02*
X124047238Y-84069771D01*
X124047238Y-84069771D02*
X124094857Y-83879295D01*
X124094857Y-83879295D02*
X124142476Y-83784057D01*
X124142476Y-83784057D02*
X124190095Y-83736438D01*
X124190095Y-83736438D02*
X124285333Y-83688819D01*
X125571047Y-84688819D02*
X124999619Y-84688819D01*
X125285333Y-84688819D02*
X125285333Y-83688819D01*
X125285333Y-83688819D02*
X125190095Y-83831676D01*
X125190095Y-83831676D02*
X125094857Y-83926914D01*
X125094857Y-83926914D02*
X124999619Y-83974533D01*
D13*
G36*
X133438438Y-110422906D02*
G01*
X133445936Y-110431694D01*
X133453612Y-110440377D01*
X133461857Y-110449364D01*
X133471066Y-110459062D01*
X133481630Y-110469882D01*
X133493942Y-110482231D01*
X133508395Y-110496519D01*
X133521765Y-110509620D01*
X133531574Y-110519217D01*
X133543831Y-110531227D01*
X133558202Y-110545323D01*
X133574352Y-110561175D01*
X133591947Y-110578456D01*
X133610653Y-110596838D01*
X133630136Y-110615990D01*
X133650061Y-110635586D01*
X133670094Y-110655296D01*
X133689900Y-110674793D01*
X133695767Y-110680571D01*
X133717324Y-110701792D01*
X133740603Y-110724697D01*
X133765089Y-110748779D01*
X133790266Y-110773531D01*
X133815618Y-110798447D01*
X133840631Y-110823019D01*
X133864787Y-110846742D01*
X133887573Y-110869108D01*
X133908471Y-110889611D01*
X133922344Y-110903213D01*
X133946885Y-110927273D01*
X133968777Y-110948749D01*
X133988166Y-110967788D01*
X134005198Y-110984537D01*
X134020020Y-110999141D01*
X134032776Y-111011747D01*
X134043612Y-111022501D01*
X134052675Y-111031549D01*
X134060111Y-111039039D01*
X134066064Y-111045116D01*
X134070681Y-111049926D01*
X134074109Y-111053617D01*
X134076491Y-111056333D01*
X134077976Y-111058223D01*
X134078707Y-111059431D01*
X134078832Y-111060104D01*
X134078792Y-111060197D01*
X134076905Y-111061894D01*
X134072430Y-111065406D01*
X134065959Y-111070283D01*
X134058085Y-111076074D01*
X134054604Y-111078597D01*
X134044874Y-111085710D01*
X134034908Y-111093155D01*
X134025800Y-111100102D01*
X134018645Y-111105725D01*
X134017926Y-111106308D01*
X134011360Y-111111576D01*
X134002682Y-111118438D01*
X133992885Y-111126112D01*
X133982960Y-111133820D01*
X133979965Y-111136132D01*
X133939438Y-111168490D01*
X133901544Y-111201069D01*
X133866519Y-111233639D01*
X133834597Y-111265973D01*
X133806016Y-111297844D01*
X133782133Y-111327535D01*
X133752441Y-111369857D01*
X133726183Y-111413884D01*
X133703332Y-111459687D01*
X133683859Y-111507339D01*
X133667737Y-111556909D01*
X133654938Y-111608469D01*
X133645434Y-111662089D01*
X133642847Y-111681633D01*
X133641278Y-111698201D01*
X133640156Y-111717645D01*
X133639481Y-111738996D01*
X133639253Y-111761284D01*
X133639473Y-111783537D01*
X133640141Y-111804785D01*
X133641258Y-111824058D01*
X133642759Y-111839846D01*
X133650860Y-111891888D01*
X133662343Y-111941980D01*
X133677219Y-111990146D01*
X133695501Y-112036415D01*
X133717202Y-112080811D01*
X133742334Y-112123362D01*
X133770908Y-112164094D01*
X133802939Y-112203034D01*
X133822570Y-112224254D01*
X133835731Y-112237373D01*
X133851819Y-112252458D01*
X133870874Y-112269541D01*
X133892933Y-112288656D01*
X133918034Y-112309833D01*
X133946216Y-112333106D01*
X133977516Y-112358507D01*
X134011974Y-112386067D01*
X134035622Y-112404793D01*
X134046812Y-112413708D01*
X134056956Y-112421956D01*
X134065657Y-112429199D01*
X134072515Y-112435100D01*
X134077132Y-112439322D01*
X134079111Y-112441528D01*
X134079152Y-112441642D01*
X134077870Y-112443334D01*
X134073973Y-112447732D01*
X134067558Y-112454735D01*
X134058725Y-112464237D01*
X134047570Y-112476137D01*
X134034194Y-112490330D01*
X134018693Y-112506714D01*
X134001165Y-112525184D01*
X133981710Y-112545639D01*
X133960426Y-112567974D01*
X133937410Y-112592087D01*
X133912761Y-112617874D01*
X133886576Y-112645231D01*
X133858956Y-112674056D01*
X133829996Y-112704245D01*
X133799797Y-112735695D01*
X133770867Y-112765794D01*
X133742015Y-112795799D01*
X133713811Y-112825127D01*
X133686380Y-112853650D01*
X133659847Y-112881237D01*
X133634337Y-112907758D01*
X133609975Y-112933085D01*
X133586886Y-112957086D01*
X133565194Y-112979632D01*
X133545025Y-113000594D01*
X133526503Y-113019842D01*
X133509753Y-113037245D01*
X133494900Y-113052675D01*
X133482069Y-113066001D01*
X133471385Y-113077094D01*
X133462972Y-113085823D01*
X133456955Y-113092060D01*
X133453460Y-113095674D01*
X133452704Y-113096450D01*
X133443395Y-113105906D01*
X133392813Y-113065104D01*
X133368834Y-113045843D01*
X133347352Y-113028774D01*
X133327896Y-113013547D01*
X133309998Y-112999811D01*
X133293188Y-112987214D01*
X133276998Y-112975404D01*
X133260958Y-112964032D01*
X133244599Y-112952746D01*
X133227453Y-112941194D01*
X133226012Y-112940233D01*
X133174439Y-112907309D01*
X133121969Y-112876569D01*
X133069066Y-112848241D01*
X133016194Y-112822554D01*
X132963815Y-112799737D01*
X132912395Y-112780018D01*
X132876381Y-112767916D01*
X132812626Y-112749856D01*
X132747336Y-112735386D01*
X132680518Y-112724507D01*
X132612181Y-112717218D01*
X132542331Y-112713521D01*
X132470976Y-112713417D01*
X132398123Y-112716905D01*
X132362678Y-112719852D01*
X132302356Y-112727283D01*
X132241766Y-112738153D01*
X132181520Y-112752296D01*
X132122232Y-112769548D01*
X132064514Y-112789745D01*
X132008978Y-112812720D01*
X131996444Y-112818442D01*
X131987023Y-112822818D01*
X131977177Y-112827386D01*
X131968591Y-112831362D01*
X131966169Y-112832482D01*
X131939168Y-112845716D01*
X131909980Y-112861413D01*
X131879128Y-112879224D01*
X131847138Y-112898800D01*
X131814535Y-112919793D01*
X131781845Y-112941855D01*
X131749593Y-112964638D01*
X131718303Y-112987794D01*
X131688502Y-113010974D01*
X131660714Y-113033831D01*
X131654626Y-113039037D01*
X131646486Y-113046055D01*
X131636350Y-113054795D01*
X131625183Y-113064428D01*
X131613944Y-113074122D01*
X131606308Y-113080711D01*
X131597200Y-113088416D01*
X131588901Y-113095147D01*
X131581927Y-113100510D01*
X131576797Y-113104106D01*
X131574026Y-113105540D01*
X131573916Y-113105549D01*
X131570732Y-113103911D01*
X131566366Y-113099393D01*
X131562745Y-113094566D01*
X131557004Y-113087400D01*
X131548204Y-113078089D01*
X131536469Y-113066748D01*
X131521923Y-113053495D01*
X131504693Y-113038446D01*
X131484901Y-113021717D01*
X131483709Y-113020724D01*
X131425687Y-112974645D01*
X131366901Y-112932374D01*
X131307277Y-112893875D01*
X131246744Y-112859111D01*
X131185229Y-112828045D01*
X131122660Y-112800642D01*
X131058964Y-112776865D01*
X130994069Y-112756677D01*
X130927903Y-112740042D01*
X130925351Y-112739477D01*
X130865152Y-112727911D01*
X130802961Y-112719226D01*
X130739464Y-112713458D01*
X130675343Y-112710642D01*
X130611283Y-112710812D01*
X130547968Y-112714004D01*
X130505141Y-112717979D01*
X130437512Y-112727438D01*
X130370609Y-112740725D01*
X130304485Y-112757820D01*
X130239195Y-112778702D01*
X130174793Y-112803350D01*
X130111334Y-112831744D01*
X130048871Y-112863863D01*
X129987459Y-112899687D01*
X129935771Y-112933277D01*
X129920315Y-112943916D01*
X129905649Y-112954260D01*
X129891176Y-112964756D01*
X129876299Y-112975852D01*
X129860419Y-112987994D01*
X129842940Y-113001630D01*
X129823265Y-113017208D01*
X129816623Y-113022504D01*
X129797212Y-113037972D01*
X129779330Y-113052162D01*
X129763207Y-113064893D01*
X129749078Y-113075980D01*
X129737176Y-113085243D01*
X129727734Y-113092497D01*
X129720986Y-113097561D01*
X129718818Y-113099127D01*
X129712816Y-113103369D01*
X129568418Y-112951782D01*
X129530437Y-112911908D01*
X129495001Y-112874702D01*
X129461962Y-112840007D01*
X129431168Y-112807664D01*
X129402469Y-112777515D01*
X129375716Y-112749401D01*
X129350757Y-112723164D01*
X129327444Y-112698646D01*
X129305625Y-112675689D01*
X129285150Y-112654134D01*
X129265870Y-112633823D01*
X129247634Y-112614599D01*
X129230291Y-112596301D01*
X129213693Y-112578773D01*
X129197687Y-112561856D01*
X129182125Y-112545391D01*
X129166856Y-112529221D01*
X129151730Y-112513187D01*
X129136596Y-112497131D01*
X129121305Y-112480895D01*
X129105707Y-112464319D01*
X129090626Y-112448285D01*
X129167491Y-112448285D01*
X129214577Y-112498092D01*
X129261874Y-112548090D01*
X129307030Y-112595765D01*
X129350563Y-112641657D01*
X129392985Y-112686308D01*
X129434814Y-112730261D01*
X129476562Y-112774056D01*
X129518747Y-112818236D01*
X129561883Y-112863342D01*
X129562701Y-112864196D01*
X129581489Y-112883830D01*
X129599757Y-112902925D01*
X129617291Y-112921258D01*
X129633878Y-112938605D01*
X129649305Y-112954743D01*
X129663356Y-112969447D01*
X129675819Y-112982494D01*
X129686481Y-112993661D01*
X129695126Y-113002724D01*
X129701542Y-113009460D01*
X129705514Y-113013644D01*
X129706016Y-113014175D01*
X129712540Y-113020961D01*
X129717038Y-113025208D01*
X129720059Y-113027315D01*
X129722149Y-113027683D01*
X129723548Y-113026971D01*
X129726136Y-113024827D01*
X129731040Y-113020684D01*
X129737615Y-113015091D01*
X129745214Y-113008597D01*
X129747235Y-113006865D01*
X129807560Y-112957424D01*
X129868780Y-112911780D01*
X129930919Y-112869924D01*
X129994001Y-112831844D01*
X130058048Y-112797530D01*
X130123085Y-112766972D01*
X130189135Y-112740160D01*
X130256222Y-112717082D01*
X130324368Y-112697729D01*
X130393598Y-112682089D01*
X130463934Y-112670154D01*
X130520767Y-112663289D01*
X130593155Y-112657901D01*
X130664579Y-112656255D01*
X130735078Y-112658364D01*
X130804691Y-112664236D01*
X130873458Y-112673884D01*
X130941417Y-112687317D01*
X131008608Y-112704547D01*
X131075070Y-112725584D01*
X131140843Y-112750439D01*
X131205964Y-112779123D01*
X131270474Y-112811647D01*
X131334412Y-112848020D01*
X131397817Y-112888255D01*
X131434886Y-112913734D01*
X131457349Y-112929959D01*
X131481142Y-112947762D01*
X131505303Y-112966394D01*
X131528870Y-112985102D01*
X131550881Y-113003136D01*
X131567404Y-113017164D01*
X131581750Y-113029587D01*
X131587247Y-113025085D01*
X131590398Y-113022469D01*
X131595985Y-113017796D01*
X131603461Y-113011526D01*
X131612274Y-113004119D01*
X131621876Y-112996038D01*
X131623685Y-112994514D01*
X131657100Y-112967265D01*
X131692842Y-112939775D01*
X131729985Y-112912703D01*
X131767600Y-112886707D01*
X131804759Y-112862444D01*
X131840533Y-112840570D01*
X131843114Y-112839056D01*
X131873691Y-112821883D01*
X131906818Y-112804553D01*
X131941572Y-112787491D01*
X131977028Y-112771123D01*
X132012260Y-112755877D01*
X132046344Y-112742177D01*
X132078355Y-112730450D01*
X132080434Y-112729734D01*
X132148516Y-112708446D01*
X132217260Y-112691003D01*
X132286685Y-112677402D01*
X132356813Y-112667640D01*
X132427666Y-112661714D01*
X132499265Y-112659620D01*
X132550242Y-112660447D01*
X132619517Y-112664619D01*
X132687676Y-112672299D01*
X132754851Y-112683531D01*
X132821174Y-112698357D01*
X132886776Y-112716819D01*
X132951789Y-112738959D01*
X133016345Y-112764819D01*
X133080575Y-112794443D01*
X133144612Y-112827872D01*
X133208586Y-112865149D01*
X133231108Y-112879189D01*
X133275021Y-112907997D01*
X133318410Y-112938456D01*
X133362126Y-112971183D01*
X133400246Y-113001298D01*
X133434823Y-113029234D01*
X133457061Y-113006353D01*
X133461631Y-113001624D01*
X133468671Y-112994304D01*
X133477954Y-112984630D01*
X133489254Y-112972839D01*
X133502343Y-112959167D01*
X133516997Y-112943850D01*
X133532989Y-112927126D01*
X133550091Y-112909231D01*
X133568079Y-112890401D01*
X133586725Y-112870874D01*
X133605803Y-112850885D01*
X133610686Y-112845767D01*
X133633913Y-112821427D01*
X133654657Y-112799697D01*
X133673130Y-112780359D01*
X133689542Y-112763194D01*
X133704105Y-112747984D01*
X133717030Y-112734510D01*
X133728529Y-112722555D01*
X133738813Y-112711899D01*
X133748093Y-112702325D01*
X133756581Y-112693613D01*
X133764488Y-112685546D01*
X133772026Y-112677905D01*
X133779404Y-112670471D01*
X133786836Y-112663026D01*
X133794532Y-112655352D01*
X133802703Y-112647230D01*
X133804183Y-112645761D01*
X133812251Y-112637680D01*
X133819260Y-112630516D01*
X133824774Y-112624728D01*
X133828354Y-112620777D01*
X133829565Y-112619138D01*
X133830884Y-112617412D01*
X133834593Y-112613318D01*
X133840316Y-112607251D01*
X133847678Y-112599604D01*
X133856306Y-112590772D01*
X133863258Y-112583731D01*
X133873111Y-112573756D01*
X133885027Y-112561631D01*
X133898359Y-112548015D01*
X133912459Y-112533573D01*
X133926681Y-112518966D01*
X133940378Y-112504857D01*
X133946324Y-112498716D01*
X133995696Y-112447677D01*
X133988362Y-112441632D01*
X133983784Y-112438100D01*
X133980397Y-112435922D01*
X133979482Y-112435586D01*
X133977461Y-112434380D01*
X133973184Y-112431113D01*
X133967318Y-112426314D01*
X133961859Y-112421664D01*
X133954901Y-112415749D01*
X133945760Y-112408140D01*
X133935320Y-112399564D01*
X133924466Y-112390747D01*
X133916484Y-112384335D01*
X133907252Y-112376885D01*
X133899048Y-112370126D01*
X133892378Y-112364485D01*
X133887744Y-112360387D01*
X133885651Y-112358259D01*
X133885623Y-112358215D01*
X133882651Y-112355787D01*
X133881229Y-112355503D01*
X133878691Y-112354528D01*
X133878396Y-112353753D01*
X133876991Y-112351904D01*
X133873142Y-112348062D01*
X133867395Y-112342745D01*
X133860299Y-112336470D01*
X133858375Y-112334810D01*
X133829717Y-112309512D01*
X133804020Y-112285296D01*
X133780723Y-112261558D01*
X133759264Y-112237690D01*
X133739081Y-112213086D01*
X133719614Y-112187140D01*
X133712955Y-112177758D01*
X133686279Y-112136573D01*
X133662328Y-112093244D01*
X133641269Y-112048222D01*
X133623266Y-112001958D01*
X133608484Y-111954904D01*
X133597090Y-111907510D01*
X133589247Y-111860227D01*
X133586310Y-111832033D01*
X133583945Y-111795939D01*
X133582918Y-111762638D01*
X133583230Y-111731254D01*
X133584883Y-111700910D01*
X133586440Y-111683587D01*
X133587854Y-111670185D01*
X133588998Y-111660238D01*
X133589923Y-111653309D01*
X133590072Y-111652335D01*
X133590789Y-111647466D01*
X133591717Y-111640791D01*
X133592133Y-111637685D01*
X133593922Y-111626239D01*
X133596545Y-111612158D01*
X133599761Y-111596563D01*
X133603332Y-111580575D01*
X133607020Y-111565317D01*
X133609911Y-111554322D01*
X133625901Y-111502571D01*
X133644724Y-111453325D01*
X133666550Y-111406231D01*
X133691550Y-111360933D01*
X133719895Y-111317078D01*
X133733156Y-111298573D01*
X133738238Y-111291560D01*
X133742314Y-111285692D01*
X133744902Y-111281680D01*
X133745575Y-111280298D01*
X133746958Y-111278203D01*
X133750302Y-111275133D01*
X133750458Y-111275009D01*
X133753871Y-111271746D01*
X133755340Y-111269195D01*
X133755341Y-111269150D01*
X133756740Y-111266638D01*
X133760117Y-111263375D01*
X133760225Y-111263290D01*
X133763645Y-111259937D01*
X133765107Y-111257189D01*
X133765108Y-111257149D01*
X133766521Y-111254626D01*
X133770079Y-111250970D01*
X133771944Y-111249395D01*
X133776083Y-111245698D01*
X133778513Y-111242767D01*
X133778780Y-111242024D01*
X133780112Y-111240160D01*
X133783818Y-111236015D01*
X133789462Y-111230023D01*
X133796611Y-111222620D01*
X133804828Y-111214239D01*
X133813681Y-111205316D01*
X133822733Y-111196284D01*
X133831550Y-111187578D01*
X133839697Y-111179632D01*
X133846740Y-111172881D01*
X133852243Y-111167760D01*
X133855771Y-111164703D01*
X133856839Y-111164023D01*
X133859019Y-111162618D01*
X133862574Y-111159023D01*
X133864958Y-111156210D01*
X133868993Y-111151738D01*
X133872390Y-111148910D01*
X133873666Y-111148397D01*
X133876393Y-111147014D01*
X133880105Y-111143586D01*
X133881026Y-111142538D01*
X133884640Y-111138781D01*
X133887450Y-111136779D01*
X133887894Y-111136678D01*
X133890346Y-111135281D01*
X133893582Y-111131910D01*
X133893673Y-111131795D01*
X133896735Y-111128400D01*
X133898852Y-111126914D01*
X133898900Y-111126912D01*
X133900883Y-111125758D01*
X133905239Y-111122619D01*
X133911318Y-111117981D01*
X133918151Y-111112582D01*
X133926714Y-111105788D01*
X133935581Y-111098877D01*
X133943514Y-111092810D01*
X133947775Y-111089631D01*
X133954296Y-111084742D01*
X133962637Y-111078336D01*
X133971581Y-111071353D01*
X133977769Y-111066449D01*
X133996004Y-111051887D01*
X133971875Y-111028360D01*
X133966859Y-111023457D01*
X133959307Y-111016057D01*
X133949467Y-111006402D01*
X133937586Y-110994737D01*
X133923911Y-110981305D01*
X133908691Y-110966348D01*
X133892172Y-110950111D01*
X133874604Y-110932837D01*
X133856232Y-110914769D01*
X133837305Y-110896150D01*
X133820716Y-110879826D01*
X133801082Y-110860514D01*
X133780410Y-110840200D01*
X133758894Y-110819072D01*
X133736725Y-110797318D01*
X133714096Y-110775124D01*
X133691197Y-110752680D01*
X133668222Y-110730172D01*
X133645362Y-110707790D01*
X133622809Y-110685719D01*
X133600757Y-110664149D01*
X133579395Y-110643266D01*
X133558917Y-110623259D01*
X133539515Y-110604316D01*
X133521381Y-110586623D01*
X133504706Y-110570370D01*
X133489684Y-110555743D01*
X133476505Y-110542931D01*
X133465362Y-110532121D01*
X133456448Y-110523500D01*
X133449953Y-110517258D01*
X133446300Y-110513794D01*
X133440210Y-110508380D01*
X133435936Y-110505386D01*
X133432666Y-110504345D01*
X133430310Y-110504582D01*
X133427188Y-110506248D01*
X133421795Y-110510030D01*
X133414773Y-110515443D01*
X133406763Y-110522003D01*
X133402702Y-110525463D01*
X133347388Y-110570664D01*
X133289396Y-110613151D01*
X133228967Y-110652799D01*
X133166344Y-110689486D01*
X133101771Y-110723091D01*
X133035490Y-110753489D01*
X132967744Y-110780558D01*
X132898776Y-110804177D01*
X132828828Y-110824221D01*
X132794345Y-110832684D01*
X132742687Y-110843477D01*
X132690944Y-110851853D01*
X132638354Y-110857894D01*
X132584159Y-110861682D01*
X132527597Y-110863302D01*
X132513077Y-110863378D01*
X132456721Y-110862446D01*
X132402590Y-110859476D01*
X132349674Y-110854348D01*
X132296964Y-110846942D01*
X132243450Y-110837135D01*
X132188122Y-110824807D01*
X132185350Y-110824137D01*
X132171707Y-110820709D01*
X132156851Y-110816772D01*
X132141249Y-110812468D01*
X132125366Y-110807939D01*
X132109670Y-110803328D01*
X132094627Y-110798778D01*
X132080704Y-110794431D01*
X132068367Y-110790429D01*
X132058082Y-110786917D01*
X132050316Y-110784035D01*
X132045537Y-110781926D01*
X132044226Y-110781001D01*
X132041862Y-110779704D01*
X132036932Y-110778137D01*
X132032995Y-110777187D01*
X132027324Y-110775666D01*
X132023627Y-110774087D01*
X132022813Y-110773213D01*
X132021140Y-110771866D01*
X132017930Y-110771421D01*
X132014258Y-110770837D01*
X132013047Y-110769718D01*
X132011321Y-110768377D01*
X132007009Y-110767093D01*
X132005234Y-110766765D01*
X132000349Y-110765557D01*
X131997625Y-110764055D01*
X131997421Y-110763585D01*
X131995753Y-110762119D01*
X131992677Y-110761655D01*
X131987722Y-110760485D01*
X131985004Y-110758725D01*
X131981141Y-110756291D01*
X131978865Y-110755795D01*
X131974895Y-110754491D01*
X131972726Y-110752865D01*
X131968495Y-110750527D01*
X131965053Y-110749935D01*
X131961448Y-110749358D01*
X131960309Y-110748296D01*
X131958674Y-110746348D01*
X131954801Y-110744187D01*
X131950244Y-110742555D01*
X131947382Y-110742122D01*
X131943620Y-110740828D01*
X131941474Y-110739193D01*
X131937214Y-110736827D01*
X131933940Y-110736263D01*
X131929196Y-110735228D01*
X131926755Y-110733712D01*
X131924361Y-110732149D01*
X131918984Y-110729092D01*
X131911124Y-110724813D01*
X131901283Y-110719580D01*
X131889964Y-110713664D01*
X131880226Y-110708644D01*
X131834812Y-110684504D01*
X131791704Y-110659726D01*
X131750065Y-110633763D01*
X131709057Y-110606072D01*
X131667844Y-110576107D01*
X131625587Y-110543324D01*
X131623029Y-110541278D01*
X131609411Y-110530530D01*
X131598349Y-110522200D01*
X131589497Y-110516090D01*
X131582509Y-110512003D01*
X131577037Y-110509742D01*
X131572735Y-110509110D01*
X131569258Y-110509909D01*
X131568549Y-110510269D01*
X131565891Y-110512196D01*
X131560898Y-110516203D01*
X131554172Y-110521791D01*
X131546316Y-110528464D01*
X131541906Y-110532264D01*
X131499993Y-110566750D01*
X131454648Y-110600630D01*
X131406337Y-110633617D01*
X131355521Y-110665421D01*
X131302665Y-110695757D01*
X131248230Y-110724335D01*
X131192681Y-110750867D01*
X131184171Y-110754703D01*
X131125867Y-110779067D01*
X131065533Y-110801015D01*
X131003937Y-110820324D01*
X130941846Y-110836768D01*
X130880027Y-110850125D01*
X130826450Y-110859148D01*
X130808605Y-110861681D01*
X130792679Y-110863789D01*
X130778051Y-110865509D01*
X130764096Y-110866881D01*
X130750193Y-110867942D01*
X130735719Y-110868730D01*
X130720051Y-110869283D01*
X130702565Y-110869641D01*
X130682640Y-110869840D01*
X130659653Y-110869920D01*
X130650658Y-110869926D01*
X130627532Y-110869897D01*
X130607824Y-110869789D01*
X130591046Y-110869589D01*
X130576709Y-110869282D01*
X130564327Y-110868855D01*
X130553410Y-110868294D01*
X130543470Y-110867584D01*
X130534020Y-110866712D01*
X130532487Y-110866553D01*
X130470035Y-110858720D01*
X130409156Y-110848564D01*
X130350619Y-110836220D01*
X130333034Y-110831962D01*
X130317261Y-110827937D01*
X130302150Y-110823929D01*
X130288182Y-110820076D01*
X130275836Y-110816520D01*
X130265592Y-110813399D01*
X130257929Y-110810855D01*
X130253327Y-110809026D01*
X130252294Y-110808396D01*
X130248954Y-110806897D01*
X130246294Y-110806580D01*
X130242076Y-110805975D01*
X130236208Y-110804453D01*
X130230021Y-110802447D01*
X130224841Y-110800393D01*
X130221998Y-110798725D01*
X130221887Y-110798586D01*
X130219648Y-110797414D01*
X130214583Y-110795624D01*
X130207655Y-110793547D01*
X130205318Y-110792907D01*
X130198014Y-110790805D01*
X130192279Y-110788883D01*
X130189075Y-110787474D01*
X130188750Y-110787197D01*
X130186331Y-110785874D01*
X130181631Y-110784553D01*
X130180414Y-110784310D01*
X130175718Y-110783010D01*
X130173216Y-110781467D01*
X130173090Y-110781099D01*
X130171418Y-110779697D01*
X130168207Y-110779234D01*
X130164536Y-110778565D01*
X130163324Y-110777281D01*
X130161652Y-110775813D01*
X130158440Y-110775328D01*
X130154770Y-110774659D01*
X130153557Y-110773374D01*
X130151886Y-110771906D01*
X130148674Y-110771421D01*
X130145003Y-110770752D01*
X130143791Y-110769468D01*
X130142120Y-110768000D01*
X130138908Y-110767515D01*
X130135236Y-110766935D01*
X130134025Y-110765822D01*
X130132359Y-110764189D01*
X130128150Y-110761884D01*
X130122579Y-110759411D01*
X130116829Y-110757273D01*
X130112081Y-110755973D01*
X130110488Y-110755795D01*
X130107196Y-110755021D01*
X130106354Y-110754191D01*
X130104484Y-110752914D01*
X130099594Y-110750205D01*
X130092184Y-110746324D01*
X130082755Y-110741531D01*
X130071809Y-110736085D01*
X130065017Y-110732756D01*
X130008742Y-110703949D01*
X129954608Y-110673357D01*
X129901943Y-110640549D01*
X129850078Y-110605095D01*
X129798342Y-110566565D01*
X129764862Y-110539989D01*
X129753137Y-110530545D01*
X129743922Y-110523397D01*
X129736754Y-110518305D01*
X129731168Y-110515032D01*
X129726700Y-110513340D01*
X129722886Y-110512991D01*
X129719263Y-110513747D01*
X129716143Y-110515008D01*
X129713909Y-110516679D01*
X129709325Y-110520732D01*
X129702361Y-110527198D01*
X129692987Y-110536105D01*
X129681176Y-110547482D01*
X129666896Y-110561357D01*
X129650119Y-110577760D01*
X129630816Y-110596719D01*
X129608957Y-110618263D01*
X129584512Y-110642421D01*
X129557453Y-110669222D01*
X129527749Y-110698694D01*
X129495372Y-110730867D01*
X129460292Y-110765769D01*
X129438350Y-110787619D01*
X129168145Y-111056761D01*
X129176935Y-111062255D01*
X129182184Y-111065965D01*
X129189174Y-111071488D01*
X129196818Y-111077946D01*
X129201350Y-111081982D01*
X129207026Y-111087089D01*
X129215086Y-111094254D01*
X129224963Y-111102977D01*
X129236089Y-111112757D01*
X129247897Y-111123096D01*
X129259819Y-111133492D01*
X129259871Y-111133537D01*
X129281734Y-111152661D01*
X129300929Y-111169699D01*
X129317825Y-111185024D01*
X129332792Y-111199007D01*
X129346198Y-111212020D01*
X129358413Y-111224434D01*
X129369805Y-111236622D01*
X129380745Y-111248955D01*
X129391601Y-111261805D01*
X129402742Y-111275544D01*
X129410010Y-111284743D01*
X129419815Y-111297691D01*
X129430811Y-111312950D01*
X129442403Y-111329636D01*
X129453997Y-111346863D01*
X129464996Y-111363747D01*
X129474808Y-111379402D01*
X129482836Y-111392944D01*
X129483350Y-111393850D01*
X129507397Y-111440232D01*
X129528022Y-111488089D01*
X129545123Y-111537107D01*
X129558602Y-111586969D01*
X129568359Y-111637359D01*
X129573635Y-111680197D01*
X129574393Y-111691868D01*
X129574875Y-111706518D01*
X129575097Y-111723376D01*
X129575072Y-111741673D01*
X129574816Y-111760638D01*
X129574343Y-111779499D01*
X129573667Y-111797487D01*
X129572803Y-111813831D01*
X129571765Y-111827760D01*
X129570655Y-111837893D01*
X129562953Y-111884821D01*
X129552894Y-111931313D01*
X129540668Y-111976736D01*
X129526463Y-112020460D01*
X129510468Y-112061853D01*
X129492871Y-112100286D01*
X129491237Y-112103534D01*
X129471436Y-112139724D01*
X129449087Y-112175088D01*
X129424012Y-112209827D01*
X129396034Y-112244146D01*
X129364973Y-112278247D01*
X129330653Y-112312332D01*
X129292895Y-112346604D01*
X129251521Y-112381266D01*
X129237455Y-112392500D01*
X129228368Y-112399746D01*
X129220320Y-112406296D01*
X129213827Y-112411716D01*
X129209408Y-112415576D01*
X129207601Y-112417404D01*
X129204951Y-112419713D01*
X129203872Y-112419960D01*
X129201137Y-112421128D01*
X129196288Y-112424212D01*
X129190175Y-112428587D01*
X129183648Y-112433623D01*
X129177558Y-112438694D01*
X129173678Y-112442249D01*
X129167491Y-112448285D01*
X129090626Y-112448285D01*
X129089650Y-112447247D01*
X129089520Y-112447108D01*
X129079234Y-112436168D01*
X129114900Y-112411063D01*
X129141784Y-112391973D01*
X129165835Y-112374520D01*
X129187555Y-112358309D01*
X129207447Y-112342947D01*
X129226013Y-112328037D01*
X129243756Y-112313185D01*
X129261180Y-112297997D01*
X129276251Y-112284402D01*
X129316850Y-112244926D01*
X129353774Y-112204139D01*
X129387040Y-112162010D01*
X129416664Y-112118512D01*
X129442661Y-112073614D01*
X129465046Y-112027288D01*
X129483836Y-111979505D01*
X129499047Y-111930236D01*
X129510693Y-111879452D01*
X129517211Y-111839528D01*
X129519020Y-111822844D01*
X129520376Y-111803366D01*
X129521276Y-111781999D01*
X129521713Y-111759646D01*
X129521684Y-111737211D01*
X129521184Y-111715600D01*
X129520208Y-111695716D01*
X129518751Y-111678464D01*
X129518078Y-111672844D01*
X129509089Y-111619268D01*
X129496478Y-111567152D01*
X129480261Y-111516530D01*
X129460452Y-111467436D01*
X129437067Y-111419904D01*
X129410122Y-111373967D01*
X129379631Y-111329661D01*
X129345609Y-111287018D01*
X129344884Y-111286172D01*
X129325291Y-111264055D01*
X129304797Y-111242363D01*
X129283058Y-111220789D01*
X129259730Y-111199023D01*
X129234468Y-111176757D01*
X129206929Y-111153682D01*
X129176768Y-111129490D01*
X129143640Y-111103872D01*
X129130337Y-111093800D01*
X129090576Y-111063854D01*
X129160612Y-110994157D01*
X129169660Y-110985151D01*
X129181278Y-110973582D01*
X129195270Y-110959646D01*
X129211439Y-110943540D01*
X129229588Y-110925458D01*
X129249522Y-110905597D01*
X129271043Y-110884153D01*
X129293956Y-110861321D01*
X129318063Y-110837297D01*
X129343169Y-110812276D01*
X129369077Y-110786455D01*
X129395590Y-110760029D01*
X129422513Y-110733195D01*
X129449648Y-110706147D01*
X129476799Y-110679081D01*
X129477144Y-110678738D01*
X129723638Y-110433015D01*
X129731346Y-110439611D01*
X129745412Y-110451610D01*
X129759495Y-110463555D01*
X129773107Y-110475038D01*
X129785761Y-110485650D01*
X129796971Y-110494983D01*
X129806248Y-110502629D01*
X129813106Y-110508178D01*
X129813693Y-110508643D01*
X129824148Y-110516908D01*
X129832453Y-110523425D01*
X129839503Y-110528875D01*
X129846195Y-110533934D01*
X129853428Y-110539283D01*
X129862096Y-110545599D01*
X129872290Y-110552977D01*
X129933136Y-110594921D01*
X129994355Y-110633023D01*
X130056096Y-110667340D01*
X130118512Y-110697931D01*
X130181753Y-110724854D01*
X130245972Y-110748167D01*
X130311318Y-110767928D01*
X130377943Y-110784194D01*
X130445998Y-110797024D01*
X130515635Y-110806476D01*
X130539323Y-110808895D01*
X130549784Y-110809640D01*
X130563542Y-110810260D01*
X130579992Y-110810755D01*
X130598528Y-110811124D01*
X130618542Y-110811367D01*
X130639428Y-110811485D01*
X130660580Y-110811478D01*
X130681392Y-110811344D01*
X130701257Y-110811085D01*
X130719568Y-110810701D01*
X130735719Y-110810191D01*
X130749104Y-110809555D01*
X130758087Y-110808895D01*
X130828982Y-110800468D01*
X130898052Y-110788643D01*
X130965512Y-110773351D01*
X131031579Y-110754523D01*
X131096471Y-110732091D01*
X131160405Y-110705984D01*
X131223597Y-110676136D01*
X131286264Y-110642476D01*
X131290642Y-110639972D01*
X131334752Y-110613477D01*
X131379793Y-110584201D01*
X131424900Y-110552776D01*
X131469211Y-110519836D01*
X131511860Y-110486012D01*
X131551986Y-110451937D01*
X131571731Y-110434178D01*
X131576731Y-110429583D01*
X131628375Y-110472914D01*
X131648437Y-110489648D01*
X131666198Y-110504223D01*
X131682257Y-110517095D01*
X131697212Y-110528722D01*
X131711662Y-110539562D01*
X131726207Y-110550073D01*
X131741444Y-110560711D01*
X131757973Y-110571934D01*
X131758148Y-110572052D01*
X131814953Y-110608508D01*
X131871672Y-110641473D01*
X131928959Y-110671296D01*
X131987467Y-110698322D01*
X132026242Y-110714466D01*
X132089558Y-110737997D01*
X132153138Y-110758075D01*
X132217437Y-110774805D01*
X132282907Y-110788289D01*
X132350004Y-110798633D01*
X132419179Y-110805940D01*
X132429088Y-110806729D01*
X132442887Y-110807551D01*
X132459774Y-110808182D01*
X132478937Y-110808622D01*
X132499562Y-110808871D01*
X132520837Y-110808929D01*
X132541947Y-110808796D01*
X132562079Y-110808472D01*
X132580421Y-110807956D01*
X132596160Y-110807250D01*
X132603903Y-110806743D01*
X132672928Y-110799624D01*
X132740983Y-110788852D01*
X132808144Y-110774398D01*
X132874490Y-110756236D01*
X132940097Y-110734338D01*
X133005043Y-110708675D01*
X133069404Y-110679222D01*
X133133258Y-110645949D01*
X133196681Y-110608830D01*
X133245544Y-110577427D01*
X133259079Y-110568160D01*
X133273203Y-110558011D01*
X133288338Y-110546658D01*
X133304905Y-110533774D01*
X133323324Y-110519037D01*
X133344018Y-110502120D01*
X133353736Y-110494083D01*
X133365065Y-110484702D01*
X133375666Y-110475957D01*
X133385092Y-110468214D01*
X133392899Y-110461836D01*
X133398641Y-110457189D01*
X133401876Y-110454635D01*
X133402060Y-110454498D01*
X133405596Y-110451236D01*
X133410696Y-110445721D01*
X133416576Y-110438826D01*
X133420629Y-110433784D01*
X133433633Y-110417185D01*
X133438438Y-110422906D01*
G37*
G36*
X131585463Y-110661995D02*
G01*
X131590493Y-110665407D01*
X131597723Y-110670531D01*
X131606698Y-110677044D01*
X131616964Y-110684618D01*
X131626304Y-110691600D01*
X131689962Y-110737155D01*
X131754877Y-110779014D01*
X131821073Y-110817188D01*
X131888572Y-110851686D01*
X131957400Y-110882521D01*
X132027579Y-110909703D01*
X132099134Y-110933242D01*
X132172088Y-110953150D01*
X132238387Y-110967856D01*
X132250672Y-110970152D01*
X132262550Y-110972116D01*
X132273124Y-110973618D01*
X132281497Y-110974529D01*
X132286013Y-110974744D01*
X132292336Y-110974930D01*
X132296748Y-110975554D01*
X132298221Y-110976380D01*
X132300032Y-110978118D01*
X132304905Y-110979538D01*
X132311999Y-110980474D01*
X132320472Y-110980761D01*
X132320514Y-110980761D01*
X132325782Y-110980940D01*
X132334046Y-110981504D01*
X132344425Y-110982382D01*
X132356036Y-110983498D01*
X132364631Y-110984406D01*
X132377859Y-110985789D01*
X132391711Y-110987120D01*
X132404905Y-110988282D01*
X132416160Y-110989161D01*
X132420787Y-110989466D01*
X132429521Y-110990082D01*
X132436610Y-110990767D01*
X132441274Y-110991433D01*
X132442756Y-110991943D01*
X132444568Y-110992377D01*
X132449457Y-110992612D01*
X132456598Y-110992625D01*
X132462289Y-110992496D01*
X132470485Y-110992385D01*
X132476988Y-110992579D01*
X132480974Y-110993035D01*
X132481825Y-110993473D01*
X132483692Y-110993901D01*
X132488953Y-110994285D01*
X132497095Y-110994610D01*
X132507605Y-110994860D01*
X132519970Y-110995017D01*
X132532607Y-110995068D01*
X132546231Y-110995014D01*
X132558474Y-110994862D01*
X132568824Y-110994627D01*
X132576766Y-110994324D01*
X132581790Y-110993967D01*
X132583392Y-110993603D01*
X132585179Y-110992871D01*
X132589868Y-110992346D01*
X132596458Y-110992138D01*
X132596677Y-110992138D01*
X132614987Y-110991662D01*
X132636433Y-110990292D01*
X132660366Y-110988113D01*
X132686139Y-110985211D01*
X132713107Y-110981672D01*
X132740620Y-110977582D01*
X132768034Y-110973027D01*
X132794700Y-110968092D01*
X132819972Y-110962864D01*
X132823957Y-110961980D01*
X132891611Y-110944873D01*
X132959072Y-110923933D01*
X133026188Y-110899231D01*
X133092810Y-110870840D01*
X133158787Y-110838833D01*
X133223971Y-110803282D01*
X133288210Y-110764260D01*
X133351354Y-110721839D01*
X133409054Y-110679333D01*
X133419484Y-110671651D01*
X133427326Y-110666673D01*
X133432745Y-110664331D01*
X133435902Y-110664555D01*
X133436961Y-110667274D01*
X133436962Y-110667407D01*
X133438323Y-110669194D01*
X133442305Y-110673585D01*
X133448761Y-110680431D01*
X133457544Y-110689580D01*
X133468506Y-110700884D01*
X133481500Y-110714190D01*
X133496377Y-110729349D01*
X133512990Y-110746210D01*
X133531191Y-110764624D01*
X133550833Y-110784439D01*
X133571768Y-110805505D01*
X133593849Y-110827673D01*
X133616927Y-110850791D01*
X133623783Y-110857649D01*
X133653566Y-110887458D01*
X133680605Y-110914573D01*
X133704942Y-110939036D01*
X133726619Y-110960891D01*
X133745678Y-110980181D01*
X133762162Y-110996948D01*
X133776113Y-111011238D01*
X133787573Y-111023092D01*
X133796584Y-111032553D01*
X133803190Y-111039665D01*
X133807431Y-111044472D01*
X133809350Y-111047016D01*
X133809473Y-111047421D01*
X133807259Y-111049797D01*
X133802570Y-111053140D01*
X133796739Y-111056550D01*
X133792250Y-111059309D01*
X133786876Y-111063353D01*
X133780290Y-111068981D01*
X133772160Y-111076489D01*
X133762157Y-111086175D01*
X133749953Y-111098337D01*
X133745209Y-111103125D01*
X133728013Y-111120638D01*
X133713104Y-111136107D01*
X133699917Y-111150161D01*
X133687886Y-111163425D01*
X133676448Y-111176526D01*
X133665036Y-111190092D01*
X133653086Y-111204749D01*
X133648934Y-111209925D01*
X133618017Y-111250509D01*
X133590523Y-111290788D01*
X133566086Y-111331426D01*
X133544346Y-111373088D01*
X133524938Y-111416440D01*
X133507500Y-111462145D01*
X133501255Y-111480449D01*
X133489262Y-111518524D01*
X133479336Y-111554276D01*
X133471323Y-111588595D01*
X133465067Y-111622372D01*
X133460413Y-111656496D01*
X133457206Y-111691857D01*
X133455290Y-111729345D01*
X133454820Y-111746581D01*
X133454558Y-111761633D01*
X133454423Y-111775259D01*
X133454411Y-111786999D01*
X133454519Y-111796395D01*
X133454743Y-111802990D01*
X133455081Y-111806325D01*
X133455250Y-111806643D01*
X133455957Y-111808427D01*
X133456265Y-111813137D01*
X133456119Y-111819807D01*
X133456062Y-111820802D01*
X133455943Y-111829147D01*
X133456357Y-111839630D01*
X133457220Y-111850534D01*
X133457775Y-111855472D01*
X133466171Y-111906817D01*
X133478364Y-111958238D01*
X133494257Y-112009535D01*
X133513751Y-112060504D01*
X133536747Y-112110945D01*
X133563147Y-112160654D01*
X133592851Y-112209430D01*
X133625763Y-112257071D01*
X133661782Y-112303374D01*
X133695047Y-112341837D01*
X133707275Y-112355214D01*
X133718659Y-112367476D01*
X133728926Y-112378341D01*
X133737800Y-112387527D01*
X133745007Y-112394749D01*
X133750272Y-112399725D01*
X133753321Y-112402173D01*
X133753840Y-112402381D01*
X133755798Y-112403700D01*
X133759939Y-112407328D01*
X133765726Y-112412767D01*
X133772623Y-112419521D01*
X133775527Y-112422435D01*
X133783329Y-112430174D01*
X133790838Y-112437374D01*
X133797308Y-112443337D01*
X133801998Y-112447365D01*
X133802818Y-112447998D01*
X133807088Y-112451754D01*
X133809464Y-112455015D01*
X133809654Y-112456116D01*
X133808227Y-112457997D01*
X133804351Y-112462424D01*
X133798284Y-112469121D01*
X133790279Y-112477812D01*
X133780593Y-112488223D01*
X133769480Y-112500078D01*
X133757196Y-112513102D01*
X133743997Y-112527019D01*
X133739606Y-112531633D01*
X133724991Y-112546988D01*
X133710239Y-112562513D01*
X133695757Y-112577776D01*
X133681952Y-112592346D01*
X133669233Y-112605793D01*
X133658008Y-112617686D01*
X133648683Y-112627595D01*
X133641943Y-112634792D01*
X133633663Y-112643653D01*
X133623264Y-112654751D01*
X133611311Y-112667485D01*
X133598370Y-112681254D01*
X133585007Y-112695457D01*
X133571785Y-112709491D01*
X133563923Y-112717826D01*
X133550741Y-112731826D01*
X133536786Y-112746698D01*
X133522684Y-112761774D01*
X133509061Y-112776383D01*
X133496543Y-112789853D01*
X133485756Y-112801513D01*
X133480961Y-112806724D01*
X133471641Y-112816827D01*
X133462988Y-112826117D01*
X133455416Y-112834157D01*
X133449338Y-112840511D01*
X133445167Y-112844741D01*
X133443541Y-112846256D01*
X133437507Y-112848888D01*
X133429606Y-112849674D01*
X133425637Y-112849522D01*
X133422022Y-112848838D01*
X133418076Y-112847283D01*
X133413119Y-112844518D01*
X133406466Y-112840201D01*
X133397436Y-112833994D01*
X133395732Y-112832808D01*
X133349805Y-112801356D01*
X133306100Y-112772598D01*
X133264227Y-112746323D01*
X133223797Y-112722318D01*
X133184421Y-112700374D01*
X133145708Y-112680277D01*
X133107269Y-112661818D01*
X133068715Y-112644783D01*
X133029657Y-112628962D01*
X132999274Y-112617577D01*
X132929746Y-112594364D01*
X132859522Y-112574880D01*
X132788511Y-112559115D01*
X132716621Y-112547057D01*
X132643759Y-112538695D01*
X132569834Y-112534018D01*
X132494753Y-112533015D01*
X132418425Y-112535674D01*
X132358771Y-112540209D01*
X132286753Y-112548894D01*
X132215440Y-112561408D01*
X132144891Y-112577728D01*
X132075166Y-112597830D01*
X132006323Y-112621692D01*
X131938420Y-112649290D01*
X131871517Y-112680600D01*
X131805673Y-112715600D01*
X131740946Y-112754265D01*
X131677395Y-112796573D01*
X131634775Y-112827492D01*
X131620806Y-112837778D01*
X131609340Y-112845700D01*
X131599919Y-112851446D01*
X131592090Y-112855207D01*
X131585399Y-112857170D01*
X131579389Y-112857526D01*
X131573608Y-112856464D01*
X131569109Y-112854835D01*
X131565661Y-112852901D01*
X131559653Y-112849030D01*
X131551663Y-112843615D01*
X131542266Y-112837046D01*
X131532040Y-112829718D01*
X131529449Y-112827834D01*
X131467835Y-112784654D01*
X131406474Y-112745231D01*
X131345141Y-112709444D01*
X131283612Y-112677174D01*
X131221659Y-112648300D01*
X131159060Y-112622701D01*
X131115335Y-112606873D01*
X131053932Y-112587603D01*
X130990207Y-112571070D01*
X130924687Y-112557339D01*
X130857898Y-112546474D01*
X130790368Y-112538541D01*
X130722622Y-112533604D01*
X130655188Y-112531727D01*
X130588593Y-112532975D01*
X130538096Y-112536115D01*
X130465086Y-112543985D01*
X130393211Y-112555540D01*
X130322362Y-112570812D01*
X130252431Y-112589831D01*
X130183309Y-112612627D01*
X130114888Y-112639233D01*
X130047059Y-112669678D01*
X130022136Y-112681898D01*
X130008534Y-112688754D01*
X129995836Y-112695241D01*
X129983769Y-112701524D01*
X129972059Y-112707769D01*
X129960431Y-112714140D01*
X129948612Y-112720802D01*
X129936327Y-112727921D01*
X129923302Y-112735662D01*
X129909264Y-112744190D01*
X129893938Y-112753670D01*
X129877049Y-112764268D01*
X129858324Y-112776149D01*
X129837489Y-112789477D01*
X129814270Y-112804418D01*
X129788392Y-112821137D01*
X129759582Y-112839799D01*
X129752979Y-112844080D01*
X129744862Y-112849193D01*
X129737725Y-112853407D01*
X129732305Y-112856308D01*
X129729337Y-112857480D01*
X129729229Y-112857487D01*
X129727252Y-112856114D01*
X129722902Y-112852194D01*
X129716482Y-112846030D01*
X129708294Y-112837920D01*
X129698641Y-112828167D01*
X129687825Y-112817071D01*
X129676148Y-112804933D01*
X129671771Y-112800344D01*
X129655015Y-112782729D01*
X129639874Y-112766793D01*
X129626016Y-112752183D01*
X129613114Y-112738544D01*
X129600837Y-112725525D01*
X129588855Y-112712773D01*
X129576839Y-112699935D01*
X129564459Y-112686658D01*
X129551385Y-112672588D01*
X129537288Y-112657374D01*
X129521838Y-112640662D01*
X129504705Y-112622100D01*
X129485560Y-112601335D01*
X129466109Y-112580223D01*
X129459564Y-112573145D01*
X129450869Y-112563781D01*
X129440547Y-112552694D01*
X129429121Y-112540445D01*
X129417116Y-112527596D01*
X129405056Y-112514708D01*
X129400093Y-112509412D01*
X129389346Y-112497870D01*
X129379506Y-112487152D01*
X129370884Y-112477610D01*
X129363789Y-112469590D01*
X129358530Y-112463444D01*
X129355419Y-112459518D01*
X129354680Y-112458241D01*
X129356082Y-112456072D01*
X129359949Y-112451874D01*
X129365775Y-112446150D01*
X129373055Y-112439407D01*
X129377631Y-112435328D01*
X129391147Y-112423113D01*
X129406249Y-112408907D01*
X129422231Y-112393416D01*
X129438392Y-112377342D01*
X129454026Y-112361390D01*
X129468431Y-112346264D01*
X129480903Y-112332667D01*
X129485744Y-112327181D01*
X129524106Y-112280376D01*
X129558693Y-112232613D01*
X129567406Y-112218830D01*
X130440761Y-112218830D01*
X130503479Y-112218314D01*
X130566198Y-112217799D01*
X130622711Y-112065446D01*
X130631371Y-112042128D01*
X130639663Y-112019862D01*
X130647483Y-111998920D01*
X130654728Y-111979575D01*
X130661296Y-111962099D01*
X130667084Y-111946765D01*
X130671989Y-111933846D01*
X130675908Y-111923615D01*
X130678739Y-111916343D01*
X130680378Y-111912304D01*
X130680743Y-111911549D01*
X130681655Y-111913048D01*
X130683735Y-111917912D01*
X130686863Y-111925820D01*
X130690919Y-111936449D01*
X130695782Y-111949478D01*
X130701332Y-111964584D01*
X130707448Y-111981445D01*
X130714010Y-111999739D01*
X130719111Y-112014095D01*
X130726628Y-112035324D01*
X130734317Y-112057036D01*
X130741976Y-112078656D01*
X130749401Y-112099611D01*
X130756388Y-112119327D01*
X130762735Y-112137229D01*
X130768238Y-112152745D01*
X130772693Y-112165300D01*
X130773649Y-112167991D01*
X130791338Y-112217799D01*
X130849565Y-112218317D01*
X130866174Y-112218453D01*
X130879279Y-112218519D01*
X130889283Y-112218493D01*
X130896589Y-112218356D01*
X130901598Y-112218087D01*
X130904714Y-112217665D01*
X130906339Y-112217070D01*
X130906876Y-112216280D01*
X130906762Y-112215387D01*
X130906061Y-112213131D01*
X130904263Y-112207370D01*
X130901436Y-112198325D01*
X130897650Y-112186221D01*
X130892976Y-112171278D01*
X130887482Y-112153719D01*
X130881237Y-112133768D01*
X130874313Y-112111645D01*
X130866778Y-112087575D01*
X130858702Y-112061779D01*
X130850155Y-112034479D01*
X130841205Y-112005899D01*
X130831924Y-111976260D01*
X130829468Y-111968416D01*
X130820122Y-111938551D01*
X130811105Y-111909690D01*
X130802485Y-111882058D01*
X130794332Y-111855874D01*
X130786713Y-111831362D01*
X130780760Y-111812169D01*
X130779697Y-111808743D01*
X130773353Y-111788239D01*
X130768486Y-111772459D01*
X131045214Y-111772459D01*
X131045214Y-111812169D01*
X131045220Y-111848180D01*
X131045238Y-111880698D01*
X131045274Y-111909931D01*
X131045334Y-111936087D01*
X131045424Y-111959371D01*
X131045550Y-111979992D01*
X131045719Y-111998157D01*
X131045937Y-112014072D01*
X131046211Y-112027945D01*
X131046545Y-112039983D01*
X131046947Y-112050393D01*
X131047423Y-112059382D01*
X131047979Y-112067157D01*
X131048621Y-112073927D01*
X131049356Y-112079896D01*
X131050189Y-112085274D01*
X131051127Y-112090267D01*
X131052175Y-112095081D01*
X131053342Y-112099925D01*
X131054631Y-112105006D01*
X131055258Y-112107441D01*
X131058453Y-112118056D01*
X131062753Y-112129970D01*
X131067375Y-112141062D01*
X131068738Y-112143975D01*
X131072378Y-112151642D01*
X131075266Y-112158005D01*
X131077038Y-112162247D01*
X131077419Y-112163507D01*
X131076744Y-112165805D01*
X131074907Y-112171035D01*
X131072165Y-112178489D01*
X131068775Y-112187460D01*
X131067653Y-112190387D01*
X131064119Y-112199677D01*
X131061157Y-112207663D01*
X131059024Y-112213640D01*
X131057975Y-112216899D01*
X131057910Y-112217244D01*
X131059768Y-112217643D01*
X131064962Y-112217978D01*
X131072922Y-112218252D01*
X131083078Y-112218462D01*
X131094859Y-112218610D01*
X131107697Y-112218694D01*
X131121021Y-112218716D01*
X131134260Y-112218673D01*
X131146845Y-112218568D01*
X131158206Y-112218398D01*
X131167773Y-112218164D01*
X131174976Y-112217866D01*
X131179245Y-112217504D01*
X131180130Y-112217281D01*
X131181284Y-112215197D01*
X131183515Y-112210120D01*
X131186562Y-112202728D01*
X131190163Y-112193700D01*
X131194059Y-112183712D01*
X131197989Y-112173443D01*
X131201691Y-112163571D01*
X131204904Y-112154774D01*
X131207369Y-112147728D01*
X131208824Y-112143113D01*
X131209073Y-112142057D01*
X131210282Y-112138558D01*
X131211812Y-112135422D01*
X131213923Y-112130582D01*
X131214743Y-112127609D01*
X131216161Y-112123040D01*
X131217673Y-112119796D01*
X131219784Y-112114956D01*
X131220603Y-112111983D01*
X131222011Y-112107457D01*
X131223612Y-112104023D01*
X131224973Y-112100780D01*
X131224742Y-112099628D01*
X131224707Y-112098419D01*
X131225889Y-112096698D01*
X131227334Y-112094330D01*
X131227060Y-112093768D01*
X131227052Y-112092393D01*
X131228722Y-112089308D01*
X131231250Y-112084450D01*
X131232380Y-112081006D01*
X131233575Y-112076217D01*
X131234233Y-112074236D01*
X131235400Y-112070948D01*
X131237354Y-112065230D01*
X131239512Y-112058795D01*
X131240631Y-112055663D01*
X131243010Y-112049185D01*
X131246532Y-112039672D01*
X131251081Y-112027433D01*
X131256540Y-112012779D01*
X131262793Y-111996021D01*
X131269724Y-111977468D01*
X131277216Y-111957431D01*
X131285154Y-111936220D01*
X131293420Y-111914146D01*
X131301898Y-111891519D01*
X131310472Y-111868648D01*
X131319026Y-111845845D01*
X131327443Y-111823420D01*
X131335607Y-111801682D01*
X131343402Y-111780943D01*
X131350711Y-111761512D01*
X131357418Y-111743701D01*
X131363406Y-111727818D01*
X131368560Y-111714175D01*
X131372762Y-111703081D01*
X131375897Y-111694848D01*
X131377848Y-111689785D01*
X131378371Y-111688470D01*
X131378611Y-111689779D01*
X131378831Y-111694720D01*
X131379029Y-111703020D01*
X131379204Y-111714405D01*
X131379353Y-111728599D01*
X131379474Y-111745330D01*
X131379566Y-111764322D01*
X131379625Y-111785303D01*
X131379651Y-111807998D01*
X131379640Y-111832133D01*
X131379606Y-111851566D01*
X131379219Y-112018568D01*
X131374596Y-112027358D01*
X131369362Y-112036147D01*
X131363771Y-112042619D01*
X131357100Y-112047146D01*
X131348626Y-112050102D01*
X131337626Y-112051860D01*
X131325531Y-112052702D01*
X131303095Y-112053727D01*
X131277247Y-112123067D01*
X131271205Y-112139276D01*
X131265395Y-112154864D01*
X131260006Y-112169324D01*
X131255228Y-112182149D01*
X131251248Y-112192832D01*
X131248256Y-112200868D01*
X131246443Y-112205740D01*
X131241488Y-112219072D01*
X131313283Y-112218308D01*
X131334201Y-112218050D01*
X131351693Y-112217716D01*
X131366240Y-112217239D01*
X131378323Y-112216552D01*
X131388422Y-112215587D01*
X131397019Y-112214276D01*
X131404595Y-112212553D01*
X131411629Y-112210351D01*
X131418604Y-112207601D01*
X131425999Y-112204237D01*
X131430978Y-112201827D01*
X131446512Y-112192267D01*
X131461121Y-112179535D01*
X131474100Y-112164362D01*
X131484746Y-112147476D01*
X131486241Y-112144552D01*
X131494526Y-112124804D01*
X131501496Y-112101862D01*
X131506990Y-112076266D01*
X131507368Y-112074078D01*
X131507715Y-112070085D01*
X131508050Y-112062462D01*
X131508370Y-112051484D01*
X131508674Y-112037429D01*
X131508963Y-112020571D01*
X131509125Y-112009015D01*
X131509235Y-112001188D01*
X131509489Y-111979555D01*
X131509694Y-111958944D01*
X131669276Y-111958944D01*
X131669276Y-112009015D01*
X131669448Y-112031293D01*
X131670008Y-112050294D01*
X131671020Y-112066630D01*
X131672545Y-112080916D01*
X131674649Y-112093767D01*
X131677395Y-112105798D01*
X131680342Y-112116031D01*
X131689418Y-112139335D01*
X131701140Y-112159930D01*
X131715403Y-112177696D01*
X131732100Y-112192516D01*
X131751124Y-112204273D01*
X131766125Y-112210748D01*
X131775839Y-112213873D01*
X131786577Y-112216721D01*
X131796051Y-112218688D01*
X131796237Y-112218719D01*
X131803713Y-112219937D01*
X131809897Y-112220968D01*
X131813583Y-112221611D01*
X131813816Y-112221655D01*
X131817373Y-112221953D01*
X131824330Y-112222186D01*
X131834181Y-112222357D01*
X131846419Y-112222470D01*
X131860539Y-112222528D01*
X131876033Y-112222532D01*
X131892397Y-112222487D01*
X131909124Y-112222395D01*
X131925707Y-112222258D01*
X131941641Y-112222081D01*
X131956420Y-112221866D01*
X131969536Y-112221615D01*
X131980485Y-112221332D01*
X131988760Y-112221020D01*
X131993855Y-112220682D01*
X131994470Y-112220608D01*
X132018714Y-112215473D01*
X132040743Y-112207121D01*
X132060553Y-112195556D01*
X132078143Y-112180780D01*
X132093509Y-112162796D01*
X132106648Y-112141608D01*
X132117558Y-112117217D01*
X132126236Y-112089629D01*
X132128984Y-112078142D01*
X132132745Y-112059093D01*
X132135407Y-112040637D01*
X132137090Y-112021548D01*
X132137916Y-112000604D01*
X132138049Y-111985928D01*
X132137408Y-111959062D01*
X132135386Y-111935275D01*
X132131820Y-111913936D01*
X132126548Y-111894410D01*
X132119405Y-111876068D01*
X132110229Y-111858275D01*
X132101540Y-111844347D01*
X132092770Y-111831798D01*
X132083643Y-111820022D01*
X132073838Y-111808748D01*
X132063033Y-111797703D01*
X132050906Y-111786617D01*
X132037134Y-111775218D01*
X132021397Y-111763235D01*
X132003371Y-111750397D01*
X131982736Y-111736431D01*
X131959168Y-111721066D01*
X131943334Y-111710966D01*
X131916176Y-111692882D01*
X131891704Y-111674783D01*
X131870079Y-111656831D01*
X131851466Y-111639189D01*
X131836027Y-111622016D01*
X131823925Y-111605476D01*
X131815322Y-111589729D01*
X131811865Y-111580588D01*
X131809826Y-111572548D01*
X131808593Y-111563717D01*
X131808029Y-111552885D01*
X131807956Y-111545626D01*
X131807956Y-111523318D01*
X131816596Y-111514677D01*
X131820693Y-111510789D01*
X131824715Y-111507641D01*
X131829112Y-111505163D01*
X131834335Y-111503280D01*
X131840832Y-111501920D01*
X131849055Y-111501010D01*
X131859453Y-111500478D01*
X131872475Y-111500251D01*
X131888572Y-111500256D01*
X131904939Y-111500387D01*
X131963239Y-111500958D01*
X131972166Y-111507159D01*
X131981472Y-111515966D01*
X131989028Y-111528213D01*
X131994808Y-111543836D01*
X131998786Y-111562768D01*
X132000607Y-111579576D01*
X132001904Y-111597644D01*
X132069979Y-111597644D01*
X132138054Y-111597644D01*
X132138043Y-111547348D01*
X132137893Y-111525648D01*
X132137447Y-111507627D01*
X132136696Y-111493067D01*
X132135632Y-111481752D01*
X132135180Y-111478496D01*
X132129408Y-111450297D01*
X132121206Y-111425138D01*
X132112571Y-111407195D01*
X132280641Y-111407195D01*
X132280641Y-111490215D01*
X132366584Y-111490215D01*
X132452527Y-111490215D01*
X132452527Y-111854496D01*
X132452527Y-112218776D01*
X132516007Y-112218776D01*
X132579488Y-112218776D01*
X132917399Y-112218776D01*
X133151789Y-112218776D01*
X133386178Y-112218776D01*
X133386178Y-112135763D01*
X133386178Y-112052750D01*
X133217222Y-112052750D01*
X133048267Y-112052750D01*
X133048267Y-111689446D01*
X133048267Y-111326143D01*
X132984131Y-111326143D01*
X132919995Y-111326143D01*
X132918698Y-111468241D01*
X132918545Y-111487214D01*
X132918396Y-111509731D01*
X132918254Y-111535430D01*
X132918119Y-111563949D01*
X132917993Y-111594924D01*
X132917875Y-111627995D01*
X132917769Y-111662797D01*
X132917673Y-111698970D01*
X132917590Y-111736151D01*
X132917521Y-111773977D01*
X132917467Y-111812087D01*
X132917428Y-111850117D01*
X132917406Y-111887705D01*
X132917401Y-111914558D01*
X132917399Y-112218776D01*
X132579488Y-112218776D01*
X132579488Y-111854496D01*
X132579488Y-111490215D01*
X132665452Y-111490215D01*
X132751416Y-111490215D01*
X132750906Y-111407691D01*
X132750397Y-111325166D01*
X132515519Y-111324670D01*
X132280641Y-111324174D01*
X132280641Y-111407195D01*
X132112571Y-111407195D01*
X132110539Y-111402973D01*
X132097372Y-111383757D01*
X132081670Y-111367443D01*
X132063399Y-111353986D01*
X132042524Y-111343339D01*
X132028673Y-111338262D01*
X132021910Y-111336143D01*
X132015771Y-111334378D01*
X132009827Y-111332933D01*
X132003647Y-111331777D01*
X131996800Y-111330878D01*
X131988856Y-111330204D01*
X131979385Y-111329722D01*
X131967957Y-111329400D01*
X131954142Y-111329207D01*
X131937509Y-111329109D01*
X131917628Y-111329075D01*
X131905618Y-111329073D01*
X131884404Y-111329087D01*
X131866690Y-111329141D01*
X131852066Y-111329248D01*
X131840127Y-111329422D01*
X131830464Y-111329677D01*
X131822671Y-111330027D01*
X131816339Y-111330487D01*
X131811062Y-111331070D01*
X131806431Y-111331790D01*
X131802127Y-111332643D01*
X131777295Y-111339592D01*
X131755164Y-111349189D01*
X131735692Y-111361491D01*
X131718834Y-111376557D01*
X131704548Y-111394444D01*
X131692789Y-111415210D01*
X131683514Y-111438913D01*
X131676679Y-111465610D01*
X131672241Y-111495359D01*
X131671282Y-111506030D01*
X131670401Y-111520547D01*
X131669789Y-111536871D01*
X131669447Y-111554119D01*
X131669376Y-111571412D01*
X131669576Y-111587870D01*
X131670047Y-111602611D01*
X131670789Y-111614755D01*
X131671239Y-111619378D01*
X131676159Y-111646415D01*
X131684646Y-111672576D01*
X131696740Y-111697911D01*
X131712481Y-111722472D01*
X131731911Y-111746311D01*
X131755070Y-111769481D01*
X131781998Y-111792032D01*
X131812736Y-111814017D01*
X131834666Y-111827960D01*
X131861970Y-111844838D01*
X131886035Y-111860289D01*
X131907167Y-111874532D01*
X131925668Y-111887785D01*
X131941843Y-111900269D01*
X131955996Y-111912201D01*
X131968432Y-111923802D01*
X131970228Y-111925587D01*
X131980820Y-111936801D01*
X131988806Y-111946544D01*
X131993892Y-111954458D01*
X131994156Y-111954983D01*
X131996116Y-111959165D01*
X131997512Y-111962948D01*
X131998436Y-111967100D01*
X131998985Y-111972391D01*
X131999252Y-111979589D01*
X131999333Y-111989465D01*
X131999331Y-111996978D01*
X131999084Y-112012353D01*
X131998245Y-112024387D01*
X131996598Y-112033625D01*
X131993927Y-112040614D01*
X131990017Y-112045902D01*
X131984650Y-112050034D01*
X131977612Y-112053557D01*
X131976840Y-112053883D01*
X131973927Y-112054858D01*
X131970029Y-112055654D01*
X131964694Y-112056298D01*
X131957470Y-112056822D01*
X131947906Y-112057253D01*
X131935548Y-112057622D01*
X131919946Y-112057957D01*
X131911478Y-112058109D01*
X131891861Y-112058377D01*
X131875927Y-112058436D01*
X131863458Y-112058283D01*
X131854235Y-112057914D01*
X131848041Y-112057324D01*
X131845645Y-112056850D01*
X131834896Y-112052067D01*
X131825981Y-112044072D01*
X131818869Y-112032801D01*
X131813527Y-112018189D01*
X131809923Y-112000170D01*
X131808164Y-111981456D01*
X131806979Y-111959971D01*
X131738127Y-111959457D01*
X131669276Y-111958944D01*
X131509694Y-111958944D01*
X131509724Y-111955948D01*
X131509940Y-111930644D01*
X131510135Y-111903919D01*
X131510308Y-111876049D01*
X131510459Y-111847309D01*
X131510588Y-111817977D01*
X131510691Y-111788328D01*
X131510770Y-111758639D01*
X131510823Y-111729185D01*
X131510850Y-111700242D01*
X131510848Y-111672087D01*
X131510818Y-111644997D01*
X131510759Y-111619246D01*
X131510669Y-111595111D01*
X131510548Y-111572869D01*
X131510395Y-111552796D01*
X131510208Y-111535166D01*
X131509988Y-111520258D01*
X131509733Y-111508346D01*
X131509442Y-111499708D01*
X131509240Y-111496075D01*
X131507659Y-111477895D01*
X131505603Y-111462275D01*
X131502816Y-111447871D01*
X131499041Y-111433343D01*
X131494289Y-111418160D01*
X131487549Y-111397865D01*
X131501259Y-111361401D01*
X131505446Y-111350200D01*
X131509117Y-111340257D01*
X131512063Y-111332144D01*
X131514077Y-111326438D01*
X131514801Y-111324174D01*
X131514949Y-111323712D01*
X131514969Y-111323586D01*
X131513094Y-111323253D01*
X131507784Y-111322949D01*
X131499507Y-111322686D01*
X131488736Y-111322474D01*
X131475940Y-111322324D01*
X131461590Y-111322245D01*
X131454628Y-111322236D01*
X131437621Y-111322250D01*
X131424110Y-111322308D01*
X131413683Y-111322431D01*
X131405929Y-111322643D01*
X131400436Y-111322966D01*
X131396793Y-111323424D01*
X131394589Y-111324039D01*
X131393412Y-111324834D01*
X131392918Y-111325654D01*
X131392039Y-111327970D01*
X131389895Y-111333669D01*
X131386591Y-111342476D01*
X131382228Y-111354116D01*
X131376911Y-111368312D01*
X131370742Y-111384790D01*
X131363825Y-111403274D01*
X131356263Y-111423488D01*
X131348159Y-111445157D01*
X131339616Y-111468004D01*
X131334233Y-111482402D01*
X131325002Y-111507080D01*
X131315800Y-111531651D01*
X131306770Y-111555734D01*
X131298056Y-111578945D01*
X131289802Y-111600902D01*
X131282153Y-111621222D01*
X131275252Y-111639521D01*
X131269244Y-111655417D01*
X131264272Y-111668528D01*
X131260481Y-111678470D01*
X131259642Y-111680657D01*
X131255250Y-111692128D01*
X131249730Y-111706622D01*
X131243323Y-111723502D01*
X131236271Y-111742132D01*
X131228813Y-111761874D01*
X131221190Y-111782093D01*
X131213645Y-111802152D01*
X131209225Y-111813923D01*
X131176081Y-111902264D01*
X131175583Y-111720213D01*
X131175494Y-111688409D01*
X131175423Y-111660267D01*
X131175382Y-111635541D01*
X131175384Y-111613986D01*
X131175442Y-111595359D01*
X131175569Y-111579412D01*
X131175780Y-111565903D01*
X131176086Y-111554585D01*
X131176501Y-111545214D01*
X131177038Y-111537545D01*
X131177711Y-111531333D01*
X131178532Y-111526332D01*
X131179514Y-111522299D01*
X131180672Y-111518987D01*
X131182017Y-111516153D01*
X131183563Y-111513550D01*
X131185323Y-111510935D01*
X131186948Y-111508591D01*
X131191586Y-111502744D01*
X131196803Y-111498308D01*
X131203220Y-111495073D01*
X131211460Y-111492828D01*
X131222146Y-111491364D01*
X131235901Y-111490469D01*
X131241202Y-111490264D01*
X131271165Y-111489239D01*
X131301264Y-111408229D01*
X131307520Y-111391380D01*
X131313337Y-111375693D01*
X131318575Y-111361539D01*
X131323100Y-111349292D01*
X131326773Y-111339321D01*
X131329458Y-111332000D01*
X131331016Y-111327699D01*
X131331364Y-111326681D01*
X131329480Y-111326563D01*
X131324106Y-111326454D01*
X131315656Y-111326356D01*
X131304548Y-111326274D01*
X131291197Y-111326209D01*
X131276018Y-111326165D01*
X131259428Y-111326144D01*
X131254129Y-111326143D01*
X131233496Y-111326170D01*
X131216354Y-111326260D01*
X131202286Y-111326428D01*
X131190876Y-111326686D01*
X131181709Y-111327050D01*
X131174369Y-111327533D01*
X131168440Y-111328149D01*
X131163505Y-111328912D01*
X131161838Y-111329237D01*
X131139606Y-111335504D01*
X131119790Y-111344695D01*
X131102354Y-111356857D01*
X131087262Y-111372033D01*
X131074479Y-111390270D01*
X131063971Y-111411611D01*
X131055702Y-111436103D01*
X131049637Y-111463790D01*
X131047848Y-111475566D01*
X131047467Y-111479093D01*
X131047121Y-111483857D01*
X131046811Y-111490039D01*
X131046534Y-111497820D01*
X131046288Y-111507380D01*
X131046073Y-111518899D01*
X131045886Y-111532559D01*
X131045725Y-111548539D01*
X131045590Y-111567020D01*
X131045478Y-111588183D01*
X131045389Y-111612208D01*
X131045319Y-111639276D01*
X131045269Y-111669567D01*
X131045236Y-111703261D01*
X131045218Y-111740540D01*
X131045214Y-111772459D01*
X130768486Y-111772459D01*
X130767750Y-111770072D01*
X130762956Y-111754464D01*
X130759040Y-111741637D01*
X130756070Y-111731813D01*
X130754115Y-111725213D01*
X130753244Y-111722060D01*
X130753204Y-111721831D01*
X130753871Y-111719779D01*
X130755802Y-111714357D01*
X130758888Y-111705854D01*
X130763023Y-111694557D01*
X130768100Y-111680755D01*
X130774010Y-111664736D01*
X130780647Y-111646787D01*
X130787903Y-111627199D01*
X130795672Y-111606257D01*
X130803845Y-111584252D01*
X130812315Y-111561470D01*
X130820975Y-111538201D01*
X130829718Y-111514732D01*
X130838437Y-111491352D01*
X130847023Y-111468349D01*
X130855370Y-111446010D01*
X130863371Y-111424625D01*
X130870918Y-111404482D01*
X130877903Y-111385868D01*
X130884220Y-111369073D01*
X130889761Y-111354383D01*
X130894419Y-111342088D01*
X130898086Y-111332475D01*
X130900655Y-111325834D01*
X130900726Y-111325654D01*
X130900898Y-111324708D01*
X130900331Y-111323954D01*
X130898639Y-111323371D01*
X130895432Y-111322938D01*
X130890325Y-111322633D01*
X130882928Y-111322434D01*
X130872856Y-111322320D01*
X130859720Y-111322270D01*
X130843132Y-111322261D01*
X130839844Y-111322262D01*
X130777619Y-111322287D01*
X130734752Y-111437655D01*
X130727196Y-111457945D01*
X130719997Y-111477192D01*
X130713277Y-111495074D01*
X130707156Y-111511272D01*
X130701758Y-111525467D01*
X130697203Y-111537339D01*
X130693613Y-111546568D01*
X130691111Y-111552834D01*
X130689817Y-111555817D01*
X130689717Y-111555988D01*
X130688801Y-111556198D01*
X130687413Y-111554631D01*
X130685414Y-111550977D01*
X130682663Y-111544924D01*
X130679019Y-111536163D01*
X130674343Y-111524381D01*
X130668493Y-111509269D01*
X130667811Y-111507493D01*
X130662087Y-111492584D01*
X130655318Y-111474975D01*
X130647866Y-111455609D01*
X130640094Y-111435429D01*
X130632367Y-111415379D01*
X130625046Y-111396402D01*
X130622241Y-111389135D01*
X130596407Y-111322236D01*
X130538244Y-111322236D01*
X130480080Y-111322236D01*
X130521806Y-111445779D01*
X130530000Y-111470057D01*
X130538662Y-111495747D01*
X130547570Y-111522188D01*
X130556499Y-111548717D01*
X130565229Y-111574675D01*
X130573537Y-111599399D01*
X130581199Y-111622227D01*
X130587995Y-111642500D01*
X130592276Y-111655295D01*
X130621022Y-111741268D01*
X130532959Y-111974650D01*
X130522016Y-112003651D01*
X130511433Y-112031697D01*
X130501293Y-112058565D01*
X130491682Y-112084032D01*
X130482684Y-112107874D01*
X130474382Y-112129869D01*
X130466862Y-112149793D01*
X130460207Y-112167423D01*
X130454501Y-112182536D01*
X130449829Y-112194908D01*
X130446276Y-112204316D01*
X130443925Y-112210538D01*
X130442860Y-112213349D01*
X130442828Y-112213431D01*
X130440761Y-112218830D01*
X129567406Y-112218830D01*
X129589512Y-112183862D01*
X129616571Y-112134092D01*
X129639880Y-112083273D01*
X129659447Y-112031375D01*
X129675279Y-111978367D01*
X129687387Y-111924219D01*
X129695777Y-111868900D01*
X129700459Y-111812380D01*
X129701121Y-111773436D01*
X129887916Y-111773436D01*
X129887916Y-112218776D01*
X129960176Y-112218776D01*
X130032436Y-112218776D01*
X130032934Y-112038729D01*
X130033433Y-111858682D01*
X130117848Y-112038241D01*
X130202262Y-112217799D01*
X130275806Y-112218311D01*
X130294700Y-112218434D01*
X130310047Y-112218504D01*
X130322209Y-112218506D01*
X130331545Y-112218426D01*
X130338415Y-112218249D01*
X130343180Y-112217960D01*
X130346201Y-112217546D01*
X130347836Y-112216991D01*
X130348447Y-112216281D01*
X130348393Y-112215402D01*
X130348388Y-112215381D01*
X130347501Y-112213191D01*
X130345147Y-112207638D01*
X130341420Y-112198939D01*
X130336415Y-112187314D01*
X130330227Y-112172979D01*
X130322949Y-112156154D01*
X130314676Y-112137054D01*
X130305502Y-112115900D01*
X130295523Y-112092908D01*
X130284831Y-112068296D01*
X130273522Y-112042283D01*
X130261690Y-112015086D01*
X130249429Y-111986924D01*
X130249189Y-111986373D01*
X130236937Y-111958224D01*
X130225126Y-111931056D01*
X130213849Y-111905084D01*
X130203198Y-111880524D01*
X130193268Y-111857593D01*
X130184152Y-111836507D01*
X130175943Y-111817482D01*
X130168733Y-111800734D01*
X130162617Y-111786479D01*
X130157688Y-111774934D01*
X130154039Y-111766314D01*
X130151763Y-111760836D01*
X130150954Y-111758716D01*
X130150953Y-111758707D01*
X130151761Y-111756701D01*
X130154116Y-111751372D01*
X130157919Y-111742939D01*
X130163068Y-111731622D01*
X130169463Y-111717640D01*
X130177003Y-111701210D01*
X130185588Y-111682553D01*
X130195116Y-111661888D01*
X130205487Y-111639433D01*
X130216600Y-111615407D01*
X130228354Y-111590029D01*
X130240650Y-111563518D01*
X130249917Y-111543558D01*
X130262539Y-111516375D01*
X130274694Y-111490179D01*
X130286282Y-111465187D01*
X130297202Y-111441615D01*
X130307354Y-111419684D01*
X130316636Y-111399609D01*
X130324948Y-111381610D01*
X130332190Y-111365903D01*
X130338262Y-111352707D01*
X130343061Y-111342239D01*
X130346488Y-111334718D01*
X130348443Y-111330360D01*
X130348882Y-111329302D01*
X130347000Y-111329028D01*
X130341644Y-111328776D01*
X130333242Y-111328553D01*
X130322227Y-111328366D01*
X130309030Y-111328223D01*
X130294080Y-111328131D01*
X130277810Y-111328096D01*
X130276968Y-111328096D01*
X130205055Y-111328096D01*
X130119434Y-111490215D01*
X130107089Y-111513563D01*
X130095250Y-111535904D01*
X130084044Y-111556999D01*
X130073599Y-111576609D01*
X130064045Y-111594495D01*
X130055508Y-111610418D01*
X130048117Y-111624139D01*
X130042001Y-111635419D01*
X130037287Y-111644019D01*
X130034104Y-111649701D01*
X130032579Y-111652225D01*
X130032472Y-111652335D01*
X130032278Y-111650429D01*
X130032114Y-111644905D01*
X130031981Y-111636048D01*
X130031880Y-111624145D01*
X130031812Y-111609485D01*
X130031777Y-111592353D01*
X130031777Y-111573037D01*
X130031810Y-111551823D01*
X130031880Y-111529000D01*
X130031985Y-111504853D01*
X130032064Y-111490215D01*
X130032998Y-111328096D01*
X129960457Y-111328096D01*
X129887916Y-111328096D01*
X129887916Y-111773436D01*
X129701121Y-111773436D01*
X129701441Y-111754629D01*
X129698732Y-111695617D01*
X129692339Y-111635312D01*
X129687574Y-111603504D01*
X129676229Y-111546365D01*
X129661198Y-111490333D01*
X129642556Y-111435587D01*
X129620380Y-111382307D01*
X129594745Y-111330671D01*
X129593245Y-111328096D01*
X129565729Y-111280858D01*
X129533407Y-111233047D01*
X129524981Y-111221644D01*
X129501319Y-111191754D01*
X129474990Y-111161325D01*
X129446927Y-111131344D01*
X129418057Y-111102801D01*
X129389313Y-111076683D01*
X129385444Y-111073355D01*
X129377174Y-111066146D01*
X129370066Y-111059671D01*
X129364613Y-111054402D01*
X129361310Y-111050812D01*
X129360540Y-111049522D01*
X129361780Y-111047873D01*
X129365514Y-111043785D01*
X129371763Y-111037237D01*
X129380546Y-111028209D01*
X129391885Y-111016680D01*
X129405799Y-111002631D01*
X129422308Y-110986040D01*
X129441434Y-110966888D01*
X129463197Y-110945153D01*
X129487616Y-110920816D01*
X129514712Y-110893857D01*
X129544506Y-110864254D01*
X129577018Y-110831988D01*
X129612269Y-110797038D01*
X129650278Y-110759384D01*
X129670716Y-110739147D01*
X129686968Y-110723115D01*
X129700694Y-110709717D01*
X129712093Y-110698788D01*
X129721361Y-110690161D01*
X129728697Y-110683672D01*
X129734300Y-110679154D01*
X129738367Y-110676441D01*
X129741096Y-110675369D01*
X129742686Y-110675770D01*
X129743335Y-110677480D01*
X129743376Y-110678339D01*
X129744990Y-110680387D01*
X129749605Y-110684230D01*
X129756876Y-110689641D01*
X129766461Y-110696395D01*
X129778017Y-110704264D01*
X129791201Y-110713022D01*
X129805670Y-110722443D01*
X129821080Y-110732301D01*
X129837089Y-110742369D01*
X129853354Y-110752421D01*
X129869531Y-110762231D01*
X129879671Y-110768272D01*
X129945005Y-110805187D01*
X130010901Y-110839040D01*
X130077065Y-110869708D01*
X130143206Y-110897067D01*
X130209030Y-110920993D01*
X130274246Y-110941362D01*
X130312841Y-110951794D01*
X130335256Y-110957326D01*
X130357414Y-110962480D01*
X130378852Y-110967167D01*
X130399105Y-110971299D01*
X130417711Y-110974787D01*
X130434207Y-110977543D01*
X130448127Y-110979477D01*
X130459010Y-110980502D01*
X130463635Y-110980644D01*
X130470506Y-110980817D01*
X130475539Y-110981343D01*
X130477764Y-110982114D01*
X130477796Y-110982225D01*
X130479354Y-110983566D01*
X130484138Y-110984714D01*
X130492312Y-110985687D01*
X130504042Y-110986506D01*
X130519490Y-110987187D01*
X130521737Y-110987266D01*
X130531614Y-110987699D01*
X130539975Y-110988254D01*
X130546103Y-110988869D01*
X130549284Y-110989481D01*
X130549566Y-110989676D01*
X130551606Y-110990325D01*
X130556510Y-110990631D01*
X130563247Y-110990535D01*
X130563734Y-110990513D01*
X130570466Y-110990405D01*
X130575348Y-110990732D01*
X130577396Y-110991421D01*
X130577407Y-110991489D01*
X130579222Y-110992102D01*
X130584134Y-110992489D01*
X130591337Y-110992611D01*
X130597916Y-110992500D01*
X130606333Y-110992389D01*
X130613076Y-110992569D01*
X130617342Y-110993000D01*
X130618430Y-110993477D01*
X130620287Y-110993955D01*
X130625473Y-110994375D01*
X130633411Y-110994715D01*
X130643521Y-110994952D01*
X130655229Y-110995062D01*
X130658472Y-110995068D01*
X130670501Y-110994994D01*
X130681083Y-110994788D01*
X130689643Y-110994473D01*
X130695602Y-110994071D01*
X130698382Y-110993606D01*
X130698513Y-110993477D01*
X130700330Y-110992879D01*
X130705243Y-110992503D01*
X130712447Y-110992388D01*
X130719026Y-110992500D01*
X130727442Y-110992649D01*
X130734185Y-110992570D01*
X130738449Y-110992286D01*
X130739535Y-110991943D01*
X130741355Y-110991369D01*
X130746298Y-110990695D01*
X130753587Y-110990009D01*
X130761505Y-110989456D01*
X130805021Y-110985822D01*
X130850953Y-110980056D01*
X130898546Y-110972310D01*
X130947047Y-110962737D01*
X130995702Y-110951488D01*
X131043756Y-110938715D01*
X131090456Y-110924571D01*
X131101858Y-110920830D01*
X131164631Y-110898131D01*
X131227760Y-110871845D01*
X131290807Y-110842208D01*
X131353333Y-110809455D01*
X131414897Y-110773825D01*
X131475060Y-110735552D01*
X131533383Y-110694875D01*
X131563556Y-110672301D01*
X131571096Y-110666824D01*
X131577370Y-110662856D01*
X131581714Y-110660792D01*
X131583088Y-110660623D01*
X131585463Y-110661995D01*
G37*
D14*
X122572000Y-85344000D02*
X122572000Y-121014000D01*
X122572000Y-85344000D02*
X125332000Y-85344000D01*
X122572000Y-121014000D02*
X125332000Y-121014000D01*
X125332000Y-85344000D02*
X125332000Y-121014000D01*
X128812000Y-97914000D02*
X134332000Y-97914000D01*
X128812000Y-98439000D02*
X128812000Y-97914000D01*
X128812000Y-108334000D02*
X128812000Y-107809000D01*
X134332000Y-97914000D02*
X134332000Y-98439000D01*
X134332000Y-107809000D02*
X134332000Y-108334000D01*
X134332000Y-108334000D02*
X128812000Y-108334000D01*
X128072000Y-98434000D02*
X127732000Y-97964000D01*
X128412000Y-97964000D01*
X128072000Y-98434000D01*
G36*
X128072000Y-98434000D02*
G01*
X127732000Y-97964000D01*
X128412000Y-97964000D01*
X128072000Y-98434000D01*
G37*
X137812000Y-85344000D02*
X137812000Y-121014000D01*
X137812000Y-85344000D02*
X140572000Y-85344000D01*
X137812000Y-121014000D02*
X140572000Y-121014000D01*
X140572000Y-85344000D02*
X140572000Y-121014000D01*
%LPC*%
D15*
X123952000Y-86614000D03*
D16*
X123952000Y-89154000D03*
X123952000Y-91694000D03*
X123952000Y-94234000D03*
X123952000Y-96774000D03*
X123952000Y-99314000D03*
X123952000Y-101854000D03*
X123952000Y-104394000D03*
X123952000Y-106934000D03*
X123952000Y-109474000D03*
X123952000Y-112014000D03*
X123952000Y-114554000D03*
X123952000Y-117094000D03*
X123952000Y-119634000D03*
D17*
X128072000Y-98899000D03*
X128072000Y-99549000D03*
X128072000Y-100199000D03*
X128072000Y-100849000D03*
X128072000Y-101499000D03*
X128072000Y-102149000D03*
X128072000Y-102799000D03*
X128072000Y-103449000D03*
X128072000Y-104099000D03*
X128072000Y-104749000D03*
X128072000Y-105399000D03*
X128072000Y-106049000D03*
X128072000Y-106699000D03*
X128072000Y-107349000D03*
X135072000Y-107349000D03*
X135072000Y-106699000D03*
X135072000Y-106049000D03*
X135072000Y-105399000D03*
X135072000Y-104749000D03*
X135072000Y-104099000D03*
X135072000Y-103449000D03*
X135072000Y-102799000D03*
X135072000Y-102149000D03*
X135072000Y-101499000D03*
X135072000Y-100849000D03*
X135072000Y-100199000D03*
X135072000Y-99549000D03*
X135072000Y-98899000D03*
D16*
X139192000Y-86614000D03*
X139192000Y-89154000D03*
X139192000Y-91694000D03*
X139192000Y-94234000D03*
X139192000Y-96774000D03*
X139192000Y-99314000D03*
X139192000Y-101854000D03*
X139192000Y-104394000D03*
X139192000Y-106934000D03*
X139192000Y-109474000D03*
X139192000Y-112014000D03*
X139192000Y-114554000D03*
X139192000Y-117094000D03*
X139192000Y-119634000D03*
%LPD*%
M02*
