G04 #@! TF.GenerationSoftware,KiCad,Pcbnew,9.0.6*
G04 #@! TF.CreationDate,2026-01-06T15:33:41-06:00*
G04 #@! TF.ProjectId,RGBLED_1010_BOB,5247424c-4544-45f3-9130-31305f424f42,rev?*
G04 #@! TF.SameCoordinates,Original*
G04 #@! TF.FileFunction,Copper,L1,Top*
G04 #@! TF.FilePolarity,Positive*
%FSLAX46Y46*%
G04 Gerber Fmt 4.6, Leading zero omitted, Abs format (unit mm)*
G04 Created by KiCad (PCBNEW 9.0.6) date 2026-01-06 15:33:41*
%MOMM*%
%LPD*%
G01*
G04 APERTURE LIST*
G04 #@! TA.AperFunction,SMDPad,CuDef*
%ADD10R,1.260000X1.700000*%
G04 #@! TD*
G04 #@! TA.AperFunction,ComponentPad*
%ADD11C,1.700000*%
G04 #@! TD*
G04 #@! TA.AperFunction,ComponentPad*
%ADD12R,1.700000X1.700000*%
G04 #@! TD*
G04 #@! TA.AperFunction,SMDPad,CuDef*
%ADD13R,0.450000X0.450000*%
G04 #@! TD*
G04 #@! TA.AperFunction,ViaPad*
%ADD14C,0.500000*%
G04 #@! TD*
G04 #@! TA.AperFunction,Conductor*
%ADD15C,0.250000*%
G04 #@! TD*
G04 #@! TA.AperFunction,Conductor*
%ADD16C,0.100000*%
G04 #@! TD*
G04 APERTURE END LIST*
D10*
X120911700Y-90505200D03*
X120911700Y-87965200D03*
X120911700Y-85425200D03*
D11*
X120281700Y-85425200D03*
X120281700Y-87965200D03*
X120281700Y-90505200D03*
D10*
X106951700Y-90505200D03*
X106951700Y-87965200D03*
X106951700Y-85425200D03*
D12*
X107581700Y-85425200D03*
D11*
X107581700Y-87965200D03*
X107581700Y-90505200D03*
D13*
X109494000Y-83535200D03*
X110344000Y-83535200D03*
X109494000Y-84385200D03*
X110334000Y-84395200D03*
X111494000Y-83535199D03*
X112344000Y-83535199D03*
X111494000Y-84385199D03*
X112334000Y-84395199D03*
X113494000Y-83535200D03*
X114344000Y-83535200D03*
X113494000Y-84385200D03*
X114334000Y-84395200D03*
X115494000Y-83535199D03*
X116344000Y-83535199D03*
X115494000Y-84385199D03*
X116334000Y-84395199D03*
X117494000Y-83535200D03*
X118344000Y-83535200D03*
X117494000Y-84385200D03*
X118334000Y-84395200D03*
X109483999Y-86375200D03*
X109493999Y-85535200D03*
X110343999Y-86385200D03*
X110343999Y-85535200D03*
X112344000Y-85535200D03*
X112344000Y-86385200D03*
X111494000Y-85535200D03*
X111484000Y-86375200D03*
X114344000Y-85535199D03*
X114344000Y-86385199D03*
X113494000Y-85535199D03*
X113484000Y-86375199D03*
X116344000Y-85535200D03*
X116344000Y-86385200D03*
X115494000Y-85535200D03*
X115484000Y-86375200D03*
X118344001Y-85535200D03*
X118344001Y-86385200D03*
X117494001Y-85535200D03*
X117484001Y-86375200D03*
X109494000Y-87535200D03*
X110344000Y-87535200D03*
X109494000Y-88385200D03*
X110334000Y-88395200D03*
X111493999Y-87535200D03*
X112343999Y-87535200D03*
X111493999Y-88385200D03*
X112333999Y-88395200D03*
X115494001Y-87535200D03*
X116344001Y-87535200D03*
X115494001Y-88385200D03*
X116334001Y-88395200D03*
X117494000Y-87535200D03*
X118344000Y-87535200D03*
X117494000Y-88385200D03*
X118334000Y-88395200D03*
X110343999Y-89535200D03*
X110343999Y-90385200D03*
X109493999Y-89535200D03*
X109483999Y-90375200D03*
X112344000Y-89535200D03*
X112344000Y-90385200D03*
X111494000Y-89535200D03*
X111484000Y-90375200D03*
X114344000Y-89535201D03*
X114344000Y-90385201D03*
X113494000Y-89535201D03*
X113484000Y-90375201D03*
X115484000Y-90375200D03*
X115494000Y-89535200D03*
X116344000Y-90385200D03*
X116344000Y-89535200D03*
X118344001Y-89535200D03*
X118344001Y-90385200D03*
X117494001Y-89535200D03*
X117484001Y-90375200D03*
X109494000Y-91535200D03*
X110344000Y-91535200D03*
X109494000Y-92385200D03*
X110334000Y-92395200D03*
X111494000Y-91535201D03*
X112344000Y-91535201D03*
X111494000Y-92385201D03*
X112334000Y-92395201D03*
X113494000Y-91535200D03*
X114344000Y-91535200D03*
X113494000Y-92385200D03*
X114334000Y-92395200D03*
X116334000Y-92395201D03*
X115494000Y-92385201D03*
X116344000Y-91535201D03*
X115494000Y-91535201D03*
X117494000Y-91535200D03*
X118344000Y-91535200D03*
X117494000Y-92385200D03*
X118334000Y-92395200D03*
X114334000Y-88395200D03*
X113494000Y-88385200D03*
X114344000Y-87535200D03*
X113494000Y-87535200D03*
D14*
X108839000Y-83972400D03*
X118973600Y-91973400D03*
X113919000Y-90960000D03*
X116919001Y-88965200D03*
X112919000Y-88965200D03*
X113919000Y-84960000D03*
X112919000Y-86960200D03*
X116919001Y-86960200D03*
D15*
X112919861Y-92961487D02*
X110919246Y-92961487D01*
X119826699Y-90960201D02*
X118273000Y-90960201D01*
X120281700Y-90505200D02*
X119826699Y-90960201D01*
X107581700Y-85425200D02*
X108043900Y-84963000D01*
X108043900Y-84963000D02*
X109493999Y-84963000D01*
X117489001Y-85535200D02*
X116919001Y-84965200D01*
X117494001Y-85535200D02*
X117489001Y-85535200D01*
X109027800Y-88965200D02*
X109505000Y-88965200D01*
X108737400Y-89255600D02*
X109027800Y-88965200D01*
X108946000Y-92385200D02*
X108737400Y-92176600D01*
X108737400Y-92176600D02*
X108737400Y-89255600D01*
X109494000Y-92385200D02*
X108946000Y-92385200D01*
X118872000Y-86944200D02*
X118344001Y-86944200D01*
X119075200Y-83693000D02*
X119075200Y-86741000D01*
X118917400Y-83535200D02*
X119075200Y-83693000D01*
X119075200Y-86741000D02*
X118872000Y-86944200D01*
X118344000Y-83535200D02*
X118917400Y-83535200D01*
D16*
X109276200Y-83535200D02*
X108839000Y-83972400D01*
X109494000Y-83535200D02*
X109276200Y-83535200D01*
X118551800Y-92395200D02*
X118973600Y-91973400D01*
X118334000Y-92395200D02*
X118551800Y-92395200D01*
D15*
X113494860Y-92381256D02*
X113494861Y-92386487D01*
X114926460Y-92961487D02*
X112919861Y-92961487D01*
X115494861Y-92381258D02*
X115494860Y-92393087D01*
X111494860Y-92385873D02*
X110919246Y-92961487D01*
X111494860Y-92381259D02*
X111494860Y-92385873D01*
X113494861Y-92386487D02*
X112919861Y-92961487D01*
X115494860Y-92393087D02*
X114926460Y-92961487D01*
X110918211Y-92962092D02*
X109643260Y-92962093D01*
X109494860Y-92381256D02*
X109494860Y-92813693D01*
X109494860Y-92813693D02*
X109643260Y-92962093D01*
X117494246Y-92381487D02*
X116919246Y-92956487D01*
X116924247Y-92961487D02*
X114926460Y-92961487D01*
X118344000Y-83102764D02*
X118195600Y-82954364D01*
X118344000Y-83535200D02*
X118344000Y-83102764D01*
X116920649Y-82954364D02*
X118195600Y-82954364D01*
X116344000Y-83530584D02*
X116919614Y-82954970D01*
X116344000Y-83535199D02*
X116344000Y-83530584D01*
X114344000Y-83529970D02*
X114919000Y-82954970D01*
X114344000Y-83535200D02*
X114344000Y-83529970D01*
X112912400Y-82954970D02*
X114919000Y-82954970D01*
X112344000Y-83535199D02*
X112344000Y-83523370D01*
X114919000Y-82954970D02*
X116919614Y-82954970D01*
X112344000Y-83523370D02*
X112912400Y-82954970D01*
X110914613Y-82954970D02*
X112912400Y-82954970D01*
X110344614Y-83534970D02*
X110919614Y-82959970D01*
X117494001Y-89535200D02*
X117489001Y-89535200D01*
X117489001Y-89535200D02*
X116919001Y-88965200D01*
X111485801Y-84385199D02*
X110905800Y-84965200D01*
X111494000Y-84385199D02*
X111485801Y-84385199D01*
X111475800Y-85535200D02*
X110905800Y-84965200D01*
X110905800Y-84965200D02*
X109496199Y-84965200D01*
X111494000Y-85535200D02*
X111475800Y-85535200D01*
X113482399Y-85535199D02*
X112912400Y-84965200D01*
X113494000Y-85535199D02*
X113482399Y-85535199D01*
X113492400Y-84385200D02*
X112912400Y-84965200D01*
X113494000Y-84385200D02*
X113492400Y-84385200D01*
X112912400Y-84965200D02*
X110905800Y-84965200D01*
X115489000Y-85535200D02*
X114919000Y-84965200D01*
X115494000Y-85535200D02*
X115489000Y-85535200D01*
X115494000Y-84390200D02*
X114919000Y-84965200D01*
X115494000Y-84385199D02*
X115494000Y-84390200D01*
X115494000Y-89535200D02*
X115489000Y-89535200D01*
X115489000Y-89535200D02*
X114919000Y-88965200D01*
X115494001Y-88390199D02*
X114919000Y-88965200D01*
X114919000Y-88965200D02*
X110905800Y-88965200D01*
X115494001Y-88385200D02*
X115494001Y-88390199D01*
X113489001Y-89535201D02*
X112919000Y-88965200D01*
X113494000Y-89535201D02*
X113489001Y-89535201D01*
X113494000Y-88390200D02*
X112919000Y-88965200D01*
X113494000Y-88385200D02*
X113494000Y-88390200D01*
X111475800Y-89535200D02*
X110905800Y-88965200D01*
X111494000Y-89535200D02*
X111475800Y-89535200D01*
X111485800Y-88385200D02*
X110905800Y-88965200D01*
X111493999Y-88385200D02*
X111485800Y-88385200D01*
X110905800Y-88965200D02*
X109505000Y-88965200D01*
X114344000Y-87535200D02*
X114344000Y-87509800D01*
X114344000Y-87509800D02*
X114893600Y-86960200D01*
X114893600Y-86934799D02*
X114893600Y-86960200D01*
X114893600Y-86960200D02*
X116919001Y-86960200D01*
X114344000Y-86385199D02*
X114893600Y-86934799D01*
X110918999Y-86960201D02*
X110918999Y-86960200D01*
X110344000Y-87535200D02*
X110918999Y-86960201D01*
X112343999Y-87535200D02*
X112918999Y-86960200D01*
X112918999Y-86960200D02*
X112919000Y-86960200D01*
X112344000Y-86385200D02*
X112919000Y-86960200D01*
X116914000Y-88965200D02*
X114919000Y-88965200D01*
X109505000Y-88965200D02*
X109494000Y-88976200D01*
X117494000Y-88385200D02*
X116914000Y-88965200D01*
X109494000Y-88976200D02*
X109494000Y-89535199D01*
X109494000Y-88385200D02*
X109494000Y-88976200D01*
X109494000Y-89535199D02*
X109493999Y-89535200D01*
X116914000Y-84965200D02*
X112912400Y-84965200D01*
X117494000Y-84385200D02*
X116914000Y-84965200D01*
X109493999Y-84963000D02*
X109493999Y-84385201D01*
X109496199Y-84965200D02*
X109493999Y-84963000D01*
X109493999Y-85535200D02*
X109493999Y-84963000D01*
X109493999Y-84385201D02*
X109494000Y-84385200D01*
X118328001Y-86960200D02*
X118344001Y-86944200D01*
X116919001Y-86960200D02*
X118328001Y-86960200D01*
X118344001Y-86944200D02*
X118344001Y-87535199D01*
X118344001Y-87535199D02*
X118344000Y-87535200D01*
X118344001Y-86385200D02*
X118344001Y-86944200D01*
X116344001Y-87535200D02*
X116919001Y-86960200D01*
X116919000Y-86960200D02*
X116919001Y-86960200D01*
X116344000Y-86385200D02*
X116919000Y-86960200D01*
X118344000Y-90754201D02*
X118344000Y-91535200D01*
X118344001Y-90889200D02*
X118344001Y-90754200D01*
X118344001Y-90754200D02*
X118344000Y-90754201D01*
X118344001Y-90889200D02*
X118344001Y-90385200D01*
X118273000Y-90960201D02*
X118344001Y-90889200D01*
X116919000Y-90960201D02*
X118273000Y-90960201D01*
X110344000Y-91535200D02*
X110919000Y-90960200D01*
X112344000Y-91535201D02*
X112919000Y-90960201D01*
X114344000Y-91535200D02*
X114344000Y-91530201D01*
X114344000Y-91530201D02*
X114919000Y-90955201D01*
X116344000Y-91530200D02*
X116919000Y-90955200D01*
X116344000Y-91535201D02*
X116344000Y-91530200D01*
X116349000Y-90385200D02*
X116919000Y-90955200D01*
X116344000Y-90385200D02*
X116349000Y-90385200D01*
X112919000Y-90960200D02*
X112919000Y-90960201D01*
X112344000Y-90385200D02*
X112919000Y-90960200D01*
X114349000Y-90385201D02*
X114919000Y-90955201D01*
X114344000Y-90385201D02*
X114349000Y-90385201D01*
X110343999Y-86385200D02*
X110918999Y-86960200D01*
X110918999Y-86960200D02*
X114893600Y-86960200D01*
X110913999Y-90955200D02*
X116919000Y-90955200D01*
X110343999Y-90385200D02*
X110913999Y-90955200D01*
D16*
X111349001Y-83530200D02*
X110489000Y-84390200D01*
X110489000Y-85530200D02*
X111349000Y-86390200D01*
X115349000Y-83530200D02*
X114489000Y-84390200D01*
X118333999Y-85525200D02*
X118344000Y-85535201D01*
X113349000Y-91530200D02*
X112489000Y-92390200D01*
X113349000Y-87530200D02*
X112489000Y-88390200D01*
X114488999Y-85530200D02*
X115349000Y-86390200D01*
X111349000Y-87530201D02*
X110489000Y-88390200D01*
X112489000Y-85530200D02*
X113349000Y-86390200D01*
X116489000Y-85530200D02*
X117349000Y-86390200D01*
X118334000Y-84395200D02*
X118333999Y-85525200D01*
X113349000Y-83530200D02*
X112489000Y-84390200D01*
X109484000Y-87525200D02*
X109494000Y-87535200D01*
X115349000Y-87530200D02*
X114489000Y-88390200D01*
X117349000Y-83530200D02*
X116489000Y-84390200D01*
X109484000Y-86375200D02*
X109484000Y-87525200D01*
X115349000Y-91530200D02*
X114489000Y-92390200D01*
X117349000Y-91530200D02*
X116488999Y-92390200D01*
X117349000Y-87530200D02*
X116489000Y-88390199D01*
X109484000Y-91525200D02*
X109494000Y-91535200D01*
X114489000Y-89530200D02*
X115349000Y-90390200D01*
X116489000Y-89530200D02*
X117349000Y-90390200D01*
X110489000Y-89530200D02*
X111349000Y-90390200D01*
X109484000Y-90375199D02*
X109484000Y-91525200D01*
X118334000Y-89525201D02*
X118344000Y-89535200D01*
X118334000Y-88395200D02*
X118334000Y-89525201D01*
X112489000Y-89530200D02*
X113349001Y-90390200D01*
X111349000Y-91530200D02*
X110489000Y-92390200D01*
M02*
