G04 #@! TF.GenerationSoftware,KiCad,Pcbnew,9.0.6*
G04 #@! TF.CreationDate,2026-01-06T15:33:41-06:00*
G04 #@! TF.ProjectId,RGBLED_1010_BOB,5247424c-4544-45f3-9130-31305f424f42,rev?*
G04 #@! TF.SameCoordinates,Original*
G04 #@! TF.FileFunction,Legend,Bot*
G04 #@! TF.FilePolarity,Positive*
%FSLAX46Y46*%
G04 Gerber Fmt 4.6, Leading zero omitted, Abs format (unit mm)*
G04 Created by KiCad (PCBNEW 9.0.6) date 2026-01-06 15:33:41*
%MOMM*%
%LPD*%
G01*
G04 APERTURE LIST*
%ADD10C,0.200000*%
%ADD11C,0.100000*%
%ADD12C,0.080000*%
%ADD13C,0.000000*%
%ADD14C,0.120000*%
%ADD15R,1.260000X1.700000*%
%ADD16C,1.700000*%
%ADD17R,1.700000X1.700000*%
%ADD18R,2.510000X1.000000*%
G04 APERTURE END LIST*
D10*
X118261858Y-83671695D02*
X118719001Y-83671695D01*
X118490429Y-83671695D02*
X118490429Y-82871695D01*
X118490429Y-82871695D02*
X118566620Y-82985980D01*
X118566620Y-82985980D02*
X118642810Y-83062171D01*
X118642810Y-83062171D02*
X118719001Y-83100266D01*
X117919000Y-83671695D02*
X117919000Y-83138361D01*
X117919000Y-83214552D02*
X117880905Y-83176457D01*
X117880905Y-83176457D02*
X117804715Y-83138361D01*
X117804715Y-83138361D02*
X117690429Y-83138361D01*
X117690429Y-83138361D02*
X117614238Y-83176457D01*
X117614238Y-83176457D02*
X117576143Y-83252647D01*
X117576143Y-83252647D02*
X117576143Y-83671695D01*
X117576143Y-83252647D02*
X117538048Y-83176457D01*
X117538048Y-83176457D02*
X117461857Y-83138361D01*
X117461857Y-83138361D02*
X117347572Y-83138361D01*
X117347572Y-83138361D02*
X117271381Y-83176457D01*
X117271381Y-83176457D02*
X117233286Y-83252647D01*
X117233286Y-83252647D02*
X117233286Y-83671695D01*
X116852333Y-83671695D02*
X116852333Y-83138361D01*
X116852333Y-83214552D02*
X116814238Y-83176457D01*
X116814238Y-83176457D02*
X116738048Y-83138361D01*
X116738048Y-83138361D02*
X116623762Y-83138361D01*
X116623762Y-83138361D02*
X116547571Y-83176457D01*
X116547571Y-83176457D02*
X116509476Y-83252647D01*
X116509476Y-83252647D02*
X116509476Y-83671695D01*
X116509476Y-83252647D02*
X116471381Y-83176457D01*
X116471381Y-83176457D02*
X116395190Y-83138361D01*
X116395190Y-83138361D02*
X116280905Y-83138361D01*
X116280905Y-83138361D02*
X116204714Y-83176457D01*
X116204714Y-83176457D02*
X116166619Y-83252647D01*
X116166619Y-83252647D02*
X116166619Y-83671695D01*
X114795190Y-83671695D02*
X115176142Y-83671695D01*
X115176142Y-83671695D02*
X115176142Y-82871695D01*
X114528523Y-83252647D02*
X114261857Y-83252647D01*
X114147571Y-83671695D02*
X114528523Y-83671695D01*
X114528523Y-83671695D02*
X114528523Y-82871695D01*
X114528523Y-82871695D02*
X114147571Y-82871695D01*
X113804713Y-83671695D02*
X113804713Y-82871695D01*
X113804713Y-82871695D02*
X113614237Y-82871695D01*
X113614237Y-82871695D02*
X113499951Y-82909790D01*
X113499951Y-82909790D02*
X113423761Y-82985980D01*
X113423761Y-82985980D02*
X113385666Y-83062171D01*
X113385666Y-83062171D02*
X113347570Y-83214552D01*
X113347570Y-83214552D02*
X113347570Y-83328838D01*
X113347570Y-83328838D02*
X113385666Y-83481219D01*
X113385666Y-83481219D02*
X113423761Y-83557409D01*
X113423761Y-83557409D02*
X113499951Y-83633600D01*
X113499951Y-83633600D02*
X113614237Y-83671695D01*
X113614237Y-83671695D02*
X113804713Y-83671695D01*
X112395189Y-83671695D02*
X112395189Y-82871695D01*
X112395189Y-82871695D02*
X112128523Y-83443123D01*
X112128523Y-83443123D02*
X111861856Y-82871695D01*
X111861856Y-82871695D02*
X111861856Y-83671695D01*
X111138046Y-83671695D02*
X111138046Y-83252647D01*
X111138046Y-83252647D02*
X111176141Y-83176457D01*
X111176141Y-83176457D02*
X111252332Y-83138361D01*
X111252332Y-83138361D02*
X111404713Y-83138361D01*
X111404713Y-83138361D02*
X111480903Y-83176457D01*
X111138046Y-83633600D02*
X111214237Y-83671695D01*
X111214237Y-83671695D02*
X111404713Y-83671695D01*
X111404713Y-83671695D02*
X111480903Y-83633600D01*
X111480903Y-83633600D02*
X111518999Y-83557409D01*
X111518999Y-83557409D02*
X111518999Y-83481219D01*
X111518999Y-83481219D02*
X111480903Y-83405028D01*
X111480903Y-83405028D02*
X111404713Y-83366933D01*
X111404713Y-83366933D02*
X111214237Y-83366933D01*
X111214237Y-83366933D02*
X111138046Y-83328838D01*
X110871379Y-83138361D02*
X110566617Y-83138361D01*
X110757093Y-82871695D02*
X110757093Y-83557409D01*
X110757093Y-83557409D02*
X110718998Y-83633600D01*
X110718998Y-83633600D02*
X110642808Y-83671695D01*
X110642808Y-83671695D02*
X110566617Y-83671695D01*
X110299950Y-83671695D02*
X110299950Y-83138361D01*
X110299950Y-83290742D02*
X110261855Y-83214552D01*
X110261855Y-83214552D02*
X110223760Y-83176457D01*
X110223760Y-83176457D02*
X110147569Y-83138361D01*
X110147569Y-83138361D02*
X110071379Y-83138361D01*
X109804712Y-83671695D02*
X109804712Y-83138361D01*
X109804712Y-82871695D02*
X109842808Y-82909790D01*
X109842808Y-82909790D02*
X109804712Y-82947885D01*
X109804712Y-82947885D02*
X109766617Y-82909790D01*
X109766617Y-82909790D02*
X109804712Y-82871695D01*
X109804712Y-82871695D02*
X109804712Y-82947885D01*
X109499951Y-83671695D02*
X109080903Y-83138361D01*
X109499951Y-83138361D02*
X109080903Y-83671695D01*
X120547572Y-92269695D02*
X120014238Y-93069695D01*
X120014238Y-92269695D02*
X120547572Y-93069695D01*
X119328524Y-93069695D02*
X119709476Y-93069695D01*
X119709476Y-93069695D02*
X119709476Y-92269695D01*
X119061857Y-92764933D02*
X118452334Y-92764933D01*
X117652334Y-93069695D02*
X118109477Y-93069695D01*
X117880905Y-93069695D02*
X117880905Y-92269695D01*
X117880905Y-92269695D02*
X117957096Y-92383980D01*
X117957096Y-92383980D02*
X118033286Y-92460171D01*
X118033286Y-92460171D02*
X118109477Y-92498266D01*
X117157095Y-92269695D02*
X117080905Y-92269695D01*
X117080905Y-92269695D02*
X117004714Y-92307790D01*
X117004714Y-92307790D02*
X116966619Y-92345885D01*
X116966619Y-92345885D02*
X116928524Y-92422076D01*
X116928524Y-92422076D02*
X116890429Y-92574457D01*
X116890429Y-92574457D02*
X116890429Y-92764933D01*
X116890429Y-92764933D02*
X116928524Y-92917314D01*
X116928524Y-92917314D02*
X116966619Y-92993504D01*
X116966619Y-92993504D02*
X117004714Y-93031600D01*
X117004714Y-93031600D02*
X117080905Y-93069695D01*
X117080905Y-93069695D02*
X117157095Y-93069695D01*
X117157095Y-93069695D02*
X117233286Y-93031600D01*
X117233286Y-93031600D02*
X117271381Y-92993504D01*
X117271381Y-92993504D02*
X117309476Y-92917314D01*
X117309476Y-92917314D02*
X117347572Y-92764933D01*
X117347572Y-92764933D02*
X117347572Y-92574457D01*
X117347572Y-92574457D02*
X117309476Y-92422076D01*
X117309476Y-92422076D02*
X117271381Y-92345885D01*
X117271381Y-92345885D02*
X117233286Y-92307790D01*
X117233286Y-92307790D02*
X117157095Y-92269695D01*
X116128524Y-93069695D02*
X116585667Y-93069695D01*
X116357095Y-93069695D02*
X116357095Y-92269695D01*
X116357095Y-92269695D02*
X116433286Y-92383980D01*
X116433286Y-92383980D02*
X116509476Y-92460171D01*
X116509476Y-92460171D02*
X116585667Y-92498266D01*
X115633285Y-92269695D02*
X115557095Y-92269695D01*
X115557095Y-92269695D02*
X115480904Y-92307790D01*
X115480904Y-92307790D02*
X115442809Y-92345885D01*
X115442809Y-92345885D02*
X115404714Y-92422076D01*
X115404714Y-92422076D02*
X115366619Y-92574457D01*
X115366619Y-92574457D02*
X115366619Y-92764933D01*
X115366619Y-92764933D02*
X115404714Y-92917314D01*
X115404714Y-92917314D02*
X115442809Y-92993504D01*
X115442809Y-92993504D02*
X115480904Y-93031600D01*
X115480904Y-93031600D02*
X115557095Y-93069695D01*
X115557095Y-93069695D02*
X115633285Y-93069695D01*
X115633285Y-93069695D02*
X115709476Y-93031600D01*
X115709476Y-93031600D02*
X115747571Y-92993504D01*
X115747571Y-92993504D02*
X115785666Y-92917314D01*
X115785666Y-92917314D02*
X115823762Y-92764933D01*
X115823762Y-92764933D02*
X115823762Y-92574457D01*
X115823762Y-92574457D02*
X115785666Y-92422076D01*
X115785666Y-92422076D02*
X115747571Y-92345885D01*
X115747571Y-92345885D02*
X115709476Y-92307790D01*
X115709476Y-92307790D02*
X115633285Y-92269695D01*
X114566618Y-93069695D02*
X114833285Y-92688742D01*
X115023761Y-93069695D02*
X115023761Y-92269695D01*
X115023761Y-92269695D02*
X114718999Y-92269695D01*
X114718999Y-92269695D02*
X114642809Y-92307790D01*
X114642809Y-92307790D02*
X114604714Y-92345885D01*
X114604714Y-92345885D02*
X114566618Y-92422076D01*
X114566618Y-92422076D02*
X114566618Y-92536361D01*
X114566618Y-92536361D02*
X114604714Y-92612552D01*
X114604714Y-92612552D02*
X114642809Y-92650647D01*
X114642809Y-92650647D02*
X114718999Y-92688742D01*
X114718999Y-92688742D02*
X115023761Y-92688742D01*
X113804714Y-92307790D02*
X113880904Y-92269695D01*
X113880904Y-92269695D02*
X113995190Y-92269695D01*
X113995190Y-92269695D02*
X114109476Y-92307790D01*
X114109476Y-92307790D02*
X114185666Y-92383980D01*
X114185666Y-92383980D02*
X114223761Y-92460171D01*
X114223761Y-92460171D02*
X114261857Y-92612552D01*
X114261857Y-92612552D02*
X114261857Y-92726838D01*
X114261857Y-92726838D02*
X114223761Y-92879219D01*
X114223761Y-92879219D02*
X114185666Y-92955409D01*
X114185666Y-92955409D02*
X114109476Y-93031600D01*
X114109476Y-93031600D02*
X113995190Y-93069695D01*
X113995190Y-93069695D02*
X113918999Y-93069695D01*
X113918999Y-93069695D02*
X113804714Y-93031600D01*
X113804714Y-93031600D02*
X113766618Y-92993504D01*
X113766618Y-92993504D02*
X113766618Y-92726838D01*
X113766618Y-92726838D02*
X113918999Y-92726838D01*
X113157095Y-92650647D02*
X113042809Y-92688742D01*
X113042809Y-92688742D02*
X113004714Y-92726838D01*
X113004714Y-92726838D02*
X112966618Y-92803028D01*
X112966618Y-92803028D02*
X112966618Y-92917314D01*
X112966618Y-92917314D02*
X113004714Y-92993504D01*
X113004714Y-92993504D02*
X113042809Y-93031600D01*
X113042809Y-93031600D02*
X113118999Y-93069695D01*
X113118999Y-93069695D02*
X113423761Y-93069695D01*
X113423761Y-93069695D02*
X113423761Y-92269695D01*
X113423761Y-92269695D02*
X113157095Y-92269695D01*
X113157095Y-92269695D02*
X113080904Y-92307790D01*
X113080904Y-92307790D02*
X113042809Y-92345885D01*
X113042809Y-92345885D02*
X113004714Y-92422076D01*
X113004714Y-92422076D02*
X113004714Y-92498266D01*
X113004714Y-92498266D02*
X113042809Y-92574457D01*
X113042809Y-92574457D02*
X113080904Y-92612552D01*
X113080904Y-92612552D02*
X113157095Y-92650647D01*
X113157095Y-92650647D02*
X113423761Y-92650647D01*
X112166618Y-92993504D02*
X112204714Y-93031600D01*
X112204714Y-93031600D02*
X112318999Y-93069695D01*
X112318999Y-93069695D02*
X112395190Y-93069695D01*
X112395190Y-93069695D02*
X112509476Y-93031600D01*
X112509476Y-93031600D02*
X112585666Y-92955409D01*
X112585666Y-92955409D02*
X112623761Y-92879219D01*
X112623761Y-92879219D02*
X112661857Y-92726838D01*
X112661857Y-92726838D02*
X112661857Y-92612552D01*
X112661857Y-92612552D02*
X112623761Y-92460171D01*
X112623761Y-92460171D02*
X112585666Y-92383980D01*
X112585666Y-92383980D02*
X112509476Y-92307790D01*
X112509476Y-92307790D02*
X112395190Y-92269695D01*
X112395190Y-92269695D02*
X112318999Y-92269695D01*
X112318999Y-92269695D02*
X112204714Y-92307790D01*
X112204714Y-92307790D02*
X112166618Y-92345885D01*
X111823761Y-92764933D02*
X111214238Y-92764933D01*
X110871381Y-92345885D02*
X110833285Y-92307790D01*
X110833285Y-92307790D02*
X110757095Y-92269695D01*
X110757095Y-92269695D02*
X110566619Y-92269695D01*
X110566619Y-92269695D02*
X110490428Y-92307790D01*
X110490428Y-92307790D02*
X110452333Y-92345885D01*
X110452333Y-92345885D02*
X110414238Y-92422076D01*
X110414238Y-92422076D02*
X110414238Y-92498266D01*
X110414238Y-92498266D02*
X110452333Y-92612552D01*
X110452333Y-92612552D02*
X110909476Y-93069695D01*
X110909476Y-93069695D02*
X110414238Y-93069695D01*
X109957095Y-92612552D02*
X110033285Y-92574457D01*
X110033285Y-92574457D02*
X110071380Y-92536361D01*
X110071380Y-92536361D02*
X110109476Y-92460171D01*
X110109476Y-92460171D02*
X110109476Y-92422076D01*
X110109476Y-92422076D02*
X110071380Y-92345885D01*
X110071380Y-92345885D02*
X110033285Y-92307790D01*
X110033285Y-92307790D02*
X109957095Y-92269695D01*
X109957095Y-92269695D02*
X109804714Y-92269695D01*
X109804714Y-92269695D02*
X109728523Y-92307790D01*
X109728523Y-92307790D02*
X109690428Y-92345885D01*
X109690428Y-92345885D02*
X109652333Y-92422076D01*
X109652333Y-92422076D02*
X109652333Y-92460171D01*
X109652333Y-92460171D02*
X109690428Y-92536361D01*
X109690428Y-92536361D02*
X109728523Y-92574457D01*
X109728523Y-92574457D02*
X109804714Y-92612552D01*
X109804714Y-92612552D02*
X109957095Y-92612552D01*
X109957095Y-92612552D02*
X110033285Y-92650647D01*
X110033285Y-92650647D02*
X110071380Y-92688742D01*
X110071380Y-92688742D02*
X110109476Y-92764933D01*
X110109476Y-92764933D02*
X110109476Y-92917314D01*
X110109476Y-92917314D02*
X110071380Y-92993504D01*
X110071380Y-92993504D02*
X110033285Y-93031600D01*
X110033285Y-93031600D02*
X109957095Y-93069695D01*
X109957095Y-93069695D02*
X109804714Y-93069695D01*
X109804714Y-93069695D02*
X109728523Y-93031600D01*
X109728523Y-93031600D02*
X109690428Y-92993504D01*
X109690428Y-92993504D02*
X109652333Y-92917314D01*
X109652333Y-92917314D02*
X109652333Y-92764933D01*
X109652333Y-92764933D02*
X109690428Y-92688742D01*
X109690428Y-92688742D02*
X109728523Y-92650647D01*
X109728523Y-92650647D02*
X109804714Y-92612552D01*
X108890428Y-93069695D02*
X109347571Y-93069695D01*
X109118999Y-93069695D02*
X109118999Y-92269695D01*
X109118999Y-92269695D02*
X109195190Y-92383980D01*
X109195190Y-92383980D02*
X109271380Y-92460171D01*
X109271380Y-92460171D02*
X109347571Y-92498266D01*
X108585666Y-92345885D02*
X108547570Y-92307790D01*
X108547570Y-92307790D02*
X108471380Y-92269695D01*
X108471380Y-92269695D02*
X108280904Y-92269695D01*
X108280904Y-92269695D02*
X108204713Y-92307790D01*
X108204713Y-92307790D02*
X108166618Y-92345885D01*
X108166618Y-92345885D02*
X108128523Y-92422076D01*
X108128523Y-92422076D02*
X108128523Y-92498266D01*
X108128523Y-92498266D02*
X108166618Y-92612552D01*
X108166618Y-92612552D02*
X108623761Y-93069695D01*
X108623761Y-93069695D02*
X108128523Y-93069695D01*
X107518999Y-92650647D02*
X107404713Y-92688742D01*
X107404713Y-92688742D02*
X107366618Y-92726838D01*
X107366618Y-92726838D02*
X107328522Y-92803028D01*
X107328522Y-92803028D02*
X107328522Y-92917314D01*
X107328522Y-92917314D02*
X107366618Y-92993504D01*
X107366618Y-92993504D02*
X107404713Y-93031600D01*
X107404713Y-93031600D02*
X107480903Y-93069695D01*
X107480903Y-93069695D02*
X107785665Y-93069695D01*
X107785665Y-93069695D02*
X107785665Y-92269695D01*
X107785665Y-92269695D02*
X107518999Y-92269695D01*
X107518999Y-92269695D02*
X107442808Y-92307790D01*
X107442808Y-92307790D02*
X107404713Y-92345885D01*
X107404713Y-92345885D02*
X107366618Y-92422076D01*
X107366618Y-92422076D02*
X107366618Y-92498266D01*
X107366618Y-92498266D02*
X107404713Y-92574457D01*
X107404713Y-92574457D02*
X107442808Y-92612552D01*
X107442808Y-92612552D02*
X107518999Y-92650647D01*
X107518999Y-92650647D02*
X107785665Y-92650647D01*
D11*
X106398687Y-82429502D02*
X121439542Y-82429502D01*
X121439542Y-93493244D01*
X106398687Y-93493244D01*
X106398687Y-82429502D01*
X106400000Y-84500000D02*
X106398688Y-82429502D01*
X108390000Y-82429502D01*
X106400000Y-84500000D01*
G36*
X106400000Y-84500000D02*
G01*
X106398688Y-82429502D01*
X108390000Y-82429502D01*
X106400000Y-84500000D01*
G37*
D12*
X110693854Y-88152855D02*
X110693854Y-87752855D01*
X110693854Y-87752855D02*
X110598616Y-87752855D01*
X110598616Y-87752855D02*
X110541473Y-87771903D01*
X110541473Y-87771903D02*
X110503378Y-87809998D01*
X110503378Y-87809998D02*
X110484331Y-87848093D01*
X110484331Y-87848093D02*
X110465283Y-87924284D01*
X110465283Y-87924284D02*
X110465283Y-87981427D01*
X110465283Y-87981427D02*
X110484331Y-88057617D01*
X110484331Y-88057617D02*
X110503378Y-88095712D01*
X110503378Y-88095712D02*
X110541473Y-88133808D01*
X110541473Y-88133808D02*
X110598616Y-88152855D01*
X110598616Y-88152855D02*
X110693854Y-88152855D01*
X110293854Y-88152855D02*
X110293854Y-87752855D01*
X110103378Y-88152855D02*
X110103378Y-87752855D01*
X110103378Y-87752855D02*
X109874807Y-88152855D01*
X109874807Y-88152855D02*
X109874807Y-87752855D01*
X118006657Y-88161334D02*
X118006657Y-87761334D01*
X118006657Y-87761334D02*
X117911419Y-87761334D01*
X117911419Y-87761334D02*
X117854276Y-87780382D01*
X117854276Y-87780382D02*
X117816181Y-87818477D01*
X117816181Y-87818477D02*
X117797134Y-87856572D01*
X117797134Y-87856572D02*
X117778086Y-87932763D01*
X117778086Y-87932763D02*
X117778086Y-87989906D01*
X117778086Y-87989906D02*
X117797134Y-88066096D01*
X117797134Y-88066096D02*
X117816181Y-88104191D01*
X117816181Y-88104191D02*
X117854276Y-88142287D01*
X117854276Y-88142287D02*
X117911419Y-88161334D01*
X117911419Y-88161334D02*
X118006657Y-88161334D01*
X117530467Y-87761334D02*
X117454276Y-87761334D01*
X117454276Y-87761334D02*
X117416181Y-87780382D01*
X117416181Y-87780382D02*
X117378086Y-87818477D01*
X117378086Y-87818477D02*
X117359038Y-87894667D01*
X117359038Y-87894667D02*
X117359038Y-88028001D01*
X117359038Y-88028001D02*
X117378086Y-88104191D01*
X117378086Y-88104191D02*
X117416181Y-88142287D01*
X117416181Y-88142287D02*
X117454276Y-88161334D01*
X117454276Y-88161334D02*
X117530467Y-88161334D01*
X117530467Y-88161334D02*
X117568562Y-88142287D01*
X117568562Y-88142287D02*
X117606657Y-88104191D01*
X117606657Y-88104191D02*
X117625705Y-88028001D01*
X117625705Y-88028001D02*
X117625705Y-87894667D01*
X117625705Y-87894667D02*
X117606657Y-87818477D01*
X117606657Y-87818477D02*
X117568562Y-87780382D01*
X117568562Y-87780382D02*
X117530467Y-87761334D01*
X117187609Y-87761334D02*
X117187609Y-88085144D01*
X117187609Y-88085144D02*
X117168562Y-88123239D01*
X117168562Y-88123239D02*
X117149514Y-88142287D01*
X117149514Y-88142287D02*
X117111419Y-88161334D01*
X117111419Y-88161334D02*
X117035228Y-88161334D01*
X117035228Y-88161334D02*
X116997133Y-88142287D01*
X116997133Y-88142287D02*
X116978086Y-88123239D01*
X116978086Y-88123239D02*
X116959038Y-88085144D01*
X116959038Y-88085144D02*
X116959038Y-87761334D01*
X116825704Y-87761334D02*
X116597133Y-87761334D01*
X116711419Y-88161334D02*
X116711419Y-87761334D01*
D11*
X118819623Y-85472542D02*
X118438671Y-85472542D01*
X118629147Y-85663018D02*
X118629147Y-85282066D01*
X117962480Y-85163018D02*
X118200575Y-85163018D01*
X118200575Y-85163018D02*
X118224384Y-85401113D01*
X118224384Y-85401113D02*
X118200575Y-85377304D01*
X118200575Y-85377304D02*
X118152956Y-85353494D01*
X118152956Y-85353494D02*
X118033908Y-85353494D01*
X118033908Y-85353494D02*
X117986289Y-85377304D01*
X117986289Y-85377304D02*
X117962480Y-85401113D01*
X117962480Y-85401113D02*
X117938670Y-85448732D01*
X117938670Y-85448732D02*
X117938670Y-85567780D01*
X117938670Y-85567780D02*
X117962480Y-85615399D01*
X117962480Y-85615399D02*
X117986289Y-85639209D01*
X117986289Y-85639209D02*
X118033908Y-85663018D01*
X118033908Y-85663018D02*
X118152956Y-85663018D01*
X118152956Y-85663018D02*
X118200575Y-85639209D01*
X118200575Y-85639209D02*
X118224384Y-85615399D01*
X117795813Y-85163018D02*
X117629147Y-85663018D01*
X117629147Y-85663018D02*
X117462480Y-85163018D01*
X118566198Y-90265425D02*
X118613817Y-90241615D01*
X118613817Y-90241615D02*
X118685246Y-90241615D01*
X118685246Y-90241615D02*
X118756674Y-90265425D01*
X118756674Y-90265425D02*
X118804293Y-90313044D01*
X118804293Y-90313044D02*
X118828103Y-90360663D01*
X118828103Y-90360663D02*
X118851912Y-90455901D01*
X118851912Y-90455901D02*
X118851912Y-90527329D01*
X118851912Y-90527329D02*
X118828103Y-90622567D01*
X118828103Y-90622567D02*
X118804293Y-90670186D01*
X118804293Y-90670186D02*
X118756674Y-90717806D01*
X118756674Y-90717806D02*
X118685246Y-90741615D01*
X118685246Y-90741615D02*
X118637627Y-90741615D01*
X118637627Y-90741615D02*
X118566198Y-90717806D01*
X118566198Y-90717806D02*
X118542389Y-90693996D01*
X118542389Y-90693996D02*
X118542389Y-90527329D01*
X118542389Y-90527329D02*
X118637627Y-90527329D01*
X118328103Y-90741615D02*
X118328103Y-90241615D01*
X118328103Y-90241615D02*
X118042389Y-90741615D01*
X118042389Y-90741615D02*
X118042389Y-90241615D01*
X117804293Y-90741615D02*
X117804293Y-90241615D01*
X117804293Y-90241615D02*
X117685245Y-90241615D01*
X117685245Y-90241615D02*
X117613817Y-90265425D01*
X117613817Y-90265425D02*
X117566198Y-90313044D01*
X117566198Y-90313044D02*
X117542388Y-90360663D01*
X117542388Y-90360663D02*
X117518579Y-90455901D01*
X117518579Y-90455901D02*
X117518579Y-90527329D01*
X117518579Y-90527329D02*
X117542388Y-90622567D01*
X117542388Y-90622567D02*
X117566198Y-90670186D01*
X117566198Y-90670186D02*
X117613817Y-90717806D01*
X117613817Y-90717806D02*
X117685245Y-90741615D01*
X117685245Y-90741615D02*
X117804293Y-90741615D01*
X110077171Y-90275306D02*
X110124790Y-90251496D01*
X110124790Y-90251496D02*
X110196219Y-90251496D01*
X110196219Y-90251496D02*
X110267647Y-90275306D01*
X110267647Y-90275306D02*
X110315266Y-90322925D01*
X110315266Y-90322925D02*
X110339076Y-90370544D01*
X110339076Y-90370544D02*
X110362885Y-90465782D01*
X110362885Y-90465782D02*
X110362885Y-90537210D01*
X110362885Y-90537210D02*
X110339076Y-90632448D01*
X110339076Y-90632448D02*
X110315266Y-90680067D01*
X110315266Y-90680067D02*
X110267647Y-90727687D01*
X110267647Y-90727687D02*
X110196219Y-90751496D01*
X110196219Y-90751496D02*
X110148600Y-90751496D01*
X110148600Y-90751496D02*
X110077171Y-90727687D01*
X110077171Y-90727687D02*
X110053362Y-90703877D01*
X110053362Y-90703877D02*
X110053362Y-90537210D01*
X110053362Y-90537210D02*
X110148600Y-90537210D01*
X109839076Y-90751496D02*
X109839076Y-90251496D01*
X109839076Y-90251496D02*
X109553362Y-90751496D01*
X109553362Y-90751496D02*
X109553362Y-90251496D01*
X109315266Y-90751496D02*
X109315266Y-90251496D01*
X109315266Y-90251496D02*
X109196218Y-90251496D01*
X109196218Y-90251496D02*
X109124790Y-90275306D01*
X109124790Y-90275306D02*
X109077171Y-90322925D01*
X109077171Y-90322925D02*
X109053361Y-90370544D01*
X109053361Y-90370544D02*
X109029552Y-90465782D01*
X109029552Y-90465782D02*
X109029552Y-90537210D01*
X109029552Y-90537210D02*
X109053361Y-90632448D01*
X109053361Y-90632448D02*
X109077171Y-90680067D01*
X109077171Y-90680067D02*
X109124790Y-90727687D01*
X109124790Y-90727687D02*
X109196218Y-90751496D01*
X109196218Y-90751496D02*
X109315266Y-90751496D01*
X110339076Y-85472542D02*
X109958124Y-85472542D01*
X110148600Y-85663018D02*
X110148600Y-85282066D01*
X109481933Y-85163018D02*
X109720028Y-85163018D01*
X109720028Y-85163018D02*
X109743837Y-85401113D01*
X109743837Y-85401113D02*
X109720028Y-85377304D01*
X109720028Y-85377304D02*
X109672409Y-85353494D01*
X109672409Y-85353494D02*
X109553361Y-85353494D01*
X109553361Y-85353494D02*
X109505742Y-85377304D01*
X109505742Y-85377304D02*
X109481933Y-85401113D01*
X109481933Y-85401113D02*
X109458123Y-85448732D01*
X109458123Y-85448732D02*
X109458123Y-85567780D01*
X109458123Y-85567780D02*
X109481933Y-85615399D01*
X109481933Y-85615399D02*
X109505742Y-85639209D01*
X109505742Y-85639209D02*
X109553361Y-85663018D01*
X109553361Y-85663018D02*
X109672409Y-85663018D01*
X109672409Y-85663018D02*
X109720028Y-85639209D01*
X109720028Y-85639209D02*
X109743837Y-85615399D01*
X109315266Y-85163018D02*
X109148600Y-85663018D01*
X109148600Y-85663018D02*
X108981933Y-85163018D01*
D13*
G36*
X115533388Y-88330484D02*
G01*
X115555666Y-88362024D01*
X115580955Y-88393538D01*
X115610137Y-88426221D01*
X115644091Y-88461265D01*
X115701585Y-88518742D01*
X115665891Y-88556554D01*
X115659158Y-88563709D01*
X115644467Y-88579412D01*
X115627086Y-88598076D01*
X115608175Y-88618453D01*
X115588893Y-88639294D01*
X115570400Y-88659350D01*
X115563487Y-88666851D01*
X115542482Y-88689524D01*
X115519817Y-88713847D01*
X115497030Y-88738176D01*
X115475664Y-88760863D01*
X115457258Y-88780263D01*
X115448271Y-88789661D01*
X115433865Y-88804610D01*
X115421390Y-88817413D01*
X115411511Y-88827395D01*
X115404894Y-88833880D01*
X115402204Y-88836192D01*
X115399537Y-88834950D01*
X115392692Y-88830886D01*
X115383454Y-88824975D01*
X115343513Y-88798860D01*
X115305179Y-88774251D01*
X115270793Y-88752767D01*
X115239604Y-88733990D01*
X115210862Y-88717504D01*
X115183816Y-88702889D01*
X115157717Y-88689729D01*
X115131812Y-88677606D01*
X115105352Y-88666102D01*
X115077587Y-88654800D01*
X115022502Y-88634462D01*
X114951484Y-88612764D01*
X114879303Y-88595974D01*
X114803787Y-88583524D01*
X114797340Y-88582734D01*
X114774352Y-88580700D01*
X114746602Y-88579128D01*
X114715510Y-88578026D01*
X114682497Y-88577403D01*
X114648984Y-88577268D01*
X114616390Y-88577632D01*
X114586137Y-88578502D01*
X114559645Y-88579889D01*
X114538334Y-88581802D01*
X114482212Y-88589513D01*
X114414124Y-88602067D01*
X114349716Y-88617916D01*
X114287589Y-88637460D01*
X114226345Y-88661102D01*
X114164588Y-88689243D01*
X114136047Y-88703466D01*
X114102451Y-88721178D01*
X114071119Y-88739027D01*
X114040244Y-88758094D01*
X114008019Y-88779463D01*
X113972636Y-88804216D01*
X113962237Y-88811502D01*
X113947593Y-88821295D01*
X113935105Y-88829094D01*
X113925844Y-88834240D01*
X113920881Y-88836074D01*
X113919209Y-88836013D01*
X113915820Y-88835508D01*
X113911865Y-88834079D01*
X113906537Y-88831227D01*
X113899027Y-88826454D01*
X113888529Y-88819262D01*
X113874236Y-88809153D01*
X113855338Y-88795627D01*
X113839676Y-88784522D01*
X113800877Y-88758350D01*
X113763012Y-88734987D01*
X113723610Y-88712954D01*
X113680203Y-88690772D01*
X113645262Y-88674310D01*
X113565468Y-88641989D01*
X113483834Y-88616075D01*
X113400462Y-88596588D01*
X113315455Y-88583551D01*
X113228916Y-88576985D01*
X113140950Y-88576913D01*
X113093990Y-88579362D01*
X113020687Y-88586619D01*
X112949933Y-88598211D01*
X112880194Y-88614462D01*
X112809936Y-88635696D01*
X112737626Y-88662240D01*
X112735641Y-88663033D01*
X112705532Y-88676199D01*
X112671495Y-88692912D01*
X112634674Y-88712525D01*
X112596214Y-88734387D01*
X112557261Y-88757849D01*
X112518958Y-88782261D01*
X112482451Y-88806975D01*
X112471439Y-88814392D01*
X112458452Y-88822323D01*
X112448235Y-88827599D01*
X112442053Y-88829514D01*
X112440239Y-88829044D01*
X112435944Y-88826415D01*
X112429556Y-88821238D01*
X112420811Y-88813244D01*
X112409445Y-88802166D01*
X112395195Y-88787735D01*
X112377796Y-88769682D01*
X112356985Y-88747739D01*
X112332498Y-88721637D01*
X112304071Y-88691108D01*
X112271441Y-88655884D01*
X112261709Y-88645428D01*
X112247415Y-88630213D01*
X112232142Y-88614072D01*
X112217886Y-88599121D01*
X112206232Y-88586954D01*
X112190646Y-88570666D01*
X112175539Y-88554863D01*
X112162983Y-88541713D01*
X112138480Y-88516025D01*
X112169310Y-88486619D01*
X112169773Y-88486176D01*
X112182772Y-88473405D01*
X112197955Y-88457950D01*
X112214168Y-88441041D01*
X112230255Y-88423909D01*
X112245061Y-88407782D01*
X112257430Y-88393892D01*
X112266206Y-88383468D01*
X112272024Y-88376059D01*
X112306136Y-88328134D01*
X112336927Y-88277062D01*
X112363844Y-88224022D01*
X112377323Y-88191759D01*
X112476483Y-88191759D01*
X112476483Y-88258540D01*
X112476483Y-88325320D01*
X112665684Y-88325320D01*
X112854885Y-88325320D01*
X112852670Y-88149472D01*
X112852391Y-88125953D01*
X112851941Y-88081538D01*
X112851531Y-88033170D01*
X112851172Y-87982569D01*
X112850874Y-87931453D01*
X112850648Y-87881540D01*
X112850504Y-87834548D01*
X112850454Y-87792196D01*
X112850454Y-87610877D01*
X112983874Y-87610877D01*
X112984780Y-87676768D01*
X112985685Y-87742660D01*
X113053300Y-87743564D01*
X113120915Y-87744467D01*
X113120915Y-88034894D01*
X113120915Y-88325320D01*
X113172670Y-88325320D01*
X113224425Y-88325320D01*
X113224425Y-88034825D01*
X113224425Y-87784686D01*
X113474853Y-87784686D01*
X113474853Y-87827470D01*
X113524482Y-87828472D01*
X113532317Y-87828617D01*
X113549423Y-87828833D01*
X113563824Y-87828879D01*
X113574195Y-87828756D01*
X113579213Y-87828465D01*
X113581078Y-87827465D01*
X113584323Y-87821067D01*
X113586684Y-87808490D01*
X113586759Y-87807901D01*
X113591247Y-87785820D01*
X113598274Y-87768852D01*
X113607582Y-87757623D01*
X113610822Y-87755400D01*
X113615459Y-87753455D01*
X113622020Y-87752179D01*
X113631695Y-87751437D01*
X113645670Y-87751092D01*
X113665134Y-87751007D01*
X113667238Y-87751008D01*
X113686008Y-87751095D01*
X113699481Y-87751443D01*
X113708918Y-87752213D01*
X113715580Y-87753562D01*
X113720727Y-87755650D01*
X113725621Y-87758636D01*
X113725951Y-87758858D01*
X113732063Y-87763502D01*
X113735491Y-87768388D01*
X113737154Y-87775661D01*
X113737972Y-87787467D01*
X113738109Y-87790832D01*
X113737771Y-87803784D01*
X113735259Y-87814558D01*
X113729822Y-87826766D01*
X113722035Y-87839297D01*
X113706619Y-87857471D01*
X113685947Y-87876915D01*
X113660611Y-87897084D01*
X113631203Y-87917434D01*
X113623594Y-87922389D01*
X113592669Y-87943144D01*
X113566919Y-87961701D01*
X113545692Y-87978709D01*
X113528335Y-87994816D01*
X113514196Y-88010671D01*
X113502624Y-88026922D01*
X113492964Y-88044218D01*
X113484566Y-88063207D01*
X113483247Y-88066587D01*
X113480643Y-88074192D01*
X113478820Y-88081896D01*
X113477642Y-88091013D01*
X113476972Y-88102859D01*
X113476674Y-88118751D01*
X113476612Y-88140004D01*
X113476688Y-88157954D01*
X113477054Y-88175983D01*
X113477847Y-88189996D01*
X113479201Y-88201484D01*
X113481252Y-88211937D01*
X113484136Y-88222843D01*
X113485409Y-88227152D01*
X113496750Y-88257425D01*
X113510770Y-88281853D01*
X113527795Y-88300813D01*
X113548151Y-88314677D01*
X113572164Y-88323820D01*
X113573151Y-88324065D01*
X113584437Y-88325788D01*
X113600906Y-88327108D01*
X113621243Y-88328027D01*
X113644132Y-88328548D01*
X113668256Y-88328673D01*
X113692300Y-88328405D01*
X113714948Y-88327747D01*
X113734882Y-88326701D01*
X113750789Y-88325269D01*
X113761350Y-88323455D01*
X113780805Y-88316825D01*
X113801783Y-88304989D01*
X113818679Y-88288840D01*
X113832165Y-88267701D01*
X113842910Y-88240890D01*
X113843654Y-88238482D01*
X113846555Y-88226403D01*
X113848692Y-88211742D01*
X113850226Y-88193135D01*
X113851318Y-88169221D01*
X113853057Y-88118301D01*
X113795846Y-88118301D01*
X113738636Y-88118301D01*
X113738617Y-88134161D01*
X113737963Y-88146750D01*
X113732947Y-88168203D01*
X113723005Y-88185191D01*
X113714309Y-88195526D01*
X113657720Y-88194477D01*
X113635645Y-88194005D01*
X113618031Y-88193139D01*
X113605447Y-88191356D01*
X113597048Y-88188108D01*
X113591987Y-88182845D01*
X113589419Y-88175020D01*
X113588499Y-88164083D01*
X113588380Y-88149486D01*
X113588406Y-88144523D01*
X113589210Y-88128881D01*
X113591801Y-88116842D01*
X113597065Y-88106499D01*
X113605888Y-88095945D01*
X113619155Y-88083275D01*
X113621408Y-88081242D01*
X113628475Y-88075128D01*
X113636267Y-88068865D01*
X113645488Y-88061966D01*
X113656839Y-88053940D01*
X113671024Y-88044299D01*
X113688744Y-88032553D01*
X113710702Y-88018214D01*
X113737600Y-88000792D01*
X113760745Y-87984414D01*
X113789140Y-87959555D01*
X113812727Y-87932830D01*
X113830884Y-87904969D01*
X113842992Y-87876702D01*
X113843264Y-87875833D01*
X113846016Y-87866241D01*
X113847953Y-87857058D01*
X113849200Y-87846868D01*
X113849880Y-87834253D01*
X113850117Y-87817798D01*
X113850034Y-87796084D01*
X113849746Y-87778257D01*
X113848458Y-87750534D01*
X113846019Y-87727683D01*
X113842238Y-87708578D01*
X113836925Y-87692090D01*
X113829888Y-87677092D01*
X113828231Y-87674146D01*
X113811659Y-87652095D01*
X113790382Y-87634592D01*
X113764796Y-87621899D01*
X113735297Y-87614280D01*
X113728401Y-87613392D01*
X113711347Y-87612098D01*
X113690371Y-87611282D01*
X113667235Y-87610941D01*
X113643704Y-87611077D01*
X113621541Y-87611687D01*
X113602512Y-87612772D01*
X113588380Y-87614330D01*
X113566282Y-87619419D01*
X113539658Y-87630750D01*
X113517478Y-87647056D01*
X113499780Y-87668303D01*
X113486598Y-87694454D01*
X113477968Y-87725473D01*
X113476777Y-87735023D01*
X113475777Y-87749466D01*
X113475101Y-87766679D01*
X113474853Y-87784686D01*
X113224425Y-87784686D01*
X113224425Y-87744329D01*
X113292876Y-87744329D01*
X113361326Y-87744329D01*
X113361326Y-87676714D01*
X113361327Y-87609098D01*
X113172601Y-87609988D01*
X112983874Y-87610877D01*
X112850454Y-87610877D01*
X112850454Y-87610768D01*
X112798699Y-87610768D01*
X112746944Y-87610768D01*
X112746944Y-87901264D01*
X112746944Y-88191759D01*
X112611713Y-88191759D01*
X112476483Y-88191759D01*
X112377323Y-88191759D01*
X112386334Y-88170192D01*
X112403842Y-88116751D01*
X112415817Y-88064876D01*
X112416721Y-88059680D01*
X112418868Y-88045686D01*
X112420391Y-88032055D01*
X112421365Y-88017380D01*
X112421864Y-88000254D01*
X112421961Y-87979269D01*
X112421733Y-87953019D01*
X112421497Y-87938367D01*
X112420401Y-87905347D01*
X112418357Y-87876206D01*
X112415084Y-87849275D01*
X112410299Y-87822886D01*
X112403719Y-87795369D01*
X112395063Y-87765056D01*
X112384047Y-87730278D01*
X112368803Y-87689340D01*
X112348350Y-87644513D01*
X112328984Y-87608524D01*
X113972368Y-87608524D01*
X113972542Y-87609098D01*
X113972719Y-87609685D01*
X113974971Y-87615846D01*
X113978848Y-87626014D01*
X113983810Y-87638763D01*
X113995252Y-87667909D01*
X113988715Y-87686910D01*
X113988305Y-87688113D01*
X113985811Y-87696247D01*
X113983654Y-87705090D01*
X113981815Y-87715139D01*
X113980274Y-87726893D01*
X113979010Y-87740848D01*
X113978005Y-87757502D01*
X113977238Y-87777352D01*
X113976688Y-87800895D01*
X113976337Y-87828629D01*
X113976164Y-87861051D01*
X113976150Y-87898658D01*
X113976273Y-87941948D01*
X113976516Y-87991417D01*
X113976588Y-88004094D01*
X113976852Y-88047033D01*
X113977122Y-88083937D01*
X113977414Y-88115315D01*
X113977451Y-88118301D01*
X113977742Y-88141674D01*
X113978120Y-88163520D01*
X113978563Y-88181362D01*
X113979084Y-88195706D01*
X113979699Y-88207059D01*
X113980422Y-88215930D01*
X113981267Y-88222826D01*
X113982249Y-88228253D01*
X113983383Y-88232718D01*
X113994114Y-88261347D01*
X114008249Y-88284704D01*
X114025956Y-88302799D01*
X114047496Y-88315973D01*
X114052883Y-88318298D01*
X114059219Y-88320410D01*
X114066583Y-88321944D01*
X114076106Y-88323024D01*
X114088918Y-88323770D01*
X114106147Y-88324303D01*
X114128925Y-88324747D01*
X114142796Y-88324964D01*
X114161751Y-88325149D01*
X114175310Y-88325052D01*
X114184282Y-88324625D01*
X114189472Y-88323816D01*
X114191691Y-88322575D01*
X114191744Y-88320854D01*
X114191266Y-88319587D01*
X114188667Y-88312603D01*
X114184415Y-88301119D01*
X114178973Y-88286390D01*
X114172808Y-88269672D01*
X114170864Y-88264405D01*
X114164290Y-88246688D01*
X114158186Y-88230376D01*
X114153162Y-88217091D01*
X114149825Y-88208454D01*
X114143864Y-88193429D01*
X114123733Y-88191759D01*
X114114631Y-88190595D01*
X114104201Y-88188172D01*
X114097867Y-88185324D01*
X114094455Y-88182339D01*
X114091312Y-88178850D01*
X114088778Y-88174542D01*
X114086790Y-88168765D01*
X114085282Y-88160867D01*
X114084190Y-88150197D01*
X114083449Y-88136105D01*
X114082996Y-88117939D01*
X114082764Y-88095047D01*
X114082691Y-88066780D01*
X114082710Y-88032486D01*
X114082865Y-87902933D01*
X114137300Y-88048181D01*
X114143468Y-88064645D01*
X114155800Y-88097606D01*
X114168124Y-88130599D01*
X114180051Y-88162575D01*
X114191190Y-88192488D01*
X114201152Y-88219290D01*
X114209546Y-88241935D01*
X114215982Y-88259375D01*
X114240227Y-88325320D01*
X114290169Y-88325320D01*
X114340111Y-88325320D01*
X114339573Y-88323586D01*
X114459866Y-88323586D01*
X114460302Y-88323837D01*
X114465582Y-88324386D01*
X114475914Y-88324709D01*
X114490108Y-88324781D01*
X114506974Y-88324577D01*
X114554083Y-88323651D01*
X114568225Y-88283583D01*
X114570421Y-88277360D01*
X114576556Y-88259971D01*
X114584123Y-88238517D01*
X114592582Y-88214525D01*
X114601396Y-88189526D01*
X114610024Y-88165047D01*
X114616031Y-88148097D01*
X114623255Y-88127972D01*
X114629587Y-88110620D01*
X114634701Y-88096924D01*
X114638270Y-88087769D01*
X114639969Y-88084036D01*
X114640325Y-88084020D01*
X114642776Y-88087698D01*
X114646800Y-88096311D01*
X114651930Y-88108800D01*
X114657695Y-88124104D01*
X114657937Y-88124771D01*
X114664142Y-88141775D01*
X114671994Y-88163131D01*
X114680825Y-88187024D01*
X114689962Y-88211640D01*
X114698737Y-88235167D01*
X114701417Y-88242339D01*
X114708998Y-88262708D01*
X114715839Y-88281199D01*
X114721536Y-88296718D01*
X114725689Y-88308172D01*
X114727894Y-88314469D01*
X114731448Y-88325320D01*
X114782583Y-88325320D01*
X114833718Y-88325320D01*
X114822378Y-88294434D01*
X114819844Y-88287597D01*
X114814714Y-88273890D01*
X114807743Y-88255349D01*
X114799231Y-88232766D01*
X114789476Y-88206930D01*
X114778778Y-88178633D01*
X114767436Y-88148665D01*
X114755748Y-88117816D01*
X114744015Y-88086879D01*
X114732534Y-88056642D01*
X114721606Y-88027897D01*
X114711529Y-88001434D01*
X114705204Y-87984754D01*
X114699265Y-87968663D01*
X114695273Y-87956944D01*
X114692953Y-87948571D01*
X114692029Y-87942519D01*
X114692229Y-87937762D01*
X114693276Y-87933276D01*
X114693312Y-87933154D01*
X114695074Y-87927670D01*
X114698742Y-87916557D01*
X114704095Y-87900476D01*
X114710911Y-87880090D01*
X114718969Y-87856059D01*
X114728047Y-87829045D01*
X114737923Y-87799711D01*
X114748377Y-87768717D01*
X114749379Y-87765748D01*
X114759664Y-87735196D01*
X114769247Y-87706595D01*
X114777922Y-87680570D01*
X114785481Y-87657746D01*
X114791720Y-87638747D01*
X114796431Y-87624197D01*
X114799409Y-87614723D01*
X114799507Y-87614365D01*
X114907296Y-87614365D01*
X114907333Y-87614583D01*
X114909128Y-87619270D01*
X114913400Y-87629211D01*
X114919841Y-87643722D01*
X114928143Y-87662121D01*
X114937998Y-87683725D01*
X114949099Y-87707850D01*
X114961138Y-87733814D01*
X114971798Y-87756726D01*
X114985383Y-87785934D01*
X114998779Y-87814751D01*
X115011462Y-87842045D01*
X115022905Y-87866683D01*
X115032581Y-87887531D01*
X115039965Y-87903459D01*
X115064951Y-87957409D01*
X115004111Y-88097123D01*
X114996291Y-88115077D01*
X114983076Y-88145402D01*
X114970254Y-88174808D01*
X114958203Y-88202428D01*
X114947302Y-88227393D01*
X114937929Y-88248838D01*
X114930464Y-88265894D01*
X114925284Y-88277694D01*
X114923786Y-88281109D01*
X114917329Y-88296123D01*
X114912091Y-88308775D01*
X114908579Y-88317819D01*
X114907296Y-88322013D01*
X114907480Y-88322381D01*
X114912355Y-88323653D01*
X114923817Y-88324442D01*
X114941809Y-88324746D01*
X114966271Y-88324563D01*
X115025245Y-88323651D01*
X115050581Y-88270068D01*
X115056439Y-88257658D01*
X115066604Y-88236060D01*
X115078334Y-88211082D01*
X115090896Y-88184286D01*
X115103557Y-88157237D01*
X115115583Y-88131498D01*
X115116945Y-88128582D01*
X115127266Y-88106600D01*
X115136724Y-88086655D01*
X115144931Y-88069552D01*
X115151497Y-88056095D01*
X115156035Y-88047089D01*
X115158156Y-88043339D01*
X115158455Y-88043695D01*
X115159073Y-88049064D01*
X115159630Y-88060250D01*
X115160113Y-88076661D01*
X115160510Y-88097708D01*
X115160809Y-88122797D01*
X115160997Y-88151340D01*
X115161063Y-88182744D01*
X115161063Y-88325320D01*
X115219511Y-88325320D01*
X115277959Y-88325320D01*
X115277109Y-87968879D01*
X115276259Y-87612438D01*
X115218700Y-87611524D01*
X115161140Y-87610611D01*
X115160267Y-87741263D01*
X115159393Y-87871915D01*
X115120994Y-87799198D01*
X115118035Y-87793594D01*
X115104693Y-87768320D01*
X115090474Y-87741376D01*
X115076377Y-87714655D01*
X115063400Y-87690052D01*
X115052544Y-87669459D01*
X115022493Y-87612438D01*
X114964895Y-87611524D01*
X114948570Y-87611335D01*
X114929838Y-87611410D01*
X114917015Y-87611925D01*
X114909651Y-87612903D01*
X114907296Y-87614365D01*
X114799507Y-87614365D01*
X114800447Y-87610948D01*
X114798323Y-87609639D01*
X114789838Y-87608422D01*
X114775074Y-87607680D01*
X114754245Y-87607429D01*
X114708042Y-87607429D01*
X114673706Y-87696748D01*
X114672040Y-87701080D01*
X114663215Y-87723953D01*
X114655140Y-87744763D01*
X114648144Y-87762673D01*
X114642553Y-87776851D01*
X114638695Y-87786461D01*
X114636896Y-87790668D01*
X114636772Y-87790891D01*
X114635948Y-87791874D01*
X114634906Y-87791658D01*
X114633414Y-87789680D01*
X114631240Y-87785377D01*
X114628151Y-87778187D01*
X114623914Y-87767546D01*
X114618296Y-87752892D01*
X114611065Y-87733661D01*
X114601989Y-87709291D01*
X114590834Y-87679218D01*
X114564846Y-87609098D01*
X114513634Y-87608175D01*
X114506189Y-87608044D01*
X114488806Y-87607823D01*
X114476852Y-87607906D01*
X114469401Y-87608389D01*
X114465527Y-87609366D01*
X114464303Y-87610932D01*
X114464803Y-87613183D01*
X114464886Y-87613392D01*
X114466792Y-87618385D01*
X114470778Y-87628921D01*
X114476609Y-87644375D01*
X114484050Y-87664121D01*
X114492863Y-87687530D01*
X114502813Y-87713978D01*
X114513665Y-87742838D01*
X114525181Y-87773483D01*
X114583178Y-87927851D01*
X114582981Y-87928472D01*
X114570207Y-87968817D01*
X114565008Y-87985273D01*
X114559308Y-88003388D01*
X114554255Y-88019523D01*
X114550535Y-88031486D01*
X114550399Y-88031928D01*
X114547501Y-88041252D01*
X114542959Y-88055805D01*
X114537105Y-88074522D01*
X114530273Y-88096340D01*
X114522796Y-88120191D01*
X114515008Y-88145013D01*
X114502392Y-88185223D01*
X114491538Y-88219886D01*
X114482483Y-88248884D01*
X114475120Y-88272567D01*
X114469339Y-88291287D01*
X114465032Y-88305397D01*
X114462090Y-88315249D01*
X114460404Y-88321195D01*
X114459866Y-88323586D01*
X114339573Y-88323586D01*
X114337779Y-88317808D01*
X114336965Y-88315317D01*
X114333691Y-88306102D01*
X114329671Y-88295453D01*
X114326605Y-88287008D01*
X114325688Y-88280636D01*
X114327398Y-88274123D01*
X114331952Y-88264572D01*
X114334543Y-88259308D01*
X114337447Y-88252863D01*
X114339951Y-88246212D01*
X114342084Y-88238857D01*
X114343876Y-88230299D01*
X114345358Y-88220042D01*
X114346559Y-88207588D01*
X114347509Y-88192437D01*
X114348237Y-88174094D01*
X114348773Y-88152060D01*
X114349147Y-88125836D01*
X114349389Y-88094926D01*
X114349529Y-88058832D01*
X114349596Y-88017055D01*
X114349620Y-87969097D01*
X114349622Y-87928472D01*
X114349584Y-87885557D01*
X114349473Y-87848407D01*
X114349259Y-87816523D01*
X114348910Y-87789408D01*
X114348398Y-87766562D01*
X114347691Y-87747489D01*
X114346758Y-87731691D01*
X114345570Y-87718669D01*
X114344095Y-87707926D01*
X114342303Y-87698963D01*
X114340164Y-87691283D01*
X114337648Y-87684387D01*
X114334722Y-87677779D01*
X114331359Y-87670959D01*
X114318738Y-87650416D01*
X114303011Y-87634062D01*
X114283504Y-87621754D01*
X114277301Y-87618786D01*
X114271516Y-87616447D01*
X114265335Y-87614733D01*
X114257710Y-87613523D01*
X114247596Y-87612701D01*
X114233944Y-87612147D01*
X114215709Y-87611742D01*
X114191843Y-87611369D01*
X114119152Y-87610300D01*
X114124179Y-87623055D01*
X114125853Y-87627394D01*
X114129945Y-87638235D01*
X114135487Y-87653067D01*
X114141967Y-87670522D01*
X114148876Y-87689235D01*
X114168546Y-87742660D01*
X114194836Y-87744518D01*
X114196590Y-87744639D01*
X114207306Y-87745316D01*
X114216292Y-87746152D01*
X114223704Y-87747689D01*
X114229696Y-87750471D01*
X114234425Y-87755041D01*
X114238047Y-87761943D01*
X114240717Y-87771718D01*
X114242590Y-87784912D01*
X114243824Y-87802066D01*
X114244572Y-87823724D01*
X114244992Y-87850429D01*
X114245238Y-87882724D01*
X114245467Y-87921153D01*
X114245600Y-87944540D01*
X114245709Y-87973622D01*
X114245743Y-87999994D01*
X114245705Y-88022993D01*
X114245598Y-88041959D01*
X114245424Y-88056231D01*
X114245186Y-88065147D01*
X114244887Y-88068047D01*
X114244242Y-88066809D01*
X114242760Y-88063306D01*
X114240338Y-88057243D01*
X114236861Y-88048311D01*
X114232211Y-88036203D01*
X114226273Y-88020610D01*
X114218930Y-88001225D01*
X114210066Y-87977740D01*
X114199564Y-87949847D01*
X114187308Y-87917237D01*
X114173182Y-87879603D01*
X114157068Y-87836638D01*
X114138851Y-87788032D01*
X114118414Y-87733477D01*
X114071202Y-87607429D01*
X114021785Y-87607429D01*
X114013397Y-87607445D01*
X113997190Y-87607575D01*
X113984175Y-87607816D01*
X113975513Y-87608140D01*
X113972368Y-87608524D01*
X112328984Y-87608524D01*
X112324614Y-87600404D01*
X112298667Y-87558998D01*
X112271584Y-87522284D01*
X112263884Y-87512931D01*
X112247993Y-87494387D01*
X112230953Y-87475318D01*
X112213543Y-87456528D01*
X112196542Y-87438822D01*
X112180729Y-87423004D01*
X112166883Y-87409879D01*
X112155784Y-87400251D01*
X112148210Y-87394923D01*
X112147747Y-87394676D01*
X112141748Y-87390404D01*
X112139862Y-87386899D01*
X112140486Y-87386109D01*
X112145039Y-87381229D01*
X112153592Y-87372373D01*
X112165659Y-87360027D01*
X112180760Y-87344676D01*
X112198410Y-87326803D01*
X112218126Y-87306893D01*
X112239425Y-87285432D01*
X112261825Y-87262903D01*
X112284842Y-87239791D01*
X112307992Y-87216580D01*
X112330794Y-87193755D01*
X112352763Y-87171801D01*
X112373416Y-87151202D01*
X112392272Y-87132443D01*
X112408845Y-87116008D01*
X112422654Y-87102382D01*
X112433215Y-87092049D01*
X112440045Y-87085494D01*
X112442661Y-87083201D01*
X112444253Y-87084055D01*
X112449851Y-87088098D01*
X112457774Y-87094342D01*
X112461905Y-87097598D01*
X112474661Y-87107057D01*
X112491231Y-87118812D01*
X112510339Y-87131999D01*
X112530713Y-87145752D01*
X112551075Y-87159208D01*
X112570153Y-87171502D01*
X112586671Y-87181768D01*
X112629571Y-87206500D01*
X112702328Y-87243235D01*
X112777036Y-87274777D01*
X112852815Y-87300803D01*
X112928780Y-87320988D01*
X113004049Y-87335008D01*
X113012959Y-87336256D01*
X113078150Y-87342897D01*
X113145758Y-87345748D01*
X113213176Y-87344762D01*
X113277799Y-87339893D01*
X113283996Y-87339224D01*
X113299966Y-87337576D01*
X113314319Y-87336189D01*
X113324546Y-87335312D01*
X113350710Y-87332493D01*
X113382053Y-87327557D01*
X113416065Y-87320909D01*
X113450939Y-87312902D01*
X113484870Y-87303892D01*
X113491499Y-87301978D01*
X113573870Y-87274903D01*
X113652770Y-87242620D01*
X113728933Y-87204767D01*
X113803093Y-87160982D01*
X113875984Y-87110903D01*
X113884687Y-87104529D01*
X113898220Y-87094751D01*
X113909275Y-87086930D01*
X113916891Y-87081742D01*
X113920109Y-87079862D01*
X113920549Y-87080026D01*
X113925181Y-87082900D01*
X113933853Y-87088803D01*
X113945527Y-87097020D01*
X113959165Y-87106833D01*
X114002950Y-87137425D01*
X114080511Y-87185816D01*
X114159523Y-87227901D01*
X114239832Y-87263636D01*
X114321285Y-87292973D01*
X114403729Y-87315867D01*
X114487010Y-87332271D01*
X114570976Y-87342139D01*
X114655472Y-87345426D01*
X114740345Y-87342084D01*
X114742030Y-87341951D01*
X114762465Y-87340351D01*
X114780843Y-87338918D01*
X114796014Y-87337741D01*
X114806828Y-87336909D01*
X114812134Y-87336511D01*
X114819826Y-87335614D01*
X114833401Y-87333481D01*
X114850651Y-87330446D01*
X114870061Y-87326801D01*
X114890117Y-87322840D01*
X114909305Y-87318855D01*
X114926110Y-87315139D01*
X114939017Y-87311984D01*
X114957090Y-87307027D01*
X115038593Y-87280813D01*
X115120415Y-87248277D01*
X115202049Y-87209652D01*
X115282987Y-87165176D01*
X115362722Y-87115084D01*
X115375669Y-87106637D01*
X115386793Y-87099784D01*
X115394776Y-87095318D01*
X115398437Y-87093936D01*
X115398713Y-87094118D01*
X115402632Y-87097655D01*
X115410629Y-87105301D01*
X115422214Y-87116568D01*
X115436895Y-87130967D01*
X115454183Y-87148008D01*
X115473587Y-87167201D01*
X115494617Y-87188059D01*
X115516783Y-87210091D01*
X115539594Y-87232809D01*
X115562559Y-87255724D01*
X115585190Y-87278345D01*
X115606994Y-87300185D01*
X115627482Y-87320753D01*
X115646163Y-87339561D01*
X115662547Y-87356120D01*
X115676144Y-87369940D01*
X115686464Y-87380533D01*
X115693015Y-87387409D01*
X115695307Y-87390078D01*
X115695307Y-87390095D01*
X115692862Y-87393109D01*
X115686358Y-87399538D01*
X115676774Y-87408446D01*
X115665088Y-87418902D01*
X115616246Y-87466075D01*
X115572101Y-87517683D01*
X115533500Y-87572831D01*
X115500550Y-87631282D01*
X115473356Y-87692797D01*
X115452023Y-87757135D01*
X115436657Y-87824059D01*
X115427363Y-87893328D01*
X115424247Y-87964705D01*
X115425253Y-88003576D01*
X115431716Y-88068314D01*
X115444242Y-88130597D01*
X115462920Y-88190825D01*
X115487841Y-88249399D01*
X115494348Y-88262554D01*
X115513242Y-88297726D01*
X115530212Y-88325320D01*
X115533388Y-88330484D01*
G37*
G36*
X115901658Y-88518772D02*
G01*
X115889873Y-88532110D01*
X115875744Y-88547633D01*
X115859857Y-88564667D01*
X115834679Y-88591341D01*
X115799789Y-88628254D01*
X115764155Y-88665905D01*
X115728441Y-88703593D01*
X115693311Y-88740617D01*
X115659432Y-88776279D01*
X115627467Y-88809877D01*
X115598083Y-88840711D01*
X115571943Y-88868081D01*
X115549713Y-88891286D01*
X115535781Y-88905804D01*
X115516127Y-88926300D01*
X115496691Y-88946585D01*
X115478574Y-88965509D01*
X115462878Y-88981920D01*
X115450707Y-88994667D01*
X115415810Y-89031267D01*
X115406403Y-89025103D01*
X115405492Y-89024482D01*
X115398918Y-89019639D01*
X115388307Y-89011534D01*
X115374597Y-89000892D01*
X115358728Y-88988441D01*
X115341636Y-88974909D01*
X115323606Y-88960659D01*
X115288780Y-88933788D01*
X115257147Y-88910451D01*
X115227598Y-88889917D01*
X115199024Y-88871456D01*
X115170316Y-88854338D01*
X115140364Y-88837833D01*
X115108060Y-88821212D01*
X115041068Y-88790588D01*
X114969834Y-88764340D01*
X114897459Y-88744204D01*
X114823279Y-88730027D01*
X114746633Y-88721655D01*
X114666860Y-88718936D01*
X114601336Y-88720825D01*
X114520253Y-88728622D01*
X114441634Y-88742535D01*
X114365215Y-88762649D01*
X114290733Y-88789047D01*
X114217926Y-88821813D01*
X114146528Y-88861031D01*
X114076278Y-88906785D01*
X114062862Y-88916415D01*
X114043021Y-88931271D01*
X114022859Y-88946989D01*
X114003086Y-88962960D01*
X113984411Y-88978578D01*
X113967541Y-88993236D01*
X113953186Y-89006326D01*
X113942055Y-89017242D01*
X113934857Y-89025375D01*
X113932300Y-89030119D01*
X113931869Y-89032158D01*
X113929035Y-89032968D01*
X113923172Y-89030282D01*
X113913837Y-89023812D01*
X113900585Y-89013274D01*
X113882973Y-88998383D01*
X113836246Y-88959574D01*
X113770692Y-88910075D01*
X113705456Y-88866791D01*
X113640071Y-88829504D01*
X113574068Y-88797999D01*
X113506981Y-88772059D01*
X113438343Y-88751467D01*
X113367687Y-88736006D01*
X113294545Y-88725460D01*
X113278001Y-88723972D01*
X113249223Y-88722381D01*
X113216741Y-88721495D01*
X113182278Y-88721301D01*
X113147562Y-88721787D01*
X113114317Y-88722939D01*
X113084269Y-88724746D01*
X113059143Y-88727194D01*
X113033879Y-88730674D01*
X112960834Y-88744462D01*
X112889213Y-88763705D01*
X112818666Y-88788567D01*
X112748843Y-88819209D01*
X112679395Y-88855797D01*
X112609972Y-88898494D01*
X112540225Y-88947462D01*
X112469805Y-89002867D01*
X112463710Y-89007911D01*
X112452616Y-89017085D01*
X112443627Y-89024508D01*
X112438263Y-89028926D01*
X112435786Y-89030561D01*
X112433011Y-89030848D01*
X112429279Y-89029156D01*
X112423862Y-89024913D01*
X112416032Y-89017547D01*
X112405059Y-89006484D01*
X112390216Y-88991151D01*
X112384142Y-88984852D01*
X112365292Y-88965324D01*
X112344673Y-88943988D01*
X112324394Y-88923025D01*
X112306562Y-88904615D01*
X112297143Y-88894887D01*
X112281713Y-88878920D01*
X112263220Y-88859763D01*
X112242541Y-88838322D01*
X112220552Y-88815506D01*
X112198129Y-88792224D01*
X112176148Y-88769384D01*
X112165102Y-88757902D01*
X112139833Y-88731642D01*
X112112912Y-88703672D01*
X112085596Y-88675297D01*
X112059141Y-88647822D01*
X112034803Y-88622552D01*
X112013838Y-88600790D01*
X112004961Y-88591569D01*
X111986921Y-88572770D01*
X111970326Y-88555401D01*
X111955817Y-88540136D01*
X111944032Y-88527649D01*
X111935612Y-88518613D01*
X111931196Y-88513704D01*
X111926769Y-88508431D01*
X111987315Y-88508431D01*
X112032340Y-88554611D01*
X112045476Y-88568091D01*
X112061392Y-88584443D01*
X112076325Y-88599802D01*
X112089048Y-88612906D01*
X112098333Y-88622494D01*
X112099523Y-88623725D01*
X112110462Y-88635008D01*
X112124212Y-88649147D01*
X112139134Y-88664458D01*
X112153589Y-88679258D01*
X112156272Y-88682006D01*
X112168545Y-88694656D01*
X112184234Y-88710916D01*
X112202415Y-88729822D01*
X112222162Y-88750411D01*
X112242550Y-88771720D01*
X112262652Y-88792785D01*
X112269119Y-88799569D01*
X112288978Y-88820382D01*
X112308534Y-88840850D01*
X112326927Y-88860075D01*
X112343298Y-88877158D01*
X112356786Y-88891200D01*
X112366530Y-88901303D01*
X112376920Y-88912051D01*
X112391576Y-88927265D01*
X112405551Y-88941822D01*
X112416858Y-88953655D01*
X112438084Y-88975956D01*
X112451440Y-88964211D01*
X112463679Y-88953991D01*
X112480610Y-88940690D01*
X112500643Y-88925526D01*
X112522522Y-88909423D01*
X112544990Y-88893305D01*
X112566792Y-88878097D01*
X112586671Y-88864723D01*
X112636858Y-88833388D01*
X112710600Y-88793017D01*
X112785373Y-88758621D01*
X112860815Y-88730332D01*
X112936563Y-88708281D01*
X113012254Y-88692600D01*
X113087525Y-88683419D01*
X113100956Y-88682582D01*
X113123881Y-88681746D01*
X113150402Y-88681282D01*
X113179052Y-88681174D01*
X113208364Y-88681408D01*
X113236871Y-88681971D01*
X113263106Y-88682849D01*
X113285602Y-88684027D01*
X113302893Y-88685491D01*
X113337982Y-88690110D01*
X113416768Y-88705305D01*
X113494936Y-88727069D01*
X113572253Y-88755332D01*
X113648482Y-88790023D01*
X113679447Y-88806018D01*
X113726273Y-88832345D01*
X113771215Y-88860518D01*
X113815660Y-88891471D01*
X113860994Y-88926140D01*
X113908603Y-88965459D01*
X113909304Y-88966050D01*
X113915802Y-88970912D01*
X113919919Y-88972972D01*
X113921310Y-88972310D01*
X113927254Y-88968237D01*
X113936871Y-88961068D01*
X113949211Y-88951516D01*
X113963326Y-88940297D01*
X114008344Y-88905240D01*
X114070493Y-88860909D01*
X114131773Y-88822149D01*
X114192940Y-88788522D01*
X114254750Y-88759590D01*
X114317958Y-88734916D01*
X114370930Y-88717735D01*
X114448730Y-88698094D01*
X114527546Y-88684823D01*
X114607744Y-88677881D01*
X114689686Y-88677226D01*
X114773735Y-88682816D01*
X114798796Y-88685669D01*
X114878591Y-88698823D01*
X114956604Y-88718039D01*
X115033023Y-88743405D01*
X115108038Y-88775005D01*
X115181838Y-88812925D01*
X115254611Y-88857250D01*
X115326546Y-88908066D01*
X115397833Y-88965459D01*
X115402963Y-88969646D01*
X115408585Y-88972340D01*
X115413710Y-88970399D01*
X115420785Y-88963627D01*
X115424446Y-88959800D01*
X115432474Y-88951399D01*
X115443772Y-88939572D01*
X115457606Y-88925086D01*
X115473245Y-88908707D01*
X115489957Y-88891203D01*
X115498469Y-88882290D01*
X115518474Y-88861365D01*
X115539155Y-88839758D01*
X115559193Y-88818849D01*
X115577265Y-88800015D01*
X115592050Y-88784637D01*
X115603551Y-88772646D01*
X115619261Y-88756188D01*
X115637922Y-88736581D01*
X115658702Y-88714703D01*
X115680767Y-88691429D01*
X115703287Y-88667635D01*
X115725430Y-88644198D01*
X115729319Y-88640077D01*
X115750011Y-88618156D01*
X115769799Y-88597200D01*
X115788067Y-88577858D01*
X115804203Y-88560778D01*
X115817596Y-88546610D01*
X115827630Y-88536001D01*
X115833695Y-88529602D01*
X115834673Y-88528570D01*
X115842872Y-88519681D01*
X115848915Y-88512724D01*
X115851553Y-88509129D01*
X115850813Y-88507275D01*
X115846043Y-88502320D01*
X115838197Y-88496065D01*
X115832956Y-88492240D01*
X115808783Y-88473755D01*
X115783017Y-88452886D01*
X115757079Y-88430860D01*
X115732392Y-88408906D01*
X115710379Y-88388256D01*
X115692462Y-88370136D01*
X115653644Y-88324652D01*
X115617440Y-88272612D01*
X115587206Y-88217585D01*
X115562950Y-88159594D01*
X115544681Y-88098659D01*
X115532408Y-88034802D01*
X115526139Y-87968044D01*
X115525578Y-87948884D01*
X115528222Y-87890238D01*
X115537313Y-87831976D01*
X115552678Y-87774508D01*
X115574144Y-87718244D01*
X115601538Y-87663596D01*
X115634687Y-87610974D01*
X115673418Y-87560789D01*
X115717559Y-87513451D01*
X115722870Y-87508323D01*
X115735464Y-87496491D01*
X115750348Y-87482820D01*
X115766622Y-87468104D01*
X115783386Y-87453141D01*
X115799740Y-87438725D01*
X115814784Y-87425653D01*
X115827619Y-87414721D01*
X115837344Y-87406725D01*
X115843060Y-87402459D01*
X115846390Y-87399769D01*
X115848895Y-87395432D01*
X115848662Y-87394941D01*
X115844926Y-87390454D01*
X115836947Y-87381831D01*
X115825132Y-87369475D01*
X115809887Y-87353789D01*
X115791619Y-87335177D01*
X115770734Y-87314042D01*
X115747640Y-87290788D01*
X115722743Y-87265818D01*
X115696450Y-87239535D01*
X115669168Y-87212344D01*
X115641303Y-87184646D01*
X115613262Y-87156847D01*
X115585453Y-87129348D01*
X115558280Y-87102554D01*
X115532153Y-87076868D01*
X115507476Y-87052693D01*
X115484657Y-87030433D01*
X115464103Y-87010492D01*
X115446220Y-86993271D01*
X115431415Y-86979176D01*
X115420096Y-86968609D01*
X115412667Y-86961975D01*
X115409537Y-86959675D01*
X115408822Y-86959694D01*
X115403648Y-86960792D01*
X115397061Y-86964001D01*
X115388168Y-86969904D01*
X115376076Y-86979085D01*
X115359893Y-86992128D01*
X115349289Y-87000668D01*
X115299674Y-87037490D01*
X115245468Y-87073176D01*
X115188364Y-87106718D01*
X115130058Y-87137108D01*
X115072245Y-87163336D01*
X115061832Y-87167688D01*
X115048598Y-87173225D01*
X115038284Y-87177549D01*
X115032510Y-87179980D01*
X115028086Y-87181703D01*
X115019154Y-87184583D01*
X115018447Y-87184778D01*
X115011276Y-87187001D01*
X115000245Y-87190623D01*
X114987433Y-87194965D01*
X114969536Y-87200782D01*
X114934916Y-87210637D01*
X114897080Y-87219935D01*
X114858209Y-87228157D01*
X114820482Y-87234782D01*
X114809483Y-87236514D01*
X114798778Y-87238237D01*
X114787189Y-87239759D01*
X114769686Y-87241459D01*
X114748791Y-87243093D01*
X114726216Y-87244549D01*
X114703678Y-87245719D01*
X114682890Y-87246493D01*
X114665567Y-87246761D01*
X114599702Y-87244443D01*
X114519097Y-87235602D01*
X114438677Y-87220217D01*
X114358696Y-87198361D01*
X114279408Y-87170103D01*
X114201065Y-87135516D01*
X114123921Y-87094670D01*
X114096268Y-87078255D01*
X114054958Y-87051860D01*
X114015386Y-87024394D01*
X113979078Y-86996933D01*
X113947563Y-86970553D01*
X113944105Y-86967525D01*
X113935212Y-86960674D01*
X113928668Y-86957756D01*
X113922880Y-86957958D01*
X113922128Y-86958207D01*
X113915650Y-86961760D01*
X113905517Y-86968545D01*
X113892967Y-86977699D01*
X113879235Y-86988362D01*
X113878771Y-86988733D01*
X113861737Y-87001914D01*
X113841628Y-87016833D01*
X113820918Y-87031685D01*
X113802078Y-87044667D01*
X113799484Y-87046401D01*
X113729258Y-87090256D01*
X113658930Y-87128038D01*
X113587656Y-87160055D01*
X113514590Y-87186616D01*
X113438885Y-87208030D01*
X113359697Y-87224605D01*
X113276180Y-87236650D01*
X113274259Y-87236857D01*
X113258004Y-87237973D01*
X113236597Y-87238658D01*
X113211352Y-87238939D01*
X113183582Y-87238844D01*
X113154598Y-87238397D01*
X113125715Y-87237626D01*
X113098244Y-87236557D01*
X113073500Y-87235217D01*
X113052794Y-87233633D01*
X113037440Y-87231830D01*
X113003644Y-87226069D01*
X112918825Y-87207067D01*
X112836024Y-87181978D01*
X112755645Y-87150985D01*
X112678094Y-87114274D01*
X112603777Y-87072030D01*
X112533099Y-87024437D01*
X112466466Y-86971679D01*
X112462731Y-86968539D01*
X112452605Y-86960647D01*
X112444448Y-86955161D01*
X112439753Y-86953116D01*
X112439356Y-86953158D01*
X112438021Y-86953676D01*
X112435978Y-86954978D01*
X112432972Y-86957307D01*
X112428752Y-86960909D01*
X112423065Y-86966027D01*
X112415657Y-86972905D01*
X112406275Y-86981788D01*
X112394668Y-86992920D01*
X112380583Y-87006544D01*
X112363766Y-87022906D01*
X112343964Y-87042249D01*
X112320926Y-87064817D01*
X112294398Y-87090855D01*
X112264127Y-87120606D01*
X112229861Y-87154315D01*
X112191346Y-87192226D01*
X112148331Y-87234583D01*
X112133974Y-87248725D01*
X112104502Y-87277779D01*
X112079335Y-87302648D01*
X112058152Y-87323671D01*
X112040632Y-87341189D01*
X112026454Y-87355543D01*
X112015295Y-87367073D01*
X112006834Y-87376120D01*
X112000750Y-87383024D01*
X111996722Y-87388126D01*
X111994428Y-87391767D01*
X111993547Y-87394287D01*
X111993756Y-87396026D01*
X111994736Y-87397326D01*
X111999118Y-87401062D01*
X112007824Y-87408029D01*
X112019353Y-87417014D01*
X112032392Y-87426982D01*
X112079381Y-87464641D01*
X112128442Y-87509570D01*
X112171313Y-87555712D01*
X112208244Y-87603392D01*
X112239483Y-87652936D01*
X112265280Y-87704670D01*
X112285882Y-87758919D01*
X112294121Y-87785665D01*
X112305838Y-87832088D01*
X112313471Y-87877054D01*
X112317349Y-87922755D01*
X112317803Y-87971383D01*
X112314852Y-88022783D01*
X112307470Y-88074852D01*
X112295370Y-88124500D01*
X112278172Y-88173254D01*
X112255498Y-88222641D01*
X112249114Y-88234938D01*
X112232834Y-88263889D01*
X112215554Y-88290916D01*
X112196603Y-88316792D01*
X112175312Y-88342292D01*
X112151009Y-88368188D01*
X112123026Y-88395256D01*
X112090690Y-88424268D01*
X112053333Y-88455998D01*
X112052983Y-88456289D01*
X112037003Y-88469515D01*
X112022307Y-88481562D01*
X112009852Y-88491652D01*
X112000600Y-88499009D01*
X111995508Y-88502856D01*
X111987315Y-88508431D01*
X111926769Y-88508431D01*
X111922557Y-88503415D01*
X111991665Y-88447966D01*
X111994313Y-88445842D01*
X112023272Y-88422534D01*
X112047649Y-88402737D01*
X112068065Y-88385891D01*
X112085143Y-88371437D01*
X112099507Y-88358815D01*
X112111779Y-88347466D01*
X112122583Y-88336832D01*
X112132540Y-88326351D01*
X112142274Y-88315466D01*
X112152409Y-88303617D01*
X112181124Y-88266276D01*
X112211936Y-88216455D01*
X112236952Y-88163319D01*
X112256169Y-88106874D01*
X112269586Y-88047123D01*
X112269728Y-88046273D01*
X112271884Y-88028377D01*
X112273424Y-88005765D01*
X112274330Y-87980264D01*
X112274583Y-87953704D01*
X112274165Y-87927914D01*
X112273057Y-87904722D01*
X112271239Y-87885958D01*
X112268295Y-87866513D01*
X112254866Y-87804787D01*
X112235670Y-87746405D01*
X112210680Y-87691309D01*
X112179871Y-87639439D01*
X112143216Y-87590734D01*
X112130232Y-87575608D01*
X112112922Y-87556589D01*
X112094786Y-87538102D01*
X112075037Y-87519438D01*
X112052890Y-87499885D01*
X112027560Y-87478733D01*
X111998262Y-87455272D01*
X111964210Y-87428791D01*
X111957760Y-87423821D01*
X111946189Y-87414868D01*
X111936748Y-87407516D01*
X111931022Y-87402997D01*
X111929699Y-87401789D01*
X111928948Y-87400354D01*
X111929102Y-87398358D01*
X111930482Y-87395456D01*
X111933408Y-87391306D01*
X111938203Y-87385564D01*
X111945186Y-87377885D01*
X111954680Y-87367927D01*
X111967006Y-87355345D01*
X111982484Y-87339796D01*
X112001436Y-87320936D01*
X112024182Y-87298421D01*
X112051045Y-87271909D01*
X112082345Y-87241054D01*
X112106609Y-87217133D01*
X112138554Y-87185622D01*
X112171320Y-87153284D01*
X112204109Y-87120905D01*
X112236124Y-87089274D01*
X112266569Y-87059178D01*
X112294647Y-87031404D01*
X112319559Y-87006741D01*
X112340510Y-86985975D01*
X112440204Y-86887079D01*
X112447492Y-86896984D01*
X112448943Y-86898763D01*
X112456419Y-86906350D01*
X112468309Y-86917202D01*
X112483942Y-86930746D01*
X112502649Y-86946408D01*
X112523759Y-86963616D01*
X112546602Y-86981795D01*
X112557541Y-86990147D01*
X112585469Y-87009882D01*
X112617369Y-87030671D01*
X112651687Y-87051584D01*
X112686871Y-87071691D01*
X112721367Y-87090063D01*
X112753622Y-87105768D01*
X112754277Y-87106068D01*
X112808961Y-87129049D01*
X112866710Y-87149483D01*
X112925601Y-87166806D01*
X112983708Y-87180449D01*
X113039109Y-87189848D01*
X113057025Y-87192013D01*
X113116170Y-87196554D01*
X113178194Y-87197734D01*
X113240940Y-87195606D01*
X113302250Y-87190227D01*
X113359965Y-87181652D01*
X113362257Y-87181227D01*
X113445099Y-87162429D01*
X113525975Y-87137270D01*
X113604776Y-87105803D01*
X113681394Y-87068082D01*
X113755722Y-87024159D01*
X113827651Y-86974087D01*
X113897074Y-86917919D01*
X113907651Y-86908785D01*
X113916522Y-86901793D01*
X113922838Y-86898575D01*
X113927969Y-86898834D01*
X113933285Y-86902274D01*
X113940156Y-86908598D01*
X113949959Y-86917650D01*
X113972951Y-86937490D01*
X114000192Y-86959307D01*
X114032471Y-86983745D01*
X114063873Y-87006289D01*
X114136656Y-87053214D01*
X114210818Y-87093667D01*
X114286546Y-87127727D01*
X114364025Y-87155472D01*
X114443440Y-87176982D01*
X114524978Y-87192335D01*
X114535760Y-87193809D01*
X114550337Y-87195360D01*
X114566455Y-87196533D01*
X114585143Y-87197369D01*
X114607426Y-87197914D01*
X114634331Y-87198209D01*
X114666886Y-87198297D01*
X114692412Y-87198246D01*
X114720539Y-87198003D01*
X114743806Y-87197521D01*
X114763238Y-87196756D01*
X114779862Y-87195665D01*
X114794706Y-87194206D01*
X114808795Y-87192335D01*
X114835659Y-87187995D01*
X114916508Y-87170642D01*
X114995294Y-87147117D01*
X115072159Y-87117356D01*
X115147246Y-87081290D01*
X115220695Y-87038856D01*
X115292650Y-86989986D01*
X115363252Y-86934614D01*
X115367237Y-86931278D01*
X115380245Y-86920425D01*
X115391363Y-86911209D01*
X115399518Y-86904518D01*
X115403635Y-86901238D01*
X115405414Y-86901728D01*
X115409422Y-86904559D01*
X115415850Y-86909946D01*
X115424903Y-86918087D01*
X115436788Y-86929183D01*
X115451712Y-86943434D01*
X115469880Y-86961039D01*
X115491500Y-86982199D01*
X115516776Y-87007114D01*
X115545917Y-87035983D01*
X115579128Y-87069007D01*
X115616615Y-87106386D01*
X115658586Y-87148320D01*
X115691212Y-87180982D01*
X115723857Y-87213742D01*
X115754832Y-87244904D01*
X115783830Y-87274157D01*
X115810544Y-87301190D01*
X115834669Y-87325690D01*
X115855898Y-87347347D01*
X115873927Y-87365848D01*
X115888448Y-87380883D01*
X115899155Y-87392139D01*
X115905744Y-87399306D01*
X115907906Y-87402072D01*
X115906812Y-87403411D01*
X115901227Y-87408441D01*
X115891770Y-87416250D01*
X115879380Y-87426072D01*
X115864996Y-87437138D01*
X115812958Y-87478477D01*
X115766932Y-87519117D01*
X115726639Y-87559473D01*
X115691673Y-87600061D01*
X115661625Y-87641394D01*
X115636087Y-87683986D01*
X115614651Y-87728351D01*
X115596910Y-87775003D01*
X115592664Y-87787891D01*
X115585411Y-87811423D01*
X115579893Y-87832417D01*
X115575881Y-87852407D01*
X115573146Y-87872928D01*
X115571458Y-87895514D01*
X115570589Y-87921699D01*
X115570309Y-87953019D01*
X115570332Y-87978830D01*
X115570557Y-87999243D01*
X115571067Y-88015439D01*
X115571945Y-88028649D01*
X115573271Y-88040102D01*
X115575127Y-88051031D01*
X115577596Y-88062665D01*
X115583702Y-88087462D01*
X115600858Y-88141564D01*
X115622802Y-88192899D01*
X115649804Y-88241836D01*
X115682134Y-88288744D01*
X115720061Y-88333994D01*
X115763854Y-88377954D01*
X115813784Y-88420994D01*
X115870119Y-88463483D01*
X115880868Y-88471166D01*
X115894810Y-88481297D01*
X115906145Y-88489734D01*
X115913920Y-88495763D01*
X115917181Y-88498671D01*
X115915860Y-88501347D01*
X115910516Y-88508293D01*
X115909809Y-88509129D01*
X115901658Y-88518772D01*
G37*
D14*
X119121700Y-84040200D02*
X119121700Y-87150200D01*
X119121700Y-84040200D02*
X116361700Y-84040200D01*
X119121700Y-84610200D02*
X119121700Y-87150200D01*
X119121700Y-88770200D02*
X119121700Y-91880200D01*
X119121700Y-91310200D02*
X119121700Y-91880200D01*
X119121700Y-91880200D02*
X116361700Y-91880200D01*
X116361700Y-84040200D02*
X116361700Y-84610200D01*
X116361700Y-84610200D02*
X114891700Y-84610200D01*
X116361700Y-86230200D02*
X116361700Y-89690200D01*
X111501700Y-84040200D02*
X111501700Y-84610200D01*
X111501700Y-84040200D02*
X108741700Y-84040200D01*
X111501700Y-84610200D02*
X112971700Y-84610200D01*
X111501700Y-86230200D02*
X111501700Y-89690200D01*
X111501700Y-91880200D02*
X108741700Y-91880200D01*
X108741700Y-84610200D02*
X108741700Y-87150200D01*
X108741700Y-88770200D02*
X108741700Y-91880200D01*
X108741700Y-91310200D02*
X108741700Y-91880200D01*
%LPC*%
D15*
X120911700Y-90505200D03*
X120911700Y-87965200D03*
X120911700Y-85425200D03*
D16*
X120281700Y-85425200D03*
X120281700Y-87965200D03*
X120281700Y-90505200D03*
D15*
X106951700Y-90505200D03*
X106951700Y-87965200D03*
X106951700Y-85425200D03*
D17*
X107581700Y-85425200D03*
D16*
X107581700Y-87965200D03*
X107581700Y-90505200D03*
D18*
X116086700Y-85420200D03*
X119396700Y-87960200D03*
X116086700Y-90500200D03*
X111776700Y-85420200D03*
X108466700Y-87960200D03*
X111776700Y-90500200D03*
%LPD*%
M02*
