%TF.GenerationSoftware,KiCad,Pcbnew,9.0.6*%
%TF.CreationDate,2026-01-06T15:33:42-06:00*%
%TF.ProjectId,RGBLED_1010_BOB,5247424c-4544-45f3-9130-31305f424f42,rev?*%
%TF.SameCoordinates,Original*%
%TF.FileFunction,Drillmap*%
%TF.FilePolarity,Positive*%
%FSLAX45Y45*%
G04 Gerber Fmt 4.5, Leading zero omitted, Abs format (unit mm)*
G04 Created by KiCad (PCBNEW 9.0.6) date 2026-01-06 15:33:42*
%MOMM*%
%LPD*%
G01*
G04 APERTURE LIST*
%ADD10C,0.100000*%
%ADD11C,0.200000*%
G04 APERTURE END LIST*
D10*
X10629900Y-8232940D02*
X12153900Y-8232940D01*
X12153900Y-9359314D01*
X10629900Y-9359314D01*
X10629900Y-8232940D01*
D11*
X10885677Y-9675798D02*
X10885677Y-9475798D01*
X10885677Y-9475798D02*
X10933296Y-9475798D01*
X10933296Y-9475798D02*
X10961867Y-9485321D01*
X10961867Y-9485321D02*
X10980915Y-9504369D01*
X10980915Y-9504369D02*
X10990439Y-9523417D01*
X10990439Y-9523417D02*
X10999963Y-9561512D01*
X10999963Y-9561512D02*
X10999963Y-9590083D01*
X10999963Y-9590083D02*
X10990439Y-9628179D01*
X10990439Y-9628179D02*
X10980915Y-9647226D01*
X10980915Y-9647226D02*
X10961867Y-9666274D01*
X10961867Y-9666274D02*
X10933296Y-9675798D01*
X10933296Y-9675798D02*
X10885677Y-9675798D01*
X11085677Y-9675798D02*
X11085677Y-9542464D01*
X11085677Y-9580560D02*
X11095201Y-9561512D01*
X11095201Y-9561512D02*
X11104724Y-9551988D01*
X11104724Y-9551988D02*
X11123772Y-9542464D01*
X11123772Y-9542464D02*
X11142820Y-9542464D01*
X11209486Y-9675798D02*
X11209486Y-9542464D01*
X11209486Y-9475798D02*
X11199962Y-9485321D01*
X11199962Y-9485321D02*
X11209486Y-9494845D01*
X11209486Y-9494845D02*
X11219010Y-9485321D01*
X11219010Y-9485321D02*
X11209486Y-9475798D01*
X11209486Y-9475798D02*
X11209486Y-9494845D01*
X11333296Y-9675798D02*
X11314248Y-9666274D01*
X11314248Y-9666274D02*
X11304724Y-9647226D01*
X11304724Y-9647226D02*
X11304724Y-9475798D01*
X11438058Y-9675798D02*
X11419010Y-9666274D01*
X11419010Y-9666274D02*
X11409486Y-9647226D01*
X11409486Y-9647226D02*
X11409486Y-9475798D01*
X11666629Y-9675798D02*
X11666629Y-9475798D01*
X11666629Y-9475798D02*
X11733296Y-9618655D01*
X11733296Y-9618655D02*
X11799962Y-9475798D01*
X11799962Y-9475798D02*
X11799962Y-9675798D01*
X11980915Y-9675798D02*
X11980915Y-9571036D01*
X11980915Y-9571036D02*
X11971391Y-9551988D01*
X11971391Y-9551988D02*
X11952343Y-9542464D01*
X11952343Y-9542464D02*
X11914248Y-9542464D01*
X11914248Y-9542464D02*
X11895201Y-9551988D01*
X11980915Y-9666274D02*
X11961867Y-9675798D01*
X11961867Y-9675798D02*
X11914248Y-9675798D01*
X11914248Y-9675798D02*
X11895201Y-9666274D01*
X11895201Y-9666274D02*
X11885677Y-9647226D01*
X11885677Y-9647226D02*
X11885677Y-9628179D01*
X11885677Y-9628179D02*
X11895201Y-9609131D01*
X11895201Y-9609131D02*
X11914248Y-9599607D01*
X11914248Y-9599607D02*
X11961867Y-9599607D01*
X11961867Y-9599607D02*
X11980915Y-9590083D01*
X12076153Y-9542464D02*
X12076153Y-9742464D01*
X12076153Y-9551988D02*
X12095201Y-9542464D01*
X12095201Y-9542464D02*
X12133296Y-9542464D01*
X12133296Y-9542464D02*
X12152343Y-9551988D01*
X12152343Y-9551988D02*
X12161867Y-9561512D01*
X12161867Y-9561512D02*
X12171391Y-9580560D01*
X12171391Y-9580560D02*
X12171391Y-9637702D01*
X12171391Y-9637702D02*
X12161867Y-9656750D01*
X12161867Y-9656750D02*
X12152343Y-9666274D01*
X12152343Y-9666274D02*
X12133296Y-9675798D01*
X12133296Y-9675798D02*
X12095201Y-9675798D01*
X12095201Y-9675798D02*
X12076153Y-9666274D01*
X12257105Y-9656750D02*
X12266629Y-9666274D01*
X12266629Y-9666274D02*
X12257105Y-9675798D01*
X12257105Y-9675798D02*
X12247582Y-9666274D01*
X12247582Y-9666274D02*
X12257105Y-9656750D01*
X12257105Y-9656750D02*
X12257105Y-9675798D01*
X12257105Y-9551988D02*
X12266629Y-9561512D01*
X12266629Y-9561512D02*
X12257105Y-9571036D01*
X12257105Y-9571036D02*
X12247582Y-9561512D01*
X12247582Y-9561512D02*
X12257105Y-9551988D01*
X12257105Y-9551988D02*
X12257105Y-9571036D01*
M02*
