G04 #@! TF.GenerationSoftware,KiCad,Pcbnew,9.0.6*
G04 #@! TF.CreationDate,2026-01-02T14:08:44-06:00*
G04 #@! TF.ProjectId,QFN-68_8x8,51464e2d-3638-45f3-9878-382e6b696361,rev?*
G04 #@! TF.SameCoordinates,Original*
G04 #@! TF.FileFunction,Copper,L1,Top*
G04 #@! TF.FilePolarity,Positive*
%FSLAX46Y46*%
G04 Gerber Fmt 4.6, Leading zero omitted, Abs format (unit mm)*
G04 Created by KiCad (PCBNEW 9.0.6) date 2026-01-02 14:08:44*
%MOMM*%
%LPD*%
G01*
G04 APERTURE LIST*
G04 Aperture macros list*
%AMRoundRect*
0 Rectangle with rounded corners*
0 $1 Rounding radius*
0 $2 $3 $4 $5 $6 $7 $8 $9 X,Y pos of 4 corners*
0 Add a 4 corners polygon primitive as box body*
4,1,4,$2,$3,$4,$5,$6,$7,$8,$9,$2,$3,0*
0 Add four circle primitives for the rounded corners*
1,1,$1+$1,$2,$3*
1,1,$1+$1,$4,$5*
1,1,$1+$1,$6,$7*
1,1,$1+$1,$8,$9*
0 Add four rect primitives between the rounded corners*
20,1,$1+$1,$2,$3,$4,$5,0*
20,1,$1+$1,$4,$5,$6,$7,0*
20,1,$1+$1,$6,$7,$8,$9,0*
20,1,$1+$1,$8,$9,$2,$3,0*%
%AMRotRect*
0 Rectangle, with rotation*
0 The origin of the aperture is its center*
0 $1 length*
0 $2 width*
0 $3 Rotation angle, in degrees counterclockwise*
0 Add horizontal line*
21,1,$1,$2,0,0,$3*%
G04 Aperture macros list end*
G04 #@! TA.AperFunction,HeatsinkPad*
%ADD10C,0.500000*%
G04 #@! TD*
G04 #@! TA.AperFunction,HeatsinkPad*
%ADD11RotRect,5.200000X5.200000X315.000000*%
G04 #@! TD*
G04 #@! TA.AperFunction,SMDPad,CuDef*
%ADD12RoundRect,0.050000X-0.437522X-0.366812X-0.366812X-0.437522X0.437522X0.366812X0.366812X0.437522X0*%
G04 #@! TD*
G04 #@! TA.AperFunction,SMDPad,CuDef*
%ADD13RoundRect,0.050000X-0.437522X0.366812X0.366812X-0.437522X0.437522X-0.366812X-0.366812X0.437522X0*%
G04 #@! TD*
G04 #@! TA.AperFunction,ComponentPad*
%ADD14C,1.700000*%
G04 #@! TD*
G04 #@! TA.AperFunction,Conductor*
%ADD15C,0.200000*%
G04 #@! TD*
G04 APERTURE END LIST*
D10*
X138430000Y-122858081D03*
X140091701Y-121196380D03*
X141753402Y-119534679D03*
X139260850Y-122027230D03*
X140922551Y-120365529D03*
X137599150Y-122027230D03*
X138430000Y-121196380D03*
X140091701Y-119534679D03*
X140922551Y-118703829D03*
X139260850Y-120365529D03*
X136768299Y-121196380D03*
X137599150Y-120365529D03*
D11*
X138430000Y-119534679D03*
D10*
X138430000Y-119534679D03*
X139260850Y-118703829D03*
X140091701Y-117872978D03*
X137599150Y-118703829D03*
X135937449Y-120365529D03*
X136768299Y-119534679D03*
X138430000Y-117872978D03*
X139260850Y-117042128D03*
X135937449Y-118703829D03*
X137599150Y-117042128D03*
X135106598Y-119534679D03*
X136768299Y-117872978D03*
X138430000Y-116211277D03*
D12*
X139131096Y-114308099D03*
X139413939Y-114590942D03*
X139696782Y-114873785D03*
X139979624Y-115156627D03*
X140262467Y-115439470D03*
X140545310Y-115722313D03*
X140828153Y-116005156D03*
X141110995Y-116287998D03*
X141393838Y-116570841D03*
X141676681Y-116853684D03*
X141959523Y-117136526D03*
X142242366Y-117419369D03*
X142525209Y-117702212D03*
X142808052Y-117985055D03*
X143090894Y-118267897D03*
X143373737Y-118550740D03*
X143656580Y-118833583D03*
D13*
X143656580Y-120235775D03*
X143373737Y-120518618D03*
X143090894Y-120801461D03*
X142808052Y-121084303D03*
X142525209Y-121367146D03*
X142242366Y-121649989D03*
X141959523Y-121932832D03*
X141676681Y-122215674D03*
X141393838Y-122498517D03*
X141110995Y-122781360D03*
X140828153Y-123064202D03*
X140545310Y-123347045D03*
X140262467Y-123629888D03*
X139979624Y-123912731D03*
X139696782Y-124195573D03*
X139413939Y-124478416D03*
X139131096Y-124761259D03*
D12*
X137728904Y-124761259D03*
X137446061Y-124478416D03*
X137163218Y-124195573D03*
X136880376Y-123912731D03*
X136597533Y-123629888D03*
X136314690Y-123347045D03*
X136031847Y-123064202D03*
X135749005Y-122781360D03*
X135466162Y-122498517D03*
X135183319Y-122215674D03*
X134900477Y-121932832D03*
X134617634Y-121649989D03*
X134334791Y-121367146D03*
X134051948Y-121084303D03*
X133769106Y-120801461D03*
X133486263Y-120518618D03*
X133203420Y-120235775D03*
D13*
X133203420Y-118833583D03*
X133486263Y-118550740D03*
X133769106Y-118267897D03*
X134051948Y-117985055D03*
X134334791Y-117702212D03*
X134617634Y-117419369D03*
X134900477Y-117136526D03*
X135183319Y-116853684D03*
X135466162Y-116570841D03*
X135749005Y-116287998D03*
X136031847Y-116005156D03*
X136314690Y-115722313D03*
X136597533Y-115439470D03*
X136880376Y-115156627D03*
X137163218Y-114873785D03*
X137446061Y-114590942D03*
X137728904Y-114308099D03*
D14*
X127000000Y-76200000D03*
X127000000Y-78740000D03*
X127000000Y-81280000D03*
X127000000Y-83820000D03*
X127000000Y-86360000D03*
X127000000Y-88900000D03*
X127000000Y-91440000D03*
X127000000Y-93980000D03*
X127000000Y-96520000D03*
X127000000Y-99060000D03*
X127000000Y-101600000D03*
X127000000Y-104140000D03*
X127000000Y-106680000D03*
X127000000Y-109220000D03*
X127000000Y-111760000D03*
X127000000Y-114300000D03*
X127000000Y-116840000D03*
X127000000Y-119380000D03*
X127000000Y-121920000D03*
X127000000Y-124460000D03*
X127000000Y-127000000D03*
X127000000Y-129540000D03*
X127000000Y-132080000D03*
X127000000Y-134620000D03*
X127000000Y-137160000D03*
X127000000Y-139700000D03*
X127000000Y-142240000D03*
X127000000Y-144780000D03*
X127000000Y-147320000D03*
X127000000Y-149860000D03*
X127000000Y-152400000D03*
X127000000Y-154940000D03*
X127000000Y-157480000D03*
X127000000Y-160020000D03*
X127000000Y-162560000D03*
X127000000Y-165100000D03*
X149860000Y-76200000D03*
X149860000Y-78740000D03*
X149860000Y-81280000D03*
X149860000Y-83820000D03*
X149860000Y-86360000D03*
X149860000Y-88900000D03*
X149860000Y-91440000D03*
X149860000Y-93980000D03*
X149860000Y-96520000D03*
X149860000Y-99060000D03*
X149860000Y-101600000D03*
X149860000Y-104140000D03*
X149860000Y-106680000D03*
X149860000Y-109220000D03*
X149860000Y-111760000D03*
X149860000Y-114300000D03*
X149860000Y-116840000D03*
X149860000Y-119380000D03*
X149860000Y-121920000D03*
X149860000Y-124460000D03*
X149860000Y-127000000D03*
X149860000Y-129540000D03*
X149860000Y-132080000D03*
X149860000Y-134620000D03*
X149860000Y-137160000D03*
X149860000Y-139700000D03*
X149860000Y-142240000D03*
X149860000Y-144780000D03*
X149860000Y-147320000D03*
X149860000Y-149860000D03*
X149860000Y-152400000D03*
X149860000Y-154940000D03*
X149860000Y-157480000D03*
X149860000Y-160020000D03*
X149860000Y-162560000D03*
X149860000Y-165100000D03*
D15*
X141478000Y-154178000D02*
X149860000Y-162560000D01*
X139131096Y-124761259D02*
X141478000Y-127108163D01*
X141478000Y-127108163D02*
X141478000Y-154178000D01*
X141986000Y-127050477D02*
X141986000Y-152146000D01*
X141986000Y-152146000D02*
X149860000Y-160020000D01*
X139413939Y-124478416D02*
X141986000Y-127050477D01*
X142494000Y-126992791D02*
X142494000Y-150114000D01*
X142494000Y-150114000D02*
X149860000Y-157480000D01*
X139696782Y-124195573D02*
X142494000Y-126992791D01*
X143002000Y-148082000D02*
X149860000Y-154940000D01*
X143002000Y-126935107D02*
X143002000Y-148082000D01*
X139979624Y-123912731D02*
X143002000Y-126935107D01*
X143510000Y-146050000D02*
X149860000Y-152400000D01*
X143510000Y-126877421D02*
X143510000Y-146050000D01*
X140262467Y-123629888D02*
X143510000Y-126877421D01*
X144018000Y-144018000D02*
X149860000Y-149860000D01*
X144018000Y-126819735D02*
X144018000Y-144018000D01*
X140545310Y-123347045D02*
X144018000Y-126819735D01*
X144526000Y-141986000D02*
X149860000Y-147320000D01*
X144526000Y-126762049D02*
X144526000Y-141986000D01*
X140828153Y-123064202D02*
X144526000Y-126762049D01*
X145034000Y-139954000D02*
X149860000Y-144780000D01*
X145034000Y-126704365D02*
X145034000Y-139954000D01*
X141110995Y-122781360D02*
X145034000Y-126704365D01*
X145542000Y-137922000D02*
X149860000Y-142240000D01*
X141393838Y-122498517D02*
X145542000Y-126646679D01*
X145542000Y-126646679D02*
X145542000Y-137922000D01*
X146050000Y-135890000D02*
X149860000Y-139700000D01*
X141676681Y-122215674D02*
X146050000Y-126588993D01*
X146050000Y-126588993D02*
X146050000Y-135890000D01*
X146558000Y-133858000D02*
X149860000Y-137160000D01*
X146558000Y-126531309D02*
X146558000Y-133858000D01*
X141959523Y-121932832D02*
X146558000Y-126531309D01*
X147066000Y-131826000D02*
X149860000Y-134620000D01*
X142242366Y-121649989D02*
X147066000Y-126473623D01*
X147066000Y-126473623D02*
X147066000Y-131826000D01*
X147574000Y-129794000D02*
X149860000Y-132080000D01*
X147574000Y-126415937D02*
X147574000Y-129794000D01*
X142525209Y-121367146D02*
X147574000Y-126415937D01*
X148082000Y-126358251D02*
X148082000Y-127762000D01*
X148082000Y-127762000D02*
X149860000Y-129540000D01*
X142808052Y-121084303D02*
X148082000Y-126358251D01*
X149289433Y-127000000D02*
X149860000Y-127000000D01*
X143090894Y-120801461D02*
X149289433Y-127000000D01*
X147315119Y-124460000D02*
X149860000Y-124460000D01*
X143373737Y-120518618D02*
X147315119Y-124460000D01*
X145340805Y-121920000D02*
X149860000Y-121920000D01*
X143656580Y-120235775D02*
X145340805Y-121920000D01*
X135382000Y-154178000D02*
X127000000Y-162560000D01*
X135382000Y-127108163D02*
X135382000Y-154178000D01*
X137728904Y-124761259D02*
X135382000Y-127108163D01*
X134874000Y-152146000D02*
X127000000Y-160020000D01*
X134874000Y-127050477D02*
X134874000Y-152146000D01*
X137446061Y-124478416D02*
X134874000Y-127050477D01*
X134366000Y-150114000D02*
X127000000Y-157480000D01*
X134366000Y-126992791D02*
X134366000Y-150114000D01*
X137163218Y-124195573D02*
X134366000Y-126992791D01*
X133858000Y-148082000D02*
X127000000Y-154940000D01*
X133858000Y-126935107D02*
X133858000Y-148082000D01*
X136880376Y-123912731D02*
X133858000Y-126935107D01*
X133350000Y-126877421D02*
X133350000Y-146050000D01*
X133350000Y-146050000D02*
X127000000Y-152400000D01*
X136597533Y-123629888D02*
X133350000Y-126877421D01*
X132842000Y-144018000D02*
X127000000Y-149860000D01*
X136314690Y-123347045D02*
X132842000Y-126819735D01*
X132842000Y-126819735D02*
X132842000Y-144018000D01*
X132334000Y-141986000D02*
X127000000Y-147320000D01*
X132334000Y-126762049D02*
X132334000Y-141986000D01*
X136031847Y-123064202D02*
X132334000Y-126762049D01*
X131826000Y-139954000D02*
X127000000Y-144780000D01*
X131826000Y-126704365D02*
X131826000Y-139954000D01*
X135749005Y-122781360D02*
X131826000Y-126704365D01*
X131318000Y-137922000D02*
X127000000Y-142240000D01*
X135466162Y-122498517D02*
X131318000Y-126646679D01*
X131318000Y-126646679D02*
X131318000Y-137922000D01*
X130810000Y-135890000D02*
X127000000Y-139700000D01*
X130810000Y-126588993D02*
X130810000Y-135890000D01*
X135183319Y-122215674D02*
X130810000Y-126588993D01*
X130302000Y-133858000D02*
X127000000Y-137160000D01*
X130302000Y-126531309D02*
X130302000Y-133858000D01*
X134900477Y-121932832D02*
X130302000Y-126531309D01*
X129794000Y-131826000D02*
X127000000Y-134620000D01*
X129794000Y-126473623D02*
X129794000Y-131826000D01*
X134617634Y-121649989D02*
X129794000Y-126473623D01*
X129286000Y-129794000D02*
X127000000Y-132080000D01*
X129286000Y-126415937D02*
X129286000Y-129794000D01*
X134334791Y-121367146D02*
X129286000Y-126415937D01*
X128778000Y-127762000D02*
X127000000Y-129540000D01*
X128778000Y-126358251D02*
X128778000Y-127762000D01*
X134051948Y-121084303D02*
X128778000Y-126358251D01*
X127570567Y-127000000D02*
X127000000Y-127000000D01*
X133769106Y-120801461D02*
X127570567Y-127000000D01*
X129544881Y-124460000D02*
X127000000Y-124460000D01*
X133486263Y-120518618D02*
X129544881Y-124460000D01*
X131519195Y-121920000D02*
X127000000Y-121920000D01*
X133203420Y-120235775D02*
X131519195Y-121920000D01*
X134874000Y-86614000D02*
X127000000Y-78740000D01*
X134874000Y-111453195D02*
X134874000Y-86614000D01*
X137728904Y-114308099D02*
X134874000Y-111453195D01*
X134366000Y-88646000D02*
X127000000Y-81280000D01*
X137446061Y-114590942D02*
X134366000Y-111510881D01*
X134366000Y-111510881D02*
X134366000Y-88646000D01*
X133858000Y-90678000D02*
X127000000Y-83820000D01*
X133858000Y-111568567D02*
X133858000Y-90678000D01*
X137163218Y-114873785D02*
X133858000Y-111568567D01*
X133350000Y-92710000D02*
X127000000Y-86360000D01*
X133350000Y-111626251D02*
X133350000Y-92710000D01*
X136880376Y-115156627D02*
X133350000Y-111626251D01*
X132842000Y-111683937D02*
X132842000Y-94742000D01*
X132842000Y-94742000D02*
X127000000Y-88900000D01*
X136597533Y-115439470D02*
X132842000Y-111683937D01*
X132334000Y-96774000D02*
X127000000Y-91440000D01*
X136314690Y-115722313D02*
X132334000Y-111741623D01*
X132334000Y-111741623D02*
X132334000Y-96774000D01*
X131826000Y-98806000D02*
X127000000Y-93980000D01*
X131826000Y-111799309D02*
X131826000Y-98806000D01*
X136031847Y-116005156D02*
X131826000Y-111799309D01*
X131318000Y-100838000D02*
X127000000Y-96520000D01*
X131318000Y-111856993D02*
X131318000Y-100838000D01*
X135749005Y-116287998D02*
X131318000Y-111856993D01*
X130810000Y-102870000D02*
X127000000Y-99060000D01*
X130810000Y-111914679D02*
X130810000Y-102870000D01*
X135466162Y-116570841D02*
X130810000Y-111914679D01*
X130302000Y-111972365D02*
X130302000Y-104902000D01*
X130302000Y-104902000D02*
X127000000Y-101600000D01*
X135183319Y-116853684D02*
X130302000Y-111972365D01*
X129794000Y-106934000D02*
X127000000Y-104140000D01*
X129794000Y-112030049D02*
X129794000Y-106934000D01*
X134900477Y-117136526D02*
X129794000Y-112030049D01*
X129286000Y-108966000D02*
X127000000Y-106680000D01*
X134617634Y-117419369D02*
X129286000Y-112087735D01*
X129286000Y-112087735D02*
X129286000Y-108966000D01*
X128778000Y-110998000D02*
X127000000Y-109220000D01*
X128778000Y-112145421D02*
X128778000Y-110998000D01*
X134334791Y-117702212D02*
X128778000Y-112145421D01*
X134051948Y-117985055D02*
X127826893Y-111760000D01*
X127826893Y-111760000D02*
X127000000Y-111760000D01*
X129801209Y-114300000D02*
X127000000Y-114300000D01*
X133769106Y-118267897D02*
X129801209Y-114300000D01*
X131775523Y-116840000D02*
X127000000Y-116840000D01*
X133486263Y-118550740D02*
X131775523Y-116840000D01*
X141986000Y-86614000D02*
X149860000Y-78740000D01*
X139131096Y-114308099D02*
X141986000Y-111453195D01*
X141986000Y-111453195D02*
X141986000Y-86614000D01*
X142494000Y-88646000D02*
X149860000Y-81280000D01*
X142494000Y-111510881D02*
X142494000Y-88646000D01*
X139413939Y-114590942D02*
X142494000Y-111510881D01*
X143002000Y-111568567D02*
X143002000Y-90678000D01*
X139696782Y-114873785D02*
X143002000Y-111568567D01*
X143002000Y-90678000D02*
X149860000Y-83820000D01*
X143510000Y-92710000D02*
X149860000Y-86360000D01*
X143510000Y-111626251D02*
X143510000Y-92710000D01*
X139979624Y-115156627D02*
X143510000Y-111626251D01*
X144018000Y-94742000D02*
X149860000Y-88900000D01*
X140262467Y-115439470D02*
X144018000Y-111683937D01*
X144018000Y-111683937D02*
X144018000Y-94742000D01*
X144526000Y-96774000D02*
X149860000Y-91440000D01*
X144526000Y-111741623D02*
X144526000Y-96774000D01*
X140545310Y-115722313D02*
X144526000Y-111741623D01*
X145034000Y-98806000D02*
X149860000Y-93980000D01*
X145034000Y-111799309D02*
X145034000Y-98806000D01*
X140828153Y-116005156D02*
X145034000Y-111799309D01*
X145542000Y-111856993D02*
X145542000Y-100838000D01*
X145542000Y-100838000D02*
X149860000Y-96520000D01*
X141110995Y-116287998D02*
X145542000Y-111856993D01*
X146050000Y-102870000D02*
X149860000Y-99060000D01*
X141393838Y-116570841D02*
X146050000Y-111914679D01*
X146050000Y-111914679D02*
X146050000Y-102870000D01*
X146558000Y-104902000D02*
X149860000Y-101600000D01*
X146558000Y-111972365D02*
X146558000Y-104902000D01*
X141676681Y-116853684D02*
X146558000Y-111972365D01*
X147066000Y-106934000D02*
X149860000Y-104140000D01*
X147066000Y-112030049D02*
X147066000Y-106934000D01*
X141959523Y-117136526D02*
X147066000Y-112030049D01*
X147574000Y-108966000D02*
X149860000Y-106680000D01*
X147574000Y-112087735D02*
X147574000Y-108966000D01*
X142242366Y-117419369D02*
X147574000Y-112087735D01*
X148082000Y-110998000D02*
X149860000Y-109220000D01*
X148082000Y-112145421D02*
X148082000Y-110998000D01*
X142525209Y-117702212D02*
X148082000Y-112145421D01*
X149033107Y-111760000D02*
X149860000Y-111760000D01*
X142808052Y-117985055D02*
X149033107Y-111760000D01*
X147058791Y-114300000D02*
X149860000Y-114300000D01*
X143090894Y-118267897D02*
X147058791Y-114300000D01*
X145084477Y-116840000D02*
X149860000Y-116840000D01*
X143373737Y-118550740D02*
X145084477Y-116840000D01*
X148082000Y-119380000D02*
X149860000Y-119380000D01*
X147066000Y-118364000D02*
X148082000Y-119380000D01*
X144126163Y-118364000D02*
X147066000Y-118364000D01*
X143656580Y-118833583D02*
X144126163Y-118364000D01*
X128778000Y-119380000D02*
X127000000Y-119380000D01*
X129794000Y-118364000D02*
X128778000Y-119380000D01*
X132733837Y-118364000D02*
X129794000Y-118364000D01*
X133203420Y-118833583D02*
X132733837Y-118364000D01*
G04 #@! TA.AperFunction,Conductor*
G36*
X138473334Y-124968578D02*
G01*
X138517681Y-124997079D01*
X140841181Y-127320579D01*
X140874666Y-127381902D01*
X140877500Y-127408260D01*
X140877500Y-154091330D01*
X140877499Y-154091348D01*
X140877499Y-154257054D01*
X140877498Y-154257054D01*
X140877499Y-154257056D01*
X140877499Y-154257057D01*
X140918423Y-154409785D01*
X140918425Y-154409788D01*
X140925240Y-154421592D01*
X140997477Y-154546712D01*
X140997481Y-154546717D01*
X141116349Y-154665585D01*
X141116355Y-154665590D01*
X148526241Y-162075476D01*
X148559726Y-162136799D01*
X148556492Y-162201473D01*
X148542753Y-162243757D01*
X148509500Y-162453713D01*
X148509500Y-162666286D01*
X148542753Y-162876239D01*
X148608444Y-163078414D01*
X148704951Y-163267820D01*
X148829890Y-163439786D01*
X148980213Y-163590109D01*
X149152179Y-163715048D01*
X149152181Y-163715049D01*
X149152184Y-163715051D01*
X149341588Y-163811557D01*
X149543757Y-163877246D01*
X149753713Y-163910500D01*
X149753714Y-163910500D01*
X149966286Y-163910500D01*
X149966287Y-163910500D01*
X150176243Y-163877246D01*
X150378412Y-163811557D01*
X150449205Y-163775485D01*
X150517874Y-163762590D01*
X150582614Y-163788866D01*
X150622872Y-163845972D01*
X150629500Y-163885971D01*
X150629500Y-165745500D01*
X150609815Y-165812539D01*
X150557011Y-165858294D01*
X150505500Y-165869500D01*
X126354500Y-165869500D01*
X126287461Y-165849815D01*
X126241706Y-165797011D01*
X126230500Y-165745500D01*
X126230500Y-163885971D01*
X126250185Y-163818932D01*
X126302989Y-163773177D01*
X126372147Y-163763233D01*
X126410793Y-163775485D01*
X126481588Y-163811557D01*
X126683757Y-163877246D01*
X126893713Y-163910500D01*
X126893714Y-163910500D01*
X127106286Y-163910500D01*
X127106287Y-163910500D01*
X127316243Y-163877246D01*
X127518412Y-163811557D01*
X127707816Y-163715051D01*
X127729789Y-163699086D01*
X127879786Y-163590109D01*
X127879788Y-163590106D01*
X127879792Y-163590104D01*
X128030104Y-163439792D01*
X128030106Y-163439788D01*
X128030109Y-163439786D01*
X128155048Y-163267820D01*
X128155047Y-163267820D01*
X128155051Y-163267816D01*
X128251557Y-163078412D01*
X128317246Y-162876243D01*
X128350500Y-162666287D01*
X128350500Y-162453713D01*
X128317246Y-162243757D01*
X128303506Y-162201473D01*
X128301512Y-162131635D01*
X128333755Y-162075478D01*
X135740506Y-154668728D01*
X135740511Y-154668724D01*
X135750714Y-154658520D01*
X135750716Y-154658520D01*
X135862520Y-154546716D01*
X135934762Y-154421588D01*
X135941577Y-154409785D01*
X135982500Y-154257057D01*
X135982500Y-154098943D01*
X135982500Y-127408260D01*
X136002185Y-127341221D01*
X136018819Y-127320579D01*
X138342319Y-124997079D01*
X138403642Y-124963594D01*
X138473334Y-124968578D01*
G37*
G04 #@! TD.AperFunction*
G04 #@! TA.AperFunction,Conductor*
G36*
X138519699Y-115270396D02*
G01*
X138527510Y-115279410D01*
X138556676Y-115316537D01*
X138556685Y-115316547D01*
X138688333Y-115448195D01*
X138688353Y-115448213D01*
X138761296Y-115505516D01*
X138782203Y-115526422D01*
X138839516Y-115599377D01*
X138839528Y-115599390D01*
X138971176Y-115731038D01*
X138971182Y-115731043D01*
X138971186Y-115731047D01*
X138971189Y-115731049D01*
X139044144Y-115788363D01*
X139065050Y-115809270D01*
X139122352Y-115882212D01*
X139122370Y-115882232D01*
X139254018Y-116013880D01*
X139254038Y-116013898D01*
X139326981Y-116071201D01*
X139347888Y-116092107D01*
X139405201Y-116165062D01*
X139405213Y-116165075D01*
X139536861Y-116296723D01*
X139536881Y-116296741D01*
X139609824Y-116354044D01*
X139630731Y-116374950D01*
X139688044Y-116447905D01*
X139688056Y-116447918D01*
X139819704Y-116579566D01*
X139819724Y-116579584D01*
X139892667Y-116636887D01*
X139913574Y-116657793D01*
X139970887Y-116730748D01*
X139970899Y-116730761D01*
X140102547Y-116862409D01*
X140102553Y-116862414D01*
X140102557Y-116862418D01*
X140102560Y-116862420D01*
X140175515Y-116919734D01*
X140196421Y-116940641D01*
X140253723Y-117013583D01*
X140253741Y-117013603D01*
X140385389Y-117145251D01*
X140385409Y-117145269D01*
X140458352Y-117202572D01*
X140479259Y-117223478D01*
X140536572Y-117296433D01*
X140536584Y-117296446D01*
X140668232Y-117428094D01*
X140668252Y-117428112D01*
X140741195Y-117485415D01*
X140762102Y-117506321D01*
X140819415Y-117579276D01*
X140819427Y-117579289D01*
X140951075Y-117710937D01*
X140951081Y-117710942D01*
X140951085Y-117710946D01*
X140975524Y-117730145D01*
X141024043Y-117768262D01*
X141044949Y-117789169D01*
X141102251Y-117862111D01*
X141102269Y-117862131D01*
X141233917Y-117993779D01*
X141233937Y-117993797D01*
X141306880Y-118051100D01*
X141327787Y-118072006D01*
X141385100Y-118144961D01*
X141385112Y-118144974D01*
X141516760Y-118276622D01*
X141516780Y-118276640D01*
X141589723Y-118333943D01*
X141610630Y-118354849D01*
X141667943Y-118427804D01*
X141667955Y-118427817D01*
X141799603Y-118559465D01*
X141799623Y-118559483D01*
X141872566Y-118616786D01*
X141893473Y-118637692D01*
X141950786Y-118710647D01*
X141950798Y-118710660D01*
X142082446Y-118842308D01*
X142082452Y-118842313D01*
X142082456Y-118842317D01*
X142082459Y-118842319D01*
X142155414Y-118899633D01*
X142176320Y-118920540D01*
X142233622Y-118993482D01*
X142233640Y-118993502D01*
X142365288Y-119125150D01*
X142365308Y-119125168D01*
X142438251Y-119182471D01*
X142459158Y-119203377D01*
X142516471Y-119276332D01*
X142516483Y-119276345D01*
X142648131Y-119407993D01*
X142648137Y-119407998D01*
X142648141Y-119408002D01*
X142648144Y-119408004D01*
X142685269Y-119437170D01*
X142725826Y-119494064D01*
X142729185Y-119563853D01*
X142694281Y-119624379D01*
X142685269Y-119632188D01*
X142648144Y-119661353D01*
X142648131Y-119661364D01*
X142516483Y-119793012D01*
X142516471Y-119793025D01*
X142459160Y-119865978D01*
X142438254Y-119886884D01*
X142365301Y-119944195D01*
X142365288Y-119944207D01*
X142233640Y-120075855D01*
X142233629Y-120075868D01*
X142176318Y-120148821D01*
X142155412Y-120169727D01*
X142082459Y-120227038D01*
X142082446Y-120227049D01*
X141950798Y-120358697D01*
X141950786Y-120358710D01*
X141893475Y-120431663D01*
X141872569Y-120452569D01*
X141799616Y-120509880D01*
X141799603Y-120509892D01*
X141667955Y-120641540D01*
X141667943Y-120641553D01*
X141610632Y-120714506D01*
X141589726Y-120735412D01*
X141516773Y-120792723D01*
X141516760Y-120792735D01*
X141385112Y-120924383D01*
X141385100Y-120924396D01*
X141327789Y-120997349D01*
X141306883Y-121018255D01*
X141233930Y-121075566D01*
X141233917Y-121075578D01*
X141102269Y-121207226D01*
X141102258Y-121207239D01*
X141044947Y-121280192D01*
X141024041Y-121301098D01*
X140951088Y-121358409D01*
X140951075Y-121358420D01*
X140819427Y-121490068D01*
X140819415Y-121490081D01*
X140762104Y-121563034D01*
X140741198Y-121583940D01*
X140668245Y-121641251D01*
X140668232Y-121641263D01*
X140536584Y-121772911D01*
X140536572Y-121772924D01*
X140479261Y-121845877D01*
X140458355Y-121866783D01*
X140385402Y-121924094D01*
X140385389Y-121924106D01*
X140253741Y-122055754D01*
X140253730Y-122055767D01*
X140196419Y-122128720D01*
X140175513Y-122149626D01*
X140102560Y-122206937D01*
X140102547Y-122206948D01*
X139970899Y-122338596D01*
X139970887Y-122338609D01*
X139913576Y-122411562D01*
X139892670Y-122432468D01*
X139819717Y-122489779D01*
X139819704Y-122489791D01*
X139688056Y-122621439D01*
X139688044Y-122621452D01*
X139630733Y-122694405D01*
X139609827Y-122715311D01*
X139536874Y-122772622D01*
X139536861Y-122772634D01*
X139405213Y-122904282D01*
X139405201Y-122904295D01*
X139347890Y-122977248D01*
X139326984Y-122998154D01*
X139254031Y-123055465D01*
X139254018Y-123055477D01*
X139122370Y-123187125D01*
X139122359Y-123187138D01*
X139065048Y-123260091D01*
X139044142Y-123280997D01*
X138971189Y-123338308D01*
X138971176Y-123338319D01*
X138839528Y-123469967D01*
X138839516Y-123469980D01*
X138782205Y-123542933D01*
X138761299Y-123563839D01*
X138688346Y-123621150D01*
X138688333Y-123621162D01*
X138556685Y-123752810D01*
X138556674Y-123752823D01*
X138527509Y-123789948D01*
X138470615Y-123830505D01*
X138400826Y-123833864D01*
X138340300Y-123798960D01*
X138332491Y-123789948D01*
X138303325Y-123752823D01*
X138303323Y-123752820D01*
X138303319Y-123752816D01*
X138303314Y-123752810D01*
X138171666Y-123621162D01*
X138171653Y-123621150D01*
X138098698Y-123563837D01*
X138077792Y-123542930D01*
X138020489Y-123469987D01*
X138020471Y-123469967D01*
X137888823Y-123338319D01*
X137888803Y-123338301D01*
X137815861Y-123280999D01*
X137794954Y-123260093D01*
X137744062Y-123195312D01*
X137737638Y-123187135D01*
X137737634Y-123187131D01*
X137737629Y-123187125D01*
X137605981Y-123055477D01*
X137605968Y-123055465D01*
X137533013Y-122998152D01*
X137512107Y-122977245D01*
X137454804Y-122904302D01*
X137454786Y-122904282D01*
X137323138Y-122772634D01*
X137323125Y-122772622D01*
X137250170Y-122715309D01*
X137229264Y-122694402D01*
X137171961Y-122621459D01*
X137171943Y-122621439D01*
X137040295Y-122489791D01*
X137040282Y-122489779D01*
X136967327Y-122432466D01*
X136946421Y-122411559D01*
X136889118Y-122338616D01*
X136889100Y-122338596D01*
X136757452Y-122206948D01*
X136757432Y-122206930D01*
X136684490Y-122149628D01*
X136663583Y-122128722D01*
X136606269Y-122055767D01*
X136606267Y-122055764D01*
X136606263Y-122055760D01*
X136606258Y-122055754D01*
X136474610Y-121924106D01*
X136474597Y-121924094D01*
X136401642Y-121866781D01*
X136380736Y-121845874D01*
X136323433Y-121772931D01*
X136323415Y-121772911D01*
X136191767Y-121641263D01*
X136191754Y-121641251D01*
X136118799Y-121583938D01*
X136097893Y-121563031D01*
X136040590Y-121490088D01*
X136040572Y-121490068D01*
X135908924Y-121358420D01*
X135908904Y-121358402D01*
X135835962Y-121301100D01*
X135815055Y-121280194D01*
X135757741Y-121207239D01*
X135757739Y-121207236D01*
X135757735Y-121207232D01*
X135757730Y-121207226D01*
X135626082Y-121075578D01*
X135626069Y-121075566D01*
X135553114Y-121018253D01*
X135532208Y-120997346D01*
X135474905Y-120924403D01*
X135474887Y-120924383D01*
X135343239Y-120792735D01*
X135343226Y-120792723D01*
X135270271Y-120735410D01*
X135249365Y-120714503D01*
X135192062Y-120641560D01*
X135192044Y-120641540D01*
X135060396Y-120509892D01*
X135060383Y-120509880D01*
X134987428Y-120452567D01*
X134966522Y-120431660D01*
X134909219Y-120358717D01*
X134909201Y-120358697D01*
X134777553Y-120227049D01*
X134777533Y-120227031D01*
X134704591Y-120169729D01*
X134683684Y-120148823D01*
X134645567Y-120100304D01*
X134626368Y-120075865D01*
X134626364Y-120075861D01*
X134626359Y-120075855D01*
X134494711Y-119944207D01*
X134494698Y-119944195D01*
X134421743Y-119886882D01*
X134400837Y-119865975D01*
X134343534Y-119793032D01*
X134343516Y-119793012D01*
X134211868Y-119661364D01*
X134211858Y-119661355D01*
X134200647Y-119652548D01*
X134174730Y-119632187D01*
X134134174Y-119575295D01*
X134130813Y-119505507D01*
X134165717Y-119444980D01*
X134174730Y-119437170D01*
X134211859Y-119408002D01*
X134343525Y-119276336D01*
X134398566Y-119206273D01*
X134398566Y-119206270D01*
X134400838Y-119203380D01*
X134421746Y-119182472D01*
X134424636Y-119180200D01*
X134424639Y-119180200D01*
X134494702Y-119125159D01*
X134626368Y-118993493D01*
X134681409Y-118923430D01*
X134681410Y-118923427D01*
X134683680Y-118920538D01*
X134704589Y-118899629D01*
X134707478Y-118897359D01*
X134707481Y-118897358D01*
X134777544Y-118842317D01*
X134909210Y-118710651D01*
X134964251Y-118640588D01*
X134964251Y-118640585D01*
X134966523Y-118637695D01*
X134987431Y-118616787D01*
X134990321Y-118614515D01*
X134990324Y-118614515D01*
X135060387Y-118559474D01*
X135192053Y-118427808D01*
X135247094Y-118357745D01*
X135247094Y-118357742D01*
X135249366Y-118354852D01*
X135270274Y-118333944D01*
X135273164Y-118331672D01*
X135273167Y-118331672D01*
X135343230Y-118276631D01*
X135474896Y-118144965D01*
X135529937Y-118074902D01*
X135529937Y-118074899D01*
X135532209Y-118072009D01*
X135553117Y-118051101D01*
X135556007Y-118048829D01*
X135556010Y-118048829D01*
X135626073Y-117993788D01*
X135757739Y-117862122D01*
X135812780Y-117792059D01*
X135812781Y-117792056D01*
X135815051Y-117789167D01*
X135835960Y-117768258D01*
X135838849Y-117765988D01*
X135838852Y-117765987D01*
X135908915Y-117710946D01*
X136040581Y-117579280D01*
X136095622Y-117509217D01*
X136095622Y-117509214D01*
X136097894Y-117506324D01*
X136118802Y-117485416D01*
X136121692Y-117483144D01*
X136121695Y-117483144D01*
X136191758Y-117428103D01*
X136323424Y-117296437D01*
X136378465Y-117226374D01*
X136378465Y-117226371D01*
X136380737Y-117223481D01*
X136401645Y-117202573D01*
X136404535Y-117200301D01*
X136404538Y-117200301D01*
X136474601Y-117145260D01*
X136606267Y-117013594D01*
X136661308Y-116943531D01*
X136661309Y-116943528D01*
X136663579Y-116940639D01*
X136684488Y-116919730D01*
X136687377Y-116917460D01*
X136687380Y-116917459D01*
X136757443Y-116862418D01*
X136889109Y-116730752D01*
X136944150Y-116660689D01*
X136944150Y-116660686D01*
X136946422Y-116657796D01*
X136967330Y-116636888D01*
X136970220Y-116634616D01*
X136970223Y-116634616D01*
X137040286Y-116579575D01*
X137171952Y-116447909D01*
X137226993Y-116377846D01*
X137226993Y-116377843D01*
X137229265Y-116374953D01*
X137250173Y-116354045D01*
X137253063Y-116351773D01*
X137253066Y-116351773D01*
X137323129Y-116296732D01*
X137454795Y-116165066D01*
X137509836Y-116095003D01*
X137509836Y-116095000D01*
X137512108Y-116092110D01*
X137533016Y-116071202D01*
X137535906Y-116068930D01*
X137535909Y-116068930D01*
X137605972Y-116013889D01*
X137737638Y-115882223D01*
X137792679Y-115812160D01*
X137792680Y-115812157D01*
X137794950Y-115809268D01*
X137815859Y-115788359D01*
X137818748Y-115786089D01*
X137818751Y-115786088D01*
X137888814Y-115731047D01*
X138020480Y-115599381D01*
X138075521Y-115529318D01*
X138075521Y-115529315D01*
X138077793Y-115526425D01*
X138098701Y-115505517D01*
X138101591Y-115503245D01*
X138101594Y-115503245D01*
X138171657Y-115448204D01*
X138303323Y-115316538D01*
X138332491Y-115279409D01*
X138389384Y-115238853D01*
X138459172Y-115235492D01*
X138519699Y-115270396D01*
G37*
G04 #@! TD.AperFunction*
G04 #@! TA.AperFunction,Conductor*
G36*
X150572539Y-75450185D02*
G01*
X150618294Y-75502989D01*
X150629500Y-75554500D01*
X150629500Y-77414028D01*
X150609815Y-77481067D01*
X150557011Y-77526822D01*
X150487853Y-77536766D01*
X150449206Y-77524513D01*
X150378417Y-77488445D01*
X150378414Y-77488444D01*
X150378412Y-77488443D01*
X150176243Y-77422754D01*
X150176241Y-77422753D01*
X150176240Y-77422753D01*
X150014957Y-77397208D01*
X149966287Y-77389500D01*
X149753713Y-77389500D01*
X149705042Y-77397208D01*
X149543760Y-77422753D01*
X149341585Y-77488444D01*
X149152179Y-77584951D01*
X148980213Y-77709890D01*
X148829890Y-77860213D01*
X148704951Y-78032179D01*
X148608444Y-78221585D01*
X148542753Y-78423760D01*
X148509500Y-78633713D01*
X148509500Y-78846286D01*
X148542754Y-79056244D01*
X148542754Y-79056247D01*
X148556491Y-79098523D01*
X148558486Y-79168364D01*
X148526241Y-79224522D01*
X141617286Y-86133478D01*
X141505481Y-86245282D01*
X141505479Y-86245285D01*
X141493790Y-86265532D01*
X141462865Y-86319097D01*
X141455361Y-86332094D01*
X141455359Y-86332096D01*
X141426425Y-86382209D01*
X141426424Y-86382210D01*
X141410544Y-86441472D01*
X141385499Y-86534943D01*
X141385499Y-86534944D01*
X141385499Y-86534945D01*
X141385499Y-86703046D01*
X141385500Y-86703059D01*
X141385500Y-111153098D01*
X141365815Y-111220137D01*
X141349181Y-111240779D01*
X138517681Y-114072279D01*
X138456358Y-114105764D01*
X138386666Y-114100780D01*
X138342319Y-114072279D01*
X135510819Y-111240779D01*
X135477334Y-111179456D01*
X135474500Y-111153098D01*
X135474500Y-86703060D01*
X135474501Y-86703047D01*
X135474501Y-86534944D01*
X135433576Y-86382214D01*
X135433573Y-86382209D01*
X135354524Y-86245290D01*
X135354521Y-86245286D01*
X135354520Y-86245284D01*
X128333756Y-79224521D01*
X128300272Y-79163199D01*
X128303507Y-79098523D01*
X128317246Y-79056243D01*
X128350500Y-78846287D01*
X128350500Y-78633713D01*
X128317246Y-78423757D01*
X128251557Y-78221588D01*
X128155051Y-78032184D01*
X128155049Y-78032181D01*
X128155048Y-78032179D01*
X128030109Y-77860213D01*
X127879786Y-77709890D01*
X127707820Y-77584951D01*
X127518414Y-77488444D01*
X127518413Y-77488443D01*
X127518412Y-77488443D01*
X127316243Y-77422754D01*
X127316241Y-77422753D01*
X127316240Y-77422753D01*
X127154957Y-77397208D01*
X127106287Y-77389500D01*
X126893713Y-77389500D01*
X126845042Y-77397208D01*
X126683760Y-77422753D01*
X126481582Y-77488445D01*
X126410794Y-77524513D01*
X126342125Y-77537409D01*
X126277384Y-77511132D01*
X126237128Y-77454025D01*
X126230500Y-77414028D01*
X126230500Y-75554500D01*
X126250185Y-75487461D01*
X126302989Y-75441706D01*
X126354500Y-75430500D01*
X150505500Y-75430500D01*
X150572539Y-75450185D01*
G37*
G04 #@! TD.AperFunction*
M02*
