%TF.GenerationSoftware,KiCad,Pcbnew,9.0.6*%
%TF.CreationDate,2026-01-07T17:11:23-06:00*%
%TF.ProjectId,QFN-68_8x8_P0.4,51464e2d-3638-45f3-9878-385f50302e34,rev?*%
%TF.SameCoordinates,Original*%
%TF.FileFunction,Drillmap*%
%TF.FilePolarity,Positive*%
%FSLAX45Y45*%
G04 Gerber Fmt 4.5, Leading zero omitted, Abs format (unit mm)*
G04 Created by KiCad (PCBNEW 9.0.6) date 2026-01-07 17:11:23*
%MOMM*%
%LPD*%
G01*
G04 APERTURE LIST*
%ADD10C,0.050000*%
%ADD11C,0.200000*%
%ADD12C,0.100000*%
G04 APERTURE END LIST*
D10*
X12573000Y-7493000D02*
X15113000Y-7493000D01*
X15113000Y-16637000D01*
X12573000Y-16637000D01*
X12573000Y-7493000D01*
D11*
D12*
X13827000Y-7875000D02*
X13857000Y-7905000D01*
X13857000Y-7875000D02*
X13827000Y-7905000D01*
X13827000Y-9164000D02*
X13857000Y-9194000D01*
X13857000Y-9164000D02*
X13827000Y-9194000D01*
X13827500Y-14204500D02*
X13857500Y-14234500D01*
X13857500Y-14204500D02*
X13827500Y-14234500D01*
X13828000Y-16334000D02*
X13858000Y-16364000D01*
X13858000Y-16334000D02*
X13828000Y-16364000D01*
X13828247Y-12574414D02*
X13858247Y-12604414D01*
X13858247Y-12574414D02*
X13828247Y-12604414D01*
X13833000Y-11280000D02*
X13863000Y-11310000D01*
X13863000Y-11280000D02*
X13833000Y-11310000D01*
X13525660Y-11953468D02*
G75*
G02*
X13495660Y-11953468I-15000J0D01*
G01*
X13495660Y-11953468D02*
G75*
G02*
X13525660Y-11953468I15000J0D01*
G01*
X13608745Y-11870383D02*
G75*
G02*
X13578745Y-11870383I-15000J0D01*
G01*
X13578745Y-11870383D02*
G75*
G02*
X13608745Y-11870383I15000J0D01*
G01*
X13608745Y-12036553D02*
G75*
G02*
X13578745Y-12036553I-15000J0D01*
G01*
X13578745Y-12036553D02*
G75*
G02*
X13608745Y-12036553I15000J0D01*
G01*
X13691830Y-11787298D02*
G75*
G02*
X13661830Y-11787298I-15000J0D01*
G01*
X13661830Y-11787298D02*
G75*
G02*
X13691830Y-11787298I15000J0D01*
G01*
X13691830Y-11953468D02*
G75*
G02*
X13661830Y-11953468I-15000J0D01*
G01*
X13661830Y-11953468D02*
G75*
G02*
X13691830Y-11953468I15000J0D01*
G01*
X13691830Y-12119638D02*
G75*
G02*
X13661830Y-12119638I-15000J0D01*
G01*
X13661830Y-12119638D02*
G75*
G02*
X13691830Y-12119638I15000J0D01*
G01*
X13774915Y-11704213D02*
G75*
G02*
X13744915Y-11704213I-15000J0D01*
G01*
X13744915Y-11704213D02*
G75*
G02*
X13774915Y-11704213I15000J0D01*
G01*
X13774915Y-11870383D02*
G75*
G02*
X13744915Y-11870383I-15000J0D01*
G01*
X13744915Y-11870383D02*
G75*
G02*
X13774915Y-11870383I15000J0D01*
G01*
X13774915Y-12036553D02*
G75*
G02*
X13744915Y-12036553I-15000J0D01*
G01*
X13744915Y-12036553D02*
G75*
G02*
X13774915Y-12036553I15000J0D01*
G01*
X13774915Y-12202723D02*
G75*
G02*
X13744915Y-12202723I-15000J0D01*
G01*
X13744915Y-12202723D02*
G75*
G02*
X13774915Y-12202723I15000J0D01*
G01*
X13858000Y-11621128D02*
G75*
G02*
X13828000Y-11621128I-15000J0D01*
G01*
X13828000Y-11621128D02*
G75*
G02*
X13858000Y-11621128I15000J0D01*
G01*
X13858000Y-11787298D02*
G75*
G02*
X13828000Y-11787298I-15000J0D01*
G01*
X13828000Y-11787298D02*
G75*
G02*
X13858000Y-11787298I15000J0D01*
G01*
X13858000Y-11953468D02*
G75*
G02*
X13828000Y-11953468I-15000J0D01*
G01*
X13828000Y-11953468D02*
G75*
G02*
X13858000Y-11953468I15000J0D01*
G01*
X13858000Y-12119638D02*
G75*
G02*
X13828000Y-12119638I-15000J0D01*
G01*
X13828000Y-12119638D02*
G75*
G02*
X13858000Y-12119638I15000J0D01*
G01*
X13858000Y-12285808D02*
G75*
G02*
X13828000Y-12285808I-15000J0D01*
G01*
X13828000Y-12285808D02*
G75*
G02*
X13858000Y-12285808I15000J0D01*
G01*
X13941085Y-11704213D02*
G75*
G02*
X13911085Y-11704213I-15000J0D01*
G01*
X13911085Y-11704213D02*
G75*
G02*
X13941085Y-11704213I15000J0D01*
G01*
X13941085Y-11870383D02*
G75*
G02*
X13911085Y-11870383I-15000J0D01*
G01*
X13911085Y-11870383D02*
G75*
G02*
X13941085Y-11870383I15000J0D01*
G01*
X13941085Y-12036553D02*
G75*
G02*
X13911085Y-12036553I-15000J0D01*
G01*
X13911085Y-12036553D02*
G75*
G02*
X13941085Y-12036553I15000J0D01*
G01*
X13941085Y-12202723D02*
G75*
G02*
X13911085Y-12202723I-15000J0D01*
G01*
X13911085Y-12202723D02*
G75*
G02*
X13941085Y-12202723I15000J0D01*
G01*
X14024170Y-11787298D02*
G75*
G02*
X13994170Y-11787298I-15000J0D01*
G01*
X13994170Y-11787298D02*
G75*
G02*
X14024170Y-11787298I15000J0D01*
G01*
X14024170Y-11953468D02*
G75*
G02*
X13994170Y-11953468I-15000J0D01*
G01*
X13994170Y-11953468D02*
G75*
G02*
X14024170Y-11953468I15000J0D01*
G01*
X14024170Y-12119638D02*
G75*
G02*
X13994170Y-12119638I-15000J0D01*
G01*
X13994170Y-12119638D02*
G75*
G02*
X14024170Y-12119638I15000J0D01*
G01*
X14107255Y-11870383D02*
G75*
G02*
X14077255Y-11870383I-15000J0D01*
G01*
X14077255Y-11870383D02*
G75*
G02*
X14107255Y-11870383I15000J0D01*
G01*
X14107255Y-12036553D02*
G75*
G02*
X14077255Y-12036553I-15000J0D01*
G01*
X14077255Y-12036553D02*
G75*
G02*
X14107255Y-12036553I15000J0D01*
G01*
X14190340Y-11953468D02*
G75*
G02*
X14160340Y-11953468I-15000J0D01*
G01*
X14160340Y-11953468D02*
G75*
G02*
X14190340Y-11953468I15000J0D01*
G01*
X12700000Y-7570000D02*
X12700000Y-7670000D01*
X12650000Y-7620000D02*
X12750000Y-7620000D01*
X12700000Y-7824000D02*
X12700000Y-7924000D01*
X12650000Y-7874000D02*
X12750000Y-7874000D01*
X12700000Y-8078000D02*
X12700000Y-8178000D01*
X12650000Y-8128000D02*
X12750000Y-8128000D01*
X12700000Y-8332000D02*
X12700000Y-8432000D01*
X12650000Y-8382000D02*
X12750000Y-8382000D01*
X12700000Y-8586000D02*
X12700000Y-8686000D01*
X12650000Y-8636000D02*
X12750000Y-8636000D01*
X12700000Y-8840000D02*
X12700000Y-8940000D01*
X12650000Y-8890000D02*
X12750000Y-8890000D01*
X12700000Y-9094000D02*
X12700000Y-9194000D01*
X12650000Y-9144000D02*
X12750000Y-9144000D01*
X12700000Y-9348000D02*
X12700000Y-9448000D01*
X12650000Y-9398000D02*
X12750000Y-9398000D01*
X12700000Y-9602000D02*
X12700000Y-9702000D01*
X12650000Y-9652000D02*
X12750000Y-9652000D01*
X12700000Y-9856000D02*
X12700000Y-9956000D01*
X12650000Y-9906000D02*
X12750000Y-9906000D01*
X12700000Y-10110000D02*
X12700000Y-10210000D01*
X12650000Y-10160000D02*
X12750000Y-10160000D01*
X12700000Y-10364000D02*
X12700000Y-10464000D01*
X12650000Y-10414000D02*
X12750000Y-10414000D01*
X12700000Y-10618000D02*
X12700000Y-10718000D01*
X12650000Y-10668000D02*
X12750000Y-10668000D01*
X12700000Y-10872000D02*
X12700000Y-10972000D01*
X12650000Y-10922000D02*
X12750000Y-10922000D01*
X12700000Y-11126000D02*
X12700000Y-11226000D01*
X12650000Y-11176000D02*
X12750000Y-11176000D01*
X12700000Y-11380000D02*
X12700000Y-11480000D01*
X12650000Y-11430000D02*
X12750000Y-11430000D01*
X12700000Y-11634000D02*
X12700000Y-11734000D01*
X12650000Y-11684000D02*
X12750000Y-11684000D01*
X12700000Y-11888000D02*
X12700000Y-11988000D01*
X12650000Y-11938000D02*
X12750000Y-11938000D01*
X12700000Y-12142000D02*
X12700000Y-12242000D01*
X12650000Y-12192000D02*
X12750000Y-12192000D01*
X12700000Y-12396000D02*
X12700000Y-12496000D01*
X12650000Y-12446000D02*
X12750000Y-12446000D01*
X12700000Y-12650000D02*
X12700000Y-12750000D01*
X12650000Y-12700000D02*
X12750000Y-12700000D01*
X12700000Y-12904000D02*
X12700000Y-13004000D01*
X12650000Y-12954000D02*
X12750000Y-12954000D01*
X12700000Y-13158000D02*
X12700000Y-13258000D01*
X12650000Y-13208000D02*
X12750000Y-13208000D01*
X12700000Y-13412000D02*
X12700000Y-13512000D01*
X12650000Y-13462000D02*
X12750000Y-13462000D01*
X12700000Y-13666000D02*
X12700000Y-13766000D01*
X12650000Y-13716000D02*
X12750000Y-13716000D01*
X12700000Y-13920000D02*
X12700000Y-14020000D01*
X12650000Y-13970000D02*
X12750000Y-13970000D01*
X12700000Y-14174000D02*
X12700000Y-14274000D01*
X12650000Y-14224000D02*
X12750000Y-14224000D01*
X12700000Y-14428000D02*
X12700000Y-14528000D01*
X12650000Y-14478000D02*
X12750000Y-14478000D01*
X12700000Y-14682000D02*
X12700000Y-14782000D01*
X12650000Y-14732000D02*
X12750000Y-14732000D01*
X12700000Y-14936000D02*
X12700000Y-15036000D01*
X12650000Y-14986000D02*
X12750000Y-14986000D01*
X12700000Y-15190000D02*
X12700000Y-15290000D01*
X12650000Y-15240000D02*
X12750000Y-15240000D01*
X12700000Y-15444000D02*
X12700000Y-15544000D01*
X12650000Y-15494000D02*
X12750000Y-15494000D01*
X12700000Y-15698000D02*
X12700000Y-15798000D01*
X12650000Y-15748000D02*
X12750000Y-15748000D01*
X12700000Y-15952000D02*
X12700000Y-16052000D01*
X12650000Y-16002000D02*
X12750000Y-16002000D01*
X12700000Y-16206000D02*
X12700000Y-16306000D01*
X12650000Y-16256000D02*
X12750000Y-16256000D01*
X12700000Y-16460000D02*
X12700000Y-16560000D01*
X12650000Y-16510000D02*
X12750000Y-16510000D01*
X14986000Y-7570000D02*
X14986000Y-7670000D01*
X14936000Y-7620000D02*
X15036000Y-7620000D01*
X14986000Y-7824000D02*
X14986000Y-7924000D01*
X14936000Y-7874000D02*
X15036000Y-7874000D01*
X14986000Y-8078000D02*
X14986000Y-8178000D01*
X14936000Y-8128000D02*
X15036000Y-8128000D01*
X14986000Y-8332000D02*
X14986000Y-8432000D01*
X14936000Y-8382000D02*
X15036000Y-8382000D01*
X14986000Y-8586000D02*
X14986000Y-8686000D01*
X14936000Y-8636000D02*
X15036000Y-8636000D01*
X14986000Y-8840000D02*
X14986000Y-8940000D01*
X14936000Y-8890000D02*
X15036000Y-8890000D01*
X14986000Y-9094000D02*
X14986000Y-9194000D01*
X14936000Y-9144000D02*
X15036000Y-9144000D01*
X14986000Y-9348000D02*
X14986000Y-9448000D01*
X14936000Y-9398000D02*
X15036000Y-9398000D01*
X14986000Y-9602000D02*
X14986000Y-9702000D01*
X14936000Y-9652000D02*
X15036000Y-9652000D01*
X14986000Y-9856000D02*
X14986000Y-9956000D01*
X14936000Y-9906000D02*
X15036000Y-9906000D01*
X14986000Y-10110000D02*
X14986000Y-10210000D01*
X14936000Y-10160000D02*
X15036000Y-10160000D01*
X14986000Y-10364000D02*
X14986000Y-10464000D01*
X14936000Y-10414000D02*
X15036000Y-10414000D01*
X14986000Y-10618000D02*
X14986000Y-10718000D01*
X14936000Y-10668000D02*
X15036000Y-10668000D01*
X14986000Y-10872000D02*
X14986000Y-10972000D01*
X14936000Y-10922000D02*
X15036000Y-10922000D01*
X14986000Y-11126000D02*
X14986000Y-11226000D01*
X14936000Y-11176000D02*
X15036000Y-11176000D01*
X14986000Y-11380000D02*
X14986000Y-11480000D01*
X14936000Y-11430000D02*
X15036000Y-11430000D01*
X14986000Y-11634000D02*
X14986000Y-11734000D01*
X14936000Y-11684000D02*
X15036000Y-11684000D01*
X14986000Y-11888000D02*
X14986000Y-11988000D01*
X14936000Y-11938000D02*
X15036000Y-11938000D01*
X14986000Y-12142000D02*
X14986000Y-12242000D01*
X14936000Y-12192000D02*
X15036000Y-12192000D01*
X14986000Y-12396000D02*
X14986000Y-12496000D01*
X14936000Y-12446000D02*
X15036000Y-12446000D01*
X14986000Y-12650000D02*
X14986000Y-12750000D01*
X14936000Y-12700000D02*
X15036000Y-12700000D01*
X14986000Y-12904000D02*
X14986000Y-13004000D01*
X14936000Y-12954000D02*
X15036000Y-12954000D01*
X14986000Y-13158000D02*
X14986000Y-13258000D01*
X14936000Y-13208000D02*
X15036000Y-13208000D01*
X14986000Y-13412000D02*
X14986000Y-13512000D01*
X14936000Y-13462000D02*
X15036000Y-13462000D01*
X14986000Y-13666000D02*
X14986000Y-13766000D01*
X14936000Y-13716000D02*
X15036000Y-13716000D01*
X14986000Y-13920000D02*
X14986000Y-14020000D01*
X14936000Y-13970000D02*
X15036000Y-13970000D01*
X14986000Y-14174000D02*
X14986000Y-14274000D01*
X14936000Y-14224000D02*
X15036000Y-14224000D01*
X14986000Y-14428000D02*
X14986000Y-14528000D01*
X14936000Y-14478000D02*
X15036000Y-14478000D01*
X14986000Y-14682000D02*
X14986000Y-14782000D01*
X14936000Y-14732000D02*
X15036000Y-14732000D01*
X14986000Y-14936000D02*
X14986000Y-15036000D01*
X14936000Y-14986000D02*
X15036000Y-14986000D01*
X14986000Y-15190000D02*
X14986000Y-15290000D01*
X14936000Y-15240000D02*
X15036000Y-15240000D01*
X14986000Y-15444000D02*
X14986000Y-15544000D01*
X14936000Y-15494000D02*
X15036000Y-15494000D01*
X14986000Y-15698000D02*
X14986000Y-15798000D01*
X14936000Y-15748000D02*
X15036000Y-15748000D01*
X14986000Y-15952000D02*
X14986000Y-16052000D01*
X14936000Y-16002000D02*
X15036000Y-16002000D01*
X14986000Y-16206000D02*
X14986000Y-16306000D01*
X14936000Y-16256000D02*
X15036000Y-16256000D01*
X14986000Y-16460000D02*
X14986000Y-16560000D01*
X14936000Y-16510000D02*
X15036000Y-16510000D01*
D11*
X12831277Y-16950984D02*
X12831277Y-16750984D01*
X12831277Y-16750984D02*
X12878896Y-16750984D01*
X12878896Y-16750984D02*
X12907467Y-16760508D01*
X12907467Y-16760508D02*
X12926515Y-16779555D01*
X12926515Y-16779555D02*
X12936039Y-16798603D01*
X12936039Y-16798603D02*
X12945562Y-16836698D01*
X12945562Y-16836698D02*
X12945562Y-16865270D01*
X12945562Y-16865270D02*
X12936039Y-16903365D01*
X12936039Y-16903365D02*
X12926515Y-16922412D01*
X12926515Y-16922412D02*
X12907467Y-16941460D01*
X12907467Y-16941460D02*
X12878896Y-16950984D01*
X12878896Y-16950984D02*
X12831277Y-16950984D01*
X13031277Y-16950984D02*
X13031277Y-16817650D01*
X13031277Y-16855746D02*
X13040801Y-16836698D01*
X13040801Y-16836698D02*
X13050324Y-16827174D01*
X13050324Y-16827174D02*
X13069372Y-16817650D01*
X13069372Y-16817650D02*
X13088420Y-16817650D01*
X13155086Y-16950984D02*
X13155086Y-16817650D01*
X13155086Y-16750984D02*
X13145562Y-16760508D01*
X13145562Y-16760508D02*
X13155086Y-16770031D01*
X13155086Y-16770031D02*
X13164610Y-16760508D01*
X13164610Y-16760508D02*
X13155086Y-16750984D01*
X13155086Y-16750984D02*
X13155086Y-16770031D01*
X13278896Y-16950984D02*
X13259848Y-16941460D01*
X13259848Y-16941460D02*
X13250324Y-16922412D01*
X13250324Y-16922412D02*
X13250324Y-16750984D01*
X13383658Y-16950984D02*
X13364610Y-16941460D01*
X13364610Y-16941460D02*
X13355086Y-16922412D01*
X13355086Y-16922412D02*
X13355086Y-16750984D01*
X13612229Y-16950984D02*
X13612229Y-16750984D01*
X13612229Y-16750984D02*
X13678896Y-16893841D01*
X13678896Y-16893841D02*
X13745562Y-16750984D01*
X13745562Y-16750984D02*
X13745562Y-16950984D01*
X13926515Y-16950984D02*
X13926515Y-16846222D01*
X13926515Y-16846222D02*
X13916991Y-16827174D01*
X13916991Y-16827174D02*
X13897943Y-16817650D01*
X13897943Y-16817650D02*
X13859848Y-16817650D01*
X13859848Y-16817650D02*
X13840801Y-16827174D01*
X13926515Y-16941460D02*
X13907467Y-16950984D01*
X13907467Y-16950984D02*
X13859848Y-16950984D01*
X13859848Y-16950984D02*
X13840801Y-16941460D01*
X13840801Y-16941460D02*
X13831277Y-16922412D01*
X13831277Y-16922412D02*
X13831277Y-16903365D01*
X13831277Y-16903365D02*
X13840801Y-16884317D01*
X13840801Y-16884317D02*
X13859848Y-16874793D01*
X13859848Y-16874793D02*
X13907467Y-16874793D01*
X13907467Y-16874793D02*
X13926515Y-16865270D01*
X14021753Y-16817650D02*
X14021753Y-17017650D01*
X14021753Y-16827174D02*
X14040801Y-16817650D01*
X14040801Y-16817650D02*
X14078896Y-16817650D01*
X14078896Y-16817650D02*
X14097943Y-16827174D01*
X14097943Y-16827174D02*
X14107467Y-16836698D01*
X14107467Y-16836698D02*
X14116991Y-16855746D01*
X14116991Y-16855746D02*
X14116991Y-16912889D01*
X14116991Y-16912889D02*
X14107467Y-16931936D01*
X14107467Y-16931936D02*
X14097943Y-16941460D01*
X14097943Y-16941460D02*
X14078896Y-16950984D01*
X14078896Y-16950984D02*
X14040801Y-16950984D01*
X14040801Y-16950984D02*
X14021753Y-16941460D01*
X14202705Y-16931936D02*
X14212229Y-16941460D01*
X14212229Y-16941460D02*
X14202705Y-16950984D01*
X14202705Y-16950984D02*
X14193182Y-16941460D01*
X14193182Y-16941460D02*
X14202705Y-16931936D01*
X14202705Y-16931936D02*
X14202705Y-16950984D01*
X14202705Y-16827174D02*
X14212229Y-16836698D01*
X14212229Y-16836698D02*
X14202705Y-16846222D01*
X14202705Y-16846222D02*
X14193182Y-16836698D01*
X14193182Y-16836698D02*
X14202705Y-16827174D01*
X14202705Y-16827174D02*
X14202705Y-16846222D01*
D12*
X12540500Y-17264500D02*
X12570500Y-17294500D01*
X12570500Y-17264500D02*
X12540500Y-17294500D01*
D11*
X12869372Y-17170984D02*
X12888420Y-17170984D01*
X12888420Y-17170984D02*
X12907467Y-17180508D01*
X12907467Y-17180508D02*
X12916991Y-17190031D01*
X12916991Y-17190031D02*
X12926515Y-17209079D01*
X12926515Y-17209079D02*
X12936039Y-17247174D01*
X12936039Y-17247174D02*
X12936039Y-17294793D01*
X12936039Y-17294793D02*
X12926515Y-17332889D01*
X12926515Y-17332889D02*
X12916991Y-17351936D01*
X12916991Y-17351936D02*
X12907467Y-17361460D01*
X12907467Y-17361460D02*
X12888420Y-17370984D01*
X12888420Y-17370984D02*
X12869372Y-17370984D01*
X12869372Y-17370984D02*
X12850324Y-17361460D01*
X12850324Y-17361460D02*
X12840801Y-17351936D01*
X12840801Y-17351936D02*
X12831277Y-17332889D01*
X12831277Y-17332889D02*
X12821753Y-17294793D01*
X12821753Y-17294793D02*
X12821753Y-17247174D01*
X12821753Y-17247174D02*
X12831277Y-17209079D01*
X12831277Y-17209079D02*
X12840801Y-17190031D01*
X12840801Y-17190031D02*
X12850324Y-17180508D01*
X12850324Y-17180508D02*
X12869372Y-17170984D01*
X13021753Y-17351936D02*
X13031277Y-17361460D01*
X13031277Y-17361460D02*
X13021753Y-17370984D01*
X13021753Y-17370984D02*
X13012229Y-17361460D01*
X13012229Y-17361460D02*
X13021753Y-17351936D01*
X13021753Y-17351936D02*
X13021753Y-17370984D01*
X13097943Y-17170984D02*
X13221753Y-17170984D01*
X13221753Y-17170984D02*
X13155086Y-17247174D01*
X13155086Y-17247174D02*
X13183658Y-17247174D01*
X13183658Y-17247174D02*
X13202705Y-17256698D01*
X13202705Y-17256698D02*
X13212229Y-17266222D01*
X13212229Y-17266222D02*
X13221753Y-17285270D01*
X13221753Y-17285270D02*
X13221753Y-17332889D01*
X13221753Y-17332889D02*
X13212229Y-17351936D01*
X13212229Y-17351936D02*
X13202705Y-17361460D01*
X13202705Y-17361460D02*
X13183658Y-17370984D01*
X13183658Y-17370984D02*
X13126515Y-17370984D01*
X13126515Y-17370984D02*
X13107467Y-17361460D01*
X13107467Y-17361460D02*
X13097943Y-17351936D01*
X13345562Y-17170984D02*
X13364610Y-17170984D01*
X13364610Y-17170984D02*
X13383658Y-17180508D01*
X13383658Y-17180508D02*
X13393182Y-17190031D01*
X13393182Y-17190031D02*
X13402705Y-17209079D01*
X13402705Y-17209079D02*
X13412229Y-17247174D01*
X13412229Y-17247174D02*
X13412229Y-17294793D01*
X13412229Y-17294793D02*
X13402705Y-17332889D01*
X13402705Y-17332889D02*
X13393182Y-17351936D01*
X13393182Y-17351936D02*
X13383658Y-17361460D01*
X13383658Y-17361460D02*
X13364610Y-17370984D01*
X13364610Y-17370984D02*
X13345562Y-17370984D01*
X13345562Y-17370984D02*
X13326515Y-17361460D01*
X13326515Y-17361460D02*
X13316991Y-17351936D01*
X13316991Y-17351936D02*
X13307467Y-17332889D01*
X13307467Y-17332889D02*
X13297943Y-17294793D01*
X13297943Y-17294793D02*
X13297943Y-17247174D01*
X13297943Y-17247174D02*
X13307467Y-17209079D01*
X13307467Y-17209079D02*
X13316991Y-17190031D01*
X13316991Y-17190031D02*
X13326515Y-17180508D01*
X13326515Y-17180508D02*
X13345562Y-17170984D01*
X13536039Y-17170984D02*
X13555086Y-17170984D01*
X13555086Y-17170984D02*
X13574134Y-17180508D01*
X13574134Y-17180508D02*
X13583658Y-17190031D01*
X13583658Y-17190031D02*
X13593182Y-17209079D01*
X13593182Y-17209079D02*
X13602705Y-17247174D01*
X13602705Y-17247174D02*
X13602705Y-17294793D01*
X13602705Y-17294793D02*
X13593182Y-17332889D01*
X13593182Y-17332889D02*
X13583658Y-17351936D01*
X13583658Y-17351936D02*
X13574134Y-17361460D01*
X13574134Y-17361460D02*
X13555086Y-17370984D01*
X13555086Y-17370984D02*
X13536039Y-17370984D01*
X13536039Y-17370984D02*
X13516991Y-17361460D01*
X13516991Y-17361460D02*
X13507467Y-17351936D01*
X13507467Y-17351936D02*
X13497943Y-17332889D01*
X13497943Y-17332889D02*
X13488420Y-17294793D01*
X13488420Y-17294793D02*
X13488420Y-17247174D01*
X13488420Y-17247174D02*
X13497943Y-17209079D01*
X13497943Y-17209079D02*
X13507467Y-17190031D01*
X13507467Y-17190031D02*
X13516991Y-17180508D01*
X13516991Y-17180508D02*
X13536039Y-17170984D01*
X13688420Y-17370984D02*
X13688420Y-17237650D01*
X13688420Y-17256698D02*
X13697943Y-17247174D01*
X13697943Y-17247174D02*
X13716991Y-17237650D01*
X13716991Y-17237650D02*
X13745563Y-17237650D01*
X13745563Y-17237650D02*
X13764610Y-17247174D01*
X13764610Y-17247174D02*
X13774134Y-17266222D01*
X13774134Y-17266222D02*
X13774134Y-17370984D01*
X13774134Y-17266222D02*
X13783658Y-17247174D01*
X13783658Y-17247174D02*
X13802705Y-17237650D01*
X13802705Y-17237650D02*
X13831277Y-17237650D01*
X13831277Y-17237650D02*
X13850324Y-17247174D01*
X13850324Y-17247174D02*
X13859848Y-17266222D01*
X13859848Y-17266222D02*
X13859848Y-17370984D01*
X13955086Y-17370984D02*
X13955086Y-17237650D01*
X13955086Y-17256698D02*
X13964610Y-17247174D01*
X13964610Y-17247174D02*
X13983658Y-17237650D01*
X13983658Y-17237650D02*
X14012229Y-17237650D01*
X14012229Y-17237650D02*
X14031277Y-17247174D01*
X14031277Y-17247174D02*
X14040801Y-17266222D01*
X14040801Y-17266222D02*
X14040801Y-17370984D01*
X14040801Y-17266222D02*
X14050324Y-17247174D01*
X14050324Y-17247174D02*
X14069372Y-17237650D01*
X14069372Y-17237650D02*
X14097943Y-17237650D01*
X14097943Y-17237650D02*
X14116991Y-17247174D01*
X14116991Y-17247174D02*
X14126515Y-17266222D01*
X14126515Y-17266222D02*
X14126515Y-17370984D01*
X14516991Y-17161460D02*
X14345563Y-17418603D01*
X14774134Y-17170984D02*
X14793182Y-17170984D01*
X14793182Y-17170984D02*
X14812229Y-17180508D01*
X14812229Y-17180508D02*
X14821753Y-17190031D01*
X14821753Y-17190031D02*
X14831277Y-17209079D01*
X14831277Y-17209079D02*
X14840801Y-17247174D01*
X14840801Y-17247174D02*
X14840801Y-17294793D01*
X14840801Y-17294793D02*
X14831277Y-17332889D01*
X14831277Y-17332889D02*
X14821753Y-17351936D01*
X14821753Y-17351936D02*
X14812229Y-17361460D01*
X14812229Y-17361460D02*
X14793182Y-17370984D01*
X14793182Y-17370984D02*
X14774134Y-17370984D01*
X14774134Y-17370984D02*
X14755086Y-17361460D01*
X14755086Y-17361460D02*
X14745563Y-17351936D01*
X14745563Y-17351936D02*
X14736039Y-17332889D01*
X14736039Y-17332889D02*
X14726515Y-17294793D01*
X14726515Y-17294793D02*
X14726515Y-17247174D01*
X14726515Y-17247174D02*
X14736039Y-17209079D01*
X14736039Y-17209079D02*
X14745563Y-17190031D01*
X14745563Y-17190031D02*
X14755086Y-17180508D01*
X14755086Y-17180508D02*
X14774134Y-17170984D01*
X14926515Y-17351936D02*
X14936039Y-17361460D01*
X14936039Y-17361460D02*
X14926515Y-17370984D01*
X14926515Y-17370984D02*
X14916991Y-17361460D01*
X14916991Y-17361460D02*
X14926515Y-17351936D01*
X14926515Y-17351936D02*
X14926515Y-17370984D01*
X15059848Y-17170984D02*
X15078896Y-17170984D01*
X15078896Y-17170984D02*
X15097944Y-17180508D01*
X15097944Y-17180508D02*
X15107467Y-17190031D01*
X15107467Y-17190031D02*
X15116991Y-17209079D01*
X15116991Y-17209079D02*
X15126515Y-17247174D01*
X15126515Y-17247174D02*
X15126515Y-17294793D01*
X15126515Y-17294793D02*
X15116991Y-17332889D01*
X15116991Y-17332889D02*
X15107467Y-17351936D01*
X15107467Y-17351936D02*
X15097944Y-17361460D01*
X15097944Y-17361460D02*
X15078896Y-17370984D01*
X15078896Y-17370984D02*
X15059848Y-17370984D01*
X15059848Y-17370984D02*
X15040801Y-17361460D01*
X15040801Y-17361460D02*
X15031277Y-17351936D01*
X15031277Y-17351936D02*
X15021753Y-17332889D01*
X15021753Y-17332889D02*
X15012229Y-17294793D01*
X15012229Y-17294793D02*
X15012229Y-17247174D01*
X15012229Y-17247174D02*
X15021753Y-17209079D01*
X15021753Y-17209079D02*
X15031277Y-17190031D01*
X15031277Y-17190031D02*
X15040801Y-17180508D01*
X15040801Y-17180508D02*
X15059848Y-17170984D01*
X15316991Y-17370984D02*
X15202706Y-17370984D01*
X15259848Y-17370984D02*
X15259848Y-17170984D01*
X15259848Y-17170984D02*
X15240801Y-17199555D01*
X15240801Y-17199555D02*
X15221753Y-17218603D01*
X15221753Y-17218603D02*
X15202706Y-17228127D01*
X15507467Y-17370984D02*
X15393182Y-17370984D01*
X15450325Y-17370984D02*
X15450325Y-17170984D01*
X15450325Y-17170984D02*
X15431277Y-17199555D01*
X15431277Y-17199555D02*
X15412229Y-17218603D01*
X15412229Y-17218603D02*
X15393182Y-17228127D01*
X15621753Y-17256698D02*
X15602706Y-17247174D01*
X15602706Y-17247174D02*
X15593182Y-17237650D01*
X15593182Y-17237650D02*
X15583658Y-17218603D01*
X15583658Y-17218603D02*
X15583658Y-17209079D01*
X15583658Y-17209079D02*
X15593182Y-17190031D01*
X15593182Y-17190031D02*
X15602706Y-17180508D01*
X15602706Y-17180508D02*
X15621753Y-17170984D01*
X15621753Y-17170984D02*
X15659848Y-17170984D01*
X15659848Y-17170984D02*
X15678896Y-17180508D01*
X15678896Y-17180508D02*
X15688420Y-17190031D01*
X15688420Y-17190031D02*
X15697944Y-17209079D01*
X15697944Y-17209079D02*
X15697944Y-17218603D01*
X15697944Y-17218603D02*
X15688420Y-17237650D01*
X15688420Y-17237650D02*
X15678896Y-17247174D01*
X15678896Y-17247174D02*
X15659848Y-17256698D01*
X15659848Y-17256698D02*
X15621753Y-17256698D01*
X15621753Y-17256698D02*
X15602706Y-17266222D01*
X15602706Y-17266222D02*
X15593182Y-17275746D01*
X15593182Y-17275746D02*
X15583658Y-17294793D01*
X15583658Y-17294793D02*
X15583658Y-17332889D01*
X15583658Y-17332889D02*
X15593182Y-17351936D01*
X15593182Y-17351936D02*
X15602706Y-17361460D01*
X15602706Y-17361460D02*
X15621753Y-17370984D01*
X15621753Y-17370984D02*
X15659848Y-17370984D01*
X15659848Y-17370984D02*
X15678896Y-17361460D01*
X15678896Y-17361460D02*
X15688420Y-17351936D01*
X15688420Y-17351936D02*
X15697944Y-17332889D01*
X15697944Y-17332889D02*
X15697944Y-17294793D01*
X15697944Y-17294793D02*
X15688420Y-17275746D01*
X15688420Y-17275746D02*
X15678896Y-17266222D01*
X15678896Y-17266222D02*
X15659848Y-17256698D01*
X15774134Y-17170984D02*
X15774134Y-17209079D01*
X15850325Y-17170984D02*
X15850325Y-17209079D01*
X16145563Y-17447174D02*
X16136039Y-17437650D01*
X16136039Y-17437650D02*
X16116991Y-17409079D01*
X16116991Y-17409079D02*
X16107468Y-17390031D01*
X16107468Y-17390031D02*
X16097944Y-17361460D01*
X16097944Y-17361460D02*
X16088420Y-17313841D01*
X16088420Y-17313841D02*
X16088420Y-17275746D01*
X16088420Y-17275746D02*
X16097944Y-17228127D01*
X16097944Y-17228127D02*
X16107468Y-17199555D01*
X16107468Y-17199555D02*
X16116991Y-17180508D01*
X16116991Y-17180508D02*
X16136039Y-17151936D01*
X16136039Y-17151936D02*
X16145563Y-17142412D01*
X16307468Y-17170984D02*
X16269372Y-17170984D01*
X16269372Y-17170984D02*
X16250325Y-17180508D01*
X16250325Y-17180508D02*
X16240801Y-17190031D01*
X16240801Y-17190031D02*
X16221753Y-17218603D01*
X16221753Y-17218603D02*
X16212229Y-17256698D01*
X16212229Y-17256698D02*
X16212229Y-17332889D01*
X16212229Y-17332889D02*
X16221753Y-17351936D01*
X16221753Y-17351936D02*
X16231277Y-17361460D01*
X16231277Y-17361460D02*
X16250325Y-17370984D01*
X16250325Y-17370984D02*
X16288420Y-17370984D01*
X16288420Y-17370984D02*
X16307468Y-17361460D01*
X16307468Y-17361460D02*
X16316991Y-17351936D01*
X16316991Y-17351936D02*
X16326515Y-17332889D01*
X16326515Y-17332889D02*
X16326515Y-17285270D01*
X16326515Y-17285270D02*
X16316991Y-17266222D01*
X16316991Y-17266222D02*
X16307468Y-17256698D01*
X16307468Y-17256698D02*
X16288420Y-17247174D01*
X16288420Y-17247174D02*
X16250325Y-17247174D01*
X16250325Y-17247174D02*
X16231277Y-17256698D01*
X16231277Y-17256698D02*
X16221753Y-17266222D01*
X16221753Y-17266222D02*
X16212229Y-17285270D01*
X16564610Y-17370984D02*
X16564610Y-17170984D01*
X16650325Y-17370984D02*
X16650325Y-17266222D01*
X16650325Y-17266222D02*
X16640801Y-17247174D01*
X16640801Y-17247174D02*
X16621753Y-17237650D01*
X16621753Y-17237650D02*
X16593182Y-17237650D01*
X16593182Y-17237650D02*
X16574134Y-17247174D01*
X16574134Y-17247174D02*
X16564610Y-17256698D01*
X16774134Y-17370984D02*
X16755087Y-17361460D01*
X16755087Y-17361460D02*
X16745563Y-17351936D01*
X16745563Y-17351936D02*
X16736039Y-17332889D01*
X16736039Y-17332889D02*
X16736039Y-17275746D01*
X16736039Y-17275746D02*
X16745563Y-17256698D01*
X16745563Y-17256698D02*
X16755087Y-17247174D01*
X16755087Y-17247174D02*
X16774134Y-17237650D01*
X16774134Y-17237650D02*
X16802706Y-17237650D01*
X16802706Y-17237650D02*
X16821753Y-17247174D01*
X16821753Y-17247174D02*
X16831277Y-17256698D01*
X16831277Y-17256698D02*
X16840801Y-17275746D01*
X16840801Y-17275746D02*
X16840801Y-17332889D01*
X16840801Y-17332889D02*
X16831277Y-17351936D01*
X16831277Y-17351936D02*
X16821753Y-17361460D01*
X16821753Y-17361460D02*
X16802706Y-17370984D01*
X16802706Y-17370984D02*
X16774134Y-17370984D01*
X16955087Y-17370984D02*
X16936039Y-17361460D01*
X16936039Y-17361460D02*
X16926515Y-17342412D01*
X16926515Y-17342412D02*
X16926515Y-17170984D01*
X17107468Y-17361460D02*
X17088420Y-17370984D01*
X17088420Y-17370984D02*
X17050325Y-17370984D01*
X17050325Y-17370984D02*
X17031277Y-17361460D01*
X17031277Y-17361460D02*
X17021753Y-17342412D01*
X17021753Y-17342412D02*
X17021753Y-17266222D01*
X17021753Y-17266222D02*
X17031277Y-17247174D01*
X17031277Y-17247174D02*
X17050325Y-17237650D01*
X17050325Y-17237650D02*
X17088420Y-17237650D01*
X17088420Y-17237650D02*
X17107468Y-17247174D01*
X17107468Y-17247174D02*
X17116992Y-17266222D01*
X17116992Y-17266222D02*
X17116992Y-17285270D01*
X17116992Y-17285270D02*
X17021753Y-17304317D01*
X17193182Y-17361460D02*
X17212230Y-17370984D01*
X17212230Y-17370984D02*
X17250325Y-17370984D01*
X17250325Y-17370984D02*
X17269373Y-17361460D01*
X17269373Y-17361460D02*
X17278896Y-17342412D01*
X17278896Y-17342412D02*
X17278896Y-17332889D01*
X17278896Y-17332889D02*
X17269373Y-17313841D01*
X17269373Y-17313841D02*
X17250325Y-17304317D01*
X17250325Y-17304317D02*
X17221753Y-17304317D01*
X17221753Y-17304317D02*
X17202706Y-17294793D01*
X17202706Y-17294793D02*
X17193182Y-17275746D01*
X17193182Y-17275746D02*
X17193182Y-17266222D01*
X17193182Y-17266222D02*
X17202706Y-17247174D01*
X17202706Y-17247174D02*
X17221753Y-17237650D01*
X17221753Y-17237650D02*
X17250325Y-17237650D01*
X17250325Y-17237650D02*
X17269373Y-17247174D01*
X17345563Y-17447174D02*
X17355087Y-17437650D01*
X17355087Y-17437650D02*
X17374134Y-17409079D01*
X17374134Y-17409079D02*
X17383658Y-17390031D01*
X17383658Y-17390031D02*
X17393182Y-17361460D01*
X17393182Y-17361460D02*
X17402706Y-17313841D01*
X17402706Y-17313841D02*
X17402706Y-17275746D01*
X17402706Y-17275746D02*
X17393182Y-17228127D01*
X17393182Y-17228127D02*
X17383658Y-17199555D01*
X17383658Y-17199555D02*
X17374134Y-17180508D01*
X17374134Y-17180508D02*
X17355087Y-17151936D01*
X17355087Y-17151936D02*
X17345563Y-17142412D01*
D12*
X12570500Y-17543500D02*
G75*
G02*
X12540500Y-17543500I-15000J0D01*
G01*
X12540500Y-17543500D02*
G75*
G02*
X12570500Y-17543500I15000J0D01*
G01*
D11*
X12869372Y-17434984D02*
X12888420Y-17434984D01*
X12888420Y-17434984D02*
X12907467Y-17444508D01*
X12907467Y-17444508D02*
X12916991Y-17454031D01*
X12916991Y-17454031D02*
X12926515Y-17473079D01*
X12926515Y-17473079D02*
X12936039Y-17511174D01*
X12936039Y-17511174D02*
X12936039Y-17558793D01*
X12936039Y-17558793D02*
X12926515Y-17596889D01*
X12926515Y-17596889D02*
X12916991Y-17615936D01*
X12916991Y-17615936D02*
X12907467Y-17625460D01*
X12907467Y-17625460D02*
X12888420Y-17634984D01*
X12888420Y-17634984D02*
X12869372Y-17634984D01*
X12869372Y-17634984D02*
X12850324Y-17625460D01*
X12850324Y-17625460D02*
X12840801Y-17615936D01*
X12840801Y-17615936D02*
X12831277Y-17596889D01*
X12831277Y-17596889D02*
X12821753Y-17558793D01*
X12821753Y-17558793D02*
X12821753Y-17511174D01*
X12821753Y-17511174D02*
X12831277Y-17473079D01*
X12831277Y-17473079D02*
X12840801Y-17454031D01*
X12840801Y-17454031D02*
X12850324Y-17444508D01*
X12850324Y-17444508D02*
X12869372Y-17434984D01*
X13021753Y-17615936D02*
X13031277Y-17625460D01*
X13031277Y-17625460D02*
X13021753Y-17634984D01*
X13021753Y-17634984D02*
X13012229Y-17625460D01*
X13012229Y-17625460D02*
X13021753Y-17615936D01*
X13021753Y-17615936D02*
X13021753Y-17634984D01*
X13097943Y-17434984D02*
X13221753Y-17434984D01*
X13221753Y-17434984D02*
X13155086Y-17511174D01*
X13155086Y-17511174D02*
X13183658Y-17511174D01*
X13183658Y-17511174D02*
X13202705Y-17520698D01*
X13202705Y-17520698D02*
X13212229Y-17530222D01*
X13212229Y-17530222D02*
X13221753Y-17549270D01*
X13221753Y-17549270D02*
X13221753Y-17596889D01*
X13221753Y-17596889D02*
X13212229Y-17615936D01*
X13212229Y-17615936D02*
X13202705Y-17625460D01*
X13202705Y-17625460D02*
X13183658Y-17634984D01*
X13183658Y-17634984D02*
X13126515Y-17634984D01*
X13126515Y-17634984D02*
X13107467Y-17625460D01*
X13107467Y-17625460D02*
X13097943Y-17615936D01*
X13345562Y-17434984D02*
X13364610Y-17434984D01*
X13364610Y-17434984D02*
X13383658Y-17444508D01*
X13383658Y-17444508D02*
X13393182Y-17454031D01*
X13393182Y-17454031D02*
X13402705Y-17473079D01*
X13402705Y-17473079D02*
X13412229Y-17511174D01*
X13412229Y-17511174D02*
X13412229Y-17558793D01*
X13412229Y-17558793D02*
X13402705Y-17596889D01*
X13402705Y-17596889D02*
X13393182Y-17615936D01*
X13393182Y-17615936D02*
X13383658Y-17625460D01*
X13383658Y-17625460D02*
X13364610Y-17634984D01*
X13364610Y-17634984D02*
X13345562Y-17634984D01*
X13345562Y-17634984D02*
X13326515Y-17625460D01*
X13326515Y-17625460D02*
X13316991Y-17615936D01*
X13316991Y-17615936D02*
X13307467Y-17596889D01*
X13307467Y-17596889D02*
X13297943Y-17558793D01*
X13297943Y-17558793D02*
X13297943Y-17511174D01*
X13297943Y-17511174D02*
X13307467Y-17473079D01*
X13307467Y-17473079D02*
X13316991Y-17454031D01*
X13316991Y-17454031D02*
X13326515Y-17444508D01*
X13326515Y-17444508D02*
X13345562Y-17434984D01*
X13536039Y-17434984D02*
X13555086Y-17434984D01*
X13555086Y-17434984D02*
X13574134Y-17444508D01*
X13574134Y-17444508D02*
X13583658Y-17454031D01*
X13583658Y-17454031D02*
X13593182Y-17473079D01*
X13593182Y-17473079D02*
X13602705Y-17511174D01*
X13602705Y-17511174D02*
X13602705Y-17558793D01*
X13602705Y-17558793D02*
X13593182Y-17596889D01*
X13593182Y-17596889D02*
X13583658Y-17615936D01*
X13583658Y-17615936D02*
X13574134Y-17625460D01*
X13574134Y-17625460D02*
X13555086Y-17634984D01*
X13555086Y-17634984D02*
X13536039Y-17634984D01*
X13536039Y-17634984D02*
X13516991Y-17625460D01*
X13516991Y-17625460D02*
X13507467Y-17615936D01*
X13507467Y-17615936D02*
X13497943Y-17596889D01*
X13497943Y-17596889D02*
X13488420Y-17558793D01*
X13488420Y-17558793D02*
X13488420Y-17511174D01*
X13488420Y-17511174D02*
X13497943Y-17473079D01*
X13497943Y-17473079D02*
X13507467Y-17454031D01*
X13507467Y-17454031D02*
X13516991Y-17444508D01*
X13516991Y-17444508D02*
X13536039Y-17434984D01*
X13688420Y-17634984D02*
X13688420Y-17501650D01*
X13688420Y-17520698D02*
X13697943Y-17511174D01*
X13697943Y-17511174D02*
X13716991Y-17501650D01*
X13716991Y-17501650D02*
X13745563Y-17501650D01*
X13745563Y-17501650D02*
X13764610Y-17511174D01*
X13764610Y-17511174D02*
X13774134Y-17530222D01*
X13774134Y-17530222D02*
X13774134Y-17634984D01*
X13774134Y-17530222D02*
X13783658Y-17511174D01*
X13783658Y-17511174D02*
X13802705Y-17501650D01*
X13802705Y-17501650D02*
X13831277Y-17501650D01*
X13831277Y-17501650D02*
X13850324Y-17511174D01*
X13850324Y-17511174D02*
X13859848Y-17530222D01*
X13859848Y-17530222D02*
X13859848Y-17634984D01*
X13955086Y-17634984D02*
X13955086Y-17501650D01*
X13955086Y-17520698D02*
X13964610Y-17511174D01*
X13964610Y-17511174D02*
X13983658Y-17501650D01*
X13983658Y-17501650D02*
X14012229Y-17501650D01*
X14012229Y-17501650D02*
X14031277Y-17511174D01*
X14031277Y-17511174D02*
X14040801Y-17530222D01*
X14040801Y-17530222D02*
X14040801Y-17634984D01*
X14040801Y-17530222D02*
X14050324Y-17511174D01*
X14050324Y-17511174D02*
X14069372Y-17501650D01*
X14069372Y-17501650D02*
X14097943Y-17501650D01*
X14097943Y-17501650D02*
X14116991Y-17511174D01*
X14116991Y-17511174D02*
X14126515Y-17530222D01*
X14126515Y-17530222D02*
X14126515Y-17634984D01*
X14516991Y-17425460D02*
X14345563Y-17682603D01*
X14774134Y-17434984D02*
X14793182Y-17434984D01*
X14793182Y-17434984D02*
X14812229Y-17444508D01*
X14812229Y-17444508D02*
X14821753Y-17454031D01*
X14821753Y-17454031D02*
X14831277Y-17473079D01*
X14831277Y-17473079D02*
X14840801Y-17511174D01*
X14840801Y-17511174D02*
X14840801Y-17558793D01*
X14840801Y-17558793D02*
X14831277Y-17596889D01*
X14831277Y-17596889D02*
X14821753Y-17615936D01*
X14821753Y-17615936D02*
X14812229Y-17625460D01*
X14812229Y-17625460D02*
X14793182Y-17634984D01*
X14793182Y-17634984D02*
X14774134Y-17634984D01*
X14774134Y-17634984D02*
X14755086Y-17625460D01*
X14755086Y-17625460D02*
X14745563Y-17615936D01*
X14745563Y-17615936D02*
X14736039Y-17596889D01*
X14736039Y-17596889D02*
X14726515Y-17558793D01*
X14726515Y-17558793D02*
X14726515Y-17511174D01*
X14726515Y-17511174D02*
X14736039Y-17473079D01*
X14736039Y-17473079D02*
X14745563Y-17454031D01*
X14745563Y-17454031D02*
X14755086Y-17444508D01*
X14755086Y-17444508D02*
X14774134Y-17434984D01*
X14926515Y-17615936D02*
X14936039Y-17625460D01*
X14936039Y-17625460D02*
X14926515Y-17634984D01*
X14926515Y-17634984D02*
X14916991Y-17625460D01*
X14916991Y-17625460D02*
X14926515Y-17615936D01*
X14926515Y-17615936D02*
X14926515Y-17634984D01*
X15059848Y-17434984D02*
X15078896Y-17434984D01*
X15078896Y-17434984D02*
X15097944Y-17444508D01*
X15097944Y-17444508D02*
X15107467Y-17454031D01*
X15107467Y-17454031D02*
X15116991Y-17473079D01*
X15116991Y-17473079D02*
X15126515Y-17511174D01*
X15126515Y-17511174D02*
X15126515Y-17558793D01*
X15126515Y-17558793D02*
X15116991Y-17596889D01*
X15116991Y-17596889D02*
X15107467Y-17615936D01*
X15107467Y-17615936D02*
X15097944Y-17625460D01*
X15097944Y-17625460D02*
X15078896Y-17634984D01*
X15078896Y-17634984D02*
X15059848Y-17634984D01*
X15059848Y-17634984D02*
X15040801Y-17625460D01*
X15040801Y-17625460D02*
X15031277Y-17615936D01*
X15031277Y-17615936D02*
X15021753Y-17596889D01*
X15021753Y-17596889D02*
X15012229Y-17558793D01*
X15012229Y-17558793D02*
X15012229Y-17511174D01*
X15012229Y-17511174D02*
X15021753Y-17473079D01*
X15021753Y-17473079D02*
X15031277Y-17454031D01*
X15031277Y-17454031D02*
X15040801Y-17444508D01*
X15040801Y-17444508D02*
X15059848Y-17434984D01*
X15316991Y-17634984D02*
X15202706Y-17634984D01*
X15259848Y-17634984D02*
X15259848Y-17434984D01*
X15259848Y-17434984D02*
X15240801Y-17463555D01*
X15240801Y-17463555D02*
X15221753Y-17482603D01*
X15221753Y-17482603D02*
X15202706Y-17492127D01*
X15507467Y-17634984D02*
X15393182Y-17634984D01*
X15450325Y-17634984D02*
X15450325Y-17434984D01*
X15450325Y-17434984D02*
X15431277Y-17463555D01*
X15431277Y-17463555D02*
X15412229Y-17482603D01*
X15412229Y-17482603D02*
X15393182Y-17492127D01*
X15621753Y-17520698D02*
X15602706Y-17511174D01*
X15602706Y-17511174D02*
X15593182Y-17501650D01*
X15593182Y-17501650D02*
X15583658Y-17482603D01*
X15583658Y-17482603D02*
X15583658Y-17473079D01*
X15583658Y-17473079D02*
X15593182Y-17454031D01*
X15593182Y-17454031D02*
X15602706Y-17444508D01*
X15602706Y-17444508D02*
X15621753Y-17434984D01*
X15621753Y-17434984D02*
X15659848Y-17434984D01*
X15659848Y-17434984D02*
X15678896Y-17444508D01*
X15678896Y-17444508D02*
X15688420Y-17454031D01*
X15688420Y-17454031D02*
X15697944Y-17473079D01*
X15697944Y-17473079D02*
X15697944Y-17482603D01*
X15697944Y-17482603D02*
X15688420Y-17501650D01*
X15688420Y-17501650D02*
X15678896Y-17511174D01*
X15678896Y-17511174D02*
X15659848Y-17520698D01*
X15659848Y-17520698D02*
X15621753Y-17520698D01*
X15621753Y-17520698D02*
X15602706Y-17530222D01*
X15602706Y-17530222D02*
X15593182Y-17539746D01*
X15593182Y-17539746D02*
X15583658Y-17558793D01*
X15583658Y-17558793D02*
X15583658Y-17596889D01*
X15583658Y-17596889D02*
X15593182Y-17615936D01*
X15593182Y-17615936D02*
X15602706Y-17625460D01*
X15602706Y-17625460D02*
X15621753Y-17634984D01*
X15621753Y-17634984D02*
X15659848Y-17634984D01*
X15659848Y-17634984D02*
X15678896Y-17625460D01*
X15678896Y-17625460D02*
X15688420Y-17615936D01*
X15688420Y-17615936D02*
X15697944Y-17596889D01*
X15697944Y-17596889D02*
X15697944Y-17558793D01*
X15697944Y-17558793D02*
X15688420Y-17539746D01*
X15688420Y-17539746D02*
X15678896Y-17530222D01*
X15678896Y-17530222D02*
X15659848Y-17520698D01*
X15774134Y-17434984D02*
X15774134Y-17473079D01*
X15850325Y-17434984D02*
X15850325Y-17473079D01*
X16145563Y-17711174D02*
X16136039Y-17701650D01*
X16136039Y-17701650D02*
X16116991Y-17673079D01*
X16116991Y-17673079D02*
X16107468Y-17654031D01*
X16107468Y-17654031D02*
X16097944Y-17625460D01*
X16097944Y-17625460D02*
X16088420Y-17577841D01*
X16088420Y-17577841D02*
X16088420Y-17539746D01*
X16088420Y-17539746D02*
X16097944Y-17492127D01*
X16097944Y-17492127D02*
X16107468Y-17463555D01*
X16107468Y-17463555D02*
X16116991Y-17444508D01*
X16116991Y-17444508D02*
X16136039Y-17415936D01*
X16136039Y-17415936D02*
X16145563Y-17406412D01*
X16212229Y-17454031D02*
X16221753Y-17444508D01*
X16221753Y-17444508D02*
X16240801Y-17434984D01*
X16240801Y-17434984D02*
X16288420Y-17434984D01*
X16288420Y-17434984D02*
X16307468Y-17444508D01*
X16307468Y-17444508D02*
X16316991Y-17454031D01*
X16316991Y-17454031D02*
X16326515Y-17473079D01*
X16326515Y-17473079D02*
X16326515Y-17492127D01*
X16326515Y-17492127D02*
X16316991Y-17520698D01*
X16316991Y-17520698D02*
X16202706Y-17634984D01*
X16202706Y-17634984D02*
X16326515Y-17634984D01*
X16507468Y-17434984D02*
X16412229Y-17434984D01*
X16412229Y-17434984D02*
X16402706Y-17530222D01*
X16402706Y-17530222D02*
X16412229Y-17520698D01*
X16412229Y-17520698D02*
X16431277Y-17511174D01*
X16431277Y-17511174D02*
X16478896Y-17511174D01*
X16478896Y-17511174D02*
X16497944Y-17520698D01*
X16497944Y-17520698D02*
X16507468Y-17530222D01*
X16507468Y-17530222D02*
X16516991Y-17549270D01*
X16516991Y-17549270D02*
X16516991Y-17596889D01*
X16516991Y-17596889D02*
X16507468Y-17615936D01*
X16507468Y-17615936D02*
X16497944Y-17625460D01*
X16497944Y-17625460D02*
X16478896Y-17634984D01*
X16478896Y-17634984D02*
X16431277Y-17634984D01*
X16431277Y-17634984D02*
X16412229Y-17625460D01*
X16412229Y-17625460D02*
X16402706Y-17615936D01*
X16755087Y-17634984D02*
X16755087Y-17434984D01*
X16840801Y-17634984D02*
X16840801Y-17530222D01*
X16840801Y-17530222D02*
X16831277Y-17511174D01*
X16831277Y-17511174D02*
X16812230Y-17501650D01*
X16812230Y-17501650D02*
X16783658Y-17501650D01*
X16783658Y-17501650D02*
X16764610Y-17511174D01*
X16764610Y-17511174D02*
X16755087Y-17520698D01*
X16964611Y-17634984D02*
X16945563Y-17625460D01*
X16945563Y-17625460D02*
X16936039Y-17615936D01*
X16936039Y-17615936D02*
X16926515Y-17596889D01*
X16926515Y-17596889D02*
X16926515Y-17539746D01*
X16926515Y-17539746D02*
X16936039Y-17520698D01*
X16936039Y-17520698D02*
X16945563Y-17511174D01*
X16945563Y-17511174D02*
X16964611Y-17501650D01*
X16964611Y-17501650D02*
X16993182Y-17501650D01*
X16993182Y-17501650D02*
X17012230Y-17511174D01*
X17012230Y-17511174D02*
X17021753Y-17520698D01*
X17021753Y-17520698D02*
X17031277Y-17539746D01*
X17031277Y-17539746D02*
X17031277Y-17596889D01*
X17031277Y-17596889D02*
X17021753Y-17615936D01*
X17021753Y-17615936D02*
X17012230Y-17625460D01*
X17012230Y-17625460D02*
X16993182Y-17634984D01*
X16993182Y-17634984D02*
X16964611Y-17634984D01*
X17145563Y-17634984D02*
X17126515Y-17625460D01*
X17126515Y-17625460D02*
X17116992Y-17606412D01*
X17116992Y-17606412D02*
X17116992Y-17434984D01*
X17297944Y-17625460D02*
X17278896Y-17634984D01*
X17278896Y-17634984D02*
X17240801Y-17634984D01*
X17240801Y-17634984D02*
X17221753Y-17625460D01*
X17221753Y-17625460D02*
X17212230Y-17606412D01*
X17212230Y-17606412D02*
X17212230Y-17530222D01*
X17212230Y-17530222D02*
X17221753Y-17511174D01*
X17221753Y-17511174D02*
X17240801Y-17501650D01*
X17240801Y-17501650D02*
X17278896Y-17501650D01*
X17278896Y-17501650D02*
X17297944Y-17511174D01*
X17297944Y-17511174D02*
X17307468Y-17530222D01*
X17307468Y-17530222D02*
X17307468Y-17549270D01*
X17307468Y-17549270D02*
X17212230Y-17568317D01*
X17383658Y-17625460D02*
X17402706Y-17634984D01*
X17402706Y-17634984D02*
X17440801Y-17634984D01*
X17440801Y-17634984D02*
X17459849Y-17625460D01*
X17459849Y-17625460D02*
X17469373Y-17606412D01*
X17469373Y-17606412D02*
X17469373Y-17596889D01*
X17469373Y-17596889D02*
X17459849Y-17577841D01*
X17459849Y-17577841D02*
X17440801Y-17568317D01*
X17440801Y-17568317D02*
X17412230Y-17568317D01*
X17412230Y-17568317D02*
X17393182Y-17558793D01*
X17393182Y-17558793D02*
X17383658Y-17539746D01*
X17383658Y-17539746D02*
X17383658Y-17530222D01*
X17383658Y-17530222D02*
X17393182Y-17511174D01*
X17393182Y-17511174D02*
X17412230Y-17501650D01*
X17412230Y-17501650D02*
X17440801Y-17501650D01*
X17440801Y-17501650D02*
X17459849Y-17511174D01*
X17536039Y-17711174D02*
X17545563Y-17701650D01*
X17545563Y-17701650D02*
X17564611Y-17673079D01*
X17564611Y-17673079D02*
X17574134Y-17654031D01*
X17574134Y-17654031D02*
X17583658Y-17625460D01*
X17583658Y-17625460D02*
X17593182Y-17577841D01*
X17593182Y-17577841D02*
X17593182Y-17539746D01*
X17593182Y-17539746D02*
X17583658Y-17492127D01*
X17583658Y-17492127D02*
X17574134Y-17463555D01*
X17574134Y-17463555D02*
X17564611Y-17444508D01*
X17564611Y-17444508D02*
X17545563Y-17415936D01*
X17545563Y-17415936D02*
X17536039Y-17406412D01*
D12*
X12520500Y-17757500D02*
X12520500Y-17857500D01*
X12470500Y-17807500D02*
X12570500Y-17807500D01*
D11*
X12936039Y-17898984D02*
X12821753Y-17898984D01*
X12878896Y-17898984D02*
X12878896Y-17698984D01*
X12878896Y-17698984D02*
X12859848Y-17727555D01*
X12859848Y-17727555D02*
X12840801Y-17746603D01*
X12840801Y-17746603D02*
X12821753Y-17756127D01*
X13021753Y-17879936D02*
X13031277Y-17889460D01*
X13031277Y-17889460D02*
X13021753Y-17898984D01*
X13021753Y-17898984D02*
X13012229Y-17889460D01*
X13012229Y-17889460D02*
X13021753Y-17879936D01*
X13021753Y-17879936D02*
X13021753Y-17898984D01*
X13155086Y-17698984D02*
X13174134Y-17698984D01*
X13174134Y-17698984D02*
X13193182Y-17708508D01*
X13193182Y-17708508D02*
X13202705Y-17718031D01*
X13202705Y-17718031D02*
X13212229Y-17737079D01*
X13212229Y-17737079D02*
X13221753Y-17775174D01*
X13221753Y-17775174D02*
X13221753Y-17822793D01*
X13221753Y-17822793D02*
X13212229Y-17860889D01*
X13212229Y-17860889D02*
X13202705Y-17879936D01*
X13202705Y-17879936D02*
X13193182Y-17889460D01*
X13193182Y-17889460D02*
X13174134Y-17898984D01*
X13174134Y-17898984D02*
X13155086Y-17898984D01*
X13155086Y-17898984D02*
X13136039Y-17889460D01*
X13136039Y-17889460D02*
X13126515Y-17879936D01*
X13126515Y-17879936D02*
X13116991Y-17860889D01*
X13116991Y-17860889D02*
X13107467Y-17822793D01*
X13107467Y-17822793D02*
X13107467Y-17775174D01*
X13107467Y-17775174D02*
X13116991Y-17737079D01*
X13116991Y-17737079D02*
X13126515Y-17718031D01*
X13126515Y-17718031D02*
X13136039Y-17708508D01*
X13136039Y-17708508D02*
X13155086Y-17698984D01*
X13345562Y-17698984D02*
X13364610Y-17698984D01*
X13364610Y-17698984D02*
X13383658Y-17708508D01*
X13383658Y-17708508D02*
X13393182Y-17718031D01*
X13393182Y-17718031D02*
X13402705Y-17737079D01*
X13402705Y-17737079D02*
X13412229Y-17775174D01*
X13412229Y-17775174D02*
X13412229Y-17822793D01*
X13412229Y-17822793D02*
X13402705Y-17860889D01*
X13402705Y-17860889D02*
X13393182Y-17879936D01*
X13393182Y-17879936D02*
X13383658Y-17889460D01*
X13383658Y-17889460D02*
X13364610Y-17898984D01*
X13364610Y-17898984D02*
X13345562Y-17898984D01*
X13345562Y-17898984D02*
X13326515Y-17889460D01*
X13326515Y-17889460D02*
X13316991Y-17879936D01*
X13316991Y-17879936D02*
X13307467Y-17860889D01*
X13307467Y-17860889D02*
X13297943Y-17822793D01*
X13297943Y-17822793D02*
X13297943Y-17775174D01*
X13297943Y-17775174D02*
X13307467Y-17737079D01*
X13307467Y-17737079D02*
X13316991Y-17718031D01*
X13316991Y-17718031D02*
X13326515Y-17708508D01*
X13326515Y-17708508D02*
X13345562Y-17698984D01*
X13536039Y-17698984D02*
X13555086Y-17698984D01*
X13555086Y-17698984D02*
X13574134Y-17708508D01*
X13574134Y-17708508D02*
X13583658Y-17718031D01*
X13583658Y-17718031D02*
X13593182Y-17737079D01*
X13593182Y-17737079D02*
X13602705Y-17775174D01*
X13602705Y-17775174D02*
X13602705Y-17822793D01*
X13602705Y-17822793D02*
X13593182Y-17860889D01*
X13593182Y-17860889D02*
X13583658Y-17879936D01*
X13583658Y-17879936D02*
X13574134Y-17889460D01*
X13574134Y-17889460D02*
X13555086Y-17898984D01*
X13555086Y-17898984D02*
X13536039Y-17898984D01*
X13536039Y-17898984D02*
X13516991Y-17889460D01*
X13516991Y-17889460D02*
X13507467Y-17879936D01*
X13507467Y-17879936D02*
X13497943Y-17860889D01*
X13497943Y-17860889D02*
X13488420Y-17822793D01*
X13488420Y-17822793D02*
X13488420Y-17775174D01*
X13488420Y-17775174D02*
X13497943Y-17737079D01*
X13497943Y-17737079D02*
X13507467Y-17718031D01*
X13507467Y-17718031D02*
X13516991Y-17708508D01*
X13516991Y-17708508D02*
X13536039Y-17698984D01*
X13688420Y-17898984D02*
X13688420Y-17765650D01*
X13688420Y-17784698D02*
X13697943Y-17775174D01*
X13697943Y-17775174D02*
X13716991Y-17765650D01*
X13716991Y-17765650D02*
X13745563Y-17765650D01*
X13745563Y-17765650D02*
X13764610Y-17775174D01*
X13764610Y-17775174D02*
X13774134Y-17794222D01*
X13774134Y-17794222D02*
X13774134Y-17898984D01*
X13774134Y-17794222D02*
X13783658Y-17775174D01*
X13783658Y-17775174D02*
X13802705Y-17765650D01*
X13802705Y-17765650D02*
X13831277Y-17765650D01*
X13831277Y-17765650D02*
X13850324Y-17775174D01*
X13850324Y-17775174D02*
X13859848Y-17794222D01*
X13859848Y-17794222D02*
X13859848Y-17898984D01*
X13955086Y-17898984D02*
X13955086Y-17765650D01*
X13955086Y-17784698D02*
X13964610Y-17775174D01*
X13964610Y-17775174D02*
X13983658Y-17765650D01*
X13983658Y-17765650D02*
X14012229Y-17765650D01*
X14012229Y-17765650D02*
X14031277Y-17775174D01*
X14031277Y-17775174D02*
X14040801Y-17794222D01*
X14040801Y-17794222D02*
X14040801Y-17898984D01*
X14040801Y-17794222D02*
X14050324Y-17775174D01*
X14050324Y-17775174D02*
X14069372Y-17765650D01*
X14069372Y-17765650D02*
X14097943Y-17765650D01*
X14097943Y-17765650D02*
X14116991Y-17775174D01*
X14116991Y-17775174D02*
X14126515Y-17794222D01*
X14126515Y-17794222D02*
X14126515Y-17898984D01*
X14516991Y-17689460D02*
X14345563Y-17946603D01*
X14774134Y-17698984D02*
X14793182Y-17698984D01*
X14793182Y-17698984D02*
X14812229Y-17708508D01*
X14812229Y-17708508D02*
X14821753Y-17718031D01*
X14821753Y-17718031D02*
X14831277Y-17737079D01*
X14831277Y-17737079D02*
X14840801Y-17775174D01*
X14840801Y-17775174D02*
X14840801Y-17822793D01*
X14840801Y-17822793D02*
X14831277Y-17860889D01*
X14831277Y-17860889D02*
X14821753Y-17879936D01*
X14821753Y-17879936D02*
X14812229Y-17889460D01*
X14812229Y-17889460D02*
X14793182Y-17898984D01*
X14793182Y-17898984D02*
X14774134Y-17898984D01*
X14774134Y-17898984D02*
X14755086Y-17889460D01*
X14755086Y-17889460D02*
X14745563Y-17879936D01*
X14745563Y-17879936D02*
X14736039Y-17860889D01*
X14736039Y-17860889D02*
X14726515Y-17822793D01*
X14726515Y-17822793D02*
X14726515Y-17775174D01*
X14726515Y-17775174D02*
X14736039Y-17737079D01*
X14736039Y-17737079D02*
X14745563Y-17718031D01*
X14745563Y-17718031D02*
X14755086Y-17708508D01*
X14755086Y-17708508D02*
X14774134Y-17698984D01*
X14926515Y-17879936D02*
X14936039Y-17889460D01*
X14936039Y-17889460D02*
X14926515Y-17898984D01*
X14926515Y-17898984D02*
X14916991Y-17889460D01*
X14916991Y-17889460D02*
X14926515Y-17879936D01*
X14926515Y-17879936D02*
X14926515Y-17898984D01*
X15059848Y-17698984D02*
X15078896Y-17698984D01*
X15078896Y-17698984D02*
X15097944Y-17708508D01*
X15097944Y-17708508D02*
X15107467Y-17718031D01*
X15107467Y-17718031D02*
X15116991Y-17737079D01*
X15116991Y-17737079D02*
X15126515Y-17775174D01*
X15126515Y-17775174D02*
X15126515Y-17822793D01*
X15126515Y-17822793D02*
X15116991Y-17860889D01*
X15116991Y-17860889D02*
X15107467Y-17879936D01*
X15107467Y-17879936D02*
X15097944Y-17889460D01*
X15097944Y-17889460D02*
X15078896Y-17898984D01*
X15078896Y-17898984D02*
X15059848Y-17898984D01*
X15059848Y-17898984D02*
X15040801Y-17889460D01*
X15040801Y-17889460D02*
X15031277Y-17879936D01*
X15031277Y-17879936D02*
X15021753Y-17860889D01*
X15021753Y-17860889D02*
X15012229Y-17822793D01*
X15012229Y-17822793D02*
X15012229Y-17775174D01*
X15012229Y-17775174D02*
X15021753Y-17737079D01*
X15021753Y-17737079D02*
X15031277Y-17718031D01*
X15031277Y-17718031D02*
X15040801Y-17708508D01*
X15040801Y-17708508D02*
X15059848Y-17698984D01*
X15193182Y-17698984D02*
X15316991Y-17698984D01*
X15316991Y-17698984D02*
X15250325Y-17775174D01*
X15250325Y-17775174D02*
X15278896Y-17775174D01*
X15278896Y-17775174D02*
X15297944Y-17784698D01*
X15297944Y-17784698D02*
X15307467Y-17794222D01*
X15307467Y-17794222D02*
X15316991Y-17813270D01*
X15316991Y-17813270D02*
X15316991Y-17860889D01*
X15316991Y-17860889D02*
X15307467Y-17879936D01*
X15307467Y-17879936D02*
X15297944Y-17889460D01*
X15297944Y-17889460D02*
X15278896Y-17898984D01*
X15278896Y-17898984D02*
X15221753Y-17898984D01*
X15221753Y-17898984D02*
X15202706Y-17889460D01*
X15202706Y-17889460D02*
X15193182Y-17879936D01*
X15412229Y-17898984D02*
X15450325Y-17898984D01*
X15450325Y-17898984D02*
X15469372Y-17889460D01*
X15469372Y-17889460D02*
X15478896Y-17879936D01*
X15478896Y-17879936D02*
X15497944Y-17851365D01*
X15497944Y-17851365D02*
X15507467Y-17813270D01*
X15507467Y-17813270D02*
X15507467Y-17737079D01*
X15507467Y-17737079D02*
X15497944Y-17718031D01*
X15497944Y-17718031D02*
X15488420Y-17708508D01*
X15488420Y-17708508D02*
X15469372Y-17698984D01*
X15469372Y-17698984D02*
X15431277Y-17698984D01*
X15431277Y-17698984D02*
X15412229Y-17708508D01*
X15412229Y-17708508D02*
X15402706Y-17718031D01*
X15402706Y-17718031D02*
X15393182Y-17737079D01*
X15393182Y-17737079D02*
X15393182Y-17784698D01*
X15393182Y-17784698D02*
X15402706Y-17803746D01*
X15402706Y-17803746D02*
X15412229Y-17813270D01*
X15412229Y-17813270D02*
X15431277Y-17822793D01*
X15431277Y-17822793D02*
X15469372Y-17822793D01*
X15469372Y-17822793D02*
X15488420Y-17813270D01*
X15488420Y-17813270D02*
X15497944Y-17803746D01*
X15497944Y-17803746D02*
X15507467Y-17784698D01*
X15678896Y-17765650D02*
X15678896Y-17898984D01*
X15631277Y-17689460D02*
X15583658Y-17832317D01*
X15583658Y-17832317D02*
X15707467Y-17832317D01*
X15774134Y-17698984D02*
X15774134Y-17737079D01*
X15850325Y-17698984D02*
X15850325Y-17737079D01*
X16145563Y-17975174D02*
X16136039Y-17965650D01*
X16136039Y-17965650D02*
X16116991Y-17937079D01*
X16116991Y-17937079D02*
X16107468Y-17918031D01*
X16107468Y-17918031D02*
X16097944Y-17889460D01*
X16097944Y-17889460D02*
X16088420Y-17841841D01*
X16088420Y-17841841D02*
X16088420Y-17803746D01*
X16088420Y-17803746D02*
X16097944Y-17756127D01*
X16097944Y-17756127D02*
X16107468Y-17727555D01*
X16107468Y-17727555D02*
X16116991Y-17708508D01*
X16116991Y-17708508D02*
X16136039Y-17679936D01*
X16136039Y-17679936D02*
X16145563Y-17670412D01*
X16202706Y-17698984D02*
X16336039Y-17698984D01*
X16336039Y-17698984D02*
X16250325Y-17898984D01*
X16402706Y-17718031D02*
X16412229Y-17708508D01*
X16412229Y-17708508D02*
X16431277Y-17698984D01*
X16431277Y-17698984D02*
X16478896Y-17698984D01*
X16478896Y-17698984D02*
X16497944Y-17708508D01*
X16497944Y-17708508D02*
X16507468Y-17718031D01*
X16507468Y-17718031D02*
X16516991Y-17737079D01*
X16516991Y-17737079D02*
X16516991Y-17756127D01*
X16516991Y-17756127D02*
X16507468Y-17784698D01*
X16507468Y-17784698D02*
X16393182Y-17898984D01*
X16393182Y-17898984D02*
X16516991Y-17898984D01*
X16755087Y-17898984D02*
X16755087Y-17698984D01*
X16840801Y-17898984D02*
X16840801Y-17794222D01*
X16840801Y-17794222D02*
X16831277Y-17775174D01*
X16831277Y-17775174D02*
X16812230Y-17765650D01*
X16812230Y-17765650D02*
X16783658Y-17765650D01*
X16783658Y-17765650D02*
X16764610Y-17775174D01*
X16764610Y-17775174D02*
X16755087Y-17784698D01*
X16964611Y-17898984D02*
X16945563Y-17889460D01*
X16945563Y-17889460D02*
X16936039Y-17879936D01*
X16936039Y-17879936D02*
X16926515Y-17860889D01*
X16926515Y-17860889D02*
X16926515Y-17803746D01*
X16926515Y-17803746D02*
X16936039Y-17784698D01*
X16936039Y-17784698D02*
X16945563Y-17775174D01*
X16945563Y-17775174D02*
X16964611Y-17765650D01*
X16964611Y-17765650D02*
X16993182Y-17765650D01*
X16993182Y-17765650D02*
X17012230Y-17775174D01*
X17012230Y-17775174D02*
X17021753Y-17784698D01*
X17021753Y-17784698D02*
X17031277Y-17803746D01*
X17031277Y-17803746D02*
X17031277Y-17860889D01*
X17031277Y-17860889D02*
X17021753Y-17879936D01*
X17021753Y-17879936D02*
X17012230Y-17889460D01*
X17012230Y-17889460D02*
X16993182Y-17898984D01*
X16993182Y-17898984D02*
X16964611Y-17898984D01*
X17145563Y-17898984D02*
X17126515Y-17889460D01*
X17126515Y-17889460D02*
X17116992Y-17870412D01*
X17116992Y-17870412D02*
X17116992Y-17698984D01*
X17297944Y-17889460D02*
X17278896Y-17898984D01*
X17278896Y-17898984D02*
X17240801Y-17898984D01*
X17240801Y-17898984D02*
X17221753Y-17889460D01*
X17221753Y-17889460D02*
X17212230Y-17870412D01*
X17212230Y-17870412D02*
X17212230Y-17794222D01*
X17212230Y-17794222D02*
X17221753Y-17775174D01*
X17221753Y-17775174D02*
X17240801Y-17765650D01*
X17240801Y-17765650D02*
X17278896Y-17765650D01*
X17278896Y-17765650D02*
X17297944Y-17775174D01*
X17297944Y-17775174D02*
X17307468Y-17794222D01*
X17307468Y-17794222D02*
X17307468Y-17813270D01*
X17307468Y-17813270D02*
X17212230Y-17832317D01*
X17383658Y-17889460D02*
X17402706Y-17898984D01*
X17402706Y-17898984D02*
X17440801Y-17898984D01*
X17440801Y-17898984D02*
X17459849Y-17889460D01*
X17459849Y-17889460D02*
X17469373Y-17870412D01*
X17469373Y-17870412D02*
X17469373Y-17860889D01*
X17469373Y-17860889D02*
X17459849Y-17841841D01*
X17459849Y-17841841D02*
X17440801Y-17832317D01*
X17440801Y-17832317D02*
X17412230Y-17832317D01*
X17412230Y-17832317D02*
X17393182Y-17822793D01*
X17393182Y-17822793D02*
X17383658Y-17803746D01*
X17383658Y-17803746D02*
X17383658Y-17794222D01*
X17383658Y-17794222D02*
X17393182Y-17775174D01*
X17393182Y-17775174D02*
X17412230Y-17765650D01*
X17412230Y-17765650D02*
X17440801Y-17765650D01*
X17440801Y-17765650D02*
X17459849Y-17775174D01*
X17536039Y-17975174D02*
X17545563Y-17965650D01*
X17545563Y-17965650D02*
X17564611Y-17937079D01*
X17564611Y-17937079D02*
X17574134Y-17918031D01*
X17574134Y-17918031D02*
X17583658Y-17889460D01*
X17583658Y-17889460D02*
X17593182Y-17841841D01*
X17593182Y-17841841D02*
X17593182Y-17803746D01*
X17593182Y-17803746D02*
X17583658Y-17756127D01*
X17583658Y-17756127D02*
X17574134Y-17727555D01*
X17574134Y-17727555D02*
X17564611Y-17708508D01*
X17564611Y-17708508D02*
X17545563Y-17679936D01*
X17545563Y-17679936D02*
X17536039Y-17670412D01*
M02*
