G04 #@! TF.GenerationSoftware,KiCad,Pcbnew,9.0.6*
G04 #@! TF.CreationDate,2026-01-02T14:08:44-06:00*
G04 #@! TF.ProjectId,QFN-68_8x8,51464e2d-3638-45f3-9878-382e6b696361,rev?*
G04 #@! TF.SameCoordinates,Original*
G04 #@! TF.FileFunction,Legend,Top*
G04 #@! TF.FilePolarity,Positive*
%FSLAX46Y46*%
G04 Gerber Fmt 4.6, Leading zero omitted, Abs format (unit mm)*
G04 Created by KiCad (PCBNEW 9.0.6) date 2026-01-02 14:08:44*
%MOMM*%
%LPD*%
G01*
G04 APERTURE LIST*
G04 Aperture macros list*
%AMRoundRect*
0 Rectangle with rounded corners*
0 $1 Rounding radius*
0 $2 $3 $4 $5 $6 $7 $8 $9 X,Y pos of 4 corners*
0 Add a 4 corners polygon primitive as box body*
4,1,4,$2,$3,$4,$5,$6,$7,$8,$9,$2,$3,0*
0 Add four circle primitives for the rounded corners*
1,1,$1+$1,$2,$3*
1,1,$1+$1,$4,$5*
1,1,$1+$1,$6,$7*
1,1,$1+$1,$8,$9*
0 Add four rect primitives between the rounded corners*
20,1,$1+$1,$2,$3,$4,$5,0*
20,1,$1+$1,$4,$5,$6,$7,0*
20,1,$1+$1,$6,$7,$8,$9,0*
20,1,$1+$1,$8,$9,$2,$3,0*%
%AMRotRect*
0 Rectangle, with rotation*
0 The origin of the aperture is its center*
0 $1 length*
0 $2 width*
0 $3 Rotation angle, in degrees counterclockwise*
0 Add horizontal line*
21,1,$1,$2,0,0,$3*%
G04 Aperture macros list end*
%ADD10C,0.100000*%
%ADD11C,0.300000*%
%ADD12C,0.200000*%
%ADD13C,0.120000*%
%ADD14C,0.000000*%
%ADD15RotRect,5.200000X5.200000X315.000000*%
%ADD16RoundRect,0.050000X-0.437522X-0.366812X-0.366812X-0.437522X0.437522X0.366812X0.366812X0.437522X0*%
%ADD17RoundRect,0.050000X-0.437522X0.366812X0.366812X-0.437522X0.437522X-0.366812X-0.366812X0.437522X0*%
%ADD18C,1.700000*%
G04 APERTURE END LIST*
D10*
X129878750Y-166073600D02*
X146439500Y-166073600D01*
X146439500Y-166480000D01*
X129878750Y-166480000D01*
X129878750Y-166073600D01*
G36*
X129878750Y-166073600D02*
G01*
X146439500Y-166073600D01*
X146439500Y-166480000D01*
X129878750Y-166480000D01*
X129878750Y-166073600D01*
G37*
X130293500Y-74930000D02*
X147489250Y-74930000D01*
X147489250Y-75209400D01*
X130293500Y-75209400D01*
X130293500Y-74930000D01*
G36*
X130293500Y-74930000D02*
G01*
X147489250Y-74930000D01*
X147489250Y-75209400D01*
X130293500Y-75209400D01*
X130293500Y-74930000D01*
G37*
X130496750Y-77190850D02*
X146168500Y-77190850D01*
X146168500Y-77597250D01*
X130496750Y-77597250D01*
X130496750Y-77190850D01*
G36*
X130496750Y-77190850D02*
G01*
X146168500Y-77190850D01*
X146168500Y-77597250D01*
X130496750Y-77597250D01*
X130496750Y-77190850D01*
G37*
X146067000Y-74930000D02*
X151240000Y-74930000D01*
X151240000Y-77597250D01*
X146067000Y-77597250D01*
X146067000Y-74930000D01*
G36*
X146067000Y-74930000D02*
G01*
X151240000Y-74930000D01*
X151240000Y-77597250D01*
X146067000Y-77597250D01*
X146067000Y-74930000D01*
G37*
D11*
G36*
X145376186Y-75644486D02*
G01*
X145476793Y-75745093D01*
X145529972Y-75851452D01*
X145592928Y-76103273D01*
X145592928Y-76280632D01*
X145529972Y-76532453D01*
X145476793Y-76638813D01*
X145376187Y-76739419D01*
X145218585Y-76791953D01*
X145035785Y-76791953D01*
X145035785Y-75591953D01*
X145218588Y-75591953D01*
X145376186Y-75644486D01*
G37*
G36*
X135868361Y-75636660D02*
G01*
X135905365Y-75673664D01*
X135950071Y-75763076D01*
X135950071Y-75906543D01*
X135905364Y-75995956D01*
X135868359Y-76032961D01*
X135778947Y-76077667D01*
X135392928Y-76077667D01*
X135392928Y-75591953D01*
X135778947Y-75591953D01*
X135868361Y-75636660D01*
G37*
G36*
X138891959Y-76363382D02*
G01*
X138593900Y-76363382D01*
X138742929Y-75916294D01*
X138891959Y-76363382D01*
G37*
G36*
X144034816Y-76363382D02*
G01*
X143736757Y-76363382D01*
X143885786Y-75916294D01*
X144034816Y-76363382D01*
G37*
G36*
X142725504Y-75636660D02*
G01*
X142762508Y-75673664D01*
X142807214Y-75763076D01*
X142807214Y-75906543D01*
X142762507Y-75995956D01*
X142725502Y-76032961D01*
X142636090Y-76077667D01*
X142250071Y-76077667D01*
X142250071Y-75591953D01*
X142636090Y-75591953D01*
X142725504Y-75636660D01*
G37*
G36*
X146059595Y-77258620D02*
G01*
X130643429Y-77258620D01*
X130643429Y-75412689D01*
X130810096Y-75412689D01*
X130810096Y-75471217D01*
X130832494Y-75525289D01*
X130873878Y-75566673D01*
X130927950Y-75589071D01*
X130957214Y-75591953D01*
X131235785Y-75591953D01*
X131235785Y-76941953D01*
X131238667Y-76971217D01*
X131261065Y-77025289D01*
X131302449Y-77066673D01*
X131356521Y-77089071D01*
X131415049Y-77089071D01*
X131469121Y-77066673D01*
X131510505Y-77025289D01*
X131532903Y-76971217D01*
X131535785Y-76941953D01*
X131535785Y-75591953D01*
X131814357Y-75591953D01*
X131843621Y-75589071D01*
X131897693Y-75566673D01*
X131939077Y-75525289D01*
X131961475Y-75471217D01*
X131961475Y-75441953D01*
X132164356Y-75441953D01*
X132164356Y-76941953D01*
X132167238Y-76971217D01*
X132189636Y-77025289D01*
X132231020Y-77066673D01*
X132285092Y-77089071D01*
X132343620Y-77089071D01*
X132397692Y-77066673D01*
X132439076Y-77025289D01*
X132461474Y-76971217D01*
X132464356Y-76941953D01*
X132464356Y-76306239D01*
X133021499Y-76306239D01*
X133021499Y-76941953D01*
X133024381Y-76971217D01*
X133046779Y-77025289D01*
X133088163Y-77066673D01*
X133142235Y-77089071D01*
X133200763Y-77089071D01*
X133254835Y-77066673D01*
X133296219Y-77025289D01*
X133318617Y-76971217D01*
X133321499Y-76941953D01*
X133321499Y-75441953D01*
X133735785Y-75441953D01*
X133735785Y-76941953D01*
X133738667Y-76971217D01*
X133761065Y-77025289D01*
X133802449Y-77066673D01*
X133856521Y-77089071D01*
X133885785Y-77091953D01*
X134600071Y-77091953D01*
X134629335Y-77089071D01*
X134683407Y-77066673D01*
X134724791Y-77025289D01*
X134747189Y-76971217D01*
X134747189Y-76912689D01*
X134724791Y-76858617D01*
X134683407Y-76817233D01*
X134629335Y-76794835D01*
X134600071Y-76791953D01*
X134035785Y-76791953D01*
X134035785Y-76306239D01*
X134385785Y-76306239D01*
X134415049Y-76303357D01*
X134469121Y-76280959D01*
X134510505Y-76239575D01*
X134532903Y-76185503D01*
X134532903Y-76126975D01*
X134510505Y-76072903D01*
X134469121Y-76031519D01*
X134415049Y-76009121D01*
X134385785Y-76006239D01*
X134035785Y-76006239D01*
X134035785Y-75591953D01*
X134600071Y-75591953D01*
X134629335Y-75589071D01*
X134683407Y-75566673D01*
X134724791Y-75525289D01*
X134747189Y-75471217D01*
X134747189Y-75441953D01*
X135092928Y-75441953D01*
X135092928Y-76941953D01*
X135095810Y-76971217D01*
X135118208Y-77025289D01*
X135159592Y-77066673D01*
X135213664Y-77089071D01*
X135272192Y-77089071D01*
X135326264Y-77066673D01*
X135367648Y-77025289D01*
X135390046Y-76971217D01*
X135392928Y-76941953D01*
X135392928Y-76377667D01*
X135521973Y-76377667D01*
X135977186Y-77027972D01*
X135996329Y-77050294D01*
X136045686Y-77081747D01*
X136103322Y-77091918D01*
X136160464Y-77079259D01*
X136208412Y-77045695D01*
X136239865Y-76996338D01*
X136250036Y-76938702D01*
X136237377Y-76881560D01*
X136222956Y-76855934D01*
X135878004Y-76363145D01*
X135881439Y-76361831D01*
X136024296Y-76290403D01*
X136036889Y-76282475D01*
X136040549Y-76280960D01*
X136044668Y-76277578D01*
X136049182Y-76274738D01*
X136051778Y-76271744D01*
X136063280Y-76262305D01*
X136134709Y-76190876D01*
X136144150Y-76179371D01*
X136147142Y-76176777D01*
X136149980Y-76172267D01*
X136153364Y-76168145D01*
X136154880Y-76164483D01*
X136162807Y-76151892D01*
X136234235Y-76009034D01*
X136244745Y-75981571D01*
X136245126Y-75976195D01*
X136247189Y-75971217D01*
X136250071Y-75941953D01*
X136250071Y-75727667D01*
X136247189Y-75698403D01*
X136245126Y-75693424D01*
X136244745Y-75688049D01*
X136234235Y-75660586D01*
X136162807Y-75517728D01*
X136154878Y-75505133D01*
X136153363Y-75501474D01*
X136149981Y-75497353D01*
X136147142Y-75492843D01*
X136144150Y-75490248D01*
X136134708Y-75478743D01*
X136097917Y-75441953D01*
X136592928Y-75441953D01*
X136592928Y-76941953D01*
X136595810Y-76971217D01*
X136618208Y-77025289D01*
X136659592Y-77066673D01*
X136713664Y-77089071D01*
X136772192Y-77089071D01*
X136826264Y-77066673D01*
X136867648Y-77025289D01*
X136890046Y-76971217D01*
X136892928Y-76941953D01*
X136892928Y-76118086D01*
X137107001Y-76576815D01*
X137113347Y-76587528D01*
X137114668Y-76591160D01*
X137117019Y-76593728D01*
X137121988Y-76602115D01*
X137138793Y-76617505D01*
X137154195Y-76634323D01*
X137160238Y-76637143D01*
X137165151Y-76641642D01*
X137186571Y-76649431D01*
X137207233Y-76659073D01*
X137213890Y-76659365D01*
X137220153Y-76661643D01*
X137242932Y-76660642D01*
X137265703Y-76661643D01*
X137271962Y-76659366D01*
X137278624Y-76659074D01*
X137299291Y-76649429D01*
X137320706Y-76641642D01*
X137325619Y-76637142D01*
X137331661Y-76634323D01*
X137347056Y-76617510D01*
X137363869Y-76602115D01*
X137368837Y-76593726D01*
X137371188Y-76591160D01*
X137372507Y-76587530D01*
X137378855Y-76576815D01*
X137592928Y-76118087D01*
X137592928Y-76941953D01*
X137595810Y-76971217D01*
X137618208Y-77025289D01*
X137659592Y-77066673D01*
X137713664Y-77089071D01*
X137772192Y-77089071D01*
X137826264Y-77066673D01*
X137867648Y-77025289D01*
X137890046Y-76971217D01*
X137892928Y-76941953D01*
X137892928Y-76923192D01*
X138094107Y-76923192D01*
X138098256Y-76981573D01*
X138124430Y-77033920D01*
X138168644Y-77072267D01*
X138224168Y-77090775D01*
X138282549Y-77086626D01*
X138334896Y-77060452D01*
X138373243Y-77016238D01*
X138385231Y-76989387D01*
X138493900Y-76663382D01*
X138991959Y-76663382D01*
X139100627Y-76989387D01*
X139112615Y-77016238D01*
X139150962Y-77060453D01*
X139203310Y-77086626D01*
X139261690Y-77090776D01*
X139317214Y-77072267D01*
X139361428Y-77033920D01*
X139387602Y-76981573D01*
X139391752Y-76923193D01*
X139385232Y-76894519D01*
X138901042Y-75441953D01*
X139592928Y-75441953D01*
X139592928Y-76941953D01*
X139595810Y-76971217D01*
X139618208Y-77025289D01*
X139659592Y-77066673D01*
X139713664Y-77089071D01*
X139742928Y-77091953D01*
X140457214Y-77091953D01*
X140486478Y-77089071D01*
X140540550Y-77066673D01*
X140581934Y-77025289D01*
X140604332Y-76971217D01*
X140604332Y-76912689D01*
X140581934Y-76858617D01*
X140540550Y-76817233D01*
X140486478Y-76794835D01*
X140457214Y-76791953D01*
X139892928Y-76791953D01*
X139892928Y-75441953D01*
X141950071Y-75441953D01*
X141950071Y-76941953D01*
X141952953Y-76971217D01*
X141975351Y-77025289D01*
X142016735Y-77066673D01*
X142070807Y-77089071D01*
X142129335Y-77089071D01*
X142183407Y-77066673D01*
X142224791Y-77025289D01*
X142247189Y-76971217D01*
X142250071Y-76941953D01*
X142250071Y-76923192D01*
X143236964Y-76923192D01*
X143241113Y-76981573D01*
X143267287Y-77033920D01*
X143311501Y-77072267D01*
X143367025Y-77090775D01*
X143425406Y-77086626D01*
X143477753Y-77060452D01*
X143516100Y-77016238D01*
X143528088Y-76989387D01*
X143636757Y-76663382D01*
X144134816Y-76663382D01*
X144243484Y-76989387D01*
X144255472Y-77016238D01*
X144293819Y-77060453D01*
X144346167Y-77086626D01*
X144404547Y-77090776D01*
X144460071Y-77072267D01*
X144504285Y-77033920D01*
X144530459Y-76981573D01*
X144534609Y-76923193D01*
X144528089Y-76894519D01*
X144043899Y-75441953D01*
X144735785Y-75441953D01*
X144735785Y-76941953D01*
X144738667Y-76971217D01*
X144761065Y-77025289D01*
X144802449Y-77066673D01*
X144856521Y-77089071D01*
X144885785Y-77091953D01*
X145242928Y-77091953D01*
X145257733Y-77090494D01*
X145261688Y-77090776D01*
X145266889Y-77089593D01*
X145272192Y-77089071D01*
X145275849Y-77087555D01*
X145290362Y-77084256D01*
X145504648Y-77012828D01*
X145531499Y-77000840D01*
X145535570Y-76997308D01*
X145540550Y-76995246D01*
X145563280Y-76976591D01*
X145706137Y-76833733D01*
X145715575Y-76822231D01*
X145718570Y-76819635D01*
X145721410Y-76815121D01*
X145724792Y-76811002D01*
X145726307Y-76807342D01*
X145734235Y-76794749D01*
X145805664Y-76651893D01*
X145806483Y-76649750D01*
X145807128Y-76648881D01*
X145811512Y-76636609D01*
X145816173Y-76624429D01*
X145816249Y-76623348D01*
X145817021Y-76621190D01*
X145888449Y-76335476D01*
X145889198Y-76330404D01*
X145890046Y-76328360D01*
X145891131Y-76317337D01*
X145892751Y-76306387D01*
X145892425Y-76304199D01*
X145892928Y-76299096D01*
X145892928Y-76084810D01*
X145892425Y-76079706D01*
X145892751Y-76077519D01*
X145891131Y-76066568D01*
X145890046Y-76055546D01*
X145889198Y-76053501D01*
X145888449Y-76048430D01*
X145817021Y-75762716D01*
X145816249Y-75760557D01*
X145816173Y-75759477D01*
X145811512Y-75747296D01*
X145807128Y-75735025D01*
X145806483Y-75734155D01*
X145805664Y-75732013D01*
X145734235Y-75589157D01*
X145726308Y-75576565D01*
X145724792Y-75572903D01*
X145721408Y-75568780D01*
X145718570Y-75564271D01*
X145715577Y-75561675D01*
X145706137Y-75550173D01*
X145563280Y-75407316D01*
X145540549Y-75388661D01*
X145535569Y-75386598D01*
X145531499Y-75383068D01*
X145504648Y-75371079D01*
X145290362Y-75299651D01*
X145275854Y-75296352D01*
X145272192Y-75294835D01*
X145266883Y-75294312D01*
X145261689Y-75293131D01*
X145257739Y-75293411D01*
X145242928Y-75291953D01*
X144885785Y-75291953D01*
X144856521Y-75294835D01*
X144802449Y-75317233D01*
X144761065Y-75358617D01*
X144738667Y-75412689D01*
X144735785Y-75441953D01*
X144043899Y-75441953D01*
X144028088Y-75394519D01*
X144016100Y-75367668D01*
X144009077Y-75359571D01*
X144004285Y-75349986D01*
X143990076Y-75337662D01*
X143977753Y-75323454D01*
X143968167Y-75318661D01*
X143960071Y-75311639D01*
X143942227Y-75305690D01*
X143925406Y-75297280D01*
X143914717Y-75296520D01*
X143904547Y-75293130D01*
X143885781Y-75294463D01*
X143867025Y-75293131D01*
X143856857Y-75296520D01*
X143846167Y-75297280D01*
X143829343Y-75305691D01*
X143811501Y-75311639D01*
X143803406Y-75318659D01*
X143793819Y-75323453D01*
X143781493Y-75337664D01*
X143767287Y-75349986D01*
X143762494Y-75359570D01*
X143755472Y-75367668D01*
X143743484Y-75394519D01*
X143243484Y-76894519D01*
X143236964Y-76923192D01*
X142250071Y-76923192D01*
X142250071Y-76377667D01*
X142671500Y-76377667D01*
X142700764Y-76374785D01*
X142705742Y-76372722D01*
X142711118Y-76372341D01*
X142738582Y-76361831D01*
X142881439Y-76290403D01*
X142894032Y-76282475D01*
X142897692Y-76280960D01*
X142901811Y-76277578D01*
X142906325Y-76274738D01*
X142908921Y-76271744D01*
X142920423Y-76262305D01*
X142991852Y-76190876D01*
X143001293Y-76179371D01*
X143004285Y-76176777D01*
X143007123Y-76172267D01*
X143010507Y-76168145D01*
X143012023Y-76164483D01*
X143019950Y-76151892D01*
X143091378Y-76009034D01*
X143101888Y-75981571D01*
X143102269Y-75976195D01*
X143104332Y-75971217D01*
X143107214Y-75941953D01*
X143107214Y-75727667D01*
X143104332Y-75698403D01*
X143102269Y-75693424D01*
X143101888Y-75688049D01*
X143091378Y-75660586D01*
X143019950Y-75517728D01*
X143012021Y-75505133D01*
X143010506Y-75501474D01*
X143007124Y-75497353D01*
X143004285Y-75492843D01*
X143001293Y-75490248D01*
X142991851Y-75478743D01*
X142920422Y-75407315D01*
X142908922Y-75397877D01*
X142906325Y-75394883D01*
X142901808Y-75392040D01*
X142897691Y-75388661D01*
X142894034Y-75387146D01*
X142881439Y-75379218D01*
X142738582Y-75307789D01*
X142711119Y-75297280D01*
X142705744Y-75296898D01*
X142700764Y-75294835D01*
X142671500Y-75291953D01*
X142100071Y-75291953D01*
X142070807Y-75294835D01*
X142016735Y-75317233D01*
X141975351Y-75358617D01*
X141952953Y-75412689D01*
X141950071Y-75441953D01*
X139892928Y-75441953D01*
X139890046Y-75412689D01*
X139867648Y-75358617D01*
X139826264Y-75317233D01*
X139772192Y-75294835D01*
X139713664Y-75294835D01*
X139659592Y-75317233D01*
X139618208Y-75358617D01*
X139595810Y-75412689D01*
X139592928Y-75441953D01*
X138901042Y-75441953D01*
X138885231Y-75394519D01*
X138873243Y-75367668D01*
X138866220Y-75359571D01*
X138861428Y-75349986D01*
X138847219Y-75337662D01*
X138834896Y-75323454D01*
X138825310Y-75318661D01*
X138817214Y-75311639D01*
X138799370Y-75305690D01*
X138782549Y-75297280D01*
X138771860Y-75296520D01*
X138761690Y-75293130D01*
X138742924Y-75294463D01*
X138724168Y-75293131D01*
X138714000Y-75296520D01*
X138703310Y-75297280D01*
X138686486Y-75305691D01*
X138668644Y-75311639D01*
X138660549Y-75318659D01*
X138650962Y-75323453D01*
X138638636Y-75337664D01*
X138624430Y-75349986D01*
X138619637Y-75359570D01*
X138612615Y-75367668D01*
X138600627Y-75394519D01*
X138100627Y-76894519D01*
X138094107Y-76923192D01*
X137892928Y-76923192D01*
X137892928Y-75441953D01*
X137891033Y-75422715D01*
X137891189Y-75419177D01*
X137890497Y-75417276D01*
X137890046Y-75412689D01*
X137880085Y-75388643D01*
X137871188Y-75364175D01*
X137868928Y-75361707D01*
X137867648Y-75358617D01*
X137849250Y-75340219D01*
X137831661Y-75321012D01*
X137828627Y-75319596D01*
X137826264Y-75317233D01*
X137802233Y-75307279D01*
X137778624Y-75296261D01*
X137775279Y-75296114D01*
X137772192Y-75294835D01*
X137746168Y-75294835D01*
X137720153Y-75293692D01*
X137717010Y-75294835D01*
X137713664Y-75294835D01*
X137689611Y-75304798D01*
X137665151Y-75313693D01*
X137662683Y-75315952D01*
X137659592Y-75317233D01*
X137641183Y-75335641D01*
X137621988Y-75353220D01*
X137619638Y-75357186D01*
X137618208Y-75358617D01*
X137616852Y-75361889D01*
X137607001Y-75378520D01*
X137242928Y-76158676D01*
X136878855Y-75378520D01*
X136869001Y-75361885D01*
X136867648Y-75358617D01*
X136866219Y-75357188D01*
X136863869Y-75353220D01*
X136844661Y-75335630D01*
X136826264Y-75317233D01*
X136823173Y-75315952D01*
X136820706Y-75313693D01*
X136796240Y-75304796D01*
X136772192Y-75294835D01*
X136768846Y-75294835D01*
X136765703Y-75293692D01*
X136739699Y-75294835D01*
X136713664Y-75294835D01*
X136710573Y-75296115D01*
X136707233Y-75296262D01*
X136683637Y-75307272D01*
X136659592Y-75317233D01*
X136657228Y-75319596D01*
X136654195Y-75321012D01*
X136636605Y-75340219D01*
X136618208Y-75358617D01*
X136616927Y-75361707D01*
X136614668Y-75364175D01*
X136605771Y-75388640D01*
X136595810Y-75412689D01*
X136595358Y-75417277D01*
X136594667Y-75419178D01*
X136594822Y-75422716D01*
X136592928Y-75441953D01*
X136097917Y-75441953D01*
X136063279Y-75407315D01*
X136051779Y-75397877D01*
X136049182Y-75394883D01*
X136044665Y-75392040D01*
X136040548Y-75388661D01*
X136036891Y-75387146D01*
X136024296Y-75379218D01*
X135881439Y-75307789D01*
X135853976Y-75297280D01*
X135848601Y-75296898D01*
X135843621Y-75294835D01*
X135814357Y-75291953D01*
X135242928Y-75291953D01*
X135213664Y-75294835D01*
X135159592Y-75317233D01*
X135118208Y-75358617D01*
X135095810Y-75412689D01*
X135092928Y-75441953D01*
X134747189Y-75441953D01*
X134747189Y-75412689D01*
X134724791Y-75358617D01*
X134683407Y-75317233D01*
X134629335Y-75294835D01*
X134600071Y-75291953D01*
X133885785Y-75291953D01*
X133856521Y-75294835D01*
X133802449Y-75317233D01*
X133761065Y-75358617D01*
X133738667Y-75412689D01*
X133735785Y-75441953D01*
X133321499Y-75441953D01*
X133318617Y-75412689D01*
X133296219Y-75358617D01*
X133254835Y-75317233D01*
X133200763Y-75294835D01*
X133142235Y-75294835D01*
X133088163Y-75317233D01*
X133046779Y-75358617D01*
X133024381Y-75412689D01*
X133021499Y-75441953D01*
X133021499Y-76006239D01*
X132464356Y-76006239D01*
X132464356Y-75441953D01*
X132461474Y-75412689D01*
X132439076Y-75358617D01*
X132397692Y-75317233D01*
X132343620Y-75294835D01*
X132285092Y-75294835D01*
X132231020Y-75317233D01*
X132189636Y-75358617D01*
X132167238Y-75412689D01*
X132164356Y-75441953D01*
X131961475Y-75441953D01*
X131961475Y-75412689D01*
X131939077Y-75358617D01*
X131897693Y-75317233D01*
X131843621Y-75294835D01*
X131814357Y-75291953D01*
X130957214Y-75291953D01*
X130927950Y-75294835D01*
X130873878Y-75317233D01*
X130832494Y-75358617D01*
X130810096Y-75412689D01*
X130643429Y-75412689D01*
X130643429Y-75125286D01*
X146059595Y-75125286D01*
X146059595Y-77258620D01*
G37*
D12*
X147093326Y-78192219D02*
X146902850Y-78192219D01*
X146902850Y-78192219D02*
X146807612Y-78239838D01*
X146807612Y-78239838D02*
X146759993Y-78287457D01*
X146759993Y-78287457D02*
X146664755Y-78430314D01*
X146664755Y-78430314D02*
X146617136Y-78620790D01*
X146617136Y-78620790D02*
X146617136Y-79001742D01*
X146617136Y-79001742D02*
X146664755Y-79096980D01*
X146664755Y-79096980D02*
X146712374Y-79144600D01*
X146712374Y-79144600D02*
X146807612Y-79192219D01*
X146807612Y-79192219D02*
X146998088Y-79192219D01*
X146998088Y-79192219D02*
X147093326Y-79144600D01*
X147093326Y-79144600D02*
X147140945Y-79096980D01*
X147140945Y-79096980D02*
X147188564Y-79001742D01*
X147188564Y-79001742D02*
X147188564Y-78763647D01*
X147188564Y-78763647D02*
X147140945Y-78668409D01*
X147140945Y-78668409D02*
X147093326Y-78620790D01*
X147093326Y-78620790D02*
X146998088Y-78573171D01*
X146998088Y-78573171D02*
X146807612Y-78573171D01*
X146807612Y-78573171D02*
X146712374Y-78620790D01*
X146712374Y-78620790D02*
X146664755Y-78668409D01*
X146664755Y-78668409D02*
X146617136Y-78763647D01*
X147759993Y-78620790D02*
X147664755Y-78573171D01*
X147664755Y-78573171D02*
X147617136Y-78525552D01*
X147617136Y-78525552D02*
X147569517Y-78430314D01*
X147569517Y-78430314D02*
X147569517Y-78382695D01*
X147569517Y-78382695D02*
X147617136Y-78287457D01*
X147617136Y-78287457D02*
X147664755Y-78239838D01*
X147664755Y-78239838D02*
X147759993Y-78192219D01*
X147759993Y-78192219D02*
X147950469Y-78192219D01*
X147950469Y-78192219D02*
X148045707Y-78239838D01*
X148045707Y-78239838D02*
X148093326Y-78287457D01*
X148093326Y-78287457D02*
X148140945Y-78382695D01*
X148140945Y-78382695D02*
X148140945Y-78430314D01*
X148140945Y-78430314D02*
X148093326Y-78525552D01*
X148093326Y-78525552D02*
X148045707Y-78573171D01*
X148045707Y-78573171D02*
X147950469Y-78620790D01*
X147950469Y-78620790D02*
X147759993Y-78620790D01*
X147759993Y-78620790D02*
X147664755Y-78668409D01*
X147664755Y-78668409D02*
X147617136Y-78716028D01*
X147617136Y-78716028D02*
X147569517Y-78811266D01*
X147569517Y-78811266D02*
X147569517Y-79001742D01*
X147569517Y-79001742D02*
X147617136Y-79096980D01*
X147617136Y-79096980D02*
X147664755Y-79144600D01*
X147664755Y-79144600D02*
X147759993Y-79192219D01*
X147759993Y-79192219D02*
X147950469Y-79192219D01*
X147950469Y-79192219D02*
X148045707Y-79144600D01*
X148045707Y-79144600D02*
X148093326Y-79096980D01*
X148093326Y-79096980D02*
X148140945Y-79001742D01*
X148140945Y-79001742D02*
X148140945Y-78811266D01*
X148140945Y-78811266D02*
X148093326Y-78716028D01*
X148093326Y-78716028D02*
X148045707Y-78668409D01*
X148045707Y-78668409D02*
X147950469Y-78620790D01*
X146569517Y-162012219D02*
X147188564Y-162012219D01*
X147188564Y-162012219D02*
X146855231Y-162393171D01*
X146855231Y-162393171D02*
X146998088Y-162393171D01*
X146998088Y-162393171D02*
X147093326Y-162440790D01*
X147093326Y-162440790D02*
X147140945Y-162488409D01*
X147140945Y-162488409D02*
X147188564Y-162583647D01*
X147188564Y-162583647D02*
X147188564Y-162821742D01*
X147188564Y-162821742D02*
X147140945Y-162916980D01*
X147140945Y-162916980D02*
X147093326Y-162964600D01*
X147093326Y-162964600D02*
X146998088Y-163012219D01*
X146998088Y-163012219D02*
X146712374Y-163012219D01*
X146712374Y-163012219D02*
X146617136Y-162964600D01*
X146617136Y-162964600D02*
X146569517Y-162916980D01*
X148093326Y-162012219D02*
X147617136Y-162012219D01*
X147617136Y-162012219D02*
X147569517Y-162488409D01*
X147569517Y-162488409D02*
X147617136Y-162440790D01*
X147617136Y-162440790D02*
X147712374Y-162393171D01*
X147712374Y-162393171D02*
X147950469Y-162393171D01*
X147950469Y-162393171D02*
X148045707Y-162440790D01*
X148045707Y-162440790D02*
X148093326Y-162488409D01*
X148093326Y-162488409D02*
X148140945Y-162583647D01*
X148140945Y-162583647D02*
X148140945Y-162821742D01*
X148140945Y-162821742D02*
X148093326Y-162916980D01*
X148093326Y-162916980D02*
X148045707Y-162964600D01*
X148045707Y-162964600D02*
X147950469Y-163012219D01*
X147950469Y-163012219D02*
X147712374Y-163012219D01*
X147712374Y-163012219D02*
X147617136Y-162964600D01*
X147617136Y-162964600D02*
X147569517Y-162916980D01*
X128671435Y-162012219D02*
X129290482Y-162012219D01*
X129290482Y-162012219D02*
X128957149Y-162393171D01*
X128957149Y-162393171D02*
X129100006Y-162393171D01*
X129100006Y-162393171D02*
X129195244Y-162440790D01*
X129195244Y-162440790D02*
X129242863Y-162488409D01*
X129242863Y-162488409D02*
X129290482Y-162583647D01*
X129290482Y-162583647D02*
X129290482Y-162821742D01*
X129290482Y-162821742D02*
X129242863Y-162916980D01*
X129242863Y-162916980D02*
X129195244Y-162964600D01*
X129195244Y-162964600D02*
X129100006Y-163012219D01*
X129100006Y-163012219D02*
X128814292Y-163012219D01*
X128814292Y-163012219D02*
X128719054Y-162964600D01*
X128719054Y-162964600D02*
X128671435Y-162916980D01*
X130147625Y-162345552D02*
X130147625Y-163012219D01*
X129909530Y-161964600D02*
X129671435Y-162678885D01*
X129671435Y-162678885D02*
X130290482Y-162678885D01*
X129290482Y-79192219D02*
X128719054Y-79192219D01*
X129004768Y-79192219D02*
X129004768Y-78192219D01*
X129004768Y-78192219D02*
X128909530Y-78335076D01*
X128909530Y-78335076D02*
X128814292Y-78430314D01*
X128814292Y-78430314D02*
X128719054Y-78477933D01*
D10*
X125603000Y-74930000D02*
X130733750Y-74930000D01*
X130733750Y-77597250D01*
X125603000Y-77597250D01*
X125603000Y-74930000D01*
G36*
X125603000Y-74930000D02*
G01*
X130733750Y-74930000D01*
X130733750Y-77597250D01*
X125603000Y-77597250D01*
X125603000Y-74930000D01*
G37*
X128443605Y-129540000D02*
X148411941Y-129540000D01*
X148411941Y-157480000D01*
X128443605Y-157480000D01*
X128443605Y-129540000D01*
G36*
X128443605Y-129540000D02*
G01*
X148411941Y-129540000D01*
X148411941Y-157480000D01*
X128443605Y-157480000D01*
X128443605Y-129540000D01*
G37*
X128417739Y-96520000D02*
X148458532Y-96520000D01*
X148458532Y-111760000D01*
X128417739Y-111760000D01*
X128417739Y-96520000D01*
G36*
X128417739Y-96520000D02*
G01*
X148458532Y-96520000D01*
X148458532Y-111760000D01*
X128417739Y-111760000D01*
X128417739Y-96520000D01*
G37*
D12*
X136287142Y-159671388D02*
X136191904Y-159623769D01*
X136191904Y-159623769D02*
X136096666Y-159528531D01*
X136096666Y-159528531D02*
X135953809Y-159385673D01*
X135953809Y-159385673D02*
X135858571Y-159338054D01*
X135858571Y-159338054D02*
X135763333Y-159338054D01*
X135810952Y-159576150D02*
X135715714Y-159528531D01*
X135715714Y-159528531D02*
X135620476Y-159433292D01*
X135620476Y-159433292D02*
X135572857Y-159242816D01*
X135572857Y-159242816D02*
X135572857Y-158909483D01*
X135572857Y-158909483D02*
X135620476Y-158719007D01*
X135620476Y-158719007D02*
X135715714Y-158623769D01*
X135715714Y-158623769D02*
X135810952Y-158576150D01*
X135810952Y-158576150D02*
X136001428Y-158576150D01*
X136001428Y-158576150D02*
X136096666Y-158623769D01*
X136096666Y-158623769D02*
X136191904Y-158719007D01*
X136191904Y-158719007D02*
X136239523Y-158909483D01*
X136239523Y-158909483D02*
X136239523Y-159242816D01*
X136239523Y-159242816D02*
X136191904Y-159433292D01*
X136191904Y-159433292D02*
X136096666Y-159528531D01*
X136096666Y-159528531D02*
X136001428Y-159576150D01*
X136001428Y-159576150D02*
X135810952Y-159576150D01*
X137001428Y-159052340D02*
X136668095Y-159052340D01*
X136668095Y-159576150D02*
X136668095Y-158576150D01*
X136668095Y-158576150D02*
X137144285Y-158576150D01*
X137525238Y-159576150D02*
X137525238Y-158576150D01*
X137525238Y-158576150D02*
X138096666Y-159576150D01*
X138096666Y-159576150D02*
X138096666Y-158576150D01*
X138572857Y-159195197D02*
X139334762Y-159195197D01*
X140239523Y-158576150D02*
X140049047Y-158576150D01*
X140049047Y-158576150D02*
X139953809Y-158623769D01*
X139953809Y-158623769D02*
X139906190Y-158671388D01*
X139906190Y-158671388D02*
X139810952Y-158814245D01*
X139810952Y-158814245D02*
X139763333Y-159004721D01*
X139763333Y-159004721D02*
X139763333Y-159385673D01*
X139763333Y-159385673D02*
X139810952Y-159480911D01*
X139810952Y-159480911D02*
X139858571Y-159528531D01*
X139858571Y-159528531D02*
X139953809Y-159576150D01*
X139953809Y-159576150D02*
X140144285Y-159576150D01*
X140144285Y-159576150D02*
X140239523Y-159528531D01*
X140239523Y-159528531D02*
X140287142Y-159480911D01*
X140287142Y-159480911D02*
X140334761Y-159385673D01*
X140334761Y-159385673D02*
X140334761Y-159147578D01*
X140334761Y-159147578D02*
X140287142Y-159052340D01*
X140287142Y-159052340D02*
X140239523Y-159004721D01*
X140239523Y-159004721D02*
X140144285Y-158957102D01*
X140144285Y-158957102D02*
X139953809Y-158957102D01*
X139953809Y-158957102D02*
X139858571Y-159004721D01*
X139858571Y-159004721D02*
X139810952Y-159052340D01*
X139810952Y-159052340D02*
X139763333Y-159147578D01*
X140906190Y-159004721D02*
X140810952Y-158957102D01*
X140810952Y-158957102D02*
X140763333Y-158909483D01*
X140763333Y-158909483D02*
X140715714Y-158814245D01*
X140715714Y-158814245D02*
X140715714Y-158766626D01*
X140715714Y-158766626D02*
X140763333Y-158671388D01*
X140763333Y-158671388D02*
X140810952Y-158623769D01*
X140810952Y-158623769D02*
X140906190Y-158576150D01*
X140906190Y-158576150D02*
X141096666Y-158576150D01*
X141096666Y-158576150D02*
X141191904Y-158623769D01*
X141191904Y-158623769D02*
X141239523Y-158671388D01*
X141239523Y-158671388D02*
X141287142Y-158766626D01*
X141287142Y-158766626D02*
X141287142Y-158814245D01*
X141287142Y-158814245D02*
X141239523Y-158909483D01*
X141239523Y-158909483D02*
X141191904Y-158957102D01*
X141191904Y-158957102D02*
X141096666Y-159004721D01*
X141096666Y-159004721D02*
X140906190Y-159004721D01*
X140906190Y-159004721D02*
X140810952Y-159052340D01*
X140810952Y-159052340D02*
X140763333Y-159099959D01*
X140763333Y-159099959D02*
X140715714Y-159195197D01*
X140715714Y-159195197D02*
X140715714Y-159385673D01*
X140715714Y-159385673D02*
X140763333Y-159480911D01*
X140763333Y-159480911D02*
X140810952Y-159528531D01*
X140810952Y-159528531D02*
X140906190Y-159576150D01*
X140906190Y-159576150D02*
X141096666Y-159576150D01*
X141096666Y-159576150D02*
X141191904Y-159528531D01*
X141191904Y-159528531D02*
X141239523Y-159480911D01*
X141239523Y-159480911D02*
X141287142Y-159385673D01*
X141287142Y-159385673D02*
X141287142Y-159195197D01*
X141287142Y-159195197D02*
X141239523Y-159099959D01*
X141239523Y-159099959D02*
X141191904Y-159052340D01*
X141191904Y-159052340D02*
X141096666Y-159004721D01*
X136120476Y-160614665D02*
X136025238Y-160567046D01*
X136025238Y-160567046D02*
X135977619Y-160519427D01*
X135977619Y-160519427D02*
X135930000Y-160424189D01*
X135930000Y-160424189D02*
X135930000Y-160376570D01*
X135930000Y-160376570D02*
X135977619Y-160281332D01*
X135977619Y-160281332D02*
X136025238Y-160233713D01*
X136025238Y-160233713D02*
X136120476Y-160186094D01*
X136120476Y-160186094D02*
X136310952Y-160186094D01*
X136310952Y-160186094D02*
X136406190Y-160233713D01*
X136406190Y-160233713D02*
X136453809Y-160281332D01*
X136453809Y-160281332D02*
X136501428Y-160376570D01*
X136501428Y-160376570D02*
X136501428Y-160424189D01*
X136501428Y-160424189D02*
X136453809Y-160519427D01*
X136453809Y-160519427D02*
X136406190Y-160567046D01*
X136406190Y-160567046D02*
X136310952Y-160614665D01*
X136310952Y-160614665D02*
X136120476Y-160614665D01*
X136120476Y-160614665D02*
X136025238Y-160662284D01*
X136025238Y-160662284D02*
X135977619Y-160709903D01*
X135977619Y-160709903D02*
X135930000Y-160805141D01*
X135930000Y-160805141D02*
X135930000Y-160995617D01*
X135930000Y-160995617D02*
X135977619Y-161090855D01*
X135977619Y-161090855D02*
X136025238Y-161138475D01*
X136025238Y-161138475D02*
X136120476Y-161186094D01*
X136120476Y-161186094D02*
X136310952Y-161186094D01*
X136310952Y-161186094D02*
X136406190Y-161138475D01*
X136406190Y-161138475D02*
X136453809Y-161090855D01*
X136453809Y-161090855D02*
X136501428Y-160995617D01*
X136501428Y-160995617D02*
X136501428Y-160805141D01*
X136501428Y-160805141D02*
X136453809Y-160709903D01*
X136453809Y-160709903D02*
X136406190Y-160662284D01*
X136406190Y-160662284D02*
X136310952Y-160614665D01*
X136834762Y-161186094D02*
X137358571Y-160519427D01*
X136834762Y-160519427D02*
X137358571Y-161186094D01*
X137882381Y-160614665D02*
X137787143Y-160567046D01*
X137787143Y-160567046D02*
X137739524Y-160519427D01*
X137739524Y-160519427D02*
X137691905Y-160424189D01*
X137691905Y-160424189D02*
X137691905Y-160376570D01*
X137691905Y-160376570D02*
X137739524Y-160281332D01*
X137739524Y-160281332D02*
X137787143Y-160233713D01*
X137787143Y-160233713D02*
X137882381Y-160186094D01*
X137882381Y-160186094D02*
X138072857Y-160186094D01*
X138072857Y-160186094D02*
X138168095Y-160233713D01*
X138168095Y-160233713D02*
X138215714Y-160281332D01*
X138215714Y-160281332D02*
X138263333Y-160376570D01*
X138263333Y-160376570D02*
X138263333Y-160424189D01*
X138263333Y-160424189D02*
X138215714Y-160519427D01*
X138215714Y-160519427D02*
X138168095Y-160567046D01*
X138168095Y-160567046D02*
X138072857Y-160614665D01*
X138072857Y-160614665D02*
X137882381Y-160614665D01*
X137882381Y-160614665D02*
X137787143Y-160662284D01*
X137787143Y-160662284D02*
X137739524Y-160709903D01*
X137739524Y-160709903D02*
X137691905Y-160805141D01*
X137691905Y-160805141D02*
X137691905Y-160995617D01*
X137691905Y-160995617D02*
X137739524Y-161090855D01*
X137739524Y-161090855D02*
X137787143Y-161138475D01*
X137787143Y-161138475D02*
X137882381Y-161186094D01*
X137882381Y-161186094D02*
X138072857Y-161186094D01*
X138072857Y-161186094D02*
X138168095Y-161138475D01*
X138168095Y-161138475D02*
X138215714Y-161090855D01*
X138215714Y-161090855D02*
X138263333Y-160995617D01*
X138263333Y-160995617D02*
X138263333Y-160805141D01*
X138263333Y-160805141D02*
X138215714Y-160709903D01*
X138215714Y-160709903D02*
X138168095Y-160662284D01*
X138168095Y-160662284D02*
X138072857Y-160614665D01*
X138691905Y-161186094D02*
X138691905Y-160519427D01*
X138691905Y-160614665D02*
X138739524Y-160567046D01*
X138739524Y-160567046D02*
X138834762Y-160519427D01*
X138834762Y-160519427D02*
X138977619Y-160519427D01*
X138977619Y-160519427D02*
X139072857Y-160567046D01*
X139072857Y-160567046D02*
X139120476Y-160662284D01*
X139120476Y-160662284D02*
X139120476Y-161186094D01*
X139120476Y-160662284D02*
X139168095Y-160567046D01*
X139168095Y-160567046D02*
X139263333Y-160519427D01*
X139263333Y-160519427D02*
X139406190Y-160519427D01*
X139406190Y-160519427D02*
X139501429Y-160567046D01*
X139501429Y-160567046D02*
X139549048Y-160662284D01*
X139549048Y-160662284D02*
X139549048Y-161186094D01*
X140025238Y-161186094D02*
X140025238Y-160519427D01*
X140025238Y-160614665D02*
X140072857Y-160567046D01*
X140072857Y-160567046D02*
X140168095Y-160519427D01*
X140168095Y-160519427D02*
X140310952Y-160519427D01*
X140310952Y-160519427D02*
X140406190Y-160567046D01*
X140406190Y-160567046D02*
X140453809Y-160662284D01*
X140453809Y-160662284D02*
X140453809Y-161186094D01*
X140453809Y-160662284D02*
X140501428Y-160567046D01*
X140501428Y-160567046D02*
X140596666Y-160519427D01*
X140596666Y-160519427D02*
X140739523Y-160519427D01*
X140739523Y-160519427D02*
X140834762Y-160567046D01*
X140834762Y-160567046D02*
X140882381Y-160662284D01*
X140882381Y-160662284D02*
X140882381Y-161186094D01*
X134049048Y-161796038D02*
X134144286Y-161796038D01*
X134144286Y-161796038D02*
X134239524Y-161843657D01*
X134239524Y-161843657D02*
X134287143Y-161891276D01*
X134287143Y-161891276D02*
X134334762Y-161986514D01*
X134334762Y-161986514D02*
X134382381Y-162176990D01*
X134382381Y-162176990D02*
X134382381Y-162415085D01*
X134382381Y-162415085D02*
X134334762Y-162605561D01*
X134334762Y-162605561D02*
X134287143Y-162700799D01*
X134287143Y-162700799D02*
X134239524Y-162748419D01*
X134239524Y-162748419D02*
X134144286Y-162796038D01*
X134144286Y-162796038D02*
X134049048Y-162796038D01*
X134049048Y-162796038D02*
X133953810Y-162748419D01*
X133953810Y-162748419D02*
X133906191Y-162700799D01*
X133906191Y-162700799D02*
X133858572Y-162605561D01*
X133858572Y-162605561D02*
X133810953Y-162415085D01*
X133810953Y-162415085D02*
X133810953Y-162176990D01*
X133810953Y-162176990D02*
X133858572Y-161986514D01*
X133858572Y-161986514D02*
X133906191Y-161891276D01*
X133906191Y-161891276D02*
X133953810Y-161843657D01*
X133953810Y-161843657D02*
X134049048Y-161796038D01*
X134810953Y-162700799D02*
X134858572Y-162748419D01*
X134858572Y-162748419D02*
X134810953Y-162796038D01*
X134810953Y-162796038D02*
X134763334Y-162748419D01*
X134763334Y-162748419D02*
X134810953Y-162700799D01*
X134810953Y-162700799D02*
X134810953Y-162796038D01*
X135715714Y-162129371D02*
X135715714Y-162796038D01*
X135477619Y-161748419D02*
X135239524Y-162462704D01*
X135239524Y-162462704D02*
X135858571Y-162462704D01*
X136239524Y-162796038D02*
X136239524Y-162129371D01*
X136239524Y-162224609D02*
X136287143Y-162176990D01*
X136287143Y-162176990D02*
X136382381Y-162129371D01*
X136382381Y-162129371D02*
X136525238Y-162129371D01*
X136525238Y-162129371D02*
X136620476Y-162176990D01*
X136620476Y-162176990D02*
X136668095Y-162272228D01*
X136668095Y-162272228D02*
X136668095Y-162796038D01*
X136668095Y-162272228D02*
X136715714Y-162176990D01*
X136715714Y-162176990D02*
X136810952Y-162129371D01*
X136810952Y-162129371D02*
X136953809Y-162129371D01*
X136953809Y-162129371D02*
X137049048Y-162176990D01*
X137049048Y-162176990D02*
X137096667Y-162272228D01*
X137096667Y-162272228D02*
X137096667Y-162796038D01*
X137572857Y-162796038D02*
X137572857Y-162129371D01*
X137572857Y-162224609D02*
X137620476Y-162176990D01*
X137620476Y-162176990D02*
X137715714Y-162129371D01*
X137715714Y-162129371D02*
X137858571Y-162129371D01*
X137858571Y-162129371D02*
X137953809Y-162176990D01*
X137953809Y-162176990D02*
X138001428Y-162272228D01*
X138001428Y-162272228D02*
X138001428Y-162796038D01*
X138001428Y-162272228D02*
X138049047Y-162176990D01*
X138049047Y-162176990D02*
X138144285Y-162129371D01*
X138144285Y-162129371D02*
X138287142Y-162129371D01*
X138287142Y-162129371D02*
X138382381Y-162176990D01*
X138382381Y-162176990D02*
X138430000Y-162272228D01*
X138430000Y-162272228D02*
X138430000Y-162796038D01*
X139668095Y-162796038D02*
X139668095Y-161796038D01*
X139668095Y-161796038D02*
X140049047Y-161796038D01*
X140049047Y-161796038D02*
X140144285Y-161843657D01*
X140144285Y-161843657D02*
X140191904Y-161891276D01*
X140191904Y-161891276D02*
X140239523Y-161986514D01*
X140239523Y-161986514D02*
X140239523Y-162129371D01*
X140239523Y-162129371D02*
X140191904Y-162224609D01*
X140191904Y-162224609D02*
X140144285Y-162272228D01*
X140144285Y-162272228D02*
X140049047Y-162319847D01*
X140049047Y-162319847D02*
X139668095Y-162319847D01*
X140668095Y-162796038D02*
X140668095Y-162129371D01*
X140668095Y-161796038D02*
X140620476Y-161843657D01*
X140620476Y-161843657D02*
X140668095Y-161891276D01*
X140668095Y-161891276D02*
X140715714Y-161843657D01*
X140715714Y-161843657D02*
X140668095Y-161796038D01*
X140668095Y-161796038D02*
X140668095Y-161891276D01*
X141001428Y-162129371D02*
X141382380Y-162129371D01*
X141144285Y-161796038D02*
X141144285Y-162653180D01*
X141144285Y-162653180D02*
X141191904Y-162748419D01*
X141191904Y-162748419D02*
X141287142Y-162796038D01*
X141287142Y-162796038D02*
X141382380Y-162796038D01*
X142144285Y-162748419D02*
X142049047Y-162796038D01*
X142049047Y-162796038D02*
X141858571Y-162796038D01*
X141858571Y-162796038D02*
X141763333Y-162748419D01*
X141763333Y-162748419D02*
X141715714Y-162700799D01*
X141715714Y-162700799D02*
X141668095Y-162605561D01*
X141668095Y-162605561D02*
X141668095Y-162319847D01*
X141668095Y-162319847D02*
X141715714Y-162224609D01*
X141715714Y-162224609D02*
X141763333Y-162176990D01*
X141763333Y-162176990D02*
X141858571Y-162129371D01*
X141858571Y-162129371D02*
X142049047Y-162129371D01*
X142049047Y-162129371D02*
X142144285Y-162176990D01*
X142572857Y-162796038D02*
X142572857Y-161796038D01*
X143001428Y-162796038D02*
X143001428Y-162272228D01*
X143001428Y-162272228D02*
X142953809Y-162176990D01*
X142953809Y-162176990D02*
X142858571Y-162129371D01*
X142858571Y-162129371D02*
X142715714Y-162129371D01*
X142715714Y-162129371D02*
X142620476Y-162176990D01*
X142620476Y-162176990D02*
X142572857Y-162224609D01*
D11*
G36*
X145393186Y-164527236D02*
G01*
X145493793Y-164627843D01*
X145546972Y-164734202D01*
X145609928Y-164986023D01*
X145609928Y-165163382D01*
X145546972Y-165415203D01*
X145493793Y-165521563D01*
X145393187Y-165622169D01*
X145235585Y-165674703D01*
X145052785Y-165674703D01*
X145052785Y-164474703D01*
X145235588Y-164474703D01*
X145393186Y-164527236D01*
G37*
G36*
X135885361Y-164519410D02*
G01*
X135922365Y-164556414D01*
X135967071Y-164645826D01*
X135967071Y-164789293D01*
X135922364Y-164878706D01*
X135885359Y-164915711D01*
X135795947Y-164960417D01*
X135409928Y-164960417D01*
X135409928Y-164474703D01*
X135795947Y-164474703D01*
X135885361Y-164519410D01*
G37*
G36*
X138908959Y-165246132D02*
G01*
X138610900Y-165246132D01*
X138759929Y-164799044D01*
X138908959Y-165246132D01*
G37*
G36*
X144051816Y-165246132D02*
G01*
X143753757Y-165246132D01*
X143902786Y-164799044D01*
X144051816Y-165246132D01*
G37*
G36*
X142742504Y-164519410D02*
G01*
X142779508Y-164556414D01*
X142824214Y-164645826D01*
X142824214Y-164789293D01*
X142779507Y-164878706D01*
X142742502Y-164915711D01*
X142653090Y-164960417D01*
X142267071Y-164960417D01*
X142267071Y-164474703D01*
X142653090Y-164474703D01*
X142742504Y-164519410D01*
G37*
G36*
X146076595Y-166141370D02*
G01*
X130660429Y-166141370D01*
X130660429Y-164295439D01*
X130827096Y-164295439D01*
X130827096Y-164353967D01*
X130849494Y-164408039D01*
X130890878Y-164449423D01*
X130944950Y-164471821D01*
X130974214Y-164474703D01*
X131252785Y-164474703D01*
X131252785Y-165824703D01*
X131255667Y-165853967D01*
X131278065Y-165908039D01*
X131319449Y-165949423D01*
X131373521Y-165971821D01*
X131432049Y-165971821D01*
X131486121Y-165949423D01*
X131527505Y-165908039D01*
X131549903Y-165853967D01*
X131552785Y-165824703D01*
X131552785Y-164474703D01*
X131831357Y-164474703D01*
X131860621Y-164471821D01*
X131914693Y-164449423D01*
X131956077Y-164408039D01*
X131978475Y-164353967D01*
X131978475Y-164324703D01*
X132181356Y-164324703D01*
X132181356Y-165824703D01*
X132184238Y-165853967D01*
X132206636Y-165908039D01*
X132248020Y-165949423D01*
X132302092Y-165971821D01*
X132360620Y-165971821D01*
X132414692Y-165949423D01*
X132456076Y-165908039D01*
X132478474Y-165853967D01*
X132481356Y-165824703D01*
X132481356Y-165188989D01*
X133038499Y-165188989D01*
X133038499Y-165824703D01*
X133041381Y-165853967D01*
X133063779Y-165908039D01*
X133105163Y-165949423D01*
X133159235Y-165971821D01*
X133217763Y-165971821D01*
X133271835Y-165949423D01*
X133313219Y-165908039D01*
X133335617Y-165853967D01*
X133338499Y-165824703D01*
X133338499Y-164324703D01*
X133752785Y-164324703D01*
X133752785Y-165824703D01*
X133755667Y-165853967D01*
X133778065Y-165908039D01*
X133819449Y-165949423D01*
X133873521Y-165971821D01*
X133902785Y-165974703D01*
X134617071Y-165974703D01*
X134646335Y-165971821D01*
X134700407Y-165949423D01*
X134741791Y-165908039D01*
X134764189Y-165853967D01*
X134764189Y-165795439D01*
X134741791Y-165741367D01*
X134700407Y-165699983D01*
X134646335Y-165677585D01*
X134617071Y-165674703D01*
X134052785Y-165674703D01*
X134052785Y-165188989D01*
X134402785Y-165188989D01*
X134432049Y-165186107D01*
X134486121Y-165163709D01*
X134527505Y-165122325D01*
X134549903Y-165068253D01*
X134549903Y-165009725D01*
X134527505Y-164955653D01*
X134486121Y-164914269D01*
X134432049Y-164891871D01*
X134402785Y-164888989D01*
X134052785Y-164888989D01*
X134052785Y-164474703D01*
X134617071Y-164474703D01*
X134646335Y-164471821D01*
X134700407Y-164449423D01*
X134741791Y-164408039D01*
X134764189Y-164353967D01*
X134764189Y-164324703D01*
X135109928Y-164324703D01*
X135109928Y-165824703D01*
X135112810Y-165853967D01*
X135135208Y-165908039D01*
X135176592Y-165949423D01*
X135230664Y-165971821D01*
X135289192Y-165971821D01*
X135343264Y-165949423D01*
X135384648Y-165908039D01*
X135407046Y-165853967D01*
X135409928Y-165824703D01*
X135409928Y-165260417D01*
X135538973Y-165260417D01*
X135994186Y-165910722D01*
X136013329Y-165933044D01*
X136062686Y-165964497D01*
X136120322Y-165974668D01*
X136177464Y-165962009D01*
X136225412Y-165928445D01*
X136256865Y-165879088D01*
X136267036Y-165821452D01*
X136254377Y-165764310D01*
X136239956Y-165738684D01*
X135895004Y-165245895D01*
X135898439Y-165244581D01*
X136041296Y-165173153D01*
X136053889Y-165165225D01*
X136057549Y-165163710D01*
X136061668Y-165160328D01*
X136066182Y-165157488D01*
X136068778Y-165154494D01*
X136080280Y-165145055D01*
X136151709Y-165073626D01*
X136161150Y-165062121D01*
X136164142Y-165059527D01*
X136166980Y-165055017D01*
X136170364Y-165050895D01*
X136171880Y-165047233D01*
X136179807Y-165034642D01*
X136251235Y-164891784D01*
X136261745Y-164864321D01*
X136262126Y-164858945D01*
X136264189Y-164853967D01*
X136267071Y-164824703D01*
X136267071Y-164610417D01*
X136264189Y-164581153D01*
X136262126Y-164576174D01*
X136261745Y-164570799D01*
X136251235Y-164543336D01*
X136179807Y-164400478D01*
X136171878Y-164387883D01*
X136170363Y-164384224D01*
X136166981Y-164380103D01*
X136164142Y-164375593D01*
X136161150Y-164372998D01*
X136151708Y-164361493D01*
X136114917Y-164324703D01*
X136609928Y-164324703D01*
X136609928Y-165824703D01*
X136612810Y-165853967D01*
X136635208Y-165908039D01*
X136676592Y-165949423D01*
X136730664Y-165971821D01*
X136789192Y-165971821D01*
X136843264Y-165949423D01*
X136884648Y-165908039D01*
X136907046Y-165853967D01*
X136909928Y-165824703D01*
X136909928Y-165000836D01*
X137124001Y-165459565D01*
X137130347Y-165470278D01*
X137131668Y-165473910D01*
X137134019Y-165476478D01*
X137138988Y-165484865D01*
X137155793Y-165500255D01*
X137171195Y-165517073D01*
X137177238Y-165519893D01*
X137182151Y-165524392D01*
X137203571Y-165532181D01*
X137224233Y-165541823D01*
X137230890Y-165542115D01*
X137237153Y-165544393D01*
X137259932Y-165543392D01*
X137282703Y-165544393D01*
X137288962Y-165542116D01*
X137295624Y-165541824D01*
X137316291Y-165532179D01*
X137337706Y-165524392D01*
X137342619Y-165519892D01*
X137348661Y-165517073D01*
X137364056Y-165500260D01*
X137380869Y-165484865D01*
X137385837Y-165476476D01*
X137388188Y-165473910D01*
X137389507Y-165470280D01*
X137395855Y-165459565D01*
X137609928Y-165000837D01*
X137609928Y-165824703D01*
X137612810Y-165853967D01*
X137635208Y-165908039D01*
X137676592Y-165949423D01*
X137730664Y-165971821D01*
X137789192Y-165971821D01*
X137843264Y-165949423D01*
X137884648Y-165908039D01*
X137907046Y-165853967D01*
X137909928Y-165824703D01*
X137909928Y-165805942D01*
X138111107Y-165805942D01*
X138115256Y-165864323D01*
X138141430Y-165916670D01*
X138185644Y-165955017D01*
X138241168Y-165973525D01*
X138299549Y-165969376D01*
X138351896Y-165943202D01*
X138390243Y-165898988D01*
X138402231Y-165872137D01*
X138510900Y-165546132D01*
X139008959Y-165546132D01*
X139117627Y-165872137D01*
X139129615Y-165898988D01*
X139167962Y-165943203D01*
X139220310Y-165969376D01*
X139278690Y-165973526D01*
X139334214Y-165955017D01*
X139378428Y-165916670D01*
X139404602Y-165864323D01*
X139408752Y-165805943D01*
X139402232Y-165777269D01*
X138918042Y-164324703D01*
X139609928Y-164324703D01*
X139609928Y-165824703D01*
X139612810Y-165853967D01*
X139635208Y-165908039D01*
X139676592Y-165949423D01*
X139730664Y-165971821D01*
X139759928Y-165974703D01*
X140474214Y-165974703D01*
X140503478Y-165971821D01*
X140557550Y-165949423D01*
X140598934Y-165908039D01*
X140621332Y-165853967D01*
X140621332Y-165795439D01*
X140598934Y-165741367D01*
X140557550Y-165699983D01*
X140503478Y-165677585D01*
X140474214Y-165674703D01*
X139909928Y-165674703D01*
X139909928Y-164324703D01*
X141967071Y-164324703D01*
X141967071Y-165824703D01*
X141969953Y-165853967D01*
X141992351Y-165908039D01*
X142033735Y-165949423D01*
X142087807Y-165971821D01*
X142146335Y-165971821D01*
X142200407Y-165949423D01*
X142241791Y-165908039D01*
X142264189Y-165853967D01*
X142267071Y-165824703D01*
X142267071Y-165805942D01*
X143253964Y-165805942D01*
X143258113Y-165864323D01*
X143284287Y-165916670D01*
X143328501Y-165955017D01*
X143384025Y-165973525D01*
X143442406Y-165969376D01*
X143494753Y-165943202D01*
X143533100Y-165898988D01*
X143545088Y-165872137D01*
X143653757Y-165546132D01*
X144151816Y-165546132D01*
X144260484Y-165872137D01*
X144272472Y-165898988D01*
X144310819Y-165943203D01*
X144363167Y-165969376D01*
X144421547Y-165973526D01*
X144477071Y-165955017D01*
X144521285Y-165916670D01*
X144547459Y-165864323D01*
X144551609Y-165805943D01*
X144545089Y-165777269D01*
X144060899Y-164324703D01*
X144752785Y-164324703D01*
X144752785Y-165824703D01*
X144755667Y-165853967D01*
X144778065Y-165908039D01*
X144819449Y-165949423D01*
X144873521Y-165971821D01*
X144902785Y-165974703D01*
X145259928Y-165974703D01*
X145274733Y-165973244D01*
X145278688Y-165973526D01*
X145283889Y-165972343D01*
X145289192Y-165971821D01*
X145292849Y-165970305D01*
X145307362Y-165967006D01*
X145521648Y-165895578D01*
X145548499Y-165883590D01*
X145552570Y-165880058D01*
X145557550Y-165877996D01*
X145580280Y-165859341D01*
X145723137Y-165716483D01*
X145732575Y-165704981D01*
X145735570Y-165702385D01*
X145738410Y-165697871D01*
X145741792Y-165693752D01*
X145743307Y-165690092D01*
X145751235Y-165677499D01*
X145822664Y-165534643D01*
X145823483Y-165532500D01*
X145824128Y-165531631D01*
X145828512Y-165519359D01*
X145833173Y-165507179D01*
X145833249Y-165506098D01*
X145834021Y-165503940D01*
X145905449Y-165218226D01*
X145906198Y-165213154D01*
X145907046Y-165211110D01*
X145908131Y-165200087D01*
X145909751Y-165189137D01*
X145909425Y-165186949D01*
X145909928Y-165181846D01*
X145909928Y-164967560D01*
X145909425Y-164962456D01*
X145909751Y-164960269D01*
X145908131Y-164949318D01*
X145907046Y-164938296D01*
X145906198Y-164936251D01*
X145905449Y-164931180D01*
X145834021Y-164645466D01*
X145833249Y-164643307D01*
X145833173Y-164642227D01*
X145828512Y-164630046D01*
X145824128Y-164617775D01*
X145823483Y-164616905D01*
X145822664Y-164614763D01*
X145751235Y-164471907D01*
X145743308Y-164459315D01*
X145741792Y-164455653D01*
X145738408Y-164451530D01*
X145735570Y-164447021D01*
X145732577Y-164444425D01*
X145723137Y-164432923D01*
X145580280Y-164290066D01*
X145557549Y-164271411D01*
X145552569Y-164269348D01*
X145548499Y-164265818D01*
X145521648Y-164253829D01*
X145307362Y-164182401D01*
X145292854Y-164179102D01*
X145289192Y-164177585D01*
X145283883Y-164177062D01*
X145278689Y-164175881D01*
X145274739Y-164176161D01*
X145259928Y-164174703D01*
X144902785Y-164174703D01*
X144873521Y-164177585D01*
X144819449Y-164199983D01*
X144778065Y-164241367D01*
X144755667Y-164295439D01*
X144752785Y-164324703D01*
X144060899Y-164324703D01*
X144045088Y-164277269D01*
X144033100Y-164250418D01*
X144026077Y-164242321D01*
X144021285Y-164232736D01*
X144007076Y-164220412D01*
X143994753Y-164206204D01*
X143985167Y-164201411D01*
X143977071Y-164194389D01*
X143959227Y-164188440D01*
X143942406Y-164180030D01*
X143931717Y-164179270D01*
X143921547Y-164175880D01*
X143902781Y-164177213D01*
X143884025Y-164175881D01*
X143873857Y-164179270D01*
X143863167Y-164180030D01*
X143846343Y-164188441D01*
X143828501Y-164194389D01*
X143820406Y-164201409D01*
X143810819Y-164206203D01*
X143798493Y-164220414D01*
X143784287Y-164232736D01*
X143779494Y-164242320D01*
X143772472Y-164250418D01*
X143760484Y-164277269D01*
X143260484Y-165777269D01*
X143253964Y-165805942D01*
X142267071Y-165805942D01*
X142267071Y-165260417D01*
X142688500Y-165260417D01*
X142717764Y-165257535D01*
X142722742Y-165255472D01*
X142728118Y-165255091D01*
X142755582Y-165244581D01*
X142898439Y-165173153D01*
X142911032Y-165165225D01*
X142914692Y-165163710D01*
X142918811Y-165160328D01*
X142923325Y-165157488D01*
X142925921Y-165154494D01*
X142937423Y-165145055D01*
X143008852Y-165073626D01*
X143018293Y-165062121D01*
X143021285Y-165059527D01*
X143024123Y-165055017D01*
X143027507Y-165050895D01*
X143029023Y-165047233D01*
X143036950Y-165034642D01*
X143108378Y-164891784D01*
X143118888Y-164864321D01*
X143119269Y-164858945D01*
X143121332Y-164853967D01*
X143124214Y-164824703D01*
X143124214Y-164610417D01*
X143121332Y-164581153D01*
X143119269Y-164576174D01*
X143118888Y-164570799D01*
X143108378Y-164543336D01*
X143036950Y-164400478D01*
X143029021Y-164387883D01*
X143027506Y-164384224D01*
X143024124Y-164380103D01*
X143021285Y-164375593D01*
X143018293Y-164372998D01*
X143008851Y-164361493D01*
X142937422Y-164290065D01*
X142925922Y-164280627D01*
X142923325Y-164277633D01*
X142918808Y-164274790D01*
X142914691Y-164271411D01*
X142911034Y-164269896D01*
X142898439Y-164261968D01*
X142755582Y-164190539D01*
X142728119Y-164180030D01*
X142722744Y-164179648D01*
X142717764Y-164177585D01*
X142688500Y-164174703D01*
X142117071Y-164174703D01*
X142087807Y-164177585D01*
X142033735Y-164199983D01*
X141992351Y-164241367D01*
X141969953Y-164295439D01*
X141967071Y-164324703D01*
X139909928Y-164324703D01*
X139907046Y-164295439D01*
X139884648Y-164241367D01*
X139843264Y-164199983D01*
X139789192Y-164177585D01*
X139730664Y-164177585D01*
X139676592Y-164199983D01*
X139635208Y-164241367D01*
X139612810Y-164295439D01*
X139609928Y-164324703D01*
X138918042Y-164324703D01*
X138902231Y-164277269D01*
X138890243Y-164250418D01*
X138883220Y-164242321D01*
X138878428Y-164232736D01*
X138864219Y-164220412D01*
X138851896Y-164206204D01*
X138842310Y-164201411D01*
X138834214Y-164194389D01*
X138816370Y-164188440D01*
X138799549Y-164180030D01*
X138788860Y-164179270D01*
X138778690Y-164175880D01*
X138759924Y-164177213D01*
X138741168Y-164175881D01*
X138731000Y-164179270D01*
X138720310Y-164180030D01*
X138703486Y-164188441D01*
X138685644Y-164194389D01*
X138677549Y-164201409D01*
X138667962Y-164206203D01*
X138655636Y-164220414D01*
X138641430Y-164232736D01*
X138636637Y-164242320D01*
X138629615Y-164250418D01*
X138617627Y-164277269D01*
X138117627Y-165777269D01*
X138111107Y-165805942D01*
X137909928Y-165805942D01*
X137909928Y-164324703D01*
X137908033Y-164305465D01*
X137908189Y-164301927D01*
X137907497Y-164300026D01*
X137907046Y-164295439D01*
X137897085Y-164271393D01*
X137888188Y-164246925D01*
X137885928Y-164244457D01*
X137884648Y-164241367D01*
X137866250Y-164222969D01*
X137848661Y-164203762D01*
X137845627Y-164202346D01*
X137843264Y-164199983D01*
X137819233Y-164190029D01*
X137795624Y-164179011D01*
X137792279Y-164178864D01*
X137789192Y-164177585D01*
X137763168Y-164177585D01*
X137737153Y-164176442D01*
X137734010Y-164177585D01*
X137730664Y-164177585D01*
X137706611Y-164187548D01*
X137682151Y-164196443D01*
X137679683Y-164198702D01*
X137676592Y-164199983D01*
X137658183Y-164218391D01*
X137638988Y-164235970D01*
X137636638Y-164239936D01*
X137635208Y-164241367D01*
X137633852Y-164244639D01*
X137624001Y-164261270D01*
X137259928Y-165041426D01*
X136895855Y-164261270D01*
X136886001Y-164244635D01*
X136884648Y-164241367D01*
X136883219Y-164239938D01*
X136880869Y-164235970D01*
X136861661Y-164218380D01*
X136843264Y-164199983D01*
X136840173Y-164198702D01*
X136837706Y-164196443D01*
X136813240Y-164187546D01*
X136789192Y-164177585D01*
X136785846Y-164177585D01*
X136782703Y-164176442D01*
X136756699Y-164177585D01*
X136730664Y-164177585D01*
X136727573Y-164178865D01*
X136724233Y-164179012D01*
X136700637Y-164190022D01*
X136676592Y-164199983D01*
X136674228Y-164202346D01*
X136671195Y-164203762D01*
X136653605Y-164222969D01*
X136635208Y-164241367D01*
X136633927Y-164244457D01*
X136631668Y-164246925D01*
X136622771Y-164271390D01*
X136612810Y-164295439D01*
X136612358Y-164300027D01*
X136611667Y-164301928D01*
X136611822Y-164305466D01*
X136609928Y-164324703D01*
X136114917Y-164324703D01*
X136080279Y-164290065D01*
X136068779Y-164280627D01*
X136066182Y-164277633D01*
X136061665Y-164274790D01*
X136057548Y-164271411D01*
X136053891Y-164269896D01*
X136041296Y-164261968D01*
X135898439Y-164190539D01*
X135870976Y-164180030D01*
X135865601Y-164179648D01*
X135860621Y-164177585D01*
X135831357Y-164174703D01*
X135259928Y-164174703D01*
X135230664Y-164177585D01*
X135176592Y-164199983D01*
X135135208Y-164241367D01*
X135112810Y-164295439D01*
X135109928Y-164324703D01*
X134764189Y-164324703D01*
X134764189Y-164295439D01*
X134741791Y-164241367D01*
X134700407Y-164199983D01*
X134646335Y-164177585D01*
X134617071Y-164174703D01*
X133902785Y-164174703D01*
X133873521Y-164177585D01*
X133819449Y-164199983D01*
X133778065Y-164241367D01*
X133755667Y-164295439D01*
X133752785Y-164324703D01*
X133338499Y-164324703D01*
X133335617Y-164295439D01*
X133313219Y-164241367D01*
X133271835Y-164199983D01*
X133217763Y-164177585D01*
X133159235Y-164177585D01*
X133105163Y-164199983D01*
X133063779Y-164241367D01*
X133041381Y-164295439D01*
X133038499Y-164324703D01*
X133038499Y-164888989D01*
X132481356Y-164888989D01*
X132481356Y-164324703D01*
X132478474Y-164295439D01*
X132456076Y-164241367D01*
X132414692Y-164199983D01*
X132360620Y-164177585D01*
X132302092Y-164177585D01*
X132248020Y-164199983D01*
X132206636Y-164241367D01*
X132184238Y-164295439D01*
X132181356Y-164324703D01*
X131978475Y-164324703D01*
X131978475Y-164295439D01*
X131956077Y-164241367D01*
X131914693Y-164199983D01*
X131860621Y-164177585D01*
X131831357Y-164174703D01*
X130974214Y-164174703D01*
X130944950Y-164177585D01*
X130890878Y-164199983D01*
X130849494Y-164241367D01*
X130827096Y-164295439D01*
X130660429Y-164295439D01*
X130660429Y-164008036D01*
X146076595Y-164008036D01*
X146076595Y-166141370D01*
G37*
D10*
X125620000Y-163812750D02*
X130691500Y-163812750D01*
X130691500Y-166480000D01*
X125620000Y-166480000D01*
X125620000Y-163812750D01*
G36*
X125620000Y-163812750D02*
G01*
X130691500Y-163812750D01*
X130691500Y-166480000D01*
X125620000Y-166480000D01*
X125620000Y-163812750D01*
G37*
X146058500Y-163812750D02*
X151257000Y-163812750D01*
X151257000Y-166480000D01*
X146058500Y-166480000D01*
X146058500Y-163812750D01*
G36*
X146058500Y-163812750D02*
G01*
X151257000Y-163812750D01*
X151257000Y-166480000D01*
X146058500Y-166480000D01*
X146058500Y-163812750D01*
G37*
X130564500Y-163812750D02*
X146871250Y-163812750D01*
X146871250Y-164092150D01*
X130564500Y-164092150D01*
X130564500Y-163812750D01*
G36*
X130564500Y-163812750D02*
G01*
X146871250Y-163812750D01*
X146871250Y-164092150D01*
X130564500Y-164092150D01*
X130564500Y-163812750D01*
G37*
D13*
X137073769Y-113652965D02*
X136670719Y-113589324D01*
X137010130Y-113249914D01*
X137073769Y-113652965D01*
G36*
X137073769Y-113652965D02*
G01*
X136670719Y-113589324D01*
X137010130Y-113249914D01*
X137073769Y-113652965D01*
G37*
X144242418Y-119534679D02*
X143853509Y-119923588D01*
X143853509Y-119145770D02*
X144242418Y-119534679D01*
X138818909Y-124958188D02*
X138430000Y-125347097D01*
X138430000Y-125347097D02*
X138041091Y-124958188D01*
X138430000Y-113722261D02*
X138818909Y-114111170D01*
X138041091Y-114111170D02*
X138430000Y-113722261D01*
X133006491Y-119923588D02*
X132617582Y-119534679D01*
X132617582Y-119534679D02*
X133006491Y-119145770D01*
D14*
G36*
X145866048Y-81758944D02*
G01*
X145896040Y-81794097D01*
X145926741Y-81828830D01*
X145959724Y-81864776D01*
X145996557Y-81903571D01*
X146038813Y-81946849D01*
X146088063Y-81996246D01*
X146145876Y-82053396D01*
X146199353Y-82105801D01*
X146238590Y-82144188D01*
X146287618Y-82192230D01*
X146345101Y-82248613D01*
X146409702Y-82312023D01*
X146480083Y-82381147D01*
X146554908Y-82454672D01*
X146632838Y-82531282D01*
X146712538Y-82609665D01*
X146792669Y-82688507D01*
X146871894Y-82766493D01*
X146895364Y-82789604D01*
X146981592Y-82874491D01*
X147074708Y-82966111D01*
X147172651Y-83062439D01*
X147273359Y-83161447D01*
X147374768Y-83261109D01*
X147474818Y-83359398D01*
X147571444Y-83454288D01*
X147662585Y-83543752D01*
X147746179Y-83625764D01*
X147801670Y-83680173D01*
X147899833Y-83776412D01*
X147987401Y-83862317D01*
X148064958Y-83938474D01*
X148133087Y-84005468D01*
X148192373Y-84063884D01*
X148243397Y-84114308D01*
X148286743Y-84157324D01*
X148322996Y-84193519D01*
X148352737Y-84223478D01*
X148376551Y-84247785D01*
X148395020Y-84267027D01*
X148408729Y-84281789D01*
X148418260Y-84292655D01*
X148424198Y-84300212D01*
X148427124Y-84305045D01*
X148427623Y-84307739D01*
X148427461Y-84308109D01*
X148419915Y-84314896D01*
X148402014Y-84328945D01*
X148376131Y-84348454D01*
X148344636Y-84371617D01*
X148330712Y-84381708D01*
X148291792Y-84410163D01*
X148251926Y-84439940D01*
X148215493Y-84467730D01*
X148186873Y-84490223D01*
X148183997Y-84492552D01*
X148157733Y-84513626D01*
X148123023Y-84541072D01*
X148083834Y-84571770D01*
X148044135Y-84602603D01*
X148032153Y-84611850D01*
X147870045Y-84741283D01*
X147718470Y-84871596D01*
X147578369Y-85001877D01*
X147450684Y-85131215D01*
X147336359Y-85258698D01*
X147240827Y-85377463D01*
X147122057Y-85546748D01*
X147017026Y-85722856D01*
X146925621Y-85906071D01*
X146847730Y-86096677D01*
X146783242Y-86294957D01*
X146732046Y-86501197D01*
X146694029Y-86715679D01*
X146683682Y-86793855D01*
X146677408Y-86860124D01*
X146672919Y-86937901D01*
X146670217Y-87023306D01*
X146669305Y-87112456D01*
X146670185Y-87201469D01*
X146672858Y-87286462D01*
X146677328Y-87363555D01*
X146683332Y-87426706D01*
X146715736Y-87634875D01*
X146761666Y-87835240D01*
X146821171Y-88027906D01*
X146894300Y-88212980D01*
X146981103Y-88390566D01*
X147081629Y-88560771D01*
X147195928Y-88723699D01*
X147324049Y-88879456D01*
X147402576Y-88964338D01*
X147455217Y-89016813D01*
X147519571Y-89077153D01*
X147595789Y-89145487D01*
X147684025Y-89221945D01*
X147784430Y-89306654D01*
X147897157Y-89399746D01*
X148022359Y-89501348D01*
X148160189Y-89611591D01*
X148254783Y-89686493D01*
X148299542Y-89722154D01*
X148340120Y-89755145D01*
X148374922Y-89784118D01*
X148402355Y-89807723D01*
X148420824Y-89824610D01*
X148428737Y-89833432D01*
X148428903Y-89833889D01*
X148423775Y-89840657D01*
X148408186Y-89858251D01*
X148382527Y-89886260D01*
X148347193Y-89924270D01*
X148302576Y-89971868D01*
X148249069Y-90028641D01*
X148187065Y-90094176D01*
X148116956Y-90168059D01*
X148039136Y-90249878D01*
X147953998Y-90339219D01*
X147861934Y-90435669D01*
X147763337Y-90538816D01*
X147658600Y-90648245D01*
X147548117Y-90763545D01*
X147432279Y-90884301D01*
X147311481Y-91010101D01*
X147195763Y-91130496D01*
X147080353Y-91250516D01*
X146967537Y-91367831D01*
X146857813Y-91481922D01*
X146751682Y-91592269D01*
X146649643Y-91698355D01*
X146552196Y-91799660D01*
X146459839Y-91895665D01*
X146373072Y-91985850D01*
X146292395Y-92069698D01*
X146218307Y-92146688D01*
X146151307Y-92216302D01*
X146091895Y-92278021D01*
X146040571Y-92331325D01*
X145997833Y-92375696D01*
X145964181Y-92410615D01*
X145940115Y-92435562D01*
X145926134Y-92450019D01*
X145923112Y-92453121D01*
X145885875Y-92490947D01*
X145683545Y-92327738D01*
X145587632Y-92250693D01*
X145501703Y-92182419D01*
X145423879Y-92121511D01*
X145352286Y-92066565D01*
X145285047Y-92016176D01*
X145220286Y-91968939D01*
X145156127Y-91923450D01*
X145090692Y-91878304D01*
X145022107Y-91832097D01*
X145016342Y-91828255D01*
X144810050Y-91696558D01*
X144600171Y-91573597D01*
X144388559Y-91460286D01*
X144177069Y-91357539D01*
X143967556Y-91266270D01*
X143761875Y-91187394D01*
X143617819Y-91138985D01*
X143362799Y-91066747D01*
X143101639Y-91008867D01*
X142834368Y-90965348D01*
X142561018Y-90936193D01*
X142281617Y-90921406D01*
X141996197Y-90920988D01*
X141704788Y-90934943D01*
X141563005Y-90946728D01*
X141321717Y-90976453D01*
X141079357Y-91019932D01*
X140838376Y-91076506D01*
X140601224Y-91145515D01*
X140370350Y-91226300D01*
X140148205Y-91318200D01*
X140098071Y-91341088D01*
X140060386Y-91358595D01*
X140021003Y-91376864D01*
X139986660Y-91392769D01*
X139976970Y-91397249D01*
X139868968Y-91450187D01*
X139752213Y-91512974D01*
X139628805Y-91584216D01*
X139500846Y-91662520D01*
X139370435Y-91746493D01*
X139239675Y-91834742D01*
X139110666Y-91925875D01*
X138985508Y-92018498D01*
X138866304Y-92111219D01*
X138755152Y-92202645D01*
X138730799Y-92223471D01*
X138698238Y-92251542D01*
X138657696Y-92286503D01*
X138613025Y-92325032D01*
X138568072Y-92363811D01*
X138537527Y-92390165D01*
X138501095Y-92420984D01*
X138467898Y-92447911D01*
X138440004Y-92469361D01*
X138419481Y-92483746D01*
X138408400Y-92489480D01*
X138407958Y-92489518D01*
X138395222Y-92482965D01*
X138377759Y-92464892D01*
X138363273Y-92445584D01*
X138340311Y-92416922D01*
X138305110Y-92379677D01*
X138258169Y-92334315D01*
X138199987Y-92281302D01*
X138131065Y-92221104D01*
X138051900Y-92154188D01*
X138047132Y-92150216D01*
X137815044Y-91965900D01*
X137579897Y-91796816D01*
X137341403Y-91642820D01*
X137099271Y-91503764D01*
X136853211Y-91379503D01*
X136602935Y-91269891D01*
X136348152Y-91174783D01*
X136088572Y-91094031D01*
X135823906Y-91027491D01*
X135813698Y-91025230D01*
X135572902Y-90978965D01*
X135324140Y-90944227D01*
X135070149Y-90921155D01*
X134813666Y-90909889D01*
X134557426Y-90910570D01*
X134304165Y-90923338D01*
X134132860Y-90939237D01*
X133862343Y-90977074D01*
X133594729Y-91030223D01*
X133330234Y-91098602D01*
X133069074Y-91182128D01*
X132811467Y-91280720D01*
X132557630Y-91394296D01*
X132307779Y-91522773D01*
X132062131Y-91666069D01*
X131855377Y-91800430D01*
X131793555Y-91842985D01*
X131734892Y-91884361D01*
X131677000Y-91926345D01*
X131617489Y-91970728D01*
X131553970Y-92019298D01*
X131484055Y-92073843D01*
X131405354Y-92136154D01*
X131378785Y-92157339D01*
X131301144Y-92219209D01*
X131229613Y-92275970D01*
X131165123Y-92326892D01*
X131108608Y-92371243D01*
X131061000Y-92408293D01*
X131023232Y-92437311D01*
X130996237Y-92457567D01*
X130987567Y-92463830D01*
X130963560Y-92480796D01*
X130385968Y-91874450D01*
X130234042Y-91714954D01*
X130092300Y-91566131D01*
X129960142Y-91427351D01*
X129836966Y-91297978D01*
X129722171Y-91177380D01*
X129615157Y-91064925D01*
X129515324Y-90959978D01*
X129422070Y-90861906D01*
X129334794Y-90770078D01*
X129252896Y-90683858D01*
X129175774Y-90602615D01*
X129102829Y-90525716D01*
X129033460Y-90452526D01*
X128967065Y-90382414D01*
X128903043Y-90314745D01*
X128840795Y-90248887D01*
X128779719Y-90184206D01*
X128719214Y-90120070D01*
X128658680Y-90055846D01*
X128597516Y-89990900D01*
X128535121Y-89924598D01*
X128474802Y-89860463D01*
X128782257Y-89860463D01*
X128970604Y-90059688D01*
X129159790Y-90259682D01*
X129340416Y-90450380D01*
X129514545Y-90633948D01*
X129684236Y-90812554D01*
X129851549Y-90988364D01*
X130018544Y-91163546D01*
X130187283Y-91340265D01*
X130359826Y-91520688D01*
X130363097Y-91524106D01*
X130438249Y-91602641D01*
X130511321Y-91679022D01*
X130581459Y-91752354D01*
X130647808Y-91821742D01*
X130709513Y-91886292D01*
X130765719Y-91945109D01*
X130815572Y-91997299D01*
X130858217Y-92041967D01*
X130892798Y-92078219D01*
X130918462Y-92105160D01*
X130934352Y-92121896D01*
X130936359Y-92124021D01*
X130962455Y-92151165D01*
X130980448Y-92168152D01*
X130992529Y-92176582D01*
X131000889Y-92178054D01*
X131006487Y-92175204D01*
X131016837Y-92166628D01*
X131036454Y-92150057D01*
X131062753Y-92127687D01*
X131093151Y-92101709D01*
X131101235Y-92094782D01*
X131342534Y-91897017D01*
X131587415Y-91714443D01*
X131835971Y-91547017D01*
X132088298Y-91394697D01*
X132344488Y-91257442D01*
X132604636Y-91135210D01*
X132868836Y-91027960D01*
X133137181Y-90935649D01*
X133409766Y-90858236D01*
X133686685Y-90795678D01*
X133968031Y-90747936D01*
X134195364Y-90720479D01*
X134484916Y-90698925D01*
X134770611Y-90692343D01*
X135052607Y-90700776D01*
X135331060Y-90724266D01*
X135606126Y-90762856D01*
X135877963Y-90816589D01*
X136146728Y-90885509D01*
X136412576Y-90969658D01*
X136675665Y-91069079D01*
X136936151Y-91183814D01*
X137194192Y-91313908D01*
X137449943Y-91459403D01*
X137703562Y-91620342D01*
X137851839Y-91722259D01*
X137941692Y-91787158D01*
X138036864Y-91858371D01*
X138133508Y-91932896D01*
X138227775Y-92007729D01*
X138315817Y-92079866D01*
X138381910Y-92135977D01*
X138439296Y-92185670D01*
X138461281Y-92167662D01*
X138473885Y-92157199D01*
X138496236Y-92138506D01*
X138526137Y-92113425D01*
X138561391Y-92083799D01*
X138599800Y-92051472D01*
X138607033Y-92045379D01*
X138740693Y-91936380D01*
X138883664Y-91826421D01*
X139032236Y-91718135D01*
X139182695Y-91614149D01*
X139331329Y-91517096D01*
X139474426Y-91429603D01*
X139484752Y-91423546D01*
X139607057Y-91354854D01*
X139739567Y-91285532D01*
X139878583Y-91217284D01*
X140020405Y-91151815D01*
X140161334Y-91090829D01*
X140297671Y-91036029D01*
X140425716Y-90989120D01*
X140434029Y-90986259D01*
X140706360Y-90901105D01*
X140981333Y-90831333D01*
X141259033Y-90776929D01*
X141539547Y-90737881D01*
X141822959Y-90714176D01*
X142109355Y-90705802D01*
X142313263Y-90709111D01*
X142590362Y-90725796D01*
X142862998Y-90756518D01*
X143131699Y-90801446D01*
X143396990Y-90860749D01*
X143659399Y-90934596D01*
X143919451Y-91023156D01*
X144177675Y-91126599D01*
X144434596Y-91245094D01*
X144690742Y-91378811D01*
X144946638Y-91527917D01*
X145036725Y-91584079D01*
X145212380Y-91699308D01*
X145385933Y-91821144D01*
X145560798Y-91952053D01*
X145713279Y-92072512D01*
X145851587Y-92184258D01*
X145940537Y-92092733D01*
X145958819Y-92073816D01*
X145986979Y-92044537D01*
X146024110Y-92005842D01*
X146069309Y-91958676D01*
X146121668Y-91903988D01*
X146180284Y-91842722D01*
X146244249Y-91775825D01*
X146312660Y-91704244D01*
X146384610Y-91628926D01*
X146459195Y-91550816D01*
X146535508Y-91470861D01*
X146555040Y-91450391D01*
X146647948Y-91353030D01*
X146730923Y-91266109D01*
X146804813Y-91188756D01*
X146870461Y-91120096D01*
X146928713Y-91059256D01*
X146980415Y-91005362D01*
X147026411Y-90957541D01*
X147067547Y-90914918D01*
X147104668Y-90876621D01*
X147138620Y-90841774D01*
X147170248Y-90809505D01*
X147200397Y-90778940D01*
X147229912Y-90749205D01*
X147259639Y-90719426D01*
X147290422Y-90688729D01*
X147323108Y-90656242D01*
X147329027Y-90650367D01*
X147361297Y-90618041D01*
X147389334Y-90589385D01*
X147411389Y-90566235D01*
X147425709Y-90550428D01*
X147430553Y-90543875D01*
X147435831Y-90536969D01*
X147450665Y-90520594D01*
X147473557Y-90496325D01*
X147503008Y-90465739D01*
X147537520Y-90430409D01*
X147565327Y-90402245D01*
X147604739Y-90362347D01*
X147652403Y-90313844D01*
X147705730Y-90259383D01*
X147762132Y-90201615D01*
X147819020Y-90143187D01*
X147873807Y-90086750D01*
X147897591Y-90062187D01*
X148095080Y-89858030D01*
X148065743Y-89833848D01*
X148047431Y-89819721D01*
X148033882Y-89811010D01*
X148030222Y-89809665D01*
X148022139Y-89804840D01*
X148005030Y-89791774D01*
X147981568Y-89772579D01*
X147959732Y-89753979D01*
X147931898Y-89730319D01*
X147895334Y-89699882D01*
X147853575Y-89665577D01*
X147810157Y-89630311D01*
X147778231Y-89604662D01*
X147741302Y-89574863D01*
X147708488Y-89547827D01*
X147681805Y-89525260D01*
X147663270Y-89508868D01*
X147654898Y-89500359D01*
X147654788Y-89500182D01*
X147642899Y-89490470D01*
X147637209Y-89489333D01*
X147627057Y-89485434D01*
X147625878Y-89482334D01*
X147620259Y-89474939D01*
X147604861Y-89459571D01*
X147581874Y-89438302D01*
X147553489Y-89413203D01*
X147545795Y-89406563D01*
X147431163Y-89305368D01*
X147328376Y-89208507D01*
X147235186Y-89113552D01*
X147149349Y-89018080D01*
X147068619Y-88919664D01*
X146990751Y-88815881D01*
X146964116Y-88778352D01*
X146855025Y-88609649D01*
X146757314Y-88431908D01*
X146671703Y-88246970D01*
X146598916Y-88056679D01*
X146539673Y-87862879D01*
X146494695Y-87667411D01*
X146470188Y-87516556D01*
X146449009Y-87298366D01*
X146443083Y-87080459D01*
X146452204Y-86863644D01*
X146476166Y-86648728D01*
X146514764Y-86436519D01*
X146567792Y-86227825D01*
X146635044Y-86023452D01*
X146716313Y-85824210D01*
X146811395Y-85630905D01*
X146920083Y-85444346D01*
X147042171Y-85265340D01*
X147044917Y-85261613D01*
X147065245Y-85233561D01*
X147081551Y-85210089D01*
X147091901Y-85194041D01*
X147094595Y-85188514D01*
X147100128Y-85180134D01*
X147113503Y-85167853D01*
X147114128Y-85167359D01*
X147127779Y-85154307D01*
X147133655Y-85144102D01*
X147133660Y-85143920D01*
X147139256Y-85133875D01*
X147152761Y-85120822D01*
X147153193Y-85120481D01*
X147166876Y-85107068D01*
X147172722Y-85096079D01*
X147172725Y-85095918D01*
X147178377Y-85085825D01*
X147192612Y-85071201D01*
X147200071Y-85064900D01*
X147216628Y-85050114D01*
X147226346Y-85038391D01*
X147227416Y-85035418D01*
X147232743Y-85027961D01*
X147247565Y-85011381D01*
X147270143Y-84987415D01*
X147298737Y-84957802D01*
X147331608Y-84924279D01*
X147367018Y-84888585D01*
X147403226Y-84852456D01*
X147438494Y-84817632D01*
X147471083Y-84785850D01*
X147499253Y-84758847D01*
X147521265Y-84738362D01*
X147535380Y-84726133D01*
X147539651Y-84723415D01*
X147548370Y-84717792D01*
X147562589Y-84703414D01*
X147572126Y-84692163D01*
X147588266Y-84674272D01*
X147601855Y-84662963D01*
X147606959Y-84660911D01*
X147617866Y-84655379D01*
X147632713Y-84641666D01*
X147636398Y-84637472D01*
X147650856Y-84622446D01*
X147662095Y-84614439D01*
X147663871Y-84614033D01*
X147673679Y-84608446D01*
X147686623Y-84594960D01*
X147686986Y-84594501D01*
X147699236Y-84580921D01*
X147707703Y-84574979D01*
X147707895Y-84574968D01*
X147715825Y-84570352D01*
X147733251Y-84557796D01*
X147757566Y-84539244D01*
X147784900Y-84517648D01*
X147819149Y-84490475D01*
X147854620Y-84462831D01*
X147886349Y-84438562D01*
X147903395Y-84425845D01*
X147929479Y-84406291D01*
X147962842Y-84380667D01*
X147998618Y-84352732D01*
X148023371Y-84333116D01*
X148096312Y-84274869D01*
X147999795Y-84180763D01*
X147979732Y-84161150D01*
X147949524Y-84131548D01*
X147910163Y-84092930D01*
X147862637Y-84046270D01*
X147807938Y-83992540D01*
X147747057Y-83932715D01*
X147680984Y-83867767D01*
X147610709Y-83798670D01*
X147537223Y-83726397D01*
X147461516Y-83651921D01*
X147395158Y-83586626D01*
X147316621Y-83509379D01*
X147233936Y-83428123D01*
X147147872Y-83343610D01*
X147059196Y-83256592D01*
X146968677Y-83167818D01*
X146877083Y-83078041D01*
X146785182Y-82988011D01*
X146693742Y-82898480D01*
X146603532Y-82810198D01*
X146515321Y-82723916D01*
X146429875Y-82640386D01*
X146347964Y-82560358D01*
X146270356Y-82484584D01*
X146197819Y-82413815D01*
X146131120Y-82348801D01*
X146071030Y-82290294D01*
X146018315Y-82239044D01*
X145973744Y-82195804D01*
X145938085Y-82161323D01*
X145912107Y-82136353D01*
X145897495Y-82122499D01*
X145873135Y-82100841D01*
X145856040Y-82088867D01*
X145842958Y-82084703D01*
X145833535Y-82085651D01*
X145821048Y-82092312D01*
X145799475Y-82107441D01*
X145771386Y-82129095D01*
X145739347Y-82155333D01*
X145723102Y-82169173D01*
X145501848Y-82349979D01*
X145269877Y-82519924D01*
X145028161Y-82678517D01*
X144777671Y-82825267D01*
X144519378Y-82959684D01*
X144254254Y-83081276D01*
X143983270Y-83189555D01*
X143707397Y-83284028D01*
X143427608Y-83364206D01*
X143289674Y-83398057D01*
X143083043Y-83441231D01*
X142876069Y-83474733D01*
X142665712Y-83498896D01*
X142448930Y-83514051D01*
X142222682Y-83520530D01*
X142164604Y-83520833D01*
X141939180Y-83517105D01*
X141722655Y-83505226D01*
X141510992Y-83484715D01*
X141300151Y-83455088D01*
X141086094Y-83415860D01*
X140864784Y-83366549D01*
X140853694Y-83363868D01*
X140799123Y-83350159D01*
X140739700Y-83334410D01*
X140677290Y-83317193D01*
X140613759Y-83299077D01*
X140550975Y-83280634D01*
X140490803Y-83262433D01*
X140435110Y-83245044D01*
X140385761Y-83229039D01*
X140344622Y-83214988D01*
X140313560Y-83203460D01*
X140294441Y-83195027D01*
X140289197Y-83191325D01*
X140279743Y-83186138D01*
X140260022Y-83179871D01*
X140244273Y-83176071D01*
X140221589Y-83169984D01*
X140206803Y-83163670D01*
X140203546Y-83160172D01*
X140196856Y-83154784D01*
X140184014Y-83153006D01*
X140169326Y-83150671D01*
X140164481Y-83146192D01*
X140157580Y-83140829D01*
X140140331Y-83135694D01*
X140133229Y-83134380D01*
X140113691Y-83129549D01*
X140102793Y-83123543D01*
X140101978Y-83121662D01*
X140095308Y-83115797D01*
X140083003Y-83113941D01*
X140063184Y-83109263D01*
X140052309Y-83102222D01*
X140036859Y-83092485D01*
X140027754Y-83090502D01*
X140011873Y-83085285D01*
X140003199Y-83078783D01*
X139986273Y-83069430D01*
X139972505Y-83067063D01*
X139958085Y-83064755D01*
X139953531Y-83060504D01*
X139946989Y-83052713D01*
X139931500Y-83044070D01*
X139913272Y-83037541D01*
X139901821Y-83035811D01*
X139886776Y-83030634D01*
X139878191Y-83024092D01*
X139861151Y-83014631D01*
X139848056Y-83012372D01*
X139829080Y-83008233D01*
X139819315Y-83002170D01*
X139809740Y-82995918D01*
X139788229Y-82983691D01*
X139756789Y-82966572D01*
X139717428Y-82945640D01*
X139672152Y-82921977D01*
X139633199Y-82901899D01*
X139451541Y-82805339D01*
X139279109Y-82706224D01*
X139112554Y-82602374D01*
X138948524Y-82491609D01*
X138783670Y-82371750D01*
X138614642Y-82240616D01*
X138604409Y-82232433D01*
X138549938Y-82189442D01*
X138505691Y-82156120D01*
X138470283Y-82131680D01*
X138442329Y-82115332D01*
X138420441Y-82106289D01*
X138403236Y-82103760D01*
X138389328Y-82106959D01*
X138386492Y-82108398D01*
X138375858Y-82116107D01*
X138355885Y-82132133D01*
X138328982Y-82154485D01*
X138297559Y-82181176D01*
X138279920Y-82196379D01*
X138112265Y-82334322D01*
X137930888Y-82469842D01*
X137737642Y-82601788D01*
X137534379Y-82729007D01*
X137322953Y-82850349D01*
X137105216Y-82964661D01*
X136883020Y-83070791D01*
X136848977Y-83086133D01*
X136615763Y-83183588D01*
X136374428Y-83271382D01*
X136128043Y-83348616D01*
X135879678Y-83414395D01*
X135632403Y-83467821D01*
X135418096Y-83503914D01*
X135346714Y-83514046D01*
X135283011Y-83522477D01*
X135224497Y-83529359D01*
X135168679Y-83534845D01*
X135113067Y-83539088D01*
X135055170Y-83542240D01*
X134992497Y-83544455D01*
X134922555Y-83545885D01*
X134842855Y-83546682D01*
X134750905Y-83547000D01*
X134714927Y-83547026D01*
X134622423Y-83546910D01*
X134543591Y-83546479D01*
X134476478Y-83545678D01*
X134419132Y-83544451D01*
X134369601Y-83542743D01*
X134325933Y-83540497D01*
X134286175Y-83537659D01*
X134248375Y-83534171D01*
X134242242Y-83533535D01*
X133992433Y-83502201D01*
X133748919Y-83461579D01*
X133514771Y-83412203D01*
X133444432Y-83395169D01*
X133381338Y-83379071D01*
X133320896Y-83363036D01*
X133265024Y-83347626D01*
X133215640Y-83333400D01*
X133174663Y-83320918D01*
X133144010Y-83310740D01*
X133125602Y-83303425D01*
X133121470Y-83300906D01*
X133108109Y-83294911D01*
X133097470Y-83293640D01*
X133080597Y-83291223D01*
X133057128Y-83285132D01*
X133032378Y-83277108D01*
X133011659Y-83268892D01*
X133000287Y-83262222D01*
X132999842Y-83261667D01*
X132990886Y-83256976D01*
X132970626Y-83249817D01*
X132942916Y-83241510D01*
X132933568Y-83238949D01*
X132904351Y-83230541D01*
X132881409Y-83222855D01*
X132868596Y-83217219D01*
X132867294Y-83216111D01*
X132857619Y-83210817D01*
X132838818Y-83205532D01*
X132833952Y-83204563D01*
X132815165Y-83199362D01*
X132805158Y-83193188D01*
X132804654Y-83191717D01*
X132797965Y-83186109D01*
X132785121Y-83184258D01*
X132770438Y-83181583D01*
X132765589Y-83176445D01*
X132758903Y-83170572D01*
X132746056Y-83168632D01*
X132731373Y-83165957D01*
X132726524Y-83160819D01*
X132719838Y-83154946D01*
X132706991Y-83153006D01*
X132692308Y-83150331D01*
X132687459Y-83145193D01*
X132680773Y-83139320D01*
X132667926Y-83137380D01*
X132653238Y-83135060D01*
X132648394Y-83130609D01*
X132641731Y-83124078D01*
X132624894Y-83114859D01*
X132602612Y-83104966D01*
X132579611Y-83096413D01*
X132560620Y-83091215D01*
X132554247Y-83090502D01*
X132541080Y-83087405D01*
X132537710Y-83084085D01*
X132530231Y-83078977D01*
X132510669Y-83068141D01*
X132481030Y-83052617D01*
X132443315Y-83033445D01*
X132399530Y-83011661D01*
X132372361Y-82998347D01*
X132147263Y-82883118D01*
X131930725Y-82760748D01*
X131720067Y-82629517D01*
X131512606Y-82487703D01*
X131305662Y-82333582D01*
X131171741Y-82227278D01*
X131124842Y-82189503D01*
X131087984Y-82160908D01*
X131059311Y-82140540D01*
X131036966Y-82127448D01*
X131019095Y-82120680D01*
X131003839Y-82119284D01*
X130989345Y-82122309D01*
X130976868Y-82127354D01*
X130967932Y-82134036D01*
X130949594Y-82150251D01*
X130921737Y-82176115D01*
X130884244Y-82211742D01*
X130836997Y-82257249D01*
X130779879Y-82312750D01*
X130712772Y-82378361D01*
X130635558Y-82454197D01*
X130548121Y-82540374D01*
X130450342Y-82637006D01*
X130342105Y-82744209D01*
X130223291Y-82862099D01*
X130093783Y-82990790D01*
X129953464Y-83130398D01*
X129865695Y-83217796D01*
X128784875Y-84294367D01*
X128820034Y-84316341D01*
X128841029Y-84331180D01*
X128868991Y-84353274D01*
X128899567Y-84379107D01*
X128917696Y-84395248D01*
X128940398Y-84415676D01*
X128972639Y-84444336D01*
X129012147Y-84479228D01*
X129056652Y-84518351D01*
X129103884Y-84559705D01*
X129151571Y-84601289D01*
X129151779Y-84601471D01*
X129239231Y-84677965D01*
X129316010Y-84746119D01*
X129383595Y-84807418D01*
X129443462Y-84863349D01*
X129497086Y-84915400D01*
X129545946Y-84965058D01*
X129591516Y-85013810D01*
X129635275Y-85063143D01*
X129678697Y-85114543D01*
X129723261Y-85169498D01*
X129752334Y-85206292D01*
X129791555Y-85258085D01*
X129835539Y-85319123D01*
X129881907Y-85385865D01*
X129928281Y-85454774D01*
X129972280Y-85522308D01*
X130011525Y-85584929D01*
X130043638Y-85639097D01*
X130045694Y-85642722D01*
X130141884Y-85828248D01*
X130224381Y-86019678D01*
X130292787Y-86215750D01*
X130346702Y-86415198D01*
X130385730Y-86616759D01*
X130406836Y-86788111D01*
X130409867Y-86834793D01*
X130411796Y-86893393D01*
X130412683Y-86960827D01*
X130412584Y-87034015D01*
X130411559Y-87109873D01*
X130409665Y-87185318D01*
X130406961Y-87257270D01*
X130403505Y-87322645D01*
X130399356Y-87378361D01*
X130394914Y-87418893D01*
X130364105Y-87606607D01*
X130323871Y-87792572D01*
X130274967Y-87974265D01*
X130218147Y-88149161D01*
X130154166Y-88314735D01*
X130083779Y-88468464D01*
X130077244Y-88481459D01*
X129998039Y-88626218D01*
X129908643Y-88767672D01*
X129808344Y-88906631D01*
X129696429Y-89043907D01*
X129572187Y-89180310D01*
X129434906Y-89316650D01*
X129283873Y-89453738D01*
X129118378Y-89592384D01*
X129062113Y-89637320D01*
X129025767Y-89666307D01*
X128993573Y-89692504D01*
X128967603Y-89714186D01*
X128949925Y-89729627D01*
X128942700Y-89736936D01*
X128932098Y-89746172D01*
X128927784Y-89747162D01*
X128916843Y-89751832D01*
X128897447Y-89764171D01*
X128872995Y-89781669D01*
X128846888Y-89801814D01*
X128822526Y-89822097D01*
X128807005Y-89836319D01*
X128782257Y-89860463D01*
X128474802Y-89860463D01*
X128470895Y-89856309D01*
X128470374Y-89855755D01*
X128429229Y-89811995D01*
X128571893Y-89711572D01*
X128679432Y-89635213D01*
X128775636Y-89565402D01*
X128862516Y-89500559D01*
X128942082Y-89439108D01*
X129016346Y-89379468D01*
X129087319Y-89320061D01*
X129157013Y-89259309D01*
X129217298Y-89204928D01*
X129379693Y-89047026D01*
X129527391Y-88883877D01*
X129660456Y-88715363D01*
X129778951Y-88541369D01*
X129882938Y-88361778D01*
X129972480Y-88176475D01*
X130047640Y-87985343D01*
X130108482Y-87788267D01*
X130155067Y-87585129D01*
X130181137Y-87425434D01*
X130188373Y-87358698D01*
X130193800Y-87280787D01*
X130197397Y-87195316D01*
X130199148Y-87105904D01*
X130199032Y-87016167D01*
X130197031Y-86929722D01*
X130193126Y-86850187D01*
X130187299Y-86781179D01*
X130184607Y-86758697D01*
X130148650Y-86544393D01*
X130098207Y-86335930D01*
X130033337Y-86133441D01*
X129954103Y-85937065D01*
X129860564Y-85746936D01*
X129752782Y-85563191D01*
X129630817Y-85385964D01*
X129494731Y-85215394D01*
X129491831Y-85212011D01*
X129413457Y-85123540D01*
X129331481Y-85036773D01*
X129244526Y-84950476D01*
X129151213Y-84863412D01*
X129050168Y-84774349D01*
X128940011Y-84682050D01*
X128819366Y-84585282D01*
X128686856Y-84482808D01*
X128633642Y-84442520D01*
X128474597Y-84322739D01*
X128754744Y-84043951D01*
X128790936Y-84007924D01*
X128837408Y-83961648D01*
X128893374Y-83905906D01*
X128958049Y-83841480D01*
X129030647Y-83769154D01*
X129110381Y-83689711D01*
X129196466Y-83603933D01*
X129288117Y-83512605D01*
X129384547Y-83416508D01*
X129484971Y-83316426D01*
X129588603Y-83213142D01*
X129694656Y-83107439D01*
X129802346Y-83000100D01*
X129910886Y-82891909D01*
X130019491Y-82783647D01*
X130020869Y-82782273D01*
X131006848Y-81799383D01*
X131037678Y-81825764D01*
X131093943Y-81873762D01*
X131150274Y-81921543D01*
X131204722Y-81967475D01*
X131255340Y-82009923D01*
X131300178Y-82047255D01*
X131337287Y-82077836D01*
X131364720Y-82100033D01*
X131367065Y-82101894D01*
X131408888Y-82134952D01*
X131442105Y-82161023D01*
X131470305Y-82182820D01*
X131497076Y-82203058D01*
X131526005Y-82224453D01*
X131560680Y-82249718D01*
X131601455Y-82279230D01*
X131844840Y-82447005D01*
X132089713Y-82599412D01*
X132336679Y-82736682D01*
X132586342Y-82859047D01*
X132839308Y-82966739D01*
X133096181Y-83059990D01*
X133357565Y-83139032D01*
X133624066Y-83204097D01*
X133896287Y-83255417D01*
X134174834Y-83293224D01*
X134269588Y-83302900D01*
X134311429Y-83305883D01*
X134366463Y-83308363D01*
X134432264Y-83310342D01*
X134506405Y-83311818D01*
X134586461Y-83312791D01*
X134670006Y-83313263D01*
X134754615Y-83313232D01*
X134837862Y-83312699D01*
X134917321Y-83311663D01*
X134990566Y-83310125D01*
X135055172Y-83308085D01*
X135108712Y-83305543D01*
X135144641Y-83302900D01*
X135428224Y-83269194D01*
X135704501Y-83221895D01*
X135974341Y-83160727D01*
X136238611Y-83085415D01*
X136498179Y-82995684D01*
X136753914Y-82891259D01*
X137006682Y-82771864D01*
X137257352Y-82637224D01*
X137274863Y-82627210D01*
X137451304Y-82521228D01*
X137631466Y-82404124D01*
X137811896Y-82278427D01*
X137989137Y-82146666D01*
X138159736Y-82011370D01*
X138320238Y-81875069D01*
X138399217Y-81804033D01*
X138419220Y-81785654D01*
X138625794Y-81958979D01*
X138706044Y-82025915D01*
X138777088Y-82084212D01*
X138841323Y-82135700D01*
X138901143Y-82182210D01*
X138958944Y-82225571D01*
X139017122Y-82267612D01*
X139078071Y-82310165D01*
X139144187Y-82355059D01*
X139144887Y-82355529D01*
X139372105Y-82501352D01*
X139598983Y-82633215D01*
X139828132Y-82752506D01*
X140062161Y-82860610D01*
X140217262Y-82925187D01*
X140470525Y-83019310D01*
X140724847Y-83099622D01*
X140982042Y-83166540D01*
X141243924Y-83220479D01*
X141512309Y-83261854D01*
X141789012Y-83291082D01*
X141828646Y-83294238D01*
X141883842Y-83297525D01*
X141951392Y-83300048D01*
X142028043Y-83301808D01*
X142110544Y-83302804D01*
X142195641Y-83303036D01*
X142280081Y-83302504D01*
X142360612Y-83301208D01*
X142433980Y-83299147D01*
X142496934Y-83296321D01*
X142527908Y-83294292D01*
X142804007Y-83265818D01*
X143076225Y-83222729D01*
X143344872Y-83164915D01*
X143610256Y-83092267D01*
X143872684Y-83004673D01*
X144132467Y-82902023D01*
X144389911Y-82784208D01*
X144645325Y-82651117D01*
X144899019Y-82502640D01*
X145094472Y-82377031D01*
X145148611Y-82339961D01*
X145205108Y-82299367D01*
X145265647Y-82253952D01*
X145331913Y-82202418D01*
X145405592Y-82143468D01*
X145488368Y-82075802D01*
X145527238Y-82043653D01*
X145572556Y-82006128D01*
X145614957Y-81971150D01*
X145652661Y-81940177D01*
X145683889Y-81914667D01*
X145706860Y-81896076D01*
X145719797Y-81885863D01*
X145720533Y-81885312D01*
X145734680Y-81872265D01*
X145755078Y-81850207D01*
X145778599Y-81822625D01*
X145794812Y-81802456D01*
X145846827Y-81736061D01*
X145866048Y-81758944D01*
G37*
G36*
X138454147Y-82715302D02*
G01*
X138474266Y-82728948D01*
X138503186Y-82749447D01*
X138539087Y-82775496D01*
X138580152Y-82805792D01*
X138617511Y-82833722D01*
X138872144Y-83015942D01*
X139131804Y-83183378D01*
X139396585Y-83336072D01*
X139666584Y-83474067D01*
X139941894Y-83597407D01*
X140222611Y-83706134D01*
X140508830Y-83800291D01*
X140800647Y-83879921D01*
X141065844Y-83938747D01*
X141114982Y-83947929D01*
X141162494Y-83955784D01*
X141204791Y-83961793D01*
X141238282Y-83965436D01*
X141256345Y-83966298D01*
X141281639Y-83967043D01*
X141299286Y-83969538D01*
X141305177Y-83972841D01*
X141312422Y-83979795D01*
X141331916Y-83985475D01*
X141360291Y-83989219D01*
X141394181Y-83990366D01*
X141394351Y-83990365D01*
X141415422Y-83991081D01*
X141448480Y-83993339D01*
X141489996Y-83996848D01*
X141536440Y-84001314D01*
X141570818Y-84004945D01*
X141623731Y-84010479D01*
X141679137Y-84015802D01*
X141731913Y-84020451D01*
X141776935Y-84023966D01*
X141795441Y-84025184D01*
X141830379Y-84027649D01*
X141858733Y-84030389D01*
X141877391Y-84033053D01*
X141883320Y-84035094D01*
X141890567Y-84036830D01*
X141910123Y-84037771D01*
X141938687Y-84037823D01*
X141961450Y-84037307D01*
X141994233Y-84036862D01*
X142020247Y-84037636D01*
X142036189Y-84039463D01*
X142039593Y-84041214D01*
X142047063Y-84042925D01*
X142068108Y-84044463D01*
X142100675Y-84045762D01*
X142142714Y-84046760D01*
X142192173Y-84047391D01*
X142242723Y-84047592D01*
X142297219Y-84047377D01*
X142346191Y-84046770D01*
X142387589Y-84045830D01*
X142419360Y-84044617D01*
X142439454Y-84043191D01*
X142445864Y-84041733D01*
X142453010Y-84038807D01*
X142471768Y-84036707D01*
X142498126Y-84035874D01*
X142499001Y-84035873D01*
X142572244Y-84033969D01*
X142658026Y-84028488D01*
X142753758Y-84019772D01*
X142856852Y-84008164D01*
X142964721Y-83994009D01*
X143074776Y-83977650D01*
X143184430Y-83959429D01*
X143291095Y-83939690D01*
X143392183Y-83918777D01*
X143408122Y-83915243D01*
X143678740Y-83846815D01*
X143948581Y-83763053D01*
X144217046Y-83664245D01*
X144483533Y-83550682D01*
X144747444Y-83422654D01*
X145008178Y-83280451D01*
X145265134Y-83124363D01*
X145517712Y-82954679D01*
X145748510Y-82784653D01*
X145790229Y-82753924D01*
X145821600Y-82734014D01*
X145843274Y-82724646D01*
X145855903Y-82725540D01*
X145860140Y-82736419D01*
X145860144Y-82736950D01*
X145865585Y-82744097D01*
X145881514Y-82761663D01*
X145907339Y-82789045D01*
X145942472Y-82825643D01*
X145986320Y-82870856D01*
X146038293Y-82924081D01*
X146097802Y-82984717D01*
X146164254Y-83052162D01*
X146237059Y-83125816D01*
X146315627Y-83205077D01*
X146399367Y-83289343D01*
X146487689Y-83378012D01*
X146580001Y-83470485D01*
X146607425Y-83497919D01*
X146726558Y-83617155D01*
X146834714Y-83725613D01*
X146932061Y-83823465D01*
X147018769Y-83910884D01*
X147095006Y-83988044D01*
X147160942Y-84055115D01*
X147216745Y-84112273D01*
X147262586Y-84159688D01*
X147298632Y-84197534D01*
X147325053Y-84225983D01*
X147342017Y-84245209D01*
X147349695Y-84255384D01*
X147350188Y-84257006D01*
X147341332Y-84266509D01*
X147322576Y-84279881D01*
X147299250Y-84293523D01*
X147281293Y-84304559D01*
X147259800Y-84320735D01*
X147233453Y-84343244D01*
X147200933Y-84373276D01*
X147160924Y-84412021D01*
X147112108Y-84460670D01*
X147093129Y-84479822D01*
X147024346Y-84549872D01*
X146964710Y-84611750D01*
X146911962Y-84667964D01*
X146863840Y-84721020D01*
X146818085Y-84773427D01*
X146772438Y-84827691D01*
X146724637Y-84886319D01*
X146708029Y-84907020D01*
X146584364Y-85069356D01*
X146474385Y-85230472D01*
X146376639Y-85393025D01*
X146289677Y-85559675D01*
X146212047Y-85733081D01*
X146142296Y-85915900D01*
X146117316Y-85989118D01*
X146069341Y-86141416D01*
X146029638Y-86284424D01*
X145997586Y-86421703D01*
X145972562Y-86556810D01*
X145953947Y-86693306D01*
X145941118Y-86834751D01*
X145933456Y-86984702D01*
X145931575Y-87053646D01*
X145930527Y-87113855D01*
X145929986Y-87168357D01*
X145929937Y-87215317D01*
X145930369Y-87252903D01*
X145931267Y-87279282D01*
X145932618Y-87292621D01*
X145933296Y-87293895D01*
X145936122Y-87301029D01*
X145937354Y-87319868D01*
X145936771Y-87346549D01*
X145936542Y-87350530D01*
X145936067Y-87383909D01*
X145937724Y-87425843D01*
X145941173Y-87469458D01*
X145943396Y-87489210D01*
X145976978Y-87694589D01*
X146025752Y-87900275D01*
X146089324Y-88105461D01*
X146167298Y-88309339D01*
X146259282Y-88511101D01*
X146364881Y-88709938D01*
X146483700Y-88905042D01*
X146615345Y-89095605D01*
X146759422Y-89280819D01*
X146892482Y-89434670D01*
X146941393Y-89488176D01*
X146986932Y-89537226D01*
X147027999Y-89580687D01*
X147063496Y-89617428D01*
X147092324Y-89646317D01*
X147113384Y-89666222D01*
X147125577Y-89676012D01*
X147127656Y-89676845D01*
X147135488Y-89682122D01*
X147152052Y-89696632D01*
X147175200Y-89718388D01*
X147202785Y-89745404D01*
X147214404Y-89757061D01*
X147245611Y-89788019D01*
X147275645Y-89816818D01*
X147301528Y-89840668D01*
X147320286Y-89856782D01*
X147323566Y-89859314D01*
X147340645Y-89874337D01*
X147350149Y-89887381D01*
X147350911Y-89891785D01*
X147345201Y-89899311D01*
X147329700Y-89917018D01*
X147305430Y-89943804D01*
X147273411Y-89978570D01*
X147234666Y-90020213D01*
X147190215Y-90067632D01*
X147141080Y-90119728D01*
X147088282Y-90175398D01*
X147070717Y-90193853D01*
X147012259Y-90255275D01*
X146953250Y-90317373D01*
X146895321Y-90378424D01*
X146840103Y-90436705D01*
X146789227Y-90490493D01*
X146744325Y-90538066D01*
X146707028Y-90577700D01*
X146680068Y-90606491D01*
X146646945Y-90641933D01*
X146605349Y-90686326D01*
X146557539Y-90737263D01*
X146505776Y-90792339D01*
X146452321Y-90849148D01*
X146399434Y-90905285D01*
X146367988Y-90938626D01*
X146315260Y-90994624D01*
X146259440Y-91054115D01*
X146203032Y-91114419D01*
X146148540Y-91172852D01*
X146098467Y-91226732D01*
X146055317Y-91273375D01*
X146036137Y-91294216D01*
X145998858Y-91334629D01*
X145964248Y-91371790D01*
X145933960Y-91403951D01*
X145909647Y-91429365D01*
X145892964Y-91446284D01*
X145886458Y-91452345D01*
X145862323Y-91462875D01*
X145830717Y-91466017D01*
X145814844Y-91465408D01*
X145800382Y-91462674D01*
X145784600Y-91456455D01*
X145764770Y-91445392D01*
X145738159Y-91428127D01*
X145702039Y-91403298D01*
X145695222Y-91398552D01*
X145511515Y-91272745D01*
X145336694Y-91157713D01*
X145169203Y-91052612D01*
X145007483Y-90956595D01*
X144849977Y-90868817D01*
X144695125Y-90788431D01*
X144541371Y-90714592D01*
X144387156Y-90646454D01*
X144230921Y-90583171D01*
X144109392Y-90537628D01*
X143831278Y-90444777D01*
X143550383Y-90366843D01*
X143266339Y-90303783D01*
X142978777Y-90255551D01*
X142687331Y-90222103D01*
X142391630Y-90203395D01*
X142091308Y-90199382D01*
X141785996Y-90210019D01*
X141547379Y-90228156D01*
X141259305Y-90262896D01*
X140974053Y-90312952D01*
X140691859Y-90378233D01*
X140412958Y-90458643D01*
X140137585Y-90554091D01*
X139865975Y-90664482D01*
X139598363Y-90789723D01*
X139334986Y-90929721D01*
X139076077Y-91084383D01*
X138821873Y-91253615D01*
X138651393Y-91377289D01*
X138595520Y-91418435D01*
X138549653Y-91450122D01*
X138511971Y-91473107D01*
X138480656Y-91488148D01*
X138453889Y-91496002D01*
X138429852Y-91497426D01*
X138406725Y-91493178D01*
X138388731Y-91486660D01*
X138374938Y-91478926D01*
X138350908Y-91463443D01*
X138318947Y-91441780D01*
X138281360Y-91415507D01*
X138240454Y-91386194D01*
X138230090Y-91378656D01*
X137983633Y-91205936D01*
X137738189Y-91048244D01*
X137492859Y-90905097D01*
X137246741Y-90776016D01*
X136998932Y-90660520D01*
X136748533Y-90558127D01*
X136573633Y-90494815D01*
X136328023Y-90417733D01*
X136073123Y-90351600D01*
X135811043Y-90296676D01*
X135543888Y-90253219D01*
X135273765Y-90221486D01*
X135002783Y-90201736D01*
X134733047Y-90194228D01*
X134466665Y-90199220D01*
X134264678Y-90211783D01*
X133972638Y-90243261D01*
X133685137Y-90289481D01*
X133401742Y-90350568D01*
X133122018Y-90426644D01*
X132845530Y-90517831D01*
X132571846Y-90624253D01*
X132300529Y-90746032D01*
X132200839Y-90794915D01*
X132146429Y-90822339D01*
X132095638Y-90848287D01*
X132047370Y-90873419D01*
X132000529Y-90898397D01*
X131954019Y-90923880D01*
X131906742Y-90950529D01*
X131857603Y-90979005D01*
X131805504Y-91009969D01*
X131749350Y-91044082D01*
X131688045Y-91082003D01*
X131620491Y-91124394D01*
X131545592Y-91171916D01*
X131462252Y-91225228D01*
X131369375Y-91284992D01*
X131265863Y-91351868D01*
X131150622Y-91426517D01*
X131124211Y-91443643D01*
X131091741Y-91464094D01*
X131063196Y-91480951D01*
X131041515Y-91492554D01*
X131029641Y-91497243D01*
X131029209Y-91497269D01*
X131021301Y-91491776D01*
X131003902Y-91476099D01*
X130978222Y-91451440D01*
X130945471Y-91419003D01*
X130906859Y-91379991D01*
X130863594Y-91335607D01*
X130816888Y-91287054D01*
X130799378Y-91268697D01*
X130732355Y-91198239D01*
X130671789Y-91134495D01*
X130616360Y-91076052D01*
X130564751Y-91021498D01*
X130515642Y-90969423D01*
X130467715Y-90918414D01*
X130419651Y-90867061D01*
X130370131Y-90813952D01*
X130317836Y-90757675D01*
X130261448Y-90696818D01*
X130199647Y-90629971D01*
X130131116Y-90555722D01*
X130054535Y-90472660D01*
X129976729Y-90388212D01*
X129950551Y-90359901D01*
X129915770Y-90322447D01*
X129874481Y-90278099D01*
X129828779Y-90229102D01*
X129780760Y-90177705D01*
X129732518Y-90126155D01*
X129712667Y-90104969D01*
X129669678Y-90058800D01*
X129630319Y-90015931D01*
X129595830Y-89977760D01*
X129567449Y-89945683D01*
X129546415Y-89921096D01*
X129533969Y-89905395D01*
X129531015Y-89900285D01*
X129536621Y-89891611D01*
X129552090Y-89874816D01*
X129575396Y-89851922D01*
X129604516Y-89824950D01*
X129622817Y-89808633D01*
X129676883Y-89759772D01*
X129737289Y-89702951D01*
X129801220Y-89640986D01*
X129865861Y-89576691D01*
X129928399Y-89512883D01*
X129986019Y-89452377D01*
X130035907Y-89397988D01*
X130055269Y-89376045D01*
X130208720Y-89188825D01*
X130347066Y-88997774D01*
X130381919Y-88942641D01*
X133875337Y-88942641D01*
X134126153Y-88940579D01*
X134376969Y-88938518D01*
X134603021Y-88329106D01*
X134637667Y-88235830D01*
X134670841Y-88146758D01*
X134702131Y-88062981D01*
X134731127Y-87985589D01*
X134757417Y-87915673D01*
X134780589Y-87854324D01*
X134800231Y-87802633D01*
X134815932Y-87761691D01*
X134827280Y-87732588D01*
X134833864Y-87716416D01*
X134835341Y-87713388D01*
X134839622Y-87718545D01*
X134848141Y-87736486D01*
X134860082Y-87765206D01*
X134874627Y-87802704D01*
X134890961Y-87846976D01*
X134899056Y-87869647D01*
X134912392Y-87907368D01*
X134930262Y-87957882D01*
X134951981Y-88019257D01*
X134976864Y-88089557D01*
X135004225Y-88166848D01*
X135033382Y-88249195D01*
X135063647Y-88334665D01*
X135094338Y-88421322D01*
X135117022Y-88485365D01*
X135277541Y-88938518D01*
X135742691Y-88942658D01*
X135738090Y-88924962D01*
X135735225Y-88915457D01*
X135727959Y-88891935D01*
X135716572Y-88855292D01*
X135701343Y-88806419D01*
X135682552Y-88746209D01*
X135660477Y-88675557D01*
X135635398Y-88595354D01*
X135607595Y-88506494D01*
X135577346Y-88409870D01*
X135544931Y-88306375D01*
X135510629Y-88196903D01*
X135474720Y-88082346D01*
X135437482Y-87963597D01*
X135427146Y-87930644D01*
X135185748Y-87161065D01*
X136300962Y-87161065D01*
X136300971Y-87320783D01*
X136301003Y-87465651D01*
X136301066Y-87596442D01*
X136301170Y-87713933D01*
X136301323Y-87818898D01*
X136301533Y-87912112D01*
X136301809Y-87994351D01*
X136302160Y-88066389D01*
X136302594Y-88129002D01*
X136303120Y-88182964D01*
X136303747Y-88229052D01*
X136304482Y-88268038D01*
X136305335Y-88300700D01*
X136306314Y-88327811D01*
X136307428Y-88350148D01*
X136308686Y-88368484D01*
X136310095Y-88383596D01*
X136311665Y-88396257D01*
X136313405Y-88407244D01*
X136314864Y-88415048D01*
X136332455Y-88491283D01*
X136353648Y-88561817D01*
X136377413Y-88623771D01*
X136402716Y-88674266D01*
X136414278Y-88692409D01*
X136419557Y-88700859D01*
X136422102Y-88709518D01*
X136421358Y-88721168D01*
X136416773Y-88738588D01*
X136407791Y-88764558D01*
X136393860Y-88801860D01*
X136390930Y-88809604D01*
X136376697Y-88847426D01*
X136364117Y-88881253D01*
X136354425Y-88907732D01*
X136348859Y-88923512D01*
X136348425Y-88924845D01*
X136342881Y-88942425D01*
X136583657Y-88942305D01*
X136643754Y-88942084D01*
X136698989Y-88941516D01*
X136747376Y-88940651D01*
X136786931Y-88939536D01*
X136815668Y-88938222D01*
X136831601Y-88936757D01*
X136834001Y-88936106D01*
X136843268Y-88923834D01*
X136846103Y-88914740D01*
X136851952Y-88895509D01*
X136857978Y-88882464D01*
X136866583Y-88863077D01*
X136870075Y-88851212D01*
X136875030Y-88833842D01*
X136882611Y-88813510D01*
X136890022Y-88794837D01*
X136894290Y-88782394D01*
X136894324Y-88782259D01*
X136898497Y-88770031D01*
X136905877Y-88751406D01*
X136906044Y-88751007D01*
X136913458Y-88732334D01*
X136917729Y-88719891D01*
X136917763Y-88719755D01*
X136921936Y-88707527D01*
X136929316Y-88688903D01*
X136929483Y-88688503D01*
X136937194Y-88668355D01*
X136941805Y-88653344D01*
X136944689Y-88642969D01*
X136945533Y-88641625D01*
X136947950Y-88635339D01*
X136949262Y-88629905D01*
X136953980Y-88614591D01*
X136961584Y-88594747D01*
X136968999Y-88576074D01*
X136973269Y-88563631D01*
X136973304Y-88563495D01*
X136977477Y-88551267D01*
X136984856Y-88532643D01*
X136985023Y-88532243D01*
X136992455Y-88513568D01*
X136996764Y-88501126D01*
X136996799Y-88500991D01*
X137001377Y-88486473D01*
X137010909Y-88459077D01*
X137024977Y-88419908D01*
X137043161Y-88370075D01*
X137065041Y-88310685D01*
X137090197Y-88242844D01*
X137118211Y-88167661D01*
X137148661Y-88086242D01*
X137181130Y-87999694D01*
X137215197Y-87909125D01*
X137250443Y-87815642D01*
X137286448Y-87720351D01*
X137322792Y-87624361D01*
X137359057Y-87528778D01*
X137394821Y-87434710D01*
X137429667Y-87343264D01*
X137463174Y-87255546D01*
X137494922Y-87172665D01*
X137524493Y-87095727D01*
X137551466Y-87025839D01*
X137575422Y-86964109D01*
X137595942Y-86911644D01*
X137612605Y-86869551D01*
X137624992Y-86838938D01*
X137632685Y-86820911D01*
X137635219Y-86816312D01*
X137636142Y-86824900D01*
X137636968Y-86847946D01*
X137637690Y-86884285D01*
X137638301Y-86932748D01*
X137638795Y-86992168D01*
X137639163Y-87061380D01*
X137639400Y-87139215D01*
X137639498Y-87224507D01*
X137639450Y-87316089D01*
X137639250Y-87412794D01*
X137639077Y-87466423D01*
X137638654Y-87586715D01*
X137638253Y-87692410D01*
X137637791Y-87784536D01*
X137637181Y-87864122D01*
X137636337Y-87932195D01*
X137635175Y-87989785D01*
X137633609Y-88037919D01*
X137631554Y-88077627D01*
X137628923Y-88109936D01*
X137625632Y-88135874D01*
X137621595Y-88156471D01*
X137616726Y-88172754D01*
X137610941Y-88185752D01*
X137604153Y-88196494D01*
X137596278Y-88206007D01*
X137587229Y-88215320D01*
X137576921Y-88225461D01*
X137575914Y-88226464D01*
X137551311Y-88247537D01*
X137524049Y-88262804D01*
X137490850Y-88273325D01*
X137448439Y-88280163D01*
X137397822Y-88284149D01*
X137322294Y-88288311D01*
X137214929Y-88578256D01*
X137190681Y-88643687D01*
X137167592Y-88705891D01*
X137146350Y-88763024D01*
X137127641Y-88813245D01*
X137112151Y-88854710D01*
X137100567Y-88885575D01*
X137093577Y-88903999D01*
X137092785Y-88906043D01*
X137078006Y-88943886D01*
X137365307Y-88940518D01*
X137441025Y-88939574D01*
X137502959Y-88938620D01*
X137552952Y-88937550D01*
X137592846Y-88936256D01*
X137624483Y-88934631D01*
X137649707Y-88932568D01*
X137670358Y-88929960D01*
X137688280Y-88926700D01*
X137705314Y-88922679D01*
X137714659Y-88920191D01*
X137803255Y-88888835D01*
X137881634Y-88845934D01*
X137949873Y-88791383D01*
X138008051Y-88725078D01*
X138056244Y-88646916D01*
X138094531Y-88556791D01*
X138122989Y-88454600D01*
X138140678Y-88348843D01*
X138141909Y-88330565D01*
X138143044Y-88296927D01*
X138144082Y-88248193D01*
X138145020Y-88184630D01*
X138145856Y-88106501D01*
X138146590Y-88014073D01*
X138147198Y-87911111D01*
X138789397Y-87911111D01*
X138789419Y-88096669D01*
X138789967Y-88179618D01*
X138791761Y-88249805D01*
X138795054Y-88310064D01*
X138800101Y-88363226D01*
X138807156Y-88412125D01*
X138816475Y-88459593D01*
X138825385Y-88497085D01*
X138856883Y-88593735D01*
X138899580Y-88679539D01*
X138953190Y-88754250D01*
X139017431Y-88817620D01*
X139092018Y-88869402D01*
X139176666Y-88909346D01*
X139271093Y-88937207D01*
X139344573Y-88949597D01*
X139364676Y-88951039D01*
X139398468Y-88952293D01*
X139444010Y-88953335D01*
X139499367Y-88954139D01*
X139562600Y-88954682D01*
X139631773Y-88954939D01*
X139704948Y-88954886D01*
X139750393Y-88954692D01*
X139833896Y-88954187D01*
X139903395Y-88953645D01*
X139960514Y-88952992D01*
X140006876Y-88952154D01*
X140044103Y-88951057D01*
X140073819Y-88949629D01*
X140097646Y-88947795D01*
X140117208Y-88945483D01*
X140134126Y-88942617D01*
X140150024Y-88939125D01*
X140162453Y-88936000D01*
X140254044Y-88904791D01*
X140336242Y-88861197D01*
X140409146Y-88805124D01*
X140472860Y-88736480D01*
X140527484Y-88655170D01*
X140573120Y-88561102D01*
X140575039Y-88556381D01*
X140598167Y-88494522D01*
X140616865Y-88433582D01*
X140631464Y-88371154D01*
X140642294Y-88304832D01*
X140649682Y-88232209D01*
X140653960Y-88150880D01*
X140655457Y-88058437D01*
X140654854Y-87973615D01*
X140653459Y-87899133D01*
X140651448Y-87837755D01*
X140648384Y-87786962D01*
X140643830Y-87744231D01*
X140637349Y-87707044D01*
X140628503Y-87672878D01*
X140616856Y-87639214D01*
X140601970Y-87603531D01*
X140583878Y-87564298D01*
X140533638Y-87471121D01*
X140473009Y-87382452D01*
X140401073Y-87297364D01*
X140316911Y-87214931D01*
X140219602Y-87134226D01*
X140108229Y-87054324D01*
X140024125Y-87000058D01*
X139904316Y-86923967D01*
X139798293Y-86852801D01*
X139705263Y-86785856D01*
X139624435Y-86722432D01*
X139555016Y-86661828D01*
X139496213Y-86603341D01*
X139447235Y-86546270D01*
X139407288Y-86489913D01*
X139375582Y-86433569D01*
X139369215Y-86420199D01*
X139360727Y-86400217D01*
X139354778Y-86381056D01*
X139350795Y-86359028D01*
X139348205Y-86330448D01*
X139346434Y-86291628D01*
X139345735Y-86269263D01*
X139342658Y-86162666D01*
X139371341Y-86130917D01*
X139387282Y-86114335D01*
X139403299Y-86100904D01*
X139421211Y-86090276D01*
X139442839Y-86082102D01*
X139470001Y-86076034D01*
X139504516Y-86071723D01*
X139548206Y-86068820D01*
X139602888Y-86066977D01*
X139670382Y-86065845D01*
X139713287Y-86065402D01*
X139783847Y-86064848D01*
X139840680Y-86064799D01*
X139885685Y-86065566D01*
X139920759Y-86067457D01*
X139947800Y-86070783D01*
X139968708Y-86075852D01*
X139985378Y-86082974D01*
X139999711Y-86092459D01*
X140013603Y-86104616D01*
X140025516Y-86116314D01*
X140059701Y-86160971D01*
X140085909Y-86218666D01*
X140104196Y-86289560D01*
X140114614Y-86373813D01*
X140115146Y-86381720D01*
X140119964Y-86457897D01*
X140664512Y-86457897D01*
X140664490Y-86268432D01*
X140663337Y-86165850D01*
X140659669Y-86076592D01*
X140655619Y-86028183D01*
X140653137Y-85998510D01*
X140643390Y-85929451D01*
X140630078Y-85867267D01*
X140612851Y-85809806D01*
X140591358Y-85754919D01*
X140575193Y-85720128D01*
X140526930Y-85636973D01*
X140469756Y-85566415D01*
X140402961Y-85507862D01*
X140325831Y-85460719D01*
X140237654Y-85424393D01*
X140210223Y-85415886D01*
X140176452Y-85406746D01*
X140142756Y-85399189D01*
X140107360Y-85393100D01*
X140068493Y-85388367D01*
X140024381Y-85384875D01*
X139973251Y-85382512D01*
X139913331Y-85381163D01*
X139842846Y-85380717D01*
X139760026Y-85381058D01*
X139678680Y-85381883D01*
X139599479Y-85382901D01*
X139534114Y-85383931D01*
X139480794Y-85385069D01*
X139437729Y-85386408D01*
X139403128Y-85388042D01*
X139375202Y-85390068D01*
X139352159Y-85392578D01*
X139332210Y-85395667D01*
X139313565Y-85399431D01*
X139303864Y-85401668D01*
X139204946Y-85432002D01*
X139117090Y-85473354D01*
X139040148Y-85525852D01*
X138973972Y-85589628D01*
X138918415Y-85664810D01*
X138873330Y-85751530D01*
X138855650Y-85796491D01*
X138842645Y-85833763D01*
X138831880Y-85867468D01*
X138823144Y-85899580D01*
X138816229Y-85932072D01*
X138810923Y-85966919D01*
X138807018Y-86006093D01*
X138804304Y-86051568D01*
X138802572Y-86105318D01*
X138801610Y-86169317D01*
X138801211Y-86245539D01*
X138801154Y-86309450D01*
X138801191Y-86610250D01*
X138822682Y-86678880D01*
X138858583Y-86776543D01*
X138903394Y-86866861D01*
X138958837Y-86952584D01*
X139026632Y-87036461D01*
X139085756Y-87098946D01*
X139134667Y-87146191D01*
X139183244Y-87189518D01*
X139234045Y-87230860D01*
X139289627Y-87272151D01*
X139352546Y-87315322D01*
X139425361Y-87362307D01*
X139475595Y-87393583D01*
X139601654Y-87472974D01*
X139713254Y-87546941D01*
X139810544Y-87615605D01*
X139893674Y-87679086D01*
X139962793Y-87737505D01*
X140018050Y-87790983D01*
X140059596Y-87839641D01*
X140087580Y-87883599D01*
X140090905Y-87890410D01*
X140098013Y-87906776D01*
X140103058Y-87922464D01*
X140106386Y-87940550D01*
X140108345Y-87964114D01*
X140109282Y-87996233D01*
X140109544Y-88039985D01*
X140109543Y-88055651D01*
X140108622Y-88116713D01*
X140105376Y-88164462D01*
X140098918Y-88201144D01*
X140088363Y-88229004D01*
X140072827Y-88250290D01*
X140051423Y-88267248D01*
X140023268Y-88282123D01*
X140019655Y-88283758D01*
X140009037Y-88287776D01*
X139995864Y-88291007D01*
X139978301Y-88293564D01*
X139954512Y-88295559D01*
X139922663Y-88297107D01*
X139880918Y-88298319D01*
X139827441Y-88299308D01*
X139760399Y-88300189D01*
X139751172Y-88300295D01*
X139676896Y-88301011D01*
X139616462Y-88301109D01*
X139568090Y-88300293D01*
X139530000Y-88298268D01*
X139500413Y-88294740D01*
X139477548Y-88289412D01*
X139459624Y-88281990D01*
X139444863Y-88272179D01*
X139431483Y-88259682D01*
X139418487Y-88245121D01*
X139394376Y-88210933D01*
X139375094Y-88169466D01*
X139360057Y-88118716D01*
X139348681Y-88056680D01*
X139340381Y-87981355D01*
X139339903Y-87975568D01*
X139334679Y-87911111D01*
X138789397Y-87911111D01*
X138147198Y-87911111D01*
X138147219Y-87907610D01*
X138147742Y-87787377D01*
X138148156Y-87653640D01*
X138148460Y-87506664D01*
X138148652Y-87346715D01*
X138148730Y-87174056D01*
X138148732Y-87141151D01*
X138148728Y-86985079D01*
X138148709Y-86843827D01*
X138148663Y-86716588D01*
X138148581Y-86602557D01*
X138148453Y-86500926D01*
X138148266Y-86410891D01*
X138148012Y-86331643D01*
X138147680Y-86262378D01*
X138147258Y-86202289D01*
X138146737Y-86150569D01*
X138146106Y-86106413D01*
X138145354Y-86069014D01*
X138144472Y-86037566D01*
X138143447Y-86011263D01*
X138142271Y-85989298D01*
X138140933Y-85970865D01*
X138139421Y-85955159D01*
X138137725Y-85941372D01*
X138135836Y-85928698D01*
X138133742Y-85916331D01*
X138132685Y-85910401D01*
X138122921Y-85863120D01*
X138110071Y-85810491D01*
X138096223Y-85760778D01*
X138089331Y-85738855D01*
X138062025Y-85656571D01*
X138117098Y-85511268D01*
X138133933Y-85466619D01*
X138148690Y-85427036D01*
X138160529Y-85394807D01*
X138168611Y-85372222D01*
X138168719Y-85371892D01*
X141234860Y-85371892D01*
X141234860Y-86028183D01*
X141922402Y-86028183D01*
X141922402Y-88942425D01*
X142430246Y-88942425D01*
X143779311Y-88942425D01*
X145657007Y-88942425D01*
X145657007Y-88286134D01*
X144305361Y-88286134D01*
X144305361Y-85371892D01*
X143789704Y-85371892D01*
X143789700Y-86307497D01*
X143789647Y-86449684D01*
X143789492Y-86602742D01*
X143789243Y-86764112D01*
X143788908Y-86931237D01*
X143788495Y-87101560D01*
X143788010Y-87272522D01*
X143787460Y-87441566D01*
X143786855Y-87606135D01*
X143786200Y-87763670D01*
X143785504Y-87911613D01*
X143784773Y-88047408D01*
X143784504Y-88092763D01*
X143779311Y-88942425D01*
X142430246Y-88942425D01*
X142430246Y-86028183D01*
X143109975Y-86028183D01*
X143109975Y-85371892D01*
X141234860Y-85371892D01*
X138168719Y-85371892D01*
X138172096Y-85361568D01*
X138172171Y-85361116D01*
X138164672Y-85359919D01*
X138143428Y-85358829D01*
X138110321Y-85357884D01*
X138067232Y-85357122D01*
X138016043Y-85356581D01*
X137958634Y-85356299D01*
X137930652Y-85356267D01*
X137689133Y-85356267D01*
X137669145Y-85409004D01*
X137663251Y-85424658D01*
X137652353Y-85453703D01*
X137636918Y-85494895D01*
X137617413Y-85546987D01*
X137594302Y-85608733D01*
X137568053Y-85678889D01*
X137539131Y-85756208D01*
X137508003Y-85839445D01*
X137475135Y-85927353D01*
X137440993Y-86018688D01*
X137434524Y-86035996D01*
X137367485Y-86215232D01*
X137303449Y-86386184D01*
X137242575Y-86548436D01*
X137185021Y-86701570D01*
X137130946Y-86845169D01*
X137080509Y-86978816D01*
X137033867Y-87102095D01*
X136991180Y-87214587D01*
X136952607Y-87315876D01*
X136918306Y-87405545D01*
X136888435Y-87483176D01*
X136863153Y-87548353D01*
X136842620Y-87600659D01*
X136826992Y-87639676D01*
X136816430Y-87664988D01*
X136811091Y-87676176D01*
X136810562Y-87676722D01*
X136809681Y-87669089D01*
X136808886Y-87646914D01*
X136808182Y-87611280D01*
X136807576Y-87563270D01*
X136807072Y-87503966D01*
X136806678Y-87434453D01*
X136806399Y-87355813D01*
X136806241Y-87269129D01*
X136806210Y-87175486D01*
X136806311Y-87075965D01*
X136806550Y-86971650D01*
X136806622Y-86948161D01*
X136808951Y-86219601D01*
X136826491Y-86167771D01*
X136850887Y-86115139D01*
X136884050Y-86075120D01*
X136925668Y-86048044D01*
X136946527Y-86040331D01*
X136978898Y-86033724D01*
X137023462Y-86029725D01*
X137081742Y-86028205D01*
X137090930Y-86028183D01*
X137194426Y-86028183D01*
X137211365Y-85983258D01*
X137218002Y-85965550D01*
X137229338Y-85935190D01*
X137244627Y-85894172D01*
X137263128Y-85844493D01*
X137284098Y-85788148D01*
X137306792Y-85727133D01*
X137328483Y-85668786D01*
X137351495Y-85606888D01*
X137372936Y-85549258D01*
X137392161Y-85497624D01*
X137408527Y-85453713D01*
X137421390Y-85419253D01*
X137430106Y-85395971D01*
X137434031Y-85385594D01*
X137434042Y-85385565D01*
X137434654Y-85382102D01*
X137432555Y-85379277D01*
X137426336Y-85377027D01*
X137414585Y-85375287D01*
X137395892Y-85373992D01*
X137368847Y-85373079D01*
X137332040Y-85372482D01*
X137284060Y-85372138D01*
X137223497Y-85371982D01*
X137148940Y-85371950D01*
X137135834Y-85371951D01*
X137061212Y-85372183D01*
X136991420Y-85372818D01*
X136928308Y-85373814D01*
X136873723Y-85375128D01*
X136829514Y-85376717D01*
X136797529Y-85378537D01*
X136781461Y-85380213D01*
X136690499Y-85401905D01*
X136608877Y-85436096D01*
X136536584Y-85482796D01*
X136473609Y-85542020D01*
X136419941Y-85613779D01*
X136375568Y-85698086D01*
X136340479Y-85794954D01*
X136315612Y-85899269D01*
X136313639Y-85910348D01*
X136311852Y-85922047D01*
X136310240Y-85935148D01*
X136308795Y-85950434D01*
X136307508Y-85968686D01*
X136306370Y-85990686D01*
X136305371Y-86017218D01*
X136304503Y-86049061D01*
X136303757Y-86087000D01*
X136303122Y-86131816D01*
X136302591Y-86184292D01*
X136302155Y-86245208D01*
X136301803Y-86315348D01*
X136301527Y-86395494D01*
X136301319Y-86486428D01*
X136301168Y-86588931D01*
X136301066Y-86703787D01*
X136301004Y-86831776D01*
X136300973Y-86973682D01*
X136300963Y-87130287D01*
X136300962Y-87161065D01*
X135185748Y-87161065D01*
X135120803Y-86954021D01*
X135419746Y-86157097D01*
X135459762Y-86050408D01*
X135498207Y-85947878D01*
X135534729Y-85850447D01*
X135568975Y-85759057D01*
X135600594Y-85674650D01*
X135629232Y-85598165D01*
X135654538Y-85530546D01*
X135676160Y-85472732D01*
X135693744Y-85425666D01*
X135706938Y-85390289D01*
X135715390Y-85367541D01*
X135718749Y-85358365D01*
X135718793Y-85358220D01*
X135711315Y-85357748D01*
X135690066Y-85357325D01*
X135656903Y-85356965D01*
X135613679Y-85356682D01*
X135562251Y-85356490D01*
X135504473Y-85356401D01*
X135470833Y-85356401D01*
X135222771Y-85356535D01*
X135047228Y-85829086D01*
X135016790Y-85910829D01*
X134987878Y-85988092D01*
X134960958Y-86059653D01*
X134936498Y-86124290D01*
X134914964Y-86180782D01*
X134896822Y-86227906D01*
X134882539Y-86264439D01*
X134872582Y-86289161D01*
X134867416Y-86300849D01*
X134866843Y-86301637D01*
X134863274Y-86294543D01*
X134854597Y-86274070D01*
X134841291Y-86241432D01*
X134823836Y-86197843D01*
X134802713Y-86144515D01*
X134778402Y-86082663D01*
X134751382Y-86013500D01*
X134722133Y-85938241D01*
X134691135Y-85858097D01*
X134679898Y-85828952D01*
X134497796Y-85356267D01*
X134032457Y-85356267D01*
X134085754Y-85514479D01*
X134096308Y-85545804D01*
X134111388Y-85590548D01*
X134130526Y-85647325D01*
X134153253Y-85714748D01*
X134179103Y-85791429D01*
X134207607Y-85875981D01*
X134238299Y-85967018D01*
X134270710Y-86063152D01*
X134304373Y-86162996D01*
X134338820Y-86265162D01*
X134366925Y-86348515D01*
X134400217Y-86447523D01*
X134431978Y-86542502D01*
X134461860Y-86632384D01*
X134489516Y-86716100D01*
X134514599Y-86792582D01*
X134536761Y-86860762D01*
X134555656Y-86919571D01*
X134570937Y-86967942D01*
X134582256Y-87004806D01*
X134589266Y-87029095D01*
X134591620Y-87039740D01*
X134591599Y-87039964D01*
X134588641Y-87048389D01*
X134580562Y-87070376D01*
X134567761Y-87104868D01*
X134550634Y-87150808D01*
X134529580Y-87207139D01*
X134504995Y-87272804D01*
X134477279Y-87346746D01*
X134446829Y-87427909D01*
X134414043Y-87515234D01*
X134379318Y-87607665D01*
X134343052Y-87704145D01*
X134305643Y-87803617D01*
X134267489Y-87905024D01*
X134228988Y-88007309D01*
X134190537Y-88109415D01*
X134152534Y-88210285D01*
X134115377Y-88308863D01*
X134079464Y-88404090D01*
X134045192Y-88494910D01*
X134012960Y-88580266D01*
X133983165Y-88659101D01*
X133956205Y-88730359D01*
X133932477Y-88792981D01*
X133912380Y-88845911D01*
X133896312Y-88888092D01*
X133884669Y-88918468D01*
X133883674Y-88921047D01*
X133875337Y-88942641D01*
X130381919Y-88942641D01*
X130382056Y-88942425D01*
X130470341Y-88802769D01*
X130578580Y-88603690D01*
X130671815Y-88400415D01*
X130750081Y-88192822D01*
X130813412Y-87980789D01*
X130861841Y-87764196D01*
X130895403Y-87542921D01*
X130914131Y-87316842D01*
X130918059Y-87085838D01*
X130907221Y-86849788D01*
X130881652Y-86608569D01*
X130862591Y-86481336D01*
X130817212Y-86252780D01*
X130757087Y-86028653D01*
X130682519Y-85809670D01*
X130593813Y-85596548D01*
X130491276Y-85390004D01*
X130485277Y-85379705D01*
X131663958Y-85379705D01*
X131663958Y-88942425D01*
X132234306Y-88942425D01*
X132234306Y-88223630D01*
X132234378Y-88116827D01*
X132234588Y-88015191D01*
X132234925Y-87919764D01*
X132235381Y-87831587D01*
X132235945Y-87751702D01*
X132236607Y-87681150D01*
X132237357Y-87620974D01*
X132238186Y-87572214D01*
X132239085Y-87535912D01*
X132240042Y-87513110D01*
X132241048Y-87504849D01*
X132241090Y-87504836D01*
X132245284Y-87511755D01*
X132255654Y-87531886D01*
X132271748Y-87564287D01*
X132293117Y-87608021D01*
X132319308Y-87662146D01*
X132349871Y-87725724D01*
X132384355Y-87797813D01*
X132422309Y-87877475D01*
X132463282Y-87963769D01*
X132506823Y-88055755D01*
X132552481Y-88152494D01*
X132585975Y-88223630D01*
X132924076Y-88942425D01*
X133216860Y-88942425D01*
X133292261Y-88942388D01*
X133353478Y-88942234D01*
X133401953Y-88941893D01*
X133439129Y-88941297D01*
X133466447Y-88940378D01*
X133485350Y-88939067D01*
X133497280Y-88937298D01*
X133503679Y-88935000D01*
X133505989Y-88932106D01*
X133505713Y-88928752D01*
X133502149Y-88920002D01*
X133492708Y-88897806D01*
X133477770Y-88863037D01*
X133457713Y-88816568D01*
X133432916Y-88759272D01*
X133403758Y-88692023D01*
X133370619Y-88615693D01*
X133333878Y-88531156D01*
X133293913Y-88439284D01*
X133251104Y-88340951D01*
X133205829Y-88237029D01*
X133158468Y-88128393D01*
X133109694Y-88016586D01*
X133060664Y-87904110D01*
X133013402Y-87795451D01*
X132968283Y-87691485D01*
X132925684Y-87593088D01*
X132885978Y-87501134D01*
X132849542Y-87416498D01*
X132816751Y-87340055D01*
X132787980Y-87272680D01*
X132763605Y-87215249D01*
X132744000Y-87168636D01*
X132729542Y-87133716D01*
X132720606Y-87111364D01*
X132717566Y-87102468D01*
X132720800Y-87093507D01*
X132730241Y-87071274D01*
X132745485Y-87036657D01*
X132766127Y-86990541D01*
X132791762Y-86933814D01*
X132821986Y-86867360D01*
X132856393Y-86792068D01*
X132894579Y-86708823D01*
X132936138Y-86618512D01*
X132980666Y-86522022D01*
X133027759Y-86420238D01*
X133077011Y-86314047D01*
X133112674Y-86237310D01*
X133163139Y-86128783D01*
X133211734Y-86024211D01*
X133258057Y-85924465D01*
X133301705Y-85830417D01*
X133342272Y-85742939D01*
X133379358Y-85662900D01*
X133412557Y-85591174D01*
X133441467Y-85528631D01*
X133465684Y-85476143D01*
X133484805Y-85434580D01*
X133498427Y-85404814D01*
X133506146Y-85387718D01*
X133507822Y-85383742D01*
X133500297Y-85382825D01*
X133478871Y-85381981D01*
X133445269Y-85381234D01*
X133401218Y-85380609D01*
X133348443Y-85380130D01*
X133288668Y-85379821D01*
X133223619Y-85379706D01*
X133220651Y-85379705D01*
X132933481Y-85379705D01*
X132594522Y-86022323D01*
X132545277Y-86115594D01*
X132497955Y-86205043D01*
X132453082Y-86289686D01*
X132411183Y-86368542D01*
X132372785Y-86440626D01*
X132338413Y-86504955D01*
X132308591Y-86560546D01*
X132283847Y-86606415D01*
X132264705Y-86641579D01*
X132251691Y-86665056D01*
X132245330Y-86675860D01*
X132244935Y-86676381D01*
X132243016Y-86676529D01*
X132241334Y-86671973D01*
X132239876Y-86661818D01*
X132238626Y-86645165D01*
X132237570Y-86621117D01*
X132236693Y-86588775D01*
X132235979Y-86547243D01*
X132235415Y-86495623D01*
X132234984Y-86433016D01*
X132234673Y-86358526D01*
X132234466Y-86271254D01*
X132234349Y-86170304D01*
X132234307Y-86054777D01*
X132234306Y-86033764D01*
X132234306Y-85379705D01*
X131663958Y-85379705D01*
X130485277Y-85379705D01*
X130375211Y-85190753D01*
X130245924Y-84999511D01*
X130212220Y-84953898D01*
X130117569Y-84834339D01*
X130012256Y-84712622D01*
X129900001Y-84592699D01*
X129784524Y-84478525D01*
X129669545Y-84374052D01*
X129654069Y-84360741D01*
X129620991Y-84331906D01*
X129592559Y-84306006D01*
X129570748Y-84284930D01*
X129557535Y-84270569D01*
X129554454Y-84265409D01*
X129559415Y-84258814D01*
X129574352Y-84242462D01*
X129599346Y-84216270D01*
X129634480Y-84180158D01*
X129679834Y-84134043D01*
X129735489Y-84077845D01*
X129801528Y-84011482D01*
X129878032Y-83934872D01*
X129965081Y-83847934D01*
X130062758Y-83750587D01*
X130171144Y-83642749D01*
X130290320Y-83524338D01*
X130420368Y-83395273D01*
X130561370Y-83255473D01*
X130713405Y-83104856D01*
X130795160Y-83023908D01*
X130860168Y-82959780D01*
X130915072Y-82906189D01*
X130960665Y-82862472D01*
X130997738Y-82827966D01*
X131027084Y-82802009D01*
X131049495Y-82783937D01*
X131065763Y-82773087D01*
X131076680Y-82768797D01*
X131083040Y-82770403D01*
X131085633Y-82777242D01*
X131085798Y-82780678D01*
X131092255Y-82788870D01*
X131110713Y-82804242D01*
X131139798Y-82825887D01*
X131178139Y-82852900D01*
X131224363Y-82884376D01*
X131277098Y-82919410D01*
X131334973Y-82957095D01*
X131396614Y-82996526D01*
X131460650Y-83036799D01*
X131525709Y-83077007D01*
X131590418Y-83116245D01*
X131630980Y-83140410D01*
X131892315Y-83288068D01*
X132155898Y-83423481D01*
X132420555Y-83546154D01*
X132685118Y-83655590D01*
X132948416Y-83751294D01*
X133209277Y-83832769D01*
X133363659Y-83874497D01*
X133453318Y-83896624D01*
X133541950Y-83917240D01*
X133627701Y-83935990D01*
X133708715Y-83952518D01*
X133783140Y-83966471D01*
X133849121Y-83977493D01*
X133904804Y-83985230D01*
X133948334Y-83989328D01*
X133966835Y-83989899D01*
X133994320Y-83990591D01*
X134014452Y-83992695D01*
X134023350Y-83995776D01*
X134023479Y-83996223D01*
X134029711Y-84001586D01*
X134048847Y-84006177D01*
X134081544Y-84010071D01*
X134128461Y-84013344D01*
X134190255Y-84016071D01*
X134199244Y-84016384D01*
X134238752Y-84018118D01*
X134272194Y-84020338D01*
X134296707Y-84022796D01*
X134309429Y-84025244D01*
X134310560Y-84026027D01*
X134318719Y-84028620D01*
X134338336Y-84029846D01*
X134365284Y-84029460D01*
X134367230Y-84029372D01*
X134394160Y-84028943D01*
X134413687Y-84030248D01*
X134421877Y-84033007D01*
X134421924Y-84033278D01*
X134429184Y-84035728D01*
X134448831Y-84037277D01*
X134477644Y-84037766D01*
X134503960Y-84037323D01*
X134537626Y-84036879D01*
X134564600Y-84037596D01*
X134581662Y-84039320D01*
X134586016Y-84041230D01*
X134593444Y-84043141D01*
X134614188Y-84044823D01*
X134645937Y-84046183D01*
X134686380Y-84047130D01*
X134733209Y-84047571D01*
X134746184Y-84047592D01*
X134794297Y-84047297D01*
X134836628Y-84046473D01*
X134870865Y-84045212D01*
X134894701Y-84043605D01*
X134905823Y-84041745D01*
X134906347Y-84041230D01*
X134913614Y-84038837D01*
X134933267Y-84037334D01*
X134962083Y-84036873D01*
X134988398Y-84037323D01*
X135022064Y-84037916D01*
X135049035Y-84037601D01*
X135066089Y-84036466D01*
X135070435Y-84035094D01*
X135077713Y-84032796D01*
X135097487Y-84030100D01*
X135126644Y-84027359D01*
X135158314Y-84025147D01*
X135332379Y-84010610D01*
X135516106Y-83987545D01*
X135706479Y-83956563D01*
X135900483Y-83918269D01*
X136095101Y-83873273D01*
X136287317Y-83822183D01*
X136474117Y-83765607D01*
X136519726Y-83750640D01*
X136770817Y-83659847D01*
X137023335Y-83554702D01*
X137275524Y-83436152D01*
X137525626Y-83305142D01*
X137771882Y-83162620D01*
X138012535Y-83009531D01*
X138245827Y-82846821D01*
X138366517Y-82756524D01*
X138396680Y-82734619D01*
X138421774Y-82718745D01*
X138439150Y-82710488D01*
X138444647Y-82709812D01*
X138454147Y-82715302D01*
G37*
D13*
X125620000Y-74930000D02*
X125620000Y-166480000D01*
X125620000Y-74930000D02*
X128380000Y-74930000D01*
X125620000Y-166480000D02*
X128380000Y-166480000D01*
X128380000Y-74930000D02*
X128380000Y-166480000D01*
X148480000Y-74930000D02*
X148480000Y-166480000D01*
X148480000Y-74930000D02*
X151240000Y-74930000D01*
X148480000Y-166480000D02*
X151240000Y-166480000D01*
X151240000Y-74930000D02*
X151240000Y-166480000D01*
%LPC*%
D15*
X138430000Y-119534679D03*
D16*
X139131096Y-114308099D03*
X139413939Y-114590942D03*
X139696782Y-114873785D03*
X139979624Y-115156627D03*
X140262467Y-115439470D03*
X140545310Y-115722313D03*
X140828153Y-116005156D03*
X141110995Y-116287998D03*
X141393838Y-116570841D03*
X141676681Y-116853684D03*
X141959523Y-117136526D03*
X142242366Y-117419369D03*
X142525209Y-117702212D03*
X142808052Y-117985055D03*
X143090894Y-118267897D03*
X143373737Y-118550740D03*
X143656580Y-118833583D03*
D17*
X143656580Y-120235775D03*
X143373737Y-120518618D03*
X143090894Y-120801461D03*
X142808052Y-121084303D03*
X142525209Y-121367146D03*
X142242366Y-121649989D03*
X141959523Y-121932832D03*
X141676681Y-122215674D03*
X141393838Y-122498517D03*
X141110995Y-122781360D03*
X140828153Y-123064202D03*
X140545310Y-123347045D03*
X140262467Y-123629888D03*
X139979624Y-123912731D03*
X139696782Y-124195573D03*
X139413939Y-124478416D03*
X139131096Y-124761259D03*
D16*
X137728904Y-124761259D03*
X137446061Y-124478416D03*
X137163218Y-124195573D03*
X136880376Y-123912731D03*
X136597533Y-123629888D03*
X136314690Y-123347045D03*
X136031847Y-123064202D03*
X135749005Y-122781360D03*
X135466162Y-122498517D03*
X135183319Y-122215674D03*
X134900477Y-121932832D03*
X134617634Y-121649989D03*
X134334791Y-121367146D03*
X134051948Y-121084303D03*
X133769106Y-120801461D03*
X133486263Y-120518618D03*
X133203420Y-120235775D03*
D17*
X133203420Y-118833583D03*
X133486263Y-118550740D03*
X133769106Y-118267897D03*
X134051948Y-117985055D03*
X134334791Y-117702212D03*
X134617634Y-117419369D03*
X134900477Y-117136526D03*
X135183319Y-116853684D03*
X135466162Y-116570841D03*
X135749005Y-116287998D03*
X136031847Y-116005156D03*
X136314690Y-115722313D03*
X136597533Y-115439470D03*
X136880376Y-115156627D03*
X137163218Y-114873785D03*
X137446061Y-114590942D03*
X137728904Y-114308099D03*
D18*
X127000000Y-76200000D03*
X127000000Y-78740000D03*
X127000000Y-81280000D03*
X127000000Y-83820000D03*
X127000000Y-86360000D03*
X127000000Y-88900000D03*
X127000000Y-91440000D03*
X127000000Y-93980000D03*
X127000000Y-96520000D03*
X127000000Y-99060000D03*
X127000000Y-101600000D03*
X127000000Y-104140000D03*
X127000000Y-106680000D03*
X127000000Y-109220000D03*
X127000000Y-111760000D03*
X127000000Y-114300000D03*
X127000000Y-116840000D03*
X127000000Y-119380000D03*
X127000000Y-121920000D03*
X127000000Y-124460000D03*
X127000000Y-127000000D03*
X127000000Y-129540000D03*
X127000000Y-132080000D03*
X127000000Y-134620000D03*
X127000000Y-137160000D03*
X127000000Y-139700000D03*
X127000000Y-142240000D03*
X127000000Y-144780000D03*
X127000000Y-147320000D03*
X127000000Y-149860000D03*
X127000000Y-152400000D03*
X127000000Y-154940000D03*
X127000000Y-157480000D03*
X127000000Y-160020000D03*
X127000000Y-162560000D03*
X127000000Y-165100000D03*
X149860000Y-76200000D03*
X149860000Y-78740000D03*
X149860000Y-81280000D03*
X149860000Y-83820000D03*
X149860000Y-86360000D03*
X149860000Y-88900000D03*
X149860000Y-91440000D03*
X149860000Y-93980000D03*
X149860000Y-96520000D03*
X149860000Y-99060000D03*
X149860000Y-101600000D03*
X149860000Y-104140000D03*
X149860000Y-106680000D03*
X149860000Y-109220000D03*
X149860000Y-111760000D03*
X149860000Y-114300000D03*
X149860000Y-116840000D03*
X149860000Y-119380000D03*
X149860000Y-121920000D03*
X149860000Y-124460000D03*
X149860000Y-127000000D03*
X149860000Y-129540000D03*
X149860000Y-132080000D03*
X149860000Y-134620000D03*
X149860000Y-137160000D03*
X149860000Y-139700000D03*
X149860000Y-142240000D03*
X149860000Y-144780000D03*
X149860000Y-147320000D03*
X149860000Y-149860000D03*
X149860000Y-152400000D03*
X149860000Y-154940000D03*
X149860000Y-157480000D03*
X149860000Y-160020000D03*
X149860000Y-162560000D03*
X149860000Y-165100000D03*
%LPD*%
M02*
