M48
; DRILL file {KiCad 9.0.6} date 2026-01-07T17:11:23-0600
; FORMAT={-:-/ absolute / metric / decimal}
; #@! TF.CreationDate,2026-01-07T17:11:23-06:00
; #@! TF.GenerationSoftware,Kicad,Pcbnew,9.0.6
; #@! TF.FileFunction,Plated,1,2,PTH
FMAT,2
METRIC
; #@! TA.AperFunction,Plated,PTH,ViaDrill
T1C0.300
; #@! TA.AperFunction,Plated,PTH,ComponentDrill
T2C0.300
; #@! TA.AperFunction,Plated,PTH,ComponentDrill
T3C1.000
%
G90
G05
T1
X138.42Y-78.9
X138.42Y-91.79
X138.425Y-142.195
X138.43Y-163.49
X138.432Y-125.894
X138.48Y-112.95
T2
X135.107Y-119.535
X135.937Y-118.704
X135.937Y-120.366
X136.768Y-117.873
X136.768Y-119.535
X136.768Y-121.196
X137.599Y-117.042
X137.599Y-118.704
X137.599Y-120.366
X137.599Y-122.027
X138.43Y-116.211
X138.43Y-117.873
X138.43Y-119.535
X138.43Y-121.196
X138.43Y-122.858
X139.261Y-117.042
X139.261Y-118.704
X139.261Y-120.366
X139.261Y-122.027
X140.092Y-117.873
X140.092Y-119.535
X140.092Y-121.196
X140.923Y-118.704
X140.923Y-120.366
X141.753Y-119.535
T3
X127.0Y-76.2
X127.0Y-78.74
X127.0Y-81.28
X127.0Y-83.82
X127.0Y-86.36
X127.0Y-88.9
X127.0Y-91.44
X127.0Y-93.98
X127.0Y-96.52
X127.0Y-99.06
X127.0Y-101.6
X127.0Y-104.14
X127.0Y-106.68
X127.0Y-109.22
X127.0Y-111.76
X127.0Y-114.3
X127.0Y-116.84
X127.0Y-119.38
X127.0Y-121.92
X127.0Y-124.46
X127.0Y-127.0
X127.0Y-129.54
X127.0Y-132.08
X127.0Y-134.62
X127.0Y-137.16
X127.0Y-139.7
X127.0Y-142.24
X127.0Y-144.78
X127.0Y-147.32
X127.0Y-149.86
X127.0Y-152.4
X127.0Y-154.94
X127.0Y-157.48
X127.0Y-160.02
X127.0Y-162.56
X127.0Y-165.1
X149.86Y-76.2
X149.86Y-78.74
X149.86Y-81.28
X149.86Y-83.82
X149.86Y-86.36
X149.86Y-88.9
X149.86Y-91.44
X149.86Y-93.98
X149.86Y-96.52
X149.86Y-99.06
X149.86Y-101.6
X149.86Y-104.14
X149.86Y-106.68
X149.86Y-109.22
X149.86Y-111.76
X149.86Y-114.3
X149.86Y-116.84
X149.86Y-119.38
X149.86Y-121.92
X149.86Y-124.46
X149.86Y-127.0
X149.86Y-129.54
X149.86Y-132.08
X149.86Y-134.62
X149.86Y-137.16
X149.86Y-139.7
X149.86Y-142.24
X149.86Y-144.78
X149.86Y-147.32
X149.86Y-149.86
X149.86Y-152.4
X149.86Y-154.94
X149.86Y-157.48
X149.86Y-160.02
X149.86Y-162.56
X149.86Y-165.1
M30
