G04 #@! TF.GenerationSoftware,KiCad,Pcbnew,9.0.6*
G04 #@! TF.CreationDate,2026-01-07T17:11:21-06:00*
G04 #@! TF.ProjectId,QFN-68_8x8_P0.4,51464e2d-3638-45f3-9878-385f50302e34,rev?*
G04 #@! TF.SameCoordinates,Original*
G04 #@! TF.FileFunction,Copper,L2,Bot*
G04 #@! TF.FilePolarity,Positive*
%FSLAX46Y46*%
G04 Gerber Fmt 4.6, Leading zero omitted, Abs format (unit mm)*
G04 Created by KiCad (PCBNEW 9.0.6) date 2026-01-07 17:11:21*
%MOMM*%
%LPD*%
G01*
G04 APERTURE LIST*
G04 Aperture macros list*
%AMRotRect*
0 Rectangle, with rotation*
0 The origin of the aperture is its center*
0 $1 length*
0 $2 width*
0 $3 Rotation angle, in degrees counterclockwise*
0 Add horizontal line*
21,1,$1,$2,0,0,$3*%
G04 Aperture macros list end*
G04 #@! TA.AperFunction,HeatsinkPad*
%ADD10C,0.500000*%
G04 #@! TD*
G04 #@! TA.AperFunction,HeatsinkPad*
%ADD11RotRect,5.200000X5.200000X315.000000*%
G04 #@! TD*
G04 #@! TA.AperFunction,ComponentPad*
%ADD12C,1.700000*%
G04 #@! TD*
G04 #@! TA.AperFunction,SMDPad,CuDef*
%ADD13R,2.510000X1.000000*%
G04 #@! TD*
G04 #@! TA.AperFunction,ViaPad*
%ADD14C,0.600000*%
G04 #@! TD*
G04 #@! TA.AperFunction,Conductor*
%ADD15C,0.500000*%
G04 #@! TD*
G04 APERTURE END LIST*
D10*
X138430000Y-116211277D03*
X136768299Y-117872978D03*
X135106598Y-119534679D03*
X137599150Y-117042128D03*
X135937449Y-118703829D03*
X139260850Y-117042128D03*
X138430000Y-117872978D03*
X136768299Y-119534679D03*
X135937449Y-120365529D03*
X137599150Y-118703829D03*
X140091701Y-117872978D03*
X139260850Y-118703829D03*
X138430000Y-119534679D03*
D11*
X138430000Y-119534679D03*
D10*
X137599150Y-120365529D03*
X136768299Y-121196380D03*
X139260850Y-120365529D03*
X140922551Y-118703829D03*
X140091701Y-119534679D03*
X138430000Y-121196380D03*
X137599150Y-122027230D03*
X140922551Y-120365529D03*
X139260850Y-122027230D03*
X141753402Y-119534679D03*
X140091701Y-121196380D03*
X138430000Y-122858081D03*
D12*
X127000000Y-76200000D03*
X127000000Y-78740000D03*
X127000000Y-81280000D03*
X127000000Y-83820000D03*
X127000000Y-86360000D03*
X127000000Y-88900000D03*
X127000000Y-91440000D03*
X127000000Y-93980000D03*
X127000000Y-96520000D03*
X127000000Y-99060000D03*
X127000000Y-101600000D03*
X127000000Y-104140000D03*
X127000000Y-106680000D03*
X127000000Y-109220000D03*
X127000000Y-111760000D03*
X127000000Y-114300000D03*
X127000000Y-116840000D03*
X127000000Y-119380000D03*
X127000000Y-121920000D03*
X127000000Y-124460000D03*
X127000000Y-127000000D03*
X127000000Y-129540000D03*
X127000000Y-132080000D03*
X127000000Y-134620000D03*
X127000000Y-137160000D03*
X127000000Y-139700000D03*
X127000000Y-142240000D03*
X127000000Y-144780000D03*
X127000000Y-147320000D03*
X127000000Y-149860000D03*
X127000000Y-152400000D03*
X127000000Y-154940000D03*
X127000000Y-157480000D03*
X127000000Y-160020000D03*
X127000000Y-162560000D03*
X127000000Y-165100000D03*
X149860000Y-76200000D03*
X149860000Y-78740000D03*
X149860000Y-81280000D03*
X149860000Y-83820000D03*
X149860000Y-86360000D03*
X149860000Y-88900000D03*
X149860000Y-91440000D03*
X149860000Y-93980000D03*
X149860000Y-96520000D03*
X149860000Y-99060000D03*
X149860000Y-101600000D03*
X149860000Y-104140000D03*
X149860000Y-106680000D03*
X149860000Y-109220000D03*
X149860000Y-111760000D03*
X149860000Y-114300000D03*
X149860000Y-116840000D03*
X149860000Y-119380000D03*
X149860000Y-121920000D03*
X149860000Y-124460000D03*
X149860000Y-127000000D03*
X149860000Y-129540000D03*
X149860000Y-132080000D03*
X149860000Y-134620000D03*
X149860000Y-137160000D03*
X149860000Y-139700000D03*
X149860000Y-142240000D03*
X149860000Y-144780000D03*
X149860000Y-147320000D03*
X149860000Y-149860000D03*
X149860000Y-152400000D03*
X149860000Y-154940000D03*
X149860000Y-157480000D03*
X149860000Y-160020000D03*
X149860000Y-162560000D03*
X149860000Y-165100000D03*
D13*
X133735000Y-76200000D03*
X130425000Y-78740000D03*
X133735000Y-81280000D03*
X130425000Y-83820000D03*
X133735000Y-86360000D03*
X130425000Y-88900000D03*
X133735000Y-91440000D03*
X130425000Y-93980000D03*
X133735000Y-96520000D03*
X130425000Y-99060000D03*
X133735000Y-101600000D03*
X130425000Y-104140000D03*
X133735000Y-106680000D03*
X130425000Y-109220000D03*
X133735000Y-111760000D03*
X130425000Y-114300000D03*
X133735000Y-116840000D03*
X130425000Y-119380000D03*
X133735000Y-121920000D03*
X130425000Y-124460000D03*
X133735000Y-127000000D03*
X130425000Y-129540000D03*
X133735000Y-132080000D03*
X130425000Y-134620000D03*
X133735000Y-137160000D03*
X130425000Y-139700000D03*
X133735000Y-142240000D03*
X130425000Y-144780000D03*
X133735000Y-147320000D03*
X130425000Y-149860000D03*
X133735000Y-152400000D03*
X130425000Y-154940000D03*
X133735000Y-157480000D03*
X130425000Y-160020000D03*
X133735000Y-162560000D03*
X130425000Y-165100000D03*
X143125000Y-76200000D03*
X146435000Y-78740000D03*
X143125000Y-81280000D03*
X146435000Y-83820000D03*
X143125000Y-86360000D03*
X146435000Y-88900000D03*
X143125000Y-91440000D03*
X146435000Y-93980000D03*
X143125000Y-96520000D03*
X146435000Y-99060000D03*
X143125000Y-101600000D03*
X146435000Y-104140000D03*
X143125000Y-106680000D03*
X146435000Y-109220000D03*
X143125000Y-111760000D03*
X146435000Y-114300000D03*
X143125000Y-116840000D03*
X146435000Y-119380000D03*
X143125000Y-121920000D03*
X146435000Y-124460000D03*
X143125000Y-127000000D03*
X146435000Y-129540000D03*
X143125000Y-132080000D03*
X146435000Y-134620000D03*
X143125000Y-137160000D03*
X146435000Y-139700000D03*
X143125000Y-142240000D03*
X146435000Y-144780000D03*
X143125000Y-147320000D03*
X146435000Y-149860000D03*
X143125000Y-152400000D03*
X146435000Y-154940000D03*
X143125000Y-157480000D03*
X146435000Y-160020000D03*
X143125000Y-162560000D03*
X146435000Y-165100000D03*
D14*
X138425000Y-142195000D03*
X138430000Y-163490000D03*
X138432469Y-125894139D03*
X138480000Y-112950000D03*
X138420000Y-78900000D03*
X138420000Y-91790000D03*
D15*
X127000000Y-165100000D02*
X130425000Y-165100000D01*
X143125000Y-76200000D02*
X149860000Y-76200000D01*
X133735000Y-76200000D02*
X127000000Y-76200000D01*
X146435000Y-165100000D02*
X149860000Y-165100000D01*
X130425000Y-144780000D02*
X127000000Y-144780000D01*
X133735000Y-101600000D02*
X127000000Y-101600000D01*
X127000000Y-83820000D02*
X130425000Y-83820000D01*
X133735000Y-91440000D02*
X127000000Y-91440000D01*
X133735000Y-96520000D02*
X127000000Y-96520000D01*
X130425000Y-78740000D02*
X127000000Y-78740000D01*
X127000000Y-154940000D02*
X130425000Y-154940000D01*
X127000000Y-93980000D02*
X130425000Y-93980000D01*
X133735000Y-147320000D02*
X127000000Y-147320000D01*
X133735000Y-81280000D02*
X127000000Y-81280000D01*
X133735000Y-157480000D02*
X127000000Y-157480000D01*
X127000000Y-137160000D02*
X133735000Y-137160000D01*
X130425000Y-134620000D02*
X127000000Y-134620000D01*
X130425000Y-124460000D02*
X127000000Y-124460000D01*
X127000000Y-127000000D02*
X133735000Y-127000000D01*
X127000000Y-121920000D02*
X133735000Y-121920000D01*
X127000000Y-99060000D02*
X130425000Y-99060000D01*
X127000000Y-111760000D02*
X133735000Y-111760000D01*
X133735000Y-162560000D02*
X127000000Y-162560000D01*
X127000000Y-142240000D02*
X133735000Y-142240000D01*
X130425000Y-129540000D02*
X127000000Y-129540000D01*
X127000000Y-116840000D02*
X133735000Y-116840000D01*
X127000000Y-149860000D02*
X130425000Y-149860000D01*
X130425000Y-114300000D02*
X127000000Y-114300000D01*
X130425000Y-139700000D02*
X127000000Y-139700000D01*
X133735000Y-152400000D02*
X127000000Y-152400000D01*
X127000000Y-160020000D02*
X130425000Y-160020000D01*
X130425000Y-119380000D02*
X127000000Y-119380000D01*
X127000000Y-88900000D02*
X130425000Y-88900000D01*
X133735000Y-86360000D02*
X127000000Y-86360000D01*
X130425000Y-109220000D02*
X127000000Y-109220000D01*
X127000000Y-106680000D02*
X133735000Y-106680000D01*
X127000000Y-104140000D02*
X130425000Y-104140000D01*
X127000000Y-132080000D02*
X133735000Y-132080000D01*
X146435000Y-119380000D02*
X149860000Y-119380000D01*
X146435000Y-88900000D02*
X149860000Y-88900000D01*
X143125000Y-142240000D02*
X149860000Y-142240000D01*
X146435000Y-149860000D02*
X149860000Y-149860000D01*
X146435000Y-109220000D02*
X149860000Y-109220000D01*
X143125000Y-106680000D02*
X149860000Y-106680000D01*
X143125000Y-101600000D02*
X149860000Y-101600000D01*
X146435000Y-83820000D02*
X149860000Y-83820000D01*
X146435000Y-114300000D02*
X149860000Y-114300000D01*
X143125000Y-147320000D02*
X149860000Y-147320000D01*
X146435000Y-99060000D02*
X149860000Y-99060000D01*
X143125000Y-111760000D02*
X149860000Y-111760000D01*
X146435000Y-129540000D02*
X149860000Y-129540000D01*
X146435000Y-78740000D02*
X149860000Y-78740000D01*
X143125000Y-162560000D02*
X149860000Y-162560000D01*
X143125000Y-157480000D02*
X149860000Y-157480000D01*
X143125000Y-81280000D02*
X149860000Y-81280000D01*
X143125000Y-116840000D02*
X149860000Y-116840000D01*
X143125000Y-121920000D02*
X149860000Y-121920000D01*
X143125000Y-127000000D02*
X149860000Y-127000000D01*
X143125000Y-137160000D02*
X149860000Y-137160000D01*
X143125000Y-91440000D02*
X149860000Y-91440000D01*
X143125000Y-132080000D02*
X149860000Y-132080000D01*
X143125000Y-152400000D02*
X149860000Y-152400000D01*
X143125000Y-86360000D02*
X149860000Y-86360000D01*
X146435000Y-134620000D02*
X149860000Y-134620000D01*
X146435000Y-139700000D02*
X149860000Y-139700000D01*
X146435000Y-104140000D02*
X149860000Y-104140000D01*
X146435000Y-144780000D02*
X149860000Y-144780000D01*
X146435000Y-93980000D02*
X149860000Y-93980000D01*
X146435000Y-154940000D02*
X149860000Y-154940000D01*
X143125000Y-96520000D02*
X149860000Y-96520000D01*
X146435000Y-160020000D02*
X149860000Y-160020000D01*
X146435000Y-124460000D02*
X149860000Y-124460000D01*
G04 #@! TA.AperFunction,Conductor*
G36*
X150572539Y-75450185D02*
G01*
X150618294Y-75502989D01*
X150629500Y-75554500D01*
X150629500Y-77414028D01*
X150609815Y-77481067D01*
X150557011Y-77526822D01*
X150487853Y-77536766D01*
X150449206Y-77524513D01*
X150378417Y-77488445D01*
X150378414Y-77488444D01*
X150378412Y-77488443D01*
X150176243Y-77422754D01*
X150176241Y-77422753D01*
X150176240Y-77422753D01*
X150014957Y-77397208D01*
X149966287Y-77389500D01*
X149753713Y-77389500D01*
X149705042Y-77397208D01*
X149543760Y-77422753D01*
X149341585Y-77488444D01*
X149152179Y-77584951D01*
X148980213Y-77709890D01*
X148829892Y-77860211D01*
X148773097Y-77938385D01*
X148717767Y-77981051D01*
X148672779Y-77989500D01*
X148189751Y-77989500D01*
X148122712Y-77969815D01*
X148090485Y-77939812D01*
X148047548Y-77882457D01*
X148047546Y-77882454D01*
X148047542Y-77882451D01*
X147932335Y-77796206D01*
X147932328Y-77796202D01*
X147797482Y-77745908D01*
X147797483Y-77745908D01*
X147737883Y-77739501D01*
X147737881Y-77739500D01*
X147737873Y-77739500D01*
X147737864Y-77739500D01*
X145132129Y-77739500D01*
X145132123Y-77739501D01*
X145072516Y-77745908D01*
X144937671Y-77796202D01*
X144937664Y-77796206D01*
X144822455Y-77882452D01*
X144822452Y-77882455D01*
X144736206Y-77997664D01*
X144736202Y-77997671D01*
X144685908Y-78132517D01*
X144679501Y-78192116D01*
X144679501Y-78192123D01*
X144679500Y-78192135D01*
X144679500Y-79287870D01*
X144679501Y-79287876D01*
X144685908Y-79347483D01*
X144736202Y-79482328D01*
X144736206Y-79482335D01*
X144822452Y-79597544D01*
X144822455Y-79597547D01*
X144937664Y-79683793D01*
X144937671Y-79683797D01*
X145072517Y-79734091D01*
X145072516Y-79734091D01*
X145079444Y-79734835D01*
X145132127Y-79740500D01*
X147737872Y-79740499D01*
X147797483Y-79734091D01*
X147932331Y-79683796D01*
X148047546Y-79597546D01*
X148074227Y-79561903D01*
X148090485Y-79540188D01*
X148146419Y-79498318D01*
X148189751Y-79490500D01*
X148672779Y-79490500D01*
X148739818Y-79510185D01*
X148773097Y-79541615D01*
X148829892Y-79619788D01*
X148980213Y-79770109D01*
X149152182Y-79895050D01*
X149160946Y-79899516D01*
X149211742Y-79947491D01*
X149228536Y-80015312D01*
X149205998Y-80081447D01*
X149160946Y-80120484D01*
X149152182Y-80124949D01*
X148980213Y-80249890D01*
X148829892Y-80400211D01*
X148773097Y-80478385D01*
X148717767Y-80521051D01*
X148672779Y-80529500D01*
X144879751Y-80529500D01*
X144812712Y-80509815D01*
X144780485Y-80479812D01*
X144737548Y-80422457D01*
X144737546Y-80422454D01*
X144737542Y-80422451D01*
X144622335Y-80336206D01*
X144622328Y-80336202D01*
X144487482Y-80285908D01*
X144487483Y-80285908D01*
X144427883Y-80279501D01*
X144427881Y-80279500D01*
X144427873Y-80279500D01*
X144427864Y-80279500D01*
X141822129Y-80279500D01*
X141822123Y-80279501D01*
X141762516Y-80285908D01*
X141627671Y-80336202D01*
X141627664Y-80336206D01*
X141512455Y-80422452D01*
X141512452Y-80422455D01*
X141426206Y-80537664D01*
X141426202Y-80537671D01*
X141375908Y-80672517D01*
X141369501Y-80732116D01*
X141369501Y-80732123D01*
X141369500Y-80732135D01*
X141369500Y-81827870D01*
X141369501Y-81827876D01*
X141375908Y-81887483D01*
X141426202Y-82022328D01*
X141426206Y-82022335D01*
X141512452Y-82137544D01*
X141512455Y-82137547D01*
X141627664Y-82223793D01*
X141627671Y-82223797D01*
X141762517Y-82274091D01*
X141762516Y-82274091D01*
X141769444Y-82274835D01*
X141822127Y-82280500D01*
X144427872Y-82280499D01*
X144487483Y-82274091D01*
X144622331Y-82223796D01*
X144737546Y-82137546D01*
X144764227Y-82101903D01*
X144780485Y-82080188D01*
X144836419Y-82038318D01*
X144879751Y-82030500D01*
X148672779Y-82030500D01*
X148739818Y-82050185D01*
X148773097Y-82081615D01*
X148829892Y-82159788D01*
X148980213Y-82310109D01*
X149152182Y-82435050D01*
X149160946Y-82439516D01*
X149211742Y-82487491D01*
X149228536Y-82555312D01*
X149205998Y-82621447D01*
X149160946Y-82660484D01*
X149152182Y-82664949D01*
X148980213Y-82789890D01*
X148829892Y-82940211D01*
X148773097Y-83018385D01*
X148717767Y-83061051D01*
X148672779Y-83069500D01*
X148189751Y-83069500D01*
X148122712Y-83049815D01*
X148090485Y-83019812D01*
X148047548Y-82962457D01*
X148047546Y-82962454D01*
X148047542Y-82962451D01*
X147932335Y-82876206D01*
X147932328Y-82876202D01*
X147797482Y-82825908D01*
X147797483Y-82825908D01*
X147737883Y-82819501D01*
X147737881Y-82819500D01*
X147737873Y-82819500D01*
X147737864Y-82819500D01*
X145132129Y-82819500D01*
X145132123Y-82819501D01*
X145072516Y-82825908D01*
X144937671Y-82876202D01*
X144937664Y-82876206D01*
X144822455Y-82962452D01*
X144822452Y-82962455D01*
X144736206Y-83077664D01*
X144736202Y-83077671D01*
X144685908Y-83212517D01*
X144679501Y-83272116D01*
X144679501Y-83272123D01*
X144679500Y-83272135D01*
X144679500Y-84367870D01*
X144679501Y-84367876D01*
X144685908Y-84427483D01*
X144736202Y-84562328D01*
X144736206Y-84562335D01*
X144822452Y-84677544D01*
X144822455Y-84677547D01*
X144937664Y-84763793D01*
X144937671Y-84763797D01*
X145072517Y-84814091D01*
X145072516Y-84814091D01*
X145079444Y-84814835D01*
X145132127Y-84820500D01*
X147737872Y-84820499D01*
X147797483Y-84814091D01*
X147932331Y-84763796D01*
X148047546Y-84677546D01*
X148074227Y-84641903D01*
X148090485Y-84620188D01*
X148146419Y-84578318D01*
X148189751Y-84570500D01*
X148672779Y-84570500D01*
X148739818Y-84590185D01*
X148773097Y-84621615D01*
X148829892Y-84699788D01*
X148980213Y-84850109D01*
X149152182Y-84975050D01*
X149160946Y-84979516D01*
X149211742Y-85027491D01*
X149228536Y-85095312D01*
X149205998Y-85161447D01*
X149160946Y-85200484D01*
X149152182Y-85204949D01*
X148980213Y-85329890D01*
X148829892Y-85480211D01*
X148773097Y-85558385D01*
X148717767Y-85601051D01*
X148672779Y-85609500D01*
X144879751Y-85609500D01*
X144812712Y-85589815D01*
X144780485Y-85559812D01*
X144737548Y-85502457D01*
X144737546Y-85502454D01*
X144737542Y-85502451D01*
X144622335Y-85416206D01*
X144622328Y-85416202D01*
X144487482Y-85365908D01*
X144487483Y-85365908D01*
X144427883Y-85359501D01*
X144427881Y-85359500D01*
X144427873Y-85359500D01*
X144427864Y-85359500D01*
X141822129Y-85359500D01*
X141822123Y-85359501D01*
X141762516Y-85365908D01*
X141627671Y-85416202D01*
X141627664Y-85416206D01*
X141512455Y-85502452D01*
X141512452Y-85502455D01*
X141426206Y-85617664D01*
X141426202Y-85617671D01*
X141375908Y-85752517D01*
X141369501Y-85812116D01*
X141369501Y-85812123D01*
X141369500Y-85812135D01*
X141369500Y-86907870D01*
X141369501Y-86907876D01*
X141375908Y-86967483D01*
X141426202Y-87102328D01*
X141426206Y-87102335D01*
X141512452Y-87217544D01*
X141512455Y-87217547D01*
X141627664Y-87303793D01*
X141627671Y-87303797D01*
X141762517Y-87354091D01*
X141762516Y-87354091D01*
X141769444Y-87354835D01*
X141822127Y-87360500D01*
X144427872Y-87360499D01*
X144487483Y-87354091D01*
X144622331Y-87303796D01*
X144737546Y-87217546D01*
X144764227Y-87181903D01*
X144780485Y-87160188D01*
X144836419Y-87118318D01*
X144879751Y-87110500D01*
X148672779Y-87110500D01*
X148739818Y-87130185D01*
X148773097Y-87161615D01*
X148829892Y-87239788D01*
X148980213Y-87390109D01*
X149152182Y-87515050D01*
X149160946Y-87519516D01*
X149211742Y-87567491D01*
X149228536Y-87635312D01*
X149205998Y-87701447D01*
X149160946Y-87740484D01*
X149152182Y-87744949D01*
X148980213Y-87869890D01*
X148829892Y-88020211D01*
X148773097Y-88098385D01*
X148717767Y-88141051D01*
X148672779Y-88149500D01*
X148189751Y-88149500D01*
X148122712Y-88129815D01*
X148090485Y-88099812D01*
X148047548Y-88042457D01*
X148047546Y-88042454D01*
X148047542Y-88042451D01*
X147932335Y-87956206D01*
X147932328Y-87956202D01*
X147797482Y-87905908D01*
X147797483Y-87905908D01*
X147737883Y-87899501D01*
X147737881Y-87899500D01*
X147737873Y-87899500D01*
X147737864Y-87899500D01*
X145132129Y-87899500D01*
X145132123Y-87899501D01*
X145072516Y-87905908D01*
X144937671Y-87956202D01*
X144937664Y-87956206D01*
X144822455Y-88042452D01*
X144822452Y-88042455D01*
X144736206Y-88157664D01*
X144736202Y-88157671D01*
X144685908Y-88292517D01*
X144679501Y-88352116D01*
X144679501Y-88352123D01*
X144679500Y-88352135D01*
X144679500Y-89447870D01*
X144679501Y-89447876D01*
X144685908Y-89507483D01*
X144736202Y-89642328D01*
X144736206Y-89642335D01*
X144822452Y-89757544D01*
X144822455Y-89757547D01*
X144937664Y-89843793D01*
X144937671Y-89843797D01*
X145072517Y-89894091D01*
X145072516Y-89894091D01*
X145079444Y-89894835D01*
X145132127Y-89900500D01*
X147737872Y-89900499D01*
X147797483Y-89894091D01*
X147932331Y-89843796D01*
X148047546Y-89757546D01*
X148074227Y-89721903D01*
X148090485Y-89700188D01*
X148146419Y-89658318D01*
X148189751Y-89650500D01*
X148672779Y-89650500D01*
X148739818Y-89670185D01*
X148773097Y-89701615D01*
X148829892Y-89779788D01*
X148980213Y-89930109D01*
X149152182Y-90055050D01*
X149160946Y-90059516D01*
X149211742Y-90107491D01*
X149228536Y-90175312D01*
X149205998Y-90241447D01*
X149160946Y-90280484D01*
X149152182Y-90284949D01*
X148980213Y-90409890D01*
X148829892Y-90560211D01*
X148773097Y-90638385D01*
X148717767Y-90681051D01*
X148672779Y-90689500D01*
X144879751Y-90689500D01*
X144812712Y-90669815D01*
X144780485Y-90639812D01*
X144737548Y-90582457D01*
X144737546Y-90582454D01*
X144737542Y-90582451D01*
X144622335Y-90496206D01*
X144622328Y-90496202D01*
X144487482Y-90445908D01*
X144487483Y-90445908D01*
X144427883Y-90439501D01*
X144427881Y-90439500D01*
X144427873Y-90439500D01*
X144427864Y-90439500D01*
X141822129Y-90439500D01*
X141822123Y-90439501D01*
X141762516Y-90445908D01*
X141627671Y-90496202D01*
X141627664Y-90496206D01*
X141512455Y-90582452D01*
X141512452Y-90582455D01*
X141426206Y-90697664D01*
X141426202Y-90697671D01*
X141375908Y-90832517D01*
X141369501Y-90892116D01*
X141369501Y-90892123D01*
X141369500Y-90892135D01*
X141369500Y-91987870D01*
X141369501Y-91987876D01*
X141375908Y-92047483D01*
X141426202Y-92182328D01*
X141426206Y-92182335D01*
X141512452Y-92297544D01*
X141512455Y-92297547D01*
X141627664Y-92383793D01*
X141627671Y-92383797D01*
X141762517Y-92434091D01*
X141762516Y-92434091D01*
X141769444Y-92434835D01*
X141822127Y-92440500D01*
X144427872Y-92440499D01*
X144487483Y-92434091D01*
X144622331Y-92383796D01*
X144737546Y-92297546D01*
X144764227Y-92261903D01*
X144780485Y-92240188D01*
X144836419Y-92198318D01*
X144879751Y-92190500D01*
X148672779Y-92190500D01*
X148739818Y-92210185D01*
X148773097Y-92241615D01*
X148829892Y-92319788D01*
X148980213Y-92470109D01*
X149152182Y-92595050D01*
X149160946Y-92599516D01*
X149211742Y-92647491D01*
X149228536Y-92715312D01*
X149205998Y-92781447D01*
X149160946Y-92820484D01*
X149152182Y-92824949D01*
X148980213Y-92949890D01*
X148829892Y-93100211D01*
X148773097Y-93178385D01*
X148717767Y-93221051D01*
X148672779Y-93229500D01*
X148189751Y-93229500D01*
X148122712Y-93209815D01*
X148090485Y-93179812D01*
X148047548Y-93122457D01*
X148047546Y-93122454D01*
X148047542Y-93122451D01*
X147932335Y-93036206D01*
X147932328Y-93036202D01*
X147797482Y-92985908D01*
X147797483Y-92985908D01*
X147737883Y-92979501D01*
X147737881Y-92979500D01*
X147737873Y-92979500D01*
X147737864Y-92979500D01*
X145132129Y-92979500D01*
X145132123Y-92979501D01*
X145072516Y-92985908D01*
X144937671Y-93036202D01*
X144937664Y-93036206D01*
X144822455Y-93122452D01*
X144822452Y-93122455D01*
X144736206Y-93237664D01*
X144736202Y-93237671D01*
X144685908Y-93372517D01*
X144679501Y-93432116D01*
X144679501Y-93432123D01*
X144679500Y-93432135D01*
X144679500Y-94527870D01*
X144679501Y-94527876D01*
X144685908Y-94587483D01*
X144736202Y-94722328D01*
X144736206Y-94722335D01*
X144822452Y-94837544D01*
X144822455Y-94837547D01*
X144937664Y-94923793D01*
X144937671Y-94923797D01*
X145072517Y-94974091D01*
X145072516Y-94974091D01*
X145079444Y-94974835D01*
X145132127Y-94980500D01*
X147737872Y-94980499D01*
X147797483Y-94974091D01*
X147932331Y-94923796D01*
X148047546Y-94837546D01*
X148074227Y-94801903D01*
X148090485Y-94780188D01*
X148146419Y-94738318D01*
X148189751Y-94730500D01*
X148672779Y-94730500D01*
X148739818Y-94750185D01*
X148773097Y-94781615D01*
X148829892Y-94859788D01*
X148980213Y-95010109D01*
X149152182Y-95135050D01*
X149160946Y-95139516D01*
X149211742Y-95187491D01*
X149228536Y-95255312D01*
X149205998Y-95321447D01*
X149160946Y-95360484D01*
X149152182Y-95364949D01*
X148980213Y-95489890D01*
X148829892Y-95640211D01*
X148773097Y-95718385D01*
X148717767Y-95761051D01*
X148672779Y-95769500D01*
X144879751Y-95769500D01*
X144812712Y-95749815D01*
X144780485Y-95719812D01*
X144737548Y-95662457D01*
X144737546Y-95662454D01*
X144737542Y-95662451D01*
X144622335Y-95576206D01*
X144622328Y-95576202D01*
X144487482Y-95525908D01*
X144487483Y-95525908D01*
X144427883Y-95519501D01*
X144427881Y-95519500D01*
X144427873Y-95519500D01*
X144427864Y-95519500D01*
X141822129Y-95519500D01*
X141822123Y-95519501D01*
X141762516Y-95525908D01*
X141627671Y-95576202D01*
X141627664Y-95576206D01*
X141512455Y-95662452D01*
X141512452Y-95662455D01*
X141426206Y-95777664D01*
X141426202Y-95777671D01*
X141375908Y-95912517D01*
X141369501Y-95972116D01*
X141369501Y-95972123D01*
X141369500Y-95972135D01*
X141369500Y-97067870D01*
X141369501Y-97067876D01*
X141375908Y-97127483D01*
X141426202Y-97262328D01*
X141426206Y-97262335D01*
X141512452Y-97377544D01*
X141512455Y-97377547D01*
X141627664Y-97463793D01*
X141627671Y-97463797D01*
X141762517Y-97514091D01*
X141762516Y-97514091D01*
X141769444Y-97514835D01*
X141822127Y-97520500D01*
X144427872Y-97520499D01*
X144487483Y-97514091D01*
X144622331Y-97463796D01*
X144737546Y-97377546D01*
X144764227Y-97341903D01*
X144780485Y-97320188D01*
X144836419Y-97278318D01*
X144879751Y-97270500D01*
X148672779Y-97270500D01*
X148739818Y-97290185D01*
X148773097Y-97321615D01*
X148829892Y-97399788D01*
X148980213Y-97550109D01*
X149152182Y-97675050D01*
X149160946Y-97679516D01*
X149211742Y-97727491D01*
X149228536Y-97795312D01*
X149205998Y-97861447D01*
X149160946Y-97900484D01*
X149152182Y-97904949D01*
X148980213Y-98029890D01*
X148829892Y-98180211D01*
X148773097Y-98258385D01*
X148717767Y-98301051D01*
X148672779Y-98309500D01*
X148189751Y-98309500D01*
X148122712Y-98289815D01*
X148090485Y-98259812D01*
X148047548Y-98202457D01*
X148047546Y-98202454D01*
X148047542Y-98202451D01*
X147932335Y-98116206D01*
X147932328Y-98116202D01*
X147797482Y-98065908D01*
X147797483Y-98065908D01*
X147737883Y-98059501D01*
X147737881Y-98059500D01*
X147737873Y-98059500D01*
X147737864Y-98059500D01*
X145132129Y-98059500D01*
X145132123Y-98059501D01*
X145072516Y-98065908D01*
X144937671Y-98116202D01*
X144937664Y-98116206D01*
X144822455Y-98202452D01*
X144822452Y-98202455D01*
X144736206Y-98317664D01*
X144736202Y-98317671D01*
X144685908Y-98452517D01*
X144679501Y-98512116D01*
X144679501Y-98512123D01*
X144679500Y-98512135D01*
X144679500Y-99607870D01*
X144679501Y-99607876D01*
X144685908Y-99667483D01*
X144736202Y-99802328D01*
X144736206Y-99802335D01*
X144822452Y-99917544D01*
X144822455Y-99917547D01*
X144937664Y-100003793D01*
X144937671Y-100003797D01*
X145072517Y-100054091D01*
X145072516Y-100054091D01*
X145079444Y-100054835D01*
X145132127Y-100060500D01*
X147737872Y-100060499D01*
X147797483Y-100054091D01*
X147932331Y-100003796D01*
X148047546Y-99917546D01*
X148074227Y-99881903D01*
X148090485Y-99860188D01*
X148146419Y-99818318D01*
X148189751Y-99810500D01*
X148672779Y-99810500D01*
X148739818Y-99830185D01*
X148773097Y-99861615D01*
X148829892Y-99939788D01*
X148980213Y-100090109D01*
X149152182Y-100215050D01*
X149160946Y-100219516D01*
X149211742Y-100267491D01*
X149228536Y-100335312D01*
X149205998Y-100401447D01*
X149160946Y-100440484D01*
X149152182Y-100444949D01*
X148980213Y-100569890D01*
X148829892Y-100720211D01*
X148773097Y-100798385D01*
X148717767Y-100841051D01*
X148672779Y-100849500D01*
X144879751Y-100849500D01*
X144812712Y-100829815D01*
X144780485Y-100799812D01*
X144737548Y-100742457D01*
X144737546Y-100742454D01*
X144737542Y-100742451D01*
X144622335Y-100656206D01*
X144622328Y-100656202D01*
X144487482Y-100605908D01*
X144487483Y-100605908D01*
X144427883Y-100599501D01*
X144427881Y-100599500D01*
X144427873Y-100599500D01*
X144427864Y-100599500D01*
X141822129Y-100599500D01*
X141822123Y-100599501D01*
X141762516Y-100605908D01*
X141627671Y-100656202D01*
X141627664Y-100656206D01*
X141512455Y-100742452D01*
X141512452Y-100742455D01*
X141426206Y-100857664D01*
X141426202Y-100857671D01*
X141375908Y-100992517D01*
X141369501Y-101052116D01*
X141369501Y-101052123D01*
X141369500Y-101052135D01*
X141369500Y-102147870D01*
X141369501Y-102147876D01*
X141375908Y-102207483D01*
X141426202Y-102342328D01*
X141426206Y-102342335D01*
X141512452Y-102457544D01*
X141512455Y-102457547D01*
X141627664Y-102543793D01*
X141627671Y-102543797D01*
X141762517Y-102594091D01*
X141762516Y-102594091D01*
X141769444Y-102594835D01*
X141822127Y-102600500D01*
X144427872Y-102600499D01*
X144487483Y-102594091D01*
X144622331Y-102543796D01*
X144737546Y-102457546D01*
X144764227Y-102421903D01*
X144780485Y-102400188D01*
X144836419Y-102358318D01*
X144879751Y-102350500D01*
X148672779Y-102350500D01*
X148739818Y-102370185D01*
X148773097Y-102401615D01*
X148829892Y-102479788D01*
X148980213Y-102630109D01*
X149152182Y-102755050D01*
X149160946Y-102759516D01*
X149211742Y-102807491D01*
X149228536Y-102875312D01*
X149205998Y-102941447D01*
X149160946Y-102980484D01*
X149152182Y-102984949D01*
X148980213Y-103109890D01*
X148829892Y-103260211D01*
X148773097Y-103338385D01*
X148717767Y-103381051D01*
X148672779Y-103389500D01*
X148189751Y-103389500D01*
X148122712Y-103369815D01*
X148090485Y-103339812D01*
X148047548Y-103282457D01*
X148047546Y-103282454D01*
X148047542Y-103282451D01*
X147932335Y-103196206D01*
X147932328Y-103196202D01*
X147797482Y-103145908D01*
X147797483Y-103145908D01*
X147737883Y-103139501D01*
X147737881Y-103139500D01*
X147737873Y-103139500D01*
X147737864Y-103139500D01*
X145132129Y-103139500D01*
X145132123Y-103139501D01*
X145072516Y-103145908D01*
X144937671Y-103196202D01*
X144937664Y-103196206D01*
X144822455Y-103282452D01*
X144822452Y-103282455D01*
X144736206Y-103397664D01*
X144736202Y-103397671D01*
X144685908Y-103532517D01*
X144679501Y-103592116D01*
X144679501Y-103592123D01*
X144679500Y-103592135D01*
X144679500Y-104687870D01*
X144679501Y-104687876D01*
X144685908Y-104747483D01*
X144736202Y-104882328D01*
X144736206Y-104882335D01*
X144822452Y-104997544D01*
X144822455Y-104997547D01*
X144937664Y-105083793D01*
X144937671Y-105083797D01*
X145072517Y-105134091D01*
X145072516Y-105134091D01*
X145079444Y-105134835D01*
X145132127Y-105140500D01*
X147737872Y-105140499D01*
X147797483Y-105134091D01*
X147932331Y-105083796D01*
X148047546Y-104997546D01*
X148074227Y-104961903D01*
X148090485Y-104940188D01*
X148146419Y-104898318D01*
X148189751Y-104890500D01*
X148672779Y-104890500D01*
X148739818Y-104910185D01*
X148773097Y-104941615D01*
X148829892Y-105019788D01*
X148980213Y-105170109D01*
X149152182Y-105295050D01*
X149160946Y-105299516D01*
X149211742Y-105347491D01*
X149228536Y-105415312D01*
X149205998Y-105481447D01*
X149160946Y-105520484D01*
X149152182Y-105524949D01*
X148980213Y-105649890D01*
X148829892Y-105800211D01*
X148773097Y-105878385D01*
X148717767Y-105921051D01*
X148672779Y-105929500D01*
X144879751Y-105929500D01*
X144812712Y-105909815D01*
X144780485Y-105879812D01*
X144737548Y-105822457D01*
X144737546Y-105822454D01*
X144737542Y-105822451D01*
X144622335Y-105736206D01*
X144622328Y-105736202D01*
X144487482Y-105685908D01*
X144487483Y-105685908D01*
X144427883Y-105679501D01*
X144427881Y-105679500D01*
X144427873Y-105679500D01*
X144427864Y-105679500D01*
X141822129Y-105679500D01*
X141822123Y-105679501D01*
X141762516Y-105685908D01*
X141627671Y-105736202D01*
X141627664Y-105736206D01*
X141512455Y-105822452D01*
X141512452Y-105822455D01*
X141426206Y-105937664D01*
X141426202Y-105937671D01*
X141375908Y-106072517D01*
X141369501Y-106132116D01*
X141369501Y-106132123D01*
X141369500Y-106132135D01*
X141369500Y-107227870D01*
X141369501Y-107227876D01*
X141375908Y-107287483D01*
X141426202Y-107422328D01*
X141426206Y-107422335D01*
X141512452Y-107537544D01*
X141512455Y-107537547D01*
X141627664Y-107623793D01*
X141627671Y-107623797D01*
X141762517Y-107674091D01*
X141762516Y-107674091D01*
X141769444Y-107674835D01*
X141822127Y-107680500D01*
X144427872Y-107680499D01*
X144487483Y-107674091D01*
X144622331Y-107623796D01*
X144737546Y-107537546D01*
X144764227Y-107501903D01*
X144780485Y-107480188D01*
X144836419Y-107438318D01*
X144879751Y-107430500D01*
X148672779Y-107430500D01*
X148739818Y-107450185D01*
X148773097Y-107481615D01*
X148829892Y-107559788D01*
X148980213Y-107710109D01*
X149152182Y-107835050D01*
X149160946Y-107839516D01*
X149211742Y-107887491D01*
X149228536Y-107955312D01*
X149205998Y-108021447D01*
X149160946Y-108060484D01*
X149152182Y-108064949D01*
X148980213Y-108189890D01*
X148829892Y-108340211D01*
X148773097Y-108418385D01*
X148717767Y-108461051D01*
X148672779Y-108469500D01*
X148189751Y-108469500D01*
X148122712Y-108449815D01*
X148090485Y-108419812D01*
X148047548Y-108362457D01*
X148047546Y-108362454D01*
X148047542Y-108362451D01*
X147932335Y-108276206D01*
X147932328Y-108276202D01*
X147797482Y-108225908D01*
X147797483Y-108225908D01*
X147737883Y-108219501D01*
X147737881Y-108219500D01*
X147737873Y-108219500D01*
X147737864Y-108219500D01*
X145132129Y-108219500D01*
X145132123Y-108219501D01*
X145072516Y-108225908D01*
X144937671Y-108276202D01*
X144937664Y-108276206D01*
X144822455Y-108362452D01*
X144822452Y-108362455D01*
X144736206Y-108477664D01*
X144736202Y-108477671D01*
X144685908Y-108612517D01*
X144679501Y-108672116D01*
X144679501Y-108672123D01*
X144679500Y-108672135D01*
X144679500Y-109767870D01*
X144679501Y-109767876D01*
X144685908Y-109827483D01*
X144736202Y-109962328D01*
X144736206Y-109962335D01*
X144822452Y-110077544D01*
X144822455Y-110077547D01*
X144937664Y-110163793D01*
X144937671Y-110163797D01*
X145072517Y-110214091D01*
X145072516Y-110214091D01*
X145079444Y-110214835D01*
X145132127Y-110220500D01*
X147737872Y-110220499D01*
X147797483Y-110214091D01*
X147932331Y-110163796D01*
X148047546Y-110077546D01*
X148074227Y-110041903D01*
X148090485Y-110020188D01*
X148146419Y-109978318D01*
X148189751Y-109970500D01*
X148672779Y-109970500D01*
X148739818Y-109990185D01*
X148773097Y-110021615D01*
X148829892Y-110099788D01*
X148980213Y-110250109D01*
X149152182Y-110375050D01*
X149160946Y-110379516D01*
X149211742Y-110427491D01*
X149228536Y-110495312D01*
X149205998Y-110561447D01*
X149160946Y-110600484D01*
X149152182Y-110604949D01*
X148980213Y-110729890D01*
X148829892Y-110880211D01*
X148773097Y-110958385D01*
X148717767Y-111001051D01*
X148672779Y-111009500D01*
X144879751Y-111009500D01*
X144812712Y-110989815D01*
X144780485Y-110959812D01*
X144737548Y-110902457D01*
X144737546Y-110902454D01*
X144737542Y-110902451D01*
X144622335Y-110816206D01*
X144622328Y-110816202D01*
X144487482Y-110765908D01*
X144487483Y-110765908D01*
X144427883Y-110759501D01*
X144427881Y-110759500D01*
X144427873Y-110759500D01*
X144427864Y-110759500D01*
X141822129Y-110759500D01*
X141822123Y-110759501D01*
X141762516Y-110765908D01*
X141627671Y-110816202D01*
X141627664Y-110816206D01*
X141512455Y-110902452D01*
X141512452Y-110902455D01*
X141426206Y-111017664D01*
X141426202Y-111017671D01*
X141375908Y-111152517D01*
X141369501Y-111212116D01*
X141369501Y-111212123D01*
X141369500Y-111212135D01*
X141369500Y-112307870D01*
X141369501Y-112307876D01*
X141375908Y-112367483D01*
X141426202Y-112502328D01*
X141426206Y-112502335D01*
X141512452Y-112617544D01*
X141512455Y-112617547D01*
X141627664Y-112703793D01*
X141627671Y-112703797D01*
X141762517Y-112754091D01*
X141762516Y-112754091D01*
X141769444Y-112754835D01*
X141822127Y-112760500D01*
X144427872Y-112760499D01*
X144487483Y-112754091D01*
X144622331Y-112703796D01*
X144737546Y-112617546D01*
X144764227Y-112581903D01*
X144780485Y-112560188D01*
X144836419Y-112518318D01*
X144879751Y-112510500D01*
X148672779Y-112510500D01*
X148739818Y-112530185D01*
X148773097Y-112561615D01*
X148829892Y-112639788D01*
X148980213Y-112790109D01*
X149152182Y-112915050D01*
X149160946Y-112919516D01*
X149211742Y-112967491D01*
X149228536Y-113035312D01*
X149205998Y-113101447D01*
X149160946Y-113140484D01*
X149152182Y-113144949D01*
X148980213Y-113269890D01*
X148829892Y-113420211D01*
X148773097Y-113498385D01*
X148717767Y-113541051D01*
X148672779Y-113549500D01*
X148189751Y-113549500D01*
X148122712Y-113529815D01*
X148090485Y-113499812D01*
X148047548Y-113442457D01*
X148047546Y-113442454D01*
X148047542Y-113442451D01*
X147932335Y-113356206D01*
X147932328Y-113356202D01*
X147797482Y-113305908D01*
X147797483Y-113305908D01*
X147737883Y-113299501D01*
X147737881Y-113299500D01*
X147737873Y-113299500D01*
X147737864Y-113299500D01*
X145132129Y-113299500D01*
X145132123Y-113299501D01*
X145072516Y-113305908D01*
X144937671Y-113356202D01*
X144937664Y-113356206D01*
X144822455Y-113442452D01*
X144822452Y-113442455D01*
X144736206Y-113557664D01*
X144736202Y-113557671D01*
X144685908Y-113692517D01*
X144679501Y-113752116D01*
X144679501Y-113752123D01*
X144679500Y-113752135D01*
X144679500Y-114847870D01*
X144679501Y-114847876D01*
X144685908Y-114907483D01*
X144736202Y-115042328D01*
X144736206Y-115042335D01*
X144822452Y-115157544D01*
X144822455Y-115157547D01*
X144937664Y-115243793D01*
X144937671Y-115243797D01*
X145072517Y-115294091D01*
X145072516Y-115294091D01*
X145079444Y-115294835D01*
X145132127Y-115300500D01*
X147737872Y-115300499D01*
X147797483Y-115294091D01*
X147932331Y-115243796D01*
X148047546Y-115157546D01*
X148074227Y-115121903D01*
X148090485Y-115100188D01*
X148146419Y-115058318D01*
X148189751Y-115050500D01*
X148672779Y-115050500D01*
X148739818Y-115070185D01*
X148773097Y-115101615D01*
X148829892Y-115179788D01*
X148980213Y-115330109D01*
X149152182Y-115455050D01*
X149160946Y-115459516D01*
X149211742Y-115507491D01*
X149228536Y-115575312D01*
X149205998Y-115641447D01*
X149160946Y-115680484D01*
X149152182Y-115684949D01*
X148980213Y-115809890D01*
X148829892Y-115960211D01*
X148773097Y-116038385D01*
X148717767Y-116081051D01*
X148672779Y-116089500D01*
X144879751Y-116089500D01*
X144812712Y-116069815D01*
X144780485Y-116039812D01*
X144737548Y-115982457D01*
X144737546Y-115982454D01*
X144737542Y-115982451D01*
X144622335Y-115896206D01*
X144622328Y-115896202D01*
X144487482Y-115845908D01*
X144487483Y-115845908D01*
X144427883Y-115839501D01*
X144427881Y-115839500D01*
X144427873Y-115839500D01*
X144427864Y-115839500D01*
X141822129Y-115839500D01*
X141822123Y-115839501D01*
X141762516Y-115845908D01*
X141627671Y-115896202D01*
X141627664Y-115896206D01*
X141512455Y-115982452D01*
X141512452Y-115982455D01*
X141426206Y-116097664D01*
X141426202Y-116097671D01*
X141375908Y-116232517D01*
X141369501Y-116292116D01*
X141369501Y-116292123D01*
X141369500Y-116292135D01*
X141369500Y-117387870D01*
X141369501Y-117387876D01*
X141375908Y-117447483D01*
X141426202Y-117582328D01*
X141426206Y-117582335D01*
X141512452Y-117697544D01*
X141512455Y-117697547D01*
X141627664Y-117783793D01*
X141627671Y-117783797D01*
X141762517Y-117834091D01*
X141762516Y-117834091D01*
X141769444Y-117834835D01*
X141822127Y-117840500D01*
X144427872Y-117840499D01*
X144487483Y-117834091D01*
X144622331Y-117783796D01*
X144737546Y-117697546D01*
X144764227Y-117661903D01*
X144780485Y-117640188D01*
X144836419Y-117598318D01*
X144879751Y-117590500D01*
X148672779Y-117590500D01*
X148739818Y-117610185D01*
X148773097Y-117641615D01*
X148829892Y-117719788D01*
X148980213Y-117870109D01*
X149152182Y-117995050D01*
X149160946Y-117999516D01*
X149211742Y-118047491D01*
X149228536Y-118115312D01*
X149205998Y-118181447D01*
X149160946Y-118220484D01*
X149152182Y-118224949D01*
X148980213Y-118349890D01*
X148829892Y-118500211D01*
X148773097Y-118578385D01*
X148717767Y-118621051D01*
X148672779Y-118629500D01*
X148189751Y-118629500D01*
X148122712Y-118609815D01*
X148090485Y-118579812D01*
X148047548Y-118522457D01*
X148047546Y-118522454D01*
X148047542Y-118522451D01*
X147932335Y-118436206D01*
X147932328Y-118436202D01*
X147797482Y-118385908D01*
X147797483Y-118385908D01*
X147737883Y-118379501D01*
X147737881Y-118379500D01*
X147737873Y-118379500D01*
X147737864Y-118379500D01*
X145132129Y-118379500D01*
X145132123Y-118379501D01*
X145072516Y-118385908D01*
X144937671Y-118436202D01*
X144937664Y-118436206D01*
X144822455Y-118522452D01*
X144822452Y-118522455D01*
X144736206Y-118637664D01*
X144736202Y-118637671D01*
X144685908Y-118772517D01*
X144679501Y-118832116D01*
X144679501Y-118832123D01*
X144679500Y-118832135D01*
X144679500Y-119927870D01*
X144679501Y-119927876D01*
X144685908Y-119987483D01*
X144736202Y-120122328D01*
X144736206Y-120122335D01*
X144822452Y-120237544D01*
X144822455Y-120237547D01*
X144937664Y-120323793D01*
X144937671Y-120323797D01*
X145072517Y-120374091D01*
X145072516Y-120374091D01*
X145079444Y-120374835D01*
X145132127Y-120380500D01*
X147737872Y-120380499D01*
X147797483Y-120374091D01*
X147932331Y-120323796D01*
X148047546Y-120237546D01*
X148074227Y-120201903D01*
X148090485Y-120180188D01*
X148146419Y-120138318D01*
X148189751Y-120130500D01*
X148672779Y-120130500D01*
X148739818Y-120150185D01*
X148773097Y-120181615D01*
X148829892Y-120259788D01*
X148980213Y-120410109D01*
X149152182Y-120535050D01*
X149160946Y-120539516D01*
X149211742Y-120587491D01*
X149228536Y-120655312D01*
X149205998Y-120721447D01*
X149160946Y-120760484D01*
X149152182Y-120764949D01*
X148980213Y-120889890D01*
X148829892Y-121040211D01*
X148773097Y-121118385D01*
X148717767Y-121161051D01*
X148672779Y-121169500D01*
X144879751Y-121169500D01*
X144812712Y-121149815D01*
X144780485Y-121119812D01*
X144737548Y-121062457D01*
X144737546Y-121062454D01*
X144737542Y-121062451D01*
X144622335Y-120976206D01*
X144622328Y-120976202D01*
X144487482Y-120925908D01*
X144487483Y-120925908D01*
X144427883Y-120919501D01*
X144427881Y-120919500D01*
X144427873Y-120919500D01*
X144427864Y-120919500D01*
X141822129Y-120919500D01*
X141822123Y-120919501D01*
X141762516Y-120925908D01*
X141627671Y-120976202D01*
X141627664Y-120976206D01*
X141512455Y-121062452D01*
X141512452Y-121062455D01*
X141426206Y-121177664D01*
X141426202Y-121177671D01*
X141375908Y-121312517D01*
X141369501Y-121372116D01*
X141369501Y-121372123D01*
X141369500Y-121372135D01*
X141369500Y-122467870D01*
X141369501Y-122467876D01*
X141375908Y-122527483D01*
X141426202Y-122662328D01*
X141426206Y-122662335D01*
X141512452Y-122777544D01*
X141512455Y-122777547D01*
X141627664Y-122863793D01*
X141627671Y-122863797D01*
X141762517Y-122914091D01*
X141762516Y-122914091D01*
X141769444Y-122914835D01*
X141822127Y-122920500D01*
X144427872Y-122920499D01*
X144487483Y-122914091D01*
X144622331Y-122863796D01*
X144737546Y-122777546D01*
X144764227Y-122741903D01*
X144780485Y-122720188D01*
X144836419Y-122678318D01*
X144879751Y-122670500D01*
X148672779Y-122670500D01*
X148739818Y-122690185D01*
X148773097Y-122721615D01*
X148829892Y-122799788D01*
X148980213Y-122950109D01*
X149152182Y-123075050D01*
X149160946Y-123079516D01*
X149211742Y-123127491D01*
X149228536Y-123195312D01*
X149205998Y-123261447D01*
X149160946Y-123300484D01*
X149152182Y-123304949D01*
X148980213Y-123429890D01*
X148829892Y-123580211D01*
X148773097Y-123658385D01*
X148717767Y-123701051D01*
X148672779Y-123709500D01*
X148189751Y-123709500D01*
X148122712Y-123689815D01*
X148090485Y-123659812D01*
X148047548Y-123602457D01*
X148047546Y-123602454D01*
X148047542Y-123602451D01*
X147932335Y-123516206D01*
X147932328Y-123516202D01*
X147797482Y-123465908D01*
X147797483Y-123465908D01*
X147737883Y-123459501D01*
X147737881Y-123459500D01*
X147737873Y-123459500D01*
X147737864Y-123459500D01*
X145132129Y-123459500D01*
X145132123Y-123459501D01*
X145072516Y-123465908D01*
X144937671Y-123516202D01*
X144937664Y-123516206D01*
X144822455Y-123602452D01*
X144822452Y-123602455D01*
X144736206Y-123717664D01*
X144736202Y-123717671D01*
X144685908Y-123852517D01*
X144679501Y-123912116D01*
X144679501Y-123912123D01*
X144679500Y-123912135D01*
X144679500Y-125007870D01*
X144679501Y-125007876D01*
X144685908Y-125067483D01*
X144736202Y-125202328D01*
X144736206Y-125202335D01*
X144822452Y-125317544D01*
X144822455Y-125317547D01*
X144937664Y-125403793D01*
X144937671Y-125403797D01*
X145072517Y-125454091D01*
X145072516Y-125454091D01*
X145079444Y-125454835D01*
X145132127Y-125460500D01*
X147737872Y-125460499D01*
X147797483Y-125454091D01*
X147932331Y-125403796D01*
X148047546Y-125317546D01*
X148074227Y-125281903D01*
X148090485Y-125260188D01*
X148146419Y-125218318D01*
X148189751Y-125210500D01*
X148672779Y-125210500D01*
X148739818Y-125230185D01*
X148773097Y-125261615D01*
X148829892Y-125339788D01*
X148980213Y-125490109D01*
X149152182Y-125615050D01*
X149160946Y-125619516D01*
X149211742Y-125667491D01*
X149228536Y-125735312D01*
X149205998Y-125801447D01*
X149160946Y-125840484D01*
X149152182Y-125844949D01*
X148980213Y-125969890D01*
X148829892Y-126120211D01*
X148773097Y-126198385D01*
X148717767Y-126241051D01*
X148672779Y-126249500D01*
X144879751Y-126249500D01*
X144812712Y-126229815D01*
X144780485Y-126199812D01*
X144737548Y-126142457D01*
X144737546Y-126142454D01*
X144737542Y-126142451D01*
X144622335Y-126056206D01*
X144622328Y-126056202D01*
X144487482Y-126005908D01*
X144487483Y-126005908D01*
X144427883Y-125999501D01*
X144427881Y-125999500D01*
X144427873Y-125999500D01*
X144427864Y-125999500D01*
X141822129Y-125999500D01*
X141822123Y-125999501D01*
X141762516Y-126005908D01*
X141627671Y-126056202D01*
X141627664Y-126056206D01*
X141512455Y-126142452D01*
X141512452Y-126142455D01*
X141426206Y-126257664D01*
X141426202Y-126257671D01*
X141375908Y-126392517D01*
X141369501Y-126452116D01*
X141369501Y-126452123D01*
X141369500Y-126452135D01*
X141369500Y-127547870D01*
X141369501Y-127547876D01*
X141375908Y-127607483D01*
X141426202Y-127742328D01*
X141426206Y-127742335D01*
X141512452Y-127857544D01*
X141512455Y-127857547D01*
X141627664Y-127943793D01*
X141627671Y-127943797D01*
X141762517Y-127994091D01*
X141762516Y-127994091D01*
X141769444Y-127994835D01*
X141822127Y-128000500D01*
X144427872Y-128000499D01*
X144487483Y-127994091D01*
X144622331Y-127943796D01*
X144737546Y-127857546D01*
X144764227Y-127821903D01*
X144780485Y-127800188D01*
X144836419Y-127758318D01*
X144879751Y-127750500D01*
X148672779Y-127750500D01*
X148739818Y-127770185D01*
X148773097Y-127801615D01*
X148829892Y-127879788D01*
X148980213Y-128030109D01*
X149152182Y-128155050D01*
X149160946Y-128159516D01*
X149211742Y-128207491D01*
X149228536Y-128275312D01*
X149205998Y-128341447D01*
X149160946Y-128380484D01*
X149152182Y-128384949D01*
X148980213Y-128509890D01*
X148829892Y-128660211D01*
X148773097Y-128738385D01*
X148717767Y-128781051D01*
X148672779Y-128789500D01*
X148189751Y-128789500D01*
X148122712Y-128769815D01*
X148090485Y-128739812D01*
X148047548Y-128682457D01*
X148047546Y-128682454D01*
X148047542Y-128682451D01*
X147932335Y-128596206D01*
X147932328Y-128596202D01*
X147797482Y-128545908D01*
X147797483Y-128545908D01*
X147737883Y-128539501D01*
X147737881Y-128539500D01*
X147737873Y-128539500D01*
X147737864Y-128539500D01*
X145132129Y-128539500D01*
X145132123Y-128539501D01*
X145072516Y-128545908D01*
X144937671Y-128596202D01*
X144937664Y-128596206D01*
X144822455Y-128682452D01*
X144822452Y-128682455D01*
X144736206Y-128797664D01*
X144736202Y-128797671D01*
X144685908Y-128932517D01*
X144679501Y-128992116D01*
X144679501Y-128992123D01*
X144679500Y-128992135D01*
X144679500Y-130087870D01*
X144679501Y-130087876D01*
X144685908Y-130147483D01*
X144736202Y-130282328D01*
X144736206Y-130282335D01*
X144822452Y-130397544D01*
X144822455Y-130397547D01*
X144937664Y-130483793D01*
X144937671Y-130483797D01*
X145072517Y-130534091D01*
X145072516Y-130534091D01*
X145079444Y-130534835D01*
X145132127Y-130540500D01*
X147737872Y-130540499D01*
X147797483Y-130534091D01*
X147932331Y-130483796D01*
X148047546Y-130397546D01*
X148074227Y-130361903D01*
X148090485Y-130340188D01*
X148146419Y-130298318D01*
X148189751Y-130290500D01*
X148672779Y-130290500D01*
X148739818Y-130310185D01*
X148773097Y-130341615D01*
X148829892Y-130419788D01*
X148980213Y-130570109D01*
X149152182Y-130695050D01*
X149160946Y-130699516D01*
X149211742Y-130747491D01*
X149228536Y-130815312D01*
X149205998Y-130881447D01*
X149160946Y-130920484D01*
X149152182Y-130924949D01*
X148980213Y-131049890D01*
X148829892Y-131200211D01*
X148773097Y-131278385D01*
X148717767Y-131321051D01*
X148672779Y-131329500D01*
X144879751Y-131329500D01*
X144812712Y-131309815D01*
X144780485Y-131279812D01*
X144737548Y-131222457D01*
X144737546Y-131222454D01*
X144737542Y-131222451D01*
X144622335Y-131136206D01*
X144622328Y-131136202D01*
X144487482Y-131085908D01*
X144487483Y-131085908D01*
X144427883Y-131079501D01*
X144427881Y-131079500D01*
X144427873Y-131079500D01*
X144427864Y-131079500D01*
X141822129Y-131079500D01*
X141822123Y-131079501D01*
X141762516Y-131085908D01*
X141627671Y-131136202D01*
X141627664Y-131136206D01*
X141512455Y-131222452D01*
X141512452Y-131222455D01*
X141426206Y-131337664D01*
X141426202Y-131337671D01*
X141375908Y-131472517D01*
X141369501Y-131532116D01*
X141369501Y-131532123D01*
X141369500Y-131532135D01*
X141369500Y-132627870D01*
X141369501Y-132627876D01*
X141375908Y-132687483D01*
X141426202Y-132822328D01*
X141426206Y-132822335D01*
X141512452Y-132937544D01*
X141512455Y-132937547D01*
X141627664Y-133023793D01*
X141627671Y-133023797D01*
X141762517Y-133074091D01*
X141762516Y-133074091D01*
X141769444Y-133074835D01*
X141822127Y-133080500D01*
X144427872Y-133080499D01*
X144487483Y-133074091D01*
X144622331Y-133023796D01*
X144737546Y-132937546D01*
X144764227Y-132901903D01*
X144780485Y-132880188D01*
X144836419Y-132838318D01*
X144879751Y-132830500D01*
X148672779Y-132830500D01*
X148739818Y-132850185D01*
X148773097Y-132881615D01*
X148829892Y-132959788D01*
X148980213Y-133110109D01*
X149152182Y-133235050D01*
X149160946Y-133239516D01*
X149211742Y-133287491D01*
X149228536Y-133355312D01*
X149205998Y-133421447D01*
X149160946Y-133460484D01*
X149152182Y-133464949D01*
X148980213Y-133589890D01*
X148829892Y-133740211D01*
X148773097Y-133818385D01*
X148717767Y-133861051D01*
X148672779Y-133869500D01*
X148189751Y-133869500D01*
X148122712Y-133849815D01*
X148090485Y-133819812D01*
X148047548Y-133762457D01*
X148047546Y-133762454D01*
X148047542Y-133762451D01*
X147932335Y-133676206D01*
X147932328Y-133676202D01*
X147797482Y-133625908D01*
X147797483Y-133625908D01*
X147737883Y-133619501D01*
X147737881Y-133619500D01*
X147737873Y-133619500D01*
X147737864Y-133619500D01*
X145132129Y-133619500D01*
X145132123Y-133619501D01*
X145072516Y-133625908D01*
X144937671Y-133676202D01*
X144937664Y-133676206D01*
X144822455Y-133762452D01*
X144822452Y-133762455D01*
X144736206Y-133877664D01*
X144736202Y-133877671D01*
X144685908Y-134012517D01*
X144679501Y-134072116D01*
X144679501Y-134072123D01*
X144679500Y-134072135D01*
X144679500Y-135167870D01*
X144679501Y-135167876D01*
X144685908Y-135227483D01*
X144736202Y-135362328D01*
X144736206Y-135362335D01*
X144822452Y-135477544D01*
X144822455Y-135477547D01*
X144937664Y-135563793D01*
X144937671Y-135563797D01*
X145072517Y-135614091D01*
X145072516Y-135614091D01*
X145079444Y-135614835D01*
X145132127Y-135620500D01*
X147737872Y-135620499D01*
X147797483Y-135614091D01*
X147932331Y-135563796D01*
X148047546Y-135477546D01*
X148074227Y-135441903D01*
X148090485Y-135420188D01*
X148146419Y-135378318D01*
X148189751Y-135370500D01*
X148672779Y-135370500D01*
X148739818Y-135390185D01*
X148773097Y-135421615D01*
X148829892Y-135499788D01*
X148980213Y-135650109D01*
X149152182Y-135775050D01*
X149160946Y-135779516D01*
X149211742Y-135827491D01*
X149228536Y-135895312D01*
X149205998Y-135961447D01*
X149160946Y-136000484D01*
X149152182Y-136004949D01*
X148980213Y-136129890D01*
X148829892Y-136280211D01*
X148773097Y-136358385D01*
X148717767Y-136401051D01*
X148672779Y-136409500D01*
X144879751Y-136409500D01*
X144812712Y-136389815D01*
X144780485Y-136359812D01*
X144737548Y-136302457D01*
X144737546Y-136302454D01*
X144737542Y-136302451D01*
X144622335Y-136216206D01*
X144622328Y-136216202D01*
X144487482Y-136165908D01*
X144487483Y-136165908D01*
X144427883Y-136159501D01*
X144427881Y-136159500D01*
X144427873Y-136159500D01*
X144427864Y-136159500D01*
X141822129Y-136159500D01*
X141822123Y-136159501D01*
X141762516Y-136165908D01*
X141627671Y-136216202D01*
X141627664Y-136216206D01*
X141512455Y-136302452D01*
X141512452Y-136302455D01*
X141426206Y-136417664D01*
X141426202Y-136417671D01*
X141375908Y-136552517D01*
X141369501Y-136612116D01*
X141369501Y-136612123D01*
X141369500Y-136612135D01*
X141369500Y-137707870D01*
X141369501Y-137707876D01*
X141375908Y-137767483D01*
X141426202Y-137902328D01*
X141426206Y-137902335D01*
X141512452Y-138017544D01*
X141512455Y-138017547D01*
X141627664Y-138103793D01*
X141627671Y-138103797D01*
X141762517Y-138154091D01*
X141762516Y-138154091D01*
X141769444Y-138154835D01*
X141822127Y-138160500D01*
X144427872Y-138160499D01*
X144487483Y-138154091D01*
X144622331Y-138103796D01*
X144737546Y-138017546D01*
X144764227Y-137981903D01*
X144780485Y-137960188D01*
X144836419Y-137918318D01*
X144879751Y-137910500D01*
X148672779Y-137910500D01*
X148739818Y-137930185D01*
X148773097Y-137961615D01*
X148829892Y-138039788D01*
X148980213Y-138190109D01*
X149152182Y-138315050D01*
X149160946Y-138319516D01*
X149211742Y-138367491D01*
X149228536Y-138435312D01*
X149205998Y-138501447D01*
X149160946Y-138540484D01*
X149152182Y-138544949D01*
X148980213Y-138669890D01*
X148829892Y-138820211D01*
X148773097Y-138898385D01*
X148717767Y-138941051D01*
X148672779Y-138949500D01*
X148189751Y-138949500D01*
X148122712Y-138929815D01*
X148090485Y-138899812D01*
X148047548Y-138842457D01*
X148047546Y-138842454D01*
X148047542Y-138842451D01*
X147932335Y-138756206D01*
X147932328Y-138756202D01*
X147797482Y-138705908D01*
X147797483Y-138705908D01*
X147737883Y-138699501D01*
X147737881Y-138699500D01*
X147737873Y-138699500D01*
X147737864Y-138699500D01*
X145132129Y-138699500D01*
X145132123Y-138699501D01*
X145072516Y-138705908D01*
X144937671Y-138756202D01*
X144937664Y-138756206D01*
X144822455Y-138842452D01*
X144822452Y-138842455D01*
X144736206Y-138957664D01*
X144736202Y-138957671D01*
X144685908Y-139092517D01*
X144679501Y-139152116D01*
X144679501Y-139152123D01*
X144679500Y-139152135D01*
X144679500Y-140247870D01*
X144679501Y-140247876D01*
X144685908Y-140307483D01*
X144736202Y-140442328D01*
X144736206Y-140442335D01*
X144822452Y-140557544D01*
X144822455Y-140557547D01*
X144937664Y-140643793D01*
X144937671Y-140643797D01*
X145072517Y-140694091D01*
X145072516Y-140694091D01*
X145079444Y-140694835D01*
X145132127Y-140700500D01*
X147737872Y-140700499D01*
X147797483Y-140694091D01*
X147932331Y-140643796D01*
X148047546Y-140557546D01*
X148074227Y-140521903D01*
X148090485Y-140500188D01*
X148146419Y-140458318D01*
X148189751Y-140450500D01*
X148672779Y-140450500D01*
X148739818Y-140470185D01*
X148773097Y-140501615D01*
X148829892Y-140579788D01*
X148980213Y-140730109D01*
X149152182Y-140855050D01*
X149160946Y-140859516D01*
X149211742Y-140907491D01*
X149228536Y-140975312D01*
X149205998Y-141041447D01*
X149160946Y-141080484D01*
X149152182Y-141084949D01*
X148980213Y-141209890D01*
X148829892Y-141360211D01*
X148773097Y-141438385D01*
X148717767Y-141481051D01*
X148672779Y-141489500D01*
X144879751Y-141489500D01*
X144812712Y-141469815D01*
X144780485Y-141439812D01*
X144737548Y-141382457D01*
X144737546Y-141382454D01*
X144737542Y-141382451D01*
X144622335Y-141296206D01*
X144622328Y-141296202D01*
X144487482Y-141245908D01*
X144487483Y-141245908D01*
X144427883Y-141239501D01*
X144427881Y-141239500D01*
X144427873Y-141239500D01*
X144427864Y-141239500D01*
X141822129Y-141239500D01*
X141822123Y-141239501D01*
X141762516Y-141245908D01*
X141627671Y-141296202D01*
X141627664Y-141296206D01*
X141512455Y-141382452D01*
X141512452Y-141382455D01*
X141426206Y-141497664D01*
X141426202Y-141497671D01*
X141375908Y-141632517D01*
X141369501Y-141692116D01*
X141369501Y-141692123D01*
X141369500Y-141692135D01*
X141369500Y-142787870D01*
X141369501Y-142787876D01*
X141375908Y-142847483D01*
X141426202Y-142982328D01*
X141426206Y-142982335D01*
X141512452Y-143097544D01*
X141512455Y-143097547D01*
X141627664Y-143183793D01*
X141627671Y-143183797D01*
X141762517Y-143234091D01*
X141762516Y-143234091D01*
X141769444Y-143234835D01*
X141822127Y-143240500D01*
X144427872Y-143240499D01*
X144487483Y-143234091D01*
X144622331Y-143183796D01*
X144737546Y-143097546D01*
X144764227Y-143061903D01*
X144780485Y-143040188D01*
X144836419Y-142998318D01*
X144879751Y-142990500D01*
X148672779Y-142990500D01*
X148739818Y-143010185D01*
X148773097Y-143041615D01*
X148829892Y-143119788D01*
X148980213Y-143270109D01*
X149152182Y-143395050D01*
X149160946Y-143399516D01*
X149211742Y-143447491D01*
X149228536Y-143515312D01*
X149205998Y-143581447D01*
X149160946Y-143620484D01*
X149152182Y-143624949D01*
X148980213Y-143749890D01*
X148829892Y-143900211D01*
X148773097Y-143978385D01*
X148717767Y-144021051D01*
X148672779Y-144029500D01*
X148189751Y-144029500D01*
X148122712Y-144009815D01*
X148090485Y-143979812D01*
X148047548Y-143922457D01*
X148047546Y-143922454D01*
X148047542Y-143922451D01*
X147932335Y-143836206D01*
X147932328Y-143836202D01*
X147797482Y-143785908D01*
X147797483Y-143785908D01*
X147737883Y-143779501D01*
X147737881Y-143779500D01*
X147737873Y-143779500D01*
X147737864Y-143779500D01*
X145132129Y-143779500D01*
X145132123Y-143779501D01*
X145072516Y-143785908D01*
X144937671Y-143836202D01*
X144937664Y-143836206D01*
X144822455Y-143922452D01*
X144822452Y-143922455D01*
X144736206Y-144037664D01*
X144736202Y-144037671D01*
X144685908Y-144172517D01*
X144679501Y-144232116D01*
X144679501Y-144232123D01*
X144679500Y-144232135D01*
X144679500Y-145327870D01*
X144679501Y-145327876D01*
X144685908Y-145387483D01*
X144736202Y-145522328D01*
X144736206Y-145522335D01*
X144822452Y-145637544D01*
X144822455Y-145637547D01*
X144937664Y-145723793D01*
X144937671Y-145723797D01*
X145072517Y-145774091D01*
X145072516Y-145774091D01*
X145079444Y-145774835D01*
X145132127Y-145780500D01*
X147737872Y-145780499D01*
X147797483Y-145774091D01*
X147932331Y-145723796D01*
X148047546Y-145637546D01*
X148074227Y-145601903D01*
X148090485Y-145580188D01*
X148146419Y-145538318D01*
X148189751Y-145530500D01*
X148672779Y-145530500D01*
X148739818Y-145550185D01*
X148773097Y-145581615D01*
X148829892Y-145659788D01*
X148980213Y-145810109D01*
X149152182Y-145935050D01*
X149160946Y-145939516D01*
X149211742Y-145987491D01*
X149228536Y-146055312D01*
X149205998Y-146121447D01*
X149160946Y-146160484D01*
X149152182Y-146164949D01*
X148980213Y-146289890D01*
X148829892Y-146440211D01*
X148773097Y-146518385D01*
X148717767Y-146561051D01*
X148672779Y-146569500D01*
X144879751Y-146569500D01*
X144812712Y-146549815D01*
X144780485Y-146519812D01*
X144737548Y-146462457D01*
X144737546Y-146462454D01*
X144737542Y-146462451D01*
X144622335Y-146376206D01*
X144622328Y-146376202D01*
X144487482Y-146325908D01*
X144487483Y-146325908D01*
X144427883Y-146319501D01*
X144427881Y-146319500D01*
X144427873Y-146319500D01*
X144427864Y-146319500D01*
X141822129Y-146319500D01*
X141822123Y-146319501D01*
X141762516Y-146325908D01*
X141627671Y-146376202D01*
X141627664Y-146376206D01*
X141512455Y-146462452D01*
X141512452Y-146462455D01*
X141426206Y-146577664D01*
X141426202Y-146577671D01*
X141375908Y-146712517D01*
X141369501Y-146772116D01*
X141369501Y-146772123D01*
X141369500Y-146772135D01*
X141369500Y-147867870D01*
X141369501Y-147867876D01*
X141375908Y-147927483D01*
X141426202Y-148062328D01*
X141426206Y-148062335D01*
X141512452Y-148177544D01*
X141512455Y-148177547D01*
X141627664Y-148263793D01*
X141627671Y-148263797D01*
X141762517Y-148314091D01*
X141762516Y-148314091D01*
X141769444Y-148314835D01*
X141822127Y-148320500D01*
X144427872Y-148320499D01*
X144487483Y-148314091D01*
X144622331Y-148263796D01*
X144737546Y-148177546D01*
X144764227Y-148141903D01*
X144780485Y-148120188D01*
X144836419Y-148078318D01*
X144879751Y-148070500D01*
X148672779Y-148070500D01*
X148739818Y-148090185D01*
X148773097Y-148121615D01*
X148829892Y-148199788D01*
X148980213Y-148350109D01*
X149152182Y-148475050D01*
X149160946Y-148479516D01*
X149211742Y-148527491D01*
X149228536Y-148595312D01*
X149205998Y-148661447D01*
X149160946Y-148700484D01*
X149152182Y-148704949D01*
X148980213Y-148829890D01*
X148829892Y-148980211D01*
X148773097Y-149058385D01*
X148717767Y-149101051D01*
X148672779Y-149109500D01*
X148189751Y-149109500D01*
X148122712Y-149089815D01*
X148090485Y-149059812D01*
X148047548Y-149002457D01*
X148047546Y-149002454D01*
X148047542Y-149002451D01*
X147932335Y-148916206D01*
X147932328Y-148916202D01*
X147797482Y-148865908D01*
X147797483Y-148865908D01*
X147737883Y-148859501D01*
X147737881Y-148859500D01*
X147737873Y-148859500D01*
X147737864Y-148859500D01*
X145132129Y-148859500D01*
X145132123Y-148859501D01*
X145072516Y-148865908D01*
X144937671Y-148916202D01*
X144937664Y-148916206D01*
X144822455Y-149002452D01*
X144822452Y-149002455D01*
X144736206Y-149117664D01*
X144736202Y-149117671D01*
X144685908Y-149252517D01*
X144679501Y-149312116D01*
X144679501Y-149312123D01*
X144679500Y-149312135D01*
X144679500Y-150407870D01*
X144679501Y-150407876D01*
X144685908Y-150467483D01*
X144736202Y-150602328D01*
X144736206Y-150602335D01*
X144822452Y-150717544D01*
X144822455Y-150717547D01*
X144937664Y-150803793D01*
X144937671Y-150803797D01*
X145072517Y-150854091D01*
X145072516Y-150854091D01*
X145079444Y-150854835D01*
X145132127Y-150860500D01*
X147737872Y-150860499D01*
X147797483Y-150854091D01*
X147932331Y-150803796D01*
X148047546Y-150717546D01*
X148074227Y-150681903D01*
X148090485Y-150660188D01*
X148146419Y-150618318D01*
X148189751Y-150610500D01*
X148672779Y-150610500D01*
X148739818Y-150630185D01*
X148773097Y-150661615D01*
X148829892Y-150739788D01*
X148980213Y-150890109D01*
X149152182Y-151015050D01*
X149160946Y-151019516D01*
X149211742Y-151067491D01*
X149228536Y-151135312D01*
X149205998Y-151201447D01*
X149160946Y-151240484D01*
X149152182Y-151244949D01*
X148980213Y-151369890D01*
X148829892Y-151520211D01*
X148773097Y-151598385D01*
X148717767Y-151641051D01*
X148672779Y-151649500D01*
X144879751Y-151649500D01*
X144812712Y-151629815D01*
X144780485Y-151599812D01*
X144737548Y-151542457D01*
X144737546Y-151542454D01*
X144737542Y-151542451D01*
X144622335Y-151456206D01*
X144622328Y-151456202D01*
X144487482Y-151405908D01*
X144487483Y-151405908D01*
X144427883Y-151399501D01*
X144427881Y-151399500D01*
X144427873Y-151399500D01*
X144427864Y-151399500D01*
X141822129Y-151399500D01*
X141822123Y-151399501D01*
X141762516Y-151405908D01*
X141627671Y-151456202D01*
X141627664Y-151456206D01*
X141512455Y-151542452D01*
X141512452Y-151542455D01*
X141426206Y-151657664D01*
X141426202Y-151657671D01*
X141375908Y-151792517D01*
X141369501Y-151852116D01*
X141369501Y-151852123D01*
X141369500Y-151852135D01*
X141369500Y-152947870D01*
X141369501Y-152947876D01*
X141375908Y-153007483D01*
X141426202Y-153142328D01*
X141426206Y-153142335D01*
X141512452Y-153257544D01*
X141512455Y-153257547D01*
X141627664Y-153343793D01*
X141627671Y-153343797D01*
X141762517Y-153394091D01*
X141762516Y-153394091D01*
X141769444Y-153394835D01*
X141822127Y-153400500D01*
X144427872Y-153400499D01*
X144487483Y-153394091D01*
X144622331Y-153343796D01*
X144737546Y-153257546D01*
X144764227Y-153221903D01*
X144780485Y-153200188D01*
X144836419Y-153158318D01*
X144879751Y-153150500D01*
X148672779Y-153150500D01*
X148739818Y-153170185D01*
X148773097Y-153201615D01*
X148829892Y-153279788D01*
X148980213Y-153430109D01*
X149152182Y-153555050D01*
X149160946Y-153559516D01*
X149211742Y-153607491D01*
X149228536Y-153675312D01*
X149205998Y-153741447D01*
X149160946Y-153780484D01*
X149152182Y-153784949D01*
X148980213Y-153909890D01*
X148829892Y-154060211D01*
X148773097Y-154138385D01*
X148717767Y-154181051D01*
X148672779Y-154189500D01*
X148189751Y-154189500D01*
X148122712Y-154169815D01*
X148090485Y-154139812D01*
X148047548Y-154082457D01*
X148047546Y-154082454D01*
X148047542Y-154082451D01*
X147932335Y-153996206D01*
X147932328Y-153996202D01*
X147797482Y-153945908D01*
X147797483Y-153945908D01*
X147737883Y-153939501D01*
X147737881Y-153939500D01*
X147737873Y-153939500D01*
X147737864Y-153939500D01*
X145132129Y-153939500D01*
X145132123Y-153939501D01*
X145072516Y-153945908D01*
X144937671Y-153996202D01*
X144937664Y-153996206D01*
X144822455Y-154082452D01*
X144822452Y-154082455D01*
X144736206Y-154197664D01*
X144736202Y-154197671D01*
X144685908Y-154332517D01*
X144679501Y-154392116D01*
X144679501Y-154392123D01*
X144679500Y-154392135D01*
X144679500Y-155487870D01*
X144679501Y-155487876D01*
X144685908Y-155547483D01*
X144736202Y-155682328D01*
X144736206Y-155682335D01*
X144822452Y-155797544D01*
X144822455Y-155797547D01*
X144937664Y-155883793D01*
X144937671Y-155883797D01*
X145072517Y-155934091D01*
X145072516Y-155934091D01*
X145079444Y-155934835D01*
X145132127Y-155940500D01*
X147737872Y-155940499D01*
X147797483Y-155934091D01*
X147932331Y-155883796D01*
X148047546Y-155797546D01*
X148074227Y-155761903D01*
X148090485Y-155740188D01*
X148146419Y-155698318D01*
X148189751Y-155690500D01*
X148672779Y-155690500D01*
X148739818Y-155710185D01*
X148773097Y-155741615D01*
X148829892Y-155819788D01*
X148980213Y-155970109D01*
X149152182Y-156095050D01*
X149160946Y-156099516D01*
X149211742Y-156147491D01*
X149228536Y-156215312D01*
X149205998Y-156281447D01*
X149160946Y-156320484D01*
X149152182Y-156324949D01*
X148980213Y-156449890D01*
X148829892Y-156600211D01*
X148773097Y-156678385D01*
X148717767Y-156721051D01*
X148672779Y-156729500D01*
X144879751Y-156729500D01*
X144812712Y-156709815D01*
X144780485Y-156679812D01*
X144737548Y-156622457D01*
X144737546Y-156622454D01*
X144737542Y-156622451D01*
X144622335Y-156536206D01*
X144622328Y-156536202D01*
X144487482Y-156485908D01*
X144487483Y-156485908D01*
X144427883Y-156479501D01*
X144427881Y-156479500D01*
X144427873Y-156479500D01*
X144427864Y-156479500D01*
X141822129Y-156479500D01*
X141822123Y-156479501D01*
X141762516Y-156485908D01*
X141627671Y-156536202D01*
X141627664Y-156536206D01*
X141512455Y-156622452D01*
X141512452Y-156622455D01*
X141426206Y-156737664D01*
X141426202Y-156737671D01*
X141375908Y-156872517D01*
X141369501Y-156932116D01*
X141369501Y-156932123D01*
X141369500Y-156932135D01*
X141369500Y-158027870D01*
X141369501Y-158027876D01*
X141375908Y-158087483D01*
X141426202Y-158222328D01*
X141426206Y-158222335D01*
X141512452Y-158337544D01*
X141512455Y-158337547D01*
X141627664Y-158423793D01*
X141627671Y-158423797D01*
X141762517Y-158474091D01*
X141762516Y-158474091D01*
X141769444Y-158474835D01*
X141822127Y-158480500D01*
X144427872Y-158480499D01*
X144487483Y-158474091D01*
X144622331Y-158423796D01*
X144737546Y-158337546D01*
X144764227Y-158301903D01*
X144780485Y-158280188D01*
X144836419Y-158238318D01*
X144879751Y-158230500D01*
X148672779Y-158230500D01*
X148739818Y-158250185D01*
X148773097Y-158281615D01*
X148829892Y-158359788D01*
X148980213Y-158510109D01*
X149152182Y-158635050D01*
X149160946Y-158639516D01*
X149211742Y-158687491D01*
X149228536Y-158755312D01*
X149205998Y-158821447D01*
X149160946Y-158860484D01*
X149152182Y-158864949D01*
X148980213Y-158989890D01*
X148829892Y-159140211D01*
X148773097Y-159218385D01*
X148717767Y-159261051D01*
X148672779Y-159269500D01*
X148189751Y-159269500D01*
X148122712Y-159249815D01*
X148090485Y-159219812D01*
X148047548Y-159162457D01*
X148047546Y-159162454D01*
X148047542Y-159162451D01*
X147932335Y-159076206D01*
X147932328Y-159076202D01*
X147797482Y-159025908D01*
X147797483Y-159025908D01*
X147737883Y-159019501D01*
X147737881Y-159019500D01*
X147737873Y-159019500D01*
X147737864Y-159019500D01*
X145132129Y-159019500D01*
X145132123Y-159019501D01*
X145072516Y-159025908D01*
X144937671Y-159076202D01*
X144937664Y-159076206D01*
X144822455Y-159162452D01*
X144822452Y-159162455D01*
X144736206Y-159277664D01*
X144736202Y-159277671D01*
X144685908Y-159412517D01*
X144679501Y-159472116D01*
X144679501Y-159472123D01*
X144679500Y-159472135D01*
X144679500Y-160567870D01*
X144679501Y-160567876D01*
X144685908Y-160627483D01*
X144736202Y-160762328D01*
X144736206Y-160762335D01*
X144822452Y-160877544D01*
X144822455Y-160877547D01*
X144937664Y-160963793D01*
X144937671Y-160963797D01*
X145072517Y-161014091D01*
X145072516Y-161014091D01*
X145079444Y-161014835D01*
X145132127Y-161020500D01*
X147737872Y-161020499D01*
X147797483Y-161014091D01*
X147932331Y-160963796D01*
X148047546Y-160877546D01*
X148074227Y-160841903D01*
X148090485Y-160820188D01*
X148146419Y-160778318D01*
X148189751Y-160770500D01*
X148672779Y-160770500D01*
X148739818Y-160790185D01*
X148773097Y-160821615D01*
X148829892Y-160899788D01*
X148980213Y-161050109D01*
X149152182Y-161175050D01*
X149160946Y-161179516D01*
X149211742Y-161227491D01*
X149228536Y-161295312D01*
X149205998Y-161361447D01*
X149160946Y-161400484D01*
X149152182Y-161404949D01*
X148980213Y-161529890D01*
X148829892Y-161680211D01*
X148773097Y-161758385D01*
X148717767Y-161801051D01*
X148672779Y-161809500D01*
X144879751Y-161809500D01*
X144812712Y-161789815D01*
X144780485Y-161759812D01*
X144737548Y-161702457D01*
X144737546Y-161702454D01*
X144737542Y-161702451D01*
X144622335Y-161616206D01*
X144622328Y-161616202D01*
X144487482Y-161565908D01*
X144487483Y-161565908D01*
X144427883Y-161559501D01*
X144427881Y-161559500D01*
X144427873Y-161559500D01*
X144427864Y-161559500D01*
X141822129Y-161559500D01*
X141822123Y-161559501D01*
X141762516Y-161565908D01*
X141627671Y-161616202D01*
X141627664Y-161616206D01*
X141512455Y-161702452D01*
X141512452Y-161702455D01*
X141426206Y-161817664D01*
X141426202Y-161817671D01*
X141375908Y-161952517D01*
X141369501Y-162012116D01*
X141369501Y-162012123D01*
X141369500Y-162012135D01*
X141369500Y-163107870D01*
X141369501Y-163107876D01*
X141375908Y-163167483D01*
X141426202Y-163302328D01*
X141426206Y-163302335D01*
X141512452Y-163417544D01*
X141512455Y-163417547D01*
X141627664Y-163503793D01*
X141627671Y-163503797D01*
X141762517Y-163554091D01*
X141762516Y-163554091D01*
X141769444Y-163554835D01*
X141822127Y-163560500D01*
X144427872Y-163560499D01*
X144487483Y-163554091D01*
X144622331Y-163503796D01*
X144737546Y-163417546D01*
X144764227Y-163381903D01*
X144780485Y-163360188D01*
X144836419Y-163318318D01*
X144879751Y-163310500D01*
X148672779Y-163310500D01*
X148739818Y-163330185D01*
X148773097Y-163361615D01*
X148829892Y-163439788D01*
X148980213Y-163590109D01*
X149152179Y-163715048D01*
X149152181Y-163715049D01*
X149152184Y-163715051D01*
X149341588Y-163811557D01*
X149543757Y-163877246D01*
X149753713Y-163910500D01*
X149753714Y-163910500D01*
X149966286Y-163910500D01*
X149966287Y-163910500D01*
X150176243Y-163877246D01*
X150378412Y-163811557D01*
X150449205Y-163775485D01*
X150517874Y-163762590D01*
X150582614Y-163788866D01*
X150622872Y-163845972D01*
X150629500Y-163885971D01*
X150629500Y-165745500D01*
X150609815Y-165812539D01*
X150557011Y-165858294D01*
X150505500Y-165869500D01*
X126354500Y-165869500D01*
X126287461Y-165849815D01*
X126241706Y-165797011D01*
X126230500Y-165745500D01*
X126230500Y-163885971D01*
X126250185Y-163818932D01*
X126302989Y-163773177D01*
X126372147Y-163763233D01*
X126410793Y-163775485D01*
X126481588Y-163811557D01*
X126683757Y-163877246D01*
X126893713Y-163910500D01*
X126893714Y-163910500D01*
X127106286Y-163910500D01*
X127106287Y-163910500D01*
X127316243Y-163877246D01*
X127518412Y-163811557D01*
X127707816Y-163715051D01*
X127729789Y-163699086D01*
X127879786Y-163590109D01*
X127879788Y-163590106D01*
X127879792Y-163590104D01*
X128030104Y-163439792D01*
X128046266Y-163417547D01*
X128086903Y-163361615D01*
X128142233Y-163318949D01*
X128187221Y-163310500D01*
X131980249Y-163310500D01*
X132047288Y-163330185D01*
X132079515Y-163360188D01*
X132122451Y-163417542D01*
X132122454Y-163417546D01*
X132122457Y-163417548D01*
X132237664Y-163503793D01*
X132237671Y-163503797D01*
X132372517Y-163554091D01*
X132372516Y-163554091D01*
X132379444Y-163554835D01*
X132432127Y-163560500D01*
X135037872Y-163560499D01*
X135097483Y-163554091D01*
X135232331Y-163503796D01*
X135347546Y-163417546D01*
X135433796Y-163302331D01*
X135484091Y-163167483D01*
X135490500Y-163107873D01*
X135490499Y-162012128D01*
X135484091Y-161952517D01*
X135433796Y-161817669D01*
X135433795Y-161817668D01*
X135433793Y-161817664D01*
X135347547Y-161702455D01*
X135347544Y-161702452D01*
X135232335Y-161616206D01*
X135232328Y-161616202D01*
X135097482Y-161565908D01*
X135097483Y-161565908D01*
X135037883Y-161559501D01*
X135037881Y-161559500D01*
X135037873Y-161559500D01*
X135037864Y-161559500D01*
X132432129Y-161559500D01*
X132432123Y-161559501D01*
X132372516Y-161565908D01*
X132237671Y-161616202D01*
X132237664Y-161616206D01*
X132122457Y-161702451D01*
X132122451Y-161702457D01*
X132079515Y-161759812D01*
X132023581Y-161801682D01*
X131980249Y-161809500D01*
X128187221Y-161809500D01*
X128120182Y-161789815D01*
X128086903Y-161758385D01*
X128030107Y-161680211D01*
X127879786Y-161529890D01*
X127707820Y-161404951D01*
X127707115Y-161404591D01*
X127699054Y-161400485D01*
X127648259Y-161352512D01*
X127631463Y-161284692D01*
X127653999Y-161218556D01*
X127699054Y-161179515D01*
X127707816Y-161175051D01*
X127729789Y-161159086D01*
X127879786Y-161050109D01*
X127879788Y-161050106D01*
X127879792Y-161050104D01*
X128030104Y-160899792D01*
X128046266Y-160877547D01*
X128086903Y-160821615D01*
X128142233Y-160778949D01*
X128187221Y-160770500D01*
X128670249Y-160770500D01*
X128737288Y-160790185D01*
X128769515Y-160820188D01*
X128812451Y-160877542D01*
X128812454Y-160877546D01*
X128812457Y-160877548D01*
X128927664Y-160963793D01*
X128927671Y-160963797D01*
X129062517Y-161014091D01*
X129062516Y-161014091D01*
X129069444Y-161014835D01*
X129122127Y-161020500D01*
X131727872Y-161020499D01*
X131787483Y-161014091D01*
X131922331Y-160963796D01*
X132037546Y-160877546D01*
X132123796Y-160762331D01*
X132174091Y-160627483D01*
X132180500Y-160567873D01*
X132180499Y-159472128D01*
X132174091Y-159412517D01*
X132123796Y-159277669D01*
X132123795Y-159277668D01*
X132123793Y-159277664D01*
X132037547Y-159162455D01*
X132037544Y-159162452D01*
X131922335Y-159076206D01*
X131922328Y-159076202D01*
X131787482Y-159025908D01*
X131787483Y-159025908D01*
X131727883Y-159019501D01*
X131727881Y-159019500D01*
X131727873Y-159019500D01*
X131727864Y-159019500D01*
X129122129Y-159019500D01*
X129122123Y-159019501D01*
X129062516Y-159025908D01*
X128927671Y-159076202D01*
X128927664Y-159076206D01*
X128812457Y-159162451D01*
X128812451Y-159162457D01*
X128769515Y-159219812D01*
X128713581Y-159261682D01*
X128670249Y-159269500D01*
X128187221Y-159269500D01*
X128120182Y-159249815D01*
X128086903Y-159218385D01*
X128030107Y-159140211D01*
X127879786Y-158989890D01*
X127707820Y-158864951D01*
X127707115Y-158864591D01*
X127699054Y-158860485D01*
X127648259Y-158812512D01*
X127631463Y-158744692D01*
X127653999Y-158678556D01*
X127699054Y-158639515D01*
X127707816Y-158635051D01*
X127729789Y-158619086D01*
X127879786Y-158510109D01*
X127879788Y-158510106D01*
X127879792Y-158510104D01*
X128030104Y-158359792D01*
X128046266Y-158337547D01*
X128086903Y-158281615D01*
X128142233Y-158238949D01*
X128187221Y-158230500D01*
X131980249Y-158230500D01*
X132047288Y-158250185D01*
X132079515Y-158280188D01*
X132122451Y-158337542D01*
X132122454Y-158337546D01*
X132122457Y-158337548D01*
X132237664Y-158423793D01*
X132237671Y-158423797D01*
X132372517Y-158474091D01*
X132372516Y-158474091D01*
X132379444Y-158474835D01*
X132432127Y-158480500D01*
X135037872Y-158480499D01*
X135097483Y-158474091D01*
X135232331Y-158423796D01*
X135347546Y-158337546D01*
X135433796Y-158222331D01*
X135484091Y-158087483D01*
X135490500Y-158027873D01*
X135490499Y-156932128D01*
X135484091Y-156872517D01*
X135433796Y-156737669D01*
X135433795Y-156737668D01*
X135433793Y-156737664D01*
X135347547Y-156622455D01*
X135347544Y-156622452D01*
X135232335Y-156536206D01*
X135232328Y-156536202D01*
X135097482Y-156485908D01*
X135097483Y-156485908D01*
X135037883Y-156479501D01*
X135037881Y-156479500D01*
X135037873Y-156479500D01*
X135037864Y-156479500D01*
X132432129Y-156479500D01*
X132432123Y-156479501D01*
X132372516Y-156485908D01*
X132237671Y-156536202D01*
X132237664Y-156536206D01*
X132122457Y-156622451D01*
X132122451Y-156622457D01*
X132079515Y-156679812D01*
X132023581Y-156721682D01*
X131980249Y-156729500D01*
X128187221Y-156729500D01*
X128120182Y-156709815D01*
X128086903Y-156678385D01*
X128030107Y-156600211D01*
X127879786Y-156449890D01*
X127707820Y-156324951D01*
X127707115Y-156324591D01*
X127699054Y-156320485D01*
X127648259Y-156272512D01*
X127631463Y-156204692D01*
X127653999Y-156138556D01*
X127699054Y-156099515D01*
X127707816Y-156095051D01*
X127729789Y-156079086D01*
X127879786Y-155970109D01*
X127879788Y-155970106D01*
X127879792Y-155970104D01*
X128030104Y-155819792D01*
X128046266Y-155797547D01*
X128086903Y-155741615D01*
X128142233Y-155698949D01*
X128187221Y-155690500D01*
X128670249Y-155690500D01*
X128737288Y-155710185D01*
X128769515Y-155740188D01*
X128812451Y-155797542D01*
X128812454Y-155797546D01*
X128812457Y-155797548D01*
X128927664Y-155883793D01*
X128927671Y-155883797D01*
X129062517Y-155934091D01*
X129062516Y-155934091D01*
X129069444Y-155934835D01*
X129122127Y-155940500D01*
X131727872Y-155940499D01*
X131787483Y-155934091D01*
X131922331Y-155883796D01*
X132037546Y-155797546D01*
X132123796Y-155682331D01*
X132174091Y-155547483D01*
X132180500Y-155487873D01*
X132180499Y-154392128D01*
X132174091Y-154332517D01*
X132123796Y-154197669D01*
X132123795Y-154197668D01*
X132123793Y-154197664D01*
X132037547Y-154082455D01*
X132037544Y-154082452D01*
X131922335Y-153996206D01*
X131922328Y-153996202D01*
X131787482Y-153945908D01*
X131787483Y-153945908D01*
X131727883Y-153939501D01*
X131727881Y-153939500D01*
X131727873Y-153939500D01*
X131727864Y-153939500D01*
X129122129Y-153939500D01*
X129122123Y-153939501D01*
X129062516Y-153945908D01*
X128927671Y-153996202D01*
X128927664Y-153996206D01*
X128812457Y-154082451D01*
X128812451Y-154082457D01*
X128769515Y-154139812D01*
X128713581Y-154181682D01*
X128670249Y-154189500D01*
X128187221Y-154189500D01*
X128120182Y-154169815D01*
X128086903Y-154138385D01*
X128030107Y-154060211D01*
X127879786Y-153909890D01*
X127707820Y-153784951D01*
X127707115Y-153784591D01*
X127699054Y-153780485D01*
X127648259Y-153732512D01*
X127631463Y-153664692D01*
X127653999Y-153598556D01*
X127699054Y-153559515D01*
X127707816Y-153555051D01*
X127729789Y-153539086D01*
X127879786Y-153430109D01*
X127879788Y-153430106D01*
X127879792Y-153430104D01*
X128030104Y-153279792D01*
X128046266Y-153257547D01*
X128086903Y-153201615D01*
X128142233Y-153158949D01*
X128187221Y-153150500D01*
X131980249Y-153150500D01*
X132047288Y-153170185D01*
X132079515Y-153200188D01*
X132122451Y-153257542D01*
X132122454Y-153257546D01*
X132122457Y-153257548D01*
X132237664Y-153343793D01*
X132237671Y-153343797D01*
X132372517Y-153394091D01*
X132372516Y-153394091D01*
X132379444Y-153394835D01*
X132432127Y-153400500D01*
X135037872Y-153400499D01*
X135097483Y-153394091D01*
X135232331Y-153343796D01*
X135347546Y-153257546D01*
X135433796Y-153142331D01*
X135484091Y-153007483D01*
X135490500Y-152947873D01*
X135490499Y-151852128D01*
X135484091Y-151792517D01*
X135433796Y-151657669D01*
X135433795Y-151657668D01*
X135433793Y-151657664D01*
X135347547Y-151542455D01*
X135347544Y-151542452D01*
X135232335Y-151456206D01*
X135232328Y-151456202D01*
X135097482Y-151405908D01*
X135097483Y-151405908D01*
X135037883Y-151399501D01*
X135037881Y-151399500D01*
X135037873Y-151399500D01*
X135037864Y-151399500D01*
X132432129Y-151399500D01*
X132432123Y-151399501D01*
X132372516Y-151405908D01*
X132237671Y-151456202D01*
X132237664Y-151456206D01*
X132122457Y-151542451D01*
X132122451Y-151542457D01*
X132079515Y-151599812D01*
X132023581Y-151641682D01*
X131980249Y-151649500D01*
X128187221Y-151649500D01*
X128120182Y-151629815D01*
X128086903Y-151598385D01*
X128030107Y-151520211D01*
X127879786Y-151369890D01*
X127707820Y-151244951D01*
X127707115Y-151244591D01*
X127699054Y-151240485D01*
X127648259Y-151192512D01*
X127631463Y-151124692D01*
X127653999Y-151058556D01*
X127699054Y-151019515D01*
X127707816Y-151015051D01*
X127729789Y-150999086D01*
X127879786Y-150890109D01*
X127879788Y-150890106D01*
X127879792Y-150890104D01*
X128030104Y-150739792D01*
X128046266Y-150717547D01*
X128086903Y-150661615D01*
X128142233Y-150618949D01*
X128187221Y-150610500D01*
X128670249Y-150610500D01*
X128737288Y-150630185D01*
X128769515Y-150660188D01*
X128812451Y-150717542D01*
X128812454Y-150717546D01*
X128812457Y-150717548D01*
X128927664Y-150803793D01*
X128927671Y-150803797D01*
X129062517Y-150854091D01*
X129062516Y-150854091D01*
X129069444Y-150854835D01*
X129122127Y-150860500D01*
X131727872Y-150860499D01*
X131787483Y-150854091D01*
X131922331Y-150803796D01*
X132037546Y-150717546D01*
X132123796Y-150602331D01*
X132174091Y-150467483D01*
X132180500Y-150407873D01*
X132180499Y-149312128D01*
X132174091Y-149252517D01*
X132123796Y-149117669D01*
X132123795Y-149117668D01*
X132123793Y-149117664D01*
X132037547Y-149002455D01*
X132037544Y-149002452D01*
X131922335Y-148916206D01*
X131922328Y-148916202D01*
X131787482Y-148865908D01*
X131787483Y-148865908D01*
X131727883Y-148859501D01*
X131727881Y-148859500D01*
X131727873Y-148859500D01*
X131727864Y-148859500D01*
X129122129Y-148859500D01*
X129122123Y-148859501D01*
X129062516Y-148865908D01*
X128927671Y-148916202D01*
X128927664Y-148916206D01*
X128812457Y-149002451D01*
X128812451Y-149002457D01*
X128769515Y-149059812D01*
X128713581Y-149101682D01*
X128670249Y-149109500D01*
X128187221Y-149109500D01*
X128120182Y-149089815D01*
X128086903Y-149058385D01*
X128030107Y-148980211D01*
X127879786Y-148829890D01*
X127707820Y-148704951D01*
X127707115Y-148704591D01*
X127699054Y-148700485D01*
X127648259Y-148652512D01*
X127631463Y-148584692D01*
X127653999Y-148518556D01*
X127699054Y-148479515D01*
X127707816Y-148475051D01*
X127729789Y-148459086D01*
X127879786Y-148350109D01*
X127879788Y-148350106D01*
X127879792Y-148350104D01*
X128030104Y-148199792D01*
X128046266Y-148177547D01*
X128086903Y-148121615D01*
X128142233Y-148078949D01*
X128187221Y-148070500D01*
X131980249Y-148070500D01*
X132047288Y-148090185D01*
X132079515Y-148120188D01*
X132122451Y-148177542D01*
X132122454Y-148177546D01*
X132122457Y-148177548D01*
X132237664Y-148263793D01*
X132237671Y-148263797D01*
X132372517Y-148314091D01*
X132372516Y-148314091D01*
X132379444Y-148314835D01*
X132432127Y-148320500D01*
X135037872Y-148320499D01*
X135097483Y-148314091D01*
X135232331Y-148263796D01*
X135347546Y-148177546D01*
X135433796Y-148062331D01*
X135484091Y-147927483D01*
X135490500Y-147867873D01*
X135490499Y-146772128D01*
X135484091Y-146712517D01*
X135433796Y-146577669D01*
X135433795Y-146577668D01*
X135433793Y-146577664D01*
X135347547Y-146462455D01*
X135347544Y-146462452D01*
X135232335Y-146376206D01*
X135232328Y-146376202D01*
X135097482Y-146325908D01*
X135097483Y-146325908D01*
X135037883Y-146319501D01*
X135037881Y-146319500D01*
X135037873Y-146319500D01*
X135037864Y-146319500D01*
X132432129Y-146319500D01*
X132432123Y-146319501D01*
X132372516Y-146325908D01*
X132237671Y-146376202D01*
X132237664Y-146376206D01*
X132122457Y-146462451D01*
X132122451Y-146462457D01*
X132079515Y-146519812D01*
X132023581Y-146561682D01*
X131980249Y-146569500D01*
X128187221Y-146569500D01*
X128120182Y-146549815D01*
X128086903Y-146518385D01*
X128030107Y-146440211D01*
X127879786Y-146289890D01*
X127707820Y-146164951D01*
X127707115Y-146164591D01*
X127699054Y-146160485D01*
X127648259Y-146112512D01*
X127631463Y-146044692D01*
X127653999Y-145978556D01*
X127699054Y-145939515D01*
X127707816Y-145935051D01*
X127729789Y-145919086D01*
X127879786Y-145810109D01*
X127879788Y-145810106D01*
X127879792Y-145810104D01*
X128030104Y-145659792D01*
X128046266Y-145637547D01*
X128086903Y-145581615D01*
X128142233Y-145538949D01*
X128187221Y-145530500D01*
X128670249Y-145530500D01*
X128737288Y-145550185D01*
X128769515Y-145580188D01*
X128812451Y-145637542D01*
X128812454Y-145637546D01*
X128812457Y-145637548D01*
X128927664Y-145723793D01*
X128927671Y-145723797D01*
X129062517Y-145774091D01*
X129062516Y-145774091D01*
X129069444Y-145774835D01*
X129122127Y-145780500D01*
X131727872Y-145780499D01*
X131787483Y-145774091D01*
X131922331Y-145723796D01*
X132037546Y-145637546D01*
X132123796Y-145522331D01*
X132174091Y-145387483D01*
X132180500Y-145327873D01*
X132180499Y-144232128D01*
X132174091Y-144172517D01*
X132123796Y-144037669D01*
X132123795Y-144037668D01*
X132123793Y-144037664D01*
X132037547Y-143922455D01*
X132037544Y-143922452D01*
X131922335Y-143836206D01*
X131922328Y-143836202D01*
X131787482Y-143785908D01*
X131787483Y-143785908D01*
X131727883Y-143779501D01*
X131727881Y-143779500D01*
X131727873Y-143779500D01*
X131727864Y-143779500D01*
X129122129Y-143779500D01*
X129122123Y-143779501D01*
X129062516Y-143785908D01*
X128927671Y-143836202D01*
X128927664Y-143836206D01*
X128812457Y-143922451D01*
X128812451Y-143922457D01*
X128769515Y-143979812D01*
X128713581Y-144021682D01*
X128670249Y-144029500D01*
X128187221Y-144029500D01*
X128120182Y-144009815D01*
X128086903Y-143978385D01*
X128030107Y-143900211D01*
X127879786Y-143749890D01*
X127707820Y-143624951D01*
X127707115Y-143624591D01*
X127699054Y-143620485D01*
X127648259Y-143572512D01*
X127631463Y-143504692D01*
X127653999Y-143438556D01*
X127699054Y-143399515D01*
X127707816Y-143395051D01*
X127729789Y-143379086D01*
X127879786Y-143270109D01*
X127879788Y-143270106D01*
X127879792Y-143270104D01*
X128030104Y-143119792D01*
X128046266Y-143097547D01*
X128086903Y-143041615D01*
X128142233Y-142998949D01*
X128187221Y-142990500D01*
X131980249Y-142990500D01*
X132047288Y-143010185D01*
X132079515Y-143040188D01*
X132122451Y-143097542D01*
X132122454Y-143097546D01*
X132122457Y-143097548D01*
X132237664Y-143183793D01*
X132237671Y-143183797D01*
X132372517Y-143234091D01*
X132372516Y-143234091D01*
X132379444Y-143234835D01*
X132432127Y-143240500D01*
X135037872Y-143240499D01*
X135097483Y-143234091D01*
X135232331Y-143183796D01*
X135347546Y-143097546D01*
X135433796Y-142982331D01*
X135484091Y-142847483D01*
X135490500Y-142787873D01*
X135490499Y-141692128D01*
X135484091Y-141632517D01*
X135433796Y-141497669D01*
X135433795Y-141497668D01*
X135433793Y-141497664D01*
X135347547Y-141382455D01*
X135347544Y-141382452D01*
X135232335Y-141296206D01*
X135232328Y-141296202D01*
X135097482Y-141245908D01*
X135097483Y-141245908D01*
X135037883Y-141239501D01*
X135037881Y-141239500D01*
X135037873Y-141239500D01*
X135037864Y-141239500D01*
X132432129Y-141239500D01*
X132432123Y-141239501D01*
X132372516Y-141245908D01*
X132237671Y-141296202D01*
X132237664Y-141296206D01*
X132122457Y-141382451D01*
X132122451Y-141382457D01*
X132079515Y-141439812D01*
X132023581Y-141481682D01*
X131980249Y-141489500D01*
X128187221Y-141489500D01*
X128120182Y-141469815D01*
X128086903Y-141438385D01*
X128030107Y-141360211D01*
X127879786Y-141209890D01*
X127707820Y-141084951D01*
X127707115Y-141084591D01*
X127699054Y-141080485D01*
X127648259Y-141032512D01*
X127631463Y-140964692D01*
X127653999Y-140898556D01*
X127699054Y-140859515D01*
X127707816Y-140855051D01*
X127729789Y-140839086D01*
X127879786Y-140730109D01*
X127879788Y-140730106D01*
X127879792Y-140730104D01*
X128030104Y-140579792D01*
X128046266Y-140557547D01*
X128086903Y-140501615D01*
X128142233Y-140458949D01*
X128187221Y-140450500D01*
X128670249Y-140450500D01*
X128737288Y-140470185D01*
X128769515Y-140500188D01*
X128812451Y-140557542D01*
X128812454Y-140557546D01*
X128812457Y-140557548D01*
X128927664Y-140643793D01*
X128927671Y-140643797D01*
X129062517Y-140694091D01*
X129062516Y-140694091D01*
X129069444Y-140694835D01*
X129122127Y-140700500D01*
X131727872Y-140700499D01*
X131787483Y-140694091D01*
X131922331Y-140643796D01*
X132037546Y-140557546D01*
X132123796Y-140442331D01*
X132174091Y-140307483D01*
X132180500Y-140247873D01*
X132180499Y-139152128D01*
X132174091Y-139092517D01*
X132123796Y-138957669D01*
X132123795Y-138957668D01*
X132123793Y-138957664D01*
X132037547Y-138842455D01*
X132037544Y-138842452D01*
X131922335Y-138756206D01*
X131922328Y-138756202D01*
X131787482Y-138705908D01*
X131787483Y-138705908D01*
X131727883Y-138699501D01*
X131727881Y-138699500D01*
X131727873Y-138699500D01*
X131727864Y-138699500D01*
X129122129Y-138699500D01*
X129122123Y-138699501D01*
X129062516Y-138705908D01*
X128927671Y-138756202D01*
X128927664Y-138756206D01*
X128812457Y-138842451D01*
X128812451Y-138842457D01*
X128769515Y-138899812D01*
X128713581Y-138941682D01*
X128670249Y-138949500D01*
X128187221Y-138949500D01*
X128120182Y-138929815D01*
X128086903Y-138898385D01*
X128030107Y-138820211D01*
X127879786Y-138669890D01*
X127707820Y-138544951D01*
X127707115Y-138544591D01*
X127699054Y-138540485D01*
X127648259Y-138492512D01*
X127631463Y-138424692D01*
X127653999Y-138358556D01*
X127699054Y-138319515D01*
X127707816Y-138315051D01*
X127729789Y-138299086D01*
X127879786Y-138190109D01*
X127879788Y-138190106D01*
X127879792Y-138190104D01*
X128030104Y-138039792D01*
X128046266Y-138017547D01*
X128086903Y-137961615D01*
X128142233Y-137918949D01*
X128187221Y-137910500D01*
X131980249Y-137910500D01*
X132047288Y-137930185D01*
X132079515Y-137960188D01*
X132122451Y-138017542D01*
X132122454Y-138017546D01*
X132122457Y-138017548D01*
X132237664Y-138103793D01*
X132237671Y-138103797D01*
X132372517Y-138154091D01*
X132372516Y-138154091D01*
X132379444Y-138154835D01*
X132432127Y-138160500D01*
X135037872Y-138160499D01*
X135097483Y-138154091D01*
X135232331Y-138103796D01*
X135347546Y-138017546D01*
X135433796Y-137902331D01*
X135484091Y-137767483D01*
X135490500Y-137707873D01*
X135490499Y-136612128D01*
X135484091Y-136552517D01*
X135433796Y-136417669D01*
X135433795Y-136417668D01*
X135433793Y-136417664D01*
X135347547Y-136302455D01*
X135347544Y-136302452D01*
X135232335Y-136216206D01*
X135232328Y-136216202D01*
X135097482Y-136165908D01*
X135097483Y-136165908D01*
X135037883Y-136159501D01*
X135037881Y-136159500D01*
X135037873Y-136159500D01*
X135037864Y-136159500D01*
X132432129Y-136159500D01*
X132432123Y-136159501D01*
X132372516Y-136165908D01*
X132237671Y-136216202D01*
X132237664Y-136216206D01*
X132122457Y-136302451D01*
X132122451Y-136302457D01*
X132079515Y-136359812D01*
X132023581Y-136401682D01*
X131980249Y-136409500D01*
X128187221Y-136409500D01*
X128120182Y-136389815D01*
X128086903Y-136358385D01*
X128030107Y-136280211D01*
X127879786Y-136129890D01*
X127707820Y-136004951D01*
X127707115Y-136004591D01*
X127699054Y-136000485D01*
X127648259Y-135952512D01*
X127631463Y-135884692D01*
X127653999Y-135818556D01*
X127699054Y-135779515D01*
X127707816Y-135775051D01*
X127729789Y-135759086D01*
X127879786Y-135650109D01*
X127879788Y-135650106D01*
X127879792Y-135650104D01*
X128030104Y-135499792D01*
X128046266Y-135477547D01*
X128086903Y-135421615D01*
X128142233Y-135378949D01*
X128187221Y-135370500D01*
X128670249Y-135370500D01*
X128737288Y-135390185D01*
X128769515Y-135420188D01*
X128812451Y-135477542D01*
X128812454Y-135477546D01*
X128812457Y-135477548D01*
X128927664Y-135563793D01*
X128927671Y-135563797D01*
X129062517Y-135614091D01*
X129062516Y-135614091D01*
X129069444Y-135614835D01*
X129122127Y-135620500D01*
X131727872Y-135620499D01*
X131787483Y-135614091D01*
X131922331Y-135563796D01*
X132037546Y-135477546D01*
X132123796Y-135362331D01*
X132174091Y-135227483D01*
X132180500Y-135167873D01*
X132180499Y-134072128D01*
X132174091Y-134012517D01*
X132123796Y-133877669D01*
X132123795Y-133877668D01*
X132123793Y-133877664D01*
X132037547Y-133762455D01*
X132037544Y-133762452D01*
X131922335Y-133676206D01*
X131922328Y-133676202D01*
X131787482Y-133625908D01*
X131787483Y-133625908D01*
X131727883Y-133619501D01*
X131727881Y-133619500D01*
X131727873Y-133619500D01*
X131727864Y-133619500D01*
X129122129Y-133619500D01*
X129122123Y-133619501D01*
X129062516Y-133625908D01*
X128927671Y-133676202D01*
X128927664Y-133676206D01*
X128812457Y-133762451D01*
X128812451Y-133762457D01*
X128769515Y-133819812D01*
X128713581Y-133861682D01*
X128670249Y-133869500D01*
X128187221Y-133869500D01*
X128120182Y-133849815D01*
X128086903Y-133818385D01*
X128030107Y-133740211D01*
X127879786Y-133589890D01*
X127707820Y-133464951D01*
X127707115Y-133464591D01*
X127699054Y-133460485D01*
X127648259Y-133412512D01*
X127631463Y-133344692D01*
X127653999Y-133278556D01*
X127699054Y-133239515D01*
X127707816Y-133235051D01*
X127729789Y-133219086D01*
X127879786Y-133110109D01*
X127879788Y-133110106D01*
X127879792Y-133110104D01*
X128030104Y-132959792D01*
X128046266Y-132937547D01*
X128086903Y-132881615D01*
X128142233Y-132838949D01*
X128187221Y-132830500D01*
X131980249Y-132830500D01*
X132047288Y-132850185D01*
X132079515Y-132880188D01*
X132122451Y-132937542D01*
X132122454Y-132937546D01*
X132122457Y-132937548D01*
X132237664Y-133023793D01*
X132237671Y-133023797D01*
X132372517Y-133074091D01*
X132372516Y-133074091D01*
X132379444Y-133074835D01*
X132432127Y-133080500D01*
X135037872Y-133080499D01*
X135097483Y-133074091D01*
X135232331Y-133023796D01*
X135347546Y-132937546D01*
X135433796Y-132822331D01*
X135484091Y-132687483D01*
X135490500Y-132627873D01*
X135490499Y-131532128D01*
X135484091Y-131472517D01*
X135433796Y-131337669D01*
X135433795Y-131337668D01*
X135433793Y-131337664D01*
X135347547Y-131222455D01*
X135347544Y-131222452D01*
X135232335Y-131136206D01*
X135232328Y-131136202D01*
X135097482Y-131085908D01*
X135097483Y-131085908D01*
X135037883Y-131079501D01*
X135037881Y-131079500D01*
X135037873Y-131079500D01*
X135037864Y-131079500D01*
X132432129Y-131079500D01*
X132432123Y-131079501D01*
X132372516Y-131085908D01*
X132237671Y-131136202D01*
X132237664Y-131136206D01*
X132122457Y-131222451D01*
X132122451Y-131222457D01*
X132079515Y-131279812D01*
X132023581Y-131321682D01*
X131980249Y-131329500D01*
X128187221Y-131329500D01*
X128120182Y-131309815D01*
X128086903Y-131278385D01*
X128030107Y-131200211D01*
X127879786Y-131049890D01*
X127707820Y-130924951D01*
X127707115Y-130924591D01*
X127699054Y-130920485D01*
X127648259Y-130872512D01*
X127631463Y-130804692D01*
X127653999Y-130738556D01*
X127699054Y-130699515D01*
X127707816Y-130695051D01*
X127729789Y-130679086D01*
X127879786Y-130570109D01*
X127879788Y-130570106D01*
X127879792Y-130570104D01*
X128030104Y-130419792D01*
X128046266Y-130397547D01*
X128086903Y-130341615D01*
X128142233Y-130298949D01*
X128187221Y-130290500D01*
X128670249Y-130290500D01*
X128737288Y-130310185D01*
X128769515Y-130340188D01*
X128812451Y-130397542D01*
X128812454Y-130397546D01*
X128812457Y-130397548D01*
X128927664Y-130483793D01*
X128927671Y-130483797D01*
X129062517Y-130534091D01*
X129062516Y-130534091D01*
X129069444Y-130534835D01*
X129122127Y-130540500D01*
X131727872Y-130540499D01*
X131787483Y-130534091D01*
X131922331Y-130483796D01*
X132037546Y-130397546D01*
X132123796Y-130282331D01*
X132174091Y-130147483D01*
X132180500Y-130087873D01*
X132180499Y-128992128D01*
X132174091Y-128932517D01*
X132123796Y-128797669D01*
X132123795Y-128797668D01*
X132123793Y-128797664D01*
X132037547Y-128682455D01*
X132037544Y-128682452D01*
X131922335Y-128596206D01*
X131922328Y-128596202D01*
X131787482Y-128545908D01*
X131787483Y-128545908D01*
X131727883Y-128539501D01*
X131727881Y-128539500D01*
X131727873Y-128539500D01*
X131727864Y-128539500D01*
X129122129Y-128539500D01*
X129122123Y-128539501D01*
X129062516Y-128545908D01*
X128927671Y-128596202D01*
X128927664Y-128596206D01*
X128812457Y-128682451D01*
X128812451Y-128682457D01*
X128769515Y-128739812D01*
X128713581Y-128781682D01*
X128670249Y-128789500D01*
X128187221Y-128789500D01*
X128120182Y-128769815D01*
X128086903Y-128738385D01*
X128030107Y-128660211D01*
X127879786Y-128509890D01*
X127707820Y-128384951D01*
X127707115Y-128384591D01*
X127699054Y-128380485D01*
X127648259Y-128332512D01*
X127631463Y-128264692D01*
X127653999Y-128198556D01*
X127699054Y-128159515D01*
X127707816Y-128155051D01*
X127729789Y-128139086D01*
X127879786Y-128030109D01*
X127879788Y-128030106D01*
X127879792Y-128030104D01*
X128030104Y-127879792D01*
X128046266Y-127857547D01*
X128086903Y-127801615D01*
X128142233Y-127758949D01*
X128187221Y-127750500D01*
X131980249Y-127750500D01*
X132047288Y-127770185D01*
X132079515Y-127800188D01*
X132122451Y-127857542D01*
X132122454Y-127857546D01*
X132122457Y-127857548D01*
X132237664Y-127943793D01*
X132237671Y-127943797D01*
X132372517Y-127994091D01*
X132372516Y-127994091D01*
X132379444Y-127994835D01*
X132432127Y-128000500D01*
X135037872Y-128000499D01*
X135097483Y-127994091D01*
X135232331Y-127943796D01*
X135347546Y-127857546D01*
X135433796Y-127742331D01*
X135484091Y-127607483D01*
X135490500Y-127547873D01*
X135490499Y-126452128D01*
X135484091Y-126392517D01*
X135433796Y-126257669D01*
X135433795Y-126257668D01*
X135433793Y-126257664D01*
X135347547Y-126142455D01*
X135347544Y-126142452D01*
X135232335Y-126056206D01*
X135232328Y-126056202D01*
X135097482Y-126005908D01*
X135097483Y-126005908D01*
X135037883Y-125999501D01*
X135037881Y-125999500D01*
X135037873Y-125999500D01*
X135037864Y-125999500D01*
X132432129Y-125999500D01*
X132432123Y-125999501D01*
X132372516Y-126005908D01*
X132237671Y-126056202D01*
X132237664Y-126056206D01*
X132122457Y-126142451D01*
X132122451Y-126142457D01*
X132079515Y-126199812D01*
X132023581Y-126241682D01*
X131980249Y-126249500D01*
X128187221Y-126249500D01*
X128120182Y-126229815D01*
X128086903Y-126198385D01*
X128030107Y-126120211D01*
X127879786Y-125969890D01*
X127707820Y-125844951D01*
X127707115Y-125844591D01*
X127699054Y-125840485D01*
X127648259Y-125792512D01*
X127631463Y-125724692D01*
X127653999Y-125658556D01*
X127699054Y-125619515D01*
X127707816Y-125615051D01*
X127729789Y-125599086D01*
X127879786Y-125490109D01*
X127879788Y-125490106D01*
X127879792Y-125490104D01*
X128030104Y-125339792D01*
X128046266Y-125317547D01*
X128086903Y-125261615D01*
X128142233Y-125218949D01*
X128187221Y-125210500D01*
X128670249Y-125210500D01*
X128737288Y-125230185D01*
X128769515Y-125260188D01*
X128812451Y-125317542D01*
X128812454Y-125317546D01*
X128812457Y-125317548D01*
X128927664Y-125403793D01*
X128927671Y-125403797D01*
X129062517Y-125454091D01*
X129062516Y-125454091D01*
X129069444Y-125454835D01*
X129122127Y-125460500D01*
X131727872Y-125460499D01*
X131787483Y-125454091D01*
X131922331Y-125403796D01*
X132037546Y-125317546D01*
X132123796Y-125202331D01*
X132174091Y-125067483D01*
X132180500Y-125007873D01*
X132180499Y-123912128D01*
X132174091Y-123852517D01*
X132123796Y-123717669D01*
X132123795Y-123717668D01*
X132123793Y-123717664D01*
X132037547Y-123602455D01*
X132037544Y-123602452D01*
X131922335Y-123516206D01*
X131922328Y-123516202D01*
X131787482Y-123465908D01*
X131787483Y-123465908D01*
X131727883Y-123459501D01*
X131727881Y-123459500D01*
X131727873Y-123459500D01*
X131727864Y-123459500D01*
X129122129Y-123459500D01*
X129122123Y-123459501D01*
X129062516Y-123465908D01*
X128927671Y-123516202D01*
X128927664Y-123516206D01*
X128812457Y-123602451D01*
X128812451Y-123602457D01*
X128769515Y-123659812D01*
X128713581Y-123701682D01*
X128670249Y-123709500D01*
X128187221Y-123709500D01*
X128120182Y-123689815D01*
X128086903Y-123658385D01*
X128030107Y-123580211D01*
X127879786Y-123429890D01*
X127707820Y-123304951D01*
X127707115Y-123304591D01*
X127699054Y-123300485D01*
X127648259Y-123252512D01*
X127631463Y-123184692D01*
X127653999Y-123118556D01*
X127699054Y-123079515D01*
X127707816Y-123075051D01*
X127729789Y-123059086D01*
X127879786Y-122950109D01*
X127879788Y-122950106D01*
X127879792Y-122950104D01*
X128030104Y-122799792D01*
X128046266Y-122777547D01*
X128086903Y-122721615D01*
X128142233Y-122678949D01*
X128187221Y-122670500D01*
X131980249Y-122670500D01*
X132047288Y-122690185D01*
X132079515Y-122720188D01*
X132122451Y-122777542D01*
X132122454Y-122777546D01*
X132122457Y-122777548D01*
X132237664Y-122863793D01*
X132237671Y-122863797D01*
X132372517Y-122914091D01*
X132372516Y-122914091D01*
X132379444Y-122914835D01*
X132432127Y-122920500D01*
X135037872Y-122920499D01*
X135097483Y-122914091D01*
X135232331Y-122863796D01*
X135347546Y-122777546D01*
X135433796Y-122662331D01*
X135484091Y-122527483D01*
X135490500Y-122467873D01*
X135490499Y-121372128D01*
X135484091Y-121312517D01*
X135433796Y-121177669D01*
X135433795Y-121177668D01*
X135433793Y-121177664D01*
X135347547Y-121062455D01*
X135347544Y-121062452D01*
X135232335Y-120976206D01*
X135232328Y-120976202D01*
X135097482Y-120925908D01*
X135097483Y-120925908D01*
X135037883Y-120919501D01*
X135037881Y-120919500D01*
X135037873Y-120919500D01*
X135037864Y-120919500D01*
X132432129Y-120919500D01*
X132432123Y-120919501D01*
X132372516Y-120925908D01*
X132237671Y-120976202D01*
X132237664Y-120976206D01*
X132122457Y-121062451D01*
X132122451Y-121062457D01*
X132079515Y-121119812D01*
X132023581Y-121161682D01*
X131980249Y-121169500D01*
X128187221Y-121169500D01*
X128120182Y-121149815D01*
X128086903Y-121118385D01*
X128030107Y-121040211D01*
X127879786Y-120889890D01*
X127707820Y-120764951D01*
X127707115Y-120764591D01*
X127699054Y-120760485D01*
X127648259Y-120712512D01*
X127631463Y-120644692D01*
X127653999Y-120578556D01*
X127699054Y-120539515D01*
X127707816Y-120535051D01*
X127729789Y-120519086D01*
X127879786Y-120410109D01*
X127879788Y-120410106D01*
X127879792Y-120410104D01*
X128030104Y-120259792D01*
X128046266Y-120237547D01*
X128086903Y-120181615D01*
X128142233Y-120138949D01*
X128187221Y-120130500D01*
X128670249Y-120130500D01*
X128737288Y-120150185D01*
X128769515Y-120180188D01*
X128812451Y-120237542D01*
X128812454Y-120237546D01*
X128812457Y-120237548D01*
X128927664Y-120323793D01*
X128927671Y-120323797D01*
X129062517Y-120374091D01*
X129062516Y-120374091D01*
X129069444Y-120374835D01*
X129122127Y-120380500D01*
X131727872Y-120380499D01*
X131787483Y-120374091D01*
X131922331Y-120323796D01*
X132037546Y-120237546D01*
X132123796Y-120122331D01*
X132174091Y-119987483D01*
X132180500Y-119927873D01*
X132180499Y-118832128D01*
X132174091Y-118772517D01*
X132123796Y-118637669D01*
X132123795Y-118637668D01*
X132123793Y-118637664D01*
X132037547Y-118522455D01*
X132037544Y-118522452D01*
X131922335Y-118436206D01*
X131922328Y-118436202D01*
X131787482Y-118385908D01*
X131787483Y-118385908D01*
X131727883Y-118379501D01*
X131727881Y-118379500D01*
X131727873Y-118379500D01*
X131727864Y-118379500D01*
X129122129Y-118379500D01*
X129122123Y-118379501D01*
X129062516Y-118385908D01*
X128927671Y-118436202D01*
X128927664Y-118436206D01*
X128812457Y-118522451D01*
X128812451Y-118522457D01*
X128769515Y-118579812D01*
X128713581Y-118621682D01*
X128670249Y-118629500D01*
X128187221Y-118629500D01*
X128120182Y-118609815D01*
X128086903Y-118578385D01*
X128030107Y-118500211D01*
X127879786Y-118349890D01*
X127707820Y-118224951D01*
X127707115Y-118224591D01*
X127699054Y-118220485D01*
X127648259Y-118172512D01*
X127631463Y-118104692D01*
X127653999Y-118038556D01*
X127699054Y-117999515D01*
X127707816Y-117995051D01*
X127729789Y-117979086D01*
X127879786Y-117870109D01*
X127879788Y-117870106D01*
X127879792Y-117870104D01*
X128030104Y-117719792D01*
X128046266Y-117697547D01*
X128086903Y-117641615D01*
X128142233Y-117598949D01*
X128187221Y-117590500D01*
X131980249Y-117590500D01*
X132047288Y-117610185D01*
X132079515Y-117640188D01*
X132122451Y-117697542D01*
X132122454Y-117697546D01*
X132122457Y-117697548D01*
X132237664Y-117783793D01*
X132237671Y-117783797D01*
X132372517Y-117834091D01*
X132372516Y-117834091D01*
X132379444Y-117834835D01*
X132432127Y-117840500D01*
X135037872Y-117840499D01*
X135097483Y-117834091D01*
X135232331Y-117783796D01*
X135347546Y-117697546D01*
X135433796Y-117582331D01*
X135484091Y-117447483D01*
X135490500Y-117387873D01*
X135490499Y-116292128D01*
X135484091Y-116232517D01*
X135433796Y-116097669D01*
X135433795Y-116097668D01*
X135433793Y-116097664D01*
X135347547Y-115982455D01*
X135347544Y-115982452D01*
X135232335Y-115896206D01*
X135232328Y-115896202D01*
X135097482Y-115845908D01*
X135097483Y-115845908D01*
X135037883Y-115839501D01*
X135037881Y-115839500D01*
X135037873Y-115839500D01*
X135037864Y-115839500D01*
X132432129Y-115839500D01*
X132432123Y-115839501D01*
X132372516Y-115845908D01*
X132237671Y-115896202D01*
X132237664Y-115896206D01*
X132122457Y-115982451D01*
X132122451Y-115982457D01*
X132079515Y-116039812D01*
X132023581Y-116081682D01*
X131980249Y-116089500D01*
X128187221Y-116089500D01*
X128120182Y-116069815D01*
X128086903Y-116038385D01*
X128030107Y-115960211D01*
X127879786Y-115809890D01*
X127707820Y-115684951D01*
X127707115Y-115684591D01*
X127699054Y-115680485D01*
X127648259Y-115632512D01*
X127631463Y-115564692D01*
X127653999Y-115498556D01*
X127699054Y-115459515D01*
X127707816Y-115455051D01*
X127729789Y-115439086D01*
X127879786Y-115330109D01*
X127879788Y-115330106D01*
X127879792Y-115330104D01*
X128030104Y-115179792D01*
X128046266Y-115157547D01*
X128086903Y-115101615D01*
X128142233Y-115058949D01*
X128187221Y-115050500D01*
X128670249Y-115050500D01*
X128737288Y-115070185D01*
X128769515Y-115100188D01*
X128812451Y-115157542D01*
X128812454Y-115157546D01*
X128812457Y-115157548D01*
X128927664Y-115243793D01*
X128927671Y-115243797D01*
X129062517Y-115294091D01*
X129062516Y-115294091D01*
X129069444Y-115294835D01*
X129122127Y-115300500D01*
X131727872Y-115300499D01*
X131787483Y-115294091D01*
X131922331Y-115243796D01*
X132037546Y-115157546D01*
X132123796Y-115042331D01*
X132174091Y-114907483D01*
X132180500Y-114847873D01*
X132180499Y-113752128D01*
X132174091Y-113692517D01*
X132123796Y-113557669D01*
X132123795Y-113557668D01*
X132123793Y-113557664D01*
X132037547Y-113442455D01*
X132037544Y-113442452D01*
X131922335Y-113356206D01*
X131922328Y-113356202D01*
X131787482Y-113305908D01*
X131787483Y-113305908D01*
X131727883Y-113299501D01*
X131727881Y-113299500D01*
X131727873Y-113299500D01*
X131727864Y-113299500D01*
X129122129Y-113299500D01*
X129122123Y-113299501D01*
X129062516Y-113305908D01*
X128927671Y-113356202D01*
X128927664Y-113356206D01*
X128812457Y-113442451D01*
X128812451Y-113442457D01*
X128769515Y-113499812D01*
X128713581Y-113541682D01*
X128670249Y-113549500D01*
X128187221Y-113549500D01*
X128120182Y-113529815D01*
X128086903Y-113498385D01*
X128030107Y-113420211D01*
X127879786Y-113269890D01*
X127707820Y-113144951D01*
X127707115Y-113144591D01*
X127699054Y-113140485D01*
X127648259Y-113092512D01*
X127631463Y-113024692D01*
X127653999Y-112958556D01*
X127699054Y-112919515D01*
X127707816Y-112915051D01*
X127729789Y-112899086D01*
X127879786Y-112790109D01*
X127879788Y-112790106D01*
X127879792Y-112790104D01*
X128030104Y-112639792D01*
X128046266Y-112617547D01*
X128086903Y-112561615D01*
X128142233Y-112518949D01*
X128187221Y-112510500D01*
X131980249Y-112510500D01*
X132047288Y-112530185D01*
X132079515Y-112560188D01*
X132122451Y-112617542D01*
X132122454Y-112617546D01*
X132122457Y-112617548D01*
X132237664Y-112703793D01*
X132237671Y-112703797D01*
X132372517Y-112754091D01*
X132372516Y-112754091D01*
X132379444Y-112754835D01*
X132432127Y-112760500D01*
X135037872Y-112760499D01*
X135097483Y-112754091D01*
X135232331Y-112703796D01*
X135347546Y-112617546D01*
X135433796Y-112502331D01*
X135484091Y-112367483D01*
X135490500Y-112307873D01*
X135490499Y-111212128D01*
X135484091Y-111152517D01*
X135433796Y-111017669D01*
X135433795Y-111017668D01*
X135433793Y-111017664D01*
X135347547Y-110902455D01*
X135347544Y-110902452D01*
X135232335Y-110816206D01*
X135232328Y-110816202D01*
X135097482Y-110765908D01*
X135097483Y-110765908D01*
X135037883Y-110759501D01*
X135037881Y-110759500D01*
X135037873Y-110759500D01*
X135037864Y-110759500D01*
X132432129Y-110759500D01*
X132432123Y-110759501D01*
X132372516Y-110765908D01*
X132237671Y-110816202D01*
X132237664Y-110816206D01*
X132122457Y-110902451D01*
X132122451Y-110902457D01*
X132079515Y-110959812D01*
X132023581Y-111001682D01*
X131980249Y-111009500D01*
X128187221Y-111009500D01*
X128120182Y-110989815D01*
X128086903Y-110958385D01*
X128030107Y-110880211D01*
X127879786Y-110729890D01*
X127707820Y-110604951D01*
X127707115Y-110604591D01*
X127699054Y-110600485D01*
X127648259Y-110552512D01*
X127631463Y-110484692D01*
X127653999Y-110418556D01*
X127699054Y-110379515D01*
X127707816Y-110375051D01*
X127729789Y-110359086D01*
X127879786Y-110250109D01*
X127879788Y-110250106D01*
X127879792Y-110250104D01*
X128030104Y-110099792D01*
X128046266Y-110077547D01*
X128086903Y-110021615D01*
X128142233Y-109978949D01*
X128187221Y-109970500D01*
X128670249Y-109970500D01*
X128737288Y-109990185D01*
X128769515Y-110020188D01*
X128812451Y-110077542D01*
X128812454Y-110077546D01*
X128812457Y-110077548D01*
X128927664Y-110163793D01*
X128927671Y-110163797D01*
X129062517Y-110214091D01*
X129062516Y-110214091D01*
X129069444Y-110214835D01*
X129122127Y-110220500D01*
X131727872Y-110220499D01*
X131787483Y-110214091D01*
X131922331Y-110163796D01*
X132037546Y-110077546D01*
X132123796Y-109962331D01*
X132174091Y-109827483D01*
X132180500Y-109767873D01*
X132180499Y-108672128D01*
X132174091Y-108612517D01*
X132123796Y-108477669D01*
X132123795Y-108477668D01*
X132123793Y-108477664D01*
X132037547Y-108362455D01*
X132037544Y-108362452D01*
X131922335Y-108276206D01*
X131922328Y-108276202D01*
X131787482Y-108225908D01*
X131787483Y-108225908D01*
X131727883Y-108219501D01*
X131727881Y-108219500D01*
X131727873Y-108219500D01*
X131727864Y-108219500D01*
X129122129Y-108219500D01*
X129122123Y-108219501D01*
X129062516Y-108225908D01*
X128927671Y-108276202D01*
X128927664Y-108276206D01*
X128812457Y-108362451D01*
X128812451Y-108362457D01*
X128769515Y-108419812D01*
X128713581Y-108461682D01*
X128670249Y-108469500D01*
X128187221Y-108469500D01*
X128120182Y-108449815D01*
X128086903Y-108418385D01*
X128030107Y-108340211D01*
X127879786Y-108189890D01*
X127707820Y-108064951D01*
X127707115Y-108064591D01*
X127699054Y-108060485D01*
X127648259Y-108012512D01*
X127631463Y-107944692D01*
X127653999Y-107878556D01*
X127699054Y-107839515D01*
X127707816Y-107835051D01*
X127729789Y-107819086D01*
X127879786Y-107710109D01*
X127879788Y-107710106D01*
X127879792Y-107710104D01*
X128030104Y-107559792D01*
X128046266Y-107537547D01*
X128086903Y-107481615D01*
X128142233Y-107438949D01*
X128187221Y-107430500D01*
X131980249Y-107430500D01*
X132047288Y-107450185D01*
X132079515Y-107480188D01*
X132122451Y-107537542D01*
X132122454Y-107537546D01*
X132122457Y-107537548D01*
X132237664Y-107623793D01*
X132237671Y-107623797D01*
X132372517Y-107674091D01*
X132372516Y-107674091D01*
X132379444Y-107674835D01*
X132432127Y-107680500D01*
X135037872Y-107680499D01*
X135097483Y-107674091D01*
X135232331Y-107623796D01*
X135347546Y-107537546D01*
X135433796Y-107422331D01*
X135484091Y-107287483D01*
X135490500Y-107227873D01*
X135490499Y-106132128D01*
X135484091Y-106072517D01*
X135433796Y-105937669D01*
X135433795Y-105937668D01*
X135433793Y-105937664D01*
X135347547Y-105822455D01*
X135347544Y-105822452D01*
X135232335Y-105736206D01*
X135232328Y-105736202D01*
X135097482Y-105685908D01*
X135097483Y-105685908D01*
X135037883Y-105679501D01*
X135037881Y-105679500D01*
X135037873Y-105679500D01*
X135037864Y-105679500D01*
X132432129Y-105679500D01*
X132432123Y-105679501D01*
X132372516Y-105685908D01*
X132237671Y-105736202D01*
X132237664Y-105736206D01*
X132122457Y-105822451D01*
X132122451Y-105822457D01*
X132079515Y-105879812D01*
X132023581Y-105921682D01*
X131980249Y-105929500D01*
X128187221Y-105929500D01*
X128120182Y-105909815D01*
X128086903Y-105878385D01*
X128030107Y-105800211D01*
X127879786Y-105649890D01*
X127707820Y-105524951D01*
X127707115Y-105524591D01*
X127699054Y-105520485D01*
X127648259Y-105472512D01*
X127631463Y-105404692D01*
X127653999Y-105338556D01*
X127699054Y-105299515D01*
X127707816Y-105295051D01*
X127729789Y-105279086D01*
X127879786Y-105170109D01*
X127879788Y-105170106D01*
X127879792Y-105170104D01*
X128030104Y-105019792D01*
X128046266Y-104997547D01*
X128086903Y-104941615D01*
X128142233Y-104898949D01*
X128187221Y-104890500D01*
X128670249Y-104890500D01*
X128737288Y-104910185D01*
X128769515Y-104940188D01*
X128812451Y-104997542D01*
X128812454Y-104997546D01*
X128812457Y-104997548D01*
X128927664Y-105083793D01*
X128927671Y-105083797D01*
X129062517Y-105134091D01*
X129062516Y-105134091D01*
X129069444Y-105134835D01*
X129122127Y-105140500D01*
X131727872Y-105140499D01*
X131787483Y-105134091D01*
X131922331Y-105083796D01*
X132037546Y-104997546D01*
X132123796Y-104882331D01*
X132174091Y-104747483D01*
X132180500Y-104687873D01*
X132180499Y-103592128D01*
X132174091Y-103532517D01*
X132123796Y-103397669D01*
X132123795Y-103397668D01*
X132123793Y-103397664D01*
X132037547Y-103282455D01*
X132037544Y-103282452D01*
X131922335Y-103196206D01*
X131922328Y-103196202D01*
X131787482Y-103145908D01*
X131787483Y-103145908D01*
X131727883Y-103139501D01*
X131727881Y-103139500D01*
X131727873Y-103139500D01*
X131727864Y-103139500D01*
X129122129Y-103139500D01*
X129122123Y-103139501D01*
X129062516Y-103145908D01*
X128927671Y-103196202D01*
X128927664Y-103196206D01*
X128812457Y-103282451D01*
X128812451Y-103282457D01*
X128769515Y-103339812D01*
X128713581Y-103381682D01*
X128670249Y-103389500D01*
X128187221Y-103389500D01*
X128120182Y-103369815D01*
X128086903Y-103338385D01*
X128030107Y-103260211D01*
X127879786Y-103109890D01*
X127707820Y-102984951D01*
X127707115Y-102984591D01*
X127699054Y-102980485D01*
X127648259Y-102932512D01*
X127631463Y-102864692D01*
X127653999Y-102798556D01*
X127699054Y-102759515D01*
X127707816Y-102755051D01*
X127729789Y-102739086D01*
X127879786Y-102630109D01*
X127879788Y-102630106D01*
X127879792Y-102630104D01*
X128030104Y-102479792D01*
X128046266Y-102457547D01*
X128086903Y-102401615D01*
X128142233Y-102358949D01*
X128187221Y-102350500D01*
X131980249Y-102350500D01*
X132047288Y-102370185D01*
X132079515Y-102400188D01*
X132122451Y-102457542D01*
X132122454Y-102457546D01*
X132122457Y-102457548D01*
X132237664Y-102543793D01*
X132237671Y-102543797D01*
X132372517Y-102594091D01*
X132372516Y-102594091D01*
X132379444Y-102594835D01*
X132432127Y-102600500D01*
X135037872Y-102600499D01*
X135097483Y-102594091D01*
X135232331Y-102543796D01*
X135347546Y-102457546D01*
X135433796Y-102342331D01*
X135484091Y-102207483D01*
X135490500Y-102147873D01*
X135490499Y-101052128D01*
X135484091Y-100992517D01*
X135433796Y-100857669D01*
X135433795Y-100857668D01*
X135433793Y-100857664D01*
X135347547Y-100742455D01*
X135347544Y-100742452D01*
X135232335Y-100656206D01*
X135232328Y-100656202D01*
X135097482Y-100605908D01*
X135097483Y-100605908D01*
X135037883Y-100599501D01*
X135037881Y-100599500D01*
X135037873Y-100599500D01*
X135037864Y-100599500D01*
X132432129Y-100599500D01*
X132432123Y-100599501D01*
X132372516Y-100605908D01*
X132237671Y-100656202D01*
X132237664Y-100656206D01*
X132122457Y-100742451D01*
X132122451Y-100742457D01*
X132079515Y-100799812D01*
X132023581Y-100841682D01*
X131980249Y-100849500D01*
X128187221Y-100849500D01*
X128120182Y-100829815D01*
X128086903Y-100798385D01*
X128030107Y-100720211D01*
X127879786Y-100569890D01*
X127707820Y-100444951D01*
X127707115Y-100444591D01*
X127699054Y-100440485D01*
X127648259Y-100392512D01*
X127631463Y-100324692D01*
X127653999Y-100258556D01*
X127699054Y-100219515D01*
X127707816Y-100215051D01*
X127729789Y-100199086D01*
X127879786Y-100090109D01*
X127879788Y-100090106D01*
X127879792Y-100090104D01*
X128030104Y-99939792D01*
X128046266Y-99917547D01*
X128086903Y-99861615D01*
X128142233Y-99818949D01*
X128187221Y-99810500D01*
X128670249Y-99810500D01*
X128737288Y-99830185D01*
X128769515Y-99860188D01*
X128812451Y-99917542D01*
X128812454Y-99917546D01*
X128812457Y-99917548D01*
X128927664Y-100003793D01*
X128927671Y-100003797D01*
X129062517Y-100054091D01*
X129062516Y-100054091D01*
X129069444Y-100054835D01*
X129122127Y-100060500D01*
X131727872Y-100060499D01*
X131787483Y-100054091D01*
X131922331Y-100003796D01*
X132037546Y-99917546D01*
X132123796Y-99802331D01*
X132174091Y-99667483D01*
X132180500Y-99607873D01*
X132180499Y-98512128D01*
X132174091Y-98452517D01*
X132123796Y-98317669D01*
X132123795Y-98317668D01*
X132123793Y-98317664D01*
X132037547Y-98202455D01*
X132037544Y-98202452D01*
X131922335Y-98116206D01*
X131922328Y-98116202D01*
X131787482Y-98065908D01*
X131787483Y-98065908D01*
X131727883Y-98059501D01*
X131727881Y-98059500D01*
X131727873Y-98059500D01*
X131727864Y-98059500D01*
X129122129Y-98059500D01*
X129122123Y-98059501D01*
X129062516Y-98065908D01*
X128927671Y-98116202D01*
X128927664Y-98116206D01*
X128812457Y-98202451D01*
X128812451Y-98202457D01*
X128769515Y-98259812D01*
X128713581Y-98301682D01*
X128670249Y-98309500D01*
X128187221Y-98309500D01*
X128120182Y-98289815D01*
X128086903Y-98258385D01*
X128030107Y-98180211D01*
X127879786Y-98029890D01*
X127707820Y-97904951D01*
X127707115Y-97904591D01*
X127699054Y-97900485D01*
X127648259Y-97852512D01*
X127631463Y-97784692D01*
X127653999Y-97718556D01*
X127699054Y-97679515D01*
X127707816Y-97675051D01*
X127729789Y-97659086D01*
X127879786Y-97550109D01*
X127879788Y-97550106D01*
X127879792Y-97550104D01*
X128030104Y-97399792D01*
X128046266Y-97377547D01*
X128086903Y-97321615D01*
X128142233Y-97278949D01*
X128187221Y-97270500D01*
X131980249Y-97270500D01*
X132047288Y-97290185D01*
X132079515Y-97320188D01*
X132122451Y-97377542D01*
X132122454Y-97377546D01*
X132122457Y-97377548D01*
X132237664Y-97463793D01*
X132237671Y-97463797D01*
X132372517Y-97514091D01*
X132372516Y-97514091D01*
X132379444Y-97514835D01*
X132432127Y-97520500D01*
X135037872Y-97520499D01*
X135097483Y-97514091D01*
X135232331Y-97463796D01*
X135347546Y-97377546D01*
X135433796Y-97262331D01*
X135484091Y-97127483D01*
X135490500Y-97067873D01*
X135490499Y-95972128D01*
X135484091Y-95912517D01*
X135433796Y-95777669D01*
X135433795Y-95777668D01*
X135433793Y-95777664D01*
X135347547Y-95662455D01*
X135347544Y-95662452D01*
X135232335Y-95576206D01*
X135232328Y-95576202D01*
X135097482Y-95525908D01*
X135097483Y-95525908D01*
X135037883Y-95519501D01*
X135037881Y-95519500D01*
X135037873Y-95519500D01*
X135037864Y-95519500D01*
X132432129Y-95519500D01*
X132432123Y-95519501D01*
X132372516Y-95525908D01*
X132237671Y-95576202D01*
X132237664Y-95576206D01*
X132122457Y-95662451D01*
X132122451Y-95662457D01*
X132079515Y-95719812D01*
X132023581Y-95761682D01*
X131980249Y-95769500D01*
X128187221Y-95769500D01*
X128120182Y-95749815D01*
X128086903Y-95718385D01*
X128030107Y-95640211D01*
X127879786Y-95489890D01*
X127707820Y-95364951D01*
X127707115Y-95364591D01*
X127699054Y-95360485D01*
X127648259Y-95312512D01*
X127631463Y-95244692D01*
X127653999Y-95178556D01*
X127699054Y-95139515D01*
X127707816Y-95135051D01*
X127729789Y-95119086D01*
X127879786Y-95010109D01*
X127879788Y-95010106D01*
X127879792Y-95010104D01*
X128030104Y-94859792D01*
X128046266Y-94837547D01*
X128086903Y-94781615D01*
X128142233Y-94738949D01*
X128187221Y-94730500D01*
X128670249Y-94730500D01*
X128737288Y-94750185D01*
X128769515Y-94780188D01*
X128812451Y-94837542D01*
X128812454Y-94837546D01*
X128812457Y-94837548D01*
X128927664Y-94923793D01*
X128927671Y-94923797D01*
X129062517Y-94974091D01*
X129062516Y-94974091D01*
X129069444Y-94974835D01*
X129122127Y-94980500D01*
X131727872Y-94980499D01*
X131787483Y-94974091D01*
X131922331Y-94923796D01*
X132037546Y-94837546D01*
X132123796Y-94722331D01*
X132174091Y-94587483D01*
X132180500Y-94527873D01*
X132180499Y-93432128D01*
X132174091Y-93372517D01*
X132123796Y-93237669D01*
X132123795Y-93237668D01*
X132123793Y-93237664D01*
X132037547Y-93122455D01*
X132037544Y-93122452D01*
X131922335Y-93036206D01*
X131922328Y-93036202D01*
X131787482Y-92985908D01*
X131787483Y-92985908D01*
X131727883Y-92979501D01*
X131727881Y-92979500D01*
X131727873Y-92979500D01*
X131727864Y-92979500D01*
X129122129Y-92979500D01*
X129122123Y-92979501D01*
X129062516Y-92985908D01*
X128927671Y-93036202D01*
X128927664Y-93036206D01*
X128812457Y-93122451D01*
X128812451Y-93122457D01*
X128769515Y-93179812D01*
X128713581Y-93221682D01*
X128670249Y-93229500D01*
X128187221Y-93229500D01*
X128120182Y-93209815D01*
X128086903Y-93178385D01*
X128030107Y-93100211D01*
X127879786Y-92949890D01*
X127707820Y-92824951D01*
X127707115Y-92824591D01*
X127699054Y-92820485D01*
X127648259Y-92772512D01*
X127631463Y-92704692D01*
X127653999Y-92638556D01*
X127699054Y-92599515D01*
X127707816Y-92595051D01*
X127729789Y-92579086D01*
X127879786Y-92470109D01*
X127879788Y-92470106D01*
X127879792Y-92470104D01*
X128030104Y-92319792D01*
X128046266Y-92297547D01*
X128086903Y-92241615D01*
X128142233Y-92198949D01*
X128187221Y-92190500D01*
X131980249Y-92190500D01*
X132047288Y-92210185D01*
X132079515Y-92240188D01*
X132122451Y-92297542D01*
X132122454Y-92297546D01*
X132122457Y-92297548D01*
X132237664Y-92383793D01*
X132237671Y-92383797D01*
X132372517Y-92434091D01*
X132372516Y-92434091D01*
X132379444Y-92434835D01*
X132432127Y-92440500D01*
X135037872Y-92440499D01*
X135097483Y-92434091D01*
X135232331Y-92383796D01*
X135347546Y-92297546D01*
X135433796Y-92182331D01*
X135484091Y-92047483D01*
X135490500Y-91987873D01*
X135490499Y-90892128D01*
X135484091Y-90832517D01*
X135433796Y-90697669D01*
X135433795Y-90697668D01*
X135433793Y-90697664D01*
X135347547Y-90582455D01*
X135347544Y-90582452D01*
X135232335Y-90496206D01*
X135232328Y-90496202D01*
X135097482Y-90445908D01*
X135097483Y-90445908D01*
X135037883Y-90439501D01*
X135037881Y-90439500D01*
X135037873Y-90439500D01*
X135037864Y-90439500D01*
X132432129Y-90439500D01*
X132432123Y-90439501D01*
X132372516Y-90445908D01*
X132237671Y-90496202D01*
X132237664Y-90496206D01*
X132122457Y-90582451D01*
X132122451Y-90582457D01*
X132079515Y-90639812D01*
X132023581Y-90681682D01*
X131980249Y-90689500D01*
X128187221Y-90689500D01*
X128120182Y-90669815D01*
X128086903Y-90638385D01*
X128030107Y-90560211D01*
X127879786Y-90409890D01*
X127707820Y-90284951D01*
X127707115Y-90284591D01*
X127699054Y-90280485D01*
X127648259Y-90232512D01*
X127631463Y-90164692D01*
X127653999Y-90098556D01*
X127699054Y-90059515D01*
X127707816Y-90055051D01*
X127729789Y-90039086D01*
X127879786Y-89930109D01*
X127879788Y-89930106D01*
X127879792Y-89930104D01*
X128030104Y-89779792D01*
X128046266Y-89757547D01*
X128086903Y-89701615D01*
X128142233Y-89658949D01*
X128187221Y-89650500D01*
X128670249Y-89650500D01*
X128737288Y-89670185D01*
X128769515Y-89700188D01*
X128812451Y-89757542D01*
X128812454Y-89757546D01*
X128812457Y-89757548D01*
X128927664Y-89843793D01*
X128927671Y-89843797D01*
X129062517Y-89894091D01*
X129062516Y-89894091D01*
X129069444Y-89894835D01*
X129122127Y-89900500D01*
X131727872Y-89900499D01*
X131787483Y-89894091D01*
X131922331Y-89843796D01*
X132037546Y-89757546D01*
X132123796Y-89642331D01*
X132174091Y-89507483D01*
X132180500Y-89447873D01*
X132180499Y-88352128D01*
X132174091Y-88292517D01*
X132123796Y-88157669D01*
X132123795Y-88157668D01*
X132123793Y-88157664D01*
X132037547Y-88042455D01*
X132037544Y-88042452D01*
X131922335Y-87956206D01*
X131922328Y-87956202D01*
X131787482Y-87905908D01*
X131787483Y-87905908D01*
X131727883Y-87899501D01*
X131727881Y-87899500D01*
X131727873Y-87899500D01*
X131727864Y-87899500D01*
X129122129Y-87899500D01*
X129122123Y-87899501D01*
X129062516Y-87905908D01*
X128927671Y-87956202D01*
X128927664Y-87956206D01*
X128812457Y-88042451D01*
X128812451Y-88042457D01*
X128769515Y-88099812D01*
X128713581Y-88141682D01*
X128670249Y-88149500D01*
X128187221Y-88149500D01*
X128120182Y-88129815D01*
X128086903Y-88098385D01*
X128030107Y-88020211D01*
X127879786Y-87869890D01*
X127707820Y-87744951D01*
X127707115Y-87744591D01*
X127699054Y-87740485D01*
X127648259Y-87692512D01*
X127631463Y-87624692D01*
X127653999Y-87558556D01*
X127699054Y-87519515D01*
X127707816Y-87515051D01*
X127729789Y-87499086D01*
X127879786Y-87390109D01*
X127879788Y-87390106D01*
X127879792Y-87390104D01*
X128030104Y-87239792D01*
X128046266Y-87217547D01*
X128086903Y-87161615D01*
X128142233Y-87118949D01*
X128187221Y-87110500D01*
X131980249Y-87110500D01*
X132047288Y-87130185D01*
X132079515Y-87160188D01*
X132122451Y-87217542D01*
X132122454Y-87217546D01*
X132122457Y-87217548D01*
X132237664Y-87303793D01*
X132237671Y-87303797D01*
X132372517Y-87354091D01*
X132372516Y-87354091D01*
X132379444Y-87354835D01*
X132432127Y-87360500D01*
X135037872Y-87360499D01*
X135097483Y-87354091D01*
X135232331Y-87303796D01*
X135347546Y-87217546D01*
X135433796Y-87102331D01*
X135484091Y-86967483D01*
X135490500Y-86907873D01*
X135490499Y-85812128D01*
X135484091Y-85752517D01*
X135433796Y-85617669D01*
X135433795Y-85617668D01*
X135433793Y-85617664D01*
X135347547Y-85502455D01*
X135347544Y-85502452D01*
X135232335Y-85416206D01*
X135232328Y-85416202D01*
X135097482Y-85365908D01*
X135097483Y-85365908D01*
X135037883Y-85359501D01*
X135037881Y-85359500D01*
X135037873Y-85359500D01*
X135037864Y-85359500D01*
X132432129Y-85359500D01*
X132432123Y-85359501D01*
X132372516Y-85365908D01*
X132237671Y-85416202D01*
X132237664Y-85416206D01*
X132122457Y-85502451D01*
X132122451Y-85502457D01*
X132079515Y-85559812D01*
X132023581Y-85601682D01*
X131980249Y-85609500D01*
X128187221Y-85609500D01*
X128120182Y-85589815D01*
X128086903Y-85558385D01*
X128030107Y-85480211D01*
X127879786Y-85329890D01*
X127707820Y-85204951D01*
X127707115Y-85204591D01*
X127699054Y-85200485D01*
X127648259Y-85152512D01*
X127631463Y-85084692D01*
X127653999Y-85018556D01*
X127699054Y-84979515D01*
X127707816Y-84975051D01*
X127729789Y-84959086D01*
X127879786Y-84850109D01*
X127879788Y-84850106D01*
X127879792Y-84850104D01*
X128030104Y-84699792D01*
X128046266Y-84677547D01*
X128086903Y-84621615D01*
X128142233Y-84578949D01*
X128187221Y-84570500D01*
X128670249Y-84570500D01*
X128737288Y-84590185D01*
X128769515Y-84620188D01*
X128812451Y-84677542D01*
X128812454Y-84677546D01*
X128812457Y-84677548D01*
X128927664Y-84763793D01*
X128927671Y-84763797D01*
X129062517Y-84814091D01*
X129062516Y-84814091D01*
X129069444Y-84814835D01*
X129122127Y-84820500D01*
X131727872Y-84820499D01*
X131787483Y-84814091D01*
X131922331Y-84763796D01*
X132037546Y-84677546D01*
X132123796Y-84562331D01*
X132174091Y-84427483D01*
X132180500Y-84367873D01*
X132180499Y-83272128D01*
X132174091Y-83212517D01*
X132123796Y-83077669D01*
X132123795Y-83077668D01*
X132123793Y-83077664D01*
X132037547Y-82962455D01*
X132037544Y-82962452D01*
X131922335Y-82876206D01*
X131922328Y-82876202D01*
X131787482Y-82825908D01*
X131787483Y-82825908D01*
X131727883Y-82819501D01*
X131727881Y-82819500D01*
X131727873Y-82819500D01*
X131727864Y-82819500D01*
X129122129Y-82819500D01*
X129122123Y-82819501D01*
X129062516Y-82825908D01*
X128927671Y-82876202D01*
X128927664Y-82876206D01*
X128812457Y-82962451D01*
X128812451Y-82962457D01*
X128769515Y-83019812D01*
X128713581Y-83061682D01*
X128670249Y-83069500D01*
X128187221Y-83069500D01*
X128120182Y-83049815D01*
X128086903Y-83018385D01*
X128030107Y-82940211D01*
X127879786Y-82789890D01*
X127707820Y-82664951D01*
X127707115Y-82664591D01*
X127699054Y-82660485D01*
X127648259Y-82612512D01*
X127631463Y-82544692D01*
X127653999Y-82478556D01*
X127699054Y-82439515D01*
X127707816Y-82435051D01*
X127729789Y-82419086D01*
X127879786Y-82310109D01*
X127879788Y-82310106D01*
X127879792Y-82310104D01*
X128030104Y-82159792D01*
X128046266Y-82137547D01*
X128086903Y-82081615D01*
X128142233Y-82038949D01*
X128187221Y-82030500D01*
X131980249Y-82030500D01*
X132047288Y-82050185D01*
X132079515Y-82080188D01*
X132122451Y-82137542D01*
X132122454Y-82137546D01*
X132122457Y-82137548D01*
X132237664Y-82223793D01*
X132237671Y-82223797D01*
X132372517Y-82274091D01*
X132372516Y-82274091D01*
X132379444Y-82274835D01*
X132432127Y-82280500D01*
X135037872Y-82280499D01*
X135097483Y-82274091D01*
X135232331Y-82223796D01*
X135347546Y-82137546D01*
X135433796Y-82022331D01*
X135484091Y-81887483D01*
X135490500Y-81827873D01*
X135490499Y-80732128D01*
X135484091Y-80672517D01*
X135433796Y-80537669D01*
X135433795Y-80537668D01*
X135433793Y-80537664D01*
X135347547Y-80422455D01*
X135347544Y-80422452D01*
X135232335Y-80336206D01*
X135232328Y-80336202D01*
X135097482Y-80285908D01*
X135097483Y-80285908D01*
X135037883Y-80279501D01*
X135037881Y-80279500D01*
X135037873Y-80279500D01*
X135037864Y-80279500D01*
X132432129Y-80279500D01*
X132432123Y-80279501D01*
X132372516Y-80285908D01*
X132237671Y-80336202D01*
X132237664Y-80336206D01*
X132122457Y-80422451D01*
X132122451Y-80422457D01*
X132079515Y-80479812D01*
X132023581Y-80521682D01*
X131980249Y-80529500D01*
X128187221Y-80529500D01*
X128120182Y-80509815D01*
X128086903Y-80478385D01*
X128030107Y-80400211D01*
X127879786Y-80249890D01*
X127707820Y-80124951D01*
X127707115Y-80124591D01*
X127699054Y-80120485D01*
X127648259Y-80072512D01*
X127631463Y-80004692D01*
X127653999Y-79938556D01*
X127699054Y-79899515D01*
X127707816Y-79895051D01*
X127729789Y-79879086D01*
X127879786Y-79770109D01*
X127879788Y-79770106D01*
X127879792Y-79770104D01*
X128030104Y-79619792D01*
X128046266Y-79597547D01*
X128086903Y-79541615D01*
X128142233Y-79498949D01*
X128187221Y-79490500D01*
X128670249Y-79490500D01*
X128737288Y-79510185D01*
X128769515Y-79540188D01*
X128812451Y-79597542D01*
X128812454Y-79597546D01*
X128812457Y-79597548D01*
X128927664Y-79683793D01*
X128927671Y-79683797D01*
X129062517Y-79734091D01*
X129062516Y-79734091D01*
X129069444Y-79734835D01*
X129122127Y-79740500D01*
X131727872Y-79740499D01*
X131787483Y-79734091D01*
X131922331Y-79683796D01*
X132037546Y-79597546D01*
X132123796Y-79482331D01*
X132174091Y-79347483D01*
X132180500Y-79287873D01*
X132180499Y-78192128D01*
X132174091Y-78132517D01*
X132123796Y-77997669D01*
X132123795Y-77997668D01*
X132123793Y-77997664D01*
X132037547Y-77882455D01*
X132037544Y-77882452D01*
X131922335Y-77796206D01*
X131922328Y-77796202D01*
X131787482Y-77745908D01*
X131787483Y-77745908D01*
X131727883Y-77739501D01*
X131727881Y-77739500D01*
X131727873Y-77739500D01*
X131727864Y-77739500D01*
X129122129Y-77739500D01*
X129122123Y-77739501D01*
X129062516Y-77745908D01*
X128927671Y-77796202D01*
X128927664Y-77796206D01*
X128812457Y-77882451D01*
X128812451Y-77882457D01*
X128769515Y-77939812D01*
X128713581Y-77981682D01*
X128670249Y-77989500D01*
X128187221Y-77989500D01*
X128120182Y-77969815D01*
X128086903Y-77938385D01*
X128030107Y-77860211D01*
X127879786Y-77709890D01*
X127707820Y-77584951D01*
X127518414Y-77488444D01*
X127518413Y-77488443D01*
X127518412Y-77488443D01*
X127316243Y-77422754D01*
X127316241Y-77422753D01*
X127316240Y-77422753D01*
X127154957Y-77397208D01*
X127106287Y-77389500D01*
X126893713Y-77389500D01*
X126845042Y-77397208D01*
X126683760Y-77422753D01*
X126481582Y-77488445D01*
X126410794Y-77524513D01*
X126342125Y-77537409D01*
X126277384Y-77511132D01*
X126237128Y-77454025D01*
X126230500Y-77414028D01*
X126230500Y-75554500D01*
X126250185Y-75487461D01*
X126302989Y-75441706D01*
X126354500Y-75430500D01*
X150505500Y-75430500D01*
X150572539Y-75450185D01*
G37*
G04 #@! TD.AperFunction*
M02*
