%TF.GenerationSoftware,KiCad,Pcbnew,9.0.6*%
%TF.CreationDate,2026-01-05T13:51:03-06:00*%
%TF.ProjectId,SOIC-8_3.9x4.9_P1.27,534f4943-2d38-45f3-932e-3978342e395f,rev?*%
%TF.SameCoordinates,Original*%
%TF.FileFunction,Drillmap*%
%TF.FilePolarity,Positive*%
%FSLAX45Y45*%
G04 Gerber Fmt 4.5, Leading zero omitted, Abs format (unit mm)*
G04 Created by KiCad (PCBNEW 9.0.6) date 2026-01-05 13:51:03*
%MOMM*%
%LPD*%
G01*
G04 APERTURE LIST*
%ADD10C,0.050000*%
%ADD11C,0.200000*%
%ADD12C,0.100000*%
G04 APERTURE END LIST*
D10*
X11785600Y-9379350D02*
X13563600Y-9379350D01*
X13563600Y-10395350D01*
X11785600Y-10395350D01*
X11785600Y-9379350D01*
D11*
D12*
X11862600Y-9449600D02*
X11962600Y-9549600D01*
X11962600Y-9449600D02*
X11862600Y-9549600D01*
X11862600Y-9703600D02*
X11962600Y-9803600D01*
X11962600Y-9703600D02*
X11862600Y-9803600D01*
X11862600Y-9957600D02*
X11962600Y-10057600D01*
X11962600Y-9957600D02*
X11862600Y-10057600D01*
X11862600Y-10211600D02*
X11962600Y-10311600D01*
X11962600Y-10211600D02*
X11862600Y-10311600D01*
X13386600Y-9449600D02*
X13486600Y-9549600D01*
X13486600Y-9449600D02*
X13386600Y-9549600D01*
X13386600Y-9703600D02*
X13486600Y-9803600D01*
X13486600Y-9703600D02*
X13386600Y-9803600D01*
X13386600Y-9957600D02*
X13486600Y-10057600D01*
X13486600Y-9957600D02*
X13386600Y-10057600D01*
X13386600Y-10211600D02*
X13486600Y-10311600D01*
X13486600Y-10211600D02*
X13386600Y-10311600D01*
D11*
X12043877Y-10709334D02*
X12043877Y-10509334D01*
X12043877Y-10509334D02*
X12091496Y-10509334D01*
X12091496Y-10509334D02*
X12120067Y-10518858D01*
X12120067Y-10518858D02*
X12139115Y-10537905D01*
X12139115Y-10537905D02*
X12148639Y-10556953D01*
X12148639Y-10556953D02*
X12158162Y-10595048D01*
X12158162Y-10595048D02*
X12158162Y-10623620D01*
X12158162Y-10623620D02*
X12148639Y-10661715D01*
X12148639Y-10661715D02*
X12139115Y-10680762D01*
X12139115Y-10680762D02*
X12120067Y-10699810D01*
X12120067Y-10699810D02*
X12091496Y-10709334D01*
X12091496Y-10709334D02*
X12043877Y-10709334D01*
X12243877Y-10709334D02*
X12243877Y-10576000D01*
X12243877Y-10614096D02*
X12253401Y-10595048D01*
X12253401Y-10595048D02*
X12262924Y-10585524D01*
X12262924Y-10585524D02*
X12281972Y-10576000D01*
X12281972Y-10576000D02*
X12301020Y-10576000D01*
X12367686Y-10709334D02*
X12367686Y-10576000D01*
X12367686Y-10509334D02*
X12358162Y-10518858D01*
X12358162Y-10518858D02*
X12367686Y-10528381D01*
X12367686Y-10528381D02*
X12377210Y-10518858D01*
X12377210Y-10518858D02*
X12367686Y-10509334D01*
X12367686Y-10509334D02*
X12367686Y-10528381D01*
X12491496Y-10709334D02*
X12472448Y-10699810D01*
X12472448Y-10699810D02*
X12462924Y-10680762D01*
X12462924Y-10680762D02*
X12462924Y-10509334D01*
X12596258Y-10709334D02*
X12577210Y-10699810D01*
X12577210Y-10699810D02*
X12567686Y-10680762D01*
X12567686Y-10680762D02*
X12567686Y-10509334D01*
X12824829Y-10709334D02*
X12824829Y-10509334D01*
X12824829Y-10509334D02*
X12891496Y-10652191D01*
X12891496Y-10652191D02*
X12958162Y-10509334D01*
X12958162Y-10509334D02*
X12958162Y-10709334D01*
X13139115Y-10709334D02*
X13139115Y-10604572D01*
X13139115Y-10604572D02*
X13129591Y-10585524D01*
X13129591Y-10585524D02*
X13110543Y-10576000D01*
X13110543Y-10576000D02*
X13072448Y-10576000D01*
X13072448Y-10576000D02*
X13053401Y-10585524D01*
X13139115Y-10699810D02*
X13120067Y-10709334D01*
X13120067Y-10709334D02*
X13072448Y-10709334D01*
X13072448Y-10709334D02*
X13053401Y-10699810D01*
X13053401Y-10699810D02*
X13043877Y-10680762D01*
X13043877Y-10680762D02*
X13043877Y-10661715D01*
X13043877Y-10661715D02*
X13053401Y-10642667D01*
X13053401Y-10642667D02*
X13072448Y-10633143D01*
X13072448Y-10633143D02*
X13120067Y-10633143D01*
X13120067Y-10633143D02*
X13139115Y-10623620D01*
X13234353Y-10576000D02*
X13234353Y-10776000D01*
X13234353Y-10585524D02*
X13253401Y-10576000D01*
X13253401Y-10576000D02*
X13291496Y-10576000D01*
X13291496Y-10576000D02*
X13310543Y-10585524D01*
X13310543Y-10585524D02*
X13320067Y-10595048D01*
X13320067Y-10595048D02*
X13329591Y-10614096D01*
X13329591Y-10614096D02*
X13329591Y-10671239D01*
X13329591Y-10671239D02*
X13320067Y-10690286D01*
X13320067Y-10690286D02*
X13310543Y-10699810D01*
X13310543Y-10699810D02*
X13291496Y-10709334D01*
X13291496Y-10709334D02*
X13253401Y-10709334D01*
X13253401Y-10709334D02*
X13234353Y-10699810D01*
X13415305Y-10690286D02*
X13424829Y-10699810D01*
X13424829Y-10699810D02*
X13415305Y-10709334D01*
X13415305Y-10709334D02*
X13405782Y-10699810D01*
X13405782Y-10699810D02*
X13415305Y-10690286D01*
X13415305Y-10690286D02*
X13415305Y-10709334D01*
X13415305Y-10585524D02*
X13424829Y-10595048D01*
X13424829Y-10595048D02*
X13415305Y-10604572D01*
X13415305Y-10604572D02*
X13405782Y-10595048D01*
X13405782Y-10595048D02*
X13415305Y-10585524D01*
X13415305Y-10585524D02*
X13415305Y-10604572D01*
D12*
X11683100Y-10987850D02*
X11783100Y-11087850D01*
X11783100Y-10987850D02*
X11683100Y-11087850D01*
D11*
X12148639Y-11129334D02*
X12034353Y-11129334D01*
X12091496Y-11129334D02*
X12091496Y-10929334D01*
X12091496Y-10929334D02*
X12072448Y-10957905D01*
X12072448Y-10957905D02*
X12053401Y-10976953D01*
X12053401Y-10976953D02*
X12034353Y-10986477D01*
X12234353Y-11110286D02*
X12243877Y-11119810D01*
X12243877Y-11119810D02*
X12234353Y-11129334D01*
X12234353Y-11129334D02*
X12224829Y-11119810D01*
X12224829Y-11119810D02*
X12234353Y-11110286D01*
X12234353Y-11110286D02*
X12234353Y-11129334D01*
X12367686Y-10929334D02*
X12386734Y-10929334D01*
X12386734Y-10929334D02*
X12405782Y-10938858D01*
X12405782Y-10938858D02*
X12415305Y-10948381D01*
X12415305Y-10948381D02*
X12424829Y-10967429D01*
X12424829Y-10967429D02*
X12434353Y-11005524D01*
X12434353Y-11005524D02*
X12434353Y-11053143D01*
X12434353Y-11053143D02*
X12424829Y-11091239D01*
X12424829Y-11091239D02*
X12415305Y-11110286D01*
X12415305Y-11110286D02*
X12405782Y-11119810D01*
X12405782Y-11119810D02*
X12386734Y-11129334D01*
X12386734Y-11129334D02*
X12367686Y-11129334D01*
X12367686Y-11129334D02*
X12348639Y-11119810D01*
X12348639Y-11119810D02*
X12339115Y-11110286D01*
X12339115Y-11110286D02*
X12329591Y-11091239D01*
X12329591Y-11091239D02*
X12320067Y-11053143D01*
X12320067Y-11053143D02*
X12320067Y-11005524D01*
X12320067Y-11005524D02*
X12329591Y-10967429D01*
X12329591Y-10967429D02*
X12339115Y-10948381D01*
X12339115Y-10948381D02*
X12348639Y-10938858D01*
X12348639Y-10938858D02*
X12367686Y-10929334D01*
X12558162Y-10929334D02*
X12577210Y-10929334D01*
X12577210Y-10929334D02*
X12596258Y-10938858D01*
X12596258Y-10938858D02*
X12605782Y-10948381D01*
X12605782Y-10948381D02*
X12615305Y-10967429D01*
X12615305Y-10967429D02*
X12624829Y-11005524D01*
X12624829Y-11005524D02*
X12624829Y-11053143D01*
X12624829Y-11053143D02*
X12615305Y-11091239D01*
X12615305Y-11091239D02*
X12605782Y-11110286D01*
X12605782Y-11110286D02*
X12596258Y-11119810D01*
X12596258Y-11119810D02*
X12577210Y-11129334D01*
X12577210Y-11129334D02*
X12558162Y-11129334D01*
X12558162Y-11129334D02*
X12539115Y-11119810D01*
X12539115Y-11119810D02*
X12529591Y-11110286D01*
X12529591Y-11110286D02*
X12520067Y-11091239D01*
X12520067Y-11091239D02*
X12510543Y-11053143D01*
X12510543Y-11053143D02*
X12510543Y-11005524D01*
X12510543Y-11005524D02*
X12520067Y-10967429D01*
X12520067Y-10967429D02*
X12529591Y-10948381D01*
X12529591Y-10948381D02*
X12539115Y-10938858D01*
X12539115Y-10938858D02*
X12558162Y-10929334D01*
X12748639Y-10929334D02*
X12767686Y-10929334D01*
X12767686Y-10929334D02*
X12786734Y-10938858D01*
X12786734Y-10938858D02*
X12796258Y-10948381D01*
X12796258Y-10948381D02*
X12805782Y-10967429D01*
X12805782Y-10967429D02*
X12815305Y-11005524D01*
X12815305Y-11005524D02*
X12815305Y-11053143D01*
X12815305Y-11053143D02*
X12805782Y-11091239D01*
X12805782Y-11091239D02*
X12796258Y-11110286D01*
X12796258Y-11110286D02*
X12786734Y-11119810D01*
X12786734Y-11119810D02*
X12767686Y-11129334D01*
X12767686Y-11129334D02*
X12748639Y-11129334D01*
X12748639Y-11129334D02*
X12729591Y-11119810D01*
X12729591Y-11119810D02*
X12720067Y-11110286D01*
X12720067Y-11110286D02*
X12710543Y-11091239D01*
X12710543Y-11091239D02*
X12701020Y-11053143D01*
X12701020Y-11053143D02*
X12701020Y-11005524D01*
X12701020Y-11005524D02*
X12710543Y-10967429D01*
X12710543Y-10967429D02*
X12720067Y-10948381D01*
X12720067Y-10948381D02*
X12729591Y-10938858D01*
X12729591Y-10938858D02*
X12748639Y-10929334D01*
X12901020Y-11129334D02*
X12901020Y-10996000D01*
X12901020Y-11015048D02*
X12910543Y-11005524D01*
X12910543Y-11005524D02*
X12929591Y-10996000D01*
X12929591Y-10996000D02*
X12958163Y-10996000D01*
X12958163Y-10996000D02*
X12977210Y-11005524D01*
X12977210Y-11005524D02*
X12986734Y-11024572D01*
X12986734Y-11024572D02*
X12986734Y-11129334D01*
X12986734Y-11024572D02*
X12996258Y-11005524D01*
X12996258Y-11005524D02*
X13015305Y-10996000D01*
X13015305Y-10996000D02*
X13043877Y-10996000D01*
X13043877Y-10996000D02*
X13062924Y-11005524D01*
X13062924Y-11005524D02*
X13072448Y-11024572D01*
X13072448Y-11024572D02*
X13072448Y-11129334D01*
X13167686Y-11129334D02*
X13167686Y-10996000D01*
X13167686Y-11015048D02*
X13177210Y-11005524D01*
X13177210Y-11005524D02*
X13196258Y-10996000D01*
X13196258Y-10996000D02*
X13224829Y-10996000D01*
X13224829Y-10996000D02*
X13243877Y-11005524D01*
X13243877Y-11005524D02*
X13253401Y-11024572D01*
X13253401Y-11024572D02*
X13253401Y-11129334D01*
X13253401Y-11024572D02*
X13262924Y-11005524D01*
X13262924Y-11005524D02*
X13281972Y-10996000D01*
X13281972Y-10996000D02*
X13310543Y-10996000D01*
X13310543Y-10996000D02*
X13329591Y-11005524D01*
X13329591Y-11005524D02*
X13339115Y-11024572D01*
X13339115Y-11024572D02*
X13339115Y-11129334D01*
X13729591Y-10919810D02*
X13558163Y-11176953D01*
X13986734Y-10929334D02*
X14005782Y-10929334D01*
X14005782Y-10929334D02*
X14024829Y-10938858D01*
X14024829Y-10938858D02*
X14034353Y-10948381D01*
X14034353Y-10948381D02*
X14043877Y-10967429D01*
X14043877Y-10967429D02*
X14053401Y-11005524D01*
X14053401Y-11005524D02*
X14053401Y-11053143D01*
X14053401Y-11053143D02*
X14043877Y-11091239D01*
X14043877Y-11091239D02*
X14034353Y-11110286D01*
X14034353Y-11110286D02*
X14024829Y-11119810D01*
X14024829Y-11119810D02*
X14005782Y-11129334D01*
X14005782Y-11129334D02*
X13986734Y-11129334D01*
X13986734Y-11129334D02*
X13967686Y-11119810D01*
X13967686Y-11119810D02*
X13958163Y-11110286D01*
X13958163Y-11110286D02*
X13948639Y-11091239D01*
X13948639Y-11091239D02*
X13939115Y-11053143D01*
X13939115Y-11053143D02*
X13939115Y-11005524D01*
X13939115Y-11005524D02*
X13948639Y-10967429D01*
X13948639Y-10967429D02*
X13958163Y-10948381D01*
X13958163Y-10948381D02*
X13967686Y-10938858D01*
X13967686Y-10938858D02*
X13986734Y-10929334D01*
X14139115Y-11110286D02*
X14148639Y-11119810D01*
X14148639Y-11119810D02*
X14139115Y-11129334D01*
X14139115Y-11129334D02*
X14129591Y-11119810D01*
X14129591Y-11119810D02*
X14139115Y-11110286D01*
X14139115Y-11110286D02*
X14139115Y-11129334D01*
X14272448Y-10929334D02*
X14291496Y-10929334D01*
X14291496Y-10929334D02*
X14310544Y-10938858D01*
X14310544Y-10938858D02*
X14320067Y-10948381D01*
X14320067Y-10948381D02*
X14329591Y-10967429D01*
X14329591Y-10967429D02*
X14339115Y-11005524D01*
X14339115Y-11005524D02*
X14339115Y-11053143D01*
X14339115Y-11053143D02*
X14329591Y-11091239D01*
X14329591Y-11091239D02*
X14320067Y-11110286D01*
X14320067Y-11110286D02*
X14310544Y-11119810D01*
X14310544Y-11119810D02*
X14291496Y-11129334D01*
X14291496Y-11129334D02*
X14272448Y-11129334D01*
X14272448Y-11129334D02*
X14253401Y-11119810D01*
X14253401Y-11119810D02*
X14243877Y-11110286D01*
X14243877Y-11110286D02*
X14234353Y-11091239D01*
X14234353Y-11091239D02*
X14224829Y-11053143D01*
X14224829Y-11053143D02*
X14224829Y-11005524D01*
X14224829Y-11005524D02*
X14234353Y-10967429D01*
X14234353Y-10967429D02*
X14243877Y-10948381D01*
X14243877Y-10948381D02*
X14253401Y-10938858D01*
X14253401Y-10938858D02*
X14272448Y-10929334D01*
X14405782Y-10929334D02*
X14529591Y-10929334D01*
X14529591Y-10929334D02*
X14462925Y-11005524D01*
X14462925Y-11005524D02*
X14491496Y-11005524D01*
X14491496Y-11005524D02*
X14510544Y-11015048D01*
X14510544Y-11015048D02*
X14520067Y-11024572D01*
X14520067Y-11024572D02*
X14529591Y-11043620D01*
X14529591Y-11043620D02*
X14529591Y-11091239D01*
X14529591Y-11091239D02*
X14520067Y-11110286D01*
X14520067Y-11110286D02*
X14510544Y-11119810D01*
X14510544Y-11119810D02*
X14491496Y-11129334D01*
X14491496Y-11129334D02*
X14434353Y-11129334D01*
X14434353Y-11129334D02*
X14415306Y-11119810D01*
X14415306Y-11119810D02*
X14405782Y-11110286D01*
X14624829Y-11129334D02*
X14662925Y-11129334D01*
X14662925Y-11129334D02*
X14681972Y-11119810D01*
X14681972Y-11119810D02*
X14691496Y-11110286D01*
X14691496Y-11110286D02*
X14710544Y-11081715D01*
X14710544Y-11081715D02*
X14720067Y-11043620D01*
X14720067Y-11043620D02*
X14720067Y-10967429D01*
X14720067Y-10967429D02*
X14710544Y-10948381D01*
X14710544Y-10948381D02*
X14701020Y-10938858D01*
X14701020Y-10938858D02*
X14681972Y-10929334D01*
X14681972Y-10929334D02*
X14643877Y-10929334D01*
X14643877Y-10929334D02*
X14624829Y-10938858D01*
X14624829Y-10938858D02*
X14615306Y-10948381D01*
X14615306Y-10948381D02*
X14605782Y-10967429D01*
X14605782Y-10967429D02*
X14605782Y-11015048D01*
X14605782Y-11015048D02*
X14615306Y-11034096D01*
X14615306Y-11034096D02*
X14624829Y-11043620D01*
X14624829Y-11043620D02*
X14643877Y-11053143D01*
X14643877Y-11053143D02*
X14681972Y-11053143D01*
X14681972Y-11053143D02*
X14701020Y-11043620D01*
X14701020Y-11043620D02*
X14710544Y-11034096D01*
X14710544Y-11034096D02*
X14720067Y-11015048D01*
X14891496Y-10996000D02*
X14891496Y-11129334D01*
X14843877Y-10919810D02*
X14796258Y-11062667D01*
X14796258Y-11062667D02*
X14920067Y-11062667D01*
X14986734Y-10929334D02*
X14986734Y-10967429D01*
X15062925Y-10929334D02*
X15062925Y-10967429D01*
X15358163Y-11205524D02*
X15348639Y-11196000D01*
X15348639Y-11196000D02*
X15329591Y-11167429D01*
X15329591Y-11167429D02*
X15320068Y-11148381D01*
X15320068Y-11148381D02*
X15310544Y-11119810D01*
X15310544Y-11119810D02*
X15301020Y-11072191D01*
X15301020Y-11072191D02*
X15301020Y-11034096D01*
X15301020Y-11034096D02*
X15310544Y-10986477D01*
X15310544Y-10986477D02*
X15320068Y-10957905D01*
X15320068Y-10957905D02*
X15329591Y-10938858D01*
X15329591Y-10938858D02*
X15348639Y-10910286D01*
X15348639Y-10910286D02*
X15358163Y-10900762D01*
X15462925Y-11015048D02*
X15443877Y-11005524D01*
X15443877Y-11005524D02*
X15434353Y-10996000D01*
X15434353Y-10996000D02*
X15424829Y-10976953D01*
X15424829Y-10976953D02*
X15424829Y-10967429D01*
X15424829Y-10967429D02*
X15434353Y-10948381D01*
X15434353Y-10948381D02*
X15443877Y-10938858D01*
X15443877Y-10938858D02*
X15462925Y-10929334D01*
X15462925Y-10929334D02*
X15501020Y-10929334D01*
X15501020Y-10929334D02*
X15520068Y-10938858D01*
X15520068Y-10938858D02*
X15529591Y-10948381D01*
X15529591Y-10948381D02*
X15539115Y-10967429D01*
X15539115Y-10967429D02*
X15539115Y-10976953D01*
X15539115Y-10976953D02*
X15529591Y-10996000D01*
X15529591Y-10996000D02*
X15520068Y-11005524D01*
X15520068Y-11005524D02*
X15501020Y-11015048D01*
X15501020Y-11015048D02*
X15462925Y-11015048D01*
X15462925Y-11015048D02*
X15443877Y-11024572D01*
X15443877Y-11024572D02*
X15434353Y-11034096D01*
X15434353Y-11034096D02*
X15424829Y-11053143D01*
X15424829Y-11053143D02*
X15424829Y-11091239D01*
X15424829Y-11091239D02*
X15434353Y-11110286D01*
X15434353Y-11110286D02*
X15443877Y-11119810D01*
X15443877Y-11119810D02*
X15462925Y-11129334D01*
X15462925Y-11129334D02*
X15501020Y-11129334D01*
X15501020Y-11129334D02*
X15520068Y-11119810D01*
X15520068Y-11119810D02*
X15529591Y-11110286D01*
X15529591Y-11110286D02*
X15539115Y-11091239D01*
X15539115Y-11091239D02*
X15539115Y-11053143D01*
X15539115Y-11053143D02*
X15529591Y-11034096D01*
X15529591Y-11034096D02*
X15520068Y-11024572D01*
X15520068Y-11024572D02*
X15501020Y-11015048D01*
X15777210Y-11129334D02*
X15777210Y-10929334D01*
X15862925Y-11129334D02*
X15862925Y-11024572D01*
X15862925Y-11024572D02*
X15853401Y-11005524D01*
X15853401Y-11005524D02*
X15834353Y-10996000D01*
X15834353Y-10996000D02*
X15805782Y-10996000D01*
X15805782Y-10996000D02*
X15786734Y-11005524D01*
X15786734Y-11005524D02*
X15777210Y-11015048D01*
X15986734Y-11129334D02*
X15967687Y-11119810D01*
X15967687Y-11119810D02*
X15958163Y-11110286D01*
X15958163Y-11110286D02*
X15948639Y-11091239D01*
X15948639Y-11091239D02*
X15948639Y-11034096D01*
X15948639Y-11034096D02*
X15958163Y-11015048D01*
X15958163Y-11015048D02*
X15967687Y-11005524D01*
X15967687Y-11005524D02*
X15986734Y-10996000D01*
X15986734Y-10996000D02*
X16015306Y-10996000D01*
X16015306Y-10996000D02*
X16034353Y-11005524D01*
X16034353Y-11005524D02*
X16043877Y-11015048D01*
X16043877Y-11015048D02*
X16053401Y-11034096D01*
X16053401Y-11034096D02*
X16053401Y-11091239D01*
X16053401Y-11091239D02*
X16043877Y-11110286D01*
X16043877Y-11110286D02*
X16034353Y-11119810D01*
X16034353Y-11119810D02*
X16015306Y-11129334D01*
X16015306Y-11129334D02*
X15986734Y-11129334D01*
X16167687Y-11129334D02*
X16148639Y-11119810D01*
X16148639Y-11119810D02*
X16139115Y-11100762D01*
X16139115Y-11100762D02*
X16139115Y-10929334D01*
X16320068Y-11119810D02*
X16301020Y-11129334D01*
X16301020Y-11129334D02*
X16262925Y-11129334D01*
X16262925Y-11129334D02*
X16243877Y-11119810D01*
X16243877Y-11119810D02*
X16234353Y-11100762D01*
X16234353Y-11100762D02*
X16234353Y-11024572D01*
X16234353Y-11024572D02*
X16243877Y-11005524D01*
X16243877Y-11005524D02*
X16262925Y-10996000D01*
X16262925Y-10996000D02*
X16301020Y-10996000D01*
X16301020Y-10996000D02*
X16320068Y-11005524D01*
X16320068Y-11005524D02*
X16329591Y-11024572D01*
X16329591Y-11024572D02*
X16329591Y-11043620D01*
X16329591Y-11043620D02*
X16234353Y-11062667D01*
X16405782Y-11119810D02*
X16424830Y-11129334D01*
X16424830Y-11129334D02*
X16462925Y-11129334D01*
X16462925Y-11129334D02*
X16481972Y-11119810D01*
X16481972Y-11119810D02*
X16491496Y-11100762D01*
X16491496Y-11100762D02*
X16491496Y-11091239D01*
X16491496Y-11091239D02*
X16481972Y-11072191D01*
X16481972Y-11072191D02*
X16462925Y-11062667D01*
X16462925Y-11062667D02*
X16434353Y-11062667D01*
X16434353Y-11062667D02*
X16415306Y-11053143D01*
X16415306Y-11053143D02*
X16405782Y-11034096D01*
X16405782Y-11034096D02*
X16405782Y-11024572D01*
X16405782Y-11024572D02*
X16415306Y-11005524D01*
X16415306Y-11005524D02*
X16434353Y-10996000D01*
X16434353Y-10996000D02*
X16462925Y-10996000D01*
X16462925Y-10996000D02*
X16481972Y-11005524D01*
X16558163Y-11205524D02*
X16567687Y-11196000D01*
X16567687Y-11196000D02*
X16586734Y-11167429D01*
X16586734Y-11167429D02*
X16596258Y-11148381D01*
X16596258Y-11148381D02*
X16605782Y-11119810D01*
X16605782Y-11119810D02*
X16615306Y-11072191D01*
X16615306Y-11072191D02*
X16615306Y-11034096D01*
X16615306Y-11034096D02*
X16605782Y-10986477D01*
X16605782Y-10986477D02*
X16596258Y-10957905D01*
X16596258Y-10957905D02*
X16586734Y-10938858D01*
X16586734Y-10938858D02*
X16567687Y-10910286D01*
X16567687Y-10910286D02*
X16558163Y-10900762D01*
M02*
