G04 #@! TF.GenerationSoftware,KiCad,Pcbnew,9.0.6*
G04 #@! TF.CreationDate,2026-01-08T16:07:39-06:00*
G04 #@! TF.ProjectId,SOIC-8_3.9x4.9_P1.27,534f4943-2d38-45f3-932e-3978342e395f,rev?*
G04 #@! TF.SameCoordinates,Original*
G04 #@! TF.FileFunction,Copper,L1,Top*
G04 #@! TF.FilePolarity,Positive*
%FSLAX46Y46*%
G04 Gerber Fmt 4.6, Leading zero omitted, Abs format (unit mm)*
G04 Created by KiCad (PCBNEW 9.0.6) date 2026-01-08 16:07:39*
%MOMM*%
%LPD*%
G01*
G04 APERTURE LIST*
G04 Aperture macros list*
%AMRoundRect*
0 Rectangle with rounded corners*
0 $1 Rounding radius*
0 $2 $3 $4 $5 $6 $7 $8 $9 X,Y pos of 4 corners*
0 Add a 4 corners polygon primitive as box body*
4,1,4,$2,$3,$4,$5,$6,$7,$8,$9,$2,$3,0*
0 Add four circle primitives for the rounded corners*
1,1,$1+$1,$2,$3*
1,1,$1+$1,$4,$5*
1,1,$1+$1,$6,$7*
1,1,$1+$1,$8,$9*
0 Add four rect primitives between the rounded corners*
20,1,$1+$1,$2,$3,$4,$5,0*
20,1,$1+$1,$4,$5,$6,$7,0*
20,1,$1+$1,$6,$7,$8,$9,0*
20,1,$1+$1,$8,$9,$2,$3,0*%
G04 Aperture macros list end*
G04 #@! TA.AperFunction,ComponentPad*
%ADD10R,1.700000X1.700000*%
G04 #@! TD*
G04 #@! TA.AperFunction,ComponentPad*
%ADD11C,1.700000*%
G04 #@! TD*
G04 #@! TA.AperFunction,SMDPad,CuDef*
%ADD12RoundRect,0.150000X-0.825000X-0.150000X0.825000X-0.150000X0.825000X0.150000X-0.825000X0.150000X0*%
G04 #@! TD*
G04 #@! TA.AperFunction,Conductor*
%ADD13C,0.300000*%
G04 #@! TD*
G04 APERTURE END LIST*
D10*
X119126000Y-94996000D03*
D11*
X119126000Y-97536000D03*
X119126000Y-100076000D03*
X119126000Y-102616000D03*
D12*
X126465250Y-96968500D03*
X126465250Y-98238500D03*
X126465250Y-99508500D03*
X126465250Y-100778500D03*
X131415250Y-100778500D03*
X131415250Y-99508500D03*
X131415250Y-98238500D03*
X131415250Y-96968500D03*
D11*
X134366000Y-102616000D03*
X134366000Y-100076000D03*
X134366000Y-97536001D03*
X134366000Y-94996000D03*
D13*
X119126000Y-100076000D02*
X122174000Y-100076000D01*
X122174000Y-100076000D02*
X122741500Y-99508500D01*
X122741500Y-99508500D02*
X126465250Y-99508500D01*
X132528500Y-99508500D02*
X133096000Y-100076000D01*
X131415250Y-99508500D02*
X132528500Y-99508500D01*
X133096000Y-100076000D02*
X134366000Y-100076000D01*
X131415250Y-96968500D02*
X133387750Y-94996000D01*
X133387750Y-94996000D02*
X134366000Y-94996000D01*
X124271000Y-96968500D02*
X122298500Y-94996000D01*
X124271000Y-96968500D02*
X126465250Y-96968500D01*
X122298500Y-94996000D02*
X119126000Y-94996000D01*
X131415250Y-98238500D02*
X132647500Y-98238500D01*
X133349999Y-97536001D02*
X134366000Y-97536001D01*
X132647500Y-98238500D02*
X133349999Y-97536001D01*
X122876500Y-98238500D02*
X126465250Y-98238500D01*
X122174000Y-97536000D02*
X122876500Y-98238500D01*
X119126000Y-97536000D02*
X122174000Y-97536000D01*
X131415250Y-100778500D02*
X133252750Y-102616000D01*
X122433500Y-102616000D02*
X119126000Y-102616000D01*
X124271000Y-100778500D02*
X122433500Y-102616000D01*
X124271000Y-100778500D02*
X126465250Y-100778500D01*
M02*
