%TF.GenerationSoftware,KiCad,Pcbnew,9.0.6*%
%TF.CreationDate,2026-01-08T15:28:11-06:00*%
%TF.ProjectId,QFN-36_6x6_P0.5,51464e2d-3336-45f3-9678-365f50302e35,rev?*%
%TF.SameCoordinates,Original*%
%TF.FileFunction,Drillmap*%
%TF.FilePolarity,Positive*%
%FSLAX45Y45*%
G04 Gerber Fmt 4.5, Leading zero omitted, Abs format (unit mm)*
G04 Created by KiCad (PCBNEW 9.0.6) date 2026-01-08 15:28:11*
%MOMM*%
%LPD*%
G01*
G04 APERTURE LIST*
%ADD10C,0.050000*%
%ADD11C,0.200000*%
%ADD12C,0.100000*%
G04 APERTURE END LIST*
D10*
X9017000Y-8900442D02*
X11557000Y-8900442D01*
X11557000Y-13980442D01*
X9017000Y-13980442D01*
X9017000Y-8900442D01*
D11*
D12*
X10135579Y-11290742D02*
X10155579Y-11310742D01*
X10155579Y-11290742D02*
X10135579Y-11310742D01*
X10206289Y-11220032D02*
X10226289Y-11240032D01*
X10226289Y-11220032D02*
X10206289Y-11240032D01*
X10206289Y-11361453D02*
X10226289Y-11381453D01*
X10226289Y-11361453D02*
X10206289Y-11381453D01*
X10277000Y-11149321D02*
X10297000Y-11169321D01*
X10297000Y-11149321D02*
X10277000Y-11169321D01*
X10277000Y-11290742D02*
X10297000Y-11310742D01*
X10297000Y-11290742D02*
X10277000Y-11310742D01*
X10277000Y-11432164D02*
X10297000Y-11452164D01*
X10297000Y-11432164D02*
X10277000Y-11452164D01*
X10347711Y-11220032D02*
X10367711Y-11240032D01*
X10367711Y-11220032D02*
X10347711Y-11240032D01*
X10347711Y-11361453D02*
X10367711Y-11381453D01*
X10367711Y-11361453D02*
X10347711Y-11381453D01*
X10418421Y-11290742D02*
X10438421Y-11310742D01*
X10438421Y-11290742D02*
X10418421Y-11310742D01*
X10302000Y-9372600D02*
G75*
G02*
X10272000Y-9372600I-15000J0D01*
G01*
X10272000Y-9372600D02*
G75*
G02*
X10302000Y-9372600I15000J0D01*
G01*
X10302000Y-10830842D02*
G75*
G02*
X10272000Y-10830842I-15000J0D01*
G01*
X10272000Y-10830842D02*
G75*
G02*
X10302000Y-10830842I15000J0D01*
G01*
X10302000Y-11770642D02*
G75*
G02*
X10272000Y-11770642I-15000J0D01*
G01*
X10272000Y-11770642D02*
G75*
G02*
X10302000Y-11770642I15000J0D01*
G01*
X10302000Y-13358142D02*
G75*
G02*
X10272000Y-13358142I-15000J0D01*
G01*
X10272000Y-13358142D02*
G75*
G02*
X10302000Y-13358142I15000J0D01*
G01*
X9144000Y-8967000D02*
X9144000Y-9067000D01*
X9094000Y-9017000D02*
X9194000Y-9017000D01*
X9144000Y-9221000D02*
X9144000Y-9321000D01*
X9094000Y-9271000D02*
X9194000Y-9271000D01*
X9144000Y-9475000D02*
X9144000Y-9575000D01*
X9094000Y-9525000D02*
X9194000Y-9525000D01*
X9144000Y-9729000D02*
X9144000Y-9829000D01*
X9094000Y-9779000D02*
X9194000Y-9779000D01*
X9144000Y-9983000D02*
X9144000Y-10083000D01*
X9094000Y-10033000D02*
X9194000Y-10033000D01*
X9144000Y-10237000D02*
X9144000Y-10337000D01*
X9094000Y-10287000D02*
X9194000Y-10287000D01*
X9144000Y-10491000D02*
X9144000Y-10591000D01*
X9094000Y-10541000D02*
X9194000Y-10541000D01*
X9144000Y-10745000D02*
X9144000Y-10845000D01*
X9094000Y-10795000D02*
X9194000Y-10795000D01*
X9144000Y-10999000D02*
X9144000Y-11099000D01*
X9094000Y-11049000D02*
X9194000Y-11049000D01*
X9144000Y-11253000D02*
X9144000Y-11353000D01*
X9094000Y-11303000D02*
X9194000Y-11303000D01*
X9144000Y-11507000D02*
X9144000Y-11607000D01*
X9094000Y-11557000D02*
X9194000Y-11557000D01*
X9144000Y-11761000D02*
X9144000Y-11861000D01*
X9094000Y-11811000D02*
X9194000Y-11811000D01*
X9144000Y-12015000D02*
X9144000Y-12115000D01*
X9094000Y-12065000D02*
X9194000Y-12065000D01*
X9144000Y-12269000D02*
X9144000Y-12369000D01*
X9094000Y-12319000D02*
X9194000Y-12319000D01*
X9144000Y-12523000D02*
X9144000Y-12623000D01*
X9094000Y-12573000D02*
X9194000Y-12573000D01*
X9144000Y-12777000D02*
X9144000Y-12877000D01*
X9094000Y-12827000D02*
X9194000Y-12827000D01*
X9144000Y-13031000D02*
X9144000Y-13131000D01*
X9094000Y-13081000D02*
X9194000Y-13081000D01*
X9144000Y-13285000D02*
X9144000Y-13385000D01*
X9094000Y-13335000D02*
X9194000Y-13335000D01*
X9144000Y-13539000D02*
X9144000Y-13639000D01*
X9094000Y-13589000D02*
X9194000Y-13589000D01*
X9144000Y-13793000D02*
X9144000Y-13893000D01*
X9094000Y-13843000D02*
X9194000Y-13843000D01*
X11430000Y-8967000D02*
X11430000Y-9067000D01*
X11380000Y-9017000D02*
X11480000Y-9017000D01*
X11430000Y-9221000D02*
X11430000Y-9321000D01*
X11380000Y-9271000D02*
X11480000Y-9271000D01*
X11430000Y-9475000D02*
X11430000Y-9575000D01*
X11380000Y-9525000D02*
X11480000Y-9525000D01*
X11430000Y-9729000D02*
X11430000Y-9829000D01*
X11380000Y-9779000D02*
X11480000Y-9779000D01*
X11430000Y-9983000D02*
X11430000Y-10083000D01*
X11380000Y-10033000D02*
X11480000Y-10033000D01*
X11430000Y-10237000D02*
X11430000Y-10337000D01*
X11380000Y-10287000D02*
X11480000Y-10287000D01*
X11430000Y-10491000D02*
X11430000Y-10591000D01*
X11380000Y-10541000D02*
X11480000Y-10541000D01*
X11430000Y-10745000D02*
X11430000Y-10845000D01*
X11380000Y-10795000D02*
X11480000Y-10795000D01*
X11430000Y-10999000D02*
X11430000Y-11099000D01*
X11380000Y-11049000D02*
X11480000Y-11049000D01*
X11430000Y-11253000D02*
X11430000Y-11353000D01*
X11380000Y-11303000D02*
X11480000Y-11303000D01*
X11430000Y-11507000D02*
X11430000Y-11607000D01*
X11380000Y-11557000D02*
X11480000Y-11557000D01*
X11430000Y-11761000D02*
X11430000Y-11861000D01*
X11380000Y-11811000D02*
X11480000Y-11811000D01*
X11430000Y-12015000D02*
X11430000Y-12115000D01*
X11380000Y-12065000D02*
X11480000Y-12065000D01*
X11430000Y-12269000D02*
X11430000Y-12369000D01*
X11380000Y-12319000D02*
X11480000Y-12319000D01*
X11430000Y-12523000D02*
X11430000Y-12623000D01*
X11380000Y-12573000D02*
X11480000Y-12573000D01*
X11430000Y-12777000D02*
X11430000Y-12877000D01*
X11380000Y-12827000D02*
X11480000Y-12827000D01*
X11430000Y-13031000D02*
X11430000Y-13131000D01*
X11380000Y-13081000D02*
X11480000Y-13081000D01*
X11430000Y-13285000D02*
X11430000Y-13385000D01*
X11380000Y-13335000D02*
X11480000Y-13335000D01*
X11430000Y-13539000D02*
X11430000Y-13639000D01*
X11380000Y-13589000D02*
X11480000Y-13589000D01*
X11430000Y-13793000D02*
X11430000Y-13893000D01*
X11380000Y-13843000D02*
X11480000Y-13843000D01*
D11*
X9275277Y-14294426D02*
X9275277Y-14094426D01*
X9275277Y-14094426D02*
X9322896Y-14094426D01*
X9322896Y-14094426D02*
X9351467Y-14103950D01*
X9351467Y-14103950D02*
X9370515Y-14122998D01*
X9370515Y-14122998D02*
X9380039Y-14142045D01*
X9380039Y-14142045D02*
X9389563Y-14180140D01*
X9389563Y-14180140D02*
X9389563Y-14208712D01*
X9389563Y-14208712D02*
X9380039Y-14246807D01*
X9380039Y-14246807D02*
X9370515Y-14265855D01*
X9370515Y-14265855D02*
X9351467Y-14284902D01*
X9351467Y-14284902D02*
X9322896Y-14294426D01*
X9322896Y-14294426D02*
X9275277Y-14294426D01*
X9475277Y-14294426D02*
X9475277Y-14161093D01*
X9475277Y-14199188D02*
X9484801Y-14180140D01*
X9484801Y-14180140D02*
X9494324Y-14170617D01*
X9494324Y-14170617D02*
X9513372Y-14161093D01*
X9513372Y-14161093D02*
X9532420Y-14161093D01*
X9599086Y-14294426D02*
X9599086Y-14161093D01*
X9599086Y-14094426D02*
X9589563Y-14103950D01*
X9589563Y-14103950D02*
X9599086Y-14113474D01*
X9599086Y-14113474D02*
X9608610Y-14103950D01*
X9608610Y-14103950D02*
X9599086Y-14094426D01*
X9599086Y-14094426D02*
X9599086Y-14113474D01*
X9722896Y-14294426D02*
X9703848Y-14284902D01*
X9703848Y-14284902D02*
X9694324Y-14265855D01*
X9694324Y-14265855D02*
X9694324Y-14094426D01*
X9827658Y-14294426D02*
X9808610Y-14284902D01*
X9808610Y-14284902D02*
X9799086Y-14265855D01*
X9799086Y-14265855D02*
X9799086Y-14094426D01*
X10056229Y-14294426D02*
X10056229Y-14094426D01*
X10056229Y-14094426D02*
X10122896Y-14237283D01*
X10122896Y-14237283D02*
X10189563Y-14094426D01*
X10189563Y-14094426D02*
X10189563Y-14294426D01*
X10370515Y-14294426D02*
X10370515Y-14189664D01*
X10370515Y-14189664D02*
X10360991Y-14170617D01*
X10360991Y-14170617D02*
X10341944Y-14161093D01*
X10341944Y-14161093D02*
X10303848Y-14161093D01*
X10303848Y-14161093D02*
X10284801Y-14170617D01*
X10370515Y-14284902D02*
X10351467Y-14294426D01*
X10351467Y-14294426D02*
X10303848Y-14294426D01*
X10303848Y-14294426D02*
X10284801Y-14284902D01*
X10284801Y-14284902D02*
X10275277Y-14265855D01*
X10275277Y-14265855D02*
X10275277Y-14246807D01*
X10275277Y-14246807D02*
X10284801Y-14227759D01*
X10284801Y-14227759D02*
X10303848Y-14218236D01*
X10303848Y-14218236D02*
X10351467Y-14218236D01*
X10351467Y-14218236D02*
X10370515Y-14208712D01*
X10465753Y-14161093D02*
X10465753Y-14361093D01*
X10465753Y-14170617D02*
X10484801Y-14161093D01*
X10484801Y-14161093D02*
X10522896Y-14161093D01*
X10522896Y-14161093D02*
X10541944Y-14170617D01*
X10541944Y-14170617D02*
X10551467Y-14180140D01*
X10551467Y-14180140D02*
X10560991Y-14199188D01*
X10560991Y-14199188D02*
X10560991Y-14256331D01*
X10560991Y-14256331D02*
X10551467Y-14275378D01*
X10551467Y-14275378D02*
X10541944Y-14284902D01*
X10541944Y-14284902D02*
X10522896Y-14294426D01*
X10522896Y-14294426D02*
X10484801Y-14294426D01*
X10484801Y-14294426D02*
X10465753Y-14284902D01*
X10646705Y-14275378D02*
X10656229Y-14284902D01*
X10656229Y-14284902D02*
X10646705Y-14294426D01*
X10646705Y-14294426D02*
X10637182Y-14284902D01*
X10637182Y-14284902D02*
X10646705Y-14275378D01*
X10646705Y-14275378D02*
X10646705Y-14294426D01*
X10646705Y-14170617D02*
X10656229Y-14180140D01*
X10656229Y-14180140D02*
X10646705Y-14189664D01*
X10646705Y-14189664D02*
X10637182Y-14180140D01*
X10637182Y-14180140D02*
X10646705Y-14170617D01*
X10646705Y-14170617D02*
X10646705Y-14189664D01*
D12*
X8994500Y-14612942D02*
X9014500Y-14632942D01*
X9014500Y-14612942D02*
X8994500Y-14632942D01*
D11*
X9313372Y-14514426D02*
X9332420Y-14514426D01*
X9332420Y-14514426D02*
X9351467Y-14523950D01*
X9351467Y-14523950D02*
X9360991Y-14533474D01*
X9360991Y-14533474D02*
X9370515Y-14552521D01*
X9370515Y-14552521D02*
X9380039Y-14590617D01*
X9380039Y-14590617D02*
X9380039Y-14638236D01*
X9380039Y-14638236D02*
X9370515Y-14676331D01*
X9370515Y-14676331D02*
X9360991Y-14695378D01*
X9360991Y-14695378D02*
X9351467Y-14704902D01*
X9351467Y-14704902D02*
X9332420Y-14714426D01*
X9332420Y-14714426D02*
X9313372Y-14714426D01*
X9313372Y-14714426D02*
X9294324Y-14704902D01*
X9294324Y-14704902D02*
X9284801Y-14695378D01*
X9284801Y-14695378D02*
X9275277Y-14676331D01*
X9275277Y-14676331D02*
X9265753Y-14638236D01*
X9265753Y-14638236D02*
X9265753Y-14590617D01*
X9265753Y-14590617D02*
X9275277Y-14552521D01*
X9275277Y-14552521D02*
X9284801Y-14533474D01*
X9284801Y-14533474D02*
X9294324Y-14523950D01*
X9294324Y-14523950D02*
X9313372Y-14514426D01*
X9465753Y-14695378D02*
X9475277Y-14704902D01*
X9475277Y-14704902D02*
X9465753Y-14714426D01*
X9465753Y-14714426D02*
X9456229Y-14704902D01*
X9456229Y-14704902D02*
X9465753Y-14695378D01*
X9465753Y-14695378D02*
X9465753Y-14714426D01*
X9551467Y-14533474D02*
X9560991Y-14523950D01*
X9560991Y-14523950D02*
X9580039Y-14514426D01*
X9580039Y-14514426D02*
X9627658Y-14514426D01*
X9627658Y-14514426D02*
X9646705Y-14523950D01*
X9646705Y-14523950D02*
X9656229Y-14533474D01*
X9656229Y-14533474D02*
X9665753Y-14552521D01*
X9665753Y-14552521D02*
X9665753Y-14571569D01*
X9665753Y-14571569D02*
X9656229Y-14600140D01*
X9656229Y-14600140D02*
X9541944Y-14714426D01*
X9541944Y-14714426D02*
X9665753Y-14714426D01*
X9789563Y-14514426D02*
X9808610Y-14514426D01*
X9808610Y-14514426D02*
X9827658Y-14523950D01*
X9827658Y-14523950D02*
X9837182Y-14533474D01*
X9837182Y-14533474D02*
X9846705Y-14552521D01*
X9846705Y-14552521D02*
X9856229Y-14590617D01*
X9856229Y-14590617D02*
X9856229Y-14638236D01*
X9856229Y-14638236D02*
X9846705Y-14676331D01*
X9846705Y-14676331D02*
X9837182Y-14695378D01*
X9837182Y-14695378D02*
X9827658Y-14704902D01*
X9827658Y-14704902D02*
X9808610Y-14714426D01*
X9808610Y-14714426D02*
X9789563Y-14714426D01*
X9789563Y-14714426D02*
X9770515Y-14704902D01*
X9770515Y-14704902D02*
X9760991Y-14695378D01*
X9760991Y-14695378D02*
X9751467Y-14676331D01*
X9751467Y-14676331D02*
X9741944Y-14638236D01*
X9741944Y-14638236D02*
X9741944Y-14590617D01*
X9741944Y-14590617D02*
X9751467Y-14552521D01*
X9751467Y-14552521D02*
X9760991Y-14533474D01*
X9760991Y-14533474D02*
X9770515Y-14523950D01*
X9770515Y-14523950D02*
X9789563Y-14514426D01*
X9980039Y-14514426D02*
X9999086Y-14514426D01*
X9999086Y-14514426D02*
X10018134Y-14523950D01*
X10018134Y-14523950D02*
X10027658Y-14533474D01*
X10027658Y-14533474D02*
X10037182Y-14552521D01*
X10037182Y-14552521D02*
X10046705Y-14590617D01*
X10046705Y-14590617D02*
X10046705Y-14638236D01*
X10046705Y-14638236D02*
X10037182Y-14676331D01*
X10037182Y-14676331D02*
X10027658Y-14695378D01*
X10027658Y-14695378D02*
X10018134Y-14704902D01*
X10018134Y-14704902D02*
X9999086Y-14714426D01*
X9999086Y-14714426D02*
X9980039Y-14714426D01*
X9980039Y-14714426D02*
X9960991Y-14704902D01*
X9960991Y-14704902D02*
X9951467Y-14695378D01*
X9951467Y-14695378D02*
X9941944Y-14676331D01*
X9941944Y-14676331D02*
X9932420Y-14638236D01*
X9932420Y-14638236D02*
X9932420Y-14590617D01*
X9932420Y-14590617D02*
X9941944Y-14552521D01*
X9941944Y-14552521D02*
X9951467Y-14533474D01*
X9951467Y-14533474D02*
X9960991Y-14523950D01*
X9960991Y-14523950D02*
X9980039Y-14514426D01*
X10132420Y-14714426D02*
X10132420Y-14581093D01*
X10132420Y-14600140D02*
X10141944Y-14590617D01*
X10141944Y-14590617D02*
X10160991Y-14581093D01*
X10160991Y-14581093D02*
X10189563Y-14581093D01*
X10189563Y-14581093D02*
X10208610Y-14590617D01*
X10208610Y-14590617D02*
X10218134Y-14609664D01*
X10218134Y-14609664D02*
X10218134Y-14714426D01*
X10218134Y-14609664D02*
X10227658Y-14590617D01*
X10227658Y-14590617D02*
X10246705Y-14581093D01*
X10246705Y-14581093D02*
X10275277Y-14581093D01*
X10275277Y-14581093D02*
X10294325Y-14590617D01*
X10294325Y-14590617D02*
X10303848Y-14609664D01*
X10303848Y-14609664D02*
X10303848Y-14714426D01*
X10399086Y-14714426D02*
X10399086Y-14581093D01*
X10399086Y-14600140D02*
X10408610Y-14590617D01*
X10408610Y-14590617D02*
X10427658Y-14581093D01*
X10427658Y-14581093D02*
X10456229Y-14581093D01*
X10456229Y-14581093D02*
X10475277Y-14590617D01*
X10475277Y-14590617D02*
X10484801Y-14609664D01*
X10484801Y-14609664D02*
X10484801Y-14714426D01*
X10484801Y-14609664D02*
X10494325Y-14590617D01*
X10494325Y-14590617D02*
X10513372Y-14581093D01*
X10513372Y-14581093D02*
X10541944Y-14581093D01*
X10541944Y-14581093D02*
X10560991Y-14590617D01*
X10560991Y-14590617D02*
X10570515Y-14609664D01*
X10570515Y-14609664D02*
X10570515Y-14714426D01*
X10960991Y-14504902D02*
X10789563Y-14762045D01*
X11218134Y-14514426D02*
X11237182Y-14514426D01*
X11237182Y-14514426D02*
X11256229Y-14523950D01*
X11256229Y-14523950D02*
X11265753Y-14533474D01*
X11265753Y-14533474D02*
X11275277Y-14552521D01*
X11275277Y-14552521D02*
X11284801Y-14590617D01*
X11284801Y-14590617D02*
X11284801Y-14638236D01*
X11284801Y-14638236D02*
X11275277Y-14676331D01*
X11275277Y-14676331D02*
X11265753Y-14695378D01*
X11265753Y-14695378D02*
X11256229Y-14704902D01*
X11256229Y-14704902D02*
X11237182Y-14714426D01*
X11237182Y-14714426D02*
X11218134Y-14714426D01*
X11218134Y-14714426D02*
X11199086Y-14704902D01*
X11199086Y-14704902D02*
X11189563Y-14695378D01*
X11189563Y-14695378D02*
X11180039Y-14676331D01*
X11180039Y-14676331D02*
X11170515Y-14638236D01*
X11170515Y-14638236D02*
X11170515Y-14590617D01*
X11170515Y-14590617D02*
X11180039Y-14552521D01*
X11180039Y-14552521D02*
X11189563Y-14533474D01*
X11189563Y-14533474D02*
X11199086Y-14523950D01*
X11199086Y-14523950D02*
X11218134Y-14514426D01*
X11370515Y-14695378D02*
X11380039Y-14704902D01*
X11380039Y-14704902D02*
X11370515Y-14714426D01*
X11370515Y-14714426D02*
X11360991Y-14704902D01*
X11360991Y-14704902D02*
X11370515Y-14695378D01*
X11370515Y-14695378D02*
X11370515Y-14714426D01*
X11503848Y-14514426D02*
X11522896Y-14514426D01*
X11522896Y-14514426D02*
X11541944Y-14523950D01*
X11541944Y-14523950D02*
X11551467Y-14533474D01*
X11551467Y-14533474D02*
X11560991Y-14552521D01*
X11560991Y-14552521D02*
X11570515Y-14590617D01*
X11570515Y-14590617D02*
X11570515Y-14638236D01*
X11570515Y-14638236D02*
X11560991Y-14676331D01*
X11560991Y-14676331D02*
X11551467Y-14695378D01*
X11551467Y-14695378D02*
X11541944Y-14704902D01*
X11541944Y-14704902D02*
X11522896Y-14714426D01*
X11522896Y-14714426D02*
X11503848Y-14714426D01*
X11503848Y-14714426D02*
X11484801Y-14704902D01*
X11484801Y-14704902D02*
X11475277Y-14695378D01*
X11475277Y-14695378D02*
X11465753Y-14676331D01*
X11465753Y-14676331D02*
X11456229Y-14638236D01*
X11456229Y-14638236D02*
X11456229Y-14590617D01*
X11456229Y-14590617D02*
X11465753Y-14552521D01*
X11465753Y-14552521D02*
X11475277Y-14533474D01*
X11475277Y-14533474D02*
X11484801Y-14523950D01*
X11484801Y-14523950D02*
X11503848Y-14514426D01*
X11694325Y-14514426D02*
X11713372Y-14514426D01*
X11713372Y-14514426D02*
X11732420Y-14523950D01*
X11732420Y-14523950D02*
X11741944Y-14533474D01*
X11741944Y-14533474D02*
X11751467Y-14552521D01*
X11751467Y-14552521D02*
X11760991Y-14590617D01*
X11760991Y-14590617D02*
X11760991Y-14638236D01*
X11760991Y-14638236D02*
X11751467Y-14676331D01*
X11751467Y-14676331D02*
X11741944Y-14695378D01*
X11741944Y-14695378D02*
X11732420Y-14704902D01*
X11732420Y-14704902D02*
X11713372Y-14714426D01*
X11713372Y-14714426D02*
X11694325Y-14714426D01*
X11694325Y-14714426D02*
X11675277Y-14704902D01*
X11675277Y-14704902D02*
X11665753Y-14695378D01*
X11665753Y-14695378D02*
X11656229Y-14676331D01*
X11656229Y-14676331D02*
X11646706Y-14638236D01*
X11646706Y-14638236D02*
X11646706Y-14590617D01*
X11646706Y-14590617D02*
X11656229Y-14552521D01*
X11656229Y-14552521D02*
X11665753Y-14533474D01*
X11665753Y-14533474D02*
X11675277Y-14523950D01*
X11675277Y-14523950D02*
X11694325Y-14514426D01*
X11827658Y-14514426D02*
X11960991Y-14514426D01*
X11960991Y-14514426D02*
X11875277Y-14714426D01*
X12046706Y-14714426D02*
X12084801Y-14714426D01*
X12084801Y-14714426D02*
X12103848Y-14704902D01*
X12103848Y-14704902D02*
X12113372Y-14695378D01*
X12113372Y-14695378D02*
X12132420Y-14666807D01*
X12132420Y-14666807D02*
X12141944Y-14628712D01*
X12141944Y-14628712D02*
X12141944Y-14552521D01*
X12141944Y-14552521D02*
X12132420Y-14533474D01*
X12132420Y-14533474D02*
X12122896Y-14523950D01*
X12122896Y-14523950D02*
X12103848Y-14514426D01*
X12103848Y-14514426D02*
X12065753Y-14514426D01*
X12065753Y-14514426D02*
X12046706Y-14523950D01*
X12046706Y-14523950D02*
X12037182Y-14533474D01*
X12037182Y-14533474D02*
X12027658Y-14552521D01*
X12027658Y-14552521D02*
X12027658Y-14600140D01*
X12027658Y-14600140D02*
X12037182Y-14619188D01*
X12037182Y-14619188D02*
X12046706Y-14628712D01*
X12046706Y-14628712D02*
X12065753Y-14638236D01*
X12065753Y-14638236D02*
X12103848Y-14638236D01*
X12103848Y-14638236D02*
X12122896Y-14628712D01*
X12122896Y-14628712D02*
X12132420Y-14619188D01*
X12132420Y-14619188D02*
X12141944Y-14600140D01*
X12218134Y-14514426D02*
X12218134Y-14552521D01*
X12294325Y-14514426D02*
X12294325Y-14552521D01*
X12589563Y-14790617D02*
X12580039Y-14781093D01*
X12580039Y-14781093D02*
X12560991Y-14752521D01*
X12560991Y-14752521D02*
X12551468Y-14733474D01*
X12551468Y-14733474D02*
X12541944Y-14704902D01*
X12541944Y-14704902D02*
X12532420Y-14657283D01*
X12532420Y-14657283D02*
X12532420Y-14619188D01*
X12532420Y-14619188D02*
X12541944Y-14571569D01*
X12541944Y-14571569D02*
X12551468Y-14542998D01*
X12551468Y-14542998D02*
X12560991Y-14523950D01*
X12560991Y-14523950D02*
X12580039Y-14495378D01*
X12580039Y-14495378D02*
X12589563Y-14485855D01*
X12675277Y-14714426D02*
X12713372Y-14714426D01*
X12713372Y-14714426D02*
X12732420Y-14704902D01*
X12732420Y-14704902D02*
X12741944Y-14695378D01*
X12741944Y-14695378D02*
X12760991Y-14666807D01*
X12760991Y-14666807D02*
X12770515Y-14628712D01*
X12770515Y-14628712D02*
X12770515Y-14552521D01*
X12770515Y-14552521D02*
X12760991Y-14533474D01*
X12760991Y-14533474D02*
X12751468Y-14523950D01*
X12751468Y-14523950D02*
X12732420Y-14514426D01*
X12732420Y-14514426D02*
X12694325Y-14514426D01*
X12694325Y-14514426D02*
X12675277Y-14523950D01*
X12675277Y-14523950D02*
X12665753Y-14533474D01*
X12665753Y-14533474D02*
X12656229Y-14552521D01*
X12656229Y-14552521D02*
X12656229Y-14600140D01*
X12656229Y-14600140D02*
X12665753Y-14619188D01*
X12665753Y-14619188D02*
X12675277Y-14628712D01*
X12675277Y-14628712D02*
X12694325Y-14638236D01*
X12694325Y-14638236D02*
X12732420Y-14638236D01*
X12732420Y-14638236D02*
X12751468Y-14628712D01*
X12751468Y-14628712D02*
X12760991Y-14619188D01*
X12760991Y-14619188D02*
X12770515Y-14600140D01*
X13008610Y-14714426D02*
X13008610Y-14514426D01*
X13094325Y-14714426D02*
X13094325Y-14609664D01*
X13094325Y-14609664D02*
X13084801Y-14590617D01*
X13084801Y-14590617D02*
X13065753Y-14581093D01*
X13065753Y-14581093D02*
X13037182Y-14581093D01*
X13037182Y-14581093D02*
X13018134Y-14590617D01*
X13018134Y-14590617D02*
X13008610Y-14600140D01*
X13218134Y-14714426D02*
X13199087Y-14704902D01*
X13199087Y-14704902D02*
X13189563Y-14695378D01*
X13189563Y-14695378D02*
X13180039Y-14676331D01*
X13180039Y-14676331D02*
X13180039Y-14619188D01*
X13180039Y-14619188D02*
X13189563Y-14600140D01*
X13189563Y-14600140D02*
X13199087Y-14590617D01*
X13199087Y-14590617D02*
X13218134Y-14581093D01*
X13218134Y-14581093D02*
X13246706Y-14581093D01*
X13246706Y-14581093D02*
X13265753Y-14590617D01*
X13265753Y-14590617D02*
X13275277Y-14600140D01*
X13275277Y-14600140D02*
X13284801Y-14619188D01*
X13284801Y-14619188D02*
X13284801Y-14676331D01*
X13284801Y-14676331D02*
X13275277Y-14695378D01*
X13275277Y-14695378D02*
X13265753Y-14704902D01*
X13265753Y-14704902D02*
X13246706Y-14714426D01*
X13246706Y-14714426D02*
X13218134Y-14714426D01*
X13399087Y-14714426D02*
X13380039Y-14704902D01*
X13380039Y-14704902D02*
X13370515Y-14685855D01*
X13370515Y-14685855D02*
X13370515Y-14514426D01*
X13551468Y-14704902D02*
X13532420Y-14714426D01*
X13532420Y-14714426D02*
X13494325Y-14714426D01*
X13494325Y-14714426D02*
X13475277Y-14704902D01*
X13475277Y-14704902D02*
X13465753Y-14685855D01*
X13465753Y-14685855D02*
X13465753Y-14609664D01*
X13465753Y-14609664D02*
X13475277Y-14590617D01*
X13475277Y-14590617D02*
X13494325Y-14581093D01*
X13494325Y-14581093D02*
X13532420Y-14581093D01*
X13532420Y-14581093D02*
X13551468Y-14590617D01*
X13551468Y-14590617D02*
X13560991Y-14609664D01*
X13560991Y-14609664D02*
X13560991Y-14628712D01*
X13560991Y-14628712D02*
X13465753Y-14647759D01*
X13637182Y-14704902D02*
X13656230Y-14714426D01*
X13656230Y-14714426D02*
X13694325Y-14714426D01*
X13694325Y-14714426D02*
X13713372Y-14704902D01*
X13713372Y-14704902D02*
X13722896Y-14685855D01*
X13722896Y-14685855D02*
X13722896Y-14676331D01*
X13722896Y-14676331D02*
X13713372Y-14657283D01*
X13713372Y-14657283D02*
X13694325Y-14647759D01*
X13694325Y-14647759D02*
X13665753Y-14647759D01*
X13665753Y-14647759D02*
X13646706Y-14638236D01*
X13646706Y-14638236D02*
X13637182Y-14619188D01*
X13637182Y-14619188D02*
X13637182Y-14609664D01*
X13637182Y-14609664D02*
X13646706Y-14590617D01*
X13646706Y-14590617D02*
X13665753Y-14581093D01*
X13665753Y-14581093D02*
X13694325Y-14581093D01*
X13694325Y-14581093D02*
X13713372Y-14590617D01*
X13789563Y-14790617D02*
X13799087Y-14781093D01*
X13799087Y-14781093D02*
X13818134Y-14752521D01*
X13818134Y-14752521D02*
X13827658Y-14733474D01*
X13827658Y-14733474D02*
X13837182Y-14704902D01*
X13837182Y-14704902D02*
X13846706Y-14657283D01*
X13846706Y-14657283D02*
X13846706Y-14619188D01*
X13846706Y-14619188D02*
X13837182Y-14571569D01*
X13837182Y-14571569D02*
X13827658Y-14542998D01*
X13827658Y-14542998D02*
X13818134Y-14523950D01*
X13818134Y-14523950D02*
X13799087Y-14495378D01*
X13799087Y-14495378D02*
X13789563Y-14485855D01*
D12*
X9014500Y-14886942D02*
G75*
G02*
X8984500Y-14886942I-15000J0D01*
G01*
X8984500Y-14886942D02*
G75*
G02*
X9014500Y-14886942I15000J0D01*
G01*
D11*
X9313372Y-14778426D02*
X9332420Y-14778426D01*
X9332420Y-14778426D02*
X9351467Y-14787950D01*
X9351467Y-14787950D02*
X9360991Y-14797474D01*
X9360991Y-14797474D02*
X9370515Y-14816521D01*
X9370515Y-14816521D02*
X9380039Y-14854617D01*
X9380039Y-14854617D02*
X9380039Y-14902236D01*
X9380039Y-14902236D02*
X9370515Y-14940331D01*
X9370515Y-14940331D02*
X9360991Y-14959378D01*
X9360991Y-14959378D02*
X9351467Y-14968902D01*
X9351467Y-14968902D02*
X9332420Y-14978426D01*
X9332420Y-14978426D02*
X9313372Y-14978426D01*
X9313372Y-14978426D02*
X9294324Y-14968902D01*
X9294324Y-14968902D02*
X9284801Y-14959378D01*
X9284801Y-14959378D02*
X9275277Y-14940331D01*
X9275277Y-14940331D02*
X9265753Y-14902236D01*
X9265753Y-14902236D02*
X9265753Y-14854617D01*
X9265753Y-14854617D02*
X9275277Y-14816521D01*
X9275277Y-14816521D02*
X9284801Y-14797474D01*
X9284801Y-14797474D02*
X9294324Y-14787950D01*
X9294324Y-14787950D02*
X9313372Y-14778426D01*
X9465753Y-14959378D02*
X9475277Y-14968902D01*
X9475277Y-14968902D02*
X9465753Y-14978426D01*
X9465753Y-14978426D02*
X9456229Y-14968902D01*
X9456229Y-14968902D02*
X9465753Y-14959378D01*
X9465753Y-14959378D02*
X9465753Y-14978426D01*
X9541944Y-14778426D02*
X9665753Y-14778426D01*
X9665753Y-14778426D02*
X9599086Y-14854617D01*
X9599086Y-14854617D02*
X9627658Y-14854617D01*
X9627658Y-14854617D02*
X9646705Y-14864140D01*
X9646705Y-14864140D02*
X9656229Y-14873664D01*
X9656229Y-14873664D02*
X9665753Y-14892712D01*
X9665753Y-14892712D02*
X9665753Y-14940331D01*
X9665753Y-14940331D02*
X9656229Y-14959378D01*
X9656229Y-14959378D02*
X9646705Y-14968902D01*
X9646705Y-14968902D02*
X9627658Y-14978426D01*
X9627658Y-14978426D02*
X9570515Y-14978426D01*
X9570515Y-14978426D02*
X9551467Y-14968902D01*
X9551467Y-14968902D02*
X9541944Y-14959378D01*
X9789563Y-14778426D02*
X9808610Y-14778426D01*
X9808610Y-14778426D02*
X9827658Y-14787950D01*
X9827658Y-14787950D02*
X9837182Y-14797474D01*
X9837182Y-14797474D02*
X9846705Y-14816521D01*
X9846705Y-14816521D02*
X9856229Y-14854617D01*
X9856229Y-14854617D02*
X9856229Y-14902236D01*
X9856229Y-14902236D02*
X9846705Y-14940331D01*
X9846705Y-14940331D02*
X9837182Y-14959378D01*
X9837182Y-14959378D02*
X9827658Y-14968902D01*
X9827658Y-14968902D02*
X9808610Y-14978426D01*
X9808610Y-14978426D02*
X9789563Y-14978426D01*
X9789563Y-14978426D02*
X9770515Y-14968902D01*
X9770515Y-14968902D02*
X9760991Y-14959378D01*
X9760991Y-14959378D02*
X9751467Y-14940331D01*
X9751467Y-14940331D02*
X9741944Y-14902236D01*
X9741944Y-14902236D02*
X9741944Y-14854617D01*
X9741944Y-14854617D02*
X9751467Y-14816521D01*
X9751467Y-14816521D02*
X9760991Y-14797474D01*
X9760991Y-14797474D02*
X9770515Y-14787950D01*
X9770515Y-14787950D02*
X9789563Y-14778426D01*
X9980039Y-14778426D02*
X9999086Y-14778426D01*
X9999086Y-14778426D02*
X10018134Y-14787950D01*
X10018134Y-14787950D02*
X10027658Y-14797474D01*
X10027658Y-14797474D02*
X10037182Y-14816521D01*
X10037182Y-14816521D02*
X10046705Y-14854617D01*
X10046705Y-14854617D02*
X10046705Y-14902236D01*
X10046705Y-14902236D02*
X10037182Y-14940331D01*
X10037182Y-14940331D02*
X10027658Y-14959378D01*
X10027658Y-14959378D02*
X10018134Y-14968902D01*
X10018134Y-14968902D02*
X9999086Y-14978426D01*
X9999086Y-14978426D02*
X9980039Y-14978426D01*
X9980039Y-14978426D02*
X9960991Y-14968902D01*
X9960991Y-14968902D02*
X9951467Y-14959378D01*
X9951467Y-14959378D02*
X9941944Y-14940331D01*
X9941944Y-14940331D02*
X9932420Y-14902236D01*
X9932420Y-14902236D02*
X9932420Y-14854617D01*
X9932420Y-14854617D02*
X9941944Y-14816521D01*
X9941944Y-14816521D02*
X9951467Y-14797474D01*
X9951467Y-14797474D02*
X9960991Y-14787950D01*
X9960991Y-14787950D02*
X9980039Y-14778426D01*
X10132420Y-14978426D02*
X10132420Y-14845093D01*
X10132420Y-14864140D02*
X10141944Y-14854617D01*
X10141944Y-14854617D02*
X10160991Y-14845093D01*
X10160991Y-14845093D02*
X10189563Y-14845093D01*
X10189563Y-14845093D02*
X10208610Y-14854617D01*
X10208610Y-14854617D02*
X10218134Y-14873664D01*
X10218134Y-14873664D02*
X10218134Y-14978426D01*
X10218134Y-14873664D02*
X10227658Y-14854617D01*
X10227658Y-14854617D02*
X10246705Y-14845093D01*
X10246705Y-14845093D02*
X10275277Y-14845093D01*
X10275277Y-14845093D02*
X10294325Y-14854617D01*
X10294325Y-14854617D02*
X10303848Y-14873664D01*
X10303848Y-14873664D02*
X10303848Y-14978426D01*
X10399086Y-14978426D02*
X10399086Y-14845093D01*
X10399086Y-14864140D02*
X10408610Y-14854617D01*
X10408610Y-14854617D02*
X10427658Y-14845093D01*
X10427658Y-14845093D02*
X10456229Y-14845093D01*
X10456229Y-14845093D02*
X10475277Y-14854617D01*
X10475277Y-14854617D02*
X10484801Y-14873664D01*
X10484801Y-14873664D02*
X10484801Y-14978426D01*
X10484801Y-14873664D02*
X10494325Y-14854617D01*
X10494325Y-14854617D02*
X10513372Y-14845093D01*
X10513372Y-14845093D02*
X10541944Y-14845093D01*
X10541944Y-14845093D02*
X10560991Y-14854617D01*
X10560991Y-14854617D02*
X10570515Y-14873664D01*
X10570515Y-14873664D02*
X10570515Y-14978426D01*
X10960991Y-14768902D02*
X10789563Y-15026045D01*
X11218134Y-14778426D02*
X11237182Y-14778426D01*
X11237182Y-14778426D02*
X11256229Y-14787950D01*
X11256229Y-14787950D02*
X11265753Y-14797474D01*
X11265753Y-14797474D02*
X11275277Y-14816521D01*
X11275277Y-14816521D02*
X11284801Y-14854617D01*
X11284801Y-14854617D02*
X11284801Y-14902236D01*
X11284801Y-14902236D02*
X11275277Y-14940331D01*
X11275277Y-14940331D02*
X11265753Y-14959378D01*
X11265753Y-14959378D02*
X11256229Y-14968902D01*
X11256229Y-14968902D02*
X11237182Y-14978426D01*
X11237182Y-14978426D02*
X11218134Y-14978426D01*
X11218134Y-14978426D02*
X11199086Y-14968902D01*
X11199086Y-14968902D02*
X11189563Y-14959378D01*
X11189563Y-14959378D02*
X11180039Y-14940331D01*
X11180039Y-14940331D02*
X11170515Y-14902236D01*
X11170515Y-14902236D02*
X11170515Y-14854617D01*
X11170515Y-14854617D02*
X11180039Y-14816521D01*
X11180039Y-14816521D02*
X11189563Y-14797474D01*
X11189563Y-14797474D02*
X11199086Y-14787950D01*
X11199086Y-14787950D02*
X11218134Y-14778426D01*
X11370515Y-14959378D02*
X11380039Y-14968902D01*
X11380039Y-14968902D02*
X11370515Y-14978426D01*
X11370515Y-14978426D02*
X11360991Y-14968902D01*
X11360991Y-14968902D02*
X11370515Y-14959378D01*
X11370515Y-14959378D02*
X11370515Y-14978426D01*
X11503848Y-14778426D02*
X11522896Y-14778426D01*
X11522896Y-14778426D02*
X11541944Y-14787950D01*
X11541944Y-14787950D02*
X11551467Y-14797474D01*
X11551467Y-14797474D02*
X11560991Y-14816521D01*
X11560991Y-14816521D02*
X11570515Y-14854617D01*
X11570515Y-14854617D02*
X11570515Y-14902236D01*
X11570515Y-14902236D02*
X11560991Y-14940331D01*
X11560991Y-14940331D02*
X11551467Y-14959378D01*
X11551467Y-14959378D02*
X11541944Y-14968902D01*
X11541944Y-14968902D02*
X11522896Y-14978426D01*
X11522896Y-14978426D02*
X11503848Y-14978426D01*
X11503848Y-14978426D02*
X11484801Y-14968902D01*
X11484801Y-14968902D02*
X11475277Y-14959378D01*
X11475277Y-14959378D02*
X11465753Y-14940331D01*
X11465753Y-14940331D02*
X11456229Y-14902236D01*
X11456229Y-14902236D02*
X11456229Y-14854617D01*
X11456229Y-14854617D02*
X11465753Y-14816521D01*
X11465753Y-14816521D02*
X11475277Y-14797474D01*
X11475277Y-14797474D02*
X11484801Y-14787950D01*
X11484801Y-14787950D02*
X11503848Y-14778426D01*
X11760991Y-14978426D02*
X11646706Y-14978426D01*
X11703848Y-14978426D02*
X11703848Y-14778426D01*
X11703848Y-14778426D02*
X11684801Y-14806998D01*
X11684801Y-14806998D02*
X11665753Y-14826045D01*
X11665753Y-14826045D02*
X11646706Y-14835569D01*
X11951467Y-14978426D02*
X11837182Y-14978426D01*
X11894325Y-14978426D02*
X11894325Y-14778426D01*
X11894325Y-14778426D02*
X11875277Y-14806998D01*
X11875277Y-14806998D02*
X11856229Y-14826045D01*
X11856229Y-14826045D02*
X11837182Y-14835569D01*
X12065753Y-14864140D02*
X12046706Y-14854617D01*
X12046706Y-14854617D02*
X12037182Y-14845093D01*
X12037182Y-14845093D02*
X12027658Y-14826045D01*
X12027658Y-14826045D02*
X12027658Y-14816521D01*
X12027658Y-14816521D02*
X12037182Y-14797474D01*
X12037182Y-14797474D02*
X12046706Y-14787950D01*
X12046706Y-14787950D02*
X12065753Y-14778426D01*
X12065753Y-14778426D02*
X12103848Y-14778426D01*
X12103848Y-14778426D02*
X12122896Y-14787950D01*
X12122896Y-14787950D02*
X12132420Y-14797474D01*
X12132420Y-14797474D02*
X12141944Y-14816521D01*
X12141944Y-14816521D02*
X12141944Y-14826045D01*
X12141944Y-14826045D02*
X12132420Y-14845093D01*
X12132420Y-14845093D02*
X12122896Y-14854617D01*
X12122896Y-14854617D02*
X12103848Y-14864140D01*
X12103848Y-14864140D02*
X12065753Y-14864140D01*
X12065753Y-14864140D02*
X12046706Y-14873664D01*
X12046706Y-14873664D02*
X12037182Y-14883188D01*
X12037182Y-14883188D02*
X12027658Y-14902236D01*
X12027658Y-14902236D02*
X12027658Y-14940331D01*
X12027658Y-14940331D02*
X12037182Y-14959378D01*
X12037182Y-14959378D02*
X12046706Y-14968902D01*
X12046706Y-14968902D02*
X12065753Y-14978426D01*
X12065753Y-14978426D02*
X12103848Y-14978426D01*
X12103848Y-14978426D02*
X12122896Y-14968902D01*
X12122896Y-14968902D02*
X12132420Y-14959378D01*
X12132420Y-14959378D02*
X12141944Y-14940331D01*
X12141944Y-14940331D02*
X12141944Y-14902236D01*
X12141944Y-14902236D02*
X12132420Y-14883188D01*
X12132420Y-14883188D02*
X12122896Y-14873664D01*
X12122896Y-14873664D02*
X12103848Y-14864140D01*
X12218134Y-14778426D02*
X12218134Y-14816521D01*
X12294325Y-14778426D02*
X12294325Y-14816521D01*
X12589563Y-15054617D02*
X12580039Y-15045093D01*
X12580039Y-15045093D02*
X12560991Y-15016521D01*
X12560991Y-15016521D02*
X12551468Y-14997474D01*
X12551468Y-14997474D02*
X12541944Y-14968902D01*
X12541944Y-14968902D02*
X12532420Y-14921283D01*
X12532420Y-14921283D02*
X12532420Y-14883188D01*
X12532420Y-14883188D02*
X12541944Y-14835569D01*
X12541944Y-14835569D02*
X12551468Y-14806998D01*
X12551468Y-14806998D02*
X12560991Y-14787950D01*
X12560991Y-14787950D02*
X12580039Y-14759378D01*
X12580039Y-14759378D02*
X12589563Y-14749855D01*
X12751468Y-14845093D02*
X12751468Y-14978426D01*
X12703848Y-14768902D02*
X12656229Y-14911759D01*
X12656229Y-14911759D02*
X12780039Y-14911759D01*
X13008610Y-14978426D02*
X13008610Y-14778426D01*
X13094325Y-14978426D02*
X13094325Y-14873664D01*
X13094325Y-14873664D02*
X13084801Y-14854617D01*
X13084801Y-14854617D02*
X13065753Y-14845093D01*
X13065753Y-14845093D02*
X13037182Y-14845093D01*
X13037182Y-14845093D02*
X13018134Y-14854617D01*
X13018134Y-14854617D02*
X13008610Y-14864140D01*
X13218134Y-14978426D02*
X13199087Y-14968902D01*
X13199087Y-14968902D02*
X13189563Y-14959378D01*
X13189563Y-14959378D02*
X13180039Y-14940331D01*
X13180039Y-14940331D02*
X13180039Y-14883188D01*
X13180039Y-14883188D02*
X13189563Y-14864140D01*
X13189563Y-14864140D02*
X13199087Y-14854617D01*
X13199087Y-14854617D02*
X13218134Y-14845093D01*
X13218134Y-14845093D02*
X13246706Y-14845093D01*
X13246706Y-14845093D02*
X13265753Y-14854617D01*
X13265753Y-14854617D02*
X13275277Y-14864140D01*
X13275277Y-14864140D02*
X13284801Y-14883188D01*
X13284801Y-14883188D02*
X13284801Y-14940331D01*
X13284801Y-14940331D02*
X13275277Y-14959378D01*
X13275277Y-14959378D02*
X13265753Y-14968902D01*
X13265753Y-14968902D02*
X13246706Y-14978426D01*
X13246706Y-14978426D02*
X13218134Y-14978426D01*
X13399087Y-14978426D02*
X13380039Y-14968902D01*
X13380039Y-14968902D02*
X13370515Y-14949855D01*
X13370515Y-14949855D02*
X13370515Y-14778426D01*
X13551468Y-14968902D02*
X13532420Y-14978426D01*
X13532420Y-14978426D02*
X13494325Y-14978426D01*
X13494325Y-14978426D02*
X13475277Y-14968902D01*
X13475277Y-14968902D02*
X13465753Y-14949855D01*
X13465753Y-14949855D02*
X13465753Y-14873664D01*
X13465753Y-14873664D02*
X13475277Y-14854617D01*
X13475277Y-14854617D02*
X13494325Y-14845093D01*
X13494325Y-14845093D02*
X13532420Y-14845093D01*
X13532420Y-14845093D02*
X13551468Y-14854617D01*
X13551468Y-14854617D02*
X13560991Y-14873664D01*
X13560991Y-14873664D02*
X13560991Y-14892712D01*
X13560991Y-14892712D02*
X13465753Y-14911759D01*
X13637182Y-14968902D02*
X13656230Y-14978426D01*
X13656230Y-14978426D02*
X13694325Y-14978426D01*
X13694325Y-14978426D02*
X13713372Y-14968902D01*
X13713372Y-14968902D02*
X13722896Y-14949855D01*
X13722896Y-14949855D02*
X13722896Y-14940331D01*
X13722896Y-14940331D02*
X13713372Y-14921283D01*
X13713372Y-14921283D02*
X13694325Y-14911759D01*
X13694325Y-14911759D02*
X13665753Y-14911759D01*
X13665753Y-14911759D02*
X13646706Y-14902236D01*
X13646706Y-14902236D02*
X13637182Y-14883188D01*
X13637182Y-14883188D02*
X13637182Y-14873664D01*
X13637182Y-14873664D02*
X13646706Y-14854617D01*
X13646706Y-14854617D02*
X13665753Y-14845093D01*
X13665753Y-14845093D02*
X13694325Y-14845093D01*
X13694325Y-14845093D02*
X13713372Y-14854617D01*
X13789563Y-15054617D02*
X13799087Y-15045093D01*
X13799087Y-15045093D02*
X13818134Y-15016521D01*
X13818134Y-15016521D02*
X13827658Y-14997474D01*
X13827658Y-14997474D02*
X13837182Y-14968902D01*
X13837182Y-14968902D02*
X13846706Y-14921283D01*
X13846706Y-14921283D02*
X13846706Y-14883188D01*
X13846706Y-14883188D02*
X13837182Y-14835569D01*
X13837182Y-14835569D02*
X13827658Y-14806998D01*
X13827658Y-14806998D02*
X13818134Y-14787950D01*
X13818134Y-14787950D02*
X13799087Y-14759378D01*
X13799087Y-14759378D02*
X13789563Y-14749855D01*
D12*
X8964500Y-15100942D02*
X8964500Y-15200942D01*
X8914500Y-15150942D02*
X9014500Y-15150942D01*
D11*
X9380039Y-15242426D02*
X9265753Y-15242426D01*
X9322896Y-15242426D02*
X9322896Y-15042426D01*
X9322896Y-15042426D02*
X9303848Y-15070998D01*
X9303848Y-15070998D02*
X9284801Y-15090045D01*
X9284801Y-15090045D02*
X9265753Y-15099569D01*
X9465753Y-15223378D02*
X9475277Y-15232902D01*
X9475277Y-15232902D02*
X9465753Y-15242426D01*
X9465753Y-15242426D02*
X9456229Y-15232902D01*
X9456229Y-15232902D02*
X9465753Y-15223378D01*
X9465753Y-15223378D02*
X9465753Y-15242426D01*
X9599086Y-15042426D02*
X9618134Y-15042426D01*
X9618134Y-15042426D02*
X9637182Y-15051950D01*
X9637182Y-15051950D02*
X9646705Y-15061474D01*
X9646705Y-15061474D02*
X9656229Y-15080521D01*
X9656229Y-15080521D02*
X9665753Y-15118617D01*
X9665753Y-15118617D02*
X9665753Y-15166236D01*
X9665753Y-15166236D02*
X9656229Y-15204331D01*
X9656229Y-15204331D02*
X9646705Y-15223378D01*
X9646705Y-15223378D02*
X9637182Y-15232902D01*
X9637182Y-15232902D02*
X9618134Y-15242426D01*
X9618134Y-15242426D02*
X9599086Y-15242426D01*
X9599086Y-15242426D02*
X9580039Y-15232902D01*
X9580039Y-15232902D02*
X9570515Y-15223378D01*
X9570515Y-15223378D02*
X9560991Y-15204331D01*
X9560991Y-15204331D02*
X9551467Y-15166236D01*
X9551467Y-15166236D02*
X9551467Y-15118617D01*
X9551467Y-15118617D02*
X9560991Y-15080521D01*
X9560991Y-15080521D02*
X9570515Y-15061474D01*
X9570515Y-15061474D02*
X9580039Y-15051950D01*
X9580039Y-15051950D02*
X9599086Y-15042426D01*
X9789563Y-15042426D02*
X9808610Y-15042426D01*
X9808610Y-15042426D02*
X9827658Y-15051950D01*
X9827658Y-15051950D02*
X9837182Y-15061474D01*
X9837182Y-15061474D02*
X9846705Y-15080521D01*
X9846705Y-15080521D02*
X9856229Y-15118617D01*
X9856229Y-15118617D02*
X9856229Y-15166236D01*
X9856229Y-15166236D02*
X9846705Y-15204331D01*
X9846705Y-15204331D02*
X9837182Y-15223378D01*
X9837182Y-15223378D02*
X9827658Y-15232902D01*
X9827658Y-15232902D02*
X9808610Y-15242426D01*
X9808610Y-15242426D02*
X9789563Y-15242426D01*
X9789563Y-15242426D02*
X9770515Y-15232902D01*
X9770515Y-15232902D02*
X9760991Y-15223378D01*
X9760991Y-15223378D02*
X9751467Y-15204331D01*
X9751467Y-15204331D02*
X9741944Y-15166236D01*
X9741944Y-15166236D02*
X9741944Y-15118617D01*
X9741944Y-15118617D02*
X9751467Y-15080521D01*
X9751467Y-15080521D02*
X9760991Y-15061474D01*
X9760991Y-15061474D02*
X9770515Y-15051950D01*
X9770515Y-15051950D02*
X9789563Y-15042426D01*
X9980039Y-15042426D02*
X9999086Y-15042426D01*
X9999086Y-15042426D02*
X10018134Y-15051950D01*
X10018134Y-15051950D02*
X10027658Y-15061474D01*
X10027658Y-15061474D02*
X10037182Y-15080521D01*
X10037182Y-15080521D02*
X10046705Y-15118617D01*
X10046705Y-15118617D02*
X10046705Y-15166236D01*
X10046705Y-15166236D02*
X10037182Y-15204331D01*
X10037182Y-15204331D02*
X10027658Y-15223378D01*
X10027658Y-15223378D02*
X10018134Y-15232902D01*
X10018134Y-15232902D02*
X9999086Y-15242426D01*
X9999086Y-15242426D02*
X9980039Y-15242426D01*
X9980039Y-15242426D02*
X9960991Y-15232902D01*
X9960991Y-15232902D02*
X9951467Y-15223378D01*
X9951467Y-15223378D02*
X9941944Y-15204331D01*
X9941944Y-15204331D02*
X9932420Y-15166236D01*
X9932420Y-15166236D02*
X9932420Y-15118617D01*
X9932420Y-15118617D02*
X9941944Y-15080521D01*
X9941944Y-15080521D02*
X9951467Y-15061474D01*
X9951467Y-15061474D02*
X9960991Y-15051950D01*
X9960991Y-15051950D02*
X9980039Y-15042426D01*
X10132420Y-15242426D02*
X10132420Y-15109093D01*
X10132420Y-15128140D02*
X10141944Y-15118617D01*
X10141944Y-15118617D02*
X10160991Y-15109093D01*
X10160991Y-15109093D02*
X10189563Y-15109093D01*
X10189563Y-15109093D02*
X10208610Y-15118617D01*
X10208610Y-15118617D02*
X10218134Y-15137664D01*
X10218134Y-15137664D02*
X10218134Y-15242426D01*
X10218134Y-15137664D02*
X10227658Y-15118617D01*
X10227658Y-15118617D02*
X10246705Y-15109093D01*
X10246705Y-15109093D02*
X10275277Y-15109093D01*
X10275277Y-15109093D02*
X10294325Y-15118617D01*
X10294325Y-15118617D02*
X10303848Y-15137664D01*
X10303848Y-15137664D02*
X10303848Y-15242426D01*
X10399086Y-15242426D02*
X10399086Y-15109093D01*
X10399086Y-15128140D02*
X10408610Y-15118617D01*
X10408610Y-15118617D02*
X10427658Y-15109093D01*
X10427658Y-15109093D02*
X10456229Y-15109093D01*
X10456229Y-15109093D02*
X10475277Y-15118617D01*
X10475277Y-15118617D02*
X10484801Y-15137664D01*
X10484801Y-15137664D02*
X10484801Y-15242426D01*
X10484801Y-15137664D02*
X10494325Y-15118617D01*
X10494325Y-15118617D02*
X10513372Y-15109093D01*
X10513372Y-15109093D02*
X10541944Y-15109093D01*
X10541944Y-15109093D02*
X10560991Y-15118617D01*
X10560991Y-15118617D02*
X10570515Y-15137664D01*
X10570515Y-15137664D02*
X10570515Y-15242426D01*
X10960991Y-15032902D02*
X10789563Y-15290045D01*
X11218134Y-15042426D02*
X11237182Y-15042426D01*
X11237182Y-15042426D02*
X11256229Y-15051950D01*
X11256229Y-15051950D02*
X11265753Y-15061474D01*
X11265753Y-15061474D02*
X11275277Y-15080521D01*
X11275277Y-15080521D02*
X11284801Y-15118617D01*
X11284801Y-15118617D02*
X11284801Y-15166236D01*
X11284801Y-15166236D02*
X11275277Y-15204331D01*
X11275277Y-15204331D02*
X11265753Y-15223378D01*
X11265753Y-15223378D02*
X11256229Y-15232902D01*
X11256229Y-15232902D02*
X11237182Y-15242426D01*
X11237182Y-15242426D02*
X11218134Y-15242426D01*
X11218134Y-15242426D02*
X11199086Y-15232902D01*
X11199086Y-15232902D02*
X11189563Y-15223378D01*
X11189563Y-15223378D02*
X11180039Y-15204331D01*
X11180039Y-15204331D02*
X11170515Y-15166236D01*
X11170515Y-15166236D02*
X11170515Y-15118617D01*
X11170515Y-15118617D02*
X11180039Y-15080521D01*
X11180039Y-15080521D02*
X11189563Y-15061474D01*
X11189563Y-15061474D02*
X11199086Y-15051950D01*
X11199086Y-15051950D02*
X11218134Y-15042426D01*
X11370515Y-15223378D02*
X11380039Y-15232902D01*
X11380039Y-15232902D02*
X11370515Y-15242426D01*
X11370515Y-15242426D02*
X11360991Y-15232902D01*
X11360991Y-15232902D02*
X11370515Y-15223378D01*
X11370515Y-15223378D02*
X11370515Y-15242426D01*
X11503848Y-15042426D02*
X11522896Y-15042426D01*
X11522896Y-15042426D02*
X11541944Y-15051950D01*
X11541944Y-15051950D02*
X11551467Y-15061474D01*
X11551467Y-15061474D02*
X11560991Y-15080521D01*
X11560991Y-15080521D02*
X11570515Y-15118617D01*
X11570515Y-15118617D02*
X11570515Y-15166236D01*
X11570515Y-15166236D02*
X11560991Y-15204331D01*
X11560991Y-15204331D02*
X11551467Y-15223378D01*
X11551467Y-15223378D02*
X11541944Y-15232902D01*
X11541944Y-15232902D02*
X11522896Y-15242426D01*
X11522896Y-15242426D02*
X11503848Y-15242426D01*
X11503848Y-15242426D02*
X11484801Y-15232902D01*
X11484801Y-15232902D02*
X11475277Y-15223378D01*
X11475277Y-15223378D02*
X11465753Y-15204331D01*
X11465753Y-15204331D02*
X11456229Y-15166236D01*
X11456229Y-15166236D02*
X11456229Y-15118617D01*
X11456229Y-15118617D02*
X11465753Y-15080521D01*
X11465753Y-15080521D02*
X11475277Y-15061474D01*
X11475277Y-15061474D02*
X11484801Y-15051950D01*
X11484801Y-15051950D02*
X11503848Y-15042426D01*
X11637182Y-15042426D02*
X11760991Y-15042426D01*
X11760991Y-15042426D02*
X11694325Y-15118617D01*
X11694325Y-15118617D02*
X11722896Y-15118617D01*
X11722896Y-15118617D02*
X11741944Y-15128140D01*
X11741944Y-15128140D02*
X11751467Y-15137664D01*
X11751467Y-15137664D02*
X11760991Y-15156712D01*
X11760991Y-15156712D02*
X11760991Y-15204331D01*
X11760991Y-15204331D02*
X11751467Y-15223378D01*
X11751467Y-15223378D02*
X11741944Y-15232902D01*
X11741944Y-15232902D02*
X11722896Y-15242426D01*
X11722896Y-15242426D02*
X11665753Y-15242426D01*
X11665753Y-15242426D02*
X11646706Y-15232902D01*
X11646706Y-15232902D02*
X11637182Y-15223378D01*
X11856229Y-15242426D02*
X11894325Y-15242426D01*
X11894325Y-15242426D02*
X11913372Y-15232902D01*
X11913372Y-15232902D02*
X11922896Y-15223378D01*
X11922896Y-15223378D02*
X11941944Y-15194807D01*
X11941944Y-15194807D02*
X11951467Y-15156712D01*
X11951467Y-15156712D02*
X11951467Y-15080521D01*
X11951467Y-15080521D02*
X11941944Y-15061474D01*
X11941944Y-15061474D02*
X11932420Y-15051950D01*
X11932420Y-15051950D02*
X11913372Y-15042426D01*
X11913372Y-15042426D02*
X11875277Y-15042426D01*
X11875277Y-15042426D02*
X11856229Y-15051950D01*
X11856229Y-15051950D02*
X11846706Y-15061474D01*
X11846706Y-15061474D02*
X11837182Y-15080521D01*
X11837182Y-15080521D02*
X11837182Y-15128140D01*
X11837182Y-15128140D02*
X11846706Y-15147188D01*
X11846706Y-15147188D02*
X11856229Y-15156712D01*
X11856229Y-15156712D02*
X11875277Y-15166236D01*
X11875277Y-15166236D02*
X11913372Y-15166236D01*
X11913372Y-15166236D02*
X11932420Y-15156712D01*
X11932420Y-15156712D02*
X11941944Y-15147188D01*
X11941944Y-15147188D02*
X11951467Y-15128140D01*
X12122896Y-15109093D02*
X12122896Y-15242426D01*
X12075277Y-15032902D02*
X12027658Y-15175759D01*
X12027658Y-15175759D02*
X12151467Y-15175759D01*
X12218134Y-15042426D02*
X12218134Y-15080521D01*
X12294325Y-15042426D02*
X12294325Y-15080521D01*
X12589563Y-15318617D02*
X12580039Y-15309093D01*
X12580039Y-15309093D02*
X12560991Y-15280521D01*
X12560991Y-15280521D02*
X12551468Y-15261474D01*
X12551468Y-15261474D02*
X12541944Y-15232902D01*
X12541944Y-15232902D02*
X12532420Y-15185283D01*
X12532420Y-15185283D02*
X12532420Y-15147188D01*
X12532420Y-15147188D02*
X12541944Y-15099569D01*
X12541944Y-15099569D02*
X12551468Y-15070998D01*
X12551468Y-15070998D02*
X12560991Y-15051950D01*
X12560991Y-15051950D02*
X12580039Y-15023378D01*
X12580039Y-15023378D02*
X12589563Y-15013855D01*
X12751468Y-15109093D02*
X12751468Y-15242426D01*
X12703848Y-15032902D02*
X12656229Y-15175759D01*
X12656229Y-15175759D02*
X12780039Y-15175759D01*
X12894325Y-15042426D02*
X12913372Y-15042426D01*
X12913372Y-15042426D02*
X12932420Y-15051950D01*
X12932420Y-15051950D02*
X12941944Y-15061474D01*
X12941944Y-15061474D02*
X12951468Y-15080521D01*
X12951468Y-15080521D02*
X12960991Y-15118617D01*
X12960991Y-15118617D02*
X12960991Y-15166236D01*
X12960991Y-15166236D02*
X12951468Y-15204331D01*
X12951468Y-15204331D02*
X12941944Y-15223378D01*
X12941944Y-15223378D02*
X12932420Y-15232902D01*
X12932420Y-15232902D02*
X12913372Y-15242426D01*
X12913372Y-15242426D02*
X12894325Y-15242426D01*
X12894325Y-15242426D02*
X12875277Y-15232902D01*
X12875277Y-15232902D02*
X12865753Y-15223378D01*
X12865753Y-15223378D02*
X12856229Y-15204331D01*
X12856229Y-15204331D02*
X12846706Y-15166236D01*
X12846706Y-15166236D02*
X12846706Y-15118617D01*
X12846706Y-15118617D02*
X12856229Y-15080521D01*
X12856229Y-15080521D02*
X12865753Y-15061474D01*
X12865753Y-15061474D02*
X12875277Y-15051950D01*
X12875277Y-15051950D02*
X12894325Y-15042426D01*
X13199087Y-15242426D02*
X13199087Y-15042426D01*
X13284801Y-15242426D02*
X13284801Y-15137664D01*
X13284801Y-15137664D02*
X13275277Y-15118617D01*
X13275277Y-15118617D02*
X13256230Y-15109093D01*
X13256230Y-15109093D02*
X13227658Y-15109093D01*
X13227658Y-15109093D02*
X13208610Y-15118617D01*
X13208610Y-15118617D02*
X13199087Y-15128140D01*
X13408610Y-15242426D02*
X13389563Y-15232902D01*
X13389563Y-15232902D02*
X13380039Y-15223378D01*
X13380039Y-15223378D02*
X13370515Y-15204331D01*
X13370515Y-15204331D02*
X13370515Y-15147188D01*
X13370515Y-15147188D02*
X13380039Y-15128140D01*
X13380039Y-15128140D02*
X13389563Y-15118617D01*
X13389563Y-15118617D02*
X13408610Y-15109093D01*
X13408610Y-15109093D02*
X13437182Y-15109093D01*
X13437182Y-15109093D02*
X13456230Y-15118617D01*
X13456230Y-15118617D02*
X13465753Y-15128140D01*
X13465753Y-15128140D02*
X13475277Y-15147188D01*
X13475277Y-15147188D02*
X13475277Y-15204331D01*
X13475277Y-15204331D02*
X13465753Y-15223378D01*
X13465753Y-15223378D02*
X13456230Y-15232902D01*
X13456230Y-15232902D02*
X13437182Y-15242426D01*
X13437182Y-15242426D02*
X13408610Y-15242426D01*
X13589563Y-15242426D02*
X13570515Y-15232902D01*
X13570515Y-15232902D02*
X13560991Y-15213855D01*
X13560991Y-15213855D02*
X13560991Y-15042426D01*
X13741944Y-15232902D02*
X13722896Y-15242426D01*
X13722896Y-15242426D02*
X13684801Y-15242426D01*
X13684801Y-15242426D02*
X13665753Y-15232902D01*
X13665753Y-15232902D02*
X13656230Y-15213855D01*
X13656230Y-15213855D02*
X13656230Y-15137664D01*
X13656230Y-15137664D02*
X13665753Y-15118617D01*
X13665753Y-15118617D02*
X13684801Y-15109093D01*
X13684801Y-15109093D02*
X13722896Y-15109093D01*
X13722896Y-15109093D02*
X13741944Y-15118617D01*
X13741944Y-15118617D02*
X13751468Y-15137664D01*
X13751468Y-15137664D02*
X13751468Y-15156712D01*
X13751468Y-15156712D02*
X13656230Y-15175759D01*
X13827658Y-15232902D02*
X13846706Y-15242426D01*
X13846706Y-15242426D02*
X13884801Y-15242426D01*
X13884801Y-15242426D02*
X13903849Y-15232902D01*
X13903849Y-15232902D02*
X13913372Y-15213855D01*
X13913372Y-15213855D02*
X13913372Y-15204331D01*
X13913372Y-15204331D02*
X13903849Y-15185283D01*
X13903849Y-15185283D02*
X13884801Y-15175759D01*
X13884801Y-15175759D02*
X13856230Y-15175759D01*
X13856230Y-15175759D02*
X13837182Y-15166236D01*
X13837182Y-15166236D02*
X13827658Y-15147188D01*
X13827658Y-15147188D02*
X13827658Y-15137664D01*
X13827658Y-15137664D02*
X13837182Y-15118617D01*
X13837182Y-15118617D02*
X13856230Y-15109093D01*
X13856230Y-15109093D02*
X13884801Y-15109093D01*
X13884801Y-15109093D02*
X13903849Y-15118617D01*
X13980039Y-15318617D02*
X13989563Y-15309093D01*
X13989563Y-15309093D02*
X14008611Y-15280521D01*
X14008611Y-15280521D02*
X14018134Y-15261474D01*
X14018134Y-15261474D02*
X14027658Y-15232902D01*
X14027658Y-15232902D02*
X14037182Y-15185283D01*
X14037182Y-15185283D02*
X14037182Y-15147188D01*
X14037182Y-15147188D02*
X14027658Y-15099569D01*
X14027658Y-15099569D02*
X14018134Y-15070998D01*
X14018134Y-15070998D02*
X14008611Y-15051950D01*
X14008611Y-15051950D02*
X13989563Y-15023378D01*
X13989563Y-15023378D02*
X13980039Y-15013855D01*
M02*
