G04 #@! TF.GenerationSoftware,KiCad,Pcbnew,9.0.6*
G04 #@! TF.CreationDate,2026-01-08T15:28:10-06:00*
G04 #@! TF.ProjectId,QFN-36_6x6_P0.5,51464e2d-3336-45f3-9678-365f50302e35,rev?*
G04 #@! TF.SameCoordinates,Original*
G04 #@! TF.FileFunction,Copper,L2,Bot*
G04 #@! TF.FilePolarity,Positive*
%FSLAX46Y46*%
G04 Gerber Fmt 4.6, Leading zero omitted, Abs format (unit mm)*
G04 Created by KiCad (PCBNEW 9.0.6) date 2026-01-08 15:28:10*
%MOMM*%
%LPD*%
G01*
G04 APERTURE LIST*
G04 Aperture macros list*
%AMRotRect*
0 Rectangle, with rotation*
0 The origin of the aperture is its center*
0 $1 length*
0 $2 width*
0 $3 Rotation angle, in degrees counterclockwise*
0 Add horizontal line*
21,1,$1,$2,0,0,$3*%
G04 Aperture macros list end*
G04 #@! TA.AperFunction,HeatsinkPad*
%ADD10C,0.500000*%
G04 #@! TD*
G04 #@! TA.AperFunction,HeatsinkPad*
%ADD11RotRect,2.500000X2.500000X315.000000*%
G04 #@! TD*
G04 #@! TA.AperFunction,SMDPad,CuDef*
%ADD12R,2.510000X1.000000*%
G04 #@! TD*
G04 #@! TA.AperFunction,ComponentPad*
%ADD13C,1.700000*%
G04 #@! TD*
G04 #@! TA.AperFunction,ComponentPad*
%ADD14R,1.700000X1.700000*%
G04 #@! TD*
G04 #@! TA.AperFunction,ViaPad*
%ADD15C,0.600000*%
G04 #@! TD*
G04 #@! TA.AperFunction,Conductor*
%ADD16C,0.500000*%
G04 #@! TD*
G04 APERTURE END LIST*
D10*
X102870000Y-111593210D03*
X102162893Y-112300317D03*
X101455786Y-113007424D03*
X103577107Y-112300317D03*
X102870000Y-113007424D03*
D11*
X102870000Y-113007424D03*
D10*
X102162893Y-113714531D03*
X104284214Y-113007424D03*
X103577107Y-113714531D03*
X102870000Y-114421638D03*
D12*
X107565000Y-90165000D03*
X110875000Y-92705000D03*
X107565000Y-95245000D03*
X110875000Y-97785000D03*
X107565000Y-100325000D03*
X110875000Y-102865000D03*
X107565000Y-105405000D03*
X110875000Y-107945000D03*
X107565000Y-110485000D03*
X110875000Y-113025000D03*
X107565000Y-115565000D03*
X110875000Y-118105000D03*
X107565000Y-120645000D03*
X110875000Y-123185000D03*
X107565000Y-125725000D03*
X110875000Y-128265000D03*
X107565000Y-130805000D03*
X110875000Y-133345000D03*
X107565000Y-135885000D03*
X110875000Y-138425000D03*
X98175000Y-90165000D03*
X94865000Y-92705000D03*
X98175000Y-95245000D03*
X94865000Y-97785000D03*
X98175000Y-100325000D03*
X94865000Y-102865000D03*
X98175000Y-105405000D03*
X94865000Y-107945000D03*
X98175000Y-110485000D03*
X94865000Y-113025000D03*
X98175000Y-115565000D03*
X94865000Y-118105000D03*
X98175000Y-120645000D03*
X94865000Y-123185000D03*
X98175000Y-125725000D03*
X94865000Y-128265000D03*
X98175000Y-130805000D03*
X94865000Y-133345000D03*
X98175000Y-135885000D03*
X94865000Y-138425000D03*
D13*
X114300000Y-90170000D03*
X114300000Y-92710000D03*
X114300000Y-95250000D03*
X114300000Y-97790000D03*
X114300000Y-100330000D03*
X114300000Y-102870000D03*
X114300000Y-105410000D03*
X114300000Y-107950000D03*
X114300000Y-110490000D03*
X114300000Y-113030000D03*
X114300000Y-115570000D03*
X114300000Y-118110000D03*
X114300000Y-120650000D03*
X114300000Y-123190000D03*
X114300000Y-125730000D03*
X114300000Y-128270000D03*
X114300000Y-130810000D03*
X114300000Y-133350000D03*
X114300000Y-135890000D03*
X114300000Y-138430000D03*
D14*
X91440000Y-90170000D03*
D13*
X91440000Y-92710000D03*
X91440000Y-95250000D03*
X91440000Y-97790000D03*
X91440000Y-100330000D03*
X91440000Y-102870000D03*
X91440000Y-105410000D03*
X91440000Y-107950000D03*
X91440000Y-110490000D03*
X91440000Y-113030000D03*
X91440000Y-115570000D03*
X91440000Y-118110000D03*
X91440000Y-120650000D03*
X91440000Y-123190000D03*
X91440000Y-125730000D03*
X91440000Y-128270000D03*
X91440000Y-130810000D03*
X91440000Y-133350000D03*
X91440000Y-135890000D03*
X91440000Y-138430000D03*
D15*
X102870000Y-93726000D03*
X102870000Y-133581424D03*
X102870000Y-108308424D03*
X102870000Y-117706424D03*
D16*
X114295000Y-92705000D02*
X114300000Y-92710000D01*
X110875000Y-92705000D02*
X114295000Y-92705000D01*
X107570000Y-95250000D02*
X107565000Y-95245000D01*
X114300000Y-95250000D02*
X107570000Y-95250000D01*
X114300000Y-97790000D02*
X110880000Y-97790000D01*
X110880000Y-97790000D02*
X110875000Y-97785000D01*
X107565000Y-100325000D02*
X114295000Y-100325000D01*
X114295000Y-100325000D02*
X114300000Y-100330000D01*
X114300000Y-102870000D02*
X110880000Y-102870000D01*
X110880000Y-102870000D02*
X110875000Y-102865000D01*
X114295000Y-105405000D02*
X114300000Y-105410000D01*
X107565000Y-105405000D02*
X114295000Y-105405000D01*
X110880000Y-107950000D02*
X110875000Y-107945000D01*
X114300000Y-107950000D02*
X110880000Y-107950000D01*
X114295000Y-110485000D02*
X114300000Y-110490000D01*
X107565000Y-110485000D02*
X114295000Y-110485000D01*
X110880000Y-113030000D02*
X110875000Y-113025000D01*
X114300000Y-113030000D02*
X110880000Y-113030000D01*
X114295000Y-115565000D02*
X114300000Y-115570000D01*
X107565000Y-115565000D02*
X114295000Y-115565000D01*
X114300000Y-118110000D02*
X110880000Y-118110000D01*
X110880000Y-118110000D02*
X110875000Y-118105000D01*
X107565000Y-120645000D02*
X114295000Y-120645000D01*
X114295000Y-120645000D02*
X114300000Y-120650000D01*
X110880000Y-123190000D02*
X110875000Y-123185000D01*
X114300000Y-123190000D02*
X110880000Y-123190000D01*
X114295000Y-125725000D02*
X114300000Y-125730000D01*
X107565000Y-125725000D02*
X114295000Y-125725000D01*
X114300000Y-128270000D02*
X110880000Y-128270000D01*
X110880000Y-128270000D02*
X110875000Y-128265000D01*
X114295000Y-130805000D02*
X114300000Y-130810000D01*
X107565000Y-130805000D02*
X114295000Y-130805000D01*
X110880000Y-133350000D02*
X110875000Y-133345000D01*
X114300000Y-133350000D02*
X110880000Y-133350000D01*
X114295000Y-135885000D02*
X114300000Y-135890000D01*
X107565000Y-135885000D02*
X114295000Y-135885000D01*
X98170000Y-135890000D02*
X98175000Y-135885000D01*
X91440000Y-135890000D02*
X98170000Y-135890000D01*
X91445000Y-133345000D02*
X91440000Y-133350000D01*
X94865000Y-133345000D02*
X91445000Y-133345000D01*
X98170000Y-130810000D02*
X98175000Y-130805000D01*
X91440000Y-130810000D02*
X98170000Y-130810000D01*
X91445000Y-128265000D02*
X91440000Y-128270000D01*
X94865000Y-128265000D02*
X91445000Y-128265000D01*
X98170000Y-125730000D02*
X98175000Y-125725000D01*
X91440000Y-125730000D02*
X98170000Y-125730000D01*
X94865000Y-123185000D02*
X91445000Y-123185000D01*
X91445000Y-123185000D02*
X91440000Y-123190000D01*
X98170000Y-120650000D02*
X98175000Y-120645000D01*
X91440000Y-120650000D02*
X98170000Y-120650000D01*
X91445000Y-118105000D02*
X91440000Y-118110000D01*
X94865000Y-118105000D02*
X91445000Y-118105000D01*
X98170000Y-115570000D02*
X98175000Y-115565000D01*
X91440000Y-115570000D02*
X98170000Y-115570000D01*
X91445000Y-113025000D02*
X91440000Y-113030000D01*
X94865000Y-113025000D02*
X91445000Y-113025000D01*
X98170000Y-110490000D02*
X98175000Y-110485000D01*
X91440000Y-110490000D02*
X98170000Y-110490000D01*
X94865000Y-107945000D02*
X91445000Y-107945000D01*
X91445000Y-107945000D02*
X91440000Y-107950000D01*
X98170000Y-105410000D02*
X98175000Y-105405000D01*
X91440000Y-105410000D02*
X98170000Y-105410000D01*
X91445000Y-138425000D02*
X91440000Y-138430000D01*
X94865000Y-138425000D02*
X91445000Y-138425000D01*
X110875000Y-138425000D02*
X94865000Y-138425000D01*
X110880000Y-138430000D02*
X110875000Y-138425000D01*
X114300000Y-138430000D02*
X110880000Y-138430000D01*
X114295000Y-90165000D02*
X114300000Y-90170000D01*
X107565000Y-90165000D02*
X114295000Y-90165000D01*
X98175000Y-90165000D02*
X107565000Y-90165000D01*
X91445000Y-102865000D02*
X91440000Y-102870000D01*
X94865000Y-102865000D02*
X91445000Y-102865000D01*
X98170000Y-100330000D02*
X98175000Y-100325000D01*
X91440000Y-100330000D02*
X98170000Y-100330000D01*
X91445000Y-97785000D02*
X91440000Y-97790000D01*
X94865000Y-97785000D02*
X91445000Y-97785000D01*
X98170000Y-95250000D02*
X98175000Y-95245000D01*
X91440000Y-95250000D02*
X98170000Y-95250000D01*
X91445000Y-92705000D02*
X91440000Y-92710000D01*
X94865000Y-92705000D02*
X91445000Y-92705000D01*
X98170000Y-90170000D02*
X98175000Y-90165000D01*
X91440000Y-90170000D02*
X98170000Y-90170000D01*
G04 #@! TA.AperFunction,Conductor*
G36*
X115012539Y-89524609D02*
G01*
X115058294Y-89577413D01*
X115069500Y-89628924D01*
X115069500Y-91384028D01*
X115049815Y-91451067D01*
X114997011Y-91496822D01*
X114927853Y-91506766D01*
X114889206Y-91494513D01*
X114818417Y-91458445D01*
X114818414Y-91458444D01*
X114818412Y-91458443D01*
X114616243Y-91392754D01*
X114616241Y-91392753D01*
X114616240Y-91392753D01*
X114454957Y-91367208D01*
X114406287Y-91359500D01*
X114193713Y-91359500D01*
X114145042Y-91367208D01*
X113983760Y-91392753D01*
X113781585Y-91458444D01*
X113592179Y-91554951D01*
X113420213Y-91679890D01*
X113269892Y-91830211D01*
X113216731Y-91903384D01*
X113161401Y-91946051D01*
X113116412Y-91954500D01*
X112629751Y-91954500D01*
X112562712Y-91934815D01*
X112530485Y-91904812D01*
X112487548Y-91847457D01*
X112487546Y-91847454D01*
X112487542Y-91847451D01*
X112372335Y-91761206D01*
X112372328Y-91761202D01*
X112237482Y-91710908D01*
X112237483Y-91710908D01*
X112177883Y-91704501D01*
X112177881Y-91704500D01*
X112177873Y-91704500D01*
X112177864Y-91704500D01*
X109572129Y-91704500D01*
X109572123Y-91704501D01*
X109512516Y-91710908D01*
X109377671Y-91761202D01*
X109377664Y-91761206D01*
X109262455Y-91847452D01*
X109262452Y-91847455D01*
X109176206Y-91962664D01*
X109176202Y-91962671D01*
X109125908Y-92097517D01*
X109119501Y-92157116D01*
X109119501Y-92157123D01*
X109119500Y-92157135D01*
X109119500Y-93252870D01*
X109119501Y-93252876D01*
X109125908Y-93312483D01*
X109176202Y-93447328D01*
X109176206Y-93447335D01*
X109262452Y-93562544D01*
X109262455Y-93562547D01*
X109377664Y-93648793D01*
X109377671Y-93648797D01*
X109512517Y-93699091D01*
X109512516Y-93699091D01*
X109519444Y-93699835D01*
X109572127Y-93705500D01*
X112177872Y-93705499D01*
X112237483Y-93699091D01*
X112372331Y-93648796D01*
X112487546Y-93562546D01*
X112514227Y-93526903D01*
X112530485Y-93505188D01*
X112586419Y-93463318D01*
X112629751Y-93455500D01*
X113109147Y-93455500D01*
X113176186Y-93475185D01*
X113209466Y-93506616D01*
X113269892Y-93589788D01*
X113420213Y-93740109D01*
X113592182Y-93865050D01*
X113600946Y-93869516D01*
X113651742Y-93917491D01*
X113668536Y-93985312D01*
X113645998Y-94051447D01*
X113600946Y-94090484D01*
X113592182Y-94094949D01*
X113420213Y-94219890D01*
X113269892Y-94370211D01*
X113213097Y-94448385D01*
X113157767Y-94491051D01*
X113112779Y-94499500D01*
X109323494Y-94499500D01*
X109256455Y-94479815D01*
X109224228Y-94449811D01*
X109177551Y-94387460D01*
X109177548Y-94387457D01*
X109177546Y-94387454D01*
X109177542Y-94387451D01*
X109062335Y-94301206D01*
X109062328Y-94301202D01*
X108927482Y-94250908D01*
X108927483Y-94250908D01*
X108867883Y-94244501D01*
X108867881Y-94244500D01*
X108867873Y-94244500D01*
X108867864Y-94244500D01*
X106262129Y-94244500D01*
X106262123Y-94244501D01*
X106202516Y-94250908D01*
X106067671Y-94301202D01*
X106067664Y-94301206D01*
X105952455Y-94387452D01*
X105952452Y-94387455D01*
X105866206Y-94502664D01*
X105866202Y-94502671D01*
X105815908Y-94637517D01*
X105809501Y-94697116D01*
X105809501Y-94697123D01*
X105809500Y-94697135D01*
X105809500Y-95792870D01*
X105809501Y-95792876D01*
X105815908Y-95852483D01*
X105866202Y-95987328D01*
X105866206Y-95987335D01*
X105952452Y-96102544D01*
X105952455Y-96102547D01*
X106067664Y-96188793D01*
X106067671Y-96188797D01*
X106202517Y-96239091D01*
X106202516Y-96239091D01*
X106209444Y-96239835D01*
X106262127Y-96245500D01*
X108867872Y-96245499D01*
X108927483Y-96239091D01*
X109062331Y-96188796D01*
X109177546Y-96102546D01*
X109216740Y-96050190D01*
X109272674Y-96008318D01*
X109316007Y-96000500D01*
X113112779Y-96000500D01*
X113179818Y-96020185D01*
X113213097Y-96051615D01*
X113269892Y-96129788D01*
X113420213Y-96280109D01*
X113592182Y-96405050D01*
X113600946Y-96409516D01*
X113651742Y-96457491D01*
X113668536Y-96525312D01*
X113645998Y-96591447D01*
X113600946Y-96630484D01*
X113592182Y-96634949D01*
X113420213Y-96759890D01*
X113269892Y-96910211D01*
X113213097Y-96988385D01*
X113157767Y-97031051D01*
X113112779Y-97039500D01*
X112633494Y-97039500D01*
X112566455Y-97019815D01*
X112534228Y-96989811D01*
X112487551Y-96927460D01*
X112487548Y-96927457D01*
X112487546Y-96927454D01*
X112487542Y-96927451D01*
X112372335Y-96841206D01*
X112372328Y-96841202D01*
X112237482Y-96790908D01*
X112237483Y-96790908D01*
X112177883Y-96784501D01*
X112177881Y-96784500D01*
X112177873Y-96784500D01*
X112177864Y-96784500D01*
X109572129Y-96784500D01*
X109572123Y-96784501D01*
X109512516Y-96790908D01*
X109377671Y-96841202D01*
X109377664Y-96841206D01*
X109262455Y-96927452D01*
X109262452Y-96927455D01*
X109176206Y-97042664D01*
X109176202Y-97042671D01*
X109125908Y-97177517D01*
X109119501Y-97237116D01*
X109119501Y-97237123D01*
X109119500Y-97237135D01*
X109119500Y-98332870D01*
X109119501Y-98332876D01*
X109125908Y-98392483D01*
X109176202Y-98527328D01*
X109176206Y-98527335D01*
X109262452Y-98642544D01*
X109262455Y-98642547D01*
X109377664Y-98728793D01*
X109377671Y-98728797D01*
X109512517Y-98779091D01*
X109512516Y-98779091D01*
X109519444Y-98779835D01*
X109572127Y-98785500D01*
X112177872Y-98785499D01*
X112237483Y-98779091D01*
X112372331Y-98728796D01*
X112487546Y-98642546D01*
X112526740Y-98590190D01*
X112582674Y-98548318D01*
X112626007Y-98540500D01*
X113112779Y-98540500D01*
X113179818Y-98560185D01*
X113213097Y-98591615D01*
X113269892Y-98669788D01*
X113420213Y-98820109D01*
X113592182Y-98945050D01*
X113600946Y-98949516D01*
X113651742Y-98997491D01*
X113668536Y-99065312D01*
X113645998Y-99131447D01*
X113600946Y-99170484D01*
X113592182Y-99174949D01*
X113420213Y-99299890D01*
X113269892Y-99450211D01*
X113216731Y-99523384D01*
X113161401Y-99566051D01*
X113116412Y-99574500D01*
X109319751Y-99574500D01*
X109252712Y-99554815D01*
X109220485Y-99524812D01*
X109177548Y-99467457D01*
X109177546Y-99467454D01*
X109177542Y-99467451D01*
X109062335Y-99381206D01*
X109062328Y-99381202D01*
X108927482Y-99330908D01*
X108927483Y-99330908D01*
X108867883Y-99324501D01*
X108867881Y-99324500D01*
X108867873Y-99324500D01*
X108867864Y-99324500D01*
X106262129Y-99324500D01*
X106262123Y-99324501D01*
X106202516Y-99330908D01*
X106067671Y-99381202D01*
X106067664Y-99381206D01*
X105952455Y-99467452D01*
X105952452Y-99467455D01*
X105866206Y-99582664D01*
X105866202Y-99582671D01*
X105815908Y-99717517D01*
X105809501Y-99777116D01*
X105809501Y-99777123D01*
X105809500Y-99777135D01*
X105809500Y-100872870D01*
X105809501Y-100872876D01*
X105815908Y-100932483D01*
X105866202Y-101067328D01*
X105866206Y-101067335D01*
X105952452Y-101182544D01*
X105952455Y-101182547D01*
X106067664Y-101268793D01*
X106067671Y-101268797D01*
X106202517Y-101319091D01*
X106202516Y-101319091D01*
X106209444Y-101319835D01*
X106262127Y-101325500D01*
X108867872Y-101325499D01*
X108927483Y-101319091D01*
X109062331Y-101268796D01*
X109177546Y-101182546D01*
X109204227Y-101146903D01*
X109220485Y-101125188D01*
X109276419Y-101083318D01*
X109319751Y-101075500D01*
X113109147Y-101075500D01*
X113176186Y-101095185D01*
X113209464Y-101126614D01*
X113213098Y-101131615D01*
X113269892Y-101209788D01*
X113420213Y-101360109D01*
X113592182Y-101485050D01*
X113600946Y-101489516D01*
X113651742Y-101537491D01*
X113668536Y-101605312D01*
X113645998Y-101671447D01*
X113600946Y-101710484D01*
X113592182Y-101714949D01*
X113420213Y-101839890D01*
X113269892Y-101990211D01*
X113213097Y-102068385D01*
X113157767Y-102111051D01*
X113112779Y-102119500D01*
X112633494Y-102119500D01*
X112566455Y-102099815D01*
X112534228Y-102069811D01*
X112487551Y-102007460D01*
X112487548Y-102007457D01*
X112487546Y-102007454D01*
X112487542Y-102007451D01*
X112372335Y-101921206D01*
X112372328Y-101921202D01*
X112237482Y-101870908D01*
X112237483Y-101870908D01*
X112177883Y-101864501D01*
X112177881Y-101864500D01*
X112177873Y-101864500D01*
X112177864Y-101864500D01*
X109572129Y-101864500D01*
X109572123Y-101864501D01*
X109512516Y-101870908D01*
X109377671Y-101921202D01*
X109377664Y-101921206D01*
X109262455Y-102007452D01*
X109262452Y-102007455D01*
X109176206Y-102122664D01*
X109176202Y-102122671D01*
X109125908Y-102257517D01*
X109119501Y-102317116D01*
X109119501Y-102317123D01*
X109119500Y-102317135D01*
X109119500Y-103412870D01*
X109119501Y-103412876D01*
X109125908Y-103472483D01*
X109176202Y-103607328D01*
X109176206Y-103607335D01*
X109262452Y-103722544D01*
X109262455Y-103722547D01*
X109377664Y-103808793D01*
X109377671Y-103808797D01*
X109512517Y-103859091D01*
X109512516Y-103859091D01*
X109519444Y-103859835D01*
X109572127Y-103865500D01*
X112177872Y-103865499D01*
X112237483Y-103859091D01*
X112372331Y-103808796D01*
X112487546Y-103722546D01*
X112526740Y-103670190D01*
X112582674Y-103628318D01*
X112626007Y-103620500D01*
X113112779Y-103620500D01*
X113179818Y-103640185D01*
X113213097Y-103671615D01*
X113269892Y-103749788D01*
X113420213Y-103900109D01*
X113592182Y-104025050D01*
X113600946Y-104029516D01*
X113651742Y-104077491D01*
X113668536Y-104145312D01*
X113645998Y-104211447D01*
X113600946Y-104250484D01*
X113592182Y-104254949D01*
X113420213Y-104379890D01*
X113269892Y-104530211D01*
X113216731Y-104603384D01*
X113161401Y-104646051D01*
X113116412Y-104654500D01*
X109319751Y-104654500D01*
X109252712Y-104634815D01*
X109220485Y-104604812D01*
X109177548Y-104547457D01*
X109177546Y-104547454D01*
X109177542Y-104547451D01*
X109062335Y-104461206D01*
X109062328Y-104461202D01*
X108927482Y-104410908D01*
X108927483Y-104410908D01*
X108867883Y-104404501D01*
X108867881Y-104404500D01*
X108867873Y-104404500D01*
X108867864Y-104404500D01*
X106262129Y-104404500D01*
X106262123Y-104404501D01*
X106202516Y-104410908D01*
X106067671Y-104461202D01*
X106067664Y-104461206D01*
X105952455Y-104547452D01*
X105952452Y-104547455D01*
X105866206Y-104662664D01*
X105866202Y-104662671D01*
X105815908Y-104797517D01*
X105809501Y-104857116D01*
X105809501Y-104857123D01*
X105809500Y-104857135D01*
X105809500Y-105952870D01*
X105809501Y-105952876D01*
X105815908Y-106012483D01*
X105866202Y-106147328D01*
X105866206Y-106147335D01*
X105952452Y-106262544D01*
X105952455Y-106262547D01*
X106067664Y-106348793D01*
X106067671Y-106348797D01*
X106202517Y-106399091D01*
X106202516Y-106399091D01*
X106209444Y-106399835D01*
X106262127Y-106405500D01*
X108867872Y-106405499D01*
X108927483Y-106399091D01*
X109062331Y-106348796D01*
X109177546Y-106262546D01*
X109204227Y-106226903D01*
X109220485Y-106205188D01*
X109276419Y-106163318D01*
X109319751Y-106155500D01*
X113109147Y-106155500D01*
X113176186Y-106175185D01*
X113209464Y-106206614D01*
X113213098Y-106211615D01*
X113269892Y-106289788D01*
X113420213Y-106440109D01*
X113592182Y-106565050D01*
X113600946Y-106569516D01*
X113651742Y-106617491D01*
X113668536Y-106685312D01*
X113645998Y-106751447D01*
X113600946Y-106790484D01*
X113592182Y-106794949D01*
X113420213Y-106919890D01*
X113269892Y-107070211D01*
X113213097Y-107148385D01*
X113157767Y-107191051D01*
X113112779Y-107199500D01*
X112633494Y-107199500D01*
X112566455Y-107179815D01*
X112534228Y-107149811D01*
X112487551Y-107087460D01*
X112487548Y-107087457D01*
X112487546Y-107087454D01*
X112487542Y-107087451D01*
X112372335Y-107001206D01*
X112372328Y-107001202D01*
X112237482Y-106950908D01*
X112237483Y-106950908D01*
X112177883Y-106944501D01*
X112177881Y-106944500D01*
X112177873Y-106944500D01*
X112177864Y-106944500D01*
X109572129Y-106944500D01*
X109572123Y-106944501D01*
X109512516Y-106950908D01*
X109377671Y-107001202D01*
X109377664Y-107001206D01*
X109262455Y-107087452D01*
X109262452Y-107087455D01*
X109176206Y-107202664D01*
X109176202Y-107202671D01*
X109125908Y-107337517D01*
X109119501Y-107397116D01*
X109119501Y-107397123D01*
X109119500Y-107397135D01*
X109119500Y-108492870D01*
X109119501Y-108492876D01*
X109125908Y-108552483D01*
X109176202Y-108687328D01*
X109176206Y-108687335D01*
X109262452Y-108802544D01*
X109262455Y-108802547D01*
X109377664Y-108888793D01*
X109377671Y-108888797D01*
X109512517Y-108939091D01*
X109512516Y-108939091D01*
X109519444Y-108939835D01*
X109572127Y-108945500D01*
X112177872Y-108945499D01*
X112237483Y-108939091D01*
X112372331Y-108888796D01*
X112487546Y-108802546D01*
X112526740Y-108750190D01*
X112582674Y-108708318D01*
X112626007Y-108700500D01*
X113112779Y-108700500D01*
X113179818Y-108720185D01*
X113213097Y-108751615D01*
X113269892Y-108829788D01*
X113420213Y-108980109D01*
X113592182Y-109105050D01*
X113600946Y-109109516D01*
X113651742Y-109157491D01*
X113668536Y-109225312D01*
X113645998Y-109291447D01*
X113600946Y-109330484D01*
X113592182Y-109334949D01*
X113420213Y-109459890D01*
X113269892Y-109610211D01*
X113216731Y-109683384D01*
X113161401Y-109726051D01*
X113116412Y-109734500D01*
X109319751Y-109734500D01*
X109252712Y-109714815D01*
X109220485Y-109684812D01*
X109177548Y-109627457D01*
X109177546Y-109627454D01*
X109177542Y-109627451D01*
X109062335Y-109541206D01*
X109062328Y-109541202D01*
X108927482Y-109490908D01*
X108927483Y-109490908D01*
X108867883Y-109484501D01*
X108867881Y-109484500D01*
X108867873Y-109484500D01*
X108867864Y-109484500D01*
X106262129Y-109484500D01*
X106262123Y-109484501D01*
X106202516Y-109490908D01*
X106067671Y-109541202D01*
X106067664Y-109541206D01*
X105952455Y-109627452D01*
X105952452Y-109627455D01*
X105866206Y-109742664D01*
X105866202Y-109742671D01*
X105815908Y-109877517D01*
X105809501Y-109937116D01*
X105809501Y-109937123D01*
X105809500Y-109937135D01*
X105809500Y-111032870D01*
X105809501Y-111032876D01*
X105815908Y-111092483D01*
X105866202Y-111227328D01*
X105866206Y-111227335D01*
X105952452Y-111342544D01*
X105952455Y-111342547D01*
X106067664Y-111428793D01*
X106067671Y-111428797D01*
X106202517Y-111479091D01*
X106202516Y-111479091D01*
X106209444Y-111479835D01*
X106262127Y-111485500D01*
X108867872Y-111485499D01*
X108927483Y-111479091D01*
X109062331Y-111428796D01*
X109177546Y-111342546D01*
X109204227Y-111306903D01*
X109220485Y-111285188D01*
X109276419Y-111243318D01*
X109319751Y-111235500D01*
X113109147Y-111235500D01*
X113176186Y-111255185D01*
X113209464Y-111286614D01*
X113213098Y-111291615D01*
X113269892Y-111369788D01*
X113420213Y-111520109D01*
X113592182Y-111645050D01*
X113600946Y-111649516D01*
X113651742Y-111697491D01*
X113668536Y-111765312D01*
X113645998Y-111831447D01*
X113600946Y-111870484D01*
X113592182Y-111874949D01*
X113420213Y-111999890D01*
X113269892Y-112150211D01*
X113213097Y-112228385D01*
X113157767Y-112271051D01*
X113112779Y-112279500D01*
X112633494Y-112279500D01*
X112566455Y-112259815D01*
X112534228Y-112229811D01*
X112487551Y-112167460D01*
X112487548Y-112167457D01*
X112487546Y-112167454D01*
X112487542Y-112167451D01*
X112372335Y-112081206D01*
X112372328Y-112081202D01*
X112237482Y-112030908D01*
X112237483Y-112030908D01*
X112177883Y-112024501D01*
X112177881Y-112024500D01*
X112177873Y-112024500D01*
X112177864Y-112024500D01*
X109572129Y-112024500D01*
X109572123Y-112024501D01*
X109512516Y-112030908D01*
X109377671Y-112081202D01*
X109377664Y-112081206D01*
X109262455Y-112167452D01*
X109262452Y-112167455D01*
X109176206Y-112282664D01*
X109176202Y-112282671D01*
X109125908Y-112417517D01*
X109119501Y-112477116D01*
X109119501Y-112477123D01*
X109119500Y-112477135D01*
X109119500Y-113572870D01*
X109119501Y-113572876D01*
X109125908Y-113632483D01*
X109176202Y-113767328D01*
X109176206Y-113767335D01*
X109262452Y-113882544D01*
X109262455Y-113882547D01*
X109377664Y-113968793D01*
X109377671Y-113968797D01*
X109512517Y-114019091D01*
X109512516Y-114019091D01*
X109519444Y-114019835D01*
X109572127Y-114025500D01*
X112177872Y-114025499D01*
X112237483Y-114019091D01*
X112372331Y-113968796D01*
X112487546Y-113882546D01*
X112526740Y-113830190D01*
X112582674Y-113788318D01*
X112626007Y-113780500D01*
X113112779Y-113780500D01*
X113179818Y-113800185D01*
X113213097Y-113831615D01*
X113269892Y-113909788D01*
X113420213Y-114060109D01*
X113592182Y-114185050D01*
X113600946Y-114189516D01*
X113651742Y-114237491D01*
X113668536Y-114305312D01*
X113645998Y-114371447D01*
X113600946Y-114410484D01*
X113592182Y-114414949D01*
X113420213Y-114539890D01*
X113269892Y-114690211D01*
X113216731Y-114763384D01*
X113161401Y-114806051D01*
X113116412Y-114814500D01*
X109319751Y-114814500D01*
X109252712Y-114794815D01*
X109220485Y-114764812D01*
X109177548Y-114707457D01*
X109177546Y-114707454D01*
X109177542Y-114707451D01*
X109062335Y-114621206D01*
X109062328Y-114621202D01*
X108927482Y-114570908D01*
X108927483Y-114570908D01*
X108867883Y-114564501D01*
X108867881Y-114564500D01*
X108867873Y-114564500D01*
X108867864Y-114564500D01*
X106262129Y-114564500D01*
X106262123Y-114564501D01*
X106202516Y-114570908D01*
X106067671Y-114621202D01*
X106067664Y-114621206D01*
X105952455Y-114707452D01*
X105952452Y-114707455D01*
X105866206Y-114822664D01*
X105866202Y-114822671D01*
X105815908Y-114957517D01*
X105809501Y-115017116D01*
X105809501Y-115017123D01*
X105809500Y-115017135D01*
X105809500Y-116112870D01*
X105809501Y-116112876D01*
X105815908Y-116172483D01*
X105866202Y-116307328D01*
X105866206Y-116307335D01*
X105952452Y-116422544D01*
X105952455Y-116422547D01*
X106067664Y-116508793D01*
X106067671Y-116508797D01*
X106202517Y-116559091D01*
X106202516Y-116559091D01*
X106209444Y-116559835D01*
X106262127Y-116565500D01*
X108867872Y-116565499D01*
X108927483Y-116559091D01*
X109062331Y-116508796D01*
X109177546Y-116422546D01*
X109204227Y-116386903D01*
X109220485Y-116365188D01*
X109276419Y-116323318D01*
X109319751Y-116315500D01*
X113109147Y-116315500D01*
X113176186Y-116335185D01*
X113209464Y-116366614D01*
X113213098Y-116371615D01*
X113269892Y-116449788D01*
X113420213Y-116600109D01*
X113592182Y-116725050D01*
X113600946Y-116729516D01*
X113651742Y-116777491D01*
X113668536Y-116845312D01*
X113645998Y-116911447D01*
X113600946Y-116950484D01*
X113592182Y-116954949D01*
X113420213Y-117079890D01*
X113269892Y-117230211D01*
X113213097Y-117308385D01*
X113157767Y-117351051D01*
X113112779Y-117359500D01*
X112633494Y-117359500D01*
X112566455Y-117339815D01*
X112534228Y-117309811D01*
X112487551Y-117247460D01*
X112487548Y-117247457D01*
X112487546Y-117247454D01*
X112487542Y-117247451D01*
X112372335Y-117161206D01*
X112372328Y-117161202D01*
X112237482Y-117110908D01*
X112237483Y-117110908D01*
X112177883Y-117104501D01*
X112177881Y-117104500D01*
X112177873Y-117104500D01*
X112177864Y-117104500D01*
X109572129Y-117104500D01*
X109572123Y-117104501D01*
X109512516Y-117110908D01*
X109377671Y-117161202D01*
X109377664Y-117161206D01*
X109262455Y-117247452D01*
X109262452Y-117247455D01*
X109176206Y-117362664D01*
X109176202Y-117362671D01*
X109125908Y-117497517D01*
X109119501Y-117557116D01*
X109119501Y-117557123D01*
X109119500Y-117557135D01*
X109119500Y-118652870D01*
X109119501Y-118652876D01*
X109125908Y-118712483D01*
X109176202Y-118847328D01*
X109176206Y-118847335D01*
X109262452Y-118962544D01*
X109262455Y-118962547D01*
X109377664Y-119048793D01*
X109377671Y-119048797D01*
X109512517Y-119099091D01*
X109512516Y-119099091D01*
X109519444Y-119099835D01*
X109572127Y-119105500D01*
X112177872Y-119105499D01*
X112237483Y-119099091D01*
X112372331Y-119048796D01*
X112487546Y-118962546D01*
X112526740Y-118910190D01*
X112582674Y-118868318D01*
X112626007Y-118860500D01*
X113112779Y-118860500D01*
X113179818Y-118880185D01*
X113213097Y-118911615D01*
X113269892Y-118989788D01*
X113420213Y-119140109D01*
X113592182Y-119265050D01*
X113600946Y-119269516D01*
X113651742Y-119317491D01*
X113668536Y-119385312D01*
X113645998Y-119451447D01*
X113600946Y-119490484D01*
X113592182Y-119494949D01*
X113420213Y-119619890D01*
X113269892Y-119770211D01*
X113216731Y-119843384D01*
X113161401Y-119886051D01*
X113116412Y-119894500D01*
X109319751Y-119894500D01*
X109252712Y-119874815D01*
X109220485Y-119844812D01*
X109177548Y-119787457D01*
X109177546Y-119787454D01*
X109177542Y-119787451D01*
X109062335Y-119701206D01*
X109062328Y-119701202D01*
X108927482Y-119650908D01*
X108927483Y-119650908D01*
X108867883Y-119644501D01*
X108867881Y-119644500D01*
X108867873Y-119644500D01*
X108867864Y-119644500D01*
X106262129Y-119644500D01*
X106262123Y-119644501D01*
X106202516Y-119650908D01*
X106067671Y-119701202D01*
X106067664Y-119701206D01*
X105952455Y-119787452D01*
X105952452Y-119787455D01*
X105866206Y-119902664D01*
X105866202Y-119902671D01*
X105815908Y-120037517D01*
X105809501Y-120097116D01*
X105809501Y-120097123D01*
X105809500Y-120097135D01*
X105809500Y-121192870D01*
X105809501Y-121192876D01*
X105815908Y-121252483D01*
X105866202Y-121387328D01*
X105866206Y-121387335D01*
X105952452Y-121502544D01*
X105952455Y-121502547D01*
X106067664Y-121588793D01*
X106067671Y-121588797D01*
X106202517Y-121639091D01*
X106202516Y-121639091D01*
X106209444Y-121639835D01*
X106262127Y-121645500D01*
X108867872Y-121645499D01*
X108927483Y-121639091D01*
X109062331Y-121588796D01*
X109177546Y-121502546D01*
X109204227Y-121466903D01*
X109220485Y-121445188D01*
X109276419Y-121403318D01*
X109319751Y-121395500D01*
X113109147Y-121395500D01*
X113176186Y-121415185D01*
X113209464Y-121446614D01*
X113213098Y-121451615D01*
X113269892Y-121529788D01*
X113420213Y-121680109D01*
X113592182Y-121805050D01*
X113600946Y-121809516D01*
X113651742Y-121857491D01*
X113668536Y-121925312D01*
X113645998Y-121991447D01*
X113600946Y-122030484D01*
X113592182Y-122034949D01*
X113420213Y-122159890D01*
X113269892Y-122310211D01*
X113213097Y-122388385D01*
X113157767Y-122431051D01*
X113112779Y-122439500D01*
X112633494Y-122439500D01*
X112566455Y-122419815D01*
X112534228Y-122389811D01*
X112487551Y-122327460D01*
X112487548Y-122327457D01*
X112487546Y-122327454D01*
X112487542Y-122327451D01*
X112372335Y-122241206D01*
X112372328Y-122241202D01*
X112237482Y-122190908D01*
X112237483Y-122190908D01*
X112177883Y-122184501D01*
X112177881Y-122184500D01*
X112177873Y-122184500D01*
X112177864Y-122184500D01*
X109572129Y-122184500D01*
X109572123Y-122184501D01*
X109512516Y-122190908D01*
X109377671Y-122241202D01*
X109377664Y-122241206D01*
X109262455Y-122327452D01*
X109262452Y-122327455D01*
X109176206Y-122442664D01*
X109176202Y-122442671D01*
X109125908Y-122577517D01*
X109119501Y-122637116D01*
X109119501Y-122637123D01*
X109119500Y-122637135D01*
X109119500Y-123732870D01*
X109119501Y-123732876D01*
X109125908Y-123792483D01*
X109176202Y-123927328D01*
X109176206Y-123927335D01*
X109262452Y-124042544D01*
X109262455Y-124042547D01*
X109377664Y-124128793D01*
X109377671Y-124128797D01*
X109512517Y-124179091D01*
X109512516Y-124179091D01*
X109519444Y-124179835D01*
X109572127Y-124185500D01*
X112177872Y-124185499D01*
X112237483Y-124179091D01*
X112372331Y-124128796D01*
X112487546Y-124042546D01*
X112526740Y-123990190D01*
X112582674Y-123948318D01*
X112626007Y-123940500D01*
X113112779Y-123940500D01*
X113179818Y-123960185D01*
X113213097Y-123991615D01*
X113269892Y-124069788D01*
X113420213Y-124220109D01*
X113592182Y-124345050D01*
X113600946Y-124349516D01*
X113651742Y-124397491D01*
X113668536Y-124465312D01*
X113645998Y-124531447D01*
X113600946Y-124570484D01*
X113592182Y-124574949D01*
X113420213Y-124699890D01*
X113269892Y-124850211D01*
X113216731Y-124923384D01*
X113161401Y-124966051D01*
X113116412Y-124974500D01*
X109319751Y-124974500D01*
X109252712Y-124954815D01*
X109220485Y-124924812D01*
X109177548Y-124867457D01*
X109177546Y-124867454D01*
X109177542Y-124867451D01*
X109062335Y-124781206D01*
X109062328Y-124781202D01*
X108927482Y-124730908D01*
X108927483Y-124730908D01*
X108867883Y-124724501D01*
X108867881Y-124724500D01*
X108867873Y-124724500D01*
X108867864Y-124724500D01*
X106262129Y-124724500D01*
X106262123Y-124724501D01*
X106202516Y-124730908D01*
X106067671Y-124781202D01*
X106067664Y-124781206D01*
X105952455Y-124867452D01*
X105952452Y-124867455D01*
X105866206Y-124982664D01*
X105866202Y-124982671D01*
X105815908Y-125117517D01*
X105809501Y-125177116D01*
X105809501Y-125177123D01*
X105809500Y-125177135D01*
X105809500Y-126272870D01*
X105809501Y-126272876D01*
X105815908Y-126332483D01*
X105866202Y-126467328D01*
X105866206Y-126467335D01*
X105952452Y-126582544D01*
X105952455Y-126582547D01*
X106067664Y-126668793D01*
X106067671Y-126668797D01*
X106202517Y-126719091D01*
X106202516Y-126719091D01*
X106209444Y-126719835D01*
X106262127Y-126725500D01*
X108867872Y-126725499D01*
X108927483Y-126719091D01*
X109062331Y-126668796D01*
X109177546Y-126582546D01*
X109204227Y-126546903D01*
X109220485Y-126525188D01*
X109276419Y-126483318D01*
X109319751Y-126475500D01*
X113109147Y-126475500D01*
X113176186Y-126495185D01*
X113209464Y-126526614D01*
X113213098Y-126531615D01*
X113269892Y-126609788D01*
X113420213Y-126760109D01*
X113592182Y-126885050D01*
X113600946Y-126889516D01*
X113651742Y-126937491D01*
X113668536Y-127005312D01*
X113645998Y-127071447D01*
X113600946Y-127110484D01*
X113592182Y-127114949D01*
X113420213Y-127239890D01*
X113269892Y-127390211D01*
X113213097Y-127468385D01*
X113157767Y-127511051D01*
X113112779Y-127519500D01*
X112633494Y-127519500D01*
X112566455Y-127499815D01*
X112534228Y-127469811D01*
X112487551Y-127407460D01*
X112487548Y-127407457D01*
X112487546Y-127407454D01*
X112487542Y-127407451D01*
X112372335Y-127321206D01*
X112372328Y-127321202D01*
X112237482Y-127270908D01*
X112237483Y-127270908D01*
X112177883Y-127264501D01*
X112177881Y-127264500D01*
X112177873Y-127264500D01*
X112177864Y-127264500D01*
X109572129Y-127264500D01*
X109572123Y-127264501D01*
X109512516Y-127270908D01*
X109377671Y-127321202D01*
X109377664Y-127321206D01*
X109262455Y-127407452D01*
X109262452Y-127407455D01*
X109176206Y-127522664D01*
X109176202Y-127522671D01*
X109125908Y-127657517D01*
X109119501Y-127717116D01*
X109119501Y-127717123D01*
X109119500Y-127717135D01*
X109119500Y-128812870D01*
X109119501Y-128812876D01*
X109125908Y-128872483D01*
X109176202Y-129007328D01*
X109176206Y-129007335D01*
X109262452Y-129122544D01*
X109262455Y-129122547D01*
X109377664Y-129208793D01*
X109377671Y-129208797D01*
X109512517Y-129259091D01*
X109512516Y-129259091D01*
X109519444Y-129259835D01*
X109572127Y-129265500D01*
X112177872Y-129265499D01*
X112237483Y-129259091D01*
X112372331Y-129208796D01*
X112487546Y-129122546D01*
X112526740Y-129070190D01*
X112582674Y-129028318D01*
X112626007Y-129020500D01*
X113112779Y-129020500D01*
X113179818Y-129040185D01*
X113213097Y-129071615D01*
X113269892Y-129149788D01*
X113420213Y-129300109D01*
X113592182Y-129425050D01*
X113600946Y-129429516D01*
X113651742Y-129477491D01*
X113668536Y-129545312D01*
X113645998Y-129611447D01*
X113600946Y-129650484D01*
X113592182Y-129654949D01*
X113420213Y-129779890D01*
X113269892Y-129930211D01*
X113216731Y-130003384D01*
X113161401Y-130046051D01*
X113116412Y-130054500D01*
X109319751Y-130054500D01*
X109252712Y-130034815D01*
X109220485Y-130004812D01*
X109177548Y-129947457D01*
X109177546Y-129947454D01*
X109177542Y-129947451D01*
X109062335Y-129861206D01*
X109062328Y-129861202D01*
X108927482Y-129810908D01*
X108927483Y-129810908D01*
X108867883Y-129804501D01*
X108867881Y-129804500D01*
X108867873Y-129804500D01*
X108867864Y-129804500D01*
X106262129Y-129804500D01*
X106262123Y-129804501D01*
X106202516Y-129810908D01*
X106067671Y-129861202D01*
X106067664Y-129861206D01*
X105952455Y-129947452D01*
X105952452Y-129947455D01*
X105866206Y-130062664D01*
X105866202Y-130062671D01*
X105815908Y-130197517D01*
X105809501Y-130257116D01*
X105809501Y-130257123D01*
X105809500Y-130257135D01*
X105809500Y-131352870D01*
X105809501Y-131352876D01*
X105815908Y-131412483D01*
X105866202Y-131547328D01*
X105866206Y-131547335D01*
X105952452Y-131662544D01*
X105952455Y-131662547D01*
X106067664Y-131748793D01*
X106067671Y-131748797D01*
X106202517Y-131799091D01*
X106202516Y-131799091D01*
X106209444Y-131799835D01*
X106262127Y-131805500D01*
X108867872Y-131805499D01*
X108927483Y-131799091D01*
X109062331Y-131748796D01*
X109177546Y-131662546D01*
X109204227Y-131626903D01*
X109220485Y-131605188D01*
X109276419Y-131563318D01*
X109319751Y-131555500D01*
X113109147Y-131555500D01*
X113176186Y-131575185D01*
X113209464Y-131606614D01*
X113213098Y-131611615D01*
X113269892Y-131689788D01*
X113420213Y-131840109D01*
X113592182Y-131965050D01*
X113600946Y-131969516D01*
X113651742Y-132017491D01*
X113668536Y-132085312D01*
X113645998Y-132151447D01*
X113600946Y-132190484D01*
X113592182Y-132194949D01*
X113420213Y-132319890D01*
X113269892Y-132470211D01*
X113213097Y-132548385D01*
X113157767Y-132591051D01*
X113112779Y-132599500D01*
X112633494Y-132599500D01*
X112566455Y-132579815D01*
X112534228Y-132549811D01*
X112487551Y-132487460D01*
X112487548Y-132487457D01*
X112487546Y-132487454D01*
X112487542Y-132487451D01*
X112372335Y-132401206D01*
X112372328Y-132401202D01*
X112237482Y-132350908D01*
X112237483Y-132350908D01*
X112177883Y-132344501D01*
X112177881Y-132344500D01*
X112177873Y-132344500D01*
X112177864Y-132344500D01*
X109572129Y-132344500D01*
X109572123Y-132344501D01*
X109512516Y-132350908D01*
X109377671Y-132401202D01*
X109377664Y-132401206D01*
X109262455Y-132487452D01*
X109262452Y-132487455D01*
X109176206Y-132602664D01*
X109176202Y-132602671D01*
X109125908Y-132737517D01*
X109119501Y-132797116D01*
X109119501Y-132797123D01*
X109119500Y-132797135D01*
X109119500Y-133892870D01*
X109119501Y-133892876D01*
X109125908Y-133952483D01*
X109176202Y-134087328D01*
X109176206Y-134087335D01*
X109262452Y-134202544D01*
X109262455Y-134202547D01*
X109377664Y-134288793D01*
X109377671Y-134288797D01*
X109512517Y-134339091D01*
X109512516Y-134339091D01*
X109519444Y-134339835D01*
X109572127Y-134345500D01*
X112177872Y-134345499D01*
X112237483Y-134339091D01*
X112372331Y-134288796D01*
X112487546Y-134202546D01*
X112526740Y-134150190D01*
X112582674Y-134108318D01*
X112626007Y-134100500D01*
X113112779Y-134100500D01*
X113179818Y-134120185D01*
X113213097Y-134151615D01*
X113269892Y-134229788D01*
X113420213Y-134380109D01*
X113592182Y-134505050D01*
X113600946Y-134509516D01*
X113651742Y-134557491D01*
X113668536Y-134625312D01*
X113645998Y-134691447D01*
X113600946Y-134730484D01*
X113592182Y-134734949D01*
X113420213Y-134859890D01*
X113269892Y-135010211D01*
X113216731Y-135083384D01*
X113161401Y-135126051D01*
X113116412Y-135134500D01*
X109319751Y-135134500D01*
X109252712Y-135114815D01*
X109220485Y-135084812D01*
X109177548Y-135027457D01*
X109177546Y-135027454D01*
X109177542Y-135027451D01*
X109062335Y-134941206D01*
X109062328Y-134941202D01*
X108927482Y-134890908D01*
X108927483Y-134890908D01*
X108867883Y-134884501D01*
X108867881Y-134884500D01*
X108867873Y-134884500D01*
X108867864Y-134884500D01*
X106262129Y-134884500D01*
X106262123Y-134884501D01*
X106202516Y-134890908D01*
X106067671Y-134941202D01*
X106067664Y-134941206D01*
X105952455Y-135027452D01*
X105952452Y-135027455D01*
X105866206Y-135142664D01*
X105866202Y-135142671D01*
X105815908Y-135277517D01*
X105809501Y-135337116D01*
X105809501Y-135337123D01*
X105809500Y-135337135D01*
X105809500Y-136432870D01*
X105809501Y-136432876D01*
X105815908Y-136492483D01*
X105866202Y-136627328D01*
X105866206Y-136627335D01*
X105952452Y-136742544D01*
X105952455Y-136742547D01*
X106067664Y-136828793D01*
X106067671Y-136828797D01*
X106202517Y-136879091D01*
X106202516Y-136879091D01*
X106209444Y-136879835D01*
X106262127Y-136885500D01*
X108867872Y-136885499D01*
X108927483Y-136879091D01*
X109062331Y-136828796D01*
X109177546Y-136742546D01*
X109204227Y-136706903D01*
X109220485Y-136685188D01*
X109276419Y-136643318D01*
X109319751Y-136635500D01*
X113109147Y-136635500D01*
X113176186Y-136655185D01*
X113209464Y-136686614D01*
X113213098Y-136691615D01*
X113269892Y-136769788D01*
X113420213Y-136920109D01*
X113592179Y-137045048D01*
X113592181Y-137045049D01*
X113592184Y-137045051D01*
X113781588Y-137141557D01*
X113983757Y-137207246D01*
X114193713Y-137240500D01*
X114193714Y-137240500D01*
X114406286Y-137240500D01*
X114406287Y-137240500D01*
X114616243Y-137207246D01*
X114818412Y-137141557D01*
X114889205Y-137105485D01*
X114957874Y-137092590D01*
X115022614Y-137118866D01*
X115062872Y-137175972D01*
X115069500Y-137215971D01*
X115069500Y-139179924D01*
X115049815Y-139246963D01*
X114997011Y-139292718D01*
X114945500Y-139303924D01*
X90794500Y-139303924D01*
X90727461Y-139284239D01*
X90681706Y-139231435D01*
X90670500Y-139179924D01*
X90670500Y-137215971D01*
X90690185Y-137148932D01*
X90742989Y-137103177D01*
X90812147Y-137093233D01*
X90850793Y-137105485D01*
X90921588Y-137141557D01*
X91123757Y-137207246D01*
X91333713Y-137240500D01*
X91333714Y-137240500D01*
X91546286Y-137240500D01*
X91546287Y-137240500D01*
X91756243Y-137207246D01*
X91958412Y-137141557D01*
X92147816Y-137045051D01*
X92169789Y-137029086D01*
X92319786Y-136920109D01*
X92319788Y-136920106D01*
X92319792Y-136920104D01*
X92470104Y-136769792D01*
X92489898Y-136742548D01*
X92526903Y-136691615D01*
X92582233Y-136648949D01*
X92627221Y-136640500D01*
X96423993Y-136640500D01*
X96491032Y-136660185D01*
X96523260Y-136690190D01*
X96562449Y-136742541D01*
X96562452Y-136742544D01*
X96562454Y-136742546D01*
X96562457Y-136742548D01*
X96677664Y-136828793D01*
X96677671Y-136828797D01*
X96812517Y-136879091D01*
X96812516Y-136879091D01*
X96819444Y-136879835D01*
X96872127Y-136885500D01*
X99477872Y-136885499D01*
X99537483Y-136879091D01*
X99672331Y-136828796D01*
X99787546Y-136742546D01*
X99873796Y-136627331D01*
X99924091Y-136492483D01*
X99930500Y-136432873D01*
X99930499Y-135337128D01*
X99924091Y-135277517D01*
X99873796Y-135142669D01*
X99873795Y-135142668D01*
X99873793Y-135142664D01*
X99787547Y-135027455D01*
X99787544Y-135027452D01*
X99672335Y-134941206D01*
X99672328Y-134941202D01*
X99537482Y-134890908D01*
X99537483Y-134890908D01*
X99477883Y-134884501D01*
X99477881Y-134884500D01*
X99477873Y-134884500D01*
X99477864Y-134884500D01*
X96872129Y-134884500D01*
X96872123Y-134884501D01*
X96812516Y-134890908D01*
X96677671Y-134941202D01*
X96677664Y-134941206D01*
X96562457Y-135027451D01*
X96562448Y-135027460D01*
X96515772Y-135089811D01*
X96459838Y-135131682D01*
X96416506Y-135139500D01*
X92627221Y-135139500D01*
X92560182Y-135119815D01*
X92526903Y-135088385D01*
X92470107Y-135010211D01*
X92319786Y-134859890D01*
X92147820Y-134734951D01*
X92147115Y-134734591D01*
X92139054Y-134730485D01*
X92088259Y-134682512D01*
X92071463Y-134614692D01*
X92093999Y-134548556D01*
X92139054Y-134509515D01*
X92147816Y-134505051D01*
X92169789Y-134489086D01*
X92319786Y-134380109D01*
X92319788Y-134380106D01*
X92319792Y-134380104D01*
X92470104Y-134229792D01*
X92530534Y-134146615D01*
X92585863Y-134103949D01*
X92630853Y-134095500D01*
X93110249Y-134095500D01*
X93177288Y-134115185D01*
X93209515Y-134145188D01*
X93252450Y-134202541D01*
X93252454Y-134202546D01*
X93252457Y-134202548D01*
X93367664Y-134288793D01*
X93367671Y-134288797D01*
X93502517Y-134339091D01*
X93502516Y-134339091D01*
X93509444Y-134339835D01*
X93562127Y-134345500D01*
X96167872Y-134345499D01*
X96227483Y-134339091D01*
X96362331Y-134288796D01*
X96477546Y-134202546D01*
X96563796Y-134087331D01*
X96614091Y-133952483D01*
X96620500Y-133892873D01*
X96620499Y-132797128D01*
X96614091Y-132737517D01*
X96563796Y-132602669D01*
X96563795Y-132602668D01*
X96563793Y-132602664D01*
X96477547Y-132487455D01*
X96477544Y-132487452D01*
X96362335Y-132401206D01*
X96362328Y-132401202D01*
X96227482Y-132350908D01*
X96227483Y-132350908D01*
X96167883Y-132344501D01*
X96167881Y-132344500D01*
X96167873Y-132344500D01*
X96167864Y-132344500D01*
X93562129Y-132344500D01*
X93562123Y-132344501D01*
X93502516Y-132350908D01*
X93367671Y-132401202D01*
X93367664Y-132401206D01*
X93252457Y-132487451D01*
X93252451Y-132487457D01*
X93209515Y-132544812D01*
X93153581Y-132586682D01*
X93110249Y-132594500D01*
X92623588Y-132594500D01*
X92556549Y-132574815D01*
X92523269Y-132543384D01*
X92470107Y-132470211D01*
X92319786Y-132319890D01*
X92147820Y-132194951D01*
X92147115Y-132194591D01*
X92139054Y-132190485D01*
X92088259Y-132142512D01*
X92071463Y-132074692D01*
X92093999Y-132008556D01*
X92139054Y-131969515D01*
X92147816Y-131965051D01*
X92169789Y-131949086D01*
X92319786Y-131840109D01*
X92319788Y-131840106D01*
X92319792Y-131840104D01*
X92470104Y-131689792D01*
X92489898Y-131662548D01*
X92526903Y-131611615D01*
X92582233Y-131568949D01*
X92627221Y-131560500D01*
X96423993Y-131560500D01*
X96491032Y-131580185D01*
X96523260Y-131610190D01*
X96562449Y-131662541D01*
X96562452Y-131662544D01*
X96562454Y-131662546D01*
X96562457Y-131662548D01*
X96677664Y-131748793D01*
X96677671Y-131748797D01*
X96812517Y-131799091D01*
X96812516Y-131799091D01*
X96819444Y-131799835D01*
X96872127Y-131805500D01*
X99477872Y-131805499D01*
X99537483Y-131799091D01*
X99672331Y-131748796D01*
X99787546Y-131662546D01*
X99873796Y-131547331D01*
X99924091Y-131412483D01*
X99930500Y-131352873D01*
X99930499Y-130257128D01*
X99924091Y-130197517D01*
X99873796Y-130062669D01*
X99873795Y-130062668D01*
X99873793Y-130062664D01*
X99787547Y-129947455D01*
X99787544Y-129947452D01*
X99672335Y-129861206D01*
X99672328Y-129861202D01*
X99537482Y-129810908D01*
X99537483Y-129810908D01*
X99477883Y-129804501D01*
X99477881Y-129804500D01*
X99477873Y-129804500D01*
X99477864Y-129804500D01*
X96872129Y-129804500D01*
X96872123Y-129804501D01*
X96812516Y-129810908D01*
X96677671Y-129861202D01*
X96677664Y-129861206D01*
X96562457Y-129947451D01*
X96562448Y-129947460D01*
X96515772Y-130009811D01*
X96459838Y-130051682D01*
X96416506Y-130059500D01*
X92627221Y-130059500D01*
X92560182Y-130039815D01*
X92526903Y-130008385D01*
X92470107Y-129930211D01*
X92319786Y-129779890D01*
X92147820Y-129654951D01*
X92147115Y-129654591D01*
X92139054Y-129650485D01*
X92088259Y-129602512D01*
X92071463Y-129534692D01*
X92093999Y-129468556D01*
X92139054Y-129429515D01*
X92147816Y-129425051D01*
X92169789Y-129409086D01*
X92319786Y-129300109D01*
X92319788Y-129300106D01*
X92319792Y-129300104D01*
X92470104Y-129149792D01*
X92530534Y-129066615D01*
X92585863Y-129023949D01*
X92630853Y-129015500D01*
X93110249Y-129015500D01*
X93177288Y-129035185D01*
X93209515Y-129065188D01*
X93252450Y-129122541D01*
X93252454Y-129122546D01*
X93252457Y-129122548D01*
X93367664Y-129208793D01*
X93367671Y-129208797D01*
X93502517Y-129259091D01*
X93502516Y-129259091D01*
X93509444Y-129259835D01*
X93562127Y-129265500D01*
X96167872Y-129265499D01*
X96227483Y-129259091D01*
X96362331Y-129208796D01*
X96477546Y-129122546D01*
X96563796Y-129007331D01*
X96614091Y-128872483D01*
X96620500Y-128812873D01*
X96620499Y-127717128D01*
X96614091Y-127657517D01*
X96563796Y-127522669D01*
X96563795Y-127522668D01*
X96563793Y-127522664D01*
X96477547Y-127407455D01*
X96477544Y-127407452D01*
X96362335Y-127321206D01*
X96362328Y-127321202D01*
X96227482Y-127270908D01*
X96227483Y-127270908D01*
X96167883Y-127264501D01*
X96167881Y-127264500D01*
X96167873Y-127264500D01*
X96167864Y-127264500D01*
X93562129Y-127264500D01*
X93562123Y-127264501D01*
X93502516Y-127270908D01*
X93367671Y-127321202D01*
X93367664Y-127321206D01*
X93252457Y-127407451D01*
X93252451Y-127407457D01*
X93209515Y-127464812D01*
X93153581Y-127506682D01*
X93110249Y-127514500D01*
X92623588Y-127514500D01*
X92556549Y-127494815D01*
X92523269Y-127463384D01*
X92470107Y-127390211D01*
X92319786Y-127239890D01*
X92147820Y-127114951D01*
X92147115Y-127114591D01*
X92139054Y-127110485D01*
X92088259Y-127062512D01*
X92071463Y-126994692D01*
X92093999Y-126928556D01*
X92139054Y-126889515D01*
X92147816Y-126885051D01*
X92169789Y-126869086D01*
X92319786Y-126760109D01*
X92319788Y-126760106D01*
X92319792Y-126760104D01*
X92470104Y-126609792D01*
X92489898Y-126582548D01*
X92526903Y-126531615D01*
X92582233Y-126488949D01*
X92627221Y-126480500D01*
X96423993Y-126480500D01*
X96491032Y-126500185D01*
X96523260Y-126530190D01*
X96562449Y-126582541D01*
X96562452Y-126582544D01*
X96562454Y-126582546D01*
X96562457Y-126582548D01*
X96677664Y-126668793D01*
X96677671Y-126668797D01*
X96812517Y-126719091D01*
X96812516Y-126719091D01*
X96819444Y-126719835D01*
X96872127Y-126725500D01*
X99477872Y-126725499D01*
X99537483Y-126719091D01*
X99672331Y-126668796D01*
X99787546Y-126582546D01*
X99873796Y-126467331D01*
X99924091Y-126332483D01*
X99930500Y-126272873D01*
X99930499Y-125177128D01*
X99924091Y-125117517D01*
X99873796Y-124982669D01*
X99873795Y-124982668D01*
X99873793Y-124982664D01*
X99787547Y-124867455D01*
X99787544Y-124867452D01*
X99672335Y-124781206D01*
X99672328Y-124781202D01*
X99537482Y-124730908D01*
X99537483Y-124730908D01*
X99477883Y-124724501D01*
X99477881Y-124724500D01*
X99477873Y-124724500D01*
X99477864Y-124724500D01*
X96872129Y-124724500D01*
X96872123Y-124724501D01*
X96812516Y-124730908D01*
X96677671Y-124781202D01*
X96677664Y-124781206D01*
X96562457Y-124867451D01*
X96562448Y-124867460D01*
X96515772Y-124929811D01*
X96459838Y-124971682D01*
X96416506Y-124979500D01*
X92627221Y-124979500D01*
X92560182Y-124959815D01*
X92526903Y-124928385D01*
X92470107Y-124850211D01*
X92319786Y-124699890D01*
X92147820Y-124574951D01*
X92147115Y-124574591D01*
X92139054Y-124570485D01*
X92088259Y-124522512D01*
X92071463Y-124454692D01*
X92093999Y-124388556D01*
X92139054Y-124349515D01*
X92147816Y-124345051D01*
X92169789Y-124329086D01*
X92319786Y-124220109D01*
X92319788Y-124220106D01*
X92319792Y-124220104D01*
X92470104Y-124069792D01*
X92530534Y-123986615D01*
X92585863Y-123943949D01*
X92630853Y-123935500D01*
X93110249Y-123935500D01*
X93177288Y-123955185D01*
X93209515Y-123985188D01*
X93252450Y-124042541D01*
X93252454Y-124042546D01*
X93252457Y-124042548D01*
X93367664Y-124128793D01*
X93367671Y-124128797D01*
X93502517Y-124179091D01*
X93502516Y-124179091D01*
X93509444Y-124179835D01*
X93562127Y-124185500D01*
X96167872Y-124185499D01*
X96227483Y-124179091D01*
X96362331Y-124128796D01*
X96477546Y-124042546D01*
X96563796Y-123927331D01*
X96614091Y-123792483D01*
X96620500Y-123732873D01*
X96620499Y-122637128D01*
X96614091Y-122577517D01*
X96563796Y-122442669D01*
X96563795Y-122442668D01*
X96563793Y-122442664D01*
X96477547Y-122327455D01*
X96477544Y-122327452D01*
X96362335Y-122241206D01*
X96362328Y-122241202D01*
X96227482Y-122190908D01*
X96227483Y-122190908D01*
X96167883Y-122184501D01*
X96167881Y-122184500D01*
X96167873Y-122184500D01*
X96167864Y-122184500D01*
X93562129Y-122184500D01*
X93562123Y-122184501D01*
X93502516Y-122190908D01*
X93367671Y-122241202D01*
X93367664Y-122241206D01*
X93252457Y-122327451D01*
X93252451Y-122327457D01*
X93209515Y-122384812D01*
X93153581Y-122426682D01*
X93110249Y-122434500D01*
X92623588Y-122434500D01*
X92556549Y-122414815D01*
X92523269Y-122383384D01*
X92470107Y-122310211D01*
X92319786Y-122159890D01*
X92147820Y-122034951D01*
X92147115Y-122034591D01*
X92139054Y-122030485D01*
X92088259Y-121982512D01*
X92071463Y-121914692D01*
X92093999Y-121848556D01*
X92139054Y-121809515D01*
X92147816Y-121805051D01*
X92169789Y-121789086D01*
X92319786Y-121680109D01*
X92319788Y-121680106D01*
X92319792Y-121680104D01*
X92470104Y-121529792D01*
X92489898Y-121502548D01*
X92526903Y-121451615D01*
X92582233Y-121408949D01*
X92627221Y-121400500D01*
X96423993Y-121400500D01*
X96491032Y-121420185D01*
X96523260Y-121450190D01*
X96562449Y-121502541D01*
X96562452Y-121502544D01*
X96562454Y-121502546D01*
X96562457Y-121502548D01*
X96677664Y-121588793D01*
X96677671Y-121588797D01*
X96812517Y-121639091D01*
X96812516Y-121639091D01*
X96819444Y-121639835D01*
X96872127Y-121645500D01*
X99477872Y-121645499D01*
X99537483Y-121639091D01*
X99672331Y-121588796D01*
X99787546Y-121502546D01*
X99873796Y-121387331D01*
X99924091Y-121252483D01*
X99930500Y-121192873D01*
X99930499Y-120097128D01*
X99924091Y-120037517D01*
X99873796Y-119902669D01*
X99873795Y-119902668D01*
X99873793Y-119902664D01*
X99787547Y-119787455D01*
X99787544Y-119787452D01*
X99672335Y-119701206D01*
X99672328Y-119701202D01*
X99537482Y-119650908D01*
X99537483Y-119650908D01*
X99477883Y-119644501D01*
X99477881Y-119644500D01*
X99477873Y-119644500D01*
X99477864Y-119644500D01*
X96872129Y-119644500D01*
X96872123Y-119644501D01*
X96812516Y-119650908D01*
X96677671Y-119701202D01*
X96677664Y-119701206D01*
X96562457Y-119787451D01*
X96562448Y-119787460D01*
X96515772Y-119849811D01*
X96459838Y-119891682D01*
X96416506Y-119899500D01*
X92627221Y-119899500D01*
X92560182Y-119879815D01*
X92526903Y-119848385D01*
X92470107Y-119770211D01*
X92319786Y-119619890D01*
X92147820Y-119494951D01*
X92147115Y-119494591D01*
X92139054Y-119490485D01*
X92088259Y-119442512D01*
X92071463Y-119374692D01*
X92093999Y-119308556D01*
X92139054Y-119269515D01*
X92147816Y-119265051D01*
X92169789Y-119249086D01*
X92319786Y-119140109D01*
X92319788Y-119140106D01*
X92319792Y-119140104D01*
X92470104Y-118989792D01*
X92530534Y-118906615D01*
X92585863Y-118863949D01*
X92630853Y-118855500D01*
X93110249Y-118855500D01*
X93177288Y-118875185D01*
X93209515Y-118905188D01*
X93252450Y-118962541D01*
X93252454Y-118962546D01*
X93252457Y-118962548D01*
X93367664Y-119048793D01*
X93367671Y-119048797D01*
X93502517Y-119099091D01*
X93502516Y-119099091D01*
X93509444Y-119099835D01*
X93562127Y-119105500D01*
X96167872Y-119105499D01*
X96227483Y-119099091D01*
X96362331Y-119048796D01*
X96477546Y-118962546D01*
X96563796Y-118847331D01*
X96614091Y-118712483D01*
X96620500Y-118652873D01*
X96620499Y-117557128D01*
X96614091Y-117497517D01*
X96563796Y-117362669D01*
X96563795Y-117362668D01*
X96563793Y-117362664D01*
X96477547Y-117247455D01*
X96477544Y-117247452D01*
X96362335Y-117161206D01*
X96362328Y-117161202D01*
X96227482Y-117110908D01*
X96227483Y-117110908D01*
X96167883Y-117104501D01*
X96167881Y-117104500D01*
X96167873Y-117104500D01*
X96167864Y-117104500D01*
X93562129Y-117104500D01*
X93562123Y-117104501D01*
X93502516Y-117110908D01*
X93367671Y-117161202D01*
X93367664Y-117161206D01*
X93252457Y-117247451D01*
X93252451Y-117247457D01*
X93209515Y-117304812D01*
X93153581Y-117346682D01*
X93110249Y-117354500D01*
X92623588Y-117354500D01*
X92556549Y-117334815D01*
X92523269Y-117303384D01*
X92470107Y-117230211D01*
X92319786Y-117079890D01*
X92147820Y-116954951D01*
X92147115Y-116954591D01*
X92139054Y-116950485D01*
X92088259Y-116902512D01*
X92071463Y-116834692D01*
X92093999Y-116768556D01*
X92139054Y-116729515D01*
X92147816Y-116725051D01*
X92169789Y-116709086D01*
X92319786Y-116600109D01*
X92319788Y-116600106D01*
X92319792Y-116600104D01*
X92470104Y-116449792D01*
X92489898Y-116422548D01*
X92526903Y-116371615D01*
X92582233Y-116328949D01*
X92627221Y-116320500D01*
X96423993Y-116320500D01*
X96491032Y-116340185D01*
X96523260Y-116370190D01*
X96562449Y-116422541D01*
X96562452Y-116422544D01*
X96562454Y-116422546D01*
X96562457Y-116422548D01*
X96677664Y-116508793D01*
X96677671Y-116508797D01*
X96812517Y-116559091D01*
X96812516Y-116559091D01*
X96819444Y-116559835D01*
X96872127Y-116565500D01*
X99477872Y-116565499D01*
X99537483Y-116559091D01*
X99672331Y-116508796D01*
X99787546Y-116422546D01*
X99873796Y-116307331D01*
X99924091Y-116172483D01*
X99930500Y-116112873D01*
X99930499Y-115017128D01*
X99924091Y-114957517D01*
X99873796Y-114822669D01*
X99873795Y-114822668D01*
X99873793Y-114822664D01*
X99787547Y-114707455D01*
X99787544Y-114707452D01*
X99672335Y-114621206D01*
X99672328Y-114621202D01*
X99537482Y-114570908D01*
X99537483Y-114570908D01*
X99477883Y-114564501D01*
X99477881Y-114564500D01*
X99477873Y-114564500D01*
X99477864Y-114564500D01*
X96872129Y-114564500D01*
X96872123Y-114564501D01*
X96812516Y-114570908D01*
X96677671Y-114621202D01*
X96677664Y-114621206D01*
X96562457Y-114707451D01*
X96562448Y-114707460D01*
X96515772Y-114769811D01*
X96459838Y-114811682D01*
X96416506Y-114819500D01*
X92627221Y-114819500D01*
X92560182Y-114799815D01*
X92526903Y-114768385D01*
X92470107Y-114690211D01*
X92319786Y-114539890D01*
X92147820Y-114414951D01*
X92147115Y-114414591D01*
X92139054Y-114410485D01*
X92088259Y-114362512D01*
X92071463Y-114294692D01*
X92093999Y-114228556D01*
X92139054Y-114189515D01*
X92147816Y-114185051D01*
X92169789Y-114169086D01*
X92319786Y-114060109D01*
X92319788Y-114060106D01*
X92319792Y-114060104D01*
X92470104Y-113909792D01*
X92530534Y-113826615D01*
X92585863Y-113783949D01*
X92630853Y-113775500D01*
X93110249Y-113775500D01*
X93177288Y-113795185D01*
X93209515Y-113825188D01*
X93252450Y-113882541D01*
X93252454Y-113882546D01*
X93252457Y-113882548D01*
X93367664Y-113968793D01*
X93367671Y-113968797D01*
X93502517Y-114019091D01*
X93502516Y-114019091D01*
X93509444Y-114019835D01*
X93562127Y-114025500D01*
X96167872Y-114025499D01*
X96227483Y-114019091D01*
X96362331Y-113968796D01*
X96477546Y-113882546D01*
X96563796Y-113767331D01*
X96614091Y-113632483D01*
X96620500Y-113572873D01*
X96620499Y-112477128D01*
X96614091Y-112417517D01*
X96563796Y-112282669D01*
X96563795Y-112282668D01*
X96563793Y-112282664D01*
X96477547Y-112167455D01*
X96477544Y-112167452D01*
X96362335Y-112081206D01*
X96362328Y-112081202D01*
X96227482Y-112030908D01*
X96227483Y-112030908D01*
X96167883Y-112024501D01*
X96167881Y-112024500D01*
X96167873Y-112024500D01*
X96167864Y-112024500D01*
X93562129Y-112024500D01*
X93562123Y-112024501D01*
X93502516Y-112030908D01*
X93367671Y-112081202D01*
X93367664Y-112081206D01*
X93252457Y-112167451D01*
X93252451Y-112167457D01*
X93209515Y-112224812D01*
X93153581Y-112266682D01*
X93110249Y-112274500D01*
X92623588Y-112274500D01*
X92556549Y-112254815D01*
X92523269Y-112223384D01*
X92470107Y-112150211D01*
X92319786Y-111999890D01*
X92147820Y-111874951D01*
X92147115Y-111874591D01*
X92139054Y-111870485D01*
X92088259Y-111822512D01*
X92071463Y-111754692D01*
X92093999Y-111688556D01*
X92139054Y-111649515D01*
X92147816Y-111645051D01*
X92169789Y-111629086D01*
X92319786Y-111520109D01*
X92319788Y-111520106D01*
X92319792Y-111520104D01*
X92470104Y-111369792D01*
X92489898Y-111342548D01*
X92526903Y-111291615D01*
X92582233Y-111248949D01*
X92627221Y-111240500D01*
X96423993Y-111240500D01*
X96491032Y-111260185D01*
X96523260Y-111290190D01*
X96562449Y-111342541D01*
X96562452Y-111342544D01*
X96562454Y-111342546D01*
X96562457Y-111342548D01*
X96677664Y-111428793D01*
X96677671Y-111428797D01*
X96812517Y-111479091D01*
X96812516Y-111479091D01*
X96819444Y-111479835D01*
X96872127Y-111485500D01*
X99477872Y-111485499D01*
X99537483Y-111479091D01*
X99672331Y-111428796D01*
X99787546Y-111342546D01*
X99873796Y-111227331D01*
X99924091Y-111092483D01*
X99930500Y-111032873D01*
X99930499Y-109937128D01*
X99924091Y-109877517D01*
X99873796Y-109742669D01*
X99873795Y-109742668D01*
X99873793Y-109742664D01*
X99787547Y-109627455D01*
X99787544Y-109627452D01*
X99672335Y-109541206D01*
X99672328Y-109541202D01*
X99537482Y-109490908D01*
X99537483Y-109490908D01*
X99477883Y-109484501D01*
X99477881Y-109484500D01*
X99477873Y-109484500D01*
X99477864Y-109484500D01*
X96872129Y-109484500D01*
X96872123Y-109484501D01*
X96812516Y-109490908D01*
X96677671Y-109541202D01*
X96677664Y-109541206D01*
X96562457Y-109627451D01*
X96562448Y-109627460D01*
X96515772Y-109689811D01*
X96459838Y-109731682D01*
X96416506Y-109739500D01*
X92627221Y-109739500D01*
X92560182Y-109719815D01*
X92526903Y-109688385D01*
X92470107Y-109610211D01*
X92319786Y-109459890D01*
X92147820Y-109334951D01*
X92147115Y-109334591D01*
X92139054Y-109330485D01*
X92088259Y-109282512D01*
X92071463Y-109214692D01*
X92093999Y-109148556D01*
X92139054Y-109109515D01*
X92147816Y-109105051D01*
X92169789Y-109089086D01*
X92319786Y-108980109D01*
X92319788Y-108980106D01*
X92319792Y-108980104D01*
X92470104Y-108829792D01*
X92530534Y-108746615D01*
X92585863Y-108703949D01*
X92630853Y-108695500D01*
X93110249Y-108695500D01*
X93177288Y-108715185D01*
X93209515Y-108745188D01*
X93252450Y-108802541D01*
X93252454Y-108802546D01*
X93252457Y-108802548D01*
X93367664Y-108888793D01*
X93367671Y-108888797D01*
X93502517Y-108939091D01*
X93502516Y-108939091D01*
X93509444Y-108939835D01*
X93562127Y-108945500D01*
X96167872Y-108945499D01*
X96227483Y-108939091D01*
X96362331Y-108888796D01*
X96477546Y-108802546D01*
X96563796Y-108687331D01*
X96614091Y-108552483D01*
X96620500Y-108492873D01*
X96620499Y-107397128D01*
X96614091Y-107337517D01*
X96563796Y-107202669D01*
X96563795Y-107202668D01*
X96563793Y-107202664D01*
X96477547Y-107087455D01*
X96477544Y-107087452D01*
X96362335Y-107001206D01*
X96362328Y-107001202D01*
X96227482Y-106950908D01*
X96227483Y-106950908D01*
X96167883Y-106944501D01*
X96167881Y-106944500D01*
X96167873Y-106944500D01*
X96167864Y-106944500D01*
X93562129Y-106944500D01*
X93562123Y-106944501D01*
X93502516Y-106950908D01*
X93367671Y-107001202D01*
X93367664Y-107001206D01*
X93252457Y-107087451D01*
X93252451Y-107087457D01*
X93209515Y-107144812D01*
X93153581Y-107186682D01*
X93110249Y-107194500D01*
X92623588Y-107194500D01*
X92556549Y-107174815D01*
X92523269Y-107143384D01*
X92470107Y-107070211D01*
X92319786Y-106919890D01*
X92147820Y-106794951D01*
X92147115Y-106794591D01*
X92139054Y-106790485D01*
X92088259Y-106742512D01*
X92071463Y-106674692D01*
X92093999Y-106608556D01*
X92139054Y-106569515D01*
X92147816Y-106565051D01*
X92169789Y-106549086D01*
X92319786Y-106440109D01*
X92319788Y-106440106D01*
X92319792Y-106440104D01*
X92470104Y-106289792D01*
X92489898Y-106262548D01*
X92526903Y-106211615D01*
X92582233Y-106168949D01*
X92627221Y-106160500D01*
X96423993Y-106160500D01*
X96491032Y-106180185D01*
X96523260Y-106210190D01*
X96562449Y-106262541D01*
X96562452Y-106262544D01*
X96562454Y-106262546D01*
X96562457Y-106262548D01*
X96677664Y-106348793D01*
X96677671Y-106348797D01*
X96812517Y-106399091D01*
X96812516Y-106399091D01*
X96819444Y-106399835D01*
X96872127Y-106405500D01*
X99477872Y-106405499D01*
X99537483Y-106399091D01*
X99672331Y-106348796D01*
X99787546Y-106262546D01*
X99873796Y-106147331D01*
X99924091Y-106012483D01*
X99930500Y-105952873D01*
X99930499Y-104857128D01*
X99924091Y-104797517D01*
X99873796Y-104662669D01*
X99873795Y-104662668D01*
X99873793Y-104662664D01*
X99787547Y-104547455D01*
X99787544Y-104547452D01*
X99672335Y-104461206D01*
X99672328Y-104461202D01*
X99537482Y-104410908D01*
X99537483Y-104410908D01*
X99477883Y-104404501D01*
X99477881Y-104404500D01*
X99477873Y-104404500D01*
X99477864Y-104404500D01*
X96872129Y-104404500D01*
X96872123Y-104404501D01*
X96812516Y-104410908D01*
X96677671Y-104461202D01*
X96677664Y-104461206D01*
X96562457Y-104547451D01*
X96562448Y-104547460D01*
X96515772Y-104609811D01*
X96459838Y-104651682D01*
X96416506Y-104659500D01*
X92627221Y-104659500D01*
X92560182Y-104639815D01*
X92526903Y-104608385D01*
X92470107Y-104530211D01*
X92319786Y-104379890D01*
X92147820Y-104254951D01*
X92147115Y-104254591D01*
X92139054Y-104250485D01*
X92088259Y-104202512D01*
X92071463Y-104134692D01*
X92093999Y-104068556D01*
X92139054Y-104029515D01*
X92147816Y-104025051D01*
X92169789Y-104009086D01*
X92319786Y-103900109D01*
X92319788Y-103900106D01*
X92319792Y-103900104D01*
X92470104Y-103749792D01*
X92530534Y-103666615D01*
X92585863Y-103623949D01*
X92630853Y-103615500D01*
X93110249Y-103615500D01*
X93177288Y-103635185D01*
X93209515Y-103665188D01*
X93252450Y-103722541D01*
X93252454Y-103722546D01*
X93252457Y-103722548D01*
X93367664Y-103808793D01*
X93367671Y-103808797D01*
X93502517Y-103859091D01*
X93502516Y-103859091D01*
X93509444Y-103859835D01*
X93562127Y-103865500D01*
X96167872Y-103865499D01*
X96227483Y-103859091D01*
X96362331Y-103808796D01*
X96477546Y-103722546D01*
X96563796Y-103607331D01*
X96614091Y-103472483D01*
X96620500Y-103412873D01*
X96620499Y-102317128D01*
X96614091Y-102257517D01*
X96563796Y-102122669D01*
X96563795Y-102122668D01*
X96563793Y-102122664D01*
X96477547Y-102007455D01*
X96477544Y-102007452D01*
X96362335Y-101921206D01*
X96362328Y-101921202D01*
X96227482Y-101870908D01*
X96227483Y-101870908D01*
X96167883Y-101864501D01*
X96167881Y-101864500D01*
X96167873Y-101864500D01*
X96167864Y-101864500D01*
X93562129Y-101864500D01*
X93562123Y-101864501D01*
X93502516Y-101870908D01*
X93367671Y-101921202D01*
X93367664Y-101921206D01*
X93252457Y-102007451D01*
X93252451Y-102007457D01*
X93209515Y-102064812D01*
X93153581Y-102106682D01*
X93110249Y-102114500D01*
X92623588Y-102114500D01*
X92556549Y-102094815D01*
X92523269Y-102063384D01*
X92470107Y-101990211D01*
X92319786Y-101839890D01*
X92147820Y-101714951D01*
X92147115Y-101714591D01*
X92139054Y-101710485D01*
X92088259Y-101662512D01*
X92071463Y-101594692D01*
X92093999Y-101528556D01*
X92139054Y-101489515D01*
X92147816Y-101485051D01*
X92169789Y-101469086D01*
X92319786Y-101360109D01*
X92319788Y-101360106D01*
X92319792Y-101360104D01*
X92470104Y-101209792D01*
X92489898Y-101182548D01*
X92526903Y-101131615D01*
X92582233Y-101088949D01*
X92627221Y-101080500D01*
X96423993Y-101080500D01*
X96491032Y-101100185D01*
X96523260Y-101130190D01*
X96562449Y-101182541D01*
X96562452Y-101182544D01*
X96562454Y-101182546D01*
X96562457Y-101182548D01*
X96677664Y-101268793D01*
X96677671Y-101268797D01*
X96812517Y-101319091D01*
X96812516Y-101319091D01*
X96819444Y-101319835D01*
X96872127Y-101325500D01*
X99477872Y-101325499D01*
X99537483Y-101319091D01*
X99672331Y-101268796D01*
X99787546Y-101182546D01*
X99873796Y-101067331D01*
X99924091Y-100932483D01*
X99930500Y-100872873D01*
X99930499Y-99777128D01*
X99924091Y-99717517D01*
X99873796Y-99582669D01*
X99873795Y-99582668D01*
X99873793Y-99582664D01*
X99787547Y-99467455D01*
X99787544Y-99467452D01*
X99672335Y-99381206D01*
X99672328Y-99381202D01*
X99537482Y-99330908D01*
X99537483Y-99330908D01*
X99477883Y-99324501D01*
X99477881Y-99324500D01*
X99477873Y-99324500D01*
X99477864Y-99324500D01*
X96872129Y-99324500D01*
X96872123Y-99324501D01*
X96812516Y-99330908D01*
X96677671Y-99381202D01*
X96677664Y-99381206D01*
X96562457Y-99467451D01*
X96562448Y-99467460D01*
X96515772Y-99529811D01*
X96459838Y-99571682D01*
X96416506Y-99579500D01*
X92627221Y-99579500D01*
X92560182Y-99559815D01*
X92526903Y-99528385D01*
X92470107Y-99450211D01*
X92319786Y-99299890D01*
X92147820Y-99174951D01*
X92147115Y-99174591D01*
X92139054Y-99170485D01*
X92088259Y-99122512D01*
X92071463Y-99054692D01*
X92093999Y-98988556D01*
X92139054Y-98949515D01*
X92147816Y-98945051D01*
X92169789Y-98929086D01*
X92319786Y-98820109D01*
X92319788Y-98820106D01*
X92319792Y-98820104D01*
X92470104Y-98669792D01*
X92530534Y-98586615D01*
X92585863Y-98543949D01*
X92630853Y-98535500D01*
X93110249Y-98535500D01*
X93177288Y-98555185D01*
X93209515Y-98585188D01*
X93252450Y-98642541D01*
X93252454Y-98642546D01*
X93252457Y-98642548D01*
X93367664Y-98728793D01*
X93367671Y-98728797D01*
X93502517Y-98779091D01*
X93502516Y-98779091D01*
X93509444Y-98779835D01*
X93562127Y-98785500D01*
X96167872Y-98785499D01*
X96227483Y-98779091D01*
X96362331Y-98728796D01*
X96477546Y-98642546D01*
X96563796Y-98527331D01*
X96614091Y-98392483D01*
X96620500Y-98332873D01*
X96620499Y-97237128D01*
X96614091Y-97177517D01*
X96563796Y-97042669D01*
X96563795Y-97042668D01*
X96563793Y-97042664D01*
X96477547Y-96927455D01*
X96477544Y-96927452D01*
X96362335Y-96841206D01*
X96362328Y-96841202D01*
X96227482Y-96790908D01*
X96227483Y-96790908D01*
X96167883Y-96784501D01*
X96167881Y-96784500D01*
X96167873Y-96784500D01*
X96167864Y-96784500D01*
X93562129Y-96784500D01*
X93562123Y-96784501D01*
X93502516Y-96790908D01*
X93367671Y-96841202D01*
X93367664Y-96841206D01*
X93252457Y-96927451D01*
X93252451Y-96927457D01*
X93209515Y-96984812D01*
X93153581Y-97026682D01*
X93110249Y-97034500D01*
X92623588Y-97034500D01*
X92556549Y-97014815D01*
X92523269Y-96983384D01*
X92470107Y-96910211D01*
X92319786Y-96759890D01*
X92147820Y-96634951D01*
X92147115Y-96634591D01*
X92139054Y-96630485D01*
X92088259Y-96582512D01*
X92071463Y-96514692D01*
X92093999Y-96448556D01*
X92139054Y-96409515D01*
X92147816Y-96405051D01*
X92169789Y-96389086D01*
X92319786Y-96280109D01*
X92319788Y-96280106D01*
X92319792Y-96280104D01*
X92470104Y-96129792D01*
X92489898Y-96102548D01*
X92526903Y-96051615D01*
X92582233Y-96008949D01*
X92627221Y-96000500D01*
X96423993Y-96000500D01*
X96491032Y-96020185D01*
X96523260Y-96050190D01*
X96562449Y-96102541D01*
X96562452Y-96102544D01*
X96562454Y-96102546D01*
X96562457Y-96102548D01*
X96677664Y-96188793D01*
X96677671Y-96188797D01*
X96812517Y-96239091D01*
X96812516Y-96239091D01*
X96819444Y-96239835D01*
X96872127Y-96245500D01*
X99477872Y-96245499D01*
X99537483Y-96239091D01*
X99672331Y-96188796D01*
X99787546Y-96102546D01*
X99873796Y-95987331D01*
X99924091Y-95852483D01*
X99930500Y-95792873D01*
X99930499Y-94697128D01*
X99924091Y-94637517D01*
X99873796Y-94502669D01*
X99873795Y-94502668D01*
X99873793Y-94502664D01*
X99787547Y-94387455D01*
X99787544Y-94387452D01*
X99672335Y-94301206D01*
X99672328Y-94301202D01*
X99537482Y-94250908D01*
X99537483Y-94250908D01*
X99477883Y-94244501D01*
X99477881Y-94244500D01*
X99477873Y-94244500D01*
X99477864Y-94244500D01*
X96872129Y-94244500D01*
X96872123Y-94244501D01*
X96812516Y-94250908D01*
X96677671Y-94301202D01*
X96677664Y-94301206D01*
X96562457Y-94387451D01*
X96562448Y-94387460D01*
X96515772Y-94449811D01*
X96459838Y-94491682D01*
X96416506Y-94499500D01*
X92627221Y-94499500D01*
X92560182Y-94479815D01*
X92526903Y-94448385D01*
X92470107Y-94370211D01*
X92319786Y-94219890D01*
X92147820Y-94094951D01*
X92147115Y-94094591D01*
X92139054Y-94090485D01*
X92088259Y-94042512D01*
X92071463Y-93974692D01*
X92093999Y-93908556D01*
X92139054Y-93869515D01*
X92147816Y-93865051D01*
X92169789Y-93849086D01*
X92319786Y-93740109D01*
X92319788Y-93740106D01*
X92319792Y-93740104D01*
X92470104Y-93589792D01*
X92530534Y-93506615D01*
X92585863Y-93463949D01*
X92630853Y-93455500D01*
X93110249Y-93455500D01*
X93177288Y-93475185D01*
X93209515Y-93505188D01*
X93252451Y-93562542D01*
X93252454Y-93562546D01*
X93252457Y-93562548D01*
X93367664Y-93648793D01*
X93367671Y-93648797D01*
X93502517Y-93699091D01*
X93502516Y-93699091D01*
X93509444Y-93699835D01*
X93562127Y-93705500D01*
X96167872Y-93705499D01*
X96227483Y-93699091D01*
X96362331Y-93648796D01*
X96477546Y-93562546D01*
X96563796Y-93447331D01*
X96614091Y-93312483D01*
X96620500Y-93252873D01*
X96620499Y-92157128D01*
X96614091Y-92097517D01*
X96563796Y-91962669D01*
X96563795Y-91962668D01*
X96563793Y-91962664D01*
X96477547Y-91847455D01*
X96477544Y-91847452D01*
X96362335Y-91761206D01*
X96362328Y-91761202D01*
X96227482Y-91710908D01*
X96227483Y-91710908D01*
X96167883Y-91704501D01*
X96167881Y-91704500D01*
X96167873Y-91704500D01*
X96167864Y-91704500D01*
X93562129Y-91704500D01*
X93562123Y-91704501D01*
X93502516Y-91710908D01*
X93367671Y-91761202D01*
X93367664Y-91761206D01*
X93252457Y-91847451D01*
X93252451Y-91847457D01*
X93209515Y-91904812D01*
X93153581Y-91946682D01*
X93110249Y-91954500D01*
X92623588Y-91954500D01*
X92556549Y-91934815D01*
X92523269Y-91903384D01*
X92470107Y-91830211D01*
X92319786Y-91679890D01*
X92147820Y-91554951D01*
X91958414Y-91458444D01*
X91958413Y-91458443D01*
X91958412Y-91458443D01*
X91756243Y-91392754D01*
X91756241Y-91392753D01*
X91756240Y-91392753D01*
X91594957Y-91367208D01*
X91546287Y-91359500D01*
X91333713Y-91359500D01*
X91285042Y-91367208D01*
X91123760Y-91392753D01*
X90921582Y-91458445D01*
X90850794Y-91494513D01*
X90782125Y-91507409D01*
X90717384Y-91481132D01*
X90677128Y-91424025D01*
X90670500Y-91384028D01*
X90670500Y-89628924D01*
X90690185Y-89561885D01*
X90742989Y-89516130D01*
X90794500Y-89504924D01*
X114945500Y-89504924D01*
X115012539Y-89524609D01*
G37*
G04 #@! TD.AperFunction*
M02*
