%TF.GenerationSoftware,KiCad,Pcbnew,9.0.6*%
%TF.CreationDate,2026-01-07T21:32:34-06:00*%
%TF.ProjectId,QFP-32_5x5_P0.5,5146502d-3332-45f3-9578-355f50302e35,rev?*%
%TF.SameCoordinates,Original*%
%TF.FileFunction,Drillmap*%
%TF.FilePolarity,Positive*%
%FSLAX45Y45*%
G04 Gerber Fmt 4.5, Leading zero omitted, Abs format (unit mm)*
G04 Created by KiCad (PCBNEW 9.0.6) date 2026-01-07 21:32:34*
%MOMM*%
%LPD*%
G01*
G04 APERTURE LIST*
%ADD10C,0.050000*%
%ADD11C,0.200000*%
%ADD12C,0.100000*%
G04 APERTURE END LIST*
D10*
X12573000Y-10033000D02*
X15113000Y-10033000D01*
X15113000Y-14097000D01*
X12573000Y-14097000D01*
X12573000Y-10033000D01*
D11*
D12*
X12650000Y-10110000D02*
X12750000Y-10210000D01*
X12750000Y-10110000D02*
X12650000Y-10210000D01*
X12650000Y-10364000D02*
X12750000Y-10464000D01*
X12750000Y-10364000D02*
X12650000Y-10464000D01*
X12650000Y-10618000D02*
X12750000Y-10718000D01*
X12750000Y-10618000D02*
X12650000Y-10718000D01*
X12650000Y-10872000D02*
X12750000Y-10972000D01*
X12750000Y-10872000D02*
X12650000Y-10972000D01*
X12650000Y-11126000D02*
X12750000Y-11226000D01*
X12750000Y-11126000D02*
X12650000Y-11226000D01*
X12650000Y-11380000D02*
X12750000Y-11480000D01*
X12750000Y-11380000D02*
X12650000Y-11480000D01*
X12650000Y-11634000D02*
X12750000Y-11734000D01*
X12750000Y-11634000D02*
X12650000Y-11734000D01*
X12650000Y-11888000D02*
X12750000Y-11988000D01*
X12750000Y-11888000D02*
X12650000Y-11988000D01*
X12650000Y-12142000D02*
X12750000Y-12242000D01*
X12750000Y-12142000D02*
X12650000Y-12242000D01*
X12650000Y-12396000D02*
X12750000Y-12496000D01*
X12750000Y-12396000D02*
X12650000Y-12496000D01*
X12650000Y-12650000D02*
X12750000Y-12750000D01*
X12750000Y-12650000D02*
X12650000Y-12750000D01*
X12650000Y-12904000D02*
X12750000Y-13004000D01*
X12750000Y-12904000D02*
X12650000Y-13004000D01*
X12650000Y-13158000D02*
X12750000Y-13258000D01*
X12750000Y-13158000D02*
X12650000Y-13258000D01*
X12650000Y-13412000D02*
X12750000Y-13512000D01*
X12750000Y-13412000D02*
X12650000Y-13512000D01*
X12650000Y-13666000D02*
X12750000Y-13766000D01*
X12750000Y-13666000D02*
X12650000Y-13766000D01*
X12650000Y-13920000D02*
X12750000Y-14020000D01*
X12750000Y-13920000D02*
X12650000Y-14020000D01*
X14936000Y-10110000D02*
X15036000Y-10210000D01*
X15036000Y-10110000D02*
X14936000Y-10210000D01*
X14936000Y-10364000D02*
X15036000Y-10464000D01*
X15036000Y-10364000D02*
X14936000Y-10464000D01*
X14936000Y-10618000D02*
X15036000Y-10718000D01*
X15036000Y-10618000D02*
X14936000Y-10718000D01*
X14936000Y-10872000D02*
X15036000Y-10972000D01*
X15036000Y-10872000D02*
X14936000Y-10972000D01*
X14936000Y-11126000D02*
X15036000Y-11226000D01*
X15036000Y-11126000D02*
X14936000Y-11226000D01*
X14936000Y-11380000D02*
X15036000Y-11480000D01*
X15036000Y-11380000D02*
X14936000Y-11480000D01*
X14936000Y-11634000D02*
X15036000Y-11734000D01*
X15036000Y-11634000D02*
X14936000Y-11734000D01*
X14936000Y-11888000D02*
X15036000Y-11988000D01*
X15036000Y-11888000D02*
X14936000Y-11988000D01*
X14936000Y-12142000D02*
X15036000Y-12242000D01*
X15036000Y-12142000D02*
X14936000Y-12242000D01*
X14936000Y-12396000D02*
X15036000Y-12496000D01*
X15036000Y-12396000D02*
X14936000Y-12496000D01*
X14936000Y-12650000D02*
X15036000Y-12750000D01*
X15036000Y-12650000D02*
X14936000Y-12750000D01*
X14936000Y-12904000D02*
X15036000Y-13004000D01*
X15036000Y-12904000D02*
X14936000Y-13004000D01*
X14936000Y-13158000D02*
X15036000Y-13258000D01*
X15036000Y-13158000D02*
X14936000Y-13258000D01*
X14936000Y-13412000D02*
X15036000Y-13512000D01*
X15036000Y-13412000D02*
X14936000Y-13512000D01*
X14936000Y-13666000D02*
X15036000Y-13766000D01*
X15036000Y-13666000D02*
X14936000Y-13766000D01*
X14936000Y-13920000D02*
X15036000Y-14020000D01*
X15036000Y-13920000D02*
X14936000Y-14020000D01*
D11*
X12831277Y-14410984D02*
X12831277Y-14210984D01*
X12831277Y-14210984D02*
X12878896Y-14210984D01*
X12878896Y-14210984D02*
X12907467Y-14220508D01*
X12907467Y-14220508D02*
X12926515Y-14239555D01*
X12926515Y-14239555D02*
X12936039Y-14258603D01*
X12936039Y-14258603D02*
X12945562Y-14296698D01*
X12945562Y-14296698D02*
X12945562Y-14325269D01*
X12945562Y-14325269D02*
X12936039Y-14363365D01*
X12936039Y-14363365D02*
X12926515Y-14382412D01*
X12926515Y-14382412D02*
X12907467Y-14401460D01*
X12907467Y-14401460D02*
X12878896Y-14410984D01*
X12878896Y-14410984D02*
X12831277Y-14410984D01*
X13031277Y-14410984D02*
X13031277Y-14277650D01*
X13031277Y-14315746D02*
X13040801Y-14296698D01*
X13040801Y-14296698D02*
X13050324Y-14287174D01*
X13050324Y-14287174D02*
X13069372Y-14277650D01*
X13069372Y-14277650D02*
X13088420Y-14277650D01*
X13155086Y-14410984D02*
X13155086Y-14277650D01*
X13155086Y-14210984D02*
X13145562Y-14220508D01*
X13145562Y-14220508D02*
X13155086Y-14230031D01*
X13155086Y-14230031D02*
X13164610Y-14220508D01*
X13164610Y-14220508D02*
X13155086Y-14210984D01*
X13155086Y-14210984D02*
X13155086Y-14230031D01*
X13278896Y-14410984D02*
X13259848Y-14401460D01*
X13259848Y-14401460D02*
X13250324Y-14382412D01*
X13250324Y-14382412D02*
X13250324Y-14210984D01*
X13383658Y-14410984D02*
X13364610Y-14401460D01*
X13364610Y-14401460D02*
X13355086Y-14382412D01*
X13355086Y-14382412D02*
X13355086Y-14210984D01*
X13612229Y-14410984D02*
X13612229Y-14210984D01*
X13612229Y-14210984D02*
X13678896Y-14353841D01*
X13678896Y-14353841D02*
X13745562Y-14210984D01*
X13745562Y-14210984D02*
X13745562Y-14410984D01*
X13926515Y-14410984D02*
X13926515Y-14306222D01*
X13926515Y-14306222D02*
X13916991Y-14287174D01*
X13916991Y-14287174D02*
X13897943Y-14277650D01*
X13897943Y-14277650D02*
X13859848Y-14277650D01*
X13859848Y-14277650D02*
X13840801Y-14287174D01*
X13926515Y-14401460D02*
X13907467Y-14410984D01*
X13907467Y-14410984D02*
X13859848Y-14410984D01*
X13859848Y-14410984D02*
X13840801Y-14401460D01*
X13840801Y-14401460D02*
X13831277Y-14382412D01*
X13831277Y-14382412D02*
X13831277Y-14363365D01*
X13831277Y-14363365D02*
X13840801Y-14344317D01*
X13840801Y-14344317D02*
X13859848Y-14334793D01*
X13859848Y-14334793D02*
X13907467Y-14334793D01*
X13907467Y-14334793D02*
X13926515Y-14325269D01*
X14021753Y-14277650D02*
X14021753Y-14477650D01*
X14021753Y-14287174D02*
X14040801Y-14277650D01*
X14040801Y-14277650D02*
X14078896Y-14277650D01*
X14078896Y-14277650D02*
X14097943Y-14287174D01*
X14097943Y-14287174D02*
X14107467Y-14296698D01*
X14107467Y-14296698D02*
X14116991Y-14315746D01*
X14116991Y-14315746D02*
X14116991Y-14372888D01*
X14116991Y-14372888D02*
X14107467Y-14391936D01*
X14107467Y-14391936D02*
X14097943Y-14401460D01*
X14097943Y-14401460D02*
X14078896Y-14410984D01*
X14078896Y-14410984D02*
X14040801Y-14410984D01*
X14040801Y-14410984D02*
X14021753Y-14401460D01*
X14202705Y-14391936D02*
X14212229Y-14401460D01*
X14212229Y-14401460D02*
X14202705Y-14410984D01*
X14202705Y-14410984D02*
X14193182Y-14401460D01*
X14193182Y-14401460D02*
X14202705Y-14391936D01*
X14202705Y-14391936D02*
X14202705Y-14410984D01*
X14202705Y-14287174D02*
X14212229Y-14296698D01*
X14212229Y-14296698D02*
X14202705Y-14306222D01*
X14202705Y-14306222D02*
X14193182Y-14296698D01*
X14193182Y-14296698D02*
X14202705Y-14287174D01*
X14202705Y-14287174D02*
X14202705Y-14306222D01*
D12*
X12470500Y-14689500D02*
X12570500Y-14789500D01*
X12570500Y-14689500D02*
X12470500Y-14789500D01*
D11*
X12936039Y-14830984D02*
X12821753Y-14830984D01*
X12878896Y-14830984D02*
X12878896Y-14630984D01*
X12878896Y-14630984D02*
X12859848Y-14659555D01*
X12859848Y-14659555D02*
X12840801Y-14678603D01*
X12840801Y-14678603D02*
X12821753Y-14688127D01*
X13021753Y-14811936D02*
X13031277Y-14821460D01*
X13031277Y-14821460D02*
X13021753Y-14830984D01*
X13021753Y-14830984D02*
X13012229Y-14821460D01*
X13012229Y-14821460D02*
X13021753Y-14811936D01*
X13021753Y-14811936D02*
X13021753Y-14830984D01*
X13155086Y-14630984D02*
X13174134Y-14630984D01*
X13174134Y-14630984D02*
X13193182Y-14640508D01*
X13193182Y-14640508D02*
X13202705Y-14650031D01*
X13202705Y-14650031D02*
X13212229Y-14669079D01*
X13212229Y-14669079D02*
X13221753Y-14707174D01*
X13221753Y-14707174D02*
X13221753Y-14754793D01*
X13221753Y-14754793D02*
X13212229Y-14792888D01*
X13212229Y-14792888D02*
X13202705Y-14811936D01*
X13202705Y-14811936D02*
X13193182Y-14821460D01*
X13193182Y-14821460D02*
X13174134Y-14830984D01*
X13174134Y-14830984D02*
X13155086Y-14830984D01*
X13155086Y-14830984D02*
X13136039Y-14821460D01*
X13136039Y-14821460D02*
X13126515Y-14811936D01*
X13126515Y-14811936D02*
X13116991Y-14792888D01*
X13116991Y-14792888D02*
X13107467Y-14754793D01*
X13107467Y-14754793D02*
X13107467Y-14707174D01*
X13107467Y-14707174D02*
X13116991Y-14669079D01*
X13116991Y-14669079D02*
X13126515Y-14650031D01*
X13126515Y-14650031D02*
X13136039Y-14640508D01*
X13136039Y-14640508D02*
X13155086Y-14630984D01*
X13345562Y-14630984D02*
X13364610Y-14630984D01*
X13364610Y-14630984D02*
X13383658Y-14640508D01*
X13383658Y-14640508D02*
X13393182Y-14650031D01*
X13393182Y-14650031D02*
X13402705Y-14669079D01*
X13402705Y-14669079D02*
X13412229Y-14707174D01*
X13412229Y-14707174D02*
X13412229Y-14754793D01*
X13412229Y-14754793D02*
X13402705Y-14792888D01*
X13402705Y-14792888D02*
X13393182Y-14811936D01*
X13393182Y-14811936D02*
X13383658Y-14821460D01*
X13383658Y-14821460D02*
X13364610Y-14830984D01*
X13364610Y-14830984D02*
X13345562Y-14830984D01*
X13345562Y-14830984D02*
X13326515Y-14821460D01*
X13326515Y-14821460D02*
X13316991Y-14811936D01*
X13316991Y-14811936D02*
X13307467Y-14792888D01*
X13307467Y-14792888D02*
X13297943Y-14754793D01*
X13297943Y-14754793D02*
X13297943Y-14707174D01*
X13297943Y-14707174D02*
X13307467Y-14669079D01*
X13307467Y-14669079D02*
X13316991Y-14650031D01*
X13316991Y-14650031D02*
X13326515Y-14640508D01*
X13326515Y-14640508D02*
X13345562Y-14630984D01*
X13536039Y-14630984D02*
X13555086Y-14630984D01*
X13555086Y-14630984D02*
X13574134Y-14640508D01*
X13574134Y-14640508D02*
X13583658Y-14650031D01*
X13583658Y-14650031D02*
X13593182Y-14669079D01*
X13593182Y-14669079D02*
X13602705Y-14707174D01*
X13602705Y-14707174D02*
X13602705Y-14754793D01*
X13602705Y-14754793D02*
X13593182Y-14792888D01*
X13593182Y-14792888D02*
X13583658Y-14811936D01*
X13583658Y-14811936D02*
X13574134Y-14821460D01*
X13574134Y-14821460D02*
X13555086Y-14830984D01*
X13555086Y-14830984D02*
X13536039Y-14830984D01*
X13536039Y-14830984D02*
X13516991Y-14821460D01*
X13516991Y-14821460D02*
X13507467Y-14811936D01*
X13507467Y-14811936D02*
X13497943Y-14792888D01*
X13497943Y-14792888D02*
X13488420Y-14754793D01*
X13488420Y-14754793D02*
X13488420Y-14707174D01*
X13488420Y-14707174D02*
X13497943Y-14669079D01*
X13497943Y-14669079D02*
X13507467Y-14650031D01*
X13507467Y-14650031D02*
X13516991Y-14640508D01*
X13516991Y-14640508D02*
X13536039Y-14630984D01*
X13688420Y-14830984D02*
X13688420Y-14697650D01*
X13688420Y-14716698D02*
X13697943Y-14707174D01*
X13697943Y-14707174D02*
X13716991Y-14697650D01*
X13716991Y-14697650D02*
X13745563Y-14697650D01*
X13745563Y-14697650D02*
X13764610Y-14707174D01*
X13764610Y-14707174D02*
X13774134Y-14726222D01*
X13774134Y-14726222D02*
X13774134Y-14830984D01*
X13774134Y-14726222D02*
X13783658Y-14707174D01*
X13783658Y-14707174D02*
X13802705Y-14697650D01*
X13802705Y-14697650D02*
X13831277Y-14697650D01*
X13831277Y-14697650D02*
X13850324Y-14707174D01*
X13850324Y-14707174D02*
X13859848Y-14726222D01*
X13859848Y-14726222D02*
X13859848Y-14830984D01*
X13955086Y-14830984D02*
X13955086Y-14697650D01*
X13955086Y-14716698D02*
X13964610Y-14707174D01*
X13964610Y-14707174D02*
X13983658Y-14697650D01*
X13983658Y-14697650D02*
X14012229Y-14697650D01*
X14012229Y-14697650D02*
X14031277Y-14707174D01*
X14031277Y-14707174D02*
X14040801Y-14726222D01*
X14040801Y-14726222D02*
X14040801Y-14830984D01*
X14040801Y-14726222D02*
X14050324Y-14707174D01*
X14050324Y-14707174D02*
X14069372Y-14697650D01*
X14069372Y-14697650D02*
X14097943Y-14697650D01*
X14097943Y-14697650D02*
X14116991Y-14707174D01*
X14116991Y-14707174D02*
X14126515Y-14726222D01*
X14126515Y-14726222D02*
X14126515Y-14830984D01*
X14516991Y-14621460D02*
X14345563Y-14878603D01*
X14774134Y-14630984D02*
X14793182Y-14630984D01*
X14793182Y-14630984D02*
X14812229Y-14640508D01*
X14812229Y-14640508D02*
X14821753Y-14650031D01*
X14821753Y-14650031D02*
X14831277Y-14669079D01*
X14831277Y-14669079D02*
X14840801Y-14707174D01*
X14840801Y-14707174D02*
X14840801Y-14754793D01*
X14840801Y-14754793D02*
X14831277Y-14792888D01*
X14831277Y-14792888D02*
X14821753Y-14811936D01*
X14821753Y-14811936D02*
X14812229Y-14821460D01*
X14812229Y-14821460D02*
X14793182Y-14830984D01*
X14793182Y-14830984D02*
X14774134Y-14830984D01*
X14774134Y-14830984D02*
X14755086Y-14821460D01*
X14755086Y-14821460D02*
X14745563Y-14811936D01*
X14745563Y-14811936D02*
X14736039Y-14792888D01*
X14736039Y-14792888D02*
X14726515Y-14754793D01*
X14726515Y-14754793D02*
X14726515Y-14707174D01*
X14726515Y-14707174D02*
X14736039Y-14669079D01*
X14736039Y-14669079D02*
X14745563Y-14650031D01*
X14745563Y-14650031D02*
X14755086Y-14640508D01*
X14755086Y-14640508D02*
X14774134Y-14630984D01*
X14926515Y-14811936D02*
X14936039Y-14821460D01*
X14936039Y-14821460D02*
X14926515Y-14830984D01*
X14926515Y-14830984D02*
X14916991Y-14821460D01*
X14916991Y-14821460D02*
X14926515Y-14811936D01*
X14926515Y-14811936D02*
X14926515Y-14830984D01*
X15059848Y-14630984D02*
X15078896Y-14630984D01*
X15078896Y-14630984D02*
X15097944Y-14640508D01*
X15097944Y-14640508D02*
X15107467Y-14650031D01*
X15107467Y-14650031D02*
X15116991Y-14669079D01*
X15116991Y-14669079D02*
X15126515Y-14707174D01*
X15126515Y-14707174D02*
X15126515Y-14754793D01*
X15126515Y-14754793D02*
X15116991Y-14792888D01*
X15116991Y-14792888D02*
X15107467Y-14811936D01*
X15107467Y-14811936D02*
X15097944Y-14821460D01*
X15097944Y-14821460D02*
X15078896Y-14830984D01*
X15078896Y-14830984D02*
X15059848Y-14830984D01*
X15059848Y-14830984D02*
X15040801Y-14821460D01*
X15040801Y-14821460D02*
X15031277Y-14811936D01*
X15031277Y-14811936D02*
X15021753Y-14792888D01*
X15021753Y-14792888D02*
X15012229Y-14754793D01*
X15012229Y-14754793D02*
X15012229Y-14707174D01*
X15012229Y-14707174D02*
X15021753Y-14669079D01*
X15021753Y-14669079D02*
X15031277Y-14650031D01*
X15031277Y-14650031D02*
X15040801Y-14640508D01*
X15040801Y-14640508D02*
X15059848Y-14630984D01*
X15193182Y-14630984D02*
X15316991Y-14630984D01*
X15316991Y-14630984D02*
X15250325Y-14707174D01*
X15250325Y-14707174D02*
X15278896Y-14707174D01*
X15278896Y-14707174D02*
X15297944Y-14716698D01*
X15297944Y-14716698D02*
X15307467Y-14726222D01*
X15307467Y-14726222D02*
X15316991Y-14745269D01*
X15316991Y-14745269D02*
X15316991Y-14792888D01*
X15316991Y-14792888D02*
X15307467Y-14811936D01*
X15307467Y-14811936D02*
X15297944Y-14821460D01*
X15297944Y-14821460D02*
X15278896Y-14830984D01*
X15278896Y-14830984D02*
X15221753Y-14830984D01*
X15221753Y-14830984D02*
X15202706Y-14821460D01*
X15202706Y-14821460D02*
X15193182Y-14811936D01*
X15412229Y-14830984D02*
X15450325Y-14830984D01*
X15450325Y-14830984D02*
X15469372Y-14821460D01*
X15469372Y-14821460D02*
X15478896Y-14811936D01*
X15478896Y-14811936D02*
X15497944Y-14783365D01*
X15497944Y-14783365D02*
X15507467Y-14745269D01*
X15507467Y-14745269D02*
X15507467Y-14669079D01*
X15507467Y-14669079D02*
X15497944Y-14650031D01*
X15497944Y-14650031D02*
X15488420Y-14640508D01*
X15488420Y-14640508D02*
X15469372Y-14630984D01*
X15469372Y-14630984D02*
X15431277Y-14630984D01*
X15431277Y-14630984D02*
X15412229Y-14640508D01*
X15412229Y-14640508D02*
X15402706Y-14650031D01*
X15402706Y-14650031D02*
X15393182Y-14669079D01*
X15393182Y-14669079D02*
X15393182Y-14716698D01*
X15393182Y-14716698D02*
X15402706Y-14735746D01*
X15402706Y-14735746D02*
X15412229Y-14745269D01*
X15412229Y-14745269D02*
X15431277Y-14754793D01*
X15431277Y-14754793D02*
X15469372Y-14754793D01*
X15469372Y-14754793D02*
X15488420Y-14745269D01*
X15488420Y-14745269D02*
X15497944Y-14735746D01*
X15497944Y-14735746D02*
X15507467Y-14716698D01*
X15678896Y-14697650D02*
X15678896Y-14830984D01*
X15631277Y-14621460D02*
X15583658Y-14764317D01*
X15583658Y-14764317D02*
X15707467Y-14764317D01*
X15774134Y-14630984D02*
X15774134Y-14669079D01*
X15850325Y-14630984D02*
X15850325Y-14669079D01*
X16145563Y-14907174D02*
X16136039Y-14897650D01*
X16136039Y-14897650D02*
X16116991Y-14869079D01*
X16116991Y-14869079D02*
X16107468Y-14850031D01*
X16107468Y-14850031D02*
X16097944Y-14821460D01*
X16097944Y-14821460D02*
X16088420Y-14773841D01*
X16088420Y-14773841D02*
X16088420Y-14735746D01*
X16088420Y-14735746D02*
X16097944Y-14688127D01*
X16097944Y-14688127D02*
X16107468Y-14659555D01*
X16107468Y-14659555D02*
X16116991Y-14640508D01*
X16116991Y-14640508D02*
X16136039Y-14611936D01*
X16136039Y-14611936D02*
X16145563Y-14602412D01*
X16202706Y-14630984D02*
X16326515Y-14630984D01*
X16326515Y-14630984D02*
X16259848Y-14707174D01*
X16259848Y-14707174D02*
X16288420Y-14707174D01*
X16288420Y-14707174D02*
X16307468Y-14716698D01*
X16307468Y-14716698D02*
X16316991Y-14726222D01*
X16316991Y-14726222D02*
X16326515Y-14745269D01*
X16326515Y-14745269D02*
X16326515Y-14792888D01*
X16326515Y-14792888D02*
X16316991Y-14811936D01*
X16316991Y-14811936D02*
X16307468Y-14821460D01*
X16307468Y-14821460D02*
X16288420Y-14830984D01*
X16288420Y-14830984D02*
X16231277Y-14830984D01*
X16231277Y-14830984D02*
X16212229Y-14821460D01*
X16212229Y-14821460D02*
X16202706Y-14811936D01*
X16402706Y-14650031D02*
X16412229Y-14640508D01*
X16412229Y-14640508D02*
X16431277Y-14630984D01*
X16431277Y-14630984D02*
X16478896Y-14630984D01*
X16478896Y-14630984D02*
X16497944Y-14640508D01*
X16497944Y-14640508D02*
X16507468Y-14650031D01*
X16507468Y-14650031D02*
X16516991Y-14669079D01*
X16516991Y-14669079D02*
X16516991Y-14688127D01*
X16516991Y-14688127D02*
X16507468Y-14716698D01*
X16507468Y-14716698D02*
X16393182Y-14830984D01*
X16393182Y-14830984D02*
X16516991Y-14830984D01*
X16755087Y-14830984D02*
X16755087Y-14630984D01*
X16840801Y-14830984D02*
X16840801Y-14726222D01*
X16840801Y-14726222D02*
X16831277Y-14707174D01*
X16831277Y-14707174D02*
X16812230Y-14697650D01*
X16812230Y-14697650D02*
X16783658Y-14697650D01*
X16783658Y-14697650D02*
X16764610Y-14707174D01*
X16764610Y-14707174D02*
X16755087Y-14716698D01*
X16964611Y-14830984D02*
X16945563Y-14821460D01*
X16945563Y-14821460D02*
X16936039Y-14811936D01*
X16936039Y-14811936D02*
X16926515Y-14792888D01*
X16926515Y-14792888D02*
X16926515Y-14735746D01*
X16926515Y-14735746D02*
X16936039Y-14716698D01*
X16936039Y-14716698D02*
X16945563Y-14707174D01*
X16945563Y-14707174D02*
X16964611Y-14697650D01*
X16964611Y-14697650D02*
X16993182Y-14697650D01*
X16993182Y-14697650D02*
X17012230Y-14707174D01*
X17012230Y-14707174D02*
X17021753Y-14716698D01*
X17021753Y-14716698D02*
X17031277Y-14735746D01*
X17031277Y-14735746D02*
X17031277Y-14792888D01*
X17031277Y-14792888D02*
X17021753Y-14811936D01*
X17021753Y-14811936D02*
X17012230Y-14821460D01*
X17012230Y-14821460D02*
X16993182Y-14830984D01*
X16993182Y-14830984D02*
X16964611Y-14830984D01*
X17145563Y-14830984D02*
X17126515Y-14821460D01*
X17126515Y-14821460D02*
X17116992Y-14802412D01*
X17116992Y-14802412D02*
X17116992Y-14630984D01*
X17297944Y-14821460D02*
X17278896Y-14830984D01*
X17278896Y-14830984D02*
X17240801Y-14830984D01*
X17240801Y-14830984D02*
X17221753Y-14821460D01*
X17221753Y-14821460D02*
X17212230Y-14802412D01*
X17212230Y-14802412D02*
X17212230Y-14726222D01*
X17212230Y-14726222D02*
X17221753Y-14707174D01*
X17221753Y-14707174D02*
X17240801Y-14697650D01*
X17240801Y-14697650D02*
X17278896Y-14697650D01*
X17278896Y-14697650D02*
X17297944Y-14707174D01*
X17297944Y-14707174D02*
X17307468Y-14726222D01*
X17307468Y-14726222D02*
X17307468Y-14745269D01*
X17307468Y-14745269D02*
X17212230Y-14764317D01*
X17383658Y-14821460D02*
X17402706Y-14830984D01*
X17402706Y-14830984D02*
X17440801Y-14830984D01*
X17440801Y-14830984D02*
X17459849Y-14821460D01*
X17459849Y-14821460D02*
X17469373Y-14802412D01*
X17469373Y-14802412D02*
X17469373Y-14792888D01*
X17469373Y-14792888D02*
X17459849Y-14773841D01*
X17459849Y-14773841D02*
X17440801Y-14764317D01*
X17440801Y-14764317D02*
X17412230Y-14764317D01*
X17412230Y-14764317D02*
X17393182Y-14754793D01*
X17393182Y-14754793D02*
X17383658Y-14735746D01*
X17383658Y-14735746D02*
X17383658Y-14726222D01*
X17383658Y-14726222D02*
X17393182Y-14707174D01*
X17393182Y-14707174D02*
X17412230Y-14697650D01*
X17412230Y-14697650D02*
X17440801Y-14697650D01*
X17440801Y-14697650D02*
X17459849Y-14707174D01*
X17536039Y-14907174D02*
X17545563Y-14897650D01*
X17545563Y-14897650D02*
X17564611Y-14869079D01*
X17564611Y-14869079D02*
X17574134Y-14850031D01*
X17574134Y-14850031D02*
X17583658Y-14821460D01*
X17583658Y-14821460D02*
X17593182Y-14773841D01*
X17593182Y-14773841D02*
X17593182Y-14735746D01*
X17593182Y-14735746D02*
X17583658Y-14688127D01*
X17583658Y-14688127D02*
X17574134Y-14659555D01*
X17574134Y-14659555D02*
X17564611Y-14640508D01*
X17564611Y-14640508D02*
X17545563Y-14611936D01*
X17545563Y-14611936D02*
X17536039Y-14602412D01*
M02*
