G04 #@! TF.GenerationSoftware,KiCad,Pcbnew,9.0.6*
G04 #@! TF.CreationDate,2026-01-07T21:32:32-06:00*
G04 #@! TF.ProjectId,QFP-32_5x5_P0.5,5146502d-3332-45f3-9578-355f50302e35,rev?*
G04 #@! TF.SameCoordinates,Original*
G04 #@! TF.FileFunction,Copper,L1,Top*
G04 #@! TF.FilePolarity,Positive*
%FSLAX46Y46*%
G04 Gerber Fmt 4.6, Leading zero omitted, Abs format (unit mm)*
G04 Created by KiCad (PCBNEW 9.0.6) date 2026-01-07 21:32:32*
%MOMM*%
%LPD*%
G01*
G04 APERTURE LIST*
G04 Aperture macros list*
%AMRoundRect*
0 Rectangle with rounded corners*
0 $1 Rounding radius*
0 $2 $3 $4 $5 $6 $7 $8 $9 X,Y pos of 4 corners*
0 Add a 4 corners polygon primitive as box body*
4,1,4,$2,$3,$4,$5,$6,$7,$8,$9,$2,$3,0*
0 Add four circle primitives for the rounded corners*
1,1,$1+$1,$2,$3*
1,1,$1+$1,$4,$5*
1,1,$1+$1,$6,$7*
1,1,$1+$1,$8,$9*
0 Add four rect primitives between the rounded corners*
20,1,$1+$1,$2,$3,$4,$5,0*
20,1,$1+$1,$4,$5,$6,$7,0*
20,1,$1+$1,$6,$7,$8,$9,0*
20,1,$1+$1,$8,$9,$2,$3,0*%
G04 Aperture macros list end*
G04 #@! TA.AperFunction,SMDPad,CuDef*
%ADD10RoundRect,0.075000X-0.707107X0.601041X0.601041X-0.707107X0.707107X-0.601041X-0.601041X0.707107X0*%
G04 #@! TD*
G04 #@! TA.AperFunction,SMDPad,CuDef*
%ADD11RoundRect,0.075000X-0.707107X-0.601041X-0.601041X-0.707107X0.707107X0.601041X0.601041X0.707107X0*%
G04 #@! TD*
G04 #@! TA.AperFunction,ComponentPad*
%ADD12R,1.700000X1.700000*%
G04 #@! TD*
G04 #@! TA.AperFunction,ComponentPad*
%ADD13C,1.700000*%
G04 #@! TD*
G04 #@! TA.AperFunction,Conductor*
%ADD14C,0.250000*%
G04 #@! TD*
G04 APERTURE END LIST*
D10*
X137240293Y-116985419D03*
X136886739Y-117338972D03*
X136533186Y-117692526D03*
X136179633Y-118046079D03*
X135826079Y-118399633D03*
X135472526Y-118753186D03*
X135118972Y-119106739D03*
X134765419Y-119460293D03*
D11*
X134765419Y-121839707D03*
X135118972Y-122193261D03*
X135472526Y-122546814D03*
X135826079Y-122900367D03*
X136179633Y-123253921D03*
X136533186Y-123607474D03*
X136886739Y-123961028D03*
X137240293Y-124314581D03*
D10*
X139619707Y-124314581D03*
X139973261Y-123961028D03*
X140326814Y-123607474D03*
X140680367Y-123253921D03*
X141033921Y-122900367D03*
X141387474Y-122546814D03*
X141741028Y-122193261D03*
X142094581Y-121839707D03*
D11*
X142094581Y-119460293D03*
X141741028Y-119106739D03*
X141387474Y-118753186D03*
X141033921Y-118399633D03*
X140680367Y-118046079D03*
X140326814Y-117692526D03*
X139973261Y-117338972D03*
X139619707Y-116985419D03*
D12*
X127000000Y-101600000D03*
D13*
X127000000Y-104140000D03*
X127000000Y-106680000D03*
X127000000Y-109220000D03*
X127000000Y-111760000D03*
X127000000Y-114300000D03*
X127000000Y-116840000D03*
X127000000Y-119380000D03*
X127000000Y-121920000D03*
X127000000Y-124460000D03*
X127000000Y-127000000D03*
X127000000Y-129540000D03*
X127000000Y-132080000D03*
X127000000Y-134620000D03*
X127000000Y-137160000D03*
X127000000Y-139700000D03*
X149860000Y-101600000D03*
X149860000Y-104140000D03*
X149860000Y-106680000D03*
X149860000Y-109220000D03*
X149860000Y-111760000D03*
X149860000Y-114300000D03*
X149860000Y-116840000D03*
X149860000Y-119380000D03*
X149860000Y-121920000D03*
X149860000Y-124460000D03*
X149860000Y-127000000D03*
X149860000Y-129540000D03*
X149860000Y-132080000D03*
X149860000Y-134620000D03*
X149860000Y-137160000D03*
X149860000Y-139700000D03*
D14*
X148082000Y-137922000D02*
X149860000Y-139700000D01*
X148082000Y-136144000D02*
X148082000Y-137922000D01*
X148082000Y-122682000D02*
X148844000Y-121920000D01*
X140680367Y-123253921D02*
X149506446Y-132080000D01*
X148082000Y-109937340D02*
X148082000Y-108458000D01*
X148844000Y-119380000D02*
X149860000Y-119380000D01*
X147673553Y-111760000D02*
X149860000Y-111760001D01*
X148082001Y-107696000D02*
X148082000Y-105918000D01*
X142936874Y-122682000D02*
X148082000Y-122682000D01*
X141033920Y-118399633D02*
X147673553Y-111760000D01*
X139973261Y-117338972D02*
X147574000Y-109738232D01*
X148844000Y-121920000D02*
X149860000Y-121919999D01*
X145840660Y-114300000D02*
X149860000Y-114300000D01*
X149506446Y-132080000D02*
X149860000Y-132080000D01*
X141741028Y-122193261D02*
X144007767Y-124460000D01*
X142094581Y-121839707D02*
X142936874Y-122682000D01*
X148082001Y-103378000D02*
X149860000Y-101600001D01*
X148082000Y-105156000D02*
X148082001Y-103378000D01*
X148082000Y-105918000D02*
X149860000Y-104140000D01*
X141387474Y-122546813D02*
X145840660Y-126999999D01*
X147673554Y-129540000D02*
X149860000Y-129540000D01*
X142936874Y-118618000D02*
X148082000Y-118618000D01*
X147574002Y-135636000D02*
X148082000Y-136144000D01*
X147574000Y-133858000D02*
X147574002Y-135636000D01*
X147066000Y-133350000D02*
X147574000Y-133858000D01*
X147574000Y-133096000D02*
X148082000Y-133604000D01*
X140326814Y-117692525D02*
X148082000Y-109937340D01*
X147574000Y-109738232D02*
X147574000Y-108204000D01*
X147066000Y-131760874D02*
X147066000Y-133350000D01*
X141741028Y-119106739D02*
X144007766Y-116840000D01*
X140326814Y-123607474D02*
X148082000Y-131362660D01*
X148082000Y-118618000D02*
X148844000Y-119380000D01*
X147573999Y-107442000D02*
X147573999Y-105664000D01*
X144007766Y-116840000D02*
X149860000Y-116840000D01*
X147574000Y-108204000D02*
X148082001Y-107696000D01*
X139619706Y-124314581D02*
X147066000Y-131760874D01*
X148082000Y-133604000D02*
X148082000Y-135382000D01*
X141387474Y-118753186D02*
X145840660Y-114300000D01*
X148082000Y-135382000D02*
X149860000Y-137160000D01*
X141033921Y-122900367D02*
X147673554Y-129540000D01*
X147066000Y-109539126D02*
X147066000Y-107950000D01*
X140680367Y-118046079D02*
X149506446Y-109220000D01*
X148082000Y-108458000D02*
X149860000Y-106680000D01*
X149506446Y-109220000D02*
X149860000Y-109220000D01*
X147574000Y-131561767D02*
X147574000Y-133096000D01*
X147573999Y-105664000D02*
X148082000Y-105156000D01*
X145840660Y-126999999D02*
X149860000Y-127000000D01*
X139973261Y-123961028D02*
X147574000Y-131561767D01*
X142094581Y-119460292D02*
X142936874Y-118618000D01*
X144007767Y-124460000D02*
X149860000Y-124460000D01*
X148082000Y-132842000D02*
X149860000Y-134620001D01*
X147066000Y-107950000D02*
X147573999Y-107442000D01*
X148082000Y-131362660D02*
X148082000Y-132842000D01*
X139619707Y-116985419D02*
X147066000Y-109539126D01*
X128778000Y-137922000D02*
X127000000Y-139700000D01*
X128778000Y-136144000D02*
X128778000Y-137922000D01*
X129286000Y-135636000D02*
X128778000Y-136144000D01*
X129286000Y-133858000D02*
X129286000Y-135636000D01*
X129794000Y-133350000D02*
X129286000Y-133858000D01*
X129794000Y-131760874D02*
X129794000Y-133350000D01*
X137240293Y-124314581D02*
X129794000Y-131760874D01*
X128778000Y-133604000D02*
X128778000Y-135382000D01*
X128778000Y-135382000D02*
X127000000Y-137160000D01*
X129286000Y-133096000D02*
X128778000Y-133604000D01*
X129286000Y-131561767D02*
X129286000Y-133096000D01*
X136886739Y-123961028D02*
X129286000Y-131561767D01*
X128778000Y-132842000D02*
X127000000Y-134620000D01*
X128778000Y-131362660D02*
X128778000Y-132842000D01*
X136533186Y-123607474D02*
X128778000Y-131362660D01*
X136179633Y-123253921D02*
X127353554Y-132080000D01*
X127353554Y-132080000D02*
X127000000Y-132080000D01*
X129186446Y-129540000D02*
X127000000Y-129540000D01*
X135826079Y-122900367D02*
X129186446Y-129540000D01*
X131019340Y-127000000D02*
X127000000Y-127000000D01*
X135472526Y-122546814D02*
X131019340Y-127000000D01*
X132852233Y-124460000D02*
X127000000Y-124460000D01*
X135118972Y-122193261D02*
X132852233Y-124460000D01*
X128016000Y-121920000D02*
X127000000Y-121920000D01*
X128778000Y-122682000D02*
X128016000Y-121920000D01*
X133923126Y-122682000D02*
X128778000Y-122682000D01*
X134765419Y-121839707D02*
X133923126Y-122682000D01*
X128778000Y-103378000D02*
X127000000Y-101600000D01*
X128778000Y-105156000D02*
X128778000Y-103378000D01*
X129286000Y-105664000D02*
X128778000Y-105156000D01*
X129286000Y-107442000D02*
X129286000Y-105664000D01*
X129794000Y-107950000D02*
X129286000Y-107442000D01*
X129794000Y-109539126D02*
X129794000Y-107950000D01*
X137240293Y-116985419D02*
X129794000Y-109539126D01*
X128778000Y-107696000D02*
X128778000Y-105918000D01*
X129286000Y-108204000D02*
X128778000Y-107696000D01*
X129286000Y-109738233D02*
X129286000Y-108204000D01*
X136886739Y-117338972D02*
X129286000Y-109738233D01*
X128778000Y-105918000D02*
X127000000Y-104140000D01*
X128778000Y-108458000D02*
X127000000Y-106680000D01*
X128778000Y-109937340D02*
X128778000Y-108458000D01*
X136533186Y-117692526D02*
X128778000Y-109937340D01*
X127353554Y-109220000D02*
X127000000Y-109220000D01*
X136179633Y-118046079D02*
X127353554Y-109220000D01*
X135826079Y-118399633D02*
X129186446Y-111760000D01*
X129186446Y-111760000D02*
X127000000Y-111760000D01*
X135472526Y-118753186D02*
X131019340Y-114300000D01*
X131019340Y-114300000D02*
X127000000Y-114300000D01*
X132852233Y-116840000D02*
X127000000Y-116840000D01*
X135118972Y-119106739D02*
X132852233Y-116840000D01*
X133923126Y-118618000D02*
X128778000Y-118618000D01*
X128016000Y-119380000D02*
X127000000Y-119380000D01*
X134765419Y-119460293D02*
X133923126Y-118618000D01*
X128778000Y-118618000D02*
X128016000Y-119380000D01*
M02*
