G04 #@! TF.GenerationSoftware,KiCad,Pcbnew,9.0.6*
G04 #@! TF.CreationDate,2026-01-07T21:32:32-06:00*
G04 #@! TF.ProjectId,QFP-32_5x5_P0.5,5146502d-3332-45f3-9578-355f50302e35,rev?*
G04 #@! TF.SameCoordinates,Original*
G04 #@! TF.FileFunction,Soldermask,Bot*
G04 #@! TF.FilePolarity,Negative*
%FSLAX46Y46*%
G04 Gerber Fmt 4.6, Leading zero omitted, Abs format (unit mm)*
G04 Created by KiCad (PCBNEW 9.0.6) date 2026-01-07 21:32:32*
%MOMM*%
%LPD*%
G01*
G04 APERTURE LIST*
%ADD10R,1.700000X1.700000*%
%ADD11C,1.700000*%
%ADD12R,2.510000X1.000000*%
G04 APERTURE END LIST*
D10*
X127000000Y-101600000D03*
D11*
X127000000Y-104140000D03*
X127000000Y-106680000D03*
X127000000Y-109220000D03*
X127000000Y-111760000D03*
X127000000Y-114300000D03*
X127000000Y-116840000D03*
X127000000Y-119380000D03*
X127000000Y-121920000D03*
X127000000Y-124460000D03*
X127000000Y-127000000D03*
X127000000Y-129540000D03*
X127000000Y-132080000D03*
X127000000Y-134620000D03*
X127000000Y-137160000D03*
X127000000Y-139700000D03*
X149860000Y-101600000D03*
X149860000Y-104140000D03*
X149860000Y-106680000D03*
X149860000Y-109220000D03*
X149860000Y-111760000D03*
X149860000Y-114300000D03*
X149860000Y-116840000D03*
X149860000Y-119380000D03*
X149860000Y-121920000D03*
X149860000Y-124460000D03*
X149860000Y-127000000D03*
X149860000Y-129540000D03*
X149860000Y-132080000D03*
X149860000Y-134620000D03*
X149860000Y-137160000D03*
X149860000Y-139700000D03*
D12*
X133735000Y-101596642D03*
X130425000Y-104136642D03*
X133735000Y-106676642D03*
X130425000Y-109216642D03*
X133735000Y-111756642D03*
X130425000Y-114296642D03*
X133735000Y-116836642D03*
X130425000Y-119376642D03*
X133735000Y-121916642D03*
X130425000Y-124456642D03*
X133735000Y-126996642D03*
X130425000Y-129536642D03*
X133735000Y-132076642D03*
X130425000Y-134616642D03*
X133735000Y-137156642D03*
X130425000Y-139696642D03*
X143125000Y-101596642D03*
X146435000Y-104136642D03*
X143125000Y-106676642D03*
X146435000Y-109216642D03*
X143125000Y-111756642D03*
X146435000Y-114296642D03*
X143125000Y-116836642D03*
X146435000Y-119376642D03*
X143125000Y-121916642D03*
X146435000Y-124456642D03*
X143125000Y-126996642D03*
X146435000Y-129536642D03*
X143125000Y-132076642D03*
X146435000Y-134616642D03*
X143125000Y-137156642D03*
X146435000Y-139696642D03*
M02*
