G04 #@! TF.GenerationSoftware,KiCad,Pcbnew,9.0.6*
G04 #@! TF.CreationDate,2026-01-02T14:07:14-06:00*
G04 #@! TF.ProjectId,QFN-20_4x4,51464e2d-3230-45f3-9478-342e6b696361,rev?*
G04 #@! TF.SameCoordinates,Original*
G04 #@! TF.FileFunction,Soldermask,Top*
G04 #@! TF.FilePolarity,Negative*
%FSLAX46Y46*%
G04 Gerber Fmt 4.6, Leading zero omitted, Abs format (unit mm)*
G04 Created by KiCad (PCBNEW 9.0.6) date 2026-01-02 14:07:14*
%MOMM*%
%LPD*%
G01*
G04 APERTURE LIST*
G04 Aperture macros list*
%AMRoundRect*
0 Rectangle with rounded corners*
0 $1 Rounding radius*
0 $2 $3 $4 $5 $6 $7 $8 $9 X,Y pos of 4 corners*
0 Add a 4 corners polygon primitive as box body*
4,1,4,$2,$3,$4,$5,$6,$7,$8,$9,$2,$3,0*
0 Add four circle primitives for the rounded corners*
1,1,$1+$1,$2,$3*
1,1,$1+$1,$4,$5*
1,1,$1+$1,$6,$7*
1,1,$1+$1,$8,$9*
0 Add four rect primitives between the rounded corners*
20,1,$1+$1,$2,$3,$4,$5,0*
20,1,$1+$1,$4,$5,$6,$7,0*
20,1,$1+$1,$6,$7,$8,$9,0*
20,1,$1+$1,$8,$9,$2,$3,0*%
%AMRotRect*
0 Rectangle, with rotation*
0 The origin of the aperture is its center*
0 $1 length*
0 $2 width*
0 $3 Rotation angle, in degrees counterclockwise*
0 Add horizontal line*
21,1,$1,$2,0,0,$3*%
G04 Aperture macros list end*
%ADD10RoundRect,0.062500X-0.437522X0.349134X0.349134X-0.437522X0.437522X-0.349134X-0.349134X0.437522X0*%
%ADD11RoundRect,0.062500X-0.437522X-0.349134X-0.349134X-0.437522X0.437522X0.349134X0.349134X0.437522X0*%
%ADD12RotRect,2.500000X2.500000X315.000000*%
%ADD13C,1.700000*%
%ADD14R,1.700000X1.700000*%
G04 APERTURE END LIST*
D10*
X137587482Y-117297039D03*
X137233929Y-117650592D03*
X136880376Y-118004146D03*
X136526822Y-118357699D03*
X136173269Y-118711252D03*
D11*
X136173269Y-120396288D03*
X136526822Y-120749841D03*
X136880376Y-121103394D03*
X137233929Y-121456948D03*
X137587482Y-121810501D03*
D10*
X139272518Y-121810501D03*
X139626071Y-121456948D03*
X139979624Y-121103394D03*
X140333178Y-120749841D03*
X140686731Y-120396288D03*
D11*
X140686731Y-118711252D03*
X140333178Y-118357699D03*
X139979624Y-118004146D03*
X139626071Y-117650592D03*
X139272518Y-117297039D03*
D12*
X138430000Y-119553770D03*
D13*
X129540000Y-106680000D03*
D14*
X129540000Y-109220000D03*
D13*
X129540000Y-111760000D03*
X129540000Y-114300000D03*
X129540000Y-116840000D03*
X129540000Y-119380000D03*
X129540000Y-121920000D03*
X129540000Y-124460000D03*
X129540000Y-127000000D03*
X129540000Y-129540000D03*
X129540000Y-132080000D03*
X129540000Y-134620000D03*
X147320000Y-106680000D03*
X147320000Y-109220000D03*
X147320000Y-111760000D03*
X147320000Y-114300000D03*
X147320000Y-116840000D03*
X147320000Y-119380000D03*
X147320000Y-121920000D03*
X147320000Y-124460000D03*
X147320000Y-127000000D03*
X147320000Y-129540000D03*
X147320000Y-132080000D03*
X147320000Y-134620000D03*
M02*
