G04 #@! TF.GenerationSoftware,KiCad,Pcbnew,9.0.6*
G04 #@! TF.CreationDate,2025-12-31T14:00:50-06:00*
G04 #@! TF.ProjectId,QFN-20_4x4,51464e2d-3230-45f3-9478-342e6b696361,rev?*
G04 #@! TF.SameCoordinates,Original*
G04 #@! TF.FileFunction,Legend,Bot*
G04 #@! TF.FilePolarity,Positive*
%FSLAX46Y46*%
G04 Gerber Fmt 4.6, Leading zero omitted, Abs format (unit mm)*
G04 Created by KiCad (PCBNEW 9.0.6) date 2025-12-31 14:00:50*
%MOMM*%
%LPD*%
G01*
G04 APERTURE LIST*
%ADD10C,0.120000*%
%ADD11R,2.510000X1.000000*%
%ADD12C,1.700000*%
G04 APERTURE END LIST*
D10*
X130064000Y-105300000D02*
X130064000Y-108410000D01*
X130064000Y-110030000D02*
X130064000Y-113490000D01*
X130064000Y-115110000D02*
X130064000Y-118570000D01*
X130064000Y-120190000D02*
X130064000Y-123650000D01*
X130064000Y-125270000D02*
X130064000Y-128730000D01*
X130064000Y-130350000D02*
X130064000Y-133810000D01*
X130064000Y-135430000D02*
X130064000Y-136000000D01*
X132824000Y-105300000D02*
X130064000Y-105300000D01*
X132824000Y-105300000D02*
X132824000Y-105870000D01*
X132824000Y-107490000D02*
X132824000Y-110950000D01*
X132824000Y-112570000D02*
X132824000Y-116030000D01*
X132824000Y-117650000D02*
X132824000Y-121110000D01*
X132824000Y-122730000D02*
X132824000Y-126190000D01*
X132824000Y-127810000D02*
X132824000Y-131270000D01*
X132824000Y-132890000D02*
X132824000Y-136000000D01*
X132824000Y-136000000D02*
X130064000Y-136000000D01*
X144036000Y-105300000D02*
X144036000Y-108410000D01*
X144036000Y-110030000D02*
X144036000Y-113490000D01*
X144036000Y-115110000D02*
X144036000Y-118570000D01*
X144036000Y-120190000D02*
X144036000Y-123650000D01*
X144036000Y-125270000D02*
X144036000Y-128730000D01*
X144036000Y-130350000D02*
X144036000Y-133810000D01*
X144036000Y-135430000D02*
X144036000Y-136000000D01*
X146796000Y-105300000D02*
X144036000Y-105300000D01*
X146796000Y-105300000D02*
X146796000Y-105870000D01*
X146796000Y-107490000D02*
X146796000Y-110950000D01*
X146796000Y-112570000D02*
X146796000Y-116030000D01*
X146796000Y-117650000D02*
X146796000Y-121110000D01*
X146796000Y-122730000D02*
X146796000Y-126190000D01*
X146796000Y-127810000D02*
X146796000Y-131270000D01*
X146796000Y-132890000D02*
X146796000Y-136000000D01*
X146796000Y-136000000D02*
X144036000Y-136000000D01*
%LPC*%
D11*
X133099000Y-106680000D03*
X129789000Y-109220000D03*
X133099000Y-111760000D03*
X129789000Y-114300000D03*
X133099000Y-116840000D03*
X129789000Y-119380000D03*
X133099000Y-121920000D03*
X129789000Y-124460000D03*
X133099000Y-127000000D03*
X129789000Y-129540000D03*
X133099000Y-132080000D03*
X129789000Y-134620000D03*
X147071000Y-106680000D03*
X143761000Y-109220000D03*
X147071000Y-111760000D03*
X143761000Y-114300000D03*
X147071000Y-116840000D03*
X143761000Y-119380000D03*
X147071000Y-121920000D03*
X143761000Y-124460000D03*
X147071000Y-127000000D03*
X143761000Y-129540000D03*
X147071000Y-132080000D03*
X143761000Y-134620000D03*
D12*
X149860000Y-106680000D03*
X149860000Y-109220000D03*
X149860000Y-111760000D03*
X149860000Y-114300000D03*
X149860000Y-116840000D03*
X149860000Y-119380000D03*
X149860000Y-121920000D03*
X149860000Y-124460000D03*
X149860000Y-127000000D03*
X149860000Y-129540000D03*
X149860000Y-132080000D03*
X149860000Y-134620000D03*
X127000000Y-106680000D03*
X127000000Y-109220000D03*
X127000000Y-111760000D03*
X127000000Y-114300000D03*
X127000000Y-116840000D03*
X127000000Y-119380000D03*
X127000000Y-121920000D03*
X127000000Y-124460000D03*
X127000000Y-127000000D03*
X127000000Y-129540000D03*
X127000000Y-132080000D03*
X127000000Y-134620000D03*
%LPD*%
M02*
