%TF.GenerationSoftware,KiCad,Pcbnew,9.0.6*%
%TF.CreationDate,2025-12-31T14:00:52-06:00*%
%TF.ProjectId,QFN-20_4x4,51464e2d-3230-45f3-9478-342e6b696361,rev?*%
%TF.SameCoordinates,Original*%
%TF.FileFunction,Drillmap*%
%TF.FilePolarity,Positive*%
%FSLAX45Y45*%
G04 Gerber Fmt 4.5, Leading zero omitted, Abs format (unit mm)*
G04 Created by KiCad (PCBNEW 9.0.6) date 2025-12-31 14:00:52*
%MOMM*%
%LPD*%
G01*
G04 APERTURE LIST*
%ADD10C,0.050000*%
%ADD11C,0.200000*%
%ADD12C,0.100000*%
G04 APERTURE END LIST*
D10*
X12573000Y-10541000D02*
X15113000Y-10541000D01*
X15113000Y-13589000D01*
X12573000Y-13589000D01*
X12573000Y-10541000D01*
D11*
D12*
X13686579Y-12050000D02*
X13716579Y-12080000D01*
X13716579Y-12050000D02*
X13686579Y-12080000D01*
X13828000Y-11908579D02*
X13858000Y-11938579D01*
X13858000Y-11908579D02*
X13828000Y-11938579D01*
X13828000Y-12191421D02*
X13858000Y-12221421D01*
X13858000Y-12191421D02*
X13828000Y-12221421D01*
X13969421Y-12050000D02*
X13999421Y-12080000D01*
X13999421Y-12050000D02*
X13969421Y-12080000D01*
X12750000Y-10668000D02*
G75*
G02*
X12650000Y-10668000I-50000J0D01*
G01*
X12650000Y-10668000D02*
G75*
G02*
X12750000Y-10668000I50000J0D01*
G01*
X12750000Y-10922000D02*
G75*
G02*
X12650000Y-10922000I-50000J0D01*
G01*
X12650000Y-10922000D02*
G75*
G02*
X12750000Y-10922000I50000J0D01*
G01*
X12750000Y-11176000D02*
G75*
G02*
X12650000Y-11176000I-50000J0D01*
G01*
X12650000Y-11176000D02*
G75*
G02*
X12750000Y-11176000I50000J0D01*
G01*
X12750000Y-11430000D02*
G75*
G02*
X12650000Y-11430000I-50000J0D01*
G01*
X12650000Y-11430000D02*
G75*
G02*
X12750000Y-11430000I50000J0D01*
G01*
X12750000Y-11684000D02*
G75*
G02*
X12650000Y-11684000I-50000J0D01*
G01*
X12650000Y-11684000D02*
G75*
G02*
X12750000Y-11684000I50000J0D01*
G01*
X12750000Y-11938000D02*
G75*
G02*
X12650000Y-11938000I-50000J0D01*
G01*
X12650000Y-11938000D02*
G75*
G02*
X12750000Y-11938000I50000J0D01*
G01*
X12750000Y-12192000D02*
G75*
G02*
X12650000Y-12192000I-50000J0D01*
G01*
X12650000Y-12192000D02*
G75*
G02*
X12750000Y-12192000I50000J0D01*
G01*
X12750000Y-12446000D02*
G75*
G02*
X12650000Y-12446000I-50000J0D01*
G01*
X12650000Y-12446000D02*
G75*
G02*
X12750000Y-12446000I50000J0D01*
G01*
X12750000Y-12700000D02*
G75*
G02*
X12650000Y-12700000I-50000J0D01*
G01*
X12650000Y-12700000D02*
G75*
G02*
X12750000Y-12700000I50000J0D01*
G01*
X12750000Y-12954000D02*
G75*
G02*
X12650000Y-12954000I-50000J0D01*
G01*
X12650000Y-12954000D02*
G75*
G02*
X12750000Y-12954000I50000J0D01*
G01*
X12750000Y-13208000D02*
G75*
G02*
X12650000Y-13208000I-50000J0D01*
G01*
X12650000Y-13208000D02*
G75*
G02*
X12750000Y-13208000I50000J0D01*
G01*
X12750000Y-13462000D02*
G75*
G02*
X12650000Y-13462000I-50000J0D01*
G01*
X12650000Y-13462000D02*
G75*
G02*
X12750000Y-13462000I50000J0D01*
G01*
X15036000Y-10668000D02*
G75*
G02*
X14936000Y-10668000I-50000J0D01*
G01*
X14936000Y-10668000D02*
G75*
G02*
X15036000Y-10668000I50000J0D01*
G01*
X15036000Y-10922000D02*
G75*
G02*
X14936000Y-10922000I-50000J0D01*
G01*
X14936000Y-10922000D02*
G75*
G02*
X15036000Y-10922000I50000J0D01*
G01*
X15036000Y-11176000D02*
G75*
G02*
X14936000Y-11176000I-50000J0D01*
G01*
X14936000Y-11176000D02*
G75*
G02*
X15036000Y-11176000I50000J0D01*
G01*
X15036000Y-11430000D02*
G75*
G02*
X14936000Y-11430000I-50000J0D01*
G01*
X14936000Y-11430000D02*
G75*
G02*
X15036000Y-11430000I50000J0D01*
G01*
X15036000Y-11684000D02*
G75*
G02*
X14936000Y-11684000I-50000J0D01*
G01*
X14936000Y-11684000D02*
G75*
G02*
X15036000Y-11684000I50000J0D01*
G01*
X15036000Y-11938000D02*
G75*
G02*
X14936000Y-11938000I-50000J0D01*
G01*
X14936000Y-11938000D02*
G75*
G02*
X15036000Y-11938000I50000J0D01*
G01*
X15036000Y-12192000D02*
G75*
G02*
X14936000Y-12192000I-50000J0D01*
G01*
X14936000Y-12192000D02*
G75*
G02*
X15036000Y-12192000I50000J0D01*
G01*
X15036000Y-12446000D02*
G75*
G02*
X14936000Y-12446000I-50000J0D01*
G01*
X14936000Y-12446000D02*
G75*
G02*
X15036000Y-12446000I50000J0D01*
G01*
X15036000Y-12700000D02*
G75*
G02*
X14936000Y-12700000I-50000J0D01*
G01*
X14936000Y-12700000D02*
G75*
G02*
X15036000Y-12700000I50000J0D01*
G01*
X15036000Y-12954000D02*
G75*
G02*
X14936000Y-12954000I-50000J0D01*
G01*
X14936000Y-12954000D02*
G75*
G02*
X15036000Y-12954000I50000J0D01*
G01*
X15036000Y-13208000D02*
G75*
G02*
X14936000Y-13208000I-50000J0D01*
G01*
X14936000Y-13208000D02*
G75*
G02*
X15036000Y-13208000I50000J0D01*
G01*
X15036000Y-13462000D02*
G75*
G02*
X14936000Y-13462000I-50000J0D01*
G01*
X14936000Y-13462000D02*
G75*
G02*
X15036000Y-13462000I50000J0D01*
G01*
D11*
X12831277Y-13902984D02*
X12831277Y-13702984D01*
X12831277Y-13702984D02*
X12878896Y-13702984D01*
X12878896Y-13702984D02*
X12907467Y-13712508D01*
X12907467Y-13712508D02*
X12926515Y-13731555D01*
X12926515Y-13731555D02*
X12936039Y-13750603D01*
X12936039Y-13750603D02*
X12945562Y-13788698D01*
X12945562Y-13788698D02*
X12945562Y-13817269D01*
X12945562Y-13817269D02*
X12936039Y-13855365D01*
X12936039Y-13855365D02*
X12926515Y-13874412D01*
X12926515Y-13874412D02*
X12907467Y-13893460D01*
X12907467Y-13893460D02*
X12878896Y-13902984D01*
X12878896Y-13902984D02*
X12831277Y-13902984D01*
X13031277Y-13902984D02*
X13031277Y-13769650D01*
X13031277Y-13807746D02*
X13040801Y-13788698D01*
X13040801Y-13788698D02*
X13050324Y-13779174D01*
X13050324Y-13779174D02*
X13069372Y-13769650D01*
X13069372Y-13769650D02*
X13088420Y-13769650D01*
X13155086Y-13902984D02*
X13155086Y-13769650D01*
X13155086Y-13702984D02*
X13145562Y-13712508D01*
X13145562Y-13712508D02*
X13155086Y-13722031D01*
X13155086Y-13722031D02*
X13164610Y-13712508D01*
X13164610Y-13712508D02*
X13155086Y-13702984D01*
X13155086Y-13702984D02*
X13155086Y-13722031D01*
X13278896Y-13902984D02*
X13259848Y-13893460D01*
X13259848Y-13893460D02*
X13250324Y-13874412D01*
X13250324Y-13874412D02*
X13250324Y-13702984D01*
X13383658Y-13902984D02*
X13364610Y-13893460D01*
X13364610Y-13893460D02*
X13355086Y-13874412D01*
X13355086Y-13874412D02*
X13355086Y-13702984D01*
X13612229Y-13902984D02*
X13612229Y-13702984D01*
X13612229Y-13702984D02*
X13678896Y-13845841D01*
X13678896Y-13845841D02*
X13745562Y-13702984D01*
X13745562Y-13702984D02*
X13745562Y-13902984D01*
X13926515Y-13902984D02*
X13926515Y-13798222D01*
X13926515Y-13798222D02*
X13916991Y-13779174D01*
X13916991Y-13779174D02*
X13897943Y-13769650D01*
X13897943Y-13769650D02*
X13859848Y-13769650D01*
X13859848Y-13769650D02*
X13840801Y-13779174D01*
X13926515Y-13893460D02*
X13907467Y-13902984D01*
X13907467Y-13902984D02*
X13859848Y-13902984D01*
X13859848Y-13902984D02*
X13840801Y-13893460D01*
X13840801Y-13893460D02*
X13831277Y-13874412D01*
X13831277Y-13874412D02*
X13831277Y-13855365D01*
X13831277Y-13855365D02*
X13840801Y-13836317D01*
X13840801Y-13836317D02*
X13859848Y-13826793D01*
X13859848Y-13826793D02*
X13907467Y-13826793D01*
X13907467Y-13826793D02*
X13926515Y-13817269D01*
X14021753Y-13769650D02*
X14021753Y-13969650D01*
X14021753Y-13779174D02*
X14040801Y-13769650D01*
X14040801Y-13769650D02*
X14078896Y-13769650D01*
X14078896Y-13769650D02*
X14097943Y-13779174D01*
X14097943Y-13779174D02*
X14107467Y-13788698D01*
X14107467Y-13788698D02*
X14116991Y-13807746D01*
X14116991Y-13807746D02*
X14116991Y-13864888D01*
X14116991Y-13864888D02*
X14107467Y-13883936D01*
X14107467Y-13883936D02*
X14097943Y-13893460D01*
X14097943Y-13893460D02*
X14078896Y-13902984D01*
X14078896Y-13902984D02*
X14040801Y-13902984D01*
X14040801Y-13902984D02*
X14021753Y-13893460D01*
X14202705Y-13883936D02*
X14212229Y-13893460D01*
X14212229Y-13893460D02*
X14202705Y-13902984D01*
X14202705Y-13902984D02*
X14193182Y-13893460D01*
X14193182Y-13893460D02*
X14202705Y-13883936D01*
X14202705Y-13883936D02*
X14202705Y-13902984D01*
X14202705Y-13779174D02*
X14212229Y-13788698D01*
X14212229Y-13788698D02*
X14202705Y-13798222D01*
X14202705Y-13798222D02*
X14193182Y-13788698D01*
X14193182Y-13788698D02*
X14202705Y-13779174D01*
X14202705Y-13779174D02*
X14202705Y-13798222D01*
D12*
X12540500Y-14216500D02*
X12570500Y-14246500D01*
X12570500Y-14216500D02*
X12540500Y-14246500D01*
D11*
X12869372Y-14122984D02*
X12888420Y-14122984D01*
X12888420Y-14122984D02*
X12907467Y-14132508D01*
X12907467Y-14132508D02*
X12916991Y-14142031D01*
X12916991Y-14142031D02*
X12926515Y-14161079D01*
X12926515Y-14161079D02*
X12936039Y-14199174D01*
X12936039Y-14199174D02*
X12936039Y-14246793D01*
X12936039Y-14246793D02*
X12926515Y-14284888D01*
X12926515Y-14284888D02*
X12916991Y-14303936D01*
X12916991Y-14303936D02*
X12907467Y-14313460D01*
X12907467Y-14313460D02*
X12888420Y-14322984D01*
X12888420Y-14322984D02*
X12869372Y-14322984D01*
X12869372Y-14322984D02*
X12850324Y-14313460D01*
X12850324Y-14313460D02*
X12840801Y-14303936D01*
X12840801Y-14303936D02*
X12831277Y-14284888D01*
X12831277Y-14284888D02*
X12821753Y-14246793D01*
X12821753Y-14246793D02*
X12821753Y-14199174D01*
X12821753Y-14199174D02*
X12831277Y-14161079D01*
X12831277Y-14161079D02*
X12840801Y-14142031D01*
X12840801Y-14142031D02*
X12850324Y-14132508D01*
X12850324Y-14132508D02*
X12869372Y-14122984D01*
X13021753Y-14303936D02*
X13031277Y-14313460D01*
X13031277Y-14313460D02*
X13021753Y-14322984D01*
X13021753Y-14322984D02*
X13012229Y-14313460D01*
X13012229Y-14313460D02*
X13021753Y-14303936D01*
X13021753Y-14303936D02*
X13021753Y-14322984D01*
X13097943Y-14122984D02*
X13221753Y-14122984D01*
X13221753Y-14122984D02*
X13155086Y-14199174D01*
X13155086Y-14199174D02*
X13183658Y-14199174D01*
X13183658Y-14199174D02*
X13202705Y-14208698D01*
X13202705Y-14208698D02*
X13212229Y-14218222D01*
X13212229Y-14218222D02*
X13221753Y-14237269D01*
X13221753Y-14237269D02*
X13221753Y-14284888D01*
X13221753Y-14284888D02*
X13212229Y-14303936D01*
X13212229Y-14303936D02*
X13202705Y-14313460D01*
X13202705Y-14313460D02*
X13183658Y-14322984D01*
X13183658Y-14322984D02*
X13126515Y-14322984D01*
X13126515Y-14322984D02*
X13107467Y-14313460D01*
X13107467Y-14313460D02*
X13097943Y-14303936D01*
X13345562Y-14122984D02*
X13364610Y-14122984D01*
X13364610Y-14122984D02*
X13383658Y-14132508D01*
X13383658Y-14132508D02*
X13393182Y-14142031D01*
X13393182Y-14142031D02*
X13402705Y-14161079D01*
X13402705Y-14161079D02*
X13412229Y-14199174D01*
X13412229Y-14199174D02*
X13412229Y-14246793D01*
X13412229Y-14246793D02*
X13402705Y-14284888D01*
X13402705Y-14284888D02*
X13393182Y-14303936D01*
X13393182Y-14303936D02*
X13383658Y-14313460D01*
X13383658Y-14313460D02*
X13364610Y-14322984D01*
X13364610Y-14322984D02*
X13345562Y-14322984D01*
X13345562Y-14322984D02*
X13326515Y-14313460D01*
X13326515Y-14313460D02*
X13316991Y-14303936D01*
X13316991Y-14303936D02*
X13307467Y-14284888D01*
X13307467Y-14284888D02*
X13297943Y-14246793D01*
X13297943Y-14246793D02*
X13297943Y-14199174D01*
X13297943Y-14199174D02*
X13307467Y-14161079D01*
X13307467Y-14161079D02*
X13316991Y-14142031D01*
X13316991Y-14142031D02*
X13326515Y-14132508D01*
X13326515Y-14132508D02*
X13345562Y-14122984D01*
X13536039Y-14122984D02*
X13555086Y-14122984D01*
X13555086Y-14122984D02*
X13574134Y-14132508D01*
X13574134Y-14132508D02*
X13583658Y-14142031D01*
X13583658Y-14142031D02*
X13593182Y-14161079D01*
X13593182Y-14161079D02*
X13602705Y-14199174D01*
X13602705Y-14199174D02*
X13602705Y-14246793D01*
X13602705Y-14246793D02*
X13593182Y-14284888D01*
X13593182Y-14284888D02*
X13583658Y-14303936D01*
X13583658Y-14303936D02*
X13574134Y-14313460D01*
X13574134Y-14313460D02*
X13555086Y-14322984D01*
X13555086Y-14322984D02*
X13536039Y-14322984D01*
X13536039Y-14322984D02*
X13516991Y-14313460D01*
X13516991Y-14313460D02*
X13507467Y-14303936D01*
X13507467Y-14303936D02*
X13497943Y-14284888D01*
X13497943Y-14284888D02*
X13488420Y-14246793D01*
X13488420Y-14246793D02*
X13488420Y-14199174D01*
X13488420Y-14199174D02*
X13497943Y-14161079D01*
X13497943Y-14161079D02*
X13507467Y-14142031D01*
X13507467Y-14142031D02*
X13516991Y-14132508D01*
X13516991Y-14132508D02*
X13536039Y-14122984D01*
X13688420Y-14322984D02*
X13688420Y-14189650D01*
X13688420Y-14208698D02*
X13697943Y-14199174D01*
X13697943Y-14199174D02*
X13716991Y-14189650D01*
X13716991Y-14189650D02*
X13745563Y-14189650D01*
X13745563Y-14189650D02*
X13764610Y-14199174D01*
X13764610Y-14199174D02*
X13774134Y-14218222D01*
X13774134Y-14218222D02*
X13774134Y-14322984D01*
X13774134Y-14218222D02*
X13783658Y-14199174D01*
X13783658Y-14199174D02*
X13802705Y-14189650D01*
X13802705Y-14189650D02*
X13831277Y-14189650D01*
X13831277Y-14189650D02*
X13850324Y-14199174D01*
X13850324Y-14199174D02*
X13859848Y-14218222D01*
X13859848Y-14218222D02*
X13859848Y-14322984D01*
X13955086Y-14322984D02*
X13955086Y-14189650D01*
X13955086Y-14208698D02*
X13964610Y-14199174D01*
X13964610Y-14199174D02*
X13983658Y-14189650D01*
X13983658Y-14189650D02*
X14012229Y-14189650D01*
X14012229Y-14189650D02*
X14031277Y-14199174D01*
X14031277Y-14199174D02*
X14040801Y-14218222D01*
X14040801Y-14218222D02*
X14040801Y-14322984D01*
X14040801Y-14218222D02*
X14050324Y-14199174D01*
X14050324Y-14199174D02*
X14069372Y-14189650D01*
X14069372Y-14189650D02*
X14097943Y-14189650D01*
X14097943Y-14189650D02*
X14116991Y-14199174D01*
X14116991Y-14199174D02*
X14126515Y-14218222D01*
X14126515Y-14218222D02*
X14126515Y-14322984D01*
X14516991Y-14113460D02*
X14345563Y-14370603D01*
X14774134Y-14122984D02*
X14793182Y-14122984D01*
X14793182Y-14122984D02*
X14812229Y-14132508D01*
X14812229Y-14132508D02*
X14821753Y-14142031D01*
X14821753Y-14142031D02*
X14831277Y-14161079D01*
X14831277Y-14161079D02*
X14840801Y-14199174D01*
X14840801Y-14199174D02*
X14840801Y-14246793D01*
X14840801Y-14246793D02*
X14831277Y-14284888D01*
X14831277Y-14284888D02*
X14821753Y-14303936D01*
X14821753Y-14303936D02*
X14812229Y-14313460D01*
X14812229Y-14313460D02*
X14793182Y-14322984D01*
X14793182Y-14322984D02*
X14774134Y-14322984D01*
X14774134Y-14322984D02*
X14755086Y-14313460D01*
X14755086Y-14313460D02*
X14745563Y-14303936D01*
X14745563Y-14303936D02*
X14736039Y-14284888D01*
X14736039Y-14284888D02*
X14726515Y-14246793D01*
X14726515Y-14246793D02*
X14726515Y-14199174D01*
X14726515Y-14199174D02*
X14736039Y-14161079D01*
X14736039Y-14161079D02*
X14745563Y-14142031D01*
X14745563Y-14142031D02*
X14755086Y-14132508D01*
X14755086Y-14132508D02*
X14774134Y-14122984D01*
X14926515Y-14303936D02*
X14936039Y-14313460D01*
X14936039Y-14313460D02*
X14926515Y-14322984D01*
X14926515Y-14322984D02*
X14916991Y-14313460D01*
X14916991Y-14313460D02*
X14926515Y-14303936D01*
X14926515Y-14303936D02*
X14926515Y-14322984D01*
X15059848Y-14122984D02*
X15078896Y-14122984D01*
X15078896Y-14122984D02*
X15097944Y-14132508D01*
X15097944Y-14132508D02*
X15107467Y-14142031D01*
X15107467Y-14142031D02*
X15116991Y-14161079D01*
X15116991Y-14161079D02*
X15126515Y-14199174D01*
X15126515Y-14199174D02*
X15126515Y-14246793D01*
X15126515Y-14246793D02*
X15116991Y-14284888D01*
X15116991Y-14284888D02*
X15107467Y-14303936D01*
X15107467Y-14303936D02*
X15097944Y-14313460D01*
X15097944Y-14313460D02*
X15078896Y-14322984D01*
X15078896Y-14322984D02*
X15059848Y-14322984D01*
X15059848Y-14322984D02*
X15040801Y-14313460D01*
X15040801Y-14313460D02*
X15031277Y-14303936D01*
X15031277Y-14303936D02*
X15021753Y-14284888D01*
X15021753Y-14284888D02*
X15012229Y-14246793D01*
X15012229Y-14246793D02*
X15012229Y-14199174D01*
X15012229Y-14199174D02*
X15021753Y-14161079D01*
X15021753Y-14161079D02*
X15031277Y-14142031D01*
X15031277Y-14142031D02*
X15040801Y-14132508D01*
X15040801Y-14132508D02*
X15059848Y-14122984D01*
X15316991Y-14322984D02*
X15202706Y-14322984D01*
X15259848Y-14322984D02*
X15259848Y-14122984D01*
X15259848Y-14122984D02*
X15240801Y-14151555D01*
X15240801Y-14151555D02*
X15221753Y-14170603D01*
X15221753Y-14170603D02*
X15202706Y-14180127D01*
X15507467Y-14322984D02*
X15393182Y-14322984D01*
X15450325Y-14322984D02*
X15450325Y-14122984D01*
X15450325Y-14122984D02*
X15431277Y-14151555D01*
X15431277Y-14151555D02*
X15412229Y-14170603D01*
X15412229Y-14170603D02*
X15393182Y-14180127D01*
X15621753Y-14208698D02*
X15602706Y-14199174D01*
X15602706Y-14199174D02*
X15593182Y-14189650D01*
X15593182Y-14189650D02*
X15583658Y-14170603D01*
X15583658Y-14170603D02*
X15583658Y-14161079D01*
X15583658Y-14161079D02*
X15593182Y-14142031D01*
X15593182Y-14142031D02*
X15602706Y-14132508D01*
X15602706Y-14132508D02*
X15621753Y-14122984D01*
X15621753Y-14122984D02*
X15659848Y-14122984D01*
X15659848Y-14122984D02*
X15678896Y-14132508D01*
X15678896Y-14132508D02*
X15688420Y-14142031D01*
X15688420Y-14142031D02*
X15697944Y-14161079D01*
X15697944Y-14161079D02*
X15697944Y-14170603D01*
X15697944Y-14170603D02*
X15688420Y-14189650D01*
X15688420Y-14189650D02*
X15678896Y-14199174D01*
X15678896Y-14199174D02*
X15659848Y-14208698D01*
X15659848Y-14208698D02*
X15621753Y-14208698D01*
X15621753Y-14208698D02*
X15602706Y-14218222D01*
X15602706Y-14218222D02*
X15593182Y-14227746D01*
X15593182Y-14227746D02*
X15583658Y-14246793D01*
X15583658Y-14246793D02*
X15583658Y-14284888D01*
X15583658Y-14284888D02*
X15593182Y-14303936D01*
X15593182Y-14303936D02*
X15602706Y-14313460D01*
X15602706Y-14313460D02*
X15621753Y-14322984D01*
X15621753Y-14322984D02*
X15659848Y-14322984D01*
X15659848Y-14322984D02*
X15678896Y-14313460D01*
X15678896Y-14313460D02*
X15688420Y-14303936D01*
X15688420Y-14303936D02*
X15697944Y-14284888D01*
X15697944Y-14284888D02*
X15697944Y-14246793D01*
X15697944Y-14246793D02*
X15688420Y-14227746D01*
X15688420Y-14227746D02*
X15678896Y-14218222D01*
X15678896Y-14218222D02*
X15659848Y-14208698D01*
X15774134Y-14122984D02*
X15774134Y-14161079D01*
X15850325Y-14122984D02*
X15850325Y-14161079D01*
X16145563Y-14399174D02*
X16136039Y-14389650D01*
X16136039Y-14389650D02*
X16116991Y-14361079D01*
X16116991Y-14361079D02*
X16107468Y-14342031D01*
X16107468Y-14342031D02*
X16097944Y-14313460D01*
X16097944Y-14313460D02*
X16088420Y-14265841D01*
X16088420Y-14265841D02*
X16088420Y-14227746D01*
X16088420Y-14227746D02*
X16097944Y-14180127D01*
X16097944Y-14180127D02*
X16107468Y-14151555D01*
X16107468Y-14151555D02*
X16116991Y-14132508D01*
X16116991Y-14132508D02*
X16136039Y-14103936D01*
X16136039Y-14103936D02*
X16145563Y-14094412D01*
X16307468Y-14189650D02*
X16307468Y-14322984D01*
X16259848Y-14113460D02*
X16212229Y-14256317D01*
X16212229Y-14256317D02*
X16336039Y-14256317D01*
X16564610Y-14322984D02*
X16564610Y-14122984D01*
X16650325Y-14322984D02*
X16650325Y-14218222D01*
X16650325Y-14218222D02*
X16640801Y-14199174D01*
X16640801Y-14199174D02*
X16621753Y-14189650D01*
X16621753Y-14189650D02*
X16593182Y-14189650D01*
X16593182Y-14189650D02*
X16574134Y-14199174D01*
X16574134Y-14199174D02*
X16564610Y-14208698D01*
X16774134Y-14322984D02*
X16755087Y-14313460D01*
X16755087Y-14313460D02*
X16745563Y-14303936D01*
X16745563Y-14303936D02*
X16736039Y-14284888D01*
X16736039Y-14284888D02*
X16736039Y-14227746D01*
X16736039Y-14227746D02*
X16745563Y-14208698D01*
X16745563Y-14208698D02*
X16755087Y-14199174D01*
X16755087Y-14199174D02*
X16774134Y-14189650D01*
X16774134Y-14189650D02*
X16802706Y-14189650D01*
X16802706Y-14189650D02*
X16821753Y-14199174D01*
X16821753Y-14199174D02*
X16831277Y-14208698D01*
X16831277Y-14208698D02*
X16840801Y-14227746D01*
X16840801Y-14227746D02*
X16840801Y-14284888D01*
X16840801Y-14284888D02*
X16831277Y-14303936D01*
X16831277Y-14303936D02*
X16821753Y-14313460D01*
X16821753Y-14313460D02*
X16802706Y-14322984D01*
X16802706Y-14322984D02*
X16774134Y-14322984D01*
X16955087Y-14322984D02*
X16936039Y-14313460D01*
X16936039Y-14313460D02*
X16926515Y-14294412D01*
X16926515Y-14294412D02*
X16926515Y-14122984D01*
X17107468Y-14313460D02*
X17088420Y-14322984D01*
X17088420Y-14322984D02*
X17050325Y-14322984D01*
X17050325Y-14322984D02*
X17031277Y-14313460D01*
X17031277Y-14313460D02*
X17021753Y-14294412D01*
X17021753Y-14294412D02*
X17021753Y-14218222D01*
X17021753Y-14218222D02*
X17031277Y-14199174D01*
X17031277Y-14199174D02*
X17050325Y-14189650D01*
X17050325Y-14189650D02*
X17088420Y-14189650D01*
X17088420Y-14189650D02*
X17107468Y-14199174D01*
X17107468Y-14199174D02*
X17116992Y-14218222D01*
X17116992Y-14218222D02*
X17116992Y-14237269D01*
X17116992Y-14237269D02*
X17021753Y-14256317D01*
X17193182Y-14313460D02*
X17212230Y-14322984D01*
X17212230Y-14322984D02*
X17250325Y-14322984D01*
X17250325Y-14322984D02*
X17269373Y-14313460D01*
X17269373Y-14313460D02*
X17278896Y-14294412D01*
X17278896Y-14294412D02*
X17278896Y-14284888D01*
X17278896Y-14284888D02*
X17269373Y-14265841D01*
X17269373Y-14265841D02*
X17250325Y-14256317D01*
X17250325Y-14256317D02*
X17221753Y-14256317D01*
X17221753Y-14256317D02*
X17202706Y-14246793D01*
X17202706Y-14246793D02*
X17193182Y-14227746D01*
X17193182Y-14227746D02*
X17193182Y-14218222D01*
X17193182Y-14218222D02*
X17202706Y-14199174D01*
X17202706Y-14199174D02*
X17221753Y-14189650D01*
X17221753Y-14189650D02*
X17250325Y-14189650D01*
X17250325Y-14189650D02*
X17269373Y-14199174D01*
X17345563Y-14399174D02*
X17355087Y-14389650D01*
X17355087Y-14389650D02*
X17374134Y-14361079D01*
X17374134Y-14361079D02*
X17383658Y-14342031D01*
X17383658Y-14342031D02*
X17393182Y-14313460D01*
X17393182Y-14313460D02*
X17402706Y-14265841D01*
X17402706Y-14265841D02*
X17402706Y-14227746D01*
X17402706Y-14227746D02*
X17393182Y-14180127D01*
X17393182Y-14180127D02*
X17383658Y-14151555D01*
X17383658Y-14151555D02*
X17374134Y-14132508D01*
X17374134Y-14132508D02*
X17355087Y-14103936D01*
X17355087Y-14103936D02*
X17345563Y-14094412D01*
D12*
X12570500Y-14495500D02*
G75*
G02*
X12470500Y-14495500I-50000J0D01*
G01*
X12470500Y-14495500D02*
G75*
G02*
X12570500Y-14495500I50000J0D01*
G01*
D11*
X12936039Y-14586984D02*
X12821753Y-14586984D01*
X12878896Y-14586984D02*
X12878896Y-14386984D01*
X12878896Y-14386984D02*
X12859848Y-14415555D01*
X12859848Y-14415555D02*
X12840801Y-14434603D01*
X12840801Y-14434603D02*
X12821753Y-14444127D01*
X13021753Y-14567936D02*
X13031277Y-14577460D01*
X13031277Y-14577460D02*
X13021753Y-14586984D01*
X13021753Y-14586984D02*
X13012229Y-14577460D01*
X13012229Y-14577460D02*
X13021753Y-14567936D01*
X13021753Y-14567936D02*
X13021753Y-14586984D01*
X13155086Y-14386984D02*
X13174134Y-14386984D01*
X13174134Y-14386984D02*
X13193182Y-14396508D01*
X13193182Y-14396508D02*
X13202705Y-14406031D01*
X13202705Y-14406031D02*
X13212229Y-14425079D01*
X13212229Y-14425079D02*
X13221753Y-14463174D01*
X13221753Y-14463174D02*
X13221753Y-14510793D01*
X13221753Y-14510793D02*
X13212229Y-14548888D01*
X13212229Y-14548888D02*
X13202705Y-14567936D01*
X13202705Y-14567936D02*
X13193182Y-14577460D01*
X13193182Y-14577460D02*
X13174134Y-14586984D01*
X13174134Y-14586984D02*
X13155086Y-14586984D01*
X13155086Y-14586984D02*
X13136039Y-14577460D01*
X13136039Y-14577460D02*
X13126515Y-14567936D01*
X13126515Y-14567936D02*
X13116991Y-14548888D01*
X13116991Y-14548888D02*
X13107467Y-14510793D01*
X13107467Y-14510793D02*
X13107467Y-14463174D01*
X13107467Y-14463174D02*
X13116991Y-14425079D01*
X13116991Y-14425079D02*
X13126515Y-14406031D01*
X13126515Y-14406031D02*
X13136039Y-14396508D01*
X13136039Y-14396508D02*
X13155086Y-14386984D01*
X13345562Y-14386984D02*
X13364610Y-14386984D01*
X13364610Y-14386984D02*
X13383658Y-14396508D01*
X13383658Y-14396508D02*
X13393182Y-14406031D01*
X13393182Y-14406031D02*
X13402705Y-14425079D01*
X13402705Y-14425079D02*
X13412229Y-14463174D01*
X13412229Y-14463174D02*
X13412229Y-14510793D01*
X13412229Y-14510793D02*
X13402705Y-14548888D01*
X13402705Y-14548888D02*
X13393182Y-14567936D01*
X13393182Y-14567936D02*
X13383658Y-14577460D01*
X13383658Y-14577460D02*
X13364610Y-14586984D01*
X13364610Y-14586984D02*
X13345562Y-14586984D01*
X13345562Y-14586984D02*
X13326515Y-14577460D01*
X13326515Y-14577460D02*
X13316991Y-14567936D01*
X13316991Y-14567936D02*
X13307467Y-14548888D01*
X13307467Y-14548888D02*
X13297943Y-14510793D01*
X13297943Y-14510793D02*
X13297943Y-14463174D01*
X13297943Y-14463174D02*
X13307467Y-14425079D01*
X13307467Y-14425079D02*
X13316991Y-14406031D01*
X13316991Y-14406031D02*
X13326515Y-14396508D01*
X13326515Y-14396508D02*
X13345562Y-14386984D01*
X13536039Y-14386984D02*
X13555086Y-14386984D01*
X13555086Y-14386984D02*
X13574134Y-14396508D01*
X13574134Y-14396508D02*
X13583658Y-14406031D01*
X13583658Y-14406031D02*
X13593182Y-14425079D01*
X13593182Y-14425079D02*
X13602705Y-14463174D01*
X13602705Y-14463174D02*
X13602705Y-14510793D01*
X13602705Y-14510793D02*
X13593182Y-14548888D01*
X13593182Y-14548888D02*
X13583658Y-14567936D01*
X13583658Y-14567936D02*
X13574134Y-14577460D01*
X13574134Y-14577460D02*
X13555086Y-14586984D01*
X13555086Y-14586984D02*
X13536039Y-14586984D01*
X13536039Y-14586984D02*
X13516991Y-14577460D01*
X13516991Y-14577460D02*
X13507467Y-14567936D01*
X13507467Y-14567936D02*
X13497943Y-14548888D01*
X13497943Y-14548888D02*
X13488420Y-14510793D01*
X13488420Y-14510793D02*
X13488420Y-14463174D01*
X13488420Y-14463174D02*
X13497943Y-14425079D01*
X13497943Y-14425079D02*
X13507467Y-14406031D01*
X13507467Y-14406031D02*
X13516991Y-14396508D01*
X13516991Y-14396508D02*
X13536039Y-14386984D01*
X13688420Y-14586984D02*
X13688420Y-14453650D01*
X13688420Y-14472698D02*
X13697943Y-14463174D01*
X13697943Y-14463174D02*
X13716991Y-14453650D01*
X13716991Y-14453650D02*
X13745563Y-14453650D01*
X13745563Y-14453650D02*
X13764610Y-14463174D01*
X13764610Y-14463174D02*
X13774134Y-14482222D01*
X13774134Y-14482222D02*
X13774134Y-14586984D01*
X13774134Y-14482222D02*
X13783658Y-14463174D01*
X13783658Y-14463174D02*
X13802705Y-14453650D01*
X13802705Y-14453650D02*
X13831277Y-14453650D01*
X13831277Y-14453650D02*
X13850324Y-14463174D01*
X13850324Y-14463174D02*
X13859848Y-14482222D01*
X13859848Y-14482222D02*
X13859848Y-14586984D01*
X13955086Y-14586984D02*
X13955086Y-14453650D01*
X13955086Y-14472698D02*
X13964610Y-14463174D01*
X13964610Y-14463174D02*
X13983658Y-14453650D01*
X13983658Y-14453650D02*
X14012229Y-14453650D01*
X14012229Y-14453650D02*
X14031277Y-14463174D01*
X14031277Y-14463174D02*
X14040801Y-14482222D01*
X14040801Y-14482222D02*
X14040801Y-14586984D01*
X14040801Y-14482222D02*
X14050324Y-14463174D01*
X14050324Y-14463174D02*
X14069372Y-14453650D01*
X14069372Y-14453650D02*
X14097943Y-14453650D01*
X14097943Y-14453650D02*
X14116991Y-14463174D01*
X14116991Y-14463174D02*
X14126515Y-14482222D01*
X14126515Y-14482222D02*
X14126515Y-14586984D01*
X14516991Y-14377460D02*
X14345563Y-14634603D01*
X14774134Y-14386984D02*
X14793182Y-14386984D01*
X14793182Y-14386984D02*
X14812229Y-14396508D01*
X14812229Y-14396508D02*
X14821753Y-14406031D01*
X14821753Y-14406031D02*
X14831277Y-14425079D01*
X14831277Y-14425079D02*
X14840801Y-14463174D01*
X14840801Y-14463174D02*
X14840801Y-14510793D01*
X14840801Y-14510793D02*
X14831277Y-14548888D01*
X14831277Y-14548888D02*
X14821753Y-14567936D01*
X14821753Y-14567936D02*
X14812229Y-14577460D01*
X14812229Y-14577460D02*
X14793182Y-14586984D01*
X14793182Y-14586984D02*
X14774134Y-14586984D01*
X14774134Y-14586984D02*
X14755086Y-14577460D01*
X14755086Y-14577460D02*
X14745563Y-14567936D01*
X14745563Y-14567936D02*
X14736039Y-14548888D01*
X14736039Y-14548888D02*
X14726515Y-14510793D01*
X14726515Y-14510793D02*
X14726515Y-14463174D01*
X14726515Y-14463174D02*
X14736039Y-14425079D01*
X14736039Y-14425079D02*
X14745563Y-14406031D01*
X14745563Y-14406031D02*
X14755086Y-14396508D01*
X14755086Y-14396508D02*
X14774134Y-14386984D01*
X14926515Y-14567936D02*
X14936039Y-14577460D01*
X14936039Y-14577460D02*
X14926515Y-14586984D01*
X14926515Y-14586984D02*
X14916991Y-14577460D01*
X14916991Y-14577460D02*
X14926515Y-14567936D01*
X14926515Y-14567936D02*
X14926515Y-14586984D01*
X15059848Y-14386984D02*
X15078896Y-14386984D01*
X15078896Y-14386984D02*
X15097944Y-14396508D01*
X15097944Y-14396508D02*
X15107467Y-14406031D01*
X15107467Y-14406031D02*
X15116991Y-14425079D01*
X15116991Y-14425079D02*
X15126515Y-14463174D01*
X15126515Y-14463174D02*
X15126515Y-14510793D01*
X15126515Y-14510793D02*
X15116991Y-14548888D01*
X15116991Y-14548888D02*
X15107467Y-14567936D01*
X15107467Y-14567936D02*
X15097944Y-14577460D01*
X15097944Y-14577460D02*
X15078896Y-14586984D01*
X15078896Y-14586984D02*
X15059848Y-14586984D01*
X15059848Y-14586984D02*
X15040801Y-14577460D01*
X15040801Y-14577460D02*
X15031277Y-14567936D01*
X15031277Y-14567936D02*
X15021753Y-14548888D01*
X15021753Y-14548888D02*
X15012229Y-14510793D01*
X15012229Y-14510793D02*
X15012229Y-14463174D01*
X15012229Y-14463174D02*
X15021753Y-14425079D01*
X15021753Y-14425079D02*
X15031277Y-14406031D01*
X15031277Y-14406031D02*
X15040801Y-14396508D01*
X15040801Y-14396508D02*
X15059848Y-14386984D01*
X15193182Y-14386984D02*
X15316991Y-14386984D01*
X15316991Y-14386984D02*
X15250325Y-14463174D01*
X15250325Y-14463174D02*
X15278896Y-14463174D01*
X15278896Y-14463174D02*
X15297944Y-14472698D01*
X15297944Y-14472698D02*
X15307467Y-14482222D01*
X15307467Y-14482222D02*
X15316991Y-14501269D01*
X15316991Y-14501269D02*
X15316991Y-14548888D01*
X15316991Y-14548888D02*
X15307467Y-14567936D01*
X15307467Y-14567936D02*
X15297944Y-14577460D01*
X15297944Y-14577460D02*
X15278896Y-14586984D01*
X15278896Y-14586984D02*
X15221753Y-14586984D01*
X15221753Y-14586984D02*
X15202706Y-14577460D01*
X15202706Y-14577460D02*
X15193182Y-14567936D01*
X15412229Y-14586984D02*
X15450325Y-14586984D01*
X15450325Y-14586984D02*
X15469372Y-14577460D01*
X15469372Y-14577460D02*
X15478896Y-14567936D01*
X15478896Y-14567936D02*
X15497944Y-14539365D01*
X15497944Y-14539365D02*
X15507467Y-14501269D01*
X15507467Y-14501269D02*
X15507467Y-14425079D01*
X15507467Y-14425079D02*
X15497944Y-14406031D01*
X15497944Y-14406031D02*
X15488420Y-14396508D01*
X15488420Y-14396508D02*
X15469372Y-14386984D01*
X15469372Y-14386984D02*
X15431277Y-14386984D01*
X15431277Y-14386984D02*
X15412229Y-14396508D01*
X15412229Y-14396508D02*
X15402706Y-14406031D01*
X15402706Y-14406031D02*
X15393182Y-14425079D01*
X15393182Y-14425079D02*
X15393182Y-14472698D01*
X15393182Y-14472698D02*
X15402706Y-14491746D01*
X15402706Y-14491746D02*
X15412229Y-14501269D01*
X15412229Y-14501269D02*
X15431277Y-14510793D01*
X15431277Y-14510793D02*
X15469372Y-14510793D01*
X15469372Y-14510793D02*
X15488420Y-14501269D01*
X15488420Y-14501269D02*
X15497944Y-14491746D01*
X15497944Y-14491746D02*
X15507467Y-14472698D01*
X15678896Y-14453650D02*
X15678896Y-14586984D01*
X15631277Y-14377460D02*
X15583658Y-14520317D01*
X15583658Y-14520317D02*
X15707467Y-14520317D01*
X15774134Y-14386984D02*
X15774134Y-14425079D01*
X15850325Y-14386984D02*
X15850325Y-14425079D01*
X16145563Y-14663174D02*
X16136039Y-14653650D01*
X16136039Y-14653650D02*
X16116991Y-14625079D01*
X16116991Y-14625079D02*
X16107468Y-14606031D01*
X16107468Y-14606031D02*
X16097944Y-14577460D01*
X16097944Y-14577460D02*
X16088420Y-14529841D01*
X16088420Y-14529841D02*
X16088420Y-14491746D01*
X16088420Y-14491746D02*
X16097944Y-14444127D01*
X16097944Y-14444127D02*
X16107468Y-14415555D01*
X16107468Y-14415555D02*
X16116991Y-14396508D01*
X16116991Y-14396508D02*
X16136039Y-14367936D01*
X16136039Y-14367936D02*
X16145563Y-14358412D01*
X16212229Y-14406031D02*
X16221753Y-14396508D01*
X16221753Y-14396508D02*
X16240801Y-14386984D01*
X16240801Y-14386984D02*
X16288420Y-14386984D01*
X16288420Y-14386984D02*
X16307468Y-14396508D01*
X16307468Y-14396508D02*
X16316991Y-14406031D01*
X16316991Y-14406031D02*
X16326515Y-14425079D01*
X16326515Y-14425079D02*
X16326515Y-14444127D01*
X16326515Y-14444127D02*
X16316991Y-14472698D01*
X16316991Y-14472698D02*
X16202706Y-14586984D01*
X16202706Y-14586984D02*
X16326515Y-14586984D01*
X16497944Y-14453650D02*
X16497944Y-14586984D01*
X16450325Y-14377460D02*
X16402706Y-14520317D01*
X16402706Y-14520317D02*
X16526515Y-14520317D01*
X16755087Y-14586984D02*
X16755087Y-14386984D01*
X16840801Y-14586984D02*
X16840801Y-14482222D01*
X16840801Y-14482222D02*
X16831277Y-14463174D01*
X16831277Y-14463174D02*
X16812230Y-14453650D01*
X16812230Y-14453650D02*
X16783658Y-14453650D01*
X16783658Y-14453650D02*
X16764610Y-14463174D01*
X16764610Y-14463174D02*
X16755087Y-14472698D01*
X16964611Y-14586984D02*
X16945563Y-14577460D01*
X16945563Y-14577460D02*
X16936039Y-14567936D01*
X16936039Y-14567936D02*
X16926515Y-14548888D01*
X16926515Y-14548888D02*
X16926515Y-14491746D01*
X16926515Y-14491746D02*
X16936039Y-14472698D01*
X16936039Y-14472698D02*
X16945563Y-14463174D01*
X16945563Y-14463174D02*
X16964611Y-14453650D01*
X16964611Y-14453650D02*
X16993182Y-14453650D01*
X16993182Y-14453650D02*
X17012230Y-14463174D01*
X17012230Y-14463174D02*
X17021753Y-14472698D01*
X17021753Y-14472698D02*
X17031277Y-14491746D01*
X17031277Y-14491746D02*
X17031277Y-14548888D01*
X17031277Y-14548888D02*
X17021753Y-14567936D01*
X17021753Y-14567936D02*
X17012230Y-14577460D01*
X17012230Y-14577460D02*
X16993182Y-14586984D01*
X16993182Y-14586984D02*
X16964611Y-14586984D01*
X17145563Y-14586984D02*
X17126515Y-14577460D01*
X17126515Y-14577460D02*
X17116992Y-14558412D01*
X17116992Y-14558412D02*
X17116992Y-14386984D01*
X17297944Y-14577460D02*
X17278896Y-14586984D01*
X17278896Y-14586984D02*
X17240801Y-14586984D01*
X17240801Y-14586984D02*
X17221753Y-14577460D01*
X17221753Y-14577460D02*
X17212230Y-14558412D01*
X17212230Y-14558412D02*
X17212230Y-14482222D01*
X17212230Y-14482222D02*
X17221753Y-14463174D01*
X17221753Y-14463174D02*
X17240801Y-14453650D01*
X17240801Y-14453650D02*
X17278896Y-14453650D01*
X17278896Y-14453650D02*
X17297944Y-14463174D01*
X17297944Y-14463174D02*
X17307468Y-14482222D01*
X17307468Y-14482222D02*
X17307468Y-14501269D01*
X17307468Y-14501269D02*
X17212230Y-14520317D01*
X17383658Y-14577460D02*
X17402706Y-14586984D01*
X17402706Y-14586984D02*
X17440801Y-14586984D01*
X17440801Y-14586984D02*
X17459849Y-14577460D01*
X17459849Y-14577460D02*
X17469373Y-14558412D01*
X17469373Y-14558412D02*
X17469373Y-14548888D01*
X17469373Y-14548888D02*
X17459849Y-14529841D01*
X17459849Y-14529841D02*
X17440801Y-14520317D01*
X17440801Y-14520317D02*
X17412230Y-14520317D01*
X17412230Y-14520317D02*
X17393182Y-14510793D01*
X17393182Y-14510793D02*
X17383658Y-14491746D01*
X17383658Y-14491746D02*
X17383658Y-14482222D01*
X17383658Y-14482222D02*
X17393182Y-14463174D01*
X17393182Y-14463174D02*
X17412230Y-14453650D01*
X17412230Y-14453650D02*
X17440801Y-14453650D01*
X17440801Y-14453650D02*
X17459849Y-14463174D01*
X17536039Y-14663174D02*
X17545563Y-14653650D01*
X17545563Y-14653650D02*
X17564611Y-14625079D01*
X17564611Y-14625079D02*
X17574134Y-14606031D01*
X17574134Y-14606031D02*
X17583658Y-14577460D01*
X17583658Y-14577460D02*
X17593182Y-14529841D01*
X17593182Y-14529841D02*
X17593182Y-14491746D01*
X17593182Y-14491746D02*
X17583658Y-14444127D01*
X17583658Y-14444127D02*
X17574134Y-14415555D01*
X17574134Y-14415555D02*
X17564611Y-14396508D01*
X17564611Y-14396508D02*
X17545563Y-14367936D01*
X17545563Y-14367936D02*
X17536039Y-14358412D01*
M02*
