G04 #@! TF.GenerationSoftware,KiCad,Pcbnew,9.0.6*
G04 #@! TF.CreationDate,2026-01-07T12:02:34-06:00*
G04 #@! TF.ProjectId,QFN-48_6x6_P0.4,51464e2d-3438-45f3-9678-365f50302e34,rev?*
G04 #@! TF.SameCoordinates,Original*
G04 #@! TF.FileFunction,Legend,Bot*
G04 #@! TF.FilePolarity,Positive*
%FSLAX46Y46*%
G04 Gerber Fmt 4.6, Leading zero omitted, Abs format (unit mm)*
G04 Created by KiCad (PCBNEW 9.0.6) date 2026-01-07 12:02:34*
%MOMM*%
%LPD*%
G01*
G04 APERTURE LIST*
%ADD10C,0.150000*%
%ADD11C,0.120000*%
%ADD12C,1.700000*%
%ADD13R,1.700000X1.700000*%
%ADD14R,2.510000X1.000000*%
G04 APERTURE END LIST*
D10*
X133365714Y-85974819D02*
X133365714Y-86689104D01*
X133365714Y-86689104D02*
X133413333Y-86831961D01*
X133413333Y-86831961D02*
X133508571Y-86927200D01*
X133508571Y-86927200D02*
X133651428Y-86974819D01*
X133651428Y-86974819D02*
X133746666Y-86974819D01*
X132365714Y-86974819D02*
X132937142Y-86974819D01*
X132651428Y-86974819D02*
X132651428Y-85974819D01*
X132651428Y-85974819D02*
X132746666Y-86117676D01*
X132746666Y-86117676D02*
X132841904Y-86212914D01*
X132841904Y-86212914D02*
X132937142Y-86260533D01*
X131746666Y-85974819D02*
X131651428Y-85974819D01*
X131651428Y-85974819D02*
X131556190Y-86022438D01*
X131556190Y-86022438D02*
X131508571Y-86070057D01*
X131508571Y-86070057D02*
X131460952Y-86165295D01*
X131460952Y-86165295D02*
X131413333Y-86355771D01*
X131413333Y-86355771D02*
X131413333Y-86593866D01*
X131413333Y-86593866D02*
X131460952Y-86784342D01*
X131460952Y-86784342D02*
X131508571Y-86879580D01*
X131508571Y-86879580D02*
X131556190Y-86927200D01*
X131556190Y-86927200D02*
X131651428Y-86974819D01*
X131651428Y-86974819D02*
X131746666Y-86974819D01*
X131746666Y-86974819D02*
X131841904Y-86927200D01*
X131841904Y-86927200D02*
X131889523Y-86879580D01*
X131889523Y-86879580D02*
X131937142Y-86784342D01*
X131937142Y-86784342D02*
X131984761Y-86593866D01*
X131984761Y-86593866D02*
X131984761Y-86355771D01*
X131984761Y-86355771D02*
X131937142Y-86165295D01*
X131937142Y-86165295D02*
X131889523Y-86070057D01*
X131889523Y-86070057D02*
X131841904Y-86022438D01*
X131841904Y-86022438D02*
X131746666Y-85974819D01*
X131079999Y-85974819D02*
X130460952Y-85974819D01*
X130460952Y-85974819D02*
X130794285Y-86355771D01*
X130794285Y-86355771D02*
X130651428Y-86355771D01*
X130651428Y-86355771D02*
X130556190Y-86403390D01*
X130556190Y-86403390D02*
X130508571Y-86451009D01*
X130508571Y-86451009D02*
X130460952Y-86546247D01*
X130460952Y-86546247D02*
X130460952Y-86784342D01*
X130460952Y-86784342D02*
X130508571Y-86879580D01*
X130508571Y-86879580D02*
X130556190Y-86927200D01*
X130556190Y-86927200D02*
X130651428Y-86974819D01*
X130651428Y-86974819D02*
X130937142Y-86974819D01*
X130937142Y-86974819D02*
X131032380Y-86927200D01*
X131032380Y-86927200D02*
X131079999Y-86879580D01*
X146065714Y-85974819D02*
X146065714Y-86689104D01*
X146065714Y-86689104D02*
X146113333Y-86831961D01*
X146113333Y-86831961D02*
X146208571Y-86927200D01*
X146208571Y-86927200D02*
X146351428Y-86974819D01*
X146351428Y-86974819D02*
X146446666Y-86974819D01*
X145065714Y-86974819D02*
X145637142Y-86974819D01*
X145351428Y-86974819D02*
X145351428Y-85974819D01*
X145351428Y-85974819D02*
X145446666Y-86117676D01*
X145446666Y-86117676D02*
X145541904Y-86212914D01*
X145541904Y-86212914D02*
X145637142Y-86260533D01*
X144446666Y-85974819D02*
X144351428Y-85974819D01*
X144351428Y-85974819D02*
X144256190Y-86022438D01*
X144256190Y-86022438D02*
X144208571Y-86070057D01*
X144208571Y-86070057D02*
X144160952Y-86165295D01*
X144160952Y-86165295D02*
X144113333Y-86355771D01*
X144113333Y-86355771D02*
X144113333Y-86593866D01*
X144113333Y-86593866D02*
X144160952Y-86784342D01*
X144160952Y-86784342D02*
X144208571Y-86879580D01*
X144208571Y-86879580D02*
X144256190Y-86927200D01*
X144256190Y-86927200D02*
X144351428Y-86974819D01*
X144351428Y-86974819D02*
X144446666Y-86974819D01*
X144446666Y-86974819D02*
X144541904Y-86927200D01*
X144541904Y-86927200D02*
X144589523Y-86879580D01*
X144589523Y-86879580D02*
X144637142Y-86784342D01*
X144637142Y-86784342D02*
X144684761Y-86593866D01*
X144684761Y-86593866D02*
X144684761Y-86355771D01*
X144684761Y-86355771D02*
X144637142Y-86165295D01*
X144637142Y-86165295D02*
X144589523Y-86070057D01*
X144589523Y-86070057D02*
X144541904Y-86022438D01*
X144541904Y-86022438D02*
X144446666Y-85974819D01*
X143256190Y-86308152D02*
X143256190Y-86974819D01*
X143494285Y-85927200D02*
X143732380Y-86641485D01*
X143732380Y-86641485D02*
X143113333Y-86641485D01*
D11*
X130700000Y-87520000D02*
X130700000Y-90630000D01*
X130700000Y-92250000D02*
X130700000Y-95710000D01*
X130700000Y-97330000D02*
X130700000Y-100790000D01*
X130700000Y-102410000D02*
X130700000Y-105870000D01*
X130700000Y-107490000D02*
X130700000Y-110950000D01*
X130700000Y-112570000D02*
X130700000Y-116030000D01*
X130700000Y-117650000D02*
X130700000Y-121110000D01*
X130700000Y-122730000D02*
X130700000Y-126190000D01*
X130700000Y-127810000D02*
X130700000Y-131270000D01*
X130700000Y-132890000D02*
X130700000Y-136350000D01*
X130700000Y-137970000D02*
X130700000Y-141430000D01*
X130700000Y-143050000D02*
X130700000Y-146510000D01*
X130700000Y-148130000D02*
X130700000Y-151590000D01*
X130700000Y-153210000D02*
X130700000Y-153780000D01*
X133460000Y-87520000D02*
X130700000Y-87520000D01*
X133460000Y-87520000D02*
X133460000Y-88090000D01*
X133460000Y-89710000D02*
X133460000Y-93170000D01*
X133460000Y-94790000D02*
X133460000Y-98250000D01*
X133460000Y-99870000D02*
X133460000Y-103330000D01*
X133460000Y-104950000D02*
X133460000Y-108410000D01*
X133460000Y-110030000D02*
X133460000Y-113490000D01*
X133460000Y-115110000D02*
X133460000Y-118570000D01*
X133460000Y-120190000D02*
X133460000Y-123650000D01*
X133460000Y-125270000D02*
X133460000Y-128730000D01*
X133460000Y-130350000D02*
X133460000Y-133810000D01*
X133460000Y-135430000D02*
X133460000Y-138890000D01*
X133460000Y-140510000D02*
X133460000Y-143970000D01*
X133460000Y-145590000D02*
X133460000Y-149050000D01*
X133460000Y-150670000D02*
X133460000Y-153780000D01*
X133460000Y-153780000D02*
X130700000Y-153780000D01*
X143400000Y-87520000D02*
X143400000Y-88090000D01*
X143400000Y-89710000D02*
X143400000Y-93170000D01*
X143400000Y-94790000D02*
X143400000Y-98250000D01*
X143400000Y-99870000D02*
X143400000Y-103330000D01*
X143400000Y-104950000D02*
X143400000Y-108410000D01*
X143400000Y-110030000D02*
X143400000Y-113490000D01*
X143400000Y-115110000D02*
X143400000Y-118570000D01*
X143400000Y-120190000D02*
X143400000Y-123650000D01*
X143400000Y-125270000D02*
X143400000Y-128730000D01*
X143400000Y-130350000D02*
X143400000Y-133810000D01*
X143400000Y-135430000D02*
X143400000Y-138890000D01*
X143400000Y-140510000D02*
X143400000Y-143970000D01*
X143400000Y-145590000D02*
X143400000Y-149050000D01*
X143400000Y-150670000D02*
X143400000Y-153780000D01*
X146160000Y-87520000D02*
X143400000Y-87520000D01*
X146160000Y-87520000D02*
X146160000Y-90630000D01*
X146160000Y-88090000D02*
X146160000Y-90630000D01*
X146160000Y-92250000D02*
X146160000Y-95710000D01*
X146160000Y-97330000D02*
X146160000Y-100790000D01*
X146160000Y-102410000D02*
X146160000Y-105870000D01*
X146160000Y-107490000D02*
X146160000Y-110950000D01*
X146160000Y-112570000D02*
X146160000Y-116030000D01*
X146160000Y-117650000D02*
X146160000Y-121110000D01*
X146160000Y-122730000D02*
X146160000Y-126190000D01*
X146160000Y-127810000D02*
X146160000Y-131270000D01*
X146160000Y-132890000D02*
X146160000Y-136350000D01*
X146160000Y-137970000D02*
X146160000Y-141430000D01*
X146160000Y-143050000D02*
X146160000Y-146510000D01*
X146160000Y-148130000D02*
X146160000Y-151590000D01*
X146160000Y-153210000D02*
X146160000Y-153780000D01*
X146160000Y-153780000D02*
X143400000Y-153780000D01*
%LPC*%
D12*
X127000000Y-88900000D03*
D13*
X127000000Y-91440000D03*
D12*
X127000000Y-93980000D03*
X127000000Y-96520000D03*
X127000000Y-99060000D03*
X127000000Y-101600000D03*
X127000000Y-104140000D03*
X127000000Y-106680000D03*
X127000000Y-109220000D03*
X127000000Y-111760000D03*
X127000000Y-114300000D03*
X127000000Y-116840000D03*
X127000000Y-119380000D03*
X127000000Y-121920000D03*
X127000000Y-124460000D03*
X127000000Y-127000000D03*
X127000000Y-129540000D03*
X127000000Y-132080000D03*
X127000000Y-134620000D03*
X127000000Y-137160000D03*
X127000000Y-139700000D03*
X127000000Y-142240000D03*
X127000000Y-144780000D03*
X127000000Y-147320000D03*
X127000000Y-149860000D03*
X127000000Y-152400000D03*
X149860000Y-88900000D03*
X149860000Y-91440000D03*
X149860000Y-93980000D03*
X149860000Y-96520000D03*
X149860000Y-99060000D03*
X149860000Y-101600000D03*
X149860000Y-104140000D03*
X149860000Y-106680000D03*
X149860000Y-109220000D03*
X149860000Y-111760000D03*
X149860000Y-114300000D03*
X149860000Y-116840000D03*
X149860000Y-119380000D03*
X149860000Y-121920000D03*
X149860000Y-124460000D03*
X149860000Y-127000000D03*
X149860000Y-129540000D03*
X149860000Y-132080000D03*
X149860000Y-134620000D03*
X149860000Y-137160000D03*
X149860000Y-139700000D03*
X149860000Y-142240000D03*
X149860000Y-144780000D03*
X149860000Y-147320000D03*
X149860000Y-149860000D03*
X149860000Y-152400000D03*
D14*
X133735000Y-88900000D03*
X130425000Y-91440000D03*
X133735000Y-93980000D03*
X130425000Y-96520000D03*
X133735000Y-99060000D03*
X130425000Y-101600000D03*
X133735000Y-104140000D03*
X130425000Y-106680000D03*
X133735000Y-109220000D03*
X130425000Y-111760000D03*
X133735000Y-114300000D03*
X130425000Y-116840000D03*
X133735000Y-119380000D03*
X130425000Y-121920000D03*
X133735000Y-124460000D03*
X130425000Y-127000000D03*
X133735000Y-129540000D03*
X130425000Y-132080000D03*
X133735000Y-134620000D03*
X130425000Y-137160000D03*
X133735000Y-139700000D03*
X130425000Y-142240000D03*
X133735000Y-144780000D03*
X130425000Y-147320000D03*
X133735000Y-149860000D03*
X130425000Y-152400000D03*
X143125000Y-88900000D03*
X146435000Y-91440000D03*
X143125000Y-93980000D03*
X146435000Y-96520000D03*
X143125000Y-99060000D03*
X146435000Y-101600000D03*
X143125000Y-104140000D03*
X146435000Y-106680000D03*
X143125000Y-109220000D03*
X146435000Y-111760000D03*
X143125000Y-114300000D03*
X146435000Y-116840000D03*
X143125000Y-119380000D03*
X146435000Y-121920000D03*
X143125000Y-124460000D03*
X146435000Y-127000000D03*
X143125000Y-129540000D03*
X146435000Y-132080000D03*
X143125000Y-134620000D03*
X146435000Y-137160000D03*
X143125000Y-139700000D03*
X146435000Y-142240000D03*
X143125000Y-144780000D03*
X146435000Y-147320000D03*
X143125000Y-149860000D03*
X146435000Y-152400000D03*
%LPD*%
M02*
