M48
; DRILL file {KiCad 9.0.6} date 2026-01-02T14:07:32-0600
; FORMAT={-:-/ absolute / metric / decimal}
; #@! TF.CreationDate,2026-01-02T14:07:32-06:00
; #@! TF.GenerationSoftware,Kicad,Pcbnew,9.0.6
; #@! TF.FileFunction,Plated,1,2,PTH
FMAT,2
METRIC
; #@! TA.AperFunction,Plated,PTH,ViaDrill
T1C0.300
; #@! TA.AperFunction,Plated,PTH,ComponentDrill
T2C0.300
; #@! TA.AperFunction,Plated,PTH,ComponentDrill
T3C1.000
%
G90
G05
T1
X138.43Y-101.346
X138.43Y-115.951
X138.43Y-125.349
X138.43Y-139.827
T2
X135.743Y-120.65
X136.639Y-119.754
X136.639Y-121.546
X137.534Y-118.859
X137.534Y-122.441
X137.534Y-120.65
X138.43Y-117.963
X138.43Y-119.754
X138.43Y-121.546
X138.43Y-123.337
X139.326Y-120.65
X139.326Y-118.859
X139.326Y-122.441
X140.221Y-119.754
X140.221Y-121.546
X141.117Y-120.65
T3
X127.0Y-88.9
X127.0Y-91.44
X127.0Y-93.98
X127.0Y-96.52
X127.0Y-99.06
X127.0Y-101.6
X127.0Y-104.14
X127.0Y-106.68
X127.0Y-109.22
X127.0Y-111.76
X127.0Y-114.3
X127.0Y-116.84
X127.0Y-119.38
X127.0Y-121.92
X127.0Y-124.46
X127.0Y-127.0
X127.0Y-129.54
X127.0Y-132.08
X127.0Y-134.62
X127.0Y-137.16
X127.0Y-139.7
X127.0Y-142.24
X127.0Y-144.78
X127.0Y-147.32
X127.0Y-149.86
X127.0Y-152.4
X149.86Y-88.9
X149.86Y-91.44
X149.86Y-93.98
X149.86Y-96.52
X149.86Y-99.06
X149.86Y-101.6
X149.86Y-104.14
X149.86Y-106.68
X149.86Y-109.22
X149.86Y-111.76
X149.86Y-114.3
X149.86Y-116.84
X149.86Y-119.38
X149.86Y-121.92
X149.86Y-124.46
X149.86Y-127.0
X149.86Y-129.54
X149.86Y-132.08
X149.86Y-134.62
X149.86Y-137.16
X149.86Y-139.7
X149.86Y-142.24
X149.86Y-144.78
X149.86Y-147.32
X149.86Y-149.86
X149.86Y-152.4
M30
