G04 #@! TF.GenerationSoftware,KiCad,Pcbnew,9.0.6*
G04 #@! TF.CreationDate,2026-01-07T12:02:34-06:00*
G04 #@! TF.ProjectId,QFN-48_6x6_P0.4,51464e2d-3438-45f3-9678-365f50302e34,rev?*
G04 #@! TF.SameCoordinates,Original*
G04 #@! TF.FileFunction,Paste,Top*
G04 #@! TF.FilePolarity,Positive*
%FSLAX46Y46*%
G04 Gerber Fmt 4.6, Leading zero omitted, Abs format (unit mm)*
G04 Created by KiCad (PCBNEW 9.0.6) date 2026-01-07 12:02:34*
%MOMM*%
%LPD*%
G01*
G04 APERTURE LIST*
G04 Aperture macros list*
%AMRoundRect*
0 Rectangle with rounded corners*
0 $1 Rounding radius*
0 $2 $3 $4 $5 $6 $7 $8 $9 X,Y pos of 4 corners*
0 Add a 4 corners polygon primitive as box body*
4,1,4,$2,$3,$4,$5,$6,$7,$8,$9,$2,$3,0*
0 Add four circle primitives for the rounded corners*
1,1,$1+$1,$2,$3*
1,1,$1+$1,$4,$5*
1,1,$1+$1,$6,$7*
1,1,$1+$1,$8,$9*
0 Add four rect primitives between the rounded corners*
20,1,$1+$1,$2,$3,$4,$5,0*
20,1,$1+$1,$4,$5,$6,$7,0*
20,1,$1+$1,$6,$7,$8,$9,0*
20,1,$1+$1,$8,$9,$2,$3,0*%
G04 Aperture macros list end*
%ADD10RoundRect,0.250000X-0.466690X0.000000X0.000000X-0.466690X0.466690X0.000000X0.000000X0.466690X0*%
%ADD11RoundRect,0.050000X-0.424264X0.353553X0.353553X-0.424264X0.424264X-0.353553X-0.353553X0.424264X0*%
%ADD12RoundRect,0.050000X-0.424264X-0.353553X-0.353553X-0.424264X0.424264X0.353553X0.353553X0.424264X0*%
G04 APERTURE END LIST*
D10*
X138430000Y-118627675D03*
X137418837Y-119638837D03*
X136407675Y-120650000D03*
X139441163Y-119638837D03*
X138430000Y-120650000D03*
X137418837Y-121661163D03*
X140452325Y-120650000D03*
X139441163Y-121661163D03*
X138430000Y-122672325D03*
D11*
X137758249Y-116866979D03*
X137475406Y-117149821D03*
X137192562Y-117432665D03*
X136909720Y-117715507D03*
X136626878Y-117998350D03*
X136344034Y-118281193D03*
X136061193Y-118564034D03*
X135778350Y-118846878D03*
X135495507Y-119129720D03*
X135212665Y-119412562D03*
X134929821Y-119695406D03*
X134646979Y-119978249D03*
D12*
X134646979Y-121321751D03*
X134929821Y-121604594D03*
X135212665Y-121887438D03*
X135495507Y-122170280D03*
X135778350Y-122453122D03*
X136061193Y-122735966D03*
X136344034Y-123018807D03*
X136626878Y-123301650D03*
X136909720Y-123584493D03*
X137192562Y-123867335D03*
X137475406Y-124150179D03*
X137758249Y-124433021D03*
D11*
X139101751Y-124433021D03*
X139384594Y-124150179D03*
X139667438Y-123867335D03*
X139950280Y-123584493D03*
X140233122Y-123301650D03*
X140515966Y-123018807D03*
X140798807Y-122735966D03*
X141081650Y-122453122D03*
X141364493Y-122170280D03*
X141647335Y-121887438D03*
X141930179Y-121604594D03*
X142213021Y-121321751D03*
D12*
X142213021Y-119978249D03*
X141930179Y-119695406D03*
X141647335Y-119412562D03*
X141364493Y-119129720D03*
X141081650Y-118846878D03*
X140798807Y-118564034D03*
X140515966Y-118281193D03*
X140233122Y-117998350D03*
X139950280Y-117715507D03*
X139667438Y-117432665D03*
X139384594Y-117149821D03*
X139101751Y-116866979D03*
M02*
