G04 #@! TF.GenerationSoftware,KiCad,Pcbnew,9.0.6*
G04 #@! TF.CreationDate,2025-12-31T13:09:13-06:00*
G04 #@! TF.ProjectId,QFN-48_6x6,51464e2d-3438-45f3-9678-362e6b696361,rev?*
G04 #@! TF.SameCoordinates,Original*
G04 #@! TF.FileFunction,Legend,Top*
G04 #@! TF.FilePolarity,Positive*
%FSLAX46Y46*%
G04 Gerber Fmt 4.6, Leading zero omitted, Abs format (unit mm)*
G04 Created by KiCad (PCBNEW 9.0.6) date 2025-12-31 13:09:13*
%MOMM*%
%LPD*%
G01*
G04 APERTURE LIST*
G04 Aperture macros list*
%AMRoundRect*
0 Rectangle with rounded corners*
0 $1 Rounding radius*
0 $2 $3 $4 $5 $6 $7 $8 $9 X,Y pos of 4 corners*
0 Add a 4 corners polygon primitive as box body*
4,1,4,$2,$3,$4,$5,$6,$7,$8,$9,$2,$3,0*
0 Add four circle primitives for the rounded corners*
1,1,$1+$1,$2,$3*
1,1,$1+$1,$4,$5*
1,1,$1+$1,$6,$7*
1,1,$1+$1,$8,$9*
0 Add four rect primitives between the rounded corners*
20,1,$1+$1,$2,$3,$4,$5,0*
20,1,$1+$1,$4,$5,$6,$7,0*
20,1,$1+$1,$6,$7,$8,$9,0*
20,1,$1+$1,$8,$9,$2,$3,0*%
%AMRotRect*
0 Rectangle, with rotation*
0 The origin of the aperture is its center*
0 $1 length*
0 $2 width*
0 $3 Rotation angle, in degrees counterclockwise*
0 Add horizontal line*
21,1,$1,$2,0,0,$3*%
G04 Aperture macros list end*
%ADD10C,0.100000*%
%ADD11C,0.200000*%
%ADD12C,0.150000*%
%ADD13C,0.120000*%
%ADD14C,0.000000*%
%ADD15RoundRect,0.050000X-0.424264X0.353553X0.353553X-0.424264X0.424264X-0.353553X-0.353553X0.424264X0*%
%ADD16RoundRect,0.050000X-0.424264X-0.353553X-0.353553X-0.424264X0.424264X0.353553X0.353553X0.424264X0*%
%ADD17RotRect,4.300000X4.300000X315.000000*%
%ADD18C,1.700000*%
G04 APERTURE END LIST*
D10*
X131064000Y-127508000D02*
X145796000Y-127508000D01*
X145796000Y-144780000D01*
X131064000Y-144780000D01*
X131064000Y-127508000D01*
G36*
X131064000Y-127508000D02*
G01*
X145796000Y-127508000D01*
X145796000Y-144780000D01*
X131064000Y-144780000D01*
X131064000Y-127508000D01*
G37*
X131064000Y-104648000D02*
X145796000Y-104648000D01*
X145796000Y-113792000D01*
X131064000Y-113792000D01*
X131064000Y-104648000D01*
G36*
X131064000Y-104648000D02*
G01*
X145796000Y-104648000D01*
X145796000Y-113792000D01*
X131064000Y-113792000D01*
X131064000Y-104648000D01*
G37*
D11*
X134953809Y-100467219D02*
X135287142Y-101467219D01*
X135287142Y-101467219D02*
X135620475Y-100467219D01*
X136334761Y-101419600D02*
X136239523Y-101467219D01*
X136239523Y-101467219D02*
X136049047Y-101467219D01*
X136049047Y-101467219D02*
X135953809Y-101419600D01*
X135953809Y-101419600D02*
X135906190Y-101324361D01*
X135906190Y-101324361D02*
X135906190Y-100943409D01*
X135906190Y-100943409D02*
X135953809Y-100848171D01*
X135953809Y-100848171D02*
X136049047Y-100800552D01*
X136049047Y-100800552D02*
X136239523Y-100800552D01*
X136239523Y-100800552D02*
X136334761Y-100848171D01*
X136334761Y-100848171D02*
X136382380Y-100943409D01*
X136382380Y-100943409D02*
X136382380Y-101038647D01*
X136382380Y-101038647D02*
X135906190Y-101133885D01*
X136810952Y-101467219D02*
X136810952Y-100800552D01*
X136810952Y-100991028D02*
X136858571Y-100895790D01*
X136858571Y-100895790D02*
X136906190Y-100848171D01*
X136906190Y-100848171D02*
X137001428Y-100800552D01*
X137001428Y-100800552D02*
X137096666Y-100800552D01*
X137382381Y-101419600D02*
X137477619Y-101467219D01*
X137477619Y-101467219D02*
X137668095Y-101467219D01*
X137668095Y-101467219D02*
X137763333Y-101419600D01*
X137763333Y-101419600D02*
X137810952Y-101324361D01*
X137810952Y-101324361D02*
X137810952Y-101276742D01*
X137810952Y-101276742D02*
X137763333Y-101181504D01*
X137763333Y-101181504D02*
X137668095Y-101133885D01*
X137668095Y-101133885D02*
X137525238Y-101133885D01*
X137525238Y-101133885D02*
X137430000Y-101086266D01*
X137430000Y-101086266D02*
X137382381Y-100991028D01*
X137382381Y-100991028D02*
X137382381Y-100943409D01*
X137382381Y-100943409D02*
X137430000Y-100848171D01*
X137430000Y-100848171D02*
X137525238Y-100800552D01*
X137525238Y-100800552D02*
X137668095Y-100800552D01*
X137668095Y-100800552D02*
X137763333Y-100848171D01*
X138239524Y-101467219D02*
X138239524Y-100800552D01*
X138239524Y-100467219D02*
X138191905Y-100514838D01*
X138191905Y-100514838D02*
X138239524Y-100562457D01*
X138239524Y-100562457D02*
X138287143Y-100514838D01*
X138287143Y-100514838D02*
X138239524Y-100467219D01*
X138239524Y-100467219D02*
X138239524Y-100562457D01*
X138858571Y-101467219D02*
X138763333Y-101419600D01*
X138763333Y-101419600D02*
X138715714Y-101371980D01*
X138715714Y-101371980D02*
X138668095Y-101276742D01*
X138668095Y-101276742D02*
X138668095Y-100991028D01*
X138668095Y-100991028D02*
X138715714Y-100895790D01*
X138715714Y-100895790D02*
X138763333Y-100848171D01*
X138763333Y-100848171D02*
X138858571Y-100800552D01*
X138858571Y-100800552D02*
X139001428Y-100800552D01*
X139001428Y-100800552D02*
X139096666Y-100848171D01*
X139096666Y-100848171D02*
X139144285Y-100895790D01*
X139144285Y-100895790D02*
X139191904Y-100991028D01*
X139191904Y-100991028D02*
X139191904Y-101276742D01*
X139191904Y-101276742D02*
X139144285Y-101371980D01*
X139144285Y-101371980D02*
X139096666Y-101419600D01*
X139096666Y-101419600D02*
X139001428Y-101467219D01*
X139001428Y-101467219D02*
X138858571Y-101467219D01*
X139620476Y-100800552D02*
X139620476Y-101467219D01*
X139620476Y-100895790D02*
X139668095Y-100848171D01*
X139668095Y-100848171D02*
X139763333Y-100800552D01*
X139763333Y-100800552D02*
X139906190Y-100800552D01*
X139906190Y-100800552D02*
X140001428Y-100848171D01*
X140001428Y-100848171D02*
X140049047Y-100943409D01*
X140049047Y-100943409D02*
X140049047Y-101467219D01*
X141810952Y-101467219D02*
X141239524Y-101467219D01*
X141525238Y-101467219D02*
X141525238Y-100467219D01*
X141525238Y-100467219D02*
X141430000Y-100610076D01*
X141430000Y-100610076D02*
X141334762Y-100705314D01*
X141334762Y-100705314D02*
X141239524Y-100752933D01*
X136287142Y-148126569D02*
X136191904Y-148078950D01*
X136191904Y-148078950D02*
X136096666Y-147983712D01*
X136096666Y-147983712D02*
X135953809Y-147840854D01*
X135953809Y-147840854D02*
X135858571Y-147793235D01*
X135858571Y-147793235D02*
X135763333Y-147793235D01*
X135810952Y-148031331D02*
X135715714Y-147983712D01*
X135715714Y-147983712D02*
X135620476Y-147888473D01*
X135620476Y-147888473D02*
X135572857Y-147697997D01*
X135572857Y-147697997D02*
X135572857Y-147364664D01*
X135572857Y-147364664D02*
X135620476Y-147174188D01*
X135620476Y-147174188D02*
X135715714Y-147078950D01*
X135715714Y-147078950D02*
X135810952Y-147031331D01*
X135810952Y-147031331D02*
X136001428Y-147031331D01*
X136001428Y-147031331D02*
X136096666Y-147078950D01*
X136096666Y-147078950D02*
X136191904Y-147174188D01*
X136191904Y-147174188D02*
X136239523Y-147364664D01*
X136239523Y-147364664D02*
X136239523Y-147697997D01*
X136239523Y-147697997D02*
X136191904Y-147888473D01*
X136191904Y-147888473D02*
X136096666Y-147983712D01*
X136096666Y-147983712D02*
X136001428Y-148031331D01*
X136001428Y-148031331D02*
X135810952Y-148031331D01*
X137001428Y-147507521D02*
X136668095Y-147507521D01*
X136668095Y-148031331D02*
X136668095Y-147031331D01*
X136668095Y-147031331D02*
X137144285Y-147031331D01*
X137525238Y-148031331D02*
X137525238Y-147031331D01*
X137525238Y-147031331D02*
X138096666Y-148031331D01*
X138096666Y-148031331D02*
X138096666Y-147031331D01*
X138572857Y-147650378D02*
X139334762Y-147650378D01*
X140239523Y-147364664D02*
X140239523Y-148031331D01*
X140001428Y-146983712D02*
X139763333Y-147697997D01*
X139763333Y-147697997D02*
X140382380Y-147697997D01*
X140906190Y-147459902D02*
X140810952Y-147412283D01*
X140810952Y-147412283D02*
X140763333Y-147364664D01*
X140763333Y-147364664D02*
X140715714Y-147269426D01*
X140715714Y-147269426D02*
X140715714Y-147221807D01*
X140715714Y-147221807D02*
X140763333Y-147126569D01*
X140763333Y-147126569D02*
X140810952Y-147078950D01*
X140810952Y-147078950D02*
X140906190Y-147031331D01*
X140906190Y-147031331D02*
X141096666Y-147031331D01*
X141096666Y-147031331D02*
X141191904Y-147078950D01*
X141191904Y-147078950D02*
X141239523Y-147126569D01*
X141239523Y-147126569D02*
X141287142Y-147221807D01*
X141287142Y-147221807D02*
X141287142Y-147269426D01*
X141287142Y-147269426D02*
X141239523Y-147364664D01*
X141239523Y-147364664D02*
X141191904Y-147412283D01*
X141191904Y-147412283D02*
X141096666Y-147459902D01*
X141096666Y-147459902D02*
X140906190Y-147459902D01*
X140906190Y-147459902D02*
X140810952Y-147507521D01*
X140810952Y-147507521D02*
X140763333Y-147555140D01*
X140763333Y-147555140D02*
X140715714Y-147650378D01*
X140715714Y-147650378D02*
X140715714Y-147840854D01*
X140715714Y-147840854D02*
X140763333Y-147936092D01*
X140763333Y-147936092D02*
X140810952Y-147983712D01*
X140810952Y-147983712D02*
X140906190Y-148031331D01*
X140906190Y-148031331D02*
X141096666Y-148031331D01*
X141096666Y-148031331D02*
X141191904Y-147983712D01*
X141191904Y-147983712D02*
X141239523Y-147936092D01*
X141239523Y-147936092D02*
X141287142Y-147840854D01*
X141287142Y-147840854D02*
X141287142Y-147650378D01*
X141287142Y-147650378D02*
X141239523Y-147555140D01*
X141239523Y-147555140D02*
X141191904Y-147507521D01*
X141191904Y-147507521D02*
X141096666Y-147459902D01*
X136406190Y-148641275D02*
X136215714Y-148641275D01*
X136215714Y-148641275D02*
X136120476Y-148688894D01*
X136120476Y-148688894D02*
X136072857Y-148736513D01*
X136072857Y-148736513D02*
X135977619Y-148879370D01*
X135977619Y-148879370D02*
X135930000Y-149069846D01*
X135930000Y-149069846D02*
X135930000Y-149450798D01*
X135930000Y-149450798D02*
X135977619Y-149546036D01*
X135977619Y-149546036D02*
X136025238Y-149593656D01*
X136025238Y-149593656D02*
X136120476Y-149641275D01*
X136120476Y-149641275D02*
X136310952Y-149641275D01*
X136310952Y-149641275D02*
X136406190Y-149593656D01*
X136406190Y-149593656D02*
X136453809Y-149546036D01*
X136453809Y-149546036D02*
X136501428Y-149450798D01*
X136501428Y-149450798D02*
X136501428Y-149212703D01*
X136501428Y-149212703D02*
X136453809Y-149117465D01*
X136453809Y-149117465D02*
X136406190Y-149069846D01*
X136406190Y-149069846D02*
X136310952Y-149022227D01*
X136310952Y-149022227D02*
X136120476Y-149022227D01*
X136120476Y-149022227D02*
X136025238Y-149069846D01*
X136025238Y-149069846D02*
X135977619Y-149117465D01*
X135977619Y-149117465D02*
X135930000Y-149212703D01*
X136834762Y-149641275D02*
X137358571Y-148974608D01*
X136834762Y-148974608D02*
X137358571Y-149641275D01*
X138168095Y-148641275D02*
X137977619Y-148641275D01*
X137977619Y-148641275D02*
X137882381Y-148688894D01*
X137882381Y-148688894D02*
X137834762Y-148736513D01*
X137834762Y-148736513D02*
X137739524Y-148879370D01*
X137739524Y-148879370D02*
X137691905Y-149069846D01*
X137691905Y-149069846D02*
X137691905Y-149450798D01*
X137691905Y-149450798D02*
X137739524Y-149546036D01*
X137739524Y-149546036D02*
X137787143Y-149593656D01*
X137787143Y-149593656D02*
X137882381Y-149641275D01*
X137882381Y-149641275D02*
X138072857Y-149641275D01*
X138072857Y-149641275D02*
X138168095Y-149593656D01*
X138168095Y-149593656D02*
X138215714Y-149546036D01*
X138215714Y-149546036D02*
X138263333Y-149450798D01*
X138263333Y-149450798D02*
X138263333Y-149212703D01*
X138263333Y-149212703D02*
X138215714Y-149117465D01*
X138215714Y-149117465D02*
X138168095Y-149069846D01*
X138168095Y-149069846D02*
X138072857Y-149022227D01*
X138072857Y-149022227D02*
X137882381Y-149022227D01*
X137882381Y-149022227D02*
X137787143Y-149069846D01*
X137787143Y-149069846D02*
X137739524Y-149117465D01*
X137739524Y-149117465D02*
X137691905Y-149212703D01*
X138691905Y-149641275D02*
X138691905Y-148974608D01*
X138691905Y-149069846D02*
X138739524Y-149022227D01*
X138739524Y-149022227D02*
X138834762Y-148974608D01*
X138834762Y-148974608D02*
X138977619Y-148974608D01*
X138977619Y-148974608D02*
X139072857Y-149022227D01*
X139072857Y-149022227D02*
X139120476Y-149117465D01*
X139120476Y-149117465D02*
X139120476Y-149641275D01*
X139120476Y-149117465D02*
X139168095Y-149022227D01*
X139168095Y-149022227D02*
X139263333Y-148974608D01*
X139263333Y-148974608D02*
X139406190Y-148974608D01*
X139406190Y-148974608D02*
X139501429Y-149022227D01*
X139501429Y-149022227D02*
X139549048Y-149117465D01*
X139549048Y-149117465D02*
X139549048Y-149641275D01*
X140025238Y-149641275D02*
X140025238Y-148974608D01*
X140025238Y-149069846D02*
X140072857Y-149022227D01*
X140072857Y-149022227D02*
X140168095Y-148974608D01*
X140168095Y-148974608D02*
X140310952Y-148974608D01*
X140310952Y-148974608D02*
X140406190Y-149022227D01*
X140406190Y-149022227D02*
X140453809Y-149117465D01*
X140453809Y-149117465D02*
X140453809Y-149641275D01*
X140453809Y-149117465D02*
X140501428Y-149022227D01*
X140501428Y-149022227D02*
X140596666Y-148974608D01*
X140596666Y-148974608D02*
X140739523Y-148974608D01*
X140739523Y-148974608D02*
X140834762Y-149022227D01*
X140834762Y-149022227D02*
X140882381Y-149117465D01*
X140882381Y-149117465D02*
X140882381Y-149641275D01*
X134049048Y-150251219D02*
X134144286Y-150251219D01*
X134144286Y-150251219D02*
X134239524Y-150298838D01*
X134239524Y-150298838D02*
X134287143Y-150346457D01*
X134287143Y-150346457D02*
X134334762Y-150441695D01*
X134334762Y-150441695D02*
X134382381Y-150632171D01*
X134382381Y-150632171D02*
X134382381Y-150870266D01*
X134382381Y-150870266D02*
X134334762Y-151060742D01*
X134334762Y-151060742D02*
X134287143Y-151155980D01*
X134287143Y-151155980D02*
X134239524Y-151203600D01*
X134239524Y-151203600D02*
X134144286Y-151251219D01*
X134144286Y-151251219D02*
X134049048Y-151251219D01*
X134049048Y-151251219D02*
X133953810Y-151203600D01*
X133953810Y-151203600D02*
X133906191Y-151155980D01*
X133906191Y-151155980D02*
X133858572Y-151060742D01*
X133858572Y-151060742D02*
X133810953Y-150870266D01*
X133810953Y-150870266D02*
X133810953Y-150632171D01*
X133810953Y-150632171D02*
X133858572Y-150441695D01*
X133858572Y-150441695D02*
X133906191Y-150346457D01*
X133906191Y-150346457D02*
X133953810Y-150298838D01*
X133953810Y-150298838D02*
X134049048Y-150251219D01*
X134810953Y-151155980D02*
X134858572Y-151203600D01*
X134858572Y-151203600D02*
X134810953Y-151251219D01*
X134810953Y-151251219D02*
X134763334Y-151203600D01*
X134763334Y-151203600D02*
X134810953Y-151155980D01*
X134810953Y-151155980D02*
X134810953Y-151251219D01*
X135715714Y-150584552D02*
X135715714Y-151251219D01*
X135477619Y-150203600D02*
X135239524Y-150917885D01*
X135239524Y-150917885D02*
X135858571Y-150917885D01*
X136239524Y-151251219D02*
X136239524Y-150584552D01*
X136239524Y-150679790D02*
X136287143Y-150632171D01*
X136287143Y-150632171D02*
X136382381Y-150584552D01*
X136382381Y-150584552D02*
X136525238Y-150584552D01*
X136525238Y-150584552D02*
X136620476Y-150632171D01*
X136620476Y-150632171D02*
X136668095Y-150727409D01*
X136668095Y-150727409D02*
X136668095Y-151251219D01*
X136668095Y-150727409D02*
X136715714Y-150632171D01*
X136715714Y-150632171D02*
X136810952Y-150584552D01*
X136810952Y-150584552D02*
X136953809Y-150584552D01*
X136953809Y-150584552D02*
X137049048Y-150632171D01*
X137049048Y-150632171D02*
X137096667Y-150727409D01*
X137096667Y-150727409D02*
X137096667Y-151251219D01*
X137572857Y-151251219D02*
X137572857Y-150584552D01*
X137572857Y-150679790D02*
X137620476Y-150632171D01*
X137620476Y-150632171D02*
X137715714Y-150584552D01*
X137715714Y-150584552D02*
X137858571Y-150584552D01*
X137858571Y-150584552D02*
X137953809Y-150632171D01*
X137953809Y-150632171D02*
X138001428Y-150727409D01*
X138001428Y-150727409D02*
X138001428Y-151251219D01*
X138001428Y-150727409D02*
X138049047Y-150632171D01*
X138049047Y-150632171D02*
X138144285Y-150584552D01*
X138144285Y-150584552D02*
X138287142Y-150584552D01*
X138287142Y-150584552D02*
X138382381Y-150632171D01*
X138382381Y-150632171D02*
X138430000Y-150727409D01*
X138430000Y-150727409D02*
X138430000Y-151251219D01*
X139668095Y-151251219D02*
X139668095Y-150251219D01*
X139668095Y-150251219D02*
X140049047Y-150251219D01*
X140049047Y-150251219D02*
X140144285Y-150298838D01*
X140144285Y-150298838D02*
X140191904Y-150346457D01*
X140191904Y-150346457D02*
X140239523Y-150441695D01*
X140239523Y-150441695D02*
X140239523Y-150584552D01*
X140239523Y-150584552D02*
X140191904Y-150679790D01*
X140191904Y-150679790D02*
X140144285Y-150727409D01*
X140144285Y-150727409D02*
X140049047Y-150775028D01*
X140049047Y-150775028D02*
X139668095Y-150775028D01*
X140668095Y-151251219D02*
X140668095Y-150584552D01*
X140668095Y-150251219D02*
X140620476Y-150298838D01*
X140620476Y-150298838D02*
X140668095Y-150346457D01*
X140668095Y-150346457D02*
X140715714Y-150298838D01*
X140715714Y-150298838D02*
X140668095Y-150251219D01*
X140668095Y-150251219D02*
X140668095Y-150346457D01*
X141001428Y-150584552D02*
X141382380Y-150584552D01*
X141144285Y-150251219D02*
X141144285Y-151108361D01*
X141144285Y-151108361D02*
X141191904Y-151203600D01*
X141191904Y-151203600D02*
X141287142Y-151251219D01*
X141287142Y-151251219D02*
X141382380Y-151251219D01*
X142144285Y-151203600D02*
X142049047Y-151251219D01*
X142049047Y-151251219D02*
X141858571Y-151251219D01*
X141858571Y-151251219D02*
X141763333Y-151203600D01*
X141763333Y-151203600D02*
X141715714Y-151155980D01*
X141715714Y-151155980D02*
X141668095Y-151060742D01*
X141668095Y-151060742D02*
X141668095Y-150775028D01*
X141668095Y-150775028D02*
X141715714Y-150679790D01*
X141715714Y-150679790D02*
X141763333Y-150632171D01*
X141763333Y-150632171D02*
X141858571Y-150584552D01*
X141858571Y-150584552D02*
X142049047Y-150584552D01*
X142049047Y-150584552D02*
X142144285Y-150632171D01*
X142572857Y-151251219D02*
X142572857Y-150251219D01*
X143001428Y-151251219D02*
X143001428Y-150727409D01*
X143001428Y-150727409D02*
X142953809Y-150632171D01*
X142953809Y-150632171D02*
X142858571Y-150584552D01*
X142858571Y-150584552D02*
X142715714Y-150584552D01*
X142715714Y-150584552D02*
X142620476Y-150632171D01*
X142620476Y-150632171D02*
X142572857Y-150679790D01*
D12*
X125714285Y-85974819D02*
X125714285Y-86689104D01*
X125714285Y-86689104D02*
X125666666Y-86831961D01*
X125666666Y-86831961D02*
X125571428Y-86927200D01*
X125571428Y-86927200D02*
X125428571Y-86974819D01*
X125428571Y-86974819D02*
X125333333Y-86974819D01*
X126714285Y-86974819D02*
X126142857Y-86974819D01*
X126428571Y-86974819D02*
X126428571Y-85974819D01*
X126428571Y-85974819D02*
X126333333Y-86117676D01*
X126333333Y-86117676D02*
X126238095Y-86212914D01*
X126238095Y-86212914D02*
X126142857Y-86260533D01*
X127333333Y-85974819D02*
X127428571Y-85974819D01*
X127428571Y-85974819D02*
X127523809Y-86022438D01*
X127523809Y-86022438D02*
X127571428Y-86070057D01*
X127571428Y-86070057D02*
X127619047Y-86165295D01*
X127619047Y-86165295D02*
X127666666Y-86355771D01*
X127666666Y-86355771D02*
X127666666Y-86593866D01*
X127666666Y-86593866D02*
X127619047Y-86784342D01*
X127619047Y-86784342D02*
X127571428Y-86879580D01*
X127571428Y-86879580D02*
X127523809Y-86927200D01*
X127523809Y-86927200D02*
X127428571Y-86974819D01*
X127428571Y-86974819D02*
X127333333Y-86974819D01*
X127333333Y-86974819D02*
X127238095Y-86927200D01*
X127238095Y-86927200D02*
X127190476Y-86879580D01*
X127190476Y-86879580D02*
X127142857Y-86784342D01*
X127142857Y-86784342D02*
X127095238Y-86593866D01*
X127095238Y-86593866D02*
X127095238Y-86355771D01*
X127095238Y-86355771D02*
X127142857Y-86165295D01*
X127142857Y-86165295D02*
X127190476Y-86070057D01*
X127190476Y-86070057D02*
X127238095Y-86022438D01*
X127238095Y-86022438D02*
X127333333Y-85974819D01*
X128619047Y-86974819D02*
X128047619Y-86974819D01*
X128333333Y-86974819D02*
X128333333Y-85974819D01*
X128333333Y-85974819D02*
X128238095Y-86117676D01*
X128238095Y-86117676D02*
X128142857Y-86212914D01*
X128142857Y-86212914D02*
X128047619Y-86260533D01*
X148574285Y-85974819D02*
X148574285Y-86689104D01*
X148574285Y-86689104D02*
X148526666Y-86831961D01*
X148526666Y-86831961D02*
X148431428Y-86927200D01*
X148431428Y-86927200D02*
X148288571Y-86974819D01*
X148288571Y-86974819D02*
X148193333Y-86974819D01*
X149574285Y-86974819D02*
X149002857Y-86974819D01*
X149288571Y-86974819D02*
X149288571Y-85974819D01*
X149288571Y-85974819D02*
X149193333Y-86117676D01*
X149193333Y-86117676D02*
X149098095Y-86212914D01*
X149098095Y-86212914D02*
X149002857Y-86260533D01*
X150193333Y-85974819D02*
X150288571Y-85974819D01*
X150288571Y-85974819D02*
X150383809Y-86022438D01*
X150383809Y-86022438D02*
X150431428Y-86070057D01*
X150431428Y-86070057D02*
X150479047Y-86165295D01*
X150479047Y-86165295D02*
X150526666Y-86355771D01*
X150526666Y-86355771D02*
X150526666Y-86593866D01*
X150526666Y-86593866D02*
X150479047Y-86784342D01*
X150479047Y-86784342D02*
X150431428Y-86879580D01*
X150431428Y-86879580D02*
X150383809Y-86927200D01*
X150383809Y-86927200D02*
X150288571Y-86974819D01*
X150288571Y-86974819D02*
X150193333Y-86974819D01*
X150193333Y-86974819D02*
X150098095Y-86927200D01*
X150098095Y-86927200D02*
X150050476Y-86879580D01*
X150050476Y-86879580D02*
X150002857Y-86784342D01*
X150002857Y-86784342D02*
X149955238Y-86593866D01*
X149955238Y-86593866D02*
X149955238Y-86355771D01*
X149955238Y-86355771D02*
X150002857Y-86165295D01*
X150002857Y-86165295D02*
X150050476Y-86070057D01*
X150050476Y-86070057D02*
X150098095Y-86022438D01*
X150098095Y-86022438D02*
X150193333Y-85974819D01*
X150907619Y-86070057D02*
X150955238Y-86022438D01*
X150955238Y-86022438D02*
X151050476Y-85974819D01*
X151050476Y-85974819D02*
X151288571Y-85974819D01*
X151288571Y-85974819D02*
X151383809Y-86022438D01*
X151383809Y-86022438D02*
X151431428Y-86070057D01*
X151431428Y-86070057D02*
X151479047Y-86165295D01*
X151479047Y-86165295D02*
X151479047Y-86260533D01*
X151479047Y-86260533D02*
X151431428Y-86403390D01*
X151431428Y-86403390D02*
X150860000Y-86974819D01*
X150860000Y-86974819D02*
X151479047Y-86974819D01*
D13*
X134031796Y-120650000D02*
X134420705Y-120261091D01*
X134420705Y-121038909D02*
X134031796Y-120650000D01*
X138041091Y-116640705D02*
X138430000Y-116251796D01*
X138430000Y-116251796D02*
X138818909Y-116640705D01*
X138430000Y-125048204D02*
X138041091Y-124659295D01*
X138818909Y-124659295D02*
X138430000Y-125048204D01*
X142439295Y-120261091D02*
X142828204Y-120650000D01*
X142828204Y-120650000D02*
X142439295Y-121038909D01*
X137432979Y-116541710D02*
X137029929Y-116478070D01*
X137369340Y-116138659D01*
X137432979Y-116541710D01*
G36*
X137432979Y-116541710D02*
G01*
X137029929Y-116478070D01*
X137369340Y-116138659D01*
X137432979Y-116541710D01*
G37*
D14*
G36*
X145866048Y-88870944D02*
G01*
X145896040Y-88906097D01*
X145926741Y-88940830D01*
X145959724Y-88976776D01*
X145996557Y-89015571D01*
X146038813Y-89058849D01*
X146088063Y-89108246D01*
X146145876Y-89165396D01*
X146199353Y-89217801D01*
X146238590Y-89256188D01*
X146287618Y-89304230D01*
X146345101Y-89360613D01*
X146409702Y-89424023D01*
X146480083Y-89493147D01*
X146554908Y-89566672D01*
X146632838Y-89643282D01*
X146712538Y-89721665D01*
X146792669Y-89800507D01*
X146871894Y-89878493D01*
X146895364Y-89901604D01*
X146981592Y-89986491D01*
X147074708Y-90078111D01*
X147172651Y-90174439D01*
X147273359Y-90273447D01*
X147374768Y-90373109D01*
X147474818Y-90471398D01*
X147571444Y-90566288D01*
X147662585Y-90655752D01*
X147746179Y-90737764D01*
X147801670Y-90792173D01*
X147899833Y-90888412D01*
X147987401Y-90974317D01*
X148064958Y-91050474D01*
X148133087Y-91117468D01*
X148192373Y-91175884D01*
X148243397Y-91226308D01*
X148286743Y-91269324D01*
X148322996Y-91305519D01*
X148352737Y-91335478D01*
X148376551Y-91359785D01*
X148395020Y-91379027D01*
X148408729Y-91393789D01*
X148418260Y-91404655D01*
X148424198Y-91412212D01*
X148427124Y-91417045D01*
X148427623Y-91419739D01*
X148427461Y-91420109D01*
X148419915Y-91426896D01*
X148402014Y-91440945D01*
X148376131Y-91460454D01*
X148344636Y-91483617D01*
X148330712Y-91493708D01*
X148291792Y-91522163D01*
X148251926Y-91551940D01*
X148215493Y-91579730D01*
X148186873Y-91602223D01*
X148183997Y-91604552D01*
X148157733Y-91625626D01*
X148123023Y-91653072D01*
X148083834Y-91683770D01*
X148044135Y-91714603D01*
X148032153Y-91723850D01*
X147870045Y-91853283D01*
X147718470Y-91983596D01*
X147578369Y-92113877D01*
X147450684Y-92243215D01*
X147336359Y-92370698D01*
X147240827Y-92489463D01*
X147122057Y-92658748D01*
X147017026Y-92834856D01*
X146925621Y-93018071D01*
X146847730Y-93208677D01*
X146783242Y-93406957D01*
X146732046Y-93613197D01*
X146694029Y-93827679D01*
X146683682Y-93905855D01*
X146677408Y-93972124D01*
X146672919Y-94049901D01*
X146670217Y-94135306D01*
X146669305Y-94224456D01*
X146670185Y-94313469D01*
X146672858Y-94398462D01*
X146677328Y-94475555D01*
X146683332Y-94538706D01*
X146715736Y-94746875D01*
X146761666Y-94947240D01*
X146821171Y-95139906D01*
X146894300Y-95324980D01*
X146981103Y-95502566D01*
X147081629Y-95672771D01*
X147195928Y-95835699D01*
X147324049Y-95991456D01*
X147402576Y-96076338D01*
X147455217Y-96128813D01*
X147519571Y-96189153D01*
X147595789Y-96257487D01*
X147684025Y-96333945D01*
X147784430Y-96418654D01*
X147897157Y-96511746D01*
X148022359Y-96613348D01*
X148160189Y-96723591D01*
X148254783Y-96798493D01*
X148299542Y-96834154D01*
X148340120Y-96867145D01*
X148374922Y-96896118D01*
X148402355Y-96919723D01*
X148420824Y-96936610D01*
X148428737Y-96945432D01*
X148428903Y-96945889D01*
X148423775Y-96952657D01*
X148408186Y-96970251D01*
X148382527Y-96998260D01*
X148347193Y-97036270D01*
X148302576Y-97083868D01*
X148249069Y-97140641D01*
X148187065Y-97206176D01*
X148116956Y-97280059D01*
X148039136Y-97361878D01*
X147953998Y-97451219D01*
X147861934Y-97547669D01*
X147763337Y-97650816D01*
X147658600Y-97760245D01*
X147548117Y-97875545D01*
X147432279Y-97996301D01*
X147311481Y-98122101D01*
X147195763Y-98242496D01*
X147080353Y-98362516D01*
X146967537Y-98479831D01*
X146857813Y-98593922D01*
X146751682Y-98704269D01*
X146649643Y-98810355D01*
X146552196Y-98911660D01*
X146459839Y-99007665D01*
X146373072Y-99097850D01*
X146292395Y-99181698D01*
X146218307Y-99258688D01*
X146151307Y-99328302D01*
X146091895Y-99390021D01*
X146040571Y-99443325D01*
X145997833Y-99487696D01*
X145964181Y-99522615D01*
X145940115Y-99547562D01*
X145926134Y-99562019D01*
X145923112Y-99565121D01*
X145885875Y-99602947D01*
X145683545Y-99439738D01*
X145587632Y-99362693D01*
X145501703Y-99294419D01*
X145423879Y-99233511D01*
X145352286Y-99178565D01*
X145285047Y-99128176D01*
X145220286Y-99080939D01*
X145156127Y-99035450D01*
X145090692Y-98990304D01*
X145022107Y-98944097D01*
X145016342Y-98940255D01*
X144810050Y-98808558D01*
X144600171Y-98685597D01*
X144388559Y-98572286D01*
X144177069Y-98469539D01*
X143967556Y-98378270D01*
X143761875Y-98299394D01*
X143617819Y-98250985D01*
X143362799Y-98178747D01*
X143101639Y-98120867D01*
X142834368Y-98077348D01*
X142561018Y-98048193D01*
X142281617Y-98033406D01*
X141996197Y-98032988D01*
X141704788Y-98046943D01*
X141563005Y-98058728D01*
X141321717Y-98088453D01*
X141079357Y-98131932D01*
X140838376Y-98188506D01*
X140601224Y-98257515D01*
X140370350Y-98338300D01*
X140148205Y-98430200D01*
X140098071Y-98453088D01*
X140060386Y-98470595D01*
X140021003Y-98488864D01*
X139986660Y-98504769D01*
X139976970Y-98509249D01*
X139868968Y-98562187D01*
X139752213Y-98624974D01*
X139628805Y-98696216D01*
X139500846Y-98774520D01*
X139370435Y-98858493D01*
X139239675Y-98946742D01*
X139110666Y-99037875D01*
X138985508Y-99130498D01*
X138866304Y-99223219D01*
X138755152Y-99314645D01*
X138730799Y-99335471D01*
X138698238Y-99363542D01*
X138657696Y-99398503D01*
X138613025Y-99437032D01*
X138568072Y-99475811D01*
X138537527Y-99502165D01*
X138501095Y-99532984D01*
X138467898Y-99559911D01*
X138440004Y-99581361D01*
X138419481Y-99595746D01*
X138408400Y-99601480D01*
X138407958Y-99601518D01*
X138395222Y-99594965D01*
X138377759Y-99576892D01*
X138363273Y-99557584D01*
X138340311Y-99528922D01*
X138305110Y-99491677D01*
X138258169Y-99446315D01*
X138199987Y-99393302D01*
X138131065Y-99333104D01*
X138051900Y-99266188D01*
X138047132Y-99262216D01*
X137815044Y-99077900D01*
X137579897Y-98908816D01*
X137341403Y-98754820D01*
X137099271Y-98615764D01*
X136853211Y-98491503D01*
X136602935Y-98381891D01*
X136348152Y-98286783D01*
X136088572Y-98206031D01*
X135823906Y-98139491D01*
X135813698Y-98137230D01*
X135572902Y-98090965D01*
X135324140Y-98056227D01*
X135070149Y-98033155D01*
X134813666Y-98021889D01*
X134557426Y-98022570D01*
X134304165Y-98035338D01*
X134132860Y-98051237D01*
X133862343Y-98089074D01*
X133594729Y-98142223D01*
X133330234Y-98210602D01*
X133069074Y-98294128D01*
X132811467Y-98392720D01*
X132557630Y-98506296D01*
X132307779Y-98634773D01*
X132062131Y-98778069D01*
X131855377Y-98912430D01*
X131793555Y-98954985D01*
X131734892Y-98996361D01*
X131677000Y-99038345D01*
X131617489Y-99082728D01*
X131553970Y-99131298D01*
X131484055Y-99185843D01*
X131405354Y-99248154D01*
X131378785Y-99269339D01*
X131301144Y-99331209D01*
X131229613Y-99387970D01*
X131165123Y-99438892D01*
X131108608Y-99483243D01*
X131061000Y-99520293D01*
X131023232Y-99549311D01*
X130996237Y-99569567D01*
X130987567Y-99575830D01*
X130963560Y-99592796D01*
X130385968Y-98986450D01*
X130234042Y-98826954D01*
X130092300Y-98678131D01*
X129960142Y-98539351D01*
X129836966Y-98409978D01*
X129722171Y-98289380D01*
X129615157Y-98176925D01*
X129515324Y-98071978D01*
X129422070Y-97973906D01*
X129334794Y-97882078D01*
X129252896Y-97795858D01*
X129175774Y-97714615D01*
X129102829Y-97637716D01*
X129033460Y-97564526D01*
X128967065Y-97494414D01*
X128903043Y-97426745D01*
X128840795Y-97360887D01*
X128779719Y-97296206D01*
X128719214Y-97232070D01*
X128658680Y-97167846D01*
X128597516Y-97102900D01*
X128535121Y-97036598D01*
X128474802Y-96972463D01*
X128782257Y-96972463D01*
X128970604Y-97171688D01*
X129159790Y-97371682D01*
X129340416Y-97562380D01*
X129514545Y-97745948D01*
X129684236Y-97924554D01*
X129851549Y-98100364D01*
X130018544Y-98275546D01*
X130187283Y-98452265D01*
X130359826Y-98632688D01*
X130363097Y-98636106D01*
X130438249Y-98714641D01*
X130511321Y-98791022D01*
X130581459Y-98864354D01*
X130647808Y-98933742D01*
X130709513Y-98998292D01*
X130765719Y-99057109D01*
X130815572Y-99109299D01*
X130858217Y-99153967D01*
X130892798Y-99190219D01*
X130918462Y-99217160D01*
X130934352Y-99233896D01*
X130936359Y-99236021D01*
X130962455Y-99263165D01*
X130980448Y-99280152D01*
X130992529Y-99288582D01*
X131000889Y-99290054D01*
X131006487Y-99287204D01*
X131016837Y-99278628D01*
X131036454Y-99262057D01*
X131062753Y-99239687D01*
X131093151Y-99213709D01*
X131101235Y-99206782D01*
X131342534Y-99009017D01*
X131587415Y-98826443D01*
X131835971Y-98659017D01*
X132088298Y-98506697D01*
X132344488Y-98369442D01*
X132604636Y-98247210D01*
X132868836Y-98139960D01*
X133137181Y-98047649D01*
X133409766Y-97970236D01*
X133686685Y-97907678D01*
X133968031Y-97859936D01*
X134195364Y-97832479D01*
X134484916Y-97810925D01*
X134770611Y-97804343D01*
X135052607Y-97812776D01*
X135331060Y-97836266D01*
X135606126Y-97874856D01*
X135877963Y-97928589D01*
X136146728Y-97997509D01*
X136412576Y-98081658D01*
X136675665Y-98181079D01*
X136936151Y-98295814D01*
X137194192Y-98425908D01*
X137449943Y-98571403D01*
X137703562Y-98732342D01*
X137851839Y-98834259D01*
X137941692Y-98899158D01*
X138036864Y-98970371D01*
X138133508Y-99044896D01*
X138227775Y-99119729D01*
X138315817Y-99191866D01*
X138381910Y-99247977D01*
X138439296Y-99297670D01*
X138461281Y-99279662D01*
X138473885Y-99269199D01*
X138496236Y-99250506D01*
X138526137Y-99225425D01*
X138561391Y-99195799D01*
X138599800Y-99163472D01*
X138607033Y-99157379D01*
X138740693Y-99048380D01*
X138883664Y-98938421D01*
X139032236Y-98830135D01*
X139182695Y-98726149D01*
X139331329Y-98629096D01*
X139474426Y-98541603D01*
X139484752Y-98535546D01*
X139607057Y-98466854D01*
X139739567Y-98397532D01*
X139878583Y-98329284D01*
X140020405Y-98263815D01*
X140161334Y-98202829D01*
X140297671Y-98148029D01*
X140425716Y-98101120D01*
X140434029Y-98098259D01*
X140706360Y-98013105D01*
X140981333Y-97943333D01*
X141259033Y-97888929D01*
X141539547Y-97849881D01*
X141822959Y-97826176D01*
X142109355Y-97817802D01*
X142313263Y-97821111D01*
X142590362Y-97837796D01*
X142862998Y-97868518D01*
X143131699Y-97913446D01*
X143396990Y-97972749D01*
X143659399Y-98046596D01*
X143919451Y-98135156D01*
X144177675Y-98238599D01*
X144434596Y-98357094D01*
X144690742Y-98490811D01*
X144946638Y-98639917D01*
X145036725Y-98696079D01*
X145212380Y-98811308D01*
X145385933Y-98933144D01*
X145560798Y-99064053D01*
X145713279Y-99184512D01*
X145851587Y-99296258D01*
X145940537Y-99204733D01*
X145958819Y-99185816D01*
X145986979Y-99156537D01*
X146024110Y-99117842D01*
X146069309Y-99070676D01*
X146121668Y-99015988D01*
X146180284Y-98954722D01*
X146244249Y-98887825D01*
X146312660Y-98816244D01*
X146384610Y-98740926D01*
X146459195Y-98662816D01*
X146535508Y-98582861D01*
X146555040Y-98562391D01*
X146647948Y-98465030D01*
X146730923Y-98378109D01*
X146804813Y-98300756D01*
X146870461Y-98232096D01*
X146928713Y-98171256D01*
X146980415Y-98117362D01*
X147026411Y-98069541D01*
X147067547Y-98026918D01*
X147104668Y-97988621D01*
X147138620Y-97953774D01*
X147170248Y-97921505D01*
X147200397Y-97890940D01*
X147229912Y-97861205D01*
X147259639Y-97831426D01*
X147290422Y-97800729D01*
X147323108Y-97768242D01*
X147329027Y-97762367D01*
X147361297Y-97730041D01*
X147389334Y-97701385D01*
X147411389Y-97678235D01*
X147425709Y-97662428D01*
X147430553Y-97655875D01*
X147435831Y-97648969D01*
X147450665Y-97632594D01*
X147473557Y-97608325D01*
X147503008Y-97577739D01*
X147537520Y-97542409D01*
X147565327Y-97514245D01*
X147604739Y-97474347D01*
X147652403Y-97425844D01*
X147705730Y-97371383D01*
X147762132Y-97313615D01*
X147819020Y-97255187D01*
X147873807Y-97198750D01*
X147897591Y-97174187D01*
X148095080Y-96970030D01*
X148065743Y-96945848D01*
X148047431Y-96931721D01*
X148033882Y-96923010D01*
X148030222Y-96921665D01*
X148022139Y-96916840D01*
X148005030Y-96903774D01*
X147981568Y-96884579D01*
X147959732Y-96865979D01*
X147931898Y-96842319D01*
X147895334Y-96811882D01*
X147853575Y-96777577D01*
X147810157Y-96742311D01*
X147778231Y-96716662D01*
X147741302Y-96686863D01*
X147708488Y-96659827D01*
X147681805Y-96637260D01*
X147663270Y-96620868D01*
X147654898Y-96612359D01*
X147654788Y-96612182D01*
X147642899Y-96602470D01*
X147637209Y-96601333D01*
X147627057Y-96597434D01*
X147625878Y-96594334D01*
X147620259Y-96586939D01*
X147604861Y-96571571D01*
X147581874Y-96550302D01*
X147553489Y-96525203D01*
X147545795Y-96518563D01*
X147431163Y-96417368D01*
X147328376Y-96320507D01*
X147235186Y-96225552D01*
X147149349Y-96130080D01*
X147068619Y-96031664D01*
X146990751Y-95927881D01*
X146964116Y-95890352D01*
X146855025Y-95721649D01*
X146757314Y-95543908D01*
X146671703Y-95358970D01*
X146598916Y-95168679D01*
X146539673Y-94974879D01*
X146494695Y-94779411D01*
X146470188Y-94628556D01*
X146449009Y-94410366D01*
X146443083Y-94192459D01*
X146452204Y-93975644D01*
X146476166Y-93760728D01*
X146514764Y-93548519D01*
X146567792Y-93339825D01*
X146635044Y-93135452D01*
X146716313Y-92936210D01*
X146811395Y-92742905D01*
X146920083Y-92556346D01*
X147042171Y-92377340D01*
X147044917Y-92373613D01*
X147065245Y-92345561D01*
X147081551Y-92322089D01*
X147091901Y-92306041D01*
X147094595Y-92300514D01*
X147100128Y-92292134D01*
X147113503Y-92279853D01*
X147114128Y-92279359D01*
X147127779Y-92266307D01*
X147133655Y-92256102D01*
X147133660Y-92255920D01*
X147139256Y-92245875D01*
X147152761Y-92232822D01*
X147153193Y-92232481D01*
X147166876Y-92219068D01*
X147172722Y-92208079D01*
X147172725Y-92207918D01*
X147178377Y-92197825D01*
X147192612Y-92183201D01*
X147200071Y-92176900D01*
X147216628Y-92162114D01*
X147226346Y-92150391D01*
X147227416Y-92147418D01*
X147232743Y-92139961D01*
X147247565Y-92123381D01*
X147270143Y-92099415D01*
X147298737Y-92069802D01*
X147331608Y-92036279D01*
X147367018Y-92000585D01*
X147403226Y-91964456D01*
X147438494Y-91929632D01*
X147471083Y-91897850D01*
X147499253Y-91870847D01*
X147521265Y-91850362D01*
X147535380Y-91838133D01*
X147539651Y-91835415D01*
X147548370Y-91829792D01*
X147562589Y-91815414D01*
X147572126Y-91804163D01*
X147588266Y-91786272D01*
X147601855Y-91774963D01*
X147606959Y-91772911D01*
X147617866Y-91767379D01*
X147632713Y-91753666D01*
X147636398Y-91749472D01*
X147650856Y-91734446D01*
X147662095Y-91726439D01*
X147663871Y-91726033D01*
X147673679Y-91720446D01*
X147686623Y-91706960D01*
X147686986Y-91706501D01*
X147699236Y-91692921D01*
X147707703Y-91686979D01*
X147707895Y-91686968D01*
X147715825Y-91682352D01*
X147733251Y-91669796D01*
X147757566Y-91651244D01*
X147784900Y-91629648D01*
X147819149Y-91602475D01*
X147854620Y-91574831D01*
X147886349Y-91550562D01*
X147903395Y-91537845D01*
X147929479Y-91518291D01*
X147962842Y-91492667D01*
X147998618Y-91464732D01*
X148023371Y-91445116D01*
X148096312Y-91386869D01*
X147999795Y-91292763D01*
X147979732Y-91273150D01*
X147949524Y-91243548D01*
X147910163Y-91204930D01*
X147862637Y-91158270D01*
X147807938Y-91104540D01*
X147747057Y-91044715D01*
X147680984Y-90979767D01*
X147610709Y-90910670D01*
X147537223Y-90838397D01*
X147461516Y-90763921D01*
X147395158Y-90698626D01*
X147316621Y-90621379D01*
X147233936Y-90540123D01*
X147147872Y-90455610D01*
X147059196Y-90368592D01*
X146968677Y-90279818D01*
X146877083Y-90190041D01*
X146785182Y-90100011D01*
X146693742Y-90010480D01*
X146603532Y-89922198D01*
X146515321Y-89835916D01*
X146429875Y-89752386D01*
X146347964Y-89672358D01*
X146270356Y-89596584D01*
X146197819Y-89525815D01*
X146131120Y-89460801D01*
X146071030Y-89402294D01*
X146018315Y-89351044D01*
X145973744Y-89307804D01*
X145938085Y-89273323D01*
X145912107Y-89248353D01*
X145897495Y-89234499D01*
X145873135Y-89212841D01*
X145856040Y-89200867D01*
X145842958Y-89196703D01*
X145833535Y-89197651D01*
X145821048Y-89204312D01*
X145799475Y-89219441D01*
X145771386Y-89241095D01*
X145739347Y-89267333D01*
X145723102Y-89281173D01*
X145501848Y-89461979D01*
X145269877Y-89631924D01*
X145028161Y-89790517D01*
X144777671Y-89937267D01*
X144519378Y-90071684D01*
X144254254Y-90193276D01*
X143983270Y-90301555D01*
X143707397Y-90396028D01*
X143427608Y-90476206D01*
X143289674Y-90510057D01*
X143083043Y-90553231D01*
X142876069Y-90586733D01*
X142665712Y-90610896D01*
X142448930Y-90626051D01*
X142222682Y-90632530D01*
X142164604Y-90632833D01*
X141939180Y-90629105D01*
X141722655Y-90617226D01*
X141510992Y-90596715D01*
X141300151Y-90567088D01*
X141086094Y-90527860D01*
X140864784Y-90478549D01*
X140853694Y-90475868D01*
X140799123Y-90462159D01*
X140739700Y-90446410D01*
X140677290Y-90429193D01*
X140613759Y-90411077D01*
X140550975Y-90392634D01*
X140490803Y-90374433D01*
X140435110Y-90357044D01*
X140385761Y-90341039D01*
X140344622Y-90326988D01*
X140313560Y-90315460D01*
X140294441Y-90307027D01*
X140289197Y-90303325D01*
X140279743Y-90298138D01*
X140260022Y-90291871D01*
X140244273Y-90288071D01*
X140221589Y-90281984D01*
X140206803Y-90275670D01*
X140203546Y-90272172D01*
X140196856Y-90266784D01*
X140184014Y-90265006D01*
X140169326Y-90262671D01*
X140164481Y-90258192D01*
X140157580Y-90252829D01*
X140140331Y-90247694D01*
X140133229Y-90246380D01*
X140113691Y-90241549D01*
X140102793Y-90235543D01*
X140101978Y-90233662D01*
X140095308Y-90227797D01*
X140083003Y-90225941D01*
X140063184Y-90221263D01*
X140052309Y-90214222D01*
X140036859Y-90204485D01*
X140027754Y-90202502D01*
X140011873Y-90197285D01*
X140003199Y-90190783D01*
X139986273Y-90181430D01*
X139972505Y-90179063D01*
X139958085Y-90176755D01*
X139953531Y-90172504D01*
X139946989Y-90164713D01*
X139931500Y-90156070D01*
X139913272Y-90149541D01*
X139901821Y-90147811D01*
X139886776Y-90142634D01*
X139878191Y-90136092D01*
X139861151Y-90126631D01*
X139848056Y-90124372D01*
X139829080Y-90120233D01*
X139819315Y-90114170D01*
X139809740Y-90107918D01*
X139788229Y-90095691D01*
X139756789Y-90078572D01*
X139717428Y-90057640D01*
X139672152Y-90033977D01*
X139633199Y-90013899D01*
X139451541Y-89917339D01*
X139279109Y-89818224D01*
X139112554Y-89714374D01*
X138948524Y-89603609D01*
X138783670Y-89483750D01*
X138614642Y-89352616D01*
X138604409Y-89344433D01*
X138549938Y-89301442D01*
X138505691Y-89268120D01*
X138470283Y-89243680D01*
X138442329Y-89227332D01*
X138420441Y-89218289D01*
X138403236Y-89215760D01*
X138389328Y-89218959D01*
X138386492Y-89220398D01*
X138375858Y-89228107D01*
X138355885Y-89244133D01*
X138328982Y-89266485D01*
X138297559Y-89293176D01*
X138279920Y-89308379D01*
X138112265Y-89446322D01*
X137930888Y-89581842D01*
X137737642Y-89713788D01*
X137534379Y-89841007D01*
X137322953Y-89962349D01*
X137105216Y-90076661D01*
X136883020Y-90182791D01*
X136848977Y-90198133D01*
X136615763Y-90295588D01*
X136374428Y-90383382D01*
X136128043Y-90460616D01*
X135879678Y-90526395D01*
X135632403Y-90579821D01*
X135418096Y-90615914D01*
X135346714Y-90626046D01*
X135283011Y-90634477D01*
X135224497Y-90641359D01*
X135168679Y-90646845D01*
X135113067Y-90651088D01*
X135055170Y-90654240D01*
X134992497Y-90656455D01*
X134922555Y-90657885D01*
X134842855Y-90658682D01*
X134750905Y-90659000D01*
X134714927Y-90659026D01*
X134622423Y-90658910D01*
X134543591Y-90658479D01*
X134476478Y-90657678D01*
X134419132Y-90656451D01*
X134369601Y-90654743D01*
X134325933Y-90652497D01*
X134286175Y-90649659D01*
X134248375Y-90646171D01*
X134242242Y-90645535D01*
X133992433Y-90614201D01*
X133748919Y-90573579D01*
X133514771Y-90524203D01*
X133444432Y-90507169D01*
X133381338Y-90491071D01*
X133320896Y-90475036D01*
X133265024Y-90459626D01*
X133215640Y-90445400D01*
X133174663Y-90432918D01*
X133144010Y-90422740D01*
X133125602Y-90415425D01*
X133121470Y-90412906D01*
X133108109Y-90406911D01*
X133097470Y-90405640D01*
X133080597Y-90403223D01*
X133057128Y-90397132D01*
X133032378Y-90389108D01*
X133011659Y-90380892D01*
X133000287Y-90374222D01*
X132999842Y-90373667D01*
X132990886Y-90368976D01*
X132970626Y-90361817D01*
X132942916Y-90353510D01*
X132933568Y-90350949D01*
X132904351Y-90342541D01*
X132881409Y-90334855D01*
X132868596Y-90329219D01*
X132867294Y-90328111D01*
X132857619Y-90322817D01*
X132838818Y-90317532D01*
X132833952Y-90316563D01*
X132815165Y-90311362D01*
X132805158Y-90305188D01*
X132804654Y-90303717D01*
X132797965Y-90298109D01*
X132785121Y-90296258D01*
X132770438Y-90293583D01*
X132765589Y-90288445D01*
X132758903Y-90282572D01*
X132746056Y-90280632D01*
X132731373Y-90277957D01*
X132726524Y-90272819D01*
X132719838Y-90266946D01*
X132706991Y-90265006D01*
X132692308Y-90262331D01*
X132687459Y-90257193D01*
X132680773Y-90251320D01*
X132667926Y-90249380D01*
X132653238Y-90247060D01*
X132648394Y-90242609D01*
X132641731Y-90236078D01*
X132624894Y-90226859D01*
X132602612Y-90216966D01*
X132579611Y-90208413D01*
X132560620Y-90203215D01*
X132554247Y-90202502D01*
X132541080Y-90199405D01*
X132537710Y-90196085D01*
X132530231Y-90190977D01*
X132510669Y-90180141D01*
X132481030Y-90164617D01*
X132443315Y-90145445D01*
X132399530Y-90123661D01*
X132372361Y-90110347D01*
X132147263Y-89995118D01*
X131930725Y-89872748D01*
X131720067Y-89741517D01*
X131512606Y-89599703D01*
X131305662Y-89445582D01*
X131171741Y-89339278D01*
X131124842Y-89301503D01*
X131087984Y-89272908D01*
X131059311Y-89252540D01*
X131036966Y-89239448D01*
X131019095Y-89232680D01*
X131003839Y-89231284D01*
X130989345Y-89234309D01*
X130976868Y-89239354D01*
X130967932Y-89246036D01*
X130949594Y-89262251D01*
X130921737Y-89288115D01*
X130884244Y-89323742D01*
X130836997Y-89369249D01*
X130779879Y-89424750D01*
X130712772Y-89490361D01*
X130635558Y-89566197D01*
X130548121Y-89652374D01*
X130450342Y-89749006D01*
X130342105Y-89856209D01*
X130223291Y-89974099D01*
X130093783Y-90102790D01*
X129953464Y-90242398D01*
X129865695Y-90329796D01*
X128784875Y-91406367D01*
X128820034Y-91428341D01*
X128841029Y-91443180D01*
X128868991Y-91465274D01*
X128899567Y-91491107D01*
X128917696Y-91507248D01*
X128940398Y-91527676D01*
X128972639Y-91556336D01*
X129012147Y-91591228D01*
X129056652Y-91630351D01*
X129103884Y-91671705D01*
X129151571Y-91713289D01*
X129151779Y-91713471D01*
X129239231Y-91789965D01*
X129316010Y-91858119D01*
X129383595Y-91919418D01*
X129443462Y-91975349D01*
X129497086Y-92027400D01*
X129545946Y-92077058D01*
X129591516Y-92125810D01*
X129635275Y-92175143D01*
X129678697Y-92226543D01*
X129723261Y-92281498D01*
X129752334Y-92318292D01*
X129791555Y-92370085D01*
X129835539Y-92431123D01*
X129881907Y-92497865D01*
X129928281Y-92566774D01*
X129972280Y-92634308D01*
X130011525Y-92696929D01*
X130043638Y-92751097D01*
X130045694Y-92754722D01*
X130141884Y-92940248D01*
X130224381Y-93131678D01*
X130292787Y-93327750D01*
X130346702Y-93527198D01*
X130385730Y-93728759D01*
X130406836Y-93900111D01*
X130409867Y-93946793D01*
X130411796Y-94005393D01*
X130412683Y-94072827D01*
X130412584Y-94146015D01*
X130411559Y-94221873D01*
X130409665Y-94297318D01*
X130406961Y-94369270D01*
X130403505Y-94434645D01*
X130399356Y-94490361D01*
X130394914Y-94530893D01*
X130364105Y-94718607D01*
X130323871Y-94904572D01*
X130274967Y-95086265D01*
X130218147Y-95261161D01*
X130154166Y-95426735D01*
X130083779Y-95580464D01*
X130077244Y-95593459D01*
X129998039Y-95738218D01*
X129908643Y-95879672D01*
X129808344Y-96018631D01*
X129696429Y-96155907D01*
X129572187Y-96292310D01*
X129434906Y-96428650D01*
X129283873Y-96565738D01*
X129118378Y-96704384D01*
X129062113Y-96749320D01*
X129025767Y-96778307D01*
X128993573Y-96804504D01*
X128967603Y-96826186D01*
X128949925Y-96841627D01*
X128942700Y-96848936D01*
X128932098Y-96858172D01*
X128927784Y-96859162D01*
X128916843Y-96863832D01*
X128897447Y-96876171D01*
X128872995Y-96893669D01*
X128846888Y-96913814D01*
X128822526Y-96934097D01*
X128807005Y-96948319D01*
X128782257Y-96972463D01*
X128474802Y-96972463D01*
X128470895Y-96968309D01*
X128470374Y-96967755D01*
X128429229Y-96923995D01*
X128571893Y-96823572D01*
X128679432Y-96747213D01*
X128775636Y-96677402D01*
X128862516Y-96612559D01*
X128942082Y-96551108D01*
X129016346Y-96491468D01*
X129087319Y-96432061D01*
X129157013Y-96371309D01*
X129217298Y-96316928D01*
X129379693Y-96159026D01*
X129527391Y-95995877D01*
X129660456Y-95827363D01*
X129778951Y-95653369D01*
X129882938Y-95473778D01*
X129972480Y-95288475D01*
X130047640Y-95097343D01*
X130108482Y-94900267D01*
X130155067Y-94697129D01*
X130181137Y-94537434D01*
X130188373Y-94470698D01*
X130193800Y-94392787D01*
X130197397Y-94307316D01*
X130199148Y-94217904D01*
X130199032Y-94128167D01*
X130197031Y-94041722D01*
X130193126Y-93962187D01*
X130187299Y-93893179D01*
X130184607Y-93870697D01*
X130148650Y-93656393D01*
X130098207Y-93447930D01*
X130033337Y-93245441D01*
X129954103Y-93049065D01*
X129860564Y-92858936D01*
X129752782Y-92675191D01*
X129630817Y-92497964D01*
X129494731Y-92327394D01*
X129491831Y-92324011D01*
X129413457Y-92235540D01*
X129331481Y-92148773D01*
X129244526Y-92062476D01*
X129151213Y-91975412D01*
X129050168Y-91886349D01*
X128940011Y-91794050D01*
X128819366Y-91697282D01*
X128686856Y-91594808D01*
X128633642Y-91554520D01*
X128474597Y-91434739D01*
X128754744Y-91155951D01*
X128790936Y-91119924D01*
X128837408Y-91073648D01*
X128893374Y-91017906D01*
X128958049Y-90953480D01*
X129030647Y-90881154D01*
X129110381Y-90801711D01*
X129196466Y-90715933D01*
X129288117Y-90624605D01*
X129384547Y-90528508D01*
X129484971Y-90428426D01*
X129588603Y-90325142D01*
X129694656Y-90219439D01*
X129802346Y-90112100D01*
X129910886Y-90003909D01*
X130019491Y-89895647D01*
X130020869Y-89894273D01*
X131006848Y-88911383D01*
X131037678Y-88937764D01*
X131093943Y-88985762D01*
X131150274Y-89033543D01*
X131204722Y-89079475D01*
X131255340Y-89121923D01*
X131300178Y-89159255D01*
X131337287Y-89189836D01*
X131364720Y-89212033D01*
X131367065Y-89213894D01*
X131408888Y-89246952D01*
X131442105Y-89273023D01*
X131470305Y-89294820D01*
X131497076Y-89315058D01*
X131526005Y-89336453D01*
X131560680Y-89361718D01*
X131601455Y-89391230D01*
X131844840Y-89559005D01*
X132089713Y-89711412D01*
X132336679Y-89848682D01*
X132586342Y-89971047D01*
X132839308Y-90078739D01*
X133096181Y-90171990D01*
X133357565Y-90251032D01*
X133624066Y-90316097D01*
X133896287Y-90367417D01*
X134174834Y-90405224D01*
X134269588Y-90414900D01*
X134311429Y-90417883D01*
X134366463Y-90420363D01*
X134432264Y-90422342D01*
X134506405Y-90423818D01*
X134586461Y-90424791D01*
X134670006Y-90425263D01*
X134754615Y-90425232D01*
X134837862Y-90424699D01*
X134917321Y-90423663D01*
X134990566Y-90422125D01*
X135055172Y-90420085D01*
X135108712Y-90417543D01*
X135144641Y-90414900D01*
X135428224Y-90381194D01*
X135704501Y-90333895D01*
X135974341Y-90272727D01*
X136238611Y-90197415D01*
X136498179Y-90107684D01*
X136753914Y-90003259D01*
X137006682Y-89883864D01*
X137257352Y-89749224D01*
X137274863Y-89739210D01*
X137451304Y-89633228D01*
X137631466Y-89516124D01*
X137811896Y-89390427D01*
X137989137Y-89258666D01*
X138159736Y-89123370D01*
X138320238Y-88987069D01*
X138399217Y-88916033D01*
X138419220Y-88897654D01*
X138625794Y-89070979D01*
X138706044Y-89137915D01*
X138777088Y-89196212D01*
X138841323Y-89247700D01*
X138901143Y-89294210D01*
X138958944Y-89337571D01*
X139017122Y-89379612D01*
X139078071Y-89422165D01*
X139144187Y-89467059D01*
X139144887Y-89467529D01*
X139372105Y-89613352D01*
X139598983Y-89745215D01*
X139828132Y-89864506D01*
X140062161Y-89972610D01*
X140217262Y-90037187D01*
X140470525Y-90131310D01*
X140724847Y-90211622D01*
X140982042Y-90278540D01*
X141243924Y-90332479D01*
X141512309Y-90373854D01*
X141789012Y-90403082D01*
X141828646Y-90406238D01*
X141883842Y-90409525D01*
X141951392Y-90412048D01*
X142028043Y-90413808D01*
X142110544Y-90414804D01*
X142195641Y-90415036D01*
X142280081Y-90414504D01*
X142360612Y-90413208D01*
X142433980Y-90411147D01*
X142496934Y-90408321D01*
X142527908Y-90406292D01*
X142804007Y-90377818D01*
X143076225Y-90334729D01*
X143344872Y-90276915D01*
X143610256Y-90204267D01*
X143872684Y-90116673D01*
X144132467Y-90014023D01*
X144389911Y-89896208D01*
X144645325Y-89763117D01*
X144899019Y-89614640D01*
X145094472Y-89489031D01*
X145148611Y-89451961D01*
X145205108Y-89411367D01*
X145265647Y-89365952D01*
X145331913Y-89314418D01*
X145405592Y-89255468D01*
X145488368Y-89187802D01*
X145527238Y-89155653D01*
X145572556Y-89118128D01*
X145614957Y-89083150D01*
X145652661Y-89052177D01*
X145683889Y-89026667D01*
X145706860Y-89008076D01*
X145719797Y-88997863D01*
X145720533Y-88997312D01*
X145734680Y-88984265D01*
X145755078Y-88962207D01*
X145778599Y-88934625D01*
X145794812Y-88914456D01*
X145846827Y-88848061D01*
X145866048Y-88870944D01*
G37*
G36*
X138454147Y-89827302D02*
G01*
X138474266Y-89840948D01*
X138503186Y-89861447D01*
X138539087Y-89887496D01*
X138580152Y-89917792D01*
X138617511Y-89945722D01*
X138872144Y-90127942D01*
X139131804Y-90295378D01*
X139396585Y-90448072D01*
X139666584Y-90586067D01*
X139941894Y-90709407D01*
X140222611Y-90818134D01*
X140508830Y-90912291D01*
X140800647Y-90991921D01*
X141065844Y-91050747D01*
X141114982Y-91059929D01*
X141162494Y-91067784D01*
X141204791Y-91073793D01*
X141238282Y-91077436D01*
X141256345Y-91078298D01*
X141281639Y-91079043D01*
X141299286Y-91081538D01*
X141305177Y-91084841D01*
X141312422Y-91091795D01*
X141331916Y-91097475D01*
X141360291Y-91101219D01*
X141394181Y-91102366D01*
X141394351Y-91102365D01*
X141415422Y-91103081D01*
X141448480Y-91105339D01*
X141489996Y-91108848D01*
X141536440Y-91113314D01*
X141570818Y-91116945D01*
X141623731Y-91122479D01*
X141679137Y-91127802D01*
X141731913Y-91132451D01*
X141776935Y-91135966D01*
X141795441Y-91137184D01*
X141830379Y-91139649D01*
X141858733Y-91142389D01*
X141877391Y-91145053D01*
X141883320Y-91147094D01*
X141890567Y-91148830D01*
X141910123Y-91149771D01*
X141938687Y-91149823D01*
X141961450Y-91149307D01*
X141994233Y-91148862D01*
X142020247Y-91149636D01*
X142036189Y-91151463D01*
X142039593Y-91153214D01*
X142047063Y-91154925D01*
X142068108Y-91156463D01*
X142100675Y-91157762D01*
X142142714Y-91158760D01*
X142192173Y-91159391D01*
X142242723Y-91159592D01*
X142297219Y-91159377D01*
X142346191Y-91158770D01*
X142387589Y-91157830D01*
X142419360Y-91156617D01*
X142439454Y-91155191D01*
X142445864Y-91153733D01*
X142453010Y-91150807D01*
X142471768Y-91148707D01*
X142498126Y-91147874D01*
X142499001Y-91147873D01*
X142572244Y-91145969D01*
X142658026Y-91140488D01*
X142753758Y-91131772D01*
X142856852Y-91120164D01*
X142964721Y-91106009D01*
X143074776Y-91089650D01*
X143184430Y-91071429D01*
X143291095Y-91051690D01*
X143392183Y-91030777D01*
X143408122Y-91027243D01*
X143678740Y-90958815D01*
X143948581Y-90875053D01*
X144217046Y-90776245D01*
X144483533Y-90662682D01*
X144747444Y-90534654D01*
X145008178Y-90392451D01*
X145265134Y-90236363D01*
X145517712Y-90066679D01*
X145748510Y-89896653D01*
X145790229Y-89865924D01*
X145821600Y-89846014D01*
X145843274Y-89836646D01*
X145855903Y-89837540D01*
X145860140Y-89848419D01*
X145860144Y-89848950D01*
X145865585Y-89856097D01*
X145881514Y-89873663D01*
X145907339Y-89901045D01*
X145942472Y-89937643D01*
X145986320Y-89982856D01*
X146038293Y-90036081D01*
X146097802Y-90096717D01*
X146164254Y-90164162D01*
X146237059Y-90237816D01*
X146315627Y-90317077D01*
X146399367Y-90401343D01*
X146487689Y-90490012D01*
X146580001Y-90582485D01*
X146607425Y-90609919D01*
X146726558Y-90729155D01*
X146834714Y-90837613D01*
X146932061Y-90935465D01*
X147018769Y-91022884D01*
X147095006Y-91100044D01*
X147160942Y-91167115D01*
X147216745Y-91224273D01*
X147262586Y-91271688D01*
X147298632Y-91309534D01*
X147325053Y-91337983D01*
X147342017Y-91357209D01*
X147349695Y-91367384D01*
X147350188Y-91369006D01*
X147341332Y-91378509D01*
X147322576Y-91391881D01*
X147299250Y-91405523D01*
X147281293Y-91416559D01*
X147259800Y-91432735D01*
X147233453Y-91455244D01*
X147200933Y-91485276D01*
X147160924Y-91524021D01*
X147112108Y-91572670D01*
X147093129Y-91591822D01*
X147024346Y-91661872D01*
X146964710Y-91723750D01*
X146911962Y-91779964D01*
X146863840Y-91833020D01*
X146818085Y-91885427D01*
X146772438Y-91939691D01*
X146724637Y-91998319D01*
X146708029Y-92019020D01*
X146584364Y-92181356D01*
X146474385Y-92342472D01*
X146376639Y-92505025D01*
X146289677Y-92671675D01*
X146212047Y-92845081D01*
X146142296Y-93027900D01*
X146117316Y-93101118D01*
X146069341Y-93253416D01*
X146029638Y-93396424D01*
X145997586Y-93533703D01*
X145972562Y-93668810D01*
X145953947Y-93805306D01*
X145941118Y-93946751D01*
X145933456Y-94096702D01*
X145931575Y-94165646D01*
X145930527Y-94225855D01*
X145929986Y-94280357D01*
X145929937Y-94327317D01*
X145930369Y-94364903D01*
X145931267Y-94391282D01*
X145932618Y-94404621D01*
X145933296Y-94405895D01*
X145936122Y-94413029D01*
X145937354Y-94431868D01*
X145936771Y-94458549D01*
X145936542Y-94462530D01*
X145936067Y-94495909D01*
X145937724Y-94537843D01*
X145941173Y-94581458D01*
X145943396Y-94601210D01*
X145976978Y-94806589D01*
X146025752Y-95012275D01*
X146089324Y-95217461D01*
X146167298Y-95421339D01*
X146259282Y-95623101D01*
X146364881Y-95821938D01*
X146483700Y-96017042D01*
X146615345Y-96207605D01*
X146759422Y-96392819D01*
X146892482Y-96546670D01*
X146941393Y-96600176D01*
X146986932Y-96649226D01*
X147027999Y-96692687D01*
X147063496Y-96729428D01*
X147092324Y-96758317D01*
X147113384Y-96778222D01*
X147125577Y-96788012D01*
X147127656Y-96788845D01*
X147135488Y-96794122D01*
X147152052Y-96808632D01*
X147175200Y-96830388D01*
X147202785Y-96857404D01*
X147214404Y-96869061D01*
X147245611Y-96900019D01*
X147275645Y-96928818D01*
X147301528Y-96952668D01*
X147320286Y-96968782D01*
X147323566Y-96971314D01*
X147340645Y-96986337D01*
X147350149Y-96999381D01*
X147350911Y-97003785D01*
X147345201Y-97011311D01*
X147329700Y-97029018D01*
X147305430Y-97055804D01*
X147273411Y-97090570D01*
X147234666Y-97132213D01*
X147190215Y-97179632D01*
X147141080Y-97231728D01*
X147088282Y-97287398D01*
X147070717Y-97305853D01*
X147012259Y-97367275D01*
X146953250Y-97429373D01*
X146895321Y-97490424D01*
X146840103Y-97548705D01*
X146789227Y-97602493D01*
X146744325Y-97650066D01*
X146707028Y-97689700D01*
X146680068Y-97718491D01*
X146646945Y-97753933D01*
X146605349Y-97798326D01*
X146557539Y-97849263D01*
X146505776Y-97904339D01*
X146452321Y-97961148D01*
X146399434Y-98017285D01*
X146367988Y-98050626D01*
X146315260Y-98106624D01*
X146259440Y-98166115D01*
X146203032Y-98226419D01*
X146148540Y-98284852D01*
X146098467Y-98338732D01*
X146055317Y-98385375D01*
X146036137Y-98406216D01*
X145998858Y-98446629D01*
X145964248Y-98483790D01*
X145933960Y-98515951D01*
X145909647Y-98541365D01*
X145892964Y-98558284D01*
X145886458Y-98564345D01*
X145862323Y-98574875D01*
X145830717Y-98578017D01*
X145814844Y-98577408D01*
X145800382Y-98574674D01*
X145784600Y-98568455D01*
X145764770Y-98557392D01*
X145738159Y-98540127D01*
X145702039Y-98515298D01*
X145695222Y-98510552D01*
X145511515Y-98384745D01*
X145336694Y-98269713D01*
X145169203Y-98164612D01*
X145007483Y-98068595D01*
X144849977Y-97980817D01*
X144695125Y-97900431D01*
X144541371Y-97826592D01*
X144387156Y-97758454D01*
X144230921Y-97695171D01*
X144109392Y-97649628D01*
X143831278Y-97556777D01*
X143550383Y-97478843D01*
X143266339Y-97415783D01*
X142978777Y-97367551D01*
X142687331Y-97334103D01*
X142391630Y-97315395D01*
X142091308Y-97311382D01*
X141785996Y-97322019D01*
X141547379Y-97340156D01*
X141259305Y-97374896D01*
X140974053Y-97424952D01*
X140691859Y-97490233D01*
X140412958Y-97570643D01*
X140137585Y-97666091D01*
X139865975Y-97776482D01*
X139598363Y-97901723D01*
X139334986Y-98041721D01*
X139076077Y-98196383D01*
X138821873Y-98365615D01*
X138651393Y-98489289D01*
X138595520Y-98530435D01*
X138549653Y-98562122D01*
X138511971Y-98585107D01*
X138480656Y-98600148D01*
X138453889Y-98608002D01*
X138429852Y-98609426D01*
X138406725Y-98605178D01*
X138388731Y-98598660D01*
X138374938Y-98590926D01*
X138350908Y-98575443D01*
X138318947Y-98553780D01*
X138281360Y-98527507D01*
X138240454Y-98498194D01*
X138230090Y-98490656D01*
X137983633Y-98317936D01*
X137738189Y-98160244D01*
X137492859Y-98017097D01*
X137246741Y-97888016D01*
X136998932Y-97772520D01*
X136748533Y-97670127D01*
X136573633Y-97606815D01*
X136328023Y-97529733D01*
X136073123Y-97463600D01*
X135811043Y-97408676D01*
X135543888Y-97365219D01*
X135273765Y-97333486D01*
X135002783Y-97313736D01*
X134733047Y-97306228D01*
X134466665Y-97311220D01*
X134264678Y-97323783D01*
X133972638Y-97355261D01*
X133685137Y-97401481D01*
X133401742Y-97462568D01*
X133122018Y-97538644D01*
X132845530Y-97629831D01*
X132571846Y-97736253D01*
X132300529Y-97858032D01*
X132200839Y-97906915D01*
X132146429Y-97934339D01*
X132095638Y-97960287D01*
X132047370Y-97985419D01*
X132000529Y-98010397D01*
X131954019Y-98035880D01*
X131906742Y-98062529D01*
X131857603Y-98091005D01*
X131805504Y-98121969D01*
X131749350Y-98156082D01*
X131688045Y-98194003D01*
X131620491Y-98236394D01*
X131545592Y-98283916D01*
X131462252Y-98337228D01*
X131369375Y-98396992D01*
X131265863Y-98463868D01*
X131150622Y-98538517D01*
X131124211Y-98555643D01*
X131091741Y-98576094D01*
X131063196Y-98592951D01*
X131041515Y-98604554D01*
X131029641Y-98609243D01*
X131029209Y-98609269D01*
X131021301Y-98603776D01*
X131003902Y-98588099D01*
X130978222Y-98563440D01*
X130945471Y-98531003D01*
X130906859Y-98491991D01*
X130863594Y-98447607D01*
X130816888Y-98399054D01*
X130799378Y-98380697D01*
X130732355Y-98310239D01*
X130671789Y-98246495D01*
X130616360Y-98188052D01*
X130564751Y-98133498D01*
X130515642Y-98081423D01*
X130467715Y-98030414D01*
X130419651Y-97979061D01*
X130370131Y-97925952D01*
X130317836Y-97869675D01*
X130261448Y-97808818D01*
X130199647Y-97741971D01*
X130131116Y-97667722D01*
X130054535Y-97584660D01*
X129976729Y-97500212D01*
X129950551Y-97471901D01*
X129915770Y-97434447D01*
X129874481Y-97390099D01*
X129828779Y-97341102D01*
X129780760Y-97289705D01*
X129732518Y-97238155D01*
X129712667Y-97216969D01*
X129669678Y-97170800D01*
X129630319Y-97127931D01*
X129595830Y-97089760D01*
X129567449Y-97057683D01*
X129546415Y-97033096D01*
X129533969Y-97017395D01*
X129531015Y-97012285D01*
X129536621Y-97003611D01*
X129552090Y-96986816D01*
X129575396Y-96963922D01*
X129604516Y-96936950D01*
X129622817Y-96920633D01*
X129676883Y-96871772D01*
X129737289Y-96814951D01*
X129801220Y-96752986D01*
X129865861Y-96688691D01*
X129928399Y-96624883D01*
X129986019Y-96564377D01*
X130035907Y-96509988D01*
X130055269Y-96488045D01*
X130208720Y-96300825D01*
X130347066Y-96109774D01*
X130381919Y-96054641D01*
X133875337Y-96054641D01*
X134126153Y-96052579D01*
X134376969Y-96050518D01*
X134603021Y-95441106D01*
X134637667Y-95347830D01*
X134670841Y-95258758D01*
X134702131Y-95174981D01*
X134731127Y-95097589D01*
X134757417Y-95027673D01*
X134780589Y-94966324D01*
X134800231Y-94914633D01*
X134815932Y-94873691D01*
X134827280Y-94844588D01*
X134833864Y-94828416D01*
X134835341Y-94825388D01*
X134839622Y-94830545D01*
X134848141Y-94848486D01*
X134860082Y-94877206D01*
X134874627Y-94914704D01*
X134890961Y-94958976D01*
X134899056Y-94981647D01*
X134912392Y-95019368D01*
X134930262Y-95069882D01*
X134951981Y-95131257D01*
X134976864Y-95201557D01*
X135004225Y-95278848D01*
X135033382Y-95361195D01*
X135063647Y-95446665D01*
X135094338Y-95533322D01*
X135117022Y-95597365D01*
X135277541Y-96050518D01*
X135742691Y-96054658D01*
X135738090Y-96036962D01*
X135735225Y-96027457D01*
X135727959Y-96003935D01*
X135716572Y-95967292D01*
X135701343Y-95918419D01*
X135682552Y-95858209D01*
X135660477Y-95787557D01*
X135635398Y-95707354D01*
X135607595Y-95618494D01*
X135577346Y-95521870D01*
X135544931Y-95418375D01*
X135510629Y-95308903D01*
X135474720Y-95194346D01*
X135437482Y-95075597D01*
X135427146Y-95042644D01*
X135185748Y-94273065D01*
X136300962Y-94273065D01*
X136300971Y-94432783D01*
X136301003Y-94577651D01*
X136301066Y-94708442D01*
X136301170Y-94825933D01*
X136301323Y-94930898D01*
X136301533Y-95024112D01*
X136301809Y-95106351D01*
X136302160Y-95178389D01*
X136302594Y-95241002D01*
X136303120Y-95294964D01*
X136303747Y-95341052D01*
X136304482Y-95380038D01*
X136305335Y-95412700D01*
X136306314Y-95439811D01*
X136307428Y-95462148D01*
X136308686Y-95480484D01*
X136310095Y-95495596D01*
X136311665Y-95508257D01*
X136313405Y-95519244D01*
X136314864Y-95527048D01*
X136332455Y-95603283D01*
X136353648Y-95673817D01*
X136377413Y-95735771D01*
X136402716Y-95786266D01*
X136414278Y-95804409D01*
X136419557Y-95812859D01*
X136422102Y-95821518D01*
X136421358Y-95833168D01*
X136416773Y-95850588D01*
X136407791Y-95876558D01*
X136393860Y-95913860D01*
X136390930Y-95921604D01*
X136376697Y-95959426D01*
X136364117Y-95993253D01*
X136354425Y-96019732D01*
X136348859Y-96035512D01*
X136348425Y-96036845D01*
X136342881Y-96054425D01*
X136583657Y-96054305D01*
X136643754Y-96054084D01*
X136698989Y-96053516D01*
X136747376Y-96052651D01*
X136786931Y-96051536D01*
X136815668Y-96050222D01*
X136831601Y-96048757D01*
X136834001Y-96048106D01*
X136843268Y-96035834D01*
X136846103Y-96026740D01*
X136851952Y-96007509D01*
X136857978Y-95994464D01*
X136866583Y-95975077D01*
X136870075Y-95963212D01*
X136875030Y-95945842D01*
X136882611Y-95925510D01*
X136890022Y-95906837D01*
X136894290Y-95894394D01*
X136894324Y-95894259D01*
X136898497Y-95882031D01*
X136905877Y-95863406D01*
X136906044Y-95863007D01*
X136913458Y-95844334D01*
X136917729Y-95831891D01*
X136917763Y-95831755D01*
X136921936Y-95819527D01*
X136929316Y-95800903D01*
X136929483Y-95800503D01*
X136937194Y-95780355D01*
X136941805Y-95765344D01*
X136944689Y-95754969D01*
X136945533Y-95753625D01*
X136947950Y-95747339D01*
X136949262Y-95741905D01*
X136953980Y-95726591D01*
X136961584Y-95706747D01*
X136968999Y-95688074D01*
X136973269Y-95675631D01*
X136973304Y-95675495D01*
X136977477Y-95663267D01*
X136984856Y-95644643D01*
X136985023Y-95644243D01*
X136992455Y-95625568D01*
X136996764Y-95613126D01*
X136996799Y-95612991D01*
X137001377Y-95598473D01*
X137010909Y-95571077D01*
X137024977Y-95531908D01*
X137043161Y-95482075D01*
X137065041Y-95422685D01*
X137090197Y-95354844D01*
X137118211Y-95279661D01*
X137148661Y-95198242D01*
X137181130Y-95111694D01*
X137215197Y-95021125D01*
X137250443Y-94927642D01*
X137286448Y-94832351D01*
X137322792Y-94736361D01*
X137359057Y-94640778D01*
X137394821Y-94546710D01*
X137429667Y-94455264D01*
X137463174Y-94367546D01*
X137494922Y-94284665D01*
X137524493Y-94207727D01*
X137551466Y-94137839D01*
X137575422Y-94076109D01*
X137595942Y-94023644D01*
X137612605Y-93981551D01*
X137624992Y-93950938D01*
X137632685Y-93932911D01*
X137635219Y-93928312D01*
X137636142Y-93936900D01*
X137636968Y-93959946D01*
X137637690Y-93996285D01*
X137638301Y-94044748D01*
X137638795Y-94104168D01*
X137639163Y-94173380D01*
X137639400Y-94251215D01*
X137639498Y-94336507D01*
X137639450Y-94428089D01*
X137639250Y-94524794D01*
X137639077Y-94578423D01*
X137638654Y-94698715D01*
X137638253Y-94804410D01*
X137637791Y-94896536D01*
X137637181Y-94976122D01*
X137636337Y-95044195D01*
X137635175Y-95101785D01*
X137633609Y-95149919D01*
X137631554Y-95189627D01*
X137628923Y-95221936D01*
X137625632Y-95247874D01*
X137621595Y-95268471D01*
X137616726Y-95284754D01*
X137610941Y-95297752D01*
X137604153Y-95308494D01*
X137596278Y-95318007D01*
X137587229Y-95327320D01*
X137576921Y-95337461D01*
X137575914Y-95338464D01*
X137551311Y-95359537D01*
X137524049Y-95374804D01*
X137490850Y-95385325D01*
X137448439Y-95392163D01*
X137397822Y-95396149D01*
X137322294Y-95400311D01*
X137214929Y-95690256D01*
X137190681Y-95755687D01*
X137167592Y-95817891D01*
X137146350Y-95875024D01*
X137127641Y-95925245D01*
X137112151Y-95966710D01*
X137100567Y-95997575D01*
X137093577Y-96015999D01*
X137092785Y-96018043D01*
X137078006Y-96055886D01*
X137365307Y-96052518D01*
X137441025Y-96051574D01*
X137502959Y-96050620D01*
X137552952Y-96049550D01*
X137592846Y-96048256D01*
X137624483Y-96046631D01*
X137649707Y-96044568D01*
X137670358Y-96041960D01*
X137688280Y-96038700D01*
X137705314Y-96034679D01*
X137714659Y-96032191D01*
X137803255Y-96000835D01*
X137881634Y-95957934D01*
X137949873Y-95903383D01*
X138008051Y-95837078D01*
X138056244Y-95758916D01*
X138094531Y-95668791D01*
X138122989Y-95566600D01*
X138140678Y-95460843D01*
X138141909Y-95442565D01*
X138143044Y-95408927D01*
X138144082Y-95360193D01*
X138145020Y-95296630D01*
X138145856Y-95218501D01*
X138146590Y-95126073D01*
X138147198Y-95023111D01*
X138789397Y-95023111D01*
X138789419Y-95208669D01*
X138789967Y-95291618D01*
X138791761Y-95361805D01*
X138795054Y-95422064D01*
X138800101Y-95475226D01*
X138807156Y-95524125D01*
X138816475Y-95571593D01*
X138825385Y-95609085D01*
X138856883Y-95705735D01*
X138899580Y-95791539D01*
X138953190Y-95866250D01*
X139017431Y-95929620D01*
X139092018Y-95981402D01*
X139176666Y-96021346D01*
X139271093Y-96049207D01*
X139344573Y-96061597D01*
X139364676Y-96063039D01*
X139398468Y-96064293D01*
X139444010Y-96065335D01*
X139499367Y-96066139D01*
X139562600Y-96066682D01*
X139631773Y-96066939D01*
X139704948Y-96066886D01*
X139750393Y-96066692D01*
X139833896Y-96066187D01*
X139903395Y-96065645D01*
X139960514Y-96064992D01*
X140006876Y-96064154D01*
X140044103Y-96063057D01*
X140073819Y-96061629D01*
X140097646Y-96059795D01*
X140117208Y-96057483D01*
X140134126Y-96054617D01*
X140150024Y-96051125D01*
X140162453Y-96048000D01*
X140254044Y-96016791D01*
X140336242Y-95973197D01*
X140409146Y-95917124D01*
X140472860Y-95848480D01*
X140527484Y-95767170D01*
X140573120Y-95673102D01*
X140575039Y-95668381D01*
X140598167Y-95606522D01*
X140616865Y-95545582D01*
X140631464Y-95483154D01*
X140642294Y-95416832D01*
X140649682Y-95344209D01*
X140653960Y-95262880D01*
X140655457Y-95170437D01*
X140654854Y-95085615D01*
X140653459Y-95011133D01*
X140651448Y-94949755D01*
X140648384Y-94898962D01*
X140643830Y-94856231D01*
X140637349Y-94819044D01*
X140628503Y-94784878D01*
X140616856Y-94751214D01*
X140601970Y-94715531D01*
X140583878Y-94676298D01*
X140533638Y-94583121D01*
X140473009Y-94494452D01*
X140401073Y-94409364D01*
X140316911Y-94326931D01*
X140219602Y-94246226D01*
X140108229Y-94166324D01*
X140024125Y-94112058D01*
X139904316Y-94035967D01*
X139798293Y-93964801D01*
X139705263Y-93897856D01*
X139624435Y-93834432D01*
X139555016Y-93773828D01*
X139496213Y-93715341D01*
X139447235Y-93658270D01*
X139407288Y-93601913D01*
X139375582Y-93545569D01*
X139369215Y-93532199D01*
X139360727Y-93512217D01*
X139354778Y-93493056D01*
X139350795Y-93471028D01*
X139348205Y-93442448D01*
X139346434Y-93403628D01*
X139345735Y-93381263D01*
X139342658Y-93274666D01*
X139371341Y-93242917D01*
X139387282Y-93226335D01*
X139403299Y-93212904D01*
X139421211Y-93202276D01*
X139442839Y-93194102D01*
X139470001Y-93188034D01*
X139504516Y-93183723D01*
X139548206Y-93180820D01*
X139602888Y-93178977D01*
X139670382Y-93177845D01*
X139713287Y-93177402D01*
X139783847Y-93176848D01*
X139840680Y-93176799D01*
X139885685Y-93177566D01*
X139920759Y-93179457D01*
X139947800Y-93182783D01*
X139968708Y-93187852D01*
X139985378Y-93194974D01*
X139999711Y-93204459D01*
X140013603Y-93216616D01*
X140025516Y-93228314D01*
X140059701Y-93272971D01*
X140085909Y-93330666D01*
X140104196Y-93401560D01*
X140114614Y-93485813D01*
X140115146Y-93493720D01*
X140119964Y-93569897D01*
X140664512Y-93569897D01*
X140664490Y-93380432D01*
X140663337Y-93277850D01*
X140659669Y-93188592D01*
X140655619Y-93140183D01*
X140653137Y-93110510D01*
X140643390Y-93041451D01*
X140630078Y-92979267D01*
X140612851Y-92921806D01*
X140591358Y-92866919D01*
X140575193Y-92832128D01*
X140526930Y-92748973D01*
X140469756Y-92678415D01*
X140402961Y-92619862D01*
X140325831Y-92572719D01*
X140237654Y-92536393D01*
X140210223Y-92527886D01*
X140176452Y-92518746D01*
X140142756Y-92511189D01*
X140107360Y-92505100D01*
X140068493Y-92500367D01*
X140024381Y-92496875D01*
X139973251Y-92494512D01*
X139913331Y-92493163D01*
X139842846Y-92492717D01*
X139760026Y-92493058D01*
X139678680Y-92493883D01*
X139599479Y-92494901D01*
X139534114Y-92495931D01*
X139480794Y-92497069D01*
X139437729Y-92498408D01*
X139403128Y-92500042D01*
X139375202Y-92502068D01*
X139352159Y-92504578D01*
X139332210Y-92507667D01*
X139313565Y-92511431D01*
X139303864Y-92513668D01*
X139204946Y-92544002D01*
X139117090Y-92585354D01*
X139040148Y-92637852D01*
X138973972Y-92701628D01*
X138918415Y-92776810D01*
X138873330Y-92863530D01*
X138855650Y-92908491D01*
X138842645Y-92945763D01*
X138831880Y-92979468D01*
X138823144Y-93011580D01*
X138816229Y-93044072D01*
X138810923Y-93078919D01*
X138807018Y-93118093D01*
X138804304Y-93163568D01*
X138802572Y-93217318D01*
X138801610Y-93281317D01*
X138801211Y-93357539D01*
X138801154Y-93421450D01*
X138801191Y-93722250D01*
X138822682Y-93790880D01*
X138858583Y-93888543D01*
X138903394Y-93978861D01*
X138958837Y-94064584D01*
X139026632Y-94148461D01*
X139085756Y-94210946D01*
X139134667Y-94258191D01*
X139183244Y-94301518D01*
X139234045Y-94342860D01*
X139289627Y-94384151D01*
X139352546Y-94427322D01*
X139425361Y-94474307D01*
X139475595Y-94505583D01*
X139601654Y-94584974D01*
X139713254Y-94658941D01*
X139810544Y-94727605D01*
X139893674Y-94791086D01*
X139962793Y-94849505D01*
X140018050Y-94902983D01*
X140059596Y-94951641D01*
X140087580Y-94995599D01*
X140090905Y-95002410D01*
X140098013Y-95018776D01*
X140103058Y-95034464D01*
X140106386Y-95052550D01*
X140108345Y-95076114D01*
X140109282Y-95108233D01*
X140109544Y-95151985D01*
X140109543Y-95167651D01*
X140108622Y-95228713D01*
X140105376Y-95276462D01*
X140098918Y-95313144D01*
X140088363Y-95341004D01*
X140072827Y-95362290D01*
X140051423Y-95379248D01*
X140023268Y-95394123D01*
X140019655Y-95395758D01*
X140009037Y-95399776D01*
X139995864Y-95403007D01*
X139978301Y-95405564D01*
X139954512Y-95407559D01*
X139922663Y-95409107D01*
X139880918Y-95410319D01*
X139827441Y-95411308D01*
X139760399Y-95412189D01*
X139751172Y-95412295D01*
X139676896Y-95413011D01*
X139616462Y-95413109D01*
X139568090Y-95412293D01*
X139530000Y-95410268D01*
X139500413Y-95406740D01*
X139477548Y-95401412D01*
X139459624Y-95393990D01*
X139444863Y-95384179D01*
X139431483Y-95371682D01*
X139418487Y-95357121D01*
X139394376Y-95322933D01*
X139375094Y-95281466D01*
X139360057Y-95230716D01*
X139348681Y-95168680D01*
X139340381Y-95093355D01*
X139339903Y-95087568D01*
X139334679Y-95023111D01*
X138789397Y-95023111D01*
X138147198Y-95023111D01*
X138147219Y-95019610D01*
X138147742Y-94899377D01*
X138148156Y-94765640D01*
X138148460Y-94618664D01*
X138148652Y-94458715D01*
X138148730Y-94286056D01*
X138148732Y-94253151D01*
X138148728Y-94097079D01*
X138148709Y-93955827D01*
X138148663Y-93828588D01*
X138148581Y-93714557D01*
X138148453Y-93612926D01*
X138148266Y-93522891D01*
X138148012Y-93443643D01*
X138147680Y-93374378D01*
X138147258Y-93314289D01*
X138146737Y-93262569D01*
X138146106Y-93218413D01*
X138145354Y-93181014D01*
X138144472Y-93149566D01*
X138143447Y-93123263D01*
X138142271Y-93101298D01*
X138140933Y-93082865D01*
X138139421Y-93067159D01*
X138137725Y-93053372D01*
X138135836Y-93040698D01*
X138133742Y-93028331D01*
X138132685Y-93022401D01*
X138122921Y-92975120D01*
X138110071Y-92922491D01*
X138096223Y-92872778D01*
X138089331Y-92850855D01*
X138062025Y-92768571D01*
X138117098Y-92623268D01*
X138133933Y-92578619D01*
X138148690Y-92539036D01*
X138160529Y-92506807D01*
X138168611Y-92484222D01*
X138168719Y-92483892D01*
X141234860Y-92483892D01*
X141234860Y-93140183D01*
X141922402Y-93140183D01*
X141922402Y-96054425D01*
X142430246Y-96054425D01*
X143779311Y-96054425D01*
X145657007Y-96054425D01*
X145657007Y-95398134D01*
X144305361Y-95398134D01*
X144305361Y-92483892D01*
X143789704Y-92483892D01*
X143789700Y-93419497D01*
X143789647Y-93561684D01*
X143789492Y-93714742D01*
X143789243Y-93876112D01*
X143788908Y-94043237D01*
X143788495Y-94213560D01*
X143788010Y-94384522D01*
X143787460Y-94553566D01*
X143786855Y-94718135D01*
X143786200Y-94875670D01*
X143785504Y-95023613D01*
X143784773Y-95159408D01*
X143784504Y-95204763D01*
X143779311Y-96054425D01*
X142430246Y-96054425D01*
X142430246Y-93140183D01*
X143109975Y-93140183D01*
X143109975Y-92483892D01*
X141234860Y-92483892D01*
X138168719Y-92483892D01*
X138172096Y-92473568D01*
X138172171Y-92473116D01*
X138164672Y-92471919D01*
X138143428Y-92470829D01*
X138110321Y-92469884D01*
X138067232Y-92469122D01*
X138016043Y-92468581D01*
X137958634Y-92468299D01*
X137930652Y-92468267D01*
X137689133Y-92468267D01*
X137669145Y-92521004D01*
X137663251Y-92536658D01*
X137652353Y-92565703D01*
X137636918Y-92606895D01*
X137617413Y-92658987D01*
X137594302Y-92720733D01*
X137568053Y-92790889D01*
X137539131Y-92868208D01*
X137508003Y-92951445D01*
X137475135Y-93039353D01*
X137440993Y-93130688D01*
X137434524Y-93147996D01*
X137367485Y-93327232D01*
X137303449Y-93498184D01*
X137242575Y-93660436D01*
X137185021Y-93813570D01*
X137130946Y-93957169D01*
X137080509Y-94090816D01*
X137033867Y-94214095D01*
X136991180Y-94326587D01*
X136952607Y-94427876D01*
X136918306Y-94517545D01*
X136888435Y-94595176D01*
X136863153Y-94660353D01*
X136842620Y-94712659D01*
X136826992Y-94751676D01*
X136816430Y-94776988D01*
X136811091Y-94788176D01*
X136810562Y-94788722D01*
X136809681Y-94781089D01*
X136808886Y-94758914D01*
X136808182Y-94723280D01*
X136807576Y-94675270D01*
X136807072Y-94615966D01*
X136806678Y-94546453D01*
X136806399Y-94467813D01*
X136806241Y-94381129D01*
X136806210Y-94287486D01*
X136806311Y-94187965D01*
X136806550Y-94083650D01*
X136806622Y-94060161D01*
X136808951Y-93331601D01*
X136826491Y-93279771D01*
X136850887Y-93227139D01*
X136884050Y-93187120D01*
X136925668Y-93160044D01*
X136946527Y-93152331D01*
X136978898Y-93145724D01*
X137023462Y-93141725D01*
X137081742Y-93140205D01*
X137090930Y-93140183D01*
X137194426Y-93140183D01*
X137211365Y-93095258D01*
X137218002Y-93077550D01*
X137229338Y-93047190D01*
X137244627Y-93006172D01*
X137263128Y-92956493D01*
X137284098Y-92900148D01*
X137306792Y-92839133D01*
X137328483Y-92780786D01*
X137351495Y-92718888D01*
X137372936Y-92661258D01*
X137392161Y-92609624D01*
X137408527Y-92565713D01*
X137421390Y-92531253D01*
X137430106Y-92507971D01*
X137434031Y-92497594D01*
X137434042Y-92497565D01*
X137434654Y-92494102D01*
X137432555Y-92491277D01*
X137426336Y-92489027D01*
X137414585Y-92487287D01*
X137395892Y-92485992D01*
X137368847Y-92485079D01*
X137332040Y-92484482D01*
X137284060Y-92484138D01*
X137223497Y-92483982D01*
X137148940Y-92483950D01*
X137135834Y-92483951D01*
X137061212Y-92484183D01*
X136991420Y-92484818D01*
X136928308Y-92485814D01*
X136873723Y-92487128D01*
X136829514Y-92488717D01*
X136797529Y-92490537D01*
X136781461Y-92492213D01*
X136690499Y-92513905D01*
X136608877Y-92548096D01*
X136536584Y-92594796D01*
X136473609Y-92654020D01*
X136419941Y-92725779D01*
X136375568Y-92810086D01*
X136340479Y-92906954D01*
X136315612Y-93011269D01*
X136313639Y-93022348D01*
X136311852Y-93034047D01*
X136310240Y-93047148D01*
X136308795Y-93062434D01*
X136307508Y-93080686D01*
X136306370Y-93102686D01*
X136305371Y-93129218D01*
X136304503Y-93161061D01*
X136303757Y-93199000D01*
X136303122Y-93243816D01*
X136302591Y-93296292D01*
X136302155Y-93357208D01*
X136301803Y-93427348D01*
X136301527Y-93507494D01*
X136301319Y-93598428D01*
X136301168Y-93700931D01*
X136301066Y-93815787D01*
X136301004Y-93943776D01*
X136300973Y-94085682D01*
X136300963Y-94242287D01*
X136300962Y-94273065D01*
X135185748Y-94273065D01*
X135120803Y-94066021D01*
X135419746Y-93269097D01*
X135459762Y-93162408D01*
X135498207Y-93059878D01*
X135534729Y-92962447D01*
X135568975Y-92871057D01*
X135600594Y-92786650D01*
X135629232Y-92710165D01*
X135654538Y-92642546D01*
X135676160Y-92584732D01*
X135693744Y-92537666D01*
X135706938Y-92502289D01*
X135715390Y-92479541D01*
X135718749Y-92470365D01*
X135718793Y-92470220D01*
X135711315Y-92469748D01*
X135690066Y-92469325D01*
X135656903Y-92468965D01*
X135613679Y-92468682D01*
X135562251Y-92468490D01*
X135504473Y-92468401D01*
X135470833Y-92468401D01*
X135222771Y-92468535D01*
X135047228Y-92941086D01*
X135016790Y-93022829D01*
X134987878Y-93100092D01*
X134960958Y-93171653D01*
X134936498Y-93236290D01*
X134914964Y-93292782D01*
X134896822Y-93339906D01*
X134882539Y-93376439D01*
X134872582Y-93401161D01*
X134867416Y-93412849D01*
X134866843Y-93413637D01*
X134863274Y-93406543D01*
X134854597Y-93386070D01*
X134841291Y-93353432D01*
X134823836Y-93309843D01*
X134802713Y-93256515D01*
X134778402Y-93194663D01*
X134751382Y-93125500D01*
X134722133Y-93050241D01*
X134691135Y-92970097D01*
X134679898Y-92940952D01*
X134497796Y-92468267D01*
X134032457Y-92468267D01*
X134085754Y-92626479D01*
X134096308Y-92657804D01*
X134111388Y-92702548D01*
X134130526Y-92759325D01*
X134153253Y-92826748D01*
X134179103Y-92903429D01*
X134207607Y-92987981D01*
X134238299Y-93079018D01*
X134270710Y-93175152D01*
X134304373Y-93274996D01*
X134338820Y-93377162D01*
X134366925Y-93460515D01*
X134400217Y-93559523D01*
X134431978Y-93654502D01*
X134461860Y-93744384D01*
X134489516Y-93828100D01*
X134514599Y-93904582D01*
X134536761Y-93972762D01*
X134555656Y-94031571D01*
X134570937Y-94079942D01*
X134582256Y-94116806D01*
X134589266Y-94141095D01*
X134591620Y-94151740D01*
X134591599Y-94151964D01*
X134588641Y-94160389D01*
X134580562Y-94182376D01*
X134567761Y-94216868D01*
X134550634Y-94262808D01*
X134529580Y-94319139D01*
X134504995Y-94384804D01*
X134477279Y-94458746D01*
X134446829Y-94539909D01*
X134414043Y-94627234D01*
X134379318Y-94719665D01*
X134343052Y-94816145D01*
X134305643Y-94915617D01*
X134267489Y-95017024D01*
X134228988Y-95119309D01*
X134190537Y-95221415D01*
X134152534Y-95322285D01*
X134115377Y-95420863D01*
X134079464Y-95516090D01*
X134045192Y-95606910D01*
X134012960Y-95692266D01*
X133983165Y-95771101D01*
X133956205Y-95842359D01*
X133932477Y-95904981D01*
X133912380Y-95957911D01*
X133896312Y-96000092D01*
X133884669Y-96030468D01*
X133883674Y-96033047D01*
X133875337Y-96054641D01*
X130381919Y-96054641D01*
X130382056Y-96054425D01*
X130470341Y-95914769D01*
X130578580Y-95715690D01*
X130671815Y-95512415D01*
X130750081Y-95304822D01*
X130813412Y-95092789D01*
X130861841Y-94876196D01*
X130895403Y-94654921D01*
X130914131Y-94428842D01*
X130918059Y-94197838D01*
X130907221Y-93961788D01*
X130881652Y-93720569D01*
X130862591Y-93593336D01*
X130817212Y-93364780D01*
X130757087Y-93140653D01*
X130682519Y-92921670D01*
X130593813Y-92708548D01*
X130491276Y-92502004D01*
X130485277Y-92491705D01*
X131663958Y-92491705D01*
X131663958Y-96054425D01*
X132234306Y-96054425D01*
X132234306Y-95335630D01*
X132234378Y-95228827D01*
X132234588Y-95127191D01*
X132234925Y-95031764D01*
X132235381Y-94943587D01*
X132235945Y-94863702D01*
X132236607Y-94793150D01*
X132237357Y-94732974D01*
X132238186Y-94684214D01*
X132239085Y-94647912D01*
X132240042Y-94625110D01*
X132241048Y-94616849D01*
X132241090Y-94616836D01*
X132245284Y-94623755D01*
X132255654Y-94643886D01*
X132271748Y-94676287D01*
X132293117Y-94720021D01*
X132319308Y-94774146D01*
X132349871Y-94837724D01*
X132384355Y-94909813D01*
X132422309Y-94989475D01*
X132463282Y-95075769D01*
X132506823Y-95167755D01*
X132552481Y-95264494D01*
X132585975Y-95335630D01*
X132924076Y-96054425D01*
X133216860Y-96054425D01*
X133292261Y-96054388D01*
X133353478Y-96054234D01*
X133401953Y-96053893D01*
X133439129Y-96053297D01*
X133466447Y-96052378D01*
X133485350Y-96051067D01*
X133497280Y-96049298D01*
X133503679Y-96047000D01*
X133505989Y-96044106D01*
X133505713Y-96040752D01*
X133502149Y-96032002D01*
X133492708Y-96009806D01*
X133477770Y-95975037D01*
X133457713Y-95928568D01*
X133432916Y-95871272D01*
X133403758Y-95804023D01*
X133370619Y-95727693D01*
X133333878Y-95643156D01*
X133293913Y-95551284D01*
X133251104Y-95452951D01*
X133205829Y-95349029D01*
X133158468Y-95240393D01*
X133109694Y-95128586D01*
X133060664Y-95016110D01*
X133013402Y-94907451D01*
X132968283Y-94803485D01*
X132925684Y-94705088D01*
X132885978Y-94613134D01*
X132849542Y-94528498D01*
X132816751Y-94452055D01*
X132787980Y-94384680D01*
X132763605Y-94327249D01*
X132744000Y-94280636D01*
X132729542Y-94245716D01*
X132720606Y-94223364D01*
X132717566Y-94214468D01*
X132720800Y-94205507D01*
X132730241Y-94183274D01*
X132745485Y-94148657D01*
X132766127Y-94102541D01*
X132791762Y-94045814D01*
X132821986Y-93979360D01*
X132856393Y-93904068D01*
X132894579Y-93820823D01*
X132936138Y-93730512D01*
X132980666Y-93634022D01*
X133027759Y-93532238D01*
X133077011Y-93426047D01*
X133112674Y-93349310D01*
X133163139Y-93240783D01*
X133211734Y-93136211D01*
X133258057Y-93036465D01*
X133301705Y-92942417D01*
X133342272Y-92854939D01*
X133379358Y-92774900D01*
X133412557Y-92703174D01*
X133441467Y-92640631D01*
X133465684Y-92588143D01*
X133484805Y-92546580D01*
X133498427Y-92516814D01*
X133506146Y-92499718D01*
X133507822Y-92495742D01*
X133500297Y-92494825D01*
X133478871Y-92493981D01*
X133445269Y-92493234D01*
X133401218Y-92492609D01*
X133348443Y-92492130D01*
X133288668Y-92491821D01*
X133223619Y-92491706D01*
X133220651Y-92491705D01*
X132933481Y-92491705D01*
X132594522Y-93134323D01*
X132545277Y-93227594D01*
X132497955Y-93317043D01*
X132453082Y-93401686D01*
X132411183Y-93480542D01*
X132372785Y-93552626D01*
X132338413Y-93616955D01*
X132308591Y-93672546D01*
X132283847Y-93718415D01*
X132264705Y-93753579D01*
X132251691Y-93777056D01*
X132245330Y-93787860D01*
X132244935Y-93788381D01*
X132243016Y-93788529D01*
X132241334Y-93783973D01*
X132239876Y-93773818D01*
X132238626Y-93757165D01*
X132237570Y-93733117D01*
X132236693Y-93700775D01*
X132235979Y-93659243D01*
X132235415Y-93607623D01*
X132234984Y-93545016D01*
X132234673Y-93470526D01*
X132234466Y-93383254D01*
X132234349Y-93282304D01*
X132234307Y-93166777D01*
X132234306Y-93145764D01*
X132234306Y-92491705D01*
X131663958Y-92491705D01*
X130485277Y-92491705D01*
X130375211Y-92302753D01*
X130245924Y-92111511D01*
X130212220Y-92065898D01*
X130117569Y-91946339D01*
X130012256Y-91824622D01*
X129900001Y-91704699D01*
X129784524Y-91590525D01*
X129669545Y-91486052D01*
X129654069Y-91472741D01*
X129620991Y-91443906D01*
X129592559Y-91418006D01*
X129570748Y-91396930D01*
X129557535Y-91382569D01*
X129554454Y-91377409D01*
X129559415Y-91370814D01*
X129574352Y-91354462D01*
X129599346Y-91328270D01*
X129634480Y-91292158D01*
X129679834Y-91246043D01*
X129735489Y-91189845D01*
X129801528Y-91123482D01*
X129878032Y-91046872D01*
X129965081Y-90959934D01*
X130062758Y-90862587D01*
X130171144Y-90754749D01*
X130290320Y-90636338D01*
X130420368Y-90507273D01*
X130561370Y-90367473D01*
X130713405Y-90216856D01*
X130795160Y-90135908D01*
X130860168Y-90071780D01*
X130915072Y-90018189D01*
X130960665Y-89974472D01*
X130997738Y-89939966D01*
X131027084Y-89914009D01*
X131049495Y-89895937D01*
X131065763Y-89885087D01*
X131076680Y-89880797D01*
X131083040Y-89882403D01*
X131085633Y-89889242D01*
X131085798Y-89892678D01*
X131092255Y-89900870D01*
X131110713Y-89916242D01*
X131139798Y-89937887D01*
X131178139Y-89964900D01*
X131224363Y-89996376D01*
X131277098Y-90031410D01*
X131334973Y-90069095D01*
X131396614Y-90108526D01*
X131460650Y-90148799D01*
X131525709Y-90189007D01*
X131590418Y-90228245D01*
X131630980Y-90252410D01*
X131892315Y-90400068D01*
X132155898Y-90535481D01*
X132420555Y-90658154D01*
X132685118Y-90767590D01*
X132948416Y-90863294D01*
X133209277Y-90944769D01*
X133363659Y-90986497D01*
X133453318Y-91008624D01*
X133541950Y-91029240D01*
X133627701Y-91047990D01*
X133708715Y-91064518D01*
X133783140Y-91078471D01*
X133849121Y-91089493D01*
X133904804Y-91097230D01*
X133948334Y-91101328D01*
X133966835Y-91101899D01*
X133994320Y-91102591D01*
X134014452Y-91104695D01*
X134023350Y-91107776D01*
X134023479Y-91108223D01*
X134029711Y-91113586D01*
X134048847Y-91118177D01*
X134081544Y-91122071D01*
X134128461Y-91125344D01*
X134190255Y-91128071D01*
X134199244Y-91128384D01*
X134238752Y-91130118D01*
X134272194Y-91132338D01*
X134296707Y-91134796D01*
X134309429Y-91137244D01*
X134310560Y-91138027D01*
X134318719Y-91140620D01*
X134338336Y-91141846D01*
X134365284Y-91141460D01*
X134367230Y-91141372D01*
X134394160Y-91140943D01*
X134413687Y-91142248D01*
X134421877Y-91145007D01*
X134421924Y-91145278D01*
X134429184Y-91147728D01*
X134448831Y-91149277D01*
X134477644Y-91149766D01*
X134503960Y-91149323D01*
X134537626Y-91148879D01*
X134564600Y-91149596D01*
X134581662Y-91151320D01*
X134586016Y-91153230D01*
X134593444Y-91155141D01*
X134614188Y-91156823D01*
X134645937Y-91158183D01*
X134686380Y-91159130D01*
X134733209Y-91159571D01*
X134746184Y-91159592D01*
X134794297Y-91159297D01*
X134836628Y-91158473D01*
X134870865Y-91157212D01*
X134894701Y-91155605D01*
X134905823Y-91153745D01*
X134906347Y-91153230D01*
X134913614Y-91150837D01*
X134933267Y-91149334D01*
X134962083Y-91148873D01*
X134988398Y-91149323D01*
X135022064Y-91149916D01*
X135049035Y-91149601D01*
X135066089Y-91148466D01*
X135070435Y-91147094D01*
X135077713Y-91144796D01*
X135097487Y-91142100D01*
X135126644Y-91139359D01*
X135158314Y-91137147D01*
X135332379Y-91122610D01*
X135516106Y-91099545D01*
X135706479Y-91068563D01*
X135900483Y-91030269D01*
X136095101Y-90985273D01*
X136287317Y-90934183D01*
X136474117Y-90877607D01*
X136519726Y-90862640D01*
X136770817Y-90771847D01*
X137023335Y-90666702D01*
X137275524Y-90548152D01*
X137525626Y-90417142D01*
X137771882Y-90274620D01*
X138012535Y-90121531D01*
X138245827Y-89958821D01*
X138366517Y-89868524D01*
X138396680Y-89846619D01*
X138421774Y-89830745D01*
X138439150Y-89822488D01*
X138444647Y-89821812D01*
X138454147Y-89827302D01*
G37*
D13*
X125620000Y-87630000D02*
X125620000Y-153780000D01*
X125620000Y-87630000D02*
X128380000Y-87630000D01*
X125620000Y-153780000D02*
X128380000Y-153780000D01*
X128380000Y-87630000D02*
X128380000Y-153780000D01*
X148480000Y-87630000D02*
X148480000Y-153780000D01*
X148480000Y-87630000D02*
X151240000Y-87630000D01*
X148480000Y-153780000D02*
X151240000Y-153780000D01*
X151240000Y-87630000D02*
X151240000Y-153780000D01*
%LPC*%
D15*
X137758249Y-116866979D03*
X137475406Y-117149821D03*
X137192562Y-117432665D03*
X136909720Y-117715507D03*
X136626878Y-117998350D03*
X136344034Y-118281193D03*
X136061193Y-118564034D03*
X135778350Y-118846878D03*
X135495507Y-119129720D03*
X135212665Y-119412562D03*
X134929821Y-119695406D03*
X134646979Y-119978249D03*
D16*
X134646979Y-121321751D03*
X134929821Y-121604594D03*
X135212665Y-121887438D03*
X135495507Y-122170280D03*
X135778350Y-122453122D03*
X136061193Y-122735966D03*
X136344034Y-123018807D03*
X136626878Y-123301650D03*
X136909720Y-123584493D03*
X137192562Y-123867335D03*
X137475406Y-124150179D03*
X137758249Y-124433021D03*
D15*
X139101751Y-124433021D03*
X139384594Y-124150179D03*
X139667438Y-123867335D03*
X139950280Y-123584493D03*
X140233122Y-123301650D03*
X140515966Y-123018807D03*
X140798807Y-122735966D03*
X141081650Y-122453122D03*
X141364493Y-122170280D03*
X141647335Y-121887438D03*
X141930179Y-121604594D03*
X142213021Y-121321751D03*
D16*
X142213021Y-119978249D03*
X141930179Y-119695406D03*
X141647335Y-119412562D03*
X141364493Y-119129720D03*
X141081650Y-118846878D03*
X140798807Y-118564034D03*
X140515966Y-118281193D03*
X140233122Y-117998350D03*
X139950280Y-117715507D03*
X139667438Y-117432665D03*
X139384594Y-117149821D03*
X139101751Y-116866979D03*
D17*
X138430000Y-120650000D03*
D18*
X127000000Y-88900000D03*
X127000000Y-91440000D03*
X127000000Y-93980000D03*
X127000000Y-96520000D03*
X127000000Y-99060000D03*
X127000000Y-101600000D03*
X127000000Y-104140000D03*
X127000000Y-106680000D03*
X127000000Y-109220000D03*
X127000000Y-111760000D03*
X127000000Y-114300000D03*
X127000000Y-116840000D03*
X127000000Y-119380000D03*
X127000000Y-121920000D03*
X127000000Y-124460000D03*
X127000000Y-127000000D03*
X127000000Y-129540000D03*
X127000000Y-132080000D03*
X127000000Y-134620000D03*
X127000000Y-137160000D03*
X127000000Y-139700000D03*
X127000000Y-142240000D03*
X127000000Y-144780000D03*
X127000000Y-147320000D03*
X127000000Y-149860000D03*
X127000000Y-152400000D03*
X149860000Y-88900000D03*
X149860000Y-91440000D03*
X149860000Y-93980000D03*
X149860000Y-96520000D03*
X149860000Y-99060000D03*
X149860000Y-101600000D03*
X149860000Y-104140000D03*
X149860000Y-106680000D03*
X149860000Y-109220000D03*
X149860000Y-111760000D03*
X149860000Y-114300000D03*
X149860000Y-116840000D03*
X149860000Y-119380000D03*
X149860000Y-121920000D03*
X149860000Y-124460000D03*
X149860000Y-127000000D03*
X149860000Y-129540000D03*
X149860000Y-132080000D03*
X149860000Y-134620000D03*
X149860000Y-137160000D03*
X149860000Y-139700000D03*
X149860000Y-142240000D03*
X149860000Y-144780000D03*
X149860000Y-147320000D03*
X149860000Y-149860000D03*
X149860000Y-152400000D03*
%LPD*%
M02*
