G04 #@! TF.GenerationSoftware,KiCad,Pcbnew,9.0.6*
G04 #@! TF.CreationDate,2026-01-08T20:47:40-06:00*
G04 #@! TF.ProjectId,QFN-48_5x5_P0.35,51464e2d-3438-45f3-9578-355f50302e33,rev?*
G04 #@! TF.SameCoordinates,Original*
G04 #@! TF.FileFunction,Paste,Top*
G04 #@! TF.FilePolarity,Positive*
%FSLAX46Y46*%
G04 Gerber Fmt 4.6, Leading zero omitted, Abs format (unit mm)*
G04 Created by KiCad (PCBNEW 9.0.6) date 2026-01-08 20:47:40*
%MOMM*%
%LPD*%
G01*
G04 APERTURE LIST*
G04 Aperture macros list*
%AMRoundRect*
0 Rectangle with rounded corners*
0 $1 Rounding radius*
0 $2 $3 $4 $5 $6 $7 $8 $9 X,Y pos of 4 corners*
0 Add a 4 corners polygon primitive as box body*
4,1,4,$2,$3,$4,$5,$6,$7,$8,$9,$2,$3,0*
0 Add four circle primitives for the rounded corners*
1,1,$1+$1,$2,$3*
1,1,$1+$1,$4,$5*
1,1,$1+$1,$6,$7*
1,1,$1+$1,$8,$9*
0 Add four rect primitives between the rounded corners*
20,1,$1+$1,$2,$3,$4,$5,0*
20,1,$1+$1,$4,$5,$6,$7,0*
20,1,$1+$1,$6,$7,$8,$9,0*
20,1,$1+$1,$8,$9,$2,$3,0*%
G04 Aperture macros list end*
%ADD10RoundRect,0.240000X-0.339411X0.000000X0.000000X-0.339411X0.339411X0.000000X0.000000X0.339411X0*%
%ADD11RoundRect,0.050000X-0.424264X0.353553X0.353553X-0.424264X0.424264X-0.353553X-0.353553X0.424264X0*%
%ADD12RoundRect,0.050000X-0.424264X-0.353553X-0.353553X-0.424264X0.424264X0.353553X0.353553X0.424264X0*%
G04 APERTURE END LIST*
D10*
X138430000Y-118910517D03*
X137560259Y-119780259D03*
X136690517Y-120650000D03*
X139299741Y-119780259D03*
X138430000Y-120650000D03*
X137560259Y-121519741D03*
X140169483Y-120650000D03*
X139299741Y-121519741D03*
X138430000Y-122389483D03*
D11*
X138164834Y-117167498D03*
X137917348Y-117414986D03*
X137669860Y-117662474D03*
X137422373Y-117909961D03*
X137174885Y-118157449D03*
X136927397Y-118404935D03*
X136679911Y-118652423D03*
X136432423Y-118899911D03*
X136184935Y-119147397D03*
X135937449Y-119394885D03*
X135689961Y-119642373D03*
X135442474Y-119889860D03*
X135194986Y-120137348D03*
X134947498Y-120384834D03*
D12*
X135442474Y-121410140D03*
X135689961Y-121657627D03*
X135937449Y-121905115D03*
X136184935Y-122152603D03*
X136432423Y-122400089D03*
X136679911Y-122647577D03*
X136927397Y-122895065D03*
X137174885Y-123142551D03*
X137422373Y-123390039D03*
X137669860Y-123637526D03*
D11*
X138695166Y-124132502D03*
X138942652Y-123885014D03*
X139190140Y-123637526D03*
X139437627Y-123390039D03*
X139685115Y-123142551D03*
X139932603Y-122895065D03*
X140180089Y-122647577D03*
X140427577Y-122400089D03*
X140675065Y-122152603D03*
X140922551Y-121905115D03*
X141170039Y-121657627D03*
X141417526Y-121410140D03*
X141665014Y-121162652D03*
X141912502Y-120915166D03*
D12*
X141417526Y-119889860D03*
X141170039Y-119642373D03*
X140922551Y-119394885D03*
X140675065Y-119147397D03*
X140427577Y-118899911D03*
X140180089Y-118652423D03*
X139932603Y-118404935D03*
X139685115Y-118157449D03*
X139437627Y-117909961D03*
X139190140Y-117662474D03*
M02*
