G04 #@! TF.GenerationSoftware,KiCad,Pcbnew,9.0.6*
G04 #@! TF.CreationDate,2026-01-05T14:24:44-06:00*
G04 #@! TF.ProjectId,SOIC-16_3.9x9.9_P1.27,534f4943-2d31-4365-9f33-2e3978392e39,rev?*
G04 #@! TF.SameCoordinates,Original*
G04 #@! TF.FileFunction,Legend,Bot*
G04 #@! TF.FilePolarity,Positive*
%FSLAX46Y46*%
G04 Gerber Fmt 4.6, Leading zero omitted, Abs format (unit mm)*
G04 Created by KiCad (PCBNEW 9.0.6) date 2026-01-05 14:24:44*
%MOMM*%
%LPD*%
G01*
G04 APERTURE LIST*
%ADD10C,0.150000*%
%ADD11C,0.120000*%
%ADD12R,2.510000X1.000000*%
%ADD13C,1.700000*%
%ADD14R,1.700000X1.700000*%
G04 APERTURE END LIST*
D10*
X130571714Y-86970819D02*
X130571714Y-87685104D01*
X130571714Y-87685104D02*
X130619333Y-87827961D01*
X130619333Y-87827961D02*
X130714571Y-87923200D01*
X130714571Y-87923200D02*
X130857428Y-87970819D01*
X130857428Y-87970819D02*
X130952666Y-87970819D01*
X129571714Y-87970819D02*
X130143142Y-87970819D01*
X129857428Y-87970819D02*
X129857428Y-86970819D01*
X129857428Y-86970819D02*
X129952666Y-87113676D01*
X129952666Y-87113676D02*
X130047904Y-87208914D01*
X130047904Y-87208914D02*
X130143142Y-87256533D01*
X128952666Y-86970819D02*
X128857428Y-86970819D01*
X128857428Y-86970819D02*
X128762190Y-87018438D01*
X128762190Y-87018438D02*
X128714571Y-87066057D01*
X128714571Y-87066057D02*
X128666952Y-87161295D01*
X128666952Y-87161295D02*
X128619333Y-87351771D01*
X128619333Y-87351771D02*
X128619333Y-87589866D01*
X128619333Y-87589866D02*
X128666952Y-87780342D01*
X128666952Y-87780342D02*
X128714571Y-87875580D01*
X128714571Y-87875580D02*
X128762190Y-87923200D01*
X128762190Y-87923200D02*
X128857428Y-87970819D01*
X128857428Y-87970819D02*
X128952666Y-87970819D01*
X128952666Y-87970819D02*
X129047904Y-87923200D01*
X129047904Y-87923200D02*
X129095523Y-87875580D01*
X129095523Y-87875580D02*
X129143142Y-87780342D01*
X129143142Y-87780342D02*
X129190761Y-87589866D01*
X129190761Y-87589866D02*
X129190761Y-87351771D01*
X129190761Y-87351771D02*
X129143142Y-87161295D01*
X129143142Y-87161295D02*
X129095523Y-87066057D01*
X129095523Y-87066057D02*
X129047904Y-87018438D01*
X129047904Y-87018438D02*
X128952666Y-86970819D01*
X127762190Y-87304152D02*
X127762190Y-87970819D01*
X128000285Y-86923200D02*
X128238380Y-87637485D01*
X128238380Y-87637485D02*
X127619333Y-87637485D01*
X125491714Y-86970819D02*
X125491714Y-87685104D01*
X125491714Y-87685104D02*
X125539333Y-87827961D01*
X125539333Y-87827961D02*
X125634571Y-87923200D01*
X125634571Y-87923200D02*
X125777428Y-87970819D01*
X125777428Y-87970819D02*
X125872666Y-87970819D01*
X124491714Y-87970819D02*
X125063142Y-87970819D01*
X124777428Y-87970819D02*
X124777428Y-86970819D01*
X124777428Y-86970819D02*
X124872666Y-87113676D01*
X124872666Y-87113676D02*
X124967904Y-87208914D01*
X124967904Y-87208914D02*
X125063142Y-87256533D01*
X123872666Y-86970819D02*
X123777428Y-86970819D01*
X123777428Y-86970819D02*
X123682190Y-87018438D01*
X123682190Y-87018438D02*
X123634571Y-87066057D01*
X123634571Y-87066057D02*
X123586952Y-87161295D01*
X123586952Y-87161295D02*
X123539333Y-87351771D01*
X123539333Y-87351771D02*
X123539333Y-87589866D01*
X123539333Y-87589866D02*
X123586952Y-87780342D01*
X123586952Y-87780342D02*
X123634571Y-87875580D01*
X123634571Y-87875580D02*
X123682190Y-87923200D01*
X123682190Y-87923200D02*
X123777428Y-87970819D01*
X123777428Y-87970819D02*
X123872666Y-87970819D01*
X123872666Y-87970819D02*
X123967904Y-87923200D01*
X123967904Y-87923200D02*
X124015523Y-87875580D01*
X124015523Y-87875580D02*
X124063142Y-87780342D01*
X124063142Y-87780342D02*
X124110761Y-87589866D01*
X124110761Y-87589866D02*
X124110761Y-87351771D01*
X124110761Y-87351771D02*
X124063142Y-87161295D01*
X124063142Y-87161295D02*
X124015523Y-87066057D01*
X124015523Y-87066057D02*
X123967904Y-87018438D01*
X123967904Y-87018438D02*
X123872666Y-86970819D01*
X123205999Y-86970819D02*
X122586952Y-86970819D01*
X122586952Y-86970819D02*
X122920285Y-87351771D01*
X122920285Y-87351771D02*
X122777428Y-87351771D01*
X122777428Y-87351771D02*
X122682190Y-87399390D01*
X122682190Y-87399390D02*
X122634571Y-87447009D01*
X122634571Y-87447009D02*
X122586952Y-87542247D01*
X122586952Y-87542247D02*
X122586952Y-87780342D01*
X122586952Y-87780342D02*
X122634571Y-87875580D01*
X122634571Y-87875580D02*
X122682190Y-87923200D01*
X122682190Y-87923200D02*
X122777428Y-87970819D01*
X122777428Y-87970819D02*
X123063142Y-87970819D01*
X123063142Y-87970819D02*
X123158380Y-87923200D01*
X123158380Y-87923200D02*
X123205999Y-87875580D01*
X135651714Y-86970819D02*
X135651714Y-87685104D01*
X135651714Y-87685104D02*
X135699333Y-87827961D01*
X135699333Y-87827961D02*
X135794571Y-87923200D01*
X135794571Y-87923200D02*
X135937428Y-87970819D01*
X135937428Y-87970819D02*
X136032666Y-87970819D01*
X134651714Y-87970819D02*
X135223142Y-87970819D01*
X134937428Y-87970819D02*
X134937428Y-86970819D01*
X134937428Y-86970819D02*
X135032666Y-87113676D01*
X135032666Y-87113676D02*
X135127904Y-87208914D01*
X135127904Y-87208914D02*
X135223142Y-87256533D01*
X134032666Y-86970819D02*
X133937428Y-86970819D01*
X133937428Y-86970819D02*
X133842190Y-87018438D01*
X133842190Y-87018438D02*
X133794571Y-87066057D01*
X133794571Y-87066057D02*
X133746952Y-87161295D01*
X133746952Y-87161295D02*
X133699333Y-87351771D01*
X133699333Y-87351771D02*
X133699333Y-87589866D01*
X133699333Y-87589866D02*
X133746952Y-87780342D01*
X133746952Y-87780342D02*
X133794571Y-87875580D01*
X133794571Y-87875580D02*
X133842190Y-87923200D01*
X133842190Y-87923200D02*
X133937428Y-87970819D01*
X133937428Y-87970819D02*
X134032666Y-87970819D01*
X134032666Y-87970819D02*
X134127904Y-87923200D01*
X134127904Y-87923200D02*
X134175523Y-87875580D01*
X134175523Y-87875580D02*
X134223142Y-87780342D01*
X134223142Y-87780342D02*
X134270761Y-87589866D01*
X134270761Y-87589866D02*
X134270761Y-87351771D01*
X134270761Y-87351771D02*
X134223142Y-87161295D01*
X134223142Y-87161295D02*
X134175523Y-87066057D01*
X134175523Y-87066057D02*
X134127904Y-87018438D01*
X134127904Y-87018438D02*
X134032666Y-86970819D01*
X133318380Y-87066057D02*
X133270761Y-87018438D01*
X133270761Y-87018438D02*
X133175523Y-86970819D01*
X133175523Y-86970819D02*
X132937428Y-86970819D01*
X132937428Y-86970819D02*
X132842190Y-87018438D01*
X132842190Y-87018438D02*
X132794571Y-87066057D01*
X132794571Y-87066057D02*
X132746952Y-87161295D01*
X132746952Y-87161295D02*
X132746952Y-87256533D01*
X132746952Y-87256533D02*
X132794571Y-87399390D01*
X132794571Y-87399390D02*
X133365999Y-87970819D01*
X133365999Y-87970819D02*
X132746952Y-87970819D01*
D11*
X130666000Y-88516000D02*
X130666000Y-91626000D01*
X130666000Y-88516000D02*
X127906000Y-88516000D01*
X130666000Y-89086000D02*
X130666000Y-91626000D01*
X130666000Y-93246000D02*
X130666000Y-96706000D01*
X130666000Y-98326000D02*
X130666000Y-101786000D01*
X130666000Y-103406000D02*
X130666000Y-106866000D01*
X130666000Y-108486000D02*
X130666000Y-109056000D01*
X130666000Y-109056000D02*
X127906000Y-109056000D01*
X127906000Y-88516000D02*
X127906000Y-89086000D01*
X127906000Y-90706000D02*
X127906000Y-94166000D01*
X127906000Y-95786000D02*
X127906000Y-99246000D01*
X127906000Y-100866000D02*
X127906000Y-104326000D01*
X127906000Y-105946000D02*
X127906000Y-109056000D01*
X125586000Y-88516000D02*
X125586000Y-91626000D01*
X125586000Y-88516000D02*
X122826000Y-88516000D01*
X125586000Y-89086000D02*
X125586000Y-91626000D01*
X125586000Y-93246000D02*
X125586000Y-96706000D01*
X125586000Y-98326000D02*
X125586000Y-101786000D01*
X125586000Y-103406000D02*
X125586000Y-106866000D01*
X125586000Y-108486000D02*
X125586000Y-109056000D01*
X125586000Y-109056000D02*
X122826000Y-109056000D01*
X122826000Y-88516000D02*
X122826000Y-89086000D01*
X122826000Y-90706000D02*
X122826000Y-94166000D01*
X122826000Y-95786000D02*
X122826000Y-99246000D01*
X122826000Y-100866000D02*
X122826000Y-104326000D01*
X122826000Y-105946000D02*
X122826000Y-109056000D01*
X132986000Y-88626000D02*
X132986001Y-109056000D01*
X135745999Y-109056000D02*
X132986001Y-109056000D01*
X135746000Y-88626000D02*
X132986000Y-88626000D01*
X135746000Y-88626000D02*
X135745999Y-109056000D01*
%LPC*%
D12*
X127631000Y-89896000D03*
X130941000Y-92436000D03*
X127631000Y-94976000D03*
X130941000Y-97516000D03*
X127631000Y-100056000D03*
X130941000Y-102596000D03*
X127631000Y-105136000D03*
X130941000Y-107676000D03*
X122551000Y-89896000D03*
X125861000Y-92436000D03*
X122551000Y-94976000D03*
X125861000Y-97516000D03*
X122551000Y-100056000D03*
X125861000Y-102596000D03*
X122551000Y-105136000D03*
X125861000Y-107676000D03*
D13*
X134366000Y-107676001D03*
X134366000Y-105136000D03*
X134366000Y-102596000D03*
X134366000Y-100056000D03*
X134366000Y-97516000D03*
X134366000Y-94975999D03*
X134366000Y-92436000D03*
X134366000Y-89896000D03*
D14*
X119126000Y-89896000D03*
D13*
X119126000Y-92436000D03*
X119126000Y-94976000D03*
X119126000Y-97516000D03*
X119126000Y-100056000D03*
X119126000Y-102596000D03*
X119126000Y-105136000D03*
X119126000Y-107676000D03*
%LPD*%
M02*
