G04 #@! TF.GenerationSoftware,KiCad,Pcbnew,9.0.6*
G04 #@! TF.CreationDate,2025-12-31T23:13:25-06:00*
G04 #@! TF.ProjectId,QFN-16_3x3,51464e2d-3136-45f3-9378-332e6b696361,rev?*
G04 #@! TF.SameCoordinates,Original*
G04 #@! TF.FileFunction,Legend,Top*
G04 #@! TF.FilePolarity,Positive*
%FSLAX46Y46*%
G04 Gerber Fmt 4.6, Leading zero omitted, Abs format (unit mm)*
G04 Created by KiCad (PCBNEW 9.0.6) date 2025-12-31 23:13:25*
%MOMM*%
%LPD*%
G01*
G04 APERTURE LIST*
G04 Aperture macros list*
%AMRoundRect*
0 Rectangle with rounded corners*
0 $1 Rounding radius*
0 $2 $3 $4 $5 $6 $7 $8 $9 X,Y pos of 4 corners*
0 Add a 4 corners polygon primitive as box body*
4,1,4,$2,$3,$4,$5,$6,$7,$8,$9,$2,$3,0*
0 Add four circle primitives for the rounded corners*
1,1,$1+$1,$2,$3*
1,1,$1+$1,$4,$5*
1,1,$1+$1,$6,$7*
1,1,$1+$1,$8,$9*
0 Add four rect primitives between the rounded corners*
20,1,$1+$1,$2,$3,$4,$5,0*
20,1,$1+$1,$4,$5,$6,$7,0*
20,1,$1+$1,$6,$7,$8,$9,0*
20,1,$1+$1,$8,$9,$2,$3,0*%
%AMRotRect*
0 Rectangle, with rotation*
0 The origin of the aperture is its center*
0 $1 length*
0 $2 width*
0 $3 Rotation angle, in degrees counterclockwise*
0 Add horizontal line*
21,1,$1,$2,0,0,$3*%
G04 Aperture macros list end*
%ADD10C,0.100000*%
%ADD11C,0.200000*%
%ADD12C,0.150000*%
%ADD13C,0.120000*%
%ADD14C,0.000000*%
%ADD15RotRect,1.700000X1.700000X315.000000*%
%ADD16RoundRect,0.062500X-0.437522X-0.349134X-0.349134X-0.437522X0.437522X0.349134X0.349134X0.437522X0*%
%ADD17RoundRect,0.062500X-0.437522X0.349134X0.349134X-0.437522X0.437522X-0.349134X-0.349134X0.437522X0*%
%ADD18C,1.700000*%
G04 APERTURE END LIST*
D10*
X124251999Y-119651359D02*
X137047999Y-119651359D01*
X137047999Y-127753359D01*
X124251999Y-127753359D01*
X124251999Y-119651359D01*
G36*
X124251999Y-119651359D02*
G01*
X137047999Y-119651359D01*
X137047999Y-127753359D01*
X124251999Y-127753359D01*
X124251999Y-119651359D01*
G37*
D11*
X127205808Y-126620578D02*
X127539141Y-127620578D01*
X127539141Y-127620578D02*
X127872474Y-126620578D01*
X128586760Y-127572959D02*
X128491522Y-127620578D01*
X128491522Y-127620578D02*
X128301046Y-127620578D01*
X128301046Y-127620578D02*
X128205808Y-127572959D01*
X128205808Y-127572959D02*
X128158189Y-127477720D01*
X128158189Y-127477720D02*
X128158189Y-127096768D01*
X128158189Y-127096768D02*
X128205808Y-127001530D01*
X128205808Y-127001530D02*
X128301046Y-126953911D01*
X128301046Y-126953911D02*
X128491522Y-126953911D01*
X128491522Y-126953911D02*
X128586760Y-127001530D01*
X128586760Y-127001530D02*
X128634379Y-127096768D01*
X128634379Y-127096768D02*
X128634379Y-127192006D01*
X128634379Y-127192006D02*
X128158189Y-127287244D01*
X129062951Y-127620578D02*
X129062951Y-126953911D01*
X129062951Y-127144387D02*
X129110570Y-127049149D01*
X129110570Y-127049149D02*
X129158189Y-127001530D01*
X129158189Y-127001530D02*
X129253427Y-126953911D01*
X129253427Y-126953911D02*
X129348665Y-126953911D01*
X129634380Y-127572959D02*
X129729618Y-127620578D01*
X129729618Y-127620578D02*
X129920094Y-127620578D01*
X129920094Y-127620578D02*
X130015332Y-127572959D01*
X130015332Y-127572959D02*
X130062951Y-127477720D01*
X130062951Y-127477720D02*
X130062951Y-127430101D01*
X130062951Y-127430101D02*
X130015332Y-127334863D01*
X130015332Y-127334863D02*
X129920094Y-127287244D01*
X129920094Y-127287244D02*
X129777237Y-127287244D01*
X129777237Y-127287244D02*
X129681999Y-127239625D01*
X129681999Y-127239625D02*
X129634380Y-127144387D01*
X129634380Y-127144387D02*
X129634380Y-127096768D01*
X129634380Y-127096768D02*
X129681999Y-127001530D01*
X129681999Y-127001530D02*
X129777237Y-126953911D01*
X129777237Y-126953911D02*
X129920094Y-126953911D01*
X129920094Y-126953911D02*
X130015332Y-127001530D01*
X130491523Y-127620578D02*
X130491523Y-126953911D01*
X130491523Y-126620578D02*
X130443904Y-126668197D01*
X130443904Y-126668197D02*
X130491523Y-126715816D01*
X130491523Y-126715816D02*
X130539142Y-126668197D01*
X130539142Y-126668197D02*
X130491523Y-126620578D01*
X130491523Y-126620578D02*
X130491523Y-126715816D01*
X131110570Y-127620578D02*
X131015332Y-127572959D01*
X131015332Y-127572959D02*
X130967713Y-127525339D01*
X130967713Y-127525339D02*
X130920094Y-127430101D01*
X130920094Y-127430101D02*
X130920094Y-127144387D01*
X130920094Y-127144387D02*
X130967713Y-127049149D01*
X130967713Y-127049149D02*
X131015332Y-127001530D01*
X131015332Y-127001530D02*
X131110570Y-126953911D01*
X131110570Y-126953911D02*
X131253427Y-126953911D01*
X131253427Y-126953911D02*
X131348665Y-127001530D01*
X131348665Y-127001530D02*
X131396284Y-127049149D01*
X131396284Y-127049149D02*
X131443903Y-127144387D01*
X131443903Y-127144387D02*
X131443903Y-127430101D01*
X131443903Y-127430101D02*
X131396284Y-127525339D01*
X131396284Y-127525339D02*
X131348665Y-127572959D01*
X131348665Y-127572959D02*
X131253427Y-127620578D01*
X131253427Y-127620578D02*
X131110570Y-127620578D01*
X131872475Y-126953911D02*
X131872475Y-127620578D01*
X131872475Y-127049149D02*
X131920094Y-127001530D01*
X131920094Y-127001530D02*
X132015332Y-126953911D01*
X132015332Y-126953911D02*
X132158189Y-126953911D01*
X132158189Y-126953911D02*
X132253427Y-127001530D01*
X132253427Y-127001530D02*
X132301046Y-127096768D01*
X132301046Y-127096768D02*
X132301046Y-127620578D01*
X134062951Y-127620578D02*
X133491523Y-127620578D01*
X133777237Y-127620578D02*
X133777237Y-126620578D01*
X133777237Y-126620578D02*
X133681999Y-126763435D01*
X133681999Y-126763435D02*
X133586761Y-126858673D01*
X133586761Y-126858673D02*
X133491523Y-126906292D01*
X128539141Y-129495928D02*
X128443903Y-129448309D01*
X128443903Y-129448309D02*
X128348665Y-129353071D01*
X128348665Y-129353071D02*
X128205808Y-129210213D01*
X128205808Y-129210213D02*
X128110570Y-129162594D01*
X128110570Y-129162594D02*
X128015332Y-129162594D01*
X128062951Y-129400690D02*
X127967713Y-129353071D01*
X127967713Y-129353071D02*
X127872475Y-129257832D01*
X127872475Y-129257832D02*
X127824856Y-129067356D01*
X127824856Y-129067356D02*
X127824856Y-128734023D01*
X127824856Y-128734023D02*
X127872475Y-128543547D01*
X127872475Y-128543547D02*
X127967713Y-128448309D01*
X127967713Y-128448309D02*
X128062951Y-128400690D01*
X128062951Y-128400690D02*
X128253427Y-128400690D01*
X128253427Y-128400690D02*
X128348665Y-128448309D01*
X128348665Y-128448309D02*
X128443903Y-128543547D01*
X128443903Y-128543547D02*
X128491522Y-128734023D01*
X128491522Y-128734023D02*
X128491522Y-129067356D01*
X128491522Y-129067356D02*
X128443903Y-129257832D01*
X128443903Y-129257832D02*
X128348665Y-129353071D01*
X128348665Y-129353071D02*
X128253427Y-129400690D01*
X128253427Y-129400690D02*
X128062951Y-129400690D01*
X129253427Y-128876880D02*
X128920094Y-128876880D01*
X128920094Y-129400690D02*
X128920094Y-128400690D01*
X128920094Y-128400690D02*
X129396284Y-128400690D01*
X129777237Y-129400690D02*
X129777237Y-128400690D01*
X129777237Y-128400690D02*
X130348665Y-129400690D01*
X130348665Y-129400690D02*
X130348665Y-128400690D01*
X130824856Y-129019737D02*
X131586761Y-129019737D01*
X132586760Y-129400690D02*
X132015332Y-129400690D01*
X132301046Y-129400690D02*
X132301046Y-128400690D01*
X132301046Y-128400690D02*
X132205808Y-128543547D01*
X132205808Y-128543547D02*
X132110570Y-128638785D01*
X132110570Y-128638785D02*
X132015332Y-128686404D01*
X133443903Y-128400690D02*
X133253427Y-128400690D01*
X133253427Y-128400690D02*
X133158189Y-128448309D01*
X133158189Y-128448309D02*
X133110570Y-128495928D01*
X133110570Y-128495928D02*
X133015332Y-128638785D01*
X133015332Y-128638785D02*
X132967713Y-128829261D01*
X132967713Y-128829261D02*
X132967713Y-129210213D01*
X132967713Y-129210213D02*
X133015332Y-129305451D01*
X133015332Y-129305451D02*
X133062951Y-129353071D01*
X133062951Y-129353071D02*
X133158189Y-129400690D01*
X133158189Y-129400690D02*
X133348665Y-129400690D01*
X133348665Y-129400690D02*
X133443903Y-129353071D01*
X133443903Y-129353071D02*
X133491522Y-129305451D01*
X133491522Y-129305451D02*
X133539141Y-129210213D01*
X133539141Y-129210213D02*
X133539141Y-128972118D01*
X133539141Y-128972118D02*
X133491522Y-128876880D01*
X133491522Y-128876880D02*
X133443903Y-128829261D01*
X133443903Y-128829261D02*
X133348665Y-128781642D01*
X133348665Y-128781642D02*
X133158189Y-128781642D01*
X133158189Y-128781642D02*
X133062951Y-128829261D01*
X133062951Y-128829261D02*
X133015332Y-128876880D01*
X133015332Y-128876880D02*
X132967713Y-128972118D01*
X128134380Y-130010634D02*
X128753427Y-130010634D01*
X128753427Y-130010634D02*
X128420094Y-130391586D01*
X128420094Y-130391586D02*
X128562951Y-130391586D01*
X128562951Y-130391586D02*
X128658189Y-130439205D01*
X128658189Y-130439205D02*
X128705808Y-130486824D01*
X128705808Y-130486824D02*
X128753427Y-130582062D01*
X128753427Y-130582062D02*
X128753427Y-130820157D01*
X128753427Y-130820157D02*
X128705808Y-130915395D01*
X128705808Y-130915395D02*
X128658189Y-130963015D01*
X128658189Y-130963015D02*
X128562951Y-131010634D01*
X128562951Y-131010634D02*
X128277237Y-131010634D01*
X128277237Y-131010634D02*
X128181999Y-130963015D01*
X128181999Y-130963015D02*
X128134380Y-130915395D01*
X129086761Y-131010634D02*
X129610570Y-130343967D01*
X129086761Y-130343967D02*
X129610570Y-131010634D01*
X129896285Y-130010634D02*
X130515332Y-130010634D01*
X130515332Y-130010634D02*
X130181999Y-130391586D01*
X130181999Y-130391586D02*
X130324856Y-130391586D01*
X130324856Y-130391586D02*
X130420094Y-130439205D01*
X130420094Y-130439205D02*
X130467713Y-130486824D01*
X130467713Y-130486824D02*
X130515332Y-130582062D01*
X130515332Y-130582062D02*
X130515332Y-130820157D01*
X130515332Y-130820157D02*
X130467713Y-130915395D01*
X130467713Y-130915395D02*
X130420094Y-130963015D01*
X130420094Y-130963015D02*
X130324856Y-131010634D01*
X130324856Y-131010634D02*
X130039142Y-131010634D01*
X130039142Y-131010634D02*
X129943904Y-130963015D01*
X129943904Y-130963015D02*
X129896285Y-130915395D01*
X130943904Y-131010634D02*
X130943904Y-130343967D01*
X130943904Y-130439205D02*
X130991523Y-130391586D01*
X130991523Y-130391586D02*
X131086761Y-130343967D01*
X131086761Y-130343967D02*
X131229618Y-130343967D01*
X131229618Y-130343967D02*
X131324856Y-130391586D01*
X131324856Y-130391586D02*
X131372475Y-130486824D01*
X131372475Y-130486824D02*
X131372475Y-131010634D01*
X131372475Y-130486824D02*
X131420094Y-130391586D01*
X131420094Y-130391586D02*
X131515332Y-130343967D01*
X131515332Y-130343967D02*
X131658189Y-130343967D01*
X131658189Y-130343967D02*
X131753428Y-130391586D01*
X131753428Y-130391586D02*
X131801047Y-130486824D01*
X131801047Y-130486824D02*
X131801047Y-131010634D01*
X132277237Y-131010634D02*
X132277237Y-130343967D01*
X132277237Y-130439205D02*
X132324856Y-130391586D01*
X132324856Y-130391586D02*
X132420094Y-130343967D01*
X132420094Y-130343967D02*
X132562951Y-130343967D01*
X132562951Y-130343967D02*
X132658189Y-130391586D01*
X132658189Y-130391586D02*
X132705808Y-130486824D01*
X132705808Y-130486824D02*
X132705808Y-131010634D01*
X132705808Y-130486824D02*
X132753427Y-130391586D01*
X132753427Y-130391586D02*
X132848665Y-130343967D01*
X132848665Y-130343967D02*
X132991522Y-130343967D01*
X132991522Y-130343967D02*
X133086761Y-130391586D01*
X133086761Y-130391586D02*
X133134380Y-130486824D01*
X133134380Y-130486824D02*
X133134380Y-131010634D01*
X126301047Y-131620578D02*
X126396285Y-131620578D01*
X126396285Y-131620578D02*
X126491523Y-131668197D01*
X126491523Y-131668197D02*
X126539142Y-131715816D01*
X126539142Y-131715816D02*
X126586761Y-131811054D01*
X126586761Y-131811054D02*
X126634380Y-132001530D01*
X126634380Y-132001530D02*
X126634380Y-132239625D01*
X126634380Y-132239625D02*
X126586761Y-132430101D01*
X126586761Y-132430101D02*
X126539142Y-132525339D01*
X126539142Y-132525339D02*
X126491523Y-132572959D01*
X126491523Y-132572959D02*
X126396285Y-132620578D01*
X126396285Y-132620578D02*
X126301047Y-132620578D01*
X126301047Y-132620578D02*
X126205809Y-132572959D01*
X126205809Y-132572959D02*
X126158190Y-132525339D01*
X126158190Y-132525339D02*
X126110571Y-132430101D01*
X126110571Y-132430101D02*
X126062952Y-132239625D01*
X126062952Y-132239625D02*
X126062952Y-132001530D01*
X126062952Y-132001530D02*
X126110571Y-131811054D01*
X126110571Y-131811054D02*
X126158190Y-131715816D01*
X126158190Y-131715816D02*
X126205809Y-131668197D01*
X126205809Y-131668197D02*
X126301047Y-131620578D01*
X127062952Y-132525339D02*
X127110571Y-132572959D01*
X127110571Y-132572959D02*
X127062952Y-132620578D01*
X127062952Y-132620578D02*
X127015333Y-132572959D01*
X127015333Y-132572959D02*
X127062952Y-132525339D01*
X127062952Y-132525339D02*
X127062952Y-132620578D01*
X128015332Y-131620578D02*
X127539142Y-131620578D01*
X127539142Y-131620578D02*
X127491523Y-132096768D01*
X127491523Y-132096768D02*
X127539142Y-132049149D01*
X127539142Y-132049149D02*
X127634380Y-132001530D01*
X127634380Y-132001530D02*
X127872475Y-132001530D01*
X127872475Y-132001530D02*
X127967713Y-132049149D01*
X127967713Y-132049149D02*
X128015332Y-132096768D01*
X128015332Y-132096768D02*
X128062951Y-132192006D01*
X128062951Y-132192006D02*
X128062951Y-132430101D01*
X128062951Y-132430101D02*
X128015332Y-132525339D01*
X128015332Y-132525339D02*
X127967713Y-132572959D01*
X127967713Y-132572959D02*
X127872475Y-132620578D01*
X127872475Y-132620578D02*
X127634380Y-132620578D01*
X127634380Y-132620578D02*
X127539142Y-132572959D01*
X127539142Y-132572959D02*
X127491523Y-132525339D01*
X128491523Y-132620578D02*
X128491523Y-131953911D01*
X128491523Y-132049149D02*
X128539142Y-132001530D01*
X128539142Y-132001530D02*
X128634380Y-131953911D01*
X128634380Y-131953911D02*
X128777237Y-131953911D01*
X128777237Y-131953911D02*
X128872475Y-132001530D01*
X128872475Y-132001530D02*
X128920094Y-132096768D01*
X128920094Y-132096768D02*
X128920094Y-132620578D01*
X128920094Y-132096768D02*
X128967713Y-132001530D01*
X128967713Y-132001530D02*
X129062951Y-131953911D01*
X129062951Y-131953911D02*
X129205808Y-131953911D01*
X129205808Y-131953911D02*
X129301047Y-132001530D01*
X129301047Y-132001530D02*
X129348666Y-132096768D01*
X129348666Y-132096768D02*
X129348666Y-132620578D01*
X129824856Y-132620578D02*
X129824856Y-131953911D01*
X129824856Y-132049149D02*
X129872475Y-132001530D01*
X129872475Y-132001530D02*
X129967713Y-131953911D01*
X129967713Y-131953911D02*
X130110570Y-131953911D01*
X130110570Y-131953911D02*
X130205808Y-132001530D01*
X130205808Y-132001530D02*
X130253427Y-132096768D01*
X130253427Y-132096768D02*
X130253427Y-132620578D01*
X130253427Y-132096768D02*
X130301046Y-132001530D01*
X130301046Y-132001530D02*
X130396284Y-131953911D01*
X130396284Y-131953911D02*
X130539141Y-131953911D01*
X130539141Y-131953911D02*
X130634380Y-132001530D01*
X130634380Y-132001530D02*
X130681999Y-132096768D01*
X130681999Y-132096768D02*
X130681999Y-132620578D01*
X131920094Y-132620578D02*
X131920094Y-131620578D01*
X131920094Y-131620578D02*
X132301046Y-131620578D01*
X132301046Y-131620578D02*
X132396284Y-131668197D01*
X132396284Y-131668197D02*
X132443903Y-131715816D01*
X132443903Y-131715816D02*
X132491522Y-131811054D01*
X132491522Y-131811054D02*
X132491522Y-131953911D01*
X132491522Y-131953911D02*
X132443903Y-132049149D01*
X132443903Y-132049149D02*
X132396284Y-132096768D01*
X132396284Y-132096768D02*
X132301046Y-132144387D01*
X132301046Y-132144387D02*
X131920094Y-132144387D01*
X132920094Y-132620578D02*
X132920094Y-131953911D01*
X132920094Y-131620578D02*
X132872475Y-131668197D01*
X132872475Y-131668197D02*
X132920094Y-131715816D01*
X132920094Y-131715816D02*
X132967713Y-131668197D01*
X132967713Y-131668197D02*
X132920094Y-131620578D01*
X132920094Y-131620578D02*
X132920094Y-131715816D01*
X133253427Y-131953911D02*
X133634379Y-131953911D01*
X133396284Y-131620578D02*
X133396284Y-132477720D01*
X133396284Y-132477720D02*
X133443903Y-132572959D01*
X133443903Y-132572959D02*
X133539141Y-132620578D01*
X133539141Y-132620578D02*
X133634379Y-132620578D01*
X134396284Y-132572959D02*
X134301046Y-132620578D01*
X134301046Y-132620578D02*
X134110570Y-132620578D01*
X134110570Y-132620578D02*
X134015332Y-132572959D01*
X134015332Y-132572959D02*
X133967713Y-132525339D01*
X133967713Y-132525339D02*
X133920094Y-132430101D01*
X133920094Y-132430101D02*
X133920094Y-132144387D01*
X133920094Y-132144387D02*
X133967713Y-132049149D01*
X133967713Y-132049149D02*
X134015332Y-132001530D01*
X134015332Y-132001530D02*
X134110570Y-131953911D01*
X134110570Y-131953911D02*
X134301046Y-131953911D01*
X134301046Y-131953911D02*
X134396284Y-132001530D01*
X134824856Y-132620578D02*
X134824856Y-131620578D01*
X135253427Y-132620578D02*
X135253427Y-132096768D01*
X135253427Y-132096768D02*
X135205808Y-132001530D01*
X135205808Y-132001530D02*
X135110570Y-131953911D01*
X135110570Y-131953911D02*
X134967713Y-131953911D01*
X134967713Y-131953911D02*
X134872475Y-132001530D01*
X134872475Y-132001530D02*
X134824856Y-132049149D01*
D12*
X120634285Y-106294819D02*
X120634285Y-107009104D01*
X120634285Y-107009104D02*
X120586666Y-107151961D01*
X120586666Y-107151961D02*
X120491428Y-107247200D01*
X120491428Y-107247200D02*
X120348571Y-107294819D01*
X120348571Y-107294819D02*
X120253333Y-107294819D01*
X121634285Y-107294819D02*
X121062857Y-107294819D01*
X121348571Y-107294819D02*
X121348571Y-106294819D01*
X121348571Y-106294819D02*
X121253333Y-106437676D01*
X121253333Y-106437676D02*
X121158095Y-106532914D01*
X121158095Y-106532914D02*
X121062857Y-106580533D01*
X122253333Y-106294819D02*
X122348571Y-106294819D01*
X122348571Y-106294819D02*
X122443809Y-106342438D01*
X122443809Y-106342438D02*
X122491428Y-106390057D01*
X122491428Y-106390057D02*
X122539047Y-106485295D01*
X122539047Y-106485295D02*
X122586666Y-106675771D01*
X122586666Y-106675771D02*
X122586666Y-106913866D01*
X122586666Y-106913866D02*
X122539047Y-107104342D01*
X122539047Y-107104342D02*
X122491428Y-107199580D01*
X122491428Y-107199580D02*
X122443809Y-107247200D01*
X122443809Y-107247200D02*
X122348571Y-107294819D01*
X122348571Y-107294819D02*
X122253333Y-107294819D01*
X122253333Y-107294819D02*
X122158095Y-107247200D01*
X122158095Y-107247200D02*
X122110476Y-107199580D01*
X122110476Y-107199580D02*
X122062857Y-107104342D01*
X122062857Y-107104342D02*
X122015238Y-106913866D01*
X122015238Y-106913866D02*
X122015238Y-106675771D01*
X122015238Y-106675771D02*
X122062857Y-106485295D01*
X122062857Y-106485295D02*
X122110476Y-106390057D01*
X122110476Y-106390057D02*
X122158095Y-106342438D01*
X122158095Y-106342438D02*
X122253333Y-106294819D01*
X122920000Y-106294819D02*
X123539047Y-106294819D01*
X123539047Y-106294819D02*
X123205714Y-106675771D01*
X123205714Y-106675771D02*
X123348571Y-106675771D01*
X123348571Y-106675771D02*
X123443809Y-106723390D01*
X123443809Y-106723390D02*
X123491428Y-106771009D01*
X123491428Y-106771009D02*
X123539047Y-106866247D01*
X123539047Y-106866247D02*
X123539047Y-107104342D01*
X123539047Y-107104342D02*
X123491428Y-107199580D01*
X123491428Y-107199580D02*
X123443809Y-107247200D01*
X123443809Y-107247200D02*
X123348571Y-107294819D01*
X123348571Y-107294819D02*
X123062857Y-107294819D01*
X123062857Y-107294819D02*
X122967619Y-107247200D01*
X122967619Y-107247200D02*
X122920000Y-107199580D01*
X138414285Y-106294820D02*
X138414285Y-107009105D01*
X138414285Y-107009105D02*
X138366666Y-107151962D01*
X138366666Y-107151962D02*
X138271428Y-107247201D01*
X138271428Y-107247201D02*
X138128571Y-107294820D01*
X138128571Y-107294820D02*
X138033333Y-107294820D01*
X139414285Y-107294820D02*
X138842857Y-107294820D01*
X139128571Y-107294820D02*
X139128571Y-106294820D01*
X139128571Y-106294820D02*
X139033333Y-106437677D01*
X139033333Y-106437677D02*
X138938095Y-106532915D01*
X138938095Y-106532915D02*
X138842857Y-106580534D01*
X140033333Y-106294820D02*
X140128571Y-106294820D01*
X140128571Y-106294820D02*
X140223809Y-106342439D01*
X140223809Y-106342439D02*
X140271428Y-106390058D01*
X140271428Y-106390058D02*
X140319047Y-106485296D01*
X140319047Y-106485296D02*
X140366666Y-106675772D01*
X140366666Y-106675772D02*
X140366666Y-106913867D01*
X140366666Y-106913867D02*
X140319047Y-107104343D01*
X140319047Y-107104343D02*
X140271428Y-107199581D01*
X140271428Y-107199581D02*
X140223809Y-107247201D01*
X140223809Y-107247201D02*
X140128571Y-107294820D01*
X140128571Y-107294820D02*
X140033333Y-107294820D01*
X140033333Y-107294820D02*
X139938095Y-107247201D01*
X139938095Y-107247201D02*
X139890476Y-107199581D01*
X139890476Y-107199581D02*
X139842857Y-107104343D01*
X139842857Y-107104343D02*
X139795238Y-106913867D01*
X139795238Y-106913867D02*
X139795238Y-106675772D01*
X139795238Y-106675772D02*
X139842857Y-106485296D01*
X139842857Y-106485296D02*
X139890476Y-106390058D01*
X139890476Y-106390058D02*
X139938095Y-106342439D01*
X139938095Y-106342439D02*
X140033333Y-106294820D01*
X140747619Y-106390058D02*
X140795238Y-106342439D01*
X140795238Y-106342439D02*
X140890476Y-106294820D01*
X140890476Y-106294820D02*
X141128571Y-106294820D01*
X141128571Y-106294820D02*
X141223809Y-106342439D01*
X141223809Y-106342439D02*
X141271428Y-106390058D01*
X141271428Y-106390058D02*
X141319047Y-106485296D01*
X141319047Y-106485296D02*
X141319047Y-106580534D01*
X141319047Y-106580534D02*
X141271428Y-106723391D01*
X141271428Y-106723391D02*
X140700000Y-107294820D01*
X140700000Y-107294820D02*
X141319047Y-107294820D01*
D13*
X129467912Y-114620214D02*
X129064861Y-114556576D01*
X129404272Y-114217164D01*
X129467912Y-114620214D01*
G36*
X129467912Y-114620214D02*
G01*
X129064861Y-114556576D01*
X129404272Y-114217164D01*
X129467912Y-114620214D01*
G37*
X133086884Y-117022964D02*
X132751008Y-117358840D01*
X132751008Y-116687088D02*
X133086884Y-117022964D01*
X131145876Y-118963972D02*
X130810000Y-119299848D01*
X130810000Y-119299848D02*
X130474124Y-118963972D01*
X130810000Y-114746080D02*
X131145876Y-115081956D01*
X130474124Y-115081956D02*
X130810000Y-114746080D01*
X128868992Y-117358840D02*
X128533116Y-117022964D01*
X128533116Y-117022964D02*
X128868992Y-116687088D01*
X123300000Y-107950000D02*
X123300000Y-133460000D01*
X120540000Y-133460000D02*
X123300000Y-133460000D01*
X120540000Y-107950000D02*
X123300000Y-107950000D01*
X120540000Y-107950000D02*
X120540000Y-133460000D01*
X141080000Y-107950001D02*
X141080000Y-133460001D01*
X138320000Y-133460001D02*
X141080000Y-133460001D01*
X138320000Y-107950001D02*
X141080000Y-107950001D01*
X138320000Y-107950001D02*
X138320000Y-133460001D01*
D14*
G36*
X130694073Y-108950010D02*
G01*
X130704132Y-108956833D01*
X130718592Y-108967082D01*
X130736543Y-108980107D01*
X130757075Y-108995255D01*
X130775755Y-109009220D01*
X130903071Y-109100330D01*
X131032901Y-109184048D01*
X131165292Y-109260395D01*
X131300291Y-109329392D01*
X131437946Y-109391062D01*
X131578305Y-109445426D01*
X131721414Y-109492504D01*
X131867323Y-109532319D01*
X131999921Y-109561732D01*
X132024490Y-109566323D01*
X132048246Y-109570251D01*
X132069395Y-109573255D01*
X132086140Y-109575077D01*
X132095172Y-109575508D01*
X132107819Y-109575880D01*
X132116642Y-109577128D01*
X132119588Y-109578779D01*
X132123210Y-109582256D01*
X132132957Y-109585096D01*
X132147145Y-109586968D01*
X132164090Y-109587542D01*
X132164175Y-109587541D01*
X132174710Y-109587899D01*
X132191239Y-109589028D01*
X132211997Y-109590783D01*
X132235219Y-109593016D01*
X132252408Y-109594831D01*
X132278865Y-109597598D01*
X132306568Y-109600260D01*
X132332956Y-109602584D01*
X132355467Y-109604342D01*
X132364720Y-109604951D01*
X132382189Y-109606183D01*
X132396366Y-109607553D01*
X132405695Y-109608885D01*
X132408659Y-109609906D01*
X132412283Y-109610774D01*
X132422061Y-109611244D01*
X132436343Y-109611270D01*
X132447724Y-109611012D01*
X132464116Y-109610790D01*
X132477123Y-109611177D01*
X132485094Y-109612090D01*
X132486796Y-109612966D01*
X132490531Y-109613821D01*
X132501053Y-109614590D01*
X132517337Y-109615240D01*
X132538356Y-109615739D01*
X132563086Y-109616054D01*
X132588361Y-109616155D01*
X132615609Y-109616047D01*
X132640095Y-109615744D01*
X132660794Y-109615274D01*
X132676679Y-109614667D01*
X132686726Y-109613954D01*
X132689931Y-109613225D01*
X132693504Y-109611762D01*
X132702883Y-109610712D01*
X132716062Y-109610296D01*
X132716500Y-109610295D01*
X132753121Y-109609343D01*
X132796012Y-109606603D01*
X132843878Y-109602245D01*
X132895425Y-109596441D01*
X132949360Y-109589363D01*
X133004387Y-109581184D01*
X133059214Y-109572073D01*
X133112547Y-109562204D01*
X133163091Y-109551747D01*
X133171060Y-109549980D01*
X133306369Y-109515766D01*
X133441290Y-109473885D01*
X133575522Y-109424481D01*
X133708766Y-109367700D01*
X133840721Y-109303686D01*
X133971088Y-109232584D01*
X134099566Y-109154540D01*
X134225855Y-109069698D01*
X134341254Y-108984685D01*
X134362114Y-108969321D01*
X134377799Y-108959366D01*
X134388636Y-108954682D01*
X134394951Y-108955129D01*
X134397069Y-108960568D01*
X134397071Y-108960834D01*
X134399792Y-108964407D01*
X134407756Y-108973190D01*
X134420669Y-108986881D01*
X134438235Y-109005180D01*
X134460159Y-109027787D01*
X134486146Y-109054399D01*
X134515900Y-109084717D01*
X134549126Y-109118440D01*
X134585529Y-109155267D01*
X134624813Y-109194897D01*
X134666683Y-109237030D01*
X134710844Y-109281365D01*
X134757000Y-109327601D01*
X134770712Y-109341318D01*
X134830278Y-109400936D01*
X134884356Y-109455165D01*
X134933030Y-109504091D01*
X134976384Y-109547801D01*
X135014502Y-109586381D01*
X135047470Y-109619916D01*
X135075372Y-109648495D01*
X135098292Y-109672203D01*
X135116315Y-109691126D01*
X135129526Y-109705350D01*
X135138008Y-109714963D01*
X135141847Y-109720051D01*
X135142093Y-109720862D01*
X135137665Y-109725613D01*
X135128287Y-109732299D01*
X135116624Y-109739120D01*
X135107646Y-109744638D01*
X135096899Y-109752726D01*
X135083726Y-109763981D01*
X135067466Y-109778997D01*
X135047461Y-109798369D01*
X135023053Y-109822694D01*
X135013564Y-109832270D01*
X134979172Y-109867295D01*
X134949354Y-109898234D01*
X134922980Y-109926341D01*
X134898919Y-109952869D01*
X134876042Y-109979072D01*
X134853218Y-110006204D01*
X134829318Y-110035518D01*
X134821014Y-110045869D01*
X134759181Y-110127037D01*
X134704192Y-110207595D01*
X134655319Y-110288871D01*
X134611838Y-110372196D01*
X134573023Y-110458899D01*
X134538147Y-110550309D01*
X134525657Y-110586918D01*
X134501670Y-110663067D01*
X134481818Y-110734571D01*
X134465792Y-110803210D01*
X134453280Y-110870764D01*
X134443973Y-110939012D01*
X134437558Y-111009734D01*
X134433727Y-111084710D01*
X134432787Y-111119182D01*
X134432263Y-111149286D01*
X134431992Y-111176537D01*
X134431968Y-111200017D01*
X134432184Y-111218810D01*
X134432633Y-111232000D01*
X134433308Y-111238669D01*
X134433647Y-111239306D01*
X134435060Y-111242873D01*
X134435676Y-111252293D01*
X134435385Y-111265633D01*
X134435270Y-111267624D01*
X134435033Y-111284313D01*
X134435861Y-111305280D01*
X134437586Y-111327088D01*
X134438697Y-111336964D01*
X134455488Y-111439653D01*
X134479875Y-111542496D01*
X134511661Y-111645089D01*
X134550648Y-111747028D01*
X134596640Y-111847909D01*
X134649440Y-111947328D01*
X134708849Y-112044880D01*
X134774672Y-112140161D01*
X134846710Y-112232768D01*
X134913240Y-112309694D01*
X134937696Y-112336447D01*
X134960465Y-112360972D01*
X134980999Y-112382702D01*
X134998747Y-112401073D01*
X135013161Y-112415517D01*
X135023691Y-112425470D01*
X135029788Y-112430365D01*
X135030827Y-112430781D01*
X135034743Y-112433420D01*
X135043025Y-112440675D01*
X135054599Y-112451553D01*
X135068392Y-112465061D01*
X135074201Y-112470889D01*
X135089805Y-112486368D01*
X135104822Y-112500768D01*
X135117763Y-112512693D01*
X135127142Y-112520750D01*
X135128782Y-112522016D01*
X135137322Y-112529527D01*
X135142074Y-112536049D01*
X135142455Y-112538251D01*
X135139600Y-112542014D01*
X135131849Y-112550868D01*
X135119714Y-112564261D01*
X135103705Y-112581644D01*
X135084332Y-112602465D01*
X135062107Y-112626175D01*
X135037539Y-112652223D01*
X135011140Y-112680058D01*
X135002358Y-112689285D01*
X134973129Y-112719996D01*
X134943624Y-112751045D01*
X134914660Y-112781571D01*
X134887051Y-112810711D01*
X134861613Y-112837605D01*
X134839162Y-112861392D01*
X134820513Y-112881209D01*
X134807033Y-112895604D01*
X134790472Y-112913325D01*
X134769674Y-112935522D01*
X134745769Y-112960990D01*
X134719887Y-112988528D01*
X134693160Y-113016933D01*
X134666716Y-113045001D01*
X134650993Y-113061672D01*
X134624629Y-113089671D01*
X134596719Y-113119416D01*
X134568515Y-113149568D01*
X134541269Y-113178785D01*
X134516233Y-113205725D01*
X134494658Y-113229046D01*
X134485068Y-113239467D01*
X134466428Y-113259673D01*
X134449123Y-113278254D01*
X134433979Y-113294334D01*
X134421823Y-113307041D01*
X134413481Y-113315501D01*
X134410228Y-113318531D01*
X134398161Y-113323796D01*
X134382358Y-113325367D01*
X134374421Y-113325063D01*
X134367190Y-113323696D01*
X134359299Y-113320586D01*
X134349384Y-113315055D01*
X134336079Y-113306422D01*
X134318019Y-113294008D01*
X134314610Y-113291635D01*
X134222757Y-113228731D01*
X134135346Y-113171215D01*
X134051601Y-113118665D01*
X133970741Y-113070656D01*
X133891988Y-113026767D01*
X133814562Y-112986574D01*
X133737685Y-112949655D01*
X133660577Y-112915586D01*
X133582460Y-112883944D01*
X133521695Y-112861173D01*
X133382638Y-112814747D01*
X133242191Y-112775780D01*
X133100169Y-112744250D01*
X132956388Y-112720134D01*
X132810665Y-112703410D01*
X132662814Y-112694056D01*
X132512653Y-112692050D01*
X132359997Y-112697368D01*
X132240689Y-112706437D01*
X132096652Y-112723807D01*
X131954026Y-112748835D01*
X131812929Y-112781475D01*
X131673478Y-112821680D01*
X131535792Y-112869404D01*
X131399987Y-112924600D01*
X131266181Y-112987220D01*
X131134492Y-113057219D01*
X131005038Y-113134550D01*
X130877936Y-113219166D01*
X130792696Y-113281003D01*
X130764759Y-113301576D01*
X130741826Y-113317420D01*
X130722985Y-113328912D01*
X130707327Y-113336433D01*
X130693944Y-113340360D01*
X130681925Y-113341072D01*
X130670362Y-113338948D01*
X130661365Y-113335689D01*
X130654468Y-113331822D01*
X130642453Y-113324080D01*
X130626473Y-113313249D01*
X130607679Y-113300112D01*
X130587226Y-113285456D01*
X130582044Y-113281687D01*
X130458816Y-113195327D01*
X130336094Y-113116481D01*
X130213429Y-113044907D01*
X130090370Y-112980367D01*
X129966465Y-112922619D01*
X129841266Y-112871422D01*
X129753816Y-112839766D01*
X129631011Y-112801225D01*
X129503561Y-112768159D01*
X129372521Y-112740697D01*
X129238943Y-112718968D01*
X129103882Y-112703102D01*
X128968391Y-112693227D01*
X128833523Y-112689473D01*
X128700332Y-112691969D01*
X128599338Y-112698250D01*
X128453318Y-112713989D01*
X128309568Y-112737099D01*
X128167870Y-112767643D01*
X128028008Y-112805681D01*
X127889764Y-112851274D01*
X127752922Y-112904485D01*
X127617264Y-112965375D01*
X127567419Y-112989816D01*
X127540214Y-113003528D01*
X127514818Y-113016502D01*
X127490684Y-113029068D01*
X127467264Y-113041557D01*
X127444009Y-113054299D01*
X127420370Y-113067623D01*
X127395801Y-113081861D01*
X127369751Y-113097343D01*
X127341674Y-113114400D01*
X127311022Y-113133360D01*
X127277245Y-113154556D01*
X127239795Y-113178317D01*
X127198125Y-113204973D01*
X127151687Y-113234855D01*
X127099931Y-113268293D01*
X127042310Y-113305617D01*
X127029105Y-113314180D01*
X127012870Y-113324406D01*
X126998597Y-113332834D01*
X126987757Y-113338636D01*
X126981820Y-113340980D01*
X126981604Y-113340993D01*
X126977650Y-113338247D01*
X126968950Y-113330408D01*
X126956110Y-113318079D01*
X126939735Y-113301860D01*
X126920429Y-113282354D01*
X126898796Y-113260162D01*
X126875443Y-113235886D01*
X126866688Y-113226707D01*
X126833177Y-113191478D01*
X126802894Y-113159606D01*
X126775179Y-113130385D01*
X126749375Y-113103108D01*
X126724820Y-113077070D01*
X126700857Y-113051566D01*
X126676825Y-113025889D01*
X126652065Y-112999335D01*
X126625917Y-112971196D01*
X126597723Y-112940768D01*
X126566823Y-112907344D01*
X126532557Y-112870220D01*
X126494267Y-112828689D01*
X126455364Y-112786465D01*
X126442275Y-112772309D01*
X126424884Y-112753582D01*
X126404240Y-112731408D01*
X126381389Y-112706910D01*
X126357379Y-112681211D01*
X126333258Y-112655436D01*
X126323333Y-112644843D01*
X126301838Y-112621759D01*
X126282159Y-112600324D01*
X126264914Y-112581239D01*
X126250724Y-112565200D01*
X126240207Y-112552907D01*
X126233984Y-112545056D01*
X126232507Y-112542501D01*
X126235310Y-112538164D01*
X126243044Y-112529767D01*
X126254697Y-112518320D01*
X126269257Y-112504834D01*
X126278408Y-112496675D01*
X126305441Y-112472245D01*
X126335644Y-112443834D01*
X126367609Y-112412852D01*
X126399930Y-112380704D01*
X126431199Y-112348800D01*
X126460009Y-112318547D01*
X126484953Y-112291353D01*
X126494634Y-112280381D01*
X126571359Y-112186771D01*
X126640532Y-112091246D01*
X126657959Y-112063679D01*
X128404672Y-112063679D01*
X128530447Y-112062648D01*
X128656222Y-112061618D01*
X128769641Y-111756180D01*
X128786982Y-111709525D01*
X128803564Y-111664993D01*
X128819183Y-111623127D01*
X128833637Y-111584468D01*
X128846721Y-111549560D01*
X128858232Y-111518942D01*
X128867967Y-111493158D01*
X128875721Y-111472749D01*
X128881291Y-111458257D01*
X128884474Y-111450224D01*
X128885154Y-111448729D01*
X128886744Y-111452013D01*
X128890735Y-111462131D01*
X128896933Y-111478549D01*
X128905144Y-111500733D01*
X128915173Y-111528148D01*
X128926827Y-111560261D01*
X128939910Y-111596535D01*
X128954230Y-111636437D01*
X128969591Y-111679432D01*
X128985799Y-111724986D01*
X128996489Y-111755130D01*
X129105730Y-112063543D01*
X129221948Y-112063557D01*
X129251179Y-112063481D01*
X129277714Y-112063257D01*
X129300596Y-112062907D01*
X129318864Y-112062450D01*
X129331561Y-112061908D01*
X129337728Y-112061300D01*
X129338166Y-112061084D01*
X129337021Y-112057119D01*
X129333675Y-112046142D01*
X129328268Y-112028596D01*
X129320937Y-112004926D01*
X129311821Y-111975573D01*
X129301058Y-111940982D01*
X129288786Y-111901596D01*
X129275143Y-111857857D01*
X129260267Y-111810210D01*
X129244297Y-111759098D01*
X129227370Y-111704963D01*
X129209625Y-111648250D01*
X129191199Y-111589400D01*
X129188132Y-111579609D01*
X129169514Y-111520163D01*
X129151489Y-111462594D01*
X129134200Y-111407364D01*
X129117791Y-111354931D01*
X129102406Y-111305756D01*
X129088190Y-111260300D01*
X129075285Y-111219022D01*
X129063836Y-111182383D01*
X129059652Y-111168985D01*
X129057305Y-111161468D01*
X129613574Y-111161468D01*
X129613574Y-111168985D01*
X129613590Y-111251504D01*
X129613640Y-111326530D01*
X129613726Y-111394385D01*
X129613851Y-111455388D01*
X129614018Y-111509859D01*
X129614230Y-111558120D01*
X129614488Y-111600491D01*
X129614796Y-111637291D01*
X129615157Y-111668842D01*
X129615572Y-111695464D01*
X129616045Y-111717478D01*
X129616578Y-111735203D01*
X129617174Y-111748960D01*
X129617836Y-111759070D01*
X129618494Y-111765344D01*
X129627559Y-111815954D01*
X129640159Y-111862734D01*
X129655851Y-111904123D01*
X129660813Y-111914684D01*
X129678903Y-111951354D01*
X129658935Y-112004911D01*
X129651873Y-112024015D01*
X129645909Y-112040468D01*
X129641525Y-112052909D01*
X129639207Y-112059977D01*
X129638966Y-112061019D01*
X129642682Y-112061738D01*
X129653071Y-112062329D01*
X129668992Y-112062795D01*
X129689306Y-112063137D01*
X129712873Y-112063358D01*
X129738555Y-112063459D01*
X129765210Y-112063444D01*
X129791700Y-112063313D01*
X129816886Y-112063069D01*
X129839626Y-112062714D01*
X129858783Y-112062249D01*
X129873216Y-112061678D01*
X129881785Y-112061001D01*
X129883592Y-112060581D01*
X129885677Y-112056540D01*
X129890104Y-112046073D01*
X129896532Y-112030090D01*
X129904617Y-112009501D01*
X129914016Y-111985219D01*
X129924387Y-111958152D01*
X129935388Y-111929213D01*
X129946675Y-111899311D01*
X129957906Y-111869358D01*
X129968739Y-111840263D01*
X129978830Y-111812938D01*
X129987837Y-111788294D01*
X129995418Y-111767240D01*
X130001230Y-111750688D01*
X130004929Y-111739549D01*
X130006176Y-111734783D01*
X130007519Y-111730638D01*
X130011396Y-111719788D01*
X130017582Y-111702835D01*
X130025849Y-111680382D01*
X130035972Y-111653032D01*
X130047725Y-111621390D01*
X130060880Y-111586057D01*
X130075213Y-111547637D01*
X130090495Y-111506732D01*
X130106502Y-111463947D01*
X130123007Y-111419884D01*
X130139783Y-111375146D01*
X130156605Y-111330337D01*
X130173245Y-111286059D01*
X130189478Y-111242915D01*
X130205078Y-111201509D01*
X130219817Y-111162444D01*
X130233470Y-111126323D01*
X130245811Y-111093749D01*
X130256612Y-111065325D01*
X130265649Y-111041654D01*
X130272694Y-111023339D01*
X130277521Y-111010984D01*
X130279904Y-111005191D01*
X130280044Y-111004912D01*
X130280545Y-111007811D01*
X130281001Y-111017985D01*
X130281408Y-111034895D01*
X130281762Y-111058002D01*
X130282059Y-111086770D01*
X130282296Y-111120660D01*
X130282467Y-111159132D01*
X130282570Y-111201650D01*
X130282599Y-111247674D01*
X130282552Y-111296667D01*
X130282479Y-111329430D01*
X130281584Y-111659807D01*
X130269805Y-111682837D01*
X130260050Y-111699048D01*
X130248967Y-111710641D01*
X130239020Y-111717617D01*
X130230128Y-111722764D01*
X130221914Y-111726264D01*
X130212408Y-111728537D01*
X130199645Y-111730005D01*
X130181655Y-111731091D01*
X130174623Y-111731420D01*
X130129231Y-111733473D01*
X130080298Y-111864340D01*
X130068343Y-111896337D01*
X130056710Y-111927524D01*
X130045818Y-111956767D01*
X130036089Y-111982934D01*
X130027945Y-112004891D01*
X130021807Y-112021506D01*
X130018796Y-112029717D01*
X130006227Y-112064226D01*
X130151718Y-112062627D01*
X130189834Y-112062181D01*
X130221046Y-112061726D01*
X130246264Y-112061212D01*
X130266398Y-112060587D01*
X130282358Y-112059799D01*
X130295053Y-112058797D01*
X130305392Y-112057529D01*
X130314285Y-112055943D01*
X130322641Y-112053988D01*
X130327682Y-112052643D01*
X130365758Y-112039546D01*
X130398979Y-112022075D01*
X130429631Y-111998896D01*
X130445747Y-111983709D01*
X130471427Y-111954293D01*
X130492649Y-111921730D01*
X130509858Y-111885027D01*
X130523502Y-111843189D01*
X130534026Y-111795219D01*
X130536286Y-111781748D01*
X130537251Y-111775277D01*
X130538124Y-111768371D01*
X130538909Y-111760630D01*
X130539612Y-111751651D01*
X130540236Y-111741033D01*
X130540786Y-111728374D01*
X130541268Y-111713273D01*
X130541685Y-111695328D01*
X130542042Y-111674138D01*
X130542343Y-111649301D01*
X130542594Y-111620415D01*
X130542798Y-111587079D01*
X130542961Y-111548892D01*
X130542975Y-111543908D01*
X130861698Y-111543908D01*
X130861775Y-111646503D01*
X130862199Y-111693528D01*
X130863517Y-111733915D01*
X130865918Y-111768807D01*
X130869587Y-111799346D01*
X130874711Y-111826676D01*
X130881477Y-111851939D01*
X130890072Y-111876277D01*
X130900682Y-111900835D01*
X130904697Y-111909265D01*
X130927355Y-111949087D01*
X130953723Y-111982430D01*
X130984531Y-112010041D01*
X131020510Y-112032663D01*
X131030843Y-112037839D01*
X131045796Y-112044752D01*
X131059950Y-112050628D01*
X131074073Y-112055547D01*
X131088930Y-112059588D01*
X131105289Y-112062830D01*
X131123918Y-112065355D01*
X131145582Y-112067241D01*
X131171048Y-112068568D01*
X131201085Y-112069417D01*
X131236458Y-112069867D01*
X131277935Y-112069998D01*
X131326283Y-112069890D01*
X131338289Y-112069840D01*
X131380891Y-112069640D01*
X131416462Y-112069422D01*
X131445785Y-112069151D01*
X131469642Y-112068794D01*
X131488815Y-112068316D01*
X131504087Y-112067681D01*
X131516241Y-112066857D01*
X131526057Y-112065808D01*
X131534319Y-112064499D01*
X131541810Y-112062896D01*
X131549311Y-112060966D01*
X131551193Y-112060451D01*
X131596410Y-112044533D01*
X131636736Y-112022895D01*
X131672359Y-111995345D01*
X131703469Y-111961691D01*
X131730253Y-111921737D01*
X131752901Y-111875293D01*
X131765879Y-111840372D01*
X131775103Y-111810876D01*
X131782424Y-111783051D01*
X131788034Y-111755422D01*
X131792125Y-111726509D01*
X131794887Y-111694836D01*
X131796514Y-111658926D01*
X131797196Y-111617300D01*
X131797248Y-111598699D01*
X131797136Y-111564486D01*
X131796783Y-111536964D01*
X131796134Y-111515015D01*
X131795132Y-111497518D01*
X131793723Y-111483355D01*
X131791851Y-111471405D01*
X131790679Y-111465707D01*
X131776652Y-111415755D01*
X131757109Y-111368071D01*
X131731752Y-111322304D01*
X131700282Y-111278100D01*
X131662399Y-111235110D01*
X131617805Y-111192981D01*
X131566200Y-111151362D01*
X131507285Y-111109901D01*
X131465250Y-111083067D01*
X131401797Y-111042637D01*
X131345695Y-111004072D01*
X131296754Y-110967196D01*
X131254783Y-110931833D01*
X131219591Y-110897807D01*
X131190988Y-110864942D01*
X131168783Y-110833064D01*
X131152786Y-110801994D01*
X131148444Y-110790786D01*
X131144168Y-110777260D01*
X131141410Y-110764202D01*
X131139862Y-110749233D01*
X131139219Y-110729972D01*
X131139141Y-110718659D01*
X131139058Y-110672655D01*
X131156276Y-110655437D01*
X131164535Y-110647622D01*
X131172680Y-110641320D01*
X131181638Y-110636370D01*
X131192338Y-110632610D01*
X131205707Y-110629878D01*
X131222673Y-110628014D01*
X131244166Y-110626855D01*
X131271112Y-110626239D01*
X131304441Y-110626006D01*
X131325451Y-110625983D01*
X131360504Y-110626040D01*
X131388704Y-110626317D01*
X131411011Y-110626967D01*
X131428386Y-110628145D01*
X131441789Y-110630006D01*
X131452180Y-110632704D01*
X131460518Y-110636394D01*
X131467765Y-110641230D01*
X131474880Y-110647368D01*
X131478295Y-110650596D01*
X131494779Y-110671088D01*
X131507669Y-110697672D01*
X131517070Y-110730653D01*
X131523085Y-110770334D01*
X131524361Y-110785172D01*
X131526954Y-110821307D01*
X131663105Y-110821307D01*
X131799255Y-110821307D01*
X131799255Y-110721216D01*
X131798910Y-110676654D01*
X131797788Y-110638649D01*
X131795762Y-110605973D01*
X131792706Y-110577398D01*
X131788493Y-110551696D01*
X131782995Y-110527637D01*
X131777114Y-110507234D01*
X131758534Y-110458669D01*
X131748440Y-110440368D01*
X132084429Y-110440368D01*
X132084429Y-110606368D01*
X132255338Y-110607386D01*
X132426247Y-110608403D01*
X132427234Y-111335987D01*
X132428221Y-112063571D01*
X132555161Y-112063571D01*
X132682102Y-112063571D01*
X133357945Y-112063571D01*
X133826724Y-112063571D01*
X134295503Y-112063571D01*
X134295503Y-111897545D01*
X134295503Y-111731519D01*
X133957591Y-111731519D01*
X133619680Y-111731519D01*
X133619680Y-111004912D01*
X133619680Y-110278305D01*
X133491408Y-110278305D01*
X133363136Y-110278305D01*
X133360543Y-110562502D01*
X133360236Y-110600448D01*
X133359939Y-110645482D01*
X133359655Y-110696880D01*
X133359385Y-110753917D01*
X133359132Y-110815868D01*
X133358897Y-110882009D01*
X133358684Y-110951614D01*
X133358493Y-111023960D01*
X133358327Y-111098322D01*
X133358189Y-111173974D01*
X133358080Y-111250193D01*
X133358002Y-111326253D01*
X133357958Y-111401430D01*
X133357948Y-111455135D01*
X133357945Y-112063571D01*
X132682102Y-112063571D01*
X132683088Y-111335987D01*
X132684075Y-110608403D01*
X132855027Y-110607386D01*
X133025978Y-110606368D01*
X133024959Y-110441360D01*
X133023940Y-110276352D01*
X132554185Y-110275359D01*
X132084429Y-110274367D01*
X132084429Y-110440368D01*
X131748440Y-110440368D01*
X131735119Y-110416218D01*
X131706722Y-110379751D01*
X131673203Y-110349136D01*
X131634416Y-110324241D01*
X131590218Y-110304935D01*
X131541427Y-110291291D01*
X131532671Y-110289567D01*
X131523410Y-110288140D01*
X131512838Y-110286985D01*
X131500144Y-110286073D01*
X131484520Y-110285376D01*
X131465156Y-110284868D01*
X131441246Y-110284520D01*
X131411978Y-110284306D01*
X131376545Y-110284196D01*
X131334138Y-110284165D01*
X131332430Y-110284165D01*
X131288645Y-110284189D01*
X131251819Y-110284306D01*
X131221099Y-110284576D01*
X131195631Y-110285065D01*
X131174562Y-110285835D01*
X131157038Y-110286949D01*
X131142204Y-110288472D01*
X131129209Y-110290464D01*
X131117198Y-110292991D01*
X131105317Y-110296116D01*
X131092713Y-110299901D01*
X131084368Y-110302541D01*
X131039858Y-110320322D01*
X131000503Y-110343654D01*
X130966208Y-110372660D01*
X130936880Y-110407465D01*
X130912422Y-110448190D01*
X130892741Y-110494962D01*
X130877742Y-110547902D01*
X130871222Y-110581058D01*
X130868893Y-110599316D01*
X130866860Y-110623850D01*
X130865155Y-110653129D01*
X130863811Y-110685618D01*
X130862861Y-110719787D01*
X130862337Y-110754102D01*
X130862271Y-110787032D01*
X130862695Y-110817044D01*
X130863642Y-110842605D01*
X130865145Y-110862184D01*
X130865254Y-110863139D01*
X130874953Y-110917768D01*
X130891083Y-110969411D01*
X130913959Y-111018703D01*
X130943892Y-111066276D01*
X130981198Y-111112763D01*
X130998042Y-111130973D01*
X131027606Y-111160376D01*
X131058187Y-111187776D01*
X131091064Y-111214152D01*
X131127519Y-111240483D01*
X131168834Y-111267747D01*
X131211329Y-111293953D01*
X131266711Y-111328219D01*
X131317593Y-111361707D01*
X131363607Y-111394120D01*
X131404382Y-111425156D01*
X131439548Y-111454519D01*
X131468738Y-111481908D01*
X131491581Y-111507024D01*
X131507707Y-111529569D01*
X131511885Y-111537174D01*
X131515652Y-111545150D01*
X131518332Y-111552544D01*
X131520105Y-111560874D01*
X131521155Y-111571662D01*
X131521664Y-111586428D01*
X131521813Y-111606693D01*
X131521809Y-111619975D01*
X131521258Y-111651095D01*
X131519391Y-111675510D01*
X131515739Y-111694280D01*
X131509836Y-111708468D01*
X131501215Y-111719133D01*
X131489409Y-111727338D01*
X131473951Y-111734143D01*
X131471110Y-111735172D01*
X131462675Y-111736787D01*
X131447693Y-111738258D01*
X131427429Y-111739561D01*
X131403148Y-111740676D01*
X131376115Y-111741578D01*
X131347595Y-111742246D01*
X131318852Y-111742658D01*
X131291153Y-111742790D01*
X131265761Y-111742621D01*
X131243942Y-111742129D01*
X131226961Y-111741290D01*
X131216083Y-111740083D01*
X131214436Y-111739713D01*
X131193132Y-111729917D01*
X131175258Y-111713182D01*
X131160867Y-111689616D01*
X131150013Y-111659326D01*
X131142750Y-111622419D01*
X131139632Y-111589475D01*
X131137105Y-111545961D01*
X130999401Y-111544934D01*
X130861698Y-111543908D01*
X130542975Y-111543908D01*
X130543086Y-111505451D01*
X130543179Y-111456356D01*
X130543244Y-111401204D01*
X130543286Y-111339595D01*
X130543309Y-111271126D01*
X130543318Y-111195396D01*
X130543319Y-111165078D01*
X130543314Y-111086618D01*
X130543298Y-111015574D01*
X130543265Y-110951549D01*
X130543212Y-110894149D01*
X130543132Y-110842975D01*
X130543023Y-110797631D01*
X130542879Y-110757722D01*
X130542695Y-110722849D01*
X130542468Y-110692618D01*
X130542192Y-110666630D01*
X130541863Y-110644491D01*
X130541477Y-110625803D01*
X130541028Y-110610169D01*
X130540512Y-110597194D01*
X130539926Y-110586481D01*
X130539263Y-110577632D01*
X130538520Y-110570253D01*
X130537691Y-110563945D01*
X130536774Y-110558313D01*
X130536287Y-110555666D01*
X130529664Y-110523245D01*
X130522853Y-110495725D01*
X130515078Y-110470216D01*
X130507632Y-110449294D01*
X130497773Y-110423006D01*
X130525429Y-110349448D01*
X130533840Y-110326949D01*
X130541221Y-110306959D01*
X130547157Y-110290624D01*
X130551233Y-110279087D01*
X130552752Y-110274367D01*
X130553034Y-110273491D01*
X130553085Y-110273191D01*
X130549335Y-110272525D01*
X130538714Y-110271918D01*
X130522161Y-110271392D01*
X130500619Y-110270968D01*
X130475028Y-110270667D01*
X130446328Y-110270510D01*
X130432408Y-110270492D01*
X130311731Y-110270492D01*
X130305895Y-110285141D01*
X130303505Y-110291376D01*
X130298645Y-110304247D01*
X130291573Y-110323072D01*
X130282544Y-110347164D01*
X130271815Y-110375839D01*
X130259642Y-110408412D01*
X130246281Y-110444199D01*
X130231988Y-110482514D01*
X130217100Y-110522461D01*
X130201197Y-110565119D01*
X130185229Y-110607902D01*
X130169558Y-110649843D01*
X130154548Y-110689972D01*
X130140560Y-110727321D01*
X130127958Y-110760922D01*
X130117104Y-110789807D01*
X130108360Y-110813007D01*
X130103739Y-110825214D01*
X130096998Y-110842989D01*
X130087825Y-110867200D01*
X130076550Y-110896975D01*
X130063504Y-110931442D01*
X130049017Y-110969727D01*
X130033419Y-111010959D01*
X130017040Y-111054266D01*
X130000209Y-111098774D01*
X129983258Y-111143611D01*
X129978835Y-111155312D01*
X129962784Y-111197774D01*
X129947438Y-111238360D01*
X129933040Y-111276437D01*
X129919828Y-111311368D01*
X129908043Y-111342518D01*
X129897926Y-111369251D01*
X129889717Y-111390933D01*
X129883656Y-111406928D01*
X129879984Y-111416601D01*
X129879068Y-111419000D01*
X129878179Y-111420398D01*
X129877398Y-111419409D01*
X129876719Y-111415623D01*
X129876137Y-111408627D01*
X129875648Y-111398010D01*
X129875245Y-111383359D01*
X129874924Y-111364264D01*
X129874680Y-111340313D01*
X129874507Y-111311093D01*
X129874401Y-111276194D01*
X129874355Y-111235203D01*
X129874365Y-111187708D01*
X129874426Y-111133299D01*
X129874533Y-111071562D01*
X129874557Y-111059603D01*
X129875309Y-110686533D01*
X129884308Y-110667001D01*
X129898355Y-110643311D01*
X129916310Y-110625616D01*
X129930000Y-110617039D01*
X129937319Y-110613732D01*
X129945800Y-110611292D01*
X129956926Y-110609515D01*
X129972179Y-110608199D01*
X129993041Y-110607138D01*
X130005656Y-110606654D01*
X130065687Y-110604497D01*
X130123618Y-110449044D01*
X130136016Y-110415749D01*
X130147623Y-110384527D01*
X130158141Y-110356182D01*
X130167273Y-110331517D01*
X130174722Y-110311337D01*
X130180191Y-110296443D01*
X130183382Y-110287641D01*
X130184048Y-110285720D01*
X130184510Y-110283826D01*
X130184133Y-110282270D01*
X130182240Y-110281024D01*
X130178158Y-110280062D01*
X130171212Y-110279359D01*
X130160725Y-110278886D01*
X130146024Y-110278618D01*
X130126434Y-110278528D01*
X130101279Y-110278590D01*
X130069885Y-110278778D01*
X130031576Y-110279064D01*
X130017255Y-110279176D01*
X129976379Y-110279508D01*
X129942515Y-110279832D01*
X129914865Y-110280190D01*
X129892626Y-110280625D01*
X129875001Y-110281179D01*
X129861187Y-110281896D01*
X129850386Y-110282816D01*
X129841797Y-110283984D01*
X129834619Y-110285440D01*
X129828054Y-110287229D01*
X129821301Y-110289392D01*
X129820618Y-110289619D01*
X129779178Y-110306408D01*
X129742973Y-110327599D01*
X129711721Y-110353582D01*
X129685139Y-110384743D01*
X129662943Y-110421473D01*
X129644850Y-110464160D01*
X129630578Y-110513192D01*
X129620554Y-110564398D01*
X129619586Y-110570902D01*
X129618712Y-110577874D01*
X129617926Y-110585721D01*
X129617224Y-110594849D01*
X129616601Y-110605664D01*
X129616053Y-110618570D01*
X129615574Y-110633976D01*
X129615161Y-110652285D01*
X129614808Y-110673905D01*
X129614511Y-110699241D01*
X129614265Y-110728699D01*
X129614066Y-110762684D01*
X129613908Y-110801604D01*
X129613787Y-110845864D01*
X129613698Y-110895870D01*
X129613638Y-110952027D01*
X129613600Y-111014742D01*
X129613580Y-111084420D01*
X129613574Y-111161468D01*
X129057305Y-111161468D01*
X129053987Y-111150842D01*
X129045881Y-111124861D01*
X129039662Y-111104898D01*
X129035475Y-111091415D01*
X129033462Y-111084871D01*
X129033373Y-111084571D01*
X129032665Y-111081954D01*
X129032211Y-111079161D01*
X129032157Y-111075768D01*
X129032651Y-111071354D01*
X129033840Y-111065498D01*
X129035871Y-111057777D01*
X129038893Y-111047770D01*
X129043050Y-111035054D01*
X129048492Y-111019208D01*
X129055366Y-110999810D01*
X129063817Y-110976438D01*
X129073995Y-110948670D01*
X129086045Y-110916084D01*
X129100116Y-110878259D01*
X129116354Y-110834772D01*
X129134906Y-110785202D01*
X129155921Y-110729127D01*
X129177547Y-110671450D01*
X129197517Y-110618179D01*
X129216701Y-110566971D01*
X129234921Y-110518302D01*
X129252001Y-110472642D01*
X129267765Y-110430466D01*
X129282036Y-110392247D01*
X129294639Y-110358456D01*
X129305395Y-110329568D01*
X129314129Y-110306055D01*
X129320665Y-110288391D01*
X129324825Y-110277048D01*
X129326433Y-110272499D01*
X129326447Y-110272436D01*
X129322695Y-110271962D01*
X129312058Y-110271530D01*
X129295464Y-110271155D01*
X129273839Y-110270850D01*
X129248113Y-110270630D01*
X129219213Y-110270510D01*
X129202298Y-110270492D01*
X129078149Y-110270492D01*
X128992324Y-110501401D01*
X128977213Y-110541978D01*
X128962828Y-110580456D01*
X128949411Y-110616195D01*
X128937204Y-110648560D01*
X128926448Y-110676912D01*
X128917387Y-110700613D01*
X128910261Y-110719027D01*
X128905314Y-110731515D01*
X128902786Y-110737441D01*
X128902593Y-110737782D01*
X128900878Y-110737005D01*
X128897619Y-110731658D01*
X128892666Y-110721383D01*
X128885870Y-110705820D01*
X128877080Y-110684610D01*
X128866148Y-110657397D01*
X128852925Y-110623821D01*
X128837260Y-110583523D01*
X128824645Y-110550821D01*
X128809833Y-110512337D01*
X128795339Y-110474698D01*
X128781506Y-110438797D01*
X128768678Y-110405526D01*
X128757200Y-110375777D01*
X128747417Y-110350445D01*
X128739672Y-110330419D01*
X128734309Y-110316594D01*
X128733470Y-110314440D01*
X128716337Y-110270492D01*
X128599654Y-110270492D01*
X128482971Y-110270492D01*
X128594562Y-110601567D01*
X128611849Y-110652865D01*
X128629000Y-110703777D01*
X128645771Y-110753576D01*
X128661917Y-110801536D01*
X128677194Y-110846930D01*
X128691358Y-110889033D01*
X128704163Y-110927117D01*
X128715366Y-110960456D01*
X128724722Y-110988324D01*
X128731987Y-111009994D01*
X128735514Y-111020538D01*
X128764876Y-111108434D01*
X128595980Y-111555727D01*
X128574384Y-111612926D01*
X128553406Y-111668497D01*
X128533230Y-111721955D01*
X128514037Y-111772818D01*
X128496010Y-111820602D01*
X128479330Y-111864825D01*
X128464180Y-111905004D01*
X128450742Y-111940655D01*
X128439198Y-111971295D01*
X128429731Y-111996441D01*
X128422522Y-112015610D01*
X128417753Y-112028320D01*
X128415878Y-112033350D01*
X128404672Y-112063679D01*
X126657959Y-112063679D01*
X126702170Y-111993743D01*
X126756289Y-111894204D01*
X126802907Y-111792566D01*
X126842040Y-111688770D01*
X126873705Y-111582753D01*
X126897920Y-111474457D01*
X126914701Y-111363819D01*
X126924065Y-111250780D01*
X126925389Y-111172891D01*
X127298978Y-111172891D01*
X127298978Y-112063571D01*
X127443498Y-112063571D01*
X127588018Y-112063571D01*
X127589015Y-111704014D01*
X127590012Y-111344458D01*
X127758562Y-111703038D01*
X127927113Y-112061618D01*
X128076224Y-112062641D01*
X128109396Y-112062793D01*
X128139907Y-112062786D01*
X128166925Y-112062633D01*
X128189616Y-112062343D01*
X128207149Y-112061929D01*
X128218692Y-112061402D01*
X128223411Y-112060772D01*
X128223468Y-112060643D01*
X128221436Y-112056311D01*
X128216545Y-112045372D01*
X128209023Y-112028345D01*
X128199094Y-112005750D01*
X128186984Y-111978107D01*
X128172919Y-111945935D01*
X128157124Y-111909754D01*
X128139826Y-111870084D01*
X128121249Y-111827445D01*
X128101620Y-111782356D01*
X128081165Y-111735337D01*
X128060108Y-111686907D01*
X128038677Y-111637587D01*
X128017095Y-111587896D01*
X127995590Y-111538355D01*
X127974386Y-111489481D01*
X127953710Y-111441796D01*
X127933787Y-111395819D01*
X127914843Y-111352070D01*
X127897104Y-111311068D01*
X127880794Y-111273334D01*
X127866141Y-111239386D01*
X127853369Y-111209745D01*
X127842705Y-111184931D01*
X127834373Y-111165462D01*
X127828600Y-111151859D01*
X127825612Y-111144642D01*
X127825232Y-111143593D01*
X127826843Y-111139617D01*
X127831553Y-111129000D01*
X127839160Y-111112181D01*
X127849461Y-111089600D01*
X127862254Y-111061696D01*
X127877336Y-111028910D01*
X127894504Y-110991680D01*
X127913556Y-110950446D01*
X127934289Y-110905649D01*
X127956500Y-110857726D01*
X127979987Y-110807119D01*
X128004547Y-110754266D01*
X128021517Y-110717785D01*
X128046721Y-110663604D01*
X128071018Y-110611331D01*
X128094203Y-110561409D01*
X128116071Y-110514283D01*
X128136416Y-110470396D01*
X128155033Y-110430192D01*
X128171717Y-110394114D01*
X128186263Y-110362607D01*
X128198465Y-110336114D01*
X128208118Y-110315079D01*
X128215018Y-110299945D01*
X128218957Y-110291157D01*
X128219837Y-110289048D01*
X128219960Y-110287277D01*
X128218715Y-110285841D01*
X128215375Y-110284704D01*
X128209216Y-110283832D01*
X128199513Y-110283189D01*
X128185539Y-110282743D01*
X128166569Y-110282456D01*
X128141879Y-110282295D01*
X128110743Y-110282225D01*
X128077254Y-110282211D01*
X127932686Y-110282211D01*
X127761498Y-110606450D01*
X127736819Y-110653146D01*
X127713155Y-110697828D01*
X127690762Y-110740018D01*
X127669897Y-110779237D01*
X127650815Y-110815009D01*
X127633772Y-110846854D01*
X127619023Y-110874296D01*
X127606826Y-110896857D01*
X127597435Y-110914058D01*
X127591106Y-110925421D01*
X127588096Y-110930470D01*
X127587891Y-110930689D01*
X127587542Y-110926878D01*
X127587252Y-110915829D01*
X127587020Y-110898115D01*
X127586849Y-110874310D01*
X127586739Y-110844989D01*
X127586691Y-110810725D01*
X127586707Y-110772092D01*
X127586786Y-110729666D01*
X127586932Y-110684019D01*
X127587143Y-110635725D01*
X127587298Y-110606450D01*
X127589125Y-110282211D01*
X127444052Y-110282211D01*
X127298978Y-110282211D01*
X127298978Y-111172891D01*
X126925389Y-111172891D01*
X126926029Y-111135278D01*
X126920610Y-111017253D01*
X126907825Y-110896643D01*
X126898295Y-110833027D01*
X126875605Y-110718749D01*
X126845543Y-110606685D01*
X126808259Y-110497194D01*
X126763906Y-110390633D01*
X126712637Y-110287361D01*
X126709637Y-110282211D01*
X126654605Y-110187735D01*
X126589961Y-110092114D01*
X126573109Y-110069308D01*
X126525784Y-110009528D01*
X126473127Y-109948670D01*
X126417000Y-109888708D01*
X126359261Y-109831621D01*
X126301772Y-109779385D01*
X126294034Y-109772729D01*
X126277495Y-109758312D01*
X126263279Y-109745362D01*
X126252373Y-109734824D01*
X126245767Y-109727643D01*
X126244226Y-109725063D01*
X126246707Y-109721766D01*
X126254175Y-109713590D01*
X126266672Y-109700494D01*
X126284239Y-109682438D01*
X126306916Y-109659380D01*
X126334744Y-109631281D01*
X126367763Y-109598100D01*
X126406015Y-109559795D01*
X126449540Y-109516326D01*
X126498378Y-109467652D01*
X126552571Y-109413733D01*
X126612159Y-109354528D01*
X126677183Y-109289995D01*
X126747684Y-109220095D01*
X126823702Y-109144787D01*
X126864579Y-109104313D01*
X126897083Y-109072249D01*
X126924535Y-109045453D01*
X126947332Y-109023595D01*
X126965868Y-109006342D01*
X126980541Y-108993363D01*
X126991747Y-108984327D01*
X126999881Y-108978902D01*
X127005339Y-108976757D01*
X127008519Y-108977560D01*
X127009816Y-108980980D01*
X127009898Y-108982698D01*
X127013127Y-108986794D01*
X127022356Y-108994480D01*
X127036898Y-109005302D01*
X127056069Y-109018809D01*
X127079181Y-109034547D01*
X127105548Y-109052064D01*
X127134486Y-109070906D01*
X127165306Y-109090622D01*
X127197324Y-109110758D01*
X127229854Y-109130862D01*
X127262208Y-109150481D01*
X127282489Y-109162564D01*
X127413157Y-109236393D01*
X127544948Y-109304099D01*
X127677277Y-109365436D01*
X127809558Y-109420154D01*
X127941207Y-109468006D01*
X128071638Y-109508743D01*
X128148829Y-109529607D01*
X128193658Y-109540671D01*
X128237974Y-109550979D01*
X128280850Y-109560354D01*
X128321357Y-109568618D01*
X128358569Y-109575594D01*
X128391560Y-109581105D01*
X128419401Y-109584974D01*
X128441166Y-109587023D01*
X128450417Y-109587308D01*
X128464159Y-109587654D01*
X128474225Y-109588706D01*
X128478674Y-109590247D01*
X128478739Y-109590470D01*
X128481855Y-109593152D01*
X128491423Y-109595447D01*
X128507771Y-109597394D01*
X128531230Y-109599031D01*
X128562127Y-109600394D01*
X128566621Y-109600551D01*
X128586375Y-109601418D01*
X128603096Y-109602528D01*
X128615353Y-109603757D01*
X128621714Y-109604981D01*
X128622279Y-109605372D01*
X128626359Y-109606669D01*
X128636167Y-109607282D01*
X128649641Y-109607089D01*
X128650614Y-109607045D01*
X128664079Y-109606830D01*
X128673843Y-109607483D01*
X128677938Y-109608862D01*
X128677961Y-109608998D01*
X128681591Y-109610223D01*
X128691415Y-109610997D01*
X128705821Y-109611242D01*
X128718979Y-109611020D01*
X128735812Y-109610798D01*
X128749299Y-109611157D01*
X128757830Y-109612019D01*
X128760007Y-109612974D01*
X128763721Y-109613929D01*
X128774093Y-109614770D01*
X128789968Y-109615450D01*
X128810189Y-109615924D01*
X128833604Y-109616144D01*
X128840091Y-109616155D01*
X128864148Y-109616007D01*
X128885313Y-109615595D01*
X128902432Y-109614965D01*
X128914350Y-109614161D01*
X128919911Y-109613231D01*
X128920173Y-109612974D01*
X128923806Y-109611777D01*
X128933633Y-109611026D01*
X128948041Y-109610795D01*
X128961198Y-109611020D01*
X128978031Y-109611317D01*
X128991517Y-109611159D01*
X129000044Y-109610592D01*
X129002217Y-109609906D01*
X129005856Y-109608757D01*
X129015743Y-109607409D01*
X129030321Y-109606038D01*
X129046156Y-109604932D01*
X129133189Y-109597664D01*
X129225052Y-109586131D01*
X129320239Y-109570640D01*
X129417241Y-109551493D01*
X129514550Y-109528995D01*
X129610658Y-109503450D01*
X129704058Y-109475162D01*
X129726862Y-109467679D01*
X129852408Y-109422282D01*
X129978667Y-109369710D01*
X130104761Y-109310435D01*
X130229812Y-109244930D01*
X130352940Y-109173669D01*
X130473267Y-109097124D01*
X130589913Y-109015769D01*
X130650258Y-108970621D01*
X130665339Y-108959668D01*
X130677886Y-108951731D01*
X130686574Y-108947603D01*
X130689323Y-108947265D01*
X130694073Y-108950010D01*
G37*
G36*
X134400023Y-108471831D02*
G01*
X134415019Y-108489407D01*
X134430370Y-108506774D01*
X134446861Y-108524747D01*
X134465278Y-108544144D01*
X134486406Y-108565783D01*
X134511031Y-108590482D01*
X134539937Y-108619057D01*
X134566676Y-108645259D01*
X134586294Y-108664453D01*
X134610808Y-108688474D01*
X134639550Y-108716665D01*
X134671850Y-108748370D01*
X134707041Y-108782932D01*
X134744453Y-108819695D01*
X134783418Y-108858000D01*
X134823268Y-108897191D01*
X134863334Y-108936612D01*
X134902946Y-108975605D01*
X134914681Y-108987161D01*
X134957795Y-109029604D01*
X135004353Y-109075414D01*
X135053325Y-109123578D01*
X135103679Y-109173082D01*
X135154383Y-109222913D01*
X135204408Y-109272058D01*
X135252721Y-109319503D01*
X135298292Y-109364235D01*
X135340089Y-109405241D01*
X135367834Y-109432445D01*
X135416916Y-109480565D01*
X135460700Y-109523517D01*
X135499478Y-109561596D01*
X135533543Y-109595093D01*
X135563186Y-109624301D01*
X135588698Y-109649513D01*
X135610371Y-109671021D01*
X135628497Y-109689118D01*
X135643368Y-109704098D01*
X135655275Y-109716251D01*
X135664509Y-109725872D01*
X135671364Y-109733253D01*
X135676129Y-109738686D01*
X135679098Y-109742465D01*
X135680561Y-109744881D01*
X135680811Y-109746228D01*
X135680730Y-109746413D01*
X135676957Y-109749807D01*
X135668006Y-109756831D01*
X135655065Y-109766586D01*
X135639317Y-109778167D01*
X135632355Y-109783213D01*
X135612895Y-109797440D01*
X135592962Y-109812329D01*
X135574746Y-109826224D01*
X135560436Y-109837470D01*
X135558998Y-109838635D01*
X135545866Y-109849172D01*
X135528511Y-109862895D01*
X135508916Y-109878244D01*
X135489067Y-109893660D01*
X135483076Y-109898284D01*
X135402022Y-109963000D01*
X135326234Y-110028157D01*
X135256184Y-110093297D01*
X135192341Y-110157966D01*
X135135179Y-110221708D01*
X135087413Y-110281090D01*
X135028028Y-110365733D01*
X134975512Y-110453787D01*
X134929810Y-110545394D01*
X134890864Y-110640697D01*
X134858620Y-110739837D01*
X134833022Y-110842957D01*
X134814014Y-110950198D01*
X134808840Y-110989286D01*
X134805703Y-111022421D01*
X134803459Y-111061309D01*
X134802108Y-111104012D01*
X134801652Y-111148587D01*
X134802092Y-111193093D01*
X134803428Y-111235590D01*
X134805663Y-111274136D01*
X134808665Y-111305712D01*
X134824867Y-111409796D01*
X134847832Y-111509979D01*
X134877585Y-111606312D01*
X134914149Y-111698849D01*
X134957551Y-111787642D01*
X135007814Y-111872744D01*
X135064963Y-111954208D01*
X135129024Y-112032087D01*
X135168287Y-112074528D01*
X135194608Y-112100765D01*
X135226785Y-112130935D01*
X135264894Y-112165102D01*
X135309012Y-112203331D01*
X135359214Y-112245686D01*
X135415578Y-112292232D01*
X135478179Y-112343033D01*
X135547094Y-112398154D01*
X135594391Y-112435605D01*
X135616770Y-112453436D01*
X135637059Y-112469931D01*
X135654460Y-112484418D01*
X135668177Y-112496220D01*
X135677411Y-112504664D01*
X135681368Y-112509075D01*
X135681451Y-112509303D01*
X135678887Y-112512687D01*
X135671092Y-112521484D01*
X135658263Y-112535489D01*
X135640596Y-112554494D01*
X135618287Y-112578293D01*
X135591534Y-112606679D01*
X135560532Y-112639447D01*
X135525477Y-112676388D01*
X135486567Y-112717298D01*
X135443998Y-112761968D01*
X135397966Y-112810193D01*
X135348668Y-112861767D01*
X135296299Y-112916481D01*
X135241058Y-112974131D01*
X135183139Y-113034509D01*
X135122740Y-113097409D01*
X135064881Y-113157607D01*
X135007176Y-113217617D01*
X134950768Y-113276274D01*
X134895906Y-113333320D01*
X134842840Y-113388493D01*
X134791821Y-113441536D01*
X134743097Y-113492189D01*
X134696919Y-113540191D01*
X134653535Y-113585284D01*
X134613197Y-113627208D01*
X134576153Y-113665703D01*
X134542653Y-113700510D01*
X134512947Y-113731369D01*
X134487285Y-113758021D01*
X134465916Y-113780207D01*
X134449090Y-113797666D01*
X134437057Y-113810140D01*
X134430066Y-113817368D01*
X134428555Y-113818919D01*
X134409937Y-113837832D01*
X134308772Y-113756228D01*
X134260815Y-113717705D01*
X134217851Y-113683568D01*
X134178939Y-113653114D01*
X134143142Y-113625641D01*
X134109523Y-113600447D01*
X134077142Y-113576828D01*
X134045063Y-113554084D01*
X134012345Y-113531511D01*
X133978053Y-113508407D01*
X133975170Y-113506486D01*
X133872024Y-113440638D01*
X133767085Y-113379157D01*
X133661279Y-113322502D01*
X133555534Y-113271128D01*
X133450777Y-113225494D01*
X133347937Y-113186056D01*
X133275909Y-113161851D01*
X133148399Y-113125732D01*
X133017819Y-113096792D01*
X132884183Y-113075033D01*
X132747508Y-113060455D01*
X132607808Y-113053062D01*
X132465098Y-113052853D01*
X132319393Y-113059830D01*
X132248502Y-113065723D01*
X132127858Y-113080585D01*
X132006678Y-113102325D01*
X131886187Y-113130612D01*
X131767611Y-113165116D01*
X131652174Y-113205509D01*
X131541102Y-113251459D01*
X131516035Y-113262903D01*
X131497192Y-113271656D01*
X131477501Y-113280791D01*
X131460329Y-113288743D01*
X131455484Y-113290983D01*
X131401483Y-113317452D01*
X131343106Y-113348846D01*
X131281402Y-113384467D01*
X131217422Y-113423619D01*
X131152217Y-113465605D01*
X131086837Y-113509730D01*
X131022332Y-113555296D01*
X130959753Y-113601608D01*
X130900151Y-113647968D01*
X130844575Y-113693681D01*
X130832399Y-113704094D01*
X130816118Y-113718130D01*
X130795847Y-113735610D01*
X130773512Y-113754875D01*
X130751035Y-113774264D01*
X130735763Y-113787441D01*
X130717547Y-113802851D01*
X130700948Y-113816314D01*
X130687001Y-113827039D01*
X130676740Y-113834232D01*
X130671199Y-113837099D01*
X130670978Y-113837118D01*
X130664610Y-113833841D01*
X130655879Y-113824805D01*
X130648636Y-113815151D01*
X130637155Y-113800820D01*
X130619554Y-113782197D01*
X130596084Y-113759516D01*
X130566993Y-113733010D01*
X130532532Y-113702911D01*
X130492949Y-113669453D01*
X130490565Y-113667467D01*
X130374521Y-113575309D01*
X130256948Y-113490767D01*
X130137701Y-113413769D01*
X130016635Y-113344241D01*
X129893605Y-113282110D01*
X129768467Y-113227304D01*
X129641075Y-113179750D01*
X129511285Y-113139374D01*
X129378952Y-113106104D01*
X129373848Y-113104974D01*
X129253450Y-113081841D01*
X129129069Y-113064472D01*
X129002074Y-113052936D01*
X128873832Y-113047303D01*
X128745712Y-113047644D01*
X128619082Y-113054028D01*
X128533429Y-113061977D01*
X128398171Y-113080896D01*
X128264364Y-113107470D01*
X128132116Y-113141660D01*
X128001536Y-113183423D01*
X127872733Y-113232719D01*
X127745814Y-113289507D01*
X127620889Y-113353745D01*
X127498065Y-113425393D01*
X127394688Y-113492574D01*
X127363777Y-113513851D01*
X127334445Y-113534539D01*
X127305499Y-113555531D01*
X127275744Y-113577723D01*
X127243984Y-113602008D01*
X127209027Y-113629280D01*
X127169676Y-113660436D01*
X127156392Y-113671028D01*
X127117571Y-113701963D01*
X127081806Y-113730344D01*
X127049561Y-113755805D01*
X127021303Y-113777980D01*
X126997499Y-113796505D01*
X126978615Y-113811014D01*
X126965118Y-113821142D01*
X126960783Y-113824274D01*
X126948779Y-113832757D01*
X126659983Y-113529584D01*
X126584020Y-113449836D01*
X126513149Y-113375424D01*
X126447070Y-113306034D01*
X126385482Y-113241348D01*
X126328085Y-113181049D01*
X126274578Y-113124821D01*
X126224661Y-113072348D01*
X126178034Y-113023312D01*
X126134396Y-112977398D01*
X126093447Y-112934288D01*
X126054886Y-112893666D01*
X126018414Y-112855217D01*
X125983729Y-112818622D01*
X125950532Y-112783566D01*
X125918521Y-112749731D01*
X125887397Y-112716802D01*
X125856859Y-112684462D01*
X125826606Y-112652394D01*
X125796339Y-112620282D01*
X125765757Y-112587809D01*
X125734560Y-112554658D01*
X125704400Y-112522590D01*
X125858128Y-112522590D01*
X125952301Y-112622203D01*
X126046894Y-112722200D01*
X126137207Y-112817549D01*
X126224272Y-112909333D01*
X126309117Y-112998636D01*
X126392774Y-113086541D01*
X126476271Y-113174132D01*
X126560641Y-113262491D01*
X126646912Y-113352703D01*
X126648548Y-113354412D01*
X126686124Y-113393679D01*
X126722660Y-113431870D01*
X126757729Y-113468536D01*
X126790903Y-113503230D01*
X126821756Y-113535505D01*
X126849859Y-113564913D01*
X126874785Y-113591008D01*
X126896108Y-113613342D01*
X126913398Y-113631468D01*
X126926230Y-113644939D01*
X126934175Y-113653307D01*
X126935179Y-113654369D01*
X126948227Y-113667941D01*
X126957223Y-113676435D01*
X126963264Y-113680650D01*
X126967444Y-113681386D01*
X126970243Y-113679961D01*
X126975418Y-113675673D01*
X126985226Y-113667387D01*
X126998376Y-113656202D01*
X127013575Y-113643213D01*
X127017617Y-113639750D01*
X127138266Y-113540867D01*
X127260707Y-113449580D01*
X127384985Y-113365867D01*
X127511148Y-113289707D01*
X127639243Y-113221080D01*
X127769317Y-113159964D01*
X127901417Y-113106339D01*
X128035590Y-113060183D01*
X128171882Y-113021477D01*
X128310342Y-112990198D01*
X128451015Y-112966327D01*
X128564681Y-112952598D01*
X128709457Y-112941821D01*
X128852305Y-112938530D01*
X128993303Y-112942747D01*
X129132529Y-112954492D01*
X129270062Y-112973787D01*
X129405981Y-113000653D01*
X129540363Y-113035113D01*
X129673287Y-113077188D01*
X129804832Y-113126898D01*
X129935075Y-113184266D01*
X130064095Y-113249313D01*
X130191971Y-113322060D01*
X130318780Y-113402530D01*
X130392919Y-113453488D01*
X130437845Y-113485938D01*
X130485431Y-113521544D01*
X130533753Y-113558807D01*
X130580887Y-113596223D01*
X130624908Y-113632292D01*
X130657954Y-113660347D01*
X130686647Y-113685194D01*
X130697640Y-113676190D01*
X130703942Y-113670958D01*
X130715117Y-113661612D01*
X130730068Y-113649071D01*
X130747695Y-113634258D01*
X130766899Y-113618095D01*
X130770516Y-113615048D01*
X130837346Y-113560549D01*
X130908831Y-113505569D01*
X130983117Y-113451426D01*
X131058347Y-113399433D01*
X131132664Y-113350907D01*
X131204212Y-113307160D01*
X131209375Y-113304132D01*
X131270528Y-113269786D01*
X131336783Y-113235125D01*
X131406291Y-113201001D01*
X131477202Y-113168266D01*
X131547666Y-113137773D01*
X131615835Y-113110373D01*
X131679857Y-113086919D01*
X131684014Y-113085488D01*
X131820179Y-113042911D01*
X131957666Y-113008025D01*
X132096516Y-112980823D01*
X132236773Y-112961299D01*
X132378479Y-112949447D01*
X132521677Y-112945260D01*
X132623631Y-112946914D01*
X132762180Y-112955257D01*
X132898498Y-112970618D01*
X133032849Y-112993082D01*
X133165494Y-113022733D01*
X133296699Y-113059657D01*
X133426725Y-113103937D01*
X133555837Y-113155658D01*
X133684297Y-113214906D01*
X133812370Y-113281764D01*
X133940318Y-113356317D01*
X133985362Y-113384398D01*
X134073189Y-113442013D01*
X134159966Y-113502931D01*
X134247398Y-113568385D01*
X134323639Y-113628615D01*
X134392793Y-113684488D01*
X134437268Y-113638725D01*
X134446409Y-113629267D01*
X134460489Y-113614627D01*
X134479054Y-113595280D01*
X134501654Y-113571697D01*
X134527833Y-113544353D01*
X134557141Y-113513720D01*
X134589124Y-113480271D01*
X134623329Y-113444481D01*
X134659304Y-113406822D01*
X134696597Y-113367767D01*
X134734753Y-113327789D01*
X134744519Y-113317554D01*
X134790973Y-113268874D01*
X134832461Y-113225413D01*
X134869406Y-113186737D01*
X134902230Y-113152407D01*
X134931356Y-113121987D01*
X134957207Y-113095040D01*
X134980205Y-113071129D01*
X135000773Y-113049818D01*
X135019333Y-113030669D01*
X135036309Y-113013246D01*
X135052123Y-112997111D01*
X135067198Y-112981829D01*
X135081955Y-112966961D01*
X135096819Y-112952072D01*
X135112210Y-112936723D01*
X135128553Y-112920480D01*
X135131513Y-112917542D01*
X135147648Y-112901379D01*
X135161666Y-112887051D01*
X135172694Y-112875476D01*
X135179854Y-112867573D01*
X135182276Y-112864296D01*
X135184915Y-112860843D01*
X135192332Y-112852656D01*
X135203778Y-112840521D01*
X135218503Y-112825228D01*
X135235759Y-112807563D01*
X135249663Y-112793481D01*
X135269369Y-112773532D01*
X135293201Y-112749281D01*
X135319864Y-112722050D01*
X135348065Y-112693166D01*
X135376509Y-112663952D01*
X135403903Y-112635734D01*
X135415795Y-112623452D01*
X135514539Y-112521374D01*
X135499871Y-112509283D01*
X135490715Y-112502219D01*
X135483940Y-112497864D01*
X135482110Y-112497191D01*
X135478069Y-112494779D01*
X135469514Y-112488246D01*
X135457783Y-112478648D01*
X135446865Y-112469348D01*
X135432948Y-112457518D01*
X135414666Y-112442300D01*
X135393787Y-112425147D01*
X135372078Y-112407514D01*
X135356115Y-112394690D01*
X135337650Y-112379790D01*
X135321243Y-112366272D01*
X135307902Y-112354989D01*
X135298634Y-112346793D01*
X135294448Y-112342538D01*
X135294393Y-112342450D01*
X135288449Y-112337594D01*
X135285604Y-112337025D01*
X135280528Y-112335076D01*
X135279938Y-112333526D01*
X135277129Y-112329828D01*
X135269430Y-112322144D01*
X135257936Y-112311510D01*
X135243744Y-112298960D01*
X135239897Y-112295640D01*
X135192004Y-112253668D01*
X135149481Y-112214489D01*
X135111043Y-112176804D01*
X135075405Y-112139314D01*
X135041280Y-112100719D01*
X135011163Y-112064414D01*
X134948379Y-111980579D01*
X134891757Y-111892375D01*
X134841603Y-111800417D01*
X134798223Y-111705321D01*
X134761922Y-111607701D01*
X134733007Y-111508174D01*
X134731298Y-111501276D01*
X134726316Y-111480494D01*
X134721856Y-111461066D01*
X134718351Y-111444938D01*
X134716235Y-111434051D01*
X134716016Y-111432673D01*
X134713987Y-111419892D01*
X134711991Y-111408782D01*
X134711719Y-111407437D01*
X134707229Y-111383543D01*
X134703279Y-111357333D01*
X134699735Y-111327611D01*
X134696465Y-111293179D01*
X134693336Y-111252842D01*
X134691492Y-111225629D01*
X134688852Y-111140106D01*
X134691692Y-111051340D01*
X134696045Y-110997099D01*
X134698766Y-110970477D01*
X134701247Y-110948187D01*
X134703202Y-110932642D01*
X134704711Y-110921571D01*
X134706623Y-110907334D01*
X134707413Y-110901390D01*
X134710991Y-110878498D01*
X134716236Y-110850335D01*
X134722668Y-110819145D01*
X134729811Y-110787170D01*
X134737186Y-110756653D01*
X134742968Y-110734663D01*
X134774948Y-110631161D01*
X134812594Y-110532670D01*
X134856247Y-110438481D01*
X134906247Y-110347885D01*
X134962936Y-110260175D01*
X134989458Y-110223165D01*
X134999622Y-110209139D01*
X135007775Y-110197403D01*
X135012950Y-110189379D01*
X135014297Y-110186616D01*
X135017063Y-110182426D01*
X135023751Y-110176285D01*
X135024063Y-110176038D01*
X135030889Y-110169512D01*
X135033827Y-110164410D01*
X135033829Y-110164319D01*
X135036627Y-110159296D01*
X135043380Y-110152770D01*
X135043596Y-110152599D01*
X135050437Y-110145893D01*
X135053360Y-110140398D01*
X135053362Y-110140318D01*
X135056188Y-110135271D01*
X135063305Y-110127959D01*
X135067035Y-110124809D01*
X135075313Y-110117416D01*
X135080172Y-110111554D01*
X135080707Y-110110068D01*
X135083371Y-110106339D01*
X135090782Y-110098049D01*
X135102071Y-110086066D01*
X135116368Y-110071260D01*
X135132803Y-110054498D01*
X135150508Y-110036651D01*
X135168612Y-110018587D01*
X135186246Y-110001175D01*
X135202541Y-109985284D01*
X135216626Y-109971782D01*
X135227632Y-109961540D01*
X135234689Y-109955425D01*
X135236825Y-109954066D01*
X135241184Y-109951255D01*
X135248294Y-109944066D01*
X135253062Y-109938440D01*
X135261132Y-109929495D01*
X135267927Y-109923840D01*
X135270479Y-109922814D01*
X135275932Y-109920048D01*
X135283356Y-109913192D01*
X135285198Y-109911095D01*
X135292427Y-109903582D01*
X135298047Y-109899578D01*
X135298935Y-109899375D01*
X135303839Y-109896582D01*
X135310311Y-109889839D01*
X135310492Y-109889609D01*
X135316617Y-109882819D01*
X135320851Y-109879848D01*
X135320947Y-109879843D01*
X135324912Y-109877535D01*
X135333625Y-109871257D01*
X135345782Y-109861981D01*
X135359449Y-109851183D01*
X135376574Y-109837596D01*
X135394309Y-109823774D01*
X135410174Y-109811640D01*
X135418697Y-109805281D01*
X135431739Y-109795504D01*
X135448420Y-109782692D01*
X135466308Y-109768725D01*
X135478685Y-109758917D01*
X135515155Y-109729793D01*
X135466897Y-109682740D01*
X135456865Y-109672934D01*
X135441761Y-109658133D01*
X135422081Y-109638824D01*
X135398318Y-109615494D01*
X135370968Y-109588629D01*
X135340528Y-109558716D01*
X135307491Y-109526242D01*
X135272354Y-109491694D01*
X135235611Y-109455557D01*
X135197757Y-109418319D01*
X135164578Y-109385672D01*
X135125310Y-109347048D01*
X135083967Y-109306420D01*
X135040935Y-109264164D01*
X134996597Y-109220655D01*
X134951338Y-109176268D01*
X134905541Y-109131379D01*
X134859590Y-109086364D01*
X134813870Y-109041599D01*
X134768765Y-108997458D01*
X134724660Y-108954317D01*
X134681937Y-108912552D01*
X134640981Y-108872538D01*
X134602177Y-108834651D01*
X134565909Y-108799266D01*
X134532559Y-108766759D01*
X134502514Y-108737506D01*
X134476157Y-108711881D01*
X134453871Y-108690261D01*
X134436042Y-108673020D01*
X134423053Y-108660535D01*
X134415747Y-108653608D01*
X134403567Y-108642779D01*
X134395019Y-108636792D01*
X134388478Y-108634710D01*
X134383767Y-108635184D01*
X134377523Y-108638515D01*
X134366737Y-108646079D01*
X134352692Y-108656906D01*
X134336673Y-108670025D01*
X134328550Y-108676945D01*
X134217923Y-108767348D01*
X134101938Y-108852321D01*
X133981080Y-108931617D01*
X133855835Y-109004992D01*
X133726688Y-109072201D01*
X133594126Y-109132997D01*
X133458634Y-109187136D01*
X133320698Y-109234373D01*
X133180803Y-109274462D01*
X133111836Y-109291387D01*
X133008521Y-109312974D01*
X132905034Y-109329725D01*
X132799855Y-109341807D01*
X132691464Y-109349384D01*
X132578340Y-109352624D01*
X132549301Y-109352775D01*
X132436589Y-109350911D01*
X132328327Y-109344972D01*
X132222495Y-109334716D01*
X132117075Y-109319903D01*
X132010046Y-109300289D01*
X131899391Y-109275633D01*
X131893846Y-109274293D01*
X131866561Y-109267438D01*
X131836849Y-109259564D01*
X131805644Y-109250955D01*
X131773879Y-109241897D01*
X131742487Y-109232676D01*
X131712401Y-109223575D01*
X131684554Y-109214881D01*
X131659880Y-109206878D01*
X131639310Y-109199853D01*
X131623779Y-109194089D01*
X131614220Y-109189872D01*
X131611598Y-109188021D01*
X131606871Y-109185428D01*
X131597010Y-109182294D01*
X131589136Y-109180394D01*
X131577794Y-109177351D01*
X131570401Y-109174194D01*
X131568772Y-109172445D01*
X131565427Y-109169751D01*
X131559006Y-109168862D01*
X131551662Y-109167694D01*
X131549240Y-109165455D01*
X131545789Y-109162773D01*
X131537165Y-109160206D01*
X131533614Y-109159549D01*
X131523845Y-109157133D01*
X131518396Y-109154130D01*
X131517988Y-109153190D01*
X131514653Y-109150257D01*
X131508501Y-109149329D01*
X131498591Y-109146990D01*
X131493154Y-109143470D01*
X131485429Y-109138601D01*
X131480876Y-109137610D01*
X131472936Y-109135001D01*
X131468599Y-109131750D01*
X131460136Y-109127074D01*
X131453252Y-109125890D01*
X131446042Y-109124736D01*
X131443765Y-109122611D01*
X131440494Y-109118715D01*
X131432749Y-109114394D01*
X131423635Y-109111129D01*
X131417910Y-109110264D01*
X131410387Y-109107676D01*
X131406095Y-109104405D01*
X131397575Y-109099674D01*
X131391027Y-109098545D01*
X131381539Y-109096475D01*
X131376657Y-109093444D01*
X131371869Y-109090318D01*
X131361114Y-109084204D01*
X131345394Y-109075645D01*
X131325713Y-109065179D01*
X131303075Y-109053347D01*
X131283599Y-109043308D01*
X131192770Y-108995028D01*
X131106554Y-108945471D01*
X131023276Y-108893546D01*
X130941261Y-108838163D01*
X130858834Y-108778234D01*
X130774320Y-108712667D01*
X130769204Y-108708575D01*
X130741968Y-108687080D01*
X130719845Y-108670419D01*
X130702141Y-108658199D01*
X130688164Y-108650025D01*
X130677220Y-108645503D01*
X130668617Y-108644239D01*
X130661663Y-108645838D01*
X130660245Y-108646558D01*
X130654928Y-108650412D01*
X130644942Y-108658425D01*
X130631490Y-108669601D01*
X130615779Y-108682947D01*
X130606959Y-108690548D01*
X130523132Y-108759520D01*
X130432443Y-108827280D01*
X130335820Y-108893253D01*
X130234189Y-108956862D01*
X130128476Y-109017533D01*
X130019607Y-109074689D01*
X129908509Y-109127754D01*
X129891488Y-109135425D01*
X129774881Y-109184153D01*
X129654213Y-109228050D01*
X129531021Y-109266667D01*
X129406838Y-109299556D01*
X129283201Y-109326269D01*
X129176047Y-109344316D01*
X129140356Y-109349382D01*
X129108505Y-109353597D01*
X129079248Y-109357038D01*
X129051339Y-109359781D01*
X129023533Y-109361903D01*
X128994584Y-109363479D01*
X128963248Y-109364586D01*
X128928277Y-109365301D01*
X128888427Y-109365700D01*
X128842452Y-109365859D01*
X128824463Y-109365872D01*
X128778211Y-109365814D01*
X128738795Y-109365598D01*
X128705238Y-109365198D01*
X128676565Y-109364584D01*
X128651800Y-109363730D01*
X128629966Y-109362607D01*
X128610087Y-109361188D01*
X128591187Y-109359444D01*
X128588120Y-109359126D01*
X128463216Y-109343459D01*
X128341459Y-109323148D01*
X128224385Y-109298460D01*
X128189215Y-109289943D01*
X128157668Y-109281894D01*
X128127447Y-109273877D01*
X128099511Y-109266172D01*
X128074819Y-109259059D01*
X128054331Y-109252818D01*
X128039004Y-109247729D01*
X128029800Y-109244071D01*
X128027734Y-109242812D01*
X128021054Y-109239814D01*
X128015734Y-109239179D01*
X128007298Y-109237970D01*
X127995563Y-109234925D01*
X127983188Y-109230913D01*
X127972829Y-109226805D01*
X127967143Y-109223470D01*
X127966920Y-109223192D01*
X127962442Y-109220847D01*
X127952312Y-109217267D01*
X127938457Y-109213114D01*
X127933783Y-109211833D01*
X127919175Y-109207629D01*
X127907704Y-109203786D01*
X127901297Y-109200968D01*
X127900646Y-109200414D01*
X127895809Y-109197767D01*
X127886408Y-109195125D01*
X127883975Y-109194640D01*
X127874582Y-109192040D01*
X127869578Y-109188953D01*
X127869326Y-109188217D01*
X127865982Y-109185413D01*
X127859560Y-109184488D01*
X127852218Y-109183150D01*
X127849794Y-109180581D01*
X127846451Y-109177645D01*
X127840027Y-109176675D01*
X127832686Y-109175337D01*
X127830261Y-109172768D01*
X127826918Y-109169832D01*
X127820495Y-109168862D01*
X127813153Y-109167524D01*
X127810729Y-109164955D01*
X127807386Y-109162019D01*
X127800962Y-109161049D01*
X127793618Y-109159889D01*
X127791196Y-109157663D01*
X127787865Y-109154398D01*
X127779446Y-109149788D01*
X127768305Y-109144842D01*
X127756805Y-109140565D01*
X127747309Y-109137966D01*
X127744123Y-109137610D01*
X127737539Y-109136061D01*
X127735854Y-109134401D01*
X127732115Y-109131847D01*
X127722334Y-109126429D01*
X127707514Y-109118667D01*
X127688657Y-109109081D01*
X127666764Y-109098189D01*
X127653180Y-109091532D01*
X127540631Y-109033918D01*
X127432362Y-108972733D01*
X127327033Y-108907117D01*
X127223302Y-108836210D01*
X127119830Y-108759150D01*
X127052870Y-108705998D01*
X127029420Y-108687110D01*
X127010991Y-108672813D01*
X126996655Y-108662629D01*
X126985482Y-108656083D01*
X126976547Y-108652699D01*
X126968919Y-108652001D01*
X126961672Y-108653513D01*
X126955433Y-108656036D01*
X126950965Y-108659377D01*
X126941796Y-108667484D01*
X126927868Y-108680416D01*
X126909121Y-108698230D01*
X126885498Y-108720983D01*
X126856939Y-108748734D01*
X126823385Y-108781539D01*
X126784778Y-108819457D01*
X126741060Y-108862546D01*
X126692170Y-108910862D01*
X126638052Y-108964463D01*
X126578645Y-109023408D01*
X126513891Y-109087754D01*
X126443731Y-109157558D01*
X126399847Y-109201257D01*
X125859437Y-109739542D01*
X125877016Y-109750529D01*
X125887514Y-109757949D01*
X125901495Y-109768996D01*
X125916783Y-109781912D01*
X125925847Y-109789983D01*
X125937198Y-109800197D01*
X125953319Y-109814527D01*
X125973073Y-109831973D01*
X125995325Y-109851534D01*
X126018941Y-109872211D01*
X126042785Y-109893003D01*
X126042889Y-109893094D01*
X126086615Y-109931341D01*
X126125004Y-109965418D01*
X126158797Y-109996068D01*
X126188730Y-110024033D01*
X126215542Y-110050059D01*
X126239972Y-110074888D01*
X126262757Y-110099264D01*
X126284637Y-110123930D01*
X126306348Y-110149630D01*
X126328630Y-110177108D01*
X126343166Y-110195505D01*
X126362777Y-110221401D01*
X126384769Y-110251920D01*
X126407953Y-110285291D01*
X126431140Y-110319746D01*
X126453139Y-110353513D01*
X126472762Y-110384823D01*
X126488818Y-110411907D01*
X126489846Y-110413720D01*
X126537941Y-110506483D01*
X126579190Y-110602198D01*
X126613393Y-110700234D01*
X126640350Y-110799958D01*
X126659864Y-110900738D01*
X126670417Y-110986414D01*
X126671933Y-111009755D01*
X126672897Y-111039055D01*
X126673341Y-111072772D01*
X126673291Y-111109366D01*
X126672779Y-111147295D01*
X126671832Y-111185018D01*
X126670480Y-111220994D01*
X126668752Y-111253681D01*
X126666677Y-111281539D01*
X126664456Y-111301805D01*
X126649052Y-111395662D01*
X126628935Y-111488645D01*
X126604483Y-111579491D01*
X126576073Y-111666939D01*
X126544082Y-111749726D01*
X126508889Y-111826591D01*
X126505621Y-111833088D01*
X126466019Y-111905468D01*
X126421321Y-111976195D01*
X126371171Y-112045674D01*
X126315214Y-112114312D01*
X126253093Y-112182514D01*
X126184452Y-112250684D01*
X126108936Y-112319228D01*
X126026188Y-112388551D01*
X125998056Y-112411019D01*
X125979883Y-112425512D01*
X125963786Y-112438611D01*
X125950801Y-112449452D01*
X125941962Y-112457172D01*
X125938349Y-112460827D01*
X125933048Y-112465445D01*
X125930891Y-112465940D01*
X125925421Y-112468275D01*
X125915723Y-112474444D01*
X125903497Y-112483193D01*
X125890443Y-112493266D01*
X125878262Y-112503407D01*
X125870502Y-112510518D01*
X125858128Y-112522590D01*
X125704400Y-112522590D01*
X125702447Y-112520513D01*
X125702186Y-112520236D01*
X125681614Y-112498356D01*
X125752946Y-112448145D01*
X125806715Y-112409965D01*
X125854817Y-112375060D01*
X125898257Y-112342638D01*
X125938040Y-112311913D01*
X125975172Y-112282093D01*
X126010659Y-112252389D01*
X126045506Y-112222013D01*
X126075648Y-112194823D01*
X126156846Y-112115872D01*
X126230695Y-112034297D01*
X126297227Y-111950040D01*
X126356475Y-111863043D01*
X126408468Y-111773248D01*
X126453239Y-111680596D01*
X126490819Y-111585030D01*
X126521240Y-111486492D01*
X126544533Y-111384923D01*
X126557568Y-111305076D01*
X126561186Y-111271708D01*
X126563899Y-111232752D01*
X126565698Y-111190017D01*
X126566573Y-111145311D01*
X126566515Y-111100442D01*
X126565515Y-111057220D01*
X126563562Y-111017452D01*
X126560649Y-110982948D01*
X126559303Y-110971707D01*
X126541324Y-110864555D01*
X126516103Y-110760324D01*
X126483668Y-110659079D01*
X126444051Y-110560891D01*
X126397281Y-110465827D01*
X126343390Y-110373954D01*
X126282408Y-110285341D01*
X126214365Y-110200056D01*
X126212915Y-110198364D01*
X126173728Y-110154129D01*
X126132740Y-110110745D01*
X126089262Y-110067597D01*
X126042606Y-110024065D01*
X125992083Y-109979533D01*
X125937005Y-109933384D01*
X125876682Y-109885000D01*
X125810427Y-109833763D01*
X125783820Y-109813619D01*
X125704298Y-109753728D01*
X125844371Y-109614334D01*
X125862467Y-109596321D01*
X125885703Y-109573183D01*
X125913686Y-109545312D01*
X125946024Y-109513099D01*
X125982323Y-109476936D01*
X126022190Y-109437214D01*
X126065232Y-109394325D01*
X126111058Y-109348661D01*
X126159273Y-109300613D01*
X126209485Y-109250572D01*
X126261301Y-109198930D01*
X126314327Y-109146078D01*
X126368172Y-109092409D01*
X126422442Y-109038313D01*
X126476745Y-108984182D01*
X126477434Y-108983495D01*
X126970423Y-108492050D01*
X126985838Y-108505241D01*
X127013971Y-108529240D01*
X127042136Y-108553130D01*
X127069360Y-108576096D01*
X127094669Y-108597320D01*
X127117088Y-108615986D01*
X127135643Y-108631277D01*
X127149359Y-108642375D01*
X127150532Y-108643306D01*
X127171443Y-108659835D01*
X127188052Y-108672870D01*
X127202152Y-108683769D01*
X127215537Y-108693888D01*
X127230002Y-108704585D01*
X127247339Y-108717218D01*
X127267727Y-108731974D01*
X127389419Y-108815861D01*
X127511856Y-108892065D01*
X127635339Y-108960700D01*
X127760170Y-109021882D01*
X127886653Y-109075728D01*
X128015090Y-109122354D01*
X128145782Y-109161875D01*
X128279032Y-109194407D01*
X128415143Y-109220067D01*
X128554416Y-109238971D01*
X128601793Y-109243809D01*
X128622714Y-109245300D01*
X128650231Y-109246540D01*
X128683131Y-109247530D01*
X128720202Y-109248268D01*
X128760230Y-109248754D01*
X128802002Y-109248990D01*
X128844307Y-109248975D01*
X128885930Y-109248708D01*
X128925660Y-109248190D01*
X128962282Y-109247421D01*
X128994585Y-109246401D01*
X129021355Y-109245130D01*
X129039320Y-109243809D01*
X129181111Y-109226956D01*
X129319250Y-109203306D01*
X129454170Y-109172722D01*
X129586305Y-109135066D01*
X129716089Y-109090201D01*
X129843956Y-109037988D01*
X129970340Y-108978291D01*
X130095675Y-108910971D01*
X130104431Y-108905964D01*
X130192651Y-108852973D01*
X130282732Y-108794421D01*
X130372947Y-108731572D01*
X130461568Y-108665692D01*
X130546867Y-108598044D01*
X130627118Y-108529893D01*
X130666608Y-108494375D01*
X130676609Y-108485186D01*
X130779896Y-108571848D01*
X130820021Y-108605316D01*
X130855543Y-108634465D01*
X130887661Y-108660209D01*
X130917571Y-108683464D01*
X130946471Y-108705144D01*
X130975560Y-108726165D01*
X131006035Y-108747441D01*
X131039093Y-108769888D01*
X131039443Y-108770123D01*
X131153052Y-108843035D01*
X131266491Y-108908966D01*
X131381065Y-108968612D01*
X131498080Y-109022664D01*
X131575630Y-109054952D01*
X131702262Y-109102014D01*
X131829423Y-109142170D01*
X131958020Y-109175629D01*
X132088961Y-109202598D01*
X132223154Y-109223286D01*
X132361505Y-109237900D01*
X132381322Y-109239478D01*
X132408920Y-109241121D01*
X132442695Y-109242383D01*
X132481021Y-109243263D01*
X132522271Y-109243761D01*
X132564820Y-109243877D01*
X132607040Y-109243611D01*
X132647305Y-109242963D01*
X132683989Y-109241932D01*
X132715466Y-109240519D01*
X132730953Y-109239505D01*
X132869003Y-109225268D01*
X133005112Y-109203723D01*
X133139435Y-109174816D01*
X133272127Y-109138492D01*
X133403341Y-109094695D01*
X133533233Y-109043370D01*
X133661955Y-108984463D01*
X133789662Y-108917917D01*
X133916509Y-108843679D01*
X134014235Y-108780874D01*
X134041305Y-108762339D01*
X134069553Y-108742042D01*
X134099823Y-108719335D01*
X134132956Y-108693568D01*
X134169795Y-108664093D01*
X134211183Y-108630260D01*
X134230618Y-108614185D01*
X134253277Y-108595423D01*
X134274478Y-108577934D01*
X134293330Y-108562447D01*
X134308944Y-108549692D01*
X134320429Y-108540397D01*
X134326898Y-108535290D01*
X134327266Y-108535015D01*
X134334339Y-108528491D01*
X134344538Y-108517462D01*
X134356299Y-108503671D01*
X134364405Y-108493587D01*
X134390413Y-108460389D01*
X134400023Y-108471831D01*
G37*
%LPC*%
D15*
X130810000Y-117022964D03*
D16*
X131493419Y-115278885D03*
X131846972Y-115632439D03*
X132200525Y-115985992D03*
X132554079Y-116339545D03*
D17*
X132554079Y-117706383D03*
X132200525Y-118059936D03*
X131846972Y-118413489D03*
X131493419Y-118767043D03*
D16*
X130126581Y-118767043D03*
X129773028Y-118413489D03*
X129419475Y-118059936D03*
X129065921Y-117706383D03*
D17*
X130126581Y-115278885D03*
X129773028Y-115632439D03*
X129419475Y-115985992D03*
X129065921Y-116339545D03*
D18*
X121920000Y-132080000D03*
X121920000Y-129540000D03*
X121920000Y-127000001D03*
X121920000Y-124460000D03*
X121920000Y-121920000D03*
X121920000Y-119380000D03*
X121920000Y-116840000D03*
X121920000Y-114299999D03*
X121920000Y-111760000D03*
X121920000Y-109220000D03*
X139700000Y-132080001D03*
X139700000Y-129540001D03*
X139700000Y-127000001D03*
X139700000Y-124460001D03*
X139700000Y-121920001D03*
X139700000Y-119380001D03*
X139700000Y-116840001D03*
X139700000Y-114300001D03*
X139700000Y-111760001D03*
X139700000Y-109220001D03*
%LPD*%
M02*
