%TF.GenerationSoftware,KiCad,Pcbnew,9.0.6*%
%TF.CreationDate,2025-12-31T23:13:27-06:00*%
%TF.ProjectId,QFN-16_3x3,51464e2d-3136-45f3-9378-332e6b696361,rev?*%
%TF.SameCoordinates,Original*%
%TF.FileFunction,Drillmap*%
%TF.FilePolarity,Positive*%
%FSLAX45Y45*%
G04 Gerber Fmt 4.5, Leading zero omitted, Abs format (unit mm)*
G04 Created by KiCad (PCBNEW 9.0.6) date 2025-12-31 23:13:27*
%MOMM*%
%LPD*%
G01*
G04 APERTURE LIST*
%ADD10C,0.050000*%
%ADD11C,0.200000*%
G04 APERTURE END LIST*
D10*
X12052200Y-10795336D02*
X14084200Y-10795336D01*
X14084200Y-13335336D01*
X12052200Y-13335336D01*
X12052200Y-10795336D01*
D11*
X12310477Y-13649320D02*
X12310477Y-13449320D01*
X12310477Y-13449320D02*
X12358096Y-13449320D01*
X12358096Y-13449320D02*
X12386667Y-13458843D01*
X12386667Y-13458843D02*
X12405715Y-13477891D01*
X12405715Y-13477891D02*
X12415239Y-13496939D01*
X12415239Y-13496939D02*
X12424762Y-13535034D01*
X12424762Y-13535034D02*
X12424762Y-13563605D01*
X12424762Y-13563605D02*
X12415239Y-13601701D01*
X12415239Y-13601701D02*
X12405715Y-13620748D01*
X12405715Y-13620748D02*
X12386667Y-13639796D01*
X12386667Y-13639796D02*
X12358096Y-13649320D01*
X12358096Y-13649320D02*
X12310477Y-13649320D01*
X12510477Y-13649320D02*
X12510477Y-13515986D01*
X12510477Y-13554082D02*
X12520000Y-13535034D01*
X12520000Y-13535034D02*
X12529524Y-13525510D01*
X12529524Y-13525510D02*
X12548572Y-13515986D01*
X12548572Y-13515986D02*
X12567620Y-13515986D01*
X12634286Y-13649320D02*
X12634286Y-13515986D01*
X12634286Y-13449320D02*
X12624762Y-13458843D01*
X12624762Y-13458843D02*
X12634286Y-13468367D01*
X12634286Y-13468367D02*
X12643810Y-13458843D01*
X12643810Y-13458843D02*
X12634286Y-13449320D01*
X12634286Y-13449320D02*
X12634286Y-13468367D01*
X12758096Y-13649320D02*
X12739048Y-13639796D01*
X12739048Y-13639796D02*
X12729524Y-13620748D01*
X12729524Y-13620748D02*
X12729524Y-13449320D01*
X12862858Y-13649320D02*
X12843810Y-13639796D01*
X12843810Y-13639796D02*
X12834286Y-13620748D01*
X12834286Y-13620748D02*
X12834286Y-13449320D01*
X13091429Y-13649320D02*
X13091429Y-13449320D01*
X13091429Y-13449320D02*
X13158096Y-13592177D01*
X13158096Y-13592177D02*
X13224762Y-13449320D01*
X13224762Y-13449320D02*
X13224762Y-13649320D01*
X13405715Y-13649320D02*
X13405715Y-13544558D01*
X13405715Y-13544558D02*
X13396191Y-13525510D01*
X13396191Y-13525510D02*
X13377143Y-13515986D01*
X13377143Y-13515986D02*
X13339048Y-13515986D01*
X13339048Y-13515986D02*
X13320000Y-13525510D01*
X13405715Y-13639796D02*
X13386667Y-13649320D01*
X13386667Y-13649320D02*
X13339048Y-13649320D01*
X13339048Y-13649320D02*
X13320000Y-13639796D01*
X13320000Y-13639796D02*
X13310477Y-13620748D01*
X13310477Y-13620748D02*
X13310477Y-13601701D01*
X13310477Y-13601701D02*
X13320000Y-13582653D01*
X13320000Y-13582653D02*
X13339048Y-13573129D01*
X13339048Y-13573129D02*
X13386667Y-13573129D01*
X13386667Y-13573129D02*
X13405715Y-13563605D01*
X13500953Y-13515986D02*
X13500953Y-13715986D01*
X13500953Y-13525510D02*
X13520000Y-13515986D01*
X13520000Y-13515986D02*
X13558096Y-13515986D01*
X13558096Y-13515986D02*
X13577143Y-13525510D01*
X13577143Y-13525510D02*
X13586667Y-13535034D01*
X13586667Y-13535034D02*
X13596191Y-13554082D01*
X13596191Y-13554082D02*
X13596191Y-13611224D01*
X13596191Y-13611224D02*
X13586667Y-13630272D01*
X13586667Y-13630272D02*
X13577143Y-13639796D01*
X13577143Y-13639796D02*
X13558096Y-13649320D01*
X13558096Y-13649320D02*
X13520000Y-13649320D01*
X13520000Y-13649320D02*
X13500953Y-13639796D01*
X13681905Y-13630272D02*
X13691429Y-13639796D01*
X13691429Y-13639796D02*
X13681905Y-13649320D01*
X13681905Y-13649320D02*
X13672381Y-13639796D01*
X13672381Y-13639796D02*
X13681905Y-13630272D01*
X13681905Y-13630272D02*
X13681905Y-13649320D01*
X13681905Y-13525510D02*
X13691429Y-13535034D01*
X13691429Y-13535034D02*
X13681905Y-13544558D01*
X13681905Y-13544558D02*
X13672381Y-13535034D01*
X13672381Y-13535034D02*
X13681905Y-13525510D01*
X13681905Y-13525510D02*
X13681905Y-13544558D01*
M02*
