M48
; DRILL file {KiCad 9.0.6} date 2025-12-31T23:13:27-0600
; FORMAT={-:-/ absolute / metric / decimal}
; #@! TF.CreationDate,2025-12-31T23:13:27-06:00
; #@! TF.GenerationSoftware,Kicad,Pcbnew,9.0.6
; #@! TF.FileFunction,Plated,1,2,PTH
FMAT,2
METRIC
; #@! TA.AperFunction,Plated,PTH,ComponentDrill
T1C0.300
; #@! TA.AperFunction,Plated,PTH,ComponentDrill
T2C1.000
%
G90
G05
T1
X129.961Y-117.023
X130.81Y-116.174
X130.81Y-117.871
X131.659Y-117.023
T2
X121.92Y-109.22
X121.92Y-111.76
X121.92Y-114.3
X121.92Y-116.84
X121.92Y-119.38
X121.92Y-121.92
X121.92Y-124.46
X121.92Y-127.0
X121.92Y-129.54
X121.92Y-132.08
X139.7Y-109.22
X139.7Y-111.76
X139.7Y-114.3
X139.7Y-116.84
X139.7Y-119.38
X139.7Y-121.92
X139.7Y-124.46
X139.7Y-127.0
X139.7Y-129.54
X139.7Y-132.08
M30
