G04 #@! TF.GenerationSoftware,KiCad,Pcbnew,9.0.6*
G04 #@! TF.CreationDate,2025-12-31T23:13:25-06:00*
G04 #@! TF.ProjectId,QFN-16_3x3,51464e2d-3136-45f3-9378-332e6b696361,rev?*
G04 #@! TF.SameCoordinates,Original*
G04 #@! TF.FileFunction,Copper,L2,Bot*
G04 #@! TF.FilePolarity,Positive*
%FSLAX46Y46*%
G04 Gerber Fmt 4.6, Leading zero omitted, Abs format (unit mm)*
G04 Created by KiCad (PCBNEW 9.0.6) date 2025-12-31 23:13:25*
%MOMM*%
%LPD*%
G01*
G04 APERTURE LIST*
G04 Aperture macros list*
%AMRotRect*
0 Rectangle, with rotation*
0 The origin of the aperture is its center*
0 $1 length*
0 $2 width*
0 $3 Rotation angle, in degrees counterclockwise*
0 Add horizontal line*
21,1,$1,$2,0,0,$3*%
G04 Aperture macros list end*
G04 #@! TA.AperFunction,HeatsinkPad*
%ADD10C,0.500000*%
G04 #@! TD*
G04 #@! TA.AperFunction,HeatsinkPad*
%ADD11RotRect,1.700000X1.700000X315.000000*%
G04 #@! TD*
G04 #@! TA.AperFunction,ComponentPad*
%ADD12C,1.700000*%
G04 #@! TD*
G04 #@! TA.AperFunction,SMDPad,CuDef*
%ADD13R,2.510000X1.000000*%
G04 #@! TD*
G04 #@! TA.AperFunction,Conductor*
%ADD14C,0.500000*%
G04 #@! TD*
G04 APERTURE END LIST*
D10*
X130810000Y-117871492D03*
X131658528Y-117022964D03*
D11*
X130810000Y-117022964D03*
D10*
X129961472Y-117022964D03*
X130810000Y-116174436D03*
D12*
X121920000Y-132080000D03*
X121920000Y-129540000D03*
X121920000Y-127000001D03*
X121920000Y-124460000D03*
X121920000Y-121920000D03*
X121920000Y-119380000D03*
X121920000Y-116840000D03*
X121920000Y-114299999D03*
X121920000Y-111760000D03*
X121920000Y-109220000D03*
X139700000Y-132080001D03*
X139700000Y-129540001D03*
X139700000Y-127000001D03*
X139700000Y-124460001D03*
X139700000Y-121920001D03*
X139700000Y-119380001D03*
X139700000Y-116840001D03*
X139700000Y-114300001D03*
X139700000Y-111760001D03*
X139700000Y-109220001D03*
D13*
X124610000Y-132080000D03*
X127920000Y-129540000D03*
X124610000Y-127000000D03*
X127920000Y-124460000D03*
X124610000Y-121920000D03*
X127920000Y-119380000D03*
X124610000Y-116840000D03*
X127920000Y-114300000D03*
X124610000Y-111760000D03*
X127920000Y-109220000D03*
X137010000Y-109220000D03*
X133700000Y-111760000D03*
X137010000Y-114300000D03*
X133700000Y-116840000D03*
X137010000Y-119380000D03*
X133700000Y-121920000D03*
X137010000Y-124460000D03*
X133700000Y-127000000D03*
X137010000Y-129540000D03*
X133700000Y-132080000D03*
D14*
X124610000Y-132080000D02*
X121920000Y-132080000D01*
X133700001Y-132080001D02*
X133700000Y-132080000D01*
X139700000Y-132080001D02*
X133700001Y-132080001D01*
X139699999Y-129540000D02*
X139700000Y-129540001D01*
X137010000Y-129540000D02*
X139699999Y-129540000D01*
X121920000Y-129540000D02*
X127920000Y-129540000D01*
X121920001Y-127000000D02*
X121920000Y-127000001D01*
X124610000Y-127000000D02*
X121920001Y-127000000D01*
X139700000Y-127000001D02*
X133700001Y-127000001D01*
X133700001Y-127000001D02*
X133700000Y-127000000D01*
X137010001Y-124460001D02*
X137010000Y-124460000D01*
X139700000Y-124460001D02*
X137010001Y-124460001D01*
X121920000Y-124460000D02*
X127920000Y-124460000D01*
X124610000Y-121920000D02*
X121920000Y-121920000D01*
X133700001Y-121920001D02*
X133700000Y-121920000D01*
X139700000Y-121920001D02*
X133700001Y-121920001D01*
X139699999Y-119380000D02*
X139700000Y-119380001D01*
X137010000Y-119380000D02*
X139699999Y-119380000D01*
X121920000Y-119380000D02*
X127920000Y-119380000D01*
X124610000Y-116840000D02*
X121920000Y-116840000D01*
X133700001Y-116840001D02*
X133700000Y-116840000D01*
X139700000Y-116840001D02*
X133700001Y-116840001D01*
X139699999Y-114300000D02*
X139700000Y-114300001D01*
X137010000Y-114300000D02*
X139699999Y-114300000D01*
X127919999Y-114299999D02*
X127920000Y-114300000D01*
X121920000Y-114299999D02*
X127919999Y-114299999D01*
X124610000Y-111760000D02*
X121920000Y-111760000D01*
X139700000Y-111760001D02*
X133700001Y-111760001D01*
X133700001Y-111760001D02*
X133700000Y-111760000D01*
X139699999Y-109220000D02*
X139700000Y-109220001D01*
X137010000Y-109220000D02*
X139699999Y-109220000D01*
X127920000Y-109220000D02*
X121920000Y-109220000D01*
G04 #@! TA.AperFunction,Conductor*
G36*
X140284538Y-108473544D02*
G01*
X140330293Y-108526348D01*
X140341499Y-108577859D01*
X140341499Y-110377766D01*
X140321814Y-110444805D01*
X140269010Y-110490560D01*
X140199852Y-110500504D01*
X140179181Y-110495697D01*
X140016240Y-110442754D01*
X139854957Y-110417209D01*
X139806287Y-110409501D01*
X139593713Y-110409501D01*
X139545042Y-110417209D01*
X139383760Y-110442754D01*
X139181585Y-110508445D01*
X138992179Y-110604952D01*
X138820213Y-110729891D01*
X138669892Y-110880212D01*
X138613097Y-110958386D01*
X138557767Y-111001052D01*
X138512779Y-111009501D01*
X135454751Y-111009501D01*
X135387712Y-110989816D01*
X135355485Y-110959813D01*
X135328373Y-110923596D01*
X135312546Y-110902454D01*
X135312544Y-110902453D01*
X135312544Y-110902452D01*
X135197335Y-110816206D01*
X135197328Y-110816202D01*
X135062482Y-110765908D01*
X135062483Y-110765908D01*
X135002883Y-110759501D01*
X135002881Y-110759500D01*
X135002873Y-110759500D01*
X135002864Y-110759500D01*
X132397129Y-110759500D01*
X132397123Y-110759501D01*
X132337516Y-110765908D01*
X132202671Y-110816202D01*
X132202664Y-110816206D01*
X132087455Y-110902452D01*
X132087452Y-110902455D01*
X132001206Y-111017664D01*
X132001202Y-111017671D01*
X131950908Y-111152517D01*
X131944501Y-111212116D01*
X131944501Y-111212123D01*
X131944500Y-111212135D01*
X131944500Y-112307870D01*
X131944501Y-112307876D01*
X131950908Y-112367483D01*
X132001202Y-112502328D01*
X132001206Y-112502335D01*
X132087452Y-112617544D01*
X132087455Y-112617547D01*
X132202664Y-112703793D01*
X132202671Y-112703797D01*
X132337517Y-112754091D01*
X132337516Y-112754091D01*
X132344444Y-112754835D01*
X132397127Y-112760500D01*
X135002872Y-112760499D01*
X135062483Y-112754091D01*
X135197331Y-112703796D01*
X135312546Y-112617546D01*
X135355483Y-112560188D01*
X135411416Y-112518319D01*
X135454749Y-112510501D01*
X138512779Y-112510501D01*
X138579818Y-112530186D01*
X138613097Y-112561616D01*
X138669892Y-112639789D01*
X138820213Y-112790110D01*
X138992182Y-112915051D01*
X139000946Y-112919517D01*
X139051742Y-112967492D01*
X139068536Y-113035313D01*
X139045998Y-113101448D01*
X139000946Y-113140485D01*
X138992182Y-113144950D01*
X138820215Y-113269890D01*
X138712879Y-113377226D01*
X138651556Y-113410710D01*
X138581864Y-113405726D01*
X138550889Y-113388811D01*
X138507331Y-113356204D01*
X138507328Y-113356202D01*
X138372482Y-113305908D01*
X138372483Y-113305908D01*
X138312883Y-113299501D01*
X138312881Y-113299500D01*
X138312873Y-113299500D01*
X138312864Y-113299500D01*
X135707129Y-113299500D01*
X135707123Y-113299501D01*
X135647516Y-113305908D01*
X135512671Y-113356202D01*
X135512664Y-113356206D01*
X135397455Y-113442452D01*
X135397452Y-113442455D01*
X135311206Y-113557664D01*
X135311202Y-113557671D01*
X135260908Y-113692517D01*
X135254501Y-113752116D01*
X135254501Y-113752123D01*
X135254500Y-113752135D01*
X135254500Y-114847870D01*
X135254501Y-114847876D01*
X135260908Y-114907483D01*
X135311202Y-115042328D01*
X135311206Y-115042335D01*
X135397452Y-115157544D01*
X135397455Y-115157547D01*
X135512664Y-115243793D01*
X135512671Y-115243797D01*
X135647517Y-115294091D01*
X135647516Y-115294091D01*
X135654444Y-115294835D01*
X135707127Y-115300500D01*
X138312872Y-115300499D01*
X138372483Y-115294091D01*
X138507331Y-115243796D01*
X138550887Y-115211189D01*
X138616348Y-115186772D01*
X138684621Y-115201622D01*
X138712878Y-115222775D01*
X138820213Y-115330110D01*
X138992182Y-115455051D01*
X139000946Y-115459517D01*
X139051742Y-115507492D01*
X139068536Y-115575313D01*
X139045998Y-115641448D01*
X139000946Y-115680485D01*
X138992182Y-115684950D01*
X138820213Y-115809891D01*
X138669892Y-115960212D01*
X138613097Y-116038386D01*
X138557767Y-116081052D01*
X138512779Y-116089501D01*
X135454751Y-116089501D01*
X135387712Y-116069816D01*
X135355485Y-116039813D01*
X135328373Y-116003596D01*
X135312546Y-115982454D01*
X135312544Y-115982453D01*
X135312544Y-115982452D01*
X135197335Y-115896206D01*
X135197328Y-115896202D01*
X135062482Y-115845908D01*
X135062483Y-115845908D01*
X135002883Y-115839501D01*
X135002881Y-115839500D01*
X135002873Y-115839500D01*
X135002864Y-115839500D01*
X132397129Y-115839500D01*
X132397123Y-115839501D01*
X132337516Y-115845908D01*
X132202671Y-115896202D01*
X132202664Y-115896206D01*
X132087455Y-115982452D01*
X132087452Y-115982455D01*
X132001206Y-116097664D01*
X132001202Y-116097671D01*
X131950908Y-116232517D01*
X131944501Y-116292116D01*
X131944501Y-116292123D01*
X131944500Y-116292135D01*
X131944500Y-117387870D01*
X131944501Y-117387876D01*
X131950908Y-117447483D01*
X132001202Y-117582328D01*
X132001206Y-117582335D01*
X132087452Y-117697544D01*
X132087455Y-117697547D01*
X132202664Y-117783793D01*
X132202671Y-117783797D01*
X132337517Y-117834091D01*
X132337516Y-117834091D01*
X132344444Y-117834835D01*
X132397127Y-117840500D01*
X135002872Y-117840499D01*
X135062483Y-117834091D01*
X135197331Y-117783796D01*
X135312546Y-117697546D01*
X135355483Y-117640188D01*
X135411416Y-117598319D01*
X135454749Y-117590501D01*
X138512779Y-117590501D01*
X138579818Y-117610186D01*
X138613097Y-117641616D01*
X138669892Y-117719789D01*
X138820213Y-117870110D01*
X138992182Y-117995051D01*
X139000946Y-117999517D01*
X139051742Y-118047492D01*
X139068536Y-118115313D01*
X139045998Y-118181448D01*
X139000946Y-118220485D01*
X138992182Y-118224950D01*
X138820215Y-118349890D01*
X138712879Y-118457226D01*
X138651556Y-118490710D01*
X138581864Y-118485726D01*
X138550889Y-118468811D01*
X138507331Y-118436204D01*
X138507328Y-118436202D01*
X138372482Y-118385908D01*
X138372483Y-118385908D01*
X138312883Y-118379501D01*
X138312881Y-118379500D01*
X138312873Y-118379500D01*
X138312864Y-118379500D01*
X135707129Y-118379500D01*
X135707123Y-118379501D01*
X135647516Y-118385908D01*
X135512671Y-118436202D01*
X135512664Y-118436206D01*
X135397455Y-118522452D01*
X135397452Y-118522455D01*
X135311206Y-118637664D01*
X135311202Y-118637671D01*
X135260908Y-118772517D01*
X135254501Y-118832116D01*
X135254501Y-118832123D01*
X135254500Y-118832135D01*
X135254500Y-119927870D01*
X135254501Y-119927876D01*
X135260908Y-119987483D01*
X135311202Y-120122328D01*
X135311206Y-120122335D01*
X135397452Y-120237544D01*
X135397455Y-120237547D01*
X135512664Y-120323793D01*
X135512671Y-120323797D01*
X135647517Y-120374091D01*
X135647516Y-120374091D01*
X135654444Y-120374835D01*
X135707127Y-120380500D01*
X138312872Y-120380499D01*
X138372483Y-120374091D01*
X138507331Y-120323796D01*
X138550887Y-120291189D01*
X138616348Y-120266772D01*
X138684621Y-120281622D01*
X138712878Y-120302775D01*
X138820213Y-120410110D01*
X138992182Y-120535051D01*
X139000946Y-120539517D01*
X139051742Y-120587492D01*
X139068536Y-120655313D01*
X139045998Y-120721448D01*
X139000946Y-120760485D01*
X138992182Y-120764950D01*
X138820213Y-120889891D01*
X138669892Y-121040212D01*
X138613097Y-121118386D01*
X138557767Y-121161052D01*
X138512779Y-121169501D01*
X135454751Y-121169501D01*
X135387712Y-121149816D01*
X135355485Y-121119813D01*
X135328373Y-121083596D01*
X135312546Y-121062454D01*
X135312544Y-121062453D01*
X135312544Y-121062452D01*
X135197335Y-120976206D01*
X135197328Y-120976202D01*
X135062482Y-120925908D01*
X135062483Y-120925908D01*
X135002883Y-120919501D01*
X135002881Y-120919500D01*
X135002873Y-120919500D01*
X135002864Y-120919500D01*
X132397129Y-120919500D01*
X132397123Y-120919501D01*
X132337516Y-120925908D01*
X132202671Y-120976202D01*
X132202664Y-120976206D01*
X132087455Y-121062452D01*
X132087452Y-121062455D01*
X132001206Y-121177664D01*
X132001202Y-121177671D01*
X131950908Y-121312517D01*
X131944501Y-121372116D01*
X131944501Y-121372123D01*
X131944500Y-121372135D01*
X131944500Y-122467870D01*
X131944501Y-122467876D01*
X131950908Y-122527483D01*
X132001202Y-122662328D01*
X132001206Y-122662335D01*
X132087452Y-122777544D01*
X132087455Y-122777547D01*
X132202664Y-122863793D01*
X132202671Y-122863797D01*
X132337517Y-122914091D01*
X132337516Y-122914091D01*
X132344444Y-122914835D01*
X132397127Y-122920500D01*
X135002872Y-122920499D01*
X135062483Y-122914091D01*
X135197331Y-122863796D01*
X135312546Y-122777546D01*
X135355483Y-122720188D01*
X135411416Y-122678319D01*
X135454749Y-122670501D01*
X138512779Y-122670501D01*
X138579818Y-122690186D01*
X138613097Y-122721616D01*
X138669892Y-122799789D01*
X138820213Y-122950110D01*
X138992182Y-123075051D01*
X139000946Y-123079517D01*
X139051742Y-123127492D01*
X139068536Y-123195313D01*
X139045998Y-123261448D01*
X139000946Y-123300485D01*
X138992182Y-123304950D01*
X138820215Y-123429890D01*
X138712879Y-123537226D01*
X138651556Y-123570710D01*
X138581864Y-123565726D01*
X138550889Y-123548811D01*
X138507331Y-123516204D01*
X138507328Y-123516202D01*
X138372482Y-123465908D01*
X138372483Y-123465908D01*
X138312883Y-123459501D01*
X138312881Y-123459500D01*
X138312873Y-123459500D01*
X138312864Y-123459500D01*
X135707129Y-123459500D01*
X135707123Y-123459501D01*
X135647516Y-123465908D01*
X135512671Y-123516202D01*
X135512664Y-123516206D01*
X135397455Y-123602452D01*
X135397452Y-123602455D01*
X135311206Y-123717664D01*
X135311202Y-123717671D01*
X135260908Y-123852517D01*
X135254501Y-123912116D01*
X135254501Y-123912123D01*
X135254500Y-123912135D01*
X135254500Y-125007870D01*
X135254501Y-125007876D01*
X135260908Y-125067483D01*
X135311202Y-125202328D01*
X135311206Y-125202335D01*
X135397452Y-125317544D01*
X135397455Y-125317547D01*
X135512664Y-125403793D01*
X135512671Y-125403797D01*
X135647517Y-125454091D01*
X135647516Y-125454091D01*
X135654444Y-125454835D01*
X135707127Y-125460500D01*
X138312872Y-125460499D01*
X138372483Y-125454091D01*
X138507331Y-125403796D01*
X138550887Y-125371189D01*
X138616348Y-125346772D01*
X138684621Y-125361622D01*
X138712878Y-125382775D01*
X138820213Y-125490110D01*
X138992182Y-125615051D01*
X139000946Y-125619517D01*
X139051742Y-125667492D01*
X139068536Y-125735313D01*
X139045998Y-125801448D01*
X139000946Y-125840485D01*
X138992182Y-125844950D01*
X138820213Y-125969891D01*
X138669892Y-126120212D01*
X138613097Y-126198386D01*
X138557767Y-126241052D01*
X138512779Y-126249501D01*
X135454751Y-126249501D01*
X135387712Y-126229816D01*
X135355485Y-126199813D01*
X135328373Y-126163596D01*
X135312546Y-126142454D01*
X135312544Y-126142453D01*
X135312544Y-126142452D01*
X135197335Y-126056206D01*
X135197328Y-126056202D01*
X135062482Y-126005908D01*
X135062483Y-126005908D01*
X135002883Y-125999501D01*
X135002881Y-125999500D01*
X135002873Y-125999500D01*
X135002864Y-125999500D01*
X132397129Y-125999500D01*
X132397123Y-125999501D01*
X132337516Y-126005908D01*
X132202671Y-126056202D01*
X132202664Y-126056206D01*
X132087455Y-126142452D01*
X132087452Y-126142455D01*
X132001206Y-126257664D01*
X132001202Y-126257671D01*
X131950908Y-126392517D01*
X131944501Y-126452116D01*
X131944501Y-126452123D01*
X131944500Y-126452135D01*
X131944500Y-127547870D01*
X131944501Y-127547876D01*
X131950908Y-127607483D01*
X132001202Y-127742328D01*
X132001206Y-127742335D01*
X132087452Y-127857544D01*
X132087455Y-127857547D01*
X132202664Y-127943793D01*
X132202671Y-127943797D01*
X132337517Y-127994091D01*
X132337516Y-127994091D01*
X132344444Y-127994835D01*
X132397127Y-128000500D01*
X135002872Y-128000499D01*
X135062483Y-127994091D01*
X135197331Y-127943796D01*
X135312546Y-127857546D01*
X135355483Y-127800188D01*
X135411416Y-127758319D01*
X135454749Y-127750501D01*
X138512779Y-127750501D01*
X138579818Y-127770186D01*
X138613097Y-127801616D01*
X138669892Y-127879789D01*
X138820213Y-128030110D01*
X138992182Y-128155051D01*
X139000946Y-128159517D01*
X139051742Y-128207492D01*
X139068536Y-128275313D01*
X139045998Y-128341448D01*
X139000946Y-128380485D01*
X138992182Y-128384950D01*
X138820215Y-128509890D01*
X138712879Y-128617226D01*
X138651556Y-128650710D01*
X138581864Y-128645726D01*
X138550889Y-128628811D01*
X138507331Y-128596204D01*
X138507328Y-128596202D01*
X138372482Y-128545908D01*
X138372483Y-128545908D01*
X138312883Y-128539501D01*
X138312881Y-128539500D01*
X138312873Y-128539500D01*
X138312864Y-128539500D01*
X135707129Y-128539500D01*
X135707123Y-128539501D01*
X135647516Y-128545908D01*
X135512671Y-128596202D01*
X135512664Y-128596206D01*
X135397455Y-128682452D01*
X135397452Y-128682455D01*
X135311206Y-128797664D01*
X135311202Y-128797671D01*
X135260908Y-128932517D01*
X135254501Y-128992116D01*
X135254501Y-128992123D01*
X135254500Y-128992135D01*
X135254500Y-130087870D01*
X135254501Y-130087876D01*
X135260908Y-130147483D01*
X135311202Y-130282328D01*
X135311206Y-130282335D01*
X135397452Y-130397544D01*
X135397455Y-130397547D01*
X135512664Y-130483793D01*
X135512671Y-130483797D01*
X135647517Y-130534091D01*
X135647516Y-130534091D01*
X135654444Y-130534835D01*
X135707127Y-130540500D01*
X138312872Y-130540499D01*
X138372483Y-130534091D01*
X138507331Y-130483796D01*
X138550887Y-130451189D01*
X138616348Y-130426772D01*
X138684621Y-130441622D01*
X138712878Y-130462775D01*
X138820213Y-130570110D01*
X138992179Y-130695049D01*
X138992181Y-130695050D01*
X138992184Y-130695052D01*
X139181588Y-130791558D01*
X139383757Y-130857247D01*
X139593713Y-130890501D01*
X139593714Y-130890501D01*
X139806286Y-130890501D01*
X139806287Y-130890501D01*
X140016243Y-130857247D01*
X140179184Y-130804303D01*
X140249022Y-130802309D01*
X140308855Y-130838389D01*
X140339683Y-130901090D01*
X140341499Y-130922235D01*
X140341499Y-132728859D01*
X140321814Y-132795898D01*
X140269010Y-132841653D01*
X140217499Y-132852859D01*
X121146499Y-132852859D01*
X121079460Y-132833174D01*
X121033705Y-132780370D01*
X121022499Y-132728859D01*
X121022499Y-130800230D01*
X121042184Y-130733191D01*
X121094988Y-130687436D01*
X121164146Y-130677492D01*
X121207662Y-130693193D01*
X121207843Y-130692839D01*
X121210667Y-130694277D01*
X121211288Y-130694502D01*
X121212182Y-130695049D01*
X121212184Y-130695051D01*
X121401588Y-130791557D01*
X121603757Y-130857246D01*
X121813713Y-130890500D01*
X121813714Y-130890500D01*
X122026286Y-130890500D01*
X122026287Y-130890500D01*
X122236243Y-130857246D01*
X122438412Y-130791557D01*
X122627816Y-130695051D01*
X122651984Y-130677492D01*
X122799786Y-130570109D01*
X122799788Y-130570106D01*
X122799792Y-130570104D01*
X122950104Y-130419792D01*
X122966266Y-130397547D01*
X123006903Y-130341615D01*
X123062233Y-130298949D01*
X123107221Y-130290500D01*
X126165249Y-130290500D01*
X126232288Y-130310185D01*
X126264515Y-130340188D01*
X126291627Y-130376404D01*
X126307454Y-130397546D01*
X126307457Y-130397548D01*
X126422664Y-130483793D01*
X126422671Y-130483797D01*
X126557517Y-130534091D01*
X126557516Y-130534091D01*
X126564444Y-130534835D01*
X126617127Y-130540500D01*
X129222872Y-130540499D01*
X129282483Y-130534091D01*
X129417331Y-130483796D01*
X129532546Y-130397546D01*
X129618796Y-130282331D01*
X129669091Y-130147483D01*
X129675500Y-130087873D01*
X129675499Y-128992128D01*
X129669091Y-128932517D01*
X129618796Y-128797669D01*
X129618795Y-128797668D01*
X129618793Y-128797664D01*
X129532547Y-128682455D01*
X129532544Y-128682452D01*
X129417335Y-128596206D01*
X129417328Y-128596202D01*
X129282482Y-128545908D01*
X129282483Y-128545908D01*
X129222883Y-128539501D01*
X129222881Y-128539500D01*
X129222873Y-128539500D01*
X129222864Y-128539500D01*
X126617129Y-128539500D01*
X126617123Y-128539501D01*
X126557516Y-128545908D01*
X126422671Y-128596202D01*
X126422664Y-128596206D01*
X126307457Y-128682451D01*
X126307451Y-128682457D01*
X126264515Y-128739812D01*
X126208581Y-128781682D01*
X126165249Y-128789500D01*
X123107221Y-128789500D01*
X123040182Y-128769815D01*
X123006903Y-128738385D01*
X122950107Y-128660211D01*
X122799786Y-128509890D01*
X122627817Y-128384949D01*
X122619054Y-128380484D01*
X122568258Y-128332509D01*
X122551464Y-128264688D01*
X122574002Y-128198553D01*
X122619058Y-128159514D01*
X122627816Y-128155052D01*
X122649789Y-128139087D01*
X122799786Y-128030110D01*
X122799788Y-128030107D01*
X122799792Y-128030105D01*
X122907121Y-127922776D01*
X122968444Y-127889291D01*
X123038136Y-127894275D01*
X123069113Y-127911190D01*
X123112669Y-127943796D01*
X123112670Y-127943796D01*
X123112671Y-127943797D01*
X123247517Y-127994091D01*
X123247516Y-127994091D01*
X123254444Y-127994835D01*
X123307127Y-128000500D01*
X125912872Y-128000499D01*
X125972483Y-127994091D01*
X126107331Y-127943796D01*
X126222546Y-127857546D01*
X126308796Y-127742331D01*
X126359091Y-127607483D01*
X126365500Y-127547873D01*
X126365499Y-126452128D01*
X126359091Y-126392517D01*
X126308796Y-126257669D01*
X126308795Y-126257668D01*
X126308793Y-126257664D01*
X126222547Y-126142455D01*
X126222544Y-126142452D01*
X126107335Y-126056206D01*
X126107328Y-126056202D01*
X125972482Y-126005908D01*
X125972483Y-126005908D01*
X125912883Y-125999501D01*
X125912881Y-125999500D01*
X125912873Y-125999500D01*
X125912864Y-125999500D01*
X123307129Y-125999500D01*
X123307123Y-125999501D01*
X123247516Y-126005908D01*
X123112671Y-126056202D01*
X123112665Y-126056205D01*
X123069109Y-126088811D01*
X123003644Y-126113227D01*
X122935372Y-126098374D01*
X122907119Y-126077224D01*
X122799786Y-125969891D01*
X122627817Y-125844950D01*
X122619052Y-125840484D01*
X122568257Y-125792509D01*
X122551462Y-125724688D01*
X122574000Y-125658553D01*
X122619056Y-125619514D01*
X122627816Y-125615051D01*
X122627818Y-125615049D01*
X122627821Y-125615048D01*
X122799786Y-125490109D01*
X122799788Y-125490106D01*
X122799792Y-125490104D01*
X122950104Y-125339792D01*
X122966266Y-125317547D01*
X123006903Y-125261615D01*
X123062233Y-125218949D01*
X123107221Y-125210500D01*
X126165249Y-125210500D01*
X126232288Y-125230185D01*
X126264515Y-125260188D01*
X126291627Y-125296404D01*
X126307454Y-125317546D01*
X126307457Y-125317548D01*
X126422664Y-125403793D01*
X126422671Y-125403797D01*
X126557517Y-125454091D01*
X126557516Y-125454091D01*
X126564444Y-125454835D01*
X126617127Y-125460500D01*
X129222872Y-125460499D01*
X129282483Y-125454091D01*
X129417331Y-125403796D01*
X129532546Y-125317546D01*
X129618796Y-125202331D01*
X129669091Y-125067483D01*
X129675500Y-125007873D01*
X129675499Y-123912128D01*
X129669091Y-123852517D01*
X129618796Y-123717669D01*
X129618795Y-123717668D01*
X129618793Y-123717664D01*
X129532547Y-123602455D01*
X129532544Y-123602452D01*
X129417335Y-123516206D01*
X129417328Y-123516202D01*
X129282482Y-123465908D01*
X129282483Y-123465908D01*
X129222883Y-123459501D01*
X129222881Y-123459500D01*
X129222873Y-123459500D01*
X129222864Y-123459500D01*
X126617129Y-123459500D01*
X126617123Y-123459501D01*
X126557516Y-123465908D01*
X126422671Y-123516202D01*
X126422664Y-123516206D01*
X126307457Y-123602451D01*
X126307451Y-123602457D01*
X126264515Y-123659812D01*
X126208581Y-123701682D01*
X126165249Y-123709500D01*
X123107221Y-123709500D01*
X123040182Y-123689815D01*
X123006903Y-123658385D01*
X122950107Y-123580211D01*
X122799786Y-123429890D01*
X122627820Y-123304951D01*
X122627115Y-123304591D01*
X122619054Y-123300485D01*
X122568259Y-123252512D01*
X122551463Y-123184692D01*
X122573999Y-123118556D01*
X122619054Y-123079515D01*
X122627816Y-123075051D01*
X122799792Y-122950104D01*
X122907123Y-122842772D01*
X122968442Y-122809290D01*
X123038134Y-122814274D01*
X123069112Y-122831189D01*
X123112669Y-122863796D01*
X123112671Y-122863797D01*
X123247517Y-122914091D01*
X123247516Y-122914091D01*
X123254444Y-122914835D01*
X123307127Y-122920500D01*
X125912872Y-122920499D01*
X125972483Y-122914091D01*
X126107331Y-122863796D01*
X126222546Y-122777546D01*
X126308796Y-122662331D01*
X126359091Y-122527483D01*
X126365500Y-122467873D01*
X126365499Y-121372128D01*
X126359091Y-121312517D01*
X126308796Y-121177669D01*
X126308795Y-121177668D01*
X126308793Y-121177664D01*
X126222547Y-121062455D01*
X126222544Y-121062452D01*
X126107335Y-120976206D01*
X126107328Y-120976202D01*
X125972482Y-120925908D01*
X125972483Y-120925908D01*
X125912883Y-120919501D01*
X125912881Y-120919500D01*
X125912873Y-120919500D01*
X125912864Y-120919500D01*
X123307129Y-120919500D01*
X123307123Y-120919501D01*
X123247516Y-120925908D01*
X123112671Y-120976202D01*
X123112664Y-120976206D01*
X123069111Y-121008810D01*
X123003647Y-121033227D01*
X122935374Y-121018375D01*
X122907120Y-120997224D01*
X122799786Y-120889890D01*
X122627820Y-120764951D01*
X122627115Y-120764591D01*
X122619054Y-120760485D01*
X122568259Y-120712512D01*
X122551463Y-120644692D01*
X122573999Y-120578556D01*
X122619054Y-120539515D01*
X122627816Y-120535051D01*
X122649789Y-120519086D01*
X122799786Y-120410109D01*
X122799788Y-120410106D01*
X122799792Y-120410104D01*
X122950104Y-120259792D01*
X122966266Y-120237547D01*
X123006903Y-120181615D01*
X123062233Y-120138949D01*
X123107221Y-120130500D01*
X126165249Y-120130500D01*
X126232288Y-120150185D01*
X126264515Y-120180188D01*
X126291627Y-120216404D01*
X126307454Y-120237546D01*
X126307457Y-120237548D01*
X126422664Y-120323793D01*
X126422671Y-120323797D01*
X126557517Y-120374091D01*
X126557516Y-120374091D01*
X126564444Y-120374835D01*
X126617127Y-120380500D01*
X129222872Y-120380499D01*
X129282483Y-120374091D01*
X129417331Y-120323796D01*
X129532546Y-120237546D01*
X129618796Y-120122331D01*
X129669091Y-119987483D01*
X129675500Y-119927873D01*
X129675499Y-118832128D01*
X129669091Y-118772517D01*
X129618796Y-118637669D01*
X129618795Y-118637668D01*
X129618793Y-118637664D01*
X129532547Y-118522455D01*
X129532544Y-118522452D01*
X129417335Y-118436206D01*
X129417328Y-118436202D01*
X129282482Y-118385908D01*
X129282483Y-118385908D01*
X129222883Y-118379501D01*
X129222881Y-118379500D01*
X129222873Y-118379500D01*
X129222864Y-118379500D01*
X126617129Y-118379500D01*
X126617123Y-118379501D01*
X126557516Y-118385908D01*
X126422671Y-118436202D01*
X126422664Y-118436206D01*
X126307457Y-118522451D01*
X126307451Y-118522457D01*
X126264515Y-118579812D01*
X126208581Y-118621682D01*
X126165249Y-118629500D01*
X123107221Y-118629500D01*
X123040182Y-118609815D01*
X123006903Y-118578385D01*
X122950107Y-118500211D01*
X122799786Y-118349890D01*
X122627820Y-118224951D01*
X122627115Y-118224591D01*
X122619054Y-118220485D01*
X122568259Y-118172512D01*
X122551463Y-118104692D01*
X122573999Y-118038556D01*
X122619054Y-117999515D01*
X122627816Y-117995051D01*
X122799792Y-117870104D01*
X122907123Y-117762772D01*
X122968442Y-117729290D01*
X123038134Y-117734274D01*
X123069112Y-117751189D01*
X123112669Y-117783796D01*
X123112671Y-117783797D01*
X123247517Y-117834091D01*
X123247516Y-117834091D01*
X123254444Y-117834835D01*
X123307127Y-117840500D01*
X125912872Y-117840499D01*
X125972483Y-117834091D01*
X126107331Y-117783796D01*
X126222546Y-117697546D01*
X126308796Y-117582331D01*
X126359091Y-117447483D01*
X126365500Y-117387873D01*
X126365499Y-116292128D01*
X126359091Y-116232517D01*
X126308796Y-116097669D01*
X126308795Y-116097668D01*
X126308793Y-116097664D01*
X126222547Y-115982455D01*
X126222544Y-115982452D01*
X126107335Y-115896206D01*
X126107328Y-115896202D01*
X125972482Y-115845908D01*
X125972483Y-115845908D01*
X125912883Y-115839501D01*
X125912881Y-115839500D01*
X125912873Y-115839500D01*
X125912864Y-115839500D01*
X123307129Y-115839500D01*
X123307123Y-115839501D01*
X123247516Y-115845908D01*
X123112671Y-115896202D01*
X123112664Y-115896206D01*
X123069111Y-115928810D01*
X123003647Y-115953227D01*
X122935374Y-115938375D01*
X122907120Y-115917224D01*
X122799786Y-115809890D01*
X122627817Y-115684949D01*
X122619052Y-115680483D01*
X122568257Y-115632508D01*
X122551462Y-115564687D01*
X122574000Y-115498552D01*
X122619056Y-115459513D01*
X122627816Y-115455050D01*
X122627818Y-115455048D01*
X122627821Y-115455047D01*
X122799786Y-115330108D01*
X122799788Y-115330105D01*
X122799792Y-115330103D01*
X122950104Y-115179791D01*
X122966267Y-115157544D01*
X123006903Y-115101614D01*
X123062233Y-115058948D01*
X123107221Y-115050499D01*
X126165249Y-115050499D01*
X126232288Y-115070184D01*
X126264515Y-115100187D01*
X126307455Y-115157547D01*
X126422664Y-115243793D01*
X126422671Y-115243797D01*
X126557517Y-115294091D01*
X126557516Y-115294091D01*
X126564444Y-115294835D01*
X126617127Y-115300500D01*
X129222872Y-115300499D01*
X129282483Y-115294091D01*
X129417331Y-115243796D01*
X129532546Y-115157546D01*
X129618796Y-115042331D01*
X129669091Y-114907483D01*
X129675500Y-114847873D01*
X129675499Y-113752128D01*
X129669091Y-113692517D01*
X129618796Y-113557669D01*
X129618795Y-113557668D01*
X129618793Y-113557664D01*
X129532547Y-113442455D01*
X129532544Y-113442452D01*
X129417335Y-113356206D01*
X129417328Y-113356202D01*
X129282482Y-113305908D01*
X129282483Y-113305908D01*
X129222883Y-113299501D01*
X129222881Y-113299500D01*
X129222873Y-113299500D01*
X129222864Y-113299500D01*
X126617129Y-113299500D01*
X126617123Y-113299501D01*
X126557516Y-113305908D01*
X126422671Y-113356202D01*
X126422664Y-113356206D01*
X126307456Y-113442452D01*
X126307455Y-113442453D01*
X126307454Y-113442454D01*
X126264516Y-113499811D01*
X126208584Y-113541681D01*
X126165251Y-113549499D01*
X123107221Y-113549499D01*
X123040182Y-113529814D01*
X123006903Y-113498384D01*
X122950107Y-113420210D01*
X122799786Y-113269889D01*
X122627817Y-113144948D01*
X122619054Y-113140483D01*
X122568258Y-113092508D01*
X122551464Y-113024687D01*
X122574002Y-112958552D01*
X122619058Y-112919513D01*
X122627816Y-112915051D01*
X122799792Y-112790104D01*
X122907123Y-112682772D01*
X122968442Y-112649290D01*
X123038134Y-112654274D01*
X123069112Y-112671189D01*
X123112669Y-112703796D01*
X123112671Y-112703797D01*
X123247517Y-112754091D01*
X123247516Y-112754091D01*
X123254444Y-112754835D01*
X123307127Y-112760500D01*
X125912872Y-112760499D01*
X125972483Y-112754091D01*
X126107331Y-112703796D01*
X126222546Y-112617546D01*
X126308796Y-112502331D01*
X126359091Y-112367483D01*
X126365500Y-112307873D01*
X126365499Y-111212128D01*
X126359091Y-111152517D01*
X126308796Y-111017669D01*
X126308795Y-111017668D01*
X126308793Y-111017664D01*
X126222547Y-110902455D01*
X126222544Y-110902452D01*
X126107335Y-110816206D01*
X126107328Y-110816202D01*
X125972482Y-110765908D01*
X125972483Y-110765908D01*
X125912883Y-110759501D01*
X125912881Y-110759500D01*
X125912873Y-110759500D01*
X125912864Y-110759500D01*
X123307129Y-110759500D01*
X123307123Y-110759501D01*
X123247516Y-110765908D01*
X123112671Y-110816202D01*
X123112664Y-110816206D01*
X123069111Y-110848810D01*
X123003647Y-110873227D01*
X122935374Y-110858375D01*
X122907120Y-110837224D01*
X122799786Y-110729890D01*
X122627820Y-110604951D01*
X122438414Y-110508444D01*
X122438413Y-110508443D01*
X122438412Y-110508443D01*
X122236243Y-110442754D01*
X122236241Y-110442753D01*
X122236240Y-110442753D01*
X122074957Y-110417208D01*
X122026287Y-110409500D01*
X121813713Y-110409500D01*
X121765042Y-110417208D01*
X121603760Y-110442753D01*
X121401585Y-110508444D01*
X121212172Y-110604955D01*
X121211273Y-110605506D01*
X121210885Y-110605610D01*
X121207843Y-110607161D01*
X121207517Y-110606521D01*
X121143825Y-110623740D01*
X121077225Y-110602614D01*
X121032620Y-110548836D01*
X121022499Y-110499769D01*
X121022499Y-108577859D01*
X121042184Y-108510820D01*
X121094988Y-108465065D01*
X121146499Y-108453859D01*
X140217499Y-108453859D01*
X140284538Y-108473544D01*
G37*
G04 #@! TD.AperFunction*
M02*
