G04 #@! TF.GenerationSoftware,KiCad,Pcbnew,9.0.6*
G04 #@! TF.CreationDate,2026-01-08T20:22:18-06:00*
G04 #@! TF.ProjectId,QFN-48_7x7_P0.5,51464e2d-3438-45f3-9778-375f50302e35,rev?*
G04 #@! TF.SameCoordinates,Original*
G04 #@! TF.FileFunction,Copper,L1,Top*
G04 #@! TF.FilePolarity,Positive*
%FSLAX46Y46*%
G04 Gerber Fmt 4.6, Leading zero omitted, Abs format (unit mm)*
G04 Created by KiCad (PCBNEW 9.0.6) date 2026-01-08 20:22:18*
%MOMM*%
%LPD*%
G01*
G04 APERTURE LIST*
G04 Aperture macros list*
%AMRoundRect*
0 Rectangle with rounded corners*
0 $1 Rounding radius*
0 $2 $3 $4 $5 $6 $7 $8 $9 X,Y pos of 4 corners*
0 Add a 4 corners polygon primitive as box body*
4,1,4,$2,$3,$4,$5,$6,$7,$8,$9,$2,$3,0*
0 Add four circle primitives for the rounded corners*
1,1,$1+$1,$2,$3*
1,1,$1+$1,$4,$5*
1,1,$1+$1,$6,$7*
1,1,$1+$1,$8,$9*
0 Add four rect primitives between the rounded corners*
20,1,$1+$1,$2,$3,$4,$5,0*
20,1,$1+$1,$4,$5,$6,$7,0*
20,1,$1+$1,$6,$7,$8,$9,0*
20,1,$1+$1,$8,$9,$2,$3,0*%
%AMRotRect*
0 Rectangle, with rotation*
0 The origin of the aperture is its center*
0 $1 length*
0 $2 width*
0 $3 Rotation angle, in degrees counterclockwise*
0 Add horizontal line*
21,1,$1,$2,0,0,$3*%
G04 Aperture macros list end*
G04 #@! TA.AperFunction,SMDPad,CuDef*
%ADD10RoundRect,0.062500X-0.424264X0.335876X0.335876X-0.424264X0.424264X-0.335876X-0.335876X0.424264X0*%
G04 #@! TD*
G04 #@! TA.AperFunction,SMDPad,CuDef*
%ADD11RoundRect,0.062500X-0.424264X-0.335876X-0.335876X-0.424264X0.424264X0.335876X0.335876X0.424264X0*%
G04 #@! TD*
G04 #@! TA.AperFunction,HeatsinkPad*
%ADD12C,0.500000*%
G04 #@! TD*
G04 #@! TA.AperFunction,HeatsinkPad*
%ADD13RotRect,3.500000X3.500000X315.000000*%
G04 #@! TD*
G04 #@! TA.AperFunction,ComponentPad*
%ADD14C,1.700000*%
G04 #@! TD*
G04 #@! TA.AperFunction,ComponentPad*
%ADD15R,1.700000X1.700000*%
G04 #@! TD*
G04 #@! TA.AperFunction,ViaPad*
%ADD16C,0.600000*%
G04 #@! TD*
G04 #@! TA.AperFunction,Conductor*
%ADD17C,0.200000*%
G04 #@! TD*
G04 APERTURE END LIST*
D10*
X137793604Y-116124517D03*
X137440051Y-116478070D03*
X137086496Y-116831624D03*
X136732944Y-117185177D03*
X136379391Y-117538731D03*
X136025837Y-117892284D03*
X135672284Y-118245837D03*
X135318731Y-118599391D03*
X134965177Y-118952944D03*
X134611624Y-119306496D03*
X134258070Y-119660051D03*
X133904517Y-120013604D03*
D11*
X133904517Y-121286396D03*
X134258070Y-121639949D03*
X134611624Y-121993504D03*
X134965177Y-122347056D03*
X135318731Y-122700609D03*
X135672284Y-123054163D03*
X136025837Y-123407716D03*
X136379391Y-123761269D03*
X136732944Y-124114823D03*
X137086496Y-124468376D03*
X137440051Y-124821930D03*
X137793604Y-125175483D03*
D10*
X139066396Y-125175483D03*
X139419949Y-124821930D03*
X139773504Y-124468376D03*
X140127056Y-124114823D03*
X140480609Y-123761269D03*
X140834163Y-123407716D03*
X141187716Y-123054163D03*
X141541269Y-122700609D03*
X141894823Y-122347056D03*
X142248376Y-121993504D03*
X142601930Y-121639949D03*
X142955483Y-121286396D03*
D11*
X143096905Y-119872183D03*
X142743351Y-119518629D03*
X142389797Y-119165075D03*
X142036245Y-118811522D03*
X141682690Y-118457970D03*
X141329138Y-118104416D03*
X140975584Y-117750862D03*
X140622030Y-117397310D03*
X140268478Y-117043755D03*
X139914925Y-116690203D03*
X139561371Y-116336649D03*
X139207817Y-115983095D03*
D12*
X138430000Y-118528680D03*
X137722893Y-119235786D03*
X137015786Y-119942893D03*
X136308680Y-120650000D03*
X139137107Y-119235786D03*
X138430000Y-119942893D03*
X137722893Y-120650000D03*
X137015786Y-121357107D03*
D13*
X138430000Y-120650000D03*
D12*
X139844214Y-119942893D03*
X139137107Y-120650000D03*
X138430000Y-121357107D03*
X137722893Y-122064214D03*
X140551320Y-120650000D03*
X139844214Y-121357107D03*
X139137107Y-122064214D03*
X138430000Y-122771320D03*
D14*
X127000000Y-88900000D03*
D15*
X127000000Y-91440000D03*
D14*
X127000000Y-93980000D03*
X127000000Y-96520000D03*
X127000000Y-99060000D03*
X127000000Y-101600000D03*
X127000000Y-104140000D03*
X127000000Y-106680000D03*
X127000000Y-109220000D03*
X127000000Y-111760000D03*
X127000000Y-114300000D03*
X127000000Y-116840000D03*
X127000000Y-119380000D03*
X127000000Y-121920000D03*
X127000000Y-124460000D03*
X127000000Y-127000000D03*
X127000000Y-129540000D03*
X127000000Y-132080000D03*
X127000000Y-134620000D03*
X127000000Y-137160000D03*
X127000000Y-139700000D03*
X127000000Y-142240000D03*
X127000000Y-144780000D03*
X127000000Y-147320000D03*
X127000000Y-149860000D03*
X127000000Y-152400000D03*
X149860000Y-88900000D03*
X149860000Y-91440000D03*
X149860000Y-93980000D03*
X149860000Y-96520000D03*
X149860000Y-99060000D03*
X149860000Y-101600000D03*
X149860000Y-104140000D03*
X149860000Y-106680000D03*
X149860000Y-109220000D03*
X149860000Y-111760000D03*
X149860000Y-114300000D03*
X149860000Y-116840000D03*
X149860000Y-119380000D03*
X149860000Y-121920000D03*
X149860000Y-124460000D03*
X149860000Y-127000000D03*
X149860000Y-129540000D03*
X149860000Y-132080000D03*
X149860000Y-134620000D03*
X149860000Y-137160000D03*
X149860000Y-139700000D03*
X149860000Y-142240000D03*
X149860000Y-144780000D03*
X149860000Y-147320000D03*
X149860000Y-149860000D03*
X149860000Y-152400000D03*
D16*
X138430000Y-101346000D03*
X138430000Y-139827000D03*
X138430000Y-115062000D03*
X138430000Y-126238000D03*
D17*
X146558000Y-111461340D02*
X146558000Y-110236000D01*
X140339188Y-117680152D02*
X146558000Y-111461340D01*
X147574000Y-109982000D02*
X147574000Y-108204000D01*
X147066000Y-110490000D02*
X147574000Y-109982000D01*
X148082000Y-110236000D02*
X148082000Y-108458000D01*
X143589087Y-119380000D02*
X149860000Y-119380000D01*
X147574000Y-110744000D02*
X148082000Y-110236000D01*
X148082000Y-108458000D02*
X149860000Y-106680000D01*
X147574000Y-105664000D02*
X148082000Y-105156000D01*
X141399848Y-118740812D02*
X148082000Y-112058660D01*
X148082000Y-107696000D02*
X148082000Y-105918000D01*
X145421981Y-116840000D02*
X149860000Y-116840000D01*
X148082000Y-105918000D02*
X149860000Y-104140000D01*
X141046295Y-118387258D02*
X147574000Y-111859553D01*
X148082000Y-110998000D02*
X149860000Y-109220000D01*
X147254873Y-114300000D02*
X149860000Y-114300000D01*
X139985635Y-117326598D02*
X146050000Y-111262233D01*
X148082000Y-103378000D02*
X149860000Y-101600000D01*
X147066000Y-109728000D02*
X147066000Y-107950000D01*
X142814062Y-120155025D02*
X143589087Y-119380000D01*
X149087767Y-111760000D02*
X149860000Y-111760000D01*
X142106955Y-119447918D02*
X147254873Y-114300000D01*
X140692742Y-118033705D02*
X147066000Y-111660447D01*
X147574000Y-108204000D02*
X148082000Y-107696000D01*
X147574000Y-111859553D02*
X147574000Y-110744000D01*
X148082000Y-112058660D02*
X148082000Y-110998000D01*
X142460509Y-119801472D02*
X145421981Y-116840000D01*
X141753402Y-119094365D02*
X149087767Y-111760000D01*
X148082000Y-105156000D02*
X148082000Y-103378000D01*
X147574000Y-107442000D02*
X147574000Y-105664000D01*
X147066000Y-107950000D02*
X147574000Y-107442000D01*
X146558000Y-110236000D02*
X147066000Y-109728000D01*
X147066000Y-111660447D02*
X147066000Y-110490000D01*
X145542000Y-107188000D02*
X146050000Y-106680000D01*
X146558000Y-107696000D02*
X147066000Y-107188000D01*
X148082000Y-100838000D02*
X149860000Y-99060000D01*
X148082000Y-102616000D02*
X148082000Y-100838000D01*
X147574000Y-103124000D02*
X148082000Y-102616000D01*
X147574000Y-104902000D02*
X147574000Y-103124000D01*
X147066000Y-105410000D02*
X147574000Y-104902000D01*
X147066000Y-107188000D02*
X147066000Y-105410000D01*
X146050000Y-111262233D02*
X146050000Y-109982000D01*
X146558000Y-109474000D02*
X146558000Y-107696000D01*
X146050000Y-109982000D02*
X146558000Y-109474000D01*
X145542000Y-134874000D02*
X145542000Y-136652000D01*
X147574000Y-140716000D02*
X148082000Y-141224000D01*
X148082000Y-145542000D02*
X149860000Y-147320000D01*
X146050000Y-134620000D02*
X146050000Y-136398000D01*
X145034000Y-131826000D02*
X145542000Y-132334000D01*
X139278528Y-124680509D02*
X145034000Y-130435981D01*
X148082000Y-146304000D02*
X148082000Y-148082000D01*
X146050000Y-138938000D02*
X146558000Y-139446000D01*
X147574000Y-141478000D02*
X147574000Y-143256000D01*
X145034000Y-134366000D02*
X145542000Y-134874000D01*
X147066000Y-140970000D02*
X147574000Y-141478000D01*
X146558000Y-138684000D02*
X147066000Y-139192000D01*
X146558000Y-141224000D02*
X147066000Y-141732000D01*
X145542000Y-136652000D02*
X146050000Y-137160000D01*
X147066000Y-139192000D02*
X147066000Y-140970000D01*
X148082000Y-141224000D02*
X148082000Y-143002000D01*
X147066000Y-141732000D02*
X147066000Y-143510000D01*
X145034000Y-130435981D02*
X145034000Y-131826000D01*
X145034000Y-132588000D02*
X145034000Y-134366000D01*
X148082000Y-143764000D02*
X148082000Y-145542000D01*
X147574000Y-144018000D02*
X147574000Y-145796000D01*
X147066000Y-143510000D02*
X147574000Y-144018000D01*
X145542000Y-134112000D02*
X146050000Y-134620000D01*
X145542000Y-132334000D02*
X145542000Y-134112000D01*
X147574000Y-145796000D02*
X148082000Y-146304000D01*
X146558000Y-139446000D02*
X146558000Y-141224000D01*
X138924975Y-125034062D02*
X144526000Y-130635087D01*
X148082000Y-148082000D02*
X149860000Y-149860000D01*
X146050000Y-136398000D02*
X146558000Y-136906000D01*
X148082000Y-143002000D02*
X149860000Y-144780000D01*
X144526000Y-132080000D02*
X145034000Y-132588000D01*
X147574000Y-143256000D02*
X148082000Y-143764000D01*
X144526000Y-130635087D02*
X144526000Y-132080000D01*
X146558000Y-136906000D02*
X146558000Y-138684000D01*
X146050000Y-137160000D02*
X146050000Y-138938000D01*
X147574000Y-100584000D02*
X148082000Y-100076000D01*
X148082000Y-98298000D02*
X149860000Y-96520000D01*
X147574000Y-98044000D02*
X148082000Y-97536000D01*
X139278528Y-116619491D02*
X145034000Y-110864019D01*
X145034000Y-110864019D02*
X145034000Y-109474000D01*
X148082000Y-100076000D02*
X148082000Y-98298000D01*
X145034000Y-109474000D02*
X145542000Y-108966000D01*
X147574000Y-102362000D02*
X147574000Y-100584000D01*
X146050000Y-132080000D02*
X146050000Y-133858000D01*
X148082000Y-140462000D02*
X149860000Y-142240000D01*
X146558000Y-133604000D02*
X147066000Y-134112000D01*
X147066000Y-134112000D02*
X147066000Y-135890000D01*
X147574000Y-138938000D02*
X147574000Y-140716000D01*
X147066000Y-138430000D02*
X147574000Y-138938000D01*
X147066000Y-136652000D02*
X147066000Y-138430000D01*
X147574000Y-136398000D02*
X147574000Y-138176000D01*
X146558000Y-136144000D02*
X147066000Y-136652000D01*
X146050000Y-133858000D02*
X146558000Y-134366000D01*
X145542000Y-131572000D02*
X146050000Y-132080000D01*
X147066000Y-135890000D02*
X147574000Y-136398000D01*
X146558000Y-134366000D02*
X146558000Y-136144000D01*
X139632082Y-124326955D02*
X145542000Y-130236873D01*
X146558000Y-131826000D02*
X146558000Y-133604000D01*
X145542000Y-130236873D02*
X145542000Y-131572000D01*
X148082000Y-138684000D02*
X148082000Y-140462000D01*
X147574000Y-138176000D02*
X148082000Y-138684000D01*
X146050000Y-131318000D02*
X146558000Y-131826000D01*
X146050000Y-130037767D02*
X146050000Y-131318000D01*
X147254873Y-127000000D02*
X149860000Y-127000000D01*
X145421981Y-124460000D02*
X149860000Y-124460000D01*
X147066000Y-100330000D02*
X147574000Y-99822000D01*
X148082000Y-130302000D02*
X149860000Y-132080000D01*
X147066000Y-97790000D02*
X147574000Y-97282000D01*
X147574000Y-95504000D02*
X148082000Y-94996000D01*
X145542000Y-104648000D02*
X146050000Y-104140000D01*
X146050000Y-102362000D02*
X146558000Y-101854000D01*
X145034000Y-108712000D02*
X145034000Y-106934000D01*
X146558000Y-104394000D02*
X146558000Y-102616000D01*
X147066000Y-102108000D02*
X147066000Y-100330000D01*
X147574000Y-133096000D02*
X148082000Y-133604000D01*
X147574000Y-133858000D02*
X147574000Y-135636000D01*
X147066000Y-129639553D02*
X147066000Y-130810000D01*
X140692742Y-123266295D02*
X147066000Y-129639553D01*
X141753402Y-122205635D02*
X149087767Y-129540000D01*
X148082000Y-94996000D02*
X148082000Y-93218000D01*
X139985635Y-123973402D02*
X146050000Y-130037767D01*
X148082000Y-137922000D02*
X149860000Y-139700000D01*
X148082000Y-136144000D02*
X148082000Y-137922000D01*
X147574000Y-135636000D02*
X148082000Y-136144000D01*
X142106955Y-121852082D02*
X147254873Y-127000000D01*
X147066000Y-131572000D02*
X147066000Y-133350000D01*
X148082000Y-93218000D02*
X149860000Y-91440000D01*
X146050000Y-106680000D02*
X146050000Y-104902000D01*
X148082000Y-95758000D02*
X149860000Y-93980000D01*
X146558000Y-131064000D02*
X147066000Y-131572000D01*
X140339188Y-123619848D02*
X146558000Y-129838660D01*
X147574000Y-130556000D02*
X148082000Y-131064000D01*
X141399848Y-122559188D02*
X148082000Y-129241340D01*
X142460509Y-121498528D02*
X145421981Y-124460000D01*
X148082000Y-97536000D02*
X148082000Y-95758000D01*
X148082000Y-131064000D02*
X148082000Y-132842000D01*
X147066000Y-130810000D02*
X147574000Y-131318000D01*
X138924975Y-116265938D02*
X144526000Y-110664913D01*
X146558000Y-100076000D02*
X147066000Y-99568000D01*
X147574000Y-97282000D02*
X147574000Y-95504000D01*
X144526000Y-110664913D02*
X144526000Y-109220000D01*
X142814062Y-121144975D02*
X143589087Y-121920000D01*
X146050000Y-104902000D02*
X146558000Y-104394000D01*
X146558000Y-129838660D02*
X146558000Y-131064000D01*
X148082000Y-133604000D02*
X148082000Y-135382000D01*
X148082000Y-132842000D02*
X149860000Y-134620000D01*
X144526000Y-109220000D02*
X145034000Y-108712000D01*
X147574000Y-129440447D02*
X147574000Y-130556000D01*
X149087767Y-129540000D02*
X149860000Y-129540000D01*
X147066000Y-99568000D02*
X147066000Y-97790000D01*
X148082000Y-129241340D02*
X148082000Y-130302000D01*
X147066000Y-133350000D02*
X147574000Y-133858000D01*
X148082000Y-135382000D02*
X149860000Y-137160000D01*
X146558000Y-101854000D02*
X146558000Y-100076000D01*
X146050000Y-104140000D02*
X146050000Y-102362000D01*
X147574000Y-131318000D02*
X147574000Y-133096000D01*
X141046295Y-122912742D02*
X147574000Y-129440447D01*
X145034000Y-106934000D02*
X145542000Y-106426000D01*
X146558000Y-102616000D02*
X147066000Y-102108000D01*
X145542000Y-106426000D02*
X145542000Y-104648000D01*
X143589087Y-121920000D02*
X149860000Y-121920000D01*
X147574000Y-99822000D02*
X147574000Y-98044000D01*
X145542000Y-108966000D02*
X145542000Y-107188000D01*
X146558000Y-106934000D02*
X146558000Y-105156000D01*
X146050000Y-107442000D02*
X146558000Y-106934000D01*
X146050000Y-109220000D02*
X146050000Y-107442000D01*
X145542000Y-109728000D02*
X146050000Y-109220000D01*
X145542000Y-111063127D02*
X145542000Y-109728000D01*
X139632082Y-116973045D02*
X145542000Y-111063127D01*
X146558000Y-105156000D02*
X147066000Y-104648000D01*
X147066000Y-102870000D02*
X147574000Y-102362000D01*
X147066000Y-104648000D02*
X147066000Y-102870000D01*
X128778000Y-148082000D02*
X127000000Y-149860000D01*
X128778000Y-146304000D02*
X128778000Y-148082000D01*
X129286000Y-145796000D02*
X128778000Y-146304000D01*
X129286000Y-144018000D02*
X129286000Y-145796000D01*
X129794000Y-143510000D02*
X129286000Y-144018000D01*
X129794000Y-141732000D02*
X129794000Y-143510000D01*
X130302000Y-141224000D02*
X129794000Y-141732000D01*
X130302000Y-139446000D02*
X130302000Y-141224000D01*
X130810000Y-138938000D02*
X130302000Y-139446000D01*
X130810000Y-137160000D02*
X130810000Y-138938000D01*
X131318000Y-136652000D02*
X130810000Y-137160000D01*
X131318000Y-134874000D02*
X131318000Y-136652000D01*
X131826000Y-134366000D02*
X131318000Y-134874000D01*
X131826000Y-132588000D02*
X131826000Y-134366000D01*
X132334000Y-132080000D02*
X131826000Y-132588000D01*
X132334000Y-130635087D02*
X132334000Y-132080000D01*
X137935025Y-125034062D02*
X132334000Y-130635087D01*
X128778000Y-143764000D02*
X128778000Y-145542000D01*
X129286000Y-143256000D02*
X128778000Y-143764000D01*
X129286000Y-141478000D02*
X129286000Y-143256000D01*
X128778000Y-145542000D02*
X127000000Y-147320000D01*
X129794000Y-139192000D02*
X129794000Y-140970000D01*
X130302000Y-138684000D02*
X129794000Y-139192000D01*
X130302000Y-136906000D02*
X130302000Y-138684000D01*
X129794000Y-140970000D02*
X129286000Y-141478000D01*
X130810000Y-136398000D02*
X130302000Y-136906000D01*
X130810000Y-134620000D02*
X130810000Y-136398000D01*
X131318000Y-132334000D02*
X131318000Y-134112000D01*
X131826000Y-131826000D02*
X131318000Y-132334000D01*
X131826000Y-130435981D02*
X131826000Y-131826000D01*
X137581472Y-124680509D02*
X131826000Y-130435981D01*
X131318000Y-134112000D02*
X130810000Y-134620000D01*
X128778000Y-143002000D02*
X127000000Y-144780000D01*
X128778000Y-141224000D02*
X128778000Y-143002000D01*
X129286000Y-140716000D02*
X128778000Y-141224000D01*
X129286000Y-138938000D02*
X129286000Y-140716000D01*
X129794000Y-138430000D02*
X129286000Y-138938000D01*
X129794000Y-136652000D02*
X129794000Y-138430000D01*
X130302000Y-136144000D02*
X129794000Y-136652000D01*
X130302000Y-134366000D02*
X130302000Y-136144000D01*
X130810000Y-133858000D02*
X130302000Y-134366000D01*
X130810000Y-132080000D02*
X130810000Y-133858000D01*
X131318000Y-131572000D02*
X130810000Y-132080000D01*
X131318000Y-130236873D02*
X131318000Y-131572000D01*
X137227918Y-124326955D02*
X131318000Y-130236873D01*
X128778000Y-140462000D02*
X127000000Y-142240000D01*
X128778000Y-138684000D02*
X128778000Y-140462000D01*
X129286000Y-138176000D02*
X128778000Y-138684000D01*
X129286000Y-136398000D02*
X129286000Y-138176000D01*
X129794000Y-135890000D02*
X129286000Y-136398000D01*
X129794000Y-134112000D02*
X129794000Y-135890000D01*
X130302000Y-133604000D02*
X129794000Y-134112000D01*
X130302000Y-131826000D02*
X130302000Y-133604000D01*
X130810000Y-131318000D02*
X130302000Y-131826000D01*
X130810000Y-130037767D02*
X130810000Y-131318000D01*
X136874365Y-123973402D02*
X130810000Y-130037767D01*
X128778000Y-137922000D02*
X127000000Y-139700000D01*
X128778000Y-136144000D02*
X128778000Y-137922000D01*
X129286000Y-135636000D02*
X128778000Y-136144000D01*
X129286000Y-133858000D02*
X129286000Y-135636000D01*
X129794000Y-133350000D02*
X129286000Y-133858000D01*
X129794000Y-131572000D02*
X129794000Y-133350000D01*
X130302000Y-131064000D02*
X129794000Y-131572000D01*
X130302000Y-129838660D02*
X130302000Y-131064000D01*
X136520812Y-123619848D02*
X130302000Y-129838660D01*
X129794000Y-130810000D02*
X129286000Y-131318000D01*
X128778000Y-133604000D02*
X128778000Y-135382000D01*
X129794000Y-129639553D02*
X129794000Y-130810000D01*
X129286000Y-131318000D02*
X129286000Y-133096000D01*
X136167258Y-123266295D02*
X129794000Y-129639553D01*
X129286000Y-133096000D02*
X128778000Y-133604000D01*
X128778000Y-135382000D02*
X127000000Y-137160000D01*
X128778000Y-131064000D02*
X128778000Y-132842000D01*
X129286000Y-130556000D02*
X128778000Y-131064000D01*
X135813705Y-122912742D02*
X129286000Y-129440447D01*
X129286000Y-129440447D02*
X129286000Y-130556000D01*
X128778000Y-132842000D02*
X127000000Y-134620000D01*
X128778000Y-130302000D02*
X127000000Y-132080000D01*
X128778000Y-129241340D02*
X128778000Y-130302000D01*
X135460152Y-122559188D02*
X128778000Y-129241340D01*
X127772233Y-129540000D02*
X127000000Y-129540000D01*
X135106598Y-122205635D02*
X127772233Y-129540000D01*
X129605127Y-127000000D02*
X127000000Y-127000000D01*
X134753045Y-121852082D02*
X129605127Y-127000000D01*
X131438019Y-124460000D02*
X127000000Y-124460000D01*
X134399491Y-121498528D02*
X131438019Y-124460000D01*
X133270913Y-121920000D02*
X127000000Y-121920000D01*
X134045938Y-121144975D02*
X133270913Y-121920000D01*
X128778000Y-93218000D02*
X127000000Y-91440000D01*
X128778000Y-94996000D02*
X128778000Y-93218000D01*
X129286000Y-95504000D02*
X128778000Y-94996000D01*
X129794000Y-97790000D02*
X129286000Y-97282000D01*
X129794000Y-99568000D02*
X129794000Y-97790000D01*
X129286000Y-97282000D02*
X129286000Y-95504000D01*
X130302000Y-100076000D02*
X129794000Y-99568000D01*
X130302000Y-101854000D02*
X130302000Y-100076000D01*
X130810000Y-104140000D02*
X130810000Y-102362000D01*
X131318000Y-104648000D02*
X130810000Y-104140000D01*
X131318000Y-106426000D02*
X131318000Y-104648000D01*
X131826000Y-106934000D02*
X131318000Y-106426000D01*
X131826000Y-108712000D02*
X131826000Y-106934000D01*
X132334000Y-109220000D02*
X131826000Y-108712000D01*
X130810000Y-102362000D02*
X130302000Y-101854000D01*
X132334000Y-110664913D02*
X132334000Y-109220000D01*
X137935025Y-116265938D02*
X132334000Y-110664913D01*
X128778000Y-95758000D02*
X127000000Y-93980000D01*
X128778000Y-97536000D02*
X128778000Y-95758000D01*
X129286000Y-99822000D02*
X129286000Y-98044000D01*
X129794000Y-100330000D02*
X129286000Y-99822000D01*
X129794000Y-102108000D02*
X129794000Y-100330000D01*
X130302000Y-102616000D02*
X129794000Y-102108000D01*
X130302000Y-104394000D02*
X130302000Y-102616000D01*
X130810000Y-104902000D02*
X130302000Y-104394000D01*
X130810000Y-106680000D02*
X130810000Y-104902000D01*
X131318000Y-107188000D02*
X130810000Y-106680000D01*
X131318000Y-108966000D02*
X131318000Y-107188000D01*
X129286000Y-98044000D02*
X128778000Y-97536000D01*
X131826000Y-109474000D02*
X131318000Y-108966000D01*
X131826000Y-110864019D02*
X131826000Y-109474000D01*
X137581472Y-116619491D02*
X131826000Y-110864019D01*
X128778000Y-98298000D02*
X127000000Y-96520000D01*
X128778000Y-100076000D02*
X128778000Y-98298000D01*
X129286000Y-100584000D02*
X128778000Y-100076000D01*
X129286000Y-102362000D02*
X129286000Y-100584000D01*
X129794000Y-102870000D02*
X129286000Y-102362000D01*
X129794000Y-104648000D02*
X129794000Y-102870000D01*
X130302000Y-106934000D02*
X130302000Y-105156000D01*
X130810000Y-107442000D02*
X130302000Y-106934000D01*
X130810000Y-109220000D02*
X130810000Y-107442000D01*
X131318000Y-109728000D02*
X130810000Y-109220000D01*
X131318000Y-111063127D02*
X131318000Y-109728000D01*
X137227918Y-116973045D02*
X131318000Y-111063127D01*
X130302000Y-105156000D02*
X129794000Y-104648000D01*
X128778000Y-100838000D02*
X127000000Y-99060000D01*
X128778000Y-102616000D02*
X128778000Y-100838000D01*
X129286000Y-103124000D02*
X128778000Y-102616000D01*
X129286000Y-104902000D02*
X129286000Y-103124000D01*
X129794000Y-105410000D02*
X129286000Y-104902000D01*
X130302000Y-107696000D02*
X129794000Y-107188000D01*
X130302000Y-109474000D02*
X130302000Y-107696000D01*
X130810000Y-109982000D02*
X130302000Y-109474000D01*
X130810000Y-111262233D02*
X130810000Y-109982000D01*
X129794000Y-107188000D02*
X129794000Y-105410000D01*
X136874365Y-117326598D02*
X130810000Y-111262233D01*
X128778000Y-103378000D02*
X127000000Y-101600000D01*
X128778000Y-105156000D02*
X128778000Y-103378000D01*
X129286000Y-107442000D02*
X129286000Y-105664000D01*
X129794000Y-107950000D02*
X129286000Y-107442000D01*
X129794000Y-109728000D02*
X129794000Y-107950000D01*
X130302000Y-110236000D02*
X129794000Y-109728000D01*
X130302000Y-111461340D02*
X130302000Y-110236000D01*
X136520812Y-117680152D02*
X130302000Y-111461340D01*
X129286000Y-105664000D02*
X128778000Y-105156000D01*
X129286000Y-108204000D02*
X128778000Y-107696000D01*
X129286000Y-109982000D02*
X129286000Y-108204000D01*
X129794000Y-110490000D02*
X129286000Y-109982000D01*
X129794000Y-111660447D02*
X129794000Y-110490000D01*
X128778000Y-107696000D02*
X128778000Y-105918000D01*
X136167258Y-118033705D02*
X129794000Y-111660447D01*
X128778000Y-105918000D02*
X127000000Y-104140000D01*
X128778000Y-108458000D02*
X127000000Y-106680000D01*
X129286000Y-111859553D02*
X129286000Y-110744000D01*
X129286000Y-110744000D02*
X128778000Y-110236000D01*
X135813705Y-118387258D02*
X129286000Y-111859553D01*
X128778000Y-110236000D02*
X128778000Y-108458000D01*
X128778000Y-110998000D02*
X127000000Y-109220000D01*
X128778000Y-112058660D02*
X128778000Y-110998000D01*
X135460152Y-118740812D02*
X128778000Y-112058660D01*
X135106598Y-119094365D02*
X127772233Y-111760000D01*
X127772233Y-111760000D02*
X127000000Y-111760000D01*
X134753045Y-119447918D02*
X129605127Y-114300000D01*
X129605127Y-114300000D02*
X127000000Y-114300000D01*
X131438019Y-116840000D02*
X127000000Y-116840000D01*
X134399491Y-119801472D02*
X131438019Y-116840000D01*
X133270913Y-119380000D02*
X127000000Y-119380000D01*
X134045938Y-120155025D02*
X133270913Y-119380000D01*
G04 #@! TA.AperFunction,Conductor*
G36*
X138473332Y-125482856D02*
G01*
X138517680Y-125511357D01*
X139030262Y-126023938D01*
X139030271Y-126023946D01*
X139118338Y-126091523D01*
X139118342Y-126091526D01*
X139118344Y-126091526D01*
X139118346Y-126091528D01*
X139120918Y-126092593D01*
X139161154Y-126119476D01*
X143889181Y-130847503D01*
X143922666Y-130908826D01*
X143925500Y-130935184D01*
X143925500Y-131993330D01*
X143925499Y-131993348D01*
X143925499Y-132159054D01*
X143925498Y-132159054D01*
X143966423Y-132311785D01*
X143992074Y-132356214D01*
X143992076Y-132356216D01*
X144045479Y-132448714D01*
X144045481Y-132448717D01*
X144164349Y-132567585D01*
X144164355Y-132567590D01*
X144397181Y-132800416D01*
X144430666Y-132861739D01*
X144433500Y-132888097D01*
X144433500Y-134279330D01*
X144433499Y-134279348D01*
X144433499Y-134445054D01*
X144433498Y-134445054D01*
X144474423Y-134597785D01*
X144500074Y-134642214D01*
X144500076Y-134642216D01*
X144553479Y-134734714D01*
X144553481Y-134734717D01*
X144672349Y-134853585D01*
X144672355Y-134853590D01*
X144905181Y-135086416D01*
X144938666Y-135147739D01*
X144941500Y-135174097D01*
X144941500Y-136565330D01*
X144941499Y-136565348D01*
X144941499Y-136731054D01*
X144941498Y-136731054D01*
X144982423Y-136883785D01*
X145008074Y-136928214D01*
X145008076Y-136928216D01*
X145061479Y-137020714D01*
X145061481Y-137020717D01*
X145180349Y-137139585D01*
X145180355Y-137139590D01*
X145413181Y-137372416D01*
X145446666Y-137433739D01*
X145449500Y-137460097D01*
X145449500Y-138851330D01*
X145449499Y-138851348D01*
X145449499Y-139017054D01*
X145449498Y-139017054D01*
X145449499Y-139017056D01*
X145449499Y-139017057D01*
X145490423Y-139169785D01*
X145490425Y-139169788D01*
X145497240Y-139181592D01*
X145569477Y-139306712D01*
X145569481Y-139306717D01*
X145688349Y-139425585D01*
X145688355Y-139425590D01*
X145921181Y-139658416D01*
X145954666Y-139719739D01*
X145957500Y-139746097D01*
X145957500Y-141137330D01*
X145957499Y-141137348D01*
X145957499Y-141303054D01*
X145957498Y-141303054D01*
X145998423Y-141455785D01*
X146024074Y-141500214D01*
X146024076Y-141500216D01*
X146077479Y-141592714D01*
X146077481Y-141592717D01*
X146196349Y-141711585D01*
X146196355Y-141711590D01*
X146429181Y-141944416D01*
X146462666Y-142005739D01*
X146465500Y-142032097D01*
X146465500Y-143423330D01*
X146465499Y-143423348D01*
X146465499Y-143589054D01*
X146465498Y-143589054D01*
X146465499Y-143589056D01*
X146465499Y-143589057D01*
X146506423Y-143741785D01*
X146506424Y-143741786D01*
X146511104Y-143749894D01*
X146511106Y-143749896D01*
X146585477Y-143878712D01*
X146585481Y-143878717D01*
X146704349Y-143997585D01*
X146704355Y-143997590D01*
X146937181Y-144230416D01*
X146970666Y-144291739D01*
X146973500Y-144318097D01*
X146973500Y-145709330D01*
X146973499Y-145709348D01*
X146973499Y-145875054D01*
X146973498Y-145875054D01*
X146989575Y-145935051D01*
X147014423Y-146027785D01*
X147016594Y-146031546D01*
X147016598Y-146031558D01*
X147016601Y-146031557D01*
X147093477Y-146164712D01*
X147093481Y-146164717D01*
X147212349Y-146283585D01*
X147212355Y-146283590D01*
X147445181Y-146516416D01*
X147478666Y-146577739D01*
X147481500Y-146604097D01*
X147481500Y-147995330D01*
X147481499Y-147995348D01*
X147481499Y-148161054D01*
X147481498Y-148161054D01*
X147481499Y-148161057D01*
X147522423Y-148313785D01*
X147522424Y-148313786D01*
X147526298Y-148320498D01*
X147526300Y-148320500D01*
X147601477Y-148450712D01*
X147601481Y-148450717D01*
X147720349Y-148569585D01*
X147720355Y-148569590D01*
X148526241Y-149375476D01*
X148559726Y-149436799D01*
X148556492Y-149501473D01*
X148542753Y-149543757D01*
X148509500Y-149753713D01*
X148509500Y-149966286D01*
X148542753Y-150176239D01*
X148608444Y-150378414D01*
X148704951Y-150567820D01*
X148829890Y-150739786D01*
X148980213Y-150890109D01*
X149152179Y-151015048D01*
X149152181Y-151015049D01*
X149152184Y-151015051D01*
X149341588Y-151111557D01*
X149543757Y-151177246D01*
X149753713Y-151210500D01*
X149753714Y-151210500D01*
X149966286Y-151210500D01*
X149966287Y-151210500D01*
X150176243Y-151177246D01*
X150378412Y-151111557D01*
X150449205Y-151075485D01*
X150517874Y-151062590D01*
X150582614Y-151088866D01*
X150622872Y-151145972D01*
X150629500Y-151185971D01*
X150629500Y-153045500D01*
X150609815Y-153112539D01*
X150557011Y-153158294D01*
X150505500Y-153169500D01*
X126354500Y-153169500D01*
X126287461Y-153149815D01*
X126241706Y-153097011D01*
X126230500Y-153045500D01*
X126230500Y-151185971D01*
X126250185Y-151118932D01*
X126302989Y-151073177D01*
X126372147Y-151063233D01*
X126410793Y-151075485D01*
X126481588Y-151111557D01*
X126683757Y-151177246D01*
X126893713Y-151210500D01*
X126893714Y-151210500D01*
X127106286Y-151210500D01*
X127106287Y-151210500D01*
X127316243Y-151177246D01*
X127518412Y-151111557D01*
X127707816Y-151015051D01*
X127729789Y-150999086D01*
X127879786Y-150890109D01*
X127879788Y-150890106D01*
X127879792Y-150890104D01*
X128030104Y-150739792D01*
X128030106Y-150739788D01*
X128030109Y-150739786D01*
X128155048Y-150567820D01*
X128155047Y-150567820D01*
X128155051Y-150567816D01*
X128251557Y-150378412D01*
X128317246Y-150176243D01*
X128350500Y-149966287D01*
X128350500Y-149753713D01*
X128317246Y-149543757D01*
X128303506Y-149501473D01*
X128301512Y-149431635D01*
X128333755Y-149375478D01*
X129258520Y-148450716D01*
X129337577Y-148313784D01*
X129378501Y-148161057D01*
X129378501Y-148002942D01*
X129378501Y-147995339D01*
X129378500Y-147995329D01*
X129378500Y-146604096D01*
X129398185Y-146537057D01*
X129414815Y-146516419D01*
X129644506Y-146286727D01*
X129644511Y-146286724D01*
X129654714Y-146276520D01*
X129654716Y-146276520D01*
X129766520Y-146164716D01*
X129845577Y-146027784D01*
X129886500Y-145875057D01*
X129886500Y-144318096D01*
X129906185Y-144251057D01*
X129922815Y-144230419D01*
X130152506Y-144000727D01*
X130152511Y-144000724D01*
X130162714Y-143990520D01*
X130162716Y-143990520D01*
X130274520Y-143878716D01*
X130353577Y-143741784D01*
X130390898Y-143602500D01*
X130394500Y-143589058D01*
X130394500Y-143430943D01*
X130394500Y-142032096D01*
X130414185Y-141965057D01*
X130430815Y-141944419D01*
X130660506Y-141714727D01*
X130660511Y-141714724D01*
X130670714Y-141704520D01*
X130670716Y-141704520D01*
X130782520Y-141592716D01*
X130861577Y-141455784D01*
X130902500Y-141303057D01*
X130902500Y-139746096D01*
X130922185Y-139679057D01*
X130938815Y-139658419D01*
X131168506Y-139428727D01*
X131168511Y-139428724D01*
X131178714Y-139418520D01*
X131178716Y-139418520D01*
X131290520Y-139306716D01*
X131369577Y-139169784D01*
X131410500Y-139017057D01*
X131410500Y-137460096D01*
X131430185Y-137393057D01*
X131446815Y-137372419D01*
X131676506Y-137142727D01*
X131676511Y-137142724D01*
X131686714Y-137132520D01*
X131686716Y-137132520D01*
X131798520Y-137020716D01*
X131877577Y-136883784D01*
X131918500Y-136731057D01*
X131918500Y-135174096D01*
X131938185Y-135107057D01*
X131954815Y-135086419D01*
X132184506Y-134856727D01*
X132184511Y-134856724D01*
X132194714Y-134846520D01*
X132194716Y-134846520D01*
X132306520Y-134734716D01*
X132385577Y-134597784D01*
X132426500Y-134445057D01*
X132426500Y-132888096D01*
X132446185Y-132821057D01*
X132462815Y-132800419D01*
X132692506Y-132570727D01*
X132692511Y-132570724D01*
X132702714Y-132560520D01*
X132702716Y-132560520D01*
X132814520Y-132448716D01*
X132893577Y-132311784D01*
X132934500Y-132159057D01*
X132934500Y-130935184D01*
X132954185Y-130868145D01*
X132970819Y-130847503D01*
X135332173Y-128486149D01*
X137698848Y-126119473D01*
X137739082Y-126092592D01*
X137741658Y-126091526D01*
X137829736Y-126023941D01*
X138342318Y-125511356D01*
X138403641Y-125477872D01*
X138473332Y-125482856D01*
G37*
G04 #@! TD.AperFunction*
G04 #@! TA.AperFunction,Conductor*
G36*
X138601975Y-116954890D02*
G01*
X138635240Y-116961713D01*
X138636178Y-116962507D01*
X138637072Y-116962706D01*
X138640467Y-116966135D01*
X138675487Y-116995758D01*
X138693108Y-117018723D01*
X138712910Y-117044530D01*
X138853478Y-117185098D01*
X138853486Y-117185105D01*
X138941564Y-117252691D01*
X138948605Y-117256756D01*
X138946895Y-117259716D01*
X138988994Y-117293591D01*
X138994284Y-117303268D01*
X138994814Y-117302963D01*
X138998879Y-117310003D01*
X138998881Y-117310005D01*
X138998882Y-117310008D01*
X139035723Y-117358020D01*
X139066464Y-117398084D01*
X139207032Y-117538652D01*
X139207039Y-117538658D01*
X139207041Y-117538660D01*
X139208158Y-117539517D01*
X139295118Y-117606245D01*
X139302159Y-117610310D01*
X139300449Y-117613270D01*
X139342548Y-117647145D01*
X139347839Y-117656827D01*
X139348370Y-117656521D01*
X139352432Y-117663556D01*
X139420015Y-117751633D01*
X139420020Y-117751639D01*
X139560585Y-117892204D01*
X139560592Y-117892210D01*
X139560594Y-117892212D01*
X139561710Y-117893068D01*
X139648671Y-117959797D01*
X139655715Y-117963864D01*
X139654005Y-117966824D01*
X139696100Y-118000697D01*
X139701393Y-118010385D01*
X139701925Y-118010079D01*
X139705987Y-118017115D01*
X139773567Y-118105189D01*
X139914138Y-118245760D01*
X139914142Y-118245763D01*
X139914146Y-118245767D01*
X140002225Y-118313353D01*
X140009256Y-118317412D01*
X140007548Y-118320370D01*
X140049654Y-118354252D01*
X140054945Y-118363934D01*
X140055476Y-118363628D01*
X140059538Y-118370663D01*
X140127121Y-118458740D01*
X140127126Y-118458746D01*
X140267691Y-118599311D01*
X140267698Y-118599317D01*
X140267700Y-118599319D01*
X140268818Y-118600177D01*
X140355777Y-118666904D01*
X140362818Y-118670969D01*
X140361108Y-118673929D01*
X140403207Y-118707804D01*
X140408497Y-118717481D01*
X140409027Y-118717176D01*
X140413092Y-118724216D01*
X140413094Y-118724218D01*
X140413095Y-118724221D01*
X140436534Y-118754767D01*
X140480677Y-118812297D01*
X140621245Y-118952865D01*
X140621253Y-118952872D01*
X140709331Y-119020458D01*
X140716372Y-119024523D01*
X140714660Y-119027487D01*
X140756741Y-119061332D01*
X140762052Y-119071044D01*
X140762584Y-119070738D01*
X140766646Y-119077774D01*
X140834227Y-119165848D01*
X140834232Y-119165854D01*
X140974797Y-119306419D01*
X140974805Y-119306426D01*
X141062883Y-119374012D01*
X141069924Y-119378077D01*
X141068225Y-119381018D01*
X141110394Y-119415027D01*
X141115621Y-119424590D01*
X141116140Y-119424291D01*
X141120202Y-119431327D01*
X141187782Y-119519401D01*
X141328352Y-119659971D01*
X141328359Y-119659977D01*
X141328361Y-119659979D01*
X141329479Y-119660837D01*
X141416438Y-119727564D01*
X141423479Y-119731629D01*
X141421767Y-119734593D01*
X141463848Y-119768438D01*
X141469155Y-119778141D01*
X141469686Y-119777835D01*
X141473751Y-119784875D01*
X141473753Y-119784877D01*
X141473754Y-119784880D01*
X141486431Y-119801401D01*
X141541336Y-119872956D01*
X141681904Y-120013524D01*
X141681911Y-120013530D01*
X141681913Y-120013532D01*
X141708618Y-120034024D01*
X141769990Y-120081117D01*
X141777031Y-120085182D01*
X141775321Y-120088142D01*
X141817420Y-120122017D01*
X141822710Y-120131694D01*
X141823240Y-120131389D01*
X141827305Y-120138429D01*
X141827307Y-120138431D01*
X141827308Y-120138434D01*
X141864149Y-120186446D01*
X141894890Y-120226510D01*
X142035463Y-120367083D01*
X142035467Y-120367086D01*
X142084242Y-120404513D01*
X142088961Y-120410976D01*
X142096006Y-120414778D01*
X142109268Y-120438786D01*
X142125444Y-120460939D01*
X142125920Y-120468929D01*
X142129791Y-120475937D01*
X142127967Y-120503305D01*
X142129599Y-120530685D01*
X142125560Y-120539446D01*
X142125147Y-120545652D01*
X142110121Y-120572942D01*
X142108384Y-120576711D01*
X142107116Y-120578421D01*
X142107026Y-120578512D01*
X142039440Y-120666591D01*
X142036468Y-120673765D01*
X142027375Y-120686037D01*
X142011106Y-120698340D01*
X141998277Y-120714200D01*
X141988870Y-120719335D01*
X141989163Y-120719842D01*
X141982127Y-120723904D01*
X141894050Y-120791486D01*
X141894045Y-120791491D01*
X141753481Y-120932056D01*
X141753473Y-120932064D01*
X141685887Y-121020142D01*
X141681825Y-121027180D01*
X141678883Y-121025482D01*
X141644874Y-121067652D01*
X141635307Y-121072875D01*
X141635609Y-121073397D01*
X141628573Y-121077459D01*
X141540496Y-121145041D01*
X141540491Y-121145046D01*
X141399927Y-121285611D01*
X141399919Y-121285619D01*
X141332331Y-121373700D01*
X141328269Y-121380737D01*
X141325347Y-121379050D01*
X141291196Y-121421290D01*
X141281761Y-121426438D01*
X141282056Y-121426949D01*
X141275020Y-121431011D01*
X141186943Y-121498593D01*
X141186938Y-121498598D01*
X141046374Y-121639163D01*
X141046366Y-121639171D01*
X140978780Y-121727249D01*
X140974714Y-121734293D01*
X140971776Y-121732596D01*
X140937730Y-121774781D01*
X140928210Y-121779980D01*
X140928509Y-121780498D01*
X140921468Y-121784563D01*
X140833387Y-121852148D01*
X140833384Y-121852151D01*
X140692820Y-121992716D01*
X140692812Y-121992724D01*
X140625226Y-122080802D01*
X140621164Y-122087840D01*
X140618242Y-122086153D01*
X140584089Y-122128396D01*
X140574656Y-122133546D01*
X140574950Y-122134055D01*
X140567914Y-122138117D01*
X140479837Y-122205700D01*
X140479831Y-122205705D01*
X140339267Y-122346270D01*
X140339259Y-122346278D01*
X140271675Y-122434354D01*
X140267608Y-122441399D01*
X140264689Y-122439713D01*
X140230510Y-122481967D01*
X140221103Y-122487102D01*
X140221396Y-122487609D01*
X140214360Y-122491671D01*
X140126283Y-122559253D01*
X140126278Y-122559258D01*
X139985714Y-122699823D01*
X139985706Y-122699831D01*
X139918120Y-122787909D01*
X139914054Y-122794953D01*
X139911116Y-122793256D01*
X139877070Y-122835441D01*
X139867550Y-122840640D01*
X139867849Y-122841158D01*
X139860808Y-122845223D01*
X139772727Y-122912808D01*
X139772724Y-122912811D01*
X139632160Y-123053376D01*
X139632152Y-123053384D01*
X139564566Y-123141462D01*
X139560504Y-123148500D01*
X139557582Y-123146813D01*
X139523429Y-123189056D01*
X139513996Y-123194206D01*
X139514290Y-123194715D01*
X139507254Y-123198777D01*
X139419177Y-123266360D01*
X139419171Y-123266365D01*
X139278607Y-123406930D01*
X139278599Y-123406938D01*
X139211011Y-123495019D01*
X139206949Y-123502056D01*
X139204007Y-123500357D01*
X139170000Y-123542525D01*
X139160434Y-123547750D01*
X139160735Y-123548271D01*
X139153698Y-123552333D01*
X139065624Y-123619913D01*
X139065619Y-123619918D01*
X138925055Y-123760483D01*
X138925047Y-123760491D01*
X138857459Y-123848572D01*
X138853397Y-123855609D01*
X138850475Y-123853922D01*
X138816324Y-123896162D01*
X138806895Y-123901311D01*
X138807189Y-123901819D01*
X138800148Y-123905884D01*
X138712067Y-123973469D01*
X138712064Y-123973472D01*
X138571500Y-124114037D01*
X138571490Y-124114048D01*
X138528374Y-124170236D01*
X138471946Y-124211438D01*
X138402200Y-124215591D01*
X138341280Y-124181378D01*
X138331624Y-124170234D01*
X138288513Y-124114051D01*
X138288508Y-124114045D01*
X138147944Y-123973481D01*
X138147935Y-123973473D01*
X138059857Y-123905887D01*
X138052817Y-123901823D01*
X138054515Y-123898881D01*
X138012347Y-123864873D01*
X138007128Y-123855303D01*
X138006602Y-123855608D01*
X138002539Y-123848571D01*
X137934958Y-123760497D01*
X137934953Y-123760491D01*
X137794389Y-123619927D01*
X137794380Y-123619919D01*
X137706302Y-123552333D01*
X137699259Y-123548267D01*
X137700960Y-123545319D01*
X137658813Y-123511345D01*
X137653578Y-123501749D01*
X137653050Y-123502055D01*
X137648987Y-123495018D01*
X137581406Y-123406944D01*
X137581401Y-123406938D01*
X137440837Y-123266374D01*
X137440828Y-123266366D01*
X137352750Y-123198780D01*
X137345710Y-123194716D01*
X137347411Y-123191769D01*
X137305260Y-123157792D01*
X137300023Y-123148193D01*
X137299495Y-123148499D01*
X137295432Y-123141461D01*
X137227853Y-123053390D01*
X137227848Y-123053384D01*
X137087284Y-122912820D01*
X137087275Y-122912812D01*
X136999197Y-122845226D01*
X136992157Y-122841162D01*
X136993858Y-122838215D01*
X136951707Y-122804238D01*
X136946471Y-122794647D01*
X136945945Y-122794951D01*
X136941880Y-122787911D01*
X136874299Y-122699837D01*
X136874294Y-122699831D01*
X136733730Y-122559267D01*
X136733721Y-122559259D01*
X136645640Y-122491671D01*
X136638604Y-122487609D01*
X136640296Y-122484677D01*
X136598093Y-122450598D01*
X136592910Y-122441097D01*
X136592392Y-122441397D01*
X136588329Y-122434361D01*
X136520746Y-122346284D01*
X136520741Y-122346278D01*
X136380177Y-122205714D01*
X136380168Y-122205706D01*
X136292090Y-122138120D01*
X136285050Y-122134056D01*
X136286751Y-122131109D01*
X136244600Y-122097132D01*
X136239363Y-122087533D01*
X136238835Y-122087839D01*
X136234772Y-122080801D01*
X136167193Y-121992730D01*
X136167188Y-121992724D01*
X136026624Y-121852160D01*
X136026615Y-121852152D01*
X135938537Y-121784566D01*
X135931497Y-121780502D01*
X135933198Y-121777555D01*
X135891047Y-121743578D01*
X135885811Y-121733987D01*
X135885285Y-121734291D01*
X135881220Y-121727251D01*
X135813639Y-121639177D01*
X135813634Y-121639171D01*
X135673070Y-121498607D01*
X135673061Y-121498599D01*
X135584983Y-121431013D01*
X135577946Y-121426951D01*
X135579638Y-121424019D01*
X135537432Y-121389938D01*
X135532250Y-121380435D01*
X135531730Y-121380736D01*
X135527667Y-121373699D01*
X135460086Y-121285625D01*
X135460081Y-121285619D01*
X135319517Y-121145055D01*
X135319508Y-121145047D01*
X135231430Y-121077461D01*
X135224393Y-121073399D01*
X135226085Y-121070467D01*
X135183879Y-121036386D01*
X135178693Y-121026879D01*
X135178174Y-121027179D01*
X135174111Y-121020141D01*
X135106532Y-120932070D01*
X135106527Y-120932064D01*
X134965961Y-120791498D01*
X134965956Y-120791494D01*
X134965954Y-120791492D01*
X134909762Y-120748374D01*
X134868561Y-120691947D01*
X134864407Y-120622201D01*
X134898620Y-120561281D01*
X134909766Y-120551623D01*
X134925545Y-120539516D01*
X134965954Y-120508509D01*
X135036238Y-120438224D01*
X135106519Y-120367944D01*
X135106522Y-120367939D01*
X135106527Y-120367935D01*
X135174113Y-120279856D01*
X135174114Y-120279852D01*
X135178178Y-120272816D01*
X135181143Y-120274528D01*
X135214979Y-120232449D01*
X135224706Y-120227140D01*
X135224394Y-120226600D01*
X135231423Y-120222541D01*
X135231429Y-120222539D01*
X135319508Y-120154954D01*
X135389792Y-120084669D01*
X135460073Y-120014389D01*
X135460076Y-120014384D01*
X135460081Y-120014380D01*
X135527667Y-119926301D01*
X135527668Y-119926297D01*
X135531732Y-119919261D01*
X135534682Y-119920964D01*
X135568629Y-119878830D01*
X135578251Y-119873575D01*
X135577947Y-119873048D01*
X135584976Y-119868989D01*
X135584982Y-119868987D01*
X135673061Y-119801402D01*
X135743345Y-119731117D01*
X135813626Y-119660837D01*
X135813629Y-119660832D01*
X135813634Y-119660828D01*
X135881220Y-119572749D01*
X135881222Y-119572743D01*
X135885283Y-119565711D01*
X135888247Y-119567422D01*
X135922094Y-119525339D01*
X135931806Y-119520037D01*
X135931496Y-119519499D01*
X135938532Y-119515435D01*
X135938536Y-119515434D01*
X136026615Y-119447849D01*
X136096899Y-119377564D01*
X136167180Y-119307284D01*
X136167183Y-119307279D01*
X136167188Y-119307275D01*
X136234774Y-119219196D01*
X136234775Y-119219192D01*
X136238839Y-119212156D01*
X136241808Y-119213870D01*
X136275613Y-119171809D01*
X136285362Y-119166482D01*
X136285051Y-119165943D01*
X136292083Y-119161882D01*
X136292089Y-119161880D01*
X136380168Y-119094295D01*
X136450452Y-119024010D01*
X136520733Y-118953730D01*
X136520736Y-118953725D01*
X136520741Y-118953721D01*
X136588327Y-118865642D01*
X136588328Y-118865639D01*
X136592391Y-118858603D01*
X136595360Y-118860317D01*
X136629165Y-118818256D01*
X136638917Y-118812930D01*
X136638605Y-118812390D01*
X136645638Y-118808328D01*
X136645642Y-118808327D01*
X136733721Y-118740742D01*
X136804005Y-118670457D01*
X136874286Y-118600177D01*
X136874289Y-118600172D01*
X136874294Y-118600168D01*
X136941880Y-118512089D01*
X136941882Y-118512083D01*
X136945943Y-118505051D01*
X136948907Y-118506762D01*
X136982754Y-118464679D01*
X136992466Y-118459377D01*
X136992156Y-118458839D01*
X136999192Y-118454775D01*
X136999196Y-118454774D01*
X137087275Y-118387189D01*
X137157559Y-118316904D01*
X137227840Y-118246624D01*
X137227843Y-118246619D01*
X137227848Y-118246615D01*
X137295434Y-118158536D01*
X137295435Y-118158532D01*
X137299499Y-118151496D01*
X137302468Y-118153210D01*
X137336273Y-118111149D01*
X137346022Y-118105822D01*
X137345711Y-118105283D01*
X137352743Y-118101222D01*
X137352749Y-118101220D01*
X137440828Y-118033635D01*
X137511112Y-117963350D01*
X137581393Y-117893070D01*
X137581394Y-117893068D01*
X137581393Y-117893068D01*
X137581401Y-117893061D01*
X137648987Y-117804982D01*
X137648988Y-117804978D01*
X137653046Y-117797951D01*
X137655995Y-117799653D01*
X137689948Y-117757511D01*
X137699565Y-117752259D01*
X137699261Y-117751732D01*
X137706297Y-117747668D01*
X137706301Y-117747667D01*
X137794380Y-117680082D01*
X137864664Y-117609797D01*
X137934945Y-117539517D01*
X137934946Y-117539515D01*
X137934945Y-117539515D01*
X137934953Y-117539508D01*
X138002539Y-117451429D01*
X138002540Y-117451425D01*
X138006598Y-117444398D01*
X138009571Y-117446114D01*
X138043350Y-117404062D01*
X138053128Y-117398719D01*
X138052816Y-117398178D01*
X138059852Y-117394114D01*
X138059856Y-117394113D01*
X138147935Y-117326528D01*
X138218219Y-117256243D01*
X138288500Y-117185963D01*
X138288503Y-117185958D01*
X138288508Y-117185954D01*
X138356094Y-117097875D01*
X138356095Y-117097872D01*
X138360158Y-117090836D01*
X138362922Y-117092432D01*
X138393963Y-117052622D01*
X138406226Y-117043534D01*
X138413409Y-117040560D01*
X138501488Y-116972975D01*
X138501586Y-116972876D01*
X138503289Y-116971615D01*
X138535136Y-116959914D01*
X138566795Y-116947675D01*
X138567856Y-116947892D01*
X138568873Y-116947519D01*
X138601975Y-116954890D01*
G37*
G04 #@! TD.AperFunction*
G04 #@! TA.AperFunction,Conductor*
G36*
X150572539Y-88150185D02*
G01*
X150618294Y-88202989D01*
X150629500Y-88254500D01*
X150629500Y-90114028D01*
X150609815Y-90181067D01*
X150557011Y-90226822D01*
X150487853Y-90236766D01*
X150449206Y-90224513D01*
X150378417Y-90188445D01*
X150378414Y-90188444D01*
X150378412Y-90188443D01*
X150176243Y-90122754D01*
X150176241Y-90122753D01*
X150176240Y-90122753D01*
X150014957Y-90097208D01*
X149966287Y-90089500D01*
X149753713Y-90089500D01*
X149705042Y-90097208D01*
X149543760Y-90122753D01*
X149341585Y-90188444D01*
X149152179Y-90284951D01*
X148980213Y-90409890D01*
X148829890Y-90560213D01*
X148704951Y-90732179D01*
X148608444Y-90921585D01*
X148542753Y-91123760D01*
X148509500Y-91333713D01*
X148509500Y-91546286D01*
X148542754Y-91756244D01*
X148542754Y-91756247D01*
X148556491Y-91798523D01*
X148558486Y-91868364D01*
X148526241Y-91924522D01*
X147713286Y-92737478D01*
X147601481Y-92849282D01*
X147601479Y-92849285D01*
X147551361Y-92936094D01*
X147551359Y-92936096D01*
X147522425Y-92986209D01*
X147522424Y-92986210D01*
X147506544Y-93045472D01*
X147481499Y-93138943D01*
X147481499Y-93138944D01*
X147481499Y-93138945D01*
X147481499Y-93307046D01*
X147481500Y-93307059D01*
X147481500Y-94695902D01*
X147461815Y-94762941D01*
X147445181Y-94783583D01*
X147093482Y-95135281D01*
X147093480Y-95135283D01*
X147086075Y-95148109D01*
X147080654Y-95157500D01*
X147014423Y-95272215D01*
X146973499Y-95424943D01*
X146973499Y-95424945D01*
X146973499Y-95593046D01*
X146973500Y-95593059D01*
X146973500Y-96981902D01*
X146953815Y-97048941D01*
X146937181Y-97069583D01*
X146585481Y-97421282D01*
X146585479Y-97421285D01*
X146567253Y-97452853D01*
X146549027Y-97484423D01*
X146506423Y-97558215D01*
X146465499Y-97710943D01*
X146465499Y-97710945D01*
X146465499Y-97879046D01*
X146465500Y-97879059D01*
X146465500Y-99267902D01*
X146445815Y-99334941D01*
X146429181Y-99355583D01*
X146077481Y-99707282D01*
X146077479Y-99707285D01*
X146060006Y-99737550D01*
X146042532Y-99767816D01*
X145998423Y-99844215D01*
X145957499Y-99996943D01*
X145957499Y-99996945D01*
X145957499Y-100165046D01*
X145957500Y-100165059D01*
X145957500Y-101553902D01*
X145937815Y-101620941D01*
X145921181Y-101641583D01*
X145569481Y-101993282D01*
X145569475Y-101993290D01*
X145522929Y-102073912D01*
X145522929Y-102073913D01*
X145490423Y-102130214D01*
X145490423Y-102130215D01*
X145449499Y-102282943D01*
X145449499Y-102282945D01*
X145449499Y-102451046D01*
X145449500Y-102451059D01*
X145449500Y-103839902D01*
X145429815Y-103906941D01*
X145413181Y-103927583D01*
X145061481Y-104279282D01*
X145061479Y-104279285D01*
X145011361Y-104366094D01*
X145011359Y-104366096D01*
X144982425Y-104416209D01*
X144982424Y-104416210D01*
X144966544Y-104475472D01*
X144941499Y-104568943D01*
X144941499Y-104568945D01*
X144941499Y-104737046D01*
X144941500Y-104737059D01*
X144941500Y-106125902D01*
X144921815Y-106192941D01*
X144905181Y-106213583D01*
X144553481Y-106565282D01*
X144553479Y-106565285D01*
X144503361Y-106652094D01*
X144503359Y-106652096D01*
X144474425Y-106702209D01*
X144474424Y-106702210D01*
X144458544Y-106761472D01*
X144433499Y-106854943D01*
X144433499Y-106854945D01*
X144433499Y-107023046D01*
X144433500Y-107023059D01*
X144433500Y-108411902D01*
X144413815Y-108478941D01*
X144397181Y-108499583D01*
X144045481Y-108851282D01*
X144045479Y-108851285D01*
X144023286Y-108889724D01*
X144001093Y-108928165D01*
X143966423Y-108988215D01*
X143925499Y-109140943D01*
X143925499Y-109140945D01*
X143925499Y-109309046D01*
X143925500Y-109309059D01*
X143925500Y-110364815D01*
X143905815Y-110431854D01*
X143889181Y-110452496D01*
X139302575Y-115039101D01*
X139262356Y-115065977D01*
X139259764Y-115067050D01*
X139171684Y-115134637D01*
X139171675Y-115134645D01*
X138517679Y-115788641D01*
X138456356Y-115822126D01*
X138386664Y-115817142D01*
X138342317Y-115788641D01*
X137829735Y-115276059D01*
X137741659Y-115208474D01*
X137739072Y-115207403D01*
X137698847Y-115180524D01*
X132970819Y-110452496D01*
X132937334Y-110391173D01*
X132934500Y-110364815D01*
X132934500Y-109140945D01*
X132934500Y-109140943D01*
X132893577Y-108988216D01*
X132893573Y-108988209D01*
X132814524Y-108851290D01*
X132814521Y-108851286D01*
X132814520Y-108851284D01*
X132702716Y-108739480D01*
X132702715Y-108739479D01*
X132698385Y-108735149D01*
X132698374Y-108735139D01*
X132462819Y-108499584D01*
X132429334Y-108438261D01*
X132426500Y-108411903D01*
X132426500Y-106854945D01*
X132426500Y-106854943D01*
X132385577Y-106702216D01*
X132385573Y-106702209D01*
X132306524Y-106565290D01*
X132306521Y-106565286D01*
X132306520Y-106565284D01*
X132194716Y-106453480D01*
X132194715Y-106453479D01*
X132190385Y-106449149D01*
X132190374Y-106449139D01*
X131954819Y-106213584D01*
X131921334Y-106152261D01*
X131918500Y-106125903D01*
X131918500Y-104568945D01*
X131918500Y-104568943D01*
X131877577Y-104416216D01*
X131877573Y-104416209D01*
X131798524Y-104279290D01*
X131798521Y-104279286D01*
X131798520Y-104279284D01*
X131686716Y-104167480D01*
X131686715Y-104167479D01*
X131682385Y-104163149D01*
X131682374Y-104163139D01*
X131446819Y-103927584D01*
X131413334Y-103866261D01*
X131410500Y-103839903D01*
X131410500Y-102282945D01*
X131410500Y-102282943D01*
X131369577Y-102130216D01*
X131369573Y-102130209D01*
X131290524Y-101993290D01*
X131290521Y-101993286D01*
X131290520Y-101993284D01*
X131178716Y-101881480D01*
X131178715Y-101881479D01*
X131174385Y-101877149D01*
X131174374Y-101877139D01*
X130938819Y-101641584D01*
X130905334Y-101580261D01*
X130902500Y-101553903D01*
X130902500Y-99996945D01*
X130902500Y-99996943D01*
X130861577Y-99844216D01*
X130861573Y-99844209D01*
X130782524Y-99707290D01*
X130782521Y-99707286D01*
X130782520Y-99707284D01*
X130670716Y-99595480D01*
X130670715Y-99595479D01*
X130666385Y-99591149D01*
X130666374Y-99591139D01*
X130430819Y-99355584D01*
X130397334Y-99294261D01*
X130394500Y-99267903D01*
X130394500Y-97710943D01*
X130394499Y-97710936D01*
X130394113Y-97709497D01*
X130394114Y-97709496D01*
X130394105Y-97709471D01*
X130378362Y-97650716D01*
X130353577Y-97558216D01*
X130310973Y-97484423D01*
X130274524Y-97421290D01*
X130274521Y-97421286D01*
X130274520Y-97421284D01*
X130162716Y-97309480D01*
X130162715Y-97309479D01*
X130158385Y-97305149D01*
X130158374Y-97305139D01*
X129922819Y-97069584D01*
X129889334Y-97008261D01*
X129886500Y-96981903D01*
X129886500Y-95424945D01*
X129886500Y-95424943D01*
X129845577Y-95272216D01*
X129779347Y-95157501D01*
X129766524Y-95135290D01*
X129766521Y-95135286D01*
X129766520Y-95135284D01*
X129654716Y-95023480D01*
X129654715Y-95023479D01*
X129650385Y-95019149D01*
X129650374Y-95019139D01*
X129414819Y-94783584D01*
X129381334Y-94722261D01*
X129378500Y-94695903D01*
X129378500Y-93307060D01*
X129378501Y-93307047D01*
X129378501Y-93138944D01*
X129337576Y-92986214D01*
X129337573Y-92986209D01*
X129258524Y-92849290D01*
X129258521Y-92849286D01*
X129258520Y-92849284D01*
X128959471Y-92550235D01*
X128386818Y-91977582D01*
X128353333Y-91916259D01*
X128350499Y-91889901D01*
X128350499Y-90542129D01*
X128350498Y-90542123D01*
X128344091Y-90482516D01*
X128293797Y-90347671D01*
X128293793Y-90347664D01*
X128207547Y-90232455D01*
X128207544Y-90232452D01*
X128092335Y-90146206D01*
X128092328Y-90146202D01*
X127957482Y-90095908D01*
X127957483Y-90095908D01*
X127897883Y-90089501D01*
X127897881Y-90089500D01*
X127897873Y-90089500D01*
X127897865Y-90089500D01*
X126354500Y-90089500D01*
X126287461Y-90069815D01*
X126241706Y-90017011D01*
X126230500Y-89965500D01*
X126230500Y-88254500D01*
X126250185Y-88187461D01*
X126302989Y-88141706D01*
X126354500Y-88130500D01*
X150505500Y-88130500D01*
X150572539Y-88150185D01*
G37*
G04 #@! TD.AperFunction*
M02*
