G04 #@! TF.GenerationSoftware,KiCad,Pcbnew,9.0.6*
G04 #@! TF.CreationDate,2026-01-08T20:22:18-06:00*
G04 #@! TF.ProjectId,QFN-48_7x7_P0.5,51464e2d-3438-45f3-9778-375f50302e35,rev?*
G04 #@! TF.SameCoordinates,Original*
G04 #@! TF.FileFunction,Paste,Top*
G04 #@! TF.FilePolarity,Positive*
%FSLAX46Y46*%
G04 Gerber Fmt 4.6, Leading zero omitted, Abs format (unit mm)*
G04 Created by KiCad (PCBNEW 9.0.6) date 2026-01-08 20:22:18*
%MOMM*%
%LPD*%
G01*
G04 APERTURE LIST*
G04 Aperture macros list*
%AMRoundRect*
0 Rectangle with rounded corners*
0 $1 Rounding radius*
0 $2 $3 $4 $5 $6 $7 $8 $9 X,Y pos of 4 corners*
0 Add a 4 corners polygon primitive as box body*
4,1,4,$2,$3,$4,$5,$6,$7,$8,$9,$2,$3,0*
0 Add four circle primitives for the rounded corners*
1,1,$1+$1,$2,$3*
1,1,$1+$1,$4,$5*
1,1,$1+$1,$6,$7*
1,1,$1+$1,$8,$9*
0 Add four rect primitives between the rounded corners*
20,1,$1+$1,$2,$3,$4,$5,0*
20,1,$1+$1,$4,$5,$6,$7,0*
20,1,$1+$1,$6,$7,$8,$9,0*
20,1,$1+$1,$8,$9,$2,$3,0*%
G04 Aperture macros list end*
%ADD10RoundRect,0.225000X-0.318198X0.000000X0.000000X-0.318198X0.318198X0.000000X0.000000X0.318198X0*%
%ADD11RoundRect,0.062500X-0.424264X0.335876X0.335876X-0.424264X0.424264X-0.335876X-0.335876X0.424264X0*%
%ADD12RoundRect,0.062500X-0.424264X-0.335876X-0.335876X-0.424264X0.424264X0.335876X0.335876X0.424264X0*%
G04 APERTURE END LIST*
D10*
X138430000Y-118995370D03*
X137602685Y-119822685D03*
X136775370Y-120650000D03*
X139257315Y-119822685D03*
X138430000Y-120650000D03*
X137602685Y-121477315D03*
X140084630Y-120650000D03*
X139257315Y-121477315D03*
X138430000Y-122304630D03*
D11*
X137793604Y-116124517D03*
X137440051Y-116478070D03*
X137086496Y-116831624D03*
X136732944Y-117185177D03*
X136379391Y-117538731D03*
X136025837Y-117892284D03*
X135672284Y-118245837D03*
X135318731Y-118599391D03*
X134965177Y-118952944D03*
X134611624Y-119306496D03*
X134258070Y-119660051D03*
X133904517Y-120013604D03*
D12*
X133904517Y-121286396D03*
X134258070Y-121639949D03*
X134611624Y-121993504D03*
X134965177Y-122347056D03*
X135318731Y-122700609D03*
X135672284Y-123054163D03*
X136025837Y-123407716D03*
X136379391Y-123761269D03*
X136732944Y-124114823D03*
X137086496Y-124468376D03*
X137440051Y-124821930D03*
X137793604Y-125175483D03*
D11*
X139066396Y-125175483D03*
X139419949Y-124821930D03*
X139773504Y-124468376D03*
X140127056Y-124114823D03*
X140480609Y-123761269D03*
X140834163Y-123407716D03*
X141187716Y-123054163D03*
X141541269Y-122700609D03*
X141894823Y-122347056D03*
X142248376Y-121993504D03*
X142601930Y-121639949D03*
X142955483Y-121286396D03*
D12*
X143096905Y-119872183D03*
X142743351Y-119518629D03*
X142389797Y-119165075D03*
X142036245Y-118811522D03*
X141682690Y-118457970D03*
X141329138Y-118104416D03*
X140975584Y-117750862D03*
X140622030Y-117397310D03*
X140268478Y-117043755D03*
X139914925Y-116690203D03*
X139561371Y-116336649D03*
X139207817Y-115983095D03*
M02*
