G04 #@! TF.GenerationSoftware,KiCad,Pcbnew,9.0.6*
G04 #@! TF.CreationDate,2026-01-02T20:46:43-06:00*
G04 #@! TF.ProjectId,QFN-32_7x7_P0.65,51464e2d-3332-45f3-9778-375f50302e36,rev?*
G04 #@! TF.SameCoordinates,Original*
G04 #@! TF.FileFunction,Soldermask,Top*
G04 #@! TF.FilePolarity,Negative*
%FSLAX46Y46*%
G04 Gerber Fmt 4.6, Leading zero omitted, Abs format (unit mm)*
G04 Created by KiCad (PCBNEW 9.0.6) date 2026-01-02 20:46:43*
%MOMM*%
%LPD*%
G01*
G04 APERTURE LIST*
G04 Aperture macros list*
%AMRoundRect*
0 Rectangle with rounded corners*
0 $1 Rounding radius*
0 $2 $3 $4 $5 $6 $7 $8 $9 X,Y pos of 4 corners*
0 Add a 4 corners polygon primitive as box body*
4,1,4,$2,$3,$4,$5,$6,$7,$8,$9,$2,$3,0*
0 Add four circle primitives for the rounded corners*
1,1,$1+$1,$2,$3*
1,1,$1+$1,$4,$5*
1,1,$1+$1,$6,$7*
1,1,$1+$1,$8,$9*
0 Add four rect primitives between the rounded corners*
20,1,$1+$1,$2,$3,$4,$5,0*
20,1,$1+$1,$4,$5,$6,$7,0*
20,1,$1+$1,$6,$7,$8,$9,0*
20,1,$1+$1,$8,$9,$2,$3,0*%
%AMRotRect*
0 Rectangle, with rotation*
0 The origin of the aperture is its center*
0 $1 length*
0 $2 width*
0 $3 Rotation angle, in degrees counterclockwise*
0 Add horizontal line*
21,1,$1,$2,0,0,$3*%
G04 Aperture macros list end*
%ADD10RoundRect,0.075000X-0.530330X-0.424264X-0.424264X-0.530330X0.530330X0.424264X0.424264X0.530330X0*%
%ADD11RoundRect,0.075000X-0.530330X0.424264X0.424264X-0.530330X0.530330X-0.424264X-0.424264X0.530330X0*%
%ADD12RotRect,3.750000X3.750000X315.000000*%
%ADD13C,1.700000*%
%ADD14R,1.700000X1.700000*%
G04 APERTURE END LIST*
D10*
X134187359Y-121675305D03*
X135566218Y-123054163D03*
X136485456Y-123973402D03*
X135106598Y-122594544D03*
X134646978Y-122134925D03*
X136025837Y-123513782D03*
X137404695Y-124892641D03*
X136945075Y-124433022D03*
D11*
X137404695Y-116407359D03*
X136945075Y-116866978D03*
X136485456Y-117326598D03*
X136025837Y-117786218D03*
X135566218Y-118245837D03*
X135106598Y-118705456D03*
X134646978Y-119165075D03*
X134187359Y-119624695D03*
X139455305Y-124892641D03*
X139914925Y-124433022D03*
X140374544Y-123973402D03*
X140834163Y-123513782D03*
X141293782Y-123054163D03*
X141753402Y-122594544D03*
X142213022Y-122134925D03*
X142672641Y-121675305D03*
D10*
X142672641Y-119624695D03*
X142213022Y-119165075D03*
X141753402Y-118705456D03*
X141293782Y-118245837D03*
X140834163Y-117786218D03*
X140374544Y-117326598D03*
X139914925Y-116866978D03*
X139455305Y-116407359D03*
D12*
X138430000Y-120650000D03*
D13*
X127000000Y-99061642D03*
D14*
X127000000Y-101601642D03*
D13*
X127000000Y-104141642D03*
X127000000Y-106681642D03*
X127000000Y-109221642D03*
X127000000Y-111761642D03*
X127000000Y-114301642D03*
X127000000Y-116841642D03*
X127000000Y-119381642D03*
X127000000Y-121921642D03*
X127000000Y-124461642D03*
X127000000Y-127001642D03*
X127000000Y-129541642D03*
X127000000Y-132081642D03*
X127000000Y-134621642D03*
X127000000Y-137161642D03*
X127000000Y-139701642D03*
X127000000Y-142241642D03*
X149860000Y-99061642D03*
X149860000Y-101601642D03*
X149860000Y-104141642D03*
X149860000Y-106681642D03*
X149860000Y-109221642D03*
X149860000Y-111761642D03*
X149860000Y-114301642D03*
X149860000Y-116841642D03*
X149860000Y-119381642D03*
X149860000Y-121921642D03*
X149860000Y-124461642D03*
X149860000Y-127001642D03*
X149860000Y-129541642D03*
X149860000Y-132081642D03*
X149860000Y-134621642D03*
X149860000Y-137161642D03*
X149860000Y-139701642D03*
X149860000Y-142241642D03*
M02*
