G04 #@! TF.GenerationSoftware,KiCad,Pcbnew,9.0.6*
G04 #@! TF.CreationDate,2026-01-07T17:21:42-06:00*
G04 #@! TF.ProjectId,QFN-32_7x7_P0.65,51464e2d-3332-45f3-9778-375f50302e36,rev?*
G04 #@! TF.SameCoordinates,Original*
G04 #@! TF.FileFunction,Copper,L1,Top*
G04 #@! TF.FilePolarity,Positive*
%FSLAX46Y46*%
G04 Gerber Fmt 4.6, Leading zero omitted, Abs format (unit mm)*
G04 Created by KiCad (PCBNEW 9.0.6) date 2026-01-07 17:21:42*
%MOMM*%
%LPD*%
G01*
G04 APERTURE LIST*
G04 Aperture macros list*
%AMRoundRect*
0 Rectangle with rounded corners*
0 $1 Rounding radius*
0 $2 $3 $4 $5 $6 $7 $8 $9 X,Y pos of 4 corners*
0 Add a 4 corners polygon primitive as box body*
4,1,4,$2,$3,$4,$5,$6,$7,$8,$9,$2,$3,0*
0 Add four circle primitives for the rounded corners*
1,1,$1+$1,$2,$3*
1,1,$1+$1,$4,$5*
1,1,$1+$1,$6,$7*
1,1,$1+$1,$8,$9*
0 Add four rect primitives between the rounded corners*
20,1,$1+$1,$2,$3,$4,$5,0*
20,1,$1+$1,$4,$5,$6,$7,0*
20,1,$1+$1,$6,$7,$8,$9,0*
20,1,$1+$1,$8,$9,$2,$3,0*%
%AMRotRect*
0 Rectangle, with rotation*
0 The origin of the aperture is its center*
0 $1 length*
0 $2 width*
0 $3 Rotation angle, in degrees counterclockwise*
0 Add horizontal line*
21,1,$1,$2,0,0,$3*%
G04 Aperture macros list end*
G04 #@! TA.AperFunction,SMDPad,CuDef*
%ADD10RoundRect,0.075000X-0.530330X0.424264X0.424264X-0.530330X0.530330X-0.424264X-0.424264X0.530330X0*%
G04 #@! TD*
G04 #@! TA.AperFunction,SMDPad,CuDef*
%ADD11RoundRect,0.075000X-0.530330X-0.424264X-0.424264X-0.530330X0.530330X0.424264X0.424264X0.530330X0*%
G04 #@! TD*
G04 #@! TA.AperFunction,HeatsinkPad*
%ADD12C,0.500000*%
G04 #@! TD*
G04 #@! TA.AperFunction,HeatsinkPad*
%ADD13RotRect,3.750000X3.750000X315.000000*%
G04 #@! TD*
G04 #@! TA.AperFunction,ComponentPad*
%ADD14C,1.700000*%
G04 #@! TD*
G04 #@! TA.AperFunction,ComponentPad*
%ADD15R,1.700000X1.700000*%
G04 #@! TD*
G04 #@! TA.AperFunction,ViaPad*
%ADD16C,0.600000*%
G04 #@! TD*
G04 #@! TA.AperFunction,Conductor*
%ADD17C,0.200000*%
G04 #@! TD*
G04 APERTURE END LIST*
D10*
X137404695Y-116407359D03*
X136945075Y-116866978D03*
X136485456Y-117326598D03*
X136025837Y-117786218D03*
X135566218Y-118245837D03*
X135106598Y-118705456D03*
X134646978Y-119165075D03*
X134187359Y-119624695D03*
D11*
X134187359Y-121675305D03*
X134646978Y-122134925D03*
X135106598Y-122594544D03*
X135566218Y-123054163D03*
X136025837Y-123513782D03*
X136485456Y-123973402D03*
X136945075Y-124433022D03*
X137404695Y-124892641D03*
D10*
X139455305Y-124892641D03*
X139914925Y-124433022D03*
X140374544Y-123973402D03*
X140834163Y-123513782D03*
X141293782Y-123054163D03*
X141753402Y-122594544D03*
X142213022Y-122134925D03*
X142672641Y-121675305D03*
D11*
X142672641Y-119624695D03*
X142213022Y-119165075D03*
X141753402Y-118705456D03*
X141293782Y-118245837D03*
X140834163Y-117786218D03*
X140374544Y-117326598D03*
X139914925Y-116866978D03*
X139455305Y-116407359D03*
D12*
X138430000Y-118422614D03*
X137687538Y-119165076D03*
X136945076Y-119907538D03*
X136202614Y-120650000D03*
X139172462Y-119165076D03*
X138430000Y-119907538D03*
X137687538Y-120650000D03*
X136945076Y-121392462D03*
D13*
X138430000Y-120650000D03*
D12*
X139914924Y-119907538D03*
X139172462Y-120650000D03*
X138430000Y-121392462D03*
X137687538Y-122134924D03*
X140657386Y-120650000D03*
X139914924Y-121392462D03*
X139172462Y-122134924D03*
X138430000Y-122877386D03*
D14*
X127000000Y-99061642D03*
D15*
X127000000Y-101601642D03*
D14*
X127000000Y-104141642D03*
X127000000Y-106681642D03*
X127000000Y-109221642D03*
X127000000Y-111761642D03*
X127000000Y-114301642D03*
X127000000Y-116841642D03*
X127000000Y-119381642D03*
X127000000Y-121921642D03*
X127000000Y-124461642D03*
X127000000Y-127001642D03*
X127000000Y-129541642D03*
X127000000Y-132081642D03*
X127000000Y-134621642D03*
X127000000Y-137161642D03*
X127000000Y-139701642D03*
X127000000Y-142241642D03*
X149860000Y-99061642D03*
X149860000Y-101601642D03*
X149860000Y-104141642D03*
X149860000Y-106681642D03*
X149860000Y-109221642D03*
X149860000Y-111761642D03*
X149860000Y-114301642D03*
X149860000Y-116841642D03*
X149860000Y-119381642D03*
X149860000Y-121921642D03*
X149860000Y-124461642D03*
X149860000Y-127001642D03*
X149860000Y-129541642D03*
X149860000Y-132081642D03*
X149860000Y-134621642D03*
X149860000Y-137161642D03*
X149860000Y-139701642D03*
X149860000Y-142241642D03*
D16*
X138430000Y-105029000D03*
X138430000Y-139065000D03*
X138420000Y-115220000D03*
X138420000Y-126050000D03*
D17*
X146157216Y-114301642D02*
X149860000Y-114301642D01*
X141753402Y-118705456D02*
X146157216Y-114301642D01*
X134646978Y-122136567D02*
X132323545Y-124460000D01*
X132323545Y-124460000D02*
X127000000Y-124460000D01*
X127000000Y-106681642D02*
X128778000Y-108459642D01*
X128778000Y-109619142D02*
X128778000Y-108459642D01*
X136485456Y-117326598D02*
X128778000Y-109619142D01*
X135106598Y-118705456D02*
X130702784Y-114301642D01*
X130702784Y-114301642D02*
X127000000Y-114301642D01*
X127382642Y-118999000D02*
X127000000Y-119381642D01*
X134187359Y-119624695D02*
X133561664Y-118999000D01*
X133561664Y-118999000D02*
X127382642Y-118999000D01*
X129286000Y-107442000D02*
X129286000Y-105664000D01*
X128778000Y-103379642D02*
X127000000Y-101601642D01*
X129794000Y-107950000D02*
X129286000Y-107442000D01*
X129286000Y-105664000D02*
X128778000Y-105156000D01*
X129794000Y-108796664D02*
X129794000Y-107950000D01*
X128778000Y-105156000D02*
X128778000Y-103379642D01*
X137404695Y-116407359D02*
X129794000Y-108796664D01*
X148082000Y-105919642D02*
X149860000Y-104141642D01*
X147574000Y-108204000D02*
X148082000Y-107696000D01*
X139914925Y-116866978D02*
X147574000Y-109207903D01*
X148082000Y-107696000D02*
X148082000Y-105919642D01*
X147574000Y-109207903D02*
X147574000Y-108204000D01*
X134646978Y-119165075D02*
X132323545Y-116841642D01*
X132323545Y-116841642D02*
X127000000Y-116841642D01*
X141293782Y-118245837D02*
X147777977Y-111761642D01*
X147777977Y-111761642D02*
X149860000Y-111761642D01*
X129286000Y-108204000D02*
X128778000Y-107696000D01*
X128778000Y-107696000D02*
X128778000Y-105919642D01*
X136945075Y-116866978D02*
X129286000Y-109207903D01*
X128778000Y-105919642D02*
X127000000Y-104141642D01*
X129286000Y-109207903D02*
X129286000Y-108204000D01*
X147574000Y-107442000D02*
X147574000Y-105664000D01*
X147066000Y-107950000D02*
X147574000Y-107442000D01*
X147066000Y-108796664D02*
X147066000Y-107950000D01*
X148082000Y-105156000D02*
X148082000Y-103379642D01*
X147574000Y-105664000D02*
X148082000Y-105156000D01*
X139455305Y-116407359D02*
X147066000Y-108796664D01*
X148082000Y-103379642D02*
X149860000Y-101601642D01*
X143298336Y-122302642D02*
X149477358Y-122302642D01*
X142672641Y-121676947D02*
X143298336Y-122302642D01*
X149477358Y-122302642D02*
X149860000Y-121920000D01*
X142213022Y-122136567D02*
X144536455Y-124460000D01*
X144536455Y-124460000D02*
X149860000Y-124460000D01*
X140374544Y-123975044D02*
X148082000Y-131682500D01*
X149860000Y-134620000D02*
X148082000Y-132842000D01*
X148082000Y-131682500D02*
X148082000Y-132842000D01*
X149398739Y-132080000D02*
X149860000Y-132080000D01*
X140834163Y-123515425D02*
X149398739Y-132080000D01*
X148082001Y-135382000D02*
X149860000Y-137160000D01*
X139914925Y-124434664D02*
X147574000Y-132093739D01*
X148082000Y-133605642D02*
X148082001Y-135382000D01*
X147574000Y-132093739D02*
X147573999Y-133097642D01*
X147573999Y-133097642D02*
X148082000Y-133605642D01*
X127255642Y-122175642D02*
X127000000Y-121920000D01*
X134187359Y-121676947D02*
X133688664Y-122175642D01*
X133688664Y-122175642D02*
X127255642Y-122175642D01*
X128778000Y-131682500D02*
X128778000Y-132842000D01*
X128778000Y-132842000D02*
X127000000Y-134620000D01*
X136485456Y-123975044D02*
X128778000Y-131682500D01*
X144536455Y-116841642D02*
X149860000Y-116841642D01*
X142213022Y-119165075D02*
X144536455Y-116841642D01*
X147777977Y-129540000D02*
X149860000Y-129540000D01*
X141293782Y-123055805D02*
X147777977Y-129540000D01*
X128778000Y-136145642D02*
X128778000Y-137922000D01*
X129286000Y-133859642D02*
X129286000Y-135637642D01*
X137404695Y-124894283D02*
X129794000Y-132504978D01*
X128778000Y-137922000D02*
X127000000Y-139700001D01*
X129794000Y-132504978D02*
X129794000Y-133351642D01*
X129794000Y-133351642D02*
X129286000Y-133859642D01*
X129286000Y-135637642D02*
X128778000Y-136145642D01*
X140834163Y-117786218D02*
X149398739Y-109221642D01*
X149398739Y-109221642D02*
X149860000Y-109221642D01*
X129286001Y-133097642D02*
X128778000Y-133605642D01*
X129286000Y-132093739D02*
X129286001Y-133097642D01*
X136945075Y-124434664D02*
X129286000Y-132093739D01*
X128778000Y-135382000D02*
X127000000Y-137160000D01*
X128778000Y-133605642D02*
X128778000Y-135382000D01*
X142672641Y-119624695D02*
X143171336Y-119126000D01*
X149604358Y-119126000D02*
X149860000Y-119381642D01*
X143171336Y-119126000D02*
X149604358Y-119126000D01*
X148082000Y-109619142D02*
X148082000Y-108459642D01*
X140374544Y-117326598D02*
X148082000Y-109619142D01*
X148082000Y-108459642D02*
X149860000Y-106681642D01*
X148082000Y-137922000D02*
X149860000Y-139700001D01*
X147574000Y-135637642D02*
X148082000Y-136145642D01*
X147066000Y-133351642D02*
X147574000Y-133859642D01*
X147066000Y-132504978D02*
X147066000Y-133351642D01*
X139455305Y-124894283D02*
X147066000Y-132504978D01*
X147574000Y-133859642D02*
X147574000Y-135637642D01*
X148082000Y-136145642D02*
X148082000Y-137922000D01*
X129082023Y-111761642D02*
X127000000Y-111761642D01*
X135566218Y-118245837D02*
X129082023Y-111761642D01*
X127461261Y-109221642D02*
X127000000Y-109221642D01*
X136025837Y-117786218D02*
X127461261Y-109221642D01*
X136025837Y-123515425D02*
X127461261Y-132080000D01*
X127461261Y-132080000D02*
X127000000Y-132080000D01*
X129082023Y-129540000D02*
X127000000Y-129540000D01*
X135566218Y-123055805D02*
X129082023Y-129540000D01*
X130702784Y-127000000D02*
X127000000Y-126999999D01*
X135106598Y-122596186D02*
X130702784Y-127000000D01*
X146157216Y-127000000D02*
X149860000Y-126999999D01*
X141753402Y-122596186D02*
X146157216Y-127000000D01*
G04 #@! TA.AperFunction,Conductor*
G36*
X138473334Y-124846463D02*
G01*
X138517681Y-124874964D01*
X139499292Y-125856575D01*
X139499300Y-125856582D01*
X139589334Y-125925669D01*
X139589335Y-125925669D01*
X139589336Y-125925670D01*
X139619146Y-125938017D01*
X139648695Y-125950257D01*
X139688924Y-125977137D01*
X146429181Y-132717394D01*
X146462666Y-132778717D01*
X146465500Y-132805075D01*
X146465500Y-133264972D01*
X146465499Y-133264990D01*
X146465499Y-133430696D01*
X146465498Y-133430696D01*
X146465499Y-133430699D01*
X146506423Y-133583427D01*
X146506424Y-133583428D01*
X146511104Y-133591536D01*
X146511106Y-133591538D01*
X146585477Y-133720354D01*
X146585481Y-133720359D01*
X146704349Y-133839227D01*
X146704355Y-133839232D01*
X146937181Y-134072058D01*
X146970666Y-134133381D01*
X146973500Y-134159739D01*
X146973500Y-135550972D01*
X146973499Y-135550990D01*
X146973499Y-135716696D01*
X146973498Y-135716696D01*
X146989575Y-135776693D01*
X147014423Y-135869427D01*
X147016594Y-135873188D01*
X147016598Y-135873200D01*
X147016601Y-135873199D01*
X147093477Y-136006354D01*
X147093481Y-136006359D01*
X147212349Y-136125227D01*
X147212355Y-136125232D01*
X147445181Y-136358058D01*
X147478666Y-136419381D01*
X147481500Y-136445739D01*
X147481500Y-137835329D01*
X147481499Y-137835347D01*
X147481499Y-137842942D01*
X147481499Y-138001057D01*
X147499109Y-138066777D01*
X147514359Y-138123691D01*
X147522422Y-138153781D01*
X147522426Y-138153790D01*
X147601475Y-138290709D01*
X147601481Y-138290717D01*
X147720349Y-138409585D01*
X147720355Y-138409590D01*
X148526644Y-139215880D01*
X148560129Y-139277203D01*
X148556894Y-139341879D01*
X148542754Y-139385397D01*
X148509500Y-139595355D01*
X148509500Y-139807928D01*
X148542753Y-140017881D01*
X148608444Y-140220056D01*
X148704951Y-140409462D01*
X148829890Y-140581428D01*
X148980213Y-140731751D01*
X149152179Y-140856690D01*
X149152181Y-140856691D01*
X149152184Y-140856693D01*
X149341588Y-140953199D01*
X149543757Y-141018888D01*
X149753713Y-141052142D01*
X149753714Y-141052142D01*
X149966286Y-141052142D01*
X149966287Y-141052142D01*
X150176243Y-141018888D01*
X150378412Y-140953199D01*
X150449205Y-140917127D01*
X150517874Y-140904232D01*
X150582614Y-140930508D01*
X150622872Y-140987614D01*
X150629500Y-141027613D01*
X150629500Y-142885500D01*
X150609815Y-142952539D01*
X150557011Y-142998294D01*
X150505500Y-143009500D01*
X126354500Y-143009500D01*
X126287461Y-142989815D01*
X126241706Y-142937011D01*
X126230500Y-142885500D01*
X126230500Y-141027613D01*
X126250185Y-140960574D01*
X126302989Y-140914819D01*
X126372147Y-140904875D01*
X126410793Y-140917127D01*
X126481588Y-140953199D01*
X126683757Y-141018888D01*
X126893713Y-141052142D01*
X126893714Y-141052142D01*
X127106286Y-141052142D01*
X127106287Y-141052142D01*
X127316243Y-141018888D01*
X127518412Y-140953199D01*
X127707816Y-140856693D01*
X127729789Y-140840728D01*
X127879786Y-140731751D01*
X127879788Y-140731748D01*
X127879792Y-140731746D01*
X128030104Y-140581434D01*
X128030106Y-140581430D01*
X128030109Y-140581428D01*
X128155048Y-140409462D01*
X128155047Y-140409462D01*
X128155051Y-140409458D01*
X128251557Y-140220054D01*
X128317246Y-140017885D01*
X128350500Y-139807929D01*
X128350500Y-139595355D01*
X128317246Y-139385399D01*
X128303104Y-139341877D01*
X128301110Y-139272037D01*
X128333353Y-139215881D01*
X129136506Y-138412727D01*
X129136511Y-138412724D01*
X129146714Y-138402520D01*
X129146716Y-138402520D01*
X129258520Y-138290716D01*
X129337577Y-138153784D01*
X129378500Y-138001057D01*
X129378500Y-136445738D01*
X129398185Y-136378699D01*
X129414815Y-136358061D01*
X129644506Y-136128369D01*
X129644511Y-136128366D01*
X129654714Y-136118162D01*
X129654716Y-136118162D01*
X129766520Y-136006358D01*
X129845577Y-135869426D01*
X129886500Y-135716699D01*
X129886500Y-134159738D01*
X129906185Y-134092699D01*
X129922815Y-134072061D01*
X130152506Y-133842369D01*
X130152511Y-133842366D01*
X130162714Y-133832162D01*
X130162716Y-133832162D01*
X130274520Y-133720358D01*
X130353577Y-133583426D01*
X130391338Y-133442500D01*
X130394500Y-133430700D01*
X130394500Y-133272585D01*
X130394500Y-132805074D01*
X130414185Y-132738035D01*
X130430814Y-132717398D01*
X137171077Y-125977134D01*
X137211301Y-125950257D01*
X137270664Y-125925670D01*
X137360699Y-125856583D01*
X137360703Y-125856578D01*
X137360708Y-125856575D01*
X138342319Y-124874964D01*
X138403642Y-124841479D01*
X138473334Y-124846463D01*
G37*
G04 #@! TD.AperFunction*
G04 #@! TA.AperFunction,Conductor*
G36*
X138473334Y-117209709D02*
G01*
X138517681Y-117238210D01*
X138650764Y-117371293D01*
X138650772Y-117371300D01*
X138650773Y-117371301D01*
X138740808Y-117440388D01*
X138793120Y-117462056D01*
X138847522Y-117505894D01*
X138860228Y-117529164D01*
X138881894Y-117581473D01*
X138881896Y-117581476D01*
X138950983Y-117671510D01*
X138950991Y-117671519D01*
X139110384Y-117830912D01*
X139110392Y-117830919D01*
X139200426Y-117900006D01*
X139200427Y-117900006D01*
X139200428Y-117900007D01*
X139223485Y-117909557D01*
X139252737Y-117921674D01*
X139307141Y-117965514D01*
X139319846Y-117988782D01*
X139341515Y-118041095D01*
X139341515Y-118041096D01*
X139410602Y-118131130D01*
X139410610Y-118131139D01*
X139570003Y-118290532D01*
X139570011Y-118290539D01*
X139660045Y-118359626D01*
X139660046Y-118359626D01*
X139660047Y-118359627D01*
X139683104Y-118369177D01*
X139712356Y-118381294D01*
X139766760Y-118425134D01*
X139779465Y-118448402D01*
X139801134Y-118500715D01*
X139801134Y-118500716D01*
X139870221Y-118590750D01*
X139870229Y-118590759D01*
X140029622Y-118750152D01*
X140029630Y-118750159D01*
X140119664Y-118819246D01*
X140119665Y-118819246D01*
X140119666Y-118819247D01*
X140171831Y-118840854D01*
X140171975Y-118840914D01*
X140226379Y-118884754D01*
X140239084Y-118908022D01*
X140260751Y-118960331D01*
X140260753Y-118960335D01*
X140329840Y-119050369D01*
X140329848Y-119050378D01*
X140489241Y-119209771D01*
X140489249Y-119209778D01*
X140489250Y-119209779D01*
X140579285Y-119278866D01*
X140631597Y-119300534D01*
X140685999Y-119344372D01*
X140698705Y-119367642D01*
X140720371Y-119419951D01*
X140720373Y-119419954D01*
X140789460Y-119509988D01*
X140789468Y-119509997D01*
X140948861Y-119669390D01*
X140948869Y-119669397D01*
X140948870Y-119669398D01*
X141038905Y-119738485D01*
X141091217Y-119760153D01*
X141145619Y-119803991D01*
X141158325Y-119827261D01*
X141179991Y-119879570D01*
X141179993Y-119879573D01*
X141249080Y-119969607D01*
X141249088Y-119969616D01*
X141408481Y-120129009D01*
X141408489Y-120129016D01*
X141498523Y-120198103D01*
X141498524Y-120198103D01*
X141498525Y-120198104D01*
X141521582Y-120207654D01*
X141550834Y-120219771D01*
X141605238Y-120263611D01*
X141617943Y-120286879D01*
X141639612Y-120339192D01*
X141639612Y-120339193D01*
X141708699Y-120429227D01*
X141708707Y-120429236D01*
X141841790Y-120562319D01*
X141875275Y-120623642D01*
X141870291Y-120693334D01*
X141841790Y-120737681D01*
X141708699Y-120870772D01*
X141639612Y-120960806D01*
X141639610Y-120960810D01*
X141617943Y-121013120D01*
X141574102Y-121067524D01*
X141550836Y-121080228D01*
X141498523Y-121101897D01*
X141408489Y-121170983D01*
X141249080Y-121330392D01*
X141179994Y-121420426D01*
X141158325Y-121472739D01*
X141114483Y-121527142D01*
X141091217Y-121539846D01*
X141038907Y-121561513D01*
X141038903Y-121561515D01*
X140948869Y-121630602D01*
X140789460Y-121790011D01*
X140720374Y-121880045D01*
X140698705Y-121932358D01*
X140654863Y-121986761D01*
X140631597Y-121999465D01*
X140579287Y-122021132D01*
X140579283Y-122021134D01*
X140489249Y-122090221D01*
X140329840Y-122249630D01*
X140260754Y-122339663D01*
X140239083Y-122391979D01*
X140195240Y-122446381D01*
X140171979Y-122459083D01*
X140119663Y-122480754D01*
X140029630Y-122549840D01*
X139870221Y-122709249D01*
X139801134Y-122799283D01*
X139801132Y-122799287D01*
X139779465Y-122851597D01*
X139735624Y-122906001D01*
X139712358Y-122918705D01*
X139660045Y-122940374D01*
X139570011Y-123009460D01*
X139410602Y-123168869D01*
X139341515Y-123258903D01*
X139341513Y-123258907D01*
X139319846Y-123311217D01*
X139276005Y-123365621D01*
X139252739Y-123378325D01*
X139200426Y-123399994D01*
X139110392Y-123469080D01*
X138950983Y-123628489D01*
X138881897Y-123718523D01*
X138860228Y-123770836D01*
X138816386Y-123825239D01*
X138793120Y-123837943D01*
X138740810Y-123859610D01*
X138740806Y-123859612D01*
X138650772Y-123928699D01*
X138517681Y-124061790D01*
X138456358Y-124095275D01*
X138386666Y-124090291D01*
X138342319Y-124061790D01*
X138209236Y-123928707D01*
X138209227Y-123928699D01*
X138119192Y-123859612D01*
X138066879Y-123837943D01*
X138012475Y-123794102D01*
X137999771Y-123770834D01*
X137978104Y-123718526D01*
X137978103Y-123718523D01*
X137909016Y-123628489D01*
X137909009Y-123628481D01*
X137749616Y-123469088D01*
X137749607Y-123469080D01*
X137659573Y-123399993D01*
X137659570Y-123399991D01*
X137607261Y-123378325D01*
X137552857Y-123334484D01*
X137540155Y-123311222D01*
X137518485Y-123258905D01*
X137449398Y-123168870D01*
X137449397Y-123168869D01*
X137449390Y-123168861D01*
X137289997Y-123009468D01*
X137289988Y-123009460D01*
X137199954Y-122940373D01*
X137199951Y-122940371D01*
X137147642Y-122918705D01*
X137093238Y-122874864D01*
X137080536Y-122851602D01*
X137058866Y-122799285D01*
X136989779Y-122709250D01*
X136989778Y-122709249D01*
X136989771Y-122709241D01*
X136830378Y-122549848D01*
X136830369Y-122549840D01*
X136740335Y-122480753D01*
X136740331Y-122480751D01*
X136688022Y-122459084D01*
X136633618Y-122415243D01*
X136620914Y-122391975D01*
X136599247Y-122339667D01*
X136599246Y-122339664D01*
X136530159Y-122249630D01*
X136530152Y-122249622D01*
X136370759Y-122090229D01*
X136370750Y-122090221D01*
X136280715Y-122021134D01*
X136228402Y-121999465D01*
X136173998Y-121955624D01*
X136161294Y-121932356D01*
X136139627Y-121880048D01*
X136139626Y-121880045D01*
X136070539Y-121790011D01*
X136070532Y-121790003D01*
X135911139Y-121630610D01*
X135911130Y-121630602D01*
X135821095Y-121561515D01*
X135768782Y-121539846D01*
X135714378Y-121496005D01*
X135701674Y-121472737D01*
X135680007Y-121420429D01*
X135680006Y-121420426D01*
X135610919Y-121330392D01*
X135610912Y-121330384D01*
X135451519Y-121170991D01*
X135451510Y-121170983D01*
X135361476Y-121101896D01*
X135361473Y-121101894D01*
X135309164Y-121080228D01*
X135254760Y-121036387D01*
X135242058Y-121013125D01*
X135220388Y-120960808D01*
X135151301Y-120870773D01*
X135151300Y-120870772D01*
X135151293Y-120870764D01*
X135018210Y-120737681D01*
X134984725Y-120676358D01*
X134989709Y-120606666D01*
X135018210Y-120562319D01*
X135151293Y-120429236D01*
X135151296Y-120429231D01*
X135151301Y-120429227D01*
X135220388Y-120339192D01*
X135242056Y-120286878D01*
X135285895Y-120232476D01*
X135309160Y-120219772D01*
X135361475Y-120198104D01*
X135451510Y-120129017D01*
X135451514Y-120129012D01*
X135451519Y-120129009D01*
X135610912Y-119969616D01*
X135610915Y-119969611D01*
X135610920Y-119969607D01*
X135680007Y-119879572D01*
X135701673Y-119827261D01*
X135745512Y-119772859D01*
X135768778Y-119760154D01*
X135821095Y-119738485D01*
X135911130Y-119669398D01*
X135911134Y-119669393D01*
X135911139Y-119669390D01*
X136070532Y-119509997D01*
X136070535Y-119509992D01*
X136070540Y-119509988D01*
X136139627Y-119419953D01*
X136161293Y-119367642D01*
X136205132Y-119313240D01*
X136228398Y-119300535D01*
X136280715Y-119278866D01*
X136370750Y-119209779D01*
X136370754Y-119209774D01*
X136370759Y-119209771D01*
X136530152Y-119050378D01*
X136530155Y-119050373D01*
X136530160Y-119050369D01*
X136599247Y-118960334D01*
X136620915Y-118908020D01*
X136664753Y-118853620D01*
X136688014Y-118840917D01*
X136740334Y-118819247D01*
X136830369Y-118750160D01*
X136830373Y-118750155D01*
X136830378Y-118750152D01*
X136989771Y-118590759D01*
X136989774Y-118590754D01*
X136989779Y-118590750D01*
X137058866Y-118500715D01*
X137080534Y-118448401D01*
X137124373Y-118393999D01*
X137147638Y-118381295D01*
X137199953Y-118359627D01*
X137289988Y-118290540D01*
X137289992Y-118290535D01*
X137289997Y-118290532D01*
X137449390Y-118131139D01*
X137449393Y-118131134D01*
X137449398Y-118131130D01*
X137518485Y-118041095D01*
X137540153Y-117988781D01*
X137583992Y-117934379D01*
X137607257Y-117921675D01*
X137659572Y-117900007D01*
X137749607Y-117830920D01*
X137749611Y-117830915D01*
X137749616Y-117830912D01*
X137909009Y-117671519D01*
X137909012Y-117671514D01*
X137909017Y-117671510D01*
X137978104Y-117581475D01*
X137999770Y-117529164D01*
X138043609Y-117474762D01*
X138066875Y-117462057D01*
X138119192Y-117440388D01*
X138209227Y-117371301D01*
X138209231Y-117371296D01*
X138209236Y-117371293D01*
X138342319Y-117238210D01*
X138403642Y-117204725D01*
X138473334Y-117209709D01*
G37*
G04 #@! TD.AperFunction*
G04 #@! TA.AperFunction,Conductor*
G36*
X150572539Y-98310185D02*
G01*
X150618294Y-98362989D01*
X150629500Y-98414500D01*
X150629500Y-100275670D01*
X150609815Y-100342709D01*
X150557011Y-100388464D01*
X150487853Y-100398408D01*
X150449206Y-100386155D01*
X150378417Y-100350087D01*
X150378414Y-100350086D01*
X150378412Y-100350085D01*
X150176243Y-100284396D01*
X150176241Y-100284395D01*
X150176240Y-100284395D01*
X150014957Y-100258850D01*
X149966287Y-100251142D01*
X149753713Y-100251142D01*
X149705042Y-100258850D01*
X149543760Y-100284395D01*
X149341585Y-100350086D01*
X149152179Y-100446593D01*
X148980213Y-100571532D01*
X148829890Y-100721855D01*
X148704951Y-100893821D01*
X148608444Y-101083227D01*
X148542753Y-101285402D01*
X148509500Y-101495355D01*
X148509500Y-101707928D01*
X148542754Y-101917886D01*
X148542754Y-101917889D01*
X148556491Y-101960165D01*
X148558486Y-102030006D01*
X148526241Y-102086164D01*
X147713286Y-102899120D01*
X147601481Y-103010924D01*
X147601479Y-103010927D01*
X147551361Y-103097736D01*
X147551359Y-103097738D01*
X147522425Y-103147851D01*
X147522424Y-103147852D01*
X147506544Y-103207114D01*
X147481499Y-103300585D01*
X147481499Y-103300586D01*
X147481499Y-103300587D01*
X147481499Y-103468688D01*
X147481500Y-103468701D01*
X147481500Y-104855902D01*
X147461815Y-104922941D01*
X147445181Y-104943583D01*
X147093481Y-105295282D01*
X147093477Y-105295287D01*
X147079707Y-105319140D01*
X147079706Y-105319142D01*
X147014423Y-105432215D01*
X146973499Y-105584943D01*
X146973499Y-105584945D01*
X146973499Y-105753046D01*
X146973500Y-105753059D01*
X146973500Y-107141902D01*
X146953815Y-107208941D01*
X146937181Y-107229583D01*
X146585481Y-107581282D01*
X146585479Y-107581285D01*
X146567253Y-107612853D01*
X146549027Y-107644423D01*
X146506423Y-107718215D01*
X146465499Y-107870943D01*
X146465499Y-107870945D01*
X146465499Y-108039046D01*
X146465500Y-108039059D01*
X146465500Y-108496566D01*
X146445815Y-108563605D01*
X146429181Y-108584247D01*
X139691726Y-115321701D01*
X139651498Y-115348581D01*
X139589338Y-115374328D01*
X139589334Y-115374330D01*
X139499300Y-115443417D01*
X138517681Y-116425036D01*
X138456358Y-116458521D01*
X138386666Y-116453537D01*
X138342319Y-116425036D01*
X137360708Y-115443425D01*
X137360699Y-115443417D01*
X137270664Y-115374330D01*
X137208500Y-115348581D01*
X137168272Y-115321701D01*
X130430819Y-108584248D01*
X130397334Y-108522925D01*
X130394500Y-108496567D01*
X130394500Y-107870945D01*
X130394500Y-107870943D01*
X130353577Y-107718216D01*
X130310973Y-107644423D01*
X130274524Y-107581290D01*
X130274521Y-107581286D01*
X130274520Y-107581284D01*
X130162716Y-107469480D01*
X130162715Y-107469479D01*
X130158385Y-107465149D01*
X130158374Y-107465139D01*
X129922819Y-107229584D01*
X129889334Y-107168261D01*
X129886500Y-107141903D01*
X129886500Y-105584945D01*
X129886500Y-105584943D01*
X129845577Y-105432216D01*
X129780295Y-105319143D01*
X129766524Y-105295290D01*
X129766521Y-105295286D01*
X129766520Y-105295284D01*
X129654716Y-105183480D01*
X129654715Y-105183479D01*
X129650385Y-105179149D01*
X129650374Y-105179139D01*
X129414819Y-104943584D01*
X129381334Y-104882261D01*
X129378500Y-104855903D01*
X129378500Y-103468702D01*
X129378501Y-103468689D01*
X129378501Y-103300586D01*
X129337576Y-103147856D01*
X129337573Y-103147851D01*
X129258524Y-103010932D01*
X129258521Y-103010928D01*
X129258520Y-103010926D01*
X128959471Y-102711877D01*
X128386818Y-102139224D01*
X128353333Y-102077901D01*
X128350499Y-102051543D01*
X128350499Y-100703771D01*
X128350498Y-100703765D01*
X128344091Y-100644158D01*
X128293797Y-100509313D01*
X128293793Y-100509306D01*
X128207547Y-100394097D01*
X128207544Y-100394094D01*
X128092335Y-100307848D01*
X128092328Y-100307844D01*
X127957482Y-100257550D01*
X127957483Y-100257550D01*
X127897883Y-100251143D01*
X127897881Y-100251142D01*
X127897873Y-100251142D01*
X127897865Y-100251142D01*
X126354500Y-100251142D01*
X126287461Y-100231457D01*
X126241706Y-100178653D01*
X126230500Y-100127142D01*
X126230500Y-98414500D01*
X126250185Y-98347461D01*
X126302989Y-98301706D01*
X126354500Y-98290500D01*
X150505500Y-98290500D01*
X150572539Y-98310185D01*
G37*
G04 #@! TD.AperFunction*
M02*
