G04 #@! TF.GenerationSoftware,KiCad,Pcbnew,9.0.6*
G04 #@! TF.CreationDate,2026-01-08T21:28:12-06:00*
G04 #@! TF.ProjectId,QFN-40_5x5_P0.4,51464e2d-3430-45f3-9578-355f50302e34,rev?*
G04 #@! TF.SameCoordinates,Original*
G04 #@! TF.FileFunction,Legend,Bot*
G04 #@! TF.FilePolarity,Positive*
%FSLAX46Y46*%
G04 Gerber Fmt 4.6, Leading zero omitted, Abs format (unit mm)*
G04 Created by KiCad (PCBNEW 9.0.6) date 2026-01-08 21:28:12*
%MOMM*%
%LPD*%
G01*
G04 APERTURE LIST*
%ADD10C,0.120000*%
%ADD11R,2.510000X1.000000*%
%ADD12C,1.700000*%
%ADD13R,1.700000X1.700000*%
G04 APERTURE END LIST*
D10*
X131174000Y-81424000D02*
X131174000Y-81994000D01*
X131174000Y-81424000D02*
X128414000Y-81424000D01*
X131174000Y-83614000D02*
X131174000Y-87074000D01*
X131174000Y-88694000D02*
X131174000Y-92154000D01*
X131174000Y-93774000D02*
X131174000Y-97234000D01*
X131174000Y-98854000D02*
X131174000Y-102314000D01*
X131174000Y-103934000D02*
X131174000Y-107394000D01*
X131174000Y-109014000D02*
X131174000Y-112474000D01*
X131174000Y-114094000D02*
X131174000Y-117554000D01*
X131174000Y-119174000D02*
X131174000Y-122634000D01*
X131174000Y-124254000D02*
X131174000Y-127714000D01*
X131174000Y-129334000D02*
X131174000Y-132794000D01*
X131174000Y-134414000D02*
X131174000Y-137524000D01*
X131174000Y-137524000D02*
X128414000Y-137524000D01*
X128414000Y-81424000D02*
X128414000Y-84534000D01*
X128414000Y-86154000D02*
X128414000Y-89614000D01*
X128414000Y-91234000D02*
X128414000Y-94694000D01*
X128414000Y-96314000D02*
X128414000Y-99774000D01*
X128414000Y-101394000D02*
X128414000Y-104854000D01*
X128414000Y-106474000D02*
X128414000Y-109934000D01*
X128414000Y-111554000D02*
X128414000Y-115014000D01*
X128414000Y-116634000D02*
X128414000Y-120094000D01*
X128414000Y-121714000D02*
X128414000Y-125174000D01*
X128414000Y-126794000D02*
X128414000Y-130254000D01*
X128414000Y-131874000D02*
X128414000Y-135334000D01*
X128414000Y-136954000D02*
X128414000Y-137524000D01*
X143874000Y-81424000D02*
X143874000Y-84534000D01*
X143874000Y-81424000D02*
X141114000Y-81424000D01*
X143874000Y-81994000D02*
X143874000Y-84534000D01*
X143874000Y-86154000D02*
X143874000Y-89614000D01*
X143874000Y-91234000D02*
X143874000Y-94694000D01*
X143874000Y-96314000D02*
X143874000Y-99774000D01*
X143874000Y-101394000D02*
X143874000Y-104854000D01*
X143874000Y-106474000D02*
X143874000Y-109934000D01*
X143874000Y-111554000D02*
X143874000Y-115014000D01*
X143874000Y-116634000D02*
X143874000Y-120094000D01*
X143874000Y-121714000D02*
X143874000Y-125174000D01*
X143874000Y-126794000D02*
X143874000Y-130254000D01*
X143874000Y-131874000D02*
X143874000Y-135334000D01*
X143874000Y-136954000D02*
X143874000Y-137524000D01*
X143874000Y-137524000D02*
X141114000Y-137524000D01*
X141114000Y-81424000D02*
X141114000Y-81994000D01*
X141114000Y-81994000D02*
X139644000Y-81994000D01*
X141114000Y-83614000D02*
X141114000Y-87074000D01*
X141114000Y-88694000D02*
X141114000Y-92154000D01*
X141114000Y-93774000D02*
X141114000Y-97234000D01*
X141114000Y-98854000D02*
X141114000Y-102314000D01*
X141114000Y-103934000D02*
X141114000Y-107394000D01*
X141114000Y-109014000D02*
X141114000Y-112474000D01*
X141114000Y-114094000D02*
X141114000Y-117554000D01*
X141114000Y-119174000D02*
X141114000Y-122634000D01*
X141114000Y-124254000D02*
X141114000Y-127714000D01*
X141114000Y-129334000D02*
X141114000Y-132794000D01*
X141114000Y-134414000D02*
X141114000Y-137524000D01*
%LPC*%
D11*
X131449000Y-108204000D03*
X131449000Y-82804000D03*
X128139000Y-85344000D03*
X131449000Y-87884000D03*
X128139000Y-90424000D03*
X131449000Y-92964000D03*
X128139000Y-95504000D03*
X131449000Y-98044000D03*
X128139000Y-100584000D03*
X131449000Y-103124000D03*
X128139000Y-105664000D03*
X128139000Y-110744000D03*
X131449000Y-113284000D03*
X128139000Y-115824000D03*
X131449000Y-118364000D03*
X128139000Y-120904000D03*
X131449000Y-123444000D03*
X128139000Y-125984000D03*
X131449000Y-128524000D03*
X128139000Y-131064000D03*
X131449000Y-133604000D03*
X128139000Y-136144000D03*
D12*
X147574000Y-82804000D03*
X147574000Y-85344000D03*
X147574000Y-87884000D03*
X147574000Y-90424000D03*
X147574000Y-92964000D03*
X147574000Y-95504000D03*
X147574000Y-98044000D03*
X147574000Y-100584000D03*
X147574000Y-103124000D03*
X147574000Y-105664000D03*
X147574000Y-108204000D03*
X147574000Y-110744000D03*
X147574000Y-113284000D03*
X147574000Y-115824000D03*
X147574000Y-118364000D03*
X147574000Y-120904000D03*
X147574000Y-123444000D03*
X147574000Y-125984000D03*
X147574000Y-128524000D03*
X147574000Y-131064000D03*
X147574000Y-133604000D03*
X147574000Y-136144000D03*
X124714000Y-82804000D03*
D13*
X124714000Y-85344000D03*
D12*
X124714000Y-87884000D03*
X124714000Y-90424000D03*
X124714000Y-92964000D03*
X124714000Y-95504000D03*
X124714000Y-98044000D03*
X124714000Y-100584000D03*
X124714000Y-103124000D03*
X124714000Y-105664000D03*
X124714000Y-108204000D03*
X124714000Y-110744000D03*
X124714000Y-113284000D03*
X124714000Y-115824000D03*
X124714000Y-118364000D03*
X124714000Y-120904000D03*
X124714000Y-123444000D03*
X124714000Y-125984000D03*
X124714000Y-128524000D03*
X124714000Y-131064000D03*
X124714000Y-133604000D03*
X124714000Y-136144000D03*
D11*
X140839000Y-82804000D03*
X144149000Y-85344000D03*
X140839000Y-87884000D03*
X144149000Y-90424000D03*
X140839000Y-92964000D03*
X144149000Y-95504000D03*
X140839000Y-98044000D03*
X144149000Y-100584000D03*
X140839000Y-103124000D03*
X144149000Y-105664000D03*
X140839000Y-108204000D03*
X144149000Y-110744000D03*
X140839000Y-113284000D03*
X144149000Y-115824000D03*
X140839000Y-118364000D03*
X144149000Y-120904000D03*
X140839000Y-123444000D03*
X144149000Y-125984000D03*
X140839000Y-128524000D03*
X144149000Y-131064000D03*
X140839000Y-133604000D03*
X144149000Y-136144000D03*
%LPD*%
M02*
