G04 #@! TF.GenerationSoftware,KiCad,Pcbnew,9.0.6*
G04 #@! TF.CreationDate,2026-01-08T21:28:12-06:00*
G04 #@! TF.ProjectId,QFN-40_5x5_P0.4,51464e2d-3430-45f3-9578-355f50302e34,rev?*
G04 #@! TF.SameCoordinates,Original*
G04 #@! TF.FileFunction,Soldermask,Bot*
G04 #@! TF.FilePolarity,Negative*
%FSLAX46Y46*%
G04 Gerber Fmt 4.6, Leading zero omitted, Abs format (unit mm)*
G04 Created by KiCad (PCBNEW 9.0.6) date 2026-01-08 21:28:12*
%MOMM*%
%LPD*%
G01*
G04 APERTURE LIST*
%ADD10R,2.510000X1.000000*%
%ADD11C,1.700000*%
%ADD12R,1.700000X1.700000*%
G04 APERTURE END LIST*
D10*
X131449000Y-108204000D03*
X131449000Y-82804000D03*
X128139000Y-85344000D03*
X131449000Y-87884000D03*
X128139000Y-90424000D03*
X131449000Y-92964000D03*
X128139000Y-95504000D03*
X131449000Y-98044000D03*
X128139000Y-100584000D03*
X131449000Y-103124000D03*
X128139000Y-105664000D03*
X128139000Y-110744000D03*
X131449000Y-113284000D03*
X128139000Y-115824000D03*
X131449000Y-118364000D03*
X128139000Y-120904000D03*
X131449000Y-123444000D03*
X128139000Y-125984000D03*
X131449000Y-128524000D03*
X128139000Y-131064000D03*
X131449000Y-133604000D03*
X128139000Y-136144000D03*
D11*
X147574000Y-82804000D03*
X147574000Y-85344000D03*
X147574000Y-87884000D03*
X147574000Y-90424000D03*
X147574000Y-92964000D03*
X147574000Y-95504000D03*
X147574000Y-98044000D03*
X147574000Y-100584000D03*
X147574000Y-103124000D03*
X147574000Y-105664000D03*
X147574000Y-108204000D03*
X147574000Y-110744000D03*
X147574000Y-113284000D03*
X147574000Y-115824000D03*
X147574000Y-118364000D03*
X147574000Y-120904000D03*
X147574000Y-123444000D03*
X147574000Y-125984000D03*
X147574000Y-128524000D03*
X147574000Y-131064000D03*
X147574000Y-133604000D03*
X147574000Y-136144000D03*
X124714000Y-82804000D03*
D12*
X124714000Y-85344000D03*
D11*
X124714000Y-87884000D03*
X124714000Y-90424000D03*
X124714000Y-92964000D03*
X124714000Y-95504000D03*
X124714000Y-98044000D03*
X124714000Y-100584000D03*
X124714000Y-103124000D03*
X124714000Y-105664000D03*
X124714000Y-108204000D03*
X124714000Y-110744000D03*
X124714000Y-113284000D03*
X124714000Y-115824000D03*
X124714000Y-118364000D03*
X124714000Y-120904000D03*
X124714000Y-123444000D03*
X124714000Y-125984000D03*
X124714000Y-128524000D03*
X124714000Y-131064000D03*
X124714000Y-133604000D03*
X124714000Y-136144000D03*
D10*
X140839000Y-82804000D03*
X144149000Y-85344000D03*
X140839000Y-87884000D03*
X144149000Y-90424000D03*
X140839000Y-92964000D03*
X144149000Y-95504000D03*
X140839000Y-98044000D03*
X144149000Y-100584000D03*
X140839000Y-103124000D03*
X144149000Y-105664000D03*
X140839000Y-108204000D03*
X144149000Y-110744000D03*
X140839000Y-113284000D03*
X144149000Y-115824000D03*
X140839000Y-118364000D03*
X144149000Y-120904000D03*
X140839000Y-123444000D03*
X144149000Y-125984000D03*
X140839000Y-128524000D03*
X144149000Y-131064000D03*
X140839000Y-133604000D03*
X144149000Y-136144000D03*
M02*
