G04 #@! TF.GenerationSoftware,KiCad,Pcbnew,9.0.6*
G04 #@! TF.CreationDate,2026-01-08T21:28:12-06:00*
G04 #@! TF.ProjectId,QFN-40_5x5_P0.4,51464e2d-3430-45f3-9578-355f50302e34,rev?*
G04 #@! TF.SameCoordinates,Original*
G04 #@! TF.FileFunction,Legend,Top*
G04 #@! TF.FilePolarity,Positive*
%FSLAX46Y46*%
G04 Gerber Fmt 4.6, Leading zero omitted, Abs format (unit mm)*
G04 Created by KiCad (PCBNEW 9.0.6) date 2026-01-08 21:28:12*
%MOMM*%
%LPD*%
G01*
G04 APERTURE LIST*
G04 Aperture macros list*
%AMRoundRect*
0 Rectangle with rounded corners*
0 $1 Rounding radius*
0 $2 $3 $4 $5 $6 $7 $8 $9 X,Y pos of 4 corners*
0 Add a 4 corners polygon primitive as box body*
4,1,4,$2,$3,$4,$5,$6,$7,$8,$9,$2,$3,0*
0 Add four circle primitives for the rounded corners*
1,1,$1+$1,$2,$3*
1,1,$1+$1,$4,$5*
1,1,$1+$1,$6,$7*
1,1,$1+$1,$8,$9*
0 Add four rect primitives between the rounded corners*
20,1,$1+$1,$2,$3,$4,$5,0*
20,1,$1+$1,$4,$5,$6,$7,0*
20,1,$1+$1,$6,$7,$8,$9,0*
20,1,$1+$1,$8,$9,$2,$3,0*%
%AMRotRect*
0 Rectangle, with rotation*
0 The origin of the aperture is its center*
0 $1 length*
0 $2 width*
0 $3 Rotation angle, in degrees counterclockwise*
0 Add horizontal line*
21,1,$1,$2,0,0,$3*%
G04 Aperture macros list end*
%ADD10C,0.100000*%
%ADD11C,0.200000*%
%ADD12C,0.300000*%
%ADD13C,0.000000*%
%ADD14C,0.120000*%
%ADD15RoundRect,0.062500X-0.424264X0.335876X0.335876X-0.424264X0.424264X-0.335876X-0.335876X0.424264X0*%
%ADD16RoundRect,0.062500X-0.424264X-0.335876X-0.335876X-0.424264X0.424264X0.335876X0.335876X0.424264X0*%
%ADD17RotRect,3.600000X3.600000X315.000000*%
%ADD18C,1.700000*%
%ADD19R,1.700000X1.700000*%
G04 APERTURE END LIST*
D10*
X126159249Y-97291733D02*
X146128752Y-97291733D01*
X146128752Y-102361999D01*
X126159249Y-102361999D01*
X126159249Y-97291733D01*
G36*
X126159249Y-97291733D02*
G01*
X146128752Y-97291733D01*
X146128752Y-102361999D01*
X126159249Y-102361999D01*
X126159249Y-97291733D01*
G37*
X127133664Y-97291727D02*
X144175503Y-97291727D01*
X144175503Y-103726286D01*
X127133664Y-103726286D01*
X127133664Y-97291727D01*
G36*
X127133664Y-97291727D02*
G01*
X144175503Y-97291727D01*
X144175503Y-103726286D01*
X127133664Y-103726286D01*
X127133664Y-97291727D01*
G37*
X123317000Y-134716380D02*
X128397000Y-134716380D01*
X128397000Y-137383630D01*
X123317000Y-137383630D01*
X123317000Y-134716380D01*
G36*
X123317000Y-134716380D02*
G01*
X128397000Y-134716380D01*
X128397000Y-137383630D01*
X123317000Y-137383630D01*
X123317000Y-134716380D01*
G37*
X126111000Y-119064096D02*
X146177000Y-119064096D01*
X146177000Y-128549429D01*
X126111000Y-128549429D01*
X126111000Y-119064096D01*
G36*
X126111000Y-119064096D02*
G01*
X146177000Y-119064096D01*
X146177000Y-128549429D01*
X126111000Y-128549429D01*
X126111000Y-119064096D01*
G37*
X128083750Y-83776805D02*
X143882500Y-83776805D01*
X143882500Y-84183205D01*
X128083750Y-84183205D01*
X128083750Y-83776805D01*
G36*
X128083750Y-83776805D02*
G01*
X143882500Y-83776805D01*
X143882500Y-84183205D01*
X128083750Y-84183205D01*
X128083750Y-83776805D01*
G37*
X143755500Y-134716380D02*
X148954000Y-134716380D01*
X148954000Y-137383630D01*
X143755500Y-137383630D01*
X143755500Y-134716380D01*
G36*
X143755500Y-134716380D02*
G01*
X148954000Y-134716380D01*
X148954000Y-137383630D01*
X143755500Y-137383630D01*
X143755500Y-134716380D01*
G37*
X127499500Y-81515955D02*
X144441250Y-81515955D01*
X144441250Y-81744555D01*
X127499500Y-81744555D01*
X127499500Y-81515955D01*
G36*
X127499500Y-81515955D02*
G01*
X144441250Y-81515955D01*
X144441250Y-81744555D01*
X127499500Y-81744555D01*
X127499500Y-81515955D01*
G37*
X128134500Y-134716380D02*
X144187250Y-134716380D01*
X144187250Y-134944730D01*
X128134500Y-134944730D01*
X128134500Y-134716380D01*
G36*
X128134500Y-134716380D02*
G01*
X144187250Y-134716380D01*
X144187250Y-134944730D01*
X128134500Y-134944730D01*
X128134500Y-134716380D01*
G37*
X127194750Y-136977230D02*
X144898500Y-136977230D01*
X144898500Y-137383630D01*
X127194750Y-137383630D01*
X127194750Y-136977230D01*
G36*
X127194750Y-136977230D02*
G01*
X144898500Y-136977230D01*
X144898500Y-137383630D01*
X127194750Y-137383630D01*
X127194750Y-136977230D01*
G37*
X128076000Y-117654795D02*
X144146327Y-117654795D01*
X144146327Y-125241429D01*
X128076000Y-125241429D01*
X128076000Y-117654795D01*
G36*
X128076000Y-117654795D02*
G01*
X144146327Y-117654795D01*
X144146327Y-125241429D01*
X128076000Y-125241429D01*
X128076000Y-117654795D01*
G37*
X123317000Y-81515955D02*
X128397000Y-81515955D01*
X128397000Y-84183205D01*
X123317000Y-84183205D01*
X123317000Y-81515955D01*
G36*
X123317000Y-81515955D02*
G01*
X128397000Y-81515955D01*
X128397000Y-84183205D01*
X123317000Y-84183205D01*
X123317000Y-81515955D01*
G37*
X143768250Y-81515955D02*
X148954000Y-81515955D01*
X148954000Y-84183205D01*
X143768250Y-84183205D01*
X143768250Y-81515955D01*
G36*
X143768250Y-81515955D02*
G01*
X148954000Y-81515955D01*
X148954000Y-84183205D01*
X143768250Y-84183205D01*
X143768250Y-81515955D01*
G37*
D11*
G36*
X146181713Y-119027330D02*
G01*
X144144056Y-119027330D01*
X144144056Y-118796710D01*
X144255167Y-118796710D01*
X144255167Y-118835728D01*
X144270099Y-118871776D01*
X144297689Y-118899366D01*
X144333737Y-118914298D01*
X144353246Y-118916219D01*
X144972293Y-118916219D01*
X144991802Y-118914298D01*
X145027850Y-118899366D01*
X145055440Y-118871776D01*
X145070372Y-118835728D01*
X145070372Y-118796710D01*
X145055440Y-118760662D01*
X145027850Y-118733072D01*
X144991802Y-118718140D01*
X144972293Y-118716219D01*
X144594668Y-118716219D01*
X144995385Y-118315501D01*
X145007821Y-118300347D01*
X145009195Y-118297028D01*
X145011551Y-118294313D01*
X145019542Y-118276413D01*
X145067161Y-118133556D01*
X145069360Y-118123883D01*
X145070372Y-118121442D01*
X145070720Y-118117904D01*
X145071508Y-118114441D01*
X145071320Y-118111806D01*
X145072293Y-118101933D01*
X145072293Y-118006695D01*
X145070372Y-117987186D01*
X145068996Y-117983865D01*
X145068742Y-117980282D01*
X145061736Y-117961973D01*
X145014117Y-117866736D01*
X145008831Y-117858339D01*
X145007821Y-117855899D01*
X145005567Y-117853153D01*
X145003674Y-117850145D01*
X145001676Y-117848412D01*
X144995384Y-117840746D01*
X144951349Y-117796710D01*
X145207548Y-117796710D01*
X145207548Y-117835728D01*
X145222480Y-117871776D01*
X145250070Y-117899366D01*
X145286118Y-117914298D01*
X145305627Y-117916219D01*
X145820639Y-117916219D01*
X145451807Y-118776827D01*
X145445888Y-118795515D01*
X145445413Y-118834531D01*
X145459904Y-118870758D01*
X145487155Y-118898683D01*
X145523018Y-118914053D01*
X145562034Y-118914528D01*
X145598261Y-118900037D01*
X145626186Y-118872786D01*
X145635637Y-118855611D01*
X146064207Y-117855611D01*
X146070127Y-117836923D01*
X146070134Y-117836301D01*
X146070372Y-117835728D01*
X146070372Y-117816799D01*
X146070602Y-117797908D01*
X146070372Y-117797332D01*
X146070372Y-117796710D01*
X146063118Y-117779199D01*
X146056111Y-117761680D01*
X146055677Y-117761236D01*
X146055440Y-117760662D01*
X146042060Y-117747282D01*
X146028860Y-117733756D01*
X146028289Y-117733511D01*
X146027850Y-117733072D01*
X146010333Y-117725816D01*
X145992996Y-117718386D01*
X145992377Y-117718378D01*
X145991802Y-117718140D01*
X145972293Y-117716219D01*
X145305627Y-117716219D01*
X145286118Y-117718140D01*
X145250070Y-117733072D01*
X145222480Y-117760662D01*
X145207548Y-117796710D01*
X144951349Y-117796710D01*
X144947766Y-117793127D01*
X144940095Y-117786832D01*
X144938366Y-117784838D01*
X144935358Y-117782944D01*
X144932612Y-117780691D01*
X144930172Y-117779680D01*
X144921776Y-117774395D01*
X144826538Y-117726776D01*
X144808230Y-117719770D01*
X144804646Y-117719515D01*
X144801326Y-117718140D01*
X144781817Y-117716219D01*
X144543722Y-117716219D01*
X144524213Y-117718140D01*
X144520892Y-117719515D01*
X144517309Y-117719770D01*
X144499000Y-117726776D01*
X144403763Y-117774395D01*
X144395366Y-117779680D01*
X144392926Y-117780691D01*
X144390180Y-117782944D01*
X144387172Y-117784838D01*
X144385439Y-117786835D01*
X144377773Y-117793128D01*
X144330154Y-117840746D01*
X144317718Y-117855900D01*
X144302786Y-117891948D01*
X144302786Y-117930966D01*
X144317718Y-117967014D01*
X144345308Y-117994604D01*
X144381356Y-118009536D01*
X144420374Y-118009536D01*
X144456422Y-117994604D01*
X144471576Y-117982168D01*
X144507719Y-117946023D01*
X144567329Y-117916219D01*
X144758210Y-117916219D01*
X144817819Y-117946024D01*
X144842488Y-117970692D01*
X144872293Y-118030302D01*
X144872293Y-118085706D01*
X144837271Y-118190770D01*
X144282535Y-118745508D01*
X144270099Y-118760662D01*
X144255167Y-118796710D01*
X144144056Y-118796710D01*
X144144056Y-117605108D01*
X146181713Y-117605108D01*
X146181713Y-119027330D01*
G37*
X144807326Y-85129552D02*
X144807326Y-85796219D01*
X144569231Y-84748600D02*
X144331136Y-85462885D01*
X144331136Y-85462885D02*
X144950183Y-85462885D01*
X145521612Y-84796219D02*
X145616850Y-84796219D01*
X145616850Y-84796219D02*
X145712088Y-84843838D01*
X145712088Y-84843838D02*
X145759707Y-84891457D01*
X145759707Y-84891457D02*
X145807326Y-84986695D01*
X145807326Y-84986695D02*
X145854945Y-85177171D01*
X145854945Y-85177171D02*
X145854945Y-85415266D01*
X145854945Y-85415266D02*
X145807326Y-85605742D01*
X145807326Y-85605742D02*
X145759707Y-85700980D01*
X145759707Y-85700980D02*
X145712088Y-85748600D01*
X145712088Y-85748600D02*
X145616850Y-85796219D01*
X145616850Y-85796219D02*
X145521612Y-85796219D01*
X145521612Y-85796219D02*
X145426374Y-85748600D01*
X145426374Y-85748600D02*
X145378755Y-85700980D01*
X145378755Y-85700980D02*
X145331136Y-85605742D01*
X145331136Y-85605742D02*
X145283517Y-85415266D01*
X145283517Y-85415266D02*
X145283517Y-85177171D01*
X145283517Y-85177171D02*
X145331136Y-84986695D01*
X145331136Y-84986695D02*
X145378755Y-84891457D01*
X145378755Y-84891457D02*
X145426374Y-84843838D01*
X145426374Y-84843838D02*
X145521612Y-84796219D01*
X144331136Y-133151457D02*
X144378755Y-133103838D01*
X144378755Y-133103838D02*
X144473993Y-133056219D01*
X144473993Y-133056219D02*
X144712088Y-133056219D01*
X144712088Y-133056219D02*
X144807326Y-133103838D01*
X144807326Y-133103838D02*
X144854945Y-133151457D01*
X144854945Y-133151457D02*
X144902564Y-133246695D01*
X144902564Y-133246695D02*
X144902564Y-133341933D01*
X144902564Y-133341933D02*
X144854945Y-133484790D01*
X144854945Y-133484790D02*
X144283517Y-134056219D01*
X144283517Y-134056219D02*
X144902564Y-134056219D01*
X145854945Y-134056219D02*
X145283517Y-134056219D01*
X145569231Y-134056219D02*
X145569231Y-133056219D01*
X145569231Y-133056219D02*
X145473993Y-133199076D01*
X145473993Y-133199076D02*
X145378755Y-133294314D01*
X145378755Y-133294314D02*
X145283517Y-133341933D01*
G36*
X126760633Y-103121308D02*
G01*
X126785302Y-103145976D01*
X126815107Y-103205586D01*
X126815107Y-103348848D01*
X126785302Y-103408456D01*
X126760633Y-103433126D01*
X126701024Y-103462932D01*
X126557762Y-103462932D01*
X126498152Y-103433127D01*
X126473485Y-103408459D01*
X126443679Y-103348847D01*
X126443679Y-103205586D01*
X126473484Y-103145976D01*
X126498152Y-103121307D01*
X126557762Y-103091503D01*
X126701024Y-103091503D01*
X126760633Y-103121308D01*
G37*
G36*
X126760633Y-102692737D02*
G01*
X126785302Y-102717405D01*
X126815107Y-102777015D01*
X126815107Y-102777420D01*
X126785302Y-102837029D01*
X126760633Y-102861697D01*
X126701024Y-102891503D01*
X126557762Y-102891503D01*
X126498152Y-102861698D01*
X126473484Y-102837029D01*
X126443679Y-102777419D01*
X126443679Y-102777015D01*
X126473484Y-102717405D01*
X126498152Y-102692736D01*
X126557762Y-102662932D01*
X126701024Y-102662932D01*
X126760633Y-102692737D01*
G37*
G36*
X127126218Y-103774043D02*
G01*
X126132568Y-103774043D01*
X126132568Y-102753408D01*
X126243679Y-102753408D01*
X126243679Y-102801027D01*
X126245600Y-102820536D01*
X126246975Y-102823856D01*
X126247230Y-102827440D01*
X126254236Y-102845748D01*
X126301855Y-102940986D01*
X126307140Y-102949382D01*
X126308151Y-102951822D01*
X126310404Y-102954568D01*
X126312298Y-102957576D01*
X126314292Y-102959305D01*
X126320587Y-102966976D01*
X126345114Y-102991503D01*
X126320587Y-103016030D01*
X126314292Y-103023700D01*
X126312298Y-103025430D01*
X126310404Y-103028437D01*
X126308151Y-103031184D01*
X126307140Y-103033623D01*
X126301855Y-103042020D01*
X126254236Y-103137258D01*
X126247230Y-103155566D01*
X126246975Y-103159149D01*
X126245600Y-103162470D01*
X126243679Y-103181979D01*
X126243679Y-103372455D01*
X126245600Y-103391964D01*
X126246975Y-103395284D01*
X126247230Y-103398868D01*
X126254236Y-103417176D01*
X126301855Y-103512414D01*
X126307138Y-103520806D01*
X126308150Y-103523250D01*
X126310406Y-103525999D01*
X126312298Y-103529004D01*
X126314292Y-103530733D01*
X126320587Y-103538403D01*
X126368205Y-103586023D01*
X126375873Y-103592316D01*
X126377605Y-103594313D01*
X126380613Y-103596206D01*
X126383359Y-103598460D01*
X126385799Y-103599470D01*
X126394196Y-103604756D01*
X126489433Y-103652375D01*
X126507742Y-103659381D01*
X126511325Y-103659635D01*
X126514646Y-103661011D01*
X126534155Y-103662932D01*
X126724631Y-103662932D01*
X126744140Y-103661011D01*
X126747460Y-103659635D01*
X126751044Y-103659381D01*
X126769352Y-103652375D01*
X126864590Y-103604756D01*
X126872985Y-103599471D01*
X126875427Y-103598460D01*
X126878174Y-103596204D01*
X126881180Y-103594313D01*
X126882910Y-103592318D01*
X126890580Y-103586023D01*
X126938199Y-103538403D01*
X126944491Y-103530736D01*
X126946488Y-103529005D01*
X126948381Y-103525997D01*
X126950636Y-103523250D01*
X126951647Y-103520808D01*
X126956931Y-103512414D01*
X127004550Y-103417177D01*
X127011556Y-103398868D01*
X127011810Y-103395284D01*
X127013186Y-103391964D01*
X127015107Y-103372455D01*
X127015107Y-103181979D01*
X127013186Y-103162470D01*
X127011810Y-103159149D01*
X127011556Y-103155566D01*
X127004550Y-103137257D01*
X126956931Y-103042020D01*
X126951645Y-103033623D01*
X126950635Y-103031183D01*
X126948381Y-103028437D01*
X126946488Y-103025429D01*
X126944490Y-103023696D01*
X126938198Y-103016030D01*
X126913671Y-102991503D01*
X126938198Y-102966976D01*
X126944490Y-102959309D01*
X126946488Y-102957577D01*
X126948381Y-102954568D01*
X126950635Y-102951823D01*
X126951645Y-102949382D01*
X126956931Y-102940986D01*
X127004550Y-102845749D01*
X127011556Y-102827440D01*
X127011810Y-102823856D01*
X127013186Y-102820536D01*
X127015107Y-102801027D01*
X127015107Y-102753408D01*
X127013186Y-102733899D01*
X127011810Y-102730578D01*
X127011556Y-102726995D01*
X127004550Y-102708686D01*
X126956931Y-102613449D01*
X126951645Y-102605052D01*
X126950635Y-102602612D01*
X126948381Y-102599866D01*
X126946488Y-102596858D01*
X126944490Y-102595125D01*
X126938198Y-102587459D01*
X126890580Y-102539840D01*
X126882909Y-102533545D01*
X126881180Y-102531551D01*
X126878172Y-102529657D01*
X126875426Y-102527404D01*
X126872986Y-102526393D01*
X126864590Y-102521108D01*
X126769352Y-102473489D01*
X126751044Y-102466483D01*
X126747460Y-102466228D01*
X126744140Y-102464853D01*
X126724631Y-102462932D01*
X126534155Y-102462932D01*
X126514646Y-102464853D01*
X126511325Y-102466228D01*
X126507742Y-102466483D01*
X126489433Y-102473489D01*
X126394196Y-102521108D01*
X126385799Y-102526393D01*
X126383359Y-102527404D01*
X126380613Y-102529657D01*
X126377605Y-102531551D01*
X126375872Y-102533548D01*
X126368206Y-102539841D01*
X126320587Y-102587459D01*
X126314292Y-102595129D01*
X126312298Y-102596859D01*
X126310404Y-102599866D01*
X126308151Y-102602613D01*
X126307140Y-102605052D01*
X126301855Y-102613449D01*
X126254236Y-102708687D01*
X126247230Y-102726995D01*
X126246975Y-102730578D01*
X126245600Y-102733899D01*
X126243679Y-102753408D01*
X126132568Y-102753408D01*
X126132568Y-102351821D01*
X127126218Y-102351821D01*
X127126218Y-103774043D01*
G37*
X134001142Y-130649418D02*
X133905904Y-130601799D01*
X133905904Y-130601799D02*
X133810666Y-130506561D01*
X133810666Y-130506561D02*
X133667809Y-130363703D01*
X133667809Y-130363703D02*
X133572571Y-130316084D01*
X133572571Y-130316084D02*
X133477333Y-130316084D01*
X133524952Y-130554180D02*
X133429714Y-130506561D01*
X133429714Y-130506561D02*
X133334476Y-130411322D01*
X133334476Y-130411322D02*
X133286857Y-130220846D01*
X133286857Y-130220846D02*
X133286857Y-129887513D01*
X133286857Y-129887513D02*
X133334476Y-129697037D01*
X133334476Y-129697037D02*
X133429714Y-129601799D01*
X133429714Y-129601799D02*
X133524952Y-129554180D01*
X133524952Y-129554180D02*
X133715428Y-129554180D01*
X133715428Y-129554180D02*
X133810666Y-129601799D01*
X133810666Y-129601799D02*
X133905904Y-129697037D01*
X133905904Y-129697037D02*
X133953523Y-129887513D01*
X133953523Y-129887513D02*
X133953523Y-130220846D01*
X133953523Y-130220846D02*
X133905904Y-130411322D01*
X133905904Y-130411322D02*
X133810666Y-130506561D01*
X133810666Y-130506561D02*
X133715428Y-130554180D01*
X133715428Y-130554180D02*
X133524952Y-130554180D01*
X134715428Y-130030370D02*
X134382095Y-130030370D01*
X134382095Y-130554180D02*
X134382095Y-129554180D01*
X134382095Y-129554180D02*
X134858285Y-129554180D01*
X135239238Y-130554180D02*
X135239238Y-129554180D01*
X135239238Y-129554180D02*
X135810666Y-130554180D01*
X135810666Y-130554180D02*
X135810666Y-129554180D01*
X136286857Y-130173227D02*
X137048762Y-130173227D01*
X137953523Y-129887513D02*
X137953523Y-130554180D01*
X137715428Y-129506561D02*
X137477333Y-130220846D01*
X137477333Y-130220846D02*
X138096380Y-130220846D01*
X138667809Y-129554180D02*
X138763047Y-129554180D01*
X138763047Y-129554180D02*
X138858285Y-129601799D01*
X138858285Y-129601799D02*
X138905904Y-129649418D01*
X138905904Y-129649418D02*
X138953523Y-129744656D01*
X138953523Y-129744656D02*
X139001142Y-129935132D01*
X139001142Y-129935132D02*
X139001142Y-130173227D01*
X139001142Y-130173227D02*
X138953523Y-130363703D01*
X138953523Y-130363703D02*
X138905904Y-130458941D01*
X138905904Y-130458941D02*
X138858285Y-130506561D01*
X138858285Y-130506561D02*
X138763047Y-130554180D01*
X138763047Y-130554180D02*
X138667809Y-130554180D01*
X138667809Y-130554180D02*
X138572571Y-130506561D01*
X138572571Y-130506561D02*
X138524952Y-130458941D01*
X138524952Y-130458941D02*
X138477333Y-130363703D01*
X138477333Y-130363703D02*
X138429714Y-130173227D01*
X138429714Y-130173227D02*
X138429714Y-129935132D01*
X138429714Y-129935132D02*
X138477333Y-129744656D01*
X138477333Y-129744656D02*
X138524952Y-129649418D01*
X138524952Y-129649418D02*
X138572571Y-129601799D01*
X138572571Y-129601799D02*
X138667809Y-129554180D01*
X134167809Y-131164124D02*
X133691619Y-131164124D01*
X133691619Y-131164124D02*
X133644000Y-131640314D01*
X133644000Y-131640314D02*
X133691619Y-131592695D01*
X133691619Y-131592695D02*
X133786857Y-131545076D01*
X133786857Y-131545076D02*
X134024952Y-131545076D01*
X134024952Y-131545076D02*
X134120190Y-131592695D01*
X134120190Y-131592695D02*
X134167809Y-131640314D01*
X134167809Y-131640314D02*
X134215428Y-131735552D01*
X134215428Y-131735552D02*
X134215428Y-131973647D01*
X134215428Y-131973647D02*
X134167809Y-132068885D01*
X134167809Y-132068885D02*
X134120190Y-132116505D01*
X134120190Y-132116505D02*
X134024952Y-132164124D01*
X134024952Y-132164124D02*
X133786857Y-132164124D01*
X133786857Y-132164124D02*
X133691619Y-132116505D01*
X133691619Y-132116505D02*
X133644000Y-132068885D01*
X134548762Y-132164124D02*
X135072571Y-131497457D01*
X134548762Y-131497457D02*
X135072571Y-132164124D01*
X135929714Y-131164124D02*
X135453524Y-131164124D01*
X135453524Y-131164124D02*
X135405905Y-131640314D01*
X135405905Y-131640314D02*
X135453524Y-131592695D01*
X135453524Y-131592695D02*
X135548762Y-131545076D01*
X135548762Y-131545076D02*
X135786857Y-131545076D01*
X135786857Y-131545076D02*
X135882095Y-131592695D01*
X135882095Y-131592695D02*
X135929714Y-131640314D01*
X135929714Y-131640314D02*
X135977333Y-131735552D01*
X135977333Y-131735552D02*
X135977333Y-131973647D01*
X135977333Y-131973647D02*
X135929714Y-132068885D01*
X135929714Y-132068885D02*
X135882095Y-132116505D01*
X135882095Y-132116505D02*
X135786857Y-132164124D01*
X135786857Y-132164124D02*
X135548762Y-132164124D01*
X135548762Y-132164124D02*
X135453524Y-132116505D01*
X135453524Y-132116505D02*
X135405905Y-132068885D01*
X136405905Y-132164124D02*
X136405905Y-131497457D01*
X136405905Y-131592695D02*
X136453524Y-131545076D01*
X136453524Y-131545076D02*
X136548762Y-131497457D01*
X136548762Y-131497457D02*
X136691619Y-131497457D01*
X136691619Y-131497457D02*
X136786857Y-131545076D01*
X136786857Y-131545076D02*
X136834476Y-131640314D01*
X136834476Y-131640314D02*
X136834476Y-132164124D01*
X136834476Y-131640314D02*
X136882095Y-131545076D01*
X136882095Y-131545076D02*
X136977333Y-131497457D01*
X136977333Y-131497457D02*
X137120190Y-131497457D01*
X137120190Y-131497457D02*
X137215429Y-131545076D01*
X137215429Y-131545076D02*
X137263048Y-131640314D01*
X137263048Y-131640314D02*
X137263048Y-132164124D01*
X137739238Y-132164124D02*
X137739238Y-131497457D01*
X137739238Y-131592695D02*
X137786857Y-131545076D01*
X137786857Y-131545076D02*
X137882095Y-131497457D01*
X137882095Y-131497457D02*
X138024952Y-131497457D01*
X138024952Y-131497457D02*
X138120190Y-131545076D01*
X138120190Y-131545076D02*
X138167809Y-131640314D01*
X138167809Y-131640314D02*
X138167809Y-132164124D01*
X138167809Y-131640314D02*
X138215428Y-131545076D01*
X138215428Y-131545076D02*
X138310666Y-131497457D01*
X138310666Y-131497457D02*
X138453523Y-131497457D01*
X138453523Y-131497457D02*
X138548762Y-131545076D01*
X138548762Y-131545076D02*
X138596381Y-131640314D01*
X138596381Y-131640314D02*
X138596381Y-132164124D01*
X131763048Y-132774068D02*
X131858286Y-132774068D01*
X131858286Y-132774068D02*
X131953524Y-132821687D01*
X131953524Y-132821687D02*
X132001143Y-132869306D01*
X132001143Y-132869306D02*
X132048762Y-132964544D01*
X132048762Y-132964544D02*
X132096381Y-133155020D01*
X132096381Y-133155020D02*
X132096381Y-133393115D01*
X132096381Y-133393115D02*
X132048762Y-133583591D01*
X132048762Y-133583591D02*
X132001143Y-133678829D01*
X132001143Y-133678829D02*
X131953524Y-133726449D01*
X131953524Y-133726449D02*
X131858286Y-133774068D01*
X131858286Y-133774068D02*
X131763048Y-133774068D01*
X131763048Y-133774068D02*
X131667810Y-133726449D01*
X131667810Y-133726449D02*
X131620191Y-133678829D01*
X131620191Y-133678829D02*
X131572572Y-133583591D01*
X131572572Y-133583591D02*
X131524953Y-133393115D01*
X131524953Y-133393115D02*
X131524953Y-133155020D01*
X131524953Y-133155020D02*
X131572572Y-132964544D01*
X131572572Y-132964544D02*
X131620191Y-132869306D01*
X131620191Y-132869306D02*
X131667810Y-132821687D01*
X131667810Y-132821687D02*
X131763048Y-132774068D01*
X132524953Y-133678829D02*
X132572572Y-133726449D01*
X132572572Y-133726449D02*
X132524953Y-133774068D01*
X132524953Y-133774068D02*
X132477334Y-133726449D01*
X132477334Y-133726449D02*
X132524953Y-133678829D01*
X132524953Y-133678829D02*
X132524953Y-133774068D01*
X133429714Y-133107401D02*
X133429714Y-133774068D01*
X133191619Y-132726449D02*
X132953524Y-133440734D01*
X132953524Y-133440734D02*
X133572571Y-133440734D01*
X133953524Y-133774068D02*
X133953524Y-133107401D01*
X133953524Y-133202639D02*
X134001143Y-133155020D01*
X134001143Y-133155020D02*
X134096381Y-133107401D01*
X134096381Y-133107401D02*
X134239238Y-133107401D01*
X134239238Y-133107401D02*
X134334476Y-133155020D01*
X134334476Y-133155020D02*
X134382095Y-133250258D01*
X134382095Y-133250258D02*
X134382095Y-133774068D01*
X134382095Y-133250258D02*
X134429714Y-133155020D01*
X134429714Y-133155020D02*
X134524952Y-133107401D01*
X134524952Y-133107401D02*
X134667809Y-133107401D01*
X134667809Y-133107401D02*
X134763048Y-133155020D01*
X134763048Y-133155020D02*
X134810667Y-133250258D01*
X134810667Y-133250258D02*
X134810667Y-133774068D01*
X135286857Y-133774068D02*
X135286857Y-133107401D01*
X135286857Y-133202639D02*
X135334476Y-133155020D01*
X135334476Y-133155020D02*
X135429714Y-133107401D01*
X135429714Y-133107401D02*
X135572571Y-133107401D01*
X135572571Y-133107401D02*
X135667809Y-133155020D01*
X135667809Y-133155020D02*
X135715428Y-133250258D01*
X135715428Y-133250258D02*
X135715428Y-133774068D01*
X135715428Y-133250258D02*
X135763047Y-133155020D01*
X135763047Y-133155020D02*
X135858285Y-133107401D01*
X135858285Y-133107401D02*
X136001142Y-133107401D01*
X136001142Y-133107401D02*
X136096381Y-133155020D01*
X136096381Y-133155020D02*
X136144000Y-133250258D01*
X136144000Y-133250258D02*
X136144000Y-133774068D01*
X137382095Y-133774068D02*
X137382095Y-132774068D01*
X137382095Y-132774068D02*
X137763047Y-132774068D01*
X137763047Y-132774068D02*
X137858285Y-132821687D01*
X137858285Y-132821687D02*
X137905904Y-132869306D01*
X137905904Y-132869306D02*
X137953523Y-132964544D01*
X137953523Y-132964544D02*
X137953523Y-133107401D01*
X137953523Y-133107401D02*
X137905904Y-133202639D01*
X137905904Y-133202639D02*
X137858285Y-133250258D01*
X137858285Y-133250258D02*
X137763047Y-133297877D01*
X137763047Y-133297877D02*
X137382095Y-133297877D01*
X138382095Y-133774068D02*
X138382095Y-133107401D01*
X138382095Y-132774068D02*
X138334476Y-132821687D01*
X138334476Y-132821687D02*
X138382095Y-132869306D01*
X138382095Y-132869306D02*
X138429714Y-132821687D01*
X138429714Y-132821687D02*
X138382095Y-132774068D01*
X138382095Y-132774068D02*
X138382095Y-132869306D01*
X138715428Y-133107401D02*
X139096380Y-133107401D01*
X138858285Y-132774068D02*
X138858285Y-133631210D01*
X138858285Y-133631210D02*
X138905904Y-133726449D01*
X138905904Y-133726449D02*
X139001142Y-133774068D01*
X139001142Y-133774068D02*
X139096380Y-133774068D01*
X139858285Y-133726449D02*
X139763047Y-133774068D01*
X139763047Y-133774068D02*
X139572571Y-133774068D01*
X139572571Y-133774068D02*
X139477333Y-133726449D01*
X139477333Y-133726449D02*
X139429714Y-133678829D01*
X139429714Y-133678829D02*
X139382095Y-133583591D01*
X139382095Y-133583591D02*
X139382095Y-133297877D01*
X139382095Y-133297877D02*
X139429714Y-133202639D01*
X139429714Y-133202639D02*
X139477333Y-133155020D01*
X139477333Y-133155020D02*
X139572571Y-133107401D01*
X139572571Y-133107401D02*
X139763047Y-133107401D01*
X139763047Y-133107401D02*
X139858285Y-133155020D01*
X140286857Y-133774068D02*
X140286857Y-132774068D01*
X140715428Y-133774068D02*
X140715428Y-133250258D01*
X140715428Y-133250258D02*
X140667809Y-133155020D01*
X140667809Y-133155020D02*
X140572571Y-133107401D01*
X140572571Y-133107401D02*
X140429714Y-133107401D01*
X140429714Y-133107401D02*
X140334476Y-133155020D01*
X140334476Y-133155020D02*
X140286857Y-133202639D01*
G36*
X128130312Y-119074657D02*
G01*
X126139368Y-119074657D01*
X126139368Y-118136753D01*
X126250479Y-118136753D01*
X126253245Y-118175673D01*
X126270694Y-118210572D01*
X126300171Y-118236136D01*
X126337187Y-118248475D01*
X126376107Y-118245709D01*
X126394415Y-118238703D01*
X126489653Y-118191084D01*
X126498049Y-118185798D01*
X126500489Y-118184788D01*
X126503235Y-118182534D01*
X126506243Y-118180641D01*
X126507972Y-118178646D01*
X126515643Y-118172352D01*
X126535408Y-118152587D01*
X126535408Y-118763546D01*
X126349694Y-118763546D01*
X126330185Y-118765467D01*
X126294137Y-118780399D01*
X126266547Y-118807989D01*
X126251615Y-118844037D01*
X126251615Y-118883055D01*
X126266547Y-118919103D01*
X126294137Y-118946693D01*
X126330185Y-118961625D01*
X126349694Y-118963546D01*
X126921122Y-118963546D01*
X126940631Y-118961625D01*
X126976679Y-118946693D01*
X127004269Y-118919103D01*
X127019201Y-118883055D01*
X127019201Y-118844037D01*
X127004269Y-118807989D01*
X126976679Y-118780399D01*
X126940631Y-118765467D01*
X126921122Y-118763546D01*
X126735408Y-118763546D01*
X126735408Y-118517705D01*
X127202860Y-118517705D01*
X127203996Y-118533689D01*
X127203996Y-118549721D01*
X127205371Y-118553041D01*
X127205626Y-118556625D01*
X127212793Y-118570960D01*
X127218928Y-118585769D01*
X127221468Y-118588309D01*
X127223076Y-118591524D01*
X127235187Y-118602028D01*
X127246518Y-118613359D01*
X127249836Y-118614733D01*
X127252552Y-118617089D01*
X127267761Y-118622158D01*
X127282566Y-118628291D01*
X127287666Y-118628793D01*
X127289568Y-118629427D01*
X127292201Y-118629239D01*
X127302075Y-118630212D01*
X127678265Y-118630212D01*
X127678265Y-118863546D01*
X127680186Y-118883055D01*
X127695118Y-118919103D01*
X127722708Y-118946693D01*
X127758756Y-118961625D01*
X127797774Y-118961625D01*
X127833822Y-118946693D01*
X127861412Y-118919103D01*
X127876344Y-118883055D01*
X127878265Y-118863546D01*
X127878265Y-118630212D01*
X127921122Y-118630212D01*
X127940631Y-118628291D01*
X127976679Y-118613359D01*
X128004269Y-118585769D01*
X128019201Y-118549721D01*
X128019201Y-118510703D01*
X128004269Y-118474655D01*
X127976679Y-118447065D01*
X127940631Y-118432133D01*
X127921122Y-118430212D01*
X127878265Y-118430212D01*
X127878265Y-118196879D01*
X127876344Y-118177370D01*
X127861412Y-118141322D01*
X127833822Y-118113732D01*
X127797774Y-118098800D01*
X127758756Y-118098800D01*
X127722708Y-118113732D01*
X127695118Y-118141322D01*
X127680186Y-118177370D01*
X127678265Y-118196879D01*
X127678265Y-118430212D01*
X127440817Y-118430212D01*
X127635038Y-117847550D01*
X127639385Y-117828435D01*
X127636619Y-117789515D01*
X127619169Y-117754616D01*
X127589693Y-117729051D01*
X127552677Y-117716712D01*
X127513757Y-117719479D01*
X127478858Y-117736928D01*
X127453293Y-117766404D01*
X127445302Y-117784305D01*
X127207207Y-118498589D01*
X127205007Y-118508260D01*
X127203996Y-118510703D01*
X127203996Y-118512709D01*
X127202860Y-118517705D01*
X126735408Y-118517705D01*
X126735408Y-117863546D01*
X126735401Y-117863475D01*
X126735408Y-117863441D01*
X126735387Y-117863339D01*
X126733487Y-117844037D01*
X126729697Y-117834888D01*
X126727756Y-117825181D01*
X126722304Y-117817040D01*
X126718555Y-117807989D01*
X126711555Y-117800989D01*
X126706045Y-117792761D01*
X126697890Y-117787324D01*
X126690965Y-117780399D01*
X126681821Y-117776611D01*
X126673580Y-117771117D01*
X126663966Y-117769215D01*
X126654917Y-117765467D01*
X126645016Y-117765467D01*
X126635304Y-117763546D01*
X126625699Y-117765467D01*
X126615899Y-117765467D01*
X126606750Y-117769256D01*
X126597043Y-117771198D01*
X126588902Y-117776649D01*
X126579851Y-117780399D01*
X126572851Y-117787398D01*
X126564623Y-117792909D01*
X126552334Y-117807915D01*
X126552261Y-117807989D01*
X126552247Y-117808021D01*
X126552203Y-117808076D01*
X126462459Y-117942692D01*
X126385695Y-118019455D01*
X126304973Y-118059817D01*
X126288382Y-118070260D01*
X126262818Y-118099737D01*
X126250479Y-118136753D01*
X126139368Y-118136753D01*
X126139368Y-117605601D01*
X128130312Y-117605601D01*
X128130312Y-119074657D01*
G37*
D12*
G36*
X143090186Y-135430866D02*
G01*
X143190793Y-135531473D01*
X143243972Y-135637832D01*
X143306928Y-135889653D01*
X143306928Y-136067012D01*
X143243972Y-136318833D01*
X143190793Y-136425193D01*
X143090187Y-136525799D01*
X142932585Y-136578333D01*
X142749785Y-136578333D01*
X142749785Y-135378333D01*
X142932588Y-135378333D01*
X143090186Y-135430866D01*
G37*
G36*
X133582361Y-135423040D02*
G01*
X133619365Y-135460044D01*
X133664071Y-135549456D01*
X133664071Y-135692923D01*
X133619364Y-135782336D01*
X133582359Y-135819341D01*
X133492947Y-135864047D01*
X133106928Y-135864047D01*
X133106928Y-135378333D01*
X133492947Y-135378333D01*
X133582361Y-135423040D01*
G37*
G36*
X136605959Y-136149762D02*
G01*
X136307900Y-136149762D01*
X136456929Y-135702674D01*
X136605959Y-136149762D01*
G37*
G36*
X141748816Y-136149762D02*
G01*
X141450757Y-136149762D01*
X141599786Y-135702674D01*
X141748816Y-136149762D01*
G37*
G36*
X140439504Y-135423040D02*
G01*
X140476508Y-135460044D01*
X140521214Y-135549456D01*
X140521214Y-135692923D01*
X140476507Y-135782336D01*
X140439502Y-135819341D01*
X140350090Y-135864047D01*
X139964071Y-135864047D01*
X139964071Y-135378333D01*
X140350090Y-135378333D01*
X140439504Y-135423040D01*
G37*
G36*
X143773595Y-137045000D02*
G01*
X128357429Y-137045000D01*
X128357429Y-135199069D01*
X128524096Y-135199069D01*
X128524096Y-135257597D01*
X128546494Y-135311669D01*
X128587878Y-135353053D01*
X128641950Y-135375451D01*
X128671214Y-135378333D01*
X128949785Y-135378333D01*
X128949785Y-136728333D01*
X128952667Y-136757597D01*
X128975065Y-136811669D01*
X129016449Y-136853053D01*
X129070521Y-136875451D01*
X129129049Y-136875451D01*
X129183121Y-136853053D01*
X129224505Y-136811669D01*
X129246903Y-136757597D01*
X129249785Y-136728333D01*
X129249785Y-135378333D01*
X129528357Y-135378333D01*
X129557621Y-135375451D01*
X129611693Y-135353053D01*
X129653077Y-135311669D01*
X129675475Y-135257597D01*
X129675475Y-135228333D01*
X129878356Y-135228333D01*
X129878356Y-136728333D01*
X129881238Y-136757597D01*
X129903636Y-136811669D01*
X129945020Y-136853053D01*
X129999092Y-136875451D01*
X130057620Y-136875451D01*
X130111692Y-136853053D01*
X130153076Y-136811669D01*
X130175474Y-136757597D01*
X130178356Y-136728333D01*
X130178356Y-136092619D01*
X130735499Y-136092619D01*
X130735499Y-136728333D01*
X130738381Y-136757597D01*
X130760779Y-136811669D01*
X130802163Y-136853053D01*
X130856235Y-136875451D01*
X130914763Y-136875451D01*
X130968835Y-136853053D01*
X131010219Y-136811669D01*
X131032617Y-136757597D01*
X131035499Y-136728333D01*
X131035499Y-135228333D01*
X131449785Y-135228333D01*
X131449785Y-136728333D01*
X131452667Y-136757597D01*
X131475065Y-136811669D01*
X131516449Y-136853053D01*
X131570521Y-136875451D01*
X131599785Y-136878333D01*
X132314071Y-136878333D01*
X132343335Y-136875451D01*
X132397407Y-136853053D01*
X132438791Y-136811669D01*
X132461189Y-136757597D01*
X132461189Y-136699069D01*
X132438791Y-136644997D01*
X132397407Y-136603613D01*
X132343335Y-136581215D01*
X132314071Y-136578333D01*
X131749785Y-136578333D01*
X131749785Y-136092619D01*
X132099785Y-136092619D01*
X132129049Y-136089737D01*
X132183121Y-136067339D01*
X132224505Y-136025955D01*
X132246903Y-135971883D01*
X132246903Y-135913355D01*
X132224505Y-135859283D01*
X132183121Y-135817899D01*
X132129049Y-135795501D01*
X132099785Y-135792619D01*
X131749785Y-135792619D01*
X131749785Y-135378333D01*
X132314071Y-135378333D01*
X132343335Y-135375451D01*
X132397407Y-135353053D01*
X132438791Y-135311669D01*
X132461189Y-135257597D01*
X132461189Y-135228333D01*
X132806928Y-135228333D01*
X132806928Y-136728333D01*
X132809810Y-136757597D01*
X132832208Y-136811669D01*
X132873592Y-136853053D01*
X132927664Y-136875451D01*
X132986192Y-136875451D01*
X133040264Y-136853053D01*
X133081648Y-136811669D01*
X133104046Y-136757597D01*
X133106928Y-136728333D01*
X133106928Y-136164047D01*
X133235973Y-136164047D01*
X133691186Y-136814352D01*
X133710329Y-136836674D01*
X133759686Y-136868127D01*
X133817322Y-136878298D01*
X133874464Y-136865639D01*
X133922412Y-136832075D01*
X133953865Y-136782718D01*
X133964036Y-136725082D01*
X133951377Y-136667940D01*
X133936956Y-136642314D01*
X133592004Y-136149525D01*
X133595439Y-136148211D01*
X133738296Y-136076783D01*
X133750889Y-136068855D01*
X133754549Y-136067340D01*
X133758668Y-136063958D01*
X133763182Y-136061118D01*
X133765778Y-136058124D01*
X133777280Y-136048685D01*
X133848709Y-135977256D01*
X133858150Y-135965751D01*
X133861142Y-135963157D01*
X133863980Y-135958647D01*
X133867364Y-135954525D01*
X133868880Y-135950863D01*
X133876807Y-135938272D01*
X133948235Y-135795414D01*
X133958745Y-135767951D01*
X133959126Y-135762575D01*
X133961189Y-135757597D01*
X133964071Y-135728333D01*
X133964071Y-135514047D01*
X133961189Y-135484783D01*
X133959126Y-135479804D01*
X133958745Y-135474429D01*
X133948235Y-135446966D01*
X133876807Y-135304108D01*
X133868878Y-135291513D01*
X133867363Y-135287854D01*
X133863981Y-135283733D01*
X133861142Y-135279223D01*
X133858150Y-135276628D01*
X133848708Y-135265123D01*
X133811917Y-135228333D01*
X134306928Y-135228333D01*
X134306928Y-136728333D01*
X134309810Y-136757597D01*
X134332208Y-136811669D01*
X134373592Y-136853053D01*
X134427664Y-136875451D01*
X134486192Y-136875451D01*
X134540264Y-136853053D01*
X134581648Y-136811669D01*
X134604046Y-136757597D01*
X134606928Y-136728333D01*
X134606928Y-135904466D01*
X134821001Y-136363195D01*
X134827347Y-136373908D01*
X134828668Y-136377540D01*
X134831019Y-136380108D01*
X134835988Y-136388495D01*
X134852793Y-136403885D01*
X134868195Y-136420703D01*
X134874238Y-136423523D01*
X134879151Y-136428022D01*
X134900571Y-136435811D01*
X134921233Y-136445453D01*
X134927890Y-136445745D01*
X134934153Y-136448023D01*
X134956932Y-136447022D01*
X134979703Y-136448023D01*
X134985962Y-136445746D01*
X134992624Y-136445454D01*
X135013291Y-136435809D01*
X135034706Y-136428022D01*
X135039619Y-136423522D01*
X135045661Y-136420703D01*
X135061056Y-136403890D01*
X135077869Y-136388495D01*
X135082837Y-136380106D01*
X135085188Y-136377540D01*
X135086507Y-136373910D01*
X135092855Y-136363195D01*
X135306928Y-135904467D01*
X135306928Y-136728333D01*
X135309810Y-136757597D01*
X135332208Y-136811669D01*
X135373592Y-136853053D01*
X135427664Y-136875451D01*
X135486192Y-136875451D01*
X135540264Y-136853053D01*
X135581648Y-136811669D01*
X135604046Y-136757597D01*
X135606928Y-136728333D01*
X135606928Y-136709572D01*
X135808107Y-136709572D01*
X135812256Y-136767953D01*
X135838430Y-136820300D01*
X135882644Y-136858647D01*
X135938168Y-136877155D01*
X135996549Y-136873006D01*
X136048896Y-136846832D01*
X136087243Y-136802618D01*
X136099231Y-136775767D01*
X136207900Y-136449762D01*
X136705959Y-136449762D01*
X136814627Y-136775767D01*
X136826615Y-136802618D01*
X136864962Y-136846833D01*
X136917310Y-136873006D01*
X136975690Y-136877156D01*
X137031214Y-136858647D01*
X137075428Y-136820300D01*
X137101602Y-136767953D01*
X137105752Y-136709573D01*
X137099232Y-136680899D01*
X136615042Y-135228333D01*
X137306928Y-135228333D01*
X137306928Y-136728333D01*
X137309810Y-136757597D01*
X137332208Y-136811669D01*
X137373592Y-136853053D01*
X137427664Y-136875451D01*
X137456928Y-136878333D01*
X138171214Y-136878333D01*
X138200478Y-136875451D01*
X138254550Y-136853053D01*
X138295934Y-136811669D01*
X138318332Y-136757597D01*
X138318332Y-136699069D01*
X138295934Y-136644997D01*
X138254550Y-136603613D01*
X138200478Y-136581215D01*
X138171214Y-136578333D01*
X137606928Y-136578333D01*
X137606928Y-135228333D01*
X139664071Y-135228333D01*
X139664071Y-136728333D01*
X139666953Y-136757597D01*
X139689351Y-136811669D01*
X139730735Y-136853053D01*
X139784807Y-136875451D01*
X139843335Y-136875451D01*
X139897407Y-136853053D01*
X139938791Y-136811669D01*
X139961189Y-136757597D01*
X139964071Y-136728333D01*
X139964071Y-136709572D01*
X140950964Y-136709572D01*
X140955113Y-136767953D01*
X140981287Y-136820300D01*
X141025501Y-136858647D01*
X141081025Y-136877155D01*
X141139406Y-136873006D01*
X141191753Y-136846832D01*
X141230100Y-136802618D01*
X141242088Y-136775767D01*
X141350757Y-136449762D01*
X141848816Y-136449762D01*
X141957484Y-136775767D01*
X141969472Y-136802618D01*
X142007819Y-136846833D01*
X142060167Y-136873006D01*
X142118547Y-136877156D01*
X142174071Y-136858647D01*
X142218285Y-136820300D01*
X142244459Y-136767953D01*
X142248609Y-136709573D01*
X142242089Y-136680899D01*
X141757899Y-135228333D01*
X142449785Y-135228333D01*
X142449785Y-136728333D01*
X142452667Y-136757597D01*
X142475065Y-136811669D01*
X142516449Y-136853053D01*
X142570521Y-136875451D01*
X142599785Y-136878333D01*
X142956928Y-136878333D01*
X142971733Y-136876874D01*
X142975688Y-136877156D01*
X142980889Y-136875973D01*
X142986192Y-136875451D01*
X142989849Y-136873935D01*
X143004362Y-136870636D01*
X143218648Y-136799208D01*
X143245499Y-136787220D01*
X143249570Y-136783688D01*
X143254550Y-136781626D01*
X143277280Y-136762971D01*
X143420137Y-136620113D01*
X143429575Y-136608611D01*
X143432570Y-136606015D01*
X143435410Y-136601501D01*
X143438792Y-136597382D01*
X143440307Y-136593722D01*
X143448235Y-136581129D01*
X143519664Y-136438273D01*
X143520483Y-136436130D01*
X143521128Y-136435261D01*
X143525512Y-136422989D01*
X143530173Y-136410809D01*
X143530249Y-136409728D01*
X143531021Y-136407570D01*
X143602449Y-136121856D01*
X143603198Y-136116784D01*
X143604046Y-136114740D01*
X143605131Y-136103717D01*
X143606751Y-136092767D01*
X143606425Y-136090579D01*
X143606928Y-136085476D01*
X143606928Y-135871190D01*
X143606425Y-135866086D01*
X143606751Y-135863899D01*
X143605131Y-135852948D01*
X143604046Y-135841926D01*
X143603198Y-135839881D01*
X143602449Y-135834810D01*
X143531021Y-135549096D01*
X143530249Y-135546937D01*
X143530173Y-135545857D01*
X143525512Y-135533676D01*
X143521128Y-135521405D01*
X143520483Y-135520535D01*
X143519664Y-135518393D01*
X143448235Y-135375537D01*
X143440308Y-135362945D01*
X143438792Y-135359283D01*
X143435408Y-135355160D01*
X143432570Y-135350651D01*
X143429577Y-135348055D01*
X143420137Y-135336553D01*
X143277280Y-135193696D01*
X143254549Y-135175041D01*
X143249569Y-135172978D01*
X143245499Y-135169448D01*
X143218648Y-135157459D01*
X143004362Y-135086031D01*
X142989854Y-135082732D01*
X142986192Y-135081215D01*
X142980883Y-135080692D01*
X142975689Y-135079511D01*
X142971739Y-135079791D01*
X142956928Y-135078333D01*
X142599785Y-135078333D01*
X142570521Y-135081215D01*
X142516449Y-135103613D01*
X142475065Y-135144997D01*
X142452667Y-135199069D01*
X142449785Y-135228333D01*
X141757899Y-135228333D01*
X141742088Y-135180899D01*
X141730100Y-135154048D01*
X141723077Y-135145951D01*
X141718285Y-135136366D01*
X141704076Y-135124042D01*
X141691753Y-135109834D01*
X141682167Y-135105041D01*
X141674071Y-135098019D01*
X141656227Y-135092070D01*
X141639406Y-135083660D01*
X141628717Y-135082900D01*
X141618547Y-135079510D01*
X141599781Y-135080843D01*
X141581025Y-135079511D01*
X141570857Y-135082900D01*
X141560167Y-135083660D01*
X141543343Y-135092071D01*
X141525501Y-135098019D01*
X141517406Y-135105039D01*
X141507819Y-135109833D01*
X141495493Y-135124044D01*
X141481287Y-135136366D01*
X141476494Y-135145950D01*
X141469472Y-135154048D01*
X141457484Y-135180899D01*
X140957484Y-136680899D01*
X140950964Y-136709572D01*
X139964071Y-136709572D01*
X139964071Y-136164047D01*
X140385500Y-136164047D01*
X140414764Y-136161165D01*
X140419742Y-136159102D01*
X140425118Y-136158721D01*
X140452582Y-136148211D01*
X140595439Y-136076783D01*
X140608032Y-136068855D01*
X140611692Y-136067340D01*
X140615811Y-136063958D01*
X140620325Y-136061118D01*
X140622921Y-136058124D01*
X140634423Y-136048685D01*
X140705852Y-135977256D01*
X140715293Y-135965751D01*
X140718285Y-135963157D01*
X140721123Y-135958647D01*
X140724507Y-135954525D01*
X140726023Y-135950863D01*
X140733950Y-135938272D01*
X140805378Y-135795414D01*
X140815888Y-135767951D01*
X140816269Y-135762575D01*
X140818332Y-135757597D01*
X140821214Y-135728333D01*
X140821214Y-135514047D01*
X140818332Y-135484783D01*
X140816269Y-135479804D01*
X140815888Y-135474429D01*
X140805378Y-135446966D01*
X140733950Y-135304108D01*
X140726021Y-135291513D01*
X140724506Y-135287854D01*
X140721124Y-135283733D01*
X140718285Y-135279223D01*
X140715293Y-135276628D01*
X140705851Y-135265123D01*
X140634422Y-135193695D01*
X140622922Y-135184257D01*
X140620325Y-135181263D01*
X140615808Y-135178420D01*
X140611691Y-135175041D01*
X140608034Y-135173526D01*
X140595439Y-135165598D01*
X140452582Y-135094169D01*
X140425119Y-135083660D01*
X140419744Y-135083278D01*
X140414764Y-135081215D01*
X140385500Y-135078333D01*
X139814071Y-135078333D01*
X139784807Y-135081215D01*
X139730735Y-135103613D01*
X139689351Y-135144997D01*
X139666953Y-135199069D01*
X139664071Y-135228333D01*
X137606928Y-135228333D01*
X137604046Y-135199069D01*
X137581648Y-135144997D01*
X137540264Y-135103613D01*
X137486192Y-135081215D01*
X137427664Y-135081215D01*
X137373592Y-135103613D01*
X137332208Y-135144997D01*
X137309810Y-135199069D01*
X137306928Y-135228333D01*
X136615042Y-135228333D01*
X136599231Y-135180899D01*
X136587243Y-135154048D01*
X136580220Y-135145951D01*
X136575428Y-135136366D01*
X136561219Y-135124042D01*
X136548896Y-135109834D01*
X136539310Y-135105041D01*
X136531214Y-135098019D01*
X136513370Y-135092070D01*
X136496549Y-135083660D01*
X136485860Y-135082900D01*
X136475690Y-135079510D01*
X136456924Y-135080843D01*
X136438168Y-135079511D01*
X136428000Y-135082900D01*
X136417310Y-135083660D01*
X136400486Y-135092071D01*
X136382644Y-135098019D01*
X136374549Y-135105039D01*
X136364962Y-135109833D01*
X136352636Y-135124044D01*
X136338430Y-135136366D01*
X136333637Y-135145950D01*
X136326615Y-135154048D01*
X136314627Y-135180899D01*
X135814627Y-136680899D01*
X135808107Y-136709572D01*
X135606928Y-136709572D01*
X135606928Y-135228333D01*
X135605033Y-135209095D01*
X135605189Y-135205557D01*
X135604497Y-135203656D01*
X135604046Y-135199069D01*
X135594085Y-135175023D01*
X135585188Y-135150555D01*
X135582928Y-135148087D01*
X135581648Y-135144997D01*
X135563250Y-135126599D01*
X135545661Y-135107392D01*
X135542627Y-135105976D01*
X135540264Y-135103613D01*
X135516233Y-135093659D01*
X135492624Y-135082641D01*
X135489279Y-135082494D01*
X135486192Y-135081215D01*
X135460168Y-135081215D01*
X135434153Y-135080072D01*
X135431010Y-135081215D01*
X135427664Y-135081215D01*
X135403611Y-135091178D01*
X135379151Y-135100073D01*
X135376683Y-135102332D01*
X135373592Y-135103613D01*
X135355183Y-135122021D01*
X135335988Y-135139600D01*
X135333638Y-135143566D01*
X135332208Y-135144997D01*
X135330852Y-135148269D01*
X135321001Y-135164900D01*
X134956928Y-135945056D01*
X134592855Y-135164900D01*
X134583001Y-135148265D01*
X134581648Y-135144997D01*
X134580219Y-135143568D01*
X134577869Y-135139600D01*
X134558661Y-135122010D01*
X134540264Y-135103613D01*
X134537173Y-135102332D01*
X134534706Y-135100073D01*
X134510240Y-135091176D01*
X134486192Y-135081215D01*
X134482846Y-135081215D01*
X134479703Y-135080072D01*
X134453699Y-135081215D01*
X134427664Y-135081215D01*
X134424573Y-135082495D01*
X134421233Y-135082642D01*
X134397637Y-135093652D01*
X134373592Y-135103613D01*
X134371228Y-135105976D01*
X134368195Y-135107392D01*
X134350605Y-135126599D01*
X134332208Y-135144997D01*
X134330927Y-135148087D01*
X134328668Y-135150555D01*
X134319771Y-135175020D01*
X134309810Y-135199069D01*
X134309358Y-135203657D01*
X134308667Y-135205558D01*
X134308822Y-135209096D01*
X134306928Y-135228333D01*
X133811917Y-135228333D01*
X133777279Y-135193695D01*
X133765779Y-135184257D01*
X133763182Y-135181263D01*
X133758665Y-135178420D01*
X133754548Y-135175041D01*
X133750891Y-135173526D01*
X133738296Y-135165598D01*
X133595439Y-135094169D01*
X133567976Y-135083660D01*
X133562601Y-135083278D01*
X133557621Y-135081215D01*
X133528357Y-135078333D01*
X132956928Y-135078333D01*
X132927664Y-135081215D01*
X132873592Y-135103613D01*
X132832208Y-135144997D01*
X132809810Y-135199069D01*
X132806928Y-135228333D01*
X132461189Y-135228333D01*
X132461189Y-135199069D01*
X132438791Y-135144997D01*
X132397407Y-135103613D01*
X132343335Y-135081215D01*
X132314071Y-135078333D01*
X131599785Y-135078333D01*
X131570521Y-135081215D01*
X131516449Y-135103613D01*
X131475065Y-135144997D01*
X131452667Y-135199069D01*
X131449785Y-135228333D01*
X131035499Y-135228333D01*
X131032617Y-135199069D01*
X131010219Y-135144997D01*
X130968835Y-135103613D01*
X130914763Y-135081215D01*
X130856235Y-135081215D01*
X130802163Y-135103613D01*
X130760779Y-135144997D01*
X130738381Y-135199069D01*
X130735499Y-135228333D01*
X130735499Y-135792619D01*
X130178356Y-135792619D01*
X130178356Y-135228333D01*
X130175474Y-135199069D01*
X130153076Y-135144997D01*
X130111692Y-135103613D01*
X130057620Y-135081215D01*
X129999092Y-135081215D01*
X129945020Y-135103613D01*
X129903636Y-135144997D01*
X129881238Y-135199069D01*
X129878356Y-135228333D01*
X129675475Y-135228333D01*
X129675475Y-135199069D01*
X129653077Y-135144997D01*
X129611693Y-135103613D01*
X129557621Y-135081215D01*
X129528357Y-135078333D01*
X128671214Y-135078333D01*
X128641950Y-135081215D01*
X128587878Y-135103613D01*
X128546494Y-135144997D01*
X128524096Y-135199069D01*
X128357429Y-135199069D01*
X128357429Y-134911666D01*
X143773595Y-134911666D01*
X143773595Y-137045000D01*
G37*
G36*
X143090186Y-82230441D02*
G01*
X143190793Y-82331048D01*
X143243972Y-82437407D01*
X143306928Y-82689228D01*
X143306928Y-82866587D01*
X143243972Y-83118408D01*
X143190793Y-83224768D01*
X143090187Y-83325374D01*
X142932585Y-83377908D01*
X142749785Y-83377908D01*
X142749785Y-82177908D01*
X142932588Y-82177908D01*
X143090186Y-82230441D01*
G37*
G36*
X133582361Y-82222615D02*
G01*
X133619365Y-82259619D01*
X133664071Y-82349031D01*
X133664071Y-82492498D01*
X133619364Y-82581911D01*
X133582359Y-82618916D01*
X133492947Y-82663622D01*
X133106928Y-82663622D01*
X133106928Y-82177908D01*
X133492947Y-82177908D01*
X133582361Y-82222615D01*
G37*
G36*
X136605959Y-82949337D02*
G01*
X136307900Y-82949337D01*
X136456929Y-82502249D01*
X136605959Y-82949337D01*
G37*
G36*
X141748816Y-82949337D02*
G01*
X141450757Y-82949337D01*
X141599786Y-82502249D01*
X141748816Y-82949337D01*
G37*
G36*
X140439504Y-82222615D02*
G01*
X140476508Y-82259619D01*
X140521214Y-82349031D01*
X140521214Y-82492498D01*
X140476507Y-82581911D01*
X140439502Y-82618916D01*
X140350090Y-82663622D01*
X139964071Y-82663622D01*
X139964071Y-82177908D01*
X140350090Y-82177908D01*
X140439504Y-82222615D01*
G37*
G36*
X143773595Y-83844575D02*
G01*
X128357429Y-83844575D01*
X128357429Y-81998644D01*
X128524096Y-81998644D01*
X128524096Y-82057172D01*
X128546494Y-82111244D01*
X128587878Y-82152628D01*
X128641950Y-82175026D01*
X128671214Y-82177908D01*
X128949785Y-82177908D01*
X128949785Y-83527908D01*
X128952667Y-83557172D01*
X128975065Y-83611244D01*
X129016449Y-83652628D01*
X129070521Y-83675026D01*
X129129049Y-83675026D01*
X129183121Y-83652628D01*
X129224505Y-83611244D01*
X129246903Y-83557172D01*
X129249785Y-83527908D01*
X129249785Y-82177908D01*
X129528357Y-82177908D01*
X129557621Y-82175026D01*
X129611693Y-82152628D01*
X129653077Y-82111244D01*
X129675475Y-82057172D01*
X129675475Y-82027908D01*
X129878356Y-82027908D01*
X129878356Y-83527908D01*
X129881238Y-83557172D01*
X129903636Y-83611244D01*
X129945020Y-83652628D01*
X129999092Y-83675026D01*
X130057620Y-83675026D01*
X130111692Y-83652628D01*
X130153076Y-83611244D01*
X130175474Y-83557172D01*
X130178356Y-83527908D01*
X130178356Y-82892194D01*
X130735499Y-82892194D01*
X130735499Y-83527908D01*
X130738381Y-83557172D01*
X130760779Y-83611244D01*
X130802163Y-83652628D01*
X130856235Y-83675026D01*
X130914763Y-83675026D01*
X130968835Y-83652628D01*
X131010219Y-83611244D01*
X131032617Y-83557172D01*
X131035499Y-83527908D01*
X131035499Y-82027908D01*
X131449785Y-82027908D01*
X131449785Y-83527908D01*
X131452667Y-83557172D01*
X131475065Y-83611244D01*
X131516449Y-83652628D01*
X131570521Y-83675026D01*
X131599785Y-83677908D01*
X132314071Y-83677908D01*
X132343335Y-83675026D01*
X132397407Y-83652628D01*
X132438791Y-83611244D01*
X132461189Y-83557172D01*
X132461189Y-83498644D01*
X132438791Y-83444572D01*
X132397407Y-83403188D01*
X132343335Y-83380790D01*
X132314071Y-83377908D01*
X131749785Y-83377908D01*
X131749785Y-82892194D01*
X132099785Y-82892194D01*
X132129049Y-82889312D01*
X132183121Y-82866914D01*
X132224505Y-82825530D01*
X132246903Y-82771458D01*
X132246903Y-82712930D01*
X132224505Y-82658858D01*
X132183121Y-82617474D01*
X132129049Y-82595076D01*
X132099785Y-82592194D01*
X131749785Y-82592194D01*
X131749785Y-82177908D01*
X132314071Y-82177908D01*
X132343335Y-82175026D01*
X132397407Y-82152628D01*
X132438791Y-82111244D01*
X132461189Y-82057172D01*
X132461189Y-82027908D01*
X132806928Y-82027908D01*
X132806928Y-83527908D01*
X132809810Y-83557172D01*
X132832208Y-83611244D01*
X132873592Y-83652628D01*
X132927664Y-83675026D01*
X132986192Y-83675026D01*
X133040264Y-83652628D01*
X133081648Y-83611244D01*
X133104046Y-83557172D01*
X133106928Y-83527908D01*
X133106928Y-82963622D01*
X133235973Y-82963622D01*
X133691186Y-83613927D01*
X133710329Y-83636249D01*
X133759686Y-83667702D01*
X133817322Y-83677873D01*
X133874464Y-83665214D01*
X133922412Y-83631650D01*
X133953865Y-83582293D01*
X133964036Y-83524657D01*
X133951377Y-83467515D01*
X133936956Y-83441889D01*
X133592004Y-82949100D01*
X133595439Y-82947786D01*
X133738296Y-82876358D01*
X133750889Y-82868430D01*
X133754549Y-82866915D01*
X133758668Y-82863533D01*
X133763182Y-82860693D01*
X133765778Y-82857699D01*
X133777280Y-82848260D01*
X133848709Y-82776831D01*
X133858150Y-82765326D01*
X133861142Y-82762732D01*
X133863980Y-82758222D01*
X133867364Y-82754100D01*
X133868880Y-82750438D01*
X133876807Y-82737847D01*
X133948235Y-82594989D01*
X133958745Y-82567526D01*
X133959126Y-82562150D01*
X133961189Y-82557172D01*
X133964071Y-82527908D01*
X133964071Y-82313622D01*
X133961189Y-82284358D01*
X133959126Y-82279379D01*
X133958745Y-82274004D01*
X133948235Y-82246541D01*
X133876807Y-82103683D01*
X133868878Y-82091088D01*
X133867363Y-82087429D01*
X133863981Y-82083308D01*
X133861142Y-82078798D01*
X133858150Y-82076203D01*
X133848708Y-82064698D01*
X133811917Y-82027908D01*
X134306928Y-82027908D01*
X134306928Y-83527908D01*
X134309810Y-83557172D01*
X134332208Y-83611244D01*
X134373592Y-83652628D01*
X134427664Y-83675026D01*
X134486192Y-83675026D01*
X134540264Y-83652628D01*
X134581648Y-83611244D01*
X134604046Y-83557172D01*
X134606928Y-83527908D01*
X134606928Y-82704041D01*
X134821001Y-83162770D01*
X134827347Y-83173483D01*
X134828668Y-83177115D01*
X134831019Y-83179683D01*
X134835988Y-83188070D01*
X134852793Y-83203460D01*
X134868195Y-83220278D01*
X134874238Y-83223098D01*
X134879151Y-83227597D01*
X134900571Y-83235386D01*
X134921233Y-83245028D01*
X134927890Y-83245320D01*
X134934153Y-83247598D01*
X134956932Y-83246597D01*
X134979703Y-83247598D01*
X134985962Y-83245321D01*
X134992624Y-83245029D01*
X135013291Y-83235384D01*
X135034706Y-83227597D01*
X135039619Y-83223097D01*
X135045661Y-83220278D01*
X135061056Y-83203465D01*
X135077869Y-83188070D01*
X135082837Y-83179681D01*
X135085188Y-83177115D01*
X135086507Y-83173485D01*
X135092855Y-83162770D01*
X135306928Y-82704042D01*
X135306928Y-83527908D01*
X135309810Y-83557172D01*
X135332208Y-83611244D01*
X135373592Y-83652628D01*
X135427664Y-83675026D01*
X135486192Y-83675026D01*
X135540264Y-83652628D01*
X135581648Y-83611244D01*
X135604046Y-83557172D01*
X135606928Y-83527908D01*
X135606928Y-83509147D01*
X135808107Y-83509147D01*
X135812256Y-83567528D01*
X135838430Y-83619875D01*
X135882644Y-83658222D01*
X135938168Y-83676730D01*
X135996549Y-83672581D01*
X136048896Y-83646407D01*
X136087243Y-83602193D01*
X136099231Y-83575342D01*
X136207900Y-83249337D01*
X136705959Y-83249337D01*
X136814627Y-83575342D01*
X136826615Y-83602193D01*
X136864962Y-83646408D01*
X136917310Y-83672581D01*
X136975690Y-83676731D01*
X137031214Y-83658222D01*
X137075428Y-83619875D01*
X137101602Y-83567528D01*
X137105752Y-83509148D01*
X137099232Y-83480474D01*
X136615042Y-82027908D01*
X137306928Y-82027908D01*
X137306928Y-83527908D01*
X137309810Y-83557172D01*
X137332208Y-83611244D01*
X137373592Y-83652628D01*
X137427664Y-83675026D01*
X137456928Y-83677908D01*
X138171214Y-83677908D01*
X138200478Y-83675026D01*
X138254550Y-83652628D01*
X138295934Y-83611244D01*
X138318332Y-83557172D01*
X138318332Y-83498644D01*
X138295934Y-83444572D01*
X138254550Y-83403188D01*
X138200478Y-83380790D01*
X138171214Y-83377908D01*
X137606928Y-83377908D01*
X137606928Y-82027908D01*
X139664071Y-82027908D01*
X139664071Y-83527908D01*
X139666953Y-83557172D01*
X139689351Y-83611244D01*
X139730735Y-83652628D01*
X139784807Y-83675026D01*
X139843335Y-83675026D01*
X139897407Y-83652628D01*
X139938791Y-83611244D01*
X139961189Y-83557172D01*
X139964071Y-83527908D01*
X139964071Y-83509147D01*
X140950964Y-83509147D01*
X140955113Y-83567528D01*
X140981287Y-83619875D01*
X141025501Y-83658222D01*
X141081025Y-83676730D01*
X141139406Y-83672581D01*
X141191753Y-83646407D01*
X141230100Y-83602193D01*
X141242088Y-83575342D01*
X141350757Y-83249337D01*
X141848816Y-83249337D01*
X141957484Y-83575342D01*
X141969472Y-83602193D01*
X142007819Y-83646408D01*
X142060167Y-83672581D01*
X142118547Y-83676731D01*
X142174071Y-83658222D01*
X142218285Y-83619875D01*
X142244459Y-83567528D01*
X142248609Y-83509148D01*
X142242089Y-83480474D01*
X141757899Y-82027908D01*
X142449785Y-82027908D01*
X142449785Y-83527908D01*
X142452667Y-83557172D01*
X142475065Y-83611244D01*
X142516449Y-83652628D01*
X142570521Y-83675026D01*
X142599785Y-83677908D01*
X142956928Y-83677908D01*
X142971733Y-83676449D01*
X142975688Y-83676731D01*
X142980889Y-83675548D01*
X142986192Y-83675026D01*
X142989849Y-83673510D01*
X143004362Y-83670211D01*
X143218648Y-83598783D01*
X143245499Y-83586795D01*
X143249570Y-83583263D01*
X143254550Y-83581201D01*
X143277280Y-83562546D01*
X143420137Y-83419688D01*
X143429575Y-83408186D01*
X143432570Y-83405590D01*
X143435410Y-83401076D01*
X143438792Y-83396957D01*
X143440307Y-83393297D01*
X143448235Y-83380704D01*
X143519664Y-83237848D01*
X143520483Y-83235705D01*
X143521128Y-83234836D01*
X143525512Y-83222564D01*
X143530173Y-83210384D01*
X143530249Y-83209303D01*
X143531021Y-83207145D01*
X143602449Y-82921431D01*
X143603198Y-82916359D01*
X143604046Y-82914315D01*
X143605131Y-82903292D01*
X143606751Y-82892342D01*
X143606425Y-82890154D01*
X143606928Y-82885051D01*
X143606928Y-82670765D01*
X143606425Y-82665661D01*
X143606751Y-82663474D01*
X143605131Y-82652523D01*
X143604046Y-82641501D01*
X143603198Y-82639456D01*
X143602449Y-82634385D01*
X143531021Y-82348671D01*
X143530249Y-82346512D01*
X143530173Y-82345432D01*
X143525512Y-82333251D01*
X143521128Y-82320980D01*
X143520483Y-82320110D01*
X143519664Y-82317968D01*
X143448235Y-82175112D01*
X143440308Y-82162520D01*
X143438792Y-82158858D01*
X143435408Y-82154735D01*
X143432570Y-82150226D01*
X143429577Y-82147630D01*
X143420137Y-82136128D01*
X143277280Y-81993271D01*
X143254549Y-81974616D01*
X143249569Y-81972553D01*
X143245499Y-81969023D01*
X143218648Y-81957034D01*
X143004362Y-81885606D01*
X142989854Y-81882307D01*
X142986192Y-81880790D01*
X142980883Y-81880267D01*
X142975689Y-81879086D01*
X142971739Y-81879366D01*
X142956928Y-81877908D01*
X142599785Y-81877908D01*
X142570521Y-81880790D01*
X142516449Y-81903188D01*
X142475065Y-81944572D01*
X142452667Y-81998644D01*
X142449785Y-82027908D01*
X141757899Y-82027908D01*
X141742088Y-81980474D01*
X141730100Y-81953623D01*
X141723077Y-81945526D01*
X141718285Y-81935941D01*
X141704076Y-81923617D01*
X141691753Y-81909409D01*
X141682167Y-81904616D01*
X141674071Y-81897594D01*
X141656227Y-81891645D01*
X141639406Y-81883235D01*
X141628717Y-81882475D01*
X141618547Y-81879085D01*
X141599781Y-81880418D01*
X141581025Y-81879086D01*
X141570857Y-81882475D01*
X141560167Y-81883235D01*
X141543343Y-81891646D01*
X141525501Y-81897594D01*
X141517406Y-81904614D01*
X141507819Y-81909408D01*
X141495493Y-81923619D01*
X141481287Y-81935941D01*
X141476494Y-81945525D01*
X141469472Y-81953623D01*
X141457484Y-81980474D01*
X140957484Y-83480474D01*
X140950964Y-83509147D01*
X139964071Y-83509147D01*
X139964071Y-82963622D01*
X140385500Y-82963622D01*
X140414764Y-82960740D01*
X140419742Y-82958677D01*
X140425118Y-82958296D01*
X140452582Y-82947786D01*
X140595439Y-82876358D01*
X140608032Y-82868430D01*
X140611692Y-82866915D01*
X140615811Y-82863533D01*
X140620325Y-82860693D01*
X140622921Y-82857699D01*
X140634423Y-82848260D01*
X140705852Y-82776831D01*
X140715293Y-82765326D01*
X140718285Y-82762732D01*
X140721123Y-82758222D01*
X140724507Y-82754100D01*
X140726023Y-82750438D01*
X140733950Y-82737847D01*
X140805378Y-82594989D01*
X140815888Y-82567526D01*
X140816269Y-82562150D01*
X140818332Y-82557172D01*
X140821214Y-82527908D01*
X140821214Y-82313622D01*
X140818332Y-82284358D01*
X140816269Y-82279379D01*
X140815888Y-82274004D01*
X140805378Y-82246541D01*
X140733950Y-82103683D01*
X140726021Y-82091088D01*
X140724506Y-82087429D01*
X140721124Y-82083308D01*
X140718285Y-82078798D01*
X140715293Y-82076203D01*
X140705851Y-82064698D01*
X140634422Y-81993270D01*
X140622922Y-81983832D01*
X140620325Y-81980838D01*
X140615808Y-81977995D01*
X140611691Y-81974616D01*
X140608034Y-81973101D01*
X140595439Y-81965173D01*
X140452582Y-81893744D01*
X140425119Y-81883235D01*
X140419744Y-81882853D01*
X140414764Y-81880790D01*
X140385500Y-81877908D01*
X139814071Y-81877908D01*
X139784807Y-81880790D01*
X139730735Y-81903188D01*
X139689351Y-81944572D01*
X139666953Y-81998644D01*
X139664071Y-82027908D01*
X137606928Y-82027908D01*
X137604046Y-81998644D01*
X137581648Y-81944572D01*
X137540264Y-81903188D01*
X137486192Y-81880790D01*
X137427664Y-81880790D01*
X137373592Y-81903188D01*
X137332208Y-81944572D01*
X137309810Y-81998644D01*
X137306928Y-82027908D01*
X136615042Y-82027908D01*
X136599231Y-81980474D01*
X136587243Y-81953623D01*
X136580220Y-81945526D01*
X136575428Y-81935941D01*
X136561219Y-81923617D01*
X136548896Y-81909409D01*
X136539310Y-81904616D01*
X136531214Y-81897594D01*
X136513370Y-81891645D01*
X136496549Y-81883235D01*
X136485860Y-81882475D01*
X136475690Y-81879085D01*
X136456924Y-81880418D01*
X136438168Y-81879086D01*
X136428000Y-81882475D01*
X136417310Y-81883235D01*
X136400486Y-81891646D01*
X136382644Y-81897594D01*
X136374549Y-81904614D01*
X136364962Y-81909408D01*
X136352636Y-81923619D01*
X136338430Y-81935941D01*
X136333637Y-81945525D01*
X136326615Y-81953623D01*
X136314627Y-81980474D01*
X135814627Y-83480474D01*
X135808107Y-83509147D01*
X135606928Y-83509147D01*
X135606928Y-82027908D01*
X135605033Y-82008670D01*
X135605189Y-82005132D01*
X135604497Y-82003231D01*
X135604046Y-81998644D01*
X135594085Y-81974598D01*
X135585188Y-81950130D01*
X135582928Y-81947662D01*
X135581648Y-81944572D01*
X135563250Y-81926174D01*
X135545661Y-81906967D01*
X135542627Y-81905551D01*
X135540264Y-81903188D01*
X135516233Y-81893234D01*
X135492624Y-81882216D01*
X135489279Y-81882069D01*
X135486192Y-81880790D01*
X135460168Y-81880790D01*
X135434153Y-81879647D01*
X135431010Y-81880790D01*
X135427664Y-81880790D01*
X135403611Y-81890753D01*
X135379151Y-81899648D01*
X135376683Y-81901907D01*
X135373592Y-81903188D01*
X135355183Y-81921596D01*
X135335988Y-81939175D01*
X135333638Y-81943141D01*
X135332208Y-81944572D01*
X135330852Y-81947844D01*
X135321001Y-81964475D01*
X134956928Y-82744631D01*
X134592855Y-81964475D01*
X134583001Y-81947840D01*
X134581648Y-81944572D01*
X134580219Y-81943143D01*
X134577869Y-81939175D01*
X134558661Y-81921585D01*
X134540264Y-81903188D01*
X134537173Y-81901907D01*
X134534706Y-81899648D01*
X134510240Y-81890751D01*
X134486192Y-81880790D01*
X134482846Y-81880790D01*
X134479703Y-81879647D01*
X134453699Y-81880790D01*
X134427664Y-81880790D01*
X134424573Y-81882070D01*
X134421233Y-81882217D01*
X134397637Y-81893227D01*
X134373592Y-81903188D01*
X134371228Y-81905551D01*
X134368195Y-81906967D01*
X134350605Y-81926174D01*
X134332208Y-81944572D01*
X134330927Y-81947662D01*
X134328668Y-81950130D01*
X134319771Y-81974595D01*
X134309810Y-81998644D01*
X134309358Y-82003232D01*
X134308667Y-82005133D01*
X134308822Y-82008671D01*
X134306928Y-82027908D01*
X133811917Y-82027908D01*
X133777279Y-81993270D01*
X133765779Y-81983832D01*
X133763182Y-81980838D01*
X133758665Y-81977995D01*
X133754548Y-81974616D01*
X133750891Y-81973101D01*
X133738296Y-81965173D01*
X133595439Y-81893744D01*
X133567976Y-81883235D01*
X133562601Y-81882853D01*
X133557621Y-81880790D01*
X133528357Y-81877908D01*
X132956928Y-81877908D01*
X132927664Y-81880790D01*
X132873592Y-81903188D01*
X132832208Y-81944572D01*
X132809810Y-81998644D01*
X132806928Y-82027908D01*
X132461189Y-82027908D01*
X132461189Y-81998644D01*
X132438791Y-81944572D01*
X132397407Y-81903188D01*
X132343335Y-81880790D01*
X132314071Y-81877908D01*
X131599785Y-81877908D01*
X131570521Y-81880790D01*
X131516449Y-81903188D01*
X131475065Y-81944572D01*
X131452667Y-81998644D01*
X131449785Y-82027908D01*
X131035499Y-82027908D01*
X131032617Y-81998644D01*
X131010219Y-81944572D01*
X130968835Y-81903188D01*
X130914763Y-81880790D01*
X130856235Y-81880790D01*
X130802163Y-81903188D01*
X130760779Y-81944572D01*
X130738381Y-81998644D01*
X130735499Y-82027908D01*
X130735499Y-82592194D01*
X130178356Y-82592194D01*
X130178356Y-82027908D01*
X130175474Y-81998644D01*
X130153076Y-81944572D01*
X130111692Y-81903188D01*
X130057620Y-81880790D01*
X129999092Y-81880790D01*
X129945020Y-81903188D01*
X129903636Y-81944572D01*
X129881238Y-81998644D01*
X129878356Y-82027908D01*
X129675475Y-82027908D01*
X129675475Y-81998644D01*
X129653077Y-81944572D01*
X129611693Y-81903188D01*
X129557621Y-81880790D01*
X129528357Y-81877908D01*
X128671214Y-81877908D01*
X128641950Y-81880790D01*
X128587878Y-81903188D01*
X128546494Y-81944572D01*
X128524096Y-81998644D01*
X128357429Y-81998644D01*
X128357429Y-81711241D01*
X143773595Y-81711241D01*
X143773595Y-83844575D01*
G37*
D11*
G36*
X146153056Y-103787330D02*
G01*
X144161327Y-103787330D01*
X144161327Y-102556710D01*
X144272438Y-102556710D01*
X144272438Y-102595728D01*
X144287370Y-102631776D01*
X144314960Y-102659366D01*
X144351008Y-102674298D01*
X144370517Y-102676219D01*
X144769187Y-102676219D01*
X144580973Y-102891321D01*
X144574943Y-102899754D01*
X144573084Y-102901614D01*
X144572353Y-102903377D01*
X144569572Y-102907268D01*
X144564367Y-102922656D01*
X144558152Y-102937662D01*
X144558152Y-102941035D01*
X144557072Y-102944229D01*
X144558152Y-102960431D01*
X144558152Y-102976680D01*
X144559442Y-102979795D01*
X144559667Y-102983161D01*
X144566867Y-102997721D01*
X144573084Y-103012728D01*
X144575468Y-103015112D01*
X144576964Y-103018136D01*
X144589189Y-103028833D01*
X144600674Y-103040318D01*
X144603788Y-103041608D01*
X144606328Y-103043830D01*
X144621716Y-103049034D01*
X144636722Y-103055250D01*
X144641481Y-103055718D01*
X144643289Y-103056330D01*
X144645913Y-103056155D01*
X144656231Y-103057171D01*
X144775481Y-103057171D01*
X144835090Y-103086976D01*
X144859759Y-103111644D01*
X144889564Y-103171254D01*
X144889564Y-103362135D01*
X144859759Y-103421743D01*
X144835090Y-103446413D01*
X144775481Y-103476219D01*
X144536981Y-103476219D01*
X144477371Y-103446414D01*
X144441228Y-103410270D01*
X144426075Y-103397833D01*
X144390027Y-103382902D01*
X144351009Y-103382901D01*
X144314960Y-103397832D01*
X144287370Y-103425422D01*
X144272439Y-103461470D01*
X144272438Y-103500488D01*
X144287369Y-103536537D01*
X144299806Y-103551690D01*
X144347424Y-103599310D01*
X144355092Y-103605603D01*
X144356824Y-103607600D01*
X144359832Y-103609493D01*
X144362578Y-103611747D01*
X144365018Y-103612757D01*
X144373415Y-103618043D01*
X144468652Y-103665662D01*
X144486961Y-103672668D01*
X144490544Y-103672922D01*
X144493865Y-103674298D01*
X144513374Y-103676219D01*
X144799088Y-103676219D01*
X144818597Y-103674298D01*
X144821917Y-103672922D01*
X144825501Y-103672668D01*
X144843809Y-103665662D01*
X144939047Y-103618043D01*
X144947442Y-103612758D01*
X144949884Y-103611747D01*
X144952631Y-103609491D01*
X144955637Y-103607600D01*
X144957367Y-103605605D01*
X144965037Y-103599310D01*
X145012656Y-103551690D01*
X145018948Y-103544023D01*
X145020945Y-103542292D01*
X145022838Y-103539284D01*
X145025093Y-103536537D01*
X145026104Y-103534095D01*
X145031388Y-103525701D01*
X145079007Y-103430464D01*
X145086013Y-103412155D01*
X145086267Y-103408571D01*
X145087643Y-103405251D01*
X145089564Y-103385742D01*
X145089564Y-103147647D01*
X145087643Y-103128138D01*
X145086267Y-103124817D01*
X145086013Y-103121234D01*
X145079007Y-103102925D01*
X145031388Y-103007688D01*
X145026102Y-102999291D01*
X145025092Y-102996851D01*
X145022838Y-102994105D01*
X145020945Y-102991097D01*
X145018947Y-102989364D01*
X145012655Y-102981698D01*
X144965037Y-102934079D01*
X144957366Y-102927784D01*
X144955637Y-102925790D01*
X144952629Y-102923896D01*
X144949883Y-102921643D01*
X144947443Y-102920632D01*
X144939047Y-102915347D01*
X144860199Y-102875923D01*
X145064822Y-102642069D01*
X145070851Y-102633635D01*
X145072711Y-102631776D01*
X145073441Y-102630012D01*
X145076223Y-102626122D01*
X145081427Y-102610733D01*
X145087643Y-102595728D01*
X145087643Y-102592354D01*
X145088723Y-102589161D01*
X145087643Y-102572958D01*
X145087643Y-102556710D01*
X145224819Y-102556710D01*
X145224819Y-102595728D01*
X145239751Y-102631776D01*
X145267341Y-102659366D01*
X145303389Y-102674298D01*
X145322898Y-102676219D01*
X145721568Y-102676219D01*
X145533354Y-102891321D01*
X145527324Y-102899754D01*
X145525465Y-102901614D01*
X145524734Y-102903377D01*
X145521953Y-102907268D01*
X145516748Y-102922656D01*
X145510533Y-102937662D01*
X145510533Y-102941035D01*
X145509453Y-102944229D01*
X145510533Y-102960431D01*
X145510533Y-102976680D01*
X145511823Y-102979795D01*
X145512048Y-102983161D01*
X145519248Y-102997721D01*
X145525465Y-103012728D01*
X145527849Y-103015112D01*
X145529345Y-103018136D01*
X145541570Y-103028833D01*
X145553055Y-103040318D01*
X145556169Y-103041608D01*
X145558709Y-103043830D01*
X145574097Y-103049034D01*
X145589103Y-103055250D01*
X145593862Y-103055718D01*
X145595670Y-103056330D01*
X145598294Y-103056155D01*
X145608612Y-103057171D01*
X145727862Y-103057171D01*
X145787471Y-103086976D01*
X145812140Y-103111644D01*
X145841945Y-103171254D01*
X145841945Y-103362135D01*
X145812140Y-103421743D01*
X145787471Y-103446413D01*
X145727862Y-103476219D01*
X145489362Y-103476219D01*
X145429752Y-103446414D01*
X145393609Y-103410270D01*
X145378456Y-103397833D01*
X145342408Y-103382902D01*
X145303390Y-103382901D01*
X145267341Y-103397832D01*
X145239751Y-103425422D01*
X145224820Y-103461470D01*
X145224819Y-103500488D01*
X145239750Y-103536537D01*
X145252187Y-103551690D01*
X145299805Y-103599310D01*
X145307473Y-103605603D01*
X145309205Y-103607600D01*
X145312213Y-103609493D01*
X145314959Y-103611747D01*
X145317399Y-103612757D01*
X145325796Y-103618043D01*
X145421033Y-103665662D01*
X145439342Y-103672668D01*
X145442925Y-103672922D01*
X145446246Y-103674298D01*
X145465755Y-103676219D01*
X145751469Y-103676219D01*
X145770978Y-103674298D01*
X145774298Y-103672922D01*
X145777882Y-103672668D01*
X145796190Y-103665662D01*
X145891428Y-103618043D01*
X145899823Y-103612758D01*
X145902265Y-103611747D01*
X145905012Y-103609491D01*
X145908018Y-103607600D01*
X145909748Y-103605605D01*
X145917418Y-103599310D01*
X145965037Y-103551690D01*
X145971329Y-103544023D01*
X145973326Y-103542292D01*
X145975219Y-103539284D01*
X145977474Y-103536537D01*
X145978485Y-103534095D01*
X145983769Y-103525701D01*
X146031388Y-103430464D01*
X146038394Y-103412155D01*
X146038648Y-103408571D01*
X146040024Y-103405251D01*
X146041945Y-103385742D01*
X146041945Y-103147647D01*
X146040024Y-103128138D01*
X146038648Y-103124817D01*
X146038394Y-103121234D01*
X146031388Y-103102925D01*
X145983769Y-103007688D01*
X145978483Y-102999291D01*
X145977473Y-102996851D01*
X145975219Y-102994105D01*
X145973326Y-102991097D01*
X145971328Y-102989364D01*
X145965036Y-102981698D01*
X145917418Y-102934079D01*
X145909747Y-102927784D01*
X145908018Y-102925790D01*
X145905010Y-102923896D01*
X145902264Y-102921643D01*
X145899824Y-102920632D01*
X145891428Y-102915347D01*
X145812580Y-102875923D01*
X146017203Y-102642069D01*
X146023232Y-102633635D01*
X146025092Y-102631776D01*
X146025822Y-102630012D01*
X146028604Y-102626122D01*
X146033808Y-102610733D01*
X146040024Y-102595728D01*
X146040024Y-102592354D01*
X146041104Y-102589161D01*
X146040024Y-102572958D01*
X146040024Y-102556710D01*
X146038733Y-102553594D01*
X146038509Y-102550229D01*
X146031306Y-102535663D01*
X146025092Y-102520662D01*
X146022708Y-102518278D01*
X146021213Y-102515254D01*
X146008979Y-102504549D01*
X145997502Y-102493072D01*
X145994388Y-102491782D01*
X145991849Y-102489560D01*
X145976457Y-102484354D01*
X145961454Y-102478140D01*
X145956694Y-102477671D01*
X145954887Y-102477060D01*
X145952262Y-102477234D01*
X145941945Y-102476219D01*
X145322898Y-102476219D01*
X145303389Y-102478140D01*
X145267341Y-102493072D01*
X145239751Y-102520662D01*
X145224819Y-102556710D01*
X145087643Y-102556710D01*
X145086352Y-102553594D01*
X145086128Y-102550229D01*
X145078925Y-102535663D01*
X145072711Y-102520662D01*
X145070327Y-102518278D01*
X145068832Y-102515254D01*
X145056598Y-102504549D01*
X145045121Y-102493072D01*
X145042007Y-102491782D01*
X145039468Y-102489560D01*
X145024076Y-102484354D01*
X145009073Y-102478140D01*
X145004313Y-102477671D01*
X145002506Y-102477060D01*
X144999881Y-102477234D01*
X144989564Y-102476219D01*
X144370517Y-102476219D01*
X144351008Y-102478140D01*
X144314960Y-102493072D01*
X144287370Y-102520662D01*
X144272438Y-102556710D01*
X144161327Y-102556710D01*
X144161327Y-102365108D01*
X146153056Y-102365108D01*
X146153056Y-103787330D01*
G37*
X127004482Y-85796219D02*
X126433054Y-85796219D01*
X126718768Y-85796219D02*
X126718768Y-84796219D01*
X126718768Y-84796219D02*
X126623530Y-84939076D01*
X126623530Y-84939076D02*
X126528292Y-85034314D01*
X126528292Y-85034314D02*
X126433054Y-85081933D01*
X126433054Y-133151457D02*
X126480673Y-133103838D01*
X126480673Y-133103838D02*
X126575911Y-133056219D01*
X126575911Y-133056219D02*
X126814006Y-133056219D01*
X126814006Y-133056219D02*
X126909244Y-133103838D01*
X126909244Y-133103838D02*
X126956863Y-133151457D01*
X126956863Y-133151457D02*
X127004482Y-133246695D01*
X127004482Y-133246695D02*
X127004482Y-133341933D01*
X127004482Y-133341933D02*
X126956863Y-133484790D01*
X126956863Y-133484790D02*
X126385435Y-134056219D01*
X126385435Y-134056219D02*
X127004482Y-134056219D01*
X127623530Y-133056219D02*
X127718768Y-133056219D01*
X127718768Y-133056219D02*
X127814006Y-133103838D01*
X127814006Y-133103838D02*
X127861625Y-133151457D01*
X127861625Y-133151457D02*
X127909244Y-133246695D01*
X127909244Y-133246695D02*
X127956863Y-133437171D01*
X127956863Y-133437171D02*
X127956863Y-133675266D01*
X127956863Y-133675266D02*
X127909244Y-133865742D01*
X127909244Y-133865742D02*
X127861625Y-133960980D01*
X127861625Y-133960980D02*
X127814006Y-134008600D01*
X127814006Y-134008600D02*
X127718768Y-134056219D01*
X127718768Y-134056219D02*
X127623530Y-134056219D01*
X127623530Y-134056219D02*
X127528292Y-134008600D01*
X127528292Y-134008600D02*
X127480673Y-133960980D01*
X127480673Y-133960980D02*
X127433054Y-133865742D01*
X127433054Y-133865742D02*
X127385435Y-133675266D01*
X127385435Y-133675266D02*
X127385435Y-133437171D01*
X127385435Y-133437171D02*
X127433054Y-133246695D01*
X127433054Y-133246695D02*
X127480673Y-133151457D01*
X127480673Y-133151457D02*
X127528292Y-133103838D01*
X127528292Y-133103838D02*
X127623530Y-133056219D01*
D13*
G36*
X136168147Y-86525302D02*
G01*
X136188266Y-86538948D01*
X136217186Y-86559447D01*
X136253087Y-86585496D01*
X136294152Y-86615792D01*
X136331511Y-86643722D01*
X136586144Y-86825942D01*
X136845804Y-86993378D01*
X137110585Y-87146072D01*
X137380584Y-87284067D01*
X137655894Y-87407407D01*
X137936611Y-87516134D01*
X138222830Y-87610291D01*
X138514647Y-87689921D01*
X138779844Y-87748747D01*
X138828982Y-87757929D01*
X138876494Y-87765784D01*
X138918791Y-87771793D01*
X138952282Y-87775436D01*
X138970345Y-87776298D01*
X138995639Y-87777043D01*
X139013286Y-87779538D01*
X139019177Y-87782841D01*
X139026422Y-87789795D01*
X139045916Y-87795475D01*
X139074291Y-87799219D01*
X139108181Y-87800366D01*
X139108351Y-87800365D01*
X139129422Y-87801081D01*
X139162480Y-87803339D01*
X139203996Y-87806848D01*
X139250440Y-87811314D01*
X139284818Y-87814945D01*
X139337731Y-87820479D01*
X139393137Y-87825802D01*
X139445913Y-87830451D01*
X139490935Y-87833966D01*
X139509441Y-87835184D01*
X139544379Y-87837649D01*
X139572733Y-87840389D01*
X139591391Y-87843053D01*
X139597320Y-87845094D01*
X139604567Y-87846830D01*
X139624123Y-87847771D01*
X139652687Y-87847823D01*
X139675450Y-87847307D01*
X139708233Y-87846862D01*
X139734247Y-87847636D01*
X139750189Y-87849463D01*
X139753593Y-87851214D01*
X139761063Y-87852925D01*
X139782108Y-87854463D01*
X139814675Y-87855762D01*
X139856714Y-87856760D01*
X139906173Y-87857391D01*
X139956723Y-87857592D01*
X140011219Y-87857377D01*
X140060191Y-87856770D01*
X140101589Y-87855830D01*
X140133360Y-87854617D01*
X140153454Y-87853191D01*
X140159864Y-87851733D01*
X140167010Y-87848807D01*
X140185768Y-87846707D01*
X140212126Y-87845874D01*
X140213001Y-87845873D01*
X140286244Y-87843969D01*
X140372026Y-87838488D01*
X140467758Y-87829772D01*
X140570852Y-87818164D01*
X140678721Y-87804009D01*
X140788776Y-87787650D01*
X140898430Y-87769429D01*
X141005095Y-87749690D01*
X141106183Y-87728777D01*
X141122122Y-87725243D01*
X141392740Y-87656815D01*
X141662581Y-87573053D01*
X141931046Y-87474245D01*
X142197533Y-87360682D01*
X142461444Y-87232654D01*
X142722178Y-87090451D01*
X142979134Y-86934363D01*
X143231712Y-86764679D01*
X143462510Y-86594653D01*
X143504229Y-86563924D01*
X143535600Y-86544014D01*
X143557274Y-86534646D01*
X143569903Y-86535540D01*
X143574140Y-86546419D01*
X143574144Y-86546950D01*
X143579585Y-86554097D01*
X143595514Y-86571663D01*
X143621339Y-86599045D01*
X143656472Y-86635643D01*
X143700320Y-86680856D01*
X143752293Y-86734081D01*
X143811802Y-86794717D01*
X143878254Y-86862162D01*
X143951059Y-86935816D01*
X144029627Y-87015077D01*
X144113367Y-87099343D01*
X144201689Y-87188012D01*
X144294001Y-87280485D01*
X144321425Y-87307919D01*
X144440558Y-87427155D01*
X144548714Y-87535613D01*
X144646061Y-87633465D01*
X144732769Y-87720884D01*
X144809006Y-87798044D01*
X144874942Y-87865115D01*
X144930745Y-87922273D01*
X144976586Y-87969688D01*
X145012632Y-88007534D01*
X145039053Y-88035983D01*
X145056017Y-88055209D01*
X145063695Y-88065384D01*
X145064188Y-88067006D01*
X145055332Y-88076509D01*
X145036576Y-88089881D01*
X145013250Y-88103523D01*
X144995293Y-88114559D01*
X144973800Y-88130735D01*
X144947453Y-88153244D01*
X144914933Y-88183276D01*
X144874924Y-88222021D01*
X144826108Y-88270670D01*
X144807129Y-88289822D01*
X144738346Y-88359872D01*
X144678710Y-88421750D01*
X144625962Y-88477964D01*
X144577840Y-88531020D01*
X144532085Y-88583427D01*
X144486438Y-88637691D01*
X144438637Y-88696319D01*
X144422029Y-88717020D01*
X144298364Y-88879356D01*
X144188385Y-89040472D01*
X144090639Y-89203025D01*
X144003677Y-89369675D01*
X143926047Y-89543081D01*
X143856296Y-89725900D01*
X143831316Y-89799118D01*
X143783341Y-89951416D01*
X143743638Y-90094424D01*
X143711586Y-90231703D01*
X143686562Y-90366810D01*
X143667947Y-90503306D01*
X143655118Y-90644751D01*
X143647456Y-90794702D01*
X143645575Y-90863646D01*
X143644527Y-90923855D01*
X143643986Y-90978357D01*
X143643937Y-91025317D01*
X143644369Y-91062903D01*
X143645267Y-91089282D01*
X143646618Y-91102621D01*
X143647296Y-91103895D01*
X143650122Y-91111029D01*
X143651354Y-91129868D01*
X143650771Y-91156549D01*
X143650542Y-91160530D01*
X143650067Y-91193909D01*
X143651724Y-91235843D01*
X143655173Y-91279458D01*
X143657396Y-91299210D01*
X143690978Y-91504589D01*
X143739752Y-91710275D01*
X143803324Y-91915461D01*
X143881298Y-92119339D01*
X143973282Y-92321101D01*
X144078881Y-92519938D01*
X144197700Y-92715042D01*
X144329345Y-92905605D01*
X144473422Y-93090819D01*
X144606482Y-93244670D01*
X144655393Y-93298176D01*
X144700932Y-93347226D01*
X144741999Y-93390687D01*
X144777496Y-93427428D01*
X144806324Y-93456317D01*
X144827384Y-93476222D01*
X144839577Y-93486012D01*
X144841656Y-93486845D01*
X144849488Y-93492122D01*
X144866052Y-93506632D01*
X144889200Y-93528388D01*
X144916785Y-93555404D01*
X144928404Y-93567061D01*
X144959611Y-93598019D01*
X144989645Y-93626818D01*
X145015528Y-93650668D01*
X145034286Y-93666782D01*
X145037566Y-93669314D01*
X145054645Y-93684337D01*
X145064149Y-93697381D01*
X145064911Y-93701785D01*
X145059201Y-93709311D01*
X145043700Y-93727018D01*
X145019430Y-93753804D01*
X144987411Y-93788570D01*
X144948666Y-93830213D01*
X144904215Y-93877632D01*
X144855080Y-93929728D01*
X144802282Y-93985398D01*
X144784717Y-94003853D01*
X144726259Y-94065275D01*
X144667250Y-94127373D01*
X144609321Y-94188424D01*
X144554103Y-94246705D01*
X144503227Y-94300493D01*
X144458325Y-94348066D01*
X144421028Y-94387700D01*
X144394068Y-94416491D01*
X144360945Y-94451933D01*
X144319349Y-94496326D01*
X144271539Y-94547263D01*
X144219776Y-94602339D01*
X144166321Y-94659148D01*
X144113434Y-94715285D01*
X144081988Y-94748626D01*
X144029260Y-94804624D01*
X143973440Y-94864115D01*
X143917032Y-94924419D01*
X143862540Y-94982852D01*
X143812467Y-95036732D01*
X143769317Y-95083375D01*
X143750137Y-95104216D01*
X143712858Y-95144629D01*
X143678248Y-95181790D01*
X143647960Y-95213951D01*
X143623647Y-95239365D01*
X143606964Y-95256284D01*
X143600458Y-95262345D01*
X143576323Y-95272875D01*
X143544717Y-95276017D01*
X143528844Y-95275408D01*
X143514382Y-95272674D01*
X143498600Y-95266455D01*
X143478770Y-95255392D01*
X143452159Y-95238127D01*
X143416039Y-95213298D01*
X143409222Y-95208552D01*
X143225515Y-95082745D01*
X143050694Y-94967713D01*
X142883203Y-94862612D01*
X142721483Y-94766595D01*
X142563977Y-94678817D01*
X142409125Y-94598431D01*
X142255371Y-94524592D01*
X142101156Y-94456454D01*
X141944921Y-94393171D01*
X141823392Y-94347628D01*
X141545278Y-94254777D01*
X141264383Y-94176843D01*
X140980339Y-94113783D01*
X140692777Y-94065551D01*
X140401331Y-94032103D01*
X140105630Y-94013395D01*
X139805308Y-94009382D01*
X139499996Y-94020019D01*
X139261379Y-94038156D01*
X138973305Y-94072896D01*
X138688053Y-94122952D01*
X138405859Y-94188233D01*
X138126958Y-94268643D01*
X137851585Y-94364091D01*
X137579975Y-94474482D01*
X137312363Y-94599723D01*
X137048986Y-94739721D01*
X136790077Y-94894383D01*
X136535873Y-95063615D01*
X136365393Y-95187289D01*
X136309520Y-95228435D01*
X136263653Y-95260122D01*
X136225971Y-95283107D01*
X136194656Y-95298148D01*
X136167889Y-95306002D01*
X136143852Y-95307426D01*
X136120725Y-95303178D01*
X136102731Y-95296660D01*
X136088938Y-95288926D01*
X136064908Y-95273443D01*
X136032947Y-95251780D01*
X135995360Y-95225507D01*
X135954454Y-95196194D01*
X135944090Y-95188656D01*
X135697633Y-95015936D01*
X135452189Y-94858244D01*
X135206859Y-94715097D01*
X134960741Y-94586016D01*
X134712932Y-94470520D01*
X134462533Y-94368127D01*
X134287633Y-94304815D01*
X134042023Y-94227733D01*
X133787123Y-94161600D01*
X133525043Y-94106676D01*
X133257888Y-94063219D01*
X132987765Y-94031486D01*
X132716783Y-94011736D01*
X132447047Y-94004228D01*
X132180665Y-94009220D01*
X131978678Y-94021783D01*
X131686638Y-94053261D01*
X131399137Y-94099481D01*
X131115742Y-94160568D01*
X130836018Y-94236644D01*
X130559530Y-94327831D01*
X130285846Y-94434253D01*
X130014529Y-94556032D01*
X129914839Y-94604915D01*
X129860429Y-94632339D01*
X129809638Y-94658287D01*
X129761370Y-94683419D01*
X129714529Y-94708397D01*
X129668019Y-94733880D01*
X129620742Y-94760529D01*
X129571603Y-94789005D01*
X129519504Y-94819969D01*
X129463350Y-94854082D01*
X129402045Y-94892003D01*
X129334491Y-94934394D01*
X129259592Y-94981916D01*
X129176252Y-95035228D01*
X129083375Y-95094992D01*
X128979863Y-95161868D01*
X128864622Y-95236517D01*
X128838211Y-95253643D01*
X128805741Y-95274094D01*
X128777196Y-95290951D01*
X128755515Y-95302554D01*
X128743641Y-95307243D01*
X128743209Y-95307269D01*
X128735301Y-95301776D01*
X128717902Y-95286099D01*
X128692222Y-95261440D01*
X128659471Y-95229003D01*
X128620859Y-95189991D01*
X128577594Y-95145607D01*
X128530888Y-95097054D01*
X128513378Y-95078697D01*
X128446355Y-95008239D01*
X128385789Y-94944495D01*
X128330360Y-94886052D01*
X128278751Y-94831498D01*
X128229642Y-94779423D01*
X128181715Y-94728414D01*
X128133651Y-94677061D01*
X128084131Y-94623952D01*
X128031836Y-94567675D01*
X127975448Y-94506818D01*
X127913647Y-94439971D01*
X127845116Y-94365722D01*
X127768535Y-94282660D01*
X127690729Y-94198212D01*
X127664551Y-94169901D01*
X127629770Y-94132447D01*
X127588481Y-94088099D01*
X127542779Y-94039102D01*
X127494760Y-93987705D01*
X127446518Y-93936155D01*
X127426667Y-93914969D01*
X127383678Y-93868800D01*
X127344319Y-93825931D01*
X127309830Y-93787760D01*
X127281449Y-93755683D01*
X127260415Y-93731096D01*
X127247969Y-93715395D01*
X127245015Y-93710285D01*
X127250621Y-93701611D01*
X127266090Y-93684816D01*
X127289396Y-93661922D01*
X127318516Y-93634950D01*
X127336817Y-93618633D01*
X127390883Y-93569772D01*
X127451289Y-93512951D01*
X127515220Y-93450986D01*
X127579861Y-93386691D01*
X127642399Y-93322883D01*
X127700019Y-93262377D01*
X127749907Y-93207988D01*
X127769269Y-93186045D01*
X127922720Y-92998825D01*
X128061066Y-92807774D01*
X128095919Y-92752641D01*
X131589337Y-92752641D01*
X131840153Y-92750579D01*
X132090969Y-92748518D01*
X132317021Y-92139106D01*
X132351667Y-92045830D01*
X132384841Y-91956758D01*
X132416131Y-91872981D01*
X132445127Y-91795589D01*
X132471417Y-91725673D01*
X132494589Y-91664324D01*
X132514231Y-91612633D01*
X132529932Y-91571691D01*
X132541280Y-91542588D01*
X132547864Y-91526416D01*
X132549341Y-91523388D01*
X132553622Y-91528545D01*
X132562141Y-91546486D01*
X132574082Y-91575206D01*
X132588627Y-91612704D01*
X132604961Y-91656976D01*
X132613056Y-91679647D01*
X132626392Y-91717368D01*
X132644262Y-91767882D01*
X132665981Y-91829257D01*
X132690864Y-91899557D01*
X132718225Y-91976848D01*
X132747382Y-92059195D01*
X132777647Y-92144665D01*
X132808338Y-92231322D01*
X132831022Y-92295365D01*
X132991541Y-92748518D01*
X133456691Y-92752658D01*
X133452090Y-92734962D01*
X133449225Y-92725457D01*
X133441959Y-92701935D01*
X133430572Y-92665292D01*
X133415343Y-92616419D01*
X133396552Y-92556209D01*
X133374477Y-92485557D01*
X133349398Y-92405354D01*
X133321595Y-92316494D01*
X133291346Y-92219870D01*
X133258931Y-92116375D01*
X133224629Y-92006903D01*
X133188720Y-91892346D01*
X133151482Y-91773597D01*
X133141146Y-91740644D01*
X132899748Y-90971065D01*
X134014962Y-90971065D01*
X134014971Y-91130783D01*
X134015003Y-91275651D01*
X134015066Y-91406442D01*
X134015170Y-91523933D01*
X134015323Y-91628898D01*
X134015533Y-91722112D01*
X134015809Y-91804351D01*
X134016160Y-91876389D01*
X134016594Y-91939002D01*
X134017120Y-91992964D01*
X134017747Y-92039052D01*
X134018482Y-92078038D01*
X134019335Y-92110700D01*
X134020314Y-92137811D01*
X134021428Y-92160148D01*
X134022686Y-92178484D01*
X134024095Y-92193596D01*
X134025665Y-92206257D01*
X134027405Y-92217244D01*
X134028864Y-92225048D01*
X134046455Y-92301283D01*
X134067648Y-92371817D01*
X134091413Y-92433771D01*
X134116716Y-92484266D01*
X134128278Y-92502409D01*
X134133557Y-92510859D01*
X134136102Y-92519518D01*
X134135358Y-92531168D01*
X134130773Y-92548588D01*
X134121791Y-92574558D01*
X134107860Y-92611860D01*
X134104930Y-92619604D01*
X134090697Y-92657426D01*
X134078117Y-92691253D01*
X134068425Y-92717732D01*
X134062859Y-92733512D01*
X134062425Y-92734845D01*
X134056881Y-92752425D01*
X134297657Y-92752305D01*
X134357754Y-92752084D01*
X134412989Y-92751516D01*
X134461376Y-92750651D01*
X134500931Y-92749536D01*
X134529668Y-92748222D01*
X134545601Y-92746757D01*
X134548001Y-92746106D01*
X134557268Y-92733834D01*
X134560103Y-92724740D01*
X134565952Y-92705509D01*
X134571978Y-92692464D01*
X134580583Y-92673077D01*
X134584075Y-92661212D01*
X134589030Y-92643842D01*
X134596611Y-92623510D01*
X134604022Y-92604837D01*
X134608290Y-92592394D01*
X134608324Y-92592259D01*
X134612497Y-92580031D01*
X134619877Y-92561406D01*
X134620044Y-92561007D01*
X134627458Y-92542334D01*
X134631729Y-92529891D01*
X134631763Y-92529755D01*
X134635936Y-92517527D01*
X134643316Y-92498903D01*
X134643483Y-92498503D01*
X134651194Y-92478355D01*
X134655805Y-92463344D01*
X134658689Y-92452969D01*
X134659533Y-92451625D01*
X134661950Y-92445339D01*
X134663262Y-92439905D01*
X134667980Y-92424591D01*
X134675584Y-92404747D01*
X134682999Y-92386074D01*
X134687269Y-92373631D01*
X134687304Y-92373495D01*
X134691477Y-92361267D01*
X134698856Y-92342643D01*
X134699023Y-92342243D01*
X134706455Y-92323568D01*
X134710764Y-92311126D01*
X134710799Y-92310991D01*
X134715377Y-92296473D01*
X134724909Y-92269077D01*
X134738977Y-92229908D01*
X134757161Y-92180075D01*
X134779041Y-92120685D01*
X134804197Y-92052844D01*
X134832211Y-91977661D01*
X134862661Y-91896242D01*
X134895130Y-91809694D01*
X134929197Y-91719125D01*
X134964443Y-91625642D01*
X135000448Y-91530351D01*
X135036792Y-91434361D01*
X135073057Y-91338778D01*
X135108821Y-91244710D01*
X135143667Y-91153264D01*
X135177174Y-91065546D01*
X135208922Y-90982665D01*
X135238493Y-90905727D01*
X135265466Y-90835839D01*
X135289422Y-90774109D01*
X135309942Y-90721644D01*
X135326605Y-90679551D01*
X135338992Y-90648938D01*
X135346685Y-90630911D01*
X135349219Y-90626312D01*
X135350142Y-90634900D01*
X135350968Y-90657946D01*
X135351690Y-90694285D01*
X135352301Y-90742748D01*
X135352795Y-90802168D01*
X135353163Y-90871380D01*
X135353400Y-90949215D01*
X135353498Y-91034507D01*
X135353450Y-91126089D01*
X135353250Y-91222794D01*
X135353077Y-91276423D01*
X135352654Y-91396715D01*
X135352253Y-91502410D01*
X135351791Y-91594536D01*
X135351181Y-91674122D01*
X135350337Y-91742195D01*
X135349175Y-91799785D01*
X135347609Y-91847919D01*
X135345554Y-91887627D01*
X135342923Y-91919936D01*
X135339632Y-91945874D01*
X135335595Y-91966471D01*
X135330726Y-91982754D01*
X135324941Y-91995752D01*
X135318153Y-92006494D01*
X135310278Y-92016007D01*
X135301229Y-92025320D01*
X135290921Y-92035461D01*
X135289914Y-92036464D01*
X135265311Y-92057537D01*
X135238049Y-92072804D01*
X135204850Y-92083325D01*
X135162439Y-92090163D01*
X135111822Y-92094149D01*
X135036294Y-92098311D01*
X134928929Y-92388256D01*
X134904681Y-92453687D01*
X134881592Y-92515891D01*
X134860350Y-92573024D01*
X134841641Y-92623245D01*
X134826151Y-92664710D01*
X134814567Y-92695575D01*
X134807577Y-92713999D01*
X134806785Y-92716043D01*
X134792006Y-92753886D01*
X135079307Y-92750518D01*
X135155025Y-92749574D01*
X135216959Y-92748620D01*
X135266952Y-92747550D01*
X135306846Y-92746256D01*
X135338483Y-92744631D01*
X135363707Y-92742568D01*
X135384358Y-92739960D01*
X135402280Y-92736700D01*
X135419314Y-92732679D01*
X135428659Y-92730191D01*
X135517255Y-92698835D01*
X135595634Y-92655934D01*
X135663873Y-92601383D01*
X135722051Y-92535078D01*
X135770244Y-92456916D01*
X135808531Y-92366791D01*
X135836989Y-92264600D01*
X135854678Y-92158843D01*
X135855909Y-92140565D01*
X135857044Y-92106927D01*
X135858082Y-92058193D01*
X135859020Y-91994630D01*
X135859856Y-91916501D01*
X135860590Y-91824073D01*
X135861198Y-91721111D01*
X136503397Y-91721111D01*
X136503419Y-91906669D01*
X136503967Y-91989618D01*
X136505761Y-92059805D01*
X136509054Y-92120064D01*
X136514101Y-92173226D01*
X136521156Y-92222125D01*
X136530475Y-92269593D01*
X136539385Y-92307085D01*
X136570883Y-92403735D01*
X136613580Y-92489539D01*
X136667190Y-92564250D01*
X136731431Y-92627620D01*
X136806018Y-92679402D01*
X136890666Y-92719346D01*
X136985093Y-92747207D01*
X137058573Y-92759597D01*
X137078676Y-92761039D01*
X137112468Y-92762293D01*
X137158010Y-92763335D01*
X137213367Y-92764139D01*
X137276600Y-92764682D01*
X137345773Y-92764939D01*
X137418948Y-92764886D01*
X137464393Y-92764692D01*
X137547896Y-92764187D01*
X137617395Y-92763645D01*
X137674514Y-92762992D01*
X137720876Y-92762154D01*
X137758103Y-92761057D01*
X137787819Y-92759629D01*
X137811646Y-92757795D01*
X137831208Y-92755483D01*
X137848126Y-92752617D01*
X137864024Y-92749125D01*
X137876453Y-92746000D01*
X137968044Y-92714791D01*
X138050242Y-92671197D01*
X138123146Y-92615124D01*
X138186860Y-92546480D01*
X138241484Y-92465170D01*
X138287120Y-92371102D01*
X138289039Y-92366381D01*
X138312167Y-92304522D01*
X138330865Y-92243582D01*
X138345464Y-92181154D01*
X138356294Y-92114832D01*
X138363682Y-92042209D01*
X138367960Y-91960880D01*
X138369457Y-91868437D01*
X138368854Y-91783615D01*
X138367459Y-91709133D01*
X138365448Y-91647755D01*
X138362384Y-91596962D01*
X138357830Y-91554231D01*
X138351349Y-91517044D01*
X138342503Y-91482878D01*
X138330856Y-91449214D01*
X138315970Y-91413531D01*
X138297878Y-91374298D01*
X138247638Y-91281121D01*
X138187009Y-91192452D01*
X138115073Y-91107364D01*
X138030911Y-91024931D01*
X137933602Y-90944226D01*
X137822229Y-90864324D01*
X137738125Y-90810058D01*
X137618316Y-90733967D01*
X137512293Y-90662801D01*
X137419263Y-90595856D01*
X137338435Y-90532432D01*
X137269016Y-90471828D01*
X137210213Y-90413341D01*
X137161235Y-90356270D01*
X137121288Y-90299913D01*
X137089582Y-90243569D01*
X137083215Y-90230199D01*
X137074727Y-90210217D01*
X137068778Y-90191056D01*
X137064795Y-90169028D01*
X137062205Y-90140448D01*
X137060434Y-90101628D01*
X137059735Y-90079263D01*
X137056658Y-89972666D01*
X137085341Y-89940917D01*
X137101282Y-89924335D01*
X137117299Y-89910904D01*
X137135211Y-89900276D01*
X137156839Y-89892102D01*
X137184001Y-89886034D01*
X137218516Y-89881723D01*
X137262206Y-89878820D01*
X137316888Y-89876977D01*
X137384382Y-89875845D01*
X137427287Y-89875402D01*
X137497847Y-89874848D01*
X137554680Y-89874799D01*
X137599685Y-89875566D01*
X137634759Y-89877457D01*
X137661800Y-89880783D01*
X137682708Y-89885852D01*
X137699378Y-89892974D01*
X137713711Y-89902459D01*
X137727603Y-89914616D01*
X137739516Y-89926314D01*
X137773701Y-89970971D01*
X137799909Y-90028666D01*
X137818196Y-90099560D01*
X137828614Y-90183813D01*
X137829146Y-90191720D01*
X137833964Y-90267897D01*
X138378512Y-90267897D01*
X138378490Y-90078432D01*
X138377337Y-89975850D01*
X138373669Y-89886592D01*
X138369619Y-89838183D01*
X138367137Y-89808510D01*
X138357390Y-89739451D01*
X138344078Y-89677267D01*
X138326851Y-89619806D01*
X138305358Y-89564919D01*
X138289193Y-89530128D01*
X138240930Y-89446973D01*
X138183756Y-89376415D01*
X138116961Y-89317862D01*
X138039831Y-89270719D01*
X137951654Y-89234393D01*
X137924223Y-89225886D01*
X137890452Y-89216746D01*
X137856756Y-89209189D01*
X137821360Y-89203100D01*
X137782493Y-89198367D01*
X137738381Y-89194875D01*
X137687251Y-89192512D01*
X137627331Y-89191163D01*
X137556846Y-89190717D01*
X137474026Y-89191058D01*
X137392680Y-89191883D01*
X137313479Y-89192901D01*
X137248114Y-89193931D01*
X137194794Y-89195069D01*
X137151729Y-89196408D01*
X137117128Y-89198042D01*
X137089202Y-89200068D01*
X137066159Y-89202578D01*
X137046210Y-89205667D01*
X137027565Y-89209431D01*
X137017864Y-89211668D01*
X136918946Y-89242002D01*
X136831090Y-89283354D01*
X136754148Y-89335852D01*
X136687972Y-89399628D01*
X136632415Y-89474810D01*
X136587330Y-89561530D01*
X136569650Y-89606491D01*
X136556645Y-89643763D01*
X136545880Y-89677468D01*
X136537144Y-89709580D01*
X136530229Y-89742072D01*
X136524923Y-89776919D01*
X136521018Y-89816093D01*
X136518304Y-89861568D01*
X136516572Y-89915318D01*
X136515610Y-89979317D01*
X136515211Y-90055539D01*
X136515154Y-90119450D01*
X136515191Y-90420250D01*
X136536682Y-90488880D01*
X136572583Y-90586543D01*
X136617394Y-90676861D01*
X136672837Y-90762584D01*
X136740632Y-90846461D01*
X136799756Y-90908946D01*
X136848667Y-90956191D01*
X136897244Y-90999518D01*
X136948045Y-91040860D01*
X137003627Y-91082151D01*
X137066546Y-91125322D01*
X137139361Y-91172307D01*
X137189595Y-91203583D01*
X137315654Y-91282974D01*
X137427254Y-91356941D01*
X137524544Y-91425605D01*
X137607674Y-91489086D01*
X137676793Y-91547505D01*
X137732050Y-91600983D01*
X137773596Y-91649641D01*
X137801580Y-91693599D01*
X137804905Y-91700410D01*
X137812013Y-91716776D01*
X137817058Y-91732464D01*
X137820386Y-91750550D01*
X137822345Y-91774114D01*
X137823282Y-91806233D01*
X137823544Y-91849985D01*
X137823543Y-91865651D01*
X137822622Y-91926713D01*
X137819376Y-91974462D01*
X137812918Y-92011144D01*
X137802363Y-92039004D01*
X137786827Y-92060290D01*
X137765423Y-92077248D01*
X137737268Y-92092123D01*
X137733655Y-92093758D01*
X137723037Y-92097776D01*
X137709864Y-92101007D01*
X137692301Y-92103564D01*
X137668512Y-92105559D01*
X137636663Y-92107107D01*
X137594918Y-92108319D01*
X137541441Y-92109308D01*
X137474399Y-92110189D01*
X137465172Y-92110295D01*
X137390896Y-92111011D01*
X137330462Y-92111109D01*
X137282090Y-92110293D01*
X137244000Y-92108268D01*
X137214413Y-92104740D01*
X137191548Y-92099412D01*
X137173624Y-92091990D01*
X137158863Y-92082179D01*
X137145483Y-92069682D01*
X137132487Y-92055121D01*
X137108376Y-92020933D01*
X137089094Y-91979466D01*
X137074057Y-91928716D01*
X137062681Y-91866680D01*
X137054381Y-91791355D01*
X137053903Y-91785568D01*
X137048679Y-91721111D01*
X136503397Y-91721111D01*
X135861198Y-91721111D01*
X135861219Y-91717610D01*
X135861742Y-91597377D01*
X135862156Y-91463640D01*
X135862460Y-91316664D01*
X135862652Y-91156715D01*
X135862730Y-90984056D01*
X135862732Y-90951151D01*
X135862728Y-90795079D01*
X135862709Y-90653827D01*
X135862663Y-90526588D01*
X135862581Y-90412557D01*
X135862453Y-90310926D01*
X135862266Y-90220891D01*
X135862012Y-90141643D01*
X135861680Y-90072378D01*
X135861258Y-90012289D01*
X135860737Y-89960569D01*
X135860106Y-89916413D01*
X135859354Y-89879014D01*
X135858472Y-89847566D01*
X135857447Y-89821263D01*
X135856271Y-89799298D01*
X135854933Y-89780865D01*
X135853421Y-89765159D01*
X135851725Y-89751372D01*
X135849836Y-89738698D01*
X135847742Y-89726331D01*
X135846685Y-89720401D01*
X135836921Y-89673120D01*
X135824071Y-89620491D01*
X135810223Y-89570778D01*
X135803331Y-89548855D01*
X135776025Y-89466571D01*
X135831098Y-89321268D01*
X135847933Y-89276619D01*
X135862690Y-89237036D01*
X135874529Y-89204807D01*
X135882611Y-89182222D01*
X135882719Y-89181892D01*
X138948860Y-89181892D01*
X138948860Y-89838183D01*
X139636402Y-89838183D01*
X139636402Y-92752425D01*
X140144246Y-92752425D01*
X141493311Y-92752425D01*
X143371007Y-92752425D01*
X143371007Y-92096134D01*
X142019361Y-92096134D01*
X142019361Y-89181892D01*
X141503704Y-89181892D01*
X141503700Y-90117497D01*
X141503647Y-90259684D01*
X141503492Y-90412742D01*
X141503243Y-90574112D01*
X141502908Y-90741237D01*
X141502495Y-90911560D01*
X141502010Y-91082522D01*
X141501460Y-91251566D01*
X141500855Y-91416135D01*
X141500200Y-91573670D01*
X141499504Y-91721613D01*
X141498773Y-91857408D01*
X141498504Y-91902763D01*
X141493311Y-92752425D01*
X140144246Y-92752425D01*
X140144246Y-89838183D01*
X140823975Y-89838183D01*
X140823975Y-89181892D01*
X138948860Y-89181892D01*
X135882719Y-89181892D01*
X135886096Y-89171568D01*
X135886171Y-89171116D01*
X135878672Y-89169919D01*
X135857428Y-89168829D01*
X135824321Y-89167884D01*
X135781232Y-89167122D01*
X135730043Y-89166581D01*
X135672634Y-89166299D01*
X135644652Y-89166267D01*
X135403133Y-89166267D01*
X135383145Y-89219004D01*
X135377251Y-89234658D01*
X135366353Y-89263703D01*
X135350918Y-89304895D01*
X135331413Y-89356987D01*
X135308302Y-89418733D01*
X135282053Y-89488889D01*
X135253131Y-89566208D01*
X135222003Y-89649445D01*
X135189135Y-89737353D01*
X135154993Y-89828688D01*
X135148524Y-89845996D01*
X135081485Y-90025232D01*
X135017449Y-90196184D01*
X134956575Y-90358436D01*
X134899021Y-90511570D01*
X134844946Y-90655169D01*
X134794509Y-90788816D01*
X134747867Y-90912095D01*
X134705180Y-91024587D01*
X134666607Y-91125876D01*
X134632306Y-91215545D01*
X134602435Y-91293176D01*
X134577153Y-91358353D01*
X134556620Y-91410659D01*
X134540992Y-91449676D01*
X134530430Y-91474988D01*
X134525091Y-91486176D01*
X134524562Y-91486722D01*
X134523681Y-91479089D01*
X134522886Y-91456914D01*
X134522182Y-91421280D01*
X134521576Y-91373270D01*
X134521072Y-91313966D01*
X134520678Y-91244453D01*
X134520399Y-91165813D01*
X134520241Y-91079129D01*
X134520210Y-90985486D01*
X134520311Y-90885965D01*
X134520550Y-90781650D01*
X134520622Y-90758161D01*
X134522951Y-90029601D01*
X134540491Y-89977771D01*
X134564887Y-89925139D01*
X134598050Y-89885120D01*
X134639668Y-89858044D01*
X134660527Y-89850331D01*
X134692898Y-89843724D01*
X134737462Y-89839725D01*
X134795742Y-89838205D01*
X134804930Y-89838183D01*
X134908426Y-89838183D01*
X134925365Y-89793258D01*
X134932002Y-89775550D01*
X134943338Y-89745190D01*
X134958627Y-89704172D01*
X134977128Y-89654493D01*
X134998098Y-89598148D01*
X135020792Y-89537133D01*
X135042483Y-89478786D01*
X135065495Y-89416888D01*
X135086936Y-89359258D01*
X135106161Y-89307624D01*
X135122527Y-89263713D01*
X135135390Y-89229253D01*
X135144106Y-89205971D01*
X135148031Y-89195594D01*
X135148042Y-89195565D01*
X135148654Y-89192102D01*
X135146555Y-89189277D01*
X135140336Y-89187027D01*
X135128585Y-89185287D01*
X135109892Y-89183992D01*
X135082847Y-89183079D01*
X135046040Y-89182482D01*
X134998060Y-89182138D01*
X134937497Y-89181982D01*
X134862940Y-89181950D01*
X134849834Y-89181951D01*
X134775212Y-89182183D01*
X134705420Y-89182818D01*
X134642308Y-89183814D01*
X134587723Y-89185128D01*
X134543514Y-89186717D01*
X134511529Y-89188537D01*
X134495461Y-89190213D01*
X134404499Y-89211905D01*
X134322877Y-89246096D01*
X134250584Y-89292796D01*
X134187609Y-89352020D01*
X134133941Y-89423779D01*
X134089568Y-89508086D01*
X134054479Y-89604954D01*
X134029612Y-89709269D01*
X134027639Y-89720348D01*
X134025852Y-89732047D01*
X134024240Y-89745148D01*
X134022795Y-89760434D01*
X134021508Y-89778686D01*
X134020370Y-89800686D01*
X134019371Y-89827218D01*
X134018503Y-89859061D01*
X134017757Y-89897000D01*
X134017122Y-89941816D01*
X134016591Y-89994292D01*
X134016155Y-90055208D01*
X134015803Y-90125348D01*
X134015527Y-90205494D01*
X134015319Y-90296428D01*
X134015168Y-90398931D01*
X134015066Y-90513787D01*
X134015004Y-90641776D01*
X134014973Y-90783682D01*
X134014963Y-90940287D01*
X134014962Y-90971065D01*
X132899748Y-90971065D01*
X132834803Y-90764021D01*
X133133746Y-89967097D01*
X133173762Y-89860408D01*
X133212207Y-89757878D01*
X133248729Y-89660447D01*
X133282975Y-89569057D01*
X133314594Y-89484650D01*
X133343232Y-89408165D01*
X133368538Y-89340546D01*
X133390160Y-89282732D01*
X133407744Y-89235666D01*
X133420938Y-89200289D01*
X133429390Y-89177541D01*
X133432749Y-89168365D01*
X133432793Y-89168220D01*
X133425315Y-89167748D01*
X133404066Y-89167325D01*
X133370903Y-89166965D01*
X133327679Y-89166682D01*
X133276251Y-89166490D01*
X133218473Y-89166401D01*
X133184833Y-89166401D01*
X132936771Y-89166535D01*
X132761228Y-89639086D01*
X132730790Y-89720829D01*
X132701878Y-89798092D01*
X132674958Y-89869653D01*
X132650498Y-89934290D01*
X132628964Y-89990782D01*
X132610822Y-90037906D01*
X132596539Y-90074439D01*
X132586582Y-90099161D01*
X132581416Y-90110849D01*
X132580843Y-90111637D01*
X132577274Y-90104543D01*
X132568597Y-90084070D01*
X132555291Y-90051432D01*
X132537836Y-90007843D01*
X132516713Y-89954515D01*
X132492402Y-89892663D01*
X132465382Y-89823500D01*
X132436133Y-89748241D01*
X132405135Y-89668097D01*
X132393898Y-89638952D01*
X132211796Y-89166267D01*
X131746457Y-89166267D01*
X131799754Y-89324479D01*
X131810308Y-89355804D01*
X131825388Y-89400548D01*
X131844526Y-89457325D01*
X131867253Y-89524748D01*
X131893103Y-89601429D01*
X131921607Y-89685981D01*
X131952299Y-89777018D01*
X131984710Y-89873152D01*
X132018373Y-89972996D01*
X132052820Y-90075162D01*
X132080925Y-90158515D01*
X132114217Y-90257523D01*
X132145978Y-90352502D01*
X132175860Y-90442384D01*
X132203516Y-90526100D01*
X132228599Y-90602582D01*
X132250761Y-90670762D01*
X132269656Y-90729571D01*
X132284937Y-90777942D01*
X132296256Y-90814806D01*
X132303266Y-90839095D01*
X132305620Y-90849740D01*
X132305599Y-90849964D01*
X132302641Y-90858389D01*
X132294562Y-90880376D01*
X132281761Y-90914868D01*
X132264634Y-90960808D01*
X132243580Y-91017139D01*
X132218995Y-91082804D01*
X132191279Y-91156746D01*
X132160829Y-91237909D01*
X132128043Y-91325234D01*
X132093318Y-91417665D01*
X132057052Y-91514145D01*
X132019643Y-91613617D01*
X131981489Y-91715024D01*
X131942988Y-91817309D01*
X131904537Y-91919415D01*
X131866534Y-92020285D01*
X131829377Y-92118863D01*
X131793464Y-92214090D01*
X131759192Y-92304910D01*
X131726960Y-92390266D01*
X131697165Y-92469101D01*
X131670205Y-92540359D01*
X131646477Y-92602981D01*
X131626380Y-92655911D01*
X131610312Y-92698092D01*
X131598669Y-92728468D01*
X131597674Y-92731047D01*
X131589337Y-92752641D01*
X128095919Y-92752641D01*
X128096056Y-92752425D01*
X128184341Y-92612769D01*
X128292580Y-92413690D01*
X128385815Y-92210415D01*
X128464081Y-92002822D01*
X128527412Y-91790789D01*
X128575841Y-91574196D01*
X128609403Y-91352921D01*
X128628131Y-91126842D01*
X128632059Y-90895838D01*
X128621221Y-90659788D01*
X128595652Y-90418569D01*
X128576591Y-90291336D01*
X128531212Y-90062780D01*
X128471087Y-89838653D01*
X128396519Y-89619670D01*
X128307813Y-89406548D01*
X128205276Y-89200004D01*
X128199277Y-89189705D01*
X129377958Y-89189705D01*
X129377958Y-92752425D01*
X129948306Y-92752425D01*
X129948306Y-92033630D01*
X129948378Y-91926827D01*
X129948588Y-91825191D01*
X129948925Y-91729764D01*
X129949381Y-91641587D01*
X129949945Y-91561702D01*
X129950607Y-91491150D01*
X129951357Y-91430974D01*
X129952186Y-91382214D01*
X129953085Y-91345912D01*
X129954042Y-91323110D01*
X129955048Y-91314849D01*
X129955090Y-91314836D01*
X129959284Y-91321755D01*
X129969654Y-91341886D01*
X129985748Y-91374287D01*
X130007117Y-91418021D01*
X130033308Y-91472146D01*
X130063871Y-91535724D01*
X130098355Y-91607813D01*
X130136309Y-91687475D01*
X130177282Y-91773769D01*
X130220823Y-91865755D01*
X130266481Y-91962494D01*
X130299975Y-92033630D01*
X130638076Y-92752425D01*
X130930860Y-92752425D01*
X131006261Y-92752388D01*
X131067478Y-92752234D01*
X131115953Y-92751893D01*
X131153129Y-92751297D01*
X131180447Y-92750378D01*
X131199350Y-92749067D01*
X131211280Y-92747298D01*
X131217679Y-92745000D01*
X131219989Y-92742106D01*
X131219713Y-92738752D01*
X131216149Y-92730002D01*
X131206708Y-92707806D01*
X131191770Y-92673037D01*
X131171713Y-92626568D01*
X131146916Y-92569272D01*
X131117758Y-92502023D01*
X131084619Y-92425693D01*
X131047878Y-92341156D01*
X131007913Y-92249284D01*
X130965104Y-92150951D01*
X130919829Y-92047029D01*
X130872468Y-91938393D01*
X130823694Y-91826586D01*
X130774664Y-91714110D01*
X130727402Y-91605451D01*
X130682283Y-91501485D01*
X130639684Y-91403088D01*
X130599978Y-91311134D01*
X130563542Y-91226498D01*
X130530751Y-91150055D01*
X130501980Y-91082680D01*
X130477605Y-91025249D01*
X130458000Y-90978636D01*
X130443542Y-90943716D01*
X130434606Y-90921364D01*
X130431566Y-90912468D01*
X130434800Y-90903507D01*
X130444241Y-90881274D01*
X130459485Y-90846657D01*
X130480127Y-90800541D01*
X130505762Y-90743814D01*
X130535986Y-90677360D01*
X130570393Y-90602068D01*
X130608579Y-90518823D01*
X130650138Y-90428512D01*
X130694666Y-90332022D01*
X130741759Y-90230238D01*
X130791011Y-90124047D01*
X130826674Y-90047310D01*
X130877139Y-89938783D01*
X130925734Y-89834211D01*
X130972057Y-89734465D01*
X131015705Y-89640417D01*
X131056272Y-89552939D01*
X131093358Y-89472900D01*
X131126557Y-89401174D01*
X131155467Y-89338631D01*
X131179684Y-89286143D01*
X131198805Y-89244580D01*
X131212427Y-89214814D01*
X131220146Y-89197718D01*
X131221822Y-89193742D01*
X131214297Y-89192825D01*
X131192871Y-89191981D01*
X131159269Y-89191234D01*
X131115218Y-89190609D01*
X131062443Y-89190130D01*
X131002668Y-89189821D01*
X130937619Y-89189706D01*
X130934651Y-89189705D01*
X130647481Y-89189705D01*
X130308522Y-89832323D01*
X130259277Y-89925594D01*
X130211955Y-90015043D01*
X130167082Y-90099686D01*
X130125183Y-90178542D01*
X130086785Y-90250626D01*
X130052413Y-90314955D01*
X130022591Y-90370546D01*
X129997847Y-90416415D01*
X129978705Y-90451579D01*
X129965691Y-90475056D01*
X129959330Y-90485860D01*
X129958935Y-90486381D01*
X129957016Y-90486529D01*
X129955334Y-90481973D01*
X129953876Y-90471818D01*
X129952626Y-90455165D01*
X129951570Y-90431117D01*
X129950693Y-90398775D01*
X129949979Y-90357243D01*
X129949415Y-90305623D01*
X129948984Y-90243016D01*
X129948673Y-90168526D01*
X129948466Y-90081254D01*
X129948349Y-89980304D01*
X129948307Y-89864777D01*
X129948306Y-89843764D01*
X129948306Y-89189705D01*
X129377958Y-89189705D01*
X128199277Y-89189705D01*
X128089211Y-89000753D01*
X127959924Y-88809511D01*
X127926220Y-88763898D01*
X127831569Y-88644339D01*
X127726256Y-88522622D01*
X127614001Y-88402699D01*
X127498524Y-88288525D01*
X127383545Y-88184052D01*
X127368069Y-88170741D01*
X127334991Y-88141906D01*
X127306559Y-88116006D01*
X127284748Y-88094930D01*
X127271535Y-88080569D01*
X127268454Y-88075409D01*
X127273415Y-88068814D01*
X127288352Y-88052462D01*
X127313346Y-88026270D01*
X127348480Y-87990158D01*
X127393834Y-87944043D01*
X127449489Y-87887845D01*
X127515528Y-87821482D01*
X127592032Y-87744872D01*
X127679081Y-87657934D01*
X127776758Y-87560587D01*
X127885144Y-87452749D01*
X128004320Y-87334338D01*
X128134368Y-87205273D01*
X128275370Y-87065473D01*
X128427405Y-86914856D01*
X128509160Y-86833908D01*
X128574168Y-86769780D01*
X128629072Y-86716189D01*
X128674665Y-86672472D01*
X128711738Y-86637966D01*
X128741084Y-86612009D01*
X128763495Y-86593937D01*
X128779763Y-86583087D01*
X128790680Y-86578797D01*
X128797040Y-86580403D01*
X128799633Y-86587242D01*
X128799798Y-86590678D01*
X128806255Y-86598870D01*
X128824713Y-86614242D01*
X128853798Y-86635887D01*
X128892139Y-86662900D01*
X128938363Y-86694376D01*
X128991098Y-86729410D01*
X129048973Y-86767095D01*
X129110614Y-86806526D01*
X129174650Y-86846799D01*
X129239709Y-86887007D01*
X129304418Y-86926245D01*
X129344980Y-86950410D01*
X129606315Y-87098068D01*
X129869898Y-87233481D01*
X130134555Y-87356154D01*
X130399118Y-87465590D01*
X130662416Y-87561294D01*
X130923277Y-87642769D01*
X131077659Y-87684497D01*
X131167318Y-87706624D01*
X131255950Y-87727240D01*
X131341701Y-87745990D01*
X131422715Y-87762518D01*
X131497140Y-87776471D01*
X131563121Y-87787493D01*
X131618804Y-87795230D01*
X131662334Y-87799328D01*
X131680835Y-87799899D01*
X131708320Y-87800591D01*
X131728452Y-87802695D01*
X131737350Y-87805776D01*
X131737479Y-87806223D01*
X131743711Y-87811586D01*
X131762847Y-87816177D01*
X131795544Y-87820071D01*
X131842461Y-87823344D01*
X131904255Y-87826071D01*
X131913244Y-87826384D01*
X131952752Y-87828118D01*
X131986194Y-87830338D01*
X132010707Y-87832796D01*
X132023429Y-87835244D01*
X132024560Y-87836027D01*
X132032719Y-87838620D01*
X132052336Y-87839846D01*
X132079284Y-87839460D01*
X132081230Y-87839372D01*
X132108160Y-87838943D01*
X132127687Y-87840248D01*
X132135877Y-87843007D01*
X132135924Y-87843278D01*
X132143184Y-87845728D01*
X132162831Y-87847277D01*
X132191644Y-87847766D01*
X132217960Y-87847323D01*
X132251626Y-87846879D01*
X132278600Y-87847596D01*
X132295662Y-87849320D01*
X132300016Y-87851230D01*
X132307444Y-87853141D01*
X132328188Y-87854823D01*
X132359937Y-87856183D01*
X132400380Y-87857130D01*
X132447209Y-87857571D01*
X132460184Y-87857592D01*
X132508297Y-87857297D01*
X132550628Y-87856473D01*
X132584865Y-87855212D01*
X132608701Y-87853605D01*
X132619823Y-87851745D01*
X132620347Y-87851230D01*
X132627614Y-87848837D01*
X132647267Y-87847334D01*
X132676083Y-87846873D01*
X132702398Y-87847323D01*
X132736064Y-87847916D01*
X132763035Y-87847601D01*
X132780089Y-87846466D01*
X132784435Y-87845094D01*
X132791713Y-87842796D01*
X132811487Y-87840100D01*
X132840644Y-87837359D01*
X132872314Y-87835147D01*
X133046379Y-87820610D01*
X133230106Y-87797545D01*
X133420479Y-87766563D01*
X133614483Y-87728269D01*
X133809101Y-87683273D01*
X134001317Y-87632183D01*
X134188117Y-87575607D01*
X134233726Y-87560640D01*
X134484817Y-87469847D01*
X134737335Y-87364702D01*
X134989524Y-87246152D01*
X135239626Y-87115142D01*
X135485882Y-86972620D01*
X135726535Y-86819531D01*
X135959827Y-86656821D01*
X136080517Y-86566524D01*
X136110680Y-86544619D01*
X136135774Y-86528745D01*
X136153150Y-86520488D01*
X136158647Y-86519812D01*
X136168147Y-86525302D01*
G37*
G36*
X143580048Y-85568944D02*
G01*
X143610040Y-85604097D01*
X143640741Y-85638830D01*
X143673724Y-85674776D01*
X143710557Y-85713571D01*
X143752813Y-85756849D01*
X143802063Y-85806246D01*
X143859876Y-85863396D01*
X143913353Y-85915801D01*
X143952590Y-85954188D01*
X144001618Y-86002230D01*
X144059101Y-86058613D01*
X144123702Y-86122023D01*
X144194083Y-86191147D01*
X144268908Y-86264672D01*
X144346838Y-86341282D01*
X144426538Y-86419665D01*
X144506669Y-86498507D01*
X144585894Y-86576493D01*
X144609364Y-86599604D01*
X144695592Y-86684491D01*
X144788708Y-86776111D01*
X144886651Y-86872439D01*
X144987359Y-86971447D01*
X145088768Y-87071109D01*
X145188818Y-87169398D01*
X145285444Y-87264288D01*
X145376585Y-87353752D01*
X145460179Y-87435764D01*
X145515670Y-87490173D01*
X145613833Y-87586412D01*
X145701401Y-87672317D01*
X145778958Y-87748474D01*
X145847087Y-87815468D01*
X145906373Y-87873884D01*
X145957397Y-87924308D01*
X146000743Y-87967324D01*
X146036996Y-88003519D01*
X146066737Y-88033478D01*
X146090551Y-88057785D01*
X146109020Y-88077027D01*
X146122729Y-88091789D01*
X146132260Y-88102655D01*
X146138198Y-88110212D01*
X146141124Y-88115045D01*
X146141623Y-88117739D01*
X146141461Y-88118109D01*
X146133915Y-88124896D01*
X146116014Y-88138945D01*
X146090131Y-88158454D01*
X146058636Y-88181617D01*
X146044712Y-88191708D01*
X146005792Y-88220163D01*
X145965926Y-88249940D01*
X145929493Y-88277730D01*
X145900873Y-88300223D01*
X145897997Y-88302552D01*
X145871733Y-88323626D01*
X145837023Y-88351072D01*
X145797834Y-88381770D01*
X145758135Y-88412603D01*
X145746153Y-88421850D01*
X145584045Y-88551283D01*
X145432470Y-88681596D01*
X145292369Y-88811877D01*
X145164684Y-88941215D01*
X145050359Y-89068698D01*
X144954827Y-89187463D01*
X144836057Y-89356748D01*
X144731026Y-89532856D01*
X144639621Y-89716071D01*
X144561730Y-89906677D01*
X144497242Y-90104957D01*
X144446046Y-90311197D01*
X144408029Y-90525679D01*
X144397682Y-90603855D01*
X144391408Y-90670124D01*
X144386919Y-90747901D01*
X144384217Y-90833306D01*
X144383305Y-90922456D01*
X144384185Y-91011469D01*
X144386858Y-91096462D01*
X144391328Y-91173555D01*
X144397332Y-91236706D01*
X144429736Y-91444875D01*
X144475666Y-91645240D01*
X144535171Y-91837906D01*
X144608300Y-92022980D01*
X144695103Y-92200566D01*
X144795629Y-92370771D01*
X144909928Y-92533699D01*
X145038049Y-92689456D01*
X145116576Y-92774338D01*
X145169217Y-92826813D01*
X145233571Y-92887153D01*
X145309789Y-92955487D01*
X145398025Y-93031945D01*
X145498430Y-93116654D01*
X145611157Y-93209746D01*
X145736359Y-93311348D01*
X145874189Y-93421591D01*
X145968783Y-93496493D01*
X146013542Y-93532154D01*
X146054120Y-93565145D01*
X146088922Y-93594118D01*
X146116355Y-93617723D01*
X146134824Y-93634610D01*
X146142737Y-93643432D01*
X146142903Y-93643889D01*
X146137775Y-93650657D01*
X146122186Y-93668251D01*
X146096527Y-93696260D01*
X146061193Y-93734270D01*
X146016576Y-93781868D01*
X145963069Y-93838641D01*
X145901065Y-93904176D01*
X145830956Y-93978059D01*
X145753136Y-94059878D01*
X145667998Y-94149219D01*
X145575934Y-94245669D01*
X145477337Y-94348816D01*
X145372600Y-94458245D01*
X145262117Y-94573545D01*
X145146279Y-94694301D01*
X145025481Y-94820101D01*
X144909763Y-94940496D01*
X144794353Y-95060516D01*
X144681537Y-95177831D01*
X144571813Y-95291922D01*
X144465682Y-95402269D01*
X144363643Y-95508355D01*
X144266196Y-95609660D01*
X144173839Y-95705665D01*
X144087072Y-95795850D01*
X144006395Y-95879698D01*
X143932307Y-95956688D01*
X143865307Y-96026302D01*
X143805895Y-96088021D01*
X143754571Y-96141325D01*
X143711833Y-96185696D01*
X143678181Y-96220615D01*
X143654115Y-96245562D01*
X143640134Y-96260019D01*
X143637112Y-96263121D01*
X143599875Y-96300947D01*
X143397545Y-96137738D01*
X143301632Y-96060693D01*
X143215703Y-95992419D01*
X143137879Y-95931511D01*
X143066286Y-95876565D01*
X142999047Y-95826176D01*
X142934286Y-95778939D01*
X142870127Y-95733450D01*
X142804692Y-95688304D01*
X142736107Y-95642097D01*
X142730342Y-95638255D01*
X142524050Y-95506558D01*
X142314171Y-95383597D01*
X142102559Y-95270286D01*
X141891069Y-95167539D01*
X141681556Y-95076270D01*
X141475875Y-94997394D01*
X141331819Y-94948985D01*
X141076799Y-94876747D01*
X140815639Y-94818867D01*
X140548368Y-94775348D01*
X140275018Y-94746193D01*
X139995617Y-94731406D01*
X139710197Y-94730988D01*
X139418788Y-94744943D01*
X139277005Y-94756728D01*
X139035717Y-94786453D01*
X138793357Y-94829932D01*
X138552376Y-94886506D01*
X138315224Y-94955515D01*
X138084350Y-95036300D01*
X137862205Y-95128200D01*
X137812071Y-95151088D01*
X137774386Y-95168595D01*
X137735003Y-95186864D01*
X137700660Y-95202769D01*
X137690970Y-95207249D01*
X137582968Y-95260187D01*
X137466213Y-95322974D01*
X137342805Y-95394216D01*
X137214846Y-95472520D01*
X137084435Y-95556493D01*
X136953675Y-95644742D01*
X136824666Y-95735875D01*
X136699508Y-95828498D01*
X136580304Y-95921219D01*
X136469152Y-96012645D01*
X136444799Y-96033471D01*
X136412238Y-96061542D01*
X136371696Y-96096503D01*
X136327025Y-96135032D01*
X136282072Y-96173811D01*
X136251527Y-96200165D01*
X136215095Y-96230984D01*
X136181898Y-96257911D01*
X136154004Y-96279361D01*
X136133481Y-96293746D01*
X136122400Y-96299480D01*
X136121958Y-96299518D01*
X136109222Y-96292965D01*
X136091759Y-96274892D01*
X136077273Y-96255584D01*
X136054311Y-96226922D01*
X136019110Y-96189677D01*
X135972169Y-96144315D01*
X135913987Y-96091302D01*
X135845065Y-96031104D01*
X135765900Y-95964188D01*
X135761132Y-95960216D01*
X135529044Y-95775900D01*
X135293897Y-95606816D01*
X135055403Y-95452820D01*
X134813271Y-95313764D01*
X134567211Y-95189503D01*
X134316935Y-95079891D01*
X134062152Y-94984783D01*
X133802572Y-94904031D01*
X133537906Y-94837491D01*
X133527698Y-94835230D01*
X133286902Y-94788965D01*
X133038140Y-94754227D01*
X132784149Y-94731155D01*
X132527666Y-94719889D01*
X132271426Y-94720570D01*
X132018165Y-94733338D01*
X131846860Y-94749237D01*
X131576343Y-94787074D01*
X131308729Y-94840223D01*
X131044234Y-94908602D01*
X130783074Y-94992128D01*
X130525467Y-95090720D01*
X130271630Y-95204296D01*
X130021779Y-95332773D01*
X129776131Y-95476069D01*
X129569377Y-95610430D01*
X129507555Y-95652985D01*
X129448892Y-95694361D01*
X129391000Y-95736345D01*
X129331489Y-95780728D01*
X129267970Y-95829298D01*
X129198055Y-95883843D01*
X129119354Y-95946154D01*
X129092785Y-95967339D01*
X129015144Y-96029209D01*
X128943613Y-96085970D01*
X128879123Y-96136892D01*
X128822608Y-96181243D01*
X128775000Y-96218293D01*
X128737232Y-96247311D01*
X128710237Y-96267567D01*
X128701567Y-96273830D01*
X128677560Y-96290796D01*
X128099968Y-95684450D01*
X127948042Y-95524954D01*
X127806300Y-95376131D01*
X127674142Y-95237351D01*
X127550966Y-95107978D01*
X127436171Y-94987380D01*
X127329157Y-94874925D01*
X127229324Y-94769978D01*
X127136070Y-94671906D01*
X127048794Y-94580078D01*
X126966896Y-94493858D01*
X126889774Y-94412615D01*
X126816829Y-94335716D01*
X126747460Y-94262526D01*
X126681065Y-94192414D01*
X126617043Y-94124745D01*
X126554795Y-94058887D01*
X126493719Y-93994206D01*
X126433214Y-93930070D01*
X126372680Y-93865846D01*
X126311516Y-93800900D01*
X126249121Y-93734598D01*
X126188802Y-93670463D01*
X126496257Y-93670463D01*
X126684604Y-93869688D01*
X126873790Y-94069682D01*
X127054416Y-94260380D01*
X127228545Y-94443948D01*
X127398236Y-94622554D01*
X127565549Y-94798364D01*
X127732544Y-94973546D01*
X127901283Y-95150265D01*
X128073826Y-95330688D01*
X128077097Y-95334106D01*
X128152249Y-95412641D01*
X128225321Y-95489022D01*
X128295459Y-95562354D01*
X128361808Y-95631742D01*
X128423513Y-95696292D01*
X128479719Y-95755109D01*
X128529572Y-95807299D01*
X128572217Y-95851967D01*
X128606798Y-95888219D01*
X128632462Y-95915160D01*
X128648352Y-95931896D01*
X128650359Y-95934021D01*
X128676455Y-95961165D01*
X128694448Y-95978152D01*
X128706529Y-95986582D01*
X128714889Y-95988054D01*
X128720487Y-95985204D01*
X128730837Y-95976628D01*
X128750454Y-95960057D01*
X128776753Y-95937687D01*
X128807151Y-95911709D01*
X128815235Y-95904782D01*
X129056534Y-95707017D01*
X129301415Y-95524443D01*
X129549971Y-95357017D01*
X129802298Y-95204697D01*
X130058488Y-95067442D01*
X130318636Y-94945210D01*
X130582836Y-94837960D01*
X130851181Y-94745649D01*
X131123766Y-94668236D01*
X131400685Y-94605678D01*
X131682031Y-94557936D01*
X131909364Y-94530479D01*
X132198916Y-94508925D01*
X132484611Y-94502343D01*
X132766607Y-94510776D01*
X133045060Y-94534266D01*
X133320126Y-94572856D01*
X133591963Y-94626589D01*
X133860728Y-94695509D01*
X134126576Y-94779658D01*
X134389665Y-94879079D01*
X134650151Y-94993814D01*
X134908192Y-95123908D01*
X135163943Y-95269403D01*
X135417562Y-95430342D01*
X135565839Y-95532259D01*
X135655692Y-95597158D01*
X135750864Y-95668371D01*
X135847508Y-95742896D01*
X135941775Y-95817729D01*
X136029817Y-95889866D01*
X136095910Y-95945977D01*
X136153296Y-95995670D01*
X136175281Y-95977662D01*
X136187885Y-95967199D01*
X136210236Y-95948506D01*
X136240137Y-95923425D01*
X136275391Y-95893799D01*
X136313800Y-95861472D01*
X136321033Y-95855379D01*
X136454693Y-95746380D01*
X136597664Y-95636421D01*
X136746236Y-95528135D01*
X136896695Y-95424149D01*
X137045329Y-95327096D01*
X137188426Y-95239603D01*
X137198752Y-95233546D01*
X137321057Y-95164854D01*
X137453567Y-95095532D01*
X137592583Y-95027284D01*
X137734405Y-94961815D01*
X137875334Y-94900829D01*
X138011671Y-94846029D01*
X138139716Y-94799120D01*
X138148029Y-94796259D01*
X138420360Y-94711105D01*
X138695333Y-94641333D01*
X138973033Y-94586929D01*
X139253547Y-94547881D01*
X139536959Y-94524176D01*
X139823355Y-94515802D01*
X140027263Y-94519111D01*
X140304362Y-94535796D01*
X140576998Y-94566518D01*
X140845699Y-94611446D01*
X141110990Y-94670749D01*
X141373399Y-94744596D01*
X141633451Y-94833156D01*
X141891675Y-94936599D01*
X142148596Y-95055094D01*
X142404742Y-95188811D01*
X142660638Y-95337917D01*
X142750725Y-95394079D01*
X142926380Y-95509308D01*
X143099933Y-95631144D01*
X143274798Y-95762053D01*
X143427279Y-95882512D01*
X143565587Y-95994258D01*
X143654537Y-95902733D01*
X143672819Y-95883816D01*
X143700979Y-95854537D01*
X143738110Y-95815842D01*
X143783309Y-95768676D01*
X143835668Y-95713988D01*
X143894284Y-95652722D01*
X143958249Y-95585825D01*
X144026660Y-95514244D01*
X144098610Y-95438926D01*
X144173195Y-95360816D01*
X144249508Y-95280861D01*
X144269040Y-95260391D01*
X144361948Y-95163030D01*
X144444923Y-95076109D01*
X144518813Y-94998756D01*
X144584461Y-94930096D01*
X144642713Y-94869256D01*
X144694415Y-94815362D01*
X144740411Y-94767541D01*
X144781547Y-94724918D01*
X144818668Y-94686621D01*
X144852620Y-94651774D01*
X144884248Y-94619505D01*
X144914397Y-94588940D01*
X144943912Y-94559205D01*
X144973639Y-94529426D01*
X145004422Y-94498729D01*
X145037108Y-94466242D01*
X145043027Y-94460367D01*
X145075297Y-94428041D01*
X145103334Y-94399385D01*
X145125389Y-94376235D01*
X145139709Y-94360428D01*
X145144553Y-94353875D01*
X145149831Y-94346969D01*
X145164665Y-94330594D01*
X145187557Y-94306325D01*
X145217008Y-94275739D01*
X145251520Y-94240409D01*
X145279327Y-94212245D01*
X145318739Y-94172347D01*
X145366403Y-94123844D01*
X145419730Y-94069383D01*
X145476132Y-94011615D01*
X145533020Y-93953187D01*
X145587807Y-93896750D01*
X145611591Y-93872187D01*
X145809080Y-93668030D01*
X145779743Y-93643848D01*
X145761431Y-93629721D01*
X145747882Y-93621010D01*
X145744222Y-93619665D01*
X145736139Y-93614840D01*
X145719030Y-93601774D01*
X145695568Y-93582579D01*
X145673732Y-93563979D01*
X145645898Y-93540319D01*
X145609334Y-93509882D01*
X145567575Y-93475577D01*
X145524157Y-93440311D01*
X145492231Y-93414662D01*
X145455302Y-93384863D01*
X145422488Y-93357827D01*
X145395805Y-93335260D01*
X145377270Y-93318868D01*
X145368898Y-93310359D01*
X145368788Y-93310182D01*
X145356899Y-93300470D01*
X145351209Y-93299333D01*
X145341057Y-93295434D01*
X145339878Y-93292334D01*
X145334259Y-93284939D01*
X145318861Y-93269571D01*
X145295874Y-93248302D01*
X145267489Y-93223203D01*
X145259795Y-93216563D01*
X145145163Y-93115368D01*
X145042376Y-93018507D01*
X144949186Y-92923552D01*
X144863349Y-92828080D01*
X144782619Y-92729664D01*
X144704751Y-92625881D01*
X144678116Y-92588352D01*
X144569025Y-92419649D01*
X144471314Y-92241908D01*
X144385703Y-92056970D01*
X144312916Y-91866679D01*
X144253673Y-91672879D01*
X144208695Y-91477411D01*
X144184188Y-91326556D01*
X144163009Y-91108366D01*
X144157083Y-90890459D01*
X144166204Y-90673644D01*
X144190166Y-90458728D01*
X144228764Y-90246519D01*
X144281792Y-90037825D01*
X144349044Y-89833452D01*
X144430313Y-89634210D01*
X144525395Y-89440905D01*
X144634083Y-89254346D01*
X144756171Y-89075340D01*
X144758917Y-89071613D01*
X144779245Y-89043561D01*
X144795551Y-89020089D01*
X144805901Y-89004041D01*
X144808595Y-88998514D01*
X144814128Y-88990134D01*
X144827503Y-88977853D01*
X144828128Y-88977359D01*
X144841779Y-88964307D01*
X144847655Y-88954102D01*
X144847660Y-88953920D01*
X144853256Y-88943875D01*
X144866761Y-88930822D01*
X144867193Y-88930481D01*
X144880876Y-88917068D01*
X144886722Y-88906079D01*
X144886725Y-88905918D01*
X144892377Y-88895825D01*
X144906612Y-88881201D01*
X144914071Y-88874900D01*
X144930628Y-88860114D01*
X144940346Y-88848391D01*
X144941416Y-88845418D01*
X144946743Y-88837961D01*
X144961565Y-88821381D01*
X144984143Y-88797415D01*
X145012737Y-88767802D01*
X145045608Y-88734279D01*
X145081018Y-88698585D01*
X145117226Y-88662456D01*
X145152494Y-88627632D01*
X145185083Y-88595850D01*
X145213253Y-88568847D01*
X145235265Y-88548362D01*
X145249380Y-88536133D01*
X145253651Y-88533415D01*
X145262370Y-88527792D01*
X145276589Y-88513414D01*
X145286126Y-88502163D01*
X145302266Y-88484272D01*
X145315855Y-88472963D01*
X145320959Y-88470911D01*
X145331866Y-88465379D01*
X145346713Y-88451666D01*
X145350398Y-88447472D01*
X145364856Y-88432446D01*
X145376095Y-88424439D01*
X145377871Y-88424033D01*
X145387679Y-88418446D01*
X145400623Y-88404960D01*
X145400986Y-88404501D01*
X145413236Y-88390921D01*
X145421703Y-88384979D01*
X145421895Y-88384968D01*
X145429825Y-88380352D01*
X145447251Y-88367796D01*
X145471566Y-88349244D01*
X145498900Y-88327648D01*
X145533149Y-88300475D01*
X145568620Y-88272831D01*
X145600349Y-88248562D01*
X145617395Y-88235845D01*
X145643479Y-88216291D01*
X145676842Y-88190667D01*
X145712618Y-88162732D01*
X145737371Y-88143116D01*
X145810312Y-88084869D01*
X145713795Y-87990763D01*
X145693732Y-87971150D01*
X145663524Y-87941548D01*
X145624163Y-87902930D01*
X145576637Y-87856270D01*
X145521938Y-87802540D01*
X145461057Y-87742715D01*
X145394984Y-87677767D01*
X145324709Y-87608670D01*
X145251223Y-87536397D01*
X145175516Y-87461921D01*
X145109158Y-87396626D01*
X145030621Y-87319379D01*
X144947936Y-87238123D01*
X144861872Y-87153610D01*
X144773196Y-87066592D01*
X144682677Y-86977818D01*
X144591083Y-86888041D01*
X144499182Y-86798011D01*
X144407742Y-86708480D01*
X144317532Y-86620198D01*
X144229321Y-86533916D01*
X144143875Y-86450386D01*
X144061964Y-86370358D01*
X143984356Y-86294584D01*
X143911819Y-86223815D01*
X143845120Y-86158801D01*
X143785030Y-86100294D01*
X143732315Y-86049044D01*
X143687744Y-86005804D01*
X143652085Y-85971323D01*
X143626107Y-85946353D01*
X143611495Y-85932499D01*
X143587135Y-85910841D01*
X143570040Y-85898867D01*
X143556958Y-85894703D01*
X143547535Y-85895651D01*
X143535048Y-85902312D01*
X143513475Y-85917441D01*
X143485386Y-85939095D01*
X143453347Y-85965333D01*
X143437102Y-85979173D01*
X143215848Y-86159979D01*
X142983877Y-86329924D01*
X142742161Y-86488517D01*
X142491671Y-86635267D01*
X142233378Y-86769684D01*
X141968254Y-86891276D01*
X141697270Y-86999555D01*
X141421397Y-87094028D01*
X141141608Y-87174206D01*
X141003674Y-87208057D01*
X140797043Y-87251231D01*
X140590069Y-87284733D01*
X140379712Y-87308896D01*
X140162930Y-87324051D01*
X139936682Y-87330530D01*
X139878604Y-87330833D01*
X139653180Y-87327105D01*
X139436655Y-87315226D01*
X139224992Y-87294715D01*
X139014151Y-87265088D01*
X138800094Y-87225860D01*
X138578784Y-87176549D01*
X138567694Y-87173868D01*
X138513123Y-87160159D01*
X138453700Y-87144410D01*
X138391290Y-87127193D01*
X138327759Y-87109077D01*
X138264975Y-87090634D01*
X138204803Y-87072433D01*
X138149110Y-87055044D01*
X138099761Y-87039039D01*
X138058622Y-87024988D01*
X138027560Y-87013460D01*
X138008441Y-87005027D01*
X138003197Y-87001325D01*
X137993743Y-86996138D01*
X137974022Y-86989871D01*
X137958273Y-86986071D01*
X137935589Y-86979984D01*
X137920803Y-86973670D01*
X137917546Y-86970172D01*
X137910856Y-86964784D01*
X137898014Y-86963006D01*
X137883326Y-86960671D01*
X137878481Y-86956192D01*
X137871580Y-86950829D01*
X137854331Y-86945694D01*
X137847229Y-86944380D01*
X137827691Y-86939549D01*
X137816793Y-86933543D01*
X137815978Y-86931662D01*
X137809308Y-86925797D01*
X137797003Y-86923941D01*
X137777184Y-86919263D01*
X137766309Y-86912222D01*
X137750859Y-86902485D01*
X137741754Y-86900502D01*
X137725873Y-86895285D01*
X137717199Y-86888783D01*
X137700273Y-86879430D01*
X137686505Y-86877063D01*
X137672085Y-86874755D01*
X137667531Y-86870504D01*
X137660989Y-86862713D01*
X137645500Y-86854070D01*
X137627272Y-86847541D01*
X137615821Y-86845811D01*
X137600776Y-86840634D01*
X137592191Y-86834092D01*
X137575151Y-86824631D01*
X137562056Y-86822372D01*
X137543080Y-86818233D01*
X137533315Y-86812170D01*
X137523740Y-86805918D01*
X137502229Y-86793691D01*
X137470789Y-86776572D01*
X137431428Y-86755640D01*
X137386152Y-86731977D01*
X137347199Y-86711899D01*
X137165541Y-86615339D01*
X136993109Y-86516224D01*
X136826554Y-86412374D01*
X136662524Y-86301609D01*
X136497670Y-86181750D01*
X136328642Y-86050616D01*
X136318409Y-86042433D01*
X136263938Y-85999442D01*
X136219691Y-85966120D01*
X136184283Y-85941680D01*
X136156329Y-85925332D01*
X136134441Y-85916289D01*
X136117236Y-85913760D01*
X136103328Y-85916959D01*
X136100492Y-85918398D01*
X136089858Y-85926107D01*
X136069885Y-85942133D01*
X136042982Y-85964485D01*
X136011559Y-85991176D01*
X135993920Y-86006379D01*
X135826265Y-86144322D01*
X135644888Y-86279842D01*
X135451642Y-86411788D01*
X135248379Y-86539007D01*
X135036953Y-86660349D01*
X134819216Y-86774661D01*
X134597020Y-86880791D01*
X134562977Y-86896133D01*
X134329763Y-86993588D01*
X134088428Y-87081382D01*
X133842043Y-87158616D01*
X133593678Y-87224395D01*
X133346403Y-87277821D01*
X133132096Y-87313914D01*
X133060714Y-87324046D01*
X132997011Y-87332477D01*
X132938497Y-87339359D01*
X132882679Y-87344845D01*
X132827067Y-87349088D01*
X132769170Y-87352240D01*
X132706497Y-87354455D01*
X132636555Y-87355885D01*
X132556855Y-87356682D01*
X132464905Y-87357000D01*
X132428927Y-87357026D01*
X132336423Y-87356910D01*
X132257591Y-87356479D01*
X132190478Y-87355678D01*
X132133132Y-87354451D01*
X132083601Y-87352743D01*
X132039933Y-87350497D01*
X132000175Y-87347659D01*
X131962375Y-87344171D01*
X131956242Y-87343535D01*
X131706433Y-87312201D01*
X131462919Y-87271579D01*
X131228771Y-87222203D01*
X131158432Y-87205169D01*
X131095338Y-87189071D01*
X131034896Y-87173036D01*
X130979024Y-87157626D01*
X130929640Y-87143400D01*
X130888663Y-87130918D01*
X130858010Y-87120740D01*
X130839602Y-87113425D01*
X130835470Y-87110906D01*
X130822109Y-87104911D01*
X130811470Y-87103640D01*
X130794597Y-87101223D01*
X130771128Y-87095132D01*
X130746378Y-87087108D01*
X130725659Y-87078892D01*
X130714287Y-87072222D01*
X130713842Y-87071667D01*
X130704886Y-87066976D01*
X130684626Y-87059817D01*
X130656916Y-87051510D01*
X130647568Y-87048949D01*
X130618351Y-87040541D01*
X130595409Y-87032855D01*
X130582596Y-87027219D01*
X130581294Y-87026111D01*
X130571619Y-87020817D01*
X130552818Y-87015532D01*
X130547952Y-87014563D01*
X130529165Y-87009362D01*
X130519158Y-87003188D01*
X130518654Y-87001717D01*
X130511965Y-86996109D01*
X130499121Y-86994258D01*
X130484438Y-86991583D01*
X130479589Y-86986445D01*
X130472903Y-86980572D01*
X130460056Y-86978632D01*
X130445373Y-86975957D01*
X130440524Y-86970819D01*
X130433838Y-86964946D01*
X130420991Y-86963006D01*
X130406308Y-86960331D01*
X130401459Y-86955193D01*
X130394773Y-86949320D01*
X130381926Y-86947380D01*
X130367238Y-86945060D01*
X130362394Y-86940609D01*
X130355731Y-86934078D01*
X130338894Y-86924859D01*
X130316612Y-86914966D01*
X130293611Y-86906413D01*
X130274620Y-86901215D01*
X130268247Y-86900502D01*
X130255080Y-86897405D01*
X130251710Y-86894085D01*
X130244231Y-86888977D01*
X130224669Y-86878141D01*
X130195030Y-86862617D01*
X130157315Y-86843445D01*
X130113530Y-86821661D01*
X130086361Y-86808347D01*
X129861263Y-86693118D01*
X129644725Y-86570748D01*
X129434067Y-86439517D01*
X129226606Y-86297703D01*
X129019662Y-86143582D01*
X128885741Y-86037278D01*
X128838842Y-85999503D01*
X128801984Y-85970908D01*
X128773311Y-85950540D01*
X128750966Y-85937448D01*
X128733095Y-85930680D01*
X128717839Y-85929284D01*
X128703345Y-85932309D01*
X128690868Y-85937354D01*
X128681932Y-85944036D01*
X128663594Y-85960251D01*
X128635737Y-85986115D01*
X128598244Y-86021742D01*
X128550997Y-86067249D01*
X128493879Y-86122750D01*
X128426772Y-86188361D01*
X128349558Y-86264197D01*
X128262121Y-86350374D01*
X128164342Y-86447006D01*
X128056105Y-86554209D01*
X127937291Y-86672099D01*
X127807783Y-86800790D01*
X127667464Y-86940398D01*
X127579695Y-87027796D01*
X126498875Y-88104367D01*
X126534034Y-88126341D01*
X126555029Y-88141180D01*
X126582991Y-88163274D01*
X126613567Y-88189107D01*
X126631696Y-88205248D01*
X126654398Y-88225676D01*
X126686639Y-88254336D01*
X126726147Y-88289228D01*
X126770652Y-88328351D01*
X126817884Y-88369705D01*
X126865571Y-88411289D01*
X126865779Y-88411471D01*
X126953231Y-88487965D01*
X127030010Y-88556119D01*
X127097595Y-88617418D01*
X127157462Y-88673349D01*
X127211086Y-88725400D01*
X127259946Y-88775058D01*
X127305516Y-88823810D01*
X127349275Y-88873143D01*
X127392697Y-88924543D01*
X127437261Y-88979498D01*
X127466334Y-89016292D01*
X127505555Y-89068085D01*
X127549539Y-89129123D01*
X127595907Y-89195865D01*
X127642281Y-89264774D01*
X127686280Y-89332308D01*
X127725525Y-89394929D01*
X127757638Y-89449097D01*
X127759694Y-89452722D01*
X127855884Y-89638248D01*
X127938381Y-89829678D01*
X128006787Y-90025750D01*
X128060702Y-90225198D01*
X128099730Y-90426759D01*
X128120836Y-90598111D01*
X128123867Y-90644793D01*
X128125796Y-90703393D01*
X128126683Y-90770827D01*
X128126584Y-90844015D01*
X128125559Y-90919873D01*
X128123665Y-90995318D01*
X128120961Y-91067270D01*
X128117505Y-91132645D01*
X128113356Y-91188361D01*
X128108914Y-91228893D01*
X128078105Y-91416607D01*
X128037871Y-91602572D01*
X127988967Y-91784265D01*
X127932147Y-91959161D01*
X127868166Y-92124735D01*
X127797779Y-92278464D01*
X127791244Y-92291459D01*
X127712039Y-92436218D01*
X127622643Y-92577672D01*
X127522344Y-92716631D01*
X127410429Y-92853907D01*
X127286187Y-92990310D01*
X127148906Y-93126650D01*
X126997873Y-93263738D01*
X126832378Y-93402384D01*
X126776113Y-93447320D01*
X126739767Y-93476307D01*
X126707573Y-93502504D01*
X126681603Y-93524186D01*
X126663925Y-93539627D01*
X126656700Y-93546936D01*
X126646098Y-93556172D01*
X126641784Y-93557162D01*
X126630843Y-93561832D01*
X126611447Y-93574171D01*
X126586995Y-93591669D01*
X126560888Y-93611814D01*
X126536526Y-93632097D01*
X126521005Y-93646319D01*
X126496257Y-93670463D01*
X126188802Y-93670463D01*
X126184895Y-93666309D01*
X126184374Y-93665755D01*
X126143229Y-93621995D01*
X126285893Y-93521572D01*
X126393432Y-93445213D01*
X126489636Y-93375402D01*
X126576516Y-93310559D01*
X126656082Y-93249108D01*
X126730346Y-93189468D01*
X126801319Y-93130061D01*
X126871013Y-93069309D01*
X126931298Y-93014928D01*
X127093693Y-92857026D01*
X127241391Y-92693877D01*
X127374456Y-92525363D01*
X127492951Y-92351369D01*
X127596938Y-92171778D01*
X127686480Y-91986475D01*
X127761640Y-91795343D01*
X127822482Y-91598267D01*
X127869067Y-91395129D01*
X127895137Y-91235434D01*
X127902373Y-91168698D01*
X127907800Y-91090787D01*
X127911397Y-91005316D01*
X127913148Y-90915904D01*
X127913032Y-90826167D01*
X127911031Y-90739722D01*
X127907126Y-90660187D01*
X127901299Y-90591179D01*
X127898607Y-90568697D01*
X127862650Y-90354393D01*
X127812207Y-90145930D01*
X127747337Y-89943441D01*
X127668103Y-89747065D01*
X127574564Y-89556936D01*
X127466782Y-89373191D01*
X127344817Y-89195964D01*
X127208731Y-89025394D01*
X127205831Y-89022011D01*
X127127457Y-88933540D01*
X127045481Y-88846773D01*
X126958526Y-88760476D01*
X126865213Y-88673412D01*
X126764168Y-88584349D01*
X126654011Y-88492050D01*
X126533366Y-88395282D01*
X126400856Y-88292808D01*
X126347642Y-88252520D01*
X126188597Y-88132739D01*
X126468744Y-87853951D01*
X126504936Y-87817924D01*
X126551408Y-87771648D01*
X126607374Y-87715906D01*
X126672049Y-87651480D01*
X126744647Y-87579154D01*
X126824381Y-87499711D01*
X126910466Y-87413933D01*
X127002117Y-87322605D01*
X127098547Y-87226508D01*
X127198971Y-87126426D01*
X127302603Y-87023142D01*
X127408656Y-86917439D01*
X127516346Y-86810100D01*
X127624886Y-86701909D01*
X127733491Y-86593647D01*
X127734869Y-86592273D01*
X128720848Y-85609383D01*
X128751678Y-85635764D01*
X128807943Y-85683762D01*
X128864274Y-85731543D01*
X128918722Y-85777475D01*
X128969340Y-85819923D01*
X129014178Y-85857255D01*
X129051287Y-85887836D01*
X129078720Y-85910033D01*
X129081065Y-85911894D01*
X129122888Y-85944952D01*
X129156105Y-85971023D01*
X129184305Y-85992820D01*
X129211076Y-86013058D01*
X129240005Y-86034453D01*
X129274680Y-86059718D01*
X129315455Y-86089230D01*
X129558840Y-86257005D01*
X129803713Y-86409412D01*
X130050679Y-86546682D01*
X130300342Y-86669047D01*
X130553308Y-86776739D01*
X130810181Y-86869990D01*
X131071565Y-86949032D01*
X131338066Y-87014097D01*
X131610287Y-87065417D01*
X131888834Y-87103224D01*
X131983588Y-87112900D01*
X132025429Y-87115883D01*
X132080463Y-87118363D01*
X132146264Y-87120342D01*
X132220405Y-87121818D01*
X132300461Y-87122791D01*
X132384006Y-87123263D01*
X132468615Y-87123232D01*
X132551862Y-87122699D01*
X132631321Y-87121663D01*
X132704566Y-87120125D01*
X132769172Y-87118085D01*
X132822712Y-87115543D01*
X132858641Y-87112900D01*
X133142224Y-87079194D01*
X133418501Y-87031895D01*
X133688341Y-86970727D01*
X133952611Y-86895415D01*
X134212179Y-86805684D01*
X134467914Y-86701259D01*
X134720682Y-86581864D01*
X134971352Y-86447224D01*
X134988863Y-86437210D01*
X135165304Y-86331228D01*
X135345466Y-86214124D01*
X135525896Y-86088427D01*
X135703137Y-85956666D01*
X135873736Y-85821370D01*
X136034238Y-85685069D01*
X136113217Y-85614033D01*
X136133220Y-85595654D01*
X136339794Y-85768979D01*
X136420044Y-85835915D01*
X136491088Y-85894212D01*
X136555323Y-85945700D01*
X136615143Y-85992210D01*
X136672944Y-86035571D01*
X136731122Y-86077612D01*
X136792071Y-86120165D01*
X136858187Y-86165059D01*
X136858887Y-86165529D01*
X137086105Y-86311352D01*
X137312983Y-86443215D01*
X137542132Y-86562506D01*
X137776161Y-86670610D01*
X137931262Y-86735187D01*
X138184525Y-86829310D01*
X138438847Y-86909622D01*
X138696042Y-86976540D01*
X138957924Y-87030479D01*
X139226309Y-87071854D01*
X139503012Y-87101082D01*
X139542646Y-87104238D01*
X139597842Y-87107525D01*
X139665392Y-87110048D01*
X139742043Y-87111808D01*
X139824544Y-87112804D01*
X139909641Y-87113036D01*
X139994081Y-87112504D01*
X140074612Y-87111208D01*
X140147980Y-87109147D01*
X140210934Y-87106321D01*
X140241908Y-87104292D01*
X140518007Y-87075818D01*
X140790225Y-87032729D01*
X141058872Y-86974915D01*
X141324256Y-86902267D01*
X141586684Y-86814673D01*
X141846467Y-86712023D01*
X142103911Y-86594208D01*
X142359325Y-86461117D01*
X142613019Y-86312640D01*
X142808472Y-86187031D01*
X142862611Y-86149961D01*
X142919108Y-86109367D01*
X142979647Y-86063952D01*
X143045913Y-86012418D01*
X143119592Y-85953468D01*
X143202368Y-85885802D01*
X143241238Y-85853653D01*
X143286556Y-85816128D01*
X143328957Y-85781150D01*
X143366661Y-85750177D01*
X143397889Y-85724667D01*
X143420860Y-85706076D01*
X143433797Y-85695863D01*
X143434533Y-85695312D01*
X143448680Y-85682265D01*
X143469078Y-85660207D01*
X143492599Y-85632625D01*
X143508812Y-85612456D01*
X143560827Y-85546061D01*
X143580048Y-85568944D01*
G37*
D14*
X136144000Y-107085908D02*
X136444520Y-107386428D01*
X135843480Y-107386428D02*
X136144000Y-107085908D01*
X132452903Y-110777005D02*
X132753423Y-110476485D01*
X132753423Y-111077525D02*
X132452903Y-110777005D01*
X139534577Y-110476485D02*
X139835097Y-110777005D01*
X139835097Y-110777005D02*
X139534577Y-111077525D01*
X136444520Y-114167582D02*
X136144000Y-114468102D01*
X136144000Y-114468102D02*
X135843480Y-114167582D01*
X134902320Y-106989741D02*
X134499270Y-106926101D01*
X134838681Y-106586690D01*
X134902320Y-106989741D01*
G36*
X134902320Y-106989741D02*
G01*
X134499270Y-106926101D01*
X134838681Y-106586690D01*
X134902320Y-106989741D01*
G37*
X146194000Y-81534000D02*
X146194000Y-137524000D01*
X146194000Y-81534000D02*
X148954000Y-81534000D01*
X146194000Y-137524000D02*
X148954000Y-137524000D01*
X148954000Y-81534000D02*
X148954000Y-137524000D01*
X123334000Y-81534000D02*
X123334000Y-137524000D01*
X123334000Y-81534000D02*
X126094000Y-81534000D01*
X123334000Y-137524000D02*
X126094000Y-137524000D01*
X126094000Y-81534000D02*
X126094000Y-137524000D01*
%LPC*%
D15*
X135551798Y-107639219D03*
X135268955Y-107922061D03*
X134986113Y-108204904D03*
X134703270Y-108487747D03*
X134420427Y-108770590D03*
X134137585Y-109053432D03*
X133854742Y-109336275D03*
X133571899Y-109619118D03*
X133289056Y-109901960D03*
X133006214Y-110184803D03*
D16*
X133006214Y-111369207D03*
X133289056Y-111652050D03*
X133571899Y-111934892D03*
X133854742Y-112217735D03*
X134137585Y-112500578D03*
X134420427Y-112783420D03*
X134703270Y-113066263D03*
X134986113Y-113349106D03*
X135268955Y-113631949D03*
X135551798Y-113914791D03*
D15*
X136736202Y-113914791D03*
X137019045Y-113631949D03*
X137301887Y-113349106D03*
X137584730Y-113066263D03*
X137867573Y-112783420D03*
X138150415Y-112500578D03*
X138433258Y-112217735D03*
X138716101Y-111934892D03*
X138998944Y-111652050D03*
X139281786Y-111369207D03*
D16*
X139281786Y-110184803D03*
X138998944Y-109901960D03*
X138716101Y-109619118D03*
X138433258Y-109336275D03*
X138150415Y-109053432D03*
X137867573Y-108770590D03*
X137584730Y-108487747D03*
X137301887Y-108204904D03*
X137019045Y-107922061D03*
X136736202Y-107639219D03*
D17*
X136144000Y-110777005D03*
D18*
X147574000Y-82804000D03*
X147574000Y-85344000D03*
X147574000Y-87884000D03*
X147574000Y-90424000D03*
X147574000Y-92964000D03*
X147574000Y-95504000D03*
X147574000Y-98044000D03*
X147574000Y-100584000D03*
X147574000Y-103124000D03*
X147574000Y-105664000D03*
X147574000Y-108204000D03*
X147574000Y-110744000D03*
X147574000Y-113284000D03*
X147574000Y-115824000D03*
X147574000Y-118364000D03*
X147574000Y-120904000D03*
X147574000Y-123444000D03*
X147574000Y-125984000D03*
X147574000Y-128524000D03*
X147574000Y-131064000D03*
X147574000Y-133604000D03*
X147574000Y-136144000D03*
X124714000Y-82804000D03*
D19*
X124714000Y-85344000D03*
D18*
X124714000Y-87884000D03*
X124714000Y-90424000D03*
X124714000Y-92964000D03*
X124714000Y-95504000D03*
X124714000Y-98044000D03*
X124714000Y-100584000D03*
X124714000Y-103124000D03*
X124714000Y-105664000D03*
X124714000Y-108204000D03*
X124714000Y-110744000D03*
X124714000Y-113284000D03*
X124714000Y-115824000D03*
X124714000Y-118364000D03*
X124714000Y-120904000D03*
X124714000Y-123444000D03*
X124714000Y-125984000D03*
X124714000Y-128524000D03*
X124714000Y-131064000D03*
X124714000Y-133604000D03*
X124714000Y-136144000D03*
%LPD*%
M02*
