M48
; DRILL file {KiCad 9.0.6} date 2026-01-08T21:28:13-0600
; FORMAT={-:-/ absolute / metric / decimal}
; #@! TF.CreationDate,2026-01-08T21:28:13-06:00
; #@! TF.GenerationSoftware,Kicad,Pcbnew,9.0.6
; #@! TF.FileFunction,Plated,1,2,PTH
FMAT,2
METRIC
; #@! TA.AperFunction,Plated,PTH,ComponentDrill
T1C0.200
; #@! TA.AperFunction,Plated,PTH,ViaDrill
T2C0.300
; #@! TA.AperFunction,Plated,PTH,ComponentDrill
T3C1.000
%
G90
G05
T1
X133.952Y-110.777
X134.683Y-110.046
X134.683Y-111.508
X135.413Y-109.316
X135.413Y-110.777
X135.413Y-112.238
X136.144Y-108.585
X136.144Y-110.046
X136.144Y-111.508
X136.144Y-112.969
X136.875Y-109.316
X136.875Y-110.777
X136.875Y-112.238
X137.605Y-110.046
X137.605Y-111.508
X138.336Y-110.777
T2
X136.144Y-91.186
X136.144Y-106.586
X136.144Y-114.968
X136.144Y-129.032
T3
X124.714Y-82.804
X124.714Y-85.344
X124.714Y-87.884
X124.714Y-90.424
X124.714Y-92.964
X124.714Y-95.504
X124.714Y-98.044
X124.714Y-100.584
X124.714Y-103.124
X124.714Y-105.664
X124.714Y-108.204
X124.714Y-110.744
X124.714Y-113.284
X124.714Y-115.824
X124.714Y-118.364
X124.714Y-120.904
X124.714Y-123.444
X124.714Y-125.984
X124.714Y-128.524
X124.714Y-131.064
X124.714Y-133.604
X124.714Y-136.144
X147.574Y-82.804
X147.574Y-85.344
X147.574Y-87.884
X147.574Y-90.424
X147.574Y-92.964
X147.574Y-95.504
X147.574Y-98.044
X147.574Y-100.584
X147.574Y-103.124
X147.574Y-105.664
X147.574Y-108.204
X147.574Y-110.744
X147.574Y-113.284
X147.574Y-115.824
X147.574Y-118.364
X147.574Y-120.904
X147.574Y-123.444
X147.574Y-125.984
X147.574Y-128.524
X147.574Y-131.064
X147.574Y-133.604
X147.574Y-136.144
M30
