G04 #@! TF.GenerationSoftware,KiCad,Pcbnew,9.0.6*
G04 #@! TF.CreationDate,2026-01-08T21:28:12-06:00*
G04 #@! TF.ProjectId,QFN-40_5x5_P0.4,51464e2d-3430-45f3-9578-355f50302e34,rev?*
G04 #@! TF.SameCoordinates,Original*
G04 #@! TF.FileFunction,Soldermask,Top*
G04 #@! TF.FilePolarity,Negative*
%FSLAX46Y46*%
G04 Gerber Fmt 4.6, Leading zero omitted, Abs format (unit mm)*
G04 Created by KiCad (PCBNEW 9.0.6) date 2026-01-08 21:28:12*
%MOMM*%
%LPD*%
G01*
G04 APERTURE LIST*
G04 Aperture macros list*
%AMRoundRect*
0 Rectangle with rounded corners*
0 $1 Rounding radius*
0 $2 $3 $4 $5 $6 $7 $8 $9 X,Y pos of 4 corners*
0 Add a 4 corners polygon primitive as box body*
4,1,4,$2,$3,$4,$5,$6,$7,$8,$9,$2,$3,0*
0 Add four circle primitives for the rounded corners*
1,1,$1+$1,$2,$3*
1,1,$1+$1,$4,$5*
1,1,$1+$1,$6,$7*
1,1,$1+$1,$8,$9*
0 Add four rect primitives between the rounded corners*
20,1,$1+$1,$2,$3,$4,$5,0*
20,1,$1+$1,$4,$5,$6,$7,0*
20,1,$1+$1,$6,$7,$8,$9,0*
20,1,$1+$1,$8,$9,$2,$3,0*%
%AMRotRect*
0 Rectangle, with rotation*
0 The origin of the aperture is its center*
0 $1 length*
0 $2 width*
0 $3 Rotation angle, in degrees counterclockwise*
0 Add horizontal line*
21,1,$1,$2,0,0,$3*%
G04 Aperture macros list end*
%ADD10RoundRect,0.062500X-0.424264X0.335876X0.335876X-0.424264X0.424264X-0.335876X-0.335876X0.424264X0*%
%ADD11RoundRect,0.062500X-0.424264X-0.335876X-0.335876X-0.424264X0.424264X0.335876X0.335876X0.424264X0*%
%ADD12RotRect,3.600000X3.600000X315.000000*%
%ADD13C,1.700000*%
%ADD14R,1.700000X1.700000*%
G04 APERTURE END LIST*
D10*
X135551798Y-107639219D03*
X135268955Y-107922061D03*
X134986113Y-108204904D03*
X134703270Y-108487747D03*
X134420427Y-108770590D03*
X134137585Y-109053432D03*
X133854742Y-109336275D03*
X133571899Y-109619118D03*
X133289056Y-109901960D03*
X133006214Y-110184803D03*
D11*
X133006214Y-111369207D03*
X133289056Y-111652050D03*
X133571899Y-111934892D03*
X133854742Y-112217735D03*
X134137585Y-112500578D03*
X134420427Y-112783420D03*
X134703270Y-113066263D03*
X134986113Y-113349106D03*
X135268955Y-113631949D03*
X135551798Y-113914791D03*
D10*
X136736202Y-113914791D03*
X137019045Y-113631949D03*
X137301887Y-113349106D03*
X137584730Y-113066263D03*
X137867573Y-112783420D03*
X138150415Y-112500578D03*
X138433258Y-112217735D03*
X138716101Y-111934892D03*
X138998944Y-111652050D03*
X139281786Y-111369207D03*
D11*
X139281786Y-110184803D03*
X138998944Y-109901960D03*
X138716101Y-109619118D03*
X138433258Y-109336275D03*
X138150415Y-109053432D03*
X137867573Y-108770590D03*
X137584730Y-108487747D03*
X137301887Y-108204904D03*
X137019045Y-107922061D03*
X136736202Y-107639219D03*
D12*
X136144000Y-110777005D03*
D13*
X147574000Y-82804000D03*
X147574000Y-85344000D03*
X147574000Y-87884000D03*
X147574000Y-90424000D03*
X147574000Y-92964000D03*
X147574000Y-95504000D03*
X147574000Y-98044000D03*
X147574000Y-100584000D03*
X147574000Y-103124000D03*
X147574000Y-105664000D03*
X147574000Y-108204000D03*
X147574000Y-110744000D03*
X147574000Y-113284000D03*
X147574000Y-115824000D03*
X147574000Y-118364000D03*
X147574000Y-120904000D03*
X147574000Y-123444000D03*
X147574000Y-125984000D03*
X147574000Y-128524000D03*
X147574000Y-131064000D03*
X147574000Y-133604000D03*
X147574000Y-136144000D03*
X124714000Y-82804000D03*
D14*
X124714000Y-85344000D03*
D13*
X124714000Y-87884000D03*
X124714000Y-90424000D03*
X124714000Y-92964000D03*
X124714000Y-95504000D03*
X124714000Y-98044000D03*
X124714000Y-100584000D03*
X124714000Y-103124000D03*
X124714000Y-105664000D03*
X124714000Y-108204000D03*
X124714000Y-110744000D03*
X124714000Y-113284000D03*
X124714000Y-115824000D03*
X124714000Y-118364000D03*
X124714000Y-120904000D03*
X124714000Y-123444000D03*
X124714000Y-125984000D03*
X124714000Y-128524000D03*
X124714000Y-131064000D03*
X124714000Y-133604000D03*
X124714000Y-136144000D03*
M02*
