G04 #@! TF.GenerationSoftware,KiCad,Pcbnew,9.0.6*
G04 #@! TF.CreationDate,2026-01-05T16:11:47-06:00*
G04 #@! TF.ProjectId,SOT-666_1.2x1.6_P0.5,534f542d-3636-4365-9f31-2e3278312e36,rev?*
G04 #@! TF.SameCoordinates,Original*
G04 #@! TF.FileFunction,Legend,Bot*
G04 #@! TF.FilePolarity,Positive*
%FSLAX46Y46*%
G04 Gerber Fmt 4.6, Leading zero omitted, Abs format (unit mm)*
G04 Created by KiCad (PCBNEW 9.0.6) date 2026-01-05 16:11:47*
%MOMM*%
%LPD*%
G01*
G04 APERTURE LIST*
%ADD10C,0.150000*%
%ADD11C,0.120000*%
%ADD12R,2.510000X1.000000*%
%ADD13C,1.700000*%
%ADD14R,1.700000X1.700000*%
G04 APERTURE END LIST*
D10*
X133365714Y-93594820D02*
X133365714Y-94309105D01*
X133365714Y-94309105D02*
X133413333Y-94451962D01*
X133413333Y-94451962D02*
X133508571Y-94547201D01*
X133508571Y-94547201D02*
X133651428Y-94594820D01*
X133651428Y-94594820D02*
X133746666Y-94594820D01*
X132365714Y-94594820D02*
X132937142Y-94594820D01*
X132651428Y-94594820D02*
X132651428Y-93594820D01*
X132651428Y-93594820D02*
X132746666Y-93737677D01*
X132746666Y-93737677D02*
X132841904Y-93832915D01*
X132841904Y-93832915D02*
X132937142Y-93880534D01*
X131746666Y-93594820D02*
X131651428Y-93594820D01*
X131651428Y-93594820D02*
X131556190Y-93642439D01*
X131556190Y-93642439D02*
X131508571Y-93690058D01*
X131508571Y-93690058D02*
X131460952Y-93785296D01*
X131460952Y-93785296D02*
X131413333Y-93975772D01*
X131413333Y-93975772D02*
X131413333Y-94213867D01*
X131413333Y-94213867D02*
X131460952Y-94404343D01*
X131460952Y-94404343D02*
X131508571Y-94499581D01*
X131508571Y-94499581D02*
X131556190Y-94547201D01*
X131556190Y-94547201D02*
X131651428Y-94594820D01*
X131651428Y-94594820D02*
X131746666Y-94594820D01*
X131746666Y-94594820D02*
X131841904Y-94547201D01*
X131841904Y-94547201D02*
X131889523Y-94499581D01*
X131889523Y-94499581D02*
X131937142Y-94404343D01*
X131937142Y-94404343D02*
X131984761Y-94213867D01*
X131984761Y-94213867D02*
X131984761Y-93975772D01*
X131984761Y-93975772D02*
X131937142Y-93785296D01*
X131937142Y-93785296D02*
X131889523Y-93690058D01*
X131889523Y-93690058D02*
X131841904Y-93642439D01*
X131841904Y-93642439D02*
X131746666Y-93594820D01*
X130556190Y-93928153D02*
X130556190Y-94594820D01*
X130794285Y-93547201D02*
X131032380Y-94261486D01*
X131032380Y-94261486D02*
X130413333Y-94261486D01*
X128285714Y-93594820D02*
X128285714Y-94309105D01*
X128285714Y-94309105D02*
X128333333Y-94451962D01*
X128333333Y-94451962D02*
X128428571Y-94547201D01*
X128428571Y-94547201D02*
X128571428Y-94594820D01*
X128571428Y-94594820D02*
X128666666Y-94594820D01*
X127285714Y-94594820D02*
X127857142Y-94594820D01*
X127571428Y-94594820D02*
X127571428Y-93594820D01*
X127571428Y-93594820D02*
X127666666Y-93737677D01*
X127666666Y-93737677D02*
X127761904Y-93832915D01*
X127761904Y-93832915D02*
X127857142Y-93880534D01*
X126666666Y-93594820D02*
X126571428Y-93594820D01*
X126571428Y-93594820D02*
X126476190Y-93642439D01*
X126476190Y-93642439D02*
X126428571Y-93690058D01*
X126428571Y-93690058D02*
X126380952Y-93785296D01*
X126380952Y-93785296D02*
X126333333Y-93975772D01*
X126333333Y-93975772D02*
X126333333Y-94213867D01*
X126333333Y-94213867D02*
X126380952Y-94404343D01*
X126380952Y-94404343D02*
X126428571Y-94499581D01*
X126428571Y-94499581D02*
X126476190Y-94547201D01*
X126476190Y-94547201D02*
X126571428Y-94594820D01*
X126571428Y-94594820D02*
X126666666Y-94594820D01*
X126666666Y-94594820D02*
X126761904Y-94547201D01*
X126761904Y-94547201D02*
X126809523Y-94499581D01*
X126809523Y-94499581D02*
X126857142Y-94404343D01*
X126857142Y-94404343D02*
X126904761Y-94213867D01*
X126904761Y-94213867D02*
X126904761Y-93975772D01*
X126904761Y-93975772D02*
X126857142Y-93785296D01*
X126857142Y-93785296D02*
X126809523Y-93690058D01*
X126809523Y-93690058D02*
X126761904Y-93642439D01*
X126761904Y-93642439D02*
X126666666Y-93594820D01*
X125999999Y-93594820D02*
X125380952Y-93594820D01*
X125380952Y-93594820D02*
X125714285Y-93975772D01*
X125714285Y-93975772D02*
X125571428Y-93975772D01*
X125571428Y-93975772D02*
X125476190Y-94023391D01*
X125476190Y-94023391D02*
X125428571Y-94071010D01*
X125428571Y-94071010D02*
X125380952Y-94166248D01*
X125380952Y-94166248D02*
X125380952Y-94404343D01*
X125380952Y-94404343D02*
X125428571Y-94499581D01*
X125428571Y-94499581D02*
X125476190Y-94547201D01*
X125476190Y-94547201D02*
X125571428Y-94594820D01*
X125571428Y-94594820D02*
X125857142Y-94594820D01*
X125857142Y-94594820D02*
X125952380Y-94547201D01*
X125952380Y-94547201D02*
X125999999Y-94499581D01*
D11*
X133460000Y-95140001D02*
X133460000Y-98250001D01*
X133460000Y-95140001D02*
X130700000Y-95140001D01*
X133460000Y-95710001D02*
X133460000Y-98250001D01*
X133460000Y-99870001D02*
X133460000Y-102980001D01*
X133460000Y-102410001D02*
X133460000Y-102980001D01*
X133460000Y-102980001D02*
X130700000Y-102980001D01*
X130700000Y-95140001D02*
X130700000Y-95710001D01*
X130700000Y-97330001D02*
X130700000Y-100790001D01*
X125620000Y-97330001D02*
X125620000Y-100790001D01*
X125620000Y-95140001D02*
X125620000Y-95710001D01*
X128380000Y-102980001D02*
X125620000Y-102980001D01*
X128380000Y-102410001D02*
X128380000Y-102980001D01*
X128380000Y-99870001D02*
X128380000Y-102980001D01*
X128380000Y-95710001D02*
X128380000Y-98250001D01*
X128380000Y-95140001D02*
X125620000Y-95140001D01*
X128380000Y-95140001D02*
X128380000Y-98250001D01*
%LPC*%
D12*
X130425000Y-96520001D03*
X133735000Y-99060001D03*
X130425000Y-101600001D03*
X125345000Y-101600001D03*
X128655000Y-99060001D03*
X125345000Y-96520001D03*
D13*
X121920000Y-101600001D03*
X121920000Y-99060001D03*
D14*
X121920000Y-96520001D03*
D13*
X137160000Y-101600000D03*
X137160000Y-99060001D03*
X137160000Y-96520001D03*
%LPD*%
M02*
