M48
; DRILL file {KiCad 9.0.6} date 2026-01-01T23:22:30-0600
; FORMAT={-:-/ absolute / metric / decimal}
; #@! TF.CreationDate,2026-01-01T23:22:30-06:00
; #@! TF.GenerationSoftware,Kicad,Pcbnew,9.0.6
; #@! TF.FileFunction,Plated,1,2,PTH
FMAT,2
METRIC
; #@! TA.AperFunction,Plated,PTH,ComponentDrill
T1C1.000
; #@! TA.AperFunction,Plated,PTH,ComponentDrill
T2C1.100
%
G90
G05
T1
X75.621Y-58.337
X75.621Y-60.877
X75.621Y-63.417
X75.621Y-65.957
X75.621Y-68.497
X75.621Y-71.037
X75.621Y-73.577
X75.621Y-76.117
X75.621Y-78.657
X75.621Y-81.197
X75.621Y-83.737
X75.621Y-86.277
X75.621Y-88.817
X75.621Y-91.357
X75.621Y-93.897
X75.621Y-96.437
X75.621Y-98.977
X75.621Y-101.517
X75.621Y-104.057
X75.621Y-106.597
X78.161Y-58.337
X78.161Y-60.877
X78.161Y-63.417
X78.161Y-65.957
X78.161Y-68.497
X78.161Y-71.037
X78.161Y-73.577
X78.161Y-76.117
X78.161Y-78.657
X78.161Y-81.197
X78.161Y-83.737
X78.161Y-86.277
X78.161Y-88.817
X78.161Y-91.357
X78.161Y-93.897
X78.161Y-96.437
X78.161Y-98.977
X78.161Y-101.517
X78.161Y-104.057
X78.161Y-106.597
X83.241Y-58.337
X83.241Y-60.877
X83.241Y-63.417
X83.241Y-65.957
X83.241Y-68.497
X83.241Y-71.037
X83.241Y-73.577
X83.241Y-76.117
X83.241Y-78.657
X83.241Y-81.197
X83.241Y-83.737
X83.241Y-86.277
X83.241Y-88.817
X83.241Y-91.357
X83.241Y-93.897
X83.241Y-96.437
X83.241Y-98.977
X83.241Y-101.517
X83.241Y-104.057
X83.241Y-106.597
X85.781Y-63.417
X85.781Y-65.957
X85.781Y-68.497
X85.781Y-71.037
X85.781Y-73.577
X85.781Y-76.117
X85.781Y-78.657
X85.781Y-81.197
X85.781Y-83.737
X85.781Y-86.277
X85.781Y-88.817
X85.781Y-91.357
X85.781Y-93.897
X85.781Y-96.437
X85.781Y-98.977
X85.781Y-101.517
X88.321Y-63.417
X88.321Y-65.957
X88.321Y-68.497
X88.321Y-71.037
X88.321Y-73.577
X88.321Y-76.117
X88.321Y-78.657
X88.321Y-81.197
X88.321Y-83.737
X88.321Y-86.277
X88.321Y-88.817
X88.321Y-91.357
X88.321Y-93.897
X88.321Y-96.437
X88.321Y-98.977
X88.321Y-101.517
X90.861Y-63.417
X90.861Y-65.957
X90.861Y-68.497
X90.861Y-71.037
X90.861Y-73.577
X90.861Y-76.117
X90.861Y-78.657
X90.861Y-81.197
X90.861Y-83.737
X90.861Y-86.277
X90.861Y-88.817
X90.861Y-91.357
X90.861Y-93.897
X90.861Y-96.437
X90.861Y-98.977
X90.861Y-101.517
X93.401Y-63.417
X93.401Y-65.957
X93.401Y-68.497
X93.401Y-71.037
X93.401Y-73.577
X93.401Y-76.117
X93.401Y-78.657
X93.401Y-81.197
X93.401Y-83.737
X93.401Y-86.277
X93.401Y-88.817
X93.401Y-91.357
X93.401Y-93.897
X93.401Y-96.437
X93.401Y-98.977
X93.401Y-101.517
X95.941Y-63.417
X95.941Y-65.957
X95.941Y-68.497
X95.941Y-71.037
X95.941Y-73.577
X95.941Y-76.117
X95.941Y-78.657
X95.941Y-81.197
X95.941Y-83.737
X95.941Y-86.277
X95.941Y-88.817
X95.941Y-91.357
X95.941Y-93.897
X95.941Y-96.437
X95.941Y-98.977
X95.941Y-101.517
X98.481Y-63.417
X98.481Y-65.957
X98.481Y-68.497
X98.481Y-71.037
X98.481Y-73.577
X98.481Y-76.117
X98.481Y-78.657
X98.481Y-81.197
X98.481Y-83.737
X98.481Y-86.277
X98.481Y-88.817
X98.481Y-91.357
X98.481Y-93.897
X98.481Y-96.437
X98.481Y-98.977
X98.481Y-101.517
X101.021Y-58.337
X101.021Y-60.877
X101.021Y-63.417
X101.021Y-65.957
X101.021Y-68.497
X101.021Y-71.037
X101.021Y-73.577
X101.021Y-76.117
X101.021Y-78.657
X101.021Y-81.197
X101.021Y-83.737
X101.021Y-86.277
X101.021Y-88.817
X101.021Y-91.357
X101.021Y-93.897
X101.021Y-96.437
X101.021Y-98.977
X101.021Y-101.517
X101.021Y-104.057
X101.021Y-106.597
X106.101Y-58.337
X106.101Y-60.877
X106.101Y-63.417
X106.101Y-65.957
X106.101Y-68.497
X106.101Y-71.037
X106.101Y-73.577
X106.101Y-76.117
X106.101Y-78.657
X106.101Y-81.197
X106.101Y-83.737
X106.101Y-86.277
X106.101Y-88.817
X106.101Y-91.357
X106.101Y-93.897
X106.101Y-96.437
X106.101Y-98.977
X106.101Y-101.517
X106.101Y-104.057
X106.101Y-106.597
X108.641Y-58.337
X108.641Y-60.877
X108.641Y-63.417
X108.641Y-65.957
X108.641Y-68.497
X108.641Y-71.037
X108.641Y-73.577
X108.641Y-76.117
X108.641Y-78.657
X108.641Y-81.197
X108.641Y-83.737
X108.641Y-86.277
X108.641Y-88.817
X108.641Y-91.357
X108.641Y-93.897
X108.641Y-96.437
X108.641Y-98.977
X108.641Y-101.517
X108.641Y-104.057
X108.641Y-106.597
T2
X70.541Y-57.837
X70.541Y-60.377
X70.541Y-62.917
X70.541Y-65.457
X70.541Y-67.997
X70.541Y-70.537
X70.541Y-73.077
X70.541Y-75.617
X70.541Y-78.157
X70.541Y-80.697
X70.541Y-84.237
X70.541Y-86.777
X70.541Y-89.317
X70.541Y-91.857
X70.541Y-94.397
X70.541Y-96.937
X70.541Y-99.477
X70.541Y-102.017
X70.541Y-104.557
X70.541Y-107.097
X113.721Y-57.837
X113.721Y-60.377
X113.721Y-62.917
X113.721Y-65.457
X113.721Y-67.997
X113.721Y-70.537
X113.721Y-73.077
X113.721Y-75.617
X113.721Y-78.157
X113.721Y-80.697
X113.721Y-84.237
X113.721Y-86.777
X113.721Y-89.317
X113.721Y-91.857
X113.721Y-94.397
X113.721Y-96.937
X113.721Y-99.477
X113.721Y-102.017
X113.721Y-104.557
X113.721Y-107.097
M30
