G04 #@! TF.GenerationSoftware,KiCad,Pcbnew,9.0.6*
G04 #@! TF.CreationDate,2026-01-01T23:22:27-06:00*
G04 #@! TF.ProjectId,PiPico_BOB,50695069-636f-45f4-924f-422e6b696361,rev?*
G04 #@! TF.SameCoordinates,Original*
G04 #@! TF.FileFunction,Copper,L2,Bot*
G04 #@! TF.FilePolarity,Positive*
%FSLAX46Y46*%
G04 Gerber Fmt 4.6, Leading zero omitted, Abs format (unit mm)*
G04 Created by KiCad (PCBNEW 9.0.6) date 2026-01-01 23:22:27*
%MOMM*%
%LPD*%
G01*
G04 APERTURE LIST*
G04 Aperture macros list*
%AMRoundRect*
0 Rectangle with rounded corners*
0 $1 Rounding radius*
0 $2 $3 $4 $5 $6 $7 $8 $9 X,Y pos of 4 corners*
0 Add a 4 corners polygon primitive as box body*
4,1,4,$2,$3,$4,$5,$6,$7,$8,$9,$2,$3,0*
0 Add four circle primitives for the rounded corners*
1,1,$1+$1,$2,$3*
1,1,$1+$1,$4,$5*
1,1,$1+$1,$6,$7*
1,1,$1+$1,$8,$9*
0 Add four rect primitives between the rounded corners*
20,1,$1+$1,$2,$3,$4,$5,0*
20,1,$1+$1,$4,$5,$6,$7,0*
20,1,$1+$1,$6,$7,$8,$9,0*
20,1,$1+$1,$8,$9,$2,$3,0*%
G04 Aperture macros list end*
G04 #@! TA.AperFunction,ComponentPad*
%ADD10R,1.700000X1.700000*%
G04 #@! TD*
G04 #@! TA.AperFunction,ComponentPad*
%ADD11C,1.700000*%
G04 #@! TD*
G04 #@! TA.AperFunction,SMDPad,CuDef*
%ADD12R,0.500000X1.000000*%
G04 #@! TD*
G04 #@! TA.AperFunction,SMDPad,CuDef*
%ADD13R,1.000000X0.500000*%
G04 #@! TD*
G04 #@! TA.AperFunction,ComponentPad*
%ADD14R,1.800000X1.800000*%
G04 #@! TD*
G04 #@! TA.AperFunction,ComponentPad*
%ADD15C,2.200000*%
G04 #@! TD*
G04 #@! TA.AperFunction,ComponentPad*
%ADD16RoundRect,0.249999X0.850001X-0.850001X0.850001X0.850001X-0.850001X0.850001X-0.850001X-0.850001X0*%
G04 #@! TD*
G04 #@! TA.AperFunction,ComponentPad*
%ADD17RoundRect,0.249999X-0.850001X0.850001X-0.850001X-0.850001X0.850001X-0.850001X0.850001X0.850001X0*%
G04 #@! TD*
G04 APERTURE END LIST*
D10*
X78161295Y-58337363D03*
D11*
X78161295Y-60877363D03*
X78161295Y-63417363D03*
X78161295Y-65957363D03*
X78161295Y-68497363D03*
X78161295Y-71037363D03*
X78161295Y-73577363D03*
X78161295Y-76117363D03*
X78161295Y-78657363D03*
X78161295Y-81197363D03*
X78161295Y-83737363D03*
X78161295Y-86277363D03*
X78161295Y-88817363D03*
X78161295Y-91357363D03*
X78161295Y-93897363D03*
X78161295Y-96437363D03*
X78161295Y-98977363D03*
X78161295Y-101517363D03*
X78161295Y-104057363D03*
X78161295Y-106597363D03*
D10*
X75621295Y-58337363D03*
D11*
X75621295Y-60877363D03*
X75621295Y-63417363D03*
X75621295Y-65957363D03*
X75621295Y-68497363D03*
X75621295Y-71037363D03*
X75621295Y-73577363D03*
X75621295Y-76117363D03*
X75621295Y-78657363D03*
X75621295Y-81197363D03*
X75621295Y-83737363D03*
X75621295Y-86277363D03*
X75621295Y-88817363D03*
X75621295Y-91357363D03*
X75621295Y-93897363D03*
X75621295Y-96437363D03*
X75621295Y-98977363D03*
X75621295Y-101517363D03*
X75621295Y-104057363D03*
X75621295Y-106597363D03*
D12*
X97581295Y-101517363D03*
D13*
X98481295Y-100617363D03*
D14*
X98481295Y-101517363D03*
D13*
X98481295Y-102417363D03*
D12*
X99381295Y-101517363D03*
X97581295Y-98977363D03*
D13*
X98481295Y-98077363D03*
D14*
X98481295Y-98977363D03*
D13*
X98481295Y-99877363D03*
D12*
X99381295Y-98977363D03*
X97581295Y-96437363D03*
D13*
X98481295Y-95537363D03*
D14*
X98481295Y-96437363D03*
D13*
X98481295Y-97337363D03*
D12*
X99381295Y-96437363D03*
X97581295Y-93897363D03*
D13*
X98481295Y-92997363D03*
D14*
X98481295Y-93897363D03*
D13*
X98481295Y-94797363D03*
D12*
X99381295Y-93897363D03*
X97581295Y-91357363D03*
D13*
X98481295Y-90457363D03*
D14*
X98481295Y-91357363D03*
D13*
X98481295Y-92257363D03*
D12*
X99381295Y-91357363D03*
X97581295Y-88817363D03*
D13*
X98481295Y-87917363D03*
D14*
X98481295Y-88817363D03*
D13*
X98481295Y-89717363D03*
D12*
X99381295Y-88817363D03*
X97581295Y-86277363D03*
D13*
X98481295Y-85377363D03*
D14*
X98481295Y-86277363D03*
D13*
X98481295Y-87177363D03*
D12*
X99381295Y-86277363D03*
X97581295Y-83737363D03*
D13*
X98481295Y-82837363D03*
D14*
X98481295Y-83737363D03*
D13*
X98481295Y-84637363D03*
D12*
X99381295Y-83737363D03*
X97581295Y-81197363D03*
D13*
X98481295Y-80297363D03*
D14*
X98481295Y-81197363D03*
D13*
X98481295Y-82097363D03*
D12*
X99381295Y-81197363D03*
X97581295Y-78657363D03*
D13*
X98481295Y-77757363D03*
D14*
X98481295Y-78657363D03*
D13*
X98481295Y-79557363D03*
D12*
X99381295Y-78657363D03*
X97581295Y-76117363D03*
D13*
X98481295Y-75217363D03*
D14*
X98481295Y-76117363D03*
D13*
X98481295Y-77017363D03*
D12*
X99381295Y-76117363D03*
X97581295Y-73577363D03*
D13*
X98481295Y-72677363D03*
D14*
X98481295Y-73577363D03*
D13*
X98481295Y-74477363D03*
D12*
X99381295Y-73577363D03*
X97581295Y-71037363D03*
D13*
X98481295Y-70137363D03*
D14*
X98481295Y-71037363D03*
D13*
X98481295Y-71937363D03*
D12*
X99381295Y-71037363D03*
X97581295Y-68497363D03*
D13*
X98481295Y-67597363D03*
D14*
X98481295Y-68497363D03*
D13*
X98481295Y-69397363D03*
D12*
X99381295Y-68497363D03*
X97581295Y-65957363D03*
D13*
X98481295Y-65057363D03*
D14*
X98481295Y-65957363D03*
D13*
X98481295Y-66857363D03*
D12*
X99381295Y-65957363D03*
X97581295Y-63417363D03*
D13*
X98481295Y-62517363D03*
D14*
X98481295Y-63417363D03*
D13*
X98481295Y-64317363D03*
D12*
X99381295Y-63417363D03*
X95041295Y-101517363D03*
D13*
X95941295Y-100617363D03*
D14*
X95941295Y-101517363D03*
D13*
X95941295Y-102417363D03*
D12*
X96841295Y-101517363D03*
X95041295Y-98977363D03*
D13*
X95941295Y-98077363D03*
D14*
X95941295Y-98977363D03*
D13*
X95941295Y-99877363D03*
D12*
X96841295Y-98977363D03*
X95041295Y-96437363D03*
D13*
X95941295Y-95537363D03*
D14*
X95941295Y-96437363D03*
D13*
X95941295Y-97337363D03*
D12*
X96841295Y-96437363D03*
X95041295Y-93897363D03*
D13*
X95941295Y-92997363D03*
D14*
X95941295Y-93897363D03*
D13*
X95941295Y-94797363D03*
D12*
X96841295Y-93897363D03*
X95041295Y-91357363D03*
D13*
X95941295Y-90457363D03*
D14*
X95941295Y-91357363D03*
D13*
X95941295Y-92257363D03*
D12*
X96841295Y-91357363D03*
X95041295Y-88817363D03*
D13*
X95941295Y-87917363D03*
D14*
X95941295Y-88817363D03*
D13*
X95941295Y-89717363D03*
D12*
X96841295Y-88817363D03*
X95041295Y-86277363D03*
D13*
X95941295Y-85377363D03*
D14*
X95941295Y-86277363D03*
D13*
X95941295Y-87177363D03*
D12*
X96841295Y-86277363D03*
X95041295Y-83737363D03*
D13*
X95941295Y-82837363D03*
D14*
X95941295Y-83737363D03*
D13*
X95941295Y-84637363D03*
D12*
X96841295Y-83737363D03*
X95041295Y-81197363D03*
D13*
X95941295Y-80297363D03*
D14*
X95941295Y-81197363D03*
D13*
X95941295Y-82097363D03*
D12*
X96841295Y-81197363D03*
X95041295Y-78657363D03*
D13*
X95941295Y-77757363D03*
D14*
X95941295Y-78657363D03*
D13*
X95941295Y-79557363D03*
D12*
X96841295Y-78657363D03*
X95041295Y-76117363D03*
D13*
X95941295Y-75217363D03*
D14*
X95941295Y-76117363D03*
D13*
X95941295Y-77017363D03*
D12*
X96841295Y-76117363D03*
X95041295Y-73577363D03*
D13*
X95941295Y-72677363D03*
D14*
X95941295Y-73577363D03*
D13*
X95941295Y-74477363D03*
D12*
X96841295Y-73577363D03*
X95041295Y-71037363D03*
D13*
X95941295Y-70137363D03*
D14*
X95941295Y-71037363D03*
D13*
X95941295Y-71937363D03*
D12*
X96841295Y-71037363D03*
X95041295Y-68497363D03*
D13*
X95941295Y-67597363D03*
D14*
X95941295Y-68497363D03*
D13*
X95941295Y-69397363D03*
D12*
X96841295Y-68497363D03*
X95041295Y-65957363D03*
D13*
X95941295Y-65057363D03*
D14*
X95941295Y-65957363D03*
D13*
X95941295Y-66857363D03*
D12*
X96841295Y-65957363D03*
X95041295Y-63417363D03*
D13*
X95941295Y-62517363D03*
D14*
X95941295Y-63417363D03*
D13*
X95941295Y-64317363D03*
D12*
X96841295Y-63417363D03*
X92501295Y-101517363D03*
D13*
X93401295Y-100617363D03*
D14*
X93401295Y-101517363D03*
D13*
X93401295Y-102417363D03*
D12*
X94301295Y-101517363D03*
X92501295Y-98977363D03*
D13*
X93401295Y-98077363D03*
D14*
X93401295Y-98977363D03*
D13*
X93401295Y-99877363D03*
D12*
X94301295Y-98977363D03*
X92501295Y-96437363D03*
D13*
X93401295Y-95537363D03*
D14*
X93401295Y-96437363D03*
D13*
X93401295Y-97337363D03*
D12*
X94301295Y-96437363D03*
X92501295Y-93897363D03*
D13*
X93401295Y-92997363D03*
D14*
X93401295Y-93897363D03*
D13*
X93401295Y-94797363D03*
D12*
X94301295Y-93897363D03*
X92501295Y-91357363D03*
D13*
X93401295Y-90457363D03*
D14*
X93401295Y-91357363D03*
D13*
X93401295Y-92257363D03*
D12*
X94301295Y-91357363D03*
X92501295Y-88817363D03*
D13*
X93401295Y-87917363D03*
D14*
X93401295Y-88817363D03*
D13*
X93401295Y-89717363D03*
D12*
X94301295Y-88817363D03*
X92501295Y-86277363D03*
D13*
X93401295Y-85377363D03*
D14*
X93401295Y-86277363D03*
D13*
X93401295Y-87177363D03*
D12*
X94301295Y-86277363D03*
X92501295Y-83737363D03*
D13*
X93401295Y-82837363D03*
D14*
X93401295Y-83737363D03*
D13*
X93401295Y-84637363D03*
D12*
X94301295Y-83737363D03*
X92501295Y-81197363D03*
D13*
X93401295Y-80297363D03*
D14*
X93401295Y-81197363D03*
D13*
X93401295Y-82097363D03*
D12*
X94301295Y-81197363D03*
X92501295Y-78657363D03*
D13*
X93401295Y-77757363D03*
D14*
X93401295Y-78657363D03*
D13*
X93401295Y-79557363D03*
D12*
X94301295Y-78657363D03*
X92501295Y-76117363D03*
D13*
X93401295Y-75217363D03*
D14*
X93401295Y-76117363D03*
D13*
X93401295Y-77017363D03*
D12*
X94301295Y-76117363D03*
X92501295Y-73577363D03*
D13*
X93401295Y-72677363D03*
D14*
X93401295Y-73577363D03*
D13*
X93401295Y-74477363D03*
D12*
X94301295Y-73577363D03*
X92501295Y-71037363D03*
D13*
X93401295Y-70137363D03*
D14*
X93401295Y-71037363D03*
D13*
X93401295Y-71937363D03*
D12*
X94301295Y-71037363D03*
X92501295Y-68497363D03*
D13*
X93401295Y-67597363D03*
D14*
X93401295Y-68497363D03*
D13*
X93401295Y-69397363D03*
D12*
X94301295Y-68497363D03*
X92501295Y-65957363D03*
D13*
X93401295Y-65057363D03*
D14*
X93401295Y-65957363D03*
D13*
X93401295Y-66857363D03*
D12*
X94301295Y-65957363D03*
X92501295Y-63417363D03*
D13*
X93401295Y-62517363D03*
D14*
X93401295Y-63417363D03*
D13*
X93401295Y-64317363D03*
D12*
X94301295Y-63417363D03*
X89961295Y-101517363D03*
D13*
X90861295Y-100617363D03*
D14*
X90861295Y-101517363D03*
D13*
X90861295Y-102417363D03*
D12*
X91761295Y-101517363D03*
X89961295Y-98977363D03*
D13*
X90861295Y-98077363D03*
D14*
X90861295Y-98977363D03*
D13*
X90861295Y-99877363D03*
D12*
X91761295Y-98977363D03*
X89961295Y-96437363D03*
D13*
X90861295Y-95537363D03*
D14*
X90861295Y-96437363D03*
D13*
X90861295Y-97337363D03*
D12*
X91761295Y-96437363D03*
X89961295Y-93897363D03*
D13*
X90861295Y-92997363D03*
D14*
X90861295Y-93897363D03*
D13*
X90861295Y-94797363D03*
D12*
X91761295Y-93897363D03*
X89961295Y-91357363D03*
D13*
X90861295Y-90457363D03*
D14*
X90861295Y-91357363D03*
D13*
X90861295Y-92257363D03*
D12*
X91761295Y-91357363D03*
X89961295Y-88817363D03*
D13*
X90861295Y-87917363D03*
D14*
X90861295Y-88817363D03*
D13*
X90861295Y-89717363D03*
D12*
X91761295Y-88817363D03*
X89961295Y-86277363D03*
D13*
X90861295Y-85377363D03*
D14*
X90861295Y-86277363D03*
D13*
X90861295Y-87177363D03*
D12*
X91761295Y-86277363D03*
X89961295Y-83737363D03*
D13*
X90861295Y-82837363D03*
D14*
X90861295Y-83737363D03*
D13*
X90861295Y-84637363D03*
D12*
X91761295Y-83737363D03*
X89961295Y-81197363D03*
D13*
X90861295Y-80297363D03*
D14*
X90861295Y-81197363D03*
D13*
X90861295Y-82097363D03*
D12*
X91761295Y-81197363D03*
X89961295Y-78657363D03*
D13*
X90861295Y-77757363D03*
D14*
X90861295Y-78657363D03*
D13*
X90861295Y-79557363D03*
D12*
X91761295Y-78657363D03*
X89961295Y-76117363D03*
D13*
X90861295Y-75217363D03*
D14*
X90861295Y-76117363D03*
D13*
X90861295Y-77017363D03*
D12*
X91761295Y-76117363D03*
X89961295Y-73577363D03*
D13*
X90861295Y-72677363D03*
D14*
X90861295Y-73577363D03*
D13*
X90861295Y-74477363D03*
D12*
X91761295Y-73577363D03*
X89961295Y-71037363D03*
D13*
X90861295Y-70137363D03*
D14*
X90861295Y-71037363D03*
D13*
X90861295Y-71937363D03*
D12*
X91761295Y-71037363D03*
X89961295Y-68497363D03*
D13*
X90861295Y-67597363D03*
D14*
X90861295Y-68497363D03*
D13*
X90861295Y-69397363D03*
D12*
X91761295Y-68497363D03*
X89961295Y-65957363D03*
D13*
X90861295Y-65057363D03*
D14*
X90861295Y-65957363D03*
D13*
X90861295Y-66857363D03*
D12*
X91761295Y-65957363D03*
X89961295Y-63417363D03*
D13*
X90861295Y-62517363D03*
D14*
X90861295Y-63417363D03*
D13*
X90861295Y-64317363D03*
D12*
X91761295Y-63417363D03*
X87421295Y-101517363D03*
D13*
X88321295Y-100617363D03*
D14*
X88321295Y-101517363D03*
D13*
X88321295Y-102417363D03*
D12*
X89221295Y-101517363D03*
X87421295Y-98977363D03*
D13*
X88321295Y-98077363D03*
D14*
X88321295Y-98977363D03*
D13*
X88321295Y-99877363D03*
D12*
X89221295Y-98977363D03*
X87421295Y-96437363D03*
D13*
X88321295Y-95537363D03*
D14*
X88321295Y-96437363D03*
D13*
X88321295Y-97337363D03*
D12*
X89221295Y-96437363D03*
X87421295Y-93897363D03*
D13*
X88321295Y-92997363D03*
D14*
X88321295Y-93897363D03*
D13*
X88321295Y-94797363D03*
D12*
X89221295Y-93897363D03*
X87421295Y-91357363D03*
D13*
X88321295Y-90457363D03*
D14*
X88321295Y-91357363D03*
D13*
X88321295Y-92257363D03*
D12*
X89221295Y-91357363D03*
X87421295Y-88817363D03*
D13*
X88321295Y-87917363D03*
D14*
X88321295Y-88817363D03*
D13*
X88321295Y-89717363D03*
D12*
X89221295Y-88817363D03*
X87421295Y-86277363D03*
D13*
X88321295Y-85377363D03*
D14*
X88321295Y-86277363D03*
D13*
X88321295Y-87177363D03*
D12*
X89221295Y-86277363D03*
X87421295Y-83737363D03*
D13*
X88321295Y-82837363D03*
D14*
X88321295Y-83737363D03*
D13*
X88321295Y-84637363D03*
D12*
X89221295Y-83737363D03*
X87421295Y-81197363D03*
D13*
X88321295Y-80297363D03*
D14*
X88321295Y-81197363D03*
D13*
X88321295Y-82097363D03*
D12*
X89221295Y-81197363D03*
X87421295Y-78657363D03*
D13*
X88321295Y-77757363D03*
D14*
X88321295Y-78657363D03*
D13*
X88321295Y-79557363D03*
D12*
X89221295Y-78657363D03*
X87421295Y-76117363D03*
D13*
X88321295Y-75217363D03*
D14*
X88321295Y-76117363D03*
D13*
X88321295Y-77017363D03*
D12*
X89221295Y-76117363D03*
X87421295Y-73577363D03*
D13*
X88321295Y-72677363D03*
D14*
X88321295Y-73577363D03*
D13*
X88321295Y-74477363D03*
D12*
X89221295Y-73577363D03*
X87421295Y-71037363D03*
D13*
X88321295Y-70137363D03*
D14*
X88321295Y-71037363D03*
D13*
X88321295Y-71937363D03*
D12*
X89221295Y-71037363D03*
X87421295Y-68497363D03*
D13*
X88321295Y-67597363D03*
D14*
X88321295Y-68497363D03*
D13*
X88321295Y-69397363D03*
D12*
X89221295Y-68497363D03*
X87421295Y-65957363D03*
D13*
X88321295Y-65057363D03*
D14*
X88321295Y-65957363D03*
D13*
X88321295Y-66857363D03*
D12*
X89221295Y-65957363D03*
X87421295Y-63417363D03*
D13*
X88321295Y-62517363D03*
D14*
X88321295Y-63417363D03*
D13*
X88321295Y-64317363D03*
D12*
X89221295Y-63417363D03*
D15*
X113721295Y-84237363D03*
X113721295Y-86777363D03*
X113721295Y-89317363D03*
X113721295Y-91857363D03*
X113721295Y-94397363D03*
X113721295Y-96937363D03*
X113721295Y-99477363D03*
X113721295Y-102017363D03*
X113721295Y-104557363D03*
D16*
X113721295Y-107097363D03*
D11*
X83241295Y-106597363D03*
X83241295Y-104057363D03*
X83241295Y-101517363D03*
X83241295Y-98977363D03*
X83241295Y-96437363D03*
X83241295Y-93897363D03*
X83241295Y-91357363D03*
X83241295Y-88817363D03*
X83241295Y-86277363D03*
X83241295Y-83737363D03*
X83241295Y-81197363D03*
X83241295Y-78657363D03*
X83241295Y-76117363D03*
X83241295Y-73577363D03*
X83241295Y-71037363D03*
X83241295Y-68497363D03*
X83241295Y-65957363D03*
X83241295Y-63417363D03*
X83241295Y-60877363D03*
D10*
X83241295Y-58337363D03*
D11*
X106101295Y-106597363D03*
X106101295Y-104057363D03*
X106101295Y-101517363D03*
X106101295Y-98977363D03*
X106101295Y-96437363D03*
X106101295Y-93897363D03*
X106101295Y-91357363D03*
X106101295Y-88817363D03*
X106101295Y-86277363D03*
X106101295Y-83737363D03*
X106101295Y-81197363D03*
X106101295Y-78657363D03*
X106101295Y-76117363D03*
X106101295Y-73577363D03*
X106101295Y-71037363D03*
X106101295Y-68497363D03*
X106101295Y-65957363D03*
X106101295Y-63417363D03*
X106101295Y-60877363D03*
D10*
X106101295Y-58337363D03*
D15*
X70541295Y-107097363D03*
X70541295Y-104557363D03*
X70541295Y-102017364D03*
X70541295Y-99477363D03*
X70541295Y-96937363D03*
X70541295Y-94397363D03*
X70541295Y-91857363D03*
X70541295Y-89317362D03*
X70541295Y-86777363D03*
D17*
X70541295Y-84237363D03*
D11*
X101021295Y-106597363D03*
X101021295Y-104057363D03*
X101021295Y-101517363D03*
X101021295Y-98977363D03*
X101021295Y-96437363D03*
X101021295Y-93897363D03*
X101021295Y-91357363D03*
X101021295Y-88817363D03*
X101021295Y-86277363D03*
X101021295Y-83737363D03*
X101021295Y-81197363D03*
X101021295Y-78657363D03*
X101021295Y-76117363D03*
X101021295Y-73577363D03*
X101021295Y-71037363D03*
X101021295Y-68497363D03*
X101021295Y-65957363D03*
X101021295Y-63417363D03*
X101021295Y-60877363D03*
D10*
X101021295Y-58337363D03*
D15*
X70541295Y-80697363D03*
X70541295Y-78157363D03*
X70541295Y-75617363D03*
X70541295Y-73077363D03*
X70541295Y-70537363D03*
X70541295Y-67997363D03*
X70541295Y-65457363D03*
X70541295Y-62917363D03*
X70541295Y-60377363D03*
D17*
X70541295Y-57837363D03*
D15*
X113721295Y-57837363D03*
X113721295Y-60377363D03*
X113721295Y-62917362D03*
X113721295Y-65457363D03*
X113721295Y-67997363D03*
X113721295Y-70537363D03*
X113721295Y-73077363D03*
X113721295Y-75617364D03*
X113721295Y-78157363D03*
D16*
X113721295Y-80697363D03*
D11*
X108641295Y-106597363D03*
X108641295Y-104057363D03*
X108641295Y-101517363D03*
X108641295Y-98977363D03*
X108641295Y-96437363D03*
X108641295Y-93897363D03*
X108641295Y-91357363D03*
X108641295Y-88817363D03*
X108641295Y-86277363D03*
X108641295Y-83737363D03*
X108641295Y-81197363D03*
X108641295Y-78657363D03*
X108641295Y-76117363D03*
X108641295Y-73577363D03*
X108641295Y-71037363D03*
X108641295Y-68497363D03*
X108641295Y-65957363D03*
X108641295Y-63417363D03*
X108641295Y-60877363D03*
D10*
X108641295Y-58337363D03*
D12*
X84881295Y-101517363D03*
D13*
X85781295Y-100617363D03*
D14*
X85781295Y-101517363D03*
D13*
X85781295Y-102417363D03*
D12*
X86681295Y-101517363D03*
X84881295Y-98977363D03*
D13*
X85781295Y-98077363D03*
D14*
X85781295Y-98977363D03*
D13*
X85781295Y-99877363D03*
D12*
X86681295Y-98977363D03*
X84881295Y-96437363D03*
D13*
X85781295Y-95537363D03*
D14*
X85781295Y-96437363D03*
D13*
X85781295Y-97337363D03*
D12*
X86681295Y-96437363D03*
X84881295Y-93897363D03*
D13*
X85781295Y-92997363D03*
D14*
X85781295Y-93897363D03*
D13*
X85781295Y-94797363D03*
D12*
X86681295Y-93897363D03*
X84881295Y-91357363D03*
D13*
X85781295Y-90457363D03*
D14*
X85781295Y-91357363D03*
D13*
X85781295Y-92257363D03*
D12*
X86681295Y-91357363D03*
X84881295Y-88817363D03*
D13*
X85781295Y-87917363D03*
D14*
X85781295Y-88817363D03*
D13*
X85781295Y-89717363D03*
D12*
X86681295Y-88817363D03*
X84881295Y-86277363D03*
D13*
X85781295Y-85377363D03*
D14*
X85781295Y-86277363D03*
D13*
X85781295Y-87177363D03*
D12*
X86681295Y-86277363D03*
X84881295Y-83737363D03*
D13*
X85781295Y-82837363D03*
D14*
X85781295Y-83737363D03*
D13*
X85781295Y-84637363D03*
D12*
X86681295Y-83737363D03*
X84881295Y-81197363D03*
D13*
X85781295Y-80297363D03*
D14*
X85781295Y-81197363D03*
D13*
X85781295Y-82097363D03*
D12*
X86681295Y-81197363D03*
X84881295Y-78657363D03*
D13*
X85781295Y-77757363D03*
D14*
X85781295Y-78657363D03*
D13*
X85781295Y-79557363D03*
D12*
X86681295Y-78657363D03*
X84881295Y-76117363D03*
D13*
X85781295Y-75217363D03*
D14*
X85781295Y-76117363D03*
D13*
X85781295Y-77017363D03*
D12*
X86681295Y-76117363D03*
X84881295Y-73577363D03*
D13*
X85781295Y-72677363D03*
D14*
X85781295Y-73577363D03*
D13*
X85781295Y-74477363D03*
D12*
X86681295Y-73577363D03*
X84881295Y-71037363D03*
D13*
X85781295Y-70137363D03*
D14*
X85781295Y-71037363D03*
D13*
X85781295Y-71937363D03*
D12*
X86681295Y-71037363D03*
X84881295Y-68497363D03*
D13*
X85781295Y-67597363D03*
D14*
X85781295Y-68497363D03*
D13*
X85781295Y-69397363D03*
D12*
X86681295Y-68497363D03*
X84881295Y-65957363D03*
D13*
X85781295Y-65057363D03*
D14*
X85781295Y-65957363D03*
D13*
X85781295Y-66857363D03*
D12*
X86681295Y-65957363D03*
X84881295Y-63417363D03*
D13*
X85781295Y-62517363D03*
D14*
X85781295Y-63417363D03*
D13*
X85781295Y-64317363D03*
D12*
X86681295Y-63417363D03*
M02*
