M48
; DRILL file {KiCad 9.0.6} date 2026-01-05T15:48:14-0600
; FORMAT={-:-/ absolute / metric / decimal}
; #@! TF.CreationDate,2026-01-05T15:48:14-06:00
; #@! TF.GenerationSoftware,Kicad,Pcbnew,9.0.6
; #@! TF.FileFunction,Plated,1,2,PTH
FMAT,2
METRIC
; #@! TA.AperFunction,Plated,PTH,ViaDrill
T1C0.300
; #@! TA.AperFunction,Plated,PTH,ComponentDrill
T2C0.400
; #@! TA.AperFunction,Plated,PTH,ComponentDrill
T3C1.000
%
G90
G05
T1
X121.412Y-88.646
X121.412Y-115.316
X121.412Y-130.556
X121.412Y-156.591
T2
X118.584Y-122.936
X119.998Y-121.522
X119.998Y-124.35
X121.412Y-120.108
X121.412Y-122.936
X121.412Y-125.764
X122.826Y-121.522
X122.826Y-124.35
X124.24Y-122.936
T3
X109.982Y-79.756
X109.982Y-82.296
X109.982Y-84.836
X109.982Y-87.376
X109.982Y-89.916
X109.982Y-92.456
X109.982Y-94.996
X109.982Y-97.536
X109.982Y-100.076
X109.982Y-102.616
X109.982Y-105.156
X109.982Y-107.696
X109.982Y-110.236
X109.982Y-112.776
X109.982Y-115.316
X109.982Y-117.856
X109.982Y-120.396
X109.982Y-122.936
X109.982Y-125.476
X109.982Y-128.016
X109.982Y-130.556
X109.982Y-133.096
X109.982Y-135.636
X109.982Y-138.176
X109.982Y-140.716
X109.982Y-143.256
X109.982Y-145.796
X109.982Y-148.336
X109.982Y-150.876
X109.982Y-153.416
X109.982Y-155.956
X109.982Y-158.496
X109.982Y-161.036
X109.982Y-163.576
X132.842Y-79.756
X132.842Y-82.296
X132.842Y-84.836
X132.842Y-87.376
X132.842Y-89.916
X132.842Y-92.456
X132.842Y-94.996
X132.842Y-97.536
X132.842Y-100.076
X132.842Y-102.616
X132.842Y-105.156
X132.842Y-107.696
X132.842Y-110.236
X132.842Y-112.776
X132.842Y-115.316
X132.842Y-117.856
X132.842Y-120.396
X132.842Y-122.936
X132.842Y-125.476
X132.842Y-128.016
X132.842Y-130.556
X132.842Y-133.096
X132.842Y-135.636
X132.842Y-138.176
X132.842Y-140.716
X132.842Y-143.256
X132.842Y-145.796
X132.842Y-148.336
X132.842Y-150.876
X132.842Y-153.416
X132.842Y-155.956
X132.842Y-158.496
X132.842Y-161.036
X132.842Y-163.576
M30
