G04 #@! TF.GenerationSoftware,KiCad,Pcbnew,9.0.6*
G04 #@! TF.CreationDate,2026-01-05T15:48:12-06:00*
G04 #@! TF.ProjectId,QFN-64_9x9_P0.5,51464e2d-3634-45f3-9978-395f50302e35,rev?*
G04 #@! TF.SameCoordinates,Original*
G04 #@! TF.FileFunction,Soldermask,Top*
G04 #@! TF.FilePolarity,Negative*
%FSLAX46Y46*%
G04 Gerber Fmt 4.6, Leading zero omitted, Abs format (unit mm)*
G04 Created by KiCad (PCBNEW 9.0.6) date 2026-01-05 15:48:12*
%MOMM*%
%LPD*%
G01*
G04 APERTURE LIST*
G04 Aperture macros list*
%AMRotRect*
0 Rectangle, with rotation*
0 The origin of the aperture is its center*
0 $1 length*
0 $2 width*
0 $3 Rotation angle, in degrees counterclockwise*
0 Add horizontal line*
21,1,$1,$2,0,0,$3*%
G04 Aperture macros list end*
%ADD10C,1.000000*%
%ADD11RotRect,0.300000X1.400000X45.000000*%
%ADD12RotRect,6.100000X6.100000X315.000000*%
%ADD13RotRect,0.300000X1.400000X315.000000*%
%ADD14RotRect,0.300000X1.300000X315.000000*%
%ADD15C,1.700000*%
%ADD16R,1.700000X1.700000*%
G04 APERTURE END LIST*
D10*
X119997786Y-124350214D03*
X122826214Y-121521786D03*
X122826214Y-124350214D03*
X119997786Y-121521786D03*
X121412000Y-122936000D03*
X124240427Y-122936000D03*
X121412000Y-120107573D03*
X118583573Y-122936000D03*
X121412000Y-125764427D03*
D11*
X120704893Y-116925592D03*
D12*
X121412000Y-122936000D03*
D13*
X122119107Y-116925592D03*
X122472660Y-117279146D03*
X122826214Y-117632699D03*
X123179767Y-117986253D03*
X123533320Y-118339806D03*
X123886874Y-118693359D03*
X124240427Y-119046913D03*
X124593981Y-119400466D03*
X124947534Y-119754019D03*
X125301087Y-120107573D03*
X125654641Y-120461126D03*
X126008194Y-120814680D03*
X126361747Y-121168233D03*
X126715301Y-121521786D03*
X127068854Y-121875340D03*
X127422408Y-122228893D03*
D11*
X127422408Y-123643107D03*
X127068854Y-123996660D03*
X126715301Y-124350214D03*
X126361747Y-124703767D03*
X126008194Y-125057320D03*
X125654641Y-125410874D03*
X125301087Y-125764427D03*
X124947534Y-126117981D03*
X124593981Y-126471534D03*
X124240427Y-126825087D03*
X123886874Y-127178641D03*
X123533320Y-127532194D03*
X123179767Y-127885747D03*
X122826214Y-128239301D03*
X122472660Y-128592854D03*
X122119107Y-128946408D03*
D14*
X120704893Y-128946408D03*
X120351340Y-128592854D03*
X119997786Y-128239301D03*
X119644233Y-127885747D03*
X119290680Y-127532194D03*
X118937126Y-127178641D03*
X118583573Y-126825087D03*
X118230019Y-126471534D03*
X117876466Y-126117981D03*
X117522913Y-125764427D03*
X117169359Y-125410874D03*
X116815806Y-125057320D03*
X116462253Y-124703767D03*
X116108699Y-124350214D03*
X115755146Y-123996660D03*
X115401592Y-123643107D03*
D11*
X115401592Y-122228893D03*
X115755146Y-121875340D03*
X116108699Y-121521786D03*
X116462253Y-121168233D03*
X116815806Y-120814680D03*
X117169359Y-120461126D03*
X117522913Y-120107573D03*
X117876466Y-119754019D03*
X118230019Y-119400466D03*
X118583573Y-119046913D03*
X118937126Y-118693359D03*
X119290680Y-118339806D03*
X119644233Y-117986253D03*
X119997786Y-117632699D03*
X120351340Y-117279146D03*
D15*
X132842000Y-163576000D03*
X132842000Y-161036000D03*
X132842000Y-158496000D03*
X132842000Y-155956000D03*
X132842000Y-153416000D03*
X132842000Y-150876000D03*
X132842000Y-148336000D03*
X132842000Y-145796000D03*
X132842000Y-143256000D03*
X132842000Y-140716000D03*
X132842000Y-138176000D03*
X132842000Y-135636000D03*
X132842000Y-133096000D03*
X132842000Y-130556000D03*
X132842000Y-128016000D03*
X132842000Y-125476000D03*
X132842000Y-122936000D03*
X132842000Y-120396000D03*
X132842000Y-117856000D03*
X132842000Y-115316000D03*
X132842000Y-112776000D03*
X132842000Y-110236000D03*
X132842000Y-107696000D03*
X132842000Y-105156000D03*
X132842000Y-102616000D03*
X132842000Y-100076000D03*
X132842000Y-97536000D03*
X132842000Y-94996000D03*
X132842000Y-92456000D03*
X132842000Y-89916000D03*
X132842000Y-87376000D03*
X132842000Y-84836000D03*
X132842000Y-82296000D03*
X132842000Y-79756000D03*
X109982000Y-163576000D03*
X109982000Y-161036000D03*
X109982000Y-158496000D03*
X109982000Y-155956000D03*
X109982000Y-153416000D03*
X109982000Y-150876000D03*
X109982000Y-148336000D03*
X109982000Y-145796000D03*
X109982000Y-143256000D03*
X109982000Y-140716000D03*
X109982000Y-138176000D03*
X109982000Y-135636000D03*
X109982000Y-133096000D03*
X109982000Y-130556000D03*
X109982000Y-128016000D03*
X109982000Y-125476000D03*
X109982000Y-122936000D03*
X109982000Y-120396000D03*
X109982000Y-117856000D03*
X109982000Y-115316000D03*
X109982000Y-112776000D03*
X109982000Y-110236000D03*
X109982000Y-107696000D03*
X109982000Y-105156000D03*
X109982000Y-102616000D03*
X109982000Y-100076000D03*
X109982000Y-97536000D03*
X109982000Y-94996000D03*
X109982000Y-92456000D03*
X109982000Y-89916000D03*
X109982000Y-87376000D03*
X109982000Y-84836000D03*
X109982000Y-82296000D03*
D16*
X109982000Y-79756000D03*
M02*
