G04 #@! TF.GenerationSoftware,KiCad,Pcbnew,9.0.6*
G04 #@! TF.CreationDate,2026-01-05T15:48:12-06:00*
G04 #@! TF.ProjectId,QFN-64_9x9_P0.5,51464e2d-3634-45f3-9978-395f50302e35,rev?*
G04 #@! TF.SameCoordinates,Original*
G04 #@! TF.FileFunction,Legend,Top*
G04 #@! TF.FilePolarity,Positive*
%FSLAX46Y46*%
G04 Gerber Fmt 4.6, Leading zero omitted, Abs format (unit mm)*
G04 Created by KiCad (PCBNEW 9.0.6) date 2026-01-05 15:48:12*
%MOMM*%
%LPD*%
G01*
G04 APERTURE LIST*
G04 Aperture macros list*
%AMRotRect*
0 Rectangle, with rotation*
0 The origin of the aperture is its center*
0 $1 length*
0 $2 width*
0 $3 Rotation angle, in degrees counterclockwise*
0 Add horizontal line*
21,1,$1,$2,0,0,$3*%
G04 Aperture macros list end*
%ADD10C,0.200000*%
%ADD11C,0.100000*%
%ADD12C,0.300000*%
%ADD13C,0.254000*%
%ADD14C,0.150000*%
%ADD15C,0.120000*%
%ADD16C,0.000000*%
%ADD17C,1.000000*%
%ADD18RotRect,0.300000X1.400000X45.000000*%
%ADD19RotRect,6.100000X6.100000X315.000000*%
%ADD20RotRect,0.300000X1.400000X315.000000*%
%ADD21RotRect,0.300000X1.300000X315.000000*%
%ADD22C,1.700000*%
%ADD23R,1.700000X1.700000*%
G04 APERTURE END LIST*
D10*
X112272482Y-115768219D02*
X111701054Y-115768219D01*
X111986768Y-115768219D02*
X111986768Y-114768219D01*
X111986768Y-114768219D02*
X111891530Y-114911076D01*
X111891530Y-114911076D02*
X111796292Y-115006314D01*
X111796292Y-115006314D02*
X111701054Y-115053933D01*
X113129625Y-115101552D02*
X113129625Y-115768219D01*
X112891530Y-114720600D02*
X112653435Y-115434885D01*
X112653435Y-115434885D02*
X113272482Y-115434885D01*
X130122945Y-114768219D02*
X129646755Y-114768219D01*
X129646755Y-114768219D02*
X129599136Y-115244409D01*
X129599136Y-115244409D02*
X129646755Y-115196790D01*
X129646755Y-115196790D02*
X129741993Y-115149171D01*
X129741993Y-115149171D02*
X129980088Y-115149171D01*
X129980088Y-115149171D02*
X130075326Y-115196790D01*
X130075326Y-115196790D02*
X130122945Y-115244409D01*
X130122945Y-115244409D02*
X130170564Y-115339647D01*
X130170564Y-115339647D02*
X130170564Y-115577742D01*
X130170564Y-115577742D02*
X130122945Y-115672980D01*
X130122945Y-115672980D02*
X130075326Y-115720600D01*
X130075326Y-115720600D02*
X129980088Y-115768219D01*
X129980088Y-115768219D02*
X129741993Y-115768219D01*
X129741993Y-115768219D02*
X129646755Y-115720600D01*
X129646755Y-115720600D02*
X129599136Y-115672980D01*
X131122945Y-115768219D02*
X130551517Y-115768219D01*
X130837231Y-115768219D02*
X130837231Y-114768219D01*
X130837231Y-114768219D02*
X130741993Y-114911076D01*
X130741993Y-114911076D02*
X130646755Y-115006314D01*
X130646755Y-115006314D02*
X130551517Y-115053933D01*
X111701054Y-130103457D02*
X111748673Y-130055838D01*
X111748673Y-130055838D02*
X111843911Y-130008219D01*
X111843911Y-130008219D02*
X112082006Y-130008219D01*
X112082006Y-130008219D02*
X112177244Y-130055838D01*
X112177244Y-130055838D02*
X112224863Y-130103457D01*
X112224863Y-130103457D02*
X112272482Y-130198695D01*
X112272482Y-130198695D02*
X112272482Y-130293933D01*
X112272482Y-130293933D02*
X112224863Y-130436790D01*
X112224863Y-130436790D02*
X111653435Y-131008219D01*
X111653435Y-131008219D02*
X112272482Y-131008219D01*
X112891530Y-130008219D02*
X112986768Y-130008219D01*
X112986768Y-130008219D02*
X113082006Y-130055838D01*
X113082006Y-130055838D02*
X113129625Y-130103457D01*
X113129625Y-130103457D02*
X113177244Y-130198695D01*
X113177244Y-130198695D02*
X113224863Y-130389171D01*
X113224863Y-130389171D02*
X113224863Y-130627266D01*
X113224863Y-130627266D02*
X113177244Y-130817742D01*
X113177244Y-130817742D02*
X113129625Y-130912980D01*
X113129625Y-130912980D02*
X113082006Y-130960600D01*
X113082006Y-130960600D02*
X112986768Y-131008219D01*
X112986768Y-131008219D02*
X112891530Y-131008219D01*
X112891530Y-131008219D02*
X112796292Y-130960600D01*
X112796292Y-130960600D02*
X112748673Y-130912980D01*
X112748673Y-130912980D02*
X112701054Y-130817742D01*
X112701054Y-130817742D02*
X112653435Y-130627266D01*
X112653435Y-130627266D02*
X112653435Y-130389171D01*
X112653435Y-130389171D02*
X112701054Y-130198695D01*
X112701054Y-130198695D02*
X112748673Y-130103457D01*
X112748673Y-130103457D02*
X112796292Y-130055838D01*
X112796292Y-130055838D02*
X112891530Y-130008219D01*
X130075326Y-130341552D02*
X130075326Y-131008219D01*
X129837231Y-129960600D02*
X129599136Y-130674885D01*
X129599136Y-130674885D02*
X130218183Y-130674885D01*
X131075326Y-130008219D02*
X130599136Y-130008219D01*
X130599136Y-130008219D02*
X130551517Y-130484409D01*
X130551517Y-130484409D02*
X130599136Y-130436790D01*
X130599136Y-130436790D02*
X130694374Y-130389171D01*
X130694374Y-130389171D02*
X130932469Y-130389171D01*
X130932469Y-130389171D02*
X131027707Y-130436790D01*
X131027707Y-130436790D02*
X131075326Y-130484409D01*
X131075326Y-130484409D02*
X131122945Y-130579647D01*
X131122945Y-130579647D02*
X131122945Y-130817742D01*
X131122945Y-130817742D02*
X131075326Y-130912980D01*
X131075326Y-130912980D02*
X131027707Y-130960600D01*
X131027707Y-130960600D02*
X130932469Y-131008219D01*
X130932469Y-131008219D02*
X130694374Y-131008219D01*
X130694374Y-131008219D02*
X130599136Y-130960600D01*
X130599136Y-130960600D02*
X130551517Y-130912980D01*
D11*
X111379000Y-89408000D02*
X131445000Y-89408000D01*
X131445000Y-113030000D01*
X111379000Y-113030000D01*
X111379000Y-89408000D01*
G36*
X111379000Y-89408000D02*
G01*
X131445000Y-89408000D01*
X131445000Y-113030000D01*
X111379000Y-113030000D01*
X111379000Y-89408000D01*
G37*
D10*
X129551517Y-160488219D02*
X130170564Y-160488219D01*
X130170564Y-160488219D02*
X129837231Y-160869171D01*
X129837231Y-160869171D02*
X129980088Y-160869171D01*
X129980088Y-160869171D02*
X130075326Y-160916790D01*
X130075326Y-160916790D02*
X130122945Y-160964409D01*
X130122945Y-160964409D02*
X130170564Y-161059647D01*
X130170564Y-161059647D02*
X130170564Y-161297742D01*
X130170564Y-161297742D02*
X130122945Y-161392980D01*
X130122945Y-161392980D02*
X130075326Y-161440600D01*
X130075326Y-161440600D02*
X129980088Y-161488219D01*
X129980088Y-161488219D02*
X129694374Y-161488219D01*
X129694374Y-161488219D02*
X129599136Y-161440600D01*
X129599136Y-161440600D02*
X129551517Y-161392980D01*
X130503898Y-160488219D02*
X131122945Y-160488219D01*
X131122945Y-160488219D02*
X130789612Y-160869171D01*
X130789612Y-160869171D02*
X130932469Y-160869171D01*
X130932469Y-160869171D02*
X131027707Y-160916790D01*
X131027707Y-160916790D02*
X131075326Y-160964409D01*
X131075326Y-160964409D02*
X131122945Y-161059647D01*
X131122945Y-161059647D02*
X131122945Y-161297742D01*
X131122945Y-161297742D02*
X131075326Y-161392980D01*
X131075326Y-161392980D02*
X131027707Y-161440600D01*
X131027707Y-161440600D02*
X130932469Y-161488219D01*
X130932469Y-161488219D02*
X130646755Y-161488219D01*
X130646755Y-161488219D02*
X130551517Y-161440600D01*
X130551517Y-161440600D02*
X130503898Y-161392980D01*
D11*
X108610375Y-162204150D02*
X113808875Y-162204150D01*
X113808875Y-164871400D01*
X108610375Y-164871400D01*
X108610375Y-162204150D01*
G36*
X108610375Y-162204150D02*
G01*
X113808875Y-162204150D01*
X113808875Y-164871400D01*
X108610375Y-164871400D01*
X108610375Y-162204150D01*
G37*
X113436375Y-162204150D02*
X128854125Y-162204150D01*
X128854125Y-162432750D01*
X113436375Y-162432750D01*
X113436375Y-162204150D01*
G36*
X113436375Y-162204150D02*
G01*
X128854125Y-162204150D01*
X128854125Y-162432750D01*
X113436375Y-162432750D01*
X113436375Y-162204150D01*
G37*
X128706125Y-162204150D02*
X134234625Y-162204150D01*
X134234625Y-164871400D01*
X128706125Y-164871400D01*
X128706125Y-162204150D01*
G36*
X128706125Y-162204150D02*
G01*
X134234625Y-162204150D01*
X134234625Y-164871400D01*
X128706125Y-164871400D01*
X128706125Y-162204150D01*
G37*
X113258625Y-164465000D02*
X129565375Y-164465000D01*
X129565375Y-164871400D01*
X113258625Y-164871400D01*
X113258625Y-164465000D01*
G36*
X113258625Y-164465000D02*
G01*
X129565375Y-164465000D01*
X129565375Y-164871400D01*
X113258625Y-164871400D01*
X113258625Y-164465000D01*
G37*
D12*
G36*
X128030537Y-162943123D02*
G01*
X128126382Y-163038968D01*
X128177180Y-163140565D01*
X128237756Y-163382865D01*
X128237756Y-163553079D01*
X128177180Y-163795379D01*
X128126382Y-163896975D01*
X128030538Y-163992819D01*
X127880080Y-164042972D01*
X127709185Y-164042972D01*
X127709185Y-162892972D01*
X127880083Y-162892972D01*
X128030537Y-162943123D01*
G37*
G36*
X118839378Y-162935298D02*
G01*
X118874001Y-162969921D01*
X118916327Y-163054573D01*
X118916327Y-163190895D01*
X118874001Y-163275547D01*
X118839378Y-163310169D01*
X118754727Y-163352496D01*
X118387756Y-163352496D01*
X118387756Y-162892972D01*
X118754727Y-162892972D01*
X118839378Y-162935298D01*
G37*
G36*
X121758212Y-163628686D02*
G01*
X121483965Y-163628686D01*
X121621088Y-163217314D01*
X121758212Y-163628686D01*
G37*
G36*
X126729641Y-163628686D02*
G01*
X126455394Y-163628686D01*
X126592517Y-163217314D01*
X126729641Y-163628686D01*
G37*
G36*
X125467950Y-162935298D02*
G01*
X125502573Y-162969921D01*
X125544899Y-163054573D01*
X125544899Y-163190895D01*
X125502573Y-163275547D01*
X125467950Y-163310169D01*
X125383299Y-163352496D01*
X125016328Y-163352496D01*
X125016328Y-162892972D01*
X125383299Y-162892972D01*
X125467950Y-162935298D01*
G37*
G36*
X128698867Y-164504083D02*
G01*
X113786669Y-164504083D01*
X113786669Y-162713708D01*
X113947780Y-162713708D01*
X113947780Y-162772236D01*
X113970178Y-162826308D01*
X114011562Y-162867692D01*
X114065634Y-162890090D01*
X114094898Y-162892972D01*
X114359183Y-162892972D01*
X114359183Y-164192972D01*
X114362065Y-164222236D01*
X114384463Y-164276308D01*
X114425847Y-164317692D01*
X114479919Y-164340090D01*
X114538447Y-164340090D01*
X114592519Y-164317692D01*
X114633903Y-164276308D01*
X114656301Y-164222236D01*
X114659183Y-164192972D01*
X114659183Y-162892972D01*
X114923469Y-162892972D01*
X114952733Y-162890090D01*
X115006805Y-162867692D01*
X115048189Y-162826308D01*
X115070587Y-162772236D01*
X115070587Y-162742972D01*
X115256803Y-162742972D01*
X115256803Y-164192972D01*
X115259685Y-164222236D01*
X115282083Y-164276308D01*
X115323467Y-164317692D01*
X115377539Y-164340090D01*
X115436067Y-164340090D01*
X115490139Y-164317692D01*
X115531523Y-164276308D01*
X115553921Y-164222236D01*
X115556803Y-164192972D01*
X115556803Y-163583448D01*
X116085374Y-163583448D01*
X116085374Y-164192972D01*
X116088256Y-164222236D01*
X116110654Y-164276308D01*
X116152038Y-164317692D01*
X116206110Y-164340090D01*
X116264638Y-164340090D01*
X116318710Y-164317692D01*
X116360094Y-164276308D01*
X116382492Y-164222236D01*
X116385374Y-164192972D01*
X116385374Y-162742972D01*
X116775851Y-162742972D01*
X116775851Y-164192972D01*
X116778733Y-164222236D01*
X116801131Y-164276308D01*
X116842515Y-164317692D01*
X116896587Y-164340090D01*
X116925851Y-164342972D01*
X117616327Y-164342972D01*
X117645591Y-164340090D01*
X117699663Y-164317692D01*
X117741047Y-164276308D01*
X117763445Y-164222236D01*
X117763445Y-164163708D01*
X117741047Y-164109636D01*
X117699663Y-164068252D01*
X117645591Y-164045854D01*
X117616327Y-164042972D01*
X117075851Y-164042972D01*
X117075851Y-163583448D01*
X117409184Y-163583448D01*
X117438448Y-163580566D01*
X117492520Y-163558168D01*
X117533904Y-163516784D01*
X117556302Y-163462712D01*
X117556302Y-163404184D01*
X117533904Y-163350112D01*
X117492520Y-163308728D01*
X117438448Y-163286330D01*
X117409184Y-163283448D01*
X117075851Y-163283448D01*
X117075851Y-162892972D01*
X117616327Y-162892972D01*
X117645591Y-162890090D01*
X117699663Y-162867692D01*
X117741047Y-162826308D01*
X117763445Y-162772236D01*
X117763445Y-162742972D01*
X118087756Y-162742972D01*
X118087756Y-164192972D01*
X118090638Y-164222236D01*
X118113036Y-164276308D01*
X118154420Y-164317692D01*
X118208492Y-164340090D01*
X118267020Y-164340090D01*
X118321092Y-164317692D01*
X118362476Y-164276308D01*
X118384874Y-164222236D01*
X118387756Y-164192972D01*
X118387756Y-163652496D01*
X118504896Y-163652496D01*
X118943442Y-164278991D01*
X118962585Y-164301312D01*
X119011942Y-164332766D01*
X119069578Y-164342936D01*
X119126719Y-164330277D01*
X119174667Y-164296714D01*
X119206121Y-164247356D01*
X119216292Y-164189721D01*
X119203632Y-164132579D01*
X119189212Y-164106952D01*
X118859284Y-163635627D01*
X118995314Y-163567612D01*
X119007907Y-163559684D01*
X119011567Y-163558169D01*
X119015686Y-163554787D01*
X119020200Y-163551947D01*
X119022796Y-163548952D01*
X119034298Y-163539514D01*
X119103345Y-163470467D01*
X119112785Y-163458964D01*
X119115778Y-163456369D01*
X119118616Y-163451859D01*
X119122000Y-163447737D01*
X119123516Y-163444074D01*
X119131443Y-163431483D01*
X119200491Y-163293387D01*
X119211001Y-163265924D01*
X119211383Y-163260546D01*
X119213445Y-163255569D01*
X119216327Y-163226305D01*
X119216327Y-163019163D01*
X119213445Y-162989899D01*
X119211383Y-162984921D01*
X119211001Y-162979544D01*
X119200491Y-162952081D01*
X119131443Y-162813985D01*
X119123516Y-162801393D01*
X119122000Y-162797731D01*
X119118616Y-162793608D01*
X119115778Y-162789099D01*
X119112785Y-162786503D01*
X119103345Y-162775001D01*
X119071316Y-162742972D01*
X119537756Y-162742972D01*
X119537756Y-164192972D01*
X119540638Y-164222236D01*
X119563036Y-164276308D01*
X119604420Y-164317692D01*
X119658492Y-164340090D01*
X119717020Y-164340090D01*
X119771092Y-164317692D01*
X119812476Y-164276308D01*
X119834874Y-164222236D01*
X119837756Y-164192972D01*
X119837756Y-163419107D01*
X120035161Y-163842119D01*
X120041510Y-163852837D01*
X120042829Y-163856464D01*
X120045178Y-163859029D01*
X120050148Y-163867419D01*
X120066960Y-163882814D01*
X120082356Y-163899627D01*
X120088397Y-163902446D01*
X120093311Y-163906946D01*
X120114734Y-163914736D01*
X120135394Y-163924377D01*
X120142051Y-163924669D01*
X120148314Y-163926947D01*
X120171089Y-163925945D01*
X120193864Y-163926947D01*
X120200126Y-163924669D01*
X120206784Y-163924377D01*
X120227439Y-163914737D01*
X120248867Y-163906946D01*
X120253782Y-163902444D01*
X120259822Y-163899626D01*
X120275214Y-163882818D01*
X120292030Y-163867419D01*
X120296999Y-163859030D01*
X120299349Y-163856464D01*
X120300668Y-163852834D01*
X120307016Y-163842119D01*
X120504422Y-163419105D01*
X120504422Y-164192972D01*
X120507304Y-164222236D01*
X120529702Y-164276308D01*
X120571086Y-164317692D01*
X120625158Y-164340090D01*
X120683686Y-164340090D01*
X120737758Y-164317692D01*
X120779142Y-164276308D01*
X120801540Y-164222236D01*
X120804422Y-164192972D01*
X120804422Y-164174212D01*
X120988934Y-164174212D01*
X120993083Y-164232592D01*
X121019257Y-164284939D01*
X121063471Y-164323286D01*
X121118996Y-164341794D01*
X121177376Y-164337645D01*
X121229723Y-164311471D01*
X121268070Y-164267257D01*
X121280059Y-164240406D01*
X121383965Y-163928686D01*
X121858212Y-163928686D01*
X121962119Y-164240406D01*
X121974108Y-164267257D01*
X122012455Y-164311471D01*
X122064802Y-164337645D01*
X122123182Y-164341794D01*
X122178707Y-164323286D01*
X122222921Y-164284939D01*
X122249095Y-164232591D01*
X122253244Y-164174211D01*
X122246724Y-164145538D01*
X121779203Y-162742972D01*
X122437756Y-162742972D01*
X122437756Y-164192972D01*
X122440638Y-164222236D01*
X122463036Y-164276308D01*
X122504420Y-164317692D01*
X122558492Y-164340090D01*
X122587756Y-164342972D01*
X123278232Y-164342972D01*
X123307496Y-164340090D01*
X123361568Y-164317692D01*
X123402952Y-164276308D01*
X123425350Y-164222236D01*
X123425350Y-164163708D01*
X123402952Y-164109636D01*
X123361568Y-164068252D01*
X123307496Y-164045854D01*
X123278232Y-164042972D01*
X122737756Y-164042972D01*
X122737756Y-162742972D01*
X124716328Y-162742972D01*
X124716328Y-164192972D01*
X124719210Y-164222236D01*
X124741608Y-164276308D01*
X124782992Y-164317692D01*
X124837064Y-164340090D01*
X124895592Y-164340090D01*
X124949664Y-164317692D01*
X124991048Y-164276308D01*
X125013446Y-164222236D01*
X125016328Y-164192972D01*
X125016328Y-164174212D01*
X125960363Y-164174212D01*
X125964512Y-164232592D01*
X125990686Y-164284939D01*
X126034900Y-164323286D01*
X126090425Y-164341794D01*
X126148805Y-164337645D01*
X126201152Y-164311471D01*
X126239499Y-164267257D01*
X126251488Y-164240406D01*
X126355394Y-163928686D01*
X126829641Y-163928686D01*
X126933548Y-164240406D01*
X126945537Y-164267257D01*
X126983884Y-164311471D01*
X127036231Y-164337645D01*
X127094611Y-164341794D01*
X127150136Y-164323286D01*
X127194350Y-164284939D01*
X127220524Y-164232591D01*
X127224673Y-164174211D01*
X127218153Y-164145538D01*
X126750632Y-162742972D01*
X127409185Y-162742972D01*
X127409185Y-164192972D01*
X127412067Y-164222236D01*
X127434465Y-164276308D01*
X127475849Y-164317692D01*
X127529921Y-164340090D01*
X127559185Y-164342972D01*
X127904423Y-164342972D01*
X127919228Y-164341513D01*
X127923183Y-164341795D01*
X127928384Y-164340612D01*
X127933687Y-164340090D01*
X127937344Y-164338574D01*
X127951857Y-164335275D01*
X128159000Y-164266228D01*
X128185851Y-164254239D01*
X128189920Y-164250709D01*
X128194902Y-164248646D01*
X128217632Y-164229991D01*
X128355728Y-164091894D01*
X128365170Y-164080388D01*
X128368160Y-164077796D01*
X128370995Y-164073291D01*
X128374383Y-164069164D01*
X128375901Y-164065498D01*
X128383825Y-164052911D01*
X128452872Y-163914815D01*
X128453689Y-163912678D01*
X128454336Y-163911806D01*
X128458725Y-163899519D01*
X128463382Y-163887352D01*
X128463458Y-163886270D01*
X128464229Y-163884115D01*
X128533277Y-163607925D01*
X128534027Y-163602852D01*
X128534874Y-163600808D01*
X128535959Y-163589788D01*
X128537579Y-163578836D01*
X128537253Y-163576647D01*
X128537756Y-163571544D01*
X128537756Y-163364401D01*
X128537253Y-163359297D01*
X128537579Y-163357110D01*
X128535959Y-163346158D01*
X128534874Y-163335137D01*
X128534027Y-163333092D01*
X128533277Y-163328020D01*
X128464229Y-163051830D01*
X128463458Y-163049674D01*
X128463382Y-163048592D01*
X128458722Y-163036417D01*
X128454336Y-163024138D01*
X128453689Y-163023265D01*
X128452872Y-163021129D01*
X128383825Y-162883033D01*
X128375898Y-162870441D01*
X128374382Y-162866780D01*
X128370998Y-162862657D01*
X128368160Y-162858148D01*
X128365168Y-162855553D01*
X128355727Y-162844049D01*
X128217632Y-162705954D01*
X128194901Y-162687299D01*
X128189921Y-162685236D01*
X128185851Y-162681706D01*
X128159000Y-162669718D01*
X127951857Y-162600670D01*
X127937349Y-162597371D01*
X127933687Y-162595854D01*
X127928378Y-162595331D01*
X127923184Y-162594150D01*
X127919234Y-162594430D01*
X127904423Y-162592972D01*
X127559185Y-162592972D01*
X127529921Y-162595854D01*
X127475849Y-162618252D01*
X127434465Y-162659636D01*
X127412067Y-162713708D01*
X127409185Y-162742972D01*
X126750632Y-162742972D01*
X126734821Y-162695538D01*
X126722832Y-162668687D01*
X126715809Y-162660590D01*
X126711017Y-162651005D01*
X126696808Y-162638681D01*
X126684485Y-162624473D01*
X126674899Y-162619680D01*
X126666803Y-162612658D01*
X126648961Y-162606710D01*
X126632138Y-162598299D01*
X126621445Y-162597539D01*
X126611278Y-162594150D01*
X126592518Y-162595483D01*
X126573758Y-162594150D01*
X126563590Y-162597539D01*
X126552898Y-162598299D01*
X126536074Y-162606710D01*
X126518233Y-162612658D01*
X126510136Y-162619680D01*
X126500551Y-162624473D01*
X126488227Y-162638681D01*
X126474019Y-162651005D01*
X126469226Y-162660590D01*
X126462204Y-162668687D01*
X126450215Y-162695538D01*
X125966882Y-164145538D01*
X125960363Y-164174212D01*
X125016328Y-164174212D01*
X125016328Y-163652496D01*
X125418709Y-163652496D01*
X125447973Y-163649614D01*
X125452953Y-163647550D01*
X125458328Y-163647169D01*
X125485791Y-163636660D01*
X125623886Y-163567612D01*
X125636479Y-163559684D01*
X125640139Y-163558169D01*
X125644258Y-163554787D01*
X125648772Y-163551947D01*
X125651368Y-163548952D01*
X125662870Y-163539514D01*
X125731917Y-163470467D01*
X125741357Y-163458964D01*
X125744350Y-163456369D01*
X125747188Y-163451859D01*
X125750572Y-163447737D01*
X125752088Y-163444074D01*
X125760015Y-163431483D01*
X125829063Y-163293387D01*
X125839573Y-163265924D01*
X125839955Y-163260546D01*
X125842017Y-163255569D01*
X125844899Y-163226305D01*
X125844899Y-163019163D01*
X125842017Y-162989899D01*
X125839955Y-162984921D01*
X125839573Y-162979544D01*
X125829063Y-162952081D01*
X125760015Y-162813985D01*
X125752088Y-162801393D01*
X125750572Y-162797731D01*
X125747188Y-162793608D01*
X125744350Y-162789099D01*
X125741357Y-162786503D01*
X125731917Y-162775001D01*
X125662870Y-162705954D01*
X125651368Y-162696515D01*
X125648772Y-162693521D01*
X125644258Y-162690680D01*
X125640139Y-162687299D01*
X125636479Y-162685783D01*
X125623886Y-162677856D01*
X125485791Y-162608808D01*
X125458328Y-162598299D01*
X125452953Y-162597917D01*
X125447973Y-162595854D01*
X125418709Y-162592972D01*
X124866328Y-162592972D01*
X124837064Y-162595854D01*
X124782992Y-162618252D01*
X124741608Y-162659636D01*
X124719210Y-162713708D01*
X124716328Y-162742972D01*
X122737756Y-162742972D01*
X122734874Y-162713708D01*
X122712476Y-162659636D01*
X122671092Y-162618252D01*
X122617020Y-162595854D01*
X122558492Y-162595854D01*
X122504420Y-162618252D01*
X122463036Y-162659636D01*
X122440638Y-162713708D01*
X122437756Y-162742972D01*
X121779203Y-162742972D01*
X121763392Y-162695538D01*
X121751403Y-162668687D01*
X121744380Y-162660590D01*
X121739588Y-162651005D01*
X121725379Y-162638681D01*
X121713056Y-162624473D01*
X121703470Y-162619680D01*
X121695374Y-162612658D01*
X121677532Y-162606710D01*
X121660709Y-162598299D01*
X121650016Y-162597539D01*
X121639849Y-162594150D01*
X121621089Y-162595483D01*
X121602329Y-162594150D01*
X121592161Y-162597539D01*
X121581469Y-162598299D01*
X121564645Y-162606710D01*
X121546804Y-162612658D01*
X121538707Y-162619680D01*
X121529122Y-162624473D01*
X121516798Y-162638681D01*
X121502590Y-162651005D01*
X121497797Y-162660590D01*
X121490775Y-162668687D01*
X121478786Y-162695538D01*
X120995453Y-164145538D01*
X120988934Y-164174212D01*
X120804422Y-164174212D01*
X120804422Y-162742972D01*
X120802527Y-162723735D01*
X120802683Y-162720197D01*
X120801991Y-162718296D01*
X120801540Y-162713708D01*
X120791578Y-162689659D01*
X120782682Y-162665194D01*
X120780422Y-162662726D01*
X120779142Y-162659636D01*
X120760738Y-162641232D01*
X120743155Y-162622032D01*
X120740123Y-162620617D01*
X120737758Y-162618252D01*
X120713703Y-162608288D01*
X120690117Y-162597281D01*
X120686776Y-162597134D01*
X120683686Y-162595854D01*
X120657651Y-162595854D01*
X120631647Y-162594711D01*
X120628504Y-162595854D01*
X120625158Y-162595854D01*
X120601109Y-162605815D01*
X120576644Y-162614712D01*
X120574176Y-162616971D01*
X120571086Y-162618252D01*
X120552688Y-162636649D01*
X120533481Y-162654239D01*
X120531129Y-162658208D01*
X120529702Y-162659636D01*
X120528348Y-162662902D01*
X120518494Y-162679539D01*
X120171088Y-163423980D01*
X119823683Y-162679539D01*
X119813829Y-162662904D01*
X119812476Y-162659636D01*
X119811047Y-162658207D01*
X119808697Y-162654239D01*
X119789489Y-162636649D01*
X119771092Y-162618252D01*
X119768001Y-162616971D01*
X119765534Y-162614712D01*
X119741068Y-162605815D01*
X119717020Y-162595854D01*
X119713674Y-162595854D01*
X119710531Y-162594711D01*
X119684527Y-162595854D01*
X119658492Y-162595854D01*
X119655401Y-162597134D01*
X119652061Y-162597281D01*
X119628465Y-162608291D01*
X119604420Y-162618252D01*
X119602056Y-162620615D01*
X119599023Y-162622031D01*
X119581433Y-162641238D01*
X119563036Y-162659636D01*
X119561755Y-162662726D01*
X119559496Y-162665194D01*
X119550599Y-162689659D01*
X119540638Y-162713708D01*
X119540186Y-162718296D01*
X119539495Y-162720197D01*
X119539650Y-162723735D01*
X119537756Y-162742972D01*
X119071316Y-162742972D01*
X119034298Y-162705954D01*
X119022796Y-162696515D01*
X119020200Y-162693521D01*
X119015686Y-162690680D01*
X119011567Y-162687299D01*
X119007907Y-162685783D01*
X118995314Y-162677856D01*
X118857219Y-162608808D01*
X118829756Y-162598299D01*
X118824381Y-162597917D01*
X118819401Y-162595854D01*
X118790137Y-162592972D01*
X118237756Y-162592972D01*
X118208492Y-162595854D01*
X118154420Y-162618252D01*
X118113036Y-162659636D01*
X118090638Y-162713708D01*
X118087756Y-162742972D01*
X117763445Y-162742972D01*
X117763445Y-162713708D01*
X117741047Y-162659636D01*
X117699663Y-162618252D01*
X117645591Y-162595854D01*
X117616327Y-162592972D01*
X116925851Y-162592972D01*
X116896587Y-162595854D01*
X116842515Y-162618252D01*
X116801131Y-162659636D01*
X116778733Y-162713708D01*
X116775851Y-162742972D01*
X116385374Y-162742972D01*
X116382492Y-162713708D01*
X116360094Y-162659636D01*
X116318710Y-162618252D01*
X116264638Y-162595854D01*
X116206110Y-162595854D01*
X116152038Y-162618252D01*
X116110654Y-162659636D01*
X116088256Y-162713708D01*
X116085374Y-162742972D01*
X116085374Y-163283448D01*
X115556803Y-163283448D01*
X115556803Y-162742972D01*
X115553921Y-162713708D01*
X115531523Y-162659636D01*
X115490139Y-162618252D01*
X115436067Y-162595854D01*
X115377539Y-162595854D01*
X115323467Y-162618252D01*
X115282083Y-162659636D01*
X115259685Y-162713708D01*
X115256803Y-162742972D01*
X115070587Y-162742972D01*
X115070587Y-162713708D01*
X115048189Y-162659636D01*
X115006805Y-162618252D01*
X114952733Y-162595854D01*
X114923469Y-162592972D01*
X114094898Y-162592972D01*
X114065634Y-162595854D01*
X114011562Y-162618252D01*
X113970178Y-162659636D01*
X113947780Y-162713708D01*
X113786669Y-162713708D01*
X113786669Y-162431861D01*
X128698867Y-162431861D01*
X128698867Y-164504083D01*
G37*
D11*
X108712000Y-78549375D02*
X113910500Y-78549375D01*
X113910500Y-81216625D01*
X108712000Y-81216625D01*
X108712000Y-78549375D01*
G36*
X108712000Y-78549375D02*
G01*
X113910500Y-78549375D01*
X113910500Y-81216625D01*
X108712000Y-81216625D01*
X108712000Y-78549375D01*
G37*
X113538000Y-78549375D02*
X128955750Y-78549375D01*
X128955750Y-78777975D01*
X113538000Y-78777975D01*
X113538000Y-78549375D01*
G36*
X113538000Y-78549375D02*
G01*
X128955750Y-78549375D01*
X128955750Y-78777975D01*
X113538000Y-78777975D01*
X113538000Y-78549375D01*
G37*
X113360250Y-80810225D02*
X129667000Y-80810225D01*
X129667000Y-81216625D01*
X113360250Y-81216625D01*
X113360250Y-80810225D01*
G36*
X113360250Y-80810225D02*
G01*
X129667000Y-80810225D01*
X129667000Y-81216625D01*
X113360250Y-81216625D01*
X113360250Y-80810225D01*
G37*
X111379000Y-132524500D02*
X131445000Y-132524500D01*
X131445000Y-156146500D01*
X111379000Y-156146500D01*
X111379000Y-132524500D01*
G36*
X111379000Y-132524500D02*
G01*
X131445000Y-132524500D01*
X131445000Y-156146500D01*
X111379000Y-156146500D01*
X111379000Y-132524500D01*
G37*
X128807750Y-78549375D02*
X134209250Y-78549375D01*
X134209250Y-81216625D01*
X128807750Y-81216625D01*
X128807750Y-78549375D01*
G36*
X128807750Y-78549375D02*
G01*
X134209250Y-78549375D01*
X134209250Y-81216625D01*
X128807750Y-81216625D01*
X128807750Y-78549375D01*
G37*
D10*
X130075326Y-81748219D02*
X129884850Y-81748219D01*
X129884850Y-81748219D02*
X129789612Y-81795838D01*
X129789612Y-81795838D02*
X129741993Y-81843457D01*
X129741993Y-81843457D02*
X129646755Y-81986314D01*
X129646755Y-81986314D02*
X129599136Y-82176790D01*
X129599136Y-82176790D02*
X129599136Y-82557742D01*
X129599136Y-82557742D02*
X129646755Y-82652980D01*
X129646755Y-82652980D02*
X129694374Y-82700600D01*
X129694374Y-82700600D02*
X129789612Y-82748219D01*
X129789612Y-82748219D02*
X129980088Y-82748219D01*
X129980088Y-82748219D02*
X130075326Y-82700600D01*
X130075326Y-82700600D02*
X130122945Y-82652980D01*
X130122945Y-82652980D02*
X130170564Y-82557742D01*
X130170564Y-82557742D02*
X130170564Y-82319647D01*
X130170564Y-82319647D02*
X130122945Y-82224409D01*
X130122945Y-82224409D02*
X130075326Y-82176790D01*
X130075326Y-82176790D02*
X129980088Y-82129171D01*
X129980088Y-82129171D02*
X129789612Y-82129171D01*
X129789612Y-82129171D02*
X129694374Y-82176790D01*
X129694374Y-82176790D02*
X129646755Y-82224409D01*
X129646755Y-82224409D02*
X129599136Y-82319647D01*
X131027707Y-82081552D02*
X131027707Y-82748219D01*
X130789612Y-81700600D02*
X130551517Y-82414885D01*
X130551517Y-82414885D02*
X131170564Y-82414885D01*
D12*
G36*
X128132162Y-79288348D02*
G01*
X128228007Y-79384193D01*
X128278805Y-79485790D01*
X128339381Y-79728090D01*
X128339381Y-79898304D01*
X128278805Y-80140604D01*
X128228007Y-80242200D01*
X128132163Y-80338044D01*
X127981705Y-80388197D01*
X127810810Y-80388197D01*
X127810810Y-79238197D01*
X127981708Y-79238197D01*
X128132162Y-79288348D01*
G37*
G36*
X118941003Y-79280523D02*
G01*
X118975626Y-79315146D01*
X119017952Y-79399798D01*
X119017952Y-79536120D01*
X118975626Y-79620772D01*
X118941003Y-79655394D01*
X118856352Y-79697721D01*
X118489381Y-79697721D01*
X118489381Y-79238197D01*
X118856352Y-79238197D01*
X118941003Y-79280523D01*
G37*
G36*
X121859837Y-79973911D02*
G01*
X121585590Y-79973911D01*
X121722713Y-79562539D01*
X121859837Y-79973911D01*
G37*
G36*
X126831266Y-79973911D02*
G01*
X126557019Y-79973911D01*
X126694142Y-79562539D01*
X126831266Y-79973911D01*
G37*
G36*
X125569575Y-79280523D02*
G01*
X125604198Y-79315146D01*
X125646524Y-79399798D01*
X125646524Y-79536120D01*
X125604198Y-79620772D01*
X125569575Y-79655394D01*
X125484924Y-79697721D01*
X125117953Y-79697721D01*
X125117953Y-79238197D01*
X125484924Y-79238197D01*
X125569575Y-79280523D01*
G37*
G36*
X128800492Y-80849308D02*
G01*
X113888294Y-80849308D01*
X113888294Y-79058933D01*
X114049405Y-79058933D01*
X114049405Y-79117461D01*
X114071803Y-79171533D01*
X114113187Y-79212917D01*
X114167259Y-79235315D01*
X114196523Y-79238197D01*
X114460808Y-79238197D01*
X114460808Y-80538197D01*
X114463690Y-80567461D01*
X114486088Y-80621533D01*
X114527472Y-80662917D01*
X114581544Y-80685315D01*
X114640072Y-80685315D01*
X114694144Y-80662917D01*
X114735528Y-80621533D01*
X114757926Y-80567461D01*
X114760808Y-80538197D01*
X114760808Y-79238197D01*
X115025094Y-79238197D01*
X115054358Y-79235315D01*
X115108430Y-79212917D01*
X115149814Y-79171533D01*
X115172212Y-79117461D01*
X115172212Y-79088197D01*
X115358428Y-79088197D01*
X115358428Y-80538197D01*
X115361310Y-80567461D01*
X115383708Y-80621533D01*
X115425092Y-80662917D01*
X115479164Y-80685315D01*
X115537692Y-80685315D01*
X115591764Y-80662917D01*
X115633148Y-80621533D01*
X115655546Y-80567461D01*
X115658428Y-80538197D01*
X115658428Y-79928673D01*
X116186999Y-79928673D01*
X116186999Y-80538197D01*
X116189881Y-80567461D01*
X116212279Y-80621533D01*
X116253663Y-80662917D01*
X116307735Y-80685315D01*
X116366263Y-80685315D01*
X116420335Y-80662917D01*
X116461719Y-80621533D01*
X116484117Y-80567461D01*
X116486999Y-80538197D01*
X116486999Y-79088197D01*
X116877476Y-79088197D01*
X116877476Y-80538197D01*
X116880358Y-80567461D01*
X116902756Y-80621533D01*
X116944140Y-80662917D01*
X116998212Y-80685315D01*
X117027476Y-80688197D01*
X117717952Y-80688197D01*
X117747216Y-80685315D01*
X117801288Y-80662917D01*
X117842672Y-80621533D01*
X117865070Y-80567461D01*
X117865070Y-80508933D01*
X117842672Y-80454861D01*
X117801288Y-80413477D01*
X117747216Y-80391079D01*
X117717952Y-80388197D01*
X117177476Y-80388197D01*
X117177476Y-79928673D01*
X117510809Y-79928673D01*
X117540073Y-79925791D01*
X117594145Y-79903393D01*
X117635529Y-79862009D01*
X117657927Y-79807937D01*
X117657927Y-79749409D01*
X117635529Y-79695337D01*
X117594145Y-79653953D01*
X117540073Y-79631555D01*
X117510809Y-79628673D01*
X117177476Y-79628673D01*
X117177476Y-79238197D01*
X117717952Y-79238197D01*
X117747216Y-79235315D01*
X117801288Y-79212917D01*
X117842672Y-79171533D01*
X117865070Y-79117461D01*
X117865070Y-79088197D01*
X118189381Y-79088197D01*
X118189381Y-80538197D01*
X118192263Y-80567461D01*
X118214661Y-80621533D01*
X118256045Y-80662917D01*
X118310117Y-80685315D01*
X118368645Y-80685315D01*
X118422717Y-80662917D01*
X118464101Y-80621533D01*
X118486499Y-80567461D01*
X118489381Y-80538197D01*
X118489381Y-79997721D01*
X118606521Y-79997721D01*
X119045067Y-80624216D01*
X119064210Y-80646537D01*
X119113567Y-80677991D01*
X119171203Y-80688161D01*
X119228344Y-80675502D01*
X119276292Y-80641939D01*
X119307746Y-80592581D01*
X119317917Y-80534946D01*
X119305257Y-80477804D01*
X119290837Y-80452177D01*
X118960909Y-79980852D01*
X119096939Y-79912837D01*
X119109532Y-79904909D01*
X119113192Y-79903394D01*
X119117311Y-79900012D01*
X119121825Y-79897172D01*
X119124421Y-79894177D01*
X119135923Y-79884739D01*
X119204970Y-79815692D01*
X119214410Y-79804189D01*
X119217403Y-79801594D01*
X119220241Y-79797084D01*
X119223625Y-79792962D01*
X119225141Y-79789299D01*
X119233068Y-79776708D01*
X119302116Y-79638612D01*
X119312626Y-79611149D01*
X119313008Y-79605771D01*
X119315070Y-79600794D01*
X119317952Y-79571530D01*
X119317952Y-79364388D01*
X119315070Y-79335124D01*
X119313008Y-79330146D01*
X119312626Y-79324769D01*
X119302116Y-79297306D01*
X119233068Y-79159210D01*
X119225141Y-79146618D01*
X119223625Y-79142956D01*
X119220241Y-79138833D01*
X119217403Y-79134324D01*
X119214410Y-79131728D01*
X119204970Y-79120226D01*
X119172941Y-79088197D01*
X119639381Y-79088197D01*
X119639381Y-80538197D01*
X119642263Y-80567461D01*
X119664661Y-80621533D01*
X119706045Y-80662917D01*
X119760117Y-80685315D01*
X119818645Y-80685315D01*
X119872717Y-80662917D01*
X119914101Y-80621533D01*
X119936499Y-80567461D01*
X119939381Y-80538197D01*
X119939381Y-79764332D01*
X120136786Y-80187344D01*
X120143135Y-80198062D01*
X120144454Y-80201689D01*
X120146803Y-80204254D01*
X120151773Y-80212644D01*
X120168585Y-80228039D01*
X120183981Y-80244852D01*
X120190022Y-80247671D01*
X120194936Y-80252171D01*
X120216359Y-80259961D01*
X120237019Y-80269602D01*
X120243676Y-80269894D01*
X120249939Y-80272172D01*
X120272714Y-80271170D01*
X120295489Y-80272172D01*
X120301751Y-80269894D01*
X120308409Y-80269602D01*
X120329064Y-80259962D01*
X120350492Y-80252171D01*
X120355407Y-80247669D01*
X120361447Y-80244851D01*
X120376839Y-80228043D01*
X120393655Y-80212644D01*
X120398624Y-80204255D01*
X120400974Y-80201689D01*
X120402293Y-80198059D01*
X120408641Y-80187344D01*
X120606047Y-79764330D01*
X120606047Y-80538197D01*
X120608929Y-80567461D01*
X120631327Y-80621533D01*
X120672711Y-80662917D01*
X120726783Y-80685315D01*
X120785311Y-80685315D01*
X120839383Y-80662917D01*
X120880767Y-80621533D01*
X120903165Y-80567461D01*
X120906047Y-80538197D01*
X120906047Y-80519437D01*
X121090559Y-80519437D01*
X121094708Y-80577817D01*
X121120882Y-80630164D01*
X121165096Y-80668511D01*
X121220621Y-80687019D01*
X121279001Y-80682870D01*
X121331348Y-80656696D01*
X121369695Y-80612482D01*
X121381684Y-80585631D01*
X121485590Y-80273911D01*
X121959837Y-80273911D01*
X122063744Y-80585631D01*
X122075733Y-80612482D01*
X122114080Y-80656696D01*
X122166427Y-80682870D01*
X122224807Y-80687019D01*
X122280332Y-80668511D01*
X122324546Y-80630164D01*
X122350720Y-80577816D01*
X122354869Y-80519436D01*
X122348349Y-80490763D01*
X121880828Y-79088197D01*
X122539381Y-79088197D01*
X122539381Y-80538197D01*
X122542263Y-80567461D01*
X122564661Y-80621533D01*
X122606045Y-80662917D01*
X122660117Y-80685315D01*
X122689381Y-80688197D01*
X123379857Y-80688197D01*
X123409121Y-80685315D01*
X123463193Y-80662917D01*
X123504577Y-80621533D01*
X123526975Y-80567461D01*
X123526975Y-80508933D01*
X123504577Y-80454861D01*
X123463193Y-80413477D01*
X123409121Y-80391079D01*
X123379857Y-80388197D01*
X122839381Y-80388197D01*
X122839381Y-79088197D01*
X124817953Y-79088197D01*
X124817953Y-80538197D01*
X124820835Y-80567461D01*
X124843233Y-80621533D01*
X124884617Y-80662917D01*
X124938689Y-80685315D01*
X124997217Y-80685315D01*
X125051289Y-80662917D01*
X125092673Y-80621533D01*
X125115071Y-80567461D01*
X125117953Y-80538197D01*
X125117953Y-80519437D01*
X126061988Y-80519437D01*
X126066137Y-80577817D01*
X126092311Y-80630164D01*
X126136525Y-80668511D01*
X126192050Y-80687019D01*
X126250430Y-80682870D01*
X126302777Y-80656696D01*
X126341124Y-80612482D01*
X126353113Y-80585631D01*
X126457019Y-80273911D01*
X126931266Y-80273911D01*
X127035173Y-80585631D01*
X127047162Y-80612482D01*
X127085509Y-80656696D01*
X127137856Y-80682870D01*
X127196236Y-80687019D01*
X127251761Y-80668511D01*
X127295975Y-80630164D01*
X127322149Y-80577816D01*
X127326298Y-80519436D01*
X127319778Y-80490763D01*
X126852257Y-79088197D01*
X127510810Y-79088197D01*
X127510810Y-80538197D01*
X127513692Y-80567461D01*
X127536090Y-80621533D01*
X127577474Y-80662917D01*
X127631546Y-80685315D01*
X127660810Y-80688197D01*
X128006048Y-80688197D01*
X128020853Y-80686738D01*
X128024808Y-80687020D01*
X128030009Y-80685837D01*
X128035312Y-80685315D01*
X128038969Y-80683799D01*
X128053482Y-80680500D01*
X128260625Y-80611453D01*
X128287476Y-80599464D01*
X128291545Y-80595934D01*
X128296527Y-80593871D01*
X128319257Y-80575216D01*
X128457353Y-80437119D01*
X128466795Y-80425613D01*
X128469785Y-80423021D01*
X128472620Y-80418516D01*
X128476008Y-80414389D01*
X128477526Y-80410723D01*
X128485450Y-80398136D01*
X128554497Y-80260040D01*
X128555314Y-80257903D01*
X128555961Y-80257031D01*
X128560350Y-80244744D01*
X128565007Y-80232577D01*
X128565083Y-80231495D01*
X128565854Y-80229340D01*
X128634902Y-79953150D01*
X128635652Y-79948077D01*
X128636499Y-79946033D01*
X128637584Y-79935013D01*
X128639204Y-79924061D01*
X128638878Y-79921872D01*
X128639381Y-79916769D01*
X128639381Y-79709626D01*
X128638878Y-79704522D01*
X128639204Y-79702335D01*
X128637584Y-79691383D01*
X128636499Y-79680362D01*
X128635652Y-79678317D01*
X128634902Y-79673245D01*
X128565854Y-79397055D01*
X128565083Y-79394899D01*
X128565007Y-79393817D01*
X128560347Y-79381642D01*
X128555961Y-79369363D01*
X128555314Y-79368490D01*
X128554497Y-79366354D01*
X128485450Y-79228258D01*
X128477523Y-79215666D01*
X128476007Y-79212005D01*
X128472623Y-79207882D01*
X128469785Y-79203373D01*
X128466793Y-79200778D01*
X128457352Y-79189274D01*
X128319257Y-79051179D01*
X128296526Y-79032524D01*
X128291546Y-79030461D01*
X128287476Y-79026931D01*
X128260625Y-79014943D01*
X128053482Y-78945895D01*
X128038974Y-78942596D01*
X128035312Y-78941079D01*
X128030003Y-78940556D01*
X128024809Y-78939375D01*
X128020859Y-78939655D01*
X128006048Y-78938197D01*
X127660810Y-78938197D01*
X127631546Y-78941079D01*
X127577474Y-78963477D01*
X127536090Y-79004861D01*
X127513692Y-79058933D01*
X127510810Y-79088197D01*
X126852257Y-79088197D01*
X126836446Y-79040763D01*
X126824457Y-79013912D01*
X126817434Y-79005815D01*
X126812642Y-78996230D01*
X126798433Y-78983906D01*
X126786110Y-78969698D01*
X126776524Y-78964905D01*
X126768428Y-78957883D01*
X126750586Y-78951935D01*
X126733763Y-78943524D01*
X126723070Y-78942764D01*
X126712903Y-78939375D01*
X126694143Y-78940708D01*
X126675383Y-78939375D01*
X126665215Y-78942764D01*
X126654523Y-78943524D01*
X126637699Y-78951935D01*
X126619858Y-78957883D01*
X126611761Y-78964905D01*
X126602176Y-78969698D01*
X126589852Y-78983906D01*
X126575644Y-78996230D01*
X126570851Y-79005815D01*
X126563829Y-79013912D01*
X126551840Y-79040763D01*
X126068507Y-80490763D01*
X126061988Y-80519437D01*
X125117953Y-80519437D01*
X125117953Y-79997721D01*
X125520334Y-79997721D01*
X125549598Y-79994839D01*
X125554578Y-79992775D01*
X125559953Y-79992394D01*
X125587416Y-79981885D01*
X125725511Y-79912837D01*
X125738104Y-79904909D01*
X125741764Y-79903394D01*
X125745883Y-79900012D01*
X125750397Y-79897172D01*
X125752993Y-79894177D01*
X125764495Y-79884739D01*
X125833542Y-79815692D01*
X125842982Y-79804189D01*
X125845975Y-79801594D01*
X125848813Y-79797084D01*
X125852197Y-79792962D01*
X125853713Y-79789299D01*
X125861640Y-79776708D01*
X125930688Y-79638612D01*
X125941198Y-79611149D01*
X125941580Y-79605771D01*
X125943642Y-79600794D01*
X125946524Y-79571530D01*
X125946524Y-79364388D01*
X125943642Y-79335124D01*
X125941580Y-79330146D01*
X125941198Y-79324769D01*
X125930688Y-79297306D01*
X125861640Y-79159210D01*
X125853713Y-79146618D01*
X125852197Y-79142956D01*
X125848813Y-79138833D01*
X125845975Y-79134324D01*
X125842982Y-79131728D01*
X125833542Y-79120226D01*
X125764495Y-79051179D01*
X125752993Y-79041740D01*
X125750397Y-79038746D01*
X125745883Y-79035905D01*
X125741764Y-79032524D01*
X125738104Y-79031008D01*
X125725511Y-79023081D01*
X125587416Y-78954033D01*
X125559953Y-78943524D01*
X125554578Y-78943142D01*
X125549598Y-78941079D01*
X125520334Y-78938197D01*
X124967953Y-78938197D01*
X124938689Y-78941079D01*
X124884617Y-78963477D01*
X124843233Y-79004861D01*
X124820835Y-79058933D01*
X124817953Y-79088197D01*
X122839381Y-79088197D01*
X122836499Y-79058933D01*
X122814101Y-79004861D01*
X122772717Y-78963477D01*
X122718645Y-78941079D01*
X122660117Y-78941079D01*
X122606045Y-78963477D01*
X122564661Y-79004861D01*
X122542263Y-79058933D01*
X122539381Y-79088197D01*
X121880828Y-79088197D01*
X121865017Y-79040763D01*
X121853028Y-79013912D01*
X121846005Y-79005815D01*
X121841213Y-78996230D01*
X121827004Y-78983906D01*
X121814681Y-78969698D01*
X121805095Y-78964905D01*
X121796999Y-78957883D01*
X121779157Y-78951935D01*
X121762334Y-78943524D01*
X121751641Y-78942764D01*
X121741474Y-78939375D01*
X121722714Y-78940708D01*
X121703954Y-78939375D01*
X121693786Y-78942764D01*
X121683094Y-78943524D01*
X121666270Y-78951935D01*
X121648429Y-78957883D01*
X121640332Y-78964905D01*
X121630747Y-78969698D01*
X121618423Y-78983906D01*
X121604215Y-78996230D01*
X121599422Y-79005815D01*
X121592400Y-79013912D01*
X121580411Y-79040763D01*
X121097078Y-80490763D01*
X121090559Y-80519437D01*
X120906047Y-80519437D01*
X120906047Y-79088197D01*
X120904152Y-79068960D01*
X120904308Y-79065422D01*
X120903616Y-79063521D01*
X120903165Y-79058933D01*
X120893203Y-79034884D01*
X120884307Y-79010419D01*
X120882047Y-79007951D01*
X120880767Y-79004861D01*
X120862363Y-78986457D01*
X120844780Y-78967257D01*
X120841748Y-78965842D01*
X120839383Y-78963477D01*
X120815328Y-78953513D01*
X120791742Y-78942506D01*
X120788401Y-78942359D01*
X120785311Y-78941079D01*
X120759276Y-78941079D01*
X120733272Y-78939936D01*
X120730129Y-78941079D01*
X120726783Y-78941079D01*
X120702734Y-78951040D01*
X120678269Y-78959937D01*
X120675801Y-78962196D01*
X120672711Y-78963477D01*
X120654313Y-78981874D01*
X120635106Y-78999464D01*
X120632754Y-79003433D01*
X120631327Y-79004861D01*
X120629973Y-79008127D01*
X120620119Y-79024764D01*
X120272713Y-79769205D01*
X119925308Y-79024764D01*
X119915454Y-79008129D01*
X119914101Y-79004861D01*
X119912672Y-79003432D01*
X119910322Y-78999464D01*
X119891114Y-78981874D01*
X119872717Y-78963477D01*
X119869626Y-78962196D01*
X119867159Y-78959937D01*
X119842693Y-78951040D01*
X119818645Y-78941079D01*
X119815299Y-78941079D01*
X119812156Y-78939936D01*
X119786152Y-78941079D01*
X119760117Y-78941079D01*
X119757026Y-78942359D01*
X119753686Y-78942506D01*
X119730090Y-78953516D01*
X119706045Y-78963477D01*
X119703681Y-78965840D01*
X119700648Y-78967256D01*
X119683058Y-78986463D01*
X119664661Y-79004861D01*
X119663380Y-79007951D01*
X119661121Y-79010419D01*
X119652224Y-79034884D01*
X119642263Y-79058933D01*
X119641811Y-79063521D01*
X119641120Y-79065422D01*
X119641275Y-79068960D01*
X119639381Y-79088197D01*
X119172941Y-79088197D01*
X119135923Y-79051179D01*
X119124421Y-79041740D01*
X119121825Y-79038746D01*
X119117311Y-79035905D01*
X119113192Y-79032524D01*
X119109532Y-79031008D01*
X119096939Y-79023081D01*
X118958844Y-78954033D01*
X118931381Y-78943524D01*
X118926006Y-78943142D01*
X118921026Y-78941079D01*
X118891762Y-78938197D01*
X118339381Y-78938197D01*
X118310117Y-78941079D01*
X118256045Y-78963477D01*
X118214661Y-79004861D01*
X118192263Y-79058933D01*
X118189381Y-79088197D01*
X117865070Y-79088197D01*
X117865070Y-79058933D01*
X117842672Y-79004861D01*
X117801288Y-78963477D01*
X117747216Y-78941079D01*
X117717952Y-78938197D01*
X117027476Y-78938197D01*
X116998212Y-78941079D01*
X116944140Y-78963477D01*
X116902756Y-79004861D01*
X116880358Y-79058933D01*
X116877476Y-79088197D01*
X116486999Y-79088197D01*
X116484117Y-79058933D01*
X116461719Y-79004861D01*
X116420335Y-78963477D01*
X116366263Y-78941079D01*
X116307735Y-78941079D01*
X116253663Y-78963477D01*
X116212279Y-79004861D01*
X116189881Y-79058933D01*
X116186999Y-79088197D01*
X116186999Y-79628673D01*
X115658428Y-79628673D01*
X115658428Y-79088197D01*
X115655546Y-79058933D01*
X115633148Y-79004861D01*
X115591764Y-78963477D01*
X115537692Y-78941079D01*
X115479164Y-78941079D01*
X115425092Y-78963477D01*
X115383708Y-79004861D01*
X115361310Y-79058933D01*
X115358428Y-79088197D01*
X115172212Y-79088197D01*
X115172212Y-79058933D01*
X115149814Y-79004861D01*
X115108430Y-78963477D01*
X115054358Y-78941079D01*
X115025094Y-78938197D01*
X114196523Y-78938197D01*
X114167259Y-78941079D01*
X114113187Y-78963477D01*
X114071803Y-79004861D01*
X114049405Y-79058933D01*
X113888294Y-79058933D01*
X113888294Y-78777086D01*
X128800492Y-78777086D01*
X128800492Y-80849308D01*
G37*
D10*
X112272482Y-82748219D02*
X111701054Y-82748219D01*
X111986768Y-82748219D02*
X111986768Y-81748219D01*
X111986768Y-81748219D02*
X111891530Y-81891076D01*
X111891530Y-81891076D02*
X111796292Y-81986314D01*
X111796292Y-81986314D02*
X111701054Y-82033933D01*
X119269142Y-158032569D02*
X119173904Y-157984950D01*
X119173904Y-157984950D02*
X119078666Y-157889712D01*
X119078666Y-157889712D02*
X118935809Y-157746854D01*
X118935809Y-157746854D02*
X118840571Y-157699235D01*
X118840571Y-157699235D02*
X118745333Y-157699235D01*
X118792952Y-157937331D02*
X118697714Y-157889712D01*
X118697714Y-157889712D02*
X118602476Y-157794473D01*
X118602476Y-157794473D02*
X118554857Y-157603997D01*
X118554857Y-157603997D02*
X118554857Y-157270664D01*
X118554857Y-157270664D02*
X118602476Y-157080188D01*
X118602476Y-157080188D02*
X118697714Y-156984950D01*
X118697714Y-156984950D02*
X118792952Y-156937331D01*
X118792952Y-156937331D02*
X118983428Y-156937331D01*
X118983428Y-156937331D02*
X119078666Y-156984950D01*
X119078666Y-156984950D02*
X119173904Y-157080188D01*
X119173904Y-157080188D02*
X119221523Y-157270664D01*
X119221523Y-157270664D02*
X119221523Y-157603997D01*
X119221523Y-157603997D02*
X119173904Y-157794473D01*
X119173904Y-157794473D02*
X119078666Y-157889712D01*
X119078666Y-157889712D02*
X118983428Y-157937331D01*
X118983428Y-157937331D02*
X118792952Y-157937331D01*
X119983428Y-157413521D02*
X119650095Y-157413521D01*
X119650095Y-157937331D02*
X119650095Y-156937331D01*
X119650095Y-156937331D02*
X120126285Y-156937331D01*
X120507238Y-157937331D02*
X120507238Y-156937331D01*
X120507238Y-156937331D02*
X121078666Y-157937331D01*
X121078666Y-157937331D02*
X121078666Y-156937331D01*
X121554857Y-157556378D02*
X122316762Y-157556378D01*
X123221523Y-156937331D02*
X123031047Y-156937331D01*
X123031047Y-156937331D02*
X122935809Y-156984950D01*
X122935809Y-156984950D02*
X122888190Y-157032569D01*
X122888190Y-157032569D02*
X122792952Y-157175426D01*
X122792952Y-157175426D02*
X122745333Y-157365902D01*
X122745333Y-157365902D02*
X122745333Y-157746854D01*
X122745333Y-157746854D02*
X122792952Y-157842092D01*
X122792952Y-157842092D02*
X122840571Y-157889712D01*
X122840571Y-157889712D02*
X122935809Y-157937331D01*
X122935809Y-157937331D02*
X123126285Y-157937331D01*
X123126285Y-157937331D02*
X123221523Y-157889712D01*
X123221523Y-157889712D02*
X123269142Y-157842092D01*
X123269142Y-157842092D02*
X123316761Y-157746854D01*
X123316761Y-157746854D02*
X123316761Y-157508759D01*
X123316761Y-157508759D02*
X123269142Y-157413521D01*
X123269142Y-157413521D02*
X123221523Y-157365902D01*
X123221523Y-157365902D02*
X123126285Y-157318283D01*
X123126285Y-157318283D02*
X122935809Y-157318283D01*
X122935809Y-157318283D02*
X122840571Y-157365902D01*
X122840571Y-157365902D02*
X122792952Y-157413521D01*
X122792952Y-157413521D02*
X122745333Y-157508759D01*
X124173904Y-157270664D02*
X124173904Y-157937331D01*
X123935809Y-156889712D02*
X123697714Y-157603997D01*
X123697714Y-157603997D02*
X124316761Y-157603997D01*
X119007238Y-159547275D02*
X119197714Y-159547275D01*
X119197714Y-159547275D02*
X119292952Y-159499656D01*
X119292952Y-159499656D02*
X119340571Y-159452036D01*
X119340571Y-159452036D02*
X119435809Y-159309179D01*
X119435809Y-159309179D02*
X119483428Y-159118703D01*
X119483428Y-159118703D02*
X119483428Y-158737751D01*
X119483428Y-158737751D02*
X119435809Y-158642513D01*
X119435809Y-158642513D02*
X119388190Y-158594894D01*
X119388190Y-158594894D02*
X119292952Y-158547275D01*
X119292952Y-158547275D02*
X119102476Y-158547275D01*
X119102476Y-158547275D02*
X119007238Y-158594894D01*
X119007238Y-158594894D02*
X118959619Y-158642513D01*
X118959619Y-158642513D02*
X118912000Y-158737751D01*
X118912000Y-158737751D02*
X118912000Y-158975846D01*
X118912000Y-158975846D02*
X118959619Y-159071084D01*
X118959619Y-159071084D02*
X119007238Y-159118703D01*
X119007238Y-159118703D02*
X119102476Y-159166322D01*
X119102476Y-159166322D02*
X119292952Y-159166322D01*
X119292952Y-159166322D02*
X119388190Y-159118703D01*
X119388190Y-159118703D02*
X119435809Y-159071084D01*
X119435809Y-159071084D02*
X119483428Y-158975846D01*
X119816762Y-159547275D02*
X120340571Y-158880608D01*
X119816762Y-158880608D02*
X120340571Y-159547275D01*
X120769143Y-159547275D02*
X120959619Y-159547275D01*
X120959619Y-159547275D02*
X121054857Y-159499656D01*
X121054857Y-159499656D02*
X121102476Y-159452036D01*
X121102476Y-159452036D02*
X121197714Y-159309179D01*
X121197714Y-159309179D02*
X121245333Y-159118703D01*
X121245333Y-159118703D02*
X121245333Y-158737751D01*
X121245333Y-158737751D02*
X121197714Y-158642513D01*
X121197714Y-158642513D02*
X121150095Y-158594894D01*
X121150095Y-158594894D02*
X121054857Y-158547275D01*
X121054857Y-158547275D02*
X120864381Y-158547275D01*
X120864381Y-158547275D02*
X120769143Y-158594894D01*
X120769143Y-158594894D02*
X120721524Y-158642513D01*
X120721524Y-158642513D02*
X120673905Y-158737751D01*
X120673905Y-158737751D02*
X120673905Y-158975846D01*
X120673905Y-158975846D02*
X120721524Y-159071084D01*
X120721524Y-159071084D02*
X120769143Y-159118703D01*
X120769143Y-159118703D02*
X120864381Y-159166322D01*
X120864381Y-159166322D02*
X121054857Y-159166322D01*
X121054857Y-159166322D02*
X121150095Y-159118703D01*
X121150095Y-159118703D02*
X121197714Y-159071084D01*
X121197714Y-159071084D02*
X121245333Y-158975846D01*
X121673905Y-159547275D02*
X121673905Y-158880608D01*
X121673905Y-158975846D02*
X121721524Y-158928227D01*
X121721524Y-158928227D02*
X121816762Y-158880608D01*
X121816762Y-158880608D02*
X121959619Y-158880608D01*
X121959619Y-158880608D02*
X122054857Y-158928227D01*
X122054857Y-158928227D02*
X122102476Y-159023465D01*
X122102476Y-159023465D02*
X122102476Y-159547275D01*
X122102476Y-159023465D02*
X122150095Y-158928227D01*
X122150095Y-158928227D02*
X122245333Y-158880608D01*
X122245333Y-158880608D02*
X122388190Y-158880608D01*
X122388190Y-158880608D02*
X122483429Y-158928227D01*
X122483429Y-158928227D02*
X122531048Y-159023465D01*
X122531048Y-159023465D02*
X122531048Y-159547275D01*
X123007238Y-159547275D02*
X123007238Y-158880608D01*
X123007238Y-158975846D02*
X123054857Y-158928227D01*
X123054857Y-158928227D02*
X123150095Y-158880608D01*
X123150095Y-158880608D02*
X123292952Y-158880608D01*
X123292952Y-158880608D02*
X123388190Y-158928227D01*
X123388190Y-158928227D02*
X123435809Y-159023465D01*
X123435809Y-159023465D02*
X123435809Y-159547275D01*
X123435809Y-159023465D02*
X123483428Y-158928227D01*
X123483428Y-158928227D02*
X123578666Y-158880608D01*
X123578666Y-158880608D02*
X123721523Y-158880608D01*
X123721523Y-158880608D02*
X123816762Y-158928227D01*
X123816762Y-158928227D02*
X123864381Y-159023465D01*
X123864381Y-159023465D02*
X123864381Y-159547275D01*
X117031048Y-160157219D02*
X117126286Y-160157219D01*
X117126286Y-160157219D02*
X117221524Y-160204838D01*
X117221524Y-160204838D02*
X117269143Y-160252457D01*
X117269143Y-160252457D02*
X117316762Y-160347695D01*
X117316762Y-160347695D02*
X117364381Y-160538171D01*
X117364381Y-160538171D02*
X117364381Y-160776266D01*
X117364381Y-160776266D02*
X117316762Y-160966742D01*
X117316762Y-160966742D02*
X117269143Y-161061980D01*
X117269143Y-161061980D02*
X117221524Y-161109600D01*
X117221524Y-161109600D02*
X117126286Y-161157219D01*
X117126286Y-161157219D02*
X117031048Y-161157219D01*
X117031048Y-161157219D02*
X116935810Y-161109600D01*
X116935810Y-161109600D02*
X116888191Y-161061980D01*
X116888191Y-161061980D02*
X116840572Y-160966742D01*
X116840572Y-160966742D02*
X116792953Y-160776266D01*
X116792953Y-160776266D02*
X116792953Y-160538171D01*
X116792953Y-160538171D02*
X116840572Y-160347695D01*
X116840572Y-160347695D02*
X116888191Y-160252457D01*
X116888191Y-160252457D02*
X116935810Y-160204838D01*
X116935810Y-160204838D02*
X117031048Y-160157219D01*
X117792953Y-161061980D02*
X117840572Y-161109600D01*
X117840572Y-161109600D02*
X117792953Y-161157219D01*
X117792953Y-161157219D02*
X117745334Y-161109600D01*
X117745334Y-161109600D02*
X117792953Y-161061980D01*
X117792953Y-161061980D02*
X117792953Y-161157219D01*
X118745333Y-160157219D02*
X118269143Y-160157219D01*
X118269143Y-160157219D02*
X118221524Y-160633409D01*
X118221524Y-160633409D02*
X118269143Y-160585790D01*
X118269143Y-160585790D02*
X118364381Y-160538171D01*
X118364381Y-160538171D02*
X118602476Y-160538171D01*
X118602476Y-160538171D02*
X118697714Y-160585790D01*
X118697714Y-160585790D02*
X118745333Y-160633409D01*
X118745333Y-160633409D02*
X118792952Y-160728647D01*
X118792952Y-160728647D02*
X118792952Y-160966742D01*
X118792952Y-160966742D02*
X118745333Y-161061980D01*
X118745333Y-161061980D02*
X118697714Y-161109600D01*
X118697714Y-161109600D02*
X118602476Y-161157219D01*
X118602476Y-161157219D02*
X118364381Y-161157219D01*
X118364381Y-161157219D02*
X118269143Y-161109600D01*
X118269143Y-161109600D02*
X118221524Y-161061980D01*
X119221524Y-161157219D02*
X119221524Y-160490552D01*
X119221524Y-160585790D02*
X119269143Y-160538171D01*
X119269143Y-160538171D02*
X119364381Y-160490552D01*
X119364381Y-160490552D02*
X119507238Y-160490552D01*
X119507238Y-160490552D02*
X119602476Y-160538171D01*
X119602476Y-160538171D02*
X119650095Y-160633409D01*
X119650095Y-160633409D02*
X119650095Y-161157219D01*
X119650095Y-160633409D02*
X119697714Y-160538171D01*
X119697714Y-160538171D02*
X119792952Y-160490552D01*
X119792952Y-160490552D02*
X119935809Y-160490552D01*
X119935809Y-160490552D02*
X120031048Y-160538171D01*
X120031048Y-160538171D02*
X120078667Y-160633409D01*
X120078667Y-160633409D02*
X120078667Y-161157219D01*
X120554857Y-161157219D02*
X120554857Y-160490552D01*
X120554857Y-160585790D02*
X120602476Y-160538171D01*
X120602476Y-160538171D02*
X120697714Y-160490552D01*
X120697714Y-160490552D02*
X120840571Y-160490552D01*
X120840571Y-160490552D02*
X120935809Y-160538171D01*
X120935809Y-160538171D02*
X120983428Y-160633409D01*
X120983428Y-160633409D02*
X120983428Y-161157219D01*
X120983428Y-160633409D02*
X121031047Y-160538171D01*
X121031047Y-160538171D02*
X121126285Y-160490552D01*
X121126285Y-160490552D02*
X121269142Y-160490552D01*
X121269142Y-160490552D02*
X121364381Y-160538171D01*
X121364381Y-160538171D02*
X121412000Y-160633409D01*
X121412000Y-160633409D02*
X121412000Y-161157219D01*
X122650095Y-161157219D02*
X122650095Y-160157219D01*
X122650095Y-160157219D02*
X123031047Y-160157219D01*
X123031047Y-160157219D02*
X123126285Y-160204838D01*
X123126285Y-160204838D02*
X123173904Y-160252457D01*
X123173904Y-160252457D02*
X123221523Y-160347695D01*
X123221523Y-160347695D02*
X123221523Y-160490552D01*
X123221523Y-160490552D02*
X123173904Y-160585790D01*
X123173904Y-160585790D02*
X123126285Y-160633409D01*
X123126285Y-160633409D02*
X123031047Y-160681028D01*
X123031047Y-160681028D02*
X122650095Y-160681028D01*
X123650095Y-161157219D02*
X123650095Y-160490552D01*
X123650095Y-160157219D02*
X123602476Y-160204838D01*
X123602476Y-160204838D02*
X123650095Y-160252457D01*
X123650095Y-160252457D02*
X123697714Y-160204838D01*
X123697714Y-160204838D02*
X123650095Y-160157219D01*
X123650095Y-160157219D02*
X123650095Y-160252457D01*
X123983428Y-160490552D02*
X124364380Y-160490552D01*
X124126285Y-160157219D02*
X124126285Y-161014361D01*
X124126285Y-161014361D02*
X124173904Y-161109600D01*
X124173904Y-161109600D02*
X124269142Y-161157219D01*
X124269142Y-161157219D02*
X124364380Y-161157219D01*
X125126285Y-161109600D02*
X125031047Y-161157219D01*
X125031047Y-161157219D02*
X124840571Y-161157219D01*
X124840571Y-161157219D02*
X124745333Y-161109600D01*
X124745333Y-161109600D02*
X124697714Y-161061980D01*
X124697714Y-161061980D02*
X124650095Y-160966742D01*
X124650095Y-160966742D02*
X124650095Y-160681028D01*
X124650095Y-160681028D02*
X124697714Y-160585790D01*
X124697714Y-160585790D02*
X124745333Y-160538171D01*
X124745333Y-160538171D02*
X124840571Y-160490552D01*
X124840571Y-160490552D02*
X125031047Y-160490552D01*
X125031047Y-160490552D02*
X125126285Y-160538171D01*
X125554857Y-161157219D02*
X125554857Y-160157219D01*
X125983428Y-161157219D02*
X125983428Y-160633409D01*
X125983428Y-160633409D02*
X125935809Y-160538171D01*
X125935809Y-160538171D02*
X125840571Y-160490552D01*
X125840571Y-160490552D02*
X125697714Y-160490552D01*
X125697714Y-160490552D02*
X125602476Y-160538171D01*
X125602476Y-160538171D02*
X125554857Y-160585790D01*
X111653435Y-160488219D02*
X112272482Y-160488219D01*
X112272482Y-160488219D02*
X111939149Y-160869171D01*
X111939149Y-160869171D02*
X112082006Y-160869171D01*
X112082006Y-160869171D02*
X112177244Y-160916790D01*
X112177244Y-160916790D02*
X112224863Y-160964409D01*
X112224863Y-160964409D02*
X112272482Y-161059647D01*
X112272482Y-161059647D02*
X112272482Y-161297742D01*
X112272482Y-161297742D02*
X112224863Y-161392980D01*
X112224863Y-161392980D02*
X112177244Y-161440600D01*
X112177244Y-161440600D02*
X112082006Y-161488219D01*
X112082006Y-161488219D02*
X111796292Y-161488219D01*
X111796292Y-161488219D02*
X111701054Y-161440600D01*
X111701054Y-161440600D02*
X111653435Y-161392980D01*
X112653435Y-160583457D02*
X112701054Y-160535838D01*
X112701054Y-160535838D02*
X112796292Y-160488219D01*
X112796292Y-160488219D02*
X113034387Y-160488219D01*
X113034387Y-160488219D02*
X113129625Y-160535838D01*
X113129625Y-160535838D02*
X113177244Y-160583457D01*
X113177244Y-160583457D02*
X113224863Y-160678695D01*
X113224863Y-160678695D02*
X113224863Y-160773933D01*
X113224863Y-160773933D02*
X113177244Y-160916790D01*
X113177244Y-160916790D02*
X112605816Y-161488219D01*
X112605816Y-161488219D02*
X113224863Y-161488219D01*
D13*
X120364448Y-120904606D02*
X119637475Y-121631579D01*
X119637475Y-121631579D02*
X119594712Y-121759868D01*
X119594712Y-121759868D02*
X119594712Y-121845394D01*
X119594712Y-121845394D02*
X119637475Y-121973684D01*
X119637475Y-121973684D02*
X119808528Y-122144736D01*
X119808528Y-122144736D02*
X119936817Y-122187499D01*
X119936817Y-122187499D02*
X120022343Y-122187499D01*
X120022343Y-122187499D02*
X120150633Y-122144736D01*
X120150633Y-122144736D02*
X120877606Y-121417763D01*
X120877606Y-123213814D02*
X120364448Y-122700657D01*
X120621027Y-122957235D02*
X121519052Y-122059210D01*
X121519052Y-122059210D02*
X121305237Y-122101973D01*
X121305237Y-122101973D02*
X121134184Y-122101973D01*
X121134184Y-122101973D02*
X121005895Y-122059210D01*
X122331552Y-122871709D02*
X122417078Y-122957236D01*
X122417078Y-122957236D02*
X122459841Y-123085525D01*
X122459841Y-123085525D02*
X122459841Y-123171051D01*
X122459841Y-123171051D02*
X122417078Y-123299341D01*
X122417078Y-123299341D02*
X122288789Y-123513156D01*
X122288789Y-123513156D02*
X122074973Y-123726972D01*
X122074973Y-123726972D02*
X121861158Y-123855261D01*
X121861158Y-123855261D02*
X121732868Y-123898024D01*
X121732868Y-123898024D02*
X121647342Y-123898024D01*
X121647342Y-123898024D02*
X121519053Y-123855261D01*
X121519053Y-123855261D02*
X121433526Y-123769735D01*
X121433526Y-123769735D02*
X121390763Y-123641446D01*
X121390763Y-123641446D02*
X121390763Y-123555919D01*
X121390763Y-123555919D02*
X121433526Y-123427630D01*
X121433526Y-123427630D02*
X121561816Y-123213814D01*
X121561816Y-123213814D02*
X121775631Y-122999999D01*
X121775631Y-122999999D02*
X121989447Y-122871709D01*
X121989447Y-122871709D02*
X122117736Y-122828946D01*
X122117736Y-122828946D02*
X122203263Y-122828946D01*
X122203263Y-122828946D02*
X122331552Y-122871709D01*
X122588131Y-124924339D02*
X122074973Y-124411182D01*
X122331552Y-124667761D02*
X123229578Y-123769735D01*
X123229578Y-123769735D02*
X123015762Y-123812498D01*
X123015762Y-123812498D02*
X122844710Y-123812498D01*
X122844710Y-123812498D02*
X122716420Y-123769735D01*
D14*
X131556285Y-76830819D02*
X131556285Y-77545104D01*
X131556285Y-77545104D02*
X131508666Y-77687961D01*
X131508666Y-77687961D02*
X131413428Y-77783200D01*
X131413428Y-77783200D02*
X131270571Y-77830819D01*
X131270571Y-77830819D02*
X131175333Y-77830819D01*
X132556285Y-77830819D02*
X131984857Y-77830819D01*
X132270571Y-77830819D02*
X132270571Y-76830819D01*
X132270571Y-76830819D02*
X132175333Y-76973676D01*
X132175333Y-76973676D02*
X132080095Y-77068914D01*
X132080095Y-77068914D02*
X131984857Y-77116533D01*
X133175333Y-76830819D02*
X133270571Y-76830819D01*
X133270571Y-76830819D02*
X133365809Y-76878438D01*
X133365809Y-76878438D02*
X133413428Y-76926057D01*
X133413428Y-76926057D02*
X133461047Y-77021295D01*
X133461047Y-77021295D02*
X133508666Y-77211771D01*
X133508666Y-77211771D02*
X133508666Y-77449866D01*
X133508666Y-77449866D02*
X133461047Y-77640342D01*
X133461047Y-77640342D02*
X133413428Y-77735580D01*
X133413428Y-77735580D02*
X133365809Y-77783200D01*
X133365809Y-77783200D02*
X133270571Y-77830819D01*
X133270571Y-77830819D02*
X133175333Y-77830819D01*
X133175333Y-77830819D02*
X133080095Y-77783200D01*
X133080095Y-77783200D02*
X133032476Y-77735580D01*
X133032476Y-77735580D02*
X132984857Y-77640342D01*
X132984857Y-77640342D02*
X132937238Y-77449866D01*
X132937238Y-77449866D02*
X132937238Y-77211771D01*
X132937238Y-77211771D02*
X132984857Y-77021295D01*
X132984857Y-77021295D02*
X133032476Y-76926057D01*
X133032476Y-76926057D02*
X133080095Y-76878438D01*
X133080095Y-76878438D02*
X133175333Y-76830819D01*
X133889619Y-76926057D02*
X133937238Y-76878438D01*
X133937238Y-76878438D02*
X134032476Y-76830819D01*
X134032476Y-76830819D02*
X134270571Y-76830819D01*
X134270571Y-76830819D02*
X134365809Y-76878438D01*
X134365809Y-76878438D02*
X134413428Y-76926057D01*
X134413428Y-76926057D02*
X134461047Y-77021295D01*
X134461047Y-77021295D02*
X134461047Y-77116533D01*
X134461047Y-77116533D02*
X134413428Y-77259390D01*
X134413428Y-77259390D02*
X133842000Y-77830819D01*
X133842000Y-77830819D02*
X134461047Y-77830819D01*
X108696285Y-76830819D02*
X108696285Y-77545104D01*
X108696285Y-77545104D02*
X108648666Y-77687961D01*
X108648666Y-77687961D02*
X108553428Y-77783200D01*
X108553428Y-77783200D02*
X108410571Y-77830819D01*
X108410571Y-77830819D02*
X108315333Y-77830819D01*
X109696285Y-77830819D02*
X109124857Y-77830819D01*
X109410571Y-77830819D02*
X109410571Y-76830819D01*
X109410571Y-76830819D02*
X109315333Y-76973676D01*
X109315333Y-76973676D02*
X109220095Y-77068914D01*
X109220095Y-77068914D02*
X109124857Y-77116533D01*
X110315333Y-76830819D02*
X110410571Y-76830819D01*
X110410571Y-76830819D02*
X110505809Y-76878438D01*
X110505809Y-76878438D02*
X110553428Y-76926057D01*
X110553428Y-76926057D02*
X110601047Y-77021295D01*
X110601047Y-77021295D02*
X110648666Y-77211771D01*
X110648666Y-77211771D02*
X110648666Y-77449866D01*
X110648666Y-77449866D02*
X110601047Y-77640342D01*
X110601047Y-77640342D02*
X110553428Y-77735580D01*
X110553428Y-77735580D02*
X110505809Y-77783200D01*
X110505809Y-77783200D02*
X110410571Y-77830819D01*
X110410571Y-77830819D02*
X110315333Y-77830819D01*
X110315333Y-77830819D02*
X110220095Y-77783200D01*
X110220095Y-77783200D02*
X110172476Y-77735580D01*
X110172476Y-77735580D02*
X110124857Y-77640342D01*
X110124857Y-77640342D02*
X110077238Y-77449866D01*
X110077238Y-77449866D02*
X110077238Y-77211771D01*
X110077238Y-77211771D02*
X110124857Y-77021295D01*
X110124857Y-77021295D02*
X110172476Y-76926057D01*
X110172476Y-76926057D02*
X110220095Y-76878438D01*
X110220095Y-76878438D02*
X110315333Y-76830819D01*
X110982000Y-76830819D02*
X111601047Y-76830819D01*
X111601047Y-76830819D02*
X111267714Y-77211771D01*
X111267714Y-77211771D02*
X111410571Y-77211771D01*
X111410571Y-77211771D02*
X111505809Y-77259390D01*
X111505809Y-77259390D02*
X111553428Y-77307009D01*
X111553428Y-77307009D02*
X111601047Y-77402247D01*
X111601047Y-77402247D02*
X111601047Y-77640342D01*
X111601047Y-77640342D02*
X111553428Y-77735580D01*
X111553428Y-77735580D02*
X111505809Y-77783200D01*
X111505809Y-77783200D02*
X111410571Y-77830819D01*
X111410571Y-77830819D02*
X111124857Y-77830819D01*
X111124857Y-77830819D02*
X111029619Y-77783200D01*
X111029619Y-77783200D02*
X110982000Y-77735580D01*
D15*
X119898791Y-116098277D02*
X119326035Y-116006354D01*
X119806868Y-115525521D01*
X119898791Y-116098277D01*
G36*
X119898791Y-116098277D02*
G01*
X119326035Y-116006354D01*
X119806868Y-115525521D01*
X119898791Y-116098277D01*
G37*
D16*
G36*
X125130024Y-82635033D02*
G01*
X125145020Y-82652609D01*
X125160371Y-82669976D01*
X125176862Y-82687949D01*
X125195279Y-82707346D01*
X125216407Y-82728985D01*
X125241032Y-82753684D01*
X125269938Y-82782259D01*
X125296677Y-82808461D01*
X125316295Y-82827655D01*
X125340809Y-82851676D01*
X125369551Y-82879867D01*
X125401851Y-82911572D01*
X125437042Y-82946134D01*
X125474454Y-82982897D01*
X125513419Y-83021202D01*
X125553269Y-83060393D01*
X125593335Y-83099814D01*
X125632947Y-83138807D01*
X125644682Y-83150363D01*
X125687796Y-83192806D01*
X125734354Y-83238616D01*
X125783326Y-83286780D01*
X125833680Y-83336284D01*
X125884384Y-83386115D01*
X125934409Y-83435260D01*
X125982722Y-83482705D01*
X126028293Y-83527437D01*
X126070090Y-83568443D01*
X126097835Y-83595647D01*
X126146917Y-83643767D01*
X126190701Y-83686719D01*
X126229479Y-83724798D01*
X126263544Y-83758295D01*
X126293187Y-83787503D01*
X126318699Y-83812715D01*
X126340372Y-83834223D01*
X126358498Y-83852320D01*
X126373369Y-83867300D01*
X126385276Y-83879453D01*
X126394510Y-83889074D01*
X126401365Y-83896455D01*
X126406130Y-83901888D01*
X126409099Y-83905667D01*
X126410562Y-83908083D01*
X126410812Y-83909430D01*
X126410731Y-83909615D01*
X126406958Y-83913009D01*
X126398007Y-83920033D01*
X126385066Y-83929788D01*
X126369318Y-83941369D01*
X126362356Y-83946415D01*
X126342896Y-83960642D01*
X126322963Y-83975531D01*
X126304747Y-83989426D01*
X126290437Y-84000672D01*
X126288999Y-84001837D01*
X126275867Y-84012374D01*
X126258512Y-84026097D01*
X126238917Y-84041446D01*
X126219068Y-84056862D01*
X126213077Y-84061486D01*
X126132023Y-84126202D01*
X126056235Y-84191359D01*
X125986185Y-84256499D01*
X125922342Y-84321168D01*
X125865180Y-84384910D01*
X125817414Y-84444292D01*
X125758029Y-84528935D01*
X125705513Y-84616989D01*
X125659811Y-84708596D01*
X125620865Y-84803899D01*
X125588621Y-84903039D01*
X125563023Y-85006159D01*
X125544015Y-85113400D01*
X125538841Y-85152488D01*
X125535704Y-85185623D01*
X125533460Y-85224511D01*
X125532109Y-85267214D01*
X125531653Y-85311789D01*
X125532093Y-85356295D01*
X125533429Y-85398792D01*
X125535664Y-85437338D01*
X125538666Y-85468914D01*
X125554868Y-85572998D01*
X125577833Y-85673181D01*
X125607586Y-85769514D01*
X125644150Y-85862051D01*
X125687552Y-85950844D01*
X125737815Y-86035946D01*
X125794964Y-86117410D01*
X125859025Y-86195289D01*
X125898288Y-86237730D01*
X125924609Y-86263967D01*
X125956786Y-86294137D01*
X125994895Y-86328304D01*
X126039013Y-86366533D01*
X126089215Y-86408888D01*
X126145579Y-86455434D01*
X126208180Y-86506235D01*
X126277095Y-86561356D01*
X126324392Y-86598807D01*
X126346771Y-86616638D01*
X126367060Y-86633133D01*
X126384461Y-86647620D01*
X126398178Y-86659422D01*
X126407412Y-86667866D01*
X126411369Y-86672277D01*
X126411452Y-86672505D01*
X126408888Y-86675889D01*
X126401093Y-86684686D01*
X126388264Y-86698691D01*
X126370597Y-86717696D01*
X126348288Y-86741495D01*
X126321535Y-86769881D01*
X126290533Y-86802649D01*
X126255478Y-86839590D01*
X126216568Y-86880500D01*
X126173999Y-86925170D01*
X126127967Y-86973395D01*
X126078669Y-87024969D01*
X126026300Y-87079683D01*
X125971059Y-87137333D01*
X125913140Y-87197711D01*
X125852741Y-87260611D01*
X125794882Y-87320809D01*
X125737177Y-87380819D01*
X125680769Y-87439476D01*
X125625907Y-87496522D01*
X125572841Y-87551695D01*
X125521822Y-87604738D01*
X125473098Y-87655391D01*
X125426920Y-87703393D01*
X125383536Y-87748486D01*
X125343198Y-87790410D01*
X125306154Y-87828905D01*
X125272654Y-87863712D01*
X125242948Y-87894571D01*
X125217286Y-87921223D01*
X125195917Y-87943409D01*
X125179091Y-87960868D01*
X125167058Y-87973342D01*
X125160067Y-87980570D01*
X125158556Y-87982121D01*
X125139938Y-88001034D01*
X125038773Y-87919430D01*
X124990816Y-87880907D01*
X124947852Y-87846770D01*
X124908940Y-87816316D01*
X124873143Y-87788843D01*
X124839524Y-87763649D01*
X124807143Y-87740030D01*
X124775064Y-87717286D01*
X124742346Y-87694713D01*
X124708054Y-87671609D01*
X124705171Y-87669688D01*
X124602025Y-87603840D01*
X124497086Y-87542359D01*
X124391280Y-87485704D01*
X124285535Y-87434330D01*
X124180778Y-87388696D01*
X124077938Y-87349258D01*
X124005910Y-87325053D01*
X123878400Y-87288934D01*
X123747820Y-87259994D01*
X123614184Y-87238235D01*
X123477509Y-87223657D01*
X123337809Y-87216264D01*
X123195099Y-87216055D01*
X123049394Y-87223032D01*
X122978503Y-87228925D01*
X122857859Y-87243787D01*
X122736679Y-87265527D01*
X122616188Y-87293814D01*
X122497612Y-87328318D01*
X122382175Y-87368711D01*
X122271103Y-87414661D01*
X122246036Y-87426105D01*
X122227193Y-87434858D01*
X122207502Y-87443993D01*
X122190330Y-87451945D01*
X122185485Y-87454185D01*
X122131484Y-87480654D01*
X122073107Y-87512048D01*
X122011403Y-87547669D01*
X121947423Y-87586821D01*
X121882218Y-87628807D01*
X121816838Y-87672932D01*
X121752333Y-87718498D01*
X121689754Y-87764810D01*
X121630152Y-87811170D01*
X121574576Y-87856883D01*
X121562400Y-87867296D01*
X121546119Y-87881332D01*
X121525848Y-87898812D01*
X121503513Y-87918077D01*
X121481036Y-87937466D01*
X121465764Y-87950643D01*
X121447548Y-87966053D01*
X121430949Y-87979516D01*
X121417002Y-87990241D01*
X121406741Y-87997434D01*
X121401200Y-88000301D01*
X121400979Y-88000320D01*
X121394611Y-87997043D01*
X121385880Y-87988007D01*
X121378637Y-87978353D01*
X121367156Y-87964022D01*
X121349555Y-87945399D01*
X121326085Y-87922718D01*
X121296994Y-87896212D01*
X121262533Y-87866113D01*
X121222950Y-87832655D01*
X121220566Y-87830669D01*
X121104522Y-87738511D01*
X120986949Y-87653969D01*
X120867702Y-87576971D01*
X120746636Y-87507443D01*
X120623606Y-87445312D01*
X120498468Y-87390506D01*
X120371076Y-87342952D01*
X120241286Y-87302576D01*
X120108953Y-87269306D01*
X120103849Y-87268176D01*
X119983451Y-87245043D01*
X119859070Y-87227674D01*
X119732075Y-87216138D01*
X119603833Y-87210505D01*
X119475713Y-87210846D01*
X119349083Y-87217230D01*
X119263430Y-87225179D01*
X119128172Y-87244098D01*
X118994365Y-87270672D01*
X118862117Y-87304862D01*
X118731537Y-87346625D01*
X118602734Y-87395921D01*
X118475815Y-87452709D01*
X118350890Y-87516947D01*
X118228066Y-87588595D01*
X118124689Y-87655776D01*
X118093778Y-87677053D01*
X118064446Y-87697741D01*
X118035500Y-87718733D01*
X118005745Y-87740925D01*
X117973985Y-87765210D01*
X117939028Y-87792482D01*
X117899677Y-87823638D01*
X117886393Y-87834230D01*
X117847572Y-87865165D01*
X117811807Y-87893546D01*
X117779562Y-87919007D01*
X117751304Y-87941182D01*
X117727500Y-87959707D01*
X117708616Y-87974216D01*
X117695119Y-87984344D01*
X117690784Y-87987476D01*
X117678780Y-87995959D01*
X117389984Y-87692786D01*
X117314021Y-87613038D01*
X117243150Y-87538626D01*
X117177071Y-87469236D01*
X117115483Y-87404550D01*
X117058086Y-87344251D01*
X117004579Y-87288023D01*
X116954662Y-87235550D01*
X116908035Y-87186514D01*
X116864397Y-87140600D01*
X116823448Y-87097490D01*
X116784887Y-87056868D01*
X116748415Y-87018419D01*
X116713730Y-86981824D01*
X116680533Y-86946768D01*
X116648522Y-86912933D01*
X116617398Y-86880004D01*
X116586860Y-86847664D01*
X116556607Y-86815596D01*
X116526340Y-86783484D01*
X116495758Y-86751011D01*
X116464561Y-86717860D01*
X116434401Y-86685792D01*
X116588129Y-86685792D01*
X116682302Y-86785405D01*
X116776895Y-86885402D01*
X116867208Y-86980751D01*
X116954273Y-87072535D01*
X117039118Y-87161838D01*
X117122775Y-87249743D01*
X117206272Y-87337334D01*
X117290642Y-87425693D01*
X117376913Y-87515905D01*
X117378549Y-87517614D01*
X117416125Y-87556881D01*
X117452661Y-87595072D01*
X117487730Y-87631738D01*
X117520904Y-87666432D01*
X117551757Y-87698707D01*
X117579860Y-87728115D01*
X117604786Y-87754210D01*
X117626109Y-87776544D01*
X117643399Y-87794670D01*
X117656231Y-87808141D01*
X117664176Y-87816509D01*
X117665180Y-87817571D01*
X117678228Y-87831143D01*
X117687224Y-87839637D01*
X117693265Y-87843852D01*
X117697445Y-87844588D01*
X117700244Y-87843163D01*
X117705419Y-87838875D01*
X117715227Y-87830589D01*
X117728377Y-87819404D01*
X117743576Y-87806415D01*
X117747618Y-87802952D01*
X117868267Y-87704069D01*
X117990708Y-87612782D01*
X118114986Y-87529069D01*
X118241149Y-87452909D01*
X118369244Y-87384282D01*
X118499318Y-87323166D01*
X118631418Y-87269541D01*
X118765591Y-87223385D01*
X118901883Y-87184679D01*
X119040343Y-87153400D01*
X119181016Y-87129529D01*
X119294682Y-87115800D01*
X119439458Y-87105023D01*
X119582306Y-87101732D01*
X119723304Y-87105949D01*
X119862530Y-87117694D01*
X120000063Y-87136989D01*
X120135982Y-87163855D01*
X120270364Y-87198315D01*
X120403288Y-87240390D01*
X120534833Y-87290100D01*
X120665076Y-87347468D01*
X120794096Y-87412515D01*
X120921972Y-87485262D01*
X121048781Y-87565732D01*
X121122920Y-87616690D01*
X121167846Y-87649140D01*
X121215432Y-87684746D01*
X121263754Y-87722009D01*
X121310888Y-87759425D01*
X121354909Y-87795494D01*
X121387955Y-87823549D01*
X121416648Y-87848396D01*
X121427641Y-87839392D01*
X121433943Y-87834160D01*
X121445118Y-87824814D01*
X121460069Y-87812273D01*
X121477696Y-87797460D01*
X121496900Y-87781297D01*
X121500517Y-87778250D01*
X121567347Y-87723751D01*
X121638832Y-87668771D01*
X121713118Y-87614628D01*
X121788348Y-87562635D01*
X121862665Y-87514109D01*
X121934213Y-87470362D01*
X121939376Y-87467334D01*
X122000529Y-87432988D01*
X122066784Y-87398327D01*
X122136292Y-87364203D01*
X122207203Y-87331468D01*
X122277667Y-87300975D01*
X122345836Y-87273575D01*
X122409858Y-87250121D01*
X122414015Y-87248690D01*
X122550180Y-87206113D01*
X122687667Y-87171227D01*
X122826517Y-87144025D01*
X122966774Y-87124501D01*
X123108480Y-87112649D01*
X123251678Y-87108462D01*
X123353632Y-87110116D01*
X123492181Y-87118459D01*
X123628499Y-87133820D01*
X123762850Y-87156284D01*
X123895495Y-87185935D01*
X124026700Y-87222859D01*
X124156726Y-87267139D01*
X124285838Y-87318860D01*
X124414298Y-87378108D01*
X124542371Y-87444966D01*
X124670319Y-87519519D01*
X124715363Y-87547600D01*
X124803190Y-87605215D01*
X124889967Y-87666133D01*
X124977399Y-87731587D01*
X125053640Y-87791817D01*
X125122794Y-87847690D01*
X125167269Y-87801927D01*
X125176410Y-87792469D01*
X125190490Y-87777829D01*
X125209055Y-87758482D01*
X125231655Y-87734899D01*
X125257834Y-87707555D01*
X125287142Y-87676922D01*
X125319125Y-87643473D01*
X125353330Y-87607683D01*
X125389305Y-87570024D01*
X125426598Y-87530969D01*
X125464754Y-87490991D01*
X125474520Y-87480756D01*
X125520974Y-87432076D01*
X125562462Y-87388615D01*
X125599407Y-87349939D01*
X125632231Y-87315609D01*
X125661357Y-87285189D01*
X125687208Y-87258242D01*
X125710206Y-87234331D01*
X125730774Y-87213020D01*
X125749334Y-87193871D01*
X125766310Y-87176448D01*
X125782124Y-87160313D01*
X125797199Y-87145031D01*
X125811956Y-87130163D01*
X125826820Y-87115274D01*
X125842211Y-87099925D01*
X125858554Y-87083682D01*
X125861514Y-87080744D01*
X125877649Y-87064581D01*
X125891667Y-87050253D01*
X125902695Y-87038678D01*
X125909855Y-87030775D01*
X125912277Y-87027498D01*
X125914916Y-87024045D01*
X125922333Y-87015858D01*
X125933779Y-87003723D01*
X125948504Y-86988430D01*
X125965760Y-86970765D01*
X125979664Y-86956683D01*
X125999370Y-86936734D01*
X126023202Y-86912483D01*
X126049865Y-86885252D01*
X126078066Y-86856368D01*
X126106510Y-86827154D01*
X126133904Y-86798936D01*
X126145796Y-86786654D01*
X126244540Y-86684576D01*
X126229872Y-86672485D01*
X126220716Y-86665421D01*
X126213941Y-86661066D01*
X126212111Y-86660393D01*
X126208070Y-86657981D01*
X126199515Y-86651448D01*
X126187784Y-86641850D01*
X126176866Y-86632550D01*
X126162949Y-86620720D01*
X126144667Y-86605502D01*
X126123788Y-86588349D01*
X126102079Y-86570716D01*
X126086116Y-86557892D01*
X126067651Y-86542992D01*
X126051244Y-86529474D01*
X126037903Y-86518191D01*
X126028635Y-86509995D01*
X126024449Y-86505740D01*
X126024394Y-86505652D01*
X126018450Y-86500796D01*
X126015605Y-86500227D01*
X126010529Y-86498278D01*
X126009939Y-86496728D01*
X126007130Y-86493030D01*
X125999431Y-86485346D01*
X125987937Y-86474712D01*
X125973745Y-86462162D01*
X125969898Y-86458842D01*
X125922005Y-86416870D01*
X125879482Y-86377691D01*
X125841044Y-86340006D01*
X125805406Y-86302516D01*
X125771281Y-86263921D01*
X125741164Y-86227616D01*
X125678380Y-86143781D01*
X125621758Y-86055577D01*
X125571604Y-85963619D01*
X125528224Y-85868523D01*
X125491923Y-85770903D01*
X125463008Y-85671376D01*
X125461299Y-85664478D01*
X125456317Y-85643696D01*
X125451857Y-85624268D01*
X125448352Y-85608140D01*
X125446236Y-85597253D01*
X125446017Y-85595875D01*
X125443988Y-85583094D01*
X125441992Y-85571984D01*
X125441720Y-85570639D01*
X125437230Y-85546745D01*
X125433280Y-85520535D01*
X125429736Y-85490813D01*
X125426466Y-85456381D01*
X125423337Y-85416044D01*
X125421493Y-85388831D01*
X125418853Y-85303308D01*
X125421693Y-85214542D01*
X125426046Y-85160301D01*
X125428767Y-85133679D01*
X125431248Y-85111389D01*
X125433203Y-85095844D01*
X125434712Y-85084773D01*
X125436624Y-85070536D01*
X125437414Y-85064592D01*
X125440992Y-85041700D01*
X125446237Y-85013537D01*
X125452669Y-84982347D01*
X125459812Y-84950372D01*
X125467187Y-84919855D01*
X125472969Y-84897865D01*
X125504949Y-84794363D01*
X125542595Y-84695872D01*
X125586248Y-84601683D01*
X125636248Y-84511087D01*
X125692937Y-84423377D01*
X125719459Y-84386367D01*
X125729623Y-84372341D01*
X125737776Y-84360605D01*
X125742951Y-84352581D01*
X125744298Y-84349818D01*
X125747064Y-84345628D01*
X125753752Y-84339487D01*
X125754064Y-84339240D01*
X125760890Y-84332714D01*
X125763828Y-84327612D01*
X125763830Y-84327521D01*
X125766628Y-84322498D01*
X125773381Y-84315972D01*
X125773597Y-84315801D01*
X125780438Y-84309095D01*
X125783361Y-84303600D01*
X125783363Y-84303520D01*
X125786189Y-84298473D01*
X125793306Y-84291161D01*
X125797036Y-84288011D01*
X125805314Y-84280618D01*
X125810173Y-84274756D01*
X125810708Y-84273270D01*
X125813372Y-84269541D01*
X125820783Y-84261251D01*
X125832072Y-84249268D01*
X125846369Y-84234462D01*
X125862804Y-84217700D01*
X125880509Y-84199853D01*
X125898613Y-84181789D01*
X125916247Y-84164377D01*
X125932542Y-84148486D01*
X125946627Y-84134984D01*
X125957633Y-84124742D01*
X125964690Y-84118627D01*
X125966826Y-84117268D01*
X125971185Y-84114457D01*
X125978295Y-84107268D01*
X125983063Y-84101642D01*
X125991133Y-84092697D01*
X125997928Y-84087042D01*
X126000480Y-84086016D01*
X126005933Y-84083250D01*
X126013357Y-84076394D01*
X126015199Y-84074297D01*
X126022428Y-84066784D01*
X126028048Y-84062780D01*
X126028936Y-84062577D01*
X126033840Y-84059784D01*
X126040312Y-84053041D01*
X126040493Y-84052811D01*
X126046618Y-84046021D01*
X126050852Y-84043050D01*
X126050948Y-84043045D01*
X126054913Y-84040737D01*
X126063626Y-84034459D01*
X126075783Y-84025183D01*
X126089450Y-84014385D01*
X126106575Y-84000798D01*
X126124310Y-83986976D01*
X126140175Y-83974842D01*
X126148698Y-83968483D01*
X126161740Y-83958706D01*
X126178421Y-83945894D01*
X126196309Y-83931927D01*
X126208686Y-83922119D01*
X126245156Y-83892995D01*
X126196898Y-83845942D01*
X126186866Y-83836136D01*
X126171762Y-83821335D01*
X126152082Y-83802026D01*
X126128319Y-83778696D01*
X126100969Y-83751831D01*
X126070529Y-83721918D01*
X126037492Y-83689444D01*
X126002355Y-83654896D01*
X125965612Y-83618759D01*
X125927758Y-83581521D01*
X125894579Y-83548874D01*
X125855311Y-83510250D01*
X125813968Y-83469622D01*
X125770936Y-83427366D01*
X125726598Y-83383857D01*
X125681339Y-83339470D01*
X125635542Y-83294581D01*
X125589591Y-83249566D01*
X125543871Y-83204801D01*
X125498766Y-83160660D01*
X125454661Y-83117519D01*
X125411938Y-83075754D01*
X125370982Y-83035740D01*
X125332178Y-82997853D01*
X125295910Y-82962468D01*
X125262560Y-82929961D01*
X125232515Y-82900708D01*
X125206158Y-82875083D01*
X125183872Y-82853463D01*
X125166043Y-82836222D01*
X125153054Y-82823737D01*
X125145748Y-82816810D01*
X125133568Y-82805981D01*
X125125020Y-82799994D01*
X125118479Y-82797912D01*
X125113768Y-82798386D01*
X125107524Y-82801717D01*
X125096738Y-82809281D01*
X125082693Y-82820108D01*
X125066674Y-82833227D01*
X125058551Y-82840147D01*
X124947924Y-82930550D01*
X124831939Y-83015523D01*
X124711081Y-83094819D01*
X124585836Y-83168194D01*
X124456689Y-83235403D01*
X124324127Y-83296199D01*
X124188635Y-83350338D01*
X124050699Y-83397575D01*
X123910804Y-83437664D01*
X123841837Y-83454589D01*
X123738522Y-83476176D01*
X123635035Y-83492927D01*
X123529856Y-83505009D01*
X123421465Y-83512586D01*
X123308341Y-83515826D01*
X123279302Y-83515977D01*
X123166590Y-83514113D01*
X123058328Y-83508174D01*
X122952496Y-83497918D01*
X122847076Y-83483105D01*
X122740047Y-83463491D01*
X122629392Y-83438835D01*
X122623847Y-83437495D01*
X122596562Y-83430640D01*
X122566850Y-83422766D01*
X122535645Y-83414157D01*
X122503880Y-83405099D01*
X122472488Y-83395878D01*
X122442402Y-83386777D01*
X122414555Y-83378083D01*
X122389881Y-83370080D01*
X122369311Y-83363055D01*
X122353780Y-83357291D01*
X122344221Y-83353074D01*
X122341599Y-83351223D01*
X122336872Y-83348630D01*
X122327011Y-83345496D01*
X122319137Y-83343596D01*
X122307795Y-83340553D01*
X122300402Y-83337396D01*
X122298773Y-83335647D01*
X122295428Y-83332953D01*
X122289007Y-83332064D01*
X122281663Y-83330896D01*
X122279241Y-83328657D01*
X122275790Y-83325975D01*
X122267166Y-83323408D01*
X122263615Y-83322751D01*
X122253846Y-83320335D01*
X122248397Y-83317332D01*
X122247989Y-83316392D01*
X122244654Y-83313459D01*
X122238502Y-83312531D01*
X122228592Y-83310192D01*
X122223155Y-83306672D01*
X122215430Y-83301803D01*
X122210877Y-83300812D01*
X122202937Y-83298203D01*
X122198600Y-83294952D01*
X122190137Y-83290276D01*
X122183253Y-83289092D01*
X122176043Y-83287938D01*
X122173766Y-83285813D01*
X122170495Y-83281917D01*
X122162750Y-83277596D01*
X122153636Y-83274331D01*
X122147911Y-83273466D01*
X122140388Y-83270878D01*
X122136096Y-83267607D01*
X122127576Y-83262876D01*
X122121028Y-83261747D01*
X122111540Y-83259677D01*
X122106658Y-83256646D01*
X122101870Y-83253520D01*
X122091115Y-83247406D01*
X122075395Y-83238847D01*
X122055714Y-83228381D01*
X122033076Y-83216549D01*
X122013600Y-83206510D01*
X121922771Y-83158230D01*
X121836555Y-83108673D01*
X121753277Y-83056748D01*
X121671262Y-83001365D01*
X121588835Y-82941436D01*
X121504321Y-82875869D01*
X121499205Y-82871777D01*
X121471969Y-82850282D01*
X121449846Y-82833621D01*
X121432142Y-82821401D01*
X121418165Y-82813227D01*
X121407221Y-82808705D01*
X121398618Y-82807441D01*
X121391664Y-82809040D01*
X121390246Y-82809760D01*
X121384929Y-82813614D01*
X121374943Y-82821627D01*
X121361491Y-82832803D01*
X121345780Y-82846149D01*
X121336960Y-82853750D01*
X121253133Y-82922722D01*
X121162444Y-82990482D01*
X121065821Y-83056455D01*
X120964190Y-83120064D01*
X120858477Y-83180735D01*
X120749608Y-83237891D01*
X120638510Y-83290956D01*
X120621489Y-83298627D01*
X120504882Y-83347355D01*
X120384214Y-83391252D01*
X120261022Y-83429869D01*
X120136839Y-83462758D01*
X120013202Y-83489471D01*
X119906048Y-83507518D01*
X119870357Y-83512584D01*
X119838506Y-83516799D01*
X119809249Y-83520240D01*
X119781340Y-83522983D01*
X119753534Y-83525105D01*
X119724585Y-83526681D01*
X119693249Y-83527788D01*
X119658278Y-83528503D01*
X119618428Y-83528902D01*
X119572453Y-83529061D01*
X119554464Y-83529074D01*
X119508212Y-83529016D01*
X119468796Y-83528800D01*
X119435239Y-83528400D01*
X119406566Y-83527786D01*
X119381801Y-83526932D01*
X119359967Y-83525809D01*
X119340088Y-83524390D01*
X119321188Y-83522646D01*
X119318121Y-83522328D01*
X119193217Y-83506661D01*
X119071460Y-83486350D01*
X118954386Y-83461662D01*
X118919216Y-83453145D01*
X118887669Y-83445096D01*
X118857448Y-83437079D01*
X118829512Y-83429374D01*
X118804820Y-83422261D01*
X118784332Y-83416020D01*
X118769005Y-83410931D01*
X118759801Y-83407273D01*
X118757735Y-83406014D01*
X118751055Y-83403016D01*
X118745735Y-83402381D01*
X118737299Y-83401172D01*
X118725564Y-83398127D01*
X118713189Y-83394115D01*
X118702830Y-83390007D01*
X118697144Y-83386672D01*
X118696921Y-83386394D01*
X118692443Y-83384049D01*
X118682313Y-83380469D01*
X118668458Y-83376316D01*
X118663784Y-83375035D01*
X118649176Y-83370831D01*
X118637705Y-83366988D01*
X118631298Y-83364170D01*
X118630647Y-83363616D01*
X118625810Y-83360969D01*
X118616409Y-83358327D01*
X118613976Y-83357842D01*
X118604583Y-83355242D01*
X118599579Y-83352155D01*
X118599327Y-83351419D01*
X118595983Y-83348615D01*
X118589561Y-83347690D01*
X118582219Y-83346352D01*
X118579795Y-83343783D01*
X118576452Y-83340847D01*
X118570028Y-83339877D01*
X118562687Y-83338539D01*
X118560262Y-83335970D01*
X118556919Y-83333034D01*
X118550496Y-83332064D01*
X118543154Y-83330726D01*
X118540730Y-83328157D01*
X118537387Y-83325221D01*
X118530963Y-83324251D01*
X118523619Y-83323091D01*
X118521197Y-83320865D01*
X118517866Y-83317600D01*
X118509447Y-83312990D01*
X118498306Y-83308044D01*
X118486806Y-83303767D01*
X118477310Y-83301168D01*
X118474124Y-83300812D01*
X118467540Y-83299263D01*
X118465855Y-83297603D01*
X118462116Y-83295049D01*
X118452335Y-83289631D01*
X118437515Y-83281869D01*
X118418658Y-83272283D01*
X118396765Y-83261391D01*
X118383181Y-83254734D01*
X118270632Y-83197120D01*
X118162363Y-83135935D01*
X118057034Y-83070319D01*
X117953303Y-82999412D01*
X117849831Y-82922352D01*
X117782871Y-82869200D01*
X117759421Y-82850312D01*
X117740992Y-82836015D01*
X117726656Y-82825831D01*
X117715483Y-82819285D01*
X117706548Y-82815901D01*
X117698920Y-82815203D01*
X117691673Y-82816715D01*
X117685434Y-82819238D01*
X117680966Y-82822579D01*
X117671797Y-82830686D01*
X117657869Y-82843618D01*
X117639122Y-82861432D01*
X117615499Y-82884185D01*
X117586940Y-82911936D01*
X117553386Y-82944741D01*
X117514779Y-82982659D01*
X117471061Y-83025748D01*
X117422171Y-83074064D01*
X117368053Y-83127665D01*
X117308646Y-83186610D01*
X117243892Y-83250956D01*
X117173732Y-83320760D01*
X117129848Y-83364459D01*
X116589438Y-83902744D01*
X116607017Y-83913731D01*
X116617515Y-83921151D01*
X116631496Y-83932198D01*
X116646784Y-83945114D01*
X116655848Y-83953185D01*
X116667199Y-83963399D01*
X116683320Y-83977729D01*
X116703074Y-83995175D01*
X116725326Y-84014736D01*
X116748942Y-84035413D01*
X116772786Y-84056205D01*
X116772890Y-84056296D01*
X116816616Y-84094543D01*
X116855005Y-84128620D01*
X116888798Y-84159270D01*
X116918731Y-84187235D01*
X116945543Y-84213261D01*
X116969973Y-84238090D01*
X116992758Y-84262466D01*
X117014638Y-84287132D01*
X117036349Y-84312832D01*
X117058631Y-84340310D01*
X117073167Y-84358707D01*
X117092778Y-84384603D01*
X117114770Y-84415122D01*
X117137954Y-84448493D01*
X117161141Y-84482948D01*
X117183140Y-84516715D01*
X117202763Y-84548025D01*
X117218819Y-84575109D01*
X117219847Y-84576922D01*
X117267942Y-84669685D01*
X117309191Y-84765400D01*
X117343394Y-84863436D01*
X117370351Y-84963160D01*
X117389865Y-85063940D01*
X117400418Y-85149616D01*
X117401934Y-85172957D01*
X117402898Y-85202257D01*
X117403342Y-85235974D01*
X117403292Y-85272568D01*
X117402780Y-85310497D01*
X117401833Y-85348220D01*
X117400481Y-85384196D01*
X117398753Y-85416883D01*
X117396678Y-85444741D01*
X117394457Y-85465007D01*
X117379053Y-85558864D01*
X117358936Y-85651847D01*
X117334484Y-85742693D01*
X117306074Y-85830141D01*
X117274083Y-85912928D01*
X117238890Y-85989793D01*
X117235622Y-85996290D01*
X117196020Y-86068670D01*
X117151322Y-86139397D01*
X117101172Y-86208876D01*
X117045215Y-86277514D01*
X116983094Y-86345716D01*
X116914453Y-86413886D01*
X116838937Y-86482430D01*
X116756189Y-86551753D01*
X116728057Y-86574221D01*
X116709884Y-86588714D01*
X116693787Y-86601813D01*
X116680802Y-86612654D01*
X116671963Y-86620374D01*
X116668350Y-86624029D01*
X116663049Y-86628647D01*
X116660892Y-86629142D01*
X116655422Y-86631477D01*
X116645724Y-86637646D01*
X116633498Y-86646395D01*
X116620444Y-86656468D01*
X116608263Y-86666609D01*
X116600503Y-86673720D01*
X116588129Y-86685792D01*
X116434401Y-86685792D01*
X116432448Y-86683715D01*
X116432187Y-86683438D01*
X116411615Y-86661558D01*
X116482947Y-86611347D01*
X116536716Y-86573167D01*
X116584818Y-86538262D01*
X116628258Y-86505840D01*
X116668041Y-86475115D01*
X116705173Y-86445295D01*
X116740660Y-86415591D01*
X116775507Y-86385215D01*
X116805649Y-86358025D01*
X116886847Y-86279074D01*
X116960696Y-86197499D01*
X117027228Y-86113242D01*
X117086476Y-86026245D01*
X117138469Y-85936450D01*
X117183240Y-85843798D01*
X117220820Y-85748232D01*
X117251241Y-85649694D01*
X117274534Y-85548125D01*
X117287569Y-85468278D01*
X117291187Y-85434910D01*
X117293900Y-85395954D01*
X117295699Y-85353219D01*
X117296574Y-85308513D01*
X117296516Y-85263644D01*
X117295516Y-85220422D01*
X117293563Y-85180654D01*
X117290650Y-85146150D01*
X117289304Y-85134909D01*
X117271325Y-85027757D01*
X117246104Y-84923526D01*
X117213669Y-84822281D01*
X117174052Y-84724093D01*
X117127282Y-84629029D01*
X117073391Y-84537156D01*
X117012409Y-84448543D01*
X116944366Y-84363258D01*
X116942916Y-84361566D01*
X116903729Y-84317331D01*
X116862741Y-84273947D01*
X116819263Y-84230799D01*
X116772607Y-84187267D01*
X116722084Y-84142735D01*
X116667006Y-84096586D01*
X116606683Y-84048202D01*
X116540428Y-83996965D01*
X116513821Y-83976821D01*
X116434299Y-83916930D01*
X116574372Y-83777536D01*
X116592468Y-83759523D01*
X116615704Y-83736385D01*
X116643687Y-83708514D01*
X116676025Y-83676301D01*
X116712324Y-83640138D01*
X116752191Y-83600416D01*
X116795233Y-83557527D01*
X116841059Y-83511863D01*
X116889274Y-83463815D01*
X116939486Y-83413774D01*
X116991302Y-83362132D01*
X117044328Y-83309280D01*
X117098173Y-83255611D01*
X117152443Y-83201515D01*
X117206746Y-83147384D01*
X117207435Y-83146697D01*
X117700424Y-82655252D01*
X117715839Y-82668443D01*
X117743972Y-82692442D01*
X117772137Y-82716332D01*
X117799361Y-82739298D01*
X117824670Y-82760522D01*
X117847089Y-82779188D01*
X117865644Y-82794479D01*
X117879360Y-82805577D01*
X117880533Y-82806508D01*
X117901444Y-82823037D01*
X117918053Y-82836072D01*
X117932153Y-82846971D01*
X117945538Y-82857090D01*
X117960003Y-82867787D01*
X117977340Y-82880420D01*
X117997728Y-82895176D01*
X118119420Y-82979063D01*
X118241857Y-83055267D01*
X118365340Y-83123902D01*
X118490171Y-83185084D01*
X118616654Y-83238930D01*
X118745091Y-83285556D01*
X118875783Y-83325077D01*
X119009033Y-83357609D01*
X119145144Y-83383269D01*
X119284417Y-83402173D01*
X119331794Y-83407011D01*
X119352715Y-83408502D01*
X119380232Y-83409742D01*
X119413132Y-83410732D01*
X119450203Y-83411470D01*
X119490231Y-83411956D01*
X119532003Y-83412192D01*
X119574308Y-83412177D01*
X119615931Y-83411910D01*
X119655661Y-83411392D01*
X119692283Y-83410623D01*
X119724586Y-83409603D01*
X119751356Y-83408332D01*
X119769321Y-83407011D01*
X119911112Y-83390158D01*
X120049251Y-83366508D01*
X120184171Y-83335924D01*
X120316306Y-83298268D01*
X120446090Y-83253403D01*
X120573957Y-83201190D01*
X120700341Y-83141493D01*
X120825676Y-83074173D01*
X120834432Y-83069166D01*
X120922652Y-83016175D01*
X121012733Y-82957623D01*
X121102948Y-82894774D01*
X121191569Y-82828894D01*
X121276868Y-82761246D01*
X121357119Y-82693095D01*
X121396609Y-82657577D01*
X121406610Y-82648388D01*
X121509897Y-82735050D01*
X121550022Y-82768518D01*
X121585544Y-82797667D01*
X121617662Y-82823411D01*
X121647572Y-82846666D01*
X121676472Y-82868346D01*
X121705561Y-82889367D01*
X121736036Y-82910643D01*
X121769094Y-82933090D01*
X121769444Y-82933325D01*
X121883053Y-83006237D01*
X121996492Y-83072168D01*
X122111066Y-83131814D01*
X122228081Y-83185866D01*
X122305631Y-83218154D01*
X122432263Y-83265216D01*
X122559424Y-83305372D01*
X122688021Y-83338831D01*
X122818962Y-83365800D01*
X122953155Y-83386488D01*
X123091506Y-83401102D01*
X123111323Y-83402680D01*
X123138921Y-83404323D01*
X123172696Y-83405585D01*
X123211022Y-83406465D01*
X123252272Y-83406963D01*
X123294821Y-83407079D01*
X123337041Y-83406813D01*
X123377306Y-83406165D01*
X123413990Y-83405134D01*
X123445467Y-83403721D01*
X123460954Y-83402707D01*
X123599004Y-83388470D01*
X123735113Y-83366925D01*
X123869436Y-83338018D01*
X124002128Y-83301694D01*
X124133342Y-83257897D01*
X124263234Y-83206572D01*
X124391956Y-83147665D01*
X124519663Y-83081119D01*
X124646510Y-83006881D01*
X124744236Y-82944076D01*
X124771306Y-82925541D01*
X124799554Y-82905244D01*
X124829824Y-82882537D01*
X124862957Y-82856770D01*
X124899796Y-82827295D01*
X124941184Y-82793462D01*
X124960619Y-82777387D01*
X124983278Y-82758625D01*
X125004479Y-82741136D01*
X125023331Y-82725649D01*
X125038945Y-82712894D01*
X125050430Y-82703599D01*
X125056899Y-82698492D01*
X125057267Y-82698217D01*
X125064340Y-82691693D01*
X125074539Y-82680664D01*
X125086300Y-82666873D01*
X125094406Y-82656789D01*
X125120414Y-82623591D01*
X125130024Y-82635033D01*
G37*
G36*
X121424074Y-83113212D02*
G01*
X121434133Y-83120035D01*
X121448593Y-83130284D01*
X121466544Y-83143309D01*
X121487076Y-83158457D01*
X121505756Y-83172422D01*
X121633072Y-83263532D01*
X121762902Y-83347250D01*
X121895293Y-83423597D01*
X122030292Y-83492594D01*
X122167947Y-83554264D01*
X122308306Y-83608628D01*
X122451415Y-83655706D01*
X122597324Y-83695521D01*
X122729922Y-83724934D01*
X122754491Y-83729525D01*
X122778247Y-83733453D01*
X122799396Y-83736457D01*
X122816141Y-83738279D01*
X122825173Y-83738710D01*
X122837820Y-83739082D01*
X122846643Y-83740330D01*
X122849589Y-83741981D01*
X122853211Y-83745458D01*
X122862958Y-83748298D01*
X122877146Y-83750170D01*
X122894091Y-83750744D01*
X122894176Y-83750743D01*
X122904711Y-83751101D01*
X122921240Y-83752230D01*
X122941998Y-83753985D01*
X122965220Y-83756218D01*
X122982409Y-83758033D01*
X123008866Y-83760800D01*
X123036569Y-83763462D01*
X123062957Y-83765786D01*
X123085468Y-83767544D01*
X123094721Y-83768153D01*
X123112190Y-83769385D01*
X123126367Y-83770755D01*
X123135696Y-83772087D01*
X123138660Y-83773108D01*
X123142284Y-83773976D01*
X123152062Y-83774446D01*
X123166344Y-83774472D01*
X123177725Y-83774214D01*
X123194117Y-83773992D01*
X123207124Y-83774379D01*
X123215095Y-83775292D01*
X123216797Y-83776168D01*
X123220532Y-83777023D01*
X123231054Y-83777792D01*
X123247338Y-83778442D01*
X123268357Y-83778941D01*
X123293087Y-83779256D01*
X123318362Y-83779357D01*
X123345610Y-83779249D01*
X123370096Y-83778946D01*
X123390795Y-83778476D01*
X123406680Y-83777869D01*
X123416727Y-83777156D01*
X123419932Y-83776427D01*
X123423505Y-83774964D01*
X123432884Y-83773914D01*
X123446063Y-83773498D01*
X123446501Y-83773497D01*
X123483122Y-83772545D01*
X123526013Y-83769805D01*
X123573879Y-83765447D01*
X123625426Y-83759643D01*
X123679361Y-83752565D01*
X123734388Y-83744386D01*
X123789215Y-83735275D01*
X123842548Y-83725406D01*
X123893092Y-83714949D01*
X123901061Y-83713182D01*
X124036370Y-83678968D01*
X124171291Y-83637087D01*
X124305523Y-83587683D01*
X124438767Y-83530902D01*
X124570722Y-83466888D01*
X124701089Y-83395786D01*
X124829567Y-83317742D01*
X124955856Y-83232900D01*
X125071255Y-83147887D01*
X125092115Y-83132523D01*
X125107800Y-83122568D01*
X125118637Y-83117884D01*
X125124952Y-83118331D01*
X125127070Y-83123770D01*
X125127072Y-83124036D01*
X125129793Y-83127609D01*
X125137757Y-83136392D01*
X125150670Y-83150083D01*
X125168236Y-83168382D01*
X125190160Y-83190989D01*
X125216147Y-83217601D01*
X125245901Y-83247919D01*
X125279127Y-83281642D01*
X125315530Y-83318469D01*
X125354814Y-83358099D01*
X125396684Y-83400232D01*
X125440845Y-83444567D01*
X125487001Y-83490803D01*
X125500713Y-83504520D01*
X125560279Y-83564138D01*
X125614357Y-83618367D01*
X125663031Y-83667293D01*
X125706385Y-83711003D01*
X125744503Y-83749583D01*
X125777471Y-83783118D01*
X125805373Y-83811697D01*
X125828293Y-83835405D01*
X125846316Y-83854328D01*
X125859527Y-83868552D01*
X125868009Y-83878165D01*
X125871848Y-83883253D01*
X125872094Y-83884064D01*
X125867666Y-83888815D01*
X125858288Y-83895501D01*
X125846625Y-83902322D01*
X125837647Y-83907840D01*
X125826900Y-83915928D01*
X125813727Y-83927183D01*
X125797467Y-83942199D01*
X125777462Y-83961571D01*
X125753054Y-83985896D01*
X125743565Y-83995472D01*
X125709173Y-84030497D01*
X125679355Y-84061436D01*
X125652981Y-84089543D01*
X125628920Y-84116071D01*
X125606043Y-84142274D01*
X125583219Y-84169406D01*
X125559319Y-84198720D01*
X125551015Y-84209071D01*
X125489182Y-84290239D01*
X125434193Y-84370797D01*
X125385320Y-84452073D01*
X125341839Y-84535398D01*
X125303024Y-84622101D01*
X125268148Y-84713511D01*
X125255658Y-84750120D01*
X125231671Y-84826269D01*
X125211819Y-84897773D01*
X125195793Y-84966412D01*
X125183281Y-85033966D01*
X125173974Y-85102214D01*
X125167559Y-85172936D01*
X125163728Y-85247912D01*
X125162788Y-85282384D01*
X125162264Y-85312488D01*
X125161993Y-85339739D01*
X125161969Y-85363219D01*
X125162185Y-85382012D01*
X125162634Y-85395202D01*
X125163309Y-85401871D01*
X125163648Y-85402508D01*
X125165061Y-85406075D01*
X125165677Y-85415495D01*
X125165386Y-85428835D01*
X125165271Y-85430826D01*
X125165034Y-85447515D01*
X125165862Y-85468482D01*
X125167587Y-85490290D01*
X125168698Y-85500166D01*
X125185489Y-85602855D01*
X125209876Y-85705698D01*
X125241662Y-85808291D01*
X125280649Y-85910230D01*
X125326641Y-86011111D01*
X125379441Y-86110530D01*
X125438850Y-86208082D01*
X125504673Y-86303363D01*
X125576711Y-86395970D01*
X125643241Y-86472896D01*
X125667697Y-86499649D01*
X125690466Y-86524174D01*
X125711000Y-86545904D01*
X125728748Y-86564275D01*
X125743162Y-86578719D01*
X125753692Y-86588672D01*
X125759789Y-86593567D01*
X125760828Y-86593983D01*
X125764744Y-86596622D01*
X125773026Y-86603877D01*
X125784600Y-86614755D01*
X125798393Y-86628263D01*
X125804202Y-86634091D01*
X125819806Y-86649570D01*
X125834823Y-86663970D01*
X125847764Y-86675895D01*
X125857143Y-86683952D01*
X125858783Y-86685218D01*
X125867323Y-86692729D01*
X125872075Y-86699251D01*
X125872456Y-86701453D01*
X125869601Y-86705216D01*
X125861850Y-86714070D01*
X125849715Y-86727463D01*
X125833706Y-86744846D01*
X125814333Y-86765667D01*
X125792108Y-86789377D01*
X125767540Y-86815425D01*
X125741141Y-86843260D01*
X125732359Y-86852487D01*
X125703130Y-86883198D01*
X125673625Y-86914247D01*
X125644661Y-86944773D01*
X125617052Y-86973913D01*
X125591614Y-87000807D01*
X125569163Y-87024594D01*
X125550514Y-87044411D01*
X125537034Y-87058806D01*
X125520473Y-87076527D01*
X125499675Y-87098724D01*
X125475770Y-87124192D01*
X125449888Y-87151730D01*
X125423161Y-87180135D01*
X125396717Y-87208203D01*
X125380994Y-87224874D01*
X125354630Y-87252873D01*
X125326720Y-87282618D01*
X125298516Y-87312770D01*
X125271270Y-87341987D01*
X125246234Y-87368927D01*
X125224659Y-87392248D01*
X125215069Y-87402669D01*
X125196429Y-87422875D01*
X125179124Y-87441456D01*
X125163980Y-87457536D01*
X125151824Y-87470243D01*
X125143482Y-87478703D01*
X125140229Y-87481733D01*
X125128162Y-87486998D01*
X125112359Y-87488569D01*
X125104422Y-87488265D01*
X125097191Y-87486898D01*
X125089300Y-87483788D01*
X125079385Y-87478257D01*
X125066080Y-87469624D01*
X125048020Y-87457210D01*
X125044611Y-87454837D01*
X124952758Y-87391933D01*
X124865347Y-87334417D01*
X124781602Y-87281867D01*
X124700742Y-87233858D01*
X124621989Y-87189969D01*
X124544563Y-87149776D01*
X124467686Y-87112857D01*
X124390578Y-87078788D01*
X124312461Y-87047146D01*
X124251696Y-87024375D01*
X124112639Y-86977949D01*
X123972192Y-86938982D01*
X123830170Y-86907452D01*
X123686389Y-86883336D01*
X123540666Y-86866612D01*
X123392815Y-86857258D01*
X123242654Y-86855252D01*
X123089998Y-86860570D01*
X122970690Y-86869639D01*
X122826653Y-86887009D01*
X122684027Y-86912037D01*
X122542930Y-86944677D01*
X122403479Y-86984882D01*
X122265793Y-87032606D01*
X122129988Y-87087802D01*
X121996182Y-87150422D01*
X121864493Y-87220421D01*
X121735039Y-87297752D01*
X121607937Y-87382368D01*
X121522697Y-87444205D01*
X121494760Y-87464778D01*
X121471827Y-87480622D01*
X121452986Y-87492114D01*
X121437328Y-87499635D01*
X121423945Y-87503562D01*
X121411926Y-87504274D01*
X121400363Y-87502150D01*
X121391366Y-87498891D01*
X121384469Y-87495024D01*
X121372454Y-87487282D01*
X121356474Y-87476451D01*
X121337680Y-87463314D01*
X121317227Y-87448658D01*
X121312045Y-87444889D01*
X121188817Y-87358529D01*
X121066095Y-87279683D01*
X120943430Y-87208109D01*
X120820371Y-87143569D01*
X120696466Y-87085821D01*
X120571267Y-87034624D01*
X120483817Y-87002968D01*
X120361012Y-86964427D01*
X120233562Y-86931361D01*
X120102522Y-86903899D01*
X119968944Y-86882170D01*
X119833883Y-86866304D01*
X119698392Y-86856429D01*
X119563524Y-86852675D01*
X119430333Y-86855171D01*
X119329339Y-86861452D01*
X119183319Y-86877191D01*
X119039569Y-86900301D01*
X118897871Y-86930845D01*
X118758009Y-86968883D01*
X118619765Y-87014476D01*
X118482923Y-87067687D01*
X118347265Y-87128577D01*
X118297420Y-87153018D01*
X118270215Y-87166730D01*
X118244819Y-87179704D01*
X118220685Y-87192270D01*
X118197265Y-87204759D01*
X118174010Y-87217501D01*
X118150371Y-87230825D01*
X118125802Y-87245063D01*
X118099752Y-87260545D01*
X118071675Y-87277602D01*
X118041023Y-87296562D01*
X118007246Y-87317758D01*
X117969796Y-87341519D01*
X117928126Y-87368175D01*
X117881688Y-87398057D01*
X117829932Y-87431495D01*
X117772311Y-87468819D01*
X117759106Y-87477382D01*
X117742871Y-87487608D01*
X117728598Y-87496036D01*
X117717758Y-87501838D01*
X117711821Y-87504182D01*
X117711605Y-87504195D01*
X117707651Y-87501449D01*
X117698951Y-87493610D01*
X117686111Y-87481281D01*
X117669736Y-87465062D01*
X117650430Y-87445556D01*
X117628797Y-87423364D01*
X117605444Y-87399088D01*
X117596689Y-87389909D01*
X117563178Y-87354680D01*
X117532895Y-87322808D01*
X117505180Y-87293587D01*
X117479376Y-87266310D01*
X117454821Y-87240272D01*
X117430858Y-87214768D01*
X117406826Y-87189091D01*
X117382066Y-87162537D01*
X117355918Y-87134398D01*
X117327724Y-87103970D01*
X117296824Y-87070546D01*
X117262558Y-87033422D01*
X117224268Y-86991891D01*
X117185365Y-86949667D01*
X117172276Y-86935511D01*
X117154885Y-86916784D01*
X117134241Y-86894610D01*
X117111390Y-86870112D01*
X117087380Y-86844413D01*
X117063259Y-86818638D01*
X117053334Y-86808045D01*
X117031839Y-86784961D01*
X117012160Y-86763526D01*
X116994915Y-86744441D01*
X116980725Y-86728402D01*
X116970208Y-86716109D01*
X116963985Y-86708258D01*
X116962508Y-86705703D01*
X116965311Y-86701366D01*
X116973045Y-86692969D01*
X116984698Y-86681522D01*
X116999258Y-86668036D01*
X117008409Y-86659877D01*
X117035442Y-86635447D01*
X117065645Y-86607036D01*
X117097610Y-86576054D01*
X117129931Y-86543906D01*
X117161200Y-86512002D01*
X117190010Y-86481749D01*
X117214954Y-86454555D01*
X117224635Y-86443583D01*
X117301360Y-86349973D01*
X117370533Y-86254448D01*
X117387960Y-86226881D01*
X119134673Y-86226881D01*
X119260448Y-86225850D01*
X119386223Y-86224820D01*
X119499642Y-85919382D01*
X119516983Y-85872727D01*
X119533565Y-85828195D01*
X119549184Y-85786329D01*
X119563638Y-85747670D01*
X119576722Y-85712762D01*
X119588233Y-85682144D01*
X119597968Y-85656360D01*
X119605722Y-85635951D01*
X119611292Y-85621459D01*
X119614475Y-85613426D01*
X119615155Y-85611931D01*
X119616745Y-85615215D01*
X119620736Y-85625333D01*
X119626934Y-85641751D01*
X119635145Y-85663935D01*
X119645174Y-85691350D01*
X119656828Y-85723463D01*
X119669911Y-85759737D01*
X119684231Y-85799639D01*
X119699592Y-85842634D01*
X119715800Y-85888188D01*
X119726490Y-85918332D01*
X119835731Y-86226745D01*
X119951949Y-86226759D01*
X119981180Y-86226683D01*
X120007715Y-86226459D01*
X120030597Y-86226109D01*
X120048865Y-86225652D01*
X120061562Y-86225110D01*
X120067729Y-86224502D01*
X120068167Y-86224286D01*
X120067022Y-86220321D01*
X120063676Y-86209344D01*
X120058269Y-86191798D01*
X120050938Y-86168128D01*
X120041822Y-86138775D01*
X120031059Y-86104184D01*
X120018787Y-86064798D01*
X120005144Y-86021059D01*
X119990268Y-85973412D01*
X119974298Y-85922300D01*
X119957371Y-85868165D01*
X119939626Y-85811452D01*
X119921200Y-85752602D01*
X119918133Y-85742811D01*
X119899515Y-85683365D01*
X119881490Y-85625796D01*
X119864201Y-85570566D01*
X119847792Y-85518133D01*
X119832407Y-85468958D01*
X119818191Y-85423502D01*
X119805286Y-85382224D01*
X119793837Y-85345585D01*
X119789653Y-85332187D01*
X119787306Y-85324670D01*
X120343575Y-85324670D01*
X120343575Y-85332187D01*
X120343591Y-85414706D01*
X120343641Y-85489732D01*
X120343727Y-85557587D01*
X120343852Y-85618590D01*
X120344019Y-85673061D01*
X120344231Y-85721322D01*
X120344489Y-85763693D01*
X120344797Y-85800493D01*
X120345158Y-85832044D01*
X120345573Y-85858666D01*
X120346046Y-85880680D01*
X120346579Y-85898405D01*
X120347175Y-85912162D01*
X120347837Y-85922272D01*
X120348495Y-85928546D01*
X120357560Y-85979156D01*
X120370160Y-86025936D01*
X120385852Y-86067325D01*
X120390814Y-86077886D01*
X120408904Y-86114556D01*
X120388936Y-86168113D01*
X120381874Y-86187217D01*
X120375910Y-86203670D01*
X120371526Y-86216111D01*
X120369208Y-86223179D01*
X120368967Y-86224221D01*
X120372683Y-86224940D01*
X120383072Y-86225531D01*
X120398993Y-86225997D01*
X120419307Y-86226339D01*
X120442874Y-86226560D01*
X120468556Y-86226661D01*
X120495211Y-86226646D01*
X120521701Y-86226515D01*
X120546887Y-86226271D01*
X120569627Y-86225916D01*
X120588784Y-86225451D01*
X120603217Y-86224880D01*
X120611786Y-86224203D01*
X120613593Y-86223783D01*
X120615678Y-86219742D01*
X120620105Y-86209275D01*
X120626533Y-86193292D01*
X120634618Y-86172703D01*
X120644017Y-86148421D01*
X120654388Y-86121354D01*
X120665389Y-86092415D01*
X120676676Y-86062513D01*
X120687907Y-86032560D01*
X120698740Y-86003465D01*
X120708831Y-85976140D01*
X120717838Y-85951496D01*
X120725419Y-85930442D01*
X120731231Y-85913890D01*
X120734930Y-85902751D01*
X120736177Y-85897985D01*
X120737520Y-85893840D01*
X120741397Y-85882990D01*
X120747583Y-85866037D01*
X120755850Y-85843584D01*
X120765973Y-85816234D01*
X120777726Y-85784592D01*
X120790881Y-85749259D01*
X120805214Y-85710839D01*
X120820496Y-85669934D01*
X120836503Y-85627149D01*
X120853008Y-85583086D01*
X120869784Y-85538348D01*
X120886606Y-85493539D01*
X120903246Y-85449261D01*
X120919479Y-85406117D01*
X120935079Y-85364711D01*
X120949818Y-85325646D01*
X120963471Y-85289525D01*
X120975812Y-85256951D01*
X120986613Y-85228527D01*
X120995650Y-85204856D01*
X121002695Y-85186541D01*
X121007522Y-85174186D01*
X121009905Y-85168393D01*
X121010045Y-85168114D01*
X121010546Y-85171013D01*
X121011002Y-85181187D01*
X121011409Y-85198097D01*
X121011763Y-85221204D01*
X121012060Y-85249972D01*
X121012297Y-85283862D01*
X121012468Y-85322334D01*
X121012571Y-85364852D01*
X121012600Y-85410876D01*
X121012553Y-85459869D01*
X121012480Y-85492632D01*
X121011585Y-85823009D01*
X120999806Y-85846039D01*
X120990051Y-85862250D01*
X120978968Y-85873843D01*
X120969021Y-85880819D01*
X120960129Y-85885966D01*
X120951915Y-85889466D01*
X120942409Y-85891739D01*
X120929646Y-85893207D01*
X120911656Y-85894293D01*
X120904624Y-85894622D01*
X120859232Y-85896675D01*
X120810299Y-86027542D01*
X120798344Y-86059539D01*
X120786711Y-86090726D01*
X120775819Y-86119969D01*
X120766090Y-86146136D01*
X120757946Y-86168093D01*
X120751808Y-86184708D01*
X120748797Y-86192919D01*
X120736228Y-86227428D01*
X120881719Y-86225829D01*
X120919835Y-86225383D01*
X120951047Y-86224928D01*
X120976265Y-86224414D01*
X120996399Y-86223789D01*
X121012359Y-86223001D01*
X121025054Y-86221999D01*
X121035393Y-86220731D01*
X121044286Y-86219145D01*
X121052642Y-86217190D01*
X121057683Y-86215845D01*
X121095759Y-86202748D01*
X121128980Y-86185277D01*
X121159632Y-86162098D01*
X121175748Y-86146911D01*
X121201428Y-86117495D01*
X121222650Y-86084932D01*
X121239859Y-86048229D01*
X121253503Y-86006391D01*
X121264027Y-85958421D01*
X121266287Y-85944950D01*
X121267252Y-85938479D01*
X121268125Y-85931573D01*
X121268910Y-85923832D01*
X121269613Y-85914853D01*
X121270237Y-85904235D01*
X121270787Y-85891576D01*
X121271269Y-85876475D01*
X121271686Y-85858530D01*
X121272043Y-85837340D01*
X121272344Y-85812503D01*
X121272595Y-85783617D01*
X121272799Y-85750281D01*
X121272962Y-85712094D01*
X121272976Y-85707110D01*
X121591699Y-85707110D01*
X121591776Y-85809705D01*
X121592200Y-85856730D01*
X121593518Y-85897117D01*
X121595919Y-85932009D01*
X121599588Y-85962548D01*
X121604712Y-85989878D01*
X121611478Y-86015141D01*
X121620073Y-86039479D01*
X121630683Y-86064037D01*
X121634698Y-86072467D01*
X121657356Y-86112289D01*
X121683724Y-86145632D01*
X121714532Y-86173243D01*
X121750511Y-86195865D01*
X121760844Y-86201041D01*
X121775797Y-86207954D01*
X121789951Y-86213830D01*
X121804074Y-86218749D01*
X121818931Y-86222790D01*
X121835290Y-86226032D01*
X121853919Y-86228557D01*
X121875583Y-86230443D01*
X121901049Y-86231770D01*
X121931086Y-86232619D01*
X121966459Y-86233069D01*
X122007936Y-86233200D01*
X122056284Y-86233092D01*
X122068290Y-86233042D01*
X122110892Y-86232842D01*
X122146463Y-86232624D01*
X122175786Y-86232353D01*
X122199643Y-86231996D01*
X122218816Y-86231518D01*
X122234088Y-86230883D01*
X122246242Y-86230059D01*
X122256058Y-86229010D01*
X122264320Y-86227701D01*
X122271811Y-86226098D01*
X122279312Y-86224168D01*
X122281194Y-86223653D01*
X122326411Y-86207735D01*
X122366737Y-86186097D01*
X122402360Y-86158547D01*
X122433470Y-86124893D01*
X122460254Y-86084939D01*
X122482902Y-86038495D01*
X122495880Y-86003574D01*
X122505104Y-85974078D01*
X122512425Y-85946253D01*
X122518035Y-85918624D01*
X122522126Y-85889711D01*
X122524888Y-85858038D01*
X122526515Y-85822128D01*
X122527197Y-85780502D01*
X122527249Y-85761901D01*
X122527137Y-85727688D01*
X122526784Y-85700166D01*
X122526135Y-85678217D01*
X122525133Y-85660720D01*
X122523724Y-85646557D01*
X122521852Y-85634607D01*
X122520680Y-85628909D01*
X122506653Y-85578957D01*
X122487110Y-85531273D01*
X122461753Y-85485506D01*
X122430283Y-85441302D01*
X122392400Y-85398312D01*
X122347806Y-85356183D01*
X122296201Y-85314564D01*
X122237286Y-85273103D01*
X122195251Y-85246269D01*
X122131798Y-85205839D01*
X122075696Y-85167274D01*
X122026755Y-85130398D01*
X121984784Y-85095035D01*
X121949592Y-85061009D01*
X121920989Y-85028144D01*
X121898784Y-84996266D01*
X121882787Y-84965196D01*
X121878445Y-84953988D01*
X121874169Y-84940462D01*
X121871411Y-84927404D01*
X121869863Y-84912435D01*
X121869220Y-84893174D01*
X121869142Y-84881861D01*
X121869059Y-84835857D01*
X121886277Y-84818639D01*
X121894536Y-84810824D01*
X121902681Y-84804522D01*
X121911639Y-84799572D01*
X121922339Y-84795812D01*
X121935708Y-84793080D01*
X121952674Y-84791216D01*
X121974167Y-84790057D01*
X122001113Y-84789441D01*
X122034442Y-84789208D01*
X122055452Y-84789185D01*
X122090505Y-84789242D01*
X122118705Y-84789519D01*
X122141012Y-84790169D01*
X122158387Y-84791347D01*
X122171790Y-84793208D01*
X122182181Y-84795906D01*
X122190519Y-84799596D01*
X122197766Y-84804432D01*
X122204881Y-84810570D01*
X122208296Y-84813798D01*
X122224780Y-84834290D01*
X122237670Y-84860874D01*
X122247071Y-84893855D01*
X122253086Y-84933536D01*
X122254362Y-84948374D01*
X122256955Y-84984509D01*
X122393106Y-84984509D01*
X122529256Y-84984509D01*
X122529256Y-84884418D01*
X122528911Y-84839856D01*
X122527789Y-84801851D01*
X122525763Y-84769175D01*
X122522707Y-84740600D01*
X122518494Y-84714898D01*
X122512996Y-84690839D01*
X122507115Y-84670436D01*
X122488535Y-84621871D01*
X122478441Y-84603570D01*
X122814430Y-84603570D01*
X122814430Y-84769570D01*
X122985339Y-84770588D01*
X123156248Y-84771605D01*
X123157235Y-85499189D01*
X123158222Y-86226773D01*
X123285162Y-86226773D01*
X123412103Y-86226773D01*
X124087946Y-86226773D01*
X124556725Y-86226773D01*
X125025504Y-86226773D01*
X125025504Y-86060747D01*
X125025504Y-85894721D01*
X124687592Y-85894721D01*
X124349681Y-85894721D01*
X124349681Y-85168114D01*
X124349681Y-84441507D01*
X124221409Y-84441507D01*
X124093137Y-84441507D01*
X124090544Y-84725704D01*
X124090237Y-84763650D01*
X124089940Y-84808684D01*
X124089656Y-84860082D01*
X124089386Y-84917119D01*
X124089133Y-84979070D01*
X124088898Y-85045211D01*
X124088685Y-85114816D01*
X124088494Y-85187162D01*
X124088328Y-85261524D01*
X124088190Y-85337176D01*
X124088081Y-85413395D01*
X124088003Y-85489455D01*
X124087959Y-85564632D01*
X124087949Y-85618337D01*
X124087946Y-86226773D01*
X123412103Y-86226773D01*
X123413089Y-85499189D01*
X123414076Y-84771605D01*
X123585028Y-84770588D01*
X123755979Y-84769570D01*
X123754960Y-84604562D01*
X123753941Y-84439554D01*
X123284186Y-84438561D01*
X122814430Y-84437569D01*
X122814430Y-84603570D01*
X122478441Y-84603570D01*
X122465120Y-84579420D01*
X122436723Y-84542953D01*
X122403204Y-84512338D01*
X122364417Y-84487443D01*
X122320219Y-84468137D01*
X122271428Y-84454493D01*
X122262672Y-84452769D01*
X122253411Y-84451342D01*
X122242839Y-84450187D01*
X122230145Y-84449275D01*
X122214521Y-84448578D01*
X122195157Y-84448070D01*
X122171247Y-84447722D01*
X122141979Y-84447508D01*
X122106546Y-84447398D01*
X122064139Y-84447367D01*
X122062431Y-84447367D01*
X122018646Y-84447391D01*
X121981820Y-84447508D01*
X121951100Y-84447778D01*
X121925632Y-84448267D01*
X121904563Y-84449037D01*
X121887039Y-84450151D01*
X121872205Y-84451674D01*
X121859210Y-84453666D01*
X121847199Y-84456193D01*
X121835318Y-84459318D01*
X121822714Y-84463103D01*
X121814369Y-84465743D01*
X121769859Y-84483524D01*
X121730504Y-84506856D01*
X121696209Y-84535862D01*
X121666881Y-84570667D01*
X121642423Y-84611392D01*
X121622742Y-84658164D01*
X121607743Y-84711104D01*
X121601223Y-84744260D01*
X121598894Y-84762518D01*
X121596861Y-84787052D01*
X121595156Y-84816331D01*
X121593812Y-84848820D01*
X121592862Y-84882989D01*
X121592338Y-84917304D01*
X121592272Y-84950234D01*
X121592696Y-84980246D01*
X121593643Y-85005807D01*
X121595146Y-85025386D01*
X121595255Y-85026341D01*
X121604954Y-85080970D01*
X121621084Y-85132613D01*
X121643960Y-85181905D01*
X121673893Y-85229478D01*
X121711199Y-85275965D01*
X121728043Y-85294175D01*
X121757607Y-85323578D01*
X121788188Y-85350978D01*
X121821065Y-85377354D01*
X121857520Y-85403685D01*
X121898835Y-85430949D01*
X121941330Y-85457155D01*
X121996712Y-85491421D01*
X122047594Y-85524909D01*
X122093608Y-85557322D01*
X122134383Y-85588358D01*
X122169549Y-85617721D01*
X122198739Y-85645110D01*
X122221582Y-85670226D01*
X122237708Y-85692771D01*
X122241886Y-85700376D01*
X122245653Y-85708352D01*
X122248333Y-85715746D01*
X122250106Y-85724076D01*
X122251156Y-85734864D01*
X122251665Y-85749630D01*
X122251814Y-85769895D01*
X122251810Y-85783177D01*
X122251259Y-85814297D01*
X122249392Y-85838712D01*
X122245740Y-85857482D01*
X122239837Y-85871670D01*
X122231216Y-85882335D01*
X122219410Y-85890540D01*
X122203952Y-85897345D01*
X122201111Y-85898374D01*
X122192676Y-85899989D01*
X122177694Y-85901460D01*
X122157430Y-85902763D01*
X122133149Y-85903878D01*
X122106116Y-85904780D01*
X122077596Y-85905448D01*
X122048853Y-85905860D01*
X122021154Y-85905992D01*
X121995762Y-85905823D01*
X121973943Y-85905331D01*
X121956962Y-85904492D01*
X121946084Y-85903285D01*
X121944437Y-85902915D01*
X121923133Y-85893119D01*
X121905259Y-85876384D01*
X121890868Y-85852818D01*
X121880014Y-85822528D01*
X121872751Y-85785621D01*
X121869633Y-85752677D01*
X121867106Y-85709163D01*
X121729402Y-85708136D01*
X121591699Y-85707110D01*
X121272976Y-85707110D01*
X121273087Y-85668653D01*
X121273180Y-85619558D01*
X121273245Y-85564406D01*
X121273287Y-85502797D01*
X121273310Y-85434328D01*
X121273319Y-85358598D01*
X121273320Y-85328280D01*
X121273315Y-85249820D01*
X121273299Y-85178776D01*
X121273266Y-85114751D01*
X121273213Y-85057351D01*
X121273133Y-85006177D01*
X121273024Y-84960833D01*
X121272880Y-84920924D01*
X121272696Y-84886051D01*
X121272469Y-84855820D01*
X121272193Y-84829832D01*
X121271864Y-84807693D01*
X121271478Y-84789005D01*
X121271029Y-84773371D01*
X121270513Y-84760396D01*
X121269927Y-84749683D01*
X121269264Y-84740834D01*
X121268521Y-84733455D01*
X121267692Y-84727147D01*
X121266775Y-84721515D01*
X121266288Y-84718868D01*
X121259665Y-84686447D01*
X121252854Y-84658927D01*
X121245079Y-84633418D01*
X121237633Y-84612496D01*
X121227774Y-84586208D01*
X121255430Y-84512650D01*
X121263841Y-84490151D01*
X121271222Y-84470161D01*
X121277158Y-84453826D01*
X121281234Y-84442289D01*
X121282753Y-84437569D01*
X121283035Y-84436693D01*
X121283086Y-84436393D01*
X121279336Y-84435727D01*
X121268715Y-84435120D01*
X121252162Y-84434594D01*
X121230620Y-84434170D01*
X121205029Y-84433869D01*
X121176329Y-84433712D01*
X121162409Y-84433694D01*
X121041732Y-84433694D01*
X121035896Y-84448343D01*
X121033506Y-84454578D01*
X121028646Y-84467449D01*
X121021574Y-84486274D01*
X121012545Y-84510366D01*
X121001816Y-84539041D01*
X120989643Y-84571614D01*
X120976282Y-84607401D01*
X120961989Y-84645716D01*
X120947101Y-84685663D01*
X120931198Y-84728321D01*
X120915230Y-84771104D01*
X120899559Y-84813045D01*
X120884549Y-84853174D01*
X120870561Y-84890523D01*
X120857959Y-84924124D01*
X120847105Y-84953009D01*
X120838361Y-84976209D01*
X120833740Y-84988416D01*
X120826999Y-85006191D01*
X120817826Y-85030402D01*
X120806551Y-85060177D01*
X120793505Y-85094644D01*
X120779018Y-85132929D01*
X120763420Y-85174161D01*
X120747041Y-85217468D01*
X120730210Y-85261976D01*
X120713259Y-85306813D01*
X120708836Y-85318514D01*
X120692785Y-85360976D01*
X120677439Y-85401562D01*
X120663041Y-85439639D01*
X120649829Y-85474570D01*
X120638044Y-85505720D01*
X120627927Y-85532453D01*
X120619718Y-85554135D01*
X120613657Y-85570130D01*
X120609985Y-85579803D01*
X120609069Y-85582202D01*
X120608180Y-85583600D01*
X120607399Y-85582611D01*
X120606720Y-85578825D01*
X120606138Y-85571829D01*
X120605649Y-85561212D01*
X120605246Y-85546561D01*
X120604925Y-85527466D01*
X120604681Y-85503515D01*
X120604508Y-85474295D01*
X120604402Y-85439396D01*
X120604356Y-85398405D01*
X120604366Y-85350910D01*
X120604427Y-85296501D01*
X120604534Y-85234764D01*
X120604558Y-85222805D01*
X120605310Y-84849735D01*
X120614309Y-84830203D01*
X120628356Y-84806513D01*
X120646311Y-84788818D01*
X120660001Y-84780241D01*
X120667320Y-84776934D01*
X120675801Y-84774494D01*
X120686927Y-84772717D01*
X120702180Y-84771401D01*
X120723042Y-84770340D01*
X120735657Y-84769856D01*
X120795688Y-84767699D01*
X120853619Y-84612246D01*
X120866017Y-84578951D01*
X120877624Y-84547729D01*
X120888142Y-84519384D01*
X120897274Y-84494719D01*
X120904723Y-84474539D01*
X120910192Y-84459645D01*
X120913383Y-84450843D01*
X120914049Y-84448922D01*
X120914511Y-84447028D01*
X120914134Y-84445472D01*
X120912241Y-84444226D01*
X120908159Y-84443264D01*
X120901213Y-84442561D01*
X120890726Y-84442088D01*
X120876025Y-84441820D01*
X120856435Y-84441730D01*
X120831280Y-84441792D01*
X120799886Y-84441980D01*
X120761577Y-84442266D01*
X120747256Y-84442378D01*
X120706380Y-84442710D01*
X120672516Y-84443034D01*
X120644866Y-84443392D01*
X120622627Y-84443827D01*
X120605002Y-84444381D01*
X120591188Y-84445098D01*
X120580387Y-84446018D01*
X120571798Y-84447186D01*
X120564620Y-84448642D01*
X120558055Y-84450431D01*
X120551302Y-84452594D01*
X120550619Y-84452821D01*
X120509179Y-84469610D01*
X120472974Y-84490801D01*
X120441722Y-84516784D01*
X120415140Y-84547945D01*
X120392944Y-84584675D01*
X120374851Y-84627362D01*
X120360579Y-84676394D01*
X120350555Y-84727600D01*
X120349587Y-84734104D01*
X120348713Y-84741076D01*
X120347927Y-84748923D01*
X120347225Y-84758051D01*
X120346602Y-84768866D01*
X120346054Y-84781772D01*
X120345575Y-84797178D01*
X120345162Y-84815487D01*
X120344809Y-84837107D01*
X120344512Y-84862443D01*
X120344266Y-84891901D01*
X120344067Y-84925886D01*
X120343909Y-84964806D01*
X120343788Y-85009066D01*
X120343699Y-85059072D01*
X120343639Y-85115229D01*
X120343601Y-85177944D01*
X120343581Y-85247622D01*
X120343575Y-85324670D01*
X119787306Y-85324670D01*
X119783988Y-85314044D01*
X119775882Y-85288063D01*
X119769663Y-85268100D01*
X119765476Y-85254617D01*
X119763463Y-85248073D01*
X119763374Y-85247773D01*
X119762666Y-85245156D01*
X119762212Y-85242363D01*
X119762158Y-85238970D01*
X119762652Y-85234556D01*
X119763841Y-85228700D01*
X119765872Y-85220979D01*
X119768894Y-85210972D01*
X119773051Y-85198256D01*
X119778493Y-85182410D01*
X119785367Y-85163012D01*
X119793818Y-85139640D01*
X119803996Y-85111872D01*
X119816046Y-85079286D01*
X119830117Y-85041461D01*
X119846355Y-84997974D01*
X119864907Y-84948404D01*
X119885922Y-84892329D01*
X119907548Y-84834652D01*
X119927518Y-84781381D01*
X119946702Y-84730173D01*
X119964922Y-84681504D01*
X119982002Y-84635844D01*
X119997766Y-84593668D01*
X120012037Y-84555449D01*
X120024640Y-84521658D01*
X120035396Y-84492770D01*
X120044130Y-84469257D01*
X120050666Y-84451593D01*
X120054826Y-84440250D01*
X120056434Y-84435701D01*
X120056448Y-84435638D01*
X120052696Y-84435164D01*
X120042059Y-84434732D01*
X120025465Y-84434357D01*
X120003840Y-84434052D01*
X119978114Y-84433832D01*
X119949214Y-84433712D01*
X119932299Y-84433694D01*
X119808150Y-84433694D01*
X119722325Y-84664603D01*
X119707214Y-84705180D01*
X119692829Y-84743658D01*
X119679412Y-84779397D01*
X119667205Y-84811762D01*
X119656449Y-84840114D01*
X119647388Y-84863815D01*
X119640262Y-84882229D01*
X119635315Y-84894717D01*
X119632787Y-84900643D01*
X119632594Y-84900984D01*
X119630879Y-84900207D01*
X119627620Y-84894860D01*
X119622667Y-84884585D01*
X119615871Y-84869022D01*
X119607081Y-84847812D01*
X119596149Y-84820599D01*
X119582926Y-84787023D01*
X119567261Y-84746725D01*
X119554646Y-84714023D01*
X119539834Y-84675539D01*
X119525340Y-84637900D01*
X119511507Y-84601999D01*
X119498679Y-84568728D01*
X119487201Y-84538979D01*
X119477418Y-84513647D01*
X119469673Y-84493621D01*
X119464310Y-84479796D01*
X119463471Y-84477642D01*
X119446338Y-84433694D01*
X119329655Y-84433694D01*
X119212972Y-84433694D01*
X119324563Y-84764769D01*
X119341850Y-84816067D01*
X119359001Y-84866979D01*
X119375772Y-84916778D01*
X119391918Y-84964738D01*
X119407195Y-85010132D01*
X119421359Y-85052235D01*
X119434164Y-85090319D01*
X119445367Y-85123658D01*
X119454723Y-85151526D01*
X119461988Y-85173196D01*
X119465515Y-85183740D01*
X119494877Y-85271636D01*
X119325981Y-85718929D01*
X119304385Y-85776128D01*
X119283407Y-85831699D01*
X119263231Y-85885157D01*
X119244038Y-85936020D01*
X119226011Y-85983804D01*
X119209331Y-86028027D01*
X119194181Y-86068206D01*
X119180743Y-86103857D01*
X119169199Y-86134497D01*
X119159732Y-86159643D01*
X119152523Y-86178812D01*
X119147754Y-86191522D01*
X119145879Y-86196552D01*
X119134673Y-86226881D01*
X117387960Y-86226881D01*
X117432171Y-86156945D01*
X117486290Y-86057406D01*
X117532908Y-85955768D01*
X117572041Y-85851972D01*
X117603706Y-85745955D01*
X117627921Y-85637659D01*
X117644702Y-85527021D01*
X117654066Y-85413982D01*
X117655390Y-85336093D01*
X118028979Y-85336093D01*
X118028979Y-86226773D01*
X118173499Y-86226773D01*
X118318019Y-86226773D01*
X118319016Y-85867216D01*
X118320013Y-85507660D01*
X118488563Y-85866240D01*
X118657114Y-86224820D01*
X118806225Y-86225843D01*
X118839397Y-86225995D01*
X118869908Y-86225988D01*
X118896926Y-86225835D01*
X118919617Y-86225545D01*
X118937150Y-86225131D01*
X118948693Y-86224604D01*
X118953412Y-86223974D01*
X118953469Y-86223845D01*
X118951437Y-86219513D01*
X118946546Y-86208574D01*
X118939024Y-86191547D01*
X118929095Y-86168952D01*
X118916985Y-86141309D01*
X118902920Y-86109137D01*
X118887125Y-86072956D01*
X118869827Y-86033286D01*
X118851250Y-85990647D01*
X118831621Y-85945558D01*
X118811166Y-85898539D01*
X118790109Y-85850109D01*
X118768678Y-85800789D01*
X118747096Y-85751098D01*
X118725591Y-85701557D01*
X118704387Y-85652683D01*
X118683711Y-85604998D01*
X118663788Y-85559021D01*
X118644844Y-85515272D01*
X118627105Y-85474270D01*
X118610795Y-85436536D01*
X118596142Y-85402588D01*
X118583370Y-85372947D01*
X118572706Y-85348133D01*
X118564374Y-85328664D01*
X118558601Y-85315061D01*
X118555613Y-85307844D01*
X118555233Y-85306795D01*
X118556844Y-85302819D01*
X118561554Y-85292202D01*
X118569161Y-85275383D01*
X118579462Y-85252802D01*
X118592255Y-85224898D01*
X118607337Y-85192112D01*
X118624505Y-85154882D01*
X118643557Y-85113648D01*
X118664290Y-85068851D01*
X118686501Y-85020928D01*
X118709988Y-84970321D01*
X118734548Y-84917468D01*
X118751518Y-84880987D01*
X118776722Y-84826806D01*
X118801019Y-84774533D01*
X118824204Y-84724611D01*
X118846072Y-84677485D01*
X118866417Y-84633598D01*
X118885034Y-84593394D01*
X118901718Y-84557316D01*
X118916264Y-84525809D01*
X118928466Y-84499316D01*
X118938119Y-84478281D01*
X118945019Y-84463147D01*
X118948958Y-84454359D01*
X118949838Y-84452250D01*
X118949961Y-84450479D01*
X118948716Y-84449043D01*
X118945376Y-84447906D01*
X118939217Y-84447034D01*
X118929514Y-84446391D01*
X118915540Y-84445945D01*
X118896570Y-84445658D01*
X118871880Y-84445497D01*
X118840744Y-84445427D01*
X118807255Y-84445413D01*
X118662687Y-84445413D01*
X118491499Y-84769652D01*
X118466820Y-84816348D01*
X118443156Y-84861030D01*
X118420763Y-84903220D01*
X118399898Y-84942439D01*
X118380816Y-84978211D01*
X118363773Y-85010056D01*
X118349024Y-85037498D01*
X118336827Y-85060059D01*
X118327436Y-85077260D01*
X118321107Y-85088623D01*
X118318097Y-85093672D01*
X118317892Y-85093891D01*
X118317543Y-85090080D01*
X118317253Y-85079031D01*
X118317021Y-85061317D01*
X118316850Y-85037512D01*
X118316740Y-85008191D01*
X118316692Y-84973927D01*
X118316708Y-84935294D01*
X118316787Y-84892868D01*
X118316933Y-84847221D01*
X118317144Y-84798927D01*
X118317299Y-84769652D01*
X118319126Y-84445413D01*
X118174053Y-84445413D01*
X118028979Y-84445413D01*
X118028979Y-85336093D01*
X117655390Y-85336093D01*
X117656030Y-85298480D01*
X117650611Y-85180455D01*
X117637826Y-85059845D01*
X117628296Y-84996229D01*
X117605606Y-84881951D01*
X117575544Y-84769887D01*
X117538260Y-84660396D01*
X117493907Y-84553835D01*
X117442638Y-84450563D01*
X117439638Y-84445413D01*
X117384606Y-84350937D01*
X117319962Y-84255316D01*
X117303110Y-84232510D01*
X117255785Y-84172730D01*
X117203128Y-84111872D01*
X117147001Y-84051910D01*
X117089262Y-83994823D01*
X117031773Y-83942587D01*
X117024035Y-83935931D01*
X117007496Y-83921514D01*
X116993280Y-83908564D01*
X116982374Y-83898026D01*
X116975768Y-83890845D01*
X116974227Y-83888265D01*
X116976708Y-83884968D01*
X116984176Y-83876792D01*
X116996673Y-83863696D01*
X117014240Y-83845640D01*
X117036917Y-83822582D01*
X117064745Y-83794483D01*
X117097764Y-83761302D01*
X117136016Y-83722997D01*
X117179541Y-83679528D01*
X117228379Y-83630854D01*
X117282572Y-83576935D01*
X117342160Y-83517730D01*
X117407184Y-83453197D01*
X117477685Y-83383297D01*
X117553703Y-83307989D01*
X117594580Y-83267515D01*
X117627084Y-83235451D01*
X117654536Y-83208655D01*
X117677333Y-83186797D01*
X117695869Y-83169544D01*
X117710542Y-83156565D01*
X117721748Y-83147529D01*
X117729882Y-83142104D01*
X117735340Y-83139959D01*
X117738520Y-83140762D01*
X117739817Y-83144182D01*
X117739899Y-83145900D01*
X117743128Y-83149996D01*
X117752357Y-83157682D01*
X117766899Y-83168504D01*
X117786070Y-83182011D01*
X117809182Y-83197749D01*
X117835549Y-83215266D01*
X117864487Y-83234108D01*
X117895307Y-83253824D01*
X117927325Y-83273960D01*
X117959855Y-83294064D01*
X117992209Y-83313683D01*
X118012490Y-83325766D01*
X118143158Y-83399595D01*
X118274949Y-83467301D01*
X118407278Y-83528638D01*
X118539559Y-83583356D01*
X118671208Y-83631208D01*
X118801639Y-83671945D01*
X118878830Y-83692809D01*
X118923659Y-83703873D01*
X118967975Y-83714181D01*
X119010851Y-83723556D01*
X119051358Y-83731820D01*
X119088570Y-83738796D01*
X119121561Y-83744307D01*
X119149402Y-83748176D01*
X119171167Y-83750225D01*
X119180418Y-83750510D01*
X119194160Y-83750856D01*
X119204226Y-83751908D01*
X119208675Y-83753449D01*
X119208740Y-83753672D01*
X119211856Y-83756354D01*
X119221424Y-83758649D01*
X119237772Y-83760596D01*
X119261231Y-83762233D01*
X119292128Y-83763596D01*
X119296622Y-83763753D01*
X119316376Y-83764620D01*
X119333097Y-83765730D01*
X119345354Y-83766959D01*
X119351715Y-83768183D01*
X119352280Y-83768574D01*
X119356360Y-83769871D01*
X119366168Y-83770484D01*
X119379642Y-83770291D01*
X119380615Y-83770247D01*
X119394080Y-83770032D01*
X119403844Y-83770685D01*
X119407939Y-83772064D01*
X119407962Y-83772200D01*
X119411592Y-83773425D01*
X119421416Y-83774199D01*
X119435822Y-83774444D01*
X119448980Y-83774222D01*
X119465813Y-83774000D01*
X119479300Y-83774359D01*
X119487831Y-83775221D01*
X119490008Y-83776176D01*
X119493722Y-83777131D01*
X119504094Y-83777972D01*
X119519969Y-83778652D01*
X119540190Y-83779126D01*
X119563605Y-83779346D01*
X119570092Y-83779357D01*
X119594149Y-83779209D01*
X119615314Y-83778797D01*
X119632433Y-83778167D01*
X119644351Y-83777363D01*
X119649912Y-83776433D01*
X119650174Y-83776176D01*
X119653807Y-83774979D01*
X119663634Y-83774228D01*
X119678042Y-83773997D01*
X119691199Y-83774222D01*
X119708032Y-83774519D01*
X119721518Y-83774361D01*
X119730045Y-83773794D01*
X119732218Y-83773108D01*
X119735857Y-83771959D01*
X119745744Y-83770611D01*
X119760322Y-83769240D01*
X119776157Y-83768134D01*
X119863190Y-83760866D01*
X119955053Y-83749333D01*
X120050240Y-83733842D01*
X120147242Y-83714695D01*
X120244551Y-83692197D01*
X120340659Y-83666652D01*
X120434059Y-83638364D01*
X120456863Y-83630881D01*
X120582409Y-83585484D01*
X120708668Y-83532912D01*
X120834762Y-83473637D01*
X120959813Y-83408132D01*
X121082941Y-83336871D01*
X121203268Y-83260326D01*
X121319914Y-83178971D01*
X121380259Y-83133823D01*
X121395340Y-83122870D01*
X121407887Y-83114933D01*
X121416575Y-83110805D01*
X121419324Y-83110467D01*
X121424074Y-83113212D01*
G37*
D15*
X134222000Y-78486000D02*
X134222000Y-164956000D01*
X131462000Y-164956000D02*
X134222000Y-164956000D01*
X131462000Y-78486000D02*
X134222000Y-78486000D01*
X131462000Y-78486000D02*
X131462000Y-164956000D01*
X111362000Y-78486000D02*
X111362000Y-164956000D01*
X108602000Y-164956000D02*
X111362000Y-164956000D01*
X108602000Y-78486000D02*
X111362000Y-78486000D01*
X108602000Y-78486000D02*
X108602000Y-164956000D01*
%LPC*%
D17*
X119997786Y-124350214D03*
X122826214Y-121521786D03*
X122826214Y-124350214D03*
X119997786Y-121521786D03*
X121412000Y-122936000D03*
X124240427Y-122936000D03*
X121412000Y-120107573D03*
X118583573Y-122936000D03*
X121412000Y-125764427D03*
D18*
X120704893Y-116925592D03*
D19*
X121412000Y-122936000D03*
D20*
X122119107Y-116925592D03*
X122472660Y-117279146D03*
X122826214Y-117632699D03*
X123179767Y-117986253D03*
X123533320Y-118339806D03*
X123886874Y-118693359D03*
X124240427Y-119046913D03*
X124593981Y-119400466D03*
X124947534Y-119754019D03*
X125301087Y-120107573D03*
X125654641Y-120461126D03*
X126008194Y-120814680D03*
X126361747Y-121168233D03*
X126715301Y-121521786D03*
X127068854Y-121875340D03*
X127422408Y-122228893D03*
D18*
X127422408Y-123643107D03*
X127068854Y-123996660D03*
X126715301Y-124350214D03*
X126361747Y-124703767D03*
X126008194Y-125057320D03*
X125654641Y-125410874D03*
X125301087Y-125764427D03*
X124947534Y-126117981D03*
X124593981Y-126471534D03*
X124240427Y-126825087D03*
X123886874Y-127178641D03*
X123533320Y-127532194D03*
X123179767Y-127885747D03*
X122826214Y-128239301D03*
X122472660Y-128592854D03*
X122119107Y-128946408D03*
D21*
X120704893Y-128946408D03*
X120351340Y-128592854D03*
X119997786Y-128239301D03*
X119644233Y-127885747D03*
X119290680Y-127532194D03*
X118937126Y-127178641D03*
X118583573Y-126825087D03*
X118230019Y-126471534D03*
X117876466Y-126117981D03*
X117522913Y-125764427D03*
X117169359Y-125410874D03*
X116815806Y-125057320D03*
X116462253Y-124703767D03*
X116108699Y-124350214D03*
X115755146Y-123996660D03*
X115401592Y-123643107D03*
D18*
X115401592Y-122228893D03*
X115755146Y-121875340D03*
X116108699Y-121521786D03*
X116462253Y-121168233D03*
X116815806Y-120814680D03*
X117169359Y-120461126D03*
X117522913Y-120107573D03*
X117876466Y-119754019D03*
X118230019Y-119400466D03*
X118583573Y-119046913D03*
X118937126Y-118693359D03*
X119290680Y-118339806D03*
X119644233Y-117986253D03*
X119997786Y-117632699D03*
X120351340Y-117279146D03*
D22*
X132842000Y-163576000D03*
X132842000Y-161036000D03*
X132842000Y-158496000D03*
X132842000Y-155956000D03*
X132842000Y-153416000D03*
X132842000Y-150876000D03*
X132842000Y-148336000D03*
X132842000Y-145796000D03*
X132842000Y-143256000D03*
X132842000Y-140716000D03*
X132842000Y-138176000D03*
X132842000Y-135636000D03*
X132842000Y-133096000D03*
X132842000Y-130556000D03*
X132842000Y-128016000D03*
X132842000Y-125476000D03*
X132842000Y-122936000D03*
X132842000Y-120396000D03*
X132842000Y-117856000D03*
X132842000Y-115316000D03*
X132842000Y-112776000D03*
X132842000Y-110236000D03*
X132842000Y-107696000D03*
X132842000Y-105156000D03*
X132842000Y-102616000D03*
X132842000Y-100076000D03*
X132842000Y-97536000D03*
X132842000Y-94996000D03*
X132842000Y-92456000D03*
X132842000Y-89916000D03*
X132842000Y-87376000D03*
X132842000Y-84836000D03*
X132842000Y-82296000D03*
X132842000Y-79756000D03*
X109982000Y-163576000D03*
X109982000Y-161036000D03*
X109982000Y-158496000D03*
X109982000Y-155956000D03*
X109982000Y-153416000D03*
X109982000Y-150876000D03*
X109982000Y-148336000D03*
X109982000Y-145796000D03*
X109982000Y-143256000D03*
X109982000Y-140716000D03*
X109982000Y-138176000D03*
X109982000Y-135636000D03*
X109982000Y-133096000D03*
X109982000Y-130556000D03*
X109982000Y-128016000D03*
X109982000Y-125476000D03*
X109982000Y-122936000D03*
X109982000Y-120396000D03*
X109982000Y-117856000D03*
X109982000Y-115316000D03*
X109982000Y-112776000D03*
X109982000Y-110236000D03*
X109982000Y-107696000D03*
X109982000Y-105156000D03*
X109982000Y-102616000D03*
X109982000Y-100076000D03*
X109982000Y-97536000D03*
X109982000Y-94996000D03*
X109982000Y-92456000D03*
X109982000Y-89916000D03*
X109982000Y-87376000D03*
X109982000Y-84836000D03*
X109982000Y-82296000D03*
D23*
X109982000Y-79756000D03*
%LPD*%
M02*
