G04 #@! TF.GenerationSoftware,KiCad,Pcbnew,9.0.6*
G04 #@! TF.CreationDate,2026-01-07T12:47:01-06:00*
G04 #@! TF.ProjectId,QFN-64_9x9_P0.5,51464e2d-3634-45f3-9978-395f50302e35,rev?*
G04 #@! TF.SameCoordinates,Original*
G04 #@! TF.FileFunction,Legend,Top*
G04 #@! TF.FilePolarity,Positive*
%FSLAX46Y46*%
G04 Gerber Fmt 4.6, Leading zero omitted, Abs format (unit mm)*
G04 Created by KiCad (PCBNEW 9.0.6) date 2026-01-07 12:47:01*
%MOMM*%
%LPD*%
G01*
G04 APERTURE LIST*
G04 Aperture macros list*
%AMRotRect*
0 Rectangle, with rotation*
0 The origin of the aperture is its center*
0 $1 length*
0 $2 width*
0 $3 Rotation angle, in degrees counterclockwise*
0 Add horizontal line*
21,1,$1,$2,0,0,$3*%
G04 Aperture macros list end*
%ADD10C,0.100000*%
%ADD11C,0.200000*%
%ADD12C,0.300000*%
%ADD13C,0.150000*%
%ADD14C,0.120000*%
%ADD15C,0.000000*%
%ADD16RotRect,0.300000X1.400000X45.000000*%
%ADD17RotRect,0.300000X1.300000X315.000000*%
%ADD18RotRect,0.300000X1.400000X315.000000*%
%ADD19C,1.000000*%
%ADD20RotRect,6.100000X6.100000X315.000000*%
%ADD21R,1.700000X1.700000*%
%ADD22C,1.700000*%
G04 APERTURE END LIST*
D10*
X113387000Y-132378500D02*
X129423000Y-132378500D01*
X129423000Y-133741500D01*
X113387000Y-133741500D01*
X113387000Y-132378500D01*
G36*
X113387000Y-132378500D02*
G01*
X129423000Y-132378500D01*
X129423000Y-133741500D01*
X113387000Y-133741500D01*
X113387000Y-132378500D01*
G37*
X113339000Y-152636500D02*
X129395000Y-152636500D01*
X129395000Y-154028500D01*
X113339000Y-154028500D01*
X113339000Y-152636500D01*
G36*
X113339000Y-152636500D02*
G01*
X129395000Y-152636500D01*
X129395000Y-154028500D01*
X113339000Y-154028500D01*
X113339000Y-152636500D01*
G37*
D11*
G36*
X131063471Y-153368976D02*
G01*
X131088140Y-153393644D01*
X131117945Y-153453254D01*
X131117945Y-153644135D01*
X131088140Y-153703743D01*
X131063471Y-153728413D01*
X131003862Y-153758219D01*
X130860600Y-153758219D01*
X130800990Y-153728414D01*
X130776323Y-153703746D01*
X130746517Y-153644134D01*
X130746517Y-153453254D01*
X130776322Y-153393644D01*
X130800990Y-153368975D01*
X130860600Y-153339171D01*
X131003862Y-153339171D01*
X131063471Y-153368976D01*
G37*
G36*
X131429056Y-154069330D02*
G01*
X129437327Y-154069330D01*
X129437327Y-152838710D01*
X129548438Y-152838710D01*
X129548438Y-152877728D01*
X129563370Y-152913776D01*
X129590960Y-152941366D01*
X129627008Y-152956298D01*
X129646517Y-152958219D01*
X130045187Y-152958219D01*
X129856973Y-153173321D01*
X129850943Y-153181754D01*
X129849084Y-153183614D01*
X129848353Y-153185377D01*
X129845572Y-153189268D01*
X129840367Y-153204656D01*
X129834152Y-153219662D01*
X129834152Y-153223035D01*
X129833072Y-153226229D01*
X129834152Y-153242431D01*
X129834152Y-153258680D01*
X129835442Y-153261795D01*
X129835667Y-153265161D01*
X129842867Y-153279721D01*
X129849084Y-153294728D01*
X129851468Y-153297112D01*
X129852964Y-153300136D01*
X129865189Y-153310833D01*
X129876674Y-153322318D01*
X129879788Y-153323608D01*
X129882328Y-153325830D01*
X129897716Y-153331034D01*
X129912722Y-153337250D01*
X129917481Y-153337718D01*
X129919289Y-153338330D01*
X129921913Y-153338155D01*
X129932231Y-153339171D01*
X130051481Y-153339171D01*
X130111090Y-153368976D01*
X130135759Y-153393644D01*
X130165564Y-153453254D01*
X130165564Y-153644135D01*
X130135759Y-153703743D01*
X130111090Y-153728413D01*
X130051481Y-153758219D01*
X129812981Y-153758219D01*
X129753371Y-153728414D01*
X129717228Y-153692270D01*
X129702075Y-153679833D01*
X129666027Y-153664902D01*
X129627009Y-153664901D01*
X129590960Y-153679832D01*
X129563370Y-153707422D01*
X129548439Y-153743470D01*
X129548438Y-153782488D01*
X129563369Y-153818537D01*
X129575806Y-153833690D01*
X129623424Y-153881310D01*
X129631092Y-153887603D01*
X129632824Y-153889600D01*
X129635832Y-153891493D01*
X129638578Y-153893747D01*
X129641018Y-153894757D01*
X129649415Y-153900043D01*
X129744652Y-153947662D01*
X129762961Y-153954668D01*
X129766544Y-153954922D01*
X129769865Y-153956298D01*
X129789374Y-153958219D01*
X130075088Y-153958219D01*
X130094597Y-153956298D01*
X130097917Y-153954922D01*
X130101501Y-153954668D01*
X130119809Y-153947662D01*
X130215047Y-153900043D01*
X130223442Y-153894758D01*
X130225884Y-153893747D01*
X130228631Y-153891491D01*
X130231637Y-153889600D01*
X130233367Y-153887605D01*
X130241037Y-153881310D01*
X130288656Y-153833690D01*
X130294948Y-153826023D01*
X130296945Y-153824292D01*
X130298838Y-153821284D01*
X130301093Y-153818537D01*
X130302104Y-153816095D01*
X130307388Y-153807701D01*
X130355007Y-153712464D01*
X130362013Y-153694155D01*
X130362267Y-153690571D01*
X130363643Y-153687251D01*
X130365564Y-153667742D01*
X130365564Y-153429647D01*
X130363643Y-153410138D01*
X130362267Y-153406817D01*
X130362013Y-153403234D01*
X130355007Y-153384925D01*
X130307388Y-153289688D01*
X130305564Y-153286790D01*
X130546517Y-153286790D01*
X130546517Y-153667742D01*
X130548438Y-153687251D01*
X130549813Y-153690571D01*
X130550068Y-153694155D01*
X130557074Y-153712463D01*
X130604693Y-153807701D01*
X130609976Y-153816093D01*
X130610988Y-153818537D01*
X130613244Y-153821286D01*
X130615136Y-153824291D01*
X130617130Y-153826020D01*
X130623425Y-153833690D01*
X130671043Y-153881310D01*
X130678711Y-153887603D01*
X130680443Y-153889600D01*
X130683451Y-153891493D01*
X130686197Y-153893747D01*
X130688637Y-153894757D01*
X130697034Y-153900043D01*
X130792271Y-153947662D01*
X130810580Y-153954668D01*
X130814163Y-153954922D01*
X130817484Y-153956298D01*
X130836993Y-153958219D01*
X131027469Y-153958219D01*
X131046978Y-153956298D01*
X131050298Y-153954922D01*
X131053882Y-153954668D01*
X131072190Y-153947662D01*
X131167428Y-153900043D01*
X131175823Y-153894758D01*
X131178265Y-153893747D01*
X131181012Y-153891491D01*
X131184018Y-153889600D01*
X131185748Y-153887605D01*
X131193418Y-153881310D01*
X131241037Y-153833690D01*
X131247329Y-153826023D01*
X131249326Y-153824292D01*
X131251219Y-153821284D01*
X131253474Y-153818537D01*
X131254485Y-153816095D01*
X131259769Y-153807701D01*
X131307388Y-153712464D01*
X131314394Y-153694155D01*
X131314648Y-153690571D01*
X131316024Y-153687251D01*
X131317945Y-153667742D01*
X131317945Y-153429647D01*
X131316024Y-153410138D01*
X131314648Y-153406817D01*
X131314394Y-153403234D01*
X131307388Y-153384925D01*
X131259769Y-153289688D01*
X131254483Y-153281291D01*
X131253473Y-153278851D01*
X131251219Y-153276105D01*
X131249326Y-153273097D01*
X131247328Y-153271364D01*
X131241036Y-153263698D01*
X131193418Y-153216079D01*
X131185747Y-153209784D01*
X131184018Y-153207790D01*
X131181010Y-153205896D01*
X131178264Y-153203643D01*
X131175824Y-153202632D01*
X131167428Y-153197347D01*
X131072190Y-153149728D01*
X131053882Y-153142722D01*
X131050298Y-153142467D01*
X131046978Y-153141092D01*
X131027469Y-153139171D01*
X130836993Y-153139171D01*
X130817484Y-153141092D01*
X130814163Y-153142467D01*
X130810580Y-153142722D01*
X130792271Y-153149728D01*
X130782658Y-153154534D01*
X130786949Y-153137372D01*
X130867085Y-153017167D01*
X130896228Y-152988023D01*
X130955838Y-152958219D01*
X131122707Y-152958219D01*
X131142216Y-152956298D01*
X131178264Y-152941366D01*
X131205854Y-152913776D01*
X131220786Y-152877728D01*
X131220786Y-152838710D01*
X131205854Y-152802662D01*
X131178264Y-152775072D01*
X131142216Y-152760140D01*
X131122707Y-152758219D01*
X130932231Y-152758219D01*
X130912722Y-152760140D01*
X130909401Y-152761515D01*
X130905818Y-152761770D01*
X130887509Y-152768776D01*
X130792272Y-152816395D01*
X130783875Y-152821680D01*
X130781435Y-152822691D01*
X130778689Y-152824944D01*
X130775681Y-152826838D01*
X130773948Y-152828835D01*
X130766282Y-152835128D01*
X130718663Y-152882746D01*
X130718618Y-152882800D01*
X130718589Y-152882820D01*
X130712407Y-152890368D01*
X130706227Y-152897900D01*
X130706213Y-152897932D01*
X130706169Y-152897987D01*
X130610931Y-153040844D01*
X130605188Y-153051613D01*
X130603717Y-153053600D01*
X130602879Y-153055945D01*
X130601708Y-153058142D01*
X130601228Y-153060565D01*
X130597122Y-153072061D01*
X130549503Y-153262536D01*
X130549002Y-153265917D01*
X130548438Y-153267281D01*
X130547714Y-153274631D01*
X130546635Y-153281929D01*
X130546852Y-153283387D01*
X130546517Y-153286790D01*
X130305564Y-153286790D01*
X130302102Y-153281291D01*
X130301092Y-153278851D01*
X130298838Y-153276105D01*
X130296945Y-153273097D01*
X130294947Y-153271364D01*
X130288655Y-153263698D01*
X130241037Y-153216079D01*
X130233366Y-153209784D01*
X130231637Y-153207790D01*
X130228629Y-153205896D01*
X130225883Y-153203643D01*
X130223443Y-153202632D01*
X130215047Y-153197347D01*
X130136199Y-153157923D01*
X130340822Y-152924069D01*
X130346851Y-152915635D01*
X130348711Y-152913776D01*
X130349441Y-152912012D01*
X130352223Y-152908122D01*
X130357427Y-152892733D01*
X130363643Y-152877728D01*
X130363643Y-152874354D01*
X130364723Y-152871161D01*
X130363643Y-152854958D01*
X130363643Y-152838710D01*
X130362352Y-152835594D01*
X130362128Y-152832229D01*
X130354925Y-152817663D01*
X130348711Y-152802662D01*
X130346327Y-152800278D01*
X130344832Y-152797254D01*
X130332598Y-152786549D01*
X130321121Y-152775072D01*
X130318007Y-152773782D01*
X130315468Y-152771560D01*
X130300076Y-152766354D01*
X130285073Y-152760140D01*
X130280313Y-152759671D01*
X130278506Y-152759060D01*
X130275881Y-152759234D01*
X130265564Y-152758219D01*
X129646517Y-152758219D01*
X129627008Y-152760140D01*
X129590960Y-152775072D01*
X129563370Y-152802662D01*
X129548438Y-152838710D01*
X129437327Y-152838710D01*
X129437327Y-152647108D01*
X131429056Y-152647108D01*
X131429056Y-154069330D01*
G37*
G36*
X113022409Y-152993975D02*
G01*
X113047078Y-153018643D01*
X113076883Y-153078253D01*
X113076883Y-153269134D01*
X113047078Y-153328743D01*
X113022409Y-153353411D01*
X112962800Y-153383217D01*
X112819538Y-153383217D01*
X112759928Y-153353412D01*
X112735260Y-153328743D01*
X112705455Y-153269133D01*
X112705455Y-153078253D01*
X112735260Y-153018643D01*
X112759928Y-152993974D01*
X112819538Y-152964170D01*
X112962800Y-152964170D01*
X113022409Y-152993975D01*
G37*
G36*
X113387994Y-154075281D02*
G01*
X111396265Y-154075281D01*
X111396265Y-153844661D01*
X111507376Y-153844661D01*
X111507376Y-153883679D01*
X111522308Y-153919727D01*
X111549898Y-153947317D01*
X111585946Y-153962249D01*
X111605455Y-153964170D01*
X112224502Y-153964170D01*
X112244011Y-153962249D01*
X112280059Y-153947317D01*
X112307649Y-153919727D01*
X112322581Y-153883679D01*
X112322581Y-153844661D01*
X112307649Y-153808613D01*
X112280059Y-153781023D01*
X112244011Y-153766091D01*
X112224502Y-153764170D01*
X111846877Y-153764170D01*
X112247594Y-153363452D01*
X112260030Y-153348298D01*
X112261404Y-153344979D01*
X112263760Y-153342264D01*
X112271751Y-153324364D01*
X112319370Y-153181507D01*
X112321569Y-153171834D01*
X112322581Y-153169393D01*
X112322929Y-153165855D01*
X112323717Y-153162392D01*
X112323529Y-153159757D01*
X112324502Y-153149884D01*
X112324502Y-153054646D01*
X112505455Y-153054646D01*
X112505455Y-153292741D01*
X112507376Y-153312250D01*
X112508751Y-153315570D01*
X112509006Y-153319154D01*
X112516012Y-153337462D01*
X112563631Y-153432700D01*
X112568916Y-153441096D01*
X112569927Y-153443536D01*
X112572180Y-153446282D01*
X112574074Y-153449290D01*
X112576068Y-153451019D01*
X112582363Y-153458690D01*
X112629982Y-153506308D01*
X112637648Y-153512600D01*
X112639381Y-153514598D01*
X112642389Y-153516491D01*
X112645135Y-153518745D01*
X112647575Y-153519755D01*
X112655972Y-153525041D01*
X112751209Y-153572660D01*
X112769518Y-153579666D01*
X112773101Y-153579920D01*
X112776422Y-153581296D01*
X112795931Y-153583217D01*
X112986407Y-153583217D01*
X113005916Y-153581296D01*
X113009236Y-153579920D01*
X113012820Y-153579666D01*
X113031128Y-153572660D01*
X113040741Y-153567853D01*
X113036451Y-153585015D01*
X112956314Y-153705220D01*
X112927171Y-153734364D01*
X112867562Y-153764170D01*
X112700693Y-153764170D01*
X112681184Y-153766091D01*
X112645136Y-153781023D01*
X112617546Y-153808613D01*
X112602614Y-153844661D01*
X112602614Y-153883679D01*
X112617546Y-153919727D01*
X112645136Y-153947317D01*
X112681184Y-153962249D01*
X112700693Y-153964170D01*
X112891169Y-153964170D01*
X112910678Y-153962249D01*
X112913998Y-153960873D01*
X112917582Y-153960619D01*
X112935890Y-153953613D01*
X113031128Y-153905994D01*
X113039523Y-153900709D01*
X113041965Y-153899698D01*
X113044712Y-153897442D01*
X113047718Y-153895551D01*
X113049448Y-153893556D01*
X113057118Y-153887261D01*
X113104737Y-153839641D01*
X113104779Y-153839588D01*
X113104811Y-153839568D01*
X113110950Y-153832070D01*
X113117174Y-153824488D01*
X113117188Y-153824452D01*
X113117231Y-153824401D01*
X113212469Y-153681544D01*
X113218211Y-153670774D01*
X113219683Y-153668788D01*
X113220521Y-153666442D01*
X113221692Y-153664246D01*
X113222171Y-153661822D01*
X113226278Y-153650328D01*
X113273897Y-153459852D01*
X113274397Y-153456470D01*
X113274962Y-153455107D01*
X113275685Y-153447756D01*
X113276765Y-153440459D01*
X113276547Y-153439000D01*
X113276883Y-153435598D01*
X113276883Y-153054646D01*
X113274962Y-153035137D01*
X113273586Y-153031816D01*
X113273332Y-153028233D01*
X113266326Y-153009924D01*
X113218707Y-152914687D01*
X113213421Y-152906290D01*
X113212411Y-152903850D01*
X113210157Y-152901104D01*
X113208264Y-152898096D01*
X113206266Y-152896363D01*
X113199974Y-152888697D01*
X113152356Y-152841078D01*
X113144685Y-152834783D01*
X113142956Y-152832789D01*
X113139948Y-152830895D01*
X113137202Y-152828642D01*
X113134762Y-152827631D01*
X113126366Y-152822346D01*
X113031128Y-152774727D01*
X113012820Y-152767721D01*
X113009236Y-152767466D01*
X113005916Y-152766091D01*
X112986407Y-152764170D01*
X112795931Y-152764170D01*
X112776422Y-152766091D01*
X112773101Y-152767466D01*
X112769518Y-152767721D01*
X112751209Y-152774727D01*
X112655972Y-152822346D01*
X112647575Y-152827631D01*
X112645135Y-152828642D01*
X112642389Y-152830895D01*
X112639381Y-152832789D01*
X112637648Y-152834786D01*
X112629982Y-152841079D01*
X112582363Y-152888697D01*
X112576068Y-152896367D01*
X112574074Y-152898097D01*
X112572180Y-152901104D01*
X112569927Y-152903851D01*
X112568916Y-152906290D01*
X112563631Y-152914687D01*
X112516012Y-153009925D01*
X112509006Y-153028233D01*
X112508751Y-153031816D01*
X112507376Y-153035137D01*
X112505455Y-153054646D01*
X112324502Y-153054646D01*
X112322581Y-153035137D01*
X112321205Y-153031816D01*
X112320951Y-153028233D01*
X112313945Y-153009924D01*
X112266326Y-152914687D01*
X112261040Y-152906290D01*
X112260030Y-152903850D01*
X112257776Y-152901104D01*
X112255883Y-152898096D01*
X112253885Y-152896363D01*
X112247593Y-152888697D01*
X112199975Y-152841078D01*
X112192304Y-152834783D01*
X112190575Y-152832789D01*
X112187567Y-152830895D01*
X112184821Y-152828642D01*
X112182381Y-152827631D01*
X112173985Y-152822346D01*
X112078747Y-152774727D01*
X112060439Y-152767721D01*
X112056855Y-152767466D01*
X112053535Y-152766091D01*
X112034026Y-152764170D01*
X111795931Y-152764170D01*
X111776422Y-152766091D01*
X111773101Y-152767466D01*
X111769518Y-152767721D01*
X111751209Y-152774727D01*
X111655972Y-152822346D01*
X111647575Y-152827631D01*
X111645135Y-152828642D01*
X111642389Y-152830895D01*
X111639381Y-152832789D01*
X111637648Y-152834786D01*
X111629982Y-152841079D01*
X111582363Y-152888697D01*
X111569927Y-152903851D01*
X111554995Y-152939899D01*
X111554995Y-152978917D01*
X111569927Y-153014965D01*
X111597517Y-153042555D01*
X111633565Y-153057487D01*
X111672583Y-153057487D01*
X111708631Y-153042555D01*
X111723785Y-153030119D01*
X111759928Y-152993974D01*
X111819538Y-152964170D01*
X112010419Y-152964170D01*
X112070028Y-152993975D01*
X112094697Y-153018643D01*
X112124502Y-153078253D01*
X112124502Y-153133657D01*
X112089480Y-153238721D01*
X111534744Y-153793459D01*
X111522308Y-153808613D01*
X111507376Y-153844661D01*
X111396265Y-153844661D01*
X111396265Y-152653059D01*
X113387994Y-152653059D01*
X113387994Y-154075281D01*
G37*
D10*
X113347000Y-111228000D02*
X129513000Y-111228000D01*
X129513000Y-113390000D01*
X113347000Y-113390000D01*
X113347000Y-111228000D01*
G36*
X113347000Y-111228000D02*
G01*
X129513000Y-111228000D01*
X129513000Y-113390000D01*
X113347000Y-113390000D01*
X113347000Y-111228000D01*
G37*
X112407000Y-91760000D02*
X129503000Y-91760000D01*
X129503000Y-93254000D01*
X112407000Y-93254000D01*
X112407000Y-91760000D01*
G36*
X112407000Y-91760000D02*
G01*
X129503000Y-91760000D01*
X129503000Y-93254000D01*
X112407000Y-93254000D01*
X112407000Y-91760000D01*
G37*
D11*
G36*
X112404593Y-93133330D02*
G01*
X111411410Y-93133330D01*
X111411410Y-92408062D01*
X111522521Y-92408062D01*
X111523975Y-92412880D01*
X111523975Y-92417918D01*
X111529571Y-92431427D01*
X111533792Y-92445417D01*
X111536979Y-92449313D01*
X111538907Y-92453966D01*
X111549243Y-92464302D01*
X111558499Y-92475615D01*
X111562936Y-92477995D01*
X111566497Y-92481556D01*
X111580002Y-92487150D01*
X111592883Y-92494060D01*
X111597892Y-92494560D01*
X111602545Y-92496488D01*
X111617166Y-92496488D01*
X111631707Y-92497942D01*
X111636526Y-92496488D01*
X111641563Y-92496488D01*
X111655072Y-92490891D01*
X111669062Y-92486671D01*
X111672958Y-92483483D01*
X111677611Y-92481556D01*
X111692765Y-92469120D01*
X111728908Y-92432975D01*
X111788518Y-92403171D01*
X111979399Y-92403171D01*
X112039008Y-92432976D01*
X112063677Y-92457644D01*
X112093482Y-92517254D01*
X112093482Y-92708135D01*
X112063677Y-92767743D01*
X112039008Y-92792413D01*
X111979399Y-92822219D01*
X111788518Y-92822219D01*
X111728908Y-92792414D01*
X111692765Y-92756270D01*
X111677612Y-92743833D01*
X111641564Y-92728902D01*
X111602546Y-92728901D01*
X111566497Y-92743832D01*
X111538907Y-92771422D01*
X111523976Y-92807470D01*
X111523975Y-92846488D01*
X111538906Y-92882537D01*
X111551343Y-92897690D01*
X111598961Y-92945310D01*
X111606629Y-92951603D01*
X111608361Y-92953600D01*
X111611369Y-92955493D01*
X111614115Y-92957747D01*
X111616555Y-92958757D01*
X111624952Y-92964043D01*
X111720189Y-93011662D01*
X111738498Y-93018668D01*
X111742081Y-93018922D01*
X111745402Y-93020298D01*
X111764911Y-93022219D01*
X112003006Y-93022219D01*
X112022515Y-93020298D01*
X112025835Y-93018922D01*
X112029419Y-93018668D01*
X112047727Y-93011662D01*
X112142965Y-92964043D01*
X112151360Y-92958758D01*
X112153802Y-92957747D01*
X112156549Y-92955491D01*
X112159555Y-92953600D01*
X112161285Y-92951605D01*
X112168955Y-92945310D01*
X112216574Y-92897690D01*
X112222866Y-92890023D01*
X112224863Y-92888292D01*
X112226756Y-92885284D01*
X112229011Y-92882537D01*
X112230022Y-92880095D01*
X112235306Y-92871701D01*
X112282925Y-92776464D01*
X112289931Y-92758155D01*
X112290185Y-92754571D01*
X112291561Y-92751251D01*
X112293482Y-92731742D01*
X112293482Y-92493647D01*
X112291561Y-92474138D01*
X112290185Y-92470817D01*
X112289931Y-92467234D01*
X112282925Y-92448925D01*
X112235306Y-92353688D01*
X112230020Y-92345291D01*
X112229010Y-92342851D01*
X112226756Y-92340105D01*
X112224863Y-92337097D01*
X112222865Y-92335364D01*
X112216573Y-92327698D01*
X112168955Y-92280079D01*
X112161284Y-92273784D01*
X112159555Y-92271790D01*
X112156547Y-92269896D01*
X112153801Y-92267643D01*
X112151361Y-92266632D01*
X112142965Y-92261347D01*
X112047727Y-92213728D01*
X112029419Y-92206722D01*
X112025835Y-92206467D01*
X112022515Y-92205092D01*
X112003006Y-92203171D01*
X111764911Y-92203171D01*
X111745402Y-92205092D01*
X111742081Y-92206467D01*
X111741744Y-92206491D01*
X111760172Y-92022219D01*
X112145863Y-92022219D01*
X112165372Y-92020298D01*
X112201420Y-92005366D01*
X112229010Y-91977776D01*
X112243942Y-91941728D01*
X112243942Y-91902710D01*
X112229010Y-91866662D01*
X112201420Y-91839072D01*
X112165372Y-91824140D01*
X112145863Y-91822219D01*
X111669673Y-91822219D01*
X111662456Y-91822929D01*
X111660020Y-91822686D01*
X111657641Y-91823403D01*
X111650164Y-91824140D01*
X111636654Y-91829736D01*
X111622665Y-91833957D01*
X111618768Y-91837144D01*
X111614116Y-91839072D01*
X111603779Y-91849408D01*
X111592467Y-91858664D01*
X111590086Y-91863101D01*
X111586526Y-91866662D01*
X111580931Y-91880167D01*
X111574022Y-91893048D01*
X111572545Y-91900412D01*
X111571594Y-91902710D01*
X111571594Y-91905160D01*
X111570169Y-91912269D01*
X111522550Y-92388459D01*
X111522521Y-92408062D01*
X111411410Y-92408062D01*
X111411410Y-91711108D01*
X112404593Y-91711108D01*
X112404593Y-93133330D01*
G37*
G36*
X130111090Y-92432976D02*
G01*
X130135759Y-92457644D01*
X130165564Y-92517254D01*
X130165564Y-92708135D01*
X130135759Y-92767743D01*
X130111090Y-92792413D01*
X130051481Y-92822219D01*
X129908219Y-92822219D01*
X129848609Y-92792414D01*
X129823942Y-92767746D01*
X129794136Y-92708134D01*
X129794136Y-92517254D01*
X129823941Y-92457644D01*
X129848609Y-92432975D01*
X129908219Y-92403171D01*
X130051481Y-92403171D01*
X130111090Y-92432976D01*
G37*
G36*
X131015852Y-92052024D02*
G01*
X131040521Y-92076692D01*
X131075974Y-92147599D01*
X131117945Y-92315480D01*
X131117945Y-92528956D01*
X131075974Y-92696837D01*
X131040521Y-92767743D01*
X131015852Y-92792413D01*
X130956243Y-92822219D01*
X130908219Y-92822219D01*
X130848609Y-92792414D01*
X130823942Y-92767746D01*
X130788487Y-92696837D01*
X130746517Y-92528956D01*
X130746517Y-92315481D01*
X130788487Y-92147599D01*
X130823941Y-92076692D01*
X130848609Y-92052023D01*
X130908219Y-92022219D01*
X130956243Y-92022219D01*
X131015852Y-92052024D01*
G37*
G36*
X131429056Y-93133330D02*
G01*
X129483025Y-93133330D01*
X129483025Y-92350790D01*
X129594136Y-92350790D01*
X129594136Y-92731742D01*
X129596057Y-92751251D01*
X129597432Y-92754571D01*
X129597687Y-92758155D01*
X129604693Y-92776463D01*
X129652312Y-92871701D01*
X129657595Y-92880093D01*
X129658607Y-92882537D01*
X129660863Y-92885286D01*
X129662755Y-92888291D01*
X129664749Y-92890020D01*
X129671044Y-92897690D01*
X129718662Y-92945310D01*
X129726330Y-92951603D01*
X129728062Y-92953600D01*
X129731070Y-92955493D01*
X129733816Y-92957747D01*
X129736256Y-92958757D01*
X129744653Y-92964043D01*
X129839890Y-93011662D01*
X129858199Y-93018668D01*
X129861782Y-93018922D01*
X129865103Y-93020298D01*
X129884612Y-93022219D01*
X130075088Y-93022219D01*
X130094597Y-93020298D01*
X130097917Y-93018922D01*
X130101501Y-93018668D01*
X130119809Y-93011662D01*
X130215047Y-92964043D01*
X130223442Y-92958758D01*
X130225884Y-92957747D01*
X130228631Y-92955491D01*
X130231637Y-92953600D01*
X130233367Y-92951605D01*
X130241037Y-92945310D01*
X130288656Y-92897690D01*
X130294948Y-92890023D01*
X130296945Y-92888292D01*
X130298838Y-92885284D01*
X130301093Y-92882537D01*
X130302104Y-92880095D01*
X130307388Y-92871701D01*
X130355007Y-92776464D01*
X130362013Y-92758155D01*
X130362267Y-92754571D01*
X130363643Y-92751251D01*
X130365564Y-92731742D01*
X130365564Y-92493647D01*
X130363643Y-92474138D01*
X130362267Y-92470817D01*
X130362013Y-92467234D01*
X130355007Y-92448925D01*
X130307388Y-92353688D01*
X130302102Y-92345291D01*
X130301092Y-92342851D01*
X130298838Y-92340105D01*
X130296945Y-92337097D01*
X130294947Y-92335364D01*
X130288655Y-92327698D01*
X130264129Y-92303171D01*
X130546517Y-92303171D01*
X130546517Y-92541266D01*
X130546852Y-92544668D01*
X130546635Y-92546127D01*
X130547714Y-92553424D01*
X130548438Y-92560775D01*
X130549002Y-92562138D01*
X130549503Y-92565520D01*
X130597122Y-92755995D01*
X130597635Y-92757432D01*
X130597687Y-92758155D01*
X130600795Y-92766279D01*
X130603717Y-92774456D01*
X130604147Y-92775036D01*
X130604693Y-92776463D01*
X130652312Y-92871701D01*
X130657595Y-92880093D01*
X130658607Y-92882537D01*
X130660863Y-92885286D01*
X130662755Y-92888291D01*
X130664749Y-92890020D01*
X130671044Y-92897690D01*
X130718662Y-92945310D01*
X130726330Y-92951603D01*
X130728062Y-92953600D01*
X130731070Y-92955493D01*
X130733816Y-92957747D01*
X130736256Y-92958757D01*
X130744653Y-92964043D01*
X130839890Y-93011662D01*
X130858199Y-93018668D01*
X130861782Y-93018922D01*
X130865103Y-93020298D01*
X130884612Y-93022219D01*
X130979850Y-93022219D01*
X130999359Y-93020298D01*
X131002679Y-93018922D01*
X131006263Y-93018668D01*
X131024571Y-93011662D01*
X131119809Y-92964043D01*
X131128204Y-92958758D01*
X131130646Y-92957747D01*
X131133393Y-92955491D01*
X131136399Y-92953600D01*
X131138129Y-92951605D01*
X131145799Y-92945310D01*
X131193418Y-92897690D01*
X131199710Y-92890023D01*
X131201707Y-92888292D01*
X131203600Y-92885284D01*
X131205855Y-92882537D01*
X131206866Y-92880095D01*
X131212150Y-92871701D01*
X131259769Y-92776464D01*
X131260315Y-92775035D01*
X131260745Y-92774456D01*
X131263666Y-92766279D01*
X131266775Y-92758155D01*
X131266826Y-92757434D01*
X131267340Y-92755996D01*
X131314959Y-92565520D01*
X131315459Y-92562138D01*
X131316024Y-92560775D01*
X131316747Y-92553424D01*
X131317827Y-92546127D01*
X131317609Y-92544668D01*
X131317945Y-92541266D01*
X131317945Y-92303171D01*
X131317609Y-92299768D01*
X131317827Y-92298310D01*
X131316747Y-92291012D01*
X131316024Y-92283662D01*
X131315459Y-92282298D01*
X131314959Y-92278917D01*
X131267340Y-92088441D01*
X131266826Y-92087002D01*
X131266775Y-92086282D01*
X131263666Y-92078157D01*
X131260745Y-92069981D01*
X131260315Y-92069401D01*
X131259769Y-92067973D01*
X131212150Y-91972736D01*
X131206864Y-91964339D01*
X131205854Y-91961899D01*
X131203600Y-91959153D01*
X131201707Y-91956145D01*
X131199709Y-91954412D01*
X131193417Y-91946746D01*
X131145799Y-91899127D01*
X131138128Y-91892832D01*
X131136399Y-91890838D01*
X131133391Y-91888944D01*
X131130645Y-91886691D01*
X131128205Y-91885680D01*
X131119809Y-91880395D01*
X131024571Y-91832776D01*
X131006263Y-91825770D01*
X131002679Y-91825515D01*
X130999359Y-91824140D01*
X130979850Y-91822219D01*
X130884612Y-91822219D01*
X130865103Y-91824140D01*
X130861782Y-91825515D01*
X130858199Y-91825770D01*
X130839890Y-91832776D01*
X130744653Y-91880395D01*
X130736256Y-91885680D01*
X130733816Y-91886691D01*
X130731070Y-91888944D01*
X130728062Y-91890838D01*
X130726329Y-91892835D01*
X130718663Y-91899128D01*
X130671044Y-91946746D01*
X130664749Y-91954416D01*
X130662755Y-91956146D01*
X130660861Y-91959153D01*
X130658608Y-91961900D01*
X130657597Y-91964339D01*
X130652312Y-91972736D01*
X130604693Y-92067974D01*
X130604147Y-92069400D01*
X130603717Y-92069981D01*
X130600795Y-92078157D01*
X130597687Y-92086282D01*
X130597635Y-92087004D01*
X130597122Y-92088442D01*
X130549503Y-92278917D01*
X130549002Y-92282298D01*
X130548438Y-92283662D01*
X130547714Y-92291012D01*
X130546635Y-92298310D01*
X130546852Y-92299768D01*
X130546517Y-92303171D01*
X130264129Y-92303171D01*
X130241037Y-92280079D01*
X130233366Y-92273784D01*
X130231637Y-92271790D01*
X130228629Y-92269896D01*
X130225883Y-92267643D01*
X130223443Y-92266632D01*
X130215047Y-92261347D01*
X130119809Y-92213728D01*
X130101501Y-92206722D01*
X130097917Y-92206467D01*
X130094597Y-92205092D01*
X130075088Y-92203171D01*
X129884612Y-92203171D01*
X129865103Y-92205092D01*
X129861782Y-92206467D01*
X129858199Y-92206722D01*
X129839890Y-92213728D01*
X129830277Y-92218534D01*
X129834568Y-92201372D01*
X129914704Y-92081167D01*
X129943847Y-92052023D01*
X130003457Y-92022219D01*
X130170326Y-92022219D01*
X130189835Y-92020298D01*
X130225883Y-92005366D01*
X130253473Y-91977776D01*
X130268405Y-91941728D01*
X130268405Y-91902710D01*
X130253473Y-91866662D01*
X130225883Y-91839072D01*
X130189835Y-91824140D01*
X130170326Y-91822219D01*
X129979850Y-91822219D01*
X129960341Y-91824140D01*
X129957020Y-91825515D01*
X129953437Y-91825770D01*
X129935128Y-91832776D01*
X129839891Y-91880395D01*
X129831494Y-91885680D01*
X129829054Y-91886691D01*
X129826308Y-91888944D01*
X129823300Y-91890838D01*
X129821567Y-91892835D01*
X129813901Y-91899128D01*
X129766282Y-91946746D01*
X129766237Y-91946800D01*
X129766208Y-91946820D01*
X129760026Y-91954368D01*
X129753846Y-91961900D01*
X129753832Y-91961932D01*
X129753788Y-91961987D01*
X129658550Y-92104844D01*
X129652807Y-92115613D01*
X129651336Y-92117600D01*
X129650498Y-92119945D01*
X129649327Y-92122142D01*
X129648847Y-92124565D01*
X129644741Y-92136061D01*
X129597122Y-92326536D01*
X129596621Y-92329917D01*
X129596057Y-92331281D01*
X129595333Y-92338631D01*
X129594254Y-92345929D01*
X129594471Y-92347387D01*
X129594136Y-92350790D01*
X129483025Y-92350790D01*
X129483025Y-91711108D01*
X131429056Y-91711108D01*
X131429056Y-93133330D01*
G37*
D10*
X108610375Y-162204150D02*
X113808875Y-162204150D01*
X113808875Y-164871400D01*
X108610375Y-164871400D01*
X108610375Y-162204150D01*
G36*
X108610375Y-162204150D02*
G01*
X113808875Y-162204150D01*
X113808875Y-164871400D01*
X108610375Y-164871400D01*
X108610375Y-162204150D01*
G37*
X111379000Y-93138000D02*
X131445000Y-93138000D01*
X131445000Y-112030000D01*
X111379000Y-112030000D01*
X111379000Y-93138000D01*
G36*
X111379000Y-93138000D02*
G01*
X131445000Y-93138000D01*
X131445000Y-112030000D01*
X111379000Y-112030000D01*
X111379000Y-93138000D01*
G37*
X108712000Y-78549375D02*
X113910500Y-78549375D01*
X113910500Y-81216625D01*
X108712000Y-81216625D01*
X108712000Y-78549375D01*
G36*
X108712000Y-78549375D02*
G01*
X113910500Y-78549375D01*
X113910500Y-81216625D01*
X108712000Y-81216625D01*
X108712000Y-78549375D01*
G37*
X113538000Y-78549375D02*
X128955750Y-78549375D01*
X128955750Y-78777975D01*
X113538000Y-78777975D01*
X113538000Y-78549375D01*
G36*
X113538000Y-78549375D02*
G01*
X128955750Y-78549375D01*
X128955750Y-78777975D01*
X113538000Y-78777975D01*
X113538000Y-78549375D01*
G37*
X128706125Y-162204150D02*
X134234625Y-162204150D01*
X134234625Y-164871400D01*
X128706125Y-164871400D01*
X128706125Y-162204150D01*
G36*
X128706125Y-162204150D02*
G01*
X134234625Y-162204150D01*
X134234625Y-164871400D01*
X128706125Y-164871400D01*
X128706125Y-162204150D01*
G37*
X113360250Y-80810225D02*
X129667000Y-80810225D01*
X129667000Y-81216625D01*
X113360250Y-81216625D01*
X113360250Y-80810225D01*
G36*
X113360250Y-80810225D02*
G01*
X129667000Y-80810225D01*
X129667000Y-81216625D01*
X113360250Y-81216625D01*
X113360250Y-80810225D01*
G37*
X111379000Y-133734500D02*
X131445000Y-133734500D01*
X131445000Y-152636500D01*
X111379000Y-152636500D01*
X111379000Y-133734500D01*
G36*
X111379000Y-133734500D02*
G01*
X131445000Y-133734500D01*
X131445000Y-152636500D01*
X111379000Y-152636500D01*
X111379000Y-133734500D01*
G37*
X113436375Y-162204150D02*
X128854125Y-162204150D01*
X128854125Y-162432750D01*
X113436375Y-162432750D01*
X113436375Y-162204150D01*
G36*
X113436375Y-162204150D02*
G01*
X128854125Y-162204150D01*
X128854125Y-162432750D01*
X113436375Y-162432750D01*
X113436375Y-162204150D01*
G37*
X128807750Y-78549375D02*
X134209250Y-78549375D01*
X134209250Y-81216625D01*
X128807750Y-81216625D01*
X128807750Y-78549375D01*
G36*
X128807750Y-78549375D02*
G01*
X134209250Y-78549375D01*
X134209250Y-81216625D01*
X128807750Y-81216625D01*
X128807750Y-78549375D01*
G37*
X113258625Y-164465000D02*
X129565375Y-164465000D01*
X129565375Y-164871400D01*
X113258625Y-164871400D01*
X113258625Y-164465000D01*
G36*
X113258625Y-164465000D02*
G01*
X129565375Y-164465000D01*
X129565375Y-164871400D01*
X113258625Y-164871400D01*
X113258625Y-164465000D01*
G37*
D11*
G36*
X113346974Y-113447330D02*
G01*
X111401728Y-113447330D01*
X111401728Y-112509426D01*
X111512839Y-112509426D01*
X111515605Y-112548346D01*
X111533054Y-112583245D01*
X111562531Y-112608809D01*
X111599547Y-112621148D01*
X111638467Y-112618382D01*
X111656775Y-112611376D01*
X111752013Y-112563757D01*
X111760409Y-112558471D01*
X111762849Y-112557461D01*
X111765595Y-112555207D01*
X111768603Y-112553314D01*
X111770332Y-112551319D01*
X111778003Y-112545025D01*
X111797768Y-112525260D01*
X111797768Y-113136219D01*
X111612054Y-113136219D01*
X111592545Y-113138140D01*
X111556497Y-113153072D01*
X111528907Y-113180662D01*
X111513975Y-113216710D01*
X111513975Y-113255728D01*
X111528907Y-113291776D01*
X111556497Y-113319366D01*
X111592545Y-113334298D01*
X111612054Y-113336219D01*
X112183482Y-113336219D01*
X112202991Y-113334298D01*
X112239039Y-113319366D01*
X112266629Y-113291776D01*
X112281561Y-113255728D01*
X112281561Y-113216710D01*
X112266629Y-113180662D01*
X112239039Y-113153072D01*
X112202991Y-113138140D01*
X112183482Y-113136219D01*
X111997768Y-113136219D01*
X111997768Y-112236219D01*
X111997761Y-112236148D01*
X111997768Y-112236114D01*
X111997747Y-112236012D01*
X111995847Y-112216710D01*
X112418737Y-112216710D01*
X112418737Y-112255728D01*
X112433669Y-112291776D01*
X112461259Y-112319366D01*
X112497307Y-112334298D01*
X112516816Y-112336219D01*
X112915486Y-112336219D01*
X112727272Y-112551321D01*
X112721242Y-112559754D01*
X112719383Y-112561614D01*
X112718652Y-112563377D01*
X112715871Y-112567268D01*
X112710666Y-112582656D01*
X112704451Y-112597662D01*
X112704451Y-112601035D01*
X112703371Y-112604229D01*
X112704451Y-112620431D01*
X112704451Y-112636680D01*
X112705741Y-112639795D01*
X112705966Y-112643161D01*
X112713166Y-112657721D01*
X112719383Y-112672728D01*
X112721767Y-112675112D01*
X112723263Y-112678136D01*
X112735488Y-112688833D01*
X112746973Y-112700318D01*
X112750087Y-112701608D01*
X112752627Y-112703830D01*
X112768015Y-112709034D01*
X112783021Y-112715250D01*
X112787780Y-112715718D01*
X112789588Y-112716330D01*
X112792212Y-112716155D01*
X112802530Y-112717171D01*
X112921780Y-112717171D01*
X112981389Y-112746976D01*
X113006058Y-112771644D01*
X113035863Y-112831254D01*
X113035863Y-113022135D01*
X113006058Y-113081743D01*
X112981389Y-113106413D01*
X112921780Y-113136219D01*
X112683280Y-113136219D01*
X112623670Y-113106414D01*
X112587527Y-113070270D01*
X112572374Y-113057833D01*
X112536326Y-113042902D01*
X112497308Y-113042901D01*
X112461259Y-113057832D01*
X112433669Y-113085422D01*
X112418738Y-113121470D01*
X112418737Y-113160488D01*
X112433668Y-113196537D01*
X112446105Y-113211690D01*
X112493723Y-113259310D01*
X112501391Y-113265603D01*
X112503123Y-113267600D01*
X112506131Y-113269493D01*
X112508877Y-113271747D01*
X112511317Y-113272757D01*
X112519714Y-113278043D01*
X112614951Y-113325662D01*
X112633260Y-113332668D01*
X112636843Y-113332922D01*
X112640164Y-113334298D01*
X112659673Y-113336219D01*
X112945387Y-113336219D01*
X112964896Y-113334298D01*
X112968216Y-113332922D01*
X112971800Y-113332668D01*
X112990108Y-113325662D01*
X113085346Y-113278043D01*
X113093741Y-113272758D01*
X113096183Y-113271747D01*
X113098930Y-113269491D01*
X113101936Y-113267600D01*
X113103666Y-113265605D01*
X113111336Y-113259310D01*
X113158955Y-113211690D01*
X113165247Y-113204023D01*
X113167244Y-113202292D01*
X113169137Y-113199284D01*
X113171392Y-113196537D01*
X113172403Y-113194095D01*
X113177687Y-113185701D01*
X113225306Y-113090464D01*
X113232312Y-113072155D01*
X113232566Y-113068571D01*
X113233942Y-113065251D01*
X113235863Y-113045742D01*
X113235863Y-112807647D01*
X113233942Y-112788138D01*
X113232566Y-112784817D01*
X113232312Y-112781234D01*
X113225306Y-112762925D01*
X113177687Y-112667688D01*
X113172401Y-112659291D01*
X113171391Y-112656851D01*
X113169137Y-112654105D01*
X113167244Y-112651097D01*
X113165246Y-112649364D01*
X113158954Y-112641698D01*
X113111336Y-112594079D01*
X113103665Y-112587784D01*
X113101936Y-112585790D01*
X113098928Y-112583896D01*
X113096182Y-112581643D01*
X113093742Y-112580632D01*
X113085346Y-112575347D01*
X113006498Y-112535923D01*
X113211121Y-112302069D01*
X113217150Y-112293635D01*
X113219010Y-112291776D01*
X113219740Y-112290012D01*
X113222522Y-112286122D01*
X113227726Y-112270733D01*
X113233942Y-112255728D01*
X113233942Y-112252354D01*
X113235022Y-112249161D01*
X113233942Y-112232958D01*
X113233942Y-112216710D01*
X113232651Y-112213594D01*
X113232427Y-112210229D01*
X113225224Y-112195663D01*
X113219010Y-112180662D01*
X113216626Y-112178278D01*
X113215131Y-112175254D01*
X113202897Y-112164549D01*
X113191420Y-112153072D01*
X113188306Y-112151782D01*
X113185767Y-112149560D01*
X113170375Y-112144354D01*
X113155372Y-112138140D01*
X113150612Y-112137671D01*
X113148805Y-112137060D01*
X113146180Y-112137234D01*
X113135863Y-112136219D01*
X112516816Y-112136219D01*
X112497307Y-112138140D01*
X112461259Y-112153072D01*
X112433669Y-112180662D01*
X112418737Y-112216710D01*
X111995847Y-112216710D01*
X111992057Y-112207561D01*
X111990116Y-112197854D01*
X111984664Y-112189713D01*
X111980915Y-112180662D01*
X111973915Y-112173662D01*
X111968405Y-112165434D01*
X111960250Y-112159997D01*
X111953325Y-112153072D01*
X111944181Y-112149284D01*
X111935940Y-112143790D01*
X111926326Y-112141888D01*
X111917277Y-112138140D01*
X111907376Y-112138140D01*
X111897664Y-112136219D01*
X111888059Y-112138140D01*
X111878259Y-112138140D01*
X111869110Y-112141929D01*
X111859403Y-112143871D01*
X111851262Y-112149322D01*
X111842211Y-112153072D01*
X111835211Y-112160071D01*
X111826983Y-112165582D01*
X111814694Y-112180588D01*
X111814621Y-112180662D01*
X111814607Y-112180694D01*
X111814563Y-112180749D01*
X111724819Y-112315365D01*
X111648055Y-112392128D01*
X111567333Y-112432490D01*
X111550742Y-112442933D01*
X111525178Y-112472410D01*
X111512839Y-112509426D01*
X111401728Y-112509426D01*
X111401728Y-112025108D01*
X113346974Y-112025108D01*
X113346974Y-113447330D01*
G37*
X130075326Y-81748219D02*
X129884850Y-81748219D01*
X129884850Y-81748219D02*
X129789612Y-81795838D01*
X129789612Y-81795838D02*
X129741993Y-81843457D01*
X129741993Y-81843457D02*
X129646755Y-81986314D01*
X129646755Y-81986314D02*
X129599136Y-82176790D01*
X129599136Y-82176790D02*
X129599136Y-82557742D01*
X129599136Y-82557742D02*
X129646755Y-82652980D01*
X129646755Y-82652980D02*
X129694374Y-82700600D01*
X129694374Y-82700600D02*
X129789612Y-82748219D01*
X129789612Y-82748219D02*
X129980088Y-82748219D01*
X129980088Y-82748219D02*
X130075326Y-82700600D01*
X130075326Y-82700600D02*
X130122945Y-82652980D01*
X130122945Y-82652980D02*
X130170564Y-82557742D01*
X130170564Y-82557742D02*
X130170564Y-82319647D01*
X130170564Y-82319647D02*
X130122945Y-82224409D01*
X130122945Y-82224409D02*
X130075326Y-82176790D01*
X130075326Y-82176790D02*
X129980088Y-82129171D01*
X129980088Y-82129171D02*
X129789612Y-82129171D01*
X129789612Y-82129171D02*
X129694374Y-82176790D01*
X129694374Y-82176790D02*
X129646755Y-82224409D01*
X129646755Y-82224409D02*
X129599136Y-82319647D01*
X131027707Y-82081552D02*
X131027707Y-82748219D01*
X130789612Y-81700600D02*
X130551517Y-82414885D01*
X130551517Y-82414885D02*
X131170564Y-82414885D01*
G36*
X113405053Y-133743330D02*
G01*
X111415245Y-133743330D01*
X111415245Y-133512710D01*
X111526356Y-133512710D01*
X111526356Y-133551728D01*
X111541288Y-133587776D01*
X111568878Y-133615366D01*
X111604926Y-133630298D01*
X111624435Y-133632219D01*
X112243482Y-133632219D01*
X112262991Y-133630298D01*
X112299039Y-133615366D01*
X112326629Y-133587776D01*
X112341561Y-133551728D01*
X112341561Y-133512710D01*
X112326629Y-133476662D01*
X112299039Y-133449072D01*
X112262991Y-133434140D01*
X112243482Y-133432219D01*
X111865857Y-133432219D01*
X112266574Y-133031501D01*
X112279010Y-133016347D01*
X112280384Y-133013028D01*
X112282740Y-133010313D01*
X112290731Y-132992413D01*
X112338350Y-132849556D01*
X112340549Y-132839883D01*
X112341561Y-132837442D01*
X112341909Y-132833904D01*
X112342697Y-132830441D01*
X112342509Y-132827806D01*
X112343482Y-132817933D01*
X112343482Y-132805426D01*
X112525220Y-132805426D01*
X112527986Y-132844346D01*
X112545435Y-132879245D01*
X112574912Y-132904809D01*
X112611928Y-132917148D01*
X112650848Y-132914382D01*
X112669156Y-132907376D01*
X112764394Y-132859757D01*
X112772790Y-132854471D01*
X112775230Y-132853461D01*
X112777976Y-132851207D01*
X112780984Y-132849314D01*
X112782713Y-132847319D01*
X112790384Y-132841025D01*
X112810149Y-132821260D01*
X112810149Y-133432219D01*
X112624435Y-133432219D01*
X112604926Y-133434140D01*
X112568878Y-133449072D01*
X112541288Y-133476662D01*
X112526356Y-133512710D01*
X112526356Y-133551728D01*
X112541288Y-133587776D01*
X112568878Y-133615366D01*
X112604926Y-133630298D01*
X112624435Y-133632219D01*
X113195863Y-133632219D01*
X113215372Y-133630298D01*
X113251420Y-133615366D01*
X113279010Y-133587776D01*
X113293942Y-133551728D01*
X113293942Y-133512710D01*
X113279010Y-133476662D01*
X113251420Y-133449072D01*
X113215372Y-133434140D01*
X113195863Y-133432219D01*
X113010149Y-133432219D01*
X113010149Y-132532219D01*
X113010142Y-132532148D01*
X113010149Y-132532114D01*
X113010128Y-132532012D01*
X113008228Y-132512710D01*
X113004438Y-132503561D01*
X113002497Y-132493854D01*
X112997045Y-132485713D01*
X112993296Y-132476662D01*
X112986296Y-132469662D01*
X112980786Y-132461434D01*
X112972631Y-132455997D01*
X112965706Y-132449072D01*
X112956562Y-132445284D01*
X112948321Y-132439790D01*
X112938707Y-132437888D01*
X112929658Y-132434140D01*
X112919757Y-132434140D01*
X112910045Y-132432219D01*
X112900440Y-132434140D01*
X112890640Y-132434140D01*
X112881491Y-132437929D01*
X112871784Y-132439871D01*
X112863643Y-132445322D01*
X112854592Y-132449072D01*
X112847592Y-132456071D01*
X112839364Y-132461582D01*
X112827075Y-132476588D01*
X112827002Y-132476662D01*
X112826988Y-132476694D01*
X112826944Y-132476749D01*
X112737200Y-132611365D01*
X112660436Y-132688128D01*
X112579714Y-132728490D01*
X112563123Y-132738933D01*
X112537559Y-132768410D01*
X112525220Y-132805426D01*
X112343482Y-132805426D01*
X112343482Y-132722695D01*
X112341561Y-132703186D01*
X112340185Y-132699865D01*
X112339931Y-132696282D01*
X112332925Y-132677973D01*
X112285306Y-132582736D01*
X112280020Y-132574339D01*
X112279010Y-132571899D01*
X112276756Y-132569153D01*
X112274863Y-132566145D01*
X112272865Y-132564412D01*
X112266573Y-132556746D01*
X112218955Y-132509127D01*
X112211284Y-132502832D01*
X112209555Y-132500838D01*
X112206547Y-132498944D01*
X112203801Y-132496691D01*
X112201361Y-132495680D01*
X112192965Y-132490395D01*
X112097727Y-132442776D01*
X112079419Y-132435770D01*
X112075835Y-132435515D01*
X112072515Y-132434140D01*
X112053006Y-132432219D01*
X111814911Y-132432219D01*
X111795402Y-132434140D01*
X111792081Y-132435515D01*
X111788498Y-132435770D01*
X111770189Y-132442776D01*
X111674952Y-132490395D01*
X111666555Y-132495680D01*
X111664115Y-132496691D01*
X111661369Y-132498944D01*
X111658361Y-132500838D01*
X111656628Y-132502835D01*
X111648962Y-132509128D01*
X111601343Y-132556746D01*
X111588907Y-132571900D01*
X111573975Y-132607948D01*
X111573975Y-132646966D01*
X111588907Y-132683014D01*
X111616497Y-132710604D01*
X111652545Y-132725536D01*
X111691563Y-132725536D01*
X111727611Y-132710604D01*
X111742765Y-132698168D01*
X111778908Y-132662023D01*
X111838518Y-132632219D01*
X112029399Y-132632219D01*
X112089008Y-132662024D01*
X112113677Y-132686692D01*
X112143482Y-132746302D01*
X112143482Y-132801706D01*
X112108460Y-132906770D01*
X111553724Y-133461508D01*
X111541288Y-133476662D01*
X111526356Y-133512710D01*
X111415245Y-133512710D01*
X111415245Y-132321108D01*
X113405053Y-132321108D01*
X113405053Y-133743330D01*
G37*
D12*
G36*
X128132162Y-79288348D02*
G01*
X128228007Y-79384193D01*
X128278805Y-79485790D01*
X128339381Y-79728090D01*
X128339381Y-79898304D01*
X128278805Y-80140604D01*
X128228007Y-80242200D01*
X128132163Y-80338044D01*
X127981705Y-80388197D01*
X127810810Y-80388197D01*
X127810810Y-79238197D01*
X127981708Y-79238197D01*
X128132162Y-79288348D01*
G37*
G36*
X118941003Y-79280523D02*
G01*
X118975626Y-79315146D01*
X119017952Y-79399798D01*
X119017952Y-79536120D01*
X118975626Y-79620772D01*
X118941003Y-79655394D01*
X118856352Y-79697721D01*
X118489381Y-79697721D01*
X118489381Y-79238197D01*
X118856352Y-79238197D01*
X118941003Y-79280523D01*
G37*
G36*
X121859837Y-79973911D02*
G01*
X121585590Y-79973911D01*
X121722713Y-79562539D01*
X121859837Y-79973911D01*
G37*
G36*
X126831266Y-79973911D02*
G01*
X126557019Y-79973911D01*
X126694142Y-79562539D01*
X126831266Y-79973911D01*
G37*
G36*
X125569575Y-79280523D02*
G01*
X125604198Y-79315146D01*
X125646524Y-79399798D01*
X125646524Y-79536120D01*
X125604198Y-79620772D01*
X125569575Y-79655394D01*
X125484924Y-79697721D01*
X125117953Y-79697721D01*
X125117953Y-79238197D01*
X125484924Y-79238197D01*
X125569575Y-79280523D01*
G37*
G36*
X128800492Y-80849308D02*
G01*
X113888294Y-80849308D01*
X113888294Y-79058933D01*
X114049405Y-79058933D01*
X114049405Y-79117461D01*
X114071803Y-79171533D01*
X114113187Y-79212917D01*
X114167259Y-79235315D01*
X114196523Y-79238197D01*
X114460808Y-79238197D01*
X114460808Y-80538197D01*
X114463690Y-80567461D01*
X114486088Y-80621533D01*
X114527472Y-80662917D01*
X114581544Y-80685315D01*
X114640072Y-80685315D01*
X114694144Y-80662917D01*
X114735528Y-80621533D01*
X114757926Y-80567461D01*
X114760808Y-80538197D01*
X114760808Y-79238197D01*
X115025094Y-79238197D01*
X115054358Y-79235315D01*
X115108430Y-79212917D01*
X115149814Y-79171533D01*
X115172212Y-79117461D01*
X115172212Y-79088197D01*
X115358428Y-79088197D01*
X115358428Y-80538197D01*
X115361310Y-80567461D01*
X115383708Y-80621533D01*
X115425092Y-80662917D01*
X115479164Y-80685315D01*
X115537692Y-80685315D01*
X115591764Y-80662917D01*
X115633148Y-80621533D01*
X115655546Y-80567461D01*
X115658428Y-80538197D01*
X115658428Y-79928673D01*
X116186999Y-79928673D01*
X116186999Y-80538197D01*
X116189881Y-80567461D01*
X116212279Y-80621533D01*
X116253663Y-80662917D01*
X116307735Y-80685315D01*
X116366263Y-80685315D01*
X116420335Y-80662917D01*
X116461719Y-80621533D01*
X116484117Y-80567461D01*
X116486999Y-80538197D01*
X116486999Y-79088197D01*
X116877476Y-79088197D01*
X116877476Y-80538197D01*
X116880358Y-80567461D01*
X116902756Y-80621533D01*
X116944140Y-80662917D01*
X116998212Y-80685315D01*
X117027476Y-80688197D01*
X117717952Y-80688197D01*
X117747216Y-80685315D01*
X117801288Y-80662917D01*
X117842672Y-80621533D01*
X117865070Y-80567461D01*
X117865070Y-80508933D01*
X117842672Y-80454861D01*
X117801288Y-80413477D01*
X117747216Y-80391079D01*
X117717952Y-80388197D01*
X117177476Y-80388197D01*
X117177476Y-79928673D01*
X117510809Y-79928673D01*
X117540073Y-79925791D01*
X117594145Y-79903393D01*
X117635529Y-79862009D01*
X117657927Y-79807937D01*
X117657927Y-79749409D01*
X117635529Y-79695337D01*
X117594145Y-79653953D01*
X117540073Y-79631555D01*
X117510809Y-79628673D01*
X117177476Y-79628673D01*
X117177476Y-79238197D01*
X117717952Y-79238197D01*
X117747216Y-79235315D01*
X117801288Y-79212917D01*
X117842672Y-79171533D01*
X117865070Y-79117461D01*
X117865070Y-79088197D01*
X118189381Y-79088197D01*
X118189381Y-80538197D01*
X118192263Y-80567461D01*
X118214661Y-80621533D01*
X118256045Y-80662917D01*
X118310117Y-80685315D01*
X118368645Y-80685315D01*
X118422717Y-80662917D01*
X118464101Y-80621533D01*
X118486499Y-80567461D01*
X118489381Y-80538197D01*
X118489381Y-79997721D01*
X118606521Y-79997721D01*
X119045067Y-80624216D01*
X119064210Y-80646537D01*
X119113567Y-80677991D01*
X119171203Y-80688161D01*
X119228344Y-80675502D01*
X119276292Y-80641939D01*
X119307746Y-80592581D01*
X119317917Y-80534946D01*
X119305257Y-80477804D01*
X119290837Y-80452177D01*
X118960909Y-79980852D01*
X119096939Y-79912837D01*
X119109532Y-79904909D01*
X119113192Y-79903394D01*
X119117311Y-79900012D01*
X119121825Y-79897172D01*
X119124421Y-79894177D01*
X119135923Y-79884739D01*
X119204970Y-79815692D01*
X119214410Y-79804189D01*
X119217403Y-79801594D01*
X119220241Y-79797084D01*
X119223625Y-79792962D01*
X119225141Y-79789299D01*
X119233068Y-79776708D01*
X119302116Y-79638612D01*
X119312626Y-79611149D01*
X119313008Y-79605771D01*
X119315070Y-79600794D01*
X119317952Y-79571530D01*
X119317952Y-79364388D01*
X119315070Y-79335124D01*
X119313008Y-79330146D01*
X119312626Y-79324769D01*
X119302116Y-79297306D01*
X119233068Y-79159210D01*
X119225141Y-79146618D01*
X119223625Y-79142956D01*
X119220241Y-79138833D01*
X119217403Y-79134324D01*
X119214410Y-79131728D01*
X119204970Y-79120226D01*
X119172941Y-79088197D01*
X119639381Y-79088197D01*
X119639381Y-80538197D01*
X119642263Y-80567461D01*
X119664661Y-80621533D01*
X119706045Y-80662917D01*
X119760117Y-80685315D01*
X119818645Y-80685315D01*
X119872717Y-80662917D01*
X119914101Y-80621533D01*
X119936499Y-80567461D01*
X119939381Y-80538197D01*
X119939381Y-79764332D01*
X120136786Y-80187344D01*
X120143135Y-80198062D01*
X120144454Y-80201689D01*
X120146803Y-80204254D01*
X120151773Y-80212644D01*
X120168585Y-80228039D01*
X120183981Y-80244852D01*
X120190022Y-80247671D01*
X120194936Y-80252171D01*
X120216359Y-80259961D01*
X120237019Y-80269602D01*
X120243676Y-80269894D01*
X120249939Y-80272172D01*
X120272714Y-80271170D01*
X120295489Y-80272172D01*
X120301751Y-80269894D01*
X120308409Y-80269602D01*
X120329064Y-80259962D01*
X120350492Y-80252171D01*
X120355407Y-80247669D01*
X120361447Y-80244851D01*
X120376839Y-80228043D01*
X120393655Y-80212644D01*
X120398624Y-80204255D01*
X120400974Y-80201689D01*
X120402293Y-80198059D01*
X120408641Y-80187344D01*
X120606047Y-79764330D01*
X120606047Y-80538197D01*
X120608929Y-80567461D01*
X120631327Y-80621533D01*
X120672711Y-80662917D01*
X120726783Y-80685315D01*
X120785311Y-80685315D01*
X120839383Y-80662917D01*
X120880767Y-80621533D01*
X120903165Y-80567461D01*
X120906047Y-80538197D01*
X120906047Y-80519437D01*
X121090559Y-80519437D01*
X121094708Y-80577817D01*
X121120882Y-80630164D01*
X121165096Y-80668511D01*
X121220621Y-80687019D01*
X121279001Y-80682870D01*
X121331348Y-80656696D01*
X121369695Y-80612482D01*
X121381684Y-80585631D01*
X121485590Y-80273911D01*
X121959837Y-80273911D01*
X122063744Y-80585631D01*
X122075733Y-80612482D01*
X122114080Y-80656696D01*
X122166427Y-80682870D01*
X122224807Y-80687019D01*
X122280332Y-80668511D01*
X122324546Y-80630164D01*
X122350720Y-80577816D01*
X122354869Y-80519436D01*
X122348349Y-80490763D01*
X121880828Y-79088197D01*
X122539381Y-79088197D01*
X122539381Y-80538197D01*
X122542263Y-80567461D01*
X122564661Y-80621533D01*
X122606045Y-80662917D01*
X122660117Y-80685315D01*
X122689381Y-80688197D01*
X123379857Y-80688197D01*
X123409121Y-80685315D01*
X123463193Y-80662917D01*
X123504577Y-80621533D01*
X123526975Y-80567461D01*
X123526975Y-80508933D01*
X123504577Y-80454861D01*
X123463193Y-80413477D01*
X123409121Y-80391079D01*
X123379857Y-80388197D01*
X122839381Y-80388197D01*
X122839381Y-79088197D01*
X124817953Y-79088197D01*
X124817953Y-80538197D01*
X124820835Y-80567461D01*
X124843233Y-80621533D01*
X124884617Y-80662917D01*
X124938689Y-80685315D01*
X124997217Y-80685315D01*
X125051289Y-80662917D01*
X125092673Y-80621533D01*
X125115071Y-80567461D01*
X125117953Y-80538197D01*
X125117953Y-80519437D01*
X126061988Y-80519437D01*
X126066137Y-80577817D01*
X126092311Y-80630164D01*
X126136525Y-80668511D01*
X126192050Y-80687019D01*
X126250430Y-80682870D01*
X126302777Y-80656696D01*
X126341124Y-80612482D01*
X126353113Y-80585631D01*
X126457019Y-80273911D01*
X126931266Y-80273911D01*
X127035173Y-80585631D01*
X127047162Y-80612482D01*
X127085509Y-80656696D01*
X127137856Y-80682870D01*
X127196236Y-80687019D01*
X127251761Y-80668511D01*
X127295975Y-80630164D01*
X127322149Y-80577816D01*
X127326298Y-80519436D01*
X127319778Y-80490763D01*
X126852257Y-79088197D01*
X127510810Y-79088197D01*
X127510810Y-80538197D01*
X127513692Y-80567461D01*
X127536090Y-80621533D01*
X127577474Y-80662917D01*
X127631546Y-80685315D01*
X127660810Y-80688197D01*
X128006048Y-80688197D01*
X128020853Y-80686738D01*
X128024808Y-80687020D01*
X128030009Y-80685837D01*
X128035312Y-80685315D01*
X128038969Y-80683799D01*
X128053482Y-80680500D01*
X128260625Y-80611453D01*
X128287476Y-80599464D01*
X128291545Y-80595934D01*
X128296527Y-80593871D01*
X128319257Y-80575216D01*
X128457353Y-80437119D01*
X128466795Y-80425613D01*
X128469785Y-80423021D01*
X128472620Y-80418516D01*
X128476008Y-80414389D01*
X128477526Y-80410723D01*
X128485450Y-80398136D01*
X128554497Y-80260040D01*
X128555314Y-80257903D01*
X128555961Y-80257031D01*
X128560350Y-80244744D01*
X128565007Y-80232577D01*
X128565083Y-80231495D01*
X128565854Y-80229340D01*
X128634902Y-79953150D01*
X128635652Y-79948077D01*
X128636499Y-79946033D01*
X128637584Y-79935013D01*
X128639204Y-79924061D01*
X128638878Y-79921872D01*
X128639381Y-79916769D01*
X128639381Y-79709626D01*
X128638878Y-79704522D01*
X128639204Y-79702335D01*
X128637584Y-79691383D01*
X128636499Y-79680362D01*
X128635652Y-79678317D01*
X128634902Y-79673245D01*
X128565854Y-79397055D01*
X128565083Y-79394899D01*
X128565007Y-79393817D01*
X128560347Y-79381642D01*
X128555961Y-79369363D01*
X128555314Y-79368490D01*
X128554497Y-79366354D01*
X128485450Y-79228258D01*
X128477523Y-79215666D01*
X128476007Y-79212005D01*
X128472623Y-79207882D01*
X128469785Y-79203373D01*
X128466793Y-79200778D01*
X128457352Y-79189274D01*
X128319257Y-79051179D01*
X128296526Y-79032524D01*
X128291546Y-79030461D01*
X128287476Y-79026931D01*
X128260625Y-79014943D01*
X128053482Y-78945895D01*
X128038974Y-78942596D01*
X128035312Y-78941079D01*
X128030003Y-78940556D01*
X128024809Y-78939375D01*
X128020859Y-78939655D01*
X128006048Y-78938197D01*
X127660810Y-78938197D01*
X127631546Y-78941079D01*
X127577474Y-78963477D01*
X127536090Y-79004861D01*
X127513692Y-79058933D01*
X127510810Y-79088197D01*
X126852257Y-79088197D01*
X126836446Y-79040763D01*
X126824457Y-79013912D01*
X126817434Y-79005815D01*
X126812642Y-78996230D01*
X126798433Y-78983906D01*
X126786110Y-78969698D01*
X126776524Y-78964905D01*
X126768428Y-78957883D01*
X126750586Y-78951935D01*
X126733763Y-78943524D01*
X126723070Y-78942764D01*
X126712903Y-78939375D01*
X126694143Y-78940708D01*
X126675383Y-78939375D01*
X126665215Y-78942764D01*
X126654523Y-78943524D01*
X126637699Y-78951935D01*
X126619858Y-78957883D01*
X126611761Y-78964905D01*
X126602176Y-78969698D01*
X126589852Y-78983906D01*
X126575644Y-78996230D01*
X126570851Y-79005815D01*
X126563829Y-79013912D01*
X126551840Y-79040763D01*
X126068507Y-80490763D01*
X126061988Y-80519437D01*
X125117953Y-80519437D01*
X125117953Y-79997721D01*
X125520334Y-79997721D01*
X125549598Y-79994839D01*
X125554578Y-79992775D01*
X125559953Y-79992394D01*
X125587416Y-79981885D01*
X125725511Y-79912837D01*
X125738104Y-79904909D01*
X125741764Y-79903394D01*
X125745883Y-79900012D01*
X125750397Y-79897172D01*
X125752993Y-79894177D01*
X125764495Y-79884739D01*
X125833542Y-79815692D01*
X125842982Y-79804189D01*
X125845975Y-79801594D01*
X125848813Y-79797084D01*
X125852197Y-79792962D01*
X125853713Y-79789299D01*
X125861640Y-79776708D01*
X125930688Y-79638612D01*
X125941198Y-79611149D01*
X125941580Y-79605771D01*
X125943642Y-79600794D01*
X125946524Y-79571530D01*
X125946524Y-79364388D01*
X125943642Y-79335124D01*
X125941580Y-79330146D01*
X125941198Y-79324769D01*
X125930688Y-79297306D01*
X125861640Y-79159210D01*
X125853713Y-79146618D01*
X125852197Y-79142956D01*
X125848813Y-79138833D01*
X125845975Y-79134324D01*
X125842982Y-79131728D01*
X125833542Y-79120226D01*
X125764495Y-79051179D01*
X125752993Y-79041740D01*
X125750397Y-79038746D01*
X125745883Y-79035905D01*
X125741764Y-79032524D01*
X125738104Y-79031008D01*
X125725511Y-79023081D01*
X125587416Y-78954033D01*
X125559953Y-78943524D01*
X125554578Y-78943142D01*
X125549598Y-78941079D01*
X125520334Y-78938197D01*
X124967953Y-78938197D01*
X124938689Y-78941079D01*
X124884617Y-78963477D01*
X124843233Y-79004861D01*
X124820835Y-79058933D01*
X124817953Y-79088197D01*
X122839381Y-79088197D01*
X122836499Y-79058933D01*
X122814101Y-79004861D01*
X122772717Y-78963477D01*
X122718645Y-78941079D01*
X122660117Y-78941079D01*
X122606045Y-78963477D01*
X122564661Y-79004861D01*
X122542263Y-79058933D01*
X122539381Y-79088197D01*
X121880828Y-79088197D01*
X121865017Y-79040763D01*
X121853028Y-79013912D01*
X121846005Y-79005815D01*
X121841213Y-78996230D01*
X121827004Y-78983906D01*
X121814681Y-78969698D01*
X121805095Y-78964905D01*
X121796999Y-78957883D01*
X121779157Y-78951935D01*
X121762334Y-78943524D01*
X121751641Y-78942764D01*
X121741474Y-78939375D01*
X121722714Y-78940708D01*
X121703954Y-78939375D01*
X121693786Y-78942764D01*
X121683094Y-78943524D01*
X121666270Y-78951935D01*
X121648429Y-78957883D01*
X121640332Y-78964905D01*
X121630747Y-78969698D01*
X121618423Y-78983906D01*
X121604215Y-78996230D01*
X121599422Y-79005815D01*
X121592400Y-79013912D01*
X121580411Y-79040763D01*
X121097078Y-80490763D01*
X121090559Y-80519437D01*
X120906047Y-80519437D01*
X120906047Y-79088197D01*
X120904152Y-79068960D01*
X120904308Y-79065422D01*
X120903616Y-79063521D01*
X120903165Y-79058933D01*
X120893203Y-79034884D01*
X120884307Y-79010419D01*
X120882047Y-79007951D01*
X120880767Y-79004861D01*
X120862363Y-78986457D01*
X120844780Y-78967257D01*
X120841748Y-78965842D01*
X120839383Y-78963477D01*
X120815328Y-78953513D01*
X120791742Y-78942506D01*
X120788401Y-78942359D01*
X120785311Y-78941079D01*
X120759276Y-78941079D01*
X120733272Y-78939936D01*
X120730129Y-78941079D01*
X120726783Y-78941079D01*
X120702734Y-78951040D01*
X120678269Y-78959937D01*
X120675801Y-78962196D01*
X120672711Y-78963477D01*
X120654313Y-78981874D01*
X120635106Y-78999464D01*
X120632754Y-79003433D01*
X120631327Y-79004861D01*
X120629973Y-79008127D01*
X120620119Y-79024764D01*
X120272713Y-79769205D01*
X119925308Y-79024764D01*
X119915454Y-79008129D01*
X119914101Y-79004861D01*
X119912672Y-79003432D01*
X119910322Y-78999464D01*
X119891114Y-78981874D01*
X119872717Y-78963477D01*
X119869626Y-78962196D01*
X119867159Y-78959937D01*
X119842693Y-78951040D01*
X119818645Y-78941079D01*
X119815299Y-78941079D01*
X119812156Y-78939936D01*
X119786152Y-78941079D01*
X119760117Y-78941079D01*
X119757026Y-78942359D01*
X119753686Y-78942506D01*
X119730090Y-78953516D01*
X119706045Y-78963477D01*
X119703681Y-78965840D01*
X119700648Y-78967256D01*
X119683058Y-78986463D01*
X119664661Y-79004861D01*
X119663380Y-79007951D01*
X119661121Y-79010419D01*
X119652224Y-79034884D01*
X119642263Y-79058933D01*
X119641811Y-79063521D01*
X119641120Y-79065422D01*
X119641275Y-79068960D01*
X119639381Y-79088197D01*
X119172941Y-79088197D01*
X119135923Y-79051179D01*
X119124421Y-79041740D01*
X119121825Y-79038746D01*
X119117311Y-79035905D01*
X119113192Y-79032524D01*
X119109532Y-79031008D01*
X119096939Y-79023081D01*
X118958844Y-78954033D01*
X118931381Y-78943524D01*
X118926006Y-78943142D01*
X118921026Y-78941079D01*
X118891762Y-78938197D01*
X118339381Y-78938197D01*
X118310117Y-78941079D01*
X118256045Y-78963477D01*
X118214661Y-79004861D01*
X118192263Y-79058933D01*
X118189381Y-79088197D01*
X117865070Y-79088197D01*
X117865070Y-79058933D01*
X117842672Y-79004861D01*
X117801288Y-78963477D01*
X117747216Y-78941079D01*
X117717952Y-78938197D01*
X117027476Y-78938197D01*
X116998212Y-78941079D01*
X116944140Y-78963477D01*
X116902756Y-79004861D01*
X116880358Y-79058933D01*
X116877476Y-79088197D01*
X116486999Y-79088197D01*
X116484117Y-79058933D01*
X116461719Y-79004861D01*
X116420335Y-78963477D01*
X116366263Y-78941079D01*
X116307735Y-78941079D01*
X116253663Y-78963477D01*
X116212279Y-79004861D01*
X116189881Y-79058933D01*
X116186999Y-79088197D01*
X116186999Y-79628673D01*
X115658428Y-79628673D01*
X115658428Y-79088197D01*
X115655546Y-79058933D01*
X115633148Y-79004861D01*
X115591764Y-78963477D01*
X115537692Y-78941079D01*
X115479164Y-78941079D01*
X115425092Y-78963477D01*
X115383708Y-79004861D01*
X115361310Y-79058933D01*
X115358428Y-79088197D01*
X115172212Y-79088197D01*
X115172212Y-79058933D01*
X115149814Y-79004861D01*
X115108430Y-78963477D01*
X115054358Y-78941079D01*
X115025094Y-78938197D01*
X114196523Y-78938197D01*
X114167259Y-78941079D01*
X114113187Y-78963477D01*
X114071803Y-79004861D01*
X114049405Y-79058933D01*
X113888294Y-79058933D01*
X113888294Y-78777086D01*
X128800492Y-78777086D01*
X128800492Y-80849308D01*
G37*
D11*
X112272482Y-82748219D02*
X111701054Y-82748219D01*
X111986768Y-82748219D02*
X111986768Y-81748219D01*
X111986768Y-81748219D02*
X111891530Y-81891076D01*
X111891530Y-81891076D02*
X111796292Y-81986314D01*
X111796292Y-81986314D02*
X111701054Y-82033933D01*
D12*
G36*
X128030537Y-162943123D02*
G01*
X128126382Y-163038968D01*
X128177180Y-163140565D01*
X128237756Y-163382865D01*
X128237756Y-163553079D01*
X128177180Y-163795379D01*
X128126382Y-163896975D01*
X128030538Y-163992819D01*
X127880080Y-164042972D01*
X127709185Y-164042972D01*
X127709185Y-162892972D01*
X127880083Y-162892972D01*
X128030537Y-162943123D01*
G37*
G36*
X118839378Y-162935298D02*
G01*
X118874001Y-162969921D01*
X118916327Y-163054573D01*
X118916327Y-163190895D01*
X118874001Y-163275547D01*
X118839378Y-163310169D01*
X118754727Y-163352496D01*
X118387756Y-163352496D01*
X118387756Y-162892972D01*
X118754727Y-162892972D01*
X118839378Y-162935298D01*
G37*
G36*
X121758212Y-163628686D02*
G01*
X121483965Y-163628686D01*
X121621088Y-163217314D01*
X121758212Y-163628686D01*
G37*
G36*
X126729641Y-163628686D02*
G01*
X126455394Y-163628686D01*
X126592517Y-163217314D01*
X126729641Y-163628686D01*
G37*
G36*
X125467950Y-162935298D02*
G01*
X125502573Y-162969921D01*
X125544899Y-163054573D01*
X125544899Y-163190895D01*
X125502573Y-163275547D01*
X125467950Y-163310169D01*
X125383299Y-163352496D01*
X125016328Y-163352496D01*
X125016328Y-162892972D01*
X125383299Y-162892972D01*
X125467950Y-162935298D01*
G37*
G36*
X128698867Y-164504083D02*
G01*
X113786669Y-164504083D01*
X113786669Y-162713708D01*
X113947780Y-162713708D01*
X113947780Y-162772236D01*
X113970178Y-162826308D01*
X114011562Y-162867692D01*
X114065634Y-162890090D01*
X114094898Y-162892972D01*
X114359183Y-162892972D01*
X114359183Y-164192972D01*
X114362065Y-164222236D01*
X114384463Y-164276308D01*
X114425847Y-164317692D01*
X114479919Y-164340090D01*
X114538447Y-164340090D01*
X114592519Y-164317692D01*
X114633903Y-164276308D01*
X114656301Y-164222236D01*
X114659183Y-164192972D01*
X114659183Y-162892972D01*
X114923469Y-162892972D01*
X114952733Y-162890090D01*
X115006805Y-162867692D01*
X115048189Y-162826308D01*
X115070587Y-162772236D01*
X115070587Y-162742972D01*
X115256803Y-162742972D01*
X115256803Y-164192972D01*
X115259685Y-164222236D01*
X115282083Y-164276308D01*
X115323467Y-164317692D01*
X115377539Y-164340090D01*
X115436067Y-164340090D01*
X115490139Y-164317692D01*
X115531523Y-164276308D01*
X115553921Y-164222236D01*
X115556803Y-164192972D01*
X115556803Y-163583448D01*
X116085374Y-163583448D01*
X116085374Y-164192972D01*
X116088256Y-164222236D01*
X116110654Y-164276308D01*
X116152038Y-164317692D01*
X116206110Y-164340090D01*
X116264638Y-164340090D01*
X116318710Y-164317692D01*
X116360094Y-164276308D01*
X116382492Y-164222236D01*
X116385374Y-164192972D01*
X116385374Y-162742972D01*
X116775851Y-162742972D01*
X116775851Y-164192972D01*
X116778733Y-164222236D01*
X116801131Y-164276308D01*
X116842515Y-164317692D01*
X116896587Y-164340090D01*
X116925851Y-164342972D01*
X117616327Y-164342972D01*
X117645591Y-164340090D01*
X117699663Y-164317692D01*
X117741047Y-164276308D01*
X117763445Y-164222236D01*
X117763445Y-164163708D01*
X117741047Y-164109636D01*
X117699663Y-164068252D01*
X117645591Y-164045854D01*
X117616327Y-164042972D01*
X117075851Y-164042972D01*
X117075851Y-163583448D01*
X117409184Y-163583448D01*
X117438448Y-163580566D01*
X117492520Y-163558168D01*
X117533904Y-163516784D01*
X117556302Y-163462712D01*
X117556302Y-163404184D01*
X117533904Y-163350112D01*
X117492520Y-163308728D01*
X117438448Y-163286330D01*
X117409184Y-163283448D01*
X117075851Y-163283448D01*
X117075851Y-162892972D01*
X117616327Y-162892972D01*
X117645591Y-162890090D01*
X117699663Y-162867692D01*
X117741047Y-162826308D01*
X117763445Y-162772236D01*
X117763445Y-162742972D01*
X118087756Y-162742972D01*
X118087756Y-164192972D01*
X118090638Y-164222236D01*
X118113036Y-164276308D01*
X118154420Y-164317692D01*
X118208492Y-164340090D01*
X118267020Y-164340090D01*
X118321092Y-164317692D01*
X118362476Y-164276308D01*
X118384874Y-164222236D01*
X118387756Y-164192972D01*
X118387756Y-163652496D01*
X118504896Y-163652496D01*
X118943442Y-164278991D01*
X118962585Y-164301312D01*
X119011942Y-164332766D01*
X119069578Y-164342936D01*
X119126719Y-164330277D01*
X119174667Y-164296714D01*
X119206121Y-164247356D01*
X119216292Y-164189721D01*
X119203632Y-164132579D01*
X119189212Y-164106952D01*
X118859284Y-163635627D01*
X118995314Y-163567612D01*
X119007907Y-163559684D01*
X119011567Y-163558169D01*
X119015686Y-163554787D01*
X119020200Y-163551947D01*
X119022796Y-163548952D01*
X119034298Y-163539514D01*
X119103345Y-163470467D01*
X119112785Y-163458964D01*
X119115778Y-163456369D01*
X119118616Y-163451859D01*
X119122000Y-163447737D01*
X119123516Y-163444074D01*
X119131443Y-163431483D01*
X119200491Y-163293387D01*
X119211001Y-163265924D01*
X119211383Y-163260546D01*
X119213445Y-163255569D01*
X119216327Y-163226305D01*
X119216327Y-163019163D01*
X119213445Y-162989899D01*
X119211383Y-162984921D01*
X119211001Y-162979544D01*
X119200491Y-162952081D01*
X119131443Y-162813985D01*
X119123516Y-162801393D01*
X119122000Y-162797731D01*
X119118616Y-162793608D01*
X119115778Y-162789099D01*
X119112785Y-162786503D01*
X119103345Y-162775001D01*
X119071316Y-162742972D01*
X119537756Y-162742972D01*
X119537756Y-164192972D01*
X119540638Y-164222236D01*
X119563036Y-164276308D01*
X119604420Y-164317692D01*
X119658492Y-164340090D01*
X119717020Y-164340090D01*
X119771092Y-164317692D01*
X119812476Y-164276308D01*
X119834874Y-164222236D01*
X119837756Y-164192972D01*
X119837756Y-163419107D01*
X120035161Y-163842119D01*
X120041510Y-163852837D01*
X120042829Y-163856464D01*
X120045178Y-163859029D01*
X120050148Y-163867419D01*
X120066960Y-163882814D01*
X120082356Y-163899627D01*
X120088397Y-163902446D01*
X120093311Y-163906946D01*
X120114734Y-163914736D01*
X120135394Y-163924377D01*
X120142051Y-163924669D01*
X120148314Y-163926947D01*
X120171089Y-163925945D01*
X120193864Y-163926947D01*
X120200126Y-163924669D01*
X120206784Y-163924377D01*
X120227439Y-163914737D01*
X120248867Y-163906946D01*
X120253782Y-163902444D01*
X120259822Y-163899626D01*
X120275214Y-163882818D01*
X120292030Y-163867419D01*
X120296999Y-163859030D01*
X120299349Y-163856464D01*
X120300668Y-163852834D01*
X120307016Y-163842119D01*
X120504422Y-163419105D01*
X120504422Y-164192972D01*
X120507304Y-164222236D01*
X120529702Y-164276308D01*
X120571086Y-164317692D01*
X120625158Y-164340090D01*
X120683686Y-164340090D01*
X120737758Y-164317692D01*
X120779142Y-164276308D01*
X120801540Y-164222236D01*
X120804422Y-164192972D01*
X120804422Y-164174212D01*
X120988934Y-164174212D01*
X120993083Y-164232592D01*
X121019257Y-164284939D01*
X121063471Y-164323286D01*
X121118996Y-164341794D01*
X121177376Y-164337645D01*
X121229723Y-164311471D01*
X121268070Y-164267257D01*
X121280059Y-164240406D01*
X121383965Y-163928686D01*
X121858212Y-163928686D01*
X121962119Y-164240406D01*
X121974108Y-164267257D01*
X122012455Y-164311471D01*
X122064802Y-164337645D01*
X122123182Y-164341794D01*
X122178707Y-164323286D01*
X122222921Y-164284939D01*
X122249095Y-164232591D01*
X122253244Y-164174211D01*
X122246724Y-164145538D01*
X121779203Y-162742972D01*
X122437756Y-162742972D01*
X122437756Y-164192972D01*
X122440638Y-164222236D01*
X122463036Y-164276308D01*
X122504420Y-164317692D01*
X122558492Y-164340090D01*
X122587756Y-164342972D01*
X123278232Y-164342972D01*
X123307496Y-164340090D01*
X123361568Y-164317692D01*
X123402952Y-164276308D01*
X123425350Y-164222236D01*
X123425350Y-164163708D01*
X123402952Y-164109636D01*
X123361568Y-164068252D01*
X123307496Y-164045854D01*
X123278232Y-164042972D01*
X122737756Y-164042972D01*
X122737756Y-162742972D01*
X124716328Y-162742972D01*
X124716328Y-164192972D01*
X124719210Y-164222236D01*
X124741608Y-164276308D01*
X124782992Y-164317692D01*
X124837064Y-164340090D01*
X124895592Y-164340090D01*
X124949664Y-164317692D01*
X124991048Y-164276308D01*
X125013446Y-164222236D01*
X125016328Y-164192972D01*
X125016328Y-164174212D01*
X125960363Y-164174212D01*
X125964512Y-164232592D01*
X125990686Y-164284939D01*
X126034900Y-164323286D01*
X126090425Y-164341794D01*
X126148805Y-164337645D01*
X126201152Y-164311471D01*
X126239499Y-164267257D01*
X126251488Y-164240406D01*
X126355394Y-163928686D01*
X126829641Y-163928686D01*
X126933548Y-164240406D01*
X126945537Y-164267257D01*
X126983884Y-164311471D01*
X127036231Y-164337645D01*
X127094611Y-164341794D01*
X127150136Y-164323286D01*
X127194350Y-164284939D01*
X127220524Y-164232591D01*
X127224673Y-164174211D01*
X127218153Y-164145538D01*
X126750632Y-162742972D01*
X127409185Y-162742972D01*
X127409185Y-164192972D01*
X127412067Y-164222236D01*
X127434465Y-164276308D01*
X127475849Y-164317692D01*
X127529921Y-164340090D01*
X127559185Y-164342972D01*
X127904423Y-164342972D01*
X127919228Y-164341513D01*
X127923183Y-164341795D01*
X127928384Y-164340612D01*
X127933687Y-164340090D01*
X127937344Y-164338574D01*
X127951857Y-164335275D01*
X128159000Y-164266228D01*
X128185851Y-164254239D01*
X128189920Y-164250709D01*
X128194902Y-164248646D01*
X128217632Y-164229991D01*
X128355728Y-164091894D01*
X128365170Y-164080388D01*
X128368160Y-164077796D01*
X128370995Y-164073291D01*
X128374383Y-164069164D01*
X128375901Y-164065498D01*
X128383825Y-164052911D01*
X128452872Y-163914815D01*
X128453689Y-163912678D01*
X128454336Y-163911806D01*
X128458725Y-163899519D01*
X128463382Y-163887352D01*
X128463458Y-163886270D01*
X128464229Y-163884115D01*
X128533277Y-163607925D01*
X128534027Y-163602852D01*
X128534874Y-163600808D01*
X128535959Y-163589788D01*
X128537579Y-163578836D01*
X128537253Y-163576647D01*
X128537756Y-163571544D01*
X128537756Y-163364401D01*
X128537253Y-163359297D01*
X128537579Y-163357110D01*
X128535959Y-163346158D01*
X128534874Y-163335137D01*
X128534027Y-163333092D01*
X128533277Y-163328020D01*
X128464229Y-163051830D01*
X128463458Y-163049674D01*
X128463382Y-163048592D01*
X128458722Y-163036417D01*
X128454336Y-163024138D01*
X128453689Y-163023265D01*
X128452872Y-163021129D01*
X128383825Y-162883033D01*
X128375898Y-162870441D01*
X128374382Y-162866780D01*
X128370998Y-162862657D01*
X128368160Y-162858148D01*
X128365168Y-162855553D01*
X128355727Y-162844049D01*
X128217632Y-162705954D01*
X128194901Y-162687299D01*
X128189921Y-162685236D01*
X128185851Y-162681706D01*
X128159000Y-162669718D01*
X127951857Y-162600670D01*
X127937349Y-162597371D01*
X127933687Y-162595854D01*
X127928378Y-162595331D01*
X127923184Y-162594150D01*
X127919234Y-162594430D01*
X127904423Y-162592972D01*
X127559185Y-162592972D01*
X127529921Y-162595854D01*
X127475849Y-162618252D01*
X127434465Y-162659636D01*
X127412067Y-162713708D01*
X127409185Y-162742972D01*
X126750632Y-162742972D01*
X126734821Y-162695538D01*
X126722832Y-162668687D01*
X126715809Y-162660590D01*
X126711017Y-162651005D01*
X126696808Y-162638681D01*
X126684485Y-162624473D01*
X126674899Y-162619680D01*
X126666803Y-162612658D01*
X126648961Y-162606710D01*
X126632138Y-162598299D01*
X126621445Y-162597539D01*
X126611278Y-162594150D01*
X126592518Y-162595483D01*
X126573758Y-162594150D01*
X126563590Y-162597539D01*
X126552898Y-162598299D01*
X126536074Y-162606710D01*
X126518233Y-162612658D01*
X126510136Y-162619680D01*
X126500551Y-162624473D01*
X126488227Y-162638681D01*
X126474019Y-162651005D01*
X126469226Y-162660590D01*
X126462204Y-162668687D01*
X126450215Y-162695538D01*
X125966882Y-164145538D01*
X125960363Y-164174212D01*
X125016328Y-164174212D01*
X125016328Y-163652496D01*
X125418709Y-163652496D01*
X125447973Y-163649614D01*
X125452953Y-163647550D01*
X125458328Y-163647169D01*
X125485791Y-163636660D01*
X125623886Y-163567612D01*
X125636479Y-163559684D01*
X125640139Y-163558169D01*
X125644258Y-163554787D01*
X125648772Y-163551947D01*
X125651368Y-163548952D01*
X125662870Y-163539514D01*
X125731917Y-163470467D01*
X125741357Y-163458964D01*
X125744350Y-163456369D01*
X125747188Y-163451859D01*
X125750572Y-163447737D01*
X125752088Y-163444074D01*
X125760015Y-163431483D01*
X125829063Y-163293387D01*
X125839573Y-163265924D01*
X125839955Y-163260546D01*
X125842017Y-163255569D01*
X125844899Y-163226305D01*
X125844899Y-163019163D01*
X125842017Y-162989899D01*
X125839955Y-162984921D01*
X125839573Y-162979544D01*
X125829063Y-162952081D01*
X125760015Y-162813985D01*
X125752088Y-162801393D01*
X125750572Y-162797731D01*
X125747188Y-162793608D01*
X125744350Y-162789099D01*
X125741357Y-162786503D01*
X125731917Y-162775001D01*
X125662870Y-162705954D01*
X125651368Y-162696515D01*
X125648772Y-162693521D01*
X125644258Y-162690680D01*
X125640139Y-162687299D01*
X125636479Y-162685783D01*
X125623886Y-162677856D01*
X125485791Y-162608808D01*
X125458328Y-162598299D01*
X125452953Y-162597917D01*
X125447973Y-162595854D01*
X125418709Y-162592972D01*
X124866328Y-162592972D01*
X124837064Y-162595854D01*
X124782992Y-162618252D01*
X124741608Y-162659636D01*
X124719210Y-162713708D01*
X124716328Y-162742972D01*
X122737756Y-162742972D01*
X122734874Y-162713708D01*
X122712476Y-162659636D01*
X122671092Y-162618252D01*
X122617020Y-162595854D01*
X122558492Y-162595854D01*
X122504420Y-162618252D01*
X122463036Y-162659636D01*
X122440638Y-162713708D01*
X122437756Y-162742972D01*
X121779203Y-162742972D01*
X121763392Y-162695538D01*
X121751403Y-162668687D01*
X121744380Y-162660590D01*
X121739588Y-162651005D01*
X121725379Y-162638681D01*
X121713056Y-162624473D01*
X121703470Y-162619680D01*
X121695374Y-162612658D01*
X121677532Y-162606710D01*
X121660709Y-162598299D01*
X121650016Y-162597539D01*
X121639849Y-162594150D01*
X121621089Y-162595483D01*
X121602329Y-162594150D01*
X121592161Y-162597539D01*
X121581469Y-162598299D01*
X121564645Y-162606710D01*
X121546804Y-162612658D01*
X121538707Y-162619680D01*
X121529122Y-162624473D01*
X121516798Y-162638681D01*
X121502590Y-162651005D01*
X121497797Y-162660590D01*
X121490775Y-162668687D01*
X121478786Y-162695538D01*
X120995453Y-164145538D01*
X120988934Y-164174212D01*
X120804422Y-164174212D01*
X120804422Y-162742972D01*
X120802527Y-162723735D01*
X120802683Y-162720197D01*
X120801991Y-162718296D01*
X120801540Y-162713708D01*
X120791578Y-162689659D01*
X120782682Y-162665194D01*
X120780422Y-162662726D01*
X120779142Y-162659636D01*
X120760738Y-162641232D01*
X120743155Y-162622032D01*
X120740123Y-162620617D01*
X120737758Y-162618252D01*
X120713703Y-162608288D01*
X120690117Y-162597281D01*
X120686776Y-162597134D01*
X120683686Y-162595854D01*
X120657651Y-162595854D01*
X120631647Y-162594711D01*
X120628504Y-162595854D01*
X120625158Y-162595854D01*
X120601109Y-162605815D01*
X120576644Y-162614712D01*
X120574176Y-162616971D01*
X120571086Y-162618252D01*
X120552688Y-162636649D01*
X120533481Y-162654239D01*
X120531129Y-162658208D01*
X120529702Y-162659636D01*
X120528348Y-162662902D01*
X120518494Y-162679539D01*
X120171088Y-163423980D01*
X119823683Y-162679539D01*
X119813829Y-162662904D01*
X119812476Y-162659636D01*
X119811047Y-162658207D01*
X119808697Y-162654239D01*
X119789489Y-162636649D01*
X119771092Y-162618252D01*
X119768001Y-162616971D01*
X119765534Y-162614712D01*
X119741068Y-162605815D01*
X119717020Y-162595854D01*
X119713674Y-162595854D01*
X119710531Y-162594711D01*
X119684527Y-162595854D01*
X119658492Y-162595854D01*
X119655401Y-162597134D01*
X119652061Y-162597281D01*
X119628465Y-162608291D01*
X119604420Y-162618252D01*
X119602056Y-162620615D01*
X119599023Y-162622031D01*
X119581433Y-162641238D01*
X119563036Y-162659636D01*
X119561755Y-162662726D01*
X119559496Y-162665194D01*
X119550599Y-162689659D01*
X119540638Y-162713708D01*
X119540186Y-162718296D01*
X119539495Y-162720197D01*
X119539650Y-162723735D01*
X119537756Y-162742972D01*
X119071316Y-162742972D01*
X119034298Y-162705954D01*
X119022796Y-162696515D01*
X119020200Y-162693521D01*
X119015686Y-162690680D01*
X119011567Y-162687299D01*
X119007907Y-162685783D01*
X118995314Y-162677856D01*
X118857219Y-162608808D01*
X118829756Y-162598299D01*
X118824381Y-162597917D01*
X118819401Y-162595854D01*
X118790137Y-162592972D01*
X118237756Y-162592972D01*
X118208492Y-162595854D01*
X118154420Y-162618252D01*
X118113036Y-162659636D01*
X118090638Y-162713708D01*
X118087756Y-162742972D01*
X117763445Y-162742972D01*
X117763445Y-162713708D01*
X117741047Y-162659636D01*
X117699663Y-162618252D01*
X117645591Y-162595854D01*
X117616327Y-162592972D01*
X116925851Y-162592972D01*
X116896587Y-162595854D01*
X116842515Y-162618252D01*
X116801131Y-162659636D01*
X116778733Y-162713708D01*
X116775851Y-162742972D01*
X116385374Y-162742972D01*
X116382492Y-162713708D01*
X116360094Y-162659636D01*
X116318710Y-162618252D01*
X116264638Y-162595854D01*
X116206110Y-162595854D01*
X116152038Y-162618252D01*
X116110654Y-162659636D01*
X116088256Y-162713708D01*
X116085374Y-162742972D01*
X116085374Y-163283448D01*
X115556803Y-163283448D01*
X115556803Y-162742972D01*
X115553921Y-162713708D01*
X115531523Y-162659636D01*
X115490139Y-162618252D01*
X115436067Y-162595854D01*
X115377539Y-162595854D01*
X115323467Y-162618252D01*
X115282083Y-162659636D01*
X115259685Y-162713708D01*
X115256803Y-162742972D01*
X115070587Y-162742972D01*
X115070587Y-162713708D01*
X115048189Y-162659636D01*
X115006805Y-162618252D01*
X114952733Y-162595854D01*
X114923469Y-162592972D01*
X114094898Y-162592972D01*
X114065634Y-162595854D01*
X114011562Y-162618252D01*
X113970178Y-162659636D01*
X113947780Y-162713708D01*
X113786669Y-162713708D01*
X113786669Y-162431861D01*
X128698867Y-162431861D01*
X128698867Y-164504083D01*
G37*
D11*
G36*
X131419056Y-113443330D02*
G01*
X129473492Y-113443330D01*
X129473492Y-112718062D01*
X129584603Y-112718062D01*
X129586057Y-112722880D01*
X129586057Y-112727918D01*
X129591653Y-112741427D01*
X129595874Y-112755417D01*
X129599061Y-112759313D01*
X129600989Y-112763966D01*
X129611325Y-112774302D01*
X129620581Y-112785615D01*
X129625018Y-112787995D01*
X129628579Y-112791556D01*
X129642084Y-112797150D01*
X129654965Y-112804060D01*
X129659974Y-112804560D01*
X129664627Y-112806488D01*
X129679248Y-112806488D01*
X129693789Y-112807942D01*
X129698608Y-112806488D01*
X129703645Y-112806488D01*
X129717154Y-112800891D01*
X129731144Y-112796671D01*
X129735040Y-112793483D01*
X129739693Y-112791556D01*
X129754847Y-112779120D01*
X129790990Y-112742975D01*
X129850600Y-112713171D01*
X130041481Y-112713171D01*
X130101090Y-112742976D01*
X130125759Y-112767644D01*
X130155564Y-112827254D01*
X130155564Y-113018135D01*
X130125759Y-113077743D01*
X130101090Y-113102413D01*
X130041481Y-113132219D01*
X129850600Y-113132219D01*
X129790990Y-113102414D01*
X129754847Y-113066270D01*
X129739694Y-113053833D01*
X129703646Y-113038902D01*
X129664628Y-113038901D01*
X129628579Y-113053832D01*
X129600989Y-113081422D01*
X129586058Y-113117470D01*
X129586057Y-113156488D01*
X129600988Y-113192537D01*
X129613425Y-113207690D01*
X129661043Y-113255310D01*
X129668711Y-113261603D01*
X129670443Y-113263600D01*
X129673451Y-113265493D01*
X129676197Y-113267747D01*
X129678637Y-113268757D01*
X129687034Y-113274043D01*
X129782271Y-113321662D01*
X129800580Y-113328668D01*
X129804163Y-113328922D01*
X129807484Y-113330298D01*
X129826993Y-113332219D01*
X130065088Y-113332219D01*
X130084597Y-113330298D01*
X130087917Y-113328922D01*
X130091501Y-113328668D01*
X130109809Y-113321662D01*
X130205047Y-113274043D01*
X130213442Y-113268758D01*
X130215884Y-113267747D01*
X130218631Y-113265491D01*
X130221637Y-113263600D01*
X130223367Y-113261605D01*
X130231037Y-113255310D01*
X130273636Y-113212710D01*
X130490819Y-113212710D01*
X130490819Y-113251728D01*
X130505751Y-113287776D01*
X130533341Y-113315366D01*
X130569389Y-113330298D01*
X130588898Y-113332219D01*
X131207945Y-113332219D01*
X131227454Y-113330298D01*
X131263502Y-113315366D01*
X131291092Y-113287776D01*
X131306024Y-113251728D01*
X131306024Y-113212710D01*
X131291092Y-113176662D01*
X131263502Y-113149072D01*
X131227454Y-113134140D01*
X131207945Y-113132219D01*
X130830320Y-113132219D01*
X131231037Y-112731501D01*
X131243473Y-112716347D01*
X131244847Y-112713028D01*
X131247203Y-112710313D01*
X131255194Y-112692413D01*
X131302813Y-112549556D01*
X131305012Y-112539883D01*
X131306024Y-112537442D01*
X131306372Y-112533904D01*
X131307160Y-112530441D01*
X131306972Y-112527806D01*
X131307945Y-112517933D01*
X131307945Y-112422695D01*
X131306024Y-112403186D01*
X131304648Y-112399865D01*
X131304394Y-112396282D01*
X131297388Y-112377973D01*
X131249769Y-112282736D01*
X131244483Y-112274339D01*
X131243473Y-112271899D01*
X131241219Y-112269153D01*
X131239326Y-112266145D01*
X131237328Y-112264412D01*
X131231036Y-112256746D01*
X131183418Y-112209127D01*
X131175747Y-112202832D01*
X131174018Y-112200838D01*
X131171010Y-112198944D01*
X131168264Y-112196691D01*
X131165824Y-112195680D01*
X131157428Y-112190395D01*
X131062190Y-112142776D01*
X131043882Y-112135770D01*
X131040298Y-112135515D01*
X131036978Y-112134140D01*
X131017469Y-112132219D01*
X130779374Y-112132219D01*
X130759865Y-112134140D01*
X130756544Y-112135515D01*
X130752961Y-112135770D01*
X130734652Y-112142776D01*
X130639415Y-112190395D01*
X130631018Y-112195680D01*
X130628578Y-112196691D01*
X130625832Y-112198944D01*
X130622824Y-112200838D01*
X130621091Y-112202835D01*
X130613425Y-112209128D01*
X130565806Y-112256746D01*
X130553370Y-112271900D01*
X130538438Y-112307948D01*
X130538438Y-112346966D01*
X130553370Y-112383014D01*
X130580960Y-112410604D01*
X130617008Y-112425536D01*
X130656026Y-112425536D01*
X130692074Y-112410604D01*
X130707228Y-112398168D01*
X130743371Y-112362023D01*
X130802981Y-112332219D01*
X130993862Y-112332219D01*
X131053471Y-112362024D01*
X131078140Y-112386692D01*
X131107945Y-112446302D01*
X131107945Y-112501706D01*
X131072923Y-112606770D01*
X130518187Y-113161508D01*
X130505751Y-113176662D01*
X130490819Y-113212710D01*
X130273636Y-113212710D01*
X130278656Y-113207690D01*
X130284948Y-113200023D01*
X130286945Y-113198292D01*
X130288838Y-113195284D01*
X130291093Y-113192537D01*
X130292104Y-113190095D01*
X130297388Y-113181701D01*
X130345007Y-113086464D01*
X130352013Y-113068155D01*
X130352267Y-113064571D01*
X130353643Y-113061251D01*
X130355564Y-113041742D01*
X130355564Y-112803647D01*
X130353643Y-112784138D01*
X130352267Y-112780817D01*
X130352013Y-112777234D01*
X130345007Y-112758925D01*
X130297388Y-112663688D01*
X130292102Y-112655291D01*
X130291092Y-112652851D01*
X130288838Y-112650105D01*
X130286945Y-112647097D01*
X130284947Y-112645364D01*
X130278655Y-112637698D01*
X130231037Y-112590079D01*
X130223366Y-112583784D01*
X130221637Y-112581790D01*
X130218629Y-112579896D01*
X130215883Y-112577643D01*
X130213443Y-112576632D01*
X130205047Y-112571347D01*
X130109809Y-112523728D01*
X130091501Y-112516722D01*
X130087917Y-112516467D01*
X130084597Y-112515092D01*
X130065088Y-112513171D01*
X129826993Y-112513171D01*
X129807484Y-112515092D01*
X129804163Y-112516467D01*
X129803826Y-112516491D01*
X129822254Y-112332219D01*
X130207945Y-112332219D01*
X130227454Y-112330298D01*
X130263502Y-112315366D01*
X130291092Y-112287776D01*
X130306024Y-112251728D01*
X130306024Y-112212710D01*
X130291092Y-112176662D01*
X130263502Y-112149072D01*
X130227454Y-112134140D01*
X130207945Y-112132219D01*
X129731755Y-112132219D01*
X129724538Y-112132929D01*
X129722102Y-112132686D01*
X129719723Y-112133403D01*
X129712246Y-112134140D01*
X129698736Y-112139736D01*
X129684747Y-112143957D01*
X129680850Y-112147144D01*
X129676198Y-112149072D01*
X129665861Y-112159408D01*
X129654549Y-112168664D01*
X129652168Y-112173101D01*
X129648608Y-112176662D01*
X129643013Y-112190167D01*
X129636104Y-112203048D01*
X129634627Y-112210412D01*
X129633676Y-112212710D01*
X129633676Y-112215160D01*
X129632251Y-112222269D01*
X129584632Y-112698459D01*
X129584603Y-112718062D01*
X129473492Y-112718062D01*
X129473492Y-112021108D01*
X131419056Y-112021108D01*
X131419056Y-113443330D01*
G37*
X119269142Y-157132838D02*
X119173904Y-157085219D01*
X119173904Y-157085219D02*
X119078666Y-156989981D01*
X119078666Y-156989981D02*
X118935809Y-156847123D01*
X118935809Y-156847123D02*
X118840571Y-156799504D01*
X118840571Y-156799504D02*
X118745333Y-156799504D01*
X118792952Y-157037600D02*
X118697714Y-156989981D01*
X118697714Y-156989981D02*
X118602476Y-156894742D01*
X118602476Y-156894742D02*
X118554857Y-156704266D01*
X118554857Y-156704266D02*
X118554857Y-156370933D01*
X118554857Y-156370933D02*
X118602476Y-156180457D01*
X118602476Y-156180457D02*
X118697714Y-156085219D01*
X118697714Y-156085219D02*
X118792952Y-156037600D01*
X118792952Y-156037600D02*
X118983428Y-156037600D01*
X118983428Y-156037600D02*
X119078666Y-156085219D01*
X119078666Y-156085219D02*
X119173904Y-156180457D01*
X119173904Y-156180457D02*
X119221523Y-156370933D01*
X119221523Y-156370933D02*
X119221523Y-156704266D01*
X119221523Y-156704266D02*
X119173904Y-156894742D01*
X119173904Y-156894742D02*
X119078666Y-156989981D01*
X119078666Y-156989981D02*
X118983428Y-157037600D01*
X118983428Y-157037600D02*
X118792952Y-157037600D01*
X119983428Y-156513790D02*
X119650095Y-156513790D01*
X119650095Y-157037600D02*
X119650095Y-156037600D01*
X119650095Y-156037600D02*
X120126285Y-156037600D01*
X120507238Y-157037600D02*
X120507238Y-156037600D01*
X120507238Y-156037600D02*
X121078666Y-157037600D01*
X121078666Y-157037600D02*
X121078666Y-156037600D01*
X121554857Y-156656647D02*
X122316762Y-156656647D01*
X123221523Y-156037600D02*
X123031047Y-156037600D01*
X123031047Y-156037600D02*
X122935809Y-156085219D01*
X122935809Y-156085219D02*
X122888190Y-156132838D01*
X122888190Y-156132838D02*
X122792952Y-156275695D01*
X122792952Y-156275695D02*
X122745333Y-156466171D01*
X122745333Y-156466171D02*
X122745333Y-156847123D01*
X122745333Y-156847123D02*
X122792952Y-156942361D01*
X122792952Y-156942361D02*
X122840571Y-156989981D01*
X122840571Y-156989981D02*
X122935809Y-157037600D01*
X122935809Y-157037600D02*
X123126285Y-157037600D01*
X123126285Y-157037600D02*
X123221523Y-156989981D01*
X123221523Y-156989981D02*
X123269142Y-156942361D01*
X123269142Y-156942361D02*
X123316761Y-156847123D01*
X123316761Y-156847123D02*
X123316761Y-156609028D01*
X123316761Y-156609028D02*
X123269142Y-156513790D01*
X123269142Y-156513790D02*
X123221523Y-156466171D01*
X123221523Y-156466171D02*
X123126285Y-156418552D01*
X123126285Y-156418552D02*
X122935809Y-156418552D01*
X122935809Y-156418552D02*
X122840571Y-156466171D01*
X122840571Y-156466171D02*
X122792952Y-156513790D01*
X122792952Y-156513790D02*
X122745333Y-156609028D01*
X124173904Y-156370933D02*
X124173904Y-157037600D01*
X123935809Y-155989981D02*
X123697714Y-156704266D01*
X123697714Y-156704266D02*
X124316761Y-156704266D01*
X119007238Y-158647544D02*
X119197714Y-158647544D01*
X119197714Y-158647544D02*
X119292952Y-158599925D01*
X119292952Y-158599925D02*
X119340571Y-158552305D01*
X119340571Y-158552305D02*
X119435809Y-158409448D01*
X119435809Y-158409448D02*
X119483428Y-158218972D01*
X119483428Y-158218972D02*
X119483428Y-157838020D01*
X119483428Y-157838020D02*
X119435809Y-157742782D01*
X119435809Y-157742782D02*
X119388190Y-157695163D01*
X119388190Y-157695163D02*
X119292952Y-157647544D01*
X119292952Y-157647544D02*
X119102476Y-157647544D01*
X119102476Y-157647544D02*
X119007238Y-157695163D01*
X119007238Y-157695163D02*
X118959619Y-157742782D01*
X118959619Y-157742782D02*
X118912000Y-157838020D01*
X118912000Y-157838020D02*
X118912000Y-158076115D01*
X118912000Y-158076115D02*
X118959619Y-158171353D01*
X118959619Y-158171353D02*
X119007238Y-158218972D01*
X119007238Y-158218972D02*
X119102476Y-158266591D01*
X119102476Y-158266591D02*
X119292952Y-158266591D01*
X119292952Y-158266591D02*
X119388190Y-158218972D01*
X119388190Y-158218972D02*
X119435809Y-158171353D01*
X119435809Y-158171353D02*
X119483428Y-158076115D01*
X119816762Y-158647544D02*
X120340571Y-157980877D01*
X119816762Y-157980877D02*
X120340571Y-158647544D01*
X120769143Y-158647544D02*
X120959619Y-158647544D01*
X120959619Y-158647544D02*
X121054857Y-158599925D01*
X121054857Y-158599925D02*
X121102476Y-158552305D01*
X121102476Y-158552305D02*
X121197714Y-158409448D01*
X121197714Y-158409448D02*
X121245333Y-158218972D01*
X121245333Y-158218972D02*
X121245333Y-157838020D01*
X121245333Y-157838020D02*
X121197714Y-157742782D01*
X121197714Y-157742782D02*
X121150095Y-157695163D01*
X121150095Y-157695163D02*
X121054857Y-157647544D01*
X121054857Y-157647544D02*
X120864381Y-157647544D01*
X120864381Y-157647544D02*
X120769143Y-157695163D01*
X120769143Y-157695163D02*
X120721524Y-157742782D01*
X120721524Y-157742782D02*
X120673905Y-157838020D01*
X120673905Y-157838020D02*
X120673905Y-158076115D01*
X120673905Y-158076115D02*
X120721524Y-158171353D01*
X120721524Y-158171353D02*
X120769143Y-158218972D01*
X120769143Y-158218972D02*
X120864381Y-158266591D01*
X120864381Y-158266591D02*
X121054857Y-158266591D01*
X121054857Y-158266591D02*
X121150095Y-158218972D01*
X121150095Y-158218972D02*
X121197714Y-158171353D01*
X121197714Y-158171353D02*
X121245333Y-158076115D01*
X121673905Y-158647544D02*
X121673905Y-157980877D01*
X121673905Y-158076115D02*
X121721524Y-158028496D01*
X121721524Y-158028496D02*
X121816762Y-157980877D01*
X121816762Y-157980877D02*
X121959619Y-157980877D01*
X121959619Y-157980877D02*
X122054857Y-158028496D01*
X122054857Y-158028496D02*
X122102476Y-158123734D01*
X122102476Y-158123734D02*
X122102476Y-158647544D01*
X122102476Y-158123734D02*
X122150095Y-158028496D01*
X122150095Y-158028496D02*
X122245333Y-157980877D01*
X122245333Y-157980877D02*
X122388190Y-157980877D01*
X122388190Y-157980877D02*
X122483429Y-158028496D01*
X122483429Y-158028496D02*
X122531048Y-158123734D01*
X122531048Y-158123734D02*
X122531048Y-158647544D01*
X123007238Y-158647544D02*
X123007238Y-157980877D01*
X123007238Y-158076115D02*
X123054857Y-158028496D01*
X123054857Y-158028496D02*
X123150095Y-157980877D01*
X123150095Y-157980877D02*
X123292952Y-157980877D01*
X123292952Y-157980877D02*
X123388190Y-158028496D01*
X123388190Y-158028496D02*
X123435809Y-158123734D01*
X123435809Y-158123734D02*
X123435809Y-158647544D01*
X123435809Y-158123734D02*
X123483428Y-158028496D01*
X123483428Y-158028496D02*
X123578666Y-157980877D01*
X123578666Y-157980877D02*
X123721523Y-157980877D01*
X123721523Y-157980877D02*
X123816762Y-158028496D01*
X123816762Y-158028496D02*
X123864381Y-158123734D01*
X123864381Y-158123734D02*
X123864381Y-158647544D01*
X117031048Y-159257488D02*
X117126286Y-159257488D01*
X117126286Y-159257488D02*
X117221524Y-159305107D01*
X117221524Y-159305107D02*
X117269143Y-159352726D01*
X117269143Y-159352726D02*
X117316762Y-159447964D01*
X117316762Y-159447964D02*
X117364381Y-159638440D01*
X117364381Y-159638440D02*
X117364381Y-159876535D01*
X117364381Y-159876535D02*
X117316762Y-160067011D01*
X117316762Y-160067011D02*
X117269143Y-160162249D01*
X117269143Y-160162249D02*
X117221524Y-160209869D01*
X117221524Y-160209869D02*
X117126286Y-160257488D01*
X117126286Y-160257488D02*
X117031048Y-160257488D01*
X117031048Y-160257488D02*
X116935810Y-160209869D01*
X116935810Y-160209869D02*
X116888191Y-160162249D01*
X116888191Y-160162249D02*
X116840572Y-160067011D01*
X116840572Y-160067011D02*
X116792953Y-159876535D01*
X116792953Y-159876535D02*
X116792953Y-159638440D01*
X116792953Y-159638440D02*
X116840572Y-159447964D01*
X116840572Y-159447964D02*
X116888191Y-159352726D01*
X116888191Y-159352726D02*
X116935810Y-159305107D01*
X116935810Y-159305107D02*
X117031048Y-159257488D01*
X117792953Y-160162249D02*
X117840572Y-160209869D01*
X117840572Y-160209869D02*
X117792953Y-160257488D01*
X117792953Y-160257488D02*
X117745334Y-160209869D01*
X117745334Y-160209869D02*
X117792953Y-160162249D01*
X117792953Y-160162249D02*
X117792953Y-160257488D01*
X118745333Y-159257488D02*
X118269143Y-159257488D01*
X118269143Y-159257488D02*
X118221524Y-159733678D01*
X118221524Y-159733678D02*
X118269143Y-159686059D01*
X118269143Y-159686059D02*
X118364381Y-159638440D01*
X118364381Y-159638440D02*
X118602476Y-159638440D01*
X118602476Y-159638440D02*
X118697714Y-159686059D01*
X118697714Y-159686059D02*
X118745333Y-159733678D01*
X118745333Y-159733678D02*
X118792952Y-159828916D01*
X118792952Y-159828916D02*
X118792952Y-160067011D01*
X118792952Y-160067011D02*
X118745333Y-160162249D01*
X118745333Y-160162249D02*
X118697714Y-160209869D01*
X118697714Y-160209869D02*
X118602476Y-160257488D01*
X118602476Y-160257488D02*
X118364381Y-160257488D01*
X118364381Y-160257488D02*
X118269143Y-160209869D01*
X118269143Y-160209869D02*
X118221524Y-160162249D01*
X119221524Y-160257488D02*
X119221524Y-159590821D01*
X119221524Y-159686059D02*
X119269143Y-159638440D01*
X119269143Y-159638440D02*
X119364381Y-159590821D01*
X119364381Y-159590821D02*
X119507238Y-159590821D01*
X119507238Y-159590821D02*
X119602476Y-159638440D01*
X119602476Y-159638440D02*
X119650095Y-159733678D01*
X119650095Y-159733678D02*
X119650095Y-160257488D01*
X119650095Y-159733678D02*
X119697714Y-159638440D01*
X119697714Y-159638440D02*
X119792952Y-159590821D01*
X119792952Y-159590821D02*
X119935809Y-159590821D01*
X119935809Y-159590821D02*
X120031048Y-159638440D01*
X120031048Y-159638440D02*
X120078667Y-159733678D01*
X120078667Y-159733678D02*
X120078667Y-160257488D01*
X120554857Y-160257488D02*
X120554857Y-159590821D01*
X120554857Y-159686059D02*
X120602476Y-159638440D01*
X120602476Y-159638440D02*
X120697714Y-159590821D01*
X120697714Y-159590821D02*
X120840571Y-159590821D01*
X120840571Y-159590821D02*
X120935809Y-159638440D01*
X120935809Y-159638440D02*
X120983428Y-159733678D01*
X120983428Y-159733678D02*
X120983428Y-160257488D01*
X120983428Y-159733678D02*
X121031047Y-159638440D01*
X121031047Y-159638440D02*
X121126285Y-159590821D01*
X121126285Y-159590821D02*
X121269142Y-159590821D01*
X121269142Y-159590821D02*
X121364381Y-159638440D01*
X121364381Y-159638440D02*
X121412000Y-159733678D01*
X121412000Y-159733678D02*
X121412000Y-160257488D01*
X122650095Y-160257488D02*
X122650095Y-159257488D01*
X122650095Y-159257488D02*
X123031047Y-159257488D01*
X123031047Y-159257488D02*
X123126285Y-159305107D01*
X123126285Y-159305107D02*
X123173904Y-159352726D01*
X123173904Y-159352726D02*
X123221523Y-159447964D01*
X123221523Y-159447964D02*
X123221523Y-159590821D01*
X123221523Y-159590821D02*
X123173904Y-159686059D01*
X123173904Y-159686059D02*
X123126285Y-159733678D01*
X123126285Y-159733678D02*
X123031047Y-159781297D01*
X123031047Y-159781297D02*
X122650095Y-159781297D01*
X123650095Y-160257488D02*
X123650095Y-159590821D01*
X123650095Y-159257488D02*
X123602476Y-159305107D01*
X123602476Y-159305107D02*
X123650095Y-159352726D01*
X123650095Y-159352726D02*
X123697714Y-159305107D01*
X123697714Y-159305107D02*
X123650095Y-159257488D01*
X123650095Y-159257488D02*
X123650095Y-159352726D01*
X123983428Y-159590821D02*
X124364380Y-159590821D01*
X124126285Y-159257488D02*
X124126285Y-160114630D01*
X124126285Y-160114630D02*
X124173904Y-160209869D01*
X124173904Y-160209869D02*
X124269142Y-160257488D01*
X124269142Y-160257488D02*
X124364380Y-160257488D01*
X125126285Y-160209869D02*
X125031047Y-160257488D01*
X125031047Y-160257488D02*
X124840571Y-160257488D01*
X124840571Y-160257488D02*
X124745333Y-160209869D01*
X124745333Y-160209869D02*
X124697714Y-160162249D01*
X124697714Y-160162249D02*
X124650095Y-160067011D01*
X124650095Y-160067011D02*
X124650095Y-159781297D01*
X124650095Y-159781297D02*
X124697714Y-159686059D01*
X124697714Y-159686059D02*
X124745333Y-159638440D01*
X124745333Y-159638440D02*
X124840571Y-159590821D01*
X124840571Y-159590821D02*
X125031047Y-159590821D01*
X125031047Y-159590821D02*
X125126285Y-159638440D01*
X125554857Y-160257488D02*
X125554857Y-159257488D01*
X125983428Y-160257488D02*
X125983428Y-159733678D01*
X125983428Y-159733678D02*
X125935809Y-159638440D01*
X125935809Y-159638440D02*
X125840571Y-159590821D01*
X125840571Y-159590821D02*
X125697714Y-159590821D01*
X125697714Y-159590821D02*
X125602476Y-159638440D01*
X125602476Y-159638440D02*
X125554857Y-159686059D01*
G36*
X131413962Y-133795876D02*
G01*
X129423018Y-133795876D01*
X129423018Y-133240845D01*
X129534129Y-133240845D01*
X129535265Y-133256829D01*
X129535265Y-133272861D01*
X129536640Y-133276181D01*
X129536895Y-133279765D01*
X129544062Y-133294100D01*
X129550197Y-133308909D01*
X129552737Y-133311449D01*
X129554345Y-133314664D01*
X129566456Y-133325168D01*
X129577787Y-133336499D01*
X129581105Y-133337873D01*
X129583821Y-133340229D01*
X129599030Y-133345298D01*
X129613835Y-133351431D01*
X129618935Y-133351933D01*
X129620837Y-133352567D01*
X129623470Y-133352379D01*
X129633344Y-133353352D01*
X130009534Y-133353352D01*
X130009534Y-133586686D01*
X130011455Y-133606195D01*
X130026387Y-133642243D01*
X130053977Y-133669833D01*
X130090025Y-133684765D01*
X130129043Y-133684765D01*
X130165091Y-133669833D01*
X130192681Y-133642243D01*
X130207613Y-133606195D01*
X130209534Y-133586686D01*
X130209534Y-133353352D01*
X130252391Y-133353352D01*
X130271900Y-133351431D01*
X130307948Y-133336499D01*
X130335538Y-133308909D01*
X130350470Y-133272861D01*
X130350470Y-133240845D01*
X130486510Y-133240845D01*
X130487646Y-133256829D01*
X130487646Y-133272861D01*
X130489021Y-133276181D01*
X130489276Y-133279765D01*
X130496443Y-133294100D01*
X130502578Y-133308909D01*
X130505118Y-133311449D01*
X130506726Y-133314664D01*
X130518837Y-133325168D01*
X130530168Y-133336499D01*
X130533486Y-133337873D01*
X130536202Y-133340229D01*
X130551411Y-133345298D01*
X130566216Y-133351431D01*
X130571316Y-133351933D01*
X130573218Y-133352567D01*
X130575851Y-133352379D01*
X130585725Y-133353352D01*
X130961915Y-133353352D01*
X130961915Y-133586686D01*
X130963836Y-133606195D01*
X130978768Y-133642243D01*
X131006358Y-133669833D01*
X131042406Y-133684765D01*
X131081424Y-133684765D01*
X131117472Y-133669833D01*
X131145062Y-133642243D01*
X131159994Y-133606195D01*
X131161915Y-133586686D01*
X131161915Y-133353352D01*
X131204772Y-133353352D01*
X131224281Y-133351431D01*
X131260329Y-133336499D01*
X131287919Y-133308909D01*
X131302851Y-133272861D01*
X131302851Y-133233843D01*
X131287919Y-133197795D01*
X131260329Y-133170205D01*
X131224281Y-133155273D01*
X131204772Y-133153352D01*
X131161915Y-133153352D01*
X131161915Y-132920019D01*
X131159994Y-132900510D01*
X131145062Y-132864462D01*
X131117472Y-132836872D01*
X131081424Y-132821940D01*
X131042406Y-132821940D01*
X131006358Y-132836872D01*
X130978768Y-132864462D01*
X130963836Y-132900510D01*
X130961915Y-132920019D01*
X130961915Y-133153352D01*
X130724467Y-133153352D01*
X130918688Y-132570690D01*
X130923035Y-132551575D01*
X130920269Y-132512655D01*
X130902819Y-132477756D01*
X130873343Y-132452191D01*
X130836327Y-132439852D01*
X130797407Y-132442619D01*
X130762508Y-132460068D01*
X130736943Y-132489544D01*
X130728952Y-132507445D01*
X130490857Y-133221729D01*
X130488657Y-133231400D01*
X130487646Y-133233843D01*
X130487646Y-133235849D01*
X130486510Y-133240845D01*
X130350470Y-133240845D01*
X130350470Y-133233843D01*
X130335538Y-133197795D01*
X130307948Y-133170205D01*
X130271900Y-133155273D01*
X130252391Y-133153352D01*
X130209534Y-133153352D01*
X130209534Y-132920019D01*
X130207613Y-132900510D01*
X130192681Y-132864462D01*
X130165091Y-132836872D01*
X130129043Y-132821940D01*
X130090025Y-132821940D01*
X130053977Y-132836872D01*
X130026387Y-132864462D01*
X130011455Y-132900510D01*
X130009534Y-132920019D01*
X130009534Y-133153352D01*
X129772086Y-133153352D01*
X129966307Y-132570690D01*
X129970654Y-132551575D01*
X129967888Y-132512655D01*
X129950438Y-132477756D01*
X129920962Y-132452191D01*
X129883946Y-132439852D01*
X129845026Y-132442619D01*
X129810127Y-132460068D01*
X129784562Y-132489544D01*
X129776571Y-132507445D01*
X129538476Y-133221729D01*
X129536276Y-133231400D01*
X129535265Y-133233843D01*
X129535265Y-133235849D01*
X129534129Y-133240845D01*
X129423018Y-133240845D01*
X129423018Y-132328741D01*
X131413962Y-132328741D01*
X131413962Y-133795876D01*
G37*
X129551517Y-160488219D02*
X130170564Y-160488219D01*
X130170564Y-160488219D02*
X129837231Y-160869171D01*
X129837231Y-160869171D02*
X129980088Y-160869171D01*
X129980088Y-160869171D02*
X130075326Y-160916790D01*
X130075326Y-160916790D02*
X130122945Y-160964409D01*
X130122945Y-160964409D02*
X130170564Y-161059647D01*
X130170564Y-161059647D02*
X130170564Y-161297742D01*
X130170564Y-161297742D02*
X130122945Y-161392980D01*
X130122945Y-161392980D02*
X130075326Y-161440600D01*
X130075326Y-161440600D02*
X129980088Y-161488219D01*
X129980088Y-161488219D02*
X129694374Y-161488219D01*
X129694374Y-161488219D02*
X129599136Y-161440600D01*
X129599136Y-161440600D02*
X129551517Y-161392980D01*
X130503898Y-160488219D02*
X131122945Y-160488219D01*
X131122945Y-160488219D02*
X130789612Y-160869171D01*
X130789612Y-160869171D02*
X130932469Y-160869171D01*
X130932469Y-160869171D02*
X131027707Y-160916790D01*
X131027707Y-160916790D02*
X131075326Y-160964409D01*
X131075326Y-160964409D02*
X131122945Y-161059647D01*
X131122945Y-161059647D02*
X131122945Y-161297742D01*
X131122945Y-161297742D02*
X131075326Y-161392980D01*
X131075326Y-161392980D02*
X131027707Y-161440600D01*
X131027707Y-161440600D02*
X130932469Y-161488219D01*
X130932469Y-161488219D02*
X130646755Y-161488219D01*
X130646755Y-161488219D02*
X130551517Y-161440600D01*
X130551517Y-161440600D02*
X130503898Y-161392980D01*
X111653435Y-160488219D02*
X112272482Y-160488219D01*
X112272482Y-160488219D02*
X111939149Y-160869171D01*
X111939149Y-160869171D02*
X112082006Y-160869171D01*
X112082006Y-160869171D02*
X112177244Y-160916790D01*
X112177244Y-160916790D02*
X112224863Y-160964409D01*
X112224863Y-160964409D02*
X112272482Y-161059647D01*
X112272482Y-161059647D02*
X112272482Y-161297742D01*
X112272482Y-161297742D02*
X112224863Y-161392980D01*
X112224863Y-161392980D02*
X112177244Y-161440600D01*
X112177244Y-161440600D02*
X112082006Y-161488219D01*
X112082006Y-161488219D02*
X111796292Y-161488219D01*
X111796292Y-161488219D02*
X111701054Y-161440600D01*
X111701054Y-161440600D02*
X111653435Y-161392980D01*
X112653435Y-160583457D02*
X112701054Y-160535838D01*
X112701054Y-160535838D02*
X112796292Y-160488219D01*
X112796292Y-160488219D02*
X113034387Y-160488219D01*
X113034387Y-160488219D02*
X113129625Y-160535838D01*
X113129625Y-160535838D02*
X113177244Y-160583457D01*
X113177244Y-160583457D02*
X113224863Y-160678695D01*
X113224863Y-160678695D02*
X113224863Y-160773933D01*
X113224863Y-160773933D02*
X113177244Y-160916790D01*
X113177244Y-160916790D02*
X112605816Y-161488219D01*
X112605816Y-161488219D02*
X113224863Y-161488219D01*
D13*
X108696285Y-76830819D02*
X108696285Y-77545104D01*
X108696285Y-77545104D02*
X108648666Y-77687961D01*
X108648666Y-77687961D02*
X108553428Y-77783200D01*
X108553428Y-77783200D02*
X108410571Y-77830819D01*
X108410571Y-77830819D02*
X108315333Y-77830819D01*
X109696285Y-77830819D02*
X109124857Y-77830819D01*
X109410571Y-77830819D02*
X109410571Y-76830819D01*
X109410571Y-76830819D02*
X109315333Y-76973676D01*
X109315333Y-76973676D02*
X109220095Y-77068914D01*
X109220095Y-77068914D02*
X109124857Y-77116533D01*
X110315333Y-76830819D02*
X110410571Y-76830819D01*
X110410571Y-76830819D02*
X110505809Y-76878438D01*
X110505809Y-76878438D02*
X110553428Y-76926057D01*
X110553428Y-76926057D02*
X110601047Y-77021295D01*
X110601047Y-77021295D02*
X110648666Y-77211771D01*
X110648666Y-77211771D02*
X110648666Y-77449866D01*
X110648666Y-77449866D02*
X110601047Y-77640342D01*
X110601047Y-77640342D02*
X110553428Y-77735580D01*
X110553428Y-77735580D02*
X110505809Y-77783200D01*
X110505809Y-77783200D02*
X110410571Y-77830819D01*
X110410571Y-77830819D02*
X110315333Y-77830819D01*
X110315333Y-77830819D02*
X110220095Y-77783200D01*
X110220095Y-77783200D02*
X110172476Y-77735580D01*
X110172476Y-77735580D02*
X110124857Y-77640342D01*
X110124857Y-77640342D02*
X110077238Y-77449866D01*
X110077238Y-77449866D02*
X110077238Y-77211771D01*
X110077238Y-77211771D02*
X110124857Y-77021295D01*
X110124857Y-77021295D02*
X110172476Y-76926057D01*
X110172476Y-76926057D02*
X110220095Y-76878438D01*
X110220095Y-76878438D02*
X110315333Y-76830819D01*
X110982000Y-76830819D02*
X111601047Y-76830819D01*
X111601047Y-76830819D02*
X111267714Y-77211771D01*
X111267714Y-77211771D02*
X111410571Y-77211771D01*
X111410571Y-77211771D02*
X111505809Y-77259390D01*
X111505809Y-77259390D02*
X111553428Y-77307009D01*
X111553428Y-77307009D02*
X111601047Y-77402247D01*
X111601047Y-77402247D02*
X111601047Y-77640342D01*
X111601047Y-77640342D02*
X111553428Y-77735580D01*
X111553428Y-77735580D02*
X111505809Y-77783200D01*
X111505809Y-77783200D02*
X111410571Y-77830819D01*
X111410571Y-77830819D02*
X111124857Y-77830819D01*
X111124857Y-77830819D02*
X111029619Y-77783200D01*
X111029619Y-77783200D02*
X110982000Y-77735580D01*
X131556285Y-76830819D02*
X131556285Y-77545104D01*
X131556285Y-77545104D02*
X131508666Y-77687961D01*
X131508666Y-77687961D02*
X131413428Y-77783200D01*
X131413428Y-77783200D02*
X131270571Y-77830819D01*
X131270571Y-77830819D02*
X131175333Y-77830819D01*
X132556285Y-77830819D02*
X131984857Y-77830819D01*
X132270571Y-77830819D02*
X132270571Y-76830819D01*
X132270571Y-76830819D02*
X132175333Y-76973676D01*
X132175333Y-76973676D02*
X132080095Y-77068914D01*
X132080095Y-77068914D02*
X131984857Y-77116533D01*
X133175333Y-76830819D02*
X133270571Y-76830819D01*
X133270571Y-76830819D02*
X133365809Y-76878438D01*
X133365809Y-76878438D02*
X133413428Y-76926057D01*
X133413428Y-76926057D02*
X133461047Y-77021295D01*
X133461047Y-77021295D02*
X133508666Y-77211771D01*
X133508666Y-77211771D02*
X133508666Y-77449866D01*
X133508666Y-77449866D02*
X133461047Y-77640342D01*
X133461047Y-77640342D02*
X133413428Y-77735580D01*
X133413428Y-77735580D02*
X133365809Y-77783200D01*
X133365809Y-77783200D02*
X133270571Y-77830819D01*
X133270571Y-77830819D02*
X133175333Y-77830819D01*
X133175333Y-77830819D02*
X133080095Y-77783200D01*
X133080095Y-77783200D02*
X133032476Y-77735580D01*
X133032476Y-77735580D02*
X132984857Y-77640342D01*
X132984857Y-77640342D02*
X132937238Y-77449866D01*
X132937238Y-77449866D02*
X132937238Y-77211771D01*
X132937238Y-77211771D02*
X132984857Y-77021295D01*
X132984857Y-77021295D02*
X133032476Y-76926057D01*
X133032476Y-76926057D02*
X133080095Y-76878438D01*
X133080095Y-76878438D02*
X133175333Y-76830819D01*
X133889619Y-76926057D02*
X133937238Y-76878438D01*
X133937238Y-76878438D02*
X134032476Y-76830819D01*
X134032476Y-76830819D02*
X134270571Y-76830819D01*
X134270571Y-76830819D02*
X134365809Y-76878438D01*
X134365809Y-76878438D02*
X134413428Y-76926057D01*
X134413428Y-76926057D02*
X134461047Y-77021295D01*
X134461047Y-77021295D02*
X134461047Y-77116533D01*
X134461047Y-77116533D02*
X134413428Y-77259390D01*
X134413428Y-77259390D02*
X133842000Y-77830819D01*
X133842000Y-77830819D02*
X134461047Y-77830819D01*
D14*
X119898791Y-116098277D02*
X119326035Y-116006354D01*
X119806868Y-115525521D01*
X119898791Y-116098277D01*
G36*
X119898791Y-116098277D02*
G01*
X119326035Y-116006354D01*
X119806868Y-115525521D01*
X119898791Y-116098277D01*
G37*
X108602000Y-78486000D02*
X108602000Y-164956000D01*
X108602000Y-78486000D02*
X111362000Y-78486000D01*
X108602000Y-164956000D02*
X111362000Y-164956000D01*
X111362000Y-78486000D02*
X111362000Y-164956000D01*
D15*
G36*
X125130024Y-83811033D02*
G01*
X125145020Y-83828609D01*
X125160371Y-83845976D01*
X125176862Y-83863949D01*
X125195279Y-83883346D01*
X125216407Y-83904985D01*
X125241032Y-83929684D01*
X125269938Y-83958259D01*
X125296677Y-83984461D01*
X125316295Y-84003655D01*
X125340809Y-84027676D01*
X125369551Y-84055867D01*
X125401851Y-84087572D01*
X125437042Y-84122134D01*
X125474454Y-84158897D01*
X125513419Y-84197202D01*
X125553269Y-84236393D01*
X125593335Y-84275814D01*
X125632947Y-84314807D01*
X125644682Y-84326363D01*
X125687796Y-84368806D01*
X125734354Y-84414616D01*
X125783326Y-84462780D01*
X125833680Y-84512284D01*
X125884384Y-84562115D01*
X125934409Y-84611260D01*
X125982722Y-84658705D01*
X126028293Y-84703437D01*
X126070090Y-84744443D01*
X126097835Y-84771647D01*
X126146917Y-84819767D01*
X126190701Y-84862719D01*
X126229479Y-84900798D01*
X126263544Y-84934295D01*
X126293187Y-84963503D01*
X126318699Y-84988715D01*
X126340372Y-85010223D01*
X126358498Y-85028320D01*
X126373369Y-85043300D01*
X126385276Y-85055453D01*
X126394510Y-85065074D01*
X126401365Y-85072455D01*
X126406130Y-85077888D01*
X126409099Y-85081667D01*
X126410562Y-85084083D01*
X126410812Y-85085430D01*
X126410731Y-85085615D01*
X126406958Y-85089009D01*
X126398007Y-85096033D01*
X126385066Y-85105788D01*
X126369318Y-85117369D01*
X126362356Y-85122415D01*
X126342896Y-85136642D01*
X126322963Y-85151531D01*
X126304747Y-85165426D01*
X126290437Y-85176672D01*
X126288999Y-85177837D01*
X126275867Y-85188374D01*
X126258512Y-85202097D01*
X126238917Y-85217446D01*
X126219068Y-85232862D01*
X126213077Y-85237486D01*
X126132023Y-85302202D01*
X126056235Y-85367359D01*
X125986185Y-85432499D01*
X125922342Y-85497168D01*
X125865180Y-85560910D01*
X125817414Y-85620292D01*
X125758029Y-85704935D01*
X125705513Y-85792989D01*
X125659811Y-85884596D01*
X125620865Y-85979899D01*
X125588621Y-86079039D01*
X125563023Y-86182159D01*
X125544015Y-86289400D01*
X125538841Y-86328488D01*
X125535704Y-86361623D01*
X125533460Y-86400511D01*
X125532109Y-86443214D01*
X125531653Y-86487789D01*
X125532093Y-86532295D01*
X125533429Y-86574792D01*
X125535664Y-86613338D01*
X125538666Y-86644914D01*
X125554868Y-86748998D01*
X125577833Y-86849181D01*
X125607586Y-86945514D01*
X125644150Y-87038051D01*
X125687552Y-87126844D01*
X125737815Y-87211946D01*
X125794964Y-87293410D01*
X125859025Y-87371289D01*
X125898288Y-87413730D01*
X125924609Y-87439967D01*
X125956786Y-87470137D01*
X125994895Y-87504304D01*
X126039013Y-87542533D01*
X126089215Y-87584888D01*
X126145579Y-87631434D01*
X126208180Y-87682235D01*
X126277095Y-87737356D01*
X126324392Y-87774807D01*
X126346771Y-87792638D01*
X126367060Y-87809133D01*
X126384461Y-87823620D01*
X126398178Y-87835422D01*
X126407412Y-87843866D01*
X126411369Y-87848277D01*
X126411452Y-87848505D01*
X126408888Y-87851889D01*
X126401093Y-87860686D01*
X126388264Y-87874691D01*
X126370597Y-87893696D01*
X126348288Y-87917495D01*
X126321535Y-87945881D01*
X126290533Y-87978649D01*
X126255478Y-88015590D01*
X126216568Y-88056500D01*
X126173999Y-88101170D01*
X126127967Y-88149395D01*
X126078669Y-88200969D01*
X126026300Y-88255683D01*
X125971059Y-88313333D01*
X125913140Y-88373711D01*
X125852741Y-88436611D01*
X125794882Y-88496809D01*
X125737177Y-88556819D01*
X125680769Y-88615476D01*
X125625907Y-88672522D01*
X125572841Y-88727695D01*
X125521822Y-88780738D01*
X125473098Y-88831391D01*
X125426920Y-88879393D01*
X125383536Y-88924486D01*
X125343198Y-88966410D01*
X125306154Y-89004905D01*
X125272654Y-89039712D01*
X125242948Y-89070571D01*
X125217286Y-89097223D01*
X125195917Y-89119409D01*
X125179091Y-89136868D01*
X125167058Y-89149342D01*
X125160067Y-89156570D01*
X125158556Y-89158121D01*
X125139938Y-89177034D01*
X125038773Y-89095430D01*
X124990816Y-89056907D01*
X124947852Y-89022770D01*
X124908940Y-88992316D01*
X124873143Y-88964843D01*
X124839524Y-88939649D01*
X124807143Y-88916030D01*
X124775064Y-88893286D01*
X124742346Y-88870713D01*
X124708054Y-88847609D01*
X124705171Y-88845688D01*
X124602025Y-88779840D01*
X124497086Y-88718359D01*
X124391280Y-88661704D01*
X124285535Y-88610330D01*
X124180778Y-88564696D01*
X124077938Y-88525258D01*
X124005910Y-88501053D01*
X123878400Y-88464934D01*
X123747820Y-88435994D01*
X123614184Y-88414235D01*
X123477509Y-88399657D01*
X123337809Y-88392264D01*
X123195099Y-88392055D01*
X123049394Y-88399032D01*
X122978503Y-88404925D01*
X122857859Y-88419787D01*
X122736679Y-88441527D01*
X122616188Y-88469814D01*
X122497612Y-88504318D01*
X122382175Y-88544711D01*
X122271103Y-88590661D01*
X122246036Y-88602105D01*
X122227193Y-88610858D01*
X122207502Y-88619993D01*
X122190330Y-88627945D01*
X122185485Y-88630185D01*
X122131484Y-88656654D01*
X122073107Y-88688048D01*
X122011403Y-88723669D01*
X121947423Y-88762821D01*
X121882218Y-88804807D01*
X121816838Y-88848932D01*
X121752333Y-88894498D01*
X121689754Y-88940810D01*
X121630152Y-88987170D01*
X121574576Y-89032883D01*
X121562400Y-89043296D01*
X121546119Y-89057332D01*
X121525848Y-89074812D01*
X121503513Y-89094077D01*
X121481036Y-89113466D01*
X121465764Y-89126643D01*
X121447548Y-89142053D01*
X121430949Y-89155516D01*
X121417002Y-89166241D01*
X121406741Y-89173434D01*
X121401200Y-89176301D01*
X121400979Y-89176320D01*
X121394611Y-89173043D01*
X121385880Y-89164007D01*
X121378637Y-89154353D01*
X121367156Y-89140022D01*
X121349555Y-89121399D01*
X121326085Y-89098718D01*
X121296994Y-89072212D01*
X121262533Y-89042113D01*
X121222950Y-89008655D01*
X121220566Y-89006669D01*
X121104522Y-88914511D01*
X120986949Y-88829969D01*
X120867702Y-88752971D01*
X120746636Y-88683443D01*
X120623606Y-88621312D01*
X120498468Y-88566506D01*
X120371076Y-88518952D01*
X120241286Y-88478576D01*
X120108953Y-88445306D01*
X120103849Y-88444176D01*
X119983451Y-88421043D01*
X119859070Y-88403674D01*
X119732075Y-88392138D01*
X119603833Y-88386505D01*
X119475713Y-88386846D01*
X119349083Y-88393230D01*
X119263430Y-88401179D01*
X119128172Y-88420098D01*
X118994365Y-88446672D01*
X118862117Y-88480862D01*
X118731537Y-88522625D01*
X118602734Y-88571921D01*
X118475815Y-88628709D01*
X118350890Y-88692947D01*
X118228066Y-88764595D01*
X118124689Y-88831776D01*
X118093778Y-88853053D01*
X118064446Y-88873741D01*
X118035500Y-88894733D01*
X118005745Y-88916925D01*
X117973985Y-88941210D01*
X117939028Y-88968482D01*
X117899677Y-88999638D01*
X117886393Y-89010230D01*
X117847572Y-89041165D01*
X117811807Y-89069546D01*
X117779562Y-89095007D01*
X117751304Y-89117182D01*
X117727500Y-89135707D01*
X117708616Y-89150216D01*
X117695119Y-89160344D01*
X117690784Y-89163476D01*
X117678780Y-89171959D01*
X117389984Y-88868786D01*
X117314021Y-88789038D01*
X117243150Y-88714626D01*
X117177071Y-88645236D01*
X117115483Y-88580550D01*
X117058086Y-88520251D01*
X117004579Y-88464023D01*
X116954662Y-88411550D01*
X116908035Y-88362514D01*
X116864397Y-88316600D01*
X116823448Y-88273490D01*
X116784887Y-88232868D01*
X116748415Y-88194419D01*
X116713730Y-88157824D01*
X116680533Y-88122768D01*
X116648522Y-88088933D01*
X116617398Y-88056004D01*
X116586860Y-88023664D01*
X116556607Y-87991596D01*
X116526340Y-87959484D01*
X116495758Y-87927011D01*
X116464561Y-87893860D01*
X116434401Y-87861792D01*
X116588129Y-87861792D01*
X116682302Y-87961405D01*
X116776895Y-88061402D01*
X116867208Y-88156751D01*
X116954273Y-88248535D01*
X117039118Y-88337838D01*
X117122775Y-88425743D01*
X117206272Y-88513334D01*
X117290642Y-88601693D01*
X117376913Y-88691905D01*
X117378549Y-88693614D01*
X117416125Y-88732881D01*
X117452661Y-88771072D01*
X117487730Y-88807738D01*
X117520904Y-88842432D01*
X117551757Y-88874707D01*
X117579860Y-88904115D01*
X117604786Y-88930210D01*
X117626109Y-88952544D01*
X117643399Y-88970670D01*
X117656231Y-88984141D01*
X117664176Y-88992509D01*
X117665180Y-88993571D01*
X117678228Y-89007143D01*
X117687224Y-89015637D01*
X117693265Y-89019852D01*
X117697445Y-89020588D01*
X117700244Y-89019163D01*
X117705419Y-89014875D01*
X117715227Y-89006589D01*
X117728377Y-88995404D01*
X117743576Y-88982415D01*
X117747618Y-88978952D01*
X117868267Y-88880069D01*
X117990708Y-88788782D01*
X118114986Y-88705069D01*
X118241149Y-88628909D01*
X118369244Y-88560282D01*
X118499318Y-88499166D01*
X118631418Y-88445541D01*
X118765591Y-88399385D01*
X118901883Y-88360679D01*
X119040343Y-88329400D01*
X119181016Y-88305529D01*
X119294682Y-88291800D01*
X119439458Y-88281023D01*
X119582306Y-88277732D01*
X119723304Y-88281949D01*
X119862530Y-88293694D01*
X120000063Y-88312989D01*
X120135982Y-88339855D01*
X120270364Y-88374315D01*
X120403288Y-88416390D01*
X120534833Y-88466100D01*
X120665076Y-88523468D01*
X120794096Y-88588515D01*
X120921972Y-88661262D01*
X121048781Y-88741732D01*
X121122920Y-88792690D01*
X121167846Y-88825140D01*
X121215432Y-88860746D01*
X121263754Y-88898009D01*
X121310888Y-88935425D01*
X121354909Y-88971494D01*
X121387955Y-88999549D01*
X121416648Y-89024396D01*
X121427641Y-89015392D01*
X121433943Y-89010160D01*
X121445118Y-89000814D01*
X121460069Y-88988273D01*
X121477696Y-88973460D01*
X121496900Y-88957297D01*
X121500517Y-88954250D01*
X121567347Y-88899751D01*
X121638832Y-88844771D01*
X121713118Y-88790628D01*
X121788348Y-88738635D01*
X121862665Y-88690109D01*
X121934213Y-88646362D01*
X121939376Y-88643334D01*
X122000529Y-88608988D01*
X122066784Y-88574327D01*
X122136292Y-88540203D01*
X122207203Y-88507468D01*
X122277667Y-88476975D01*
X122345836Y-88449575D01*
X122409858Y-88426121D01*
X122414015Y-88424690D01*
X122550180Y-88382113D01*
X122687667Y-88347227D01*
X122826517Y-88320025D01*
X122966774Y-88300501D01*
X123108480Y-88288649D01*
X123251678Y-88284462D01*
X123353632Y-88286116D01*
X123492181Y-88294459D01*
X123628499Y-88309820D01*
X123762850Y-88332284D01*
X123895495Y-88361935D01*
X124026700Y-88398859D01*
X124156726Y-88443139D01*
X124285838Y-88494860D01*
X124414298Y-88554108D01*
X124542371Y-88620966D01*
X124670319Y-88695519D01*
X124715363Y-88723600D01*
X124803190Y-88781215D01*
X124889967Y-88842133D01*
X124977399Y-88907587D01*
X125053640Y-88967817D01*
X125122794Y-89023690D01*
X125167269Y-88977927D01*
X125176410Y-88968469D01*
X125190490Y-88953829D01*
X125209055Y-88934482D01*
X125231655Y-88910899D01*
X125257834Y-88883555D01*
X125287142Y-88852922D01*
X125319125Y-88819473D01*
X125353330Y-88783683D01*
X125389305Y-88746024D01*
X125426598Y-88706969D01*
X125464754Y-88666991D01*
X125474520Y-88656756D01*
X125520974Y-88608076D01*
X125562462Y-88564615D01*
X125599407Y-88525939D01*
X125632231Y-88491609D01*
X125661357Y-88461189D01*
X125687208Y-88434242D01*
X125710206Y-88410331D01*
X125730774Y-88389020D01*
X125749334Y-88369871D01*
X125766310Y-88352448D01*
X125782124Y-88336313D01*
X125797199Y-88321031D01*
X125811956Y-88306163D01*
X125826820Y-88291274D01*
X125842211Y-88275925D01*
X125858554Y-88259682D01*
X125861514Y-88256744D01*
X125877649Y-88240581D01*
X125891667Y-88226253D01*
X125902695Y-88214678D01*
X125909855Y-88206775D01*
X125912277Y-88203498D01*
X125914916Y-88200045D01*
X125922333Y-88191858D01*
X125933779Y-88179723D01*
X125948504Y-88164430D01*
X125965760Y-88146765D01*
X125979664Y-88132683D01*
X125999370Y-88112734D01*
X126023202Y-88088483D01*
X126049865Y-88061252D01*
X126078066Y-88032368D01*
X126106510Y-88003154D01*
X126133904Y-87974936D01*
X126145796Y-87962654D01*
X126244540Y-87860576D01*
X126229872Y-87848485D01*
X126220716Y-87841421D01*
X126213941Y-87837066D01*
X126212111Y-87836393D01*
X126208070Y-87833981D01*
X126199515Y-87827448D01*
X126187784Y-87817850D01*
X126176866Y-87808550D01*
X126162949Y-87796720D01*
X126144667Y-87781502D01*
X126123788Y-87764349D01*
X126102079Y-87746716D01*
X126086116Y-87733892D01*
X126067651Y-87718992D01*
X126051244Y-87705474D01*
X126037903Y-87694191D01*
X126028635Y-87685995D01*
X126024449Y-87681740D01*
X126024394Y-87681652D01*
X126018450Y-87676796D01*
X126015605Y-87676227D01*
X126010529Y-87674278D01*
X126009939Y-87672728D01*
X126007130Y-87669030D01*
X125999431Y-87661346D01*
X125987937Y-87650712D01*
X125973745Y-87638162D01*
X125969898Y-87634842D01*
X125922005Y-87592870D01*
X125879482Y-87553691D01*
X125841044Y-87516006D01*
X125805406Y-87478516D01*
X125771281Y-87439921D01*
X125741164Y-87403616D01*
X125678380Y-87319781D01*
X125621758Y-87231577D01*
X125571604Y-87139619D01*
X125528224Y-87044523D01*
X125491923Y-86946903D01*
X125463008Y-86847376D01*
X125461299Y-86840478D01*
X125456317Y-86819696D01*
X125451857Y-86800268D01*
X125448352Y-86784140D01*
X125446236Y-86773253D01*
X125446017Y-86771875D01*
X125443988Y-86759094D01*
X125441992Y-86747984D01*
X125441720Y-86746639D01*
X125437230Y-86722745D01*
X125433280Y-86696535D01*
X125429736Y-86666813D01*
X125426466Y-86632381D01*
X125423337Y-86592044D01*
X125421493Y-86564831D01*
X125418853Y-86479308D01*
X125421693Y-86390542D01*
X125426046Y-86336301D01*
X125428767Y-86309679D01*
X125431248Y-86287389D01*
X125433203Y-86271844D01*
X125434712Y-86260773D01*
X125436624Y-86246536D01*
X125437414Y-86240592D01*
X125440992Y-86217700D01*
X125446237Y-86189537D01*
X125452669Y-86158347D01*
X125459812Y-86126372D01*
X125467187Y-86095855D01*
X125472969Y-86073865D01*
X125504949Y-85970363D01*
X125542595Y-85871872D01*
X125586248Y-85777683D01*
X125636248Y-85687087D01*
X125692937Y-85599377D01*
X125719459Y-85562367D01*
X125729623Y-85548341D01*
X125737776Y-85536605D01*
X125742951Y-85528581D01*
X125744298Y-85525818D01*
X125747064Y-85521628D01*
X125753752Y-85515487D01*
X125754064Y-85515240D01*
X125760890Y-85508714D01*
X125763828Y-85503612D01*
X125763830Y-85503521D01*
X125766628Y-85498498D01*
X125773381Y-85491972D01*
X125773597Y-85491801D01*
X125780438Y-85485095D01*
X125783361Y-85479600D01*
X125783363Y-85479520D01*
X125786189Y-85474473D01*
X125793306Y-85467161D01*
X125797036Y-85464011D01*
X125805314Y-85456618D01*
X125810173Y-85450756D01*
X125810708Y-85449270D01*
X125813372Y-85445541D01*
X125820783Y-85437251D01*
X125832072Y-85425268D01*
X125846369Y-85410462D01*
X125862804Y-85393700D01*
X125880509Y-85375853D01*
X125898613Y-85357789D01*
X125916247Y-85340377D01*
X125932542Y-85324486D01*
X125946627Y-85310984D01*
X125957633Y-85300742D01*
X125964690Y-85294627D01*
X125966826Y-85293268D01*
X125971185Y-85290457D01*
X125978295Y-85283268D01*
X125983063Y-85277642D01*
X125991133Y-85268697D01*
X125997928Y-85263042D01*
X126000480Y-85262016D01*
X126005933Y-85259250D01*
X126013357Y-85252394D01*
X126015199Y-85250297D01*
X126022428Y-85242784D01*
X126028048Y-85238780D01*
X126028936Y-85238577D01*
X126033840Y-85235784D01*
X126040312Y-85229041D01*
X126040493Y-85228811D01*
X126046618Y-85222021D01*
X126050852Y-85219050D01*
X126050948Y-85219045D01*
X126054913Y-85216737D01*
X126063626Y-85210459D01*
X126075783Y-85201183D01*
X126089450Y-85190385D01*
X126106575Y-85176798D01*
X126124310Y-85162976D01*
X126140175Y-85150842D01*
X126148698Y-85144483D01*
X126161740Y-85134706D01*
X126178421Y-85121894D01*
X126196309Y-85107927D01*
X126208686Y-85098119D01*
X126245156Y-85068995D01*
X126196898Y-85021942D01*
X126186866Y-85012136D01*
X126171762Y-84997335D01*
X126152082Y-84978026D01*
X126128319Y-84954696D01*
X126100969Y-84927831D01*
X126070529Y-84897918D01*
X126037492Y-84865444D01*
X126002355Y-84830896D01*
X125965612Y-84794759D01*
X125927758Y-84757521D01*
X125894579Y-84724874D01*
X125855311Y-84686250D01*
X125813968Y-84645622D01*
X125770936Y-84603366D01*
X125726598Y-84559857D01*
X125681339Y-84515470D01*
X125635542Y-84470581D01*
X125589591Y-84425566D01*
X125543871Y-84380801D01*
X125498766Y-84336660D01*
X125454661Y-84293519D01*
X125411938Y-84251754D01*
X125370982Y-84211740D01*
X125332178Y-84173853D01*
X125295910Y-84138468D01*
X125262560Y-84105961D01*
X125232515Y-84076708D01*
X125206158Y-84051083D01*
X125183872Y-84029463D01*
X125166043Y-84012222D01*
X125153054Y-83999737D01*
X125145748Y-83992810D01*
X125133568Y-83981981D01*
X125125020Y-83975994D01*
X125118479Y-83973912D01*
X125113768Y-83974386D01*
X125107524Y-83977717D01*
X125096738Y-83985281D01*
X125082693Y-83996108D01*
X125066674Y-84009227D01*
X125058551Y-84016147D01*
X124947924Y-84106550D01*
X124831939Y-84191523D01*
X124711081Y-84270819D01*
X124585836Y-84344194D01*
X124456689Y-84411403D01*
X124324127Y-84472199D01*
X124188635Y-84526338D01*
X124050699Y-84573575D01*
X123910804Y-84613664D01*
X123841837Y-84630589D01*
X123738522Y-84652176D01*
X123635035Y-84668927D01*
X123529856Y-84681009D01*
X123421465Y-84688586D01*
X123308341Y-84691826D01*
X123279302Y-84691977D01*
X123166590Y-84690113D01*
X123058328Y-84684174D01*
X122952496Y-84673918D01*
X122847076Y-84659105D01*
X122740047Y-84639491D01*
X122629392Y-84614835D01*
X122623847Y-84613495D01*
X122596562Y-84606640D01*
X122566850Y-84598766D01*
X122535645Y-84590157D01*
X122503880Y-84581099D01*
X122472488Y-84571878D01*
X122442402Y-84562777D01*
X122414555Y-84554083D01*
X122389881Y-84546080D01*
X122369311Y-84539055D01*
X122353780Y-84533291D01*
X122344221Y-84529074D01*
X122341599Y-84527223D01*
X122336872Y-84524630D01*
X122327011Y-84521496D01*
X122319137Y-84519596D01*
X122307795Y-84516553D01*
X122300402Y-84513396D01*
X122298773Y-84511647D01*
X122295428Y-84508953D01*
X122289007Y-84508064D01*
X122281663Y-84506896D01*
X122279241Y-84504657D01*
X122275790Y-84501975D01*
X122267166Y-84499408D01*
X122263615Y-84498751D01*
X122253846Y-84496335D01*
X122248397Y-84493332D01*
X122247989Y-84492392D01*
X122244654Y-84489459D01*
X122238502Y-84488531D01*
X122228592Y-84486192D01*
X122223155Y-84482672D01*
X122215430Y-84477803D01*
X122210877Y-84476812D01*
X122202937Y-84474203D01*
X122198600Y-84470952D01*
X122190137Y-84466276D01*
X122183253Y-84465092D01*
X122176043Y-84463938D01*
X122173766Y-84461813D01*
X122170495Y-84457917D01*
X122162750Y-84453596D01*
X122153636Y-84450331D01*
X122147911Y-84449466D01*
X122140388Y-84446878D01*
X122136096Y-84443607D01*
X122127576Y-84438876D01*
X122121028Y-84437747D01*
X122111540Y-84435677D01*
X122106658Y-84432646D01*
X122101870Y-84429520D01*
X122091115Y-84423406D01*
X122075395Y-84414847D01*
X122055714Y-84404381D01*
X122033076Y-84392549D01*
X122013600Y-84382510D01*
X121922771Y-84334230D01*
X121836555Y-84284673D01*
X121753277Y-84232748D01*
X121671262Y-84177365D01*
X121588835Y-84117436D01*
X121504321Y-84051869D01*
X121499205Y-84047777D01*
X121471969Y-84026282D01*
X121449846Y-84009621D01*
X121432142Y-83997401D01*
X121418165Y-83989227D01*
X121407221Y-83984705D01*
X121398618Y-83983441D01*
X121391664Y-83985040D01*
X121390246Y-83985760D01*
X121384929Y-83989614D01*
X121374943Y-83997627D01*
X121361491Y-84008803D01*
X121345780Y-84022149D01*
X121336960Y-84029750D01*
X121253133Y-84098722D01*
X121162444Y-84166482D01*
X121065821Y-84232455D01*
X120964190Y-84296064D01*
X120858477Y-84356735D01*
X120749608Y-84413891D01*
X120638510Y-84466956D01*
X120621489Y-84474627D01*
X120504882Y-84523355D01*
X120384214Y-84567252D01*
X120261022Y-84605869D01*
X120136839Y-84638758D01*
X120013202Y-84665471D01*
X119906048Y-84683518D01*
X119870357Y-84688584D01*
X119838506Y-84692799D01*
X119809249Y-84696240D01*
X119781340Y-84698983D01*
X119753534Y-84701105D01*
X119724585Y-84702681D01*
X119693249Y-84703788D01*
X119658278Y-84704503D01*
X119618428Y-84704902D01*
X119572453Y-84705061D01*
X119554464Y-84705074D01*
X119508212Y-84705016D01*
X119468796Y-84704800D01*
X119435239Y-84704400D01*
X119406566Y-84703786D01*
X119381801Y-84702932D01*
X119359967Y-84701809D01*
X119340088Y-84700390D01*
X119321188Y-84698646D01*
X119318121Y-84698328D01*
X119193217Y-84682661D01*
X119071460Y-84662350D01*
X118954386Y-84637662D01*
X118919216Y-84629145D01*
X118887669Y-84621096D01*
X118857448Y-84613079D01*
X118829512Y-84605374D01*
X118804820Y-84598261D01*
X118784332Y-84592020D01*
X118769005Y-84586931D01*
X118759801Y-84583273D01*
X118757735Y-84582014D01*
X118751055Y-84579016D01*
X118745735Y-84578381D01*
X118737299Y-84577172D01*
X118725564Y-84574127D01*
X118713189Y-84570115D01*
X118702830Y-84566007D01*
X118697144Y-84562672D01*
X118696921Y-84562394D01*
X118692443Y-84560049D01*
X118682313Y-84556469D01*
X118668458Y-84552316D01*
X118663784Y-84551035D01*
X118649176Y-84546831D01*
X118637705Y-84542988D01*
X118631298Y-84540170D01*
X118630647Y-84539616D01*
X118625810Y-84536969D01*
X118616409Y-84534327D01*
X118613976Y-84533842D01*
X118604583Y-84531242D01*
X118599579Y-84528155D01*
X118599327Y-84527419D01*
X118595983Y-84524615D01*
X118589561Y-84523690D01*
X118582219Y-84522352D01*
X118579795Y-84519783D01*
X118576452Y-84516847D01*
X118570028Y-84515877D01*
X118562687Y-84514539D01*
X118560262Y-84511970D01*
X118556919Y-84509034D01*
X118550496Y-84508064D01*
X118543154Y-84506726D01*
X118540730Y-84504157D01*
X118537387Y-84501221D01*
X118530963Y-84500251D01*
X118523619Y-84499091D01*
X118521197Y-84496865D01*
X118517866Y-84493600D01*
X118509447Y-84488990D01*
X118498306Y-84484044D01*
X118486806Y-84479767D01*
X118477310Y-84477168D01*
X118474124Y-84476812D01*
X118467540Y-84475263D01*
X118465855Y-84473603D01*
X118462116Y-84471049D01*
X118452335Y-84465631D01*
X118437515Y-84457869D01*
X118418658Y-84448283D01*
X118396765Y-84437391D01*
X118383181Y-84430734D01*
X118270632Y-84373120D01*
X118162363Y-84311935D01*
X118057034Y-84246319D01*
X117953303Y-84175412D01*
X117849831Y-84098352D01*
X117782871Y-84045200D01*
X117759421Y-84026312D01*
X117740992Y-84012015D01*
X117726656Y-84001831D01*
X117715483Y-83995285D01*
X117706548Y-83991901D01*
X117698920Y-83991203D01*
X117691673Y-83992715D01*
X117685434Y-83995238D01*
X117680966Y-83998579D01*
X117671797Y-84006686D01*
X117657869Y-84019618D01*
X117639122Y-84037432D01*
X117615499Y-84060185D01*
X117586940Y-84087936D01*
X117553386Y-84120741D01*
X117514779Y-84158659D01*
X117471061Y-84201748D01*
X117422171Y-84250064D01*
X117368053Y-84303665D01*
X117308646Y-84362610D01*
X117243892Y-84426956D01*
X117173732Y-84496760D01*
X117129848Y-84540459D01*
X116589438Y-85078744D01*
X116607017Y-85089731D01*
X116617515Y-85097151D01*
X116631496Y-85108198D01*
X116646784Y-85121114D01*
X116655848Y-85129185D01*
X116667199Y-85139399D01*
X116683320Y-85153729D01*
X116703074Y-85171175D01*
X116725326Y-85190736D01*
X116748942Y-85211413D01*
X116772786Y-85232205D01*
X116772890Y-85232296D01*
X116816616Y-85270543D01*
X116855005Y-85304620D01*
X116888798Y-85335270D01*
X116918731Y-85363235D01*
X116945543Y-85389261D01*
X116969973Y-85414090D01*
X116992758Y-85438466D01*
X117014638Y-85463132D01*
X117036349Y-85488832D01*
X117058631Y-85516310D01*
X117073167Y-85534707D01*
X117092778Y-85560603D01*
X117114770Y-85591122D01*
X117137954Y-85624493D01*
X117161141Y-85658948D01*
X117183140Y-85692715D01*
X117202763Y-85724025D01*
X117218819Y-85751109D01*
X117219847Y-85752922D01*
X117267942Y-85845685D01*
X117309191Y-85941400D01*
X117343394Y-86039436D01*
X117370351Y-86139160D01*
X117389865Y-86239940D01*
X117400418Y-86325616D01*
X117401934Y-86348957D01*
X117402898Y-86378257D01*
X117403342Y-86411974D01*
X117403292Y-86448568D01*
X117402780Y-86486497D01*
X117401833Y-86524220D01*
X117400481Y-86560196D01*
X117398753Y-86592883D01*
X117396678Y-86620741D01*
X117394457Y-86641007D01*
X117379053Y-86734864D01*
X117358936Y-86827847D01*
X117334484Y-86918693D01*
X117306074Y-87006141D01*
X117274083Y-87088928D01*
X117238890Y-87165793D01*
X117235622Y-87172290D01*
X117196020Y-87244670D01*
X117151322Y-87315397D01*
X117101172Y-87384876D01*
X117045215Y-87453514D01*
X116983094Y-87521716D01*
X116914453Y-87589886D01*
X116838937Y-87658430D01*
X116756189Y-87727753D01*
X116728057Y-87750221D01*
X116709884Y-87764714D01*
X116693787Y-87777813D01*
X116680802Y-87788654D01*
X116671963Y-87796374D01*
X116668350Y-87800029D01*
X116663049Y-87804647D01*
X116660892Y-87805142D01*
X116655422Y-87807477D01*
X116645724Y-87813646D01*
X116633498Y-87822395D01*
X116620444Y-87832468D01*
X116608263Y-87842609D01*
X116600503Y-87849720D01*
X116588129Y-87861792D01*
X116434401Y-87861792D01*
X116432448Y-87859715D01*
X116432187Y-87859438D01*
X116411615Y-87837558D01*
X116482947Y-87787347D01*
X116536716Y-87749167D01*
X116584818Y-87714262D01*
X116628258Y-87681840D01*
X116668041Y-87651115D01*
X116705173Y-87621295D01*
X116740660Y-87591591D01*
X116775507Y-87561215D01*
X116805649Y-87534025D01*
X116886847Y-87455074D01*
X116960696Y-87373499D01*
X117027228Y-87289242D01*
X117086476Y-87202245D01*
X117138469Y-87112450D01*
X117183240Y-87019798D01*
X117220820Y-86924232D01*
X117251241Y-86825694D01*
X117274534Y-86724125D01*
X117287569Y-86644278D01*
X117291187Y-86610910D01*
X117293900Y-86571954D01*
X117295699Y-86529219D01*
X117296574Y-86484513D01*
X117296516Y-86439644D01*
X117295516Y-86396422D01*
X117293563Y-86356654D01*
X117290650Y-86322150D01*
X117289304Y-86310909D01*
X117271325Y-86203757D01*
X117246104Y-86099526D01*
X117213669Y-85998281D01*
X117174052Y-85900093D01*
X117127282Y-85805029D01*
X117073391Y-85713156D01*
X117012409Y-85624543D01*
X116944366Y-85539258D01*
X116942916Y-85537566D01*
X116903729Y-85493331D01*
X116862741Y-85449947D01*
X116819263Y-85406799D01*
X116772607Y-85363267D01*
X116722084Y-85318735D01*
X116667006Y-85272586D01*
X116606683Y-85224202D01*
X116540428Y-85172965D01*
X116513821Y-85152821D01*
X116434299Y-85092930D01*
X116574372Y-84953536D01*
X116592468Y-84935523D01*
X116615704Y-84912385D01*
X116643687Y-84884514D01*
X116676025Y-84852301D01*
X116712324Y-84816138D01*
X116752191Y-84776416D01*
X116795233Y-84733527D01*
X116841059Y-84687863D01*
X116889274Y-84639815D01*
X116939486Y-84589774D01*
X116991302Y-84538132D01*
X117044328Y-84485280D01*
X117098173Y-84431611D01*
X117152443Y-84377515D01*
X117206746Y-84323384D01*
X117207435Y-84322697D01*
X117700424Y-83831252D01*
X117715839Y-83844443D01*
X117743972Y-83868442D01*
X117772137Y-83892332D01*
X117799361Y-83915298D01*
X117824670Y-83936522D01*
X117847089Y-83955188D01*
X117865644Y-83970479D01*
X117879360Y-83981577D01*
X117880533Y-83982508D01*
X117901444Y-83999037D01*
X117918053Y-84012072D01*
X117932153Y-84022971D01*
X117945538Y-84033090D01*
X117960003Y-84043787D01*
X117977340Y-84056420D01*
X117997728Y-84071176D01*
X118119420Y-84155063D01*
X118241857Y-84231267D01*
X118365340Y-84299902D01*
X118490171Y-84361084D01*
X118616654Y-84414930D01*
X118745091Y-84461556D01*
X118875783Y-84501077D01*
X119009033Y-84533609D01*
X119145144Y-84559269D01*
X119284417Y-84578173D01*
X119331794Y-84583011D01*
X119352715Y-84584502D01*
X119380232Y-84585742D01*
X119413132Y-84586732D01*
X119450203Y-84587470D01*
X119490231Y-84587956D01*
X119532003Y-84588192D01*
X119574308Y-84588177D01*
X119615931Y-84587910D01*
X119655661Y-84587392D01*
X119692283Y-84586623D01*
X119724586Y-84585603D01*
X119751356Y-84584332D01*
X119769321Y-84583011D01*
X119911112Y-84566158D01*
X120049251Y-84542508D01*
X120184171Y-84511924D01*
X120316306Y-84474268D01*
X120446090Y-84429403D01*
X120573957Y-84377190D01*
X120700341Y-84317493D01*
X120825676Y-84250173D01*
X120834432Y-84245166D01*
X120922652Y-84192175D01*
X121012733Y-84133623D01*
X121102948Y-84070774D01*
X121191569Y-84004894D01*
X121276868Y-83937246D01*
X121357119Y-83869095D01*
X121396609Y-83833577D01*
X121406610Y-83824388D01*
X121509897Y-83911050D01*
X121550022Y-83944518D01*
X121585544Y-83973667D01*
X121617662Y-83999411D01*
X121647572Y-84022666D01*
X121676472Y-84044346D01*
X121705561Y-84065367D01*
X121736036Y-84086643D01*
X121769094Y-84109090D01*
X121769444Y-84109325D01*
X121883053Y-84182237D01*
X121996492Y-84248168D01*
X122111066Y-84307814D01*
X122228081Y-84361866D01*
X122305631Y-84394154D01*
X122432263Y-84441216D01*
X122559424Y-84481372D01*
X122688021Y-84514831D01*
X122818962Y-84541800D01*
X122953155Y-84562488D01*
X123091506Y-84577102D01*
X123111323Y-84578680D01*
X123138921Y-84580323D01*
X123172696Y-84581585D01*
X123211022Y-84582465D01*
X123252272Y-84582963D01*
X123294821Y-84583079D01*
X123337041Y-84582813D01*
X123377306Y-84582165D01*
X123413990Y-84581134D01*
X123445467Y-84579721D01*
X123460954Y-84578707D01*
X123599004Y-84564470D01*
X123735113Y-84542925D01*
X123869436Y-84514018D01*
X124002128Y-84477694D01*
X124133342Y-84433897D01*
X124263234Y-84382572D01*
X124391956Y-84323665D01*
X124519663Y-84257119D01*
X124646510Y-84182881D01*
X124744236Y-84120076D01*
X124771306Y-84101541D01*
X124799554Y-84081244D01*
X124829824Y-84058537D01*
X124862957Y-84032770D01*
X124899796Y-84003295D01*
X124941184Y-83969462D01*
X124960619Y-83953387D01*
X124983278Y-83934625D01*
X125004479Y-83917136D01*
X125023331Y-83901649D01*
X125038945Y-83888894D01*
X125050430Y-83879599D01*
X125056899Y-83874492D01*
X125057267Y-83874217D01*
X125064340Y-83867693D01*
X125074539Y-83856664D01*
X125086300Y-83842873D01*
X125094406Y-83832789D01*
X125120414Y-83799591D01*
X125130024Y-83811033D01*
G37*
G36*
X121424074Y-84289212D02*
G01*
X121434133Y-84296035D01*
X121448593Y-84306284D01*
X121466544Y-84319309D01*
X121487076Y-84334457D01*
X121505756Y-84348422D01*
X121633072Y-84439532D01*
X121762902Y-84523250D01*
X121895293Y-84599597D01*
X122030292Y-84668594D01*
X122167947Y-84730264D01*
X122308306Y-84784628D01*
X122451415Y-84831706D01*
X122597324Y-84871521D01*
X122729922Y-84900934D01*
X122754491Y-84905525D01*
X122778247Y-84909453D01*
X122799396Y-84912457D01*
X122816141Y-84914279D01*
X122825173Y-84914710D01*
X122837820Y-84915082D01*
X122846643Y-84916330D01*
X122849589Y-84917981D01*
X122853211Y-84921458D01*
X122862958Y-84924298D01*
X122877146Y-84926170D01*
X122894091Y-84926744D01*
X122894176Y-84926743D01*
X122904711Y-84927101D01*
X122921240Y-84928230D01*
X122941998Y-84929985D01*
X122965220Y-84932218D01*
X122982409Y-84934033D01*
X123008866Y-84936800D01*
X123036569Y-84939462D01*
X123062957Y-84941786D01*
X123085468Y-84943544D01*
X123094721Y-84944153D01*
X123112190Y-84945385D01*
X123126367Y-84946755D01*
X123135696Y-84948087D01*
X123138660Y-84949108D01*
X123142284Y-84949976D01*
X123152062Y-84950446D01*
X123166344Y-84950472D01*
X123177725Y-84950214D01*
X123194117Y-84949992D01*
X123207124Y-84950379D01*
X123215095Y-84951292D01*
X123216797Y-84952168D01*
X123220532Y-84953023D01*
X123231054Y-84953792D01*
X123247338Y-84954442D01*
X123268357Y-84954941D01*
X123293087Y-84955256D01*
X123318362Y-84955357D01*
X123345610Y-84955249D01*
X123370096Y-84954946D01*
X123390795Y-84954476D01*
X123406680Y-84953869D01*
X123416727Y-84953156D01*
X123419932Y-84952427D01*
X123423505Y-84950964D01*
X123432884Y-84949914D01*
X123446063Y-84949498D01*
X123446501Y-84949497D01*
X123483122Y-84948545D01*
X123526013Y-84945805D01*
X123573879Y-84941447D01*
X123625426Y-84935643D01*
X123679361Y-84928565D01*
X123734388Y-84920386D01*
X123789215Y-84911275D01*
X123842548Y-84901406D01*
X123893092Y-84890949D01*
X123901061Y-84889182D01*
X124036370Y-84854968D01*
X124171291Y-84813087D01*
X124305523Y-84763683D01*
X124438767Y-84706902D01*
X124570722Y-84642888D01*
X124701089Y-84571786D01*
X124829567Y-84493742D01*
X124955856Y-84408900D01*
X125071255Y-84323887D01*
X125092115Y-84308523D01*
X125107800Y-84298568D01*
X125118637Y-84293884D01*
X125124952Y-84294331D01*
X125127070Y-84299770D01*
X125127072Y-84300036D01*
X125129793Y-84303609D01*
X125137757Y-84312392D01*
X125150670Y-84326083D01*
X125168236Y-84344382D01*
X125190160Y-84366989D01*
X125216147Y-84393601D01*
X125245901Y-84423919D01*
X125279127Y-84457642D01*
X125315530Y-84494469D01*
X125354814Y-84534099D01*
X125396684Y-84576232D01*
X125440845Y-84620567D01*
X125487001Y-84666803D01*
X125500713Y-84680520D01*
X125560279Y-84740138D01*
X125614357Y-84794367D01*
X125663031Y-84843293D01*
X125706385Y-84887003D01*
X125744503Y-84925583D01*
X125777471Y-84959118D01*
X125805373Y-84987697D01*
X125828293Y-85011405D01*
X125846316Y-85030328D01*
X125859527Y-85044552D01*
X125868009Y-85054165D01*
X125871848Y-85059253D01*
X125872094Y-85060064D01*
X125867666Y-85064815D01*
X125858288Y-85071501D01*
X125846625Y-85078322D01*
X125837647Y-85083840D01*
X125826900Y-85091928D01*
X125813727Y-85103183D01*
X125797467Y-85118199D01*
X125777462Y-85137571D01*
X125753054Y-85161896D01*
X125743565Y-85171472D01*
X125709173Y-85206497D01*
X125679355Y-85237436D01*
X125652981Y-85265543D01*
X125628920Y-85292071D01*
X125606043Y-85318274D01*
X125583219Y-85345406D01*
X125559319Y-85374720D01*
X125551015Y-85385071D01*
X125489182Y-85466239D01*
X125434193Y-85546797D01*
X125385320Y-85628073D01*
X125341839Y-85711398D01*
X125303024Y-85798101D01*
X125268148Y-85889511D01*
X125255658Y-85926120D01*
X125231671Y-86002269D01*
X125211819Y-86073773D01*
X125195793Y-86142412D01*
X125183281Y-86209966D01*
X125173974Y-86278214D01*
X125167559Y-86348936D01*
X125163728Y-86423912D01*
X125162788Y-86458384D01*
X125162264Y-86488488D01*
X125161993Y-86515739D01*
X125161969Y-86539219D01*
X125162185Y-86558012D01*
X125162634Y-86571202D01*
X125163309Y-86577871D01*
X125163648Y-86578508D01*
X125165061Y-86582075D01*
X125165677Y-86591495D01*
X125165386Y-86604835D01*
X125165271Y-86606826D01*
X125165034Y-86623515D01*
X125165862Y-86644482D01*
X125167587Y-86666290D01*
X125168698Y-86676166D01*
X125185489Y-86778855D01*
X125209876Y-86881698D01*
X125241662Y-86984291D01*
X125280649Y-87086230D01*
X125326641Y-87187111D01*
X125379441Y-87286530D01*
X125438850Y-87384082D01*
X125504673Y-87479363D01*
X125576711Y-87571970D01*
X125643241Y-87648896D01*
X125667697Y-87675649D01*
X125690466Y-87700174D01*
X125711000Y-87721904D01*
X125728748Y-87740275D01*
X125743162Y-87754719D01*
X125753692Y-87764672D01*
X125759789Y-87769567D01*
X125760828Y-87769983D01*
X125764744Y-87772622D01*
X125773026Y-87779877D01*
X125784600Y-87790755D01*
X125798393Y-87804263D01*
X125804202Y-87810091D01*
X125819806Y-87825570D01*
X125834823Y-87839970D01*
X125847764Y-87851895D01*
X125857143Y-87859952D01*
X125858783Y-87861218D01*
X125867323Y-87868729D01*
X125872075Y-87875251D01*
X125872456Y-87877453D01*
X125869601Y-87881216D01*
X125861850Y-87890070D01*
X125849715Y-87903463D01*
X125833706Y-87920846D01*
X125814333Y-87941667D01*
X125792108Y-87965377D01*
X125767540Y-87991425D01*
X125741141Y-88019260D01*
X125732359Y-88028487D01*
X125703130Y-88059198D01*
X125673625Y-88090247D01*
X125644661Y-88120773D01*
X125617052Y-88149913D01*
X125591614Y-88176807D01*
X125569163Y-88200594D01*
X125550514Y-88220411D01*
X125537034Y-88234806D01*
X125520473Y-88252527D01*
X125499675Y-88274724D01*
X125475770Y-88300192D01*
X125449888Y-88327730D01*
X125423161Y-88356135D01*
X125396717Y-88384203D01*
X125380994Y-88400874D01*
X125354630Y-88428873D01*
X125326720Y-88458618D01*
X125298516Y-88488770D01*
X125271270Y-88517987D01*
X125246234Y-88544927D01*
X125224659Y-88568248D01*
X125215069Y-88578669D01*
X125196429Y-88598875D01*
X125179124Y-88617456D01*
X125163980Y-88633536D01*
X125151824Y-88646243D01*
X125143482Y-88654703D01*
X125140229Y-88657733D01*
X125128162Y-88662998D01*
X125112359Y-88664569D01*
X125104422Y-88664265D01*
X125097191Y-88662898D01*
X125089300Y-88659788D01*
X125079385Y-88654257D01*
X125066080Y-88645624D01*
X125048020Y-88633210D01*
X125044611Y-88630837D01*
X124952758Y-88567933D01*
X124865347Y-88510417D01*
X124781602Y-88457867D01*
X124700742Y-88409858D01*
X124621989Y-88365969D01*
X124544563Y-88325776D01*
X124467686Y-88288857D01*
X124390578Y-88254788D01*
X124312461Y-88223146D01*
X124251696Y-88200375D01*
X124112639Y-88153949D01*
X123972192Y-88114982D01*
X123830170Y-88083452D01*
X123686389Y-88059336D01*
X123540666Y-88042612D01*
X123392815Y-88033258D01*
X123242654Y-88031252D01*
X123089998Y-88036570D01*
X122970690Y-88045639D01*
X122826653Y-88063009D01*
X122684027Y-88088037D01*
X122542930Y-88120677D01*
X122403479Y-88160882D01*
X122265793Y-88208606D01*
X122129988Y-88263802D01*
X121996182Y-88326422D01*
X121864493Y-88396421D01*
X121735039Y-88473752D01*
X121607937Y-88558368D01*
X121522697Y-88620205D01*
X121494760Y-88640778D01*
X121471827Y-88656622D01*
X121452986Y-88668114D01*
X121437328Y-88675635D01*
X121423945Y-88679562D01*
X121411926Y-88680274D01*
X121400363Y-88678150D01*
X121391366Y-88674891D01*
X121384469Y-88671024D01*
X121372454Y-88663282D01*
X121356474Y-88652451D01*
X121337680Y-88639314D01*
X121317227Y-88624658D01*
X121312045Y-88620889D01*
X121188817Y-88534529D01*
X121066095Y-88455683D01*
X120943430Y-88384109D01*
X120820371Y-88319569D01*
X120696466Y-88261821D01*
X120571267Y-88210624D01*
X120483817Y-88178968D01*
X120361012Y-88140427D01*
X120233562Y-88107361D01*
X120102522Y-88079899D01*
X119968944Y-88058170D01*
X119833883Y-88042304D01*
X119698392Y-88032429D01*
X119563524Y-88028675D01*
X119430333Y-88031171D01*
X119329339Y-88037452D01*
X119183319Y-88053191D01*
X119039569Y-88076301D01*
X118897871Y-88106845D01*
X118758009Y-88144883D01*
X118619765Y-88190476D01*
X118482923Y-88243687D01*
X118347265Y-88304577D01*
X118297420Y-88329018D01*
X118270215Y-88342730D01*
X118244819Y-88355704D01*
X118220685Y-88368270D01*
X118197265Y-88380759D01*
X118174010Y-88393501D01*
X118150371Y-88406825D01*
X118125802Y-88421063D01*
X118099752Y-88436545D01*
X118071675Y-88453602D01*
X118041023Y-88472562D01*
X118007246Y-88493758D01*
X117969796Y-88517519D01*
X117928126Y-88544175D01*
X117881688Y-88574057D01*
X117829932Y-88607495D01*
X117772311Y-88644819D01*
X117759106Y-88653382D01*
X117742871Y-88663608D01*
X117728598Y-88672036D01*
X117717758Y-88677838D01*
X117711821Y-88680182D01*
X117711605Y-88680195D01*
X117707651Y-88677449D01*
X117698951Y-88669610D01*
X117686111Y-88657281D01*
X117669736Y-88641062D01*
X117650430Y-88621556D01*
X117628797Y-88599364D01*
X117605444Y-88575088D01*
X117596689Y-88565909D01*
X117563178Y-88530680D01*
X117532895Y-88498808D01*
X117505180Y-88469587D01*
X117479376Y-88442310D01*
X117454821Y-88416272D01*
X117430858Y-88390768D01*
X117406826Y-88365091D01*
X117382066Y-88338537D01*
X117355918Y-88310398D01*
X117327724Y-88279970D01*
X117296824Y-88246546D01*
X117262558Y-88209422D01*
X117224268Y-88167891D01*
X117185365Y-88125667D01*
X117172276Y-88111511D01*
X117154885Y-88092784D01*
X117134241Y-88070610D01*
X117111390Y-88046112D01*
X117087380Y-88020413D01*
X117063259Y-87994638D01*
X117053334Y-87984045D01*
X117031839Y-87960961D01*
X117012160Y-87939526D01*
X116994915Y-87920441D01*
X116980725Y-87904402D01*
X116970208Y-87892109D01*
X116963985Y-87884258D01*
X116962508Y-87881703D01*
X116965311Y-87877366D01*
X116973045Y-87868969D01*
X116984698Y-87857522D01*
X116999258Y-87844036D01*
X117008409Y-87835877D01*
X117035442Y-87811447D01*
X117065645Y-87783036D01*
X117097610Y-87752054D01*
X117129931Y-87719906D01*
X117161200Y-87688002D01*
X117190010Y-87657749D01*
X117214954Y-87630555D01*
X117224635Y-87619583D01*
X117301360Y-87525973D01*
X117370533Y-87430448D01*
X117387960Y-87402881D01*
X119134673Y-87402881D01*
X119260448Y-87401850D01*
X119386223Y-87400820D01*
X119499642Y-87095382D01*
X119516983Y-87048727D01*
X119533565Y-87004195D01*
X119549184Y-86962329D01*
X119563638Y-86923670D01*
X119576722Y-86888762D01*
X119588233Y-86858144D01*
X119597968Y-86832360D01*
X119605722Y-86811951D01*
X119611292Y-86797459D01*
X119614475Y-86789426D01*
X119615155Y-86787931D01*
X119616745Y-86791215D01*
X119620736Y-86801333D01*
X119626934Y-86817751D01*
X119635145Y-86839935D01*
X119645174Y-86867350D01*
X119656828Y-86899463D01*
X119669911Y-86935737D01*
X119684231Y-86975639D01*
X119699592Y-87018634D01*
X119715800Y-87064188D01*
X119726490Y-87094332D01*
X119835731Y-87402745D01*
X119951949Y-87402759D01*
X119981180Y-87402683D01*
X120007715Y-87402459D01*
X120030597Y-87402109D01*
X120048865Y-87401652D01*
X120061562Y-87401110D01*
X120067729Y-87400502D01*
X120068167Y-87400286D01*
X120067022Y-87396321D01*
X120063676Y-87385344D01*
X120058269Y-87367798D01*
X120050938Y-87344128D01*
X120041822Y-87314775D01*
X120031059Y-87280184D01*
X120018787Y-87240798D01*
X120005144Y-87197059D01*
X119990268Y-87149412D01*
X119974298Y-87098300D01*
X119957371Y-87044165D01*
X119939626Y-86987452D01*
X119921200Y-86928602D01*
X119918133Y-86918811D01*
X119899515Y-86859365D01*
X119881490Y-86801796D01*
X119864201Y-86746566D01*
X119847792Y-86694133D01*
X119832407Y-86644958D01*
X119818191Y-86599502D01*
X119805286Y-86558224D01*
X119793837Y-86521585D01*
X119789653Y-86508187D01*
X119787306Y-86500670D01*
X120343575Y-86500670D01*
X120343575Y-86508187D01*
X120343591Y-86590706D01*
X120343641Y-86665732D01*
X120343727Y-86733587D01*
X120343852Y-86794590D01*
X120344019Y-86849061D01*
X120344231Y-86897322D01*
X120344489Y-86939693D01*
X120344797Y-86976493D01*
X120345158Y-87008044D01*
X120345573Y-87034666D01*
X120346046Y-87056680D01*
X120346579Y-87074405D01*
X120347175Y-87088162D01*
X120347837Y-87098272D01*
X120348495Y-87104546D01*
X120357560Y-87155156D01*
X120370160Y-87201936D01*
X120385852Y-87243325D01*
X120390814Y-87253886D01*
X120408904Y-87290556D01*
X120388936Y-87344113D01*
X120381874Y-87363217D01*
X120375910Y-87379670D01*
X120371526Y-87392111D01*
X120369208Y-87399179D01*
X120368967Y-87400221D01*
X120372683Y-87400940D01*
X120383072Y-87401531D01*
X120398993Y-87401997D01*
X120419307Y-87402339D01*
X120442874Y-87402560D01*
X120468556Y-87402661D01*
X120495211Y-87402646D01*
X120521701Y-87402515D01*
X120546887Y-87402271D01*
X120569627Y-87401916D01*
X120588784Y-87401451D01*
X120603217Y-87400880D01*
X120611786Y-87400203D01*
X120613593Y-87399783D01*
X120615678Y-87395742D01*
X120620105Y-87385275D01*
X120626533Y-87369292D01*
X120634618Y-87348703D01*
X120644017Y-87324421D01*
X120654388Y-87297354D01*
X120665389Y-87268415D01*
X120676676Y-87238513D01*
X120687907Y-87208560D01*
X120698740Y-87179465D01*
X120708831Y-87152140D01*
X120717838Y-87127496D01*
X120725419Y-87106442D01*
X120731231Y-87089890D01*
X120734930Y-87078751D01*
X120736177Y-87073985D01*
X120737520Y-87069840D01*
X120741397Y-87058990D01*
X120747583Y-87042037D01*
X120755850Y-87019584D01*
X120765973Y-86992234D01*
X120777726Y-86960592D01*
X120790881Y-86925259D01*
X120805214Y-86886839D01*
X120820496Y-86845934D01*
X120836503Y-86803149D01*
X120853008Y-86759086D01*
X120869784Y-86714348D01*
X120886606Y-86669539D01*
X120903246Y-86625261D01*
X120919479Y-86582117D01*
X120935079Y-86540711D01*
X120949818Y-86501646D01*
X120963471Y-86465525D01*
X120975812Y-86432951D01*
X120986613Y-86404527D01*
X120995650Y-86380856D01*
X121002695Y-86362541D01*
X121007522Y-86350186D01*
X121009905Y-86344393D01*
X121010045Y-86344114D01*
X121010546Y-86347013D01*
X121011002Y-86357187D01*
X121011409Y-86374097D01*
X121011763Y-86397204D01*
X121012060Y-86425972D01*
X121012297Y-86459862D01*
X121012468Y-86498334D01*
X121012571Y-86540852D01*
X121012600Y-86586876D01*
X121012553Y-86635869D01*
X121012480Y-86668632D01*
X121011585Y-86999009D01*
X120999806Y-87022039D01*
X120990051Y-87038250D01*
X120978968Y-87049843D01*
X120969021Y-87056819D01*
X120960129Y-87061966D01*
X120951915Y-87065466D01*
X120942409Y-87067739D01*
X120929646Y-87069207D01*
X120911656Y-87070293D01*
X120904624Y-87070622D01*
X120859232Y-87072675D01*
X120810299Y-87203542D01*
X120798344Y-87235539D01*
X120786711Y-87266726D01*
X120775819Y-87295969D01*
X120766090Y-87322136D01*
X120757946Y-87344093D01*
X120751808Y-87360708D01*
X120748797Y-87368919D01*
X120736228Y-87403428D01*
X120881719Y-87401829D01*
X120919835Y-87401383D01*
X120951047Y-87400928D01*
X120976265Y-87400414D01*
X120996399Y-87399789D01*
X121012359Y-87399001D01*
X121025054Y-87397999D01*
X121035393Y-87396731D01*
X121044286Y-87395145D01*
X121052642Y-87393190D01*
X121057683Y-87391845D01*
X121095759Y-87378748D01*
X121128980Y-87361277D01*
X121159632Y-87338098D01*
X121175748Y-87322911D01*
X121201428Y-87293495D01*
X121222650Y-87260932D01*
X121239859Y-87224229D01*
X121253503Y-87182391D01*
X121264027Y-87134421D01*
X121266287Y-87120950D01*
X121267252Y-87114479D01*
X121268125Y-87107573D01*
X121268910Y-87099832D01*
X121269613Y-87090853D01*
X121270237Y-87080235D01*
X121270787Y-87067576D01*
X121271269Y-87052475D01*
X121271686Y-87034530D01*
X121272043Y-87013340D01*
X121272344Y-86988503D01*
X121272595Y-86959617D01*
X121272799Y-86926281D01*
X121272962Y-86888094D01*
X121272976Y-86883110D01*
X121591699Y-86883110D01*
X121591776Y-86985705D01*
X121592200Y-87032730D01*
X121593518Y-87073117D01*
X121595919Y-87108009D01*
X121599588Y-87138548D01*
X121604712Y-87165878D01*
X121611478Y-87191141D01*
X121620073Y-87215479D01*
X121630683Y-87240037D01*
X121634698Y-87248467D01*
X121657356Y-87288289D01*
X121683724Y-87321632D01*
X121714532Y-87349243D01*
X121750511Y-87371865D01*
X121760844Y-87377041D01*
X121775797Y-87383954D01*
X121789951Y-87389830D01*
X121804074Y-87394749D01*
X121818931Y-87398790D01*
X121835290Y-87402032D01*
X121853919Y-87404557D01*
X121875583Y-87406443D01*
X121901049Y-87407770D01*
X121931086Y-87408619D01*
X121966459Y-87409069D01*
X122007936Y-87409200D01*
X122056284Y-87409092D01*
X122068290Y-87409042D01*
X122110892Y-87408842D01*
X122146463Y-87408624D01*
X122175786Y-87408353D01*
X122199643Y-87407996D01*
X122218816Y-87407518D01*
X122234088Y-87406883D01*
X122246242Y-87406059D01*
X122256058Y-87405010D01*
X122264320Y-87403701D01*
X122271811Y-87402098D01*
X122279312Y-87400168D01*
X122281194Y-87399653D01*
X122326411Y-87383735D01*
X122366737Y-87362097D01*
X122402360Y-87334547D01*
X122433470Y-87300893D01*
X122460254Y-87260939D01*
X122482902Y-87214495D01*
X122495880Y-87179574D01*
X122505104Y-87150078D01*
X122512425Y-87122253D01*
X122518035Y-87094624D01*
X122522126Y-87065711D01*
X122524888Y-87034038D01*
X122526515Y-86998128D01*
X122527197Y-86956502D01*
X122527249Y-86937901D01*
X122527137Y-86903688D01*
X122526784Y-86876166D01*
X122526135Y-86854217D01*
X122525133Y-86836720D01*
X122523724Y-86822557D01*
X122521852Y-86810607D01*
X122520680Y-86804909D01*
X122506653Y-86754957D01*
X122487110Y-86707273D01*
X122461753Y-86661506D01*
X122430283Y-86617302D01*
X122392400Y-86574312D01*
X122347806Y-86532183D01*
X122296201Y-86490564D01*
X122237286Y-86449103D01*
X122195251Y-86422269D01*
X122131798Y-86381839D01*
X122075696Y-86343274D01*
X122026755Y-86306398D01*
X121984784Y-86271035D01*
X121949592Y-86237009D01*
X121920989Y-86204144D01*
X121898784Y-86172266D01*
X121882787Y-86141196D01*
X121878445Y-86129988D01*
X121874169Y-86116462D01*
X121871411Y-86103404D01*
X121869863Y-86088435D01*
X121869220Y-86069174D01*
X121869142Y-86057861D01*
X121869059Y-86011857D01*
X121886277Y-85994639D01*
X121894536Y-85986824D01*
X121902681Y-85980522D01*
X121911639Y-85975572D01*
X121922339Y-85971812D01*
X121935708Y-85969080D01*
X121952674Y-85967216D01*
X121974167Y-85966057D01*
X122001113Y-85965441D01*
X122034442Y-85965208D01*
X122055452Y-85965185D01*
X122090505Y-85965242D01*
X122118705Y-85965519D01*
X122141012Y-85966169D01*
X122158387Y-85967347D01*
X122171790Y-85969208D01*
X122182181Y-85971906D01*
X122190519Y-85975596D01*
X122197766Y-85980432D01*
X122204881Y-85986570D01*
X122208296Y-85989798D01*
X122224780Y-86010290D01*
X122237670Y-86036874D01*
X122247071Y-86069855D01*
X122253086Y-86109536D01*
X122254362Y-86124374D01*
X122256955Y-86160509D01*
X122393106Y-86160509D01*
X122529256Y-86160509D01*
X122529256Y-86060418D01*
X122528911Y-86015856D01*
X122527789Y-85977851D01*
X122525763Y-85945175D01*
X122522707Y-85916600D01*
X122518494Y-85890898D01*
X122512996Y-85866839D01*
X122507115Y-85846436D01*
X122488535Y-85797871D01*
X122478441Y-85779570D01*
X122814430Y-85779570D01*
X122814430Y-85945570D01*
X122985339Y-85946588D01*
X123156248Y-85947605D01*
X123157235Y-86675189D01*
X123158222Y-87402773D01*
X123285162Y-87402773D01*
X123412103Y-87402773D01*
X124087946Y-87402773D01*
X124556725Y-87402773D01*
X125025504Y-87402773D01*
X125025504Y-87236747D01*
X125025504Y-87070721D01*
X124687592Y-87070721D01*
X124349681Y-87070721D01*
X124349681Y-86344114D01*
X124349681Y-85617507D01*
X124221409Y-85617507D01*
X124093137Y-85617507D01*
X124090544Y-85901704D01*
X124090237Y-85939650D01*
X124089940Y-85984684D01*
X124089656Y-86036082D01*
X124089386Y-86093119D01*
X124089133Y-86155070D01*
X124088898Y-86221211D01*
X124088685Y-86290816D01*
X124088494Y-86363162D01*
X124088328Y-86437524D01*
X124088190Y-86513176D01*
X124088081Y-86589395D01*
X124088003Y-86665455D01*
X124087959Y-86740632D01*
X124087949Y-86794337D01*
X124087946Y-87402773D01*
X123412103Y-87402773D01*
X123413089Y-86675189D01*
X123414076Y-85947605D01*
X123585028Y-85946588D01*
X123755979Y-85945570D01*
X123754960Y-85780562D01*
X123753941Y-85615554D01*
X123284186Y-85614561D01*
X122814430Y-85613569D01*
X122814430Y-85779570D01*
X122478441Y-85779570D01*
X122465120Y-85755420D01*
X122436723Y-85718953D01*
X122403204Y-85688338D01*
X122364417Y-85663443D01*
X122320219Y-85644137D01*
X122271428Y-85630493D01*
X122262672Y-85628769D01*
X122253411Y-85627342D01*
X122242839Y-85626187D01*
X122230145Y-85625275D01*
X122214521Y-85624578D01*
X122195157Y-85624070D01*
X122171247Y-85623722D01*
X122141979Y-85623508D01*
X122106546Y-85623398D01*
X122064139Y-85623367D01*
X122062431Y-85623367D01*
X122018646Y-85623391D01*
X121981820Y-85623508D01*
X121951100Y-85623778D01*
X121925632Y-85624267D01*
X121904563Y-85625037D01*
X121887039Y-85626151D01*
X121872205Y-85627674D01*
X121859210Y-85629666D01*
X121847199Y-85632193D01*
X121835318Y-85635318D01*
X121822714Y-85639103D01*
X121814369Y-85641743D01*
X121769859Y-85659524D01*
X121730504Y-85682856D01*
X121696209Y-85711862D01*
X121666881Y-85746667D01*
X121642423Y-85787392D01*
X121622742Y-85834164D01*
X121607743Y-85887104D01*
X121601223Y-85920260D01*
X121598894Y-85938518D01*
X121596861Y-85963052D01*
X121595156Y-85992331D01*
X121593812Y-86024820D01*
X121592862Y-86058989D01*
X121592338Y-86093304D01*
X121592272Y-86126234D01*
X121592696Y-86156246D01*
X121593643Y-86181807D01*
X121595146Y-86201386D01*
X121595255Y-86202341D01*
X121604954Y-86256970D01*
X121621084Y-86308613D01*
X121643960Y-86357905D01*
X121673893Y-86405478D01*
X121711199Y-86451965D01*
X121728043Y-86470175D01*
X121757607Y-86499578D01*
X121788188Y-86526978D01*
X121821065Y-86553354D01*
X121857520Y-86579685D01*
X121898835Y-86606949D01*
X121941330Y-86633155D01*
X121996712Y-86667421D01*
X122047594Y-86700909D01*
X122093608Y-86733322D01*
X122134383Y-86764358D01*
X122169549Y-86793721D01*
X122198739Y-86821110D01*
X122221582Y-86846226D01*
X122237708Y-86868771D01*
X122241886Y-86876376D01*
X122245653Y-86884352D01*
X122248333Y-86891746D01*
X122250106Y-86900076D01*
X122251156Y-86910864D01*
X122251665Y-86925630D01*
X122251814Y-86945895D01*
X122251810Y-86959177D01*
X122251259Y-86990297D01*
X122249392Y-87014712D01*
X122245740Y-87033482D01*
X122239837Y-87047670D01*
X122231216Y-87058335D01*
X122219410Y-87066540D01*
X122203952Y-87073345D01*
X122201111Y-87074374D01*
X122192676Y-87075989D01*
X122177694Y-87077460D01*
X122157430Y-87078763D01*
X122133149Y-87079878D01*
X122106116Y-87080780D01*
X122077596Y-87081448D01*
X122048853Y-87081860D01*
X122021154Y-87081992D01*
X121995762Y-87081823D01*
X121973943Y-87081331D01*
X121956962Y-87080492D01*
X121946084Y-87079285D01*
X121944437Y-87078915D01*
X121923133Y-87069119D01*
X121905259Y-87052384D01*
X121890868Y-87028818D01*
X121880014Y-86998528D01*
X121872751Y-86961621D01*
X121869633Y-86928677D01*
X121867106Y-86885163D01*
X121729402Y-86884136D01*
X121591699Y-86883110D01*
X121272976Y-86883110D01*
X121273087Y-86844653D01*
X121273180Y-86795558D01*
X121273245Y-86740406D01*
X121273287Y-86678797D01*
X121273310Y-86610328D01*
X121273319Y-86534598D01*
X121273320Y-86504280D01*
X121273315Y-86425820D01*
X121273299Y-86354776D01*
X121273266Y-86290751D01*
X121273213Y-86233351D01*
X121273133Y-86182177D01*
X121273024Y-86136833D01*
X121272880Y-86096924D01*
X121272696Y-86062051D01*
X121272469Y-86031820D01*
X121272193Y-86005832D01*
X121271864Y-85983693D01*
X121271478Y-85965005D01*
X121271029Y-85949371D01*
X121270513Y-85936396D01*
X121269927Y-85925683D01*
X121269264Y-85916834D01*
X121268521Y-85909455D01*
X121267692Y-85903147D01*
X121266775Y-85897515D01*
X121266288Y-85894868D01*
X121259665Y-85862447D01*
X121252854Y-85834927D01*
X121245079Y-85809418D01*
X121237633Y-85788496D01*
X121227774Y-85762208D01*
X121255430Y-85688650D01*
X121263841Y-85666151D01*
X121271222Y-85646161D01*
X121277158Y-85629826D01*
X121281234Y-85618289D01*
X121282753Y-85613569D01*
X121283035Y-85612693D01*
X121283086Y-85612393D01*
X121279336Y-85611727D01*
X121268715Y-85611120D01*
X121252162Y-85610594D01*
X121230620Y-85610170D01*
X121205029Y-85609869D01*
X121176329Y-85609712D01*
X121162409Y-85609694D01*
X121041732Y-85609694D01*
X121035896Y-85624343D01*
X121033506Y-85630578D01*
X121028646Y-85643449D01*
X121021574Y-85662274D01*
X121012545Y-85686366D01*
X121001816Y-85715041D01*
X120989643Y-85747614D01*
X120976282Y-85783401D01*
X120961989Y-85821716D01*
X120947101Y-85861663D01*
X120931198Y-85904321D01*
X120915230Y-85947104D01*
X120899559Y-85989045D01*
X120884549Y-86029174D01*
X120870561Y-86066523D01*
X120857959Y-86100124D01*
X120847105Y-86129009D01*
X120838361Y-86152209D01*
X120833740Y-86164416D01*
X120826999Y-86182191D01*
X120817826Y-86206402D01*
X120806551Y-86236177D01*
X120793505Y-86270644D01*
X120779018Y-86308929D01*
X120763420Y-86350161D01*
X120747041Y-86393468D01*
X120730210Y-86437976D01*
X120713259Y-86482813D01*
X120708836Y-86494514D01*
X120692785Y-86536976D01*
X120677439Y-86577562D01*
X120663041Y-86615639D01*
X120649829Y-86650570D01*
X120638044Y-86681720D01*
X120627927Y-86708453D01*
X120619718Y-86730135D01*
X120613657Y-86746130D01*
X120609985Y-86755803D01*
X120609069Y-86758202D01*
X120608180Y-86759600D01*
X120607399Y-86758611D01*
X120606720Y-86754825D01*
X120606138Y-86747829D01*
X120605649Y-86737212D01*
X120605246Y-86722561D01*
X120604925Y-86703466D01*
X120604681Y-86679515D01*
X120604508Y-86650295D01*
X120604402Y-86615396D01*
X120604356Y-86574405D01*
X120604366Y-86526910D01*
X120604427Y-86472501D01*
X120604534Y-86410764D01*
X120604558Y-86398805D01*
X120605310Y-86025735D01*
X120614309Y-86006203D01*
X120628356Y-85982513D01*
X120646311Y-85964818D01*
X120660001Y-85956241D01*
X120667320Y-85952934D01*
X120675801Y-85950494D01*
X120686927Y-85948717D01*
X120702180Y-85947401D01*
X120723042Y-85946340D01*
X120735657Y-85945856D01*
X120795688Y-85943699D01*
X120853619Y-85788246D01*
X120866017Y-85754951D01*
X120877624Y-85723729D01*
X120888142Y-85695384D01*
X120897274Y-85670719D01*
X120904723Y-85650539D01*
X120910192Y-85635645D01*
X120913383Y-85626843D01*
X120914049Y-85624922D01*
X120914511Y-85623028D01*
X120914134Y-85621472D01*
X120912241Y-85620226D01*
X120908159Y-85619264D01*
X120901213Y-85618561D01*
X120890726Y-85618088D01*
X120876025Y-85617820D01*
X120856435Y-85617730D01*
X120831280Y-85617792D01*
X120799886Y-85617980D01*
X120761577Y-85618266D01*
X120747256Y-85618378D01*
X120706380Y-85618710D01*
X120672516Y-85619034D01*
X120644866Y-85619392D01*
X120622627Y-85619827D01*
X120605002Y-85620381D01*
X120591188Y-85621098D01*
X120580387Y-85622018D01*
X120571798Y-85623186D01*
X120564620Y-85624642D01*
X120558055Y-85626431D01*
X120551302Y-85628594D01*
X120550619Y-85628821D01*
X120509179Y-85645610D01*
X120472974Y-85666801D01*
X120441722Y-85692784D01*
X120415140Y-85723945D01*
X120392944Y-85760675D01*
X120374851Y-85803362D01*
X120360579Y-85852394D01*
X120350555Y-85903600D01*
X120349587Y-85910104D01*
X120348713Y-85917076D01*
X120347927Y-85924923D01*
X120347225Y-85934051D01*
X120346602Y-85944866D01*
X120346054Y-85957772D01*
X120345575Y-85973178D01*
X120345162Y-85991487D01*
X120344809Y-86013107D01*
X120344512Y-86038443D01*
X120344266Y-86067901D01*
X120344067Y-86101886D01*
X120343909Y-86140806D01*
X120343788Y-86185066D01*
X120343699Y-86235072D01*
X120343639Y-86291229D01*
X120343601Y-86353944D01*
X120343581Y-86423622D01*
X120343575Y-86500670D01*
X119787306Y-86500670D01*
X119783988Y-86490044D01*
X119775882Y-86464063D01*
X119769663Y-86444100D01*
X119765476Y-86430617D01*
X119763463Y-86424073D01*
X119763374Y-86423773D01*
X119762666Y-86421156D01*
X119762212Y-86418363D01*
X119762158Y-86414970D01*
X119762652Y-86410556D01*
X119763841Y-86404700D01*
X119765872Y-86396979D01*
X119768894Y-86386972D01*
X119773051Y-86374256D01*
X119778493Y-86358410D01*
X119785367Y-86339012D01*
X119793818Y-86315640D01*
X119803996Y-86287872D01*
X119816046Y-86255286D01*
X119830117Y-86217461D01*
X119846355Y-86173974D01*
X119864907Y-86124404D01*
X119885922Y-86068329D01*
X119907548Y-86010652D01*
X119927518Y-85957381D01*
X119946702Y-85906173D01*
X119964922Y-85857504D01*
X119982002Y-85811844D01*
X119997766Y-85769668D01*
X120012037Y-85731449D01*
X120024640Y-85697658D01*
X120035396Y-85668770D01*
X120044130Y-85645257D01*
X120050666Y-85627593D01*
X120054826Y-85616250D01*
X120056434Y-85611701D01*
X120056448Y-85611638D01*
X120052696Y-85611164D01*
X120042059Y-85610732D01*
X120025465Y-85610357D01*
X120003840Y-85610052D01*
X119978114Y-85609832D01*
X119949214Y-85609712D01*
X119932299Y-85609694D01*
X119808150Y-85609694D01*
X119722325Y-85840603D01*
X119707214Y-85881180D01*
X119692829Y-85919658D01*
X119679412Y-85955397D01*
X119667205Y-85987762D01*
X119656449Y-86016114D01*
X119647388Y-86039815D01*
X119640262Y-86058229D01*
X119635315Y-86070717D01*
X119632787Y-86076643D01*
X119632594Y-86076984D01*
X119630879Y-86076207D01*
X119627620Y-86070860D01*
X119622667Y-86060585D01*
X119615871Y-86045022D01*
X119607081Y-86023812D01*
X119596149Y-85996599D01*
X119582926Y-85963023D01*
X119567261Y-85922725D01*
X119554646Y-85890023D01*
X119539834Y-85851539D01*
X119525340Y-85813900D01*
X119511507Y-85777999D01*
X119498679Y-85744728D01*
X119487201Y-85714979D01*
X119477418Y-85689647D01*
X119469673Y-85669621D01*
X119464310Y-85655796D01*
X119463471Y-85653642D01*
X119446338Y-85609694D01*
X119329655Y-85609694D01*
X119212972Y-85609694D01*
X119324563Y-85940769D01*
X119341850Y-85992067D01*
X119359001Y-86042979D01*
X119375772Y-86092778D01*
X119391918Y-86140738D01*
X119407195Y-86186132D01*
X119421359Y-86228235D01*
X119434164Y-86266319D01*
X119445367Y-86299658D01*
X119454723Y-86327526D01*
X119461988Y-86349196D01*
X119465515Y-86359740D01*
X119494877Y-86447636D01*
X119325981Y-86894929D01*
X119304385Y-86952128D01*
X119283407Y-87007699D01*
X119263231Y-87061157D01*
X119244038Y-87112020D01*
X119226011Y-87159804D01*
X119209331Y-87204027D01*
X119194181Y-87244206D01*
X119180743Y-87279857D01*
X119169199Y-87310497D01*
X119159732Y-87335643D01*
X119152523Y-87354812D01*
X119147754Y-87367522D01*
X119145879Y-87372552D01*
X119134673Y-87402881D01*
X117387960Y-87402881D01*
X117432171Y-87332945D01*
X117486290Y-87233406D01*
X117532908Y-87131768D01*
X117572041Y-87027972D01*
X117603706Y-86921955D01*
X117627921Y-86813659D01*
X117644702Y-86703021D01*
X117654066Y-86589982D01*
X117655390Y-86512093D01*
X118028979Y-86512093D01*
X118028979Y-87402773D01*
X118173499Y-87402773D01*
X118318019Y-87402773D01*
X118319016Y-87043216D01*
X118320013Y-86683660D01*
X118488563Y-87042240D01*
X118657114Y-87400820D01*
X118806225Y-87401843D01*
X118839397Y-87401995D01*
X118869908Y-87401988D01*
X118896926Y-87401835D01*
X118919617Y-87401545D01*
X118937150Y-87401131D01*
X118948693Y-87400604D01*
X118953412Y-87399974D01*
X118953469Y-87399845D01*
X118951437Y-87395513D01*
X118946546Y-87384574D01*
X118939024Y-87367547D01*
X118929095Y-87344952D01*
X118916985Y-87317309D01*
X118902920Y-87285137D01*
X118887125Y-87248956D01*
X118869827Y-87209286D01*
X118851250Y-87166647D01*
X118831621Y-87121558D01*
X118811166Y-87074539D01*
X118790109Y-87026109D01*
X118768678Y-86976789D01*
X118747096Y-86927098D01*
X118725591Y-86877557D01*
X118704387Y-86828683D01*
X118683711Y-86780998D01*
X118663788Y-86735021D01*
X118644844Y-86691272D01*
X118627105Y-86650270D01*
X118610795Y-86612536D01*
X118596142Y-86578588D01*
X118583370Y-86548947D01*
X118572706Y-86524133D01*
X118564374Y-86504664D01*
X118558601Y-86491061D01*
X118555613Y-86483844D01*
X118555233Y-86482795D01*
X118556844Y-86478819D01*
X118561554Y-86468202D01*
X118569161Y-86451383D01*
X118579462Y-86428802D01*
X118592255Y-86400898D01*
X118607337Y-86368112D01*
X118624505Y-86330882D01*
X118643557Y-86289648D01*
X118664290Y-86244851D01*
X118686501Y-86196928D01*
X118709988Y-86146321D01*
X118734548Y-86093468D01*
X118751518Y-86056987D01*
X118776722Y-86002806D01*
X118801019Y-85950533D01*
X118824204Y-85900611D01*
X118846072Y-85853485D01*
X118866417Y-85809598D01*
X118885034Y-85769394D01*
X118901718Y-85733316D01*
X118916264Y-85701809D01*
X118928466Y-85675316D01*
X118938119Y-85654281D01*
X118945019Y-85639147D01*
X118948958Y-85630359D01*
X118949838Y-85628250D01*
X118949961Y-85626479D01*
X118948716Y-85625043D01*
X118945376Y-85623906D01*
X118939217Y-85623034D01*
X118929514Y-85622391D01*
X118915540Y-85621945D01*
X118896570Y-85621658D01*
X118871880Y-85621497D01*
X118840744Y-85621427D01*
X118807255Y-85621413D01*
X118662687Y-85621413D01*
X118491499Y-85945652D01*
X118466820Y-85992348D01*
X118443156Y-86037030D01*
X118420763Y-86079220D01*
X118399898Y-86118439D01*
X118380816Y-86154211D01*
X118363773Y-86186056D01*
X118349024Y-86213498D01*
X118336827Y-86236059D01*
X118327436Y-86253260D01*
X118321107Y-86264623D01*
X118318097Y-86269672D01*
X118317892Y-86269891D01*
X118317543Y-86266080D01*
X118317253Y-86255031D01*
X118317021Y-86237317D01*
X118316850Y-86213512D01*
X118316740Y-86184191D01*
X118316692Y-86149927D01*
X118316708Y-86111294D01*
X118316787Y-86068868D01*
X118316933Y-86023221D01*
X118317144Y-85974927D01*
X118317299Y-85945652D01*
X118319126Y-85621413D01*
X118174053Y-85621413D01*
X118028979Y-85621413D01*
X118028979Y-86512093D01*
X117655390Y-86512093D01*
X117656030Y-86474480D01*
X117650611Y-86356455D01*
X117637826Y-86235845D01*
X117628296Y-86172229D01*
X117605606Y-86057951D01*
X117575544Y-85945887D01*
X117538260Y-85836396D01*
X117493907Y-85729835D01*
X117442638Y-85626563D01*
X117439638Y-85621413D01*
X117384606Y-85526937D01*
X117319962Y-85431316D01*
X117303110Y-85408510D01*
X117255785Y-85348730D01*
X117203128Y-85287872D01*
X117147001Y-85227910D01*
X117089262Y-85170823D01*
X117031773Y-85118587D01*
X117024035Y-85111931D01*
X117007496Y-85097514D01*
X116993280Y-85084564D01*
X116982374Y-85074026D01*
X116975768Y-85066845D01*
X116974227Y-85064265D01*
X116976708Y-85060968D01*
X116984176Y-85052792D01*
X116996673Y-85039696D01*
X117014240Y-85021640D01*
X117036917Y-84998582D01*
X117064745Y-84970483D01*
X117097764Y-84937302D01*
X117136016Y-84898997D01*
X117179541Y-84855528D01*
X117228379Y-84806854D01*
X117282572Y-84752935D01*
X117342160Y-84693730D01*
X117407184Y-84629197D01*
X117477685Y-84559297D01*
X117553703Y-84483989D01*
X117594580Y-84443515D01*
X117627084Y-84411451D01*
X117654536Y-84384655D01*
X117677333Y-84362797D01*
X117695869Y-84345544D01*
X117710542Y-84332565D01*
X117721748Y-84323529D01*
X117729882Y-84318104D01*
X117735340Y-84315959D01*
X117738520Y-84316762D01*
X117739817Y-84320182D01*
X117739899Y-84321900D01*
X117743128Y-84325996D01*
X117752357Y-84333682D01*
X117766899Y-84344504D01*
X117786070Y-84358011D01*
X117809182Y-84373749D01*
X117835549Y-84391266D01*
X117864487Y-84410108D01*
X117895307Y-84429824D01*
X117927325Y-84449960D01*
X117959855Y-84470064D01*
X117992209Y-84489683D01*
X118012490Y-84501766D01*
X118143158Y-84575595D01*
X118274949Y-84643301D01*
X118407278Y-84704638D01*
X118539559Y-84759356D01*
X118671208Y-84807208D01*
X118801639Y-84847945D01*
X118878830Y-84868809D01*
X118923659Y-84879873D01*
X118967975Y-84890181D01*
X119010851Y-84899556D01*
X119051358Y-84907820D01*
X119088570Y-84914796D01*
X119121561Y-84920307D01*
X119149402Y-84924176D01*
X119171167Y-84926225D01*
X119180418Y-84926510D01*
X119194160Y-84926856D01*
X119204226Y-84927908D01*
X119208675Y-84929449D01*
X119208740Y-84929672D01*
X119211856Y-84932354D01*
X119221424Y-84934649D01*
X119237772Y-84936596D01*
X119261231Y-84938233D01*
X119292128Y-84939596D01*
X119296622Y-84939753D01*
X119316376Y-84940620D01*
X119333097Y-84941730D01*
X119345354Y-84942959D01*
X119351715Y-84944183D01*
X119352280Y-84944574D01*
X119356360Y-84945871D01*
X119366168Y-84946484D01*
X119379642Y-84946291D01*
X119380615Y-84946247D01*
X119394080Y-84946032D01*
X119403844Y-84946685D01*
X119407939Y-84948064D01*
X119407962Y-84948200D01*
X119411592Y-84949425D01*
X119421416Y-84950199D01*
X119435822Y-84950444D01*
X119448980Y-84950222D01*
X119465813Y-84950000D01*
X119479300Y-84950359D01*
X119487831Y-84951221D01*
X119490008Y-84952176D01*
X119493722Y-84953131D01*
X119504094Y-84953972D01*
X119519969Y-84954652D01*
X119540190Y-84955126D01*
X119563605Y-84955346D01*
X119570092Y-84955357D01*
X119594149Y-84955209D01*
X119615314Y-84954797D01*
X119632433Y-84954167D01*
X119644351Y-84953363D01*
X119649912Y-84952433D01*
X119650174Y-84952176D01*
X119653807Y-84950979D01*
X119663634Y-84950228D01*
X119678042Y-84949997D01*
X119691199Y-84950222D01*
X119708032Y-84950519D01*
X119721518Y-84950361D01*
X119730045Y-84949794D01*
X119732218Y-84949108D01*
X119735857Y-84947959D01*
X119745744Y-84946611D01*
X119760322Y-84945240D01*
X119776157Y-84944134D01*
X119863190Y-84936866D01*
X119955053Y-84925333D01*
X120050240Y-84909842D01*
X120147242Y-84890695D01*
X120244551Y-84868197D01*
X120340659Y-84842652D01*
X120434059Y-84814364D01*
X120456863Y-84806881D01*
X120582409Y-84761484D01*
X120708668Y-84708912D01*
X120834762Y-84649637D01*
X120959813Y-84584132D01*
X121082941Y-84512871D01*
X121203268Y-84436326D01*
X121319914Y-84354971D01*
X121380259Y-84309823D01*
X121395340Y-84298870D01*
X121407887Y-84290933D01*
X121416575Y-84286805D01*
X121419324Y-84286467D01*
X121424074Y-84289212D01*
G37*
D14*
X131462000Y-78486000D02*
X131462000Y-164956000D01*
X131462000Y-78486000D02*
X134222000Y-78486000D01*
X131462000Y-164956000D02*
X134222000Y-164956000D01*
X134222000Y-78486000D02*
X134222000Y-164956000D01*
%LPC*%
D16*
X120704893Y-116925592D03*
X120351340Y-117279146D03*
X119997786Y-117632699D03*
X119644233Y-117986253D03*
X119290680Y-118339806D03*
X118937126Y-118693359D03*
X118583573Y-119046913D03*
X118230019Y-119400466D03*
X117876466Y-119754019D03*
X117522913Y-120107573D03*
X117169359Y-120461126D03*
X116815806Y-120814680D03*
X116462253Y-121168233D03*
X116108699Y-121521786D03*
X115755146Y-121875340D03*
X115401592Y-122228893D03*
D17*
X115401592Y-123643107D03*
X115755146Y-123996660D03*
X116108699Y-124350214D03*
X116462253Y-124703767D03*
X116815806Y-125057320D03*
X117169359Y-125410874D03*
X117522913Y-125764427D03*
X117876466Y-126117981D03*
X118230019Y-126471534D03*
X118583573Y-126825087D03*
X118937126Y-127178641D03*
X119290680Y-127532194D03*
X119644233Y-127885747D03*
X119997786Y-128239301D03*
X120351340Y-128592854D03*
X120704893Y-128946408D03*
D16*
X122119107Y-128946408D03*
X122472660Y-128592854D03*
X122826214Y-128239301D03*
X123179767Y-127885747D03*
X123533320Y-127532194D03*
X123886874Y-127178641D03*
X124240427Y-126825087D03*
X124593981Y-126471534D03*
X124947534Y-126117981D03*
X125301087Y-125764427D03*
X125654641Y-125410874D03*
X126008194Y-125057320D03*
X126361747Y-124703767D03*
X126715301Y-124350214D03*
X127068854Y-123996660D03*
X127422408Y-123643107D03*
D18*
X127422408Y-122228893D03*
X127068854Y-121875340D03*
X126715301Y-121521786D03*
X126361747Y-121168233D03*
X126008194Y-120814680D03*
X125654641Y-120461126D03*
X125301087Y-120107573D03*
X124947534Y-119754019D03*
X124593981Y-119400466D03*
X124240427Y-119046913D03*
X123886874Y-118693359D03*
X123533320Y-118339806D03*
X123179767Y-117986253D03*
X122826214Y-117632699D03*
X122472660Y-117279146D03*
X122119107Y-116925592D03*
D19*
X119997786Y-121521786D03*
X121412000Y-120107573D03*
X118583573Y-122936000D03*
X122826214Y-121521786D03*
X121412000Y-122936000D03*
D20*
X121412000Y-122936000D03*
D19*
X119997786Y-124350214D03*
X124240427Y-122936000D03*
X121412000Y-125764427D03*
X122826214Y-124350214D03*
D21*
X109982000Y-79756000D03*
D22*
X109982000Y-82296000D03*
X109982000Y-84836000D03*
X109982000Y-87376000D03*
X109982000Y-89916000D03*
X109982000Y-92456000D03*
X109982000Y-94996000D03*
X109982000Y-97536000D03*
X109982000Y-100076000D03*
X109982000Y-102616000D03*
X109982000Y-105156000D03*
X109982000Y-107696000D03*
X109982000Y-110236000D03*
X109982000Y-112776000D03*
X109982000Y-115316000D03*
X109982000Y-117856000D03*
X109982000Y-120396000D03*
X109982000Y-122936000D03*
X109982000Y-125476000D03*
X109982000Y-128016000D03*
X109982000Y-130556000D03*
X109982000Y-133096000D03*
X109982000Y-135636000D03*
X109982000Y-138176000D03*
X109982000Y-140716000D03*
X109982000Y-143256000D03*
X109982000Y-145796000D03*
X109982000Y-148336000D03*
X109982000Y-150876000D03*
X109982000Y-153416000D03*
X109982000Y-155956000D03*
X109982000Y-158496000D03*
X109982000Y-161036000D03*
X109982000Y-163576000D03*
X132842000Y-79756000D03*
X132842000Y-82296000D03*
X132842000Y-84836000D03*
X132842000Y-87376000D03*
X132842000Y-89916000D03*
X132842000Y-92456000D03*
X132842000Y-94996000D03*
X132842000Y-97536000D03*
X132842000Y-100076000D03*
X132842000Y-102616000D03*
X132842000Y-105156000D03*
X132842000Y-107696000D03*
X132842000Y-110236000D03*
X132842000Y-112776000D03*
X132842000Y-115316000D03*
X132842000Y-117856000D03*
X132842000Y-120396000D03*
X132842000Y-122936000D03*
X132842000Y-125476000D03*
X132842000Y-128016000D03*
X132842000Y-130556000D03*
X132842000Y-133096000D03*
X132842000Y-135636000D03*
X132842000Y-138176000D03*
X132842000Y-140716000D03*
X132842000Y-143256000D03*
X132842000Y-145796000D03*
X132842000Y-148336000D03*
X132842000Y-150876000D03*
X132842000Y-153416000D03*
X132842000Y-155956000D03*
X132842000Y-158496000D03*
X132842000Y-161036000D03*
X132842000Y-163576000D03*
%LPD*%
M02*
