G04 #@! TF.GenerationSoftware,KiCad,Pcbnew,9.0.6*
G04 #@! TF.CreationDate,2026-01-05T15:48:12-06:00*
G04 #@! TF.ProjectId,QFN-64_9x9_P0.5,51464e2d-3634-45f3-9978-395f50302e35,rev?*
G04 #@! TF.SameCoordinates,Original*
G04 #@! TF.FileFunction,Copper,L1,Top*
G04 #@! TF.FilePolarity,Positive*
%FSLAX46Y46*%
G04 Gerber Fmt 4.6, Leading zero omitted, Abs format (unit mm)*
G04 Created by KiCad (PCBNEW 9.0.6) date 2026-01-05 15:48:12*
%MOMM*%
%LPD*%
G01*
G04 APERTURE LIST*
G04 Aperture macros list*
%AMRotRect*
0 Rectangle, with rotation*
0 The origin of the aperture is its center*
0 $1 length*
0 $2 width*
0 $3 Rotation angle, in degrees counterclockwise*
0 Add horizontal line*
21,1,$1,$2,0,0,$3*%
G04 Aperture macros list end*
G04 #@! TA.AperFunction,ComponentPad*
%ADD10C,1.000000*%
G04 #@! TD*
G04 #@! TA.AperFunction,SMDPad,CuDef*
%ADD11RotRect,0.300000X1.400000X45.000000*%
G04 #@! TD*
G04 #@! TA.AperFunction,SMDPad,CuDef*
%ADD12RotRect,6.100000X6.100000X315.000000*%
G04 #@! TD*
G04 #@! TA.AperFunction,SMDPad,CuDef*
%ADD13RotRect,0.300000X1.400000X315.000000*%
G04 #@! TD*
G04 #@! TA.AperFunction,SMDPad,CuDef*
%ADD14RotRect,0.300000X1.300000X315.000000*%
G04 #@! TD*
G04 #@! TA.AperFunction,ComponentPad*
%ADD15C,1.700000*%
G04 #@! TD*
G04 #@! TA.AperFunction,ComponentPad*
%ADD16R,1.700000X1.700000*%
G04 #@! TD*
G04 #@! TA.AperFunction,ViaPad*
%ADD17C,0.600000*%
G04 #@! TD*
G04 #@! TA.AperFunction,Conductor*
%ADD18C,0.200000*%
G04 #@! TD*
G04 APERTURE END LIST*
D10*
X119997786Y-124350214D03*
X122826214Y-121521786D03*
X122826214Y-124350214D03*
X119997786Y-121521786D03*
X121412000Y-122936000D03*
X124240427Y-122936000D03*
X121412000Y-120107573D03*
X118583573Y-122936000D03*
X121412000Y-125764427D03*
D11*
X120704893Y-116925592D03*
D12*
X121412000Y-122936000D03*
D13*
X122119107Y-116925592D03*
X122472660Y-117279146D03*
X122826214Y-117632699D03*
X123179767Y-117986253D03*
X123533320Y-118339806D03*
X123886874Y-118693359D03*
X124240427Y-119046913D03*
X124593981Y-119400466D03*
X124947534Y-119754019D03*
X125301087Y-120107573D03*
X125654641Y-120461126D03*
X126008194Y-120814680D03*
X126361747Y-121168233D03*
X126715301Y-121521786D03*
X127068854Y-121875340D03*
X127422408Y-122228893D03*
D11*
X127422408Y-123643107D03*
X127068854Y-123996660D03*
X126715301Y-124350214D03*
X126361747Y-124703767D03*
X126008194Y-125057320D03*
X125654641Y-125410874D03*
X125301087Y-125764427D03*
X124947534Y-126117981D03*
X124593981Y-126471534D03*
X124240427Y-126825087D03*
X123886874Y-127178641D03*
X123533320Y-127532194D03*
X123179767Y-127885747D03*
X122826214Y-128239301D03*
X122472660Y-128592854D03*
X122119107Y-128946408D03*
D14*
X120704893Y-128946408D03*
X120351340Y-128592854D03*
X119997786Y-128239301D03*
X119644233Y-127885747D03*
X119290680Y-127532194D03*
X118937126Y-127178641D03*
X118583573Y-126825087D03*
X118230019Y-126471534D03*
X117876466Y-126117981D03*
X117522913Y-125764427D03*
X117169359Y-125410874D03*
X116815806Y-125057320D03*
X116462253Y-124703767D03*
X116108699Y-124350214D03*
X115755146Y-123996660D03*
X115401592Y-123643107D03*
D11*
X115401592Y-122228893D03*
X115755146Y-121875340D03*
X116108699Y-121521786D03*
X116462253Y-121168233D03*
X116815806Y-120814680D03*
X117169359Y-120461126D03*
X117522913Y-120107573D03*
X117876466Y-119754019D03*
X118230019Y-119400466D03*
X118583573Y-119046913D03*
X118937126Y-118693359D03*
X119290680Y-118339806D03*
X119644233Y-117986253D03*
X119997786Y-117632699D03*
X120351340Y-117279146D03*
D15*
X132842000Y-163576000D03*
X132842000Y-161036000D03*
X132842000Y-158496000D03*
X132842000Y-155956000D03*
X132842000Y-153416000D03*
X132842000Y-150876000D03*
X132842000Y-148336000D03*
X132842000Y-145796000D03*
X132842000Y-143256000D03*
X132842000Y-140716000D03*
X132842000Y-138176000D03*
X132842000Y-135636000D03*
X132842000Y-133096000D03*
X132842000Y-130556000D03*
X132842000Y-128016000D03*
X132842000Y-125476000D03*
X132842000Y-122936000D03*
X132842000Y-120396000D03*
X132842000Y-117856000D03*
X132842000Y-115316000D03*
X132842000Y-112776000D03*
X132842000Y-110236000D03*
X132842000Y-107696000D03*
X132842000Y-105156000D03*
X132842000Y-102616000D03*
X132842000Y-100076000D03*
X132842000Y-97536000D03*
X132842000Y-94996000D03*
X132842000Y-92456000D03*
X132842000Y-89916000D03*
X132842000Y-87376000D03*
X132842000Y-84836000D03*
X132842000Y-82296000D03*
X132842000Y-79756000D03*
X109982000Y-163576000D03*
X109982000Y-161036000D03*
X109982000Y-158496000D03*
X109982000Y-155956000D03*
X109982000Y-153416000D03*
X109982000Y-150876000D03*
X109982000Y-148336000D03*
X109982000Y-145796000D03*
X109982000Y-143256000D03*
X109982000Y-140716000D03*
X109982000Y-138176000D03*
X109982000Y-135636000D03*
X109982000Y-133096000D03*
X109982000Y-130556000D03*
X109982000Y-128016000D03*
X109982000Y-125476000D03*
X109982000Y-122936000D03*
X109982000Y-120396000D03*
X109982000Y-117856000D03*
X109982000Y-115316000D03*
X109982000Y-112776000D03*
X109982000Y-110236000D03*
X109982000Y-107696000D03*
X109982000Y-105156000D03*
X109982000Y-102616000D03*
X109982000Y-100076000D03*
X109982000Y-97536000D03*
X109982000Y-94996000D03*
X109982000Y-92456000D03*
X109982000Y-89916000D03*
X109982000Y-87376000D03*
X109982000Y-84836000D03*
X109982000Y-82296000D03*
D16*
X109982000Y-79756000D03*
D17*
X121412000Y-156591000D03*
X121412000Y-88646000D03*
X121412000Y-130556000D03*
X121412000Y-115316000D03*
D18*
X128505453Y-121139453D02*
X130824502Y-121139453D01*
X130824502Y-121139453D02*
X131572000Y-120391955D01*
X111254953Y-120398953D02*
X109967121Y-120398953D01*
X112014000Y-121158000D02*
X111254953Y-120398953D01*
X114312867Y-121158000D02*
X112014000Y-121158000D01*
X115598845Y-122443978D02*
X114312867Y-121158000D01*
X131572000Y-122936000D02*
X132842000Y-122936000D01*
X130030772Y-106419002D02*
X130538772Y-105911002D01*
X125966772Y-112007002D02*
X126474772Y-111499002D01*
X130030772Y-98037002D02*
X130030772Y-96259002D01*
X127998772Y-107181002D02*
X127998772Y-105403002D01*
X129522772Y-100323002D02*
X129522772Y-98545002D01*
X128506772Y-103117002D02*
X129014772Y-102609002D01*
X125966772Y-109467002D02*
X126474772Y-108959002D01*
X131046772Y-91687002D02*
X132824772Y-89909002D01*
X129014772Y-100831002D02*
X129522772Y-100323002D01*
X125966772Y-111245002D02*
X125966772Y-109467002D01*
X127490772Y-107689002D02*
X127998772Y-107181002D01*
X130538772Y-91433002D02*
X131046772Y-90925002D01*
X125458772Y-110991002D02*
X125458772Y-109213002D01*
X121889747Y-117130726D02*
X124950772Y-114069701D01*
X128506772Y-104895002D02*
X128506772Y-103117002D01*
X125966772Y-108705002D02*
X125966772Y-106927002D01*
X126474772Y-112261002D02*
X126982772Y-111753002D01*
X127998772Y-102863002D02*
X128506772Y-102355002D01*
X126474772Y-114667022D02*
X126474772Y-112261002D01*
X127490772Y-109467002D02*
X127490772Y-107689002D01*
X131046772Y-99307002D02*
X132824772Y-97529002D01*
X127998772Y-104641002D02*
X127998772Y-102863002D01*
X129014772Y-100069002D02*
X129014772Y-98291002D01*
X122596854Y-117837833D02*
X125966772Y-114467915D01*
X131046772Y-93465002D02*
X131046772Y-91687002D01*
X126474772Y-108959002D02*
X126474772Y-107181002D01*
X124950772Y-111499002D02*
X125458772Y-110991002D01*
X125458772Y-114268808D02*
X125458772Y-111753002D01*
X130538772Y-90671002D02*
X130538772Y-88893002D01*
X130030772Y-92957002D02*
X130030772Y-91179002D01*
X126500820Y-121729873D02*
X132839651Y-115391042D01*
X127998772Y-105403002D02*
X128506772Y-104895002D01*
X129522772Y-98545002D02*
X130030772Y-98037002D01*
X125458772Y-109213002D02*
X125966772Y-108705002D01*
X126982772Y-109213002D02*
X126982772Y-107435002D01*
X129522772Y-96005002D02*
X130030772Y-95497002D01*
X130538772Y-95751002D02*
X130538772Y-93973002D01*
X125778834Y-121019814D02*
X130538772Y-116259876D01*
X130538772Y-116259876D02*
X130538772Y-114293002D01*
X126982772Y-106673002D02*
X126982772Y-104895002D01*
X131085845Y-117851955D02*
X132839651Y-117851955D01*
X132839651Y-115391042D02*
X132839651Y-115311955D01*
X126982772Y-111753002D02*
X126982772Y-109975002D01*
X130030772Y-96259002D02*
X130538772Y-95751002D01*
X128506772Y-100577002D02*
X129014772Y-100069002D01*
X127490772Y-105149002D02*
X127998772Y-104641002D01*
X126982772Y-107435002D02*
X127490772Y-106927002D01*
X126982772Y-104895002D02*
X127490772Y-104387002D01*
X126132387Y-121373367D02*
X131046772Y-116458982D01*
X131046772Y-116458982D02*
X131046772Y-114547002D01*
X131046772Y-113785002D02*
X131046772Y-112007002D01*
X130538772Y-93973002D02*
X131046772Y-93465002D01*
X128506772Y-102355002D02*
X128506772Y-100577002D01*
X126854373Y-122083427D02*
X131085845Y-117851955D01*
X126982772Y-109975002D02*
X127490772Y-109467002D01*
X127490772Y-106927002D02*
X127490772Y-105149002D01*
X126474772Y-111499002D02*
X126474772Y-109721002D01*
X125966772Y-114467915D02*
X125966772Y-112007002D01*
X129014772Y-102609002D02*
X129014772Y-100831002D01*
X131046772Y-114547002D02*
X132824772Y-112769002D01*
X122950407Y-118191387D02*
X126474772Y-114667022D01*
X126474772Y-109721002D02*
X126982772Y-109213002D01*
X125458772Y-111753002D02*
X125966772Y-111245002D01*
X131046772Y-94227002D02*
X132824772Y-92449002D01*
X123303960Y-118544940D02*
X126982772Y-114866128D01*
X127998772Y-110483002D02*
X128506772Y-109975002D01*
X123657514Y-118898493D02*
X127490772Y-115065235D01*
X128506772Y-109975002D02*
X128506772Y-108197002D01*
X131046772Y-98545002D02*
X131046772Y-96767002D01*
X130538772Y-98291002D02*
X130538772Y-96513002D01*
X128506772Y-98037002D02*
X129014772Y-97529002D01*
X131046772Y-96005002D02*
X131046772Y-94227002D01*
X131046772Y-96767002D02*
X132824772Y-94989002D01*
X129522772Y-102863002D02*
X129522772Y-101085002D01*
X129014772Y-95751002D02*
X129522772Y-95243002D01*
X131046772Y-88385002D02*
X131046772Y-86607002D01*
X129522772Y-93465002D02*
X130030772Y-92957002D01*
X127490772Y-112007002D02*
X127490772Y-110229002D01*
X130538772Y-88131002D02*
X130538772Y-86099002D01*
X130030772Y-88639002D02*
X130538772Y-88131002D01*
X127490772Y-100069002D02*
X127998772Y-99561002D01*
X129522772Y-92703002D02*
X129522772Y-90925002D01*
X131046772Y-85591002D02*
X131046772Y-84067002D01*
X130538772Y-93211002D02*
X130538772Y-91433002D01*
X129522772Y-105403002D02*
X129522772Y-103625002D01*
X126982772Y-102355002D02*
X127490772Y-101847002D01*
X126982772Y-104133002D02*
X126982772Y-102355002D01*
X129014772Y-105149002D02*
X129014772Y-103371002D01*
X126474772Y-106419002D02*
X126474772Y-104641002D01*
X131046772Y-84067002D02*
X132824772Y-82289002D01*
X130538772Y-99053002D02*
X131046772Y-98545002D01*
X127490772Y-102609002D02*
X127998772Y-102101002D01*
X129014772Y-103371002D02*
X129522772Y-102863002D01*
X125966772Y-106927002D02*
X126474772Y-106419002D01*
X127998772Y-112261002D02*
X127998772Y-110483002D01*
X130538772Y-100831002D02*
X130538772Y-99053002D01*
X127490772Y-115065235D02*
X127490772Y-112769002D01*
X129014772Y-94989002D02*
X129014772Y-93211002D01*
X128506772Y-108197002D02*
X129014772Y-107689002D01*
X127998772Y-107943002D02*
X128506772Y-107435002D01*
X127490772Y-101847002D02*
X127490772Y-100069002D01*
X130030772Y-91179002D02*
X130538772Y-90671002D01*
X129522772Y-95243002D02*
X129522772Y-93465002D01*
X128506772Y-105657002D02*
X129014772Y-105149002D01*
X130538772Y-88893002D02*
X131046772Y-88385002D01*
X126982772Y-114866128D02*
X126982772Y-112515002D01*
X129522772Y-103625002D02*
X130030772Y-103117002D01*
X129014772Y-107689002D02*
X129014772Y-105911002D01*
X124950772Y-114069701D02*
X124950772Y-111499002D01*
X130030772Y-100577002D02*
X130030772Y-98799002D01*
X130030772Y-103117002D02*
X130030772Y-101339002D01*
X130030772Y-98799002D02*
X130538772Y-98291002D01*
X128506772Y-107435002D02*
X128506772Y-105657002D01*
X127490772Y-110229002D02*
X127998772Y-109721002D01*
X126982772Y-112515002D02*
X127490772Y-112007002D01*
X129014772Y-105911002D02*
X129522772Y-105403002D01*
X129522772Y-101085002D02*
X130030772Y-100577002D01*
X131046772Y-90925002D02*
X131046772Y-89147002D01*
X127490772Y-104387002D02*
X127490772Y-102609002D01*
X127998772Y-109721002D02*
X127998772Y-107943002D01*
X128506772Y-99815002D02*
X128506772Y-98037002D01*
X127998772Y-102101002D02*
X127998772Y-100323002D01*
X127490772Y-112769002D02*
X127998772Y-112261002D01*
X131046772Y-89147002D02*
X132824772Y-87369002D01*
X130538772Y-96513002D02*
X131046772Y-96005002D01*
X130030772Y-101339002D02*
X130538772Y-100831002D01*
X131046772Y-86607002D02*
X132824772Y-84829002D01*
X128506772Y-95497002D02*
X129014772Y-94989002D01*
X129522772Y-90925002D02*
X130030772Y-90417002D01*
X128506772Y-97275002D02*
X128506772Y-95497002D01*
X127998772Y-99561002D02*
X127998772Y-97783002D01*
X127998772Y-97783002D02*
X128506772Y-97275002D01*
X130030772Y-90417002D02*
X130030772Y-88639002D01*
X130538772Y-86099002D02*
X131046772Y-85591002D01*
X129014772Y-93211002D02*
X129522772Y-92703002D01*
X126474772Y-104641002D02*
X126982772Y-104133002D01*
X130538772Y-111753002D02*
X131046772Y-111245002D01*
X129014772Y-108451002D02*
X129522772Y-107943002D01*
X131046772Y-109467002D02*
X132824772Y-107689002D01*
X127998772Y-113023002D02*
X128506772Y-112515002D01*
X129014772Y-98291002D02*
X129522772Y-97783002D01*
X128506772Y-115463448D02*
X128506772Y-113277002D01*
X127998772Y-100323002D02*
X128506772Y-99815002D01*
X131046772Y-103625002D02*
X131046772Y-101847002D01*
X131046772Y-112007002D02*
X132824772Y-110229002D01*
X130030772Y-108959002D02*
X130538772Y-108451002D01*
X130538772Y-103371002D02*
X130538772Y-101593002D01*
X130030772Y-93719002D02*
X130538772Y-93211002D01*
X125425281Y-120666260D02*
X130030772Y-116060769D01*
X130538772Y-104133002D02*
X131046772Y-103625002D01*
X128506772Y-113277002D02*
X129014772Y-112769002D01*
X124718174Y-119959154D02*
X129014772Y-115662556D01*
X129522772Y-113023002D02*
X129522772Y-111245002D01*
X129522772Y-111245002D02*
X130030772Y-110737002D01*
X129014772Y-112769002D02*
X129014772Y-110991002D01*
X130030772Y-108197002D02*
X130030772Y-106419002D01*
X127998772Y-115264342D02*
X127998772Y-113023002D01*
X131046772Y-104387002D02*
X132824772Y-102609002D01*
X126474772Y-107181002D02*
X126982772Y-106673002D01*
X129522772Y-106165002D02*
X130030772Y-105657002D01*
X130538772Y-106673002D02*
X131046772Y-106165002D01*
X130538772Y-105911002D02*
X130538772Y-104133002D01*
X130030772Y-110737002D02*
X130030772Y-108959002D01*
X128506772Y-112515002D02*
X128506772Y-110737002D01*
X122243300Y-117484280D02*
X125458772Y-114268808D01*
X130030772Y-95497002D02*
X130030772Y-93719002D01*
X129522772Y-97783002D02*
X129522772Y-96005002D01*
X129014772Y-110991002D02*
X129522772Y-110483002D01*
X130030772Y-111499002D02*
X130538772Y-110991002D01*
X130030772Y-113277002D02*
X130030772Y-111499002D01*
X131046772Y-101847002D02*
X132824772Y-100069002D01*
X124364620Y-119605600D02*
X128506772Y-115463448D01*
X129522772Y-113785002D02*
X130030772Y-113277002D01*
X129522772Y-110483002D02*
X129522772Y-108705002D01*
X129522772Y-107943002D02*
X129522772Y-106165002D01*
X129522772Y-115861662D02*
X129522772Y-113785002D01*
X129014772Y-97529002D02*
X129014772Y-95751002D01*
X130538772Y-114293002D02*
X131046772Y-113785002D01*
X129014772Y-113531002D02*
X129522772Y-113023002D01*
X130030772Y-105657002D02*
X130030772Y-103879002D01*
X130538772Y-113531002D02*
X130538772Y-111753002D01*
X131046772Y-108705002D02*
X131046772Y-106927002D01*
X129014772Y-115662556D02*
X129014772Y-113531002D01*
X130030772Y-114039002D02*
X130538772Y-113531002D01*
X129522772Y-108705002D02*
X130030772Y-108197002D01*
X130030772Y-116060769D02*
X130030772Y-114039002D01*
X130538772Y-110991002D02*
X130538772Y-109213002D01*
X128506772Y-110737002D02*
X129014772Y-110229002D01*
X130538772Y-101593002D02*
X131046772Y-101085002D01*
X131046772Y-106165002D02*
X131046772Y-104387002D01*
X131046772Y-111245002D02*
X131046772Y-109467002D01*
X129014772Y-110229002D02*
X129014772Y-108451002D01*
X125071727Y-120312707D02*
X129522772Y-115861662D01*
X131046772Y-101085002D02*
X131046772Y-99307002D01*
X130538772Y-108451002D02*
X130538772Y-106673002D01*
X130538772Y-109213002D02*
X131046772Y-108705002D01*
X131046772Y-106927002D02*
X132824772Y-105149002D01*
X124011067Y-119252047D02*
X127998772Y-115264342D01*
X130030772Y-103879002D02*
X130538772Y-103371002D01*
X111760000Y-85598000D02*
X111760000Y-84074000D01*
X112268000Y-86106000D02*
X111760000Y-85598000D01*
X112268000Y-88138000D02*
X112268000Y-86106000D01*
X112776000Y-90424000D02*
X112776000Y-88646000D01*
X111760000Y-84074000D02*
X109982000Y-82296000D01*
X113284000Y-90932000D02*
X112776000Y-90424000D01*
X113284000Y-92710000D02*
X113284000Y-90932000D01*
X113792000Y-93218000D02*
X113284000Y-92710000D01*
X113792000Y-94996000D02*
X113792000Y-93218000D01*
X114300000Y-97282000D02*
X114300000Y-95504000D01*
X114808000Y-97790000D02*
X114300000Y-97282000D01*
X114808000Y-99568000D02*
X114808000Y-97790000D01*
X115316000Y-100076000D02*
X114808000Y-99568000D01*
X115316000Y-101854000D02*
X115316000Y-100076000D01*
X115824000Y-102362000D02*
X115316000Y-101854000D01*
X115824000Y-104140000D02*
X115824000Y-102362000D01*
X116332000Y-104648000D02*
X115824000Y-104140000D01*
X116332000Y-106426000D02*
X116332000Y-104648000D01*
X114300000Y-95504000D02*
X113792000Y-94996000D01*
X116840000Y-108712000D02*
X116840000Y-106934000D01*
X117348000Y-109220000D02*
X116840000Y-108712000D01*
X117348000Y-110998000D02*
X117348000Y-109220000D01*
X117856000Y-111506000D02*
X117348000Y-110998000D01*
X112776000Y-88646000D02*
X112268000Y-88138000D01*
X116840000Y-106934000D02*
X116332000Y-106426000D01*
X117856000Y-114076699D02*
X117856000Y-111506000D01*
X120917025Y-117137724D02*
X117856000Y-114076699D01*
X112268000Y-88900000D02*
X111760000Y-88392000D01*
X112268000Y-90678000D02*
X112268000Y-88900000D01*
X112776000Y-91186000D02*
X112268000Y-90678000D01*
X112776000Y-92964000D02*
X112776000Y-91186000D01*
X111760000Y-89154000D02*
X109982000Y-87376000D01*
X112268000Y-91440000D02*
X111760000Y-90932000D01*
X112268000Y-93218000D02*
X112268000Y-91440000D01*
X111760000Y-90932000D02*
X111760000Y-89154000D01*
X111760000Y-86614000D02*
X109982000Y-84836000D01*
X111760000Y-88392000D02*
X111760000Y-86614000D01*
X113284000Y-93472000D02*
X112776000Y-92964000D01*
X113284000Y-95250000D02*
X113284000Y-93472000D01*
X113792000Y-95758000D02*
X113284000Y-95250000D01*
X114300000Y-98044000D02*
X113792000Y-97536000D01*
X114808000Y-102108000D02*
X114808000Y-100330000D01*
X114300000Y-99822000D02*
X114300000Y-98044000D01*
X115316000Y-102616000D02*
X114808000Y-102108000D01*
X115316000Y-104394000D02*
X115316000Y-102616000D01*
X115824000Y-104902000D02*
X115316000Y-104394000D01*
X115824000Y-106680000D02*
X115824000Y-104902000D01*
X116332000Y-107188000D02*
X115824000Y-106680000D01*
X113792000Y-97536000D02*
X113792000Y-95758000D01*
X116332000Y-108966000D02*
X116332000Y-107188000D01*
X116840000Y-109474000D02*
X116332000Y-108966000D01*
X116840000Y-111252000D02*
X116840000Y-109474000D01*
X117348000Y-111760000D02*
X116840000Y-111252000D01*
X117348000Y-114275806D02*
X117348000Y-111760000D01*
X120563472Y-117491278D02*
X117348000Y-114275806D01*
X114808000Y-100330000D02*
X114300000Y-99822000D01*
X112776000Y-93726000D02*
X112268000Y-93218000D01*
X112776000Y-95504000D02*
X112776000Y-93726000D01*
X113284000Y-97790000D02*
X113284000Y-96012000D01*
X113792000Y-98298000D02*
X113284000Y-97790000D01*
X113792000Y-100076000D02*
X113792000Y-98298000D01*
X114300000Y-100584000D02*
X113792000Y-100076000D01*
X114300000Y-102362000D02*
X114300000Y-100584000D01*
X114808000Y-102870000D02*
X114300000Y-102362000D01*
X114808000Y-104648000D02*
X114808000Y-102870000D01*
X115316000Y-105156000D02*
X114808000Y-104648000D01*
X115316000Y-106934000D02*
X115316000Y-105156000D01*
X115824000Y-109220000D02*
X115824000Y-107442000D01*
X116332000Y-109728000D02*
X115824000Y-109220000D01*
X115824000Y-107442000D02*
X115316000Y-106934000D01*
X116332000Y-111506000D02*
X116332000Y-109728000D01*
X116840000Y-112014000D02*
X116332000Y-111506000D01*
X116840000Y-114474913D02*
X116840000Y-112014000D01*
X120209918Y-117844831D02*
X116840000Y-114474913D01*
X113284000Y-96012000D02*
X112776000Y-95504000D01*
X111760000Y-93472000D02*
X111760000Y-91694000D01*
X112268000Y-93980000D02*
X111760000Y-93472000D01*
X112776000Y-96266000D02*
X112268000Y-95758000D01*
X112776000Y-98044000D02*
X112776000Y-96266000D01*
X113284000Y-98552000D02*
X112776000Y-98044000D01*
X113284000Y-100330000D02*
X113284000Y-98552000D01*
X113792000Y-100838000D02*
X113284000Y-100330000D01*
X112268000Y-95758000D02*
X112268000Y-93980000D01*
X113792000Y-102616000D02*
X113792000Y-100838000D01*
X114300000Y-103124000D02*
X113792000Y-102616000D01*
X114300000Y-104902000D02*
X114300000Y-103124000D01*
X111760000Y-91694000D02*
X109982000Y-89916000D01*
X114808000Y-105410000D02*
X114300000Y-104902000D01*
X114808000Y-107188000D02*
X114808000Y-105410000D01*
X115316000Y-107696000D02*
X114808000Y-107188000D01*
X115316000Y-109474000D02*
X115316000Y-107696000D01*
X115824000Y-109982000D02*
X115316000Y-109474000D01*
X115824000Y-111760000D02*
X115824000Y-109982000D01*
X116332000Y-112268000D02*
X115824000Y-111760000D01*
X116332000Y-114674020D02*
X116332000Y-112268000D01*
X119856365Y-118198385D02*
X116332000Y-114674020D01*
X111760000Y-96012000D02*
X111760000Y-94234000D01*
X112268000Y-98298000D02*
X112268000Y-96520000D01*
X112776000Y-98806000D02*
X112268000Y-98298000D01*
X112776000Y-100584000D02*
X112776000Y-98806000D01*
X113284000Y-101092000D02*
X112776000Y-100584000D01*
X113284000Y-102870000D02*
X113284000Y-101092000D01*
X113792000Y-103378000D02*
X113284000Y-102870000D01*
X113792000Y-105156000D02*
X113792000Y-103378000D01*
X114300000Y-105664000D02*
X113792000Y-105156000D01*
X112268000Y-96520000D02*
X111760000Y-96012000D01*
X114808000Y-107950000D02*
X114300000Y-107442000D01*
X114808000Y-109728000D02*
X114808000Y-107950000D01*
X115316000Y-110236000D02*
X114808000Y-109728000D01*
X115316000Y-112014000D02*
X115316000Y-110236000D01*
X114300000Y-107442000D02*
X114300000Y-105664000D01*
X115824000Y-112522000D02*
X115316000Y-112014000D01*
X111760000Y-94234000D02*
X109982000Y-92456000D01*
X115824000Y-114873126D02*
X115824000Y-112522000D01*
X119502812Y-118551938D02*
X115824000Y-114873126D01*
X111760000Y-96774000D02*
X109982000Y-94996000D01*
X111760000Y-98552000D02*
X111760000Y-96774000D01*
X112268000Y-99060000D02*
X111760000Y-98552000D01*
X112776000Y-101346000D02*
X112268000Y-100838000D01*
X112776000Y-103124000D02*
X112776000Y-101346000D01*
X112268000Y-100838000D02*
X112268000Y-99060000D01*
X113284000Y-103632000D02*
X112776000Y-103124000D01*
X113284000Y-105410000D02*
X113284000Y-103632000D01*
X113792000Y-105918000D02*
X113284000Y-105410000D01*
X114300000Y-108204000D02*
X113792000Y-107696000D01*
X114300000Y-109982000D02*
X114300000Y-108204000D01*
X114808000Y-110490000D02*
X114300000Y-109982000D01*
X114808000Y-112268000D02*
X114808000Y-110490000D01*
X115316000Y-115072233D02*
X115316000Y-112776000D01*
X115316000Y-112776000D02*
X114808000Y-112268000D01*
X119149258Y-118905491D02*
X115316000Y-115072233D01*
X113792000Y-107696000D02*
X113792000Y-105918000D01*
X111760000Y-99314000D02*
X109982000Y-97536000D01*
X111760000Y-101092000D02*
X111760000Y-99314000D01*
X112268000Y-101600000D02*
X111760000Y-101092000D01*
X112268000Y-103378000D02*
X112268000Y-101600000D01*
X112776000Y-105664000D02*
X112776000Y-103886000D01*
X113284000Y-106172000D02*
X112776000Y-105664000D01*
X112776000Y-103886000D02*
X112268000Y-103378000D01*
X113284000Y-107950000D02*
X113284000Y-106172000D01*
X113792000Y-108458000D02*
X113284000Y-107950000D01*
X113792000Y-110236000D02*
X113792000Y-108458000D01*
X114300000Y-110744000D02*
X113792000Y-110236000D01*
X114300000Y-112522000D02*
X114300000Y-110744000D01*
X114808000Y-113030000D02*
X114300000Y-112522000D01*
X114808000Y-115271340D02*
X114808000Y-113030000D01*
X118795705Y-119259045D02*
X114808000Y-115271340D01*
X111760000Y-101854000D02*
X109982000Y-100076000D01*
X111760000Y-103632000D02*
X111760000Y-101854000D01*
X112268000Y-105918000D02*
X112268000Y-104140000D01*
X112776000Y-106426000D02*
X112268000Y-105918000D01*
X112776000Y-108204000D02*
X112776000Y-106426000D01*
X113284000Y-108712000D02*
X112776000Y-108204000D01*
X113792000Y-110998000D02*
X113284000Y-110490000D01*
X113284000Y-110490000D02*
X113284000Y-108712000D01*
X113792000Y-112776000D02*
X113792000Y-110998000D01*
X114300000Y-113284000D02*
X113792000Y-112776000D01*
X114300000Y-115470446D02*
X114300000Y-113284000D01*
X118442152Y-119612598D02*
X114300000Y-115470446D01*
X112268000Y-104140000D02*
X111760000Y-103632000D01*
X111760000Y-104394000D02*
X109982000Y-102616000D01*
X111760000Y-106172000D02*
X111760000Y-104394000D01*
X112268000Y-106680000D02*
X111760000Y-106172000D01*
X112268000Y-108458000D02*
X112268000Y-106680000D01*
X112776000Y-108966000D02*
X112268000Y-108458000D01*
X112776000Y-110744000D02*
X112776000Y-108966000D01*
X113284000Y-111252000D02*
X112776000Y-110744000D01*
X113284000Y-113030000D02*
X113284000Y-111252000D01*
X113792000Y-113538000D02*
X113284000Y-113030000D01*
X113792000Y-115669554D02*
X113792000Y-113538000D01*
X118088598Y-119966152D02*
X113792000Y-115669554D01*
X111760000Y-106934000D02*
X109982000Y-105156000D01*
X111760000Y-108712000D02*
X111760000Y-106934000D01*
X112268000Y-109220000D02*
X111760000Y-108712000D01*
X112268000Y-110998000D02*
X112268000Y-109220000D01*
X112776000Y-111506000D02*
X112268000Y-110998000D01*
X112776000Y-113284000D02*
X112776000Y-111506000D01*
X113284000Y-113792000D02*
X112776000Y-113284000D01*
X113284000Y-115868660D02*
X113284000Y-113792000D01*
X117735045Y-120319705D02*
X113284000Y-115868660D01*
X111760000Y-111252000D02*
X111760000Y-109474000D01*
X112268000Y-111760000D02*
X111760000Y-111252000D01*
X112268000Y-113538000D02*
X112268000Y-111760000D01*
X111760000Y-109474000D02*
X109982000Y-107696000D01*
X112776000Y-114046000D02*
X112268000Y-113538000D01*
X112776000Y-116067767D02*
X112776000Y-114046000D01*
X117381491Y-120673258D02*
X112776000Y-116067767D01*
X111760000Y-112014000D02*
X109982000Y-110236000D01*
X112268000Y-114300000D02*
X111760000Y-113792000D01*
X112268000Y-116266874D02*
X112268000Y-114300000D01*
X111760000Y-113792000D02*
X111760000Y-112014000D01*
X117027938Y-121026812D02*
X112268000Y-116266874D01*
X111760000Y-114554000D02*
X109982000Y-112776000D01*
X111760000Y-116465980D02*
X111760000Y-114554000D01*
X116674385Y-121380365D02*
X111760000Y-116465980D01*
X130556000Y-123952000D02*
X131572000Y-122936000D01*
X127731301Y-123952000D02*
X130556000Y-123952000D01*
X127210276Y-123430975D02*
X127731301Y-123952000D01*
X111237121Y-122938953D02*
X109967121Y-122938953D01*
X112250168Y-123952000D02*
X111237121Y-122938953D01*
X115080773Y-123952000D02*
X112250168Y-123952000D01*
X115598845Y-123433928D02*
X115080773Y-123952000D01*
X115301121Y-143004953D02*
X114793121Y-143512953D01*
X113777121Y-150116953D02*
X113269121Y-150624953D01*
X112253121Y-155196953D02*
X112253121Y-156974953D01*
X115301121Y-141480953D02*
X115301121Y-143004953D01*
X112253121Y-156974953D02*
X111745121Y-157482953D01*
X112761121Y-154688953D02*
X112253121Y-155196953D01*
X115809121Y-139194953D02*
X115809121Y-140972953D01*
X114793121Y-143512953D02*
X114793121Y-145544953D01*
X111745121Y-157482953D02*
X111745121Y-159260953D01*
X116825121Y-136400953D02*
X116317121Y-136908953D01*
X117333121Y-133860953D02*
X116825121Y-134368953D01*
X114285121Y-147830953D02*
X113777121Y-148338953D01*
X113777121Y-148338953D02*
X113777121Y-150116953D01*
X113269121Y-152402953D02*
X112761121Y-152910953D01*
X117333121Y-132306254D02*
X117333121Y-133860953D01*
X120902146Y-128737229D02*
X117333121Y-132306254D01*
X114285121Y-146052953D02*
X114285121Y-147830953D01*
X112761121Y-152910953D02*
X112761121Y-154688953D01*
X115809121Y-140972953D02*
X115301121Y-141480953D01*
X113269121Y-150624953D02*
X113269121Y-152402953D01*
X111745121Y-159260953D02*
X109967121Y-161038953D01*
X114793121Y-145544953D02*
X114285121Y-146052953D01*
X116317121Y-136908953D02*
X116317121Y-138686953D01*
X116825121Y-134368953D02*
X116825121Y-136400953D01*
X111745121Y-154180953D02*
X109967121Y-155958953D01*
X116317121Y-131908040D02*
X116317121Y-133352953D01*
X120548593Y-128383675D02*
X116825121Y-132107147D01*
X114793121Y-141226953D02*
X114793121Y-142750953D01*
X115301121Y-138940953D02*
X115301121Y-140718953D01*
X115809121Y-135892953D02*
X115301121Y-136400953D01*
X115809121Y-136654953D02*
X115809121Y-138432953D01*
X112253121Y-150116953D02*
X112253121Y-151894953D01*
X114285121Y-142554639D02*
X113777121Y-143062639D01*
X114793121Y-140464953D02*
X114285121Y-140972953D01*
X113777121Y-145036953D02*
X113269121Y-145544953D01*
X114285121Y-140972953D02*
X114285121Y-142554639D01*
X112253121Y-151894953D02*
X111745121Y-152402953D01*
X111745121Y-156720953D02*
X109967121Y-158498953D01*
X116317121Y-134114953D02*
X116317121Y-136146953D01*
X115301121Y-136400953D02*
X115301121Y-138178953D01*
X116825121Y-133606953D02*
X116317121Y-134114953D01*
X112761121Y-150370953D02*
X112761121Y-152148953D01*
X111745121Y-152402953D02*
X111745121Y-154180953D01*
X113269121Y-147322953D02*
X112761121Y-147830953D01*
X111745121Y-154942953D02*
X111745121Y-156720953D01*
X112253121Y-154434953D02*
X111745121Y-154942953D01*
X112253121Y-152656953D02*
X112253121Y-154434953D01*
X112761121Y-149608953D02*
X112253121Y-150116953D01*
X113269121Y-145544953D02*
X113269121Y-147322953D01*
X112761121Y-152148953D02*
X112253121Y-152656953D01*
X116317121Y-138686953D02*
X115809121Y-139194953D01*
X113269121Y-149862953D02*
X112761121Y-150370953D01*
X113269121Y-148084953D02*
X113269121Y-149862953D01*
X115809121Y-138432953D02*
X115301121Y-138940953D01*
X115301121Y-138178953D02*
X114793121Y-138686953D01*
X116825121Y-132107147D02*
X116825121Y-133606953D01*
X113777121Y-147576953D02*
X113269121Y-148084953D01*
X113777121Y-145798953D02*
X113777121Y-147576953D01*
X114285121Y-145290953D02*
X113777121Y-145798953D01*
X114793121Y-142750953D02*
X114285121Y-143258953D01*
X115809121Y-133860953D02*
X115809121Y-135892953D01*
X113777121Y-143062639D02*
X113777121Y-145036953D01*
X112761121Y-147830953D02*
X112761121Y-149608953D01*
X116317121Y-133352953D02*
X115809121Y-133860953D01*
X120195039Y-128030122D02*
X116317121Y-131908040D01*
X114793121Y-138686953D02*
X114793121Y-140464953D01*
X114285121Y-143258953D02*
X114285121Y-145290953D01*
X115301121Y-140718953D02*
X114793121Y-141226953D01*
X116317121Y-136146953D02*
X115809121Y-136654953D01*
X111720927Y-117858953D02*
X109967121Y-117858953D01*
X115952399Y-122090425D02*
X111720927Y-117858953D01*
X119487933Y-127323015D02*
X115301121Y-131509827D01*
X115301121Y-132844953D02*
X114793121Y-133352953D01*
X112761121Y-144528953D02*
X112253121Y-145036953D01*
X115301121Y-131509827D02*
X115301121Y-132844953D01*
X114285121Y-137670953D02*
X113777121Y-138178953D01*
X112761121Y-142750953D02*
X112761121Y-144528953D01*
X113269121Y-142242953D02*
X112761121Y-142750953D01*
X113269121Y-140464953D02*
X113269121Y-142242953D01*
X114285121Y-135892953D02*
X114285121Y-137670953D01*
X114793121Y-133352953D02*
X114793121Y-135384953D01*
X113777121Y-138178953D02*
X113777121Y-139956953D01*
X112253121Y-144274953D02*
X111745121Y-144782953D01*
X113777121Y-139956953D02*
X113269121Y-140464953D01*
X114793121Y-135384953D02*
X114285121Y-135892953D01*
X111745121Y-146560953D02*
X109967121Y-148338953D01*
X111745121Y-144782953D02*
X111745121Y-146560953D01*
X112253121Y-145036953D02*
X112253121Y-146814953D01*
X112253121Y-142496953D02*
X112253121Y-144274953D01*
X112761121Y-140210953D02*
X112761121Y-141988953D01*
X112761121Y-135130953D02*
X112761121Y-136908953D01*
X113269121Y-139702953D02*
X112761121Y-140210953D01*
X113269121Y-137924953D02*
X113269121Y-139702953D01*
X113777121Y-137416953D02*
X113269121Y-137924953D01*
X112761121Y-141988953D02*
X112253121Y-142496953D01*
X111745121Y-139702953D02*
X111745121Y-141480953D01*
X113269121Y-132844953D02*
X113269121Y-134622953D01*
X113269121Y-135384953D02*
X113269121Y-137162953D01*
X113777121Y-135638953D02*
X113777121Y-137416953D01*
X111745121Y-144020953D02*
X109967121Y-145798953D01*
X114313964Y-135102110D02*
X113777121Y-135638953D01*
X114313964Y-133127796D02*
X114313964Y-135102110D01*
X112253121Y-141734953D02*
X111745121Y-142242953D01*
X111745121Y-141480953D02*
X109967121Y-143258953D01*
X113777121Y-133098953D02*
X113777121Y-134876953D01*
X114793121Y-132648639D02*
X114313964Y-133127796D01*
X112761121Y-139448953D02*
X112253121Y-139956953D01*
X111745121Y-142242953D02*
X111745121Y-144020953D01*
X112253121Y-139194953D02*
X111745121Y-139702953D01*
X119134379Y-126969462D02*
X114793121Y-131310720D01*
X113777121Y-134876953D02*
X113269121Y-135384953D01*
X113269121Y-134622953D02*
X112761121Y-135130953D01*
X114793121Y-131310720D02*
X114793121Y-132648639D01*
X112253121Y-139956953D02*
X112253121Y-141734953D01*
X112761121Y-137670953D02*
X112761121Y-139448953D01*
X113269121Y-137162953D02*
X112761121Y-137670953D01*
X114285121Y-132590953D02*
X113777121Y-133098953D01*
X118780826Y-126615908D02*
X114285121Y-131111613D01*
X114285121Y-131111613D02*
X114285121Y-132590953D01*
X112253121Y-137416953D02*
X112253121Y-139194953D01*
X112761121Y-136908953D02*
X112253121Y-137416953D01*
X112253121Y-134876953D02*
X112253121Y-136654953D01*
X112761121Y-134368953D02*
X112253121Y-134876953D01*
X113269121Y-132082953D02*
X112761121Y-132590953D01*
X111745121Y-134622953D02*
X111745121Y-136400953D01*
X111745121Y-131320953D02*
X109967121Y-133098953D01*
X112761121Y-132590953D02*
X112761121Y-134368953D01*
X112253121Y-134114953D02*
X111745121Y-134622953D01*
X112253121Y-132336953D02*
X112253121Y-134114953D01*
X116659506Y-124494588D02*
X110595141Y-130558953D01*
X112761121Y-131828953D02*
X112253121Y-132336953D01*
X114260927Y-125478953D02*
X109967121Y-125478953D01*
X117720166Y-125555248D02*
X112761121Y-130514293D01*
X111745121Y-130116079D02*
X111745121Y-131320953D01*
X110595141Y-130558953D02*
X109967121Y-130558953D01*
X113269121Y-130713399D02*
X113269121Y-132082953D01*
X113777121Y-132336953D02*
X113269121Y-132844953D01*
X111745121Y-133860953D02*
X109967121Y-135638953D01*
X112253121Y-131574953D02*
X111745121Y-132082953D01*
X117366612Y-125201695D02*
X112253121Y-130315186D01*
X112428034Y-128018953D02*
X109967121Y-128018953D01*
X116305952Y-121736871D02*
X109967121Y-115398040D01*
X113777121Y-130912507D02*
X113777121Y-132336953D01*
X112761121Y-130514293D02*
X112761121Y-131828953D01*
X109967121Y-115398040D02*
X109967121Y-115318953D01*
X118427273Y-126262355D02*
X113777121Y-130912507D01*
X116305952Y-124141035D02*
X112428034Y-128018953D01*
X112253121Y-130315186D02*
X112253121Y-131574953D01*
X117013059Y-124848141D02*
X111745121Y-130116079D01*
X112253121Y-136654953D02*
X111745121Y-137162953D01*
X111745121Y-138940953D02*
X109967121Y-140718953D01*
X111745121Y-137162953D02*
X111745121Y-138940953D01*
X118073719Y-125908801D02*
X113269121Y-130713399D01*
X111745121Y-136400953D02*
X109967121Y-138178953D01*
X111745121Y-132082953D02*
X111745121Y-133860953D01*
X115952399Y-123787481D02*
X114260927Y-125478953D01*
X113269121Y-143004953D02*
X113269121Y-144782953D01*
X111745121Y-151640953D02*
X109967121Y-153418953D01*
X113777121Y-142496953D02*
X113269121Y-143004953D01*
X114285121Y-140210953D02*
X113777121Y-140718953D01*
X114793121Y-137924953D02*
X114285121Y-138432953D01*
X115809121Y-133098953D02*
X115301121Y-133606953D01*
X115809121Y-131708933D02*
X115809121Y-133098953D01*
X111745121Y-149100953D02*
X109967121Y-150878953D01*
X112253121Y-146814953D02*
X111745121Y-147322953D01*
X111745121Y-147322953D02*
X111745121Y-149100953D01*
X119841486Y-127676568D02*
X115809121Y-131708933D01*
X113269121Y-144782953D02*
X112761121Y-145290953D01*
X113777121Y-140718953D02*
X113777121Y-142496953D01*
X115301121Y-135638953D02*
X114793121Y-136146953D01*
X112253121Y-149354953D02*
X111745121Y-149862953D01*
X112253121Y-147576953D02*
X112253121Y-149354953D01*
X115301121Y-133606953D02*
X115301121Y-135638953D01*
X112761121Y-147068953D02*
X112253121Y-147576953D01*
X114793121Y-136146953D02*
X114793121Y-137924953D01*
X114285121Y-138432953D02*
X114285121Y-140210953D01*
X112761121Y-145290953D02*
X112761121Y-147068953D01*
X111745121Y-149862953D02*
X111745121Y-151640953D01*
X131064000Y-159258000D02*
X132842000Y-161036000D01*
X131064000Y-157480000D02*
X131064000Y-159258000D01*
X130556000Y-156972000D02*
X131064000Y-157480000D01*
X130556000Y-155194000D02*
X130556000Y-156972000D01*
X129540000Y-152400000D02*
X130048000Y-152908000D01*
X129540000Y-150622000D02*
X129540000Y-152400000D01*
X129032000Y-150114000D02*
X129540000Y-150622000D01*
X129032000Y-148336000D02*
X129032000Y-150114000D01*
X128524000Y-147828000D02*
X129032000Y-148336000D01*
X128524000Y-146050000D02*
X128524000Y-147828000D01*
X128016000Y-145542000D02*
X128524000Y-146050000D01*
X130048000Y-152908000D02*
X130048000Y-154686000D01*
X128016000Y-143510000D02*
X128016000Y-145542000D01*
X127508000Y-143002000D02*
X128016000Y-143510000D01*
X127508000Y-141478000D02*
X127508000Y-143002000D01*
X130048000Y-154686000D02*
X130556000Y-155194000D01*
X127000000Y-140970000D02*
X127508000Y-141478000D01*
X127000000Y-139192000D02*
X127000000Y-140970000D01*
X126492000Y-136906000D02*
X126492000Y-138684000D01*
X125984000Y-136398000D02*
X126492000Y-136906000D01*
X125984000Y-134366000D02*
X125984000Y-136398000D01*
X125476000Y-133858000D02*
X125984000Y-134366000D01*
X125476000Y-132303301D02*
X125476000Y-133858000D01*
X121906975Y-128734276D02*
X125476000Y-132303301D01*
X126492000Y-138684000D02*
X127000000Y-139192000D01*
X131064000Y-156718000D02*
X132842000Y-158496000D01*
X131064000Y-154940000D02*
X131064000Y-156718000D01*
X130556000Y-154432000D02*
X131064000Y-154940000D01*
X130556000Y-152654000D02*
X130556000Y-154432000D01*
X130048000Y-152146000D02*
X130556000Y-152654000D01*
X130048000Y-150368000D02*
X130048000Y-152146000D01*
X129540000Y-149860000D02*
X130048000Y-150368000D01*
X129540000Y-148082000D02*
X129540000Y-149860000D01*
X129032000Y-147574000D02*
X129540000Y-148082000D01*
X129032000Y-145796000D02*
X129032000Y-147574000D01*
X128524000Y-145288000D02*
X129032000Y-145796000D01*
X128524000Y-143256000D02*
X128524000Y-145288000D01*
X128016000Y-142748000D02*
X128524000Y-143256000D01*
X127508000Y-140716000D02*
X128016000Y-141224000D01*
X128016000Y-141224000D02*
X128016000Y-142748000D01*
X127508000Y-138938000D02*
X127508000Y-140716000D01*
X127000000Y-138430000D02*
X127508000Y-138938000D01*
X127000000Y-136652000D02*
X127000000Y-138430000D01*
X126492000Y-136144000D02*
X127000000Y-136652000D01*
X126492000Y-134112000D02*
X126492000Y-136144000D01*
X125984000Y-133604000D02*
X126492000Y-134112000D01*
X125984000Y-132104194D02*
X125984000Y-133604000D01*
X122260528Y-128380722D02*
X125984000Y-132104194D01*
X131064000Y-154178000D02*
X132842000Y-155956000D01*
X131064000Y-152400000D02*
X131064000Y-154178000D01*
X130556000Y-150114000D02*
X130556000Y-151892000D01*
X130048000Y-149606000D02*
X130556000Y-150114000D01*
X130048000Y-147828000D02*
X130048000Y-149606000D01*
X129540000Y-147320000D02*
X130048000Y-147828000D01*
X129540000Y-145542000D02*
X129540000Y-147320000D01*
X129032000Y-145034000D02*
X129540000Y-145542000D01*
X129032000Y-143059686D02*
X129032000Y-145034000D01*
X128524000Y-140970000D02*
X128524000Y-142551686D01*
X130556000Y-151892000D02*
X131064000Y-152400000D01*
X128016000Y-138684000D02*
X128016000Y-140462000D01*
X128524000Y-142551686D02*
X129032000Y-143059686D01*
X127508000Y-138176000D02*
X128016000Y-138684000D01*
X127000000Y-135890000D02*
X127508000Y-136398000D01*
X127000000Y-133858000D02*
X127000000Y-135890000D01*
X126492000Y-133350000D02*
X127000000Y-133858000D01*
X128016000Y-140462000D02*
X128524000Y-140970000D01*
X126492000Y-131905087D02*
X126492000Y-133350000D01*
X127508000Y-136398000D02*
X127508000Y-138176000D01*
X122614082Y-128027169D02*
X126492000Y-131905087D01*
X131064000Y-149860000D02*
X131064000Y-151638000D01*
X130556000Y-149352000D02*
X131064000Y-149860000D01*
X130556000Y-147574000D02*
X130556000Y-149352000D01*
X130048000Y-147066000D02*
X130556000Y-147574000D01*
X130048000Y-145288000D02*
X130048000Y-147066000D01*
X129540000Y-144780000D02*
X130048000Y-145288000D01*
X129540000Y-143002000D02*
X129540000Y-144780000D01*
X131064000Y-151638000D02*
X132842000Y-153416000D01*
X129032000Y-142494000D02*
X129540000Y-143002000D01*
X129032000Y-140716000D02*
X129032000Y-142494000D01*
X128524000Y-140208000D02*
X129032000Y-140716000D01*
X128524000Y-138430000D02*
X128524000Y-140208000D01*
X128016000Y-137922000D02*
X128524000Y-138430000D01*
X128016000Y-136144000D02*
X128016000Y-137922000D01*
X127508000Y-135636000D02*
X128016000Y-136144000D01*
X127508000Y-133604000D02*
X127508000Y-135636000D01*
X127000000Y-133096000D02*
X127508000Y-133604000D01*
X127000000Y-131705980D02*
X127000000Y-133096000D01*
X122967635Y-127673615D02*
X127000000Y-131705980D01*
X131064000Y-149098000D02*
X132842000Y-150876000D01*
X131064000Y-147320000D02*
X131064000Y-149098000D01*
X130556000Y-146812000D02*
X131064000Y-147320000D01*
X130556000Y-145034000D02*
X130556000Y-146812000D01*
X130048000Y-144526000D02*
X130556000Y-145034000D01*
X130048000Y-142748000D02*
X130048000Y-144526000D01*
X129540000Y-142240000D02*
X130048000Y-142748000D01*
X129540000Y-140462000D02*
X129540000Y-142240000D01*
X129032000Y-139954000D02*
X129540000Y-140462000D01*
X129032000Y-138176000D02*
X129032000Y-139954000D01*
X128524000Y-137668000D02*
X129032000Y-138176000D01*
X128524000Y-135890000D02*
X128524000Y-137668000D01*
X128016000Y-135382000D02*
X128524000Y-135890000D01*
X128016000Y-133350000D02*
X128016000Y-135382000D01*
X127508000Y-132842000D02*
X128016000Y-133350000D01*
X127508000Y-131506874D02*
X127508000Y-132842000D01*
X123321188Y-127320062D02*
X127508000Y-131506874D01*
X131064000Y-146558000D02*
X132842000Y-148336000D01*
X131064000Y-144780000D02*
X131064000Y-146558000D01*
X130556000Y-144272000D02*
X131064000Y-144780000D01*
X130556000Y-142494000D02*
X130556000Y-144272000D01*
X130048000Y-140208000D02*
X130048000Y-141986000D01*
X129540000Y-139700000D02*
X130048000Y-140208000D01*
X129540000Y-137922000D02*
X129540000Y-139700000D01*
X129032000Y-137414000D02*
X129540000Y-137922000D01*
X130048000Y-141986000D02*
X130556000Y-142494000D01*
X129032000Y-135636000D02*
X129032000Y-137414000D01*
X128495157Y-135099157D02*
X129032000Y-135636000D01*
X128495157Y-133124843D02*
X128495157Y-135099157D01*
X128016000Y-132645686D02*
X128495157Y-133124843D01*
X128016000Y-131307767D02*
X128016000Y-132645686D01*
X123674742Y-126966509D02*
X128016000Y-131307767D01*
X130556000Y-139954000D02*
X130556000Y-141732000D01*
X131064000Y-142240000D02*
X131064000Y-144018000D01*
X130556000Y-141732000D02*
X131064000Y-142240000D01*
X130048000Y-139446000D02*
X130556000Y-139954000D01*
X130048000Y-137668000D02*
X130048000Y-139446000D01*
X129540000Y-137160000D02*
X130048000Y-137668000D01*
X129540000Y-135382000D02*
X129540000Y-137160000D01*
X131064000Y-144018000D02*
X132842000Y-145796000D01*
X129032000Y-134874000D02*
X129540000Y-135382000D01*
X129032000Y-133096000D02*
X129032000Y-134874000D01*
X128524000Y-132588000D02*
X129032000Y-133096000D01*
X124028295Y-126612955D02*
X128524000Y-131108660D01*
X128524000Y-131108660D02*
X128524000Y-132588000D01*
X131064000Y-141478000D02*
X132842000Y-143256000D01*
X131064000Y-139700000D02*
X131064000Y-141478000D01*
X130556000Y-139192000D02*
X131064000Y-139700000D01*
X130556000Y-137414000D02*
X130556000Y-139192000D01*
X130048000Y-136906000D02*
X130556000Y-137414000D01*
X130048000Y-135128000D02*
X130048000Y-136906000D01*
X129540000Y-134620000D02*
X130048000Y-135128000D01*
X129540000Y-132842000D02*
X129540000Y-134620000D01*
X129032000Y-132334000D02*
X129540000Y-132842000D01*
X129032000Y-130909554D02*
X129032000Y-132334000D01*
X124381848Y-126259402D02*
X129032000Y-130909554D01*
X131064000Y-138938000D02*
X132842000Y-140716000D01*
X131064000Y-137160000D02*
X131064000Y-138938000D01*
X130556000Y-136652000D02*
X131064000Y-137160000D01*
X130556000Y-134874000D02*
X130556000Y-136652000D01*
X130048000Y-134366000D02*
X130556000Y-134874000D01*
X130048000Y-132588000D02*
X130048000Y-134366000D01*
X129540000Y-132080000D02*
X130048000Y-132588000D01*
X129540000Y-130710446D02*
X129540000Y-132080000D01*
X124735402Y-125905848D02*
X129540000Y-130710446D01*
X131064000Y-134620000D02*
X131064000Y-136398000D01*
X130556000Y-134112000D02*
X131064000Y-134620000D01*
X130556000Y-132334000D02*
X130556000Y-134112000D01*
X130048000Y-131826000D02*
X130556000Y-132334000D01*
X131064000Y-136398000D02*
X132842000Y-138176000D01*
X130048000Y-130511340D02*
X130048000Y-131826000D01*
X125088955Y-125552295D02*
X130048000Y-130511340D01*
X131064000Y-133858000D02*
X132842000Y-135636000D01*
X130556000Y-131572000D02*
X131064000Y-132080000D01*
X131064000Y-132080000D02*
X131064000Y-133858000D01*
X125442509Y-125198742D02*
X130556000Y-130312233D01*
X130556000Y-130312233D02*
X130556000Y-131572000D01*
X131064000Y-131318000D02*
X132842000Y-133096000D01*
X131064000Y-130113126D02*
X131064000Y-131318000D01*
X125796062Y-124845188D02*
X131064000Y-130113126D01*
X126149615Y-124491635D02*
X132213980Y-130556000D01*
X132213980Y-130556000D02*
X132842000Y-130556000D01*
X130381087Y-128016000D02*
X132842000Y-128016000D01*
X126503169Y-124138082D02*
X130381087Y-128016000D01*
X128548194Y-125476000D02*
X132842000Y-125476000D01*
X126856722Y-123784528D02*
X128548194Y-125476000D01*
X131572000Y-120391955D02*
X132839651Y-120391955D01*
X127207927Y-122436980D02*
X128505453Y-121139453D01*
G04 #@! TA.AperFunction,Conductor*
G36*
X121455332Y-129218426D02*
G01*
X121499680Y-129246927D01*
X122187960Y-129935206D01*
X122234643Y-129972826D01*
X122234644Y-129972826D01*
X122234646Y-129972828D01*
X122327759Y-130015352D01*
X122363928Y-130040465D01*
X124839181Y-132515717D01*
X124872666Y-132577040D01*
X124875500Y-132603398D01*
X124875500Y-133771330D01*
X124875499Y-133771348D01*
X124875499Y-133937054D01*
X124875498Y-133937054D01*
X124885844Y-133975663D01*
X124916423Y-134089785D01*
X124918128Y-134092738D01*
X124918129Y-134092739D01*
X124918129Y-134092740D01*
X124995477Y-134226712D01*
X124995481Y-134226717D01*
X125114349Y-134345585D01*
X125114355Y-134345590D01*
X125347181Y-134578416D01*
X125380666Y-134639739D01*
X125383500Y-134666097D01*
X125383500Y-136311330D01*
X125383499Y-136311348D01*
X125383499Y-136477054D01*
X125383498Y-136477054D01*
X125393844Y-136515663D01*
X125424423Y-136629785D01*
X125426128Y-136632738D01*
X125426129Y-136632739D01*
X125426129Y-136632740D01*
X125503477Y-136766712D01*
X125503481Y-136766717D01*
X125622349Y-136885585D01*
X125622355Y-136885590D01*
X125855181Y-137118416D01*
X125888666Y-137179739D01*
X125891500Y-137206097D01*
X125891500Y-138597330D01*
X125891499Y-138597348D01*
X125891499Y-138763054D01*
X125891498Y-138763054D01*
X125901844Y-138801663D01*
X125932423Y-138915785D01*
X125934128Y-138918738D01*
X125934129Y-138918739D01*
X125934129Y-138918740D01*
X126011477Y-139052712D01*
X126011481Y-139052717D01*
X126130349Y-139171585D01*
X126130355Y-139171590D01*
X126363181Y-139404416D01*
X126396666Y-139465739D01*
X126399500Y-139492097D01*
X126399500Y-140883330D01*
X126399499Y-140883348D01*
X126399499Y-141049054D01*
X126399498Y-141049054D01*
X126440423Y-141201785D01*
X126466074Y-141246214D01*
X126466076Y-141246216D01*
X126519479Y-141338714D01*
X126519481Y-141338717D01*
X126638349Y-141457585D01*
X126638355Y-141457590D01*
X126871181Y-141690416D01*
X126904666Y-141751739D01*
X126907500Y-141778097D01*
X126907500Y-142915330D01*
X126907499Y-142915348D01*
X126907499Y-143081054D01*
X126907498Y-143081054D01*
X126917844Y-143119663D01*
X126948423Y-143233785D01*
X126950128Y-143236738D01*
X126950129Y-143236739D01*
X126950129Y-143236740D01*
X127027477Y-143370712D01*
X127027481Y-143370717D01*
X127146349Y-143489585D01*
X127146355Y-143489590D01*
X127379181Y-143722416D01*
X127412666Y-143783739D01*
X127415500Y-143810097D01*
X127415500Y-145455330D01*
X127415499Y-145455348D01*
X127415499Y-145621054D01*
X127415498Y-145621054D01*
X127425844Y-145659663D01*
X127456423Y-145773785D01*
X127458128Y-145776738D01*
X127458129Y-145776739D01*
X127458129Y-145776740D01*
X127535477Y-145910712D01*
X127535481Y-145910717D01*
X127654349Y-146029585D01*
X127654355Y-146029590D01*
X127887181Y-146262416D01*
X127920666Y-146323739D01*
X127923500Y-146350097D01*
X127923500Y-147741330D01*
X127923499Y-147741348D01*
X127923499Y-147907054D01*
X127923498Y-147907054D01*
X127933844Y-147945663D01*
X127964423Y-148059785D01*
X127966128Y-148062738D01*
X127966129Y-148062739D01*
X127966129Y-148062740D01*
X128043477Y-148196712D01*
X128043481Y-148196717D01*
X128162349Y-148315585D01*
X128162355Y-148315590D01*
X128395181Y-148548416D01*
X128428666Y-148609739D01*
X128431500Y-148636097D01*
X128431500Y-150027330D01*
X128431499Y-150027348D01*
X128431499Y-150193054D01*
X128431498Y-150193054D01*
X128441844Y-150231663D01*
X128472423Y-150345785D01*
X128474128Y-150348738D01*
X128474129Y-150348739D01*
X128474129Y-150348740D01*
X128551477Y-150482712D01*
X128551481Y-150482717D01*
X128670349Y-150601585D01*
X128670355Y-150601590D01*
X128903181Y-150834416D01*
X128936666Y-150895739D01*
X128939500Y-150922097D01*
X128939500Y-152313330D01*
X128939499Y-152313348D01*
X128939499Y-152479054D01*
X128939498Y-152479054D01*
X128980423Y-152631785D01*
X129006074Y-152676214D01*
X129006076Y-152676216D01*
X129059479Y-152768714D01*
X129059481Y-152768717D01*
X129178349Y-152887585D01*
X129178355Y-152887590D01*
X129411181Y-153120416D01*
X129444666Y-153181739D01*
X129447500Y-153208097D01*
X129447500Y-154599330D01*
X129447499Y-154599348D01*
X129447499Y-154765054D01*
X129447498Y-154765054D01*
X129457116Y-154800949D01*
X129488423Y-154917785D01*
X129490128Y-154920738D01*
X129490129Y-154920739D01*
X129490129Y-154920740D01*
X129567477Y-155054712D01*
X129567481Y-155054717D01*
X129686349Y-155173585D01*
X129686355Y-155173590D01*
X129919181Y-155406416D01*
X129952666Y-155467739D01*
X129955500Y-155494097D01*
X129955500Y-156885330D01*
X129955499Y-156885348D01*
X129955499Y-157051054D01*
X129955498Y-157051054D01*
X129959566Y-157066235D01*
X129996423Y-157203785D01*
X129998128Y-157206738D01*
X129998129Y-157206739D01*
X129998129Y-157206740D01*
X130075477Y-157340712D01*
X130075481Y-157340717D01*
X130194349Y-157459585D01*
X130194355Y-157459590D01*
X130427181Y-157692416D01*
X130460666Y-157753739D01*
X130463500Y-157780097D01*
X130463500Y-159171330D01*
X130463499Y-159171348D01*
X130463499Y-159337054D01*
X130463498Y-159337054D01*
X130463499Y-159337057D01*
X130504423Y-159489785D01*
X130504424Y-159489786D01*
X130508298Y-159496498D01*
X130508300Y-159496500D01*
X130583477Y-159626712D01*
X130583481Y-159626717D01*
X130702349Y-159745585D01*
X130702355Y-159745590D01*
X131508241Y-160551476D01*
X131541726Y-160612799D01*
X131538492Y-160677473D01*
X131524753Y-160719757D01*
X131491500Y-160929713D01*
X131491500Y-161142286D01*
X131524753Y-161352239D01*
X131590444Y-161554414D01*
X131686951Y-161743820D01*
X131811890Y-161915786D01*
X131962213Y-162066109D01*
X132134179Y-162191048D01*
X132134181Y-162191049D01*
X132134184Y-162191051D01*
X132323588Y-162287557D01*
X132525757Y-162353246D01*
X132735713Y-162386500D01*
X132735714Y-162386500D01*
X132948286Y-162386500D01*
X132948287Y-162386500D01*
X133158243Y-162353246D01*
X133360412Y-162287557D01*
X133431205Y-162251485D01*
X133499874Y-162238590D01*
X133564614Y-162264866D01*
X133604872Y-162321972D01*
X133611500Y-162361971D01*
X133611500Y-164301730D01*
X133591815Y-164368769D01*
X133539011Y-164414524D01*
X133487500Y-164425730D01*
X109336500Y-164425730D01*
X109269461Y-164406045D01*
X109223706Y-164353241D01*
X109212500Y-164301730D01*
X109212500Y-162361971D01*
X109232185Y-162294932D01*
X109284989Y-162249177D01*
X109354147Y-162239233D01*
X109392793Y-162251485D01*
X109463588Y-162287557D01*
X109665757Y-162353246D01*
X109875713Y-162386500D01*
X109875714Y-162386500D01*
X110088286Y-162386500D01*
X110088287Y-162386500D01*
X110298243Y-162353246D01*
X110500412Y-162287557D01*
X110689816Y-162191051D01*
X110711789Y-162175086D01*
X110861786Y-162066109D01*
X110861788Y-162066106D01*
X110861792Y-162066104D01*
X111012104Y-161915792D01*
X111012106Y-161915788D01*
X111012109Y-161915786D01*
X111137048Y-161743820D01*
X111137047Y-161743820D01*
X111137051Y-161743816D01*
X111233557Y-161554412D01*
X111299246Y-161352243D01*
X111332500Y-161142287D01*
X111332500Y-160929713D01*
X111299246Y-160719757D01*
X111282582Y-160668473D01*
X111280588Y-160598633D01*
X111312831Y-160542477D01*
X112225641Y-159629669D01*
X112304698Y-159492737D01*
X112345622Y-159340010D01*
X112345622Y-159181895D01*
X112345622Y-159174300D01*
X112345621Y-159174282D01*
X112345621Y-157783049D01*
X112365306Y-157716010D01*
X112381936Y-157695372D01*
X112611627Y-157465680D01*
X112611632Y-157465677D01*
X112621835Y-157455473D01*
X112621837Y-157455473D01*
X112733641Y-157343669D01*
X112812698Y-157206737D01*
X112844066Y-157089669D01*
X112853621Y-157054011D01*
X112853621Y-156895896D01*
X112853621Y-155497049D01*
X112873306Y-155430010D01*
X112889936Y-155409372D01*
X113119627Y-155179680D01*
X113119632Y-155179677D01*
X113129835Y-155169473D01*
X113129837Y-155169473D01*
X113241641Y-155057669D01*
X113320698Y-154920737D01*
X113352795Y-154800949D01*
X113361621Y-154768011D01*
X113361621Y-154609896D01*
X113361621Y-153211049D01*
X113381306Y-153144010D01*
X113397936Y-153123372D01*
X113627627Y-152893680D01*
X113627632Y-152893677D01*
X113637835Y-152883473D01*
X113637837Y-152883473D01*
X113749641Y-152771669D01*
X113828698Y-152634737D01*
X113860066Y-152517669D01*
X113869621Y-152482011D01*
X113869621Y-152323896D01*
X113869621Y-150925049D01*
X113889306Y-150858010D01*
X113905936Y-150837372D01*
X114135627Y-150607680D01*
X114135632Y-150607677D01*
X114145835Y-150597473D01*
X114145837Y-150597473D01*
X114257641Y-150485669D01*
X114336698Y-150348737D01*
X114368066Y-150231669D01*
X114377621Y-150196011D01*
X114377621Y-150037896D01*
X114377621Y-148639049D01*
X114397306Y-148572010D01*
X114413936Y-148551372D01*
X114643627Y-148321680D01*
X114643632Y-148321677D01*
X114653835Y-148311473D01*
X114653837Y-148311473D01*
X114765641Y-148199669D01*
X114844698Y-148062737D01*
X114876066Y-147945669D01*
X114885621Y-147910011D01*
X114885621Y-147751896D01*
X114885621Y-146353049D01*
X114905306Y-146286010D01*
X114921936Y-146265372D01*
X115151627Y-146035680D01*
X115151632Y-146035677D01*
X115161835Y-146025473D01*
X115161837Y-146025473D01*
X115273641Y-145913669D01*
X115352698Y-145776737D01*
X115384066Y-145659669D01*
X115393621Y-145624011D01*
X115393621Y-145465896D01*
X115393621Y-143813049D01*
X115413306Y-143746010D01*
X115429936Y-143725372D01*
X115659627Y-143495680D01*
X115659632Y-143495677D01*
X115669835Y-143485473D01*
X115669837Y-143485473D01*
X115781641Y-143373669D01*
X115860698Y-143236737D01*
X115892066Y-143119669D01*
X115901621Y-143084011D01*
X115901621Y-142925896D01*
X115901621Y-141781049D01*
X115921306Y-141714010D01*
X115937936Y-141693372D01*
X116167627Y-141463680D01*
X116167632Y-141463677D01*
X116177835Y-141453473D01*
X116177837Y-141453473D01*
X116289641Y-141341669D01*
X116368698Y-141204737D01*
X116400066Y-141087669D01*
X116409621Y-141052011D01*
X116409621Y-140893896D01*
X116409621Y-139495049D01*
X116429306Y-139428010D01*
X116445936Y-139407372D01*
X116675627Y-139177680D01*
X116675632Y-139177677D01*
X116685835Y-139167473D01*
X116685837Y-139167473D01*
X116797641Y-139055669D01*
X116876698Y-138918737D01*
X116908066Y-138801669D01*
X116917621Y-138766011D01*
X116917621Y-138607896D01*
X116917621Y-137209049D01*
X116937306Y-137142010D01*
X116953936Y-137121372D01*
X117183627Y-136891680D01*
X117183632Y-136891677D01*
X117193835Y-136881473D01*
X117193837Y-136881473D01*
X117305641Y-136769669D01*
X117384698Y-136632737D01*
X117416066Y-136515669D01*
X117425621Y-136480011D01*
X117425621Y-136321896D01*
X117425621Y-136321895D01*
X117425621Y-134669049D01*
X117445306Y-134602010D01*
X117461936Y-134581372D01*
X117691627Y-134351680D01*
X117691632Y-134351677D01*
X117701835Y-134341473D01*
X117701837Y-134341473D01*
X117813641Y-134229669D01*
X117892698Y-134092737D01*
X117924066Y-133975669D01*
X117933621Y-133940011D01*
X117933621Y-133781896D01*
X117933621Y-133781895D01*
X117933621Y-132606351D01*
X117953306Y-132539312D01*
X117969940Y-132518670D01*
X118822375Y-131666235D01*
X120473479Y-130015130D01*
X120509646Y-129990020D01*
X120624709Y-129937472D01*
X120624709Y-129937471D01*
X120624713Y-129937470D01*
X120671395Y-129899852D01*
X121324318Y-129246926D01*
X121385641Y-129213442D01*
X121455332Y-129218426D01*
G37*
G04 #@! TD.AperFunction*
G04 #@! TA.AperFunction,Conductor*
G36*
X121455333Y-117975428D02*
G01*
X121499678Y-118003927D01*
X121763696Y-118267944D01*
X121794617Y-118292862D01*
X121794839Y-118293044D01*
X121795124Y-118293461D01*
X121812883Y-118311221D01*
X121812890Y-118311229D01*
X121837408Y-118341655D01*
X121837413Y-118341660D01*
X121837415Y-118341663D01*
X122117250Y-118621497D01*
X122147694Y-118646031D01*
X122166432Y-118664770D01*
X122166439Y-118664778D01*
X122190961Y-118695209D01*
X122190966Y-118695214D01*
X122190968Y-118695217D01*
X122470803Y-118975051D01*
X122470807Y-118975054D01*
X122470809Y-118975056D01*
X122501244Y-118999583D01*
X122519986Y-119018326D01*
X122544507Y-119048755D01*
X122544520Y-119048768D01*
X122544521Y-119048770D01*
X122824356Y-119328604D01*
X122854805Y-119353142D01*
X122873543Y-119371881D01*
X122873550Y-119371889D01*
X122898068Y-119402315D01*
X122898073Y-119402320D01*
X122898075Y-119402323D01*
X123177910Y-119682157D01*
X123208354Y-119706691D01*
X123227092Y-119725430D01*
X123227099Y-119725438D01*
X123251621Y-119755869D01*
X123251626Y-119755874D01*
X123251628Y-119755877D01*
X123531463Y-120035711D01*
X123561912Y-120060249D01*
X123580650Y-120078988D01*
X123580657Y-120078996D01*
X123605175Y-120109422D01*
X123605180Y-120109427D01*
X123605182Y-120109430D01*
X123885017Y-120389264D01*
X123885021Y-120389267D01*
X123885023Y-120389269D01*
X123915458Y-120413796D01*
X123934200Y-120432539D01*
X123958721Y-120462968D01*
X123958734Y-120462981D01*
X123958735Y-120462983D01*
X124238570Y-120742817D01*
X124269014Y-120767351D01*
X124287752Y-120786090D01*
X124287759Y-120786098D01*
X124312281Y-120816529D01*
X124312286Y-120816534D01*
X124312288Y-120816537D01*
X124592123Y-121096371D01*
X124622572Y-121120909D01*
X124641310Y-121139648D01*
X124641317Y-121139656D01*
X124665835Y-121170082D01*
X124665840Y-121170087D01*
X124665842Y-121170090D01*
X124945677Y-121449924D01*
X124976121Y-121474458D01*
X124994859Y-121493197D01*
X125005366Y-121506235D01*
X125019388Y-121523636D01*
X125019393Y-121523641D01*
X125019395Y-121523644D01*
X125299230Y-121803478D01*
X125299234Y-121803481D01*
X125299236Y-121803483D01*
X125329671Y-121828010D01*
X125348413Y-121846753D01*
X125372934Y-121877182D01*
X125372947Y-121877195D01*
X125372948Y-121877197D01*
X125652783Y-122157031D01*
X125683232Y-122181569D01*
X125701970Y-122200308D01*
X125701977Y-122200316D01*
X125726495Y-122230742D01*
X125726500Y-122230747D01*
X125726502Y-122230750D01*
X126006337Y-122510584D01*
X126036781Y-122535118D01*
X126055519Y-122553857D01*
X126055526Y-122553865D01*
X126080048Y-122584296D01*
X126080057Y-122584306D01*
X126344070Y-122848318D01*
X126377555Y-122909641D01*
X126372571Y-122979332D01*
X126344070Y-123023680D01*
X126080064Y-123287686D01*
X126080058Y-123287693D01*
X126055518Y-123318143D01*
X126036780Y-123336881D01*
X126006337Y-123361414D01*
X125726511Y-123641240D01*
X125726505Y-123641247D01*
X125701969Y-123671692D01*
X125683231Y-123690430D01*
X125652783Y-123714967D01*
X125372951Y-123994799D01*
X125348412Y-124025249D01*
X125329672Y-124043988D01*
X125299230Y-124068520D01*
X125299221Y-124068528D01*
X125019404Y-124348346D01*
X125019398Y-124348353D01*
X124994858Y-124378803D01*
X124976120Y-124397541D01*
X124945677Y-124422074D01*
X124665851Y-124701900D01*
X124665845Y-124701907D01*
X124641309Y-124732352D01*
X124622571Y-124751090D01*
X124592123Y-124775627D01*
X124312297Y-125055453D01*
X124312291Y-125055460D01*
X124287751Y-125085910D01*
X124269013Y-125104648D01*
X124238570Y-125129181D01*
X123958738Y-125409013D01*
X123934199Y-125439463D01*
X123915459Y-125458202D01*
X123885017Y-125482734D01*
X123885008Y-125482742D01*
X123605191Y-125762560D01*
X123605185Y-125762567D01*
X123580649Y-125793012D01*
X123561911Y-125811750D01*
X123531463Y-125836287D01*
X123251637Y-126116113D01*
X123251631Y-126116120D01*
X123227091Y-126146570D01*
X123208353Y-126165308D01*
X123177910Y-126189841D01*
X122898084Y-126469667D01*
X122898078Y-126469674D01*
X122873542Y-126500119D01*
X122854804Y-126518857D01*
X122824356Y-126543394D01*
X122544524Y-126823226D01*
X122519985Y-126853676D01*
X122501245Y-126872415D01*
X122470803Y-126896947D01*
X122470794Y-126896955D01*
X122190977Y-127176773D01*
X122190971Y-127176780D01*
X122166431Y-127207230D01*
X122147693Y-127225968D01*
X122117250Y-127250501D01*
X121837424Y-127530327D01*
X121837418Y-127530334D01*
X121812882Y-127560779D01*
X121794144Y-127579517D01*
X121763696Y-127604054D01*
X121483870Y-127883880D01*
X121483862Y-127883889D01*
X121474787Y-127895150D01*
X121417392Y-127934995D01*
X121347567Y-127937484D01*
X121290559Y-127905020D01*
X121266045Y-127880507D01*
X121024949Y-127639412D01*
X121024943Y-127639407D01*
X121024934Y-127639398D01*
X120994505Y-127614877D01*
X120975760Y-127596133D01*
X120951230Y-127565692D01*
X120671395Y-127285859D01*
X120669740Y-127284525D01*
X120640955Y-127261327D01*
X120622212Y-127242584D01*
X120597677Y-127212138D01*
X120371427Y-126985890D01*
X120317842Y-126932305D01*
X120287395Y-126907768D01*
X120268657Y-126889029D01*
X120248529Y-126864051D01*
X120244124Y-126858585D01*
X119964289Y-126578752D01*
X119964283Y-126578747D01*
X119964274Y-126578738D01*
X119933845Y-126554217D01*
X119915100Y-126535473D01*
X119890570Y-126505032D01*
X119610735Y-126225199D01*
X119605649Y-126221100D01*
X119580295Y-126200667D01*
X119561552Y-126181924D01*
X119537017Y-126151478D01*
X119493767Y-126108228D01*
X119257182Y-125871645D01*
X119257176Y-125871640D01*
X119257167Y-125871631D01*
X119226738Y-125847110D01*
X119207993Y-125828366D01*
X119183463Y-125797925D01*
X118903628Y-125518092D01*
X118873181Y-125493555D01*
X118854443Y-125474816D01*
X118829913Y-125444376D01*
X118829910Y-125444372D01*
X118550075Y-125164539D01*
X118548420Y-125163205D01*
X118519635Y-125140007D01*
X118500892Y-125121264D01*
X118476357Y-125090818D01*
X118244128Y-124858591D01*
X118196522Y-124810985D01*
X118196516Y-124810980D01*
X118196507Y-124810971D01*
X118166078Y-124786450D01*
X118147333Y-124767706D01*
X118122803Y-124737265D01*
X117842968Y-124457432D01*
X117841313Y-124456098D01*
X117812528Y-124432900D01*
X117793785Y-124414157D01*
X117769250Y-124383711D01*
X117733885Y-124348346D01*
X117489415Y-124103878D01*
X117458968Y-124079341D01*
X117440230Y-124060602D01*
X117415700Y-124030162D01*
X117415697Y-124030158D01*
X117135862Y-123750325D01*
X117135856Y-123750320D01*
X117135847Y-123750311D01*
X117105418Y-123725790D01*
X117086673Y-123707046D01*
X117062143Y-123676605D01*
X116782308Y-123396772D01*
X116780653Y-123395438D01*
X116751868Y-123372240D01*
X116733125Y-123353497D01*
X116708590Y-123323051D01*
X116673225Y-123287686D01*
X116442977Y-123057440D01*
X116409494Y-122996120D01*
X116414478Y-122926428D01*
X116452857Y-122873207D01*
X116464110Y-122864139D01*
X116464115Y-122864134D01*
X116743937Y-122584311D01*
X116743936Y-122584311D01*
X116743944Y-122584304D01*
X116768479Y-122553857D01*
X116787220Y-122535116D01*
X116817663Y-122510585D01*
X117097497Y-122230750D01*
X117122028Y-122200308D01*
X117140769Y-122181567D01*
X117171217Y-122157032D01*
X117451051Y-121877197D01*
X117475587Y-121846749D01*
X117494328Y-121828010D01*
X117524770Y-121803479D01*
X117804604Y-121523644D01*
X117829139Y-121493197D01*
X117847880Y-121474456D01*
X117878323Y-121449925D01*
X118158157Y-121170090D01*
X118182688Y-121139648D01*
X118201429Y-121120907D01*
X118231877Y-121096372D01*
X118511711Y-120816537D01*
X118536246Y-120786090D01*
X118554987Y-120767349D01*
X118585430Y-120742818D01*
X118865264Y-120462983D01*
X118889800Y-120432535D01*
X118908541Y-120413796D01*
X118938983Y-120389265D01*
X119218817Y-120109430D01*
X119243348Y-120078988D01*
X119262089Y-120060247D01*
X119292537Y-120035712D01*
X119572371Y-119755877D01*
X119596906Y-119725430D01*
X119615647Y-119706689D01*
X119646090Y-119682158D01*
X119925924Y-119402323D01*
X119950455Y-119371881D01*
X119969196Y-119353140D01*
X119999644Y-119328605D01*
X120279478Y-119048770D01*
X120304014Y-119018322D01*
X120322755Y-118999583D01*
X120353197Y-118975052D01*
X120633031Y-118695217D01*
X120657566Y-118664770D01*
X120676307Y-118646029D01*
X120706750Y-118621498D01*
X120986584Y-118341663D01*
X121011115Y-118311221D01*
X121029856Y-118292480D01*
X121060304Y-118267945D01*
X121324320Y-118003927D01*
X121385641Y-117970444D01*
X121455333Y-117975428D01*
G37*
G04 #@! TD.AperFunction*
G04 #@! TA.AperFunction,Conductor*
G36*
X133554539Y-79086415D02*
G01*
X133600294Y-79139219D01*
X133611500Y-79190730D01*
X133611500Y-80970028D01*
X133591815Y-81037067D01*
X133539011Y-81082822D01*
X133469853Y-81092766D01*
X133431206Y-81080513D01*
X133360417Y-81044445D01*
X133360414Y-81044444D01*
X133360412Y-81044443D01*
X133158243Y-80978754D01*
X133158241Y-80978753D01*
X133158240Y-80978753D01*
X132996957Y-80953208D01*
X132948287Y-80945500D01*
X132735713Y-80945500D01*
X132687042Y-80953208D01*
X132525760Y-80978753D01*
X132323585Y-81044444D01*
X132134179Y-81140951D01*
X131962213Y-81265890D01*
X131811890Y-81416213D01*
X131686951Y-81588179D01*
X131590444Y-81777585D01*
X131524753Y-81979760D01*
X131491500Y-82189713D01*
X131491500Y-82402286D01*
X131524753Y-82612240D01*
X131524753Y-82612241D01*
X131532551Y-82636241D01*
X131534544Y-82706082D01*
X131502300Y-82762237D01*
X130678058Y-83586480D01*
X130566253Y-83698284D01*
X130566251Y-83698287D01*
X130516133Y-83785096D01*
X130516131Y-83785098D01*
X130487197Y-83835211D01*
X130487196Y-83835212D01*
X130471316Y-83894474D01*
X130446271Y-83987945D01*
X130446271Y-83987947D01*
X130446271Y-84156048D01*
X130446272Y-84156061D01*
X130446272Y-85290904D01*
X130426587Y-85357943D01*
X130409953Y-85378585D01*
X130058253Y-85730284D01*
X130058247Y-85730292D01*
X130019128Y-85798050D01*
X130019128Y-85798051D01*
X129979195Y-85867217D01*
X129938271Y-86019945D01*
X129938271Y-86019947D01*
X129938271Y-86188048D01*
X129938272Y-86188061D01*
X129938272Y-87830904D01*
X129918587Y-87897943D01*
X129901953Y-87918585D01*
X129550253Y-88270284D01*
X129550251Y-88270287D01*
X129546208Y-88277290D01*
X129513799Y-88333425D01*
X129471195Y-88407217D01*
X129430271Y-88559945D01*
X129430271Y-88559947D01*
X129430271Y-88728048D01*
X129430272Y-88728061D01*
X129430272Y-90116904D01*
X129410587Y-90183943D01*
X129393953Y-90204585D01*
X129042253Y-90556284D01*
X129042251Y-90556287D01*
X129038208Y-90563290D01*
X129005799Y-90619425D01*
X128963195Y-90693217D01*
X128922271Y-90845945D01*
X128922271Y-90845947D01*
X128922271Y-91014048D01*
X128922272Y-91014061D01*
X128922272Y-92402904D01*
X128902587Y-92469943D01*
X128885953Y-92490585D01*
X128534253Y-92842284D01*
X128534249Y-92842289D01*
X128493759Y-92912422D01*
X128493759Y-92912423D01*
X128455195Y-92979216D01*
X128441553Y-93030126D01*
X128414271Y-93131945D01*
X128414271Y-93131947D01*
X128414271Y-93300048D01*
X128414272Y-93300061D01*
X128414272Y-94688904D01*
X128394587Y-94755943D01*
X128377953Y-94776585D01*
X128026253Y-95128284D01*
X128026249Y-95128289D01*
X127985759Y-95198422D01*
X127985759Y-95198423D01*
X127947195Y-95265216D01*
X127933553Y-95316126D01*
X127906271Y-95417945D01*
X127906271Y-95417947D01*
X127906271Y-95586048D01*
X127906272Y-95586061D01*
X127906272Y-96974904D01*
X127886587Y-97041943D01*
X127869953Y-97062585D01*
X127518253Y-97414284D01*
X127518249Y-97414289D01*
X127477759Y-97484422D01*
X127477759Y-97484423D01*
X127439195Y-97551216D01*
X127425553Y-97602126D01*
X127398271Y-97703945D01*
X127398271Y-97703947D01*
X127398271Y-97872048D01*
X127398272Y-97872061D01*
X127398272Y-99260904D01*
X127378587Y-99327943D01*
X127361953Y-99348585D01*
X127010253Y-99700284D01*
X127010249Y-99700289D01*
X126969759Y-99770422D01*
X126969759Y-99770423D01*
X126931195Y-99837216D01*
X126917553Y-99888126D01*
X126890271Y-99989945D01*
X126890271Y-99989947D01*
X126890271Y-100158048D01*
X126890272Y-100158061D01*
X126890272Y-101546904D01*
X126870587Y-101613943D01*
X126853953Y-101634585D01*
X126502253Y-101986284D01*
X126502249Y-101986289D01*
X126461759Y-102056422D01*
X126461759Y-102056423D01*
X126423195Y-102123216D01*
X126409553Y-102174126D01*
X126382271Y-102275945D01*
X126382271Y-102275947D01*
X126382271Y-102444048D01*
X126382272Y-102444061D01*
X126382272Y-103832904D01*
X126362587Y-103899943D01*
X126345953Y-103920585D01*
X125994253Y-104272284D01*
X125994249Y-104272289D01*
X125953759Y-104342422D01*
X125953759Y-104342423D01*
X125915195Y-104409216D01*
X125901553Y-104460126D01*
X125874271Y-104561945D01*
X125874271Y-104561947D01*
X125874271Y-104730048D01*
X125874272Y-104730061D01*
X125874272Y-106118904D01*
X125854587Y-106185943D01*
X125837953Y-106206585D01*
X125486253Y-106558284D01*
X125486249Y-106558289D01*
X125445759Y-106628422D01*
X125445759Y-106628423D01*
X125407195Y-106695216D01*
X125393553Y-106746126D01*
X125366271Y-106847945D01*
X125366271Y-106847947D01*
X125366271Y-107016048D01*
X125366272Y-107016061D01*
X125366272Y-108404904D01*
X125346587Y-108471943D01*
X125329953Y-108492585D01*
X124978253Y-108844284D01*
X124978249Y-108844289D01*
X124937759Y-108914422D01*
X124937759Y-108914423D01*
X124899195Y-108981216D01*
X124885553Y-109032126D01*
X124858271Y-109133945D01*
X124858271Y-109133947D01*
X124858271Y-109302048D01*
X124858272Y-109302061D01*
X124858272Y-110690904D01*
X124838587Y-110757943D01*
X124821953Y-110778585D01*
X124470253Y-111130284D01*
X124470247Y-111130292D01*
X124431128Y-111198050D01*
X124431128Y-111198051D01*
X124391195Y-111267217D01*
X124350271Y-111419945D01*
X124350271Y-111419947D01*
X124350271Y-111588048D01*
X124350272Y-111588061D01*
X124350272Y-113769603D01*
X124330587Y-113836642D01*
X124313953Y-113857284D01*
X122319338Y-115851898D01*
X122283172Y-115877010D01*
X122234643Y-115899174D01*
X122187950Y-115936801D01*
X121499680Y-116625072D01*
X121438357Y-116658557D01*
X121368665Y-116653573D01*
X121324320Y-116625073D01*
X120636040Y-115936794D01*
X120589357Y-115899174D01*
X120572064Y-115891276D01*
X120496238Y-115856646D01*
X120460070Y-115831534D01*
X118492819Y-113864283D01*
X118459334Y-113802960D01*
X118456500Y-113776602D01*
X118456500Y-111426943D01*
X118456499Y-111426936D01*
X118456113Y-111425497D01*
X118456114Y-111425496D01*
X118456105Y-111425471D01*
X118454624Y-111419945D01*
X118438487Y-111359718D01*
X118415577Y-111274216D01*
X118371603Y-111198050D01*
X118336524Y-111137290D01*
X118336521Y-111137286D01*
X118336520Y-111137284D01*
X118224716Y-111025480D01*
X118224715Y-111025479D01*
X118220385Y-111021149D01*
X118220374Y-111021139D01*
X117984819Y-110785584D01*
X117951334Y-110724261D01*
X117948500Y-110697903D01*
X117948500Y-109140945D01*
X117948500Y-109140943D01*
X117907577Y-108988216D01*
X117864973Y-108914423D01*
X117828524Y-108851290D01*
X117828521Y-108851286D01*
X117828520Y-108851284D01*
X117716716Y-108739480D01*
X117716715Y-108739479D01*
X117712385Y-108735149D01*
X117712374Y-108735139D01*
X117476819Y-108499584D01*
X117443334Y-108438261D01*
X117440500Y-108411903D01*
X117440500Y-106854945D01*
X117440500Y-106854943D01*
X117399577Y-106702216D01*
X117356973Y-106628423D01*
X117320524Y-106565290D01*
X117320521Y-106565286D01*
X117320520Y-106565284D01*
X117208716Y-106453480D01*
X117208715Y-106453479D01*
X117204385Y-106449149D01*
X117204374Y-106449139D01*
X116968819Y-106213584D01*
X116935334Y-106152261D01*
X116932500Y-106125903D01*
X116932500Y-104568945D01*
X116932500Y-104568943D01*
X116891577Y-104416216D01*
X116848973Y-104342423D01*
X116812524Y-104279290D01*
X116812521Y-104279286D01*
X116812520Y-104279284D01*
X116700716Y-104167480D01*
X116700715Y-104167479D01*
X116696385Y-104163149D01*
X116696374Y-104163139D01*
X116460819Y-103927584D01*
X116427334Y-103866261D01*
X116424500Y-103839903D01*
X116424500Y-102282945D01*
X116424500Y-102282943D01*
X116383577Y-102130216D01*
X116340973Y-102056423D01*
X116304524Y-101993290D01*
X116304521Y-101993286D01*
X116304520Y-101993284D01*
X116192716Y-101881480D01*
X116192715Y-101881479D01*
X116188385Y-101877149D01*
X116188374Y-101877139D01*
X115952819Y-101641584D01*
X115919334Y-101580261D01*
X115916500Y-101553903D01*
X115916500Y-99996945D01*
X115916500Y-99996943D01*
X115875577Y-99844216D01*
X115832973Y-99770423D01*
X115796524Y-99707290D01*
X115796521Y-99707286D01*
X115796520Y-99707284D01*
X115684716Y-99595480D01*
X115684715Y-99595479D01*
X115680385Y-99591149D01*
X115680374Y-99591139D01*
X115444819Y-99355584D01*
X115411334Y-99294261D01*
X115408500Y-99267903D01*
X115408500Y-97710945D01*
X115408500Y-97710943D01*
X115367577Y-97558216D01*
X115324973Y-97484423D01*
X115288524Y-97421290D01*
X115288521Y-97421286D01*
X115288520Y-97421284D01*
X115176716Y-97309480D01*
X115176715Y-97309479D01*
X115172385Y-97305149D01*
X115172374Y-97305139D01*
X114936819Y-97069584D01*
X114903334Y-97008261D01*
X114900500Y-96981903D01*
X114900500Y-95424945D01*
X114900500Y-95424943D01*
X114859577Y-95272216D01*
X114816973Y-95198423D01*
X114780524Y-95135290D01*
X114780521Y-95135286D01*
X114780520Y-95135284D01*
X114668716Y-95023480D01*
X114668715Y-95023479D01*
X114664385Y-95019149D01*
X114664374Y-95019139D01*
X114428819Y-94783584D01*
X114395334Y-94722261D01*
X114392500Y-94695903D01*
X114392500Y-93138945D01*
X114392500Y-93138943D01*
X114351577Y-92986216D01*
X114308973Y-92912423D01*
X114272524Y-92849290D01*
X114272521Y-92849286D01*
X114272520Y-92849284D01*
X114160716Y-92737480D01*
X114160715Y-92737479D01*
X114156385Y-92733149D01*
X114156374Y-92733139D01*
X113920819Y-92497584D01*
X113887334Y-92436261D01*
X113884500Y-92409903D01*
X113884500Y-90852945D01*
X113884500Y-90852943D01*
X113843577Y-90700216D01*
X113839535Y-90693215D01*
X113764524Y-90563290D01*
X113764521Y-90563286D01*
X113764520Y-90563284D01*
X113652716Y-90451480D01*
X113652715Y-90451479D01*
X113648385Y-90447149D01*
X113648374Y-90447139D01*
X113412819Y-90211584D01*
X113379334Y-90150261D01*
X113376500Y-90123903D01*
X113376500Y-88566943D01*
X113376499Y-88566936D01*
X113376113Y-88565497D01*
X113376106Y-88565473D01*
X113350807Y-88471057D01*
X113350807Y-88471055D01*
X113335578Y-88414218D01*
X113335576Y-88414213D01*
X113256524Y-88277290D01*
X113256521Y-88277286D01*
X113256520Y-88277284D01*
X113144716Y-88165480D01*
X113144715Y-88165479D01*
X113140385Y-88161149D01*
X113140374Y-88161139D01*
X112904819Y-87925584D01*
X112871334Y-87864261D01*
X112868500Y-87837903D01*
X112868500Y-86026943D01*
X112868499Y-86026936D01*
X112868113Y-86025497D01*
X112868114Y-86025496D01*
X112868105Y-86025471D01*
X112866624Y-86019945D01*
X112850487Y-85959718D01*
X112827577Y-85874216D01*
X112783603Y-85798050D01*
X112748524Y-85737290D01*
X112748521Y-85737286D01*
X112748520Y-85737284D01*
X112636716Y-85625480D01*
X112636715Y-85625479D01*
X112632385Y-85621149D01*
X112632374Y-85621139D01*
X112396819Y-85385584D01*
X112363334Y-85324261D01*
X112360500Y-85297903D01*
X112360500Y-84163060D01*
X112360501Y-84163047D01*
X112360501Y-83994944D01*
X112319576Y-83842214D01*
X112319573Y-83842209D01*
X112240524Y-83705290D01*
X112240518Y-83705282D01*
X111315757Y-82780522D01*
X111282272Y-82719199D01*
X111285507Y-82654523D01*
X111299246Y-82612243D01*
X111332500Y-82402287D01*
X111332500Y-82189713D01*
X111299246Y-81979757D01*
X111233557Y-81777588D01*
X111137051Y-81588184D01*
X111137049Y-81588181D01*
X111137048Y-81588179D01*
X111012109Y-81416213D01*
X110861786Y-81265890D01*
X110689820Y-81140951D01*
X110500414Y-81044444D01*
X110500413Y-81044443D01*
X110500412Y-81044443D01*
X110298243Y-80978754D01*
X110298241Y-80978753D01*
X110298240Y-80978753D01*
X110136957Y-80953208D01*
X110088287Y-80945500D01*
X109875713Y-80945500D01*
X109827042Y-80953208D01*
X109665760Y-80978753D01*
X109463582Y-81044445D01*
X109392794Y-81080513D01*
X109324125Y-81093409D01*
X109259384Y-81067132D01*
X109219128Y-81010025D01*
X109212500Y-80970028D01*
X109212500Y-79190730D01*
X109232185Y-79123691D01*
X109284989Y-79077936D01*
X109336500Y-79066730D01*
X133487500Y-79066730D01*
X133554539Y-79086415D01*
G37*
G04 #@! TD.AperFunction*
M02*
