G04 #@! TF.GenerationSoftware,KiCad,Pcbnew,9.0.6*
G04 #@! TF.CreationDate,2026-01-02T22:14:37-06:00*
G04 #@! TF.ProjectId,DHVQFN-14_3.65x3.65_P0.5,44485651-464e-42d3-9134-5f332e363578,rev?*
G04 #@! TF.SameCoordinates,Original*
G04 #@! TF.FileFunction,Legend,Bot*
G04 #@! TF.FilePolarity,Positive*
%FSLAX46Y46*%
G04 Gerber Fmt 4.6, Leading zero omitted, Abs format (unit mm)*
G04 Created by KiCad (PCBNEW 9.0.6) date 2026-01-02 22:14:37*
%MOMM*%
%LPD*%
G01*
G04 APERTURE LIST*
%ADD10C,0.150000*%
%ADD11C,0.120000*%
%ADD12C,0.508000*%
%ADD13C,1.700000*%
%ADD14R,1.700000X1.700000*%
%ADD15R,2.510000X1.000000*%
G04 APERTURE END LIST*
D10*
X130571714Y-98166819D02*
X130571714Y-98881104D01*
X130571714Y-98881104D02*
X130619333Y-99023961D01*
X130619333Y-99023961D02*
X130714571Y-99119200D01*
X130714571Y-99119200D02*
X130857428Y-99166819D01*
X130857428Y-99166819D02*
X130952666Y-99166819D01*
X129571714Y-99166819D02*
X130143142Y-99166819D01*
X129857428Y-99166819D02*
X129857428Y-98166819D01*
X129857428Y-98166819D02*
X129952666Y-98309676D01*
X129952666Y-98309676D02*
X130047904Y-98404914D01*
X130047904Y-98404914D02*
X130143142Y-98452533D01*
X128952666Y-98166819D02*
X128857428Y-98166819D01*
X128857428Y-98166819D02*
X128762190Y-98214438D01*
X128762190Y-98214438D02*
X128714571Y-98262057D01*
X128714571Y-98262057D02*
X128666952Y-98357295D01*
X128666952Y-98357295D02*
X128619333Y-98547771D01*
X128619333Y-98547771D02*
X128619333Y-98785866D01*
X128619333Y-98785866D02*
X128666952Y-98976342D01*
X128666952Y-98976342D02*
X128714571Y-99071580D01*
X128714571Y-99071580D02*
X128762190Y-99119200D01*
X128762190Y-99119200D02*
X128857428Y-99166819D01*
X128857428Y-99166819D02*
X128952666Y-99166819D01*
X128952666Y-99166819D02*
X129047904Y-99119200D01*
X129047904Y-99119200D02*
X129095523Y-99071580D01*
X129095523Y-99071580D02*
X129143142Y-98976342D01*
X129143142Y-98976342D02*
X129190761Y-98785866D01*
X129190761Y-98785866D02*
X129190761Y-98547771D01*
X129190761Y-98547771D02*
X129143142Y-98357295D01*
X129143142Y-98357295D02*
X129095523Y-98262057D01*
X129095523Y-98262057D02*
X129047904Y-98214438D01*
X129047904Y-98214438D02*
X128952666Y-98166819D01*
X127666952Y-99166819D02*
X128238380Y-99166819D01*
X127952666Y-99166819D02*
X127952666Y-98166819D01*
X127952666Y-98166819D02*
X128047904Y-98309676D01*
X128047904Y-98309676D02*
X128143142Y-98404914D01*
X128143142Y-98404914D02*
X128238380Y-98452533D01*
X138191714Y-98166819D02*
X138191714Y-98881104D01*
X138191714Y-98881104D02*
X138239333Y-99023961D01*
X138239333Y-99023961D02*
X138334571Y-99119200D01*
X138334571Y-99119200D02*
X138477428Y-99166819D01*
X138477428Y-99166819D02*
X138572666Y-99166819D01*
X137191714Y-99166819D02*
X137763142Y-99166819D01*
X137477428Y-99166819D02*
X137477428Y-98166819D01*
X137477428Y-98166819D02*
X137572666Y-98309676D01*
X137572666Y-98309676D02*
X137667904Y-98404914D01*
X137667904Y-98404914D02*
X137763142Y-98452533D01*
X136572666Y-98166819D02*
X136477428Y-98166819D01*
X136477428Y-98166819D02*
X136382190Y-98214438D01*
X136382190Y-98214438D02*
X136334571Y-98262057D01*
X136334571Y-98262057D02*
X136286952Y-98357295D01*
X136286952Y-98357295D02*
X136239333Y-98547771D01*
X136239333Y-98547771D02*
X136239333Y-98785866D01*
X136239333Y-98785866D02*
X136286952Y-98976342D01*
X136286952Y-98976342D02*
X136334571Y-99071580D01*
X136334571Y-99071580D02*
X136382190Y-99119200D01*
X136382190Y-99119200D02*
X136477428Y-99166819D01*
X136477428Y-99166819D02*
X136572666Y-99166819D01*
X136572666Y-99166819D02*
X136667904Y-99119200D01*
X136667904Y-99119200D02*
X136715523Y-99071580D01*
X136715523Y-99071580D02*
X136763142Y-98976342D01*
X136763142Y-98976342D02*
X136810761Y-98785866D01*
X136810761Y-98785866D02*
X136810761Y-98547771D01*
X136810761Y-98547771D02*
X136763142Y-98357295D01*
X136763142Y-98357295D02*
X136715523Y-98262057D01*
X136715523Y-98262057D02*
X136667904Y-98214438D01*
X136667904Y-98214438D02*
X136572666Y-98166819D01*
X135382190Y-98500152D02*
X135382190Y-99166819D01*
X135620285Y-98119200D02*
X135858380Y-98833485D01*
X135858380Y-98833485D02*
X135239333Y-98833485D01*
D11*
X127906000Y-99712000D02*
X127906000Y-102822000D01*
X127906000Y-104442000D02*
X127906000Y-107902000D01*
X127906000Y-109522000D02*
X127906000Y-112982000D01*
X127906000Y-114602000D02*
X127906000Y-118062000D01*
X127906000Y-119682000D02*
X127906000Y-122792000D01*
X127906000Y-122222000D02*
X127906000Y-122792000D01*
X130666000Y-99712000D02*
X127906000Y-99712000D01*
X130666000Y-99712000D02*
X130666000Y-100282000D01*
X130666000Y-101902000D02*
X130666000Y-105362000D01*
X130666000Y-106982000D02*
X130666000Y-110442000D01*
X130666000Y-112062000D02*
X130666000Y-115522000D01*
X130666000Y-117142000D02*
X130666000Y-120602000D01*
X130666000Y-122792000D02*
X127906000Y-122792000D01*
X135526000Y-99712000D02*
X135526000Y-100282000D01*
X135526000Y-101902000D02*
X135526000Y-105362000D01*
X135526000Y-106982000D02*
X135526000Y-110442000D01*
X135526000Y-112062000D02*
X135526000Y-115522000D01*
X135526000Y-117142000D02*
X135526000Y-120602000D01*
X138286000Y-99712000D02*
X135526000Y-99712000D01*
X138286000Y-99712000D02*
X138286000Y-102822000D01*
X138286000Y-100282000D02*
X138286000Y-102822000D01*
X138286000Y-104442000D02*
X138286000Y-107902000D01*
X138286000Y-109522000D02*
X138286000Y-112982000D01*
X138286000Y-114602000D02*
X138286000Y-118062000D01*
X138286000Y-119682000D02*
X138286000Y-122792000D01*
X138286000Y-122222000D02*
X138286000Y-122792000D01*
X138286000Y-122792000D02*
X135526000Y-122792000D01*
%LPC*%
D12*
X132702300Y-110858300D03*
X132702300Y-111645700D03*
X133489700Y-110858300D03*
X133489700Y-111645700D03*
D13*
X124206000Y-101092000D03*
D14*
X124206000Y-103632000D03*
D13*
X124206000Y-106172000D03*
X124206000Y-108712000D03*
X124206000Y-111252000D03*
X124206000Y-113792000D03*
X124206000Y-116332000D03*
X124206000Y-118872000D03*
X124206000Y-121412000D03*
X141986000Y-101092000D03*
X141986000Y-103632000D03*
X141986000Y-106172000D03*
X141986000Y-108712000D03*
X141986000Y-111252000D03*
X141986000Y-113792000D03*
X141986000Y-116332000D03*
X141986000Y-118872000D03*
X141986000Y-121412000D03*
D15*
X130941000Y-101092000D03*
X127631000Y-103632000D03*
X130941000Y-106172000D03*
X127631000Y-108712000D03*
X130941000Y-111252000D03*
X127631000Y-113792000D03*
X130941000Y-116332000D03*
X127631000Y-118872000D03*
X130941000Y-121412000D03*
X135251000Y-101092000D03*
X138561000Y-103632000D03*
X135251000Y-106172000D03*
X138561000Y-108712000D03*
X135251000Y-111252000D03*
X138561000Y-113792000D03*
X135251000Y-116332000D03*
X138561000Y-118872000D03*
X135251000Y-121412000D03*
%LPD*%
M02*
