G04 #@! TF.GenerationSoftware,KiCad,Pcbnew,9.0.6*
G04 #@! TF.CreationDate,2026-01-02T22:14:36-06:00*
G04 #@! TF.ProjectId,DHVQFN-14_3.65x3.65_P0.5,44485651-464e-42d3-9134-5f332e363578,rev?*
G04 #@! TF.SameCoordinates,Original*
G04 #@! TF.FileFunction,Copper,L2,Bot*
G04 #@! TF.FilePolarity,Positive*
%FSLAX46Y46*%
G04 Gerber Fmt 4.6, Leading zero omitted, Abs format (unit mm)*
G04 Created by KiCad (PCBNEW 9.0.6) date 2026-01-02 22:14:36*
%MOMM*%
%LPD*%
G01*
G04 APERTURE LIST*
G04 #@! TA.AperFunction,ComponentPad*
%ADD10C,0.508000*%
G04 #@! TD*
G04 #@! TA.AperFunction,ComponentPad*
%ADD11C,1.700000*%
G04 #@! TD*
G04 #@! TA.AperFunction,ComponentPad*
%ADD12R,1.700000X1.700000*%
G04 #@! TD*
G04 #@! TA.AperFunction,SMDPad,CuDef*
%ADD13R,2.510000X1.000000*%
G04 #@! TD*
G04 #@! TA.AperFunction,ViaPad*
%ADD14C,0.600000*%
G04 #@! TD*
G04 #@! TA.AperFunction,Conductor*
%ADD15C,0.500000*%
G04 #@! TD*
G04 APERTURE END LIST*
D10*
X132702300Y-110858300D03*
X132702300Y-111645700D03*
X133489700Y-110858300D03*
X133489700Y-111645700D03*
D11*
X124206000Y-101092000D03*
D12*
X124206000Y-103632000D03*
D11*
X124206000Y-106172000D03*
X124206000Y-108712000D03*
X124206000Y-111252000D03*
X124206000Y-113792000D03*
X124206000Y-116332000D03*
X124206000Y-118872000D03*
X124206000Y-121412000D03*
X141986000Y-101092000D03*
X141986000Y-103632000D03*
X141986000Y-106172000D03*
X141986000Y-108712000D03*
X141986000Y-111252000D03*
X141986000Y-113792000D03*
X141986000Y-116332000D03*
X141986000Y-118872000D03*
X141986000Y-121412000D03*
D13*
X130941000Y-101092000D03*
X127631000Y-103632000D03*
X130941000Y-106172000D03*
X127631000Y-108712000D03*
X130941000Y-111252000D03*
X127631000Y-113792000D03*
X130941000Y-116332000D03*
X127631000Y-118872000D03*
X130941000Y-121412000D03*
X135251000Y-101092000D03*
X138561000Y-103632000D03*
X135251000Y-106172000D03*
X138561000Y-108712000D03*
X135251000Y-111252000D03*
X138561000Y-113792000D03*
X135251000Y-116332000D03*
X138561000Y-118872000D03*
X135251000Y-121412000D03*
D14*
X133096000Y-120359274D03*
X139700000Y-104902000D03*
X133096000Y-103632000D03*
X129794000Y-108458000D03*
X130302000Y-114300000D03*
X136398000Y-108458000D03*
X139700000Y-117602000D03*
X126492000Y-117602000D03*
X135890000Y-114300000D03*
X126492000Y-104902000D03*
D15*
X141986000Y-113792000D02*
X138561000Y-113792000D01*
X124206000Y-108712000D02*
X127631000Y-108712000D01*
X124206000Y-116332000D02*
X130941000Y-116332000D01*
X141986000Y-118872000D02*
X138561000Y-118872000D01*
X124206000Y-103632000D02*
X127631000Y-103632000D01*
X124206000Y-118872000D02*
X127631000Y-118872000D01*
X124206000Y-106172000D02*
X130941000Y-106172000D01*
X141986000Y-116332000D02*
X135251000Y-116332000D01*
X141986000Y-103632000D02*
X138561000Y-103632000D01*
X124206000Y-121412000D02*
X141986000Y-121412000D01*
X141986000Y-101092000D02*
X124206000Y-101092000D01*
X124206000Y-113792000D02*
X127631000Y-113792000D01*
X141986000Y-106172000D02*
X135251000Y-106172000D01*
X141986000Y-108712000D02*
X138561000Y-108712000D01*
G04 #@! TA.AperFunction,Conductor*
G36*
X142698539Y-100432459D02*
G01*
X142744294Y-100485263D01*
X142755500Y-100536774D01*
X142755500Y-102306028D01*
X142735815Y-102373067D01*
X142683011Y-102418822D01*
X142613853Y-102428766D01*
X142575206Y-102416513D01*
X142504417Y-102380445D01*
X142504414Y-102380444D01*
X142504412Y-102380443D01*
X142302243Y-102314754D01*
X142302241Y-102314753D01*
X142302240Y-102314753D01*
X142140957Y-102289208D01*
X142092287Y-102281500D01*
X141879713Y-102281500D01*
X141831042Y-102289208D01*
X141669760Y-102314753D01*
X141467585Y-102380444D01*
X141278179Y-102476951D01*
X141106213Y-102601890D01*
X140955892Y-102752211D01*
X140899097Y-102830385D01*
X140843767Y-102873051D01*
X140798779Y-102881500D01*
X140315751Y-102881500D01*
X140248712Y-102861815D01*
X140216485Y-102831812D01*
X140173548Y-102774457D01*
X140173546Y-102774454D01*
X140173542Y-102774451D01*
X140058335Y-102688206D01*
X140058328Y-102688202D01*
X139923482Y-102637908D01*
X139923483Y-102637908D01*
X139863883Y-102631501D01*
X139863881Y-102631500D01*
X139863873Y-102631500D01*
X139863864Y-102631500D01*
X137258129Y-102631500D01*
X137258123Y-102631501D01*
X137198516Y-102637908D01*
X137063671Y-102688202D01*
X137063664Y-102688206D01*
X136948455Y-102774452D01*
X136948452Y-102774455D01*
X136862206Y-102889664D01*
X136862202Y-102889671D01*
X136811908Y-103024517D01*
X136805501Y-103084116D01*
X136805501Y-103084123D01*
X136805500Y-103084135D01*
X136805500Y-104179870D01*
X136805501Y-104179876D01*
X136811908Y-104239483D01*
X136862202Y-104374328D01*
X136862206Y-104374335D01*
X136948452Y-104489544D01*
X136948455Y-104489547D01*
X137063664Y-104575793D01*
X137063671Y-104575797D01*
X137198517Y-104626091D01*
X137198516Y-104626091D01*
X137205444Y-104626835D01*
X137258127Y-104632500D01*
X139863872Y-104632499D01*
X139923483Y-104626091D01*
X140058331Y-104575796D01*
X140173546Y-104489546D01*
X140211040Y-104439461D01*
X140216485Y-104432188D01*
X140272419Y-104390318D01*
X140315751Y-104382500D01*
X140798779Y-104382500D01*
X140865818Y-104402185D01*
X140899097Y-104433615D01*
X140955892Y-104511788D01*
X141106213Y-104662109D01*
X141278182Y-104787050D01*
X141286946Y-104791516D01*
X141337742Y-104839491D01*
X141354536Y-104907312D01*
X141331998Y-104973447D01*
X141286946Y-105012484D01*
X141278182Y-105016949D01*
X141106213Y-105141890D01*
X140955892Y-105292211D01*
X140899097Y-105370385D01*
X140843767Y-105413051D01*
X140798779Y-105421500D01*
X137005751Y-105421500D01*
X136938712Y-105401815D01*
X136906485Y-105371812D01*
X136863548Y-105314457D01*
X136863546Y-105314454D01*
X136863542Y-105314451D01*
X136748335Y-105228206D01*
X136748328Y-105228202D01*
X136613482Y-105177908D01*
X136613483Y-105177908D01*
X136553883Y-105171501D01*
X136553881Y-105171500D01*
X136553873Y-105171500D01*
X136553864Y-105171500D01*
X133948129Y-105171500D01*
X133948123Y-105171501D01*
X133888516Y-105177908D01*
X133753671Y-105228202D01*
X133753664Y-105228206D01*
X133638455Y-105314452D01*
X133638452Y-105314455D01*
X133552206Y-105429664D01*
X133552202Y-105429671D01*
X133501908Y-105564517D01*
X133495501Y-105624116D01*
X133495501Y-105624123D01*
X133495500Y-105624135D01*
X133495500Y-106719870D01*
X133495501Y-106719876D01*
X133501908Y-106779483D01*
X133552202Y-106914328D01*
X133552206Y-106914335D01*
X133638452Y-107029544D01*
X133638455Y-107029547D01*
X133753664Y-107115793D01*
X133753671Y-107115797D01*
X133888517Y-107166091D01*
X133888516Y-107166091D01*
X133895444Y-107166835D01*
X133948127Y-107172500D01*
X136553872Y-107172499D01*
X136613483Y-107166091D01*
X136748331Y-107115796D01*
X136863546Y-107029546D01*
X136890227Y-106993903D01*
X136906485Y-106972188D01*
X136962419Y-106930318D01*
X137005751Y-106922500D01*
X140798779Y-106922500D01*
X140865818Y-106942185D01*
X140899097Y-106973615D01*
X140955892Y-107051788D01*
X141106213Y-107202109D01*
X141278182Y-107327050D01*
X141286946Y-107331516D01*
X141337742Y-107379491D01*
X141354536Y-107447312D01*
X141331998Y-107513447D01*
X141286946Y-107552484D01*
X141278182Y-107556949D01*
X141106213Y-107681890D01*
X140955892Y-107832211D01*
X140899097Y-107910385D01*
X140843767Y-107953051D01*
X140798779Y-107961500D01*
X140315751Y-107961500D01*
X140248712Y-107941815D01*
X140216485Y-107911812D01*
X140173548Y-107854457D01*
X140173546Y-107854454D01*
X140173542Y-107854451D01*
X140058335Y-107768206D01*
X140058328Y-107768202D01*
X139923482Y-107717908D01*
X139923483Y-107717908D01*
X139863883Y-107711501D01*
X139863881Y-107711500D01*
X139863873Y-107711500D01*
X139863864Y-107711500D01*
X137258129Y-107711500D01*
X137258123Y-107711501D01*
X137198516Y-107717908D01*
X137063671Y-107768202D01*
X137063664Y-107768206D01*
X136948455Y-107854452D01*
X136948452Y-107854455D01*
X136862206Y-107969664D01*
X136862202Y-107969671D01*
X136811908Y-108104517D01*
X136805501Y-108164116D01*
X136805501Y-108164123D01*
X136805500Y-108164135D01*
X136805500Y-109259870D01*
X136805501Y-109259876D01*
X136811908Y-109319483D01*
X136862202Y-109454328D01*
X136862206Y-109454335D01*
X136948452Y-109569544D01*
X136948455Y-109569547D01*
X137063664Y-109655793D01*
X137063671Y-109655797D01*
X137198517Y-109706091D01*
X137198516Y-109706091D01*
X137205444Y-109706835D01*
X137258127Y-109712500D01*
X139863872Y-109712499D01*
X139923483Y-109706091D01*
X140058331Y-109655796D01*
X140173546Y-109569546D01*
X140200227Y-109533903D01*
X140216485Y-109512188D01*
X140272419Y-109470318D01*
X140315751Y-109462500D01*
X140798779Y-109462500D01*
X140865818Y-109482185D01*
X140899097Y-109513615D01*
X140955892Y-109591788D01*
X141106213Y-109742109D01*
X141278182Y-109867050D01*
X141286946Y-109871516D01*
X141337742Y-109919491D01*
X141354536Y-109987312D01*
X141331998Y-110053447D01*
X141286946Y-110092484D01*
X141278182Y-110096949D01*
X141106213Y-110221890D01*
X140955890Y-110372213D01*
X140830951Y-110544179D01*
X140734444Y-110733585D01*
X140668753Y-110935760D01*
X140635500Y-111145713D01*
X140635500Y-111358286D01*
X140668753Y-111568239D01*
X140734444Y-111770414D01*
X140830951Y-111959820D01*
X140955890Y-112131786D01*
X141106213Y-112282109D01*
X141278182Y-112407050D01*
X141286946Y-112411516D01*
X141337742Y-112459491D01*
X141354536Y-112527312D01*
X141331998Y-112593447D01*
X141286946Y-112632484D01*
X141278182Y-112636949D01*
X141106213Y-112761890D01*
X140955892Y-112912211D01*
X140899097Y-112990385D01*
X140843767Y-113033051D01*
X140798779Y-113041500D01*
X140315751Y-113041500D01*
X140248712Y-113021815D01*
X140216485Y-112991812D01*
X140173548Y-112934457D01*
X140173546Y-112934454D01*
X140173542Y-112934451D01*
X140058335Y-112848206D01*
X140058328Y-112848202D01*
X139923482Y-112797908D01*
X139923483Y-112797908D01*
X139863883Y-112791501D01*
X139863881Y-112791500D01*
X139863873Y-112791500D01*
X139863864Y-112791500D01*
X137258129Y-112791500D01*
X137258123Y-112791501D01*
X137198516Y-112797908D01*
X137063671Y-112848202D01*
X137063664Y-112848206D01*
X136948455Y-112934452D01*
X136948452Y-112934455D01*
X136862206Y-113049664D01*
X136862202Y-113049671D01*
X136811908Y-113184517D01*
X136805501Y-113244116D01*
X136805501Y-113244123D01*
X136805500Y-113244135D01*
X136805500Y-114339870D01*
X136805501Y-114339876D01*
X136811908Y-114399483D01*
X136862202Y-114534328D01*
X136862206Y-114534335D01*
X136948452Y-114649544D01*
X136948455Y-114649547D01*
X137063664Y-114735793D01*
X137063671Y-114735797D01*
X137198517Y-114786091D01*
X137198516Y-114786091D01*
X137205444Y-114786835D01*
X137258127Y-114792500D01*
X139863872Y-114792499D01*
X139923483Y-114786091D01*
X140058331Y-114735796D01*
X140173546Y-114649546D01*
X140200227Y-114613903D01*
X140216485Y-114592188D01*
X140272419Y-114550318D01*
X140315751Y-114542500D01*
X140798779Y-114542500D01*
X140865818Y-114562185D01*
X140899097Y-114593615D01*
X140955892Y-114671788D01*
X141106213Y-114822109D01*
X141278182Y-114947050D01*
X141286946Y-114951516D01*
X141337742Y-114999491D01*
X141354536Y-115067312D01*
X141331998Y-115133447D01*
X141286946Y-115172484D01*
X141278182Y-115176949D01*
X141106213Y-115301890D01*
X140955892Y-115452211D01*
X140899097Y-115530385D01*
X140843767Y-115573051D01*
X140798779Y-115581500D01*
X137005751Y-115581500D01*
X136938712Y-115561815D01*
X136906485Y-115531812D01*
X136863548Y-115474457D01*
X136863546Y-115474454D01*
X136863542Y-115474451D01*
X136748335Y-115388206D01*
X136748328Y-115388202D01*
X136613482Y-115337908D01*
X136613483Y-115337908D01*
X136553883Y-115331501D01*
X136553881Y-115331500D01*
X136553873Y-115331500D01*
X136553864Y-115331500D01*
X133948129Y-115331500D01*
X133948123Y-115331501D01*
X133888516Y-115337908D01*
X133753671Y-115388202D01*
X133753664Y-115388206D01*
X133638455Y-115474452D01*
X133638452Y-115474455D01*
X133552206Y-115589664D01*
X133552202Y-115589671D01*
X133501908Y-115724517D01*
X133495501Y-115784116D01*
X133495501Y-115784123D01*
X133495500Y-115784135D01*
X133495500Y-116879870D01*
X133495501Y-116879876D01*
X133501908Y-116939483D01*
X133552202Y-117074328D01*
X133552206Y-117074335D01*
X133638452Y-117189544D01*
X133638455Y-117189547D01*
X133753664Y-117275793D01*
X133753671Y-117275797D01*
X133888517Y-117326091D01*
X133888516Y-117326091D01*
X133895444Y-117326835D01*
X133948127Y-117332500D01*
X136553872Y-117332499D01*
X136613483Y-117326091D01*
X136748331Y-117275796D01*
X136863546Y-117189546D01*
X136890227Y-117153903D01*
X136906485Y-117132188D01*
X136962419Y-117090318D01*
X137005751Y-117082500D01*
X140798779Y-117082500D01*
X140865818Y-117102185D01*
X140899097Y-117133615D01*
X140955892Y-117211788D01*
X141106213Y-117362109D01*
X141278182Y-117487050D01*
X141286946Y-117491516D01*
X141337742Y-117539491D01*
X141354536Y-117607312D01*
X141331998Y-117673447D01*
X141286946Y-117712484D01*
X141278182Y-117716949D01*
X141106213Y-117841890D01*
X140955892Y-117992211D01*
X140899097Y-118070385D01*
X140843767Y-118113051D01*
X140798779Y-118121500D01*
X140315751Y-118121500D01*
X140248712Y-118101815D01*
X140216485Y-118071812D01*
X140173548Y-118014457D01*
X140173546Y-118014454D01*
X140173542Y-118014451D01*
X140058335Y-117928206D01*
X140058328Y-117928202D01*
X139923482Y-117877908D01*
X139923483Y-117877908D01*
X139863883Y-117871501D01*
X139863881Y-117871500D01*
X139863873Y-117871500D01*
X139863864Y-117871500D01*
X137258129Y-117871500D01*
X137258123Y-117871501D01*
X137198516Y-117877908D01*
X137063671Y-117928202D01*
X137063664Y-117928206D01*
X136948455Y-118014452D01*
X136948452Y-118014455D01*
X136862206Y-118129664D01*
X136862202Y-118129671D01*
X136811908Y-118264517D01*
X136805501Y-118324116D01*
X136805501Y-118324123D01*
X136805500Y-118324135D01*
X136805500Y-119419870D01*
X136805501Y-119419876D01*
X136811908Y-119479483D01*
X136862202Y-119614328D01*
X136862206Y-119614335D01*
X136948452Y-119729544D01*
X136948455Y-119729547D01*
X137063664Y-119815793D01*
X137063671Y-119815797D01*
X137198517Y-119866091D01*
X137198516Y-119866091D01*
X137205444Y-119866835D01*
X137258127Y-119872500D01*
X139863872Y-119872499D01*
X139923483Y-119866091D01*
X140058331Y-119815796D01*
X140173546Y-119729546D01*
X140200227Y-119693903D01*
X140216485Y-119672188D01*
X140272419Y-119630318D01*
X140315751Y-119622500D01*
X140798779Y-119622500D01*
X140865818Y-119642185D01*
X140899097Y-119673615D01*
X140955892Y-119751788D01*
X141106213Y-119902109D01*
X141278179Y-120027048D01*
X141278181Y-120027049D01*
X141278184Y-120027051D01*
X141467588Y-120123557D01*
X141669757Y-120189246D01*
X141879713Y-120222500D01*
X141879714Y-120222500D01*
X142092286Y-120222500D01*
X142092287Y-120222500D01*
X142302243Y-120189246D01*
X142504412Y-120123557D01*
X142575205Y-120087485D01*
X142643874Y-120074590D01*
X142708614Y-120100866D01*
X142748872Y-120157972D01*
X142755500Y-120197971D01*
X142755500Y-122147774D01*
X142735815Y-122214813D01*
X142683011Y-122260568D01*
X142631500Y-122271774D01*
X123560500Y-122271774D01*
X123493461Y-122252089D01*
X123447706Y-122199285D01*
X123436500Y-122147774D01*
X123436500Y-120197971D01*
X123456185Y-120130932D01*
X123508989Y-120085177D01*
X123578147Y-120075233D01*
X123616793Y-120087485D01*
X123687588Y-120123557D01*
X123889757Y-120189246D01*
X124099713Y-120222500D01*
X124099714Y-120222500D01*
X124312286Y-120222500D01*
X124312287Y-120222500D01*
X124522243Y-120189246D01*
X124724412Y-120123557D01*
X124913816Y-120027051D01*
X124935789Y-120011086D01*
X125085786Y-119902109D01*
X125085788Y-119902106D01*
X125085792Y-119902104D01*
X125236104Y-119751792D01*
X125252266Y-119729547D01*
X125292903Y-119673615D01*
X125348233Y-119630949D01*
X125393221Y-119622500D01*
X125876249Y-119622500D01*
X125943288Y-119642185D01*
X125975515Y-119672188D01*
X126018451Y-119729542D01*
X126018454Y-119729546D01*
X126018457Y-119729548D01*
X126133664Y-119815793D01*
X126133671Y-119815797D01*
X126268517Y-119866091D01*
X126268516Y-119866091D01*
X126275444Y-119866835D01*
X126328127Y-119872500D01*
X128933872Y-119872499D01*
X128993483Y-119866091D01*
X129128331Y-119815796D01*
X129243546Y-119729546D01*
X129329796Y-119614331D01*
X129380091Y-119479483D01*
X129386500Y-119419873D01*
X129386499Y-118324128D01*
X129380091Y-118264517D01*
X129329796Y-118129669D01*
X129329795Y-118129668D01*
X129329793Y-118129664D01*
X129243547Y-118014455D01*
X129243544Y-118014452D01*
X129128335Y-117928206D01*
X129128328Y-117928202D01*
X128993482Y-117877908D01*
X128993483Y-117877908D01*
X128933883Y-117871501D01*
X128933881Y-117871500D01*
X128933873Y-117871500D01*
X128933864Y-117871500D01*
X126328129Y-117871500D01*
X126328123Y-117871501D01*
X126268516Y-117877908D01*
X126133671Y-117928202D01*
X126133664Y-117928206D01*
X126018457Y-118014451D01*
X126018451Y-118014457D01*
X125975515Y-118071812D01*
X125919581Y-118113682D01*
X125876249Y-118121500D01*
X125393221Y-118121500D01*
X125326182Y-118101815D01*
X125292903Y-118070385D01*
X125236107Y-117992211D01*
X125085786Y-117841890D01*
X124913820Y-117716951D01*
X124913115Y-117716591D01*
X124905054Y-117712485D01*
X124854259Y-117664512D01*
X124837463Y-117596692D01*
X124859999Y-117530556D01*
X124905054Y-117491515D01*
X124913816Y-117487051D01*
X124935789Y-117471086D01*
X125085786Y-117362109D01*
X125085788Y-117362106D01*
X125085792Y-117362104D01*
X125236104Y-117211792D01*
X125252266Y-117189547D01*
X125292903Y-117133615D01*
X125348233Y-117090949D01*
X125393221Y-117082500D01*
X129186249Y-117082500D01*
X129253288Y-117102185D01*
X129285515Y-117132188D01*
X129328451Y-117189542D01*
X129328454Y-117189546D01*
X129328457Y-117189548D01*
X129443664Y-117275793D01*
X129443671Y-117275797D01*
X129578517Y-117326091D01*
X129578516Y-117326091D01*
X129585444Y-117326835D01*
X129638127Y-117332500D01*
X132243872Y-117332499D01*
X132303483Y-117326091D01*
X132438331Y-117275796D01*
X132553546Y-117189546D01*
X132639796Y-117074331D01*
X132690091Y-116939483D01*
X132696500Y-116879873D01*
X132696499Y-115784128D01*
X132690091Y-115724517D01*
X132639796Y-115589669D01*
X132639795Y-115589668D01*
X132639793Y-115589664D01*
X132553547Y-115474455D01*
X132553544Y-115474452D01*
X132438335Y-115388206D01*
X132438328Y-115388202D01*
X132303482Y-115337908D01*
X132303483Y-115337908D01*
X132243883Y-115331501D01*
X132243881Y-115331500D01*
X132243873Y-115331500D01*
X132243864Y-115331500D01*
X129638129Y-115331500D01*
X129638123Y-115331501D01*
X129578516Y-115337908D01*
X129443671Y-115388202D01*
X129443664Y-115388206D01*
X129328457Y-115474451D01*
X129328451Y-115474457D01*
X129285515Y-115531812D01*
X129229581Y-115573682D01*
X129186249Y-115581500D01*
X125393221Y-115581500D01*
X125326182Y-115561815D01*
X125292903Y-115530385D01*
X125236107Y-115452211D01*
X125085786Y-115301890D01*
X124913820Y-115176951D01*
X124913115Y-115176591D01*
X124905054Y-115172485D01*
X124854259Y-115124512D01*
X124837463Y-115056692D01*
X124859999Y-114990556D01*
X124905054Y-114951515D01*
X124913816Y-114947051D01*
X124935789Y-114931086D01*
X125085786Y-114822109D01*
X125085788Y-114822106D01*
X125085792Y-114822104D01*
X125236104Y-114671792D01*
X125252266Y-114649547D01*
X125292903Y-114593615D01*
X125348233Y-114550949D01*
X125393221Y-114542500D01*
X125876249Y-114542500D01*
X125943288Y-114562185D01*
X125975515Y-114592188D01*
X126018451Y-114649542D01*
X126018454Y-114649546D01*
X126018457Y-114649548D01*
X126133664Y-114735793D01*
X126133671Y-114735797D01*
X126268517Y-114786091D01*
X126268516Y-114786091D01*
X126275444Y-114786835D01*
X126328127Y-114792500D01*
X128933872Y-114792499D01*
X128993483Y-114786091D01*
X129128331Y-114735796D01*
X129243546Y-114649546D01*
X129329796Y-114534331D01*
X129380091Y-114399483D01*
X129386500Y-114339873D01*
X129386499Y-113244128D01*
X129380091Y-113184517D01*
X129329796Y-113049669D01*
X129329795Y-113049668D01*
X129329793Y-113049664D01*
X129243547Y-112934455D01*
X129243544Y-112934452D01*
X129128335Y-112848206D01*
X129128328Y-112848202D01*
X128993482Y-112797908D01*
X128993483Y-112797908D01*
X128933883Y-112791501D01*
X128933881Y-112791500D01*
X128933873Y-112791500D01*
X128933864Y-112791500D01*
X126328129Y-112791500D01*
X126328123Y-112791501D01*
X126268516Y-112797908D01*
X126133671Y-112848202D01*
X126133664Y-112848206D01*
X126018457Y-112934451D01*
X126018451Y-112934457D01*
X125975515Y-112991812D01*
X125919581Y-113033682D01*
X125876249Y-113041500D01*
X125393221Y-113041500D01*
X125326182Y-113021815D01*
X125292903Y-112990385D01*
X125236107Y-112912211D01*
X125085786Y-112761890D01*
X124913820Y-112636951D01*
X124913115Y-112636591D01*
X124905054Y-112632485D01*
X124854259Y-112584512D01*
X124837463Y-112516692D01*
X124859999Y-112450556D01*
X124905054Y-112411515D01*
X124913816Y-112407051D01*
X124963156Y-112371204D01*
X125085786Y-112282109D01*
X125085788Y-112282106D01*
X125085792Y-112282104D01*
X125236104Y-112131792D01*
X125236106Y-112131788D01*
X125236109Y-112131786D01*
X125361048Y-111959820D01*
X125361047Y-111959820D01*
X125361051Y-111959816D01*
X125457557Y-111770412D01*
X125523246Y-111568243D01*
X125556500Y-111358287D01*
X125556500Y-111145713D01*
X125523246Y-110935757D01*
X125457557Y-110733588D01*
X125442550Y-110704135D01*
X129185500Y-110704135D01*
X129185500Y-111799870D01*
X129185501Y-111799876D01*
X129191908Y-111859483D01*
X129242202Y-111994328D01*
X129242206Y-111994335D01*
X129328452Y-112109544D01*
X129328455Y-112109547D01*
X129443664Y-112195793D01*
X129443671Y-112195797D01*
X129578517Y-112246091D01*
X129578516Y-112246091D01*
X129585444Y-112246835D01*
X129638127Y-112252500D01*
X132214760Y-112252499D01*
X132281799Y-112272184D01*
X132283629Y-112273383D01*
X132344910Y-112314329D01*
X132482220Y-112371205D01*
X132627983Y-112400199D01*
X132627987Y-112400200D01*
X132627988Y-112400200D01*
X132776613Y-112400200D01*
X132776614Y-112400199D01*
X132922380Y-112371205D01*
X133048548Y-112318943D01*
X133118016Y-112311475D01*
X133143447Y-112318942D01*
X133269620Y-112371205D01*
X133415383Y-112400199D01*
X133415387Y-112400200D01*
X133415388Y-112400200D01*
X133564013Y-112400200D01*
X133564014Y-112400199D01*
X133709780Y-112371205D01*
X133847090Y-112314329D01*
X133908349Y-112273396D01*
X133975022Y-112252519D01*
X133977128Y-112252499D01*
X136553872Y-112252499D01*
X136613483Y-112246091D01*
X136748331Y-112195796D01*
X136863546Y-112109546D01*
X136949796Y-111994331D01*
X137000091Y-111859483D01*
X137006500Y-111799873D01*
X137006499Y-110704128D01*
X137000091Y-110644517D01*
X136962669Y-110544184D01*
X136949797Y-110509671D01*
X136949793Y-110509664D01*
X136863547Y-110394455D01*
X136863544Y-110394452D01*
X136748335Y-110308206D01*
X136748328Y-110308202D01*
X136613482Y-110257908D01*
X136613483Y-110257908D01*
X136553883Y-110251501D01*
X136553881Y-110251500D01*
X136553873Y-110251500D01*
X136553865Y-110251500D01*
X133977241Y-110251500D01*
X133910202Y-110231815D01*
X133908352Y-110230603D01*
X133847091Y-110189671D01*
X133709780Y-110132795D01*
X133709772Y-110132793D01*
X133564016Y-110103800D01*
X133564012Y-110103800D01*
X133415388Y-110103800D01*
X133415383Y-110103800D01*
X133269627Y-110132793D01*
X133269619Y-110132795D01*
X133143453Y-110185055D01*
X133073983Y-110192524D01*
X133048547Y-110185055D01*
X132922380Y-110132795D01*
X132922372Y-110132793D01*
X132776616Y-110103800D01*
X132776612Y-110103800D01*
X132627988Y-110103800D01*
X132627983Y-110103800D01*
X132482227Y-110132793D01*
X132482219Y-110132795D01*
X132344911Y-110189670D01*
X132344910Y-110189671D01*
X132283648Y-110230603D01*
X132216972Y-110251480D01*
X132214760Y-110251500D01*
X129638129Y-110251500D01*
X129638123Y-110251501D01*
X129578516Y-110257908D01*
X129443671Y-110308202D01*
X129443664Y-110308206D01*
X129328455Y-110394452D01*
X129328452Y-110394455D01*
X129242206Y-110509664D01*
X129242202Y-110509671D01*
X129191908Y-110644517D01*
X129185501Y-110704116D01*
X129185501Y-110704123D01*
X129185500Y-110704135D01*
X125442550Y-110704135D01*
X125361051Y-110544184D01*
X125361049Y-110544181D01*
X125361048Y-110544179D01*
X125236109Y-110372213D01*
X125085786Y-110221890D01*
X124913820Y-110096951D01*
X124913115Y-110096591D01*
X124905054Y-110092485D01*
X124854259Y-110044512D01*
X124837463Y-109976692D01*
X124859999Y-109910556D01*
X124905054Y-109871515D01*
X124913816Y-109867051D01*
X124935789Y-109851086D01*
X125085786Y-109742109D01*
X125085788Y-109742106D01*
X125085792Y-109742104D01*
X125236104Y-109591792D01*
X125252266Y-109569547D01*
X125292903Y-109513615D01*
X125348233Y-109470949D01*
X125393221Y-109462500D01*
X125876249Y-109462500D01*
X125943288Y-109482185D01*
X125975515Y-109512188D01*
X126018451Y-109569542D01*
X126018454Y-109569546D01*
X126018457Y-109569548D01*
X126133664Y-109655793D01*
X126133671Y-109655797D01*
X126268517Y-109706091D01*
X126268516Y-109706091D01*
X126275444Y-109706835D01*
X126328127Y-109712500D01*
X128933872Y-109712499D01*
X128993483Y-109706091D01*
X129128331Y-109655796D01*
X129243546Y-109569546D01*
X129329796Y-109454331D01*
X129380091Y-109319483D01*
X129386500Y-109259873D01*
X129386499Y-108164128D01*
X129380091Y-108104517D01*
X129329796Y-107969669D01*
X129329795Y-107969668D01*
X129329793Y-107969664D01*
X129243547Y-107854455D01*
X129243544Y-107854452D01*
X129128335Y-107768206D01*
X129128328Y-107768202D01*
X128993482Y-107717908D01*
X128993483Y-107717908D01*
X128933883Y-107711501D01*
X128933881Y-107711500D01*
X128933873Y-107711500D01*
X128933864Y-107711500D01*
X126328129Y-107711500D01*
X126328123Y-107711501D01*
X126268516Y-107717908D01*
X126133671Y-107768202D01*
X126133664Y-107768206D01*
X126018457Y-107854451D01*
X126018451Y-107854457D01*
X125975515Y-107911812D01*
X125919581Y-107953682D01*
X125876249Y-107961500D01*
X125393221Y-107961500D01*
X125326182Y-107941815D01*
X125292903Y-107910385D01*
X125236107Y-107832211D01*
X125085786Y-107681890D01*
X124913820Y-107556951D01*
X124913115Y-107556591D01*
X124905054Y-107552485D01*
X124854259Y-107504512D01*
X124837463Y-107436692D01*
X124859999Y-107370556D01*
X124905054Y-107331515D01*
X124913816Y-107327051D01*
X124935789Y-107311086D01*
X125085786Y-107202109D01*
X125085788Y-107202106D01*
X125085792Y-107202104D01*
X125236104Y-107051792D01*
X125252266Y-107029547D01*
X125292903Y-106973615D01*
X125348233Y-106930949D01*
X125393221Y-106922500D01*
X129186249Y-106922500D01*
X129253288Y-106942185D01*
X129285515Y-106972188D01*
X129328451Y-107029542D01*
X129328454Y-107029546D01*
X129328457Y-107029548D01*
X129443664Y-107115793D01*
X129443671Y-107115797D01*
X129578517Y-107166091D01*
X129578516Y-107166091D01*
X129585444Y-107166835D01*
X129638127Y-107172500D01*
X132243872Y-107172499D01*
X132303483Y-107166091D01*
X132438331Y-107115796D01*
X132553546Y-107029546D01*
X132639796Y-106914331D01*
X132690091Y-106779483D01*
X132696500Y-106719873D01*
X132696499Y-105624128D01*
X132690091Y-105564517D01*
X132639796Y-105429669D01*
X132639795Y-105429668D01*
X132639793Y-105429664D01*
X132553547Y-105314455D01*
X132553544Y-105314452D01*
X132438335Y-105228206D01*
X132438328Y-105228202D01*
X132303482Y-105177908D01*
X132303483Y-105177908D01*
X132243883Y-105171501D01*
X132243881Y-105171500D01*
X132243873Y-105171500D01*
X132243864Y-105171500D01*
X129638129Y-105171500D01*
X129638123Y-105171501D01*
X129578516Y-105177908D01*
X129443671Y-105228202D01*
X129443664Y-105228206D01*
X129328457Y-105314451D01*
X129328451Y-105314457D01*
X129285515Y-105371812D01*
X129229581Y-105413682D01*
X129186249Y-105421500D01*
X125393221Y-105421500D01*
X125326182Y-105401815D01*
X125292903Y-105370385D01*
X125236107Y-105292211D01*
X125122569Y-105178673D01*
X125089084Y-105117350D01*
X125094068Y-105047658D01*
X125135940Y-104991725D01*
X125166915Y-104974810D01*
X125298331Y-104925796D01*
X125413546Y-104839546D01*
X125499796Y-104724331D01*
X125550091Y-104589483D01*
X125556500Y-104529873D01*
X125556500Y-104506500D01*
X125559050Y-104497814D01*
X125557762Y-104488853D01*
X125568740Y-104464812D01*
X125576185Y-104439461D01*
X125583025Y-104433533D01*
X125586787Y-104425297D01*
X125609021Y-104411007D01*
X125628989Y-104393706D01*
X125639503Y-104391418D01*
X125645565Y-104387523D01*
X125680500Y-104382500D01*
X125876249Y-104382500D01*
X125943288Y-104402185D01*
X125975515Y-104432188D01*
X125980960Y-104439461D01*
X126018454Y-104489546D01*
X126018457Y-104489548D01*
X126133664Y-104575793D01*
X126133671Y-104575797D01*
X126268517Y-104626091D01*
X126268516Y-104626091D01*
X126275444Y-104626835D01*
X126328127Y-104632500D01*
X128933872Y-104632499D01*
X128993483Y-104626091D01*
X129128331Y-104575796D01*
X129243546Y-104489546D01*
X129329796Y-104374331D01*
X129380091Y-104239483D01*
X129386500Y-104179873D01*
X129386499Y-103084128D01*
X129380091Y-103024517D01*
X129329796Y-102889669D01*
X129329795Y-102889668D01*
X129329793Y-102889664D01*
X129243547Y-102774455D01*
X129243544Y-102774452D01*
X129128335Y-102688206D01*
X129128328Y-102688202D01*
X128993482Y-102637908D01*
X128993483Y-102637908D01*
X128933883Y-102631501D01*
X128933881Y-102631500D01*
X128933873Y-102631500D01*
X128933864Y-102631500D01*
X126328129Y-102631500D01*
X126328123Y-102631501D01*
X126268516Y-102637908D01*
X126133671Y-102688202D01*
X126133664Y-102688206D01*
X126018457Y-102774451D01*
X126018451Y-102774457D01*
X125975515Y-102831812D01*
X125971859Y-102834548D01*
X125969962Y-102838703D01*
X125944144Y-102855294D01*
X125919581Y-102873682D01*
X125913953Y-102874697D01*
X125911184Y-102876477D01*
X125876249Y-102881500D01*
X125680499Y-102881500D01*
X125613460Y-102861815D01*
X125567705Y-102809011D01*
X125556499Y-102757500D01*
X125556499Y-102734129D01*
X125556498Y-102734123D01*
X125550091Y-102674516D01*
X125499797Y-102539671D01*
X125499793Y-102539664D01*
X125413547Y-102424455D01*
X125413544Y-102424452D01*
X125298335Y-102338206D01*
X125298328Y-102338202D01*
X125163482Y-102287908D01*
X125163483Y-102287908D01*
X125103883Y-102281501D01*
X125103881Y-102281500D01*
X125103873Y-102281500D01*
X125103865Y-102281500D01*
X123560500Y-102281500D01*
X123493461Y-102261815D01*
X123447706Y-102209011D01*
X123436500Y-102157500D01*
X123436500Y-100536774D01*
X123456185Y-100469735D01*
X123508989Y-100423980D01*
X123560500Y-100412774D01*
X142631500Y-100412774D01*
X142698539Y-100432459D01*
G37*
G04 #@! TD.AperFunction*
M02*
