G04 #@! TF.GenerationSoftware,KiCad,Pcbnew,9.0.6*
G04 #@! TF.CreationDate,2025-12-31T13:07:48-06:00*
G04 #@! TF.ProjectId,QFN-68_8x8,51464e2d-3638-45f3-9878-382e6b696361,rev?*
G04 #@! TF.SameCoordinates,Original*
G04 #@! TF.FileFunction,Copper,L1,Top*
G04 #@! TF.FilePolarity,Positive*
%FSLAX46Y46*%
G04 Gerber Fmt 4.6, Leading zero omitted, Abs format (unit mm)*
G04 Created by KiCad (PCBNEW 9.0.6) date 2025-12-31 13:07:48*
%MOMM*%
%LPD*%
G01*
G04 APERTURE LIST*
G04 Aperture macros list*
%AMRoundRect*
0 Rectangle with rounded corners*
0 $1 Rounding radius*
0 $2 $3 $4 $5 $6 $7 $8 $9 X,Y pos of 4 corners*
0 Add a 4 corners polygon primitive as box body*
4,1,4,$2,$3,$4,$5,$6,$7,$8,$9,$2,$3,0*
0 Add four circle primitives for the rounded corners*
1,1,$1+$1,$2,$3*
1,1,$1+$1,$4,$5*
1,1,$1+$1,$6,$7*
1,1,$1+$1,$8,$9*
0 Add four rect primitives between the rounded corners*
20,1,$1+$1,$2,$3,$4,$5,0*
20,1,$1+$1,$4,$5,$6,$7,0*
20,1,$1+$1,$6,$7,$8,$9,0*
20,1,$1+$1,$8,$9,$2,$3,0*%
%AMRotRect*
0 Rectangle, with rotation*
0 The origin of the aperture is its center*
0 $1 length*
0 $2 width*
0 $3 Rotation angle, in degrees counterclockwise*
0 Add horizontal line*
21,1,$1,$2,0,0,$3*%
G04 Aperture macros list end*
G04 #@! TA.AperFunction,SMDPad,CuDef*
%ADD10RoundRect,0.050000X-0.437522X0.366812X0.366812X-0.437522X0.437522X-0.366812X-0.366812X0.437522X0*%
G04 #@! TD*
G04 #@! TA.AperFunction,SMDPad,CuDef*
%ADD11RoundRect,0.050000X-0.437522X-0.366812X-0.366812X-0.437522X0.437522X0.366812X0.366812X0.437522X0*%
G04 #@! TD*
G04 #@! TA.AperFunction,HeatsinkPad*
%ADD12C,0.500000*%
G04 #@! TD*
G04 #@! TA.AperFunction,HeatsinkPad*
%ADD13RotRect,5.200000X5.200000X315.000000*%
G04 #@! TD*
G04 #@! TA.AperFunction,ComponentPad*
%ADD14C,1.700000*%
G04 #@! TD*
G04 #@! TA.AperFunction,Conductor*
%ADD15C,0.200000*%
G04 #@! TD*
G04 APERTURE END LIST*
D10*
X137728904Y-115578099D03*
X137446061Y-115860942D03*
X137163218Y-116143785D03*
X136880376Y-116426627D03*
X136597533Y-116709470D03*
X136314690Y-116992313D03*
X136031847Y-117275156D03*
X135749005Y-117557998D03*
X135466162Y-117840841D03*
X135183319Y-118123684D03*
X134900477Y-118406526D03*
X134617634Y-118689369D03*
X134334791Y-118972212D03*
X134051948Y-119255055D03*
X133769106Y-119537897D03*
X133486263Y-119820740D03*
X133203420Y-120103583D03*
D11*
X133203420Y-121505775D03*
X133486263Y-121788618D03*
X133769106Y-122071461D03*
X134051948Y-122354303D03*
X134334791Y-122637146D03*
X134617634Y-122919989D03*
X134900477Y-123202832D03*
X135183319Y-123485674D03*
X135466162Y-123768517D03*
X135749005Y-124051360D03*
X136031847Y-124334202D03*
X136314690Y-124617045D03*
X136597533Y-124899888D03*
X136880376Y-125182731D03*
X137163218Y-125465573D03*
X137446061Y-125748416D03*
X137728904Y-126031259D03*
D10*
X139131096Y-126031259D03*
X139413939Y-125748416D03*
X139696782Y-125465573D03*
X139979624Y-125182731D03*
X140262467Y-124899888D03*
X140545310Y-124617045D03*
X140828153Y-124334202D03*
X141110995Y-124051360D03*
X141393838Y-123768517D03*
X141676681Y-123485674D03*
X141959523Y-123202832D03*
X142242366Y-122919989D03*
X142525209Y-122637146D03*
X142808052Y-122354303D03*
X143090894Y-122071461D03*
X143373737Y-121788618D03*
X143656580Y-121505775D03*
D11*
X143656580Y-120103583D03*
X143373737Y-119820740D03*
X143090894Y-119537897D03*
X142808052Y-119255055D03*
X142525209Y-118972212D03*
X142242366Y-118689369D03*
X141959523Y-118406526D03*
X141676681Y-118123684D03*
X141393838Y-117840841D03*
X141110995Y-117557998D03*
X140828153Y-117275156D03*
X140545310Y-116992313D03*
X140262467Y-116709470D03*
X139979624Y-116426627D03*
X139696782Y-116143785D03*
X139413939Y-115860942D03*
X139131096Y-115578099D03*
D12*
X138430000Y-117481277D03*
X136768299Y-119142978D03*
X135106598Y-120804679D03*
X137599150Y-118312128D03*
X135937449Y-119973829D03*
X139260850Y-118312128D03*
X138430000Y-119142978D03*
X136768299Y-120804679D03*
X135937449Y-121635529D03*
X137599150Y-119973829D03*
X140091701Y-119142978D03*
X139260850Y-119973829D03*
X138430000Y-120804679D03*
D13*
X138430000Y-120804679D03*
D12*
X137599150Y-121635529D03*
X136768299Y-122466380D03*
X139260850Y-121635529D03*
X140922551Y-119973829D03*
X140091701Y-120804679D03*
X138430000Y-122466380D03*
X137599150Y-123297230D03*
X140922551Y-121635529D03*
X139260850Y-123297230D03*
X141753402Y-120804679D03*
X140091701Y-122466380D03*
X138430000Y-124128081D03*
D14*
X127000000Y-76200000D03*
X127000000Y-78740000D03*
X127000000Y-81280000D03*
X127000000Y-83820000D03*
X127000000Y-86360000D03*
X127000000Y-88900000D03*
X127000000Y-91440000D03*
X127000000Y-93980000D03*
X127000000Y-96520000D03*
X127000000Y-99060000D03*
X127000000Y-101600000D03*
X127000000Y-104140000D03*
X127000000Y-106680000D03*
X127000000Y-109220000D03*
X127000000Y-111760000D03*
X127000000Y-114300000D03*
X127000000Y-116840000D03*
X127000000Y-119380000D03*
X127000000Y-121920000D03*
X127000000Y-124460000D03*
X127000000Y-127000000D03*
X127000000Y-129540000D03*
X127000000Y-132080000D03*
X127000000Y-134620000D03*
X127000000Y-137160000D03*
X127000000Y-139700000D03*
X127000000Y-142240000D03*
X127000000Y-144780000D03*
X127000000Y-147320000D03*
X127000000Y-149860000D03*
X127000000Y-152400000D03*
X127000000Y-154940000D03*
X127000000Y-157480000D03*
X127000000Y-160020000D03*
X127000000Y-162560000D03*
X127000000Y-165100000D03*
X149860000Y-76200000D03*
X149860000Y-78740000D03*
X149860000Y-81280000D03*
X149860000Y-83820000D03*
X149860000Y-86360000D03*
X149860000Y-88900000D03*
X149860000Y-91440000D03*
X149860000Y-93980000D03*
X149860000Y-96520000D03*
X149860000Y-99060000D03*
X149860000Y-101600000D03*
X149860000Y-104140000D03*
X149860000Y-106680000D03*
X149860000Y-109220000D03*
X149860000Y-111760000D03*
X149860000Y-114300000D03*
X149860000Y-116840000D03*
X149860000Y-119380000D03*
X149860000Y-121920000D03*
X149860000Y-124460000D03*
X149860000Y-127000000D03*
X149860000Y-129540000D03*
X149860000Y-132080000D03*
X149860000Y-134620000D03*
X149860000Y-137160000D03*
X149860000Y-139700000D03*
X149860000Y-142240000D03*
X149860000Y-144780000D03*
X149860000Y-147320000D03*
X149860000Y-149860000D03*
X149860000Y-152400000D03*
X149860000Y-154940000D03*
X149860000Y-157480000D03*
X149860000Y-160020000D03*
X149860000Y-162560000D03*
X149860000Y-165100000D03*
D15*
X133604000Y-126196365D02*
X133604000Y-138176000D01*
X133604000Y-138176000D02*
X127000000Y-144780000D01*
X135749005Y-124051360D02*
X133604000Y-126196365D01*
X135183319Y-118123684D02*
X132588000Y-115528365D01*
X132588000Y-107188000D02*
X127000000Y-101600000D01*
X132588000Y-115528365D02*
X132588000Y-107188000D01*
X137163218Y-116143785D02*
X136144000Y-115124567D01*
X136144000Y-92964000D02*
X127000000Y-83820000D01*
X136144000Y-115124567D02*
X136144000Y-92964000D01*
X134620000Y-99060000D02*
X127000000Y-91440000D01*
X136314690Y-116992313D02*
X134620000Y-115297623D01*
X134620000Y-115297623D02*
X134620000Y-99060000D01*
X133604000Y-115412993D02*
X133604000Y-103124000D01*
X135749005Y-117557998D02*
X133604000Y-115412993D01*
X133604000Y-103124000D02*
X127000000Y-96520000D01*
X137160000Y-88900000D02*
X127000000Y-78740000D01*
X137728904Y-115578099D02*
X137160000Y-115009195D01*
X137160000Y-115009195D02*
X137160000Y-88900000D01*
X136880376Y-125182731D02*
X135636000Y-126427107D01*
X135636000Y-126427107D02*
X135636000Y-146304000D01*
X135636000Y-146304000D02*
X127000000Y-154940000D01*
X134112000Y-101092000D02*
X127000000Y-93980000D01*
X134112000Y-115355309D02*
X134112000Y-101092000D01*
X136031847Y-117275156D02*
X134112000Y-115355309D01*
X136031847Y-124334202D02*
X134112000Y-126254049D01*
X134112000Y-140208000D02*
X127000000Y-147320000D01*
X134112000Y-126254049D02*
X134112000Y-140208000D01*
X136652000Y-115066881D02*
X136652000Y-90932000D01*
X137446061Y-115860942D02*
X136652000Y-115066881D01*
X136652000Y-90932000D02*
X127000000Y-81280000D01*
X136144000Y-148336000D02*
X127000000Y-157480000D01*
X136144000Y-126484791D02*
X136144000Y-148336000D01*
X137163218Y-125465573D02*
X136144000Y-126484791D01*
X132080000Y-126023309D02*
X132080000Y-132080000D01*
X134900477Y-123202832D02*
X132080000Y-126023309D01*
X132080000Y-132080000D02*
X127000000Y-137160000D01*
X131572000Y-125965623D02*
X131572000Y-130048000D01*
X131572000Y-130048000D02*
X127000000Y-134620000D01*
X134617634Y-122919989D02*
X131572000Y-125965623D01*
X130814881Y-124460000D02*
X127000000Y-124460000D01*
X133486263Y-121788618D02*
X130814881Y-124460000D01*
X133769106Y-122071461D02*
X128840567Y-127000000D01*
X128840567Y-127000000D02*
X127000000Y-127000000D01*
X133203420Y-121505775D02*
X132789195Y-121920000D01*
X132789195Y-121920000D02*
X127000000Y-121920000D01*
X135466162Y-117840841D02*
X133096000Y-115470679D01*
X133096000Y-115470679D02*
X133096000Y-105156000D01*
X133096000Y-105156000D02*
X127000000Y-99060000D01*
X134051948Y-119255055D02*
X130556000Y-115759107D01*
X130556000Y-114554000D02*
X127762000Y-111760000D01*
X130556000Y-115759107D02*
X130556000Y-114554000D01*
X127762000Y-111760000D02*
X127000000Y-111760000D01*
X137160000Y-152400000D02*
X127000000Y-162560000D01*
X137728904Y-126031259D02*
X137160000Y-126600163D01*
X137160000Y-126600163D02*
X137160000Y-152400000D01*
X133096000Y-136144000D02*
X127000000Y-142240000D01*
X135466162Y-123768517D02*
X133096000Y-126138679D01*
X133096000Y-126138679D02*
X133096000Y-136144000D01*
X134051948Y-122354303D02*
X130556000Y-125850251D01*
X130556000Y-127254000D02*
X128270000Y-129540000D01*
X128270000Y-129540000D02*
X127000000Y-129540000D01*
X130556000Y-125850251D02*
X130556000Y-127254000D01*
X130505523Y-116840000D02*
X127000000Y-116840000D01*
X133486263Y-119820740D02*
X130505523Y-116840000D01*
X136314690Y-124617045D02*
X134620000Y-126311735D01*
X134620000Y-126311735D02*
X134620000Y-142240000D01*
X134620000Y-142240000D02*
X127000000Y-149860000D01*
X133769106Y-119537897D02*
X128531209Y-114300000D01*
X128531209Y-114300000D02*
X127000000Y-114300000D01*
X135183319Y-123485674D02*
X132588000Y-126080993D01*
X132588000Y-134112000D02*
X127000000Y-139700000D01*
X132588000Y-126080993D02*
X132588000Y-134112000D01*
X135128000Y-144272000D02*
X127000000Y-152400000D01*
X135128000Y-126369421D02*
X135128000Y-144272000D01*
X136597533Y-124899888D02*
X135128000Y-126369421D01*
X136652000Y-126542477D02*
X136652000Y-150368000D01*
X137446061Y-125748416D02*
X136652000Y-126542477D01*
X136652000Y-150368000D02*
X127000000Y-160020000D01*
X132479837Y-119380000D02*
X127000000Y-119380000D01*
X133203420Y-120103583D02*
X132479837Y-119380000D01*
X136597533Y-116709470D02*
X135128000Y-115239937D01*
X135128000Y-97028000D02*
X127000000Y-88900000D01*
X135128000Y-115239937D02*
X135128000Y-97028000D01*
X136880376Y-116426627D02*
X135636000Y-115182251D01*
X135636000Y-115182251D02*
X135636000Y-94996000D01*
X135636000Y-94996000D02*
X127000000Y-86360000D01*
X134334791Y-118972212D02*
X131064000Y-115701421D01*
X131064000Y-115701421D02*
X131064000Y-113284000D01*
X131064000Y-113284000D02*
X127000000Y-109220000D01*
X131572000Y-115643735D02*
X131572000Y-111252000D01*
X131572000Y-111252000D02*
X127000000Y-106680000D01*
X134617634Y-118689369D02*
X131572000Y-115643735D01*
X134900477Y-118406526D02*
X132080000Y-115586049D01*
X132080000Y-109220000D02*
X127000000Y-104140000D01*
X132080000Y-115586049D02*
X132080000Y-109220000D01*
X134334791Y-122637146D02*
X131064000Y-125907937D01*
X131064000Y-128524000D02*
X127508000Y-132080000D01*
X127508000Y-132080000D02*
X127000000Y-132080000D01*
X131064000Y-125907937D02*
X131064000Y-128524000D01*
X144380163Y-119380000D02*
X149860000Y-119380000D01*
X143656580Y-120103583D02*
X144380163Y-119380000D01*
X141732000Y-115239937D02*
X141732000Y-97028000D01*
X141732000Y-97028000D02*
X149860000Y-88900000D01*
X140262467Y-116709470D02*
X141732000Y-115239937D01*
X143764000Y-126138679D02*
X143764000Y-136144000D01*
X141393838Y-123768517D02*
X143764000Y-126138679D01*
X143764000Y-136144000D02*
X149860000Y-142240000D01*
X140545310Y-124617045D02*
X142240000Y-126311735D01*
X142240000Y-126311735D02*
X142240000Y-142240000D01*
X142240000Y-142240000D02*
X149860000Y-149860000D01*
X142525209Y-118972212D02*
X145796000Y-115701421D01*
X145796000Y-115701421D02*
X145796000Y-113284000D01*
X145796000Y-113284000D02*
X149860000Y-109220000D01*
X142242366Y-118689369D02*
X145288000Y-115643735D01*
X145288000Y-115643735D02*
X145288000Y-111252000D01*
X145288000Y-111252000D02*
X149860000Y-106680000D01*
X141676681Y-118123684D02*
X144272000Y-115528365D01*
X144272000Y-115528365D02*
X144272000Y-107188000D01*
X144272000Y-107188000D02*
X149860000Y-101600000D01*
X139696782Y-116143785D02*
X140716000Y-115124567D01*
X140716000Y-115124567D02*
X140716000Y-92964000D01*
X140716000Y-92964000D02*
X149860000Y-83820000D01*
X148328791Y-114300000D02*
X149860000Y-114300000D01*
X143090894Y-119537897D02*
X148328791Y-114300000D01*
X142748000Y-140208000D02*
X149860000Y-147320000D01*
X142748000Y-126254049D02*
X142748000Y-140208000D01*
X140828153Y-124334202D02*
X142748000Y-126254049D01*
X143764000Y-105156000D02*
X149860000Y-99060000D01*
X141393838Y-117840841D02*
X143764000Y-115470679D01*
X143764000Y-115470679D02*
X143764000Y-105156000D01*
X149606000Y-111760000D02*
X149860000Y-111760000D01*
X146304000Y-115759107D02*
X146304000Y-115062000D01*
X146304000Y-115062000D02*
X149606000Y-111760000D01*
X142808052Y-119255055D02*
X146304000Y-115759107D01*
X149098000Y-129540000D02*
X149860000Y-129540000D01*
X146304000Y-126746000D02*
X149098000Y-129540000D01*
X146304000Y-125850251D02*
X146304000Y-126746000D01*
X142808052Y-122354303D02*
X146304000Y-125850251D01*
X139700000Y-88900000D02*
X149860000Y-78740000D01*
X139700000Y-115009195D02*
X139700000Y-88900000D01*
X139131096Y-115578099D02*
X139700000Y-115009195D01*
X139131096Y-126031259D02*
X139700000Y-126600163D01*
X139700000Y-152400000D02*
X149860000Y-162560000D01*
X139700000Y-126600163D02*
X139700000Y-152400000D01*
X140716000Y-126484791D02*
X140716000Y-148336000D01*
X140716000Y-148336000D02*
X149860000Y-157480000D01*
X139696782Y-125465573D02*
X140716000Y-126484791D01*
X140208000Y-115066881D02*
X140208000Y-90932000D01*
X139413939Y-115860942D02*
X140208000Y-115066881D01*
X140208000Y-90932000D02*
X149860000Y-81280000D01*
X146354477Y-116840000D02*
X149860000Y-116840000D01*
X143373737Y-119820740D02*
X146354477Y-116840000D01*
X143656580Y-121505775D02*
X144070805Y-121920000D01*
X144070805Y-121920000D02*
X149860000Y-121920000D01*
X143090894Y-122071461D02*
X148019433Y-127000000D01*
X148019433Y-127000000D02*
X149860000Y-127000000D01*
X144780000Y-132080000D02*
X149860000Y-137160000D01*
X144780000Y-126023309D02*
X144780000Y-132080000D01*
X141959523Y-123202832D02*
X144780000Y-126023309D01*
X140545310Y-116992313D02*
X142240000Y-115297623D01*
X142240000Y-115297623D02*
X142240000Y-99060000D01*
X142240000Y-99060000D02*
X149860000Y-91440000D01*
X145796000Y-128016000D02*
X149860000Y-132080000D01*
X145796000Y-125907937D02*
X145796000Y-128016000D01*
X142525209Y-122637146D02*
X145796000Y-125907937D01*
X141732000Y-126369421D02*
X141732000Y-144272000D01*
X140262467Y-124899888D02*
X141732000Y-126369421D01*
X141732000Y-144272000D02*
X149860000Y-152400000D01*
X141224000Y-115182251D02*
X141224000Y-94996000D01*
X139979624Y-116426627D02*
X141224000Y-115182251D01*
X141224000Y-94996000D02*
X149860000Y-86360000D01*
X145288000Y-125965623D02*
X145288000Y-130048000D01*
X142242366Y-122919989D02*
X145288000Y-125965623D01*
X145288000Y-130048000D02*
X149860000Y-134620000D01*
X144272000Y-134112000D02*
X149860000Y-139700000D01*
X141676681Y-123485674D02*
X144272000Y-126080993D01*
X144272000Y-126080993D02*
X144272000Y-134112000D01*
X144780000Y-109220000D02*
X149860000Y-104140000D01*
X144780000Y-115586049D02*
X144780000Y-109220000D01*
X141959523Y-118406526D02*
X144780000Y-115586049D01*
X141110995Y-124051360D02*
X143256000Y-126196365D01*
X143256000Y-126196365D02*
X143256000Y-138176000D01*
X143256000Y-138176000D02*
X149860000Y-144780000D01*
X142748000Y-115355309D02*
X142748000Y-101092000D01*
X142748000Y-101092000D02*
X149860000Y-93980000D01*
X140828153Y-117275156D02*
X142748000Y-115355309D01*
X141224000Y-146304000D02*
X149860000Y-154940000D01*
X139979624Y-125182731D02*
X141224000Y-126427107D01*
X141224000Y-126427107D02*
X141224000Y-146304000D01*
X141110995Y-117557998D02*
X143256000Y-115412993D01*
X143256000Y-115412993D02*
X143256000Y-103124000D01*
X143256000Y-103124000D02*
X149860000Y-96520000D01*
X140208000Y-126542477D02*
X140208000Y-150368000D01*
X139413939Y-125748416D02*
X140208000Y-126542477D01*
X140208000Y-150368000D02*
X149860000Y-160020000D01*
X143373737Y-121788618D02*
X146045119Y-124460000D01*
X146045119Y-124460000D02*
X149860000Y-124460000D01*
G04 #@! TA.AperFunction,Conductor*
G36*
X138519699Y-116540396D02*
G01*
X138527510Y-116549410D01*
X138556676Y-116586537D01*
X138556685Y-116586547D01*
X138688333Y-116718195D01*
X138688353Y-116718213D01*
X138761296Y-116775516D01*
X138782203Y-116796422D01*
X138839516Y-116869377D01*
X138839528Y-116869390D01*
X138971176Y-117001038D01*
X138971182Y-117001043D01*
X138971186Y-117001047D01*
X138971189Y-117001049D01*
X139044144Y-117058363D01*
X139065050Y-117079270D01*
X139122352Y-117152212D01*
X139122370Y-117152232D01*
X139254018Y-117283880D01*
X139254038Y-117283898D01*
X139326981Y-117341201D01*
X139347888Y-117362107D01*
X139405201Y-117435062D01*
X139405213Y-117435075D01*
X139536861Y-117566723D01*
X139536881Y-117566741D01*
X139609824Y-117624044D01*
X139630731Y-117644950D01*
X139688044Y-117717905D01*
X139688056Y-117717918D01*
X139819704Y-117849566D01*
X139819724Y-117849584D01*
X139892667Y-117906887D01*
X139913574Y-117927793D01*
X139970887Y-118000748D01*
X139970899Y-118000761D01*
X140102547Y-118132409D01*
X140102553Y-118132414D01*
X140102557Y-118132418D01*
X140102560Y-118132420D01*
X140175515Y-118189734D01*
X140196421Y-118210641D01*
X140253723Y-118283583D01*
X140253741Y-118283603D01*
X140385389Y-118415251D01*
X140385409Y-118415269D01*
X140458352Y-118472572D01*
X140479259Y-118493478D01*
X140536572Y-118566433D01*
X140536584Y-118566446D01*
X140668232Y-118698094D01*
X140668252Y-118698112D01*
X140741195Y-118755415D01*
X140762102Y-118776321D01*
X140819415Y-118849276D01*
X140819427Y-118849289D01*
X140951075Y-118980937D01*
X140951081Y-118980942D01*
X140951085Y-118980946D01*
X140951088Y-118980948D01*
X141024043Y-119038262D01*
X141044949Y-119059169D01*
X141102251Y-119132111D01*
X141102269Y-119132131D01*
X141233917Y-119263779D01*
X141233937Y-119263797D01*
X141306880Y-119321100D01*
X141327787Y-119342006D01*
X141385100Y-119414961D01*
X141385112Y-119414974D01*
X141516760Y-119546622D01*
X141516780Y-119546640D01*
X141589723Y-119603943D01*
X141610630Y-119624849D01*
X141667943Y-119697804D01*
X141667955Y-119697817D01*
X141799603Y-119829465D01*
X141799623Y-119829483D01*
X141872566Y-119886786D01*
X141893473Y-119907692D01*
X141950786Y-119980647D01*
X141950798Y-119980660D01*
X142082446Y-120112308D01*
X142082452Y-120112313D01*
X142082456Y-120112317D01*
X142082459Y-120112319D01*
X142155414Y-120169633D01*
X142176320Y-120190540D01*
X142233622Y-120263482D01*
X142233640Y-120263502D01*
X142365288Y-120395150D01*
X142365308Y-120395168D01*
X142438251Y-120452471D01*
X142459158Y-120473377D01*
X142516471Y-120546332D01*
X142516483Y-120546345D01*
X142648131Y-120677993D01*
X142648137Y-120677998D01*
X142648141Y-120678002D01*
X142648144Y-120678004D01*
X142685269Y-120707170D01*
X142725826Y-120764064D01*
X142729185Y-120833853D01*
X142694281Y-120894379D01*
X142685269Y-120902188D01*
X142648144Y-120931353D01*
X142648131Y-120931364D01*
X142516483Y-121063012D01*
X142516471Y-121063025D01*
X142459160Y-121135978D01*
X142438254Y-121156884D01*
X142365301Y-121214195D01*
X142365288Y-121214207D01*
X142233640Y-121345855D01*
X142233629Y-121345868D01*
X142176318Y-121418821D01*
X142155412Y-121439727D01*
X142082459Y-121497038D01*
X142082446Y-121497049D01*
X141950798Y-121628697D01*
X141950786Y-121628710D01*
X141893475Y-121701663D01*
X141872569Y-121722569D01*
X141799616Y-121779880D01*
X141799603Y-121779892D01*
X141667955Y-121911540D01*
X141667943Y-121911553D01*
X141610632Y-121984506D01*
X141589726Y-122005412D01*
X141516773Y-122062723D01*
X141516760Y-122062735D01*
X141385112Y-122194383D01*
X141385100Y-122194396D01*
X141327789Y-122267349D01*
X141306883Y-122288255D01*
X141233930Y-122345566D01*
X141233917Y-122345578D01*
X141102269Y-122477226D01*
X141102258Y-122477239D01*
X141044947Y-122550192D01*
X141024041Y-122571098D01*
X140951088Y-122628409D01*
X140951075Y-122628420D01*
X140819427Y-122760068D01*
X140819415Y-122760081D01*
X140762104Y-122833034D01*
X140741198Y-122853940D01*
X140668245Y-122911251D01*
X140668232Y-122911263D01*
X140536584Y-123042911D01*
X140536572Y-123042924D01*
X140479261Y-123115877D01*
X140458355Y-123136783D01*
X140385402Y-123194094D01*
X140385389Y-123194106D01*
X140253741Y-123325754D01*
X140253730Y-123325767D01*
X140196419Y-123398720D01*
X140175513Y-123419626D01*
X140102560Y-123476937D01*
X140102547Y-123476948D01*
X139970899Y-123608596D01*
X139970887Y-123608609D01*
X139913576Y-123681562D01*
X139892670Y-123702468D01*
X139819717Y-123759779D01*
X139819704Y-123759791D01*
X139688056Y-123891439D01*
X139688044Y-123891452D01*
X139630733Y-123964405D01*
X139609827Y-123985311D01*
X139536874Y-124042622D01*
X139536861Y-124042634D01*
X139405213Y-124174282D01*
X139405201Y-124174295D01*
X139347890Y-124247248D01*
X139326984Y-124268154D01*
X139254031Y-124325465D01*
X139254018Y-124325477D01*
X139122370Y-124457125D01*
X139122359Y-124457138D01*
X139065048Y-124530091D01*
X139044142Y-124550997D01*
X138971189Y-124608308D01*
X138971176Y-124608319D01*
X138839528Y-124739967D01*
X138839516Y-124739980D01*
X138782205Y-124812933D01*
X138761299Y-124833839D01*
X138688346Y-124891150D01*
X138688333Y-124891162D01*
X138556685Y-125022810D01*
X138556674Y-125022823D01*
X138527509Y-125059948D01*
X138470615Y-125100505D01*
X138400826Y-125103864D01*
X138340300Y-125068960D01*
X138332491Y-125059948D01*
X138303325Y-125022823D01*
X138303323Y-125022820D01*
X138303319Y-125022816D01*
X138303314Y-125022810D01*
X138171666Y-124891162D01*
X138171653Y-124891150D01*
X138098698Y-124833837D01*
X138077792Y-124812930D01*
X138020489Y-124739987D01*
X138020471Y-124739967D01*
X137888823Y-124608319D01*
X137888803Y-124608301D01*
X137815861Y-124550999D01*
X137794954Y-124530093D01*
X137737640Y-124457138D01*
X137737638Y-124457135D01*
X137737634Y-124457131D01*
X137737629Y-124457125D01*
X137605981Y-124325477D01*
X137605968Y-124325465D01*
X137533013Y-124268152D01*
X137512107Y-124247245D01*
X137454804Y-124174302D01*
X137454786Y-124174282D01*
X137323138Y-124042634D01*
X137323125Y-124042622D01*
X137250170Y-123985309D01*
X137229264Y-123964402D01*
X137171961Y-123891459D01*
X137171943Y-123891439D01*
X137040295Y-123759791D01*
X137040282Y-123759779D01*
X136967327Y-123702466D01*
X136946421Y-123681559D01*
X136889118Y-123608616D01*
X136889100Y-123608596D01*
X136757452Y-123476948D01*
X136757432Y-123476930D01*
X136684490Y-123419628D01*
X136663583Y-123398722D01*
X136606269Y-123325767D01*
X136606267Y-123325764D01*
X136606263Y-123325760D01*
X136606258Y-123325754D01*
X136474610Y-123194106D01*
X136474597Y-123194094D01*
X136401642Y-123136781D01*
X136380736Y-123115874D01*
X136323433Y-123042931D01*
X136323415Y-123042911D01*
X136191767Y-122911263D01*
X136191754Y-122911251D01*
X136118799Y-122853938D01*
X136097893Y-122833031D01*
X136040590Y-122760088D01*
X136040572Y-122760068D01*
X135908924Y-122628420D01*
X135908904Y-122628402D01*
X135835962Y-122571100D01*
X135815055Y-122550194D01*
X135757741Y-122477239D01*
X135757739Y-122477236D01*
X135757735Y-122477232D01*
X135757730Y-122477226D01*
X135626082Y-122345578D01*
X135626069Y-122345566D01*
X135553114Y-122288253D01*
X135532208Y-122267346D01*
X135474905Y-122194403D01*
X135474887Y-122194383D01*
X135343239Y-122062735D01*
X135343226Y-122062723D01*
X135270271Y-122005410D01*
X135249365Y-121984503D01*
X135192062Y-121911560D01*
X135192044Y-121911540D01*
X135060396Y-121779892D01*
X135060383Y-121779880D01*
X134987428Y-121722567D01*
X134966522Y-121701660D01*
X134909219Y-121628717D01*
X134909201Y-121628697D01*
X134777553Y-121497049D01*
X134777533Y-121497031D01*
X134704591Y-121439729D01*
X134683684Y-121418823D01*
X134626370Y-121345868D01*
X134626368Y-121345865D01*
X134626364Y-121345861D01*
X134626359Y-121345855D01*
X134494711Y-121214207D01*
X134494698Y-121214195D01*
X134421743Y-121156882D01*
X134400837Y-121135975D01*
X134343534Y-121063032D01*
X134343516Y-121063012D01*
X134211868Y-120931364D01*
X134211858Y-120931355D01*
X134200647Y-120922548D01*
X134174730Y-120902187D01*
X134134174Y-120845295D01*
X134130813Y-120775507D01*
X134165717Y-120714980D01*
X134174730Y-120707170D01*
X134211859Y-120678002D01*
X134343525Y-120546336D01*
X134398566Y-120476273D01*
X134398566Y-120476270D01*
X134400838Y-120473380D01*
X134421746Y-120452472D01*
X134424636Y-120450200D01*
X134424639Y-120450200D01*
X134494702Y-120395159D01*
X134626368Y-120263493D01*
X134681409Y-120193430D01*
X134681410Y-120193427D01*
X134683680Y-120190538D01*
X134704589Y-120169629D01*
X134707478Y-120167359D01*
X134707481Y-120167358D01*
X134777544Y-120112317D01*
X134909210Y-119980651D01*
X134964251Y-119910588D01*
X134964251Y-119910585D01*
X134966523Y-119907695D01*
X134987431Y-119886787D01*
X134990321Y-119884515D01*
X134990324Y-119884515D01*
X135060387Y-119829474D01*
X135192053Y-119697808D01*
X135247094Y-119627745D01*
X135247094Y-119627742D01*
X135249366Y-119624852D01*
X135270274Y-119603944D01*
X135273164Y-119601672D01*
X135273167Y-119601672D01*
X135343230Y-119546631D01*
X135474896Y-119414965D01*
X135529937Y-119344902D01*
X135529937Y-119344899D01*
X135532209Y-119342009D01*
X135553117Y-119321101D01*
X135556007Y-119318829D01*
X135556010Y-119318829D01*
X135626073Y-119263788D01*
X135757739Y-119132122D01*
X135812780Y-119062059D01*
X135812781Y-119062056D01*
X135815051Y-119059167D01*
X135835960Y-119038258D01*
X135838849Y-119035988D01*
X135838852Y-119035987D01*
X135908915Y-118980946D01*
X136040581Y-118849280D01*
X136095622Y-118779217D01*
X136095622Y-118779214D01*
X136097894Y-118776324D01*
X136118802Y-118755416D01*
X136121692Y-118753144D01*
X136121695Y-118753144D01*
X136191758Y-118698103D01*
X136323424Y-118566437D01*
X136378465Y-118496374D01*
X136378465Y-118496371D01*
X136380737Y-118493481D01*
X136401645Y-118472573D01*
X136404535Y-118470301D01*
X136404538Y-118470301D01*
X136474601Y-118415260D01*
X136606267Y-118283594D01*
X136661308Y-118213531D01*
X136661309Y-118213528D01*
X136663579Y-118210639D01*
X136684488Y-118189730D01*
X136687377Y-118187460D01*
X136687380Y-118187459D01*
X136757443Y-118132418D01*
X136889109Y-118000752D01*
X136944150Y-117930689D01*
X136944150Y-117930686D01*
X136946422Y-117927796D01*
X136967330Y-117906888D01*
X136970220Y-117904616D01*
X136970223Y-117904616D01*
X137040286Y-117849575D01*
X137171952Y-117717909D01*
X137226993Y-117647846D01*
X137226993Y-117647843D01*
X137229265Y-117644953D01*
X137250173Y-117624045D01*
X137253063Y-117621773D01*
X137253066Y-117621773D01*
X137323129Y-117566732D01*
X137454795Y-117435066D01*
X137509836Y-117365003D01*
X137509836Y-117365000D01*
X137512108Y-117362110D01*
X137533016Y-117341202D01*
X137535906Y-117338930D01*
X137535909Y-117338930D01*
X137605972Y-117283889D01*
X137737638Y-117152223D01*
X137792679Y-117082160D01*
X137792680Y-117082157D01*
X137794950Y-117079268D01*
X137815859Y-117058359D01*
X137818748Y-117056089D01*
X137818751Y-117056088D01*
X137888814Y-117001047D01*
X138020480Y-116869381D01*
X138075521Y-116799318D01*
X138075521Y-116799315D01*
X138077793Y-116796425D01*
X138098701Y-116775517D01*
X138101591Y-116773245D01*
X138101594Y-116773245D01*
X138171657Y-116718204D01*
X138303323Y-116586538D01*
X138332491Y-116549409D01*
X138389384Y-116508853D01*
X138459172Y-116505492D01*
X138519699Y-116540396D01*
G37*
G04 #@! TD.AperFunction*
M02*
