G04 #@! TF.GenerationSoftware,KiCad,Pcbnew,9.0.6*
G04 #@! TF.CreationDate,2025-12-31T13:07:48-06:00*
G04 #@! TF.ProjectId,QFN-68_8x8,51464e2d-3638-45f3-9878-382e6b696361,rev?*
G04 #@! TF.SameCoordinates,Original*
G04 #@! TF.FileFunction,Copper,L2,Bot*
G04 #@! TF.FilePolarity,Positive*
%FSLAX46Y46*%
G04 Gerber Fmt 4.6, Leading zero omitted, Abs format (unit mm)*
G04 Created by KiCad (PCBNEW 9.0.6) date 2025-12-31 13:07:48*
%MOMM*%
%LPD*%
G01*
G04 APERTURE LIST*
G04 Aperture macros list*
%AMRotRect*
0 Rectangle, with rotation*
0 The origin of the aperture is its center*
0 $1 length*
0 $2 width*
0 $3 Rotation angle, in degrees counterclockwise*
0 Add horizontal line*
21,1,$1,$2,0,0,$3*%
G04 Aperture macros list end*
G04 #@! TA.AperFunction,HeatsinkPad*
%ADD10C,0.500000*%
G04 #@! TD*
G04 #@! TA.AperFunction,HeatsinkPad*
%ADD11RotRect,5.200000X5.200000X315.000000*%
G04 #@! TD*
G04 #@! TA.AperFunction,ComponentPad*
%ADD12C,1.700000*%
G04 #@! TD*
G04 #@! TA.AperFunction,SMDPad,CuDef*
%ADD13R,2.510000X1.000000*%
G04 #@! TD*
G04 #@! TA.AperFunction,Conductor*
%ADD14C,0.500000*%
G04 #@! TD*
G04 #@! TA.AperFunction,Conductor*
%ADD15C,0.250000*%
G04 #@! TD*
G04 APERTURE END LIST*
D10*
X138430000Y-117481277D03*
X136768299Y-119142978D03*
X135106598Y-120804679D03*
X137599150Y-118312128D03*
X135937449Y-119973829D03*
X139260850Y-118312128D03*
X138430000Y-119142978D03*
X136768299Y-120804679D03*
X135937449Y-121635529D03*
X137599150Y-119973829D03*
X140091701Y-119142978D03*
X139260850Y-119973829D03*
X138430000Y-120804679D03*
D11*
X138430000Y-120804679D03*
D10*
X137599150Y-121635529D03*
X136768299Y-122466380D03*
X139260850Y-121635529D03*
X140922551Y-119973829D03*
X140091701Y-120804679D03*
X138430000Y-122466380D03*
X137599150Y-123297230D03*
X140922551Y-121635529D03*
X139260850Y-123297230D03*
X141753402Y-120804679D03*
X140091701Y-122466380D03*
X138430000Y-124128081D03*
D12*
X127000000Y-76200000D03*
X127000000Y-78740000D03*
X127000000Y-81280000D03*
X127000000Y-83820000D03*
X127000000Y-86360000D03*
X127000000Y-88900000D03*
X127000000Y-91440000D03*
X127000000Y-93980000D03*
X127000000Y-96520000D03*
X127000000Y-99060000D03*
X127000000Y-101600000D03*
X127000000Y-104140000D03*
X127000000Y-106680000D03*
X127000000Y-109220000D03*
X127000000Y-111760000D03*
X127000000Y-114300000D03*
X127000000Y-116840000D03*
X127000000Y-119380000D03*
X127000000Y-121920000D03*
X127000000Y-124460000D03*
X127000000Y-127000000D03*
X127000000Y-129540000D03*
X127000000Y-132080000D03*
X127000000Y-134620000D03*
X127000000Y-137160000D03*
X127000000Y-139700000D03*
X127000000Y-142240000D03*
X127000000Y-144780000D03*
X127000000Y-147320000D03*
X127000000Y-149860000D03*
X127000000Y-152400000D03*
X127000000Y-154940000D03*
X127000000Y-157480000D03*
X127000000Y-160020000D03*
X127000000Y-162560000D03*
X127000000Y-165100000D03*
X149860000Y-76200000D03*
X149860000Y-78740000D03*
X149860000Y-81280000D03*
X149860000Y-83820000D03*
X149860000Y-86360000D03*
X149860000Y-88900000D03*
X149860000Y-91440000D03*
X149860000Y-93980000D03*
X149860000Y-96520000D03*
X149860000Y-99060000D03*
X149860000Y-101600000D03*
X149860000Y-104140000D03*
X149860000Y-106680000D03*
X149860000Y-109220000D03*
X149860000Y-111760000D03*
X149860000Y-114300000D03*
X149860000Y-116840000D03*
X149860000Y-119380000D03*
X149860000Y-121920000D03*
X149860000Y-124460000D03*
X149860000Y-127000000D03*
X149860000Y-129540000D03*
X149860000Y-132080000D03*
X149860000Y-134620000D03*
X149860000Y-137160000D03*
X149860000Y-139700000D03*
X149860000Y-142240000D03*
X149860000Y-144780000D03*
X149860000Y-147320000D03*
X149860000Y-149860000D03*
X149860000Y-152400000D03*
X149860000Y-154940000D03*
X149860000Y-157480000D03*
X149860000Y-160020000D03*
X149860000Y-162560000D03*
X149860000Y-165100000D03*
D13*
X133099000Y-76200000D03*
X129789000Y-78740000D03*
X133099000Y-81280000D03*
X129789000Y-83820000D03*
X133099000Y-86360000D03*
X129789000Y-88900000D03*
X133099000Y-91440000D03*
X129789000Y-93980000D03*
X133099000Y-96520000D03*
X129789000Y-99060000D03*
X133099000Y-101600000D03*
X129789000Y-104140000D03*
X133099000Y-106680000D03*
X129789000Y-109220000D03*
X133099000Y-111760000D03*
X129789000Y-114300000D03*
X133099000Y-116840000D03*
X129789000Y-119380000D03*
X133099000Y-121920000D03*
X129789000Y-124460000D03*
X133099000Y-127000000D03*
X129789000Y-129540000D03*
X133099000Y-132080000D03*
X129789000Y-134620000D03*
X133099000Y-137160000D03*
X129789000Y-139700000D03*
X133099000Y-142240000D03*
X129789000Y-144780000D03*
X133099000Y-147320000D03*
X129789000Y-149860000D03*
X133099000Y-152400000D03*
X129789000Y-154940000D03*
X133099000Y-157480000D03*
X129789000Y-160020000D03*
X133099000Y-162560000D03*
X129789000Y-165100000D03*
X147071000Y-76200000D03*
X143761000Y-78740000D03*
X147071000Y-81280000D03*
X143761000Y-83820000D03*
X147071000Y-86360000D03*
X143761000Y-88900000D03*
X147071000Y-91440000D03*
X143761000Y-93980000D03*
X147071000Y-96520000D03*
X143761000Y-99060000D03*
X147071000Y-101600000D03*
X143761000Y-104140000D03*
X147071000Y-106680000D03*
X143761000Y-109220000D03*
X147071000Y-111760000D03*
X143761000Y-114300000D03*
X147071000Y-116840000D03*
X143761000Y-119380000D03*
X147071000Y-121920000D03*
X143761000Y-124460000D03*
X147071000Y-127000000D03*
X143761000Y-129540000D03*
X147071000Y-132080000D03*
X143761000Y-134620000D03*
X147071000Y-137160000D03*
X143761000Y-139700000D03*
X147071000Y-142240000D03*
X143761000Y-144780000D03*
X147071000Y-147320000D03*
X143761000Y-149860000D03*
X147071000Y-152400000D03*
X143761000Y-154940000D03*
X147071000Y-157480000D03*
X143761000Y-160020000D03*
X147071000Y-162560000D03*
X143761000Y-165100000D03*
D14*
X127000000Y-165100000D02*
X149860000Y-165100000D01*
X127000000Y-76200000D02*
X149860000Y-76200000D01*
D15*
X129540000Y-144780000D02*
X127000000Y-144780000D01*
X132840000Y-101600000D02*
X127000000Y-101600000D01*
X127000000Y-83820000D02*
X129540000Y-83820000D01*
X132840000Y-91440000D02*
X127000000Y-91440000D01*
X132840000Y-96520000D02*
X127000000Y-96520000D01*
X129540000Y-78740000D02*
X127000000Y-78740000D01*
X129540000Y-154940000D02*
X127000000Y-154940000D01*
X129540000Y-93980000D02*
X127000000Y-93980000D01*
X132840000Y-147320000D02*
X127000000Y-147320000D01*
X132840000Y-81280000D02*
X127000000Y-81280000D01*
X132840000Y-157480000D02*
X127000000Y-157480000D01*
X132840000Y-137160000D02*
X127000000Y-137160000D01*
X129540000Y-134620000D02*
X127000000Y-134620000D01*
X129540000Y-124460000D02*
X127000000Y-124460000D01*
X132840000Y-127000000D02*
X127000000Y-127000000D01*
X132840000Y-121920000D02*
X127000000Y-121920000D01*
X129540000Y-99060000D02*
X127000000Y-99060000D01*
X132840000Y-111760000D02*
X127000000Y-111760000D01*
X132840000Y-162560000D02*
X127000000Y-162560000D01*
X132840000Y-142240000D02*
X127000000Y-142240000D01*
X129540000Y-129540000D02*
X127000000Y-129540000D01*
X132840000Y-116840000D02*
X127000000Y-116840000D01*
X129540000Y-149860000D02*
X127000000Y-149860000D01*
X129540000Y-114300000D02*
X127000000Y-114300000D01*
X129540000Y-139700000D02*
X127000000Y-139700000D01*
X132840000Y-152400000D02*
X127000000Y-152400000D01*
X129540000Y-160020000D02*
X127000000Y-160020000D01*
X129540000Y-119380000D02*
X127000000Y-119380000D01*
X129540000Y-88900000D02*
X127000000Y-88900000D01*
X132840000Y-86360000D02*
X127000000Y-86360000D01*
X129540000Y-109220000D02*
X127000000Y-109220000D01*
X132840000Y-106680000D02*
X127000000Y-106680000D01*
X129540000Y-104140000D02*
X127000000Y-104140000D01*
X132840000Y-132080000D02*
X127000000Y-132080000D01*
X144020000Y-119380000D02*
X149860000Y-119380000D01*
X144020000Y-88900000D02*
X149860000Y-88900000D01*
X149860000Y-142240000D02*
X147320000Y-142240000D01*
X144020000Y-149860000D02*
X149860000Y-149860000D01*
X144020000Y-109220000D02*
X149860000Y-109220000D01*
X149860000Y-106680000D02*
X147320000Y-106680000D01*
X149860000Y-101600000D02*
X147320000Y-101600000D01*
X144020000Y-83820000D02*
X149860000Y-83820000D01*
X144020000Y-114300000D02*
X149860000Y-114300000D01*
X149860000Y-147320000D02*
X147320000Y-147320000D01*
X144020000Y-99060000D02*
X149860000Y-99060000D01*
X149860000Y-111760000D02*
X147320000Y-111760000D01*
X144020000Y-129540000D02*
X149860000Y-129540000D01*
X144020000Y-78740000D02*
X149860000Y-78740000D01*
X147320000Y-162560000D02*
X149860000Y-162560000D01*
X147320000Y-157480000D02*
X149860000Y-157480000D01*
X149860000Y-81280000D02*
X147320000Y-81280000D01*
X149860000Y-116840000D02*
X147320000Y-116840000D01*
X149860000Y-121920000D02*
X147320000Y-121920000D01*
X149860000Y-127000000D02*
X147320000Y-127000000D01*
X149860000Y-137160000D02*
X147320000Y-137160000D01*
X149860000Y-91440000D02*
X147320000Y-91440000D01*
X149860000Y-132080000D02*
X147320000Y-132080000D01*
X147320000Y-152400000D02*
X149860000Y-152400000D01*
X149860000Y-86360000D02*
X147320000Y-86360000D01*
X144020000Y-134620000D02*
X149860000Y-134620000D01*
X144020000Y-139700000D02*
X149860000Y-139700000D01*
X144020000Y-104140000D02*
X149860000Y-104140000D01*
X144020000Y-144780000D02*
X149860000Y-144780000D01*
X144020000Y-93980000D02*
X149860000Y-93980000D01*
X144020000Y-154940000D02*
X149860000Y-154940000D01*
X149860000Y-96520000D02*
X147320000Y-96520000D01*
X144020000Y-160020000D02*
X149860000Y-160020000D01*
X144020000Y-124460000D02*
X149860000Y-124460000D01*
G04 #@! TA.AperFunction,Conductor*
G36*
X148533039Y-75450185D02*
G01*
X148578794Y-75502989D01*
X148590000Y-75554500D01*
X148590000Y-77990500D01*
X148570315Y-78057539D01*
X148517511Y-78103294D01*
X148466000Y-78114500D01*
X145589467Y-78114500D01*
X145522428Y-78094815D01*
X145476673Y-78042011D01*
X145473285Y-78033834D01*
X145459796Y-77997669D01*
X145459793Y-77997664D01*
X145373547Y-77882455D01*
X145373544Y-77882452D01*
X145258335Y-77796206D01*
X145258328Y-77796202D01*
X145123482Y-77745908D01*
X145123483Y-77745908D01*
X145063883Y-77739501D01*
X145063881Y-77739500D01*
X145063873Y-77739500D01*
X145063864Y-77739500D01*
X142458129Y-77739500D01*
X142458123Y-77739501D01*
X142398516Y-77745908D01*
X142263671Y-77796202D01*
X142263664Y-77796206D01*
X142148455Y-77882452D01*
X142148452Y-77882455D01*
X142062206Y-77997664D01*
X142062202Y-77997671D01*
X142011908Y-78132517D01*
X142005501Y-78192116D01*
X142005501Y-78192123D01*
X142005500Y-78192135D01*
X142005500Y-79287870D01*
X142005501Y-79287876D01*
X142011908Y-79347483D01*
X142062202Y-79482328D01*
X142062206Y-79482335D01*
X142148452Y-79597544D01*
X142148455Y-79597547D01*
X142263664Y-79683793D01*
X142263671Y-79683797D01*
X142398517Y-79734091D01*
X142398516Y-79734091D01*
X142405444Y-79734835D01*
X142458127Y-79740500D01*
X145063872Y-79740499D01*
X145123483Y-79734091D01*
X145258331Y-79683796D01*
X145373546Y-79597546D01*
X145459796Y-79482331D01*
X145466547Y-79464229D01*
X145473285Y-79446166D01*
X145515157Y-79390233D01*
X145580621Y-79365816D01*
X145589467Y-79365500D01*
X148466000Y-79365500D01*
X148533039Y-79385185D01*
X148578794Y-79437989D01*
X148590000Y-79489500D01*
X148590000Y-80166177D01*
X148570315Y-80233216D01*
X148517511Y-80278971D01*
X148448353Y-80288915D01*
X148437494Y-80286856D01*
X148433484Y-80285908D01*
X148373883Y-80279501D01*
X148373881Y-80279500D01*
X148373873Y-80279500D01*
X148373864Y-80279500D01*
X145768129Y-80279500D01*
X145768123Y-80279501D01*
X145708516Y-80285908D01*
X145573671Y-80336202D01*
X145573664Y-80336206D01*
X145458455Y-80422452D01*
X145458452Y-80422455D01*
X145372206Y-80537664D01*
X145372202Y-80537671D01*
X145321908Y-80672517D01*
X145315501Y-80732116D01*
X145315501Y-80732123D01*
X145315500Y-80732135D01*
X145315500Y-81827870D01*
X145315501Y-81827876D01*
X145321908Y-81887483D01*
X145372202Y-82022328D01*
X145372206Y-82022335D01*
X145458452Y-82137544D01*
X145458455Y-82137547D01*
X145573664Y-82223793D01*
X145573671Y-82223797D01*
X145708517Y-82274091D01*
X145708516Y-82274091D01*
X145715444Y-82274835D01*
X145768127Y-82280500D01*
X148373872Y-82280499D01*
X148433483Y-82274091D01*
X148433486Y-82274089D01*
X148437479Y-82273147D01*
X148440673Y-82273318D01*
X148441196Y-82273262D01*
X148441205Y-82273346D01*
X148507249Y-82276884D01*
X148563922Y-82317748D01*
X148589506Y-82382765D01*
X148590000Y-82393822D01*
X148590000Y-83070500D01*
X148570315Y-83137539D01*
X148517511Y-83183294D01*
X148466000Y-83194500D01*
X145589467Y-83194500D01*
X145522428Y-83174815D01*
X145476673Y-83122011D01*
X145473285Y-83113834D01*
X145459796Y-83077669D01*
X145459793Y-83077664D01*
X145373547Y-82962455D01*
X145373544Y-82962452D01*
X145258335Y-82876206D01*
X145258328Y-82876202D01*
X145123482Y-82825908D01*
X145123483Y-82825908D01*
X145063883Y-82819501D01*
X145063881Y-82819500D01*
X145063873Y-82819500D01*
X145063864Y-82819500D01*
X142458129Y-82819500D01*
X142458123Y-82819501D01*
X142398516Y-82825908D01*
X142263671Y-82876202D01*
X142263664Y-82876206D01*
X142148455Y-82962452D01*
X142148452Y-82962455D01*
X142062206Y-83077664D01*
X142062202Y-83077671D01*
X142011908Y-83212517D01*
X142005501Y-83272116D01*
X142005501Y-83272123D01*
X142005500Y-83272135D01*
X142005500Y-84367870D01*
X142005501Y-84367876D01*
X142011908Y-84427483D01*
X142062202Y-84562328D01*
X142062206Y-84562335D01*
X142148452Y-84677544D01*
X142148455Y-84677547D01*
X142263664Y-84763793D01*
X142263671Y-84763797D01*
X142398517Y-84814091D01*
X142398516Y-84814091D01*
X142405444Y-84814835D01*
X142458127Y-84820500D01*
X145063872Y-84820499D01*
X145123483Y-84814091D01*
X145258331Y-84763796D01*
X145373546Y-84677546D01*
X145459796Y-84562331D01*
X145466547Y-84544229D01*
X145473285Y-84526166D01*
X145515157Y-84470233D01*
X145580621Y-84445816D01*
X145589467Y-84445500D01*
X148466000Y-84445500D01*
X148533039Y-84465185D01*
X148578794Y-84517989D01*
X148590000Y-84569500D01*
X148590000Y-85246177D01*
X148570315Y-85313216D01*
X148517511Y-85358971D01*
X148448353Y-85368915D01*
X148437494Y-85366856D01*
X148433484Y-85365908D01*
X148373883Y-85359501D01*
X148373881Y-85359500D01*
X148373873Y-85359500D01*
X148373864Y-85359500D01*
X145768129Y-85359500D01*
X145768123Y-85359501D01*
X145708516Y-85365908D01*
X145573671Y-85416202D01*
X145573664Y-85416206D01*
X145458455Y-85502452D01*
X145458452Y-85502455D01*
X145372206Y-85617664D01*
X145372202Y-85617671D01*
X145321908Y-85752517D01*
X145315501Y-85812116D01*
X145315501Y-85812123D01*
X145315500Y-85812135D01*
X145315500Y-86907870D01*
X145315501Y-86907876D01*
X145321908Y-86967483D01*
X145372202Y-87102328D01*
X145372206Y-87102335D01*
X145458452Y-87217544D01*
X145458455Y-87217547D01*
X145573664Y-87303793D01*
X145573671Y-87303797D01*
X145708517Y-87354091D01*
X145708516Y-87354091D01*
X145715444Y-87354835D01*
X145768127Y-87360500D01*
X148373872Y-87360499D01*
X148433483Y-87354091D01*
X148433486Y-87354089D01*
X148437479Y-87353147D01*
X148440673Y-87353318D01*
X148441196Y-87353262D01*
X148441205Y-87353346D01*
X148507249Y-87356884D01*
X148563922Y-87397748D01*
X148589506Y-87462765D01*
X148590000Y-87473822D01*
X148590000Y-88150500D01*
X148570315Y-88217539D01*
X148517511Y-88263294D01*
X148466000Y-88274500D01*
X145589467Y-88274500D01*
X145522428Y-88254815D01*
X145476673Y-88202011D01*
X145473285Y-88193834D01*
X145459796Y-88157669D01*
X145459793Y-88157664D01*
X145373547Y-88042455D01*
X145373544Y-88042452D01*
X145258335Y-87956206D01*
X145258328Y-87956202D01*
X145123482Y-87905908D01*
X145123483Y-87905908D01*
X145063883Y-87899501D01*
X145063881Y-87899500D01*
X145063873Y-87899500D01*
X145063864Y-87899500D01*
X142458129Y-87899500D01*
X142458123Y-87899501D01*
X142398516Y-87905908D01*
X142263671Y-87956202D01*
X142263664Y-87956206D01*
X142148455Y-88042452D01*
X142148452Y-88042455D01*
X142062206Y-88157664D01*
X142062202Y-88157671D01*
X142011908Y-88292517D01*
X142005501Y-88352116D01*
X142005501Y-88352123D01*
X142005500Y-88352135D01*
X142005500Y-89447870D01*
X142005501Y-89447876D01*
X142011908Y-89507483D01*
X142062202Y-89642328D01*
X142062206Y-89642335D01*
X142148452Y-89757544D01*
X142148455Y-89757547D01*
X142263664Y-89843793D01*
X142263671Y-89843797D01*
X142398517Y-89894091D01*
X142398516Y-89894091D01*
X142405444Y-89894835D01*
X142458127Y-89900500D01*
X145063872Y-89900499D01*
X145123483Y-89894091D01*
X145258331Y-89843796D01*
X145373546Y-89757546D01*
X145459796Y-89642331D01*
X145466547Y-89624229D01*
X145473285Y-89606166D01*
X145515157Y-89550233D01*
X145580621Y-89525816D01*
X145589467Y-89525500D01*
X148466000Y-89525500D01*
X148533039Y-89545185D01*
X148578794Y-89597989D01*
X148590000Y-89649500D01*
X148590000Y-90326177D01*
X148570315Y-90393216D01*
X148517511Y-90438971D01*
X148448353Y-90448915D01*
X148437494Y-90446856D01*
X148433484Y-90445908D01*
X148373883Y-90439501D01*
X148373881Y-90439500D01*
X148373873Y-90439500D01*
X148373864Y-90439500D01*
X145768129Y-90439500D01*
X145768123Y-90439501D01*
X145708516Y-90445908D01*
X145573671Y-90496202D01*
X145573664Y-90496206D01*
X145458455Y-90582452D01*
X145458452Y-90582455D01*
X145372206Y-90697664D01*
X145372202Y-90697671D01*
X145321908Y-90832517D01*
X145315501Y-90892116D01*
X145315501Y-90892123D01*
X145315500Y-90892135D01*
X145315500Y-91987870D01*
X145315501Y-91987876D01*
X145321908Y-92047483D01*
X145372202Y-92182328D01*
X145372206Y-92182335D01*
X145458452Y-92297544D01*
X145458455Y-92297547D01*
X145573664Y-92383793D01*
X145573671Y-92383797D01*
X145708517Y-92434091D01*
X145708516Y-92434091D01*
X145715444Y-92434835D01*
X145768127Y-92440500D01*
X148373872Y-92440499D01*
X148433483Y-92434091D01*
X148433486Y-92434089D01*
X148437479Y-92433147D01*
X148440673Y-92433318D01*
X148441196Y-92433262D01*
X148441205Y-92433346D01*
X148507249Y-92436884D01*
X148563922Y-92477748D01*
X148589506Y-92542765D01*
X148590000Y-92553822D01*
X148590000Y-93230500D01*
X148570315Y-93297539D01*
X148517511Y-93343294D01*
X148466000Y-93354500D01*
X145589467Y-93354500D01*
X145522428Y-93334815D01*
X145476673Y-93282011D01*
X145473285Y-93273834D01*
X145459796Y-93237669D01*
X145459793Y-93237664D01*
X145373547Y-93122455D01*
X145373544Y-93122452D01*
X145258335Y-93036206D01*
X145258328Y-93036202D01*
X145123482Y-92985908D01*
X145123483Y-92985908D01*
X145063883Y-92979501D01*
X145063881Y-92979500D01*
X145063873Y-92979500D01*
X145063864Y-92979500D01*
X142458129Y-92979500D01*
X142458123Y-92979501D01*
X142398516Y-92985908D01*
X142263671Y-93036202D01*
X142263664Y-93036206D01*
X142148455Y-93122452D01*
X142148452Y-93122455D01*
X142062206Y-93237664D01*
X142062202Y-93237671D01*
X142011908Y-93372517D01*
X142005501Y-93432116D01*
X142005501Y-93432123D01*
X142005500Y-93432135D01*
X142005500Y-94527870D01*
X142005501Y-94527876D01*
X142011908Y-94587483D01*
X142062202Y-94722328D01*
X142062206Y-94722335D01*
X142148452Y-94837544D01*
X142148455Y-94837547D01*
X142263664Y-94923793D01*
X142263671Y-94923797D01*
X142398517Y-94974091D01*
X142398516Y-94974091D01*
X142405444Y-94974835D01*
X142458127Y-94980500D01*
X145063872Y-94980499D01*
X145123483Y-94974091D01*
X145258331Y-94923796D01*
X145373546Y-94837546D01*
X145459796Y-94722331D01*
X145466547Y-94704229D01*
X145473285Y-94686166D01*
X145515157Y-94630233D01*
X145580621Y-94605816D01*
X145589467Y-94605500D01*
X148466000Y-94605500D01*
X148533039Y-94625185D01*
X148578794Y-94677989D01*
X148590000Y-94729500D01*
X148590000Y-95406177D01*
X148570315Y-95473216D01*
X148517511Y-95518971D01*
X148448353Y-95528915D01*
X148437494Y-95526856D01*
X148433484Y-95525908D01*
X148373883Y-95519501D01*
X148373881Y-95519500D01*
X148373873Y-95519500D01*
X148373864Y-95519500D01*
X145768129Y-95519500D01*
X145768123Y-95519501D01*
X145708516Y-95525908D01*
X145573671Y-95576202D01*
X145573664Y-95576206D01*
X145458455Y-95662452D01*
X145458452Y-95662455D01*
X145372206Y-95777664D01*
X145372202Y-95777671D01*
X145321908Y-95912517D01*
X145315501Y-95972116D01*
X145315501Y-95972123D01*
X145315500Y-95972135D01*
X145315500Y-97067870D01*
X145315501Y-97067876D01*
X145321908Y-97127483D01*
X145372202Y-97262328D01*
X145372206Y-97262335D01*
X145458452Y-97377544D01*
X145458455Y-97377547D01*
X145573664Y-97463793D01*
X145573671Y-97463797D01*
X145708517Y-97514091D01*
X145708516Y-97514091D01*
X145715444Y-97514835D01*
X145768127Y-97520500D01*
X148373872Y-97520499D01*
X148433483Y-97514091D01*
X148433486Y-97514089D01*
X148437479Y-97513147D01*
X148440673Y-97513318D01*
X148441196Y-97513262D01*
X148441205Y-97513346D01*
X148507249Y-97516884D01*
X148563922Y-97557748D01*
X148589506Y-97622765D01*
X148590000Y-97633822D01*
X148590000Y-98310500D01*
X148570315Y-98377539D01*
X148517511Y-98423294D01*
X148466000Y-98434500D01*
X145589467Y-98434500D01*
X145522428Y-98414815D01*
X145476673Y-98362011D01*
X145473285Y-98353834D01*
X145459796Y-98317669D01*
X145459793Y-98317664D01*
X145373547Y-98202455D01*
X145373544Y-98202452D01*
X145258335Y-98116206D01*
X145258328Y-98116202D01*
X145123482Y-98065908D01*
X145123483Y-98065908D01*
X145063883Y-98059501D01*
X145063881Y-98059500D01*
X145063873Y-98059500D01*
X145063864Y-98059500D01*
X142458129Y-98059500D01*
X142458123Y-98059501D01*
X142398516Y-98065908D01*
X142263671Y-98116202D01*
X142263664Y-98116206D01*
X142148455Y-98202452D01*
X142148452Y-98202455D01*
X142062206Y-98317664D01*
X142062202Y-98317671D01*
X142011908Y-98452517D01*
X142005501Y-98512116D01*
X142005501Y-98512123D01*
X142005500Y-98512135D01*
X142005500Y-99607870D01*
X142005501Y-99607876D01*
X142011908Y-99667483D01*
X142062202Y-99802328D01*
X142062206Y-99802335D01*
X142148452Y-99917544D01*
X142148455Y-99917547D01*
X142263664Y-100003793D01*
X142263671Y-100003797D01*
X142398517Y-100054091D01*
X142398516Y-100054091D01*
X142405444Y-100054835D01*
X142458127Y-100060500D01*
X145063872Y-100060499D01*
X145123483Y-100054091D01*
X145258331Y-100003796D01*
X145373546Y-99917546D01*
X145459796Y-99802331D01*
X145466547Y-99784229D01*
X145473285Y-99766166D01*
X145515157Y-99710233D01*
X145580621Y-99685816D01*
X145589467Y-99685500D01*
X148466000Y-99685500D01*
X148533039Y-99705185D01*
X148578794Y-99757989D01*
X148590000Y-99809500D01*
X148590000Y-100486177D01*
X148570315Y-100553216D01*
X148517511Y-100598971D01*
X148448353Y-100608915D01*
X148437494Y-100606856D01*
X148433484Y-100605908D01*
X148373883Y-100599501D01*
X148373881Y-100599500D01*
X148373873Y-100599500D01*
X148373864Y-100599500D01*
X145768129Y-100599500D01*
X145768123Y-100599501D01*
X145708516Y-100605908D01*
X145573671Y-100656202D01*
X145573664Y-100656206D01*
X145458455Y-100742452D01*
X145458452Y-100742455D01*
X145372206Y-100857664D01*
X145372202Y-100857671D01*
X145321908Y-100992517D01*
X145315501Y-101052116D01*
X145315501Y-101052123D01*
X145315500Y-101052135D01*
X145315500Y-102147870D01*
X145315501Y-102147876D01*
X145321908Y-102207483D01*
X145372202Y-102342328D01*
X145372206Y-102342335D01*
X145458452Y-102457544D01*
X145458455Y-102457547D01*
X145573664Y-102543793D01*
X145573671Y-102543797D01*
X145708517Y-102594091D01*
X145708516Y-102594091D01*
X145715444Y-102594835D01*
X145768127Y-102600500D01*
X148373872Y-102600499D01*
X148433483Y-102594091D01*
X148433486Y-102594089D01*
X148437479Y-102593147D01*
X148440673Y-102593318D01*
X148441196Y-102593262D01*
X148441205Y-102593346D01*
X148507249Y-102596884D01*
X148563922Y-102637748D01*
X148589506Y-102702765D01*
X148590000Y-102713822D01*
X148590000Y-103390500D01*
X148570315Y-103457539D01*
X148517511Y-103503294D01*
X148466000Y-103514500D01*
X145589467Y-103514500D01*
X145522428Y-103494815D01*
X145476673Y-103442011D01*
X145473285Y-103433834D01*
X145459796Y-103397669D01*
X145459793Y-103397664D01*
X145373547Y-103282455D01*
X145373544Y-103282452D01*
X145258335Y-103196206D01*
X145258328Y-103196202D01*
X145123482Y-103145908D01*
X145123483Y-103145908D01*
X145063883Y-103139501D01*
X145063881Y-103139500D01*
X145063873Y-103139500D01*
X145063864Y-103139500D01*
X142458129Y-103139500D01*
X142458123Y-103139501D01*
X142398516Y-103145908D01*
X142263671Y-103196202D01*
X142263664Y-103196206D01*
X142148455Y-103282452D01*
X142148452Y-103282455D01*
X142062206Y-103397664D01*
X142062202Y-103397671D01*
X142011908Y-103532517D01*
X142005501Y-103592116D01*
X142005501Y-103592123D01*
X142005500Y-103592135D01*
X142005500Y-104687870D01*
X142005501Y-104687876D01*
X142011908Y-104747483D01*
X142062202Y-104882328D01*
X142062206Y-104882335D01*
X142148452Y-104997544D01*
X142148455Y-104997547D01*
X142263664Y-105083793D01*
X142263671Y-105083797D01*
X142398517Y-105134091D01*
X142398516Y-105134091D01*
X142405444Y-105134835D01*
X142458127Y-105140500D01*
X145063872Y-105140499D01*
X145123483Y-105134091D01*
X145258331Y-105083796D01*
X145373546Y-104997546D01*
X145459796Y-104882331D01*
X145466547Y-104864229D01*
X145473285Y-104846166D01*
X145515157Y-104790233D01*
X145580621Y-104765816D01*
X145589467Y-104765500D01*
X148466000Y-104765500D01*
X148533039Y-104785185D01*
X148578794Y-104837989D01*
X148590000Y-104889500D01*
X148590000Y-105566177D01*
X148570315Y-105633216D01*
X148517511Y-105678971D01*
X148448353Y-105688915D01*
X148437494Y-105686856D01*
X148433484Y-105685908D01*
X148373883Y-105679501D01*
X148373881Y-105679500D01*
X148373873Y-105679500D01*
X148373864Y-105679500D01*
X145768129Y-105679500D01*
X145768123Y-105679501D01*
X145708516Y-105685908D01*
X145573671Y-105736202D01*
X145573664Y-105736206D01*
X145458455Y-105822452D01*
X145458452Y-105822455D01*
X145372206Y-105937664D01*
X145372202Y-105937671D01*
X145321908Y-106072517D01*
X145315501Y-106132116D01*
X145315501Y-106132123D01*
X145315500Y-106132135D01*
X145315500Y-107227870D01*
X145315501Y-107227876D01*
X145321908Y-107287483D01*
X145372202Y-107422328D01*
X145372206Y-107422335D01*
X145458452Y-107537544D01*
X145458455Y-107537547D01*
X145573664Y-107623793D01*
X145573671Y-107623797D01*
X145708517Y-107674091D01*
X145708516Y-107674091D01*
X145715444Y-107674835D01*
X145768127Y-107680500D01*
X148373872Y-107680499D01*
X148433483Y-107674091D01*
X148433486Y-107674089D01*
X148437479Y-107673147D01*
X148440673Y-107673318D01*
X148441196Y-107673262D01*
X148441205Y-107673346D01*
X148507249Y-107676884D01*
X148563922Y-107717748D01*
X148589506Y-107782765D01*
X148590000Y-107793822D01*
X148590000Y-108470500D01*
X148570315Y-108537539D01*
X148517511Y-108583294D01*
X148466000Y-108594500D01*
X145589467Y-108594500D01*
X145522428Y-108574815D01*
X145476673Y-108522011D01*
X145473285Y-108513834D01*
X145459796Y-108477669D01*
X145459793Y-108477664D01*
X145373547Y-108362455D01*
X145373544Y-108362452D01*
X145258335Y-108276206D01*
X145258328Y-108276202D01*
X145123482Y-108225908D01*
X145123483Y-108225908D01*
X145063883Y-108219501D01*
X145063881Y-108219500D01*
X145063873Y-108219500D01*
X145063864Y-108219500D01*
X142458129Y-108219500D01*
X142458123Y-108219501D01*
X142398516Y-108225908D01*
X142263671Y-108276202D01*
X142263664Y-108276206D01*
X142148455Y-108362452D01*
X142148452Y-108362455D01*
X142062206Y-108477664D01*
X142062202Y-108477671D01*
X142011908Y-108612517D01*
X142005501Y-108672116D01*
X142005501Y-108672123D01*
X142005500Y-108672135D01*
X142005500Y-109767870D01*
X142005501Y-109767876D01*
X142011908Y-109827483D01*
X142062202Y-109962328D01*
X142062206Y-109962335D01*
X142148452Y-110077544D01*
X142148455Y-110077547D01*
X142263664Y-110163793D01*
X142263671Y-110163797D01*
X142398517Y-110214091D01*
X142398516Y-110214091D01*
X142405444Y-110214835D01*
X142458127Y-110220500D01*
X145063872Y-110220499D01*
X145123483Y-110214091D01*
X145258331Y-110163796D01*
X145373546Y-110077546D01*
X145459796Y-109962331D01*
X145466547Y-109944229D01*
X145473285Y-109926166D01*
X145515157Y-109870233D01*
X145580621Y-109845816D01*
X145589467Y-109845500D01*
X148466000Y-109845500D01*
X148533039Y-109865185D01*
X148578794Y-109917989D01*
X148590000Y-109969500D01*
X148590000Y-110646177D01*
X148570315Y-110713216D01*
X148517511Y-110758971D01*
X148448353Y-110768915D01*
X148437494Y-110766856D01*
X148433484Y-110765908D01*
X148373883Y-110759501D01*
X148373881Y-110759500D01*
X148373873Y-110759500D01*
X148373864Y-110759500D01*
X145768129Y-110759500D01*
X145768123Y-110759501D01*
X145708516Y-110765908D01*
X145573671Y-110816202D01*
X145573664Y-110816206D01*
X145458455Y-110902452D01*
X145458452Y-110902455D01*
X145372206Y-111017664D01*
X145372202Y-111017671D01*
X145321908Y-111152517D01*
X145315501Y-111212116D01*
X145315501Y-111212123D01*
X145315500Y-111212135D01*
X145315500Y-112307870D01*
X145315501Y-112307876D01*
X145321908Y-112367483D01*
X145372202Y-112502328D01*
X145372206Y-112502335D01*
X145458452Y-112617544D01*
X145458455Y-112617547D01*
X145573664Y-112703793D01*
X145573671Y-112703797D01*
X145708517Y-112754091D01*
X145708516Y-112754091D01*
X145715444Y-112754835D01*
X145768127Y-112760500D01*
X148373872Y-112760499D01*
X148433483Y-112754091D01*
X148433486Y-112754089D01*
X148437479Y-112753147D01*
X148440673Y-112753318D01*
X148441196Y-112753262D01*
X148441205Y-112753346D01*
X148507249Y-112756884D01*
X148563922Y-112797748D01*
X148589506Y-112862765D01*
X148590000Y-112873822D01*
X148590000Y-113550500D01*
X148570315Y-113617539D01*
X148517511Y-113663294D01*
X148466000Y-113674500D01*
X145589467Y-113674500D01*
X145522428Y-113654815D01*
X145476673Y-113602011D01*
X145473285Y-113593834D01*
X145459796Y-113557669D01*
X145459793Y-113557664D01*
X145373547Y-113442455D01*
X145373544Y-113442452D01*
X145258335Y-113356206D01*
X145258328Y-113356202D01*
X145123482Y-113305908D01*
X145123483Y-113305908D01*
X145063883Y-113299501D01*
X145063881Y-113299500D01*
X145063873Y-113299500D01*
X145063864Y-113299500D01*
X142458129Y-113299500D01*
X142458123Y-113299501D01*
X142398516Y-113305908D01*
X142263671Y-113356202D01*
X142263664Y-113356206D01*
X142148455Y-113442452D01*
X142148452Y-113442455D01*
X142062206Y-113557664D01*
X142062202Y-113557671D01*
X142011908Y-113692517D01*
X142005501Y-113752116D01*
X142005501Y-113752123D01*
X142005500Y-113752135D01*
X142005500Y-114847870D01*
X142005501Y-114847876D01*
X142011908Y-114907483D01*
X142062202Y-115042328D01*
X142062206Y-115042335D01*
X142148452Y-115157544D01*
X142148455Y-115157547D01*
X142263664Y-115243793D01*
X142263671Y-115243797D01*
X142398517Y-115294091D01*
X142398516Y-115294091D01*
X142405444Y-115294835D01*
X142458127Y-115300500D01*
X145063872Y-115300499D01*
X145123483Y-115294091D01*
X145258331Y-115243796D01*
X145373546Y-115157546D01*
X145459796Y-115042331D01*
X145466547Y-115024229D01*
X145473285Y-115006166D01*
X145515157Y-114950233D01*
X145580621Y-114925816D01*
X145589467Y-114925500D01*
X148466000Y-114925500D01*
X148533039Y-114945185D01*
X148578794Y-114997989D01*
X148590000Y-115049500D01*
X148590000Y-115726177D01*
X148570315Y-115793216D01*
X148517511Y-115838971D01*
X148448353Y-115848915D01*
X148437494Y-115846856D01*
X148433484Y-115845908D01*
X148373883Y-115839501D01*
X148373881Y-115839500D01*
X148373873Y-115839500D01*
X148373864Y-115839500D01*
X145768129Y-115839500D01*
X145768123Y-115839501D01*
X145708516Y-115845908D01*
X145573671Y-115896202D01*
X145573664Y-115896206D01*
X145458455Y-115982452D01*
X145458452Y-115982455D01*
X145372206Y-116097664D01*
X145372202Y-116097671D01*
X145321908Y-116232517D01*
X145315501Y-116292116D01*
X145315501Y-116292123D01*
X145315500Y-116292135D01*
X145315500Y-117387870D01*
X145315501Y-117387876D01*
X145321908Y-117447483D01*
X145372202Y-117582328D01*
X145372206Y-117582335D01*
X145458452Y-117697544D01*
X145458455Y-117697547D01*
X145573664Y-117783793D01*
X145573671Y-117783797D01*
X145708517Y-117834091D01*
X145708516Y-117834091D01*
X145715444Y-117834835D01*
X145768127Y-117840500D01*
X148373872Y-117840499D01*
X148433483Y-117834091D01*
X148433486Y-117834089D01*
X148437479Y-117833147D01*
X148440673Y-117833318D01*
X148441196Y-117833262D01*
X148441205Y-117833346D01*
X148507249Y-117836884D01*
X148563922Y-117877748D01*
X148589506Y-117942765D01*
X148590000Y-117953822D01*
X148590000Y-118630500D01*
X148570315Y-118697539D01*
X148517511Y-118743294D01*
X148466000Y-118754500D01*
X145589467Y-118754500D01*
X145522428Y-118734815D01*
X145476673Y-118682011D01*
X145473285Y-118673834D01*
X145459796Y-118637669D01*
X145459793Y-118637664D01*
X145373547Y-118522455D01*
X145373544Y-118522452D01*
X145258335Y-118436206D01*
X145258328Y-118436202D01*
X145123482Y-118385908D01*
X145123483Y-118385908D01*
X145063883Y-118379501D01*
X145063881Y-118379500D01*
X145063873Y-118379500D01*
X145063864Y-118379500D01*
X142458129Y-118379500D01*
X142458123Y-118379501D01*
X142398516Y-118385908D01*
X142263671Y-118436202D01*
X142263664Y-118436206D01*
X142148455Y-118522452D01*
X142148452Y-118522455D01*
X142062206Y-118637664D01*
X142062202Y-118637671D01*
X142011908Y-118772517D01*
X142005501Y-118832116D01*
X142005501Y-118832123D01*
X142005500Y-118832135D01*
X142005500Y-119927870D01*
X142005501Y-119927876D01*
X142011908Y-119987483D01*
X142062202Y-120122328D01*
X142062206Y-120122335D01*
X142148452Y-120237544D01*
X142148455Y-120237547D01*
X142263664Y-120323793D01*
X142263671Y-120323797D01*
X142398517Y-120374091D01*
X142398516Y-120374091D01*
X142405444Y-120374835D01*
X142458127Y-120380500D01*
X145063872Y-120380499D01*
X145123483Y-120374091D01*
X145258331Y-120323796D01*
X145373546Y-120237546D01*
X145459796Y-120122331D01*
X145466547Y-120104229D01*
X145473285Y-120086166D01*
X145515157Y-120030233D01*
X145580621Y-120005816D01*
X145589467Y-120005500D01*
X148466000Y-120005500D01*
X148533039Y-120025185D01*
X148578794Y-120077989D01*
X148590000Y-120129500D01*
X148590000Y-120806177D01*
X148570315Y-120873216D01*
X148517511Y-120918971D01*
X148448353Y-120928915D01*
X148437494Y-120926856D01*
X148433484Y-120925908D01*
X148373883Y-120919501D01*
X148373881Y-120919500D01*
X148373873Y-120919500D01*
X148373864Y-120919500D01*
X145768129Y-120919500D01*
X145768123Y-120919501D01*
X145708516Y-120925908D01*
X145573671Y-120976202D01*
X145573664Y-120976206D01*
X145458455Y-121062452D01*
X145458452Y-121062455D01*
X145372206Y-121177664D01*
X145372202Y-121177671D01*
X145321908Y-121312517D01*
X145315501Y-121372116D01*
X145315501Y-121372123D01*
X145315500Y-121372135D01*
X145315500Y-122467870D01*
X145315501Y-122467876D01*
X145321908Y-122527483D01*
X145372202Y-122662328D01*
X145372206Y-122662335D01*
X145458452Y-122777544D01*
X145458455Y-122777547D01*
X145573664Y-122863793D01*
X145573671Y-122863797D01*
X145708517Y-122914091D01*
X145708516Y-122914091D01*
X145715444Y-122914835D01*
X145768127Y-122920500D01*
X148373872Y-122920499D01*
X148433483Y-122914091D01*
X148433486Y-122914089D01*
X148437479Y-122913147D01*
X148440673Y-122913318D01*
X148441196Y-122913262D01*
X148441205Y-122913346D01*
X148507249Y-122916884D01*
X148563922Y-122957748D01*
X148589506Y-123022765D01*
X148590000Y-123033822D01*
X148590000Y-123710500D01*
X148570315Y-123777539D01*
X148517511Y-123823294D01*
X148466000Y-123834500D01*
X145589467Y-123834500D01*
X145522428Y-123814815D01*
X145476673Y-123762011D01*
X145473285Y-123753834D01*
X145459796Y-123717669D01*
X145459793Y-123717664D01*
X145373547Y-123602455D01*
X145373544Y-123602452D01*
X145258335Y-123516206D01*
X145258328Y-123516202D01*
X145123482Y-123465908D01*
X145123483Y-123465908D01*
X145063883Y-123459501D01*
X145063881Y-123459500D01*
X145063873Y-123459500D01*
X145063864Y-123459500D01*
X142458129Y-123459500D01*
X142458123Y-123459501D01*
X142398516Y-123465908D01*
X142263671Y-123516202D01*
X142263664Y-123516206D01*
X142148455Y-123602452D01*
X142148452Y-123602455D01*
X142062206Y-123717664D01*
X142062202Y-123717671D01*
X142011908Y-123852517D01*
X142005501Y-123912116D01*
X142005501Y-123912123D01*
X142005500Y-123912135D01*
X142005500Y-125007870D01*
X142005501Y-125007876D01*
X142011908Y-125067483D01*
X142062202Y-125202328D01*
X142062206Y-125202335D01*
X142148452Y-125317544D01*
X142148455Y-125317547D01*
X142263664Y-125403793D01*
X142263671Y-125403797D01*
X142398517Y-125454091D01*
X142398516Y-125454091D01*
X142405444Y-125454835D01*
X142458127Y-125460500D01*
X145063872Y-125460499D01*
X145123483Y-125454091D01*
X145258331Y-125403796D01*
X145373546Y-125317546D01*
X145459796Y-125202331D01*
X145466547Y-125184229D01*
X145473285Y-125166166D01*
X145515157Y-125110233D01*
X145580621Y-125085816D01*
X145589467Y-125085500D01*
X148466000Y-125085500D01*
X148533039Y-125105185D01*
X148578794Y-125157989D01*
X148590000Y-125209500D01*
X148590000Y-125886177D01*
X148570315Y-125953216D01*
X148517511Y-125998971D01*
X148448353Y-126008915D01*
X148437494Y-126006856D01*
X148433484Y-126005908D01*
X148373883Y-125999501D01*
X148373881Y-125999500D01*
X148373873Y-125999500D01*
X148373864Y-125999500D01*
X145768129Y-125999500D01*
X145768123Y-125999501D01*
X145708516Y-126005908D01*
X145573671Y-126056202D01*
X145573664Y-126056206D01*
X145458455Y-126142452D01*
X145458452Y-126142455D01*
X145372206Y-126257664D01*
X145372202Y-126257671D01*
X145321908Y-126392517D01*
X145315501Y-126452116D01*
X145315501Y-126452123D01*
X145315500Y-126452135D01*
X145315500Y-127547870D01*
X145315501Y-127547876D01*
X145321908Y-127607483D01*
X145372202Y-127742328D01*
X145372206Y-127742335D01*
X145458452Y-127857544D01*
X145458455Y-127857547D01*
X145573664Y-127943793D01*
X145573671Y-127943797D01*
X145708517Y-127994091D01*
X145708516Y-127994091D01*
X145715444Y-127994835D01*
X145768127Y-128000500D01*
X148373872Y-128000499D01*
X148433483Y-127994091D01*
X148433486Y-127994089D01*
X148437479Y-127993147D01*
X148440673Y-127993318D01*
X148441196Y-127993262D01*
X148441205Y-127993346D01*
X148507249Y-127996884D01*
X148563922Y-128037748D01*
X148589506Y-128102765D01*
X148590000Y-128113822D01*
X148590000Y-128790500D01*
X148570315Y-128857539D01*
X148517511Y-128903294D01*
X148466000Y-128914500D01*
X145589467Y-128914500D01*
X145522428Y-128894815D01*
X145476673Y-128842011D01*
X145473285Y-128833834D01*
X145459796Y-128797669D01*
X145459793Y-128797664D01*
X145373547Y-128682455D01*
X145373544Y-128682452D01*
X145258335Y-128596206D01*
X145258328Y-128596202D01*
X145123482Y-128545908D01*
X145123483Y-128545908D01*
X145063883Y-128539501D01*
X145063881Y-128539500D01*
X145063873Y-128539500D01*
X145063864Y-128539500D01*
X142458129Y-128539500D01*
X142458123Y-128539501D01*
X142398516Y-128545908D01*
X142263671Y-128596202D01*
X142263664Y-128596206D01*
X142148455Y-128682452D01*
X142148452Y-128682455D01*
X142062206Y-128797664D01*
X142062202Y-128797671D01*
X142011908Y-128932517D01*
X142005501Y-128992116D01*
X142005501Y-128992123D01*
X142005500Y-128992135D01*
X142005500Y-130087870D01*
X142005501Y-130087876D01*
X142011908Y-130147483D01*
X142062202Y-130282328D01*
X142062206Y-130282335D01*
X142148452Y-130397544D01*
X142148455Y-130397547D01*
X142263664Y-130483793D01*
X142263671Y-130483797D01*
X142398517Y-130534091D01*
X142398516Y-130534091D01*
X142405444Y-130534835D01*
X142458127Y-130540500D01*
X145063872Y-130540499D01*
X145123483Y-130534091D01*
X145258331Y-130483796D01*
X145373546Y-130397546D01*
X145459796Y-130282331D01*
X145466547Y-130264229D01*
X145473285Y-130246166D01*
X145515157Y-130190233D01*
X145580621Y-130165816D01*
X145589467Y-130165500D01*
X148466000Y-130165500D01*
X148533039Y-130185185D01*
X148578794Y-130237989D01*
X148590000Y-130289500D01*
X148590000Y-130966177D01*
X148570315Y-131033216D01*
X148517511Y-131078971D01*
X148448353Y-131088915D01*
X148437494Y-131086856D01*
X148433484Y-131085908D01*
X148373883Y-131079501D01*
X148373881Y-131079500D01*
X148373873Y-131079500D01*
X148373864Y-131079500D01*
X145768129Y-131079500D01*
X145768123Y-131079501D01*
X145708516Y-131085908D01*
X145573671Y-131136202D01*
X145573664Y-131136206D01*
X145458455Y-131222452D01*
X145458452Y-131222455D01*
X145372206Y-131337664D01*
X145372202Y-131337671D01*
X145321908Y-131472517D01*
X145315501Y-131532116D01*
X145315501Y-131532123D01*
X145315500Y-131532135D01*
X145315500Y-132627870D01*
X145315501Y-132627876D01*
X145321908Y-132687483D01*
X145372202Y-132822328D01*
X145372206Y-132822335D01*
X145458452Y-132937544D01*
X145458455Y-132937547D01*
X145573664Y-133023793D01*
X145573671Y-133023797D01*
X145708517Y-133074091D01*
X145708516Y-133074091D01*
X145715444Y-133074835D01*
X145768127Y-133080500D01*
X148373872Y-133080499D01*
X148433483Y-133074091D01*
X148433486Y-133074089D01*
X148437479Y-133073147D01*
X148440673Y-133073318D01*
X148441196Y-133073262D01*
X148441205Y-133073346D01*
X148507249Y-133076884D01*
X148563922Y-133117748D01*
X148589506Y-133182765D01*
X148590000Y-133193822D01*
X148590000Y-133870500D01*
X148570315Y-133937539D01*
X148517511Y-133983294D01*
X148466000Y-133994500D01*
X145589467Y-133994500D01*
X145522428Y-133974815D01*
X145476673Y-133922011D01*
X145473285Y-133913834D01*
X145459796Y-133877669D01*
X145459793Y-133877664D01*
X145373547Y-133762455D01*
X145373544Y-133762452D01*
X145258335Y-133676206D01*
X145258328Y-133676202D01*
X145123482Y-133625908D01*
X145123483Y-133625908D01*
X145063883Y-133619501D01*
X145063881Y-133619500D01*
X145063873Y-133619500D01*
X145063864Y-133619500D01*
X142458129Y-133619500D01*
X142458123Y-133619501D01*
X142398516Y-133625908D01*
X142263671Y-133676202D01*
X142263664Y-133676206D01*
X142148455Y-133762452D01*
X142148452Y-133762455D01*
X142062206Y-133877664D01*
X142062202Y-133877671D01*
X142011908Y-134012517D01*
X142005501Y-134072116D01*
X142005501Y-134072123D01*
X142005500Y-134072135D01*
X142005500Y-135167870D01*
X142005501Y-135167876D01*
X142011908Y-135227483D01*
X142062202Y-135362328D01*
X142062206Y-135362335D01*
X142148452Y-135477544D01*
X142148455Y-135477547D01*
X142263664Y-135563793D01*
X142263671Y-135563797D01*
X142398517Y-135614091D01*
X142398516Y-135614091D01*
X142405444Y-135614835D01*
X142458127Y-135620500D01*
X145063872Y-135620499D01*
X145123483Y-135614091D01*
X145258331Y-135563796D01*
X145373546Y-135477546D01*
X145459796Y-135362331D01*
X145466547Y-135344229D01*
X145473285Y-135326166D01*
X145515157Y-135270233D01*
X145580621Y-135245816D01*
X145589467Y-135245500D01*
X148466000Y-135245500D01*
X148533039Y-135265185D01*
X148578794Y-135317989D01*
X148590000Y-135369500D01*
X148590000Y-136046177D01*
X148570315Y-136113216D01*
X148517511Y-136158971D01*
X148448353Y-136168915D01*
X148437494Y-136166856D01*
X148433484Y-136165908D01*
X148373883Y-136159501D01*
X148373881Y-136159500D01*
X148373873Y-136159500D01*
X148373864Y-136159500D01*
X145768129Y-136159500D01*
X145768123Y-136159501D01*
X145708516Y-136165908D01*
X145573671Y-136216202D01*
X145573664Y-136216206D01*
X145458455Y-136302452D01*
X145458452Y-136302455D01*
X145372206Y-136417664D01*
X145372202Y-136417671D01*
X145321908Y-136552517D01*
X145315501Y-136612116D01*
X145315501Y-136612123D01*
X145315500Y-136612135D01*
X145315500Y-137707870D01*
X145315501Y-137707876D01*
X145321908Y-137767483D01*
X145372202Y-137902328D01*
X145372206Y-137902335D01*
X145458452Y-138017544D01*
X145458455Y-138017547D01*
X145573664Y-138103793D01*
X145573671Y-138103797D01*
X145708517Y-138154091D01*
X145708516Y-138154091D01*
X145715444Y-138154835D01*
X145768127Y-138160500D01*
X148373872Y-138160499D01*
X148433483Y-138154091D01*
X148433486Y-138154089D01*
X148437479Y-138153147D01*
X148440673Y-138153318D01*
X148441196Y-138153262D01*
X148441205Y-138153346D01*
X148507249Y-138156884D01*
X148563922Y-138197748D01*
X148589506Y-138262765D01*
X148590000Y-138273822D01*
X148590000Y-138950500D01*
X148570315Y-139017539D01*
X148517511Y-139063294D01*
X148466000Y-139074500D01*
X145589467Y-139074500D01*
X145522428Y-139054815D01*
X145476673Y-139002011D01*
X145473285Y-138993834D01*
X145459796Y-138957669D01*
X145459793Y-138957664D01*
X145373547Y-138842455D01*
X145373544Y-138842452D01*
X145258335Y-138756206D01*
X145258328Y-138756202D01*
X145123482Y-138705908D01*
X145123483Y-138705908D01*
X145063883Y-138699501D01*
X145063881Y-138699500D01*
X145063873Y-138699500D01*
X145063864Y-138699500D01*
X142458129Y-138699500D01*
X142458123Y-138699501D01*
X142398516Y-138705908D01*
X142263671Y-138756202D01*
X142263664Y-138756206D01*
X142148455Y-138842452D01*
X142148452Y-138842455D01*
X142062206Y-138957664D01*
X142062202Y-138957671D01*
X142011908Y-139092517D01*
X142005501Y-139152116D01*
X142005501Y-139152123D01*
X142005500Y-139152135D01*
X142005500Y-140247870D01*
X142005501Y-140247876D01*
X142011908Y-140307483D01*
X142062202Y-140442328D01*
X142062206Y-140442335D01*
X142148452Y-140557544D01*
X142148455Y-140557547D01*
X142263664Y-140643793D01*
X142263671Y-140643797D01*
X142398517Y-140694091D01*
X142398516Y-140694091D01*
X142405444Y-140694835D01*
X142458127Y-140700500D01*
X145063872Y-140700499D01*
X145123483Y-140694091D01*
X145258331Y-140643796D01*
X145373546Y-140557546D01*
X145459796Y-140442331D01*
X145466547Y-140424229D01*
X145473285Y-140406166D01*
X145515157Y-140350233D01*
X145580621Y-140325816D01*
X145589467Y-140325500D01*
X148466000Y-140325500D01*
X148533039Y-140345185D01*
X148578794Y-140397989D01*
X148590000Y-140449500D01*
X148590000Y-141126177D01*
X148570315Y-141193216D01*
X148517511Y-141238971D01*
X148448353Y-141248915D01*
X148437494Y-141246856D01*
X148433484Y-141245908D01*
X148373883Y-141239501D01*
X148373881Y-141239500D01*
X148373873Y-141239500D01*
X148373864Y-141239500D01*
X145768129Y-141239500D01*
X145768123Y-141239501D01*
X145708516Y-141245908D01*
X145573671Y-141296202D01*
X145573664Y-141296206D01*
X145458455Y-141382452D01*
X145458452Y-141382455D01*
X145372206Y-141497664D01*
X145372202Y-141497671D01*
X145321908Y-141632517D01*
X145315501Y-141692116D01*
X145315501Y-141692123D01*
X145315500Y-141692135D01*
X145315500Y-142787870D01*
X145315501Y-142787876D01*
X145321908Y-142847483D01*
X145372202Y-142982328D01*
X145372206Y-142982335D01*
X145458452Y-143097544D01*
X145458455Y-143097547D01*
X145573664Y-143183793D01*
X145573671Y-143183797D01*
X145708517Y-143234091D01*
X145708516Y-143234091D01*
X145715444Y-143234835D01*
X145768127Y-143240500D01*
X148373872Y-143240499D01*
X148433483Y-143234091D01*
X148433486Y-143234089D01*
X148437479Y-143233147D01*
X148440673Y-143233318D01*
X148441196Y-143233262D01*
X148441205Y-143233346D01*
X148507249Y-143236884D01*
X148563922Y-143277748D01*
X148589506Y-143342765D01*
X148590000Y-143353822D01*
X148590000Y-144030500D01*
X148570315Y-144097539D01*
X148517511Y-144143294D01*
X148466000Y-144154500D01*
X145589467Y-144154500D01*
X145522428Y-144134815D01*
X145476673Y-144082011D01*
X145473285Y-144073834D01*
X145459796Y-144037669D01*
X145459793Y-144037664D01*
X145373547Y-143922455D01*
X145373544Y-143922452D01*
X145258335Y-143836206D01*
X145258328Y-143836202D01*
X145123482Y-143785908D01*
X145123483Y-143785908D01*
X145063883Y-143779501D01*
X145063881Y-143779500D01*
X145063873Y-143779500D01*
X145063864Y-143779500D01*
X142458129Y-143779500D01*
X142458123Y-143779501D01*
X142398516Y-143785908D01*
X142263671Y-143836202D01*
X142263664Y-143836206D01*
X142148455Y-143922452D01*
X142148452Y-143922455D01*
X142062206Y-144037664D01*
X142062202Y-144037671D01*
X142011908Y-144172517D01*
X142005501Y-144232116D01*
X142005501Y-144232123D01*
X142005500Y-144232135D01*
X142005500Y-145327870D01*
X142005501Y-145327876D01*
X142011908Y-145387483D01*
X142062202Y-145522328D01*
X142062206Y-145522335D01*
X142148452Y-145637544D01*
X142148455Y-145637547D01*
X142263664Y-145723793D01*
X142263671Y-145723797D01*
X142398517Y-145774091D01*
X142398516Y-145774091D01*
X142405444Y-145774835D01*
X142458127Y-145780500D01*
X145063872Y-145780499D01*
X145123483Y-145774091D01*
X145258331Y-145723796D01*
X145373546Y-145637546D01*
X145459796Y-145522331D01*
X145466547Y-145504229D01*
X145473285Y-145486166D01*
X145515157Y-145430233D01*
X145580621Y-145405816D01*
X145589467Y-145405500D01*
X148466000Y-145405500D01*
X148533039Y-145425185D01*
X148578794Y-145477989D01*
X148590000Y-145529500D01*
X148590000Y-146206177D01*
X148570315Y-146273216D01*
X148517511Y-146318971D01*
X148448353Y-146328915D01*
X148437494Y-146326856D01*
X148433484Y-146325908D01*
X148373883Y-146319501D01*
X148373881Y-146319500D01*
X148373873Y-146319500D01*
X148373864Y-146319500D01*
X145768129Y-146319500D01*
X145768123Y-146319501D01*
X145708516Y-146325908D01*
X145573671Y-146376202D01*
X145573664Y-146376206D01*
X145458455Y-146462452D01*
X145458452Y-146462455D01*
X145372206Y-146577664D01*
X145372202Y-146577671D01*
X145321908Y-146712517D01*
X145315501Y-146772116D01*
X145315501Y-146772123D01*
X145315500Y-146772135D01*
X145315500Y-147867870D01*
X145315501Y-147867876D01*
X145321908Y-147927483D01*
X145372202Y-148062328D01*
X145372206Y-148062335D01*
X145458452Y-148177544D01*
X145458455Y-148177547D01*
X145573664Y-148263793D01*
X145573671Y-148263797D01*
X145708517Y-148314091D01*
X145708516Y-148314091D01*
X145715444Y-148314835D01*
X145768127Y-148320500D01*
X148373872Y-148320499D01*
X148433483Y-148314091D01*
X148433486Y-148314089D01*
X148437479Y-148313147D01*
X148440673Y-148313318D01*
X148441196Y-148313262D01*
X148441205Y-148313346D01*
X148507249Y-148316884D01*
X148563922Y-148357748D01*
X148589506Y-148422765D01*
X148590000Y-148433822D01*
X148590000Y-149110500D01*
X148570315Y-149177539D01*
X148517511Y-149223294D01*
X148466000Y-149234500D01*
X145589467Y-149234500D01*
X145522428Y-149214815D01*
X145476673Y-149162011D01*
X145473285Y-149153834D01*
X145459796Y-149117669D01*
X145459793Y-149117664D01*
X145373547Y-149002455D01*
X145373544Y-149002452D01*
X145258335Y-148916206D01*
X145258328Y-148916202D01*
X145123482Y-148865908D01*
X145123483Y-148865908D01*
X145063883Y-148859501D01*
X145063881Y-148859500D01*
X145063873Y-148859500D01*
X145063864Y-148859500D01*
X142458129Y-148859500D01*
X142458123Y-148859501D01*
X142398516Y-148865908D01*
X142263671Y-148916202D01*
X142263664Y-148916206D01*
X142148455Y-149002452D01*
X142148452Y-149002455D01*
X142062206Y-149117664D01*
X142062202Y-149117671D01*
X142011908Y-149252517D01*
X142005501Y-149312116D01*
X142005501Y-149312123D01*
X142005500Y-149312135D01*
X142005500Y-150407870D01*
X142005501Y-150407876D01*
X142011908Y-150467483D01*
X142062202Y-150602328D01*
X142062206Y-150602335D01*
X142148452Y-150717544D01*
X142148455Y-150717547D01*
X142263664Y-150803793D01*
X142263671Y-150803797D01*
X142398517Y-150854091D01*
X142398516Y-150854091D01*
X142405444Y-150854835D01*
X142458127Y-150860500D01*
X145063872Y-150860499D01*
X145123483Y-150854091D01*
X145258331Y-150803796D01*
X145373546Y-150717546D01*
X145459796Y-150602331D01*
X145466547Y-150584229D01*
X145473285Y-150566166D01*
X145515157Y-150510233D01*
X145580621Y-150485816D01*
X145589467Y-150485500D01*
X148466000Y-150485500D01*
X148533039Y-150505185D01*
X148578794Y-150557989D01*
X148590000Y-150609500D01*
X148590000Y-151286177D01*
X148570315Y-151353216D01*
X148517511Y-151398971D01*
X148448353Y-151408915D01*
X148437494Y-151406856D01*
X148433484Y-151405908D01*
X148373883Y-151399501D01*
X148373881Y-151399500D01*
X148373873Y-151399500D01*
X148373864Y-151399500D01*
X145768129Y-151399500D01*
X145768123Y-151399501D01*
X145708516Y-151405908D01*
X145573671Y-151456202D01*
X145573664Y-151456206D01*
X145458455Y-151542452D01*
X145458452Y-151542455D01*
X145372206Y-151657664D01*
X145372202Y-151657671D01*
X145321908Y-151792517D01*
X145315501Y-151852116D01*
X145315501Y-151852123D01*
X145315500Y-151852135D01*
X145315500Y-152947870D01*
X145315501Y-152947876D01*
X145321908Y-153007483D01*
X145372202Y-153142328D01*
X145372206Y-153142335D01*
X145458452Y-153257544D01*
X145458455Y-153257547D01*
X145573664Y-153343793D01*
X145573671Y-153343797D01*
X145708517Y-153394091D01*
X145708516Y-153394091D01*
X145715444Y-153394835D01*
X145768127Y-153400500D01*
X148373872Y-153400499D01*
X148433483Y-153394091D01*
X148433486Y-153394089D01*
X148437479Y-153393147D01*
X148440673Y-153393318D01*
X148441196Y-153393262D01*
X148441205Y-153393346D01*
X148507249Y-153396884D01*
X148563922Y-153437748D01*
X148589506Y-153502765D01*
X148590000Y-153513822D01*
X148590000Y-154190500D01*
X148570315Y-154257539D01*
X148517511Y-154303294D01*
X148466000Y-154314500D01*
X145589467Y-154314500D01*
X145522428Y-154294815D01*
X145476673Y-154242011D01*
X145473285Y-154233834D01*
X145459796Y-154197669D01*
X145459793Y-154197664D01*
X145373547Y-154082455D01*
X145373544Y-154082452D01*
X145258335Y-153996206D01*
X145258328Y-153996202D01*
X145123482Y-153945908D01*
X145123483Y-153945908D01*
X145063883Y-153939501D01*
X145063881Y-153939500D01*
X145063873Y-153939500D01*
X145063864Y-153939500D01*
X142458129Y-153939500D01*
X142458123Y-153939501D01*
X142398516Y-153945908D01*
X142263671Y-153996202D01*
X142263664Y-153996206D01*
X142148455Y-154082452D01*
X142148452Y-154082455D01*
X142062206Y-154197664D01*
X142062202Y-154197671D01*
X142011908Y-154332517D01*
X142005501Y-154392116D01*
X142005501Y-154392123D01*
X142005500Y-154392135D01*
X142005500Y-155487870D01*
X142005501Y-155487876D01*
X142011908Y-155547483D01*
X142062202Y-155682328D01*
X142062206Y-155682335D01*
X142148452Y-155797544D01*
X142148455Y-155797547D01*
X142263664Y-155883793D01*
X142263671Y-155883797D01*
X142398517Y-155934091D01*
X142398516Y-155934091D01*
X142405444Y-155934835D01*
X142458127Y-155940500D01*
X145063872Y-155940499D01*
X145123483Y-155934091D01*
X145258331Y-155883796D01*
X145373546Y-155797546D01*
X145459796Y-155682331D01*
X145466547Y-155664229D01*
X145473285Y-155646166D01*
X145515157Y-155590233D01*
X145580621Y-155565816D01*
X145589467Y-155565500D01*
X148466000Y-155565500D01*
X148533039Y-155585185D01*
X148578794Y-155637989D01*
X148590000Y-155689500D01*
X148590000Y-156366177D01*
X148570315Y-156433216D01*
X148517511Y-156478971D01*
X148448353Y-156488915D01*
X148437494Y-156486856D01*
X148433484Y-156485908D01*
X148373883Y-156479501D01*
X148373881Y-156479500D01*
X148373873Y-156479500D01*
X148373864Y-156479500D01*
X145768129Y-156479500D01*
X145768123Y-156479501D01*
X145708516Y-156485908D01*
X145573671Y-156536202D01*
X145573664Y-156536206D01*
X145458455Y-156622452D01*
X145458452Y-156622455D01*
X145372206Y-156737664D01*
X145372202Y-156737671D01*
X145321908Y-156872517D01*
X145315501Y-156932116D01*
X145315501Y-156932123D01*
X145315500Y-156932135D01*
X145315500Y-158027870D01*
X145315501Y-158027876D01*
X145321908Y-158087483D01*
X145372202Y-158222328D01*
X145372206Y-158222335D01*
X145458452Y-158337544D01*
X145458455Y-158337547D01*
X145573664Y-158423793D01*
X145573671Y-158423797D01*
X145708517Y-158474091D01*
X145708516Y-158474091D01*
X145715444Y-158474835D01*
X145768127Y-158480500D01*
X148373872Y-158480499D01*
X148433483Y-158474091D01*
X148433486Y-158474089D01*
X148437479Y-158473147D01*
X148440673Y-158473318D01*
X148441196Y-158473262D01*
X148441205Y-158473346D01*
X148507249Y-158476884D01*
X148563922Y-158517748D01*
X148589506Y-158582765D01*
X148590000Y-158593822D01*
X148590000Y-159270500D01*
X148570315Y-159337539D01*
X148517511Y-159383294D01*
X148466000Y-159394500D01*
X145589467Y-159394500D01*
X145522428Y-159374815D01*
X145476673Y-159322011D01*
X145473285Y-159313834D01*
X145459796Y-159277669D01*
X145459793Y-159277664D01*
X145373547Y-159162455D01*
X145373544Y-159162452D01*
X145258335Y-159076206D01*
X145258328Y-159076202D01*
X145123482Y-159025908D01*
X145123483Y-159025908D01*
X145063883Y-159019501D01*
X145063881Y-159019500D01*
X145063873Y-159019500D01*
X145063864Y-159019500D01*
X142458129Y-159019500D01*
X142458123Y-159019501D01*
X142398516Y-159025908D01*
X142263671Y-159076202D01*
X142263664Y-159076206D01*
X142148455Y-159162452D01*
X142148452Y-159162455D01*
X142062206Y-159277664D01*
X142062202Y-159277671D01*
X142011908Y-159412517D01*
X142005501Y-159472116D01*
X142005501Y-159472123D01*
X142005500Y-159472135D01*
X142005500Y-160567870D01*
X142005501Y-160567876D01*
X142011908Y-160627483D01*
X142062202Y-160762328D01*
X142062206Y-160762335D01*
X142148452Y-160877544D01*
X142148455Y-160877547D01*
X142263664Y-160963793D01*
X142263671Y-160963797D01*
X142398517Y-161014091D01*
X142398516Y-161014091D01*
X142405444Y-161014835D01*
X142458127Y-161020500D01*
X145063872Y-161020499D01*
X145123483Y-161014091D01*
X145258331Y-160963796D01*
X145373546Y-160877546D01*
X145459796Y-160762331D01*
X145466547Y-160744229D01*
X145473285Y-160726166D01*
X145515157Y-160670233D01*
X145580621Y-160645816D01*
X145589467Y-160645500D01*
X148466000Y-160645500D01*
X148533039Y-160665185D01*
X148578794Y-160717989D01*
X148590000Y-160769500D01*
X148590000Y-161446177D01*
X148570315Y-161513216D01*
X148517511Y-161558971D01*
X148448353Y-161568915D01*
X148437494Y-161566856D01*
X148433484Y-161565908D01*
X148373883Y-161559501D01*
X148373881Y-161559500D01*
X148373873Y-161559500D01*
X148373864Y-161559500D01*
X145768129Y-161559500D01*
X145768123Y-161559501D01*
X145708516Y-161565908D01*
X145573671Y-161616202D01*
X145573664Y-161616206D01*
X145458455Y-161702452D01*
X145458452Y-161702455D01*
X145372206Y-161817664D01*
X145372202Y-161817671D01*
X145321908Y-161952517D01*
X145315501Y-162012116D01*
X145315501Y-162012123D01*
X145315500Y-162012135D01*
X145315500Y-163107870D01*
X145315501Y-163107876D01*
X145321908Y-163167483D01*
X145372202Y-163302328D01*
X145372206Y-163302335D01*
X145458452Y-163417544D01*
X145458455Y-163417547D01*
X145573664Y-163503793D01*
X145573671Y-163503797D01*
X145708517Y-163554091D01*
X145708516Y-163554091D01*
X145715444Y-163554835D01*
X145768127Y-163560500D01*
X148373872Y-163560499D01*
X148433483Y-163554091D01*
X148433486Y-163554089D01*
X148437479Y-163553147D01*
X148440673Y-163553318D01*
X148441196Y-163553262D01*
X148441205Y-163553346D01*
X148507249Y-163556884D01*
X148563922Y-163597748D01*
X148589506Y-163662765D01*
X148590000Y-163673822D01*
X148590000Y-165745500D01*
X148570315Y-165812539D01*
X148517511Y-165858294D01*
X148466000Y-165869500D01*
X128394000Y-165869500D01*
X128326961Y-165849815D01*
X128281206Y-165797011D01*
X128270000Y-165745500D01*
X128270000Y-163309500D01*
X128289685Y-163242461D01*
X128342489Y-163196706D01*
X128394000Y-163185500D01*
X131270533Y-163185500D01*
X131337572Y-163205185D01*
X131383327Y-163257989D01*
X131386715Y-163266166D01*
X131400203Y-163302330D01*
X131400206Y-163302335D01*
X131486452Y-163417544D01*
X131486455Y-163417547D01*
X131601664Y-163503793D01*
X131601671Y-163503797D01*
X131736517Y-163554091D01*
X131736516Y-163554091D01*
X131743444Y-163554835D01*
X131796127Y-163560500D01*
X134401872Y-163560499D01*
X134461483Y-163554091D01*
X134596331Y-163503796D01*
X134711546Y-163417546D01*
X134797796Y-163302331D01*
X134848091Y-163167483D01*
X134854500Y-163107873D01*
X134854499Y-162012128D01*
X134848091Y-161952517D01*
X134841253Y-161934184D01*
X134797797Y-161817671D01*
X134797793Y-161817664D01*
X134711547Y-161702455D01*
X134711544Y-161702452D01*
X134596335Y-161616206D01*
X134596328Y-161616202D01*
X134461482Y-161565908D01*
X134461483Y-161565908D01*
X134401883Y-161559501D01*
X134401881Y-161559500D01*
X134401873Y-161559500D01*
X134401864Y-161559500D01*
X131796129Y-161559500D01*
X131796123Y-161559501D01*
X131736516Y-161565908D01*
X131601671Y-161616202D01*
X131601664Y-161616206D01*
X131486455Y-161702452D01*
X131486452Y-161702455D01*
X131400206Y-161817664D01*
X131400203Y-161817669D01*
X131386715Y-161853834D01*
X131344843Y-161909767D01*
X131279379Y-161934184D01*
X131270533Y-161934500D01*
X128394000Y-161934500D01*
X128326961Y-161914815D01*
X128281206Y-161862011D01*
X128270000Y-161810500D01*
X128270000Y-161133822D01*
X128289685Y-161066783D01*
X128342489Y-161021028D01*
X128411647Y-161011084D01*
X128422516Y-161013145D01*
X128426506Y-161014087D01*
X128426517Y-161014091D01*
X128486127Y-161020500D01*
X131091872Y-161020499D01*
X131151483Y-161014091D01*
X131286331Y-160963796D01*
X131401546Y-160877546D01*
X131487796Y-160762331D01*
X131538091Y-160627483D01*
X131544500Y-160567873D01*
X131544499Y-159472128D01*
X131538091Y-159412517D01*
X131504334Y-159322011D01*
X131487797Y-159277671D01*
X131487793Y-159277664D01*
X131401547Y-159162455D01*
X131401544Y-159162452D01*
X131286335Y-159076206D01*
X131286328Y-159076202D01*
X131151482Y-159025908D01*
X131151483Y-159025908D01*
X131091883Y-159019501D01*
X131091881Y-159019500D01*
X131091873Y-159019500D01*
X131091864Y-159019500D01*
X128486129Y-159019500D01*
X128486123Y-159019501D01*
X128426514Y-159025909D01*
X128422511Y-159026855D01*
X128419312Y-159026683D01*
X128418804Y-159026738D01*
X128418795Y-159026655D01*
X128352742Y-159023112D01*
X128296071Y-158982243D01*
X128270493Y-158917223D01*
X128270000Y-158906177D01*
X128270000Y-158229500D01*
X128289685Y-158162461D01*
X128342489Y-158116706D01*
X128394000Y-158105500D01*
X131270533Y-158105500D01*
X131337572Y-158125185D01*
X131383327Y-158177989D01*
X131386715Y-158186166D01*
X131400203Y-158222330D01*
X131400206Y-158222335D01*
X131486452Y-158337544D01*
X131486455Y-158337547D01*
X131601664Y-158423793D01*
X131601671Y-158423797D01*
X131736517Y-158474091D01*
X131736516Y-158474091D01*
X131743444Y-158474835D01*
X131796127Y-158480500D01*
X134401872Y-158480499D01*
X134461483Y-158474091D01*
X134596331Y-158423796D01*
X134711546Y-158337546D01*
X134797796Y-158222331D01*
X134848091Y-158087483D01*
X134854500Y-158027873D01*
X134854499Y-156932128D01*
X134848091Y-156872517D01*
X134841253Y-156854184D01*
X134797797Y-156737671D01*
X134797793Y-156737664D01*
X134711547Y-156622455D01*
X134711544Y-156622452D01*
X134596335Y-156536206D01*
X134596328Y-156536202D01*
X134461482Y-156485908D01*
X134461483Y-156485908D01*
X134401883Y-156479501D01*
X134401881Y-156479500D01*
X134401873Y-156479500D01*
X134401864Y-156479500D01*
X131796129Y-156479500D01*
X131796123Y-156479501D01*
X131736516Y-156485908D01*
X131601671Y-156536202D01*
X131601664Y-156536206D01*
X131486455Y-156622452D01*
X131486452Y-156622455D01*
X131400206Y-156737664D01*
X131400203Y-156737669D01*
X131386715Y-156773834D01*
X131344843Y-156829767D01*
X131279379Y-156854184D01*
X131270533Y-156854500D01*
X128394000Y-156854500D01*
X128326961Y-156834815D01*
X128281206Y-156782011D01*
X128270000Y-156730500D01*
X128270000Y-156053822D01*
X128289685Y-155986783D01*
X128342489Y-155941028D01*
X128411647Y-155931084D01*
X128422516Y-155933145D01*
X128426506Y-155934087D01*
X128426517Y-155934091D01*
X128486127Y-155940500D01*
X131091872Y-155940499D01*
X131151483Y-155934091D01*
X131286331Y-155883796D01*
X131401546Y-155797546D01*
X131487796Y-155682331D01*
X131538091Y-155547483D01*
X131544500Y-155487873D01*
X131544499Y-154392128D01*
X131538091Y-154332517D01*
X131504334Y-154242011D01*
X131487797Y-154197671D01*
X131487793Y-154197664D01*
X131401547Y-154082455D01*
X131401544Y-154082452D01*
X131286335Y-153996206D01*
X131286328Y-153996202D01*
X131151482Y-153945908D01*
X131151483Y-153945908D01*
X131091883Y-153939501D01*
X131091881Y-153939500D01*
X131091873Y-153939500D01*
X131091864Y-153939500D01*
X128486129Y-153939500D01*
X128486123Y-153939501D01*
X128426514Y-153945909D01*
X128422511Y-153946855D01*
X128419312Y-153946683D01*
X128418804Y-153946738D01*
X128418795Y-153946655D01*
X128352742Y-153943112D01*
X128296071Y-153902243D01*
X128270493Y-153837223D01*
X128270000Y-153826177D01*
X128270000Y-153149500D01*
X128289685Y-153082461D01*
X128342489Y-153036706D01*
X128394000Y-153025500D01*
X131270533Y-153025500D01*
X131337572Y-153045185D01*
X131383327Y-153097989D01*
X131386715Y-153106166D01*
X131400203Y-153142330D01*
X131400206Y-153142335D01*
X131486452Y-153257544D01*
X131486455Y-153257547D01*
X131601664Y-153343793D01*
X131601671Y-153343797D01*
X131736517Y-153394091D01*
X131736516Y-153394091D01*
X131743444Y-153394835D01*
X131796127Y-153400500D01*
X134401872Y-153400499D01*
X134461483Y-153394091D01*
X134596331Y-153343796D01*
X134711546Y-153257546D01*
X134797796Y-153142331D01*
X134848091Y-153007483D01*
X134854500Y-152947873D01*
X134854499Y-151852128D01*
X134848091Y-151792517D01*
X134841253Y-151774184D01*
X134797797Y-151657671D01*
X134797793Y-151657664D01*
X134711547Y-151542455D01*
X134711544Y-151542452D01*
X134596335Y-151456206D01*
X134596328Y-151456202D01*
X134461482Y-151405908D01*
X134461483Y-151405908D01*
X134401883Y-151399501D01*
X134401881Y-151399500D01*
X134401873Y-151399500D01*
X134401864Y-151399500D01*
X131796129Y-151399500D01*
X131796123Y-151399501D01*
X131736516Y-151405908D01*
X131601671Y-151456202D01*
X131601664Y-151456206D01*
X131486455Y-151542452D01*
X131486452Y-151542455D01*
X131400206Y-151657664D01*
X131400203Y-151657669D01*
X131386715Y-151693834D01*
X131344843Y-151749767D01*
X131279379Y-151774184D01*
X131270533Y-151774500D01*
X128394000Y-151774500D01*
X128326961Y-151754815D01*
X128281206Y-151702011D01*
X128270000Y-151650500D01*
X128270000Y-150973822D01*
X128289685Y-150906783D01*
X128342489Y-150861028D01*
X128411647Y-150851084D01*
X128422516Y-150853145D01*
X128426506Y-150854087D01*
X128426517Y-150854091D01*
X128486127Y-150860500D01*
X131091872Y-150860499D01*
X131151483Y-150854091D01*
X131286331Y-150803796D01*
X131401546Y-150717546D01*
X131487796Y-150602331D01*
X131538091Y-150467483D01*
X131544500Y-150407873D01*
X131544499Y-149312128D01*
X131538091Y-149252517D01*
X131504334Y-149162011D01*
X131487797Y-149117671D01*
X131487793Y-149117664D01*
X131401547Y-149002455D01*
X131401544Y-149002452D01*
X131286335Y-148916206D01*
X131286328Y-148916202D01*
X131151482Y-148865908D01*
X131151483Y-148865908D01*
X131091883Y-148859501D01*
X131091881Y-148859500D01*
X131091873Y-148859500D01*
X131091864Y-148859500D01*
X128486129Y-148859500D01*
X128486123Y-148859501D01*
X128426514Y-148865909D01*
X128422511Y-148866855D01*
X128419312Y-148866683D01*
X128418804Y-148866738D01*
X128418795Y-148866655D01*
X128352742Y-148863112D01*
X128296071Y-148822243D01*
X128270493Y-148757223D01*
X128270000Y-148746177D01*
X128270000Y-148069500D01*
X128289685Y-148002461D01*
X128342489Y-147956706D01*
X128394000Y-147945500D01*
X131270533Y-147945500D01*
X131337572Y-147965185D01*
X131383327Y-148017989D01*
X131386715Y-148026166D01*
X131400203Y-148062330D01*
X131400206Y-148062335D01*
X131486452Y-148177544D01*
X131486455Y-148177547D01*
X131601664Y-148263793D01*
X131601671Y-148263797D01*
X131736517Y-148314091D01*
X131736516Y-148314091D01*
X131743444Y-148314835D01*
X131796127Y-148320500D01*
X134401872Y-148320499D01*
X134461483Y-148314091D01*
X134596331Y-148263796D01*
X134711546Y-148177546D01*
X134797796Y-148062331D01*
X134848091Y-147927483D01*
X134854500Y-147867873D01*
X134854499Y-146772128D01*
X134848091Y-146712517D01*
X134841253Y-146694184D01*
X134797797Y-146577671D01*
X134797793Y-146577664D01*
X134711547Y-146462455D01*
X134711544Y-146462452D01*
X134596335Y-146376206D01*
X134596328Y-146376202D01*
X134461482Y-146325908D01*
X134461483Y-146325908D01*
X134401883Y-146319501D01*
X134401881Y-146319500D01*
X134401873Y-146319500D01*
X134401864Y-146319500D01*
X131796129Y-146319500D01*
X131796123Y-146319501D01*
X131736516Y-146325908D01*
X131601671Y-146376202D01*
X131601664Y-146376206D01*
X131486455Y-146462452D01*
X131486452Y-146462455D01*
X131400206Y-146577664D01*
X131400203Y-146577669D01*
X131386715Y-146613834D01*
X131344843Y-146669767D01*
X131279379Y-146694184D01*
X131270533Y-146694500D01*
X128394000Y-146694500D01*
X128326961Y-146674815D01*
X128281206Y-146622011D01*
X128270000Y-146570500D01*
X128270000Y-145893822D01*
X128289685Y-145826783D01*
X128342489Y-145781028D01*
X128411647Y-145771084D01*
X128422516Y-145773145D01*
X128426506Y-145774087D01*
X128426517Y-145774091D01*
X128486127Y-145780500D01*
X131091872Y-145780499D01*
X131151483Y-145774091D01*
X131286331Y-145723796D01*
X131401546Y-145637546D01*
X131487796Y-145522331D01*
X131538091Y-145387483D01*
X131544500Y-145327873D01*
X131544499Y-144232128D01*
X131538091Y-144172517D01*
X131504334Y-144082011D01*
X131487797Y-144037671D01*
X131487793Y-144037664D01*
X131401547Y-143922455D01*
X131401544Y-143922452D01*
X131286335Y-143836206D01*
X131286328Y-143836202D01*
X131151482Y-143785908D01*
X131151483Y-143785908D01*
X131091883Y-143779501D01*
X131091881Y-143779500D01*
X131091873Y-143779500D01*
X131091864Y-143779500D01*
X128486129Y-143779500D01*
X128486123Y-143779501D01*
X128426514Y-143785909D01*
X128422511Y-143786855D01*
X128419312Y-143786683D01*
X128418804Y-143786738D01*
X128418795Y-143786655D01*
X128352742Y-143783112D01*
X128296071Y-143742243D01*
X128270493Y-143677223D01*
X128270000Y-143666177D01*
X128270000Y-142989500D01*
X128289685Y-142922461D01*
X128342489Y-142876706D01*
X128394000Y-142865500D01*
X131270533Y-142865500D01*
X131337572Y-142885185D01*
X131383327Y-142937989D01*
X131386715Y-142946166D01*
X131400203Y-142982330D01*
X131400206Y-142982335D01*
X131486452Y-143097544D01*
X131486455Y-143097547D01*
X131601664Y-143183793D01*
X131601671Y-143183797D01*
X131736517Y-143234091D01*
X131736516Y-143234091D01*
X131743444Y-143234835D01*
X131796127Y-143240500D01*
X134401872Y-143240499D01*
X134461483Y-143234091D01*
X134596331Y-143183796D01*
X134711546Y-143097546D01*
X134797796Y-142982331D01*
X134848091Y-142847483D01*
X134854500Y-142787873D01*
X134854499Y-141692128D01*
X134848091Y-141632517D01*
X134841253Y-141614184D01*
X134797797Y-141497671D01*
X134797793Y-141497664D01*
X134711547Y-141382455D01*
X134711544Y-141382452D01*
X134596335Y-141296206D01*
X134596328Y-141296202D01*
X134461482Y-141245908D01*
X134461483Y-141245908D01*
X134401883Y-141239501D01*
X134401881Y-141239500D01*
X134401873Y-141239500D01*
X134401864Y-141239500D01*
X131796129Y-141239500D01*
X131796123Y-141239501D01*
X131736516Y-141245908D01*
X131601671Y-141296202D01*
X131601664Y-141296206D01*
X131486455Y-141382452D01*
X131486452Y-141382455D01*
X131400206Y-141497664D01*
X131400203Y-141497669D01*
X131386715Y-141533834D01*
X131344843Y-141589767D01*
X131279379Y-141614184D01*
X131270533Y-141614500D01*
X128394000Y-141614500D01*
X128326961Y-141594815D01*
X128281206Y-141542011D01*
X128270000Y-141490500D01*
X128270000Y-140813822D01*
X128289685Y-140746783D01*
X128342489Y-140701028D01*
X128411647Y-140691084D01*
X128422516Y-140693145D01*
X128426506Y-140694087D01*
X128426517Y-140694091D01*
X128486127Y-140700500D01*
X131091872Y-140700499D01*
X131151483Y-140694091D01*
X131286331Y-140643796D01*
X131401546Y-140557546D01*
X131487796Y-140442331D01*
X131538091Y-140307483D01*
X131544500Y-140247873D01*
X131544499Y-139152128D01*
X131538091Y-139092517D01*
X131504334Y-139002011D01*
X131487797Y-138957671D01*
X131487793Y-138957664D01*
X131401547Y-138842455D01*
X131401544Y-138842452D01*
X131286335Y-138756206D01*
X131286328Y-138756202D01*
X131151482Y-138705908D01*
X131151483Y-138705908D01*
X131091883Y-138699501D01*
X131091881Y-138699500D01*
X131091873Y-138699500D01*
X131091864Y-138699500D01*
X128486129Y-138699500D01*
X128486123Y-138699501D01*
X128426514Y-138705909D01*
X128422511Y-138706855D01*
X128419312Y-138706683D01*
X128418804Y-138706738D01*
X128418795Y-138706655D01*
X128352742Y-138703112D01*
X128296071Y-138662243D01*
X128270493Y-138597223D01*
X128270000Y-138586177D01*
X128270000Y-137909500D01*
X128289685Y-137842461D01*
X128342489Y-137796706D01*
X128394000Y-137785500D01*
X131270533Y-137785500D01*
X131337572Y-137805185D01*
X131383327Y-137857989D01*
X131386715Y-137866166D01*
X131400203Y-137902330D01*
X131400206Y-137902335D01*
X131486452Y-138017544D01*
X131486455Y-138017547D01*
X131601664Y-138103793D01*
X131601671Y-138103797D01*
X131736517Y-138154091D01*
X131736516Y-138154091D01*
X131743444Y-138154835D01*
X131796127Y-138160500D01*
X134401872Y-138160499D01*
X134461483Y-138154091D01*
X134596331Y-138103796D01*
X134711546Y-138017546D01*
X134797796Y-137902331D01*
X134848091Y-137767483D01*
X134854500Y-137707873D01*
X134854499Y-136612128D01*
X134848091Y-136552517D01*
X134841253Y-136534184D01*
X134797797Y-136417671D01*
X134797793Y-136417664D01*
X134711547Y-136302455D01*
X134711544Y-136302452D01*
X134596335Y-136216206D01*
X134596328Y-136216202D01*
X134461482Y-136165908D01*
X134461483Y-136165908D01*
X134401883Y-136159501D01*
X134401881Y-136159500D01*
X134401873Y-136159500D01*
X134401864Y-136159500D01*
X131796129Y-136159500D01*
X131796123Y-136159501D01*
X131736516Y-136165908D01*
X131601671Y-136216202D01*
X131601664Y-136216206D01*
X131486455Y-136302452D01*
X131486452Y-136302455D01*
X131400206Y-136417664D01*
X131400203Y-136417669D01*
X131386715Y-136453834D01*
X131344843Y-136509767D01*
X131279379Y-136534184D01*
X131270533Y-136534500D01*
X128394000Y-136534500D01*
X128326961Y-136514815D01*
X128281206Y-136462011D01*
X128270000Y-136410500D01*
X128270000Y-135733822D01*
X128289685Y-135666783D01*
X128342489Y-135621028D01*
X128411647Y-135611084D01*
X128422516Y-135613145D01*
X128426506Y-135614087D01*
X128426517Y-135614091D01*
X128486127Y-135620500D01*
X131091872Y-135620499D01*
X131151483Y-135614091D01*
X131286331Y-135563796D01*
X131401546Y-135477546D01*
X131487796Y-135362331D01*
X131538091Y-135227483D01*
X131544500Y-135167873D01*
X131544499Y-134072128D01*
X131538091Y-134012517D01*
X131504334Y-133922011D01*
X131487797Y-133877671D01*
X131487793Y-133877664D01*
X131401547Y-133762455D01*
X131401544Y-133762452D01*
X131286335Y-133676206D01*
X131286328Y-133676202D01*
X131151482Y-133625908D01*
X131151483Y-133625908D01*
X131091883Y-133619501D01*
X131091881Y-133619500D01*
X131091873Y-133619500D01*
X131091864Y-133619500D01*
X128486129Y-133619500D01*
X128486123Y-133619501D01*
X128426514Y-133625909D01*
X128422511Y-133626855D01*
X128419312Y-133626683D01*
X128418804Y-133626738D01*
X128418795Y-133626655D01*
X128352742Y-133623112D01*
X128296071Y-133582243D01*
X128270493Y-133517223D01*
X128270000Y-133506177D01*
X128270000Y-132829500D01*
X128289685Y-132762461D01*
X128342489Y-132716706D01*
X128394000Y-132705500D01*
X131270533Y-132705500D01*
X131337572Y-132725185D01*
X131383327Y-132777989D01*
X131386715Y-132786166D01*
X131400203Y-132822330D01*
X131400206Y-132822335D01*
X131486452Y-132937544D01*
X131486455Y-132937547D01*
X131601664Y-133023793D01*
X131601671Y-133023797D01*
X131736517Y-133074091D01*
X131736516Y-133074091D01*
X131743444Y-133074835D01*
X131796127Y-133080500D01*
X134401872Y-133080499D01*
X134461483Y-133074091D01*
X134596331Y-133023796D01*
X134711546Y-132937546D01*
X134797796Y-132822331D01*
X134848091Y-132687483D01*
X134854500Y-132627873D01*
X134854499Y-131532128D01*
X134848091Y-131472517D01*
X134841253Y-131454184D01*
X134797797Y-131337671D01*
X134797793Y-131337664D01*
X134711547Y-131222455D01*
X134711544Y-131222452D01*
X134596335Y-131136206D01*
X134596328Y-131136202D01*
X134461482Y-131085908D01*
X134461483Y-131085908D01*
X134401883Y-131079501D01*
X134401881Y-131079500D01*
X134401873Y-131079500D01*
X134401864Y-131079500D01*
X131796129Y-131079500D01*
X131796123Y-131079501D01*
X131736516Y-131085908D01*
X131601671Y-131136202D01*
X131601664Y-131136206D01*
X131486455Y-131222452D01*
X131486452Y-131222455D01*
X131400206Y-131337664D01*
X131400203Y-131337669D01*
X131386715Y-131373834D01*
X131344843Y-131429767D01*
X131279379Y-131454184D01*
X131270533Y-131454500D01*
X128394000Y-131454500D01*
X128326961Y-131434815D01*
X128281206Y-131382011D01*
X128270000Y-131330500D01*
X128270000Y-130653822D01*
X128289685Y-130586783D01*
X128342489Y-130541028D01*
X128411647Y-130531084D01*
X128422516Y-130533145D01*
X128426506Y-130534087D01*
X128426517Y-130534091D01*
X128486127Y-130540500D01*
X131091872Y-130540499D01*
X131151483Y-130534091D01*
X131286331Y-130483796D01*
X131401546Y-130397546D01*
X131487796Y-130282331D01*
X131538091Y-130147483D01*
X131544500Y-130087873D01*
X131544499Y-128992128D01*
X131538091Y-128932517D01*
X131504334Y-128842011D01*
X131487797Y-128797671D01*
X131487793Y-128797664D01*
X131401547Y-128682455D01*
X131401544Y-128682452D01*
X131286335Y-128596206D01*
X131286328Y-128596202D01*
X131151482Y-128545908D01*
X131151483Y-128545908D01*
X131091883Y-128539501D01*
X131091881Y-128539500D01*
X131091873Y-128539500D01*
X131091864Y-128539500D01*
X128486129Y-128539500D01*
X128486123Y-128539501D01*
X128426514Y-128545909D01*
X128422511Y-128546855D01*
X128419312Y-128546683D01*
X128418804Y-128546738D01*
X128418795Y-128546655D01*
X128352742Y-128543112D01*
X128296071Y-128502243D01*
X128270493Y-128437223D01*
X128270000Y-128426177D01*
X128270000Y-127749500D01*
X128289685Y-127682461D01*
X128342489Y-127636706D01*
X128394000Y-127625500D01*
X131270533Y-127625500D01*
X131337572Y-127645185D01*
X131383327Y-127697989D01*
X131386715Y-127706166D01*
X131400203Y-127742330D01*
X131400206Y-127742335D01*
X131486452Y-127857544D01*
X131486455Y-127857547D01*
X131601664Y-127943793D01*
X131601671Y-127943797D01*
X131736517Y-127994091D01*
X131736516Y-127994091D01*
X131743444Y-127994835D01*
X131796127Y-128000500D01*
X134401872Y-128000499D01*
X134461483Y-127994091D01*
X134596331Y-127943796D01*
X134711546Y-127857546D01*
X134797796Y-127742331D01*
X134848091Y-127607483D01*
X134854500Y-127547873D01*
X134854499Y-126452128D01*
X134848091Y-126392517D01*
X134841253Y-126374184D01*
X134797797Y-126257671D01*
X134797793Y-126257664D01*
X134711547Y-126142455D01*
X134711544Y-126142452D01*
X134596335Y-126056206D01*
X134596328Y-126056202D01*
X134461482Y-126005908D01*
X134461483Y-126005908D01*
X134401883Y-125999501D01*
X134401881Y-125999500D01*
X134401873Y-125999500D01*
X134401864Y-125999500D01*
X131796129Y-125999500D01*
X131796123Y-125999501D01*
X131736516Y-126005908D01*
X131601671Y-126056202D01*
X131601664Y-126056206D01*
X131486455Y-126142452D01*
X131486452Y-126142455D01*
X131400206Y-126257664D01*
X131400203Y-126257669D01*
X131386715Y-126293834D01*
X131344843Y-126349767D01*
X131279379Y-126374184D01*
X131270533Y-126374500D01*
X128394000Y-126374500D01*
X128326961Y-126354815D01*
X128281206Y-126302011D01*
X128270000Y-126250500D01*
X128270000Y-125573822D01*
X128289685Y-125506783D01*
X128342489Y-125461028D01*
X128411647Y-125451084D01*
X128422516Y-125453145D01*
X128426506Y-125454087D01*
X128426517Y-125454091D01*
X128486127Y-125460500D01*
X131091872Y-125460499D01*
X131151483Y-125454091D01*
X131286331Y-125403796D01*
X131401546Y-125317546D01*
X131487796Y-125202331D01*
X131538091Y-125067483D01*
X131544500Y-125007873D01*
X131544499Y-123912128D01*
X131538091Y-123852517D01*
X131504334Y-123762011D01*
X131487797Y-123717671D01*
X131487793Y-123717664D01*
X131401547Y-123602455D01*
X131401544Y-123602452D01*
X131286335Y-123516206D01*
X131286328Y-123516202D01*
X131151482Y-123465908D01*
X131151483Y-123465908D01*
X131091883Y-123459501D01*
X131091881Y-123459500D01*
X131091873Y-123459500D01*
X131091864Y-123459500D01*
X128486129Y-123459500D01*
X128486123Y-123459501D01*
X128426514Y-123465909D01*
X128422511Y-123466855D01*
X128419312Y-123466683D01*
X128418804Y-123466738D01*
X128418795Y-123466655D01*
X128352742Y-123463112D01*
X128296071Y-123422243D01*
X128270493Y-123357223D01*
X128270000Y-123346177D01*
X128270000Y-122669500D01*
X128289685Y-122602461D01*
X128342489Y-122556706D01*
X128394000Y-122545500D01*
X131270533Y-122545500D01*
X131337572Y-122565185D01*
X131383327Y-122617989D01*
X131386715Y-122626166D01*
X131400203Y-122662330D01*
X131400206Y-122662335D01*
X131486452Y-122777544D01*
X131486455Y-122777547D01*
X131601664Y-122863793D01*
X131601671Y-122863797D01*
X131736517Y-122914091D01*
X131736516Y-122914091D01*
X131743444Y-122914835D01*
X131796127Y-122920500D01*
X134401872Y-122920499D01*
X134461483Y-122914091D01*
X134596331Y-122863796D01*
X134711546Y-122777546D01*
X134797796Y-122662331D01*
X134848091Y-122527483D01*
X134854500Y-122467873D01*
X134854499Y-121372128D01*
X134848091Y-121312517D01*
X134841253Y-121294184D01*
X134797797Y-121177671D01*
X134797793Y-121177664D01*
X134711547Y-121062455D01*
X134711544Y-121062452D01*
X134596335Y-120976206D01*
X134596328Y-120976202D01*
X134461482Y-120925908D01*
X134461483Y-120925908D01*
X134401883Y-120919501D01*
X134401881Y-120919500D01*
X134401873Y-120919500D01*
X134401864Y-120919500D01*
X131796129Y-120919500D01*
X131796123Y-120919501D01*
X131736516Y-120925908D01*
X131601671Y-120976202D01*
X131601664Y-120976206D01*
X131486455Y-121062452D01*
X131486452Y-121062455D01*
X131400206Y-121177664D01*
X131400203Y-121177669D01*
X131386715Y-121213834D01*
X131344843Y-121269767D01*
X131279379Y-121294184D01*
X131270533Y-121294500D01*
X128394000Y-121294500D01*
X128326961Y-121274815D01*
X128281206Y-121222011D01*
X128270000Y-121170500D01*
X128270000Y-120493822D01*
X128289685Y-120426783D01*
X128342489Y-120381028D01*
X128411647Y-120371084D01*
X128422516Y-120373145D01*
X128426506Y-120374087D01*
X128426517Y-120374091D01*
X128486127Y-120380500D01*
X131091872Y-120380499D01*
X131151483Y-120374091D01*
X131286331Y-120323796D01*
X131401546Y-120237546D01*
X131487796Y-120122331D01*
X131538091Y-119987483D01*
X131544500Y-119927873D01*
X131544499Y-118832128D01*
X131538091Y-118772517D01*
X131504334Y-118682011D01*
X131487797Y-118637671D01*
X131487793Y-118637664D01*
X131401547Y-118522455D01*
X131401544Y-118522452D01*
X131286335Y-118436206D01*
X131286328Y-118436202D01*
X131151482Y-118385908D01*
X131151483Y-118385908D01*
X131091883Y-118379501D01*
X131091881Y-118379500D01*
X131091873Y-118379500D01*
X131091864Y-118379500D01*
X128486129Y-118379500D01*
X128486123Y-118379501D01*
X128426514Y-118385909D01*
X128422511Y-118386855D01*
X128419312Y-118386683D01*
X128418804Y-118386738D01*
X128418795Y-118386655D01*
X128352742Y-118383112D01*
X128296071Y-118342243D01*
X128270493Y-118277223D01*
X128270000Y-118266177D01*
X128270000Y-117589500D01*
X128289685Y-117522461D01*
X128342489Y-117476706D01*
X128394000Y-117465500D01*
X131270533Y-117465500D01*
X131337572Y-117485185D01*
X131383327Y-117537989D01*
X131386715Y-117546166D01*
X131400203Y-117582330D01*
X131400206Y-117582335D01*
X131486452Y-117697544D01*
X131486455Y-117697547D01*
X131601664Y-117783793D01*
X131601671Y-117783797D01*
X131736517Y-117834091D01*
X131736516Y-117834091D01*
X131743444Y-117834835D01*
X131796127Y-117840500D01*
X134401872Y-117840499D01*
X134461483Y-117834091D01*
X134596331Y-117783796D01*
X134711546Y-117697546D01*
X134797796Y-117582331D01*
X134848091Y-117447483D01*
X134854500Y-117387873D01*
X134854499Y-116292128D01*
X134848091Y-116232517D01*
X134841253Y-116214184D01*
X134797797Y-116097671D01*
X134797793Y-116097664D01*
X134711547Y-115982455D01*
X134711544Y-115982452D01*
X134596335Y-115896206D01*
X134596328Y-115896202D01*
X134461482Y-115845908D01*
X134461483Y-115845908D01*
X134401883Y-115839501D01*
X134401881Y-115839500D01*
X134401873Y-115839500D01*
X134401864Y-115839500D01*
X131796129Y-115839500D01*
X131796123Y-115839501D01*
X131736516Y-115845908D01*
X131601671Y-115896202D01*
X131601664Y-115896206D01*
X131486455Y-115982452D01*
X131486452Y-115982455D01*
X131400206Y-116097664D01*
X131400203Y-116097669D01*
X131386715Y-116133834D01*
X131344843Y-116189767D01*
X131279379Y-116214184D01*
X131270533Y-116214500D01*
X128394000Y-116214500D01*
X128326961Y-116194815D01*
X128281206Y-116142011D01*
X128270000Y-116090500D01*
X128270000Y-115413822D01*
X128289685Y-115346783D01*
X128342489Y-115301028D01*
X128411647Y-115291084D01*
X128422516Y-115293145D01*
X128426506Y-115294087D01*
X128426517Y-115294091D01*
X128486127Y-115300500D01*
X131091872Y-115300499D01*
X131151483Y-115294091D01*
X131286331Y-115243796D01*
X131401546Y-115157546D01*
X131487796Y-115042331D01*
X131538091Y-114907483D01*
X131544500Y-114847873D01*
X131544499Y-113752128D01*
X131538091Y-113692517D01*
X131504334Y-113602011D01*
X131487797Y-113557671D01*
X131487793Y-113557664D01*
X131401547Y-113442455D01*
X131401544Y-113442452D01*
X131286335Y-113356206D01*
X131286328Y-113356202D01*
X131151482Y-113305908D01*
X131151483Y-113305908D01*
X131091883Y-113299501D01*
X131091881Y-113299500D01*
X131091873Y-113299500D01*
X131091864Y-113299500D01*
X128486129Y-113299500D01*
X128486123Y-113299501D01*
X128426514Y-113305909D01*
X128422511Y-113306855D01*
X128419312Y-113306683D01*
X128418804Y-113306738D01*
X128418795Y-113306655D01*
X128352742Y-113303112D01*
X128296071Y-113262243D01*
X128270493Y-113197223D01*
X128270000Y-113186177D01*
X128270000Y-112509500D01*
X128289685Y-112442461D01*
X128342489Y-112396706D01*
X128394000Y-112385500D01*
X131270533Y-112385500D01*
X131337572Y-112405185D01*
X131383327Y-112457989D01*
X131386715Y-112466166D01*
X131400203Y-112502330D01*
X131400206Y-112502335D01*
X131486452Y-112617544D01*
X131486455Y-112617547D01*
X131601664Y-112703793D01*
X131601671Y-112703797D01*
X131736517Y-112754091D01*
X131736516Y-112754091D01*
X131743444Y-112754835D01*
X131796127Y-112760500D01*
X134401872Y-112760499D01*
X134461483Y-112754091D01*
X134596331Y-112703796D01*
X134711546Y-112617546D01*
X134797796Y-112502331D01*
X134848091Y-112367483D01*
X134854500Y-112307873D01*
X134854499Y-111212128D01*
X134848091Y-111152517D01*
X134841253Y-111134184D01*
X134797797Y-111017671D01*
X134797793Y-111017664D01*
X134711547Y-110902455D01*
X134711544Y-110902452D01*
X134596335Y-110816206D01*
X134596328Y-110816202D01*
X134461482Y-110765908D01*
X134461483Y-110765908D01*
X134401883Y-110759501D01*
X134401881Y-110759500D01*
X134401873Y-110759500D01*
X134401864Y-110759500D01*
X131796129Y-110759500D01*
X131796123Y-110759501D01*
X131736516Y-110765908D01*
X131601671Y-110816202D01*
X131601664Y-110816206D01*
X131486455Y-110902452D01*
X131486452Y-110902455D01*
X131400206Y-111017664D01*
X131400203Y-111017669D01*
X131386715Y-111053834D01*
X131344843Y-111109767D01*
X131279379Y-111134184D01*
X131270533Y-111134500D01*
X128394000Y-111134500D01*
X128326961Y-111114815D01*
X128281206Y-111062011D01*
X128270000Y-111010500D01*
X128270000Y-110333822D01*
X128289685Y-110266783D01*
X128342489Y-110221028D01*
X128411647Y-110211084D01*
X128422516Y-110213145D01*
X128426506Y-110214087D01*
X128426517Y-110214091D01*
X128486127Y-110220500D01*
X131091872Y-110220499D01*
X131151483Y-110214091D01*
X131286331Y-110163796D01*
X131401546Y-110077546D01*
X131487796Y-109962331D01*
X131538091Y-109827483D01*
X131544500Y-109767873D01*
X131544499Y-108672128D01*
X131538091Y-108612517D01*
X131504334Y-108522011D01*
X131487797Y-108477671D01*
X131487793Y-108477664D01*
X131401547Y-108362455D01*
X131401544Y-108362452D01*
X131286335Y-108276206D01*
X131286328Y-108276202D01*
X131151482Y-108225908D01*
X131151483Y-108225908D01*
X131091883Y-108219501D01*
X131091881Y-108219500D01*
X131091873Y-108219500D01*
X131091864Y-108219500D01*
X128486129Y-108219500D01*
X128486123Y-108219501D01*
X128426514Y-108225909D01*
X128422511Y-108226855D01*
X128419312Y-108226683D01*
X128418804Y-108226738D01*
X128418795Y-108226655D01*
X128352742Y-108223112D01*
X128296071Y-108182243D01*
X128270493Y-108117223D01*
X128270000Y-108106177D01*
X128270000Y-107429500D01*
X128289685Y-107362461D01*
X128342489Y-107316706D01*
X128394000Y-107305500D01*
X131270533Y-107305500D01*
X131337572Y-107325185D01*
X131383327Y-107377989D01*
X131386715Y-107386166D01*
X131400203Y-107422330D01*
X131400206Y-107422335D01*
X131486452Y-107537544D01*
X131486455Y-107537547D01*
X131601664Y-107623793D01*
X131601671Y-107623797D01*
X131736517Y-107674091D01*
X131736516Y-107674091D01*
X131743444Y-107674835D01*
X131796127Y-107680500D01*
X134401872Y-107680499D01*
X134461483Y-107674091D01*
X134596331Y-107623796D01*
X134711546Y-107537546D01*
X134797796Y-107422331D01*
X134848091Y-107287483D01*
X134854500Y-107227873D01*
X134854499Y-106132128D01*
X134848091Y-106072517D01*
X134841253Y-106054184D01*
X134797797Y-105937671D01*
X134797793Y-105937664D01*
X134711547Y-105822455D01*
X134711544Y-105822452D01*
X134596335Y-105736206D01*
X134596328Y-105736202D01*
X134461482Y-105685908D01*
X134461483Y-105685908D01*
X134401883Y-105679501D01*
X134401881Y-105679500D01*
X134401873Y-105679500D01*
X134401864Y-105679500D01*
X131796129Y-105679500D01*
X131796123Y-105679501D01*
X131736516Y-105685908D01*
X131601671Y-105736202D01*
X131601664Y-105736206D01*
X131486455Y-105822452D01*
X131486452Y-105822455D01*
X131400206Y-105937664D01*
X131400203Y-105937669D01*
X131386715Y-105973834D01*
X131344843Y-106029767D01*
X131279379Y-106054184D01*
X131270533Y-106054500D01*
X128394000Y-106054500D01*
X128326961Y-106034815D01*
X128281206Y-105982011D01*
X128270000Y-105930500D01*
X128270000Y-105253822D01*
X128289685Y-105186783D01*
X128342489Y-105141028D01*
X128411647Y-105131084D01*
X128422516Y-105133145D01*
X128426506Y-105134087D01*
X128426517Y-105134091D01*
X128486127Y-105140500D01*
X131091872Y-105140499D01*
X131151483Y-105134091D01*
X131286331Y-105083796D01*
X131401546Y-104997546D01*
X131487796Y-104882331D01*
X131538091Y-104747483D01*
X131544500Y-104687873D01*
X131544499Y-103592128D01*
X131538091Y-103532517D01*
X131504334Y-103442011D01*
X131487797Y-103397671D01*
X131487793Y-103397664D01*
X131401547Y-103282455D01*
X131401544Y-103282452D01*
X131286335Y-103196206D01*
X131286328Y-103196202D01*
X131151482Y-103145908D01*
X131151483Y-103145908D01*
X131091883Y-103139501D01*
X131091881Y-103139500D01*
X131091873Y-103139500D01*
X131091864Y-103139500D01*
X128486129Y-103139500D01*
X128486123Y-103139501D01*
X128426514Y-103145909D01*
X128422511Y-103146855D01*
X128419312Y-103146683D01*
X128418804Y-103146738D01*
X128418795Y-103146655D01*
X128352742Y-103143112D01*
X128296071Y-103102243D01*
X128270493Y-103037223D01*
X128270000Y-103026177D01*
X128270000Y-102349500D01*
X128289685Y-102282461D01*
X128342489Y-102236706D01*
X128394000Y-102225500D01*
X131270533Y-102225500D01*
X131337572Y-102245185D01*
X131383327Y-102297989D01*
X131386715Y-102306166D01*
X131400203Y-102342330D01*
X131400206Y-102342335D01*
X131486452Y-102457544D01*
X131486455Y-102457547D01*
X131601664Y-102543793D01*
X131601671Y-102543797D01*
X131736517Y-102594091D01*
X131736516Y-102594091D01*
X131743444Y-102594835D01*
X131796127Y-102600500D01*
X134401872Y-102600499D01*
X134461483Y-102594091D01*
X134596331Y-102543796D01*
X134711546Y-102457546D01*
X134797796Y-102342331D01*
X134848091Y-102207483D01*
X134854500Y-102147873D01*
X134854499Y-101052128D01*
X134848091Y-100992517D01*
X134841253Y-100974184D01*
X134797797Y-100857671D01*
X134797793Y-100857664D01*
X134711547Y-100742455D01*
X134711544Y-100742452D01*
X134596335Y-100656206D01*
X134596328Y-100656202D01*
X134461482Y-100605908D01*
X134461483Y-100605908D01*
X134401883Y-100599501D01*
X134401881Y-100599500D01*
X134401873Y-100599500D01*
X134401864Y-100599500D01*
X131796129Y-100599500D01*
X131796123Y-100599501D01*
X131736516Y-100605908D01*
X131601671Y-100656202D01*
X131601664Y-100656206D01*
X131486455Y-100742452D01*
X131486452Y-100742455D01*
X131400206Y-100857664D01*
X131400203Y-100857669D01*
X131386715Y-100893834D01*
X131344843Y-100949767D01*
X131279379Y-100974184D01*
X131270533Y-100974500D01*
X128394000Y-100974500D01*
X128326961Y-100954815D01*
X128281206Y-100902011D01*
X128270000Y-100850500D01*
X128270000Y-100173822D01*
X128289685Y-100106783D01*
X128342489Y-100061028D01*
X128411647Y-100051084D01*
X128422516Y-100053145D01*
X128426506Y-100054087D01*
X128426517Y-100054091D01*
X128486127Y-100060500D01*
X131091872Y-100060499D01*
X131151483Y-100054091D01*
X131286331Y-100003796D01*
X131401546Y-99917546D01*
X131487796Y-99802331D01*
X131538091Y-99667483D01*
X131544500Y-99607873D01*
X131544499Y-98512128D01*
X131538091Y-98452517D01*
X131504334Y-98362011D01*
X131487797Y-98317671D01*
X131487793Y-98317664D01*
X131401547Y-98202455D01*
X131401544Y-98202452D01*
X131286335Y-98116206D01*
X131286328Y-98116202D01*
X131151482Y-98065908D01*
X131151483Y-98065908D01*
X131091883Y-98059501D01*
X131091881Y-98059500D01*
X131091873Y-98059500D01*
X131091864Y-98059500D01*
X128486129Y-98059500D01*
X128486123Y-98059501D01*
X128426514Y-98065909D01*
X128422511Y-98066855D01*
X128419312Y-98066683D01*
X128418804Y-98066738D01*
X128418795Y-98066655D01*
X128352742Y-98063112D01*
X128296071Y-98022243D01*
X128270493Y-97957223D01*
X128270000Y-97946177D01*
X128270000Y-97269500D01*
X128289685Y-97202461D01*
X128342489Y-97156706D01*
X128394000Y-97145500D01*
X131270533Y-97145500D01*
X131337572Y-97165185D01*
X131383327Y-97217989D01*
X131386715Y-97226166D01*
X131400203Y-97262330D01*
X131400206Y-97262335D01*
X131486452Y-97377544D01*
X131486455Y-97377547D01*
X131601664Y-97463793D01*
X131601671Y-97463797D01*
X131736517Y-97514091D01*
X131736516Y-97514091D01*
X131743444Y-97514835D01*
X131796127Y-97520500D01*
X134401872Y-97520499D01*
X134461483Y-97514091D01*
X134596331Y-97463796D01*
X134711546Y-97377546D01*
X134797796Y-97262331D01*
X134848091Y-97127483D01*
X134854500Y-97067873D01*
X134854499Y-95972128D01*
X134848091Y-95912517D01*
X134841253Y-95894184D01*
X134797797Y-95777671D01*
X134797793Y-95777664D01*
X134711547Y-95662455D01*
X134711544Y-95662452D01*
X134596335Y-95576206D01*
X134596328Y-95576202D01*
X134461482Y-95525908D01*
X134461483Y-95525908D01*
X134401883Y-95519501D01*
X134401881Y-95519500D01*
X134401873Y-95519500D01*
X134401864Y-95519500D01*
X131796129Y-95519500D01*
X131796123Y-95519501D01*
X131736516Y-95525908D01*
X131601671Y-95576202D01*
X131601664Y-95576206D01*
X131486455Y-95662452D01*
X131486452Y-95662455D01*
X131400206Y-95777664D01*
X131400203Y-95777669D01*
X131386715Y-95813834D01*
X131344843Y-95869767D01*
X131279379Y-95894184D01*
X131270533Y-95894500D01*
X128394000Y-95894500D01*
X128326961Y-95874815D01*
X128281206Y-95822011D01*
X128270000Y-95770500D01*
X128270000Y-95093822D01*
X128289685Y-95026783D01*
X128342489Y-94981028D01*
X128411647Y-94971084D01*
X128422516Y-94973145D01*
X128426506Y-94974087D01*
X128426517Y-94974091D01*
X128486127Y-94980500D01*
X131091872Y-94980499D01*
X131151483Y-94974091D01*
X131286331Y-94923796D01*
X131401546Y-94837546D01*
X131487796Y-94722331D01*
X131538091Y-94587483D01*
X131544500Y-94527873D01*
X131544499Y-93432128D01*
X131538091Y-93372517D01*
X131504334Y-93282011D01*
X131487797Y-93237671D01*
X131487793Y-93237664D01*
X131401547Y-93122455D01*
X131401544Y-93122452D01*
X131286335Y-93036206D01*
X131286328Y-93036202D01*
X131151482Y-92985908D01*
X131151483Y-92985908D01*
X131091883Y-92979501D01*
X131091881Y-92979500D01*
X131091873Y-92979500D01*
X131091864Y-92979500D01*
X128486129Y-92979500D01*
X128486123Y-92979501D01*
X128426514Y-92985909D01*
X128422511Y-92986855D01*
X128419312Y-92986683D01*
X128418804Y-92986738D01*
X128418795Y-92986655D01*
X128352742Y-92983112D01*
X128296071Y-92942243D01*
X128270493Y-92877223D01*
X128270000Y-92866177D01*
X128270000Y-92189500D01*
X128289685Y-92122461D01*
X128342489Y-92076706D01*
X128394000Y-92065500D01*
X131270533Y-92065500D01*
X131337572Y-92085185D01*
X131383327Y-92137989D01*
X131386715Y-92146166D01*
X131400203Y-92182330D01*
X131400206Y-92182335D01*
X131486452Y-92297544D01*
X131486455Y-92297547D01*
X131601664Y-92383793D01*
X131601671Y-92383797D01*
X131736517Y-92434091D01*
X131736516Y-92434091D01*
X131743444Y-92434835D01*
X131796127Y-92440500D01*
X134401872Y-92440499D01*
X134461483Y-92434091D01*
X134596331Y-92383796D01*
X134711546Y-92297546D01*
X134797796Y-92182331D01*
X134848091Y-92047483D01*
X134854500Y-91987873D01*
X134854499Y-90892128D01*
X134848091Y-90832517D01*
X134841253Y-90814184D01*
X134797797Y-90697671D01*
X134797793Y-90697664D01*
X134711547Y-90582455D01*
X134711544Y-90582452D01*
X134596335Y-90496206D01*
X134596328Y-90496202D01*
X134461482Y-90445908D01*
X134461483Y-90445908D01*
X134401883Y-90439501D01*
X134401881Y-90439500D01*
X134401873Y-90439500D01*
X134401864Y-90439500D01*
X131796129Y-90439500D01*
X131796123Y-90439501D01*
X131736516Y-90445908D01*
X131601671Y-90496202D01*
X131601664Y-90496206D01*
X131486455Y-90582452D01*
X131486452Y-90582455D01*
X131400206Y-90697664D01*
X131400203Y-90697669D01*
X131386715Y-90733834D01*
X131344843Y-90789767D01*
X131279379Y-90814184D01*
X131270533Y-90814500D01*
X128394000Y-90814500D01*
X128326961Y-90794815D01*
X128281206Y-90742011D01*
X128270000Y-90690500D01*
X128270000Y-90013822D01*
X128289685Y-89946783D01*
X128342489Y-89901028D01*
X128411647Y-89891084D01*
X128422516Y-89893145D01*
X128426506Y-89894087D01*
X128426517Y-89894091D01*
X128486127Y-89900500D01*
X131091872Y-89900499D01*
X131151483Y-89894091D01*
X131286331Y-89843796D01*
X131401546Y-89757546D01*
X131487796Y-89642331D01*
X131538091Y-89507483D01*
X131544500Y-89447873D01*
X131544499Y-88352128D01*
X131538091Y-88292517D01*
X131504334Y-88202011D01*
X131487797Y-88157671D01*
X131487793Y-88157664D01*
X131401547Y-88042455D01*
X131401544Y-88042452D01*
X131286335Y-87956206D01*
X131286328Y-87956202D01*
X131151482Y-87905908D01*
X131151483Y-87905908D01*
X131091883Y-87899501D01*
X131091881Y-87899500D01*
X131091873Y-87899500D01*
X131091864Y-87899500D01*
X128486129Y-87899500D01*
X128486123Y-87899501D01*
X128426514Y-87905909D01*
X128422511Y-87906855D01*
X128419312Y-87906683D01*
X128418804Y-87906738D01*
X128418795Y-87906655D01*
X128352742Y-87903112D01*
X128296071Y-87862243D01*
X128270493Y-87797223D01*
X128270000Y-87786177D01*
X128270000Y-87109500D01*
X128289685Y-87042461D01*
X128342489Y-86996706D01*
X128394000Y-86985500D01*
X131270533Y-86985500D01*
X131337572Y-87005185D01*
X131383327Y-87057989D01*
X131386715Y-87066166D01*
X131400203Y-87102330D01*
X131400206Y-87102335D01*
X131486452Y-87217544D01*
X131486455Y-87217547D01*
X131601664Y-87303793D01*
X131601671Y-87303797D01*
X131736517Y-87354091D01*
X131736516Y-87354091D01*
X131743444Y-87354835D01*
X131796127Y-87360500D01*
X134401872Y-87360499D01*
X134461483Y-87354091D01*
X134596331Y-87303796D01*
X134711546Y-87217546D01*
X134797796Y-87102331D01*
X134848091Y-86967483D01*
X134854500Y-86907873D01*
X134854499Y-85812128D01*
X134848091Y-85752517D01*
X134841253Y-85734184D01*
X134797797Y-85617671D01*
X134797793Y-85617664D01*
X134711547Y-85502455D01*
X134711544Y-85502452D01*
X134596335Y-85416206D01*
X134596328Y-85416202D01*
X134461482Y-85365908D01*
X134461483Y-85365908D01*
X134401883Y-85359501D01*
X134401881Y-85359500D01*
X134401873Y-85359500D01*
X134401864Y-85359500D01*
X131796129Y-85359500D01*
X131796123Y-85359501D01*
X131736516Y-85365908D01*
X131601671Y-85416202D01*
X131601664Y-85416206D01*
X131486455Y-85502452D01*
X131486452Y-85502455D01*
X131400206Y-85617664D01*
X131400203Y-85617669D01*
X131386715Y-85653834D01*
X131344843Y-85709767D01*
X131279379Y-85734184D01*
X131270533Y-85734500D01*
X128394000Y-85734500D01*
X128326961Y-85714815D01*
X128281206Y-85662011D01*
X128270000Y-85610500D01*
X128270000Y-84933822D01*
X128289685Y-84866783D01*
X128342489Y-84821028D01*
X128411647Y-84811084D01*
X128422516Y-84813145D01*
X128426506Y-84814087D01*
X128426517Y-84814091D01*
X128486127Y-84820500D01*
X131091872Y-84820499D01*
X131151483Y-84814091D01*
X131286331Y-84763796D01*
X131401546Y-84677546D01*
X131487796Y-84562331D01*
X131538091Y-84427483D01*
X131544500Y-84367873D01*
X131544499Y-83272128D01*
X131538091Y-83212517D01*
X131504334Y-83122011D01*
X131487797Y-83077671D01*
X131487793Y-83077664D01*
X131401547Y-82962455D01*
X131401544Y-82962452D01*
X131286335Y-82876206D01*
X131286328Y-82876202D01*
X131151482Y-82825908D01*
X131151483Y-82825908D01*
X131091883Y-82819501D01*
X131091881Y-82819500D01*
X131091873Y-82819500D01*
X131091864Y-82819500D01*
X128486129Y-82819500D01*
X128486123Y-82819501D01*
X128426514Y-82825909D01*
X128422511Y-82826855D01*
X128419312Y-82826683D01*
X128418804Y-82826738D01*
X128418795Y-82826655D01*
X128352742Y-82823112D01*
X128296071Y-82782243D01*
X128270493Y-82717223D01*
X128270000Y-82706177D01*
X128270000Y-82029500D01*
X128289685Y-81962461D01*
X128342489Y-81916706D01*
X128394000Y-81905500D01*
X131270533Y-81905500D01*
X131337572Y-81925185D01*
X131383327Y-81977989D01*
X131386715Y-81986166D01*
X131400203Y-82022330D01*
X131400206Y-82022335D01*
X131486452Y-82137544D01*
X131486455Y-82137547D01*
X131601664Y-82223793D01*
X131601671Y-82223797D01*
X131736517Y-82274091D01*
X131736516Y-82274091D01*
X131743444Y-82274835D01*
X131796127Y-82280500D01*
X134401872Y-82280499D01*
X134461483Y-82274091D01*
X134596331Y-82223796D01*
X134711546Y-82137546D01*
X134797796Y-82022331D01*
X134848091Y-81887483D01*
X134854500Y-81827873D01*
X134854499Y-80732128D01*
X134848091Y-80672517D01*
X134841253Y-80654184D01*
X134797797Y-80537671D01*
X134797793Y-80537664D01*
X134711547Y-80422455D01*
X134711544Y-80422452D01*
X134596335Y-80336206D01*
X134596328Y-80336202D01*
X134461482Y-80285908D01*
X134461483Y-80285908D01*
X134401883Y-80279501D01*
X134401881Y-80279500D01*
X134401873Y-80279500D01*
X134401864Y-80279500D01*
X131796129Y-80279500D01*
X131796123Y-80279501D01*
X131736516Y-80285908D01*
X131601671Y-80336202D01*
X131601664Y-80336206D01*
X131486455Y-80422452D01*
X131486452Y-80422455D01*
X131400206Y-80537664D01*
X131400203Y-80537669D01*
X131386715Y-80573834D01*
X131344843Y-80629767D01*
X131279379Y-80654184D01*
X131270533Y-80654500D01*
X128394000Y-80654500D01*
X128326961Y-80634815D01*
X128281206Y-80582011D01*
X128270000Y-80530500D01*
X128270000Y-79853822D01*
X128289685Y-79786783D01*
X128342489Y-79741028D01*
X128411647Y-79731084D01*
X128422516Y-79733145D01*
X128426506Y-79734087D01*
X128426517Y-79734091D01*
X128486127Y-79740500D01*
X131091872Y-79740499D01*
X131151483Y-79734091D01*
X131286331Y-79683796D01*
X131401546Y-79597546D01*
X131487796Y-79482331D01*
X131538091Y-79347483D01*
X131544500Y-79287873D01*
X131544499Y-78192128D01*
X131538091Y-78132517D01*
X131504334Y-78042011D01*
X131487797Y-77997671D01*
X131487793Y-77997664D01*
X131401547Y-77882455D01*
X131401544Y-77882452D01*
X131286335Y-77796206D01*
X131286328Y-77796202D01*
X131151482Y-77745908D01*
X131151483Y-77745908D01*
X131091883Y-77739501D01*
X131091881Y-77739500D01*
X131091873Y-77739500D01*
X131091864Y-77739500D01*
X128486129Y-77739500D01*
X128486123Y-77739501D01*
X128426514Y-77745909D01*
X128422511Y-77746855D01*
X128419312Y-77746683D01*
X128418804Y-77746738D01*
X128418795Y-77746655D01*
X128352742Y-77743112D01*
X128296071Y-77702243D01*
X128270493Y-77637223D01*
X128270000Y-77626177D01*
X128270000Y-75554500D01*
X128289685Y-75487461D01*
X128342489Y-75441706D01*
X128394000Y-75430500D01*
X148466000Y-75430500D01*
X148533039Y-75450185D01*
G37*
G04 #@! TD.AperFunction*
M02*
