G04 #@! TF.GenerationSoftware,KiCad,Pcbnew,9.0.6*
G04 #@! TF.CreationDate,2025-12-31T12:05:19-06:00*
G04 #@! TF.ProjectId,QFN-68_8x8,51464e2d-3638-45f3-9878-382e6b696361,rev?*
G04 #@! TF.SameCoordinates,Original*
G04 #@! TF.FileFunction,Soldermask,Bot*
G04 #@! TF.FilePolarity,Negative*
%FSLAX46Y46*%
G04 Gerber Fmt 4.6, Leading zero omitted, Abs format (unit mm)*
G04 Created by KiCad (PCBNEW 9.0.6) date 2025-12-31 12:05:19*
%MOMM*%
%LPD*%
G01*
G04 APERTURE LIST*
%ADD10R,2.510000X1.000000*%
%ADD11C,1.700000*%
G04 APERTURE END LIST*
D10*
X147071000Y-76200000D03*
X143761000Y-78740000D03*
X147071000Y-81280000D03*
X143761000Y-83820000D03*
X147071000Y-86360000D03*
X143761000Y-88900000D03*
X147071000Y-91440000D03*
X143761000Y-93980000D03*
X147071000Y-96520000D03*
X143761000Y-99060000D03*
X147071000Y-101600000D03*
X143761000Y-104140000D03*
X147071000Y-106680000D03*
X143761000Y-109220000D03*
X147071000Y-111760000D03*
X143761000Y-114300000D03*
X147071000Y-116840000D03*
X143761000Y-119380000D03*
X147071000Y-121920000D03*
X143761000Y-124460000D03*
X147071000Y-127000000D03*
X143761000Y-129540000D03*
X147071000Y-132080000D03*
X143761000Y-134620000D03*
X147071000Y-137160000D03*
X143761000Y-139700000D03*
X147071000Y-142240000D03*
X143761000Y-144780000D03*
X147071000Y-147320000D03*
X143761000Y-149860000D03*
X147071000Y-152400000D03*
X143761000Y-154940000D03*
X147071000Y-157480000D03*
X143761000Y-160020000D03*
X147071000Y-162560000D03*
X143761000Y-165100000D03*
X133099000Y-76200000D03*
X129789000Y-78740000D03*
X133099000Y-81280000D03*
X129789000Y-83820000D03*
X133099000Y-86360000D03*
X129789000Y-88900000D03*
X133099000Y-91440000D03*
X129789000Y-93980000D03*
X133099000Y-96520000D03*
X129789000Y-99060000D03*
X133099000Y-101600000D03*
X129789000Y-104140000D03*
X133099000Y-106680000D03*
X129789000Y-109220000D03*
X133099000Y-111760000D03*
X129789000Y-114300000D03*
X133099000Y-116840000D03*
X129789000Y-119380000D03*
X133099000Y-121920000D03*
X129789000Y-124460000D03*
X133099000Y-127000000D03*
X129789000Y-129540000D03*
X133099000Y-132080000D03*
X129789000Y-134620000D03*
X133099000Y-137160000D03*
X129789000Y-139700000D03*
X133099000Y-142240000D03*
X129789000Y-144780000D03*
X133099000Y-147320000D03*
X129789000Y-149860000D03*
X133099000Y-152400000D03*
X129789000Y-154940000D03*
X133099000Y-157480000D03*
X129789000Y-160020000D03*
X133099000Y-162560000D03*
X129789000Y-165100000D03*
D11*
X149860000Y-76200000D03*
X149860000Y-78740000D03*
X149860000Y-81280000D03*
X149860000Y-83820000D03*
X149860000Y-86360000D03*
X149860000Y-88900000D03*
X149860000Y-91440000D03*
X149860000Y-93980000D03*
X149860000Y-96520000D03*
X149860000Y-99060000D03*
X149860000Y-101600000D03*
X149860000Y-104140000D03*
X149860000Y-106680000D03*
X149860000Y-109220000D03*
X149860000Y-111760000D03*
X149860000Y-114300000D03*
X149860000Y-116840000D03*
X149860000Y-119380000D03*
X149860000Y-121920000D03*
X149860000Y-124460000D03*
X149860000Y-127000000D03*
X149860000Y-129540000D03*
X149860000Y-132080000D03*
X149860000Y-134620000D03*
X149860000Y-137160000D03*
X149860000Y-139700000D03*
X149860000Y-142240000D03*
X149860000Y-144780000D03*
X149860000Y-147320000D03*
X149860000Y-149860000D03*
X149860000Y-152400000D03*
X149860000Y-154940000D03*
X149860000Y-157480000D03*
X149860000Y-160020000D03*
X149860000Y-162560000D03*
X149860000Y-165100000D03*
X127000000Y-76200000D03*
X127000000Y-78740000D03*
X127000000Y-81280000D03*
X127000000Y-83820000D03*
X127000000Y-86360000D03*
X127000000Y-88900000D03*
X127000000Y-91440000D03*
X127000000Y-93980000D03*
X127000000Y-96520000D03*
X127000000Y-99060000D03*
X127000000Y-101600000D03*
X127000000Y-104140000D03*
X127000000Y-106680000D03*
X127000000Y-109220000D03*
X127000000Y-111760000D03*
X127000000Y-114300000D03*
X127000000Y-116840000D03*
X127000000Y-119380000D03*
X127000000Y-121920000D03*
X127000000Y-124460000D03*
X127000000Y-127000000D03*
X127000000Y-129540000D03*
X127000000Y-132080000D03*
X127000000Y-134620000D03*
X127000000Y-137160000D03*
X127000000Y-139700000D03*
X127000000Y-142240000D03*
X127000000Y-144780000D03*
X127000000Y-147320000D03*
X127000000Y-149860000D03*
X127000000Y-152400000D03*
X127000000Y-154940000D03*
X127000000Y-157480000D03*
X127000000Y-160020000D03*
X127000000Y-162560000D03*
X127000000Y-165100000D03*
M02*
