G04 #@! TF.GenerationSoftware,KiCad,Pcbnew,9.0.6*
G04 #@! TF.CreationDate,2025-12-31T12:05:19-06:00*
G04 #@! TF.ProjectId,QFN-68_8x8,51464e2d-3638-45f3-9878-382e6b696361,rev?*
G04 #@! TF.SameCoordinates,Original*
G04 #@! TF.FileFunction,Legend,Top*
G04 #@! TF.FilePolarity,Positive*
%FSLAX46Y46*%
G04 Gerber Fmt 4.6, Leading zero omitted, Abs format (unit mm)*
G04 Created by KiCad (PCBNEW 9.0.6) date 2025-12-31 12:05:19*
%MOMM*%
%LPD*%
G01*
G04 APERTURE LIST*
G04 Aperture macros list*
%AMRoundRect*
0 Rectangle with rounded corners*
0 $1 Rounding radius*
0 $2 $3 $4 $5 $6 $7 $8 $9 X,Y pos of 4 corners*
0 Add a 4 corners polygon primitive as box body*
4,1,4,$2,$3,$4,$5,$6,$7,$8,$9,$2,$3,0*
0 Add four circle primitives for the rounded corners*
1,1,$1+$1,$2,$3*
1,1,$1+$1,$4,$5*
1,1,$1+$1,$6,$7*
1,1,$1+$1,$8,$9*
0 Add four rect primitives between the rounded corners*
20,1,$1+$1,$2,$3,$4,$5,0*
20,1,$1+$1,$4,$5,$6,$7,0*
20,1,$1+$1,$6,$7,$8,$9,0*
20,1,$1+$1,$8,$9,$2,$3,0*%
%AMRotRect*
0 Rectangle, with rotation*
0 The origin of the aperture is its center*
0 $1 length*
0 $2 width*
0 $3 Rotation angle, in degrees counterclockwise*
0 Add horizontal line*
21,1,$1,$2,0,0,$3*%
G04 Aperture macros list end*
%ADD10C,0.100000*%
%ADD11C,0.200000*%
%ADD12C,0.000000*%
%ADD13C,0.120000*%
%ADD14RotRect,5.200000X5.200000X315.000000*%
%ADD15RoundRect,0.050000X-0.437522X-0.366812X-0.366812X-0.437522X0.437522X0.366812X0.366812X0.437522X0*%
%ADD16RoundRect,0.050000X-0.437522X0.366812X0.366812X-0.437522X0.437522X-0.366812X-0.366812X0.437522X0*%
%ADD17C,1.700000*%
G04 APERTURE END LIST*
D10*
X131064000Y-96520000D02*
X145796000Y-96520000D01*
X145796000Y-111252000D01*
X131064000Y-111252000D01*
X131064000Y-96520000D01*
G36*
X131064000Y-96520000D02*
G01*
X145796000Y-96520000D01*
X145796000Y-111252000D01*
X131064000Y-111252000D01*
X131064000Y-96520000D01*
G37*
X131064000Y-130048000D02*
X145796000Y-130048000D01*
X145796000Y-156972000D01*
X131064000Y-156972000D01*
X131064000Y-130048000D01*
G36*
X131064000Y-130048000D02*
G01*
X145796000Y-130048000D01*
X145796000Y-156972000D01*
X131064000Y-156972000D01*
X131064000Y-130048000D01*
G37*
D11*
X134953809Y-87767219D02*
X135287142Y-88767219D01*
X135287142Y-88767219D02*
X135620475Y-87767219D01*
X136334761Y-88719600D02*
X136239523Y-88767219D01*
X136239523Y-88767219D02*
X136049047Y-88767219D01*
X136049047Y-88767219D02*
X135953809Y-88719600D01*
X135953809Y-88719600D02*
X135906190Y-88624361D01*
X135906190Y-88624361D02*
X135906190Y-88243409D01*
X135906190Y-88243409D02*
X135953809Y-88148171D01*
X135953809Y-88148171D02*
X136049047Y-88100552D01*
X136049047Y-88100552D02*
X136239523Y-88100552D01*
X136239523Y-88100552D02*
X136334761Y-88148171D01*
X136334761Y-88148171D02*
X136382380Y-88243409D01*
X136382380Y-88243409D02*
X136382380Y-88338647D01*
X136382380Y-88338647D02*
X135906190Y-88433885D01*
X136810952Y-88767219D02*
X136810952Y-88100552D01*
X136810952Y-88291028D02*
X136858571Y-88195790D01*
X136858571Y-88195790D02*
X136906190Y-88148171D01*
X136906190Y-88148171D02*
X137001428Y-88100552D01*
X137001428Y-88100552D02*
X137096666Y-88100552D01*
X137382381Y-88719600D02*
X137477619Y-88767219D01*
X137477619Y-88767219D02*
X137668095Y-88767219D01*
X137668095Y-88767219D02*
X137763333Y-88719600D01*
X137763333Y-88719600D02*
X137810952Y-88624361D01*
X137810952Y-88624361D02*
X137810952Y-88576742D01*
X137810952Y-88576742D02*
X137763333Y-88481504D01*
X137763333Y-88481504D02*
X137668095Y-88433885D01*
X137668095Y-88433885D02*
X137525238Y-88433885D01*
X137525238Y-88433885D02*
X137430000Y-88386266D01*
X137430000Y-88386266D02*
X137382381Y-88291028D01*
X137382381Y-88291028D02*
X137382381Y-88243409D01*
X137382381Y-88243409D02*
X137430000Y-88148171D01*
X137430000Y-88148171D02*
X137525238Y-88100552D01*
X137525238Y-88100552D02*
X137668095Y-88100552D01*
X137668095Y-88100552D02*
X137763333Y-88148171D01*
X138239524Y-88767219D02*
X138239524Y-88100552D01*
X138239524Y-87767219D02*
X138191905Y-87814838D01*
X138191905Y-87814838D02*
X138239524Y-87862457D01*
X138239524Y-87862457D02*
X138287143Y-87814838D01*
X138287143Y-87814838D02*
X138239524Y-87767219D01*
X138239524Y-87767219D02*
X138239524Y-87862457D01*
X138858571Y-88767219D02*
X138763333Y-88719600D01*
X138763333Y-88719600D02*
X138715714Y-88671980D01*
X138715714Y-88671980D02*
X138668095Y-88576742D01*
X138668095Y-88576742D02*
X138668095Y-88291028D01*
X138668095Y-88291028D02*
X138715714Y-88195790D01*
X138715714Y-88195790D02*
X138763333Y-88148171D01*
X138763333Y-88148171D02*
X138858571Y-88100552D01*
X138858571Y-88100552D02*
X139001428Y-88100552D01*
X139001428Y-88100552D02*
X139096666Y-88148171D01*
X139096666Y-88148171D02*
X139144285Y-88195790D01*
X139144285Y-88195790D02*
X139191904Y-88291028D01*
X139191904Y-88291028D02*
X139191904Y-88576742D01*
X139191904Y-88576742D02*
X139144285Y-88671980D01*
X139144285Y-88671980D02*
X139096666Y-88719600D01*
X139096666Y-88719600D02*
X139001428Y-88767219D01*
X139001428Y-88767219D02*
X138858571Y-88767219D01*
X139620476Y-88100552D02*
X139620476Y-88767219D01*
X139620476Y-88195790D02*
X139668095Y-88148171D01*
X139668095Y-88148171D02*
X139763333Y-88100552D01*
X139763333Y-88100552D02*
X139906190Y-88100552D01*
X139906190Y-88100552D02*
X140001428Y-88148171D01*
X140001428Y-88148171D02*
X140049047Y-88243409D01*
X140049047Y-88243409D02*
X140049047Y-88767219D01*
X141810952Y-88767219D02*
X141239524Y-88767219D01*
X141525238Y-88767219D02*
X141525238Y-87767219D01*
X141525238Y-87767219D02*
X141430000Y-87910076D01*
X141430000Y-87910076D02*
X141334762Y-88005314D01*
X141334762Y-88005314D02*
X141239524Y-88052933D01*
X136287142Y-161080569D02*
X136191904Y-161032950D01*
X136191904Y-161032950D02*
X136096666Y-160937712D01*
X136096666Y-160937712D02*
X135953809Y-160794854D01*
X135953809Y-160794854D02*
X135858571Y-160747235D01*
X135858571Y-160747235D02*
X135763333Y-160747235D01*
X135810952Y-160985331D02*
X135715714Y-160937712D01*
X135715714Y-160937712D02*
X135620476Y-160842473D01*
X135620476Y-160842473D02*
X135572857Y-160651997D01*
X135572857Y-160651997D02*
X135572857Y-160318664D01*
X135572857Y-160318664D02*
X135620476Y-160128188D01*
X135620476Y-160128188D02*
X135715714Y-160032950D01*
X135715714Y-160032950D02*
X135810952Y-159985331D01*
X135810952Y-159985331D02*
X136001428Y-159985331D01*
X136001428Y-159985331D02*
X136096666Y-160032950D01*
X136096666Y-160032950D02*
X136191904Y-160128188D01*
X136191904Y-160128188D02*
X136239523Y-160318664D01*
X136239523Y-160318664D02*
X136239523Y-160651997D01*
X136239523Y-160651997D02*
X136191904Y-160842473D01*
X136191904Y-160842473D02*
X136096666Y-160937712D01*
X136096666Y-160937712D02*
X136001428Y-160985331D01*
X136001428Y-160985331D02*
X135810952Y-160985331D01*
X137001428Y-160461521D02*
X136668095Y-160461521D01*
X136668095Y-160985331D02*
X136668095Y-159985331D01*
X136668095Y-159985331D02*
X137144285Y-159985331D01*
X137525238Y-160985331D02*
X137525238Y-159985331D01*
X137525238Y-159985331D02*
X138096666Y-160985331D01*
X138096666Y-160985331D02*
X138096666Y-159985331D01*
X138572857Y-160604378D02*
X139334762Y-160604378D01*
X140239523Y-159985331D02*
X140049047Y-159985331D01*
X140049047Y-159985331D02*
X139953809Y-160032950D01*
X139953809Y-160032950D02*
X139906190Y-160080569D01*
X139906190Y-160080569D02*
X139810952Y-160223426D01*
X139810952Y-160223426D02*
X139763333Y-160413902D01*
X139763333Y-160413902D02*
X139763333Y-160794854D01*
X139763333Y-160794854D02*
X139810952Y-160890092D01*
X139810952Y-160890092D02*
X139858571Y-160937712D01*
X139858571Y-160937712D02*
X139953809Y-160985331D01*
X139953809Y-160985331D02*
X140144285Y-160985331D01*
X140144285Y-160985331D02*
X140239523Y-160937712D01*
X140239523Y-160937712D02*
X140287142Y-160890092D01*
X140287142Y-160890092D02*
X140334761Y-160794854D01*
X140334761Y-160794854D02*
X140334761Y-160556759D01*
X140334761Y-160556759D02*
X140287142Y-160461521D01*
X140287142Y-160461521D02*
X140239523Y-160413902D01*
X140239523Y-160413902D02*
X140144285Y-160366283D01*
X140144285Y-160366283D02*
X139953809Y-160366283D01*
X139953809Y-160366283D02*
X139858571Y-160413902D01*
X139858571Y-160413902D02*
X139810952Y-160461521D01*
X139810952Y-160461521D02*
X139763333Y-160556759D01*
X140906190Y-160413902D02*
X140810952Y-160366283D01*
X140810952Y-160366283D02*
X140763333Y-160318664D01*
X140763333Y-160318664D02*
X140715714Y-160223426D01*
X140715714Y-160223426D02*
X140715714Y-160175807D01*
X140715714Y-160175807D02*
X140763333Y-160080569D01*
X140763333Y-160080569D02*
X140810952Y-160032950D01*
X140810952Y-160032950D02*
X140906190Y-159985331D01*
X140906190Y-159985331D02*
X141096666Y-159985331D01*
X141096666Y-159985331D02*
X141191904Y-160032950D01*
X141191904Y-160032950D02*
X141239523Y-160080569D01*
X141239523Y-160080569D02*
X141287142Y-160175807D01*
X141287142Y-160175807D02*
X141287142Y-160223426D01*
X141287142Y-160223426D02*
X141239523Y-160318664D01*
X141239523Y-160318664D02*
X141191904Y-160366283D01*
X141191904Y-160366283D02*
X141096666Y-160413902D01*
X141096666Y-160413902D02*
X140906190Y-160413902D01*
X140906190Y-160413902D02*
X140810952Y-160461521D01*
X140810952Y-160461521D02*
X140763333Y-160509140D01*
X140763333Y-160509140D02*
X140715714Y-160604378D01*
X140715714Y-160604378D02*
X140715714Y-160794854D01*
X140715714Y-160794854D02*
X140763333Y-160890092D01*
X140763333Y-160890092D02*
X140810952Y-160937712D01*
X140810952Y-160937712D02*
X140906190Y-160985331D01*
X140906190Y-160985331D02*
X141096666Y-160985331D01*
X141096666Y-160985331D02*
X141191904Y-160937712D01*
X141191904Y-160937712D02*
X141239523Y-160890092D01*
X141239523Y-160890092D02*
X141287142Y-160794854D01*
X141287142Y-160794854D02*
X141287142Y-160604378D01*
X141287142Y-160604378D02*
X141239523Y-160509140D01*
X141239523Y-160509140D02*
X141191904Y-160461521D01*
X141191904Y-160461521D02*
X141096666Y-160413902D01*
X136120476Y-162023846D02*
X136025238Y-161976227D01*
X136025238Y-161976227D02*
X135977619Y-161928608D01*
X135977619Y-161928608D02*
X135930000Y-161833370D01*
X135930000Y-161833370D02*
X135930000Y-161785751D01*
X135930000Y-161785751D02*
X135977619Y-161690513D01*
X135977619Y-161690513D02*
X136025238Y-161642894D01*
X136025238Y-161642894D02*
X136120476Y-161595275D01*
X136120476Y-161595275D02*
X136310952Y-161595275D01*
X136310952Y-161595275D02*
X136406190Y-161642894D01*
X136406190Y-161642894D02*
X136453809Y-161690513D01*
X136453809Y-161690513D02*
X136501428Y-161785751D01*
X136501428Y-161785751D02*
X136501428Y-161833370D01*
X136501428Y-161833370D02*
X136453809Y-161928608D01*
X136453809Y-161928608D02*
X136406190Y-161976227D01*
X136406190Y-161976227D02*
X136310952Y-162023846D01*
X136310952Y-162023846D02*
X136120476Y-162023846D01*
X136120476Y-162023846D02*
X136025238Y-162071465D01*
X136025238Y-162071465D02*
X135977619Y-162119084D01*
X135977619Y-162119084D02*
X135930000Y-162214322D01*
X135930000Y-162214322D02*
X135930000Y-162404798D01*
X135930000Y-162404798D02*
X135977619Y-162500036D01*
X135977619Y-162500036D02*
X136025238Y-162547656D01*
X136025238Y-162547656D02*
X136120476Y-162595275D01*
X136120476Y-162595275D02*
X136310952Y-162595275D01*
X136310952Y-162595275D02*
X136406190Y-162547656D01*
X136406190Y-162547656D02*
X136453809Y-162500036D01*
X136453809Y-162500036D02*
X136501428Y-162404798D01*
X136501428Y-162404798D02*
X136501428Y-162214322D01*
X136501428Y-162214322D02*
X136453809Y-162119084D01*
X136453809Y-162119084D02*
X136406190Y-162071465D01*
X136406190Y-162071465D02*
X136310952Y-162023846D01*
X136834762Y-162595275D02*
X137358571Y-161928608D01*
X136834762Y-161928608D02*
X137358571Y-162595275D01*
X137882381Y-162023846D02*
X137787143Y-161976227D01*
X137787143Y-161976227D02*
X137739524Y-161928608D01*
X137739524Y-161928608D02*
X137691905Y-161833370D01*
X137691905Y-161833370D02*
X137691905Y-161785751D01*
X137691905Y-161785751D02*
X137739524Y-161690513D01*
X137739524Y-161690513D02*
X137787143Y-161642894D01*
X137787143Y-161642894D02*
X137882381Y-161595275D01*
X137882381Y-161595275D02*
X138072857Y-161595275D01*
X138072857Y-161595275D02*
X138168095Y-161642894D01*
X138168095Y-161642894D02*
X138215714Y-161690513D01*
X138215714Y-161690513D02*
X138263333Y-161785751D01*
X138263333Y-161785751D02*
X138263333Y-161833370D01*
X138263333Y-161833370D02*
X138215714Y-161928608D01*
X138215714Y-161928608D02*
X138168095Y-161976227D01*
X138168095Y-161976227D02*
X138072857Y-162023846D01*
X138072857Y-162023846D02*
X137882381Y-162023846D01*
X137882381Y-162023846D02*
X137787143Y-162071465D01*
X137787143Y-162071465D02*
X137739524Y-162119084D01*
X137739524Y-162119084D02*
X137691905Y-162214322D01*
X137691905Y-162214322D02*
X137691905Y-162404798D01*
X137691905Y-162404798D02*
X137739524Y-162500036D01*
X137739524Y-162500036D02*
X137787143Y-162547656D01*
X137787143Y-162547656D02*
X137882381Y-162595275D01*
X137882381Y-162595275D02*
X138072857Y-162595275D01*
X138072857Y-162595275D02*
X138168095Y-162547656D01*
X138168095Y-162547656D02*
X138215714Y-162500036D01*
X138215714Y-162500036D02*
X138263333Y-162404798D01*
X138263333Y-162404798D02*
X138263333Y-162214322D01*
X138263333Y-162214322D02*
X138215714Y-162119084D01*
X138215714Y-162119084D02*
X138168095Y-162071465D01*
X138168095Y-162071465D02*
X138072857Y-162023846D01*
X138691905Y-162595275D02*
X138691905Y-161928608D01*
X138691905Y-162023846D02*
X138739524Y-161976227D01*
X138739524Y-161976227D02*
X138834762Y-161928608D01*
X138834762Y-161928608D02*
X138977619Y-161928608D01*
X138977619Y-161928608D02*
X139072857Y-161976227D01*
X139072857Y-161976227D02*
X139120476Y-162071465D01*
X139120476Y-162071465D02*
X139120476Y-162595275D01*
X139120476Y-162071465D02*
X139168095Y-161976227D01*
X139168095Y-161976227D02*
X139263333Y-161928608D01*
X139263333Y-161928608D02*
X139406190Y-161928608D01*
X139406190Y-161928608D02*
X139501429Y-161976227D01*
X139501429Y-161976227D02*
X139549048Y-162071465D01*
X139549048Y-162071465D02*
X139549048Y-162595275D01*
X140025238Y-162595275D02*
X140025238Y-161928608D01*
X140025238Y-162023846D02*
X140072857Y-161976227D01*
X140072857Y-161976227D02*
X140168095Y-161928608D01*
X140168095Y-161928608D02*
X140310952Y-161928608D01*
X140310952Y-161928608D02*
X140406190Y-161976227D01*
X140406190Y-161976227D02*
X140453809Y-162071465D01*
X140453809Y-162071465D02*
X140453809Y-162595275D01*
X140453809Y-162071465D02*
X140501428Y-161976227D01*
X140501428Y-161976227D02*
X140596666Y-161928608D01*
X140596666Y-161928608D02*
X140739523Y-161928608D01*
X140739523Y-161928608D02*
X140834762Y-161976227D01*
X140834762Y-161976227D02*
X140882381Y-162071465D01*
X140882381Y-162071465D02*
X140882381Y-162595275D01*
X134049048Y-163205219D02*
X134144286Y-163205219D01*
X134144286Y-163205219D02*
X134239524Y-163252838D01*
X134239524Y-163252838D02*
X134287143Y-163300457D01*
X134287143Y-163300457D02*
X134334762Y-163395695D01*
X134334762Y-163395695D02*
X134382381Y-163586171D01*
X134382381Y-163586171D02*
X134382381Y-163824266D01*
X134382381Y-163824266D02*
X134334762Y-164014742D01*
X134334762Y-164014742D02*
X134287143Y-164109980D01*
X134287143Y-164109980D02*
X134239524Y-164157600D01*
X134239524Y-164157600D02*
X134144286Y-164205219D01*
X134144286Y-164205219D02*
X134049048Y-164205219D01*
X134049048Y-164205219D02*
X133953810Y-164157600D01*
X133953810Y-164157600D02*
X133906191Y-164109980D01*
X133906191Y-164109980D02*
X133858572Y-164014742D01*
X133858572Y-164014742D02*
X133810953Y-163824266D01*
X133810953Y-163824266D02*
X133810953Y-163586171D01*
X133810953Y-163586171D02*
X133858572Y-163395695D01*
X133858572Y-163395695D02*
X133906191Y-163300457D01*
X133906191Y-163300457D02*
X133953810Y-163252838D01*
X133953810Y-163252838D02*
X134049048Y-163205219D01*
X134810953Y-164109980D02*
X134858572Y-164157600D01*
X134858572Y-164157600D02*
X134810953Y-164205219D01*
X134810953Y-164205219D02*
X134763334Y-164157600D01*
X134763334Y-164157600D02*
X134810953Y-164109980D01*
X134810953Y-164109980D02*
X134810953Y-164205219D01*
X135715714Y-163538552D02*
X135715714Y-164205219D01*
X135477619Y-163157600D02*
X135239524Y-163871885D01*
X135239524Y-163871885D02*
X135858571Y-163871885D01*
X136239524Y-164205219D02*
X136239524Y-163538552D01*
X136239524Y-163633790D02*
X136287143Y-163586171D01*
X136287143Y-163586171D02*
X136382381Y-163538552D01*
X136382381Y-163538552D02*
X136525238Y-163538552D01*
X136525238Y-163538552D02*
X136620476Y-163586171D01*
X136620476Y-163586171D02*
X136668095Y-163681409D01*
X136668095Y-163681409D02*
X136668095Y-164205219D01*
X136668095Y-163681409D02*
X136715714Y-163586171D01*
X136715714Y-163586171D02*
X136810952Y-163538552D01*
X136810952Y-163538552D02*
X136953809Y-163538552D01*
X136953809Y-163538552D02*
X137049048Y-163586171D01*
X137049048Y-163586171D02*
X137096667Y-163681409D01*
X137096667Y-163681409D02*
X137096667Y-164205219D01*
X137572857Y-164205219D02*
X137572857Y-163538552D01*
X137572857Y-163633790D02*
X137620476Y-163586171D01*
X137620476Y-163586171D02*
X137715714Y-163538552D01*
X137715714Y-163538552D02*
X137858571Y-163538552D01*
X137858571Y-163538552D02*
X137953809Y-163586171D01*
X137953809Y-163586171D02*
X138001428Y-163681409D01*
X138001428Y-163681409D02*
X138001428Y-164205219D01*
X138001428Y-163681409D02*
X138049047Y-163586171D01*
X138049047Y-163586171D02*
X138144285Y-163538552D01*
X138144285Y-163538552D02*
X138287142Y-163538552D01*
X138287142Y-163538552D02*
X138382381Y-163586171D01*
X138382381Y-163586171D02*
X138430000Y-163681409D01*
X138430000Y-163681409D02*
X138430000Y-164205219D01*
X139668095Y-164205219D02*
X139668095Y-163205219D01*
X139668095Y-163205219D02*
X140049047Y-163205219D01*
X140049047Y-163205219D02*
X140144285Y-163252838D01*
X140144285Y-163252838D02*
X140191904Y-163300457D01*
X140191904Y-163300457D02*
X140239523Y-163395695D01*
X140239523Y-163395695D02*
X140239523Y-163538552D01*
X140239523Y-163538552D02*
X140191904Y-163633790D01*
X140191904Y-163633790D02*
X140144285Y-163681409D01*
X140144285Y-163681409D02*
X140049047Y-163729028D01*
X140049047Y-163729028D02*
X139668095Y-163729028D01*
X140668095Y-164205219D02*
X140668095Y-163538552D01*
X140668095Y-163205219D02*
X140620476Y-163252838D01*
X140620476Y-163252838D02*
X140668095Y-163300457D01*
X140668095Y-163300457D02*
X140715714Y-163252838D01*
X140715714Y-163252838D02*
X140668095Y-163205219D01*
X140668095Y-163205219D02*
X140668095Y-163300457D01*
X141001428Y-163538552D02*
X141382380Y-163538552D01*
X141144285Y-163205219D02*
X141144285Y-164062361D01*
X141144285Y-164062361D02*
X141191904Y-164157600D01*
X141191904Y-164157600D02*
X141287142Y-164205219D01*
X141287142Y-164205219D02*
X141382380Y-164205219D01*
X142144285Y-164157600D02*
X142049047Y-164205219D01*
X142049047Y-164205219D02*
X141858571Y-164205219D01*
X141858571Y-164205219D02*
X141763333Y-164157600D01*
X141763333Y-164157600D02*
X141715714Y-164109980D01*
X141715714Y-164109980D02*
X141668095Y-164014742D01*
X141668095Y-164014742D02*
X141668095Y-163729028D01*
X141668095Y-163729028D02*
X141715714Y-163633790D01*
X141715714Y-163633790D02*
X141763333Y-163586171D01*
X141763333Y-163586171D02*
X141858571Y-163538552D01*
X141858571Y-163538552D02*
X142049047Y-163538552D01*
X142049047Y-163538552D02*
X142144285Y-163586171D01*
X142572857Y-164205219D02*
X142572857Y-163205219D01*
X143001428Y-164205219D02*
X143001428Y-163681409D01*
X143001428Y-163681409D02*
X142953809Y-163586171D01*
X142953809Y-163586171D02*
X142858571Y-163538552D01*
X142858571Y-163538552D02*
X142715714Y-163538552D01*
X142715714Y-163538552D02*
X142620476Y-163586171D01*
X142620476Y-163586171D02*
X142572857Y-163633790D01*
D12*
G36*
X145866048Y-76170944D02*
G01*
X145896040Y-76206097D01*
X145926741Y-76240830D01*
X145959724Y-76276776D01*
X145996557Y-76315571D01*
X146038813Y-76358849D01*
X146088063Y-76408246D01*
X146145876Y-76465396D01*
X146199353Y-76517801D01*
X146238590Y-76556188D01*
X146287618Y-76604230D01*
X146345101Y-76660613D01*
X146409702Y-76724023D01*
X146480083Y-76793147D01*
X146554908Y-76866672D01*
X146632838Y-76943282D01*
X146712538Y-77021665D01*
X146792669Y-77100507D01*
X146871894Y-77178493D01*
X146895364Y-77201604D01*
X146981592Y-77286491D01*
X147074708Y-77378111D01*
X147172651Y-77474439D01*
X147273359Y-77573447D01*
X147374768Y-77673109D01*
X147474818Y-77771398D01*
X147571444Y-77866288D01*
X147662585Y-77955752D01*
X147746179Y-78037764D01*
X147801670Y-78092173D01*
X147899833Y-78188412D01*
X147987401Y-78274317D01*
X148064958Y-78350474D01*
X148133087Y-78417468D01*
X148192373Y-78475884D01*
X148243397Y-78526308D01*
X148286743Y-78569324D01*
X148322996Y-78605519D01*
X148352737Y-78635478D01*
X148376551Y-78659785D01*
X148395020Y-78679027D01*
X148408729Y-78693789D01*
X148418260Y-78704655D01*
X148424198Y-78712212D01*
X148427124Y-78717045D01*
X148427623Y-78719739D01*
X148427461Y-78720109D01*
X148419915Y-78726896D01*
X148402014Y-78740945D01*
X148376131Y-78760454D01*
X148344636Y-78783617D01*
X148330712Y-78793708D01*
X148291792Y-78822163D01*
X148251926Y-78851940D01*
X148215493Y-78879730D01*
X148186873Y-78902223D01*
X148183997Y-78904552D01*
X148157733Y-78925626D01*
X148123023Y-78953072D01*
X148083834Y-78983770D01*
X148044135Y-79014603D01*
X148032153Y-79023850D01*
X147870045Y-79153283D01*
X147718470Y-79283596D01*
X147578369Y-79413877D01*
X147450684Y-79543215D01*
X147336359Y-79670698D01*
X147240827Y-79789463D01*
X147122057Y-79958748D01*
X147017026Y-80134856D01*
X146925621Y-80318071D01*
X146847730Y-80508677D01*
X146783242Y-80706957D01*
X146732046Y-80913197D01*
X146694029Y-81127679D01*
X146683682Y-81205855D01*
X146677408Y-81272124D01*
X146672919Y-81349901D01*
X146670217Y-81435306D01*
X146669305Y-81524456D01*
X146670185Y-81613469D01*
X146672858Y-81698462D01*
X146677328Y-81775555D01*
X146683332Y-81838706D01*
X146715736Y-82046875D01*
X146761666Y-82247240D01*
X146821171Y-82439906D01*
X146894300Y-82624980D01*
X146981103Y-82802566D01*
X147081629Y-82972771D01*
X147195928Y-83135699D01*
X147324049Y-83291456D01*
X147402576Y-83376338D01*
X147455217Y-83428813D01*
X147519571Y-83489153D01*
X147595789Y-83557487D01*
X147684025Y-83633945D01*
X147784430Y-83718654D01*
X147897157Y-83811746D01*
X148022359Y-83913348D01*
X148160189Y-84023591D01*
X148254783Y-84098493D01*
X148299542Y-84134154D01*
X148340120Y-84167145D01*
X148374922Y-84196118D01*
X148402355Y-84219723D01*
X148420824Y-84236610D01*
X148428737Y-84245432D01*
X148428903Y-84245889D01*
X148423775Y-84252657D01*
X148408186Y-84270251D01*
X148382527Y-84298260D01*
X148347193Y-84336270D01*
X148302576Y-84383868D01*
X148249069Y-84440641D01*
X148187065Y-84506176D01*
X148116956Y-84580059D01*
X148039136Y-84661878D01*
X147953998Y-84751219D01*
X147861934Y-84847669D01*
X147763337Y-84950816D01*
X147658600Y-85060245D01*
X147548117Y-85175545D01*
X147432279Y-85296301D01*
X147311481Y-85422101D01*
X147195763Y-85542496D01*
X147080353Y-85662516D01*
X146967537Y-85779831D01*
X146857813Y-85893922D01*
X146751682Y-86004269D01*
X146649643Y-86110355D01*
X146552196Y-86211660D01*
X146459839Y-86307665D01*
X146373072Y-86397850D01*
X146292395Y-86481698D01*
X146218307Y-86558688D01*
X146151307Y-86628302D01*
X146091895Y-86690021D01*
X146040571Y-86743325D01*
X145997833Y-86787696D01*
X145964181Y-86822615D01*
X145940115Y-86847562D01*
X145926134Y-86862019D01*
X145923112Y-86865121D01*
X145885875Y-86902947D01*
X145683545Y-86739738D01*
X145587632Y-86662693D01*
X145501703Y-86594419D01*
X145423879Y-86533511D01*
X145352286Y-86478565D01*
X145285047Y-86428176D01*
X145220286Y-86380939D01*
X145156127Y-86335450D01*
X145090692Y-86290304D01*
X145022107Y-86244097D01*
X145016342Y-86240255D01*
X144810050Y-86108558D01*
X144600171Y-85985597D01*
X144388559Y-85872286D01*
X144177069Y-85769539D01*
X143967556Y-85678270D01*
X143761875Y-85599394D01*
X143617819Y-85550985D01*
X143362799Y-85478747D01*
X143101639Y-85420867D01*
X142834368Y-85377348D01*
X142561018Y-85348193D01*
X142281617Y-85333406D01*
X141996197Y-85332988D01*
X141704788Y-85346943D01*
X141563005Y-85358728D01*
X141321717Y-85388453D01*
X141079357Y-85431932D01*
X140838376Y-85488506D01*
X140601224Y-85557515D01*
X140370350Y-85638300D01*
X140148205Y-85730200D01*
X140098071Y-85753088D01*
X140060386Y-85770595D01*
X140021003Y-85788864D01*
X139986660Y-85804769D01*
X139976970Y-85809249D01*
X139868968Y-85862187D01*
X139752213Y-85924974D01*
X139628805Y-85996216D01*
X139500846Y-86074520D01*
X139370435Y-86158493D01*
X139239675Y-86246742D01*
X139110666Y-86337875D01*
X138985508Y-86430498D01*
X138866304Y-86523219D01*
X138755152Y-86614645D01*
X138730799Y-86635471D01*
X138698238Y-86663542D01*
X138657696Y-86698503D01*
X138613025Y-86737032D01*
X138568072Y-86775811D01*
X138537527Y-86802165D01*
X138501095Y-86832984D01*
X138467898Y-86859911D01*
X138440004Y-86881361D01*
X138419481Y-86895746D01*
X138408400Y-86901480D01*
X138407958Y-86901518D01*
X138395222Y-86894965D01*
X138377759Y-86876892D01*
X138363273Y-86857584D01*
X138340311Y-86828922D01*
X138305110Y-86791677D01*
X138258169Y-86746315D01*
X138199987Y-86693302D01*
X138131065Y-86633104D01*
X138051900Y-86566188D01*
X138047132Y-86562216D01*
X137815044Y-86377900D01*
X137579897Y-86208816D01*
X137341403Y-86054820D01*
X137099271Y-85915764D01*
X136853211Y-85791503D01*
X136602935Y-85681891D01*
X136348152Y-85586783D01*
X136088572Y-85506031D01*
X135823906Y-85439491D01*
X135813698Y-85437230D01*
X135572902Y-85390965D01*
X135324140Y-85356227D01*
X135070149Y-85333155D01*
X134813666Y-85321889D01*
X134557426Y-85322570D01*
X134304165Y-85335338D01*
X134132860Y-85351237D01*
X133862343Y-85389074D01*
X133594729Y-85442223D01*
X133330234Y-85510602D01*
X133069074Y-85594128D01*
X132811467Y-85692720D01*
X132557630Y-85806296D01*
X132307779Y-85934773D01*
X132062131Y-86078069D01*
X131855377Y-86212430D01*
X131793555Y-86254985D01*
X131734892Y-86296361D01*
X131677000Y-86338345D01*
X131617489Y-86382728D01*
X131553970Y-86431298D01*
X131484055Y-86485843D01*
X131405354Y-86548154D01*
X131378785Y-86569339D01*
X131301144Y-86631209D01*
X131229613Y-86687970D01*
X131165123Y-86738892D01*
X131108608Y-86783243D01*
X131061000Y-86820293D01*
X131023232Y-86849311D01*
X130996237Y-86869567D01*
X130987567Y-86875830D01*
X130963560Y-86892796D01*
X130385968Y-86286450D01*
X130234042Y-86126954D01*
X130092300Y-85978131D01*
X129960142Y-85839351D01*
X129836966Y-85709978D01*
X129722171Y-85589380D01*
X129615157Y-85476925D01*
X129515324Y-85371978D01*
X129422070Y-85273906D01*
X129334794Y-85182078D01*
X129252896Y-85095858D01*
X129175774Y-85014615D01*
X129102829Y-84937716D01*
X129033460Y-84864526D01*
X128967065Y-84794414D01*
X128903043Y-84726745D01*
X128840795Y-84660887D01*
X128779719Y-84596206D01*
X128719214Y-84532070D01*
X128658680Y-84467846D01*
X128597516Y-84402900D01*
X128535121Y-84336598D01*
X128474802Y-84272463D01*
X128782257Y-84272463D01*
X128970604Y-84471688D01*
X129159790Y-84671682D01*
X129340416Y-84862380D01*
X129514545Y-85045948D01*
X129684236Y-85224554D01*
X129851549Y-85400364D01*
X130018544Y-85575546D01*
X130187283Y-85752265D01*
X130359826Y-85932688D01*
X130363097Y-85936106D01*
X130438249Y-86014641D01*
X130511321Y-86091022D01*
X130581459Y-86164354D01*
X130647808Y-86233742D01*
X130709513Y-86298292D01*
X130765719Y-86357109D01*
X130815572Y-86409299D01*
X130858217Y-86453967D01*
X130892798Y-86490219D01*
X130918462Y-86517160D01*
X130934352Y-86533896D01*
X130936359Y-86536021D01*
X130962455Y-86563165D01*
X130980448Y-86580152D01*
X130992529Y-86588582D01*
X131000889Y-86590054D01*
X131006487Y-86587204D01*
X131016837Y-86578628D01*
X131036454Y-86562057D01*
X131062753Y-86539687D01*
X131093151Y-86513709D01*
X131101235Y-86506782D01*
X131342534Y-86309017D01*
X131587415Y-86126443D01*
X131835971Y-85959017D01*
X132088298Y-85806697D01*
X132344488Y-85669442D01*
X132604636Y-85547210D01*
X132868836Y-85439960D01*
X133137181Y-85347649D01*
X133409766Y-85270236D01*
X133686685Y-85207678D01*
X133968031Y-85159936D01*
X134195364Y-85132479D01*
X134484916Y-85110925D01*
X134770611Y-85104343D01*
X135052607Y-85112776D01*
X135331060Y-85136266D01*
X135606126Y-85174856D01*
X135877963Y-85228589D01*
X136146728Y-85297509D01*
X136412576Y-85381658D01*
X136675665Y-85481079D01*
X136936151Y-85595814D01*
X137194192Y-85725908D01*
X137449943Y-85871403D01*
X137703562Y-86032342D01*
X137851839Y-86134259D01*
X137941692Y-86199158D01*
X138036864Y-86270371D01*
X138133508Y-86344896D01*
X138227775Y-86419729D01*
X138315817Y-86491866D01*
X138381910Y-86547977D01*
X138439296Y-86597670D01*
X138461281Y-86579662D01*
X138473885Y-86569199D01*
X138496236Y-86550506D01*
X138526137Y-86525425D01*
X138561391Y-86495799D01*
X138599800Y-86463472D01*
X138607033Y-86457379D01*
X138740693Y-86348380D01*
X138883664Y-86238421D01*
X139032236Y-86130135D01*
X139182695Y-86026149D01*
X139331329Y-85929096D01*
X139474426Y-85841603D01*
X139484752Y-85835546D01*
X139607057Y-85766854D01*
X139739567Y-85697532D01*
X139878583Y-85629284D01*
X140020405Y-85563815D01*
X140161334Y-85502829D01*
X140297671Y-85448029D01*
X140425716Y-85401120D01*
X140434029Y-85398259D01*
X140706360Y-85313105D01*
X140981333Y-85243333D01*
X141259033Y-85188929D01*
X141539547Y-85149881D01*
X141822959Y-85126176D01*
X142109355Y-85117802D01*
X142313263Y-85121111D01*
X142590362Y-85137796D01*
X142862998Y-85168518D01*
X143131699Y-85213446D01*
X143396990Y-85272749D01*
X143659399Y-85346596D01*
X143919451Y-85435156D01*
X144177675Y-85538599D01*
X144434596Y-85657094D01*
X144690742Y-85790811D01*
X144946638Y-85939917D01*
X145036725Y-85996079D01*
X145212380Y-86111308D01*
X145385933Y-86233144D01*
X145560798Y-86364053D01*
X145713279Y-86484512D01*
X145851587Y-86596258D01*
X145940537Y-86504733D01*
X145958819Y-86485816D01*
X145986979Y-86456537D01*
X146024110Y-86417842D01*
X146069309Y-86370676D01*
X146121668Y-86315988D01*
X146180284Y-86254722D01*
X146244249Y-86187825D01*
X146312660Y-86116244D01*
X146384610Y-86040926D01*
X146459195Y-85962816D01*
X146535508Y-85882861D01*
X146555040Y-85862391D01*
X146647948Y-85765030D01*
X146730923Y-85678109D01*
X146804813Y-85600756D01*
X146870461Y-85532096D01*
X146928713Y-85471256D01*
X146980415Y-85417362D01*
X147026411Y-85369541D01*
X147067547Y-85326918D01*
X147104668Y-85288621D01*
X147138620Y-85253774D01*
X147170248Y-85221505D01*
X147200397Y-85190940D01*
X147229912Y-85161205D01*
X147259639Y-85131426D01*
X147290422Y-85100729D01*
X147323108Y-85068242D01*
X147329027Y-85062367D01*
X147361297Y-85030041D01*
X147389334Y-85001385D01*
X147411389Y-84978235D01*
X147425709Y-84962428D01*
X147430553Y-84955875D01*
X147435831Y-84948969D01*
X147450665Y-84932594D01*
X147473557Y-84908325D01*
X147503008Y-84877739D01*
X147537520Y-84842409D01*
X147565327Y-84814245D01*
X147604739Y-84774347D01*
X147652403Y-84725844D01*
X147705730Y-84671383D01*
X147762132Y-84613615D01*
X147819020Y-84555187D01*
X147873807Y-84498750D01*
X147897591Y-84474187D01*
X148095080Y-84270030D01*
X148065743Y-84245848D01*
X148047431Y-84231721D01*
X148033882Y-84223010D01*
X148030222Y-84221665D01*
X148022139Y-84216840D01*
X148005030Y-84203774D01*
X147981568Y-84184579D01*
X147959732Y-84165979D01*
X147931898Y-84142319D01*
X147895334Y-84111882D01*
X147853575Y-84077577D01*
X147810157Y-84042311D01*
X147778231Y-84016662D01*
X147741302Y-83986863D01*
X147708488Y-83959827D01*
X147681805Y-83937260D01*
X147663270Y-83920868D01*
X147654898Y-83912359D01*
X147654788Y-83912182D01*
X147642899Y-83902470D01*
X147637209Y-83901333D01*
X147627057Y-83897434D01*
X147625878Y-83894334D01*
X147620259Y-83886939D01*
X147604861Y-83871571D01*
X147581874Y-83850302D01*
X147553489Y-83825203D01*
X147545795Y-83818563D01*
X147431163Y-83717368D01*
X147328376Y-83620507D01*
X147235186Y-83525552D01*
X147149349Y-83430080D01*
X147068619Y-83331664D01*
X146990751Y-83227881D01*
X146964116Y-83190352D01*
X146855025Y-83021649D01*
X146757314Y-82843908D01*
X146671703Y-82658970D01*
X146598916Y-82468679D01*
X146539673Y-82274879D01*
X146494695Y-82079411D01*
X146470188Y-81928556D01*
X146449009Y-81710366D01*
X146443083Y-81492459D01*
X146452204Y-81275644D01*
X146476166Y-81060728D01*
X146514764Y-80848519D01*
X146567792Y-80639825D01*
X146635044Y-80435452D01*
X146716313Y-80236210D01*
X146811395Y-80042905D01*
X146920083Y-79856346D01*
X147042171Y-79677340D01*
X147044917Y-79673613D01*
X147065245Y-79645561D01*
X147081551Y-79622089D01*
X147091901Y-79606041D01*
X147094595Y-79600514D01*
X147100128Y-79592134D01*
X147113503Y-79579853D01*
X147114128Y-79579359D01*
X147127779Y-79566307D01*
X147133655Y-79556102D01*
X147133660Y-79555920D01*
X147139256Y-79545875D01*
X147152761Y-79532822D01*
X147153193Y-79532481D01*
X147166876Y-79519068D01*
X147172722Y-79508079D01*
X147172725Y-79507918D01*
X147178377Y-79497825D01*
X147192612Y-79483201D01*
X147200071Y-79476900D01*
X147216628Y-79462114D01*
X147226346Y-79450391D01*
X147227416Y-79447418D01*
X147232743Y-79439961D01*
X147247565Y-79423381D01*
X147270143Y-79399415D01*
X147298737Y-79369802D01*
X147331608Y-79336279D01*
X147367018Y-79300585D01*
X147403226Y-79264456D01*
X147438494Y-79229632D01*
X147471083Y-79197850D01*
X147499253Y-79170847D01*
X147521265Y-79150362D01*
X147535380Y-79138133D01*
X147539651Y-79135415D01*
X147548370Y-79129792D01*
X147562589Y-79115414D01*
X147572126Y-79104163D01*
X147588266Y-79086272D01*
X147601855Y-79074963D01*
X147606959Y-79072911D01*
X147617866Y-79067379D01*
X147632713Y-79053666D01*
X147636398Y-79049472D01*
X147650856Y-79034446D01*
X147662095Y-79026439D01*
X147663871Y-79026033D01*
X147673679Y-79020446D01*
X147686623Y-79006960D01*
X147686986Y-79006501D01*
X147699236Y-78992921D01*
X147707703Y-78986979D01*
X147707895Y-78986968D01*
X147715825Y-78982352D01*
X147733251Y-78969796D01*
X147757566Y-78951244D01*
X147784900Y-78929648D01*
X147819149Y-78902475D01*
X147854620Y-78874831D01*
X147886349Y-78850562D01*
X147903395Y-78837845D01*
X147929479Y-78818291D01*
X147962842Y-78792667D01*
X147998618Y-78764732D01*
X148023371Y-78745116D01*
X148096312Y-78686869D01*
X147999795Y-78592763D01*
X147979732Y-78573150D01*
X147949524Y-78543548D01*
X147910163Y-78504930D01*
X147862637Y-78458270D01*
X147807938Y-78404540D01*
X147747057Y-78344715D01*
X147680984Y-78279767D01*
X147610709Y-78210670D01*
X147537223Y-78138397D01*
X147461516Y-78063921D01*
X147395158Y-77998626D01*
X147316621Y-77921379D01*
X147233936Y-77840123D01*
X147147872Y-77755610D01*
X147059196Y-77668592D01*
X146968677Y-77579818D01*
X146877083Y-77490041D01*
X146785182Y-77400011D01*
X146693742Y-77310480D01*
X146603532Y-77222198D01*
X146515321Y-77135916D01*
X146429875Y-77052386D01*
X146347964Y-76972358D01*
X146270356Y-76896584D01*
X146197819Y-76825815D01*
X146131120Y-76760801D01*
X146071030Y-76702294D01*
X146018315Y-76651044D01*
X145973744Y-76607804D01*
X145938085Y-76573323D01*
X145912107Y-76548353D01*
X145897495Y-76534499D01*
X145873135Y-76512841D01*
X145856040Y-76500867D01*
X145842958Y-76496703D01*
X145833535Y-76497651D01*
X145821048Y-76504312D01*
X145799475Y-76519441D01*
X145771386Y-76541095D01*
X145739347Y-76567333D01*
X145723102Y-76581173D01*
X145501848Y-76761979D01*
X145269877Y-76931924D01*
X145028161Y-77090517D01*
X144777671Y-77237267D01*
X144519378Y-77371684D01*
X144254254Y-77493276D01*
X143983270Y-77601555D01*
X143707397Y-77696028D01*
X143427608Y-77776206D01*
X143289674Y-77810057D01*
X143083043Y-77853231D01*
X142876069Y-77886733D01*
X142665712Y-77910896D01*
X142448930Y-77926051D01*
X142222682Y-77932530D01*
X142164604Y-77932833D01*
X141939180Y-77929105D01*
X141722655Y-77917226D01*
X141510992Y-77896715D01*
X141300151Y-77867088D01*
X141086094Y-77827860D01*
X140864784Y-77778549D01*
X140853694Y-77775868D01*
X140799123Y-77762159D01*
X140739700Y-77746410D01*
X140677290Y-77729193D01*
X140613759Y-77711077D01*
X140550975Y-77692634D01*
X140490803Y-77674433D01*
X140435110Y-77657044D01*
X140385761Y-77641039D01*
X140344622Y-77626988D01*
X140313560Y-77615460D01*
X140294441Y-77607027D01*
X140289197Y-77603325D01*
X140279743Y-77598138D01*
X140260022Y-77591871D01*
X140244273Y-77588071D01*
X140221589Y-77581984D01*
X140206803Y-77575670D01*
X140203546Y-77572172D01*
X140196856Y-77566784D01*
X140184014Y-77565006D01*
X140169326Y-77562671D01*
X140164481Y-77558192D01*
X140157580Y-77552829D01*
X140140331Y-77547694D01*
X140133229Y-77546380D01*
X140113691Y-77541549D01*
X140102793Y-77535543D01*
X140101978Y-77533662D01*
X140095308Y-77527797D01*
X140083003Y-77525941D01*
X140063184Y-77521263D01*
X140052309Y-77514222D01*
X140036859Y-77504485D01*
X140027754Y-77502502D01*
X140011873Y-77497285D01*
X140003199Y-77490783D01*
X139986273Y-77481430D01*
X139972505Y-77479063D01*
X139958085Y-77476755D01*
X139953531Y-77472504D01*
X139946989Y-77464713D01*
X139931500Y-77456070D01*
X139913272Y-77449541D01*
X139901821Y-77447811D01*
X139886776Y-77442634D01*
X139878191Y-77436092D01*
X139861151Y-77426631D01*
X139848056Y-77424372D01*
X139829080Y-77420233D01*
X139819315Y-77414170D01*
X139809740Y-77407918D01*
X139788229Y-77395691D01*
X139756789Y-77378572D01*
X139717428Y-77357640D01*
X139672152Y-77333977D01*
X139633199Y-77313899D01*
X139451541Y-77217339D01*
X139279109Y-77118224D01*
X139112554Y-77014374D01*
X138948524Y-76903609D01*
X138783670Y-76783750D01*
X138614642Y-76652616D01*
X138604409Y-76644433D01*
X138549938Y-76601442D01*
X138505691Y-76568120D01*
X138470283Y-76543680D01*
X138442329Y-76527332D01*
X138420441Y-76518289D01*
X138403236Y-76515760D01*
X138389328Y-76518959D01*
X138386492Y-76520398D01*
X138375858Y-76528107D01*
X138355885Y-76544133D01*
X138328982Y-76566485D01*
X138297559Y-76593176D01*
X138279920Y-76608379D01*
X138112265Y-76746322D01*
X137930888Y-76881842D01*
X137737642Y-77013788D01*
X137534379Y-77141007D01*
X137322953Y-77262349D01*
X137105216Y-77376661D01*
X136883020Y-77482791D01*
X136848977Y-77498133D01*
X136615763Y-77595588D01*
X136374428Y-77683382D01*
X136128043Y-77760616D01*
X135879678Y-77826395D01*
X135632403Y-77879821D01*
X135418096Y-77915914D01*
X135346714Y-77926046D01*
X135283011Y-77934477D01*
X135224497Y-77941359D01*
X135168679Y-77946845D01*
X135113067Y-77951088D01*
X135055170Y-77954240D01*
X134992497Y-77956455D01*
X134922555Y-77957885D01*
X134842855Y-77958682D01*
X134750905Y-77959000D01*
X134714927Y-77959026D01*
X134622423Y-77958910D01*
X134543591Y-77958479D01*
X134476478Y-77957678D01*
X134419132Y-77956451D01*
X134369601Y-77954743D01*
X134325933Y-77952497D01*
X134286175Y-77949659D01*
X134248375Y-77946171D01*
X134242242Y-77945535D01*
X133992433Y-77914201D01*
X133748919Y-77873579D01*
X133514771Y-77824203D01*
X133444432Y-77807169D01*
X133381338Y-77791071D01*
X133320896Y-77775036D01*
X133265024Y-77759626D01*
X133215640Y-77745400D01*
X133174663Y-77732918D01*
X133144010Y-77722740D01*
X133125602Y-77715425D01*
X133121470Y-77712906D01*
X133108109Y-77706911D01*
X133097470Y-77705640D01*
X133080597Y-77703223D01*
X133057128Y-77697132D01*
X133032378Y-77689108D01*
X133011659Y-77680892D01*
X133000287Y-77674222D01*
X132999842Y-77673667D01*
X132990886Y-77668976D01*
X132970626Y-77661817D01*
X132942916Y-77653510D01*
X132933568Y-77650949D01*
X132904351Y-77642541D01*
X132881409Y-77634855D01*
X132868596Y-77629219D01*
X132867294Y-77628111D01*
X132857619Y-77622817D01*
X132838818Y-77617532D01*
X132833952Y-77616563D01*
X132815165Y-77611362D01*
X132805158Y-77605188D01*
X132804654Y-77603717D01*
X132797965Y-77598109D01*
X132785121Y-77596258D01*
X132770438Y-77593583D01*
X132765589Y-77588445D01*
X132758903Y-77582572D01*
X132746056Y-77580632D01*
X132731373Y-77577957D01*
X132726524Y-77572819D01*
X132719838Y-77566946D01*
X132706991Y-77565006D01*
X132692308Y-77562331D01*
X132687459Y-77557193D01*
X132680773Y-77551320D01*
X132667926Y-77549380D01*
X132653238Y-77547060D01*
X132648394Y-77542609D01*
X132641731Y-77536078D01*
X132624894Y-77526859D01*
X132602612Y-77516966D01*
X132579611Y-77508413D01*
X132560620Y-77503215D01*
X132554247Y-77502502D01*
X132541080Y-77499405D01*
X132537710Y-77496085D01*
X132530231Y-77490977D01*
X132510669Y-77480141D01*
X132481030Y-77464617D01*
X132443315Y-77445445D01*
X132399530Y-77423661D01*
X132372361Y-77410347D01*
X132147263Y-77295118D01*
X131930725Y-77172748D01*
X131720067Y-77041517D01*
X131512606Y-76899703D01*
X131305662Y-76745582D01*
X131171741Y-76639278D01*
X131124842Y-76601503D01*
X131087984Y-76572908D01*
X131059311Y-76552540D01*
X131036966Y-76539448D01*
X131019095Y-76532680D01*
X131003839Y-76531284D01*
X130989345Y-76534309D01*
X130976868Y-76539354D01*
X130967932Y-76546036D01*
X130949594Y-76562251D01*
X130921737Y-76588115D01*
X130884244Y-76623742D01*
X130836997Y-76669249D01*
X130779879Y-76724750D01*
X130712772Y-76790361D01*
X130635558Y-76866197D01*
X130548121Y-76952374D01*
X130450342Y-77049006D01*
X130342105Y-77156209D01*
X130223291Y-77274099D01*
X130093783Y-77402790D01*
X129953464Y-77542398D01*
X129865695Y-77629796D01*
X128784875Y-78706367D01*
X128820034Y-78728341D01*
X128841029Y-78743180D01*
X128868991Y-78765274D01*
X128899567Y-78791107D01*
X128917696Y-78807248D01*
X128940398Y-78827676D01*
X128972639Y-78856336D01*
X129012147Y-78891228D01*
X129056652Y-78930351D01*
X129103884Y-78971705D01*
X129151571Y-79013289D01*
X129151779Y-79013471D01*
X129239231Y-79089965D01*
X129316010Y-79158119D01*
X129383595Y-79219418D01*
X129443462Y-79275349D01*
X129497086Y-79327400D01*
X129545946Y-79377058D01*
X129591516Y-79425810D01*
X129635275Y-79475143D01*
X129678697Y-79526543D01*
X129723261Y-79581498D01*
X129752334Y-79618292D01*
X129791555Y-79670085D01*
X129835539Y-79731123D01*
X129881907Y-79797865D01*
X129928281Y-79866774D01*
X129972280Y-79934308D01*
X130011525Y-79996929D01*
X130043638Y-80051097D01*
X130045694Y-80054722D01*
X130141884Y-80240248D01*
X130224381Y-80431678D01*
X130292787Y-80627750D01*
X130346702Y-80827198D01*
X130385730Y-81028759D01*
X130406836Y-81200111D01*
X130409867Y-81246793D01*
X130411796Y-81305393D01*
X130412683Y-81372827D01*
X130412584Y-81446015D01*
X130411559Y-81521873D01*
X130409665Y-81597318D01*
X130406961Y-81669270D01*
X130403505Y-81734645D01*
X130399356Y-81790361D01*
X130394914Y-81830893D01*
X130364105Y-82018607D01*
X130323871Y-82204572D01*
X130274967Y-82386265D01*
X130218147Y-82561161D01*
X130154166Y-82726735D01*
X130083779Y-82880464D01*
X130077244Y-82893459D01*
X129998039Y-83038218D01*
X129908643Y-83179672D01*
X129808344Y-83318631D01*
X129696429Y-83455907D01*
X129572187Y-83592310D01*
X129434906Y-83728650D01*
X129283873Y-83865738D01*
X129118378Y-84004384D01*
X129062113Y-84049320D01*
X129025767Y-84078307D01*
X128993573Y-84104504D01*
X128967603Y-84126186D01*
X128949925Y-84141627D01*
X128942700Y-84148936D01*
X128932098Y-84158172D01*
X128927784Y-84159162D01*
X128916843Y-84163832D01*
X128897447Y-84176171D01*
X128872995Y-84193669D01*
X128846888Y-84213814D01*
X128822526Y-84234097D01*
X128807005Y-84248319D01*
X128782257Y-84272463D01*
X128474802Y-84272463D01*
X128470895Y-84268309D01*
X128470374Y-84267755D01*
X128429229Y-84223995D01*
X128571893Y-84123572D01*
X128679432Y-84047213D01*
X128775636Y-83977402D01*
X128862516Y-83912559D01*
X128942082Y-83851108D01*
X129016346Y-83791468D01*
X129087319Y-83732061D01*
X129157013Y-83671309D01*
X129217298Y-83616928D01*
X129379693Y-83459026D01*
X129527391Y-83295877D01*
X129660456Y-83127363D01*
X129778951Y-82953369D01*
X129882938Y-82773778D01*
X129972480Y-82588475D01*
X130047640Y-82397343D01*
X130108482Y-82200267D01*
X130155067Y-81997129D01*
X130181137Y-81837434D01*
X130188373Y-81770698D01*
X130193800Y-81692787D01*
X130197397Y-81607316D01*
X130199148Y-81517904D01*
X130199032Y-81428167D01*
X130197031Y-81341722D01*
X130193126Y-81262187D01*
X130187299Y-81193179D01*
X130184607Y-81170697D01*
X130148650Y-80956393D01*
X130098207Y-80747930D01*
X130033337Y-80545441D01*
X129954103Y-80349065D01*
X129860564Y-80158936D01*
X129752782Y-79975191D01*
X129630817Y-79797964D01*
X129494731Y-79627394D01*
X129491831Y-79624011D01*
X129413457Y-79535540D01*
X129331481Y-79448773D01*
X129244526Y-79362476D01*
X129151213Y-79275412D01*
X129050168Y-79186349D01*
X128940011Y-79094050D01*
X128819366Y-78997282D01*
X128686856Y-78894808D01*
X128633642Y-78854520D01*
X128474597Y-78734739D01*
X128754744Y-78455951D01*
X128790936Y-78419924D01*
X128837408Y-78373648D01*
X128893374Y-78317906D01*
X128958049Y-78253480D01*
X129030647Y-78181154D01*
X129110381Y-78101711D01*
X129196466Y-78015933D01*
X129288117Y-77924605D01*
X129384547Y-77828508D01*
X129484971Y-77728426D01*
X129588603Y-77625142D01*
X129694656Y-77519439D01*
X129802346Y-77412100D01*
X129910886Y-77303909D01*
X130019491Y-77195647D01*
X130020869Y-77194273D01*
X131006848Y-76211383D01*
X131037678Y-76237764D01*
X131093943Y-76285762D01*
X131150274Y-76333543D01*
X131204722Y-76379475D01*
X131255340Y-76421923D01*
X131300178Y-76459255D01*
X131337287Y-76489836D01*
X131364720Y-76512033D01*
X131367065Y-76513894D01*
X131408888Y-76546952D01*
X131442105Y-76573023D01*
X131470305Y-76594820D01*
X131497076Y-76615058D01*
X131526005Y-76636453D01*
X131560680Y-76661718D01*
X131601455Y-76691230D01*
X131844840Y-76859005D01*
X132089713Y-77011412D01*
X132336679Y-77148682D01*
X132586342Y-77271047D01*
X132839308Y-77378739D01*
X133096181Y-77471990D01*
X133357565Y-77551032D01*
X133624066Y-77616097D01*
X133896287Y-77667417D01*
X134174834Y-77705224D01*
X134269588Y-77714900D01*
X134311429Y-77717883D01*
X134366463Y-77720363D01*
X134432264Y-77722342D01*
X134506405Y-77723818D01*
X134586461Y-77724791D01*
X134670006Y-77725263D01*
X134754615Y-77725232D01*
X134837862Y-77724699D01*
X134917321Y-77723663D01*
X134990566Y-77722125D01*
X135055172Y-77720085D01*
X135108712Y-77717543D01*
X135144641Y-77714900D01*
X135428224Y-77681194D01*
X135704501Y-77633895D01*
X135974341Y-77572727D01*
X136238611Y-77497415D01*
X136498179Y-77407684D01*
X136753914Y-77303259D01*
X137006682Y-77183864D01*
X137257352Y-77049224D01*
X137274863Y-77039210D01*
X137451304Y-76933228D01*
X137631466Y-76816124D01*
X137811896Y-76690427D01*
X137989137Y-76558666D01*
X138159736Y-76423370D01*
X138320238Y-76287069D01*
X138399217Y-76216033D01*
X138419220Y-76197654D01*
X138625794Y-76370979D01*
X138706044Y-76437915D01*
X138777088Y-76496212D01*
X138841323Y-76547700D01*
X138901143Y-76594210D01*
X138958944Y-76637571D01*
X139017122Y-76679612D01*
X139078071Y-76722165D01*
X139144187Y-76767059D01*
X139144887Y-76767529D01*
X139372105Y-76913352D01*
X139598983Y-77045215D01*
X139828132Y-77164506D01*
X140062161Y-77272610D01*
X140217262Y-77337187D01*
X140470525Y-77431310D01*
X140724847Y-77511622D01*
X140982042Y-77578540D01*
X141243924Y-77632479D01*
X141512309Y-77673854D01*
X141789012Y-77703082D01*
X141828646Y-77706238D01*
X141883842Y-77709525D01*
X141951392Y-77712048D01*
X142028043Y-77713808D01*
X142110544Y-77714804D01*
X142195641Y-77715036D01*
X142280081Y-77714504D01*
X142360612Y-77713208D01*
X142433980Y-77711147D01*
X142496934Y-77708321D01*
X142527908Y-77706292D01*
X142804007Y-77677818D01*
X143076225Y-77634729D01*
X143344872Y-77576915D01*
X143610256Y-77504267D01*
X143872684Y-77416673D01*
X144132467Y-77314023D01*
X144389911Y-77196208D01*
X144645325Y-77063117D01*
X144899019Y-76914640D01*
X145094472Y-76789031D01*
X145148611Y-76751961D01*
X145205108Y-76711367D01*
X145265647Y-76665952D01*
X145331913Y-76614418D01*
X145405592Y-76555468D01*
X145488368Y-76487802D01*
X145527238Y-76455653D01*
X145572556Y-76418128D01*
X145614957Y-76383150D01*
X145652661Y-76352177D01*
X145683889Y-76326667D01*
X145706860Y-76308076D01*
X145719797Y-76297863D01*
X145720533Y-76297312D01*
X145734680Y-76284265D01*
X145755078Y-76262207D01*
X145778599Y-76234625D01*
X145794812Y-76214456D01*
X145846827Y-76148061D01*
X145866048Y-76170944D01*
G37*
G36*
X138454147Y-77127302D02*
G01*
X138474266Y-77140948D01*
X138503186Y-77161447D01*
X138539087Y-77187496D01*
X138580152Y-77217792D01*
X138617511Y-77245722D01*
X138872144Y-77427942D01*
X139131804Y-77595378D01*
X139396585Y-77748072D01*
X139666584Y-77886067D01*
X139941894Y-78009407D01*
X140222611Y-78118134D01*
X140508830Y-78212291D01*
X140800647Y-78291921D01*
X141065844Y-78350747D01*
X141114982Y-78359929D01*
X141162494Y-78367784D01*
X141204791Y-78373793D01*
X141238282Y-78377436D01*
X141256345Y-78378298D01*
X141281639Y-78379043D01*
X141299286Y-78381538D01*
X141305177Y-78384841D01*
X141312422Y-78391795D01*
X141331916Y-78397475D01*
X141360291Y-78401219D01*
X141394181Y-78402366D01*
X141394351Y-78402365D01*
X141415422Y-78403081D01*
X141448480Y-78405339D01*
X141489996Y-78408848D01*
X141536440Y-78413314D01*
X141570818Y-78416945D01*
X141623731Y-78422479D01*
X141679137Y-78427802D01*
X141731913Y-78432451D01*
X141776935Y-78435966D01*
X141795441Y-78437184D01*
X141830379Y-78439649D01*
X141858733Y-78442389D01*
X141877391Y-78445053D01*
X141883320Y-78447094D01*
X141890567Y-78448830D01*
X141910123Y-78449771D01*
X141938687Y-78449823D01*
X141961450Y-78449307D01*
X141994233Y-78448862D01*
X142020247Y-78449636D01*
X142036189Y-78451463D01*
X142039593Y-78453214D01*
X142047063Y-78454925D01*
X142068108Y-78456463D01*
X142100675Y-78457762D01*
X142142714Y-78458760D01*
X142192173Y-78459391D01*
X142242723Y-78459592D01*
X142297219Y-78459377D01*
X142346191Y-78458770D01*
X142387589Y-78457830D01*
X142419360Y-78456617D01*
X142439454Y-78455191D01*
X142445864Y-78453733D01*
X142453010Y-78450807D01*
X142471768Y-78448707D01*
X142498126Y-78447874D01*
X142499001Y-78447873D01*
X142572244Y-78445969D01*
X142658026Y-78440488D01*
X142753758Y-78431772D01*
X142856852Y-78420164D01*
X142964721Y-78406009D01*
X143074776Y-78389650D01*
X143184430Y-78371429D01*
X143291095Y-78351690D01*
X143392183Y-78330777D01*
X143408122Y-78327243D01*
X143678740Y-78258815D01*
X143948581Y-78175053D01*
X144217046Y-78076245D01*
X144483533Y-77962682D01*
X144747444Y-77834654D01*
X145008178Y-77692451D01*
X145265134Y-77536363D01*
X145517712Y-77366679D01*
X145748510Y-77196653D01*
X145790229Y-77165924D01*
X145821600Y-77146014D01*
X145843274Y-77136646D01*
X145855903Y-77137540D01*
X145860140Y-77148419D01*
X145860144Y-77148950D01*
X145865585Y-77156097D01*
X145881514Y-77173663D01*
X145907339Y-77201045D01*
X145942472Y-77237643D01*
X145986320Y-77282856D01*
X146038293Y-77336081D01*
X146097802Y-77396717D01*
X146164254Y-77464162D01*
X146237059Y-77537816D01*
X146315627Y-77617077D01*
X146399367Y-77701343D01*
X146487689Y-77790012D01*
X146580001Y-77882485D01*
X146607425Y-77909919D01*
X146726558Y-78029155D01*
X146834714Y-78137613D01*
X146932061Y-78235465D01*
X147018769Y-78322884D01*
X147095006Y-78400044D01*
X147160942Y-78467115D01*
X147216745Y-78524273D01*
X147262586Y-78571688D01*
X147298632Y-78609534D01*
X147325053Y-78637983D01*
X147342017Y-78657209D01*
X147349695Y-78667384D01*
X147350188Y-78669006D01*
X147341332Y-78678509D01*
X147322576Y-78691881D01*
X147299250Y-78705523D01*
X147281293Y-78716559D01*
X147259800Y-78732735D01*
X147233453Y-78755244D01*
X147200933Y-78785276D01*
X147160924Y-78824021D01*
X147112108Y-78872670D01*
X147093129Y-78891822D01*
X147024346Y-78961872D01*
X146964710Y-79023750D01*
X146911962Y-79079964D01*
X146863840Y-79133020D01*
X146818085Y-79185427D01*
X146772438Y-79239691D01*
X146724637Y-79298319D01*
X146708029Y-79319020D01*
X146584364Y-79481356D01*
X146474385Y-79642472D01*
X146376639Y-79805025D01*
X146289677Y-79971675D01*
X146212047Y-80145081D01*
X146142296Y-80327900D01*
X146117316Y-80401118D01*
X146069341Y-80553416D01*
X146029638Y-80696424D01*
X145997586Y-80833703D01*
X145972562Y-80968810D01*
X145953947Y-81105306D01*
X145941118Y-81246751D01*
X145933456Y-81396702D01*
X145931575Y-81465646D01*
X145930527Y-81525855D01*
X145929986Y-81580357D01*
X145929937Y-81627317D01*
X145930369Y-81664903D01*
X145931267Y-81691282D01*
X145932618Y-81704621D01*
X145933296Y-81705895D01*
X145936122Y-81713029D01*
X145937354Y-81731868D01*
X145936771Y-81758549D01*
X145936542Y-81762530D01*
X145936067Y-81795909D01*
X145937724Y-81837843D01*
X145941173Y-81881458D01*
X145943396Y-81901210D01*
X145976978Y-82106589D01*
X146025752Y-82312275D01*
X146089324Y-82517461D01*
X146167298Y-82721339D01*
X146259282Y-82923101D01*
X146364881Y-83121938D01*
X146483700Y-83317042D01*
X146615345Y-83507605D01*
X146759422Y-83692819D01*
X146892482Y-83846670D01*
X146941393Y-83900176D01*
X146986932Y-83949226D01*
X147027999Y-83992687D01*
X147063496Y-84029428D01*
X147092324Y-84058317D01*
X147113384Y-84078222D01*
X147125577Y-84088012D01*
X147127656Y-84088845D01*
X147135488Y-84094122D01*
X147152052Y-84108632D01*
X147175200Y-84130388D01*
X147202785Y-84157404D01*
X147214404Y-84169061D01*
X147245611Y-84200019D01*
X147275645Y-84228818D01*
X147301528Y-84252668D01*
X147320286Y-84268782D01*
X147323566Y-84271314D01*
X147340645Y-84286337D01*
X147350149Y-84299381D01*
X147350911Y-84303785D01*
X147345201Y-84311311D01*
X147329700Y-84329018D01*
X147305430Y-84355804D01*
X147273411Y-84390570D01*
X147234666Y-84432213D01*
X147190215Y-84479632D01*
X147141080Y-84531728D01*
X147088282Y-84587398D01*
X147070717Y-84605853D01*
X147012259Y-84667275D01*
X146953250Y-84729373D01*
X146895321Y-84790424D01*
X146840103Y-84848705D01*
X146789227Y-84902493D01*
X146744325Y-84950066D01*
X146707028Y-84989700D01*
X146680068Y-85018491D01*
X146646945Y-85053933D01*
X146605349Y-85098326D01*
X146557539Y-85149263D01*
X146505776Y-85204339D01*
X146452321Y-85261148D01*
X146399434Y-85317285D01*
X146367988Y-85350626D01*
X146315260Y-85406624D01*
X146259440Y-85466115D01*
X146203032Y-85526419D01*
X146148540Y-85584852D01*
X146098467Y-85638732D01*
X146055317Y-85685375D01*
X146036137Y-85706216D01*
X145998858Y-85746629D01*
X145964248Y-85783790D01*
X145933960Y-85815951D01*
X145909647Y-85841365D01*
X145892964Y-85858284D01*
X145886458Y-85864345D01*
X145862323Y-85874875D01*
X145830717Y-85878017D01*
X145814844Y-85877408D01*
X145800382Y-85874674D01*
X145784600Y-85868455D01*
X145764770Y-85857392D01*
X145738159Y-85840127D01*
X145702039Y-85815298D01*
X145695222Y-85810552D01*
X145511515Y-85684745D01*
X145336694Y-85569713D01*
X145169203Y-85464612D01*
X145007483Y-85368595D01*
X144849977Y-85280817D01*
X144695125Y-85200431D01*
X144541371Y-85126592D01*
X144387156Y-85058454D01*
X144230921Y-84995171D01*
X144109392Y-84949628D01*
X143831278Y-84856777D01*
X143550383Y-84778843D01*
X143266339Y-84715783D01*
X142978777Y-84667551D01*
X142687331Y-84634103D01*
X142391630Y-84615395D01*
X142091308Y-84611382D01*
X141785996Y-84622019D01*
X141547379Y-84640156D01*
X141259305Y-84674896D01*
X140974053Y-84724952D01*
X140691859Y-84790233D01*
X140412958Y-84870643D01*
X140137585Y-84966091D01*
X139865975Y-85076482D01*
X139598363Y-85201723D01*
X139334986Y-85341721D01*
X139076077Y-85496383D01*
X138821873Y-85665615D01*
X138651393Y-85789289D01*
X138595520Y-85830435D01*
X138549653Y-85862122D01*
X138511971Y-85885107D01*
X138480656Y-85900148D01*
X138453889Y-85908002D01*
X138429852Y-85909426D01*
X138406725Y-85905178D01*
X138388731Y-85898660D01*
X138374938Y-85890926D01*
X138350908Y-85875443D01*
X138318947Y-85853780D01*
X138281360Y-85827507D01*
X138240454Y-85798194D01*
X138230090Y-85790656D01*
X137983633Y-85617936D01*
X137738189Y-85460244D01*
X137492859Y-85317097D01*
X137246741Y-85188016D01*
X136998932Y-85072520D01*
X136748533Y-84970127D01*
X136573633Y-84906815D01*
X136328023Y-84829733D01*
X136073123Y-84763600D01*
X135811043Y-84708676D01*
X135543888Y-84665219D01*
X135273765Y-84633486D01*
X135002783Y-84613736D01*
X134733047Y-84606228D01*
X134466665Y-84611220D01*
X134264678Y-84623783D01*
X133972638Y-84655261D01*
X133685137Y-84701481D01*
X133401742Y-84762568D01*
X133122018Y-84838644D01*
X132845530Y-84929831D01*
X132571846Y-85036253D01*
X132300529Y-85158032D01*
X132200839Y-85206915D01*
X132146429Y-85234339D01*
X132095638Y-85260287D01*
X132047370Y-85285419D01*
X132000529Y-85310397D01*
X131954019Y-85335880D01*
X131906742Y-85362529D01*
X131857603Y-85391005D01*
X131805504Y-85421969D01*
X131749350Y-85456082D01*
X131688045Y-85494003D01*
X131620491Y-85536394D01*
X131545592Y-85583916D01*
X131462252Y-85637228D01*
X131369375Y-85696992D01*
X131265863Y-85763868D01*
X131150622Y-85838517D01*
X131124211Y-85855643D01*
X131091741Y-85876094D01*
X131063196Y-85892951D01*
X131041515Y-85904554D01*
X131029641Y-85909243D01*
X131029209Y-85909269D01*
X131021301Y-85903776D01*
X131003902Y-85888099D01*
X130978222Y-85863440D01*
X130945471Y-85831003D01*
X130906859Y-85791991D01*
X130863594Y-85747607D01*
X130816888Y-85699054D01*
X130799378Y-85680697D01*
X130732355Y-85610239D01*
X130671789Y-85546495D01*
X130616360Y-85488052D01*
X130564751Y-85433498D01*
X130515642Y-85381423D01*
X130467715Y-85330414D01*
X130419651Y-85279061D01*
X130370131Y-85225952D01*
X130317836Y-85169675D01*
X130261448Y-85108818D01*
X130199647Y-85041971D01*
X130131116Y-84967722D01*
X130054535Y-84884660D01*
X129976729Y-84800212D01*
X129950551Y-84771901D01*
X129915770Y-84734447D01*
X129874481Y-84690099D01*
X129828779Y-84641102D01*
X129780760Y-84589705D01*
X129732518Y-84538155D01*
X129712667Y-84516969D01*
X129669678Y-84470800D01*
X129630319Y-84427931D01*
X129595830Y-84389760D01*
X129567449Y-84357683D01*
X129546415Y-84333096D01*
X129533969Y-84317395D01*
X129531015Y-84312285D01*
X129536621Y-84303611D01*
X129552090Y-84286816D01*
X129575396Y-84263922D01*
X129604516Y-84236950D01*
X129622817Y-84220633D01*
X129676883Y-84171772D01*
X129737289Y-84114951D01*
X129801220Y-84052986D01*
X129865861Y-83988691D01*
X129928399Y-83924883D01*
X129986019Y-83864377D01*
X130035907Y-83809988D01*
X130055269Y-83788045D01*
X130208720Y-83600825D01*
X130347066Y-83409774D01*
X130381919Y-83354641D01*
X133875337Y-83354641D01*
X134126153Y-83352579D01*
X134376969Y-83350518D01*
X134603021Y-82741106D01*
X134637667Y-82647830D01*
X134670841Y-82558758D01*
X134702131Y-82474981D01*
X134731127Y-82397589D01*
X134757417Y-82327673D01*
X134780589Y-82266324D01*
X134800231Y-82214633D01*
X134815932Y-82173691D01*
X134827280Y-82144588D01*
X134833864Y-82128416D01*
X134835341Y-82125388D01*
X134839622Y-82130545D01*
X134848141Y-82148486D01*
X134860082Y-82177206D01*
X134874627Y-82214704D01*
X134890961Y-82258976D01*
X134899056Y-82281647D01*
X134912392Y-82319368D01*
X134930262Y-82369882D01*
X134951981Y-82431257D01*
X134976864Y-82501557D01*
X135004225Y-82578848D01*
X135033382Y-82661195D01*
X135063647Y-82746665D01*
X135094338Y-82833322D01*
X135117022Y-82897365D01*
X135277541Y-83350518D01*
X135742691Y-83354658D01*
X135738090Y-83336962D01*
X135735225Y-83327457D01*
X135727959Y-83303935D01*
X135716572Y-83267292D01*
X135701343Y-83218419D01*
X135682552Y-83158209D01*
X135660477Y-83087557D01*
X135635398Y-83007354D01*
X135607595Y-82918494D01*
X135577346Y-82821870D01*
X135544931Y-82718375D01*
X135510629Y-82608903D01*
X135474720Y-82494346D01*
X135437482Y-82375597D01*
X135427146Y-82342644D01*
X135185748Y-81573065D01*
X136300962Y-81573065D01*
X136300971Y-81732783D01*
X136301003Y-81877651D01*
X136301066Y-82008442D01*
X136301170Y-82125933D01*
X136301323Y-82230898D01*
X136301533Y-82324112D01*
X136301809Y-82406351D01*
X136302160Y-82478389D01*
X136302594Y-82541002D01*
X136303120Y-82594964D01*
X136303747Y-82641052D01*
X136304482Y-82680038D01*
X136305335Y-82712700D01*
X136306314Y-82739811D01*
X136307428Y-82762148D01*
X136308686Y-82780484D01*
X136310095Y-82795596D01*
X136311665Y-82808257D01*
X136313405Y-82819244D01*
X136314864Y-82827048D01*
X136332455Y-82903283D01*
X136353648Y-82973817D01*
X136377413Y-83035771D01*
X136402716Y-83086266D01*
X136414278Y-83104409D01*
X136419557Y-83112859D01*
X136422102Y-83121518D01*
X136421358Y-83133168D01*
X136416773Y-83150588D01*
X136407791Y-83176558D01*
X136393860Y-83213860D01*
X136390930Y-83221604D01*
X136376697Y-83259426D01*
X136364117Y-83293253D01*
X136354425Y-83319732D01*
X136348859Y-83335512D01*
X136348425Y-83336845D01*
X136342881Y-83354425D01*
X136583657Y-83354305D01*
X136643754Y-83354084D01*
X136698989Y-83353516D01*
X136747376Y-83352651D01*
X136786931Y-83351536D01*
X136815668Y-83350222D01*
X136831601Y-83348757D01*
X136834001Y-83348106D01*
X136843268Y-83335834D01*
X136846103Y-83326740D01*
X136851952Y-83307509D01*
X136857978Y-83294464D01*
X136866583Y-83275077D01*
X136870075Y-83263212D01*
X136875030Y-83245842D01*
X136882611Y-83225510D01*
X136890022Y-83206837D01*
X136894290Y-83194394D01*
X136894324Y-83194259D01*
X136898497Y-83182031D01*
X136905877Y-83163406D01*
X136906044Y-83163007D01*
X136913458Y-83144334D01*
X136917729Y-83131891D01*
X136917763Y-83131755D01*
X136921936Y-83119527D01*
X136929316Y-83100903D01*
X136929483Y-83100503D01*
X136937194Y-83080355D01*
X136941805Y-83065344D01*
X136944689Y-83054969D01*
X136945533Y-83053625D01*
X136947950Y-83047339D01*
X136949262Y-83041905D01*
X136953980Y-83026591D01*
X136961584Y-83006747D01*
X136968999Y-82988074D01*
X136973269Y-82975631D01*
X136973304Y-82975495D01*
X136977477Y-82963267D01*
X136984856Y-82944643D01*
X136985023Y-82944243D01*
X136992455Y-82925568D01*
X136996764Y-82913126D01*
X136996799Y-82912991D01*
X137001377Y-82898473D01*
X137010909Y-82871077D01*
X137024977Y-82831908D01*
X137043161Y-82782075D01*
X137065041Y-82722685D01*
X137090197Y-82654844D01*
X137118211Y-82579661D01*
X137148661Y-82498242D01*
X137181130Y-82411694D01*
X137215197Y-82321125D01*
X137250443Y-82227642D01*
X137286448Y-82132351D01*
X137322792Y-82036361D01*
X137359057Y-81940778D01*
X137394821Y-81846710D01*
X137429667Y-81755264D01*
X137463174Y-81667546D01*
X137494922Y-81584665D01*
X137524493Y-81507727D01*
X137551466Y-81437839D01*
X137575422Y-81376109D01*
X137595942Y-81323644D01*
X137612605Y-81281551D01*
X137624992Y-81250938D01*
X137632685Y-81232911D01*
X137635219Y-81228312D01*
X137636142Y-81236900D01*
X137636968Y-81259946D01*
X137637690Y-81296285D01*
X137638301Y-81344748D01*
X137638795Y-81404168D01*
X137639163Y-81473380D01*
X137639400Y-81551215D01*
X137639498Y-81636507D01*
X137639450Y-81728089D01*
X137639250Y-81824794D01*
X137639077Y-81878423D01*
X137638654Y-81998715D01*
X137638253Y-82104410D01*
X137637791Y-82196536D01*
X137637181Y-82276122D01*
X137636337Y-82344195D01*
X137635175Y-82401785D01*
X137633609Y-82449919D01*
X137631554Y-82489627D01*
X137628923Y-82521936D01*
X137625632Y-82547874D01*
X137621595Y-82568471D01*
X137616726Y-82584754D01*
X137610941Y-82597752D01*
X137604153Y-82608494D01*
X137596278Y-82618007D01*
X137587229Y-82627320D01*
X137576921Y-82637461D01*
X137575914Y-82638464D01*
X137551311Y-82659537D01*
X137524049Y-82674804D01*
X137490850Y-82685325D01*
X137448439Y-82692163D01*
X137397822Y-82696149D01*
X137322294Y-82700311D01*
X137214929Y-82990256D01*
X137190681Y-83055687D01*
X137167592Y-83117891D01*
X137146350Y-83175024D01*
X137127641Y-83225245D01*
X137112151Y-83266710D01*
X137100567Y-83297575D01*
X137093577Y-83315999D01*
X137092785Y-83318043D01*
X137078006Y-83355886D01*
X137365307Y-83352518D01*
X137441025Y-83351574D01*
X137502959Y-83350620D01*
X137552952Y-83349550D01*
X137592846Y-83348256D01*
X137624483Y-83346631D01*
X137649707Y-83344568D01*
X137670358Y-83341960D01*
X137688280Y-83338700D01*
X137705314Y-83334679D01*
X137714659Y-83332191D01*
X137803255Y-83300835D01*
X137881634Y-83257934D01*
X137949873Y-83203383D01*
X138008051Y-83137078D01*
X138056244Y-83058916D01*
X138094531Y-82968791D01*
X138122989Y-82866600D01*
X138140678Y-82760843D01*
X138141909Y-82742565D01*
X138143044Y-82708927D01*
X138144082Y-82660193D01*
X138145020Y-82596630D01*
X138145856Y-82518501D01*
X138146590Y-82426073D01*
X138147198Y-82323111D01*
X138789397Y-82323111D01*
X138789419Y-82508669D01*
X138789967Y-82591618D01*
X138791761Y-82661805D01*
X138795054Y-82722064D01*
X138800101Y-82775226D01*
X138807156Y-82824125D01*
X138816475Y-82871593D01*
X138825385Y-82909085D01*
X138856883Y-83005735D01*
X138899580Y-83091539D01*
X138953190Y-83166250D01*
X139017431Y-83229620D01*
X139092018Y-83281402D01*
X139176666Y-83321346D01*
X139271093Y-83349207D01*
X139344573Y-83361597D01*
X139364676Y-83363039D01*
X139398468Y-83364293D01*
X139444010Y-83365335D01*
X139499367Y-83366139D01*
X139562600Y-83366682D01*
X139631773Y-83366939D01*
X139704948Y-83366886D01*
X139750393Y-83366692D01*
X139833896Y-83366187D01*
X139903395Y-83365645D01*
X139960514Y-83364992D01*
X140006876Y-83364154D01*
X140044103Y-83363057D01*
X140073819Y-83361629D01*
X140097646Y-83359795D01*
X140117208Y-83357483D01*
X140134126Y-83354617D01*
X140150024Y-83351125D01*
X140162453Y-83348000D01*
X140254044Y-83316791D01*
X140336242Y-83273197D01*
X140409146Y-83217124D01*
X140472860Y-83148480D01*
X140527484Y-83067170D01*
X140573120Y-82973102D01*
X140575039Y-82968381D01*
X140598167Y-82906522D01*
X140616865Y-82845582D01*
X140631464Y-82783154D01*
X140642294Y-82716832D01*
X140649682Y-82644209D01*
X140653960Y-82562880D01*
X140655457Y-82470437D01*
X140654854Y-82385615D01*
X140653459Y-82311133D01*
X140651448Y-82249755D01*
X140648384Y-82198962D01*
X140643830Y-82156231D01*
X140637349Y-82119044D01*
X140628503Y-82084878D01*
X140616856Y-82051214D01*
X140601970Y-82015531D01*
X140583878Y-81976298D01*
X140533638Y-81883121D01*
X140473009Y-81794452D01*
X140401073Y-81709364D01*
X140316911Y-81626931D01*
X140219602Y-81546226D01*
X140108229Y-81466324D01*
X140024125Y-81412058D01*
X139904316Y-81335967D01*
X139798293Y-81264801D01*
X139705263Y-81197856D01*
X139624435Y-81134432D01*
X139555016Y-81073828D01*
X139496213Y-81015341D01*
X139447235Y-80958270D01*
X139407288Y-80901913D01*
X139375582Y-80845569D01*
X139369215Y-80832199D01*
X139360727Y-80812217D01*
X139354778Y-80793056D01*
X139350795Y-80771028D01*
X139348205Y-80742448D01*
X139346434Y-80703628D01*
X139345735Y-80681263D01*
X139342658Y-80574666D01*
X139371341Y-80542917D01*
X139387282Y-80526335D01*
X139403299Y-80512904D01*
X139421211Y-80502276D01*
X139442839Y-80494102D01*
X139470001Y-80488034D01*
X139504516Y-80483723D01*
X139548206Y-80480820D01*
X139602888Y-80478977D01*
X139670382Y-80477845D01*
X139713287Y-80477402D01*
X139783847Y-80476848D01*
X139840680Y-80476799D01*
X139885685Y-80477566D01*
X139920759Y-80479457D01*
X139947800Y-80482783D01*
X139968708Y-80487852D01*
X139985378Y-80494974D01*
X139999711Y-80504459D01*
X140013603Y-80516616D01*
X140025516Y-80528314D01*
X140059701Y-80572971D01*
X140085909Y-80630666D01*
X140104196Y-80701560D01*
X140114614Y-80785813D01*
X140115146Y-80793720D01*
X140119964Y-80869897D01*
X140664512Y-80869897D01*
X140664490Y-80680432D01*
X140663337Y-80577850D01*
X140659669Y-80488592D01*
X140655619Y-80440183D01*
X140653137Y-80410510D01*
X140643390Y-80341451D01*
X140630078Y-80279267D01*
X140612851Y-80221806D01*
X140591358Y-80166919D01*
X140575193Y-80132128D01*
X140526930Y-80048973D01*
X140469756Y-79978415D01*
X140402961Y-79919862D01*
X140325831Y-79872719D01*
X140237654Y-79836393D01*
X140210223Y-79827886D01*
X140176452Y-79818746D01*
X140142756Y-79811189D01*
X140107360Y-79805100D01*
X140068493Y-79800367D01*
X140024381Y-79796875D01*
X139973251Y-79794512D01*
X139913331Y-79793163D01*
X139842846Y-79792717D01*
X139760026Y-79793058D01*
X139678680Y-79793883D01*
X139599479Y-79794901D01*
X139534114Y-79795931D01*
X139480794Y-79797069D01*
X139437729Y-79798408D01*
X139403128Y-79800042D01*
X139375202Y-79802068D01*
X139352159Y-79804578D01*
X139332210Y-79807667D01*
X139313565Y-79811431D01*
X139303864Y-79813668D01*
X139204946Y-79844002D01*
X139117090Y-79885354D01*
X139040148Y-79937852D01*
X138973972Y-80001628D01*
X138918415Y-80076810D01*
X138873330Y-80163530D01*
X138855650Y-80208491D01*
X138842645Y-80245763D01*
X138831880Y-80279468D01*
X138823144Y-80311580D01*
X138816229Y-80344072D01*
X138810923Y-80378919D01*
X138807018Y-80418093D01*
X138804304Y-80463568D01*
X138802572Y-80517318D01*
X138801610Y-80581317D01*
X138801211Y-80657539D01*
X138801154Y-80721450D01*
X138801191Y-81022250D01*
X138822682Y-81090880D01*
X138858583Y-81188543D01*
X138903394Y-81278861D01*
X138958837Y-81364584D01*
X139026632Y-81448461D01*
X139085756Y-81510946D01*
X139134667Y-81558191D01*
X139183244Y-81601518D01*
X139234045Y-81642860D01*
X139289627Y-81684151D01*
X139352546Y-81727322D01*
X139425361Y-81774307D01*
X139475595Y-81805583D01*
X139601654Y-81884974D01*
X139713254Y-81958941D01*
X139810544Y-82027605D01*
X139893674Y-82091086D01*
X139962793Y-82149505D01*
X140018050Y-82202983D01*
X140059596Y-82251641D01*
X140087580Y-82295599D01*
X140090905Y-82302410D01*
X140098013Y-82318776D01*
X140103058Y-82334464D01*
X140106386Y-82352550D01*
X140108345Y-82376114D01*
X140109282Y-82408233D01*
X140109544Y-82451985D01*
X140109543Y-82467651D01*
X140108622Y-82528713D01*
X140105376Y-82576462D01*
X140098918Y-82613144D01*
X140088363Y-82641004D01*
X140072827Y-82662290D01*
X140051423Y-82679248D01*
X140023268Y-82694123D01*
X140019655Y-82695758D01*
X140009037Y-82699776D01*
X139995864Y-82703007D01*
X139978301Y-82705564D01*
X139954512Y-82707559D01*
X139922663Y-82709107D01*
X139880918Y-82710319D01*
X139827441Y-82711308D01*
X139760399Y-82712189D01*
X139751172Y-82712295D01*
X139676896Y-82713011D01*
X139616462Y-82713109D01*
X139568090Y-82712293D01*
X139530000Y-82710268D01*
X139500413Y-82706740D01*
X139477548Y-82701412D01*
X139459624Y-82693990D01*
X139444863Y-82684179D01*
X139431483Y-82671682D01*
X139418487Y-82657121D01*
X139394376Y-82622933D01*
X139375094Y-82581466D01*
X139360057Y-82530716D01*
X139348681Y-82468680D01*
X139340381Y-82393355D01*
X139339903Y-82387568D01*
X139334679Y-82323111D01*
X138789397Y-82323111D01*
X138147198Y-82323111D01*
X138147219Y-82319610D01*
X138147742Y-82199377D01*
X138148156Y-82065640D01*
X138148460Y-81918664D01*
X138148652Y-81758715D01*
X138148730Y-81586056D01*
X138148732Y-81553151D01*
X138148728Y-81397079D01*
X138148709Y-81255827D01*
X138148663Y-81128588D01*
X138148581Y-81014557D01*
X138148453Y-80912926D01*
X138148266Y-80822891D01*
X138148012Y-80743643D01*
X138147680Y-80674378D01*
X138147258Y-80614289D01*
X138146737Y-80562569D01*
X138146106Y-80518413D01*
X138145354Y-80481014D01*
X138144472Y-80449566D01*
X138143447Y-80423263D01*
X138142271Y-80401298D01*
X138140933Y-80382865D01*
X138139421Y-80367159D01*
X138137725Y-80353372D01*
X138135836Y-80340698D01*
X138133742Y-80328331D01*
X138132685Y-80322401D01*
X138122921Y-80275120D01*
X138110071Y-80222491D01*
X138096223Y-80172778D01*
X138089331Y-80150855D01*
X138062025Y-80068571D01*
X138117098Y-79923268D01*
X138133933Y-79878619D01*
X138148690Y-79839036D01*
X138160529Y-79806807D01*
X138168611Y-79784222D01*
X138168719Y-79783892D01*
X141234860Y-79783892D01*
X141234860Y-80440183D01*
X141922402Y-80440183D01*
X141922402Y-83354425D01*
X142430246Y-83354425D01*
X143779311Y-83354425D01*
X145657007Y-83354425D01*
X145657007Y-82698134D01*
X144305361Y-82698134D01*
X144305361Y-79783892D01*
X143789704Y-79783892D01*
X143789700Y-80719497D01*
X143789647Y-80861684D01*
X143789492Y-81014742D01*
X143789243Y-81176112D01*
X143788908Y-81343237D01*
X143788495Y-81513560D01*
X143788010Y-81684522D01*
X143787460Y-81853566D01*
X143786855Y-82018135D01*
X143786200Y-82175670D01*
X143785504Y-82323613D01*
X143784773Y-82459408D01*
X143784504Y-82504763D01*
X143779311Y-83354425D01*
X142430246Y-83354425D01*
X142430246Y-80440183D01*
X143109975Y-80440183D01*
X143109975Y-79783892D01*
X141234860Y-79783892D01*
X138168719Y-79783892D01*
X138172096Y-79773568D01*
X138172171Y-79773116D01*
X138164672Y-79771919D01*
X138143428Y-79770829D01*
X138110321Y-79769884D01*
X138067232Y-79769122D01*
X138016043Y-79768581D01*
X137958634Y-79768299D01*
X137930652Y-79768267D01*
X137689133Y-79768267D01*
X137669145Y-79821004D01*
X137663251Y-79836658D01*
X137652353Y-79865703D01*
X137636918Y-79906895D01*
X137617413Y-79958987D01*
X137594302Y-80020733D01*
X137568053Y-80090889D01*
X137539131Y-80168208D01*
X137508003Y-80251445D01*
X137475135Y-80339353D01*
X137440993Y-80430688D01*
X137434524Y-80447996D01*
X137367485Y-80627232D01*
X137303449Y-80798184D01*
X137242575Y-80960436D01*
X137185021Y-81113570D01*
X137130946Y-81257169D01*
X137080509Y-81390816D01*
X137033867Y-81514095D01*
X136991180Y-81626587D01*
X136952607Y-81727876D01*
X136918306Y-81817545D01*
X136888435Y-81895176D01*
X136863153Y-81960353D01*
X136842620Y-82012659D01*
X136826992Y-82051676D01*
X136816430Y-82076988D01*
X136811091Y-82088176D01*
X136810562Y-82088722D01*
X136809681Y-82081089D01*
X136808886Y-82058914D01*
X136808182Y-82023280D01*
X136807576Y-81975270D01*
X136807072Y-81915966D01*
X136806678Y-81846453D01*
X136806399Y-81767813D01*
X136806241Y-81681129D01*
X136806210Y-81587486D01*
X136806311Y-81487965D01*
X136806550Y-81383650D01*
X136806622Y-81360161D01*
X136808951Y-80631601D01*
X136826491Y-80579771D01*
X136850887Y-80527139D01*
X136884050Y-80487120D01*
X136925668Y-80460044D01*
X136946527Y-80452331D01*
X136978898Y-80445724D01*
X137023462Y-80441725D01*
X137081742Y-80440205D01*
X137090930Y-80440183D01*
X137194426Y-80440183D01*
X137211365Y-80395258D01*
X137218002Y-80377550D01*
X137229338Y-80347190D01*
X137244627Y-80306172D01*
X137263128Y-80256493D01*
X137284098Y-80200148D01*
X137306792Y-80139133D01*
X137328483Y-80080786D01*
X137351495Y-80018888D01*
X137372936Y-79961258D01*
X137392161Y-79909624D01*
X137408527Y-79865713D01*
X137421390Y-79831253D01*
X137430106Y-79807971D01*
X137434031Y-79797594D01*
X137434042Y-79797565D01*
X137434654Y-79794102D01*
X137432555Y-79791277D01*
X137426336Y-79789027D01*
X137414585Y-79787287D01*
X137395892Y-79785992D01*
X137368847Y-79785079D01*
X137332040Y-79784482D01*
X137284060Y-79784138D01*
X137223497Y-79783982D01*
X137148940Y-79783950D01*
X137135834Y-79783951D01*
X137061212Y-79784183D01*
X136991420Y-79784818D01*
X136928308Y-79785814D01*
X136873723Y-79787128D01*
X136829514Y-79788717D01*
X136797529Y-79790537D01*
X136781461Y-79792213D01*
X136690499Y-79813905D01*
X136608877Y-79848096D01*
X136536584Y-79894796D01*
X136473609Y-79954020D01*
X136419941Y-80025779D01*
X136375568Y-80110086D01*
X136340479Y-80206954D01*
X136315612Y-80311269D01*
X136313639Y-80322348D01*
X136311852Y-80334047D01*
X136310240Y-80347148D01*
X136308795Y-80362434D01*
X136307508Y-80380686D01*
X136306370Y-80402686D01*
X136305371Y-80429218D01*
X136304503Y-80461061D01*
X136303757Y-80499000D01*
X136303122Y-80543816D01*
X136302591Y-80596292D01*
X136302155Y-80657208D01*
X136301803Y-80727348D01*
X136301527Y-80807494D01*
X136301319Y-80898428D01*
X136301168Y-81000931D01*
X136301066Y-81115787D01*
X136301004Y-81243776D01*
X136300973Y-81385682D01*
X136300963Y-81542287D01*
X136300962Y-81573065D01*
X135185748Y-81573065D01*
X135120803Y-81366021D01*
X135419746Y-80569097D01*
X135459762Y-80462408D01*
X135498207Y-80359878D01*
X135534729Y-80262447D01*
X135568975Y-80171057D01*
X135600594Y-80086650D01*
X135629232Y-80010165D01*
X135654538Y-79942546D01*
X135676160Y-79884732D01*
X135693744Y-79837666D01*
X135706938Y-79802289D01*
X135715390Y-79779541D01*
X135718749Y-79770365D01*
X135718793Y-79770220D01*
X135711315Y-79769748D01*
X135690066Y-79769325D01*
X135656903Y-79768965D01*
X135613679Y-79768682D01*
X135562251Y-79768490D01*
X135504473Y-79768401D01*
X135470833Y-79768401D01*
X135222771Y-79768535D01*
X135047228Y-80241086D01*
X135016790Y-80322829D01*
X134987878Y-80400092D01*
X134960958Y-80471653D01*
X134936498Y-80536290D01*
X134914964Y-80592782D01*
X134896822Y-80639906D01*
X134882539Y-80676439D01*
X134872582Y-80701161D01*
X134867416Y-80712849D01*
X134866843Y-80713637D01*
X134863274Y-80706543D01*
X134854597Y-80686070D01*
X134841291Y-80653432D01*
X134823836Y-80609843D01*
X134802713Y-80556515D01*
X134778402Y-80494663D01*
X134751382Y-80425500D01*
X134722133Y-80350241D01*
X134691135Y-80270097D01*
X134679898Y-80240952D01*
X134497796Y-79768267D01*
X134032457Y-79768267D01*
X134085754Y-79926479D01*
X134096308Y-79957804D01*
X134111388Y-80002548D01*
X134130526Y-80059325D01*
X134153253Y-80126748D01*
X134179103Y-80203429D01*
X134207607Y-80287981D01*
X134238299Y-80379018D01*
X134270710Y-80475152D01*
X134304373Y-80574996D01*
X134338820Y-80677162D01*
X134366925Y-80760515D01*
X134400217Y-80859523D01*
X134431978Y-80954502D01*
X134461860Y-81044384D01*
X134489516Y-81128100D01*
X134514599Y-81204582D01*
X134536761Y-81272762D01*
X134555656Y-81331571D01*
X134570937Y-81379942D01*
X134582256Y-81416806D01*
X134589266Y-81441095D01*
X134591620Y-81451740D01*
X134591599Y-81451964D01*
X134588641Y-81460389D01*
X134580562Y-81482376D01*
X134567761Y-81516868D01*
X134550634Y-81562808D01*
X134529580Y-81619139D01*
X134504995Y-81684804D01*
X134477279Y-81758746D01*
X134446829Y-81839909D01*
X134414043Y-81927234D01*
X134379318Y-82019665D01*
X134343052Y-82116145D01*
X134305643Y-82215617D01*
X134267489Y-82317024D01*
X134228988Y-82419309D01*
X134190537Y-82521415D01*
X134152534Y-82622285D01*
X134115377Y-82720863D01*
X134079464Y-82816090D01*
X134045192Y-82906910D01*
X134012960Y-82992266D01*
X133983165Y-83071101D01*
X133956205Y-83142359D01*
X133932477Y-83204981D01*
X133912380Y-83257911D01*
X133896312Y-83300092D01*
X133884669Y-83330468D01*
X133883674Y-83333047D01*
X133875337Y-83354641D01*
X130381919Y-83354641D01*
X130382056Y-83354425D01*
X130470341Y-83214769D01*
X130578580Y-83015690D01*
X130671815Y-82812415D01*
X130750081Y-82604822D01*
X130813412Y-82392789D01*
X130861841Y-82176196D01*
X130895403Y-81954921D01*
X130914131Y-81728842D01*
X130918059Y-81497838D01*
X130907221Y-81261788D01*
X130881652Y-81020569D01*
X130862591Y-80893336D01*
X130817212Y-80664780D01*
X130757087Y-80440653D01*
X130682519Y-80221670D01*
X130593813Y-80008548D01*
X130491276Y-79802004D01*
X130485277Y-79791705D01*
X131663958Y-79791705D01*
X131663958Y-83354425D01*
X132234306Y-83354425D01*
X132234306Y-82635630D01*
X132234378Y-82528827D01*
X132234588Y-82427191D01*
X132234925Y-82331764D01*
X132235381Y-82243587D01*
X132235945Y-82163702D01*
X132236607Y-82093150D01*
X132237357Y-82032974D01*
X132238186Y-81984214D01*
X132239085Y-81947912D01*
X132240042Y-81925110D01*
X132241048Y-81916849D01*
X132241090Y-81916836D01*
X132245284Y-81923755D01*
X132255654Y-81943886D01*
X132271748Y-81976287D01*
X132293117Y-82020021D01*
X132319308Y-82074146D01*
X132349871Y-82137724D01*
X132384355Y-82209813D01*
X132422309Y-82289475D01*
X132463282Y-82375769D01*
X132506823Y-82467755D01*
X132552481Y-82564494D01*
X132585975Y-82635630D01*
X132924076Y-83354425D01*
X133216860Y-83354425D01*
X133292261Y-83354388D01*
X133353478Y-83354234D01*
X133401953Y-83353893D01*
X133439129Y-83353297D01*
X133466447Y-83352378D01*
X133485350Y-83351067D01*
X133497280Y-83349298D01*
X133503679Y-83347000D01*
X133505989Y-83344106D01*
X133505713Y-83340752D01*
X133502149Y-83332002D01*
X133492708Y-83309806D01*
X133477770Y-83275037D01*
X133457713Y-83228568D01*
X133432916Y-83171272D01*
X133403758Y-83104023D01*
X133370619Y-83027693D01*
X133333878Y-82943156D01*
X133293913Y-82851284D01*
X133251104Y-82752951D01*
X133205829Y-82649029D01*
X133158468Y-82540393D01*
X133109694Y-82428586D01*
X133060664Y-82316110D01*
X133013402Y-82207451D01*
X132968283Y-82103485D01*
X132925684Y-82005088D01*
X132885978Y-81913134D01*
X132849542Y-81828498D01*
X132816751Y-81752055D01*
X132787980Y-81684680D01*
X132763605Y-81627249D01*
X132744000Y-81580636D01*
X132729542Y-81545716D01*
X132720606Y-81523364D01*
X132717566Y-81514468D01*
X132720800Y-81505507D01*
X132730241Y-81483274D01*
X132745485Y-81448657D01*
X132766127Y-81402541D01*
X132791762Y-81345814D01*
X132821986Y-81279360D01*
X132856393Y-81204068D01*
X132894579Y-81120823D01*
X132936138Y-81030512D01*
X132980666Y-80934022D01*
X133027759Y-80832238D01*
X133077011Y-80726047D01*
X133112674Y-80649310D01*
X133163139Y-80540783D01*
X133211734Y-80436211D01*
X133258057Y-80336465D01*
X133301705Y-80242417D01*
X133342272Y-80154939D01*
X133379358Y-80074900D01*
X133412557Y-80003174D01*
X133441467Y-79940631D01*
X133465684Y-79888143D01*
X133484805Y-79846580D01*
X133498427Y-79816814D01*
X133506146Y-79799718D01*
X133507822Y-79795742D01*
X133500297Y-79794825D01*
X133478871Y-79793981D01*
X133445269Y-79793234D01*
X133401218Y-79792609D01*
X133348443Y-79792130D01*
X133288668Y-79791821D01*
X133223619Y-79791706D01*
X133220651Y-79791705D01*
X132933481Y-79791705D01*
X132594522Y-80434323D01*
X132545277Y-80527594D01*
X132497955Y-80617043D01*
X132453082Y-80701686D01*
X132411183Y-80780542D01*
X132372785Y-80852626D01*
X132338413Y-80916955D01*
X132308591Y-80972546D01*
X132283847Y-81018415D01*
X132264705Y-81053579D01*
X132251691Y-81077056D01*
X132245330Y-81087860D01*
X132244935Y-81088381D01*
X132243016Y-81088529D01*
X132241334Y-81083973D01*
X132239876Y-81073818D01*
X132238626Y-81057165D01*
X132237570Y-81033117D01*
X132236693Y-81000775D01*
X132235979Y-80959243D01*
X132235415Y-80907623D01*
X132234984Y-80845016D01*
X132234673Y-80770526D01*
X132234466Y-80683254D01*
X132234349Y-80582304D01*
X132234307Y-80466777D01*
X132234306Y-80445764D01*
X132234306Y-79791705D01*
X131663958Y-79791705D01*
X130485277Y-79791705D01*
X130375211Y-79602753D01*
X130245924Y-79411511D01*
X130212220Y-79365898D01*
X130117569Y-79246339D01*
X130012256Y-79124622D01*
X129900001Y-79004699D01*
X129784524Y-78890525D01*
X129669545Y-78786052D01*
X129654069Y-78772741D01*
X129620991Y-78743906D01*
X129592559Y-78718006D01*
X129570748Y-78696930D01*
X129557535Y-78682569D01*
X129554454Y-78677409D01*
X129559415Y-78670814D01*
X129574352Y-78654462D01*
X129599346Y-78628270D01*
X129634480Y-78592158D01*
X129679834Y-78546043D01*
X129735489Y-78489845D01*
X129801528Y-78423482D01*
X129878032Y-78346872D01*
X129965081Y-78259934D01*
X130062758Y-78162587D01*
X130171144Y-78054749D01*
X130290320Y-77936338D01*
X130420368Y-77807273D01*
X130561370Y-77667473D01*
X130713405Y-77516856D01*
X130795160Y-77435908D01*
X130860168Y-77371780D01*
X130915072Y-77318189D01*
X130960665Y-77274472D01*
X130997738Y-77239966D01*
X131027084Y-77214009D01*
X131049495Y-77195937D01*
X131065763Y-77185087D01*
X131076680Y-77180797D01*
X131083040Y-77182403D01*
X131085633Y-77189242D01*
X131085798Y-77192678D01*
X131092255Y-77200870D01*
X131110713Y-77216242D01*
X131139798Y-77237887D01*
X131178139Y-77264900D01*
X131224363Y-77296376D01*
X131277098Y-77331410D01*
X131334973Y-77369095D01*
X131396614Y-77408526D01*
X131460650Y-77448799D01*
X131525709Y-77489007D01*
X131590418Y-77528245D01*
X131630980Y-77552410D01*
X131892315Y-77700068D01*
X132155898Y-77835481D01*
X132420555Y-77958154D01*
X132685118Y-78067590D01*
X132948416Y-78163294D01*
X133209277Y-78244769D01*
X133363659Y-78286497D01*
X133453318Y-78308624D01*
X133541950Y-78329240D01*
X133627701Y-78347990D01*
X133708715Y-78364518D01*
X133783140Y-78378471D01*
X133849121Y-78389493D01*
X133904804Y-78397230D01*
X133948334Y-78401328D01*
X133966835Y-78401899D01*
X133994320Y-78402591D01*
X134014452Y-78404695D01*
X134023350Y-78407776D01*
X134023479Y-78408223D01*
X134029711Y-78413586D01*
X134048847Y-78418177D01*
X134081544Y-78422071D01*
X134128461Y-78425344D01*
X134190255Y-78428071D01*
X134199244Y-78428384D01*
X134238752Y-78430118D01*
X134272194Y-78432338D01*
X134296707Y-78434796D01*
X134309429Y-78437244D01*
X134310560Y-78438027D01*
X134318719Y-78440620D01*
X134338336Y-78441846D01*
X134365284Y-78441460D01*
X134367230Y-78441372D01*
X134394160Y-78440943D01*
X134413687Y-78442248D01*
X134421877Y-78445007D01*
X134421924Y-78445278D01*
X134429184Y-78447728D01*
X134448831Y-78449277D01*
X134477644Y-78449766D01*
X134503960Y-78449323D01*
X134537626Y-78448879D01*
X134564600Y-78449596D01*
X134581662Y-78451320D01*
X134586016Y-78453230D01*
X134593444Y-78455141D01*
X134614188Y-78456823D01*
X134645937Y-78458183D01*
X134686380Y-78459130D01*
X134733209Y-78459571D01*
X134746184Y-78459592D01*
X134794297Y-78459297D01*
X134836628Y-78458473D01*
X134870865Y-78457212D01*
X134894701Y-78455605D01*
X134905823Y-78453745D01*
X134906347Y-78453230D01*
X134913614Y-78450837D01*
X134933267Y-78449334D01*
X134962083Y-78448873D01*
X134988398Y-78449323D01*
X135022064Y-78449916D01*
X135049035Y-78449601D01*
X135066089Y-78448466D01*
X135070435Y-78447094D01*
X135077713Y-78444796D01*
X135097487Y-78442100D01*
X135126644Y-78439359D01*
X135158314Y-78437147D01*
X135332379Y-78422610D01*
X135516106Y-78399545D01*
X135706479Y-78368563D01*
X135900483Y-78330269D01*
X136095101Y-78285273D01*
X136287317Y-78234183D01*
X136474117Y-78177607D01*
X136519726Y-78162640D01*
X136770817Y-78071847D01*
X137023335Y-77966702D01*
X137275524Y-77848152D01*
X137525626Y-77717142D01*
X137771882Y-77574620D01*
X138012535Y-77421531D01*
X138245827Y-77258821D01*
X138366517Y-77168524D01*
X138396680Y-77146619D01*
X138421774Y-77130745D01*
X138439150Y-77122488D01*
X138444647Y-77121812D01*
X138454147Y-77127302D01*
G37*
D13*
X144242418Y-120804679D02*
X143853509Y-121193588D01*
X143853509Y-120415770D02*
X144242418Y-120804679D01*
X138818909Y-126228188D02*
X138430000Y-126617097D01*
X138430000Y-126617097D02*
X138041091Y-126228188D01*
X138430000Y-114992261D02*
X138818909Y-115381170D01*
X138041091Y-115381170D02*
X138430000Y-114992261D01*
X133006491Y-121193588D02*
X132617582Y-120804679D01*
X132617582Y-120804679D02*
X133006491Y-120415770D01*
X137073769Y-114922965D02*
X136670719Y-114859324D01*
X137010130Y-114519914D01*
X137073769Y-114922965D01*
G36*
X137073769Y-114922965D02*
G01*
X136670719Y-114859324D01*
X137010130Y-114519914D01*
X137073769Y-114922965D01*
G37*
X148480000Y-74930000D02*
X148480000Y-166480000D01*
X148480000Y-74930000D02*
X151240000Y-74930000D01*
X148480000Y-166480000D02*
X151240000Y-166480000D01*
X151240000Y-74930000D02*
X151240000Y-166480000D01*
X125620000Y-74930000D02*
X128380000Y-74930000D01*
X125620000Y-74930000D02*
X125620000Y-166480000D01*
X125620000Y-166480000D02*
X128380000Y-166480000D01*
X128380000Y-74930000D02*
X128380000Y-166480000D01*
%LPC*%
D14*
X138430000Y-120804679D03*
D15*
X139131096Y-115578099D03*
X139413939Y-115860942D03*
X139696782Y-116143785D03*
X139979624Y-116426627D03*
X140262467Y-116709470D03*
X140545310Y-116992313D03*
X140828153Y-117275156D03*
X141110995Y-117557998D03*
X141393838Y-117840841D03*
X141676681Y-118123684D03*
X141959523Y-118406526D03*
X142242366Y-118689369D03*
X142525209Y-118972212D03*
X142808052Y-119255055D03*
X143090894Y-119537897D03*
X143373737Y-119820740D03*
X143656580Y-120103583D03*
D16*
X143656580Y-121505775D03*
X143373737Y-121788618D03*
X143090894Y-122071461D03*
X142808052Y-122354303D03*
X142525209Y-122637146D03*
X142242366Y-122919989D03*
X141959523Y-123202832D03*
X141676681Y-123485674D03*
X141393838Y-123768517D03*
X141110995Y-124051360D03*
X140828153Y-124334202D03*
X140545310Y-124617045D03*
X140262467Y-124899888D03*
X139979624Y-125182731D03*
X139696782Y-125465573D03*
X139413939Y-125748416D03*
X139131096Y-126031259D03*
D15*
X137728904Y-126031259D03*
X137446061Y-125748416D03*
X137163218Y-125465573D03*
X136880376Y-125182731D03*
X136597533Y-124899888D03*
X136314690Y-124617045D03*
X136031847Y-124334202D03*
X135749005Y-124051360D03*
X135466162Y-123768517D03*
X135183319Y-123485674D03*
X134900477Y-123202832D03*
X134617634Y-122919989D03*
X134334791Y-122637146D03*
X134051948Y-122354303D03*
X133769106Y-122071461D03*
X133486263Y-121788618D03*
X133203420Y-121505775D03*
D16*
X133203420Y-120103583D03*
X133486263Y-119820740D03*
X133769106Y-119537897D03*
X134051948Y-119255055D03*
X134334791Y-118972212D03*
X134617634Y-118689369D03*
X134900477Y-118406526D03*
X135183319Y-118123684D03*
X135466162Y-117840841D03*
X135749005Y-117557998D03*
X136031847Y-117275156D03*
X136314690Y-116992313D03*
X136597533Y-116709470D03*
X136880376Y-116426627D03*
X137163218Y-116143785D03*
X137446061Y-115860942D03*
X137728904Y-115578099D03*
D17*
X149860000Y-76200000D03*
X149860000Y-78740000D03*
X149860000Y-81280000D03*
X149860000Y-83820000D03*
X149860000Y-86360000D03*
X149860000Y-88900000D03*
X149860000Y-91440000D03*
X149860000Y-93980000D03*
X149860000Y-96520000D03*
X149860000Y-99060000D03*
X149860000Y-101600000D03*
X149860000Y-104140000D03*
X149860000Y-106680000D03*
X149860000Y-109220000D03*
X149860000Y-111760000D03*
X149860000Y-114300000D03*
X149860000Y-116840000D03*
X149860000Y-119380000D03*
X149860000Y-121920000D03*
X149860000Y-124460000D03*
X149860000Y-127000000D03*
X149860000Y-129540000D03*
X149860000Y-132080000D03*
X149860000Y-134620000D03*
X149860000Y-137160000D03*
X149860000Y-139700000D03*
X149860000Y-142240000D03*
X149860000Y-144780000D03*
X149860000Y-147320000D03*
X149860000Y-149860000D03*
X149860000Y-152400000D03*
X149860000Y-154940000D03*
X149860000Y-157480000D03*
X149860000Y-160020000D03*
X149860000Y-162560000D03*
X149860000Y-165100000D03*
X127000000Y-76200000D03*
X127000000Y-78740000D03*
X127000000Y-81280000D03*
X127000000Y-83820000D03*
X127000000Y-86360000D03*
X127000000Y-88900000D03*
X127000000Y-91440000D03*
X127000000Y-93980000D03*
X127000000Y-96520000D03*
X127000000Y-99060000D03*
X127000000Y-101600000D03*
X127000000Y-104140000D03*
X127000000Y-106680000D03*
X127000000Y-109220000D03*
X127000000Y-111760000D03*
X127000000Y-114300000D03*
X127000000Y-116840000D03*
X127000000Y-119380000D03*
X127000000Y-121920000D03*
X127000000Y-124460000D03*
X127000000Y-127000000D03*
X127000000Y-129540000D03*
X127000000Y-132080000D03*
X127000000Y-134620000D03*
X127000000Y-137160000D03*
X127000000Y-139700000D03*
X127000000Y-142240000D03*
X127000000Y-144780000D03*
X127000000Y-147320000D03*
X127000000Y-149860000D03*
X127000000Y-152400000D03*
X127000000Y-154940000D03*
X127000000Y-157480000D03*
X127000000Y-160020000D03*
X127000000Y-162560000D03*
X127000000Y-165100000D03*
%LPD*%
M02*
