G04 #@! TF.GenerationSoftware,KiCad,Pcbnew,9.0.6*
G04 #@! TF.CreationDate,2026-01-07T17:17:41-06:00*
G04 #@! TF.ProjectId,QFN-32_5x5_P0.5,51464e2d-3332-45f3-9578-355f50302e35,rev?*
G04 #@! TF.SameCoordinates,Original*
G04 #@! TF.FileFunction,Copper,L2,Bot*
G04 #@! TF.FilePolarity,Positive*
%FSLAX46Y46*%
G04 Gerber Fmt 4.6, Leading zero omitted, Abs format (unit mm)*
G04 Created by KiCad (PCBNEW 9.0.6) date 2026-01-07 17:17:41*
%MOMM*%
%LPD*%
G01*
G04 APERTURE LIST*
G04 Aperture macros list*
%AMRotRect*
0 Rectangle, with rotation*
0 The origin of the aperture is its center*
0 $1 length*
0 $2 width*
0 $3 Rotation angle, in degrees counterclockwise*
0 Add horizontal line*
21,1,$1,$2,0,0,$3*%
G04 Aperture macros list end*
G04 #@! TA.AperFunction,HeatsinkPad*
%ADD10C,0.500000*%
G04 #@! TD*
G04 #@! TA.AperFunction,HeatsinkPad*
%ADD11RotRect,2.500000X2.500000X315.000000*%
G04 #@! TD*
G04 #@! TA.AperFunction,ComponentPad*
%ADD12C,1.700000*%
G04 #@! TD*
G04 #@! TA.AperFunction,ComponentPad*
%ADD13R,1.700000X1.700000*%
G04 #@! TD*
G04 #@! TA.AperFunction,SMDPad,CuDef*
%ADD14R,2.510000X1.000000*%
G04 #@! TD*
G04 #@! TA.AperFunction,ViaPad*
%ADD15C,0.600000*%
G04 #@! TD*
G04 #@! TA.AperFunction,Conductor*
%ADD16C,0.500000*%
G04 #@! TD*
G04 APERTURE END LIST*
D10*
X138430000Y-119235786D03*
X137722893Y-119942893D03*
X137015786Y-120650000D03*
X139137107Y-119942893D03*
X138430000Y-120650000D03*
D11*
X138430000Y-120650000D03*
D10*
X137722893Y-121357107D03*
X139844214Y-120650000D03*
X139137107Y-121357107D03*
X138430000Y-122064214D03*
D12*
X127000000Y-99061642D03*
D13*
X127000000Y-101601642D03*
D12*
X127000000Y-104141642D03*
X127000000Y-106681642D03*
X127000000Y-109221642D03*
X127000000Y-111761642D03*
X127000000Y-114301642D03*
X127000000Y-116841642D03*
X127000000Y-119381642D03*
X127000000Y-121921642D03*
X127000000Y-124461642D03*
X127000000Y-127001642D03*
X127000000Y-129541642D03*
X127000000Y-132081642D03*
X127000000Y-134621642D03*
X127000000Y-137161642D03*
X127000000Y-139701642D03*
X127000000Y-142241642D03*
X149860000Y-99061642D03*
X149860000Y-101601642D03*
X149860000Y-104141642D03*
X149860000Y-106681642D03*
X149860000Y-109221642D03*
X149860000Y-111761642D03*
X149860000Y-114301642D03*
X149860000Y-116841642D03*
X149860000Y-119381642D03*
X149860000Y-121921642D03*
X149860000Y-124461642D03*
X149860000Y-127001642D03*
X149860000Y-129541642D03*
X149860000Y-132081642D03*
X149860000Y-134621642D03*
X149860000Y-137161642D03*
X149860000Y-139701642D03*
X149860000Y-142241642D03*
D14*
X133735000Y-99056642D03*
X130425000Y-101596642D03*
X133735000Y-104136642D03*
X130425000Y-106676642D03*
X133735000Y-109216642D03*
X130425000Y-111756642D03*
X133735000Y-114296642D03*
X130425000Y-116836642D03*
X133735000Y-119376642D03*
X130425000Y-121916642D03*
X133735000Y-124456642D03*
X130425000Y-126996642D03*
X133735000Y-129536642D03*
X130425000Y-132076642D03*
X133735000Y-134616642D03*
X130425000Y-137156642D03*
X133735000Y-139696642D03*
X130425000Y-142236642D03*
X143125000Y-99056642D03*
X146435000Y-101596642D03*
X143125000Y-104136642D03*
X146435000Y-106676642D03*
X143125000Y-109216642D03*
X146435000Y-111756642D03*
X143125000Y-114296642D03*
X146435000Y-116836642D03*
X143125000Y-119376642D03*
X146435000Y-121916642D03*
X143125000Y-124456642D03*
X146435000Y-126996642D03*
X143125000Y-129536642D03*
X146435000Y-132076642D03*
X143125000Y-134616642D03*
X146435000Y-137156642D03*
X143125000Y-139696642D03*
X146435000Y-142236642D03*
D15*
X138430000Y-105029000D03*
X138430000Y-139065000D03*
X138430000Y-115951000D03*
X138430000Y-125349000D03*
D16*
X143125000Y-114296642D02*
X149855000Y-114296642D01*
X149855000Y-114296642D02*
X149860000Y-114301642D01*
X133730000Y-124461642D02*
X133735000Y-124456642D01*
X127000000Y-124461642D02*
X133730000Y-124461642D01*
X127005000Y-106676642D02*
X127000000Y-106681642D01*
X130425000Y-106676642D02*
X127005000Y-106676642D01*
X133730000Y-114301642D02*
X133735000Y-114296642D01*
X127000000Y-114301642D02*
X133730000Y-114301642D01*
X127000000Y-119381642D02*
X133730000Y-119381642D01*
X133730000Y-119381642D02*
X133735000Y-119376642D01*
X127005000Y-101596642D02*
X127000000Y-101601642D01*
X130425000Y-101596642D02*
X127005000Y-101596642D01*
X143125000Y-104136642D02*
X149855000Y-104136642D01*
X149855000Y-104136642D02*
X149860000Y-104141642D01*
X130425000Y-116836642D02*
X127005000Y-116836642D01*
X127005000Y-116836642D02*
X127000000Y-116841642D01*
X149860000Y-111761642D02*
X146440000Y-111761642D01*
X146440000Y-111761642D02*
X146435000Y-111756642D01*
X127000000Y-104141642D02*
X133730000Y-104141642D01*
X133730000Y-104141642D02*
X133735000Y-104136642D01*
X149860000Y-101601642D02*
X146440000Y-101601642D01*
X146440000Y-101601642D02*
X146435000Y-101596642D01*
X146440000Y-121921642D02*
X146435000Y-121916642D01*
X149860000Y-121921642D02*
X146440000Y-121921642D01*
X143125000Y-124456642D02*
X149855000Y-124456642D01*
X149855000Y-124456642D02*
X149860000Y-124461642D01*
X143125000Y-134616642D02*
X149855000Y-134616642D01*
X149855000Y-134616642D02*
X149860000Y-134621642D01*
X149860000Y-132081642D02*
X146440000Y-132081642D01*
X146440000Y-132081642D02*
X146435000Y-132076642D01*
X146440000Y-137161642D02*
X146435000Y-137156642D01*
X149860000Y-137161642D02*
X146440000Y-137161642D01*
X127005000Y-121916642D02*
X127000000Y-121921642D01*
X130425000Y-121916642D02*
X127005000Y-121916642D01*
X133730000Y-134621642D02*
X133735000Y-134616642D01*
X127000000Y-134621642D02*
X133730000Y-134621642D01*
X146440000Y-116841642D02*
X146435000Y-116836642D01*
X149860000Y-116841642D02*
X146440000Y-116841642D01*
X143125000Y-129536642D02*
X149855000Y-129536642D01*
X149855000Y-129536642D02*
X149860000Y-129541642D01*
X133730000Y-139701642D02*
X133735000Y-139696642D01*
X127000000Y-139701642D02*
X133730000Y-139701642D01*
X149855000Y-109216642D02*
X149860000Y-109221642D01*
X143125000Y-109216642D02*
X149855000Y-109216642D01*
X127005000Y-137156642D02*
X127000000Y-137161642D01*
X130425000Y-137156642D02*
X127005000Y-137156642D01*
X143125000Y-119376642D02*
X149855000Y-119376642D01*
X149855000Y-119376642D02*
X149860000Y-119381642D01*
X149860000Y-106681642D02*
X146440000Y-106681642D01*
X146440000Y-106681642D02*
X146435000Y-106676642D01*
X149860000Y-142241642D02*
X127000000Y-142241642D01*
X127000000Y-99061642D02*
X149860000Y-99061642D01*
X143125000Y-139696642D02*
X149855000Y-139696642D01*
X149855000Y-139696642D02*
X149860000Y-139701642D01*
X130425000Y-111756642D02*
X127005000Y-111756642D01*
X127005000Y-111756642D02*
X127000000Y-111761642D01*
X133730000Y-109221642D02*
X133735000Y-109216642D01*
X127000000Y-109221642D02*
X133730000Y-109221642D01*
X127005000Y-132076642D02*
X127000000Y-132081642D01*
X130425000Y-132076642D02*
X127005000Y-132076642D01*
X127000000Y-129541642D02*
X133730000Y-129541642D01*
X133730000Y-129541642D02*
X133735000Y-129536642D01*
X127005000Y-126996642D02*
X127000000Y-127001642D01*
X130425000Y-126996642D02*
X127005000Y-126996642D01*
X149860000Y-127001642D02*
X146440000Y-127001642D01*
X146440000Y-127001642D02*
X146435000Y-126996642D01*
G04 #@! TA.AperFunction,Conductor*
G36*
X150572539Y-98310185D02*
G01*
X150618294Y-98362989D01*
X150629500Y-98414500D01*
X150629500Y-100275670D01*
X150609815Y-100342709D01*
X150557011Y-100388464D01*
X150487853Y-100398408D01*
X150449206Y-100386155D01*
X150378417Y-100350087D01*
X150378414Y-100350086D01*
X150378412Y-100350085D01*
X150176243Y-100284396D01*
X150176241Y-100284395D01*
X150176240Y-100284395D01*
X150014957Y-100258850D01*
X149966287Y-100251142D01*
X149753713Y-100251142D01*
X149705042Y-100258850D01*
X149543760Y-100284395D01*
X149341585Y-100350086D01*
X149152179Y-100446593D01*
X148980213Y-100571532D01*
X148829892Y-100721853D01*
X148773097Y-100800027D01*
X148717767Y-100842693D01*
X148672779Y-100851142D01*
X148193494Y-100851142D01*
X148126455Y-100831457D01*
X148094228Y-100801453D01*
X148047551Y-100739102D01*
X148047548Y-100739099D01*
X148047546Y-100739096D01*
X148047542Y-100739093D01*
X147932335Y-100652848D01*
X147932328Y-100652844D01*
X147797482Y-100602550D01*
X147797483Y-100602550D01*
X147737883Y-100596143D01*
X147737881Y-100596142D01*
X147737873Y-100596142D01*
X147737864Y-100596142D01*
X145132129Y-100596142D01*
X145132123Y-100596143D01*
X145072516Y-100602550D01*
X144937671Y-100652844D01*
X144937664Y-100652848D01*
X144822455Y-100739094D01*
X144822452Y-100739097D01*
X144736206Y-100854306D01*
X144736202Y-100854313D01*
X144685908Y-100989159D01*
X144679501Y-101048758D01*
X144679501Y-101048765D01*
X144679500Y-101048777D01*
X144679500Y-102144512D01*
X144679501Y-102144518D01*
X144685908Y-102204125D01*
X144736202Y-102338970D01*
X144736206Y-102338977D01*
X144822452Y-102454186D01*
X144822455Y-102454189D01*
X144937664Y-102540435D01*
X144937671Y-102540439D01*
X145072517Y-102590733D01*
X145072516Y-102590733D01*
X145079444Y-102591477D01*
X145132127Y-102597142D01*
X147737872Y-102597141D01*
X147797483Y-102590733D01*
X147932331Y-102540438D01*
X148047546Y-102454188D01*
X148086740Y-102401832D01*
X148142674Y-102359960D01*
X148186007Y-102352142D01*
X148672779Y-102352142D01*
X148739818Y-102371827D01*
X148773097Y-102403257D01*
X148829892Y-102481430D01*
X148980213Y-102631751D01*
X149152182Y-102756692D01*
X149160946Y-102761158D01*
X149211742Y-102809133D01*
X149228536Y-102876954D01*
X149205998Y-102943089D01*
X149160946Y-102982126D01*
X149152182Y-102986591D01*
X148980213Y-103111532D01*
X148829892Y-103261853D01*
X148776731Y-103335026D01*
X148721401Y-103377693D01*
X148676412Y-103386142D01*
X144879751Y-103386142D01*
X144812712Y-103366457D01*
X144780485Y-103336454D01*
X144737548Y-103279099D01*
X144737546Y-103279096D01*
X144737542Y-103279093D01*
X144622335Y-103192848D01*
X144622328Y-103192844D01*
X144487482Y-103142550D01*
X144487483Y-103142550D01*
X144427883Y-103136143D01*
X144427881Y-103136142D01*
X144427873Y-103136142D01*
X144427864Y-103136142D01*
X141822129Y-103136142D01*
X141822123Y-103136143D01*
X141762516Y-103142550D01*
X141627671Y-103192844D01*
X141627664Y-103192848D01*
X141512455Y-103279094D01*
X141512452Y-103279097D01*
X141426206Y-103394306D01*
X141426202Y-103394313D01*
X141375908Y-103529159D01*
X141369501Y-103588758D01*
X141369501Y-103588765D01*
X141369500Y-103588777D01*
X141369500Y-104684512D01*
X141369501Y-104684518D01*
X141375908Y-104744125D01*
X141426202Y-104878970D01*
X141426206Y-104878977D01*
X141512452Y-104994186D01*
X141512455Y-104994189D01*
X141627664Y-105080435D01*
X141627671Y-105080439D01*
X141762517Y-105130733D01*
X141762516Y-105130733D01*
X141769444Y-105131477D01*
X141822127Y-105137142D01*
X144427872Y-105137141D01*
X144487483Y-105130733D01*
X144622331Y-105080438D01*
X144737546Y-104994188D01*
X144764227Y-104958545D01*
X144780485Y-104936830D01*
X144836419Y-104894960D01*
X144879751Y-104887142D01*
X148669147Y-104887142D01*
X148736186Y-104906827D01*
X148769464Y-104938256D01*
X148773098Y-104943257D01*
X148829892Y-105021430D01*
X148980213Y-105171751D01*
X149152182Y-105296692D01*
X149160946Y-105301158D01*
X149211742Y-105349133D01*
X149228536Y-105416954D01*
X149205998Y-105483089D01*
X149160946Y-105522126D01*
X149152182Y-105526591D01*
X148980213Y-105651532D01*
X148829892Y-105801853D01*
X148773097Y-105880027D01*
X148717767Y-105922693D01*
X148672779Y-105931142D01*
X148193494Y-105931142D01*
X148126455Y-105911457D01*
X148094228Y-105881453D01*
X148047551Y-105819102D01*
X148047548Y-105819099D01*
X148047546Y-105819096D01*
X148047542Y-105819093D01*
X147932335Y-105732848D01*
X147932328Y-105732844D01*
X147797482Y-105682550D01*
X147797483Y-105682550D01*
X147737883Y-105676143D01*
X147737881Y-105676142D01*
X147737873Y-105676142D01*
X147737864Y-105676142D01*
X145132129Y-105676142D01*
X145132123Y-105676143D01*
X145072516Y-105682550D01*
X144937671Y-105732844D01*
X144937664Y-105732848D01*
X144822455Y-105819094D01*
X144822452Y-105819097D01*
X144736206Y-105934306D01*
X144736202Y-105934313D01*
X144685908Y-106069159D01*
X144679501Y-106128758D01*
X144679501Y-106128765D01*
X144679500Y-106128777D01*
X144679500Y-107224512D01*
X144679501Y-107224518D01*
X144685908Y-107284125D01*
X144736202Y-107418970D01*
X144736206Y-107418977D01*
X144822452Y-107534186D01*
X144822455Y-107534189D01*
X144937664Y-107620435D01*
X144937671Y-107620439D01*
X145072517Y-107670733D01*
X145072516Y-107670733D01*
X145079444Y-107671477D01*
X145132127Y-107677142D01*
X147737872Y-107677141D01*
X147797483Y-107670733D01*
X147932331Y-107620438D01*
X148047546Y-107534188D01*
X148086740Y-107481832D01*
X148142674Y-107439960D01*
X148186007Y-107432142D01*
X148672779Y-107432142D01*
X148739818Y-107451827D01*
X148773097Y-107483257D01*
X148829892Y-107561430D01*
X148980213Y-107711751D01*
X149152182Y-107836692D01*
X149160946Y-107841158D01*
X149211742Y-107889133D01*
X149228536Y-107956954D01*
X149205998Y-108023089D01*
X149160946Y-108062126D01*
X149152182Y-108066591D01*
X148980213Y-108191532D01*
X148829892Y-108341853D01*
X148776731Y-108415026D01*
X148721401Y-108457693D01*
X148676412Y-108466142D01*
X144879751Y-108466142D01*
X144812712Y-108446457D01*
X144780485Y-108416454D01*
X144737548Y-108359099D01*
X144737546Y-108359096D01*
X144737542Y-108359093D01*
X144622335Y-108272848D01*
X144622328Y-108272844D01*
X144487482Y-108222550D01*
X144487483Y-108222550D01*
X144427883Y-108216143D01*
X144427881Y-108216142D01*
X144427873Y-108216142D01*
X144427864Y-108216142D01*
X141822129Y-108216142D01*
X141822123Y-108216143D01*
X141762516Y-108222550D01*
X141627671Y-108272844D01*
X141627664Y-108272848D01*
X141512455Y-108359094D01*
X141512452Y-108359097D01*
X141426206Y-108474306D01*
X141426202Y-108474313D01*
X141375908Y-108609159D01*
X141369501Y-108668758D01*
X141369501Y-108668765D01*
X141369500Y-108668777D01*
X141369500Y-109764512D01*
X141369501Y-109764518D01*
X141375908Y-109824125D01*
X141426202Y-109958970D01*
X141426206Y-109958977D01*
X141512452Y-110074186D01*
X141512455Y-110074189D01*
X141627664Y-110160435D01*
X141627671Y-110160439D01*
X141762517Y-110210733D01*
X141762516Y-110210733D01*
X141769444Y-110211477D01*
X141822127Y-110217142D01*
X144427872Y-110217141D01*
X144487483Y-110210733D01*
X144622331Y-110160438D01*
X144737546Y-110074188D01*
X144764227Y-110038545D01*
X144780485Y-110016830D01*
X144836419Y-109974960D01*
X144879751Y-109967142D01*
X148669147Y-109967142D01*
X148736186Y-109986827D01*
X148769464Y-110018256D01*
X148773098Y-110023257D01*
X148829892Y-110101430D01*
X148980213Y-110251751D01*
X149152182Y-110376692D01*
X149160946Y-110381158D01*
X149211742Y-110429133D01*
X149228536Y-110496954D01*
X149205998Y-110563089D01*
X149160946Y-110602126D01*
X149152182Y-110606591D01*
X148980213Y-110731532D01*
X148829892Y-110881853D01*
X148773097Y-110960027D01*
X148717767Y-111002693D01*
X148672779Y-111011142D01*
X148193494Y-111011142D01*
X148126455Y-110991457D01*
X148094228Y-110961453D01*
X148047551Y-110899102D01*
X148047548Y-110899099D01*
X148047546Y-110899096D01*
X148047542Y-110899093D01*
X147932335Y-110812848D01*
X147932328Y-110812844D01*
X147797482Y-110762550D01*
X147797483Y-110762550D01*
X147737883Y-110756143D01*
X147737881Y-110756142D01*
X147737873Y-110756142D01*
X147737864Y-110756142D01*
X145132129Y-110756142D01*
X145132123Y-110756143D01*
X145072516Y-110762550D01*
X144937671Y-110812844D01*
X144937664Y-110812848D01*
X144822455Y-110899094D01*
X144822452Y-110899097D01*
X144736206Y-111014306D01*
X144736202Y-111014313D01*
X144685908Y-111149159D01*
X144679501Y-111208758D01*
X144679501Y-111208765D01*
X144679500Y-111208777D01*
X144679500Y-112304512D01*
X144679501Y-112304518D01*
X144685908Y-112364125D01*
X144736202Y-112498970D01*
X144736206Y-112498977D01*
X144822452Y-112614186D01*
X144822455Y-112614189D01*
X144937664Y-112700435D01*
X144937671Y-112700439D01*
X145072517Y-112750733D01*
X145072516Y-112750733D01*
X145079444Y-112751477D01*
X145132127Y-112757142D01*
X147737872Y-112757141D01*
X147797483Y-112750733D01*
X147932331Y-112700438D01*
X148047546Y-112614188D01*
X148086740Y-112561832D01*
X148142674Y-112519960D01*
X148186007Y-112512142D01*
X148672779Y-112512142D01*
X148739818Y-112531827D01*
X148773097Y-112563257D01*
X148829892Y-112641430D01*
X148980213Y-112791751D01*
X149152182Y-112916692D01*
X149160946Y-112921158D01*
X149211742Y-112969133D01*
X149228536Y-113036954D01*
X149205998Y-113103089D01*
X149160946Y-113142126D01*
X149152182Y-113146591D01*
X148980213Y-113271532D01*
X148829892Y-113421853D01*
X148776731Y-113495026D01*
X148721401Y-113537693D01*
X148676412Y-113546142D01*
X144879751Y-113546142D01*
X144812712Y-113526457D01*
X144780485Y-113496454D01*
X144737548Y-113439099D01*
X144737546Y-113439096D01*
X144737542Y-113439093D01*
X144622335Y-113352848D01*
X144622328Y-113352844D01*
X144487482Y-113302550D01*
X144487483Y-113302550D01*
X144427883Y-113296143D01*
X144427881Y-113296142D01*
X144427873Y-113296142D01*
X144427864Y-113296142D01*
X141822129Y-113296142D01*
X141822123Y-113296143D01*
X141762516Y-113302550D01*
X141627671Y-113352844D01*
X141627664Y-113352848D01*
X141512455Y-113439094D01*
X141512452Y-113439097D01*
X141426206Y-113554306D01*
X141426202Y-113554313D01*
X141375908Y-113689159D01*
X141369501Y-113748758D01*
X141369501Y-113748765D01*
X141369500Y-113748777D01*
X141369500Y-114844512D01*
X141369501Y-114844518D01*
X141375908Y-114904125D01*
X141426202Y-115038970D01*
X141426206Y-115038977D01*
X141512452Y-115154186D01*
X141512455Y-115154189D01*
X141627664Y-115240435D01*
X141627671Y-115240439D01*
X141762517Y-115290733D01*
X141762516Y-115290733D01*
X141769444Y-115291477D01*
X141822127Y-115297142D01*
X144427872Y-115297141D01*
X144487483Y-115290733D01*
X144622331Y-115240438D01*
X144737546Y-115154188D01*
X144764227Y-115118545D01*
X144780485Y-115096830D01*
X144836419Y-115054960D01*
X144879751Y-115047142D01*
X148669147Y-115047142D01*
X148736186Y-115066827D01*
X148769464Y-115098256D01*
X148773098Y-115103257D01*
X148829892Y-115181430D01*
X148980213Y-115331751D01*
X149152182Y-115456692D01*
X149160946Y-115461158D01*
X149211742Y-115509133D01*
X149228536Y-115576954D01*
X149205998Y-115643089D01*
X149160946Y-115682126D01*
X149152182Y-115686591D01*
X148980213Y-115811532D01*
X148829892Y-115961853D01*
X148773097Y-116040027D01*
X148717767Y-116082693D01*
X148672779Y-116091142D01*
X148193494Y-116091142D01*
X148126455Y-116071457D01*
X148094228Y-116041453D01*
X148047551Y-115979102D01*
X148047548Y-115979099D01*
X148047546Y-115979096D01*
X148047542Y-115979093D01*
X147932335Y-115892848D01*
X147932328Y-115892844D01*
X147797482Y-115842550D01*
X147797483Y-115842550D01*
X147737883Y-115836143D01*
X147737881Y-115836142D01*
X147737873Y-115836142D01*
X147737864Y-115836142D01*
X145132129Y-115836142D01*
X145132123Y-115836143D01*
X145072516Y-115842550D01*
X144937671Y-115892844D01*
X144937664Y-115892848D01*
X144822455Y-115979094D01*
X144822452Y-115979097D01*
X144736206Y-116094306D01*
X144736202Y-116094313D01*
X144685908Y-116229159D01*
X144679501Y-116288758D01*
X144679501Y-116288765D01*
X144679500Y-116288777D01*
X144679500Y-117384512D01*
X144679501Y-117384518D01*
X144685908Y-117444125D01*
X144736202Y-117578970D01*
X144736206Y-117578977D01*
X144822452Y-117694186D01*
X144822455Y-117694189D01*
X144937664Y-117780435D01*
X144937671Y-117780439D01*
X145072517Y-117830733D01*
X145072516Y-117830733D01*
X145079444Y-117831477D01*
X145132127Y-117837142D01*
X147737872Y-117837141D01*
X147797483Y-117830733D01*
X147932331Y-117780438D01*
X148047546Y-117694188D01*
X148086740Y-117641832D01*
X148142674Y-117599960D01*
X148186007Y-117592142D01*
X148672779Y-117592142D01*
X148739818Y-117611827D01*
X148773097Y-117643257D01*
X148829892Y-117721430D01*
X148980213Y-117871751D01*
X149152182Y-117996692D01*
X149160946Y-118001158D01*
X149211742Y-118049133D01*
X149228536Y-118116954D01*
X149205998Y-118183089D01*
X149160946Y-118222126D01*
X149152182Y-118226591D01*
X148980213Y-118351532D01*
X148829892Y-118501853D01*
X148776731Y-118575026D01*
X148721401Y-118617693D01*
X148676412Y-118626142D01*
X144879751Y-118626142D01*
X144812712Y-118606457D01*
X144780485Y-118576454D01*
X144737548Y-118519099D01*
X144737546Y-118519096D01*
X144737542Y-118519093D01*
X144622335Y-118432848D01*
X144622328Y-118432844D01*
X144487482Y-118382550D01*
X144487483Y-118382550D01*
X144427883Y-118376143D01*
X144427881Y-118376142D01*
X144427873Y-118376142D01*
X144427864Y-118376142D01*
X141822129Y-118376142D01*
X141822123Y-118376143D01*
X141762516Y-118382550D01*
X141627671Y-118432844D01*
X141627664Y-118432848D01*
X141512455Y-118519094D01*
X141512452Y-118519097D01*
X141426206Y-118634306D01*
X141426202Y-118634313D01*
X141375908Y-118769159D01*
X141369501Y-118828758D01*
X141369501Y-118828765D01*
X141369500Y-118828777D01*
X141369500Y-119924512D01*
X141369501Y-119924518D01*
X141375908Y-119984125D01*
X141426202Y-120118970D01*
X141426206Y-120118977D01*
X141512452Y-120234186D01*
X141512455Y-120234189D01*
X141627664Y-120320435D01*
X141627671Y-120320439D01*
X141762517Y-120370733D01*
X141762516Y-120370733D01*
X141769444Y-120371477D01*
X141822127Y-120377142D01*
X144427872Y-120377141D01*
X144487483Y-120370733D01*
X144622331Y-120320438D01*
X144737546Y-120234188D01*
X144764227Y-120198545D01*
X144780485Y-120176830D01*
X144836419Y-120134960D01*
X144879751Y-120127142D01*
X148669147Y-120127142D01*
X148736186Y-120146827D01*
X148769464Y-120178256D01*
X148773098Y-120183257D01*
X148829892Y-120261430D01*
X148980213Y-120411751D01*
X149152182Y-120536692D01*
X149160946Y-120541158D01*
X149211742Y-120589133D01*
X149228536Y-120656954D01*
X149205998Y-120723089D01*
X149160946Y-120762126D01*
X149152182Y-120766591D01*
X148980213Y-120891532D01*
X148829892Y-121041853D01*
X148773097Y-121120027D01*
X148717767Y-121162693D01*
X148672779Y-121171142D01*
X148193494Y-121171142D01*
X148126455Y-121151457D01*
X148094228Y-121121453D01*
X148047551Y-121059102D01*
X148047548Y-121059099D01*
X148047546Y-121059096D01*
X148047542Y-121059093D01*
X147932335Y-120972848D01*
X147932328Y-120972844D01*
X147797482Y-120922550D01*
X147797483Y-120922550D01*
X147737883Y-120916143D01*
X147737881Y-120916142D01*
X147737873Y-120916142D01*
X147737864Y-120916142D01*
X145132129Y-120916142D01*
X145132123Y-120916143D01*
X145072516Y-120922550D01*
X144937671Y-120972844D01*
X144937664Y-120972848D01*
X144822455Y-121059094D01*
X144822452Y-121059097D01*
X144736206Y-121174306D01*
X144736202Y-121174313D01*
X144685908Y-121309159D01*
X144679501Y-121368758D01*
X144679501Y-121368765D01*
X144679500Y-121368777D01*
X144679500Y-122464512D01*
X144679501Y-122464518D01*
X144685908Y-122524125D01*
X144736202Y-122658970D01*
X144736206Y-122658977D01*
X144822452Y-122774186D01*
X144822455Y-122774189D01*
X144937664Y-122860435D01*
X144937671Y-122860439D01*
X145072517Y-122910733D01*
X145072516Y-122910733D01*
X145079444Y-122911477D01*
X145132127Y-122917142D01*
X147737872Y-122917141D01*
X147797483Y-122910733D01*
X147932331Y-122860438D01*
X148047546Y-122774188D01*
X148086740Y-122721832D01*
X148142674Y-122679960D01*
X148186007Y-122672142D01*
X148672779Y-122672142D01*
X148739818Y-122691827D01*
X148773097Y-122723257D01*
X148829892Y-122801430D01*
X148980213Y-122951751D01*
X149152182Y-123076692D01*
X149160946Y-123081158D01*
X149211742Y-123129133D01*
X149228536Y-123196954D01*
X149205998Y-123263089D01*
X149160946Y-123302126D01*
X149152182Y-123306591D01*
X148980213Y-123431532D01*
X148829892Y-123581853D01*
X148776731Y-123655026D01*
X148721401Y-123697693D01*
X148676412Y-123706142D01*
X144879751Y-123706142D01*
X144812712Y-123686457D01*
X144780485Y-123656454D01*
X144737548Y-123599099D01*
X144737546Y-123599096D01*
X144737542Y-123599093D01*
X144622335Y-123512848D01*
X144622328Y-123512844D01*
X144487482Y-123462550D01*
X144487483Y-123462550D01*
X144427883Y-123456143D01*
X144427881Y-123456142D01*
X144427873Y-123456142D01*
X144427864Y-123456142D01*
X141822129Y-123456142D01*
X141822123Y-123456143D01*
X141762516Y-123462550D01*
X141627671Y-123512844D01*
X141627664Y-123512848D01*
X141512455Y-123599094D01*
X141512452Y-123599097D01*
X141426206Y-123714306D01*
X141426202Y-123714313D01*
X141375908Y-123849159D01*
X141369501Y-123908758D01*
X141369501Y-123908765D01*
X141369500Y-123908777D01*
X141369500Y-125004512D01*
X141369501Y-125004518D01*
X141375908Y-125064125D01*
X141426202Y-125198970D01*
X141426206Y-125198977D01*
X141512452Y-125314186D01*
X141512455Y-125314189D01*
X141627664Y-125400435D01*
X141627671Y-125400439D01*
X141762517Y-125450733D01*
X141762516Y-125450733D01*
X141769444Y-125451477D01*
X141822127Y-125457142D01*
X144427872Y-125457141D01*
X144487483Y-125450733D01*
X144622331Y-125400438D01*
X144737546Y-125314188D01*
X144764227Y-125278545D01*
X144780485Y-125256830D01*
X144836419Y-125214960D01*
X144879751Y-125207142D01*
X148669147Y-125207142D01*
X148736186Y-125226827D01*
X148769464Y-125258256D01*
X148773098Y-125263257D01*
X148829892Y-125341430D01*
X148980213Y-125491751D01*
X149152182Y-125616692D01*
X149160946Y-125621158D01*
X149211742Y-125669133D01*
X149228536Y-125736954D01*
X149205998Y-125803089D01*
X149160946Y-125842126D01*
X149152182Y-125846591D01*
X148980213Y-125971532D01*
X148829892Y-126121853D01*
X148773097Y-126200027D01*
X148717767Y-126242693D01*
X148672779Y-126251142D01*
X148193494Y-126251142D01*
X148126455Y-126231457D01*
X148094228Y-126201453D01*
X148047551Y-126139102D01*
X148047548Y-126139099D01*
X148047546Y-126139096D01*
X148047542Y-126139093D01*
X147932335Y-126052848D01*
X147932328Y-126052844D01*
X147797482Y-126002550D01*
X147797483Y-126002550D01*
X147737883Y-125996143D01*
X147737881Y-125996142D01*
X147737873Y-125996142D01*
X147737864Y-125996142D01*
X145132129Y-125996142D01*
X145132123Y-125996143D01*
X145072516Y-126002550D01*
X144937671Y-126052844D01*
X144937664Y-126052848D01*
X144822455Y-126139094D01*
X144822452Y-126139097D01*
X144736206Y-126254306D01*
X144736202Y-126254313D01*
X144685908Y-126389159D01*
X144679501Y-126448758D01*
X144679501Y-126448765D01*
X144679500Y-126448777D01*
X144679500Y-127544512D01*
X144679501Y-127544518D01*
X144685908Y-127604125D01*
X144736202Y-127738970D01*
X144736206Y-127738977D01*
X144822452Y-127854186D01*
X144822455Y-127854189D01*
X144937664Y-127940435D01*
X144937671Y-127940439D01*
X145072517Y-127990733D01*
X145072516Y-127990733D01*
X145079444Y-127991477D01*
X145132127Y-127997142D01*
X147737872Y-127997141D01*
X147797483Y-127990733D01*
X147932331Y-127940438D01*
X148047546Y-127854188D01*
X148086740Y-127801832D01*
X148142674Y-127759960D01*
X148186007Y-127752142D01*
X148672779Y-127752142D01*
X148739818Y-127771827D01*
X148773097Y-127803257D01*
X148829892Y-127881430D01*
X148980213Y-128031751D01*
X149152182Y-128156692D01*
X149160946Y-128161158D01*
X149211742Y-128209133D01*
X149228536Y-128276954D01*
X149205998Y-128343089D01*
X149160946Y-128382126D01*
X149152182Y-128386591D01*
X148980213Y-128511532D01*
X148829892Y-128661853D01*
X148776731Y-128735026D01*
X148721401Y-128777693D01*
X148676412Y-128786142D01*
X144879751Y-128786142D01*
X144812712Y-128766457D01*
X144780485Y-128736454D01*
X144737548Y-128679099D01*
X144737546Y-128679096D01*
X144737542Y-128679093D01*
X144622335Y-128592848D01*
X144622328Y-128592844D01*
X144487482Y-128542550D01*
X144487483Y-128542550D01*
X144427883Y-128536143D01*
X144427881Y-128536142D01*
X144427873Y-128536142D01*
X144427864Y-128536142D01*
X141822129Y-128536142D01*
X141822123Y-128536143D01*
X141762516Y-128542550D01*
X141627671Y-128592844D01*
X141627664Y-128592848D01*
X141512455Y-128679094D01*
X141512452Y-128679097D01*
X141426206Y-128794306D01*
X141426202Y-128794313D01*
X141375908Y-128929159D01*
X141369501Y-128988758D01*
X141369501Y-128988765D01*
X141369500Y-128988777D01*
X141369500Y-130084512D01*
X141369501Y-130084518D01*
X141375908Y-130144125D01*
X141426202Y-130278970D01*
X141426206Y-130278977D01*
X141512452Y-130394186D01*
X141512455Y-130394189D01*
X141627664Y-130480435D01*
X141627671Y-130480439D01*
X141762517Y-130530733D01*
X141762516Y-130530733D01*
X141769444Y-130531477D01*
X141822127Y-130537142D01*
X144427872Y-130537141D01*
X144487483Y-130530733D01*
X144622331Y-130480438D01*
X144737546Y-130394188D01*
X144764227Y-130358545D01*
X144780485Y-130336830D01*
X144836419Y-130294960D01*
X144879751Y-130287142D01*
X148669147Y-130287142D01*
X148736186Y-130306827D01*
X148769464Y-130338256D01*
X148773098Y-130343257D01*
X148829892Y-130421430D01*
X148980213Y-130571751D01*
X149152182Y-130696692D01*
X149160946Y-130701158D01*
X149211742Y-130749133D01*
X149228536Y-130816954D01*
X149205998Y-130883089D01*
X149160946Y-130922126D01*
X149152182Y-130926591D01*
X148980213Y-131051532D01*
X148829892Y-131201853D01*
X148773097Y-131280027D01*
X148717767Y-131322693D01*
X148672779Y-131331142D01*
X148193494Y-131331142D01*
X148126455Y-131311457D01*
X148094228Y-131281453D01*
X148047551Y-131219102D01*
X148047548Y-131219099D01*
X148047546Y-131219096D01*
X148047542Y-131219093D01*
X147932335Y-131132848D01*
X147932328Y-131132844D01*
X147797482Y-131082550D01*
X147797483Y-131082550D01*
X147737883Y-131076143D01*
X147737881Y-131076142D01*
X147737873Y-131076142D01*
X147737864Y-131076142D01*
X145132129Y-131076142D01*
X145132123Y-131076143D01*
X145072516Y-131082550D01*
X144937671Y-131132844D01*
X144937664Y-131132848D01*
X144822455Y-131219094D01*
X144822452Y-131219097D01*
X144736206Y-131334306D01*
X144736202Y-131334313D01*
X144685908Y-131469159D01*
X144679501Y-131528758D01*
X144679501Y-131528765D01*
X144679500Y-131528777D01*
X144679500Y-132624512D01*
X144679501Y-132624518D01*
X144685908Y-132684125D01*
X144736202Y-132818970D01*
X144736206Y-132818977D01*
X144822452Y-132934186D01*
X144822455Y-132934189D01*
X144937664Y-133020435D01*
X144937671Y-133020439D01*
X145072517Y-133070733D01*
X145072516Y-133070733D01*
X145079444Y-133071477D01*
X145132127Y-133077142D01*
X147737872Y-133077141D01*
X147797483Y-133070733D01*
X147932331Y-133020438D01*
X148047546Y-132934188D01*
X148086740Y-132881832D01*
X148142674Y-132839960D01*
X148186007Y-132832142D01*
X148672779Y-132832142D01*
X148739818Y-132851827D01*
X148773097Y-132883257D01*
X148829892Y-132961430D01*
X148980213Y-133111751D01*
X149152182Y-133236692D01*
X149160946Y-133241158D01*
X149211742Y-133289133D01*
X149228536Y-133356954D01*
X149205998Y-133423089D01*
X149160946Y-133462126D01*
X149152182Y-133466591D01*
X148980213Y-133591532D01*
X148829892Y-133741853D01*
X148776731Y-133815026D01*
X148721401Y-133857693D01*
X148676412Y-133866142D01*
X144879751Y-133866142D01*
X144812712Y-133846457D01*
X144780485Y-133816454D01*
X144737548Y-133759099D01*
X144737546Y-133759096D01*
X144737542Y-133759093D01*
X144622335Y-133672848D01*
X144622328Y-133672844D01*
X144487482Y-133622550D01*
X144487483Y-133622550D01*
X144427883Y-133616143D01*
X144427881Y-133616142D01*
X144427873Y-133616142D01*
X144427864Y-133616142D01*
X141822129Y-133616142D01*
X141822123Y-133616143D01*
X141762516Y-133622550D01*
X141627671Y-133672844D01*
X141627664Y-133672848D01*
X141512455Y-133759094D01*
X141512452Y-133759097D01*
X141426206Y-133874306D01*
X141426202Y-133874313D01*
X141375908Y-134009159D01*
X141369501Y-134068758D01*
X141369501Y-134068765D01*
X141369500Y-134068777D01*
X141369500Y-135164512D01*
X141369501Y-135164518D01*
X141375908Y-135224125D01*
X141426202Y-135358970D01*
X141426206Y-135358977D01*
X141512452Y-135474186D01*
X141512455Y-135474189D01*
X141627664Y-135560435D01*
X141627671Y-135560439D01*
X141762517Y-135610733D01*
X141762516Y-135610733D01*
X141769444Y-135611477D01*
X141822127Y-135617142D01*
X144427872Y-135617141D01*
X144487483Y-135610733D01*
X144622331Y-135560438D01*
X144737546Y-135474188D01*
X144764227Y-135438545D01*
X144780485Y-135416830D01*
X144836419Y-135374960D01*
X144879751Y-135367142D01*
X148669147Y-135367142D01*
X148736186Y-135386827D01*
X148769464Y-135418256D01*
X148773098Y-135423257D01*
X148829892Y-135501430D01*
X148980213Y-135651751D01*
X149152182Y-135776692D01*
X149160946Y-135781158D01*
X149211742Y-135829133D01*
X149228536Y-135896954D01*
X149205998Y-135963089D01*
X149160946Y-136002126D01*
X149152182Y-136006591D01*
X148980213Y-136131532D01*
X148829892Y-136281853D01*
X148773097Y-136360027D01*
X148717767Y-136402693D01*
X148672779Y-136411142D01*
X148193494Y-136411142D01*
X148126455Y-136391457D01*
X148094228Y-136361453D01*
X148047551Y-136299102D01*
X148047548Y-136299099D01*
X148047546Y-136299096D01*
X148047542Y-136299093D01*
X147932335Y-136212848D01*
X147932328Y-136212844D01*
X147797482Y-136162550D01*
X147797483Y-136162550D01*
X147737883Y-136156143D01*
X147737881Y-136156142D01*
X147737873Y-136156142D01*
X147737864Y-136156142D01*
X145132129Y-136156142D01*
X145132123Y-136156143D01*
X145072516Y-136162550D01*
X144937671Y-136212844D01*
X144937664Y-136212848D01*
X144822455Y-136299094D01*
X144822452Y-136299097D01*
X144736206Y-136414306D01*
X144736202Y-136414313D01*
X144685908Y-136549159D01*
X144679501Y-136608758D01*
X144679501Y-136608765D01*
X144679500Y-136608777D01*
X144679500Y-137704512D01*
X144679501Y-137704518D01*
X144685908Y-137764125D01*
X144736202Y-137898970D01*
X144736206Y-137898977D01*
X144822452Y-138014186D01*
X144822455Y-138014189D01*
X144937664Y-138100435D01*
X144937671Y-138100439D01*
X145072517Y-138150733D01*
X145072516Y-138150733D01*
X145079444Y-138151477D01*
X145132127Y-138157142D01*
X147737872Y-138157141D01*
X147797483Y-138150733D01*
X147932331Y-138100438D01*
X148047546Y-138014188D01*
X148086740Y-137961832D01*
X148142674Y-137919960D01*
X148186007Y-137912142D01*
X148672779Y-137912142D01*
X148739818Y-137931827D01*
X148773097Y-137963257D01*
X148829892Y-138041430D01*
X148980213Y-138191751D01*
X149152182Y-138316692D01*
X149160946Y-138321158D01*
X149211742Y-138369133D01*
X149228536Y-138436954D01*
X149205998Y-138503089D01*
X149160946Y-138542126D01*
X149152182Y-138546591D01*
X148980213Y-138671532D01*
X148829892Y-138821853D01*
X148776731Y-138895026D01*
X148721401Y-138937693D01*
X148676412Y-138946142D01*
X144879751Y-138946142D01*
X144812712Y-138926457D01*
X144780485Y-138896454D01*
X144737548Y-138839099D01*
X144737546Y-138839096D01*
X144737542Y-138839093D01*
X144622335Y-138752848D01*
X144622328Y-138752844D01*
X144487482Y-138702550D01*
X144487483Y-138702550D01*
X144427883Y-138696143D01*
X144427881Y-138696142D01*
X144427873Y-138696142D01*
X144427864Y-138696142D01*
X141822129Y-138696142D01*
X141822123Y-138696143D01*
X141762516Y-138702550D01*
X141627671Y-138752844D01*
X141627664Y-138752848D01*
X141512455Y-138839094D01*
X141512452Y-138839097D01*
X141426206Y-138954306D01*
X141426202Y-138954313D01*
X141375908Y-139089159D01*
X141369501Y-139148758D01*
X141369501Y-139148765D01*
X141369500Y-139148777D01*
X141369500Y-140244512D01*
X141369501Y-140244518D01*
X141375908Y-140304125D01*
X141426202Y-140438970D01*
X141426206Y-140438977D01*
X141512452Y-140554186D01*
X141512455Y-140554189D01*
X141627664Y-140640435D01*
X141627671Y-140640439D01*
X141762517Y-140690733D01*
X141762516Y-140690733D01*
X141769444Y-140691477D01*
X141822127Y-140697142D01*
X144427872Y-140697141D01*
X144487483Y-140690733D01*
X144622331Y-140640438D01*
X144737546Y-140554188D01*
X144764227Y-140518545D01*
X144780485Y-140496830D01*
X144836419Y-140454960D01*
X144879751Y-140447142D01*
X148669147Y-140447142D01*
X148736186Y-140466827D01*
X148769464Y-140498256D01*
X148773098Y-140503257D01*
X148829892Y-140581430D01*
X148980213Y-140731751D01*
X149152179Y-140856690D01*
X149152181Y-140856691D01*
X149152184Y-140856693D01*
X149341588Y-140953199D01*
X149543757Y-141018888D01*
X149753713Y-141052142D01*
X149753714Y-141052142D01*
X149966286Y-141052142D01*
X149966287Y-141052142D01*
X150176243Y-141018888D01*
X150378412Y-140953199D01*
X150449205Y-140917127D01*
X150517874Y-140904232D01*
X150582614Y-140930508D01*
X150622872Y-140987614D01*
X150629500Y-141027613D01*
X150629500Y-142885500D01*
X150609815Y-142952539D01*
X150557011Y-142998294D01*
X150505500Y-143009500D01*
X126354500Y-143009500D01*
X126287461Y-142989815D01*
X126241706Y-142937011D01*
X126230500Y-142885500D01*
X126230500Y-141027613D01*
X126250185Y-140960574D01*
X126302989Y-140914819D01*
X126372147Y-140904875D01*
X126410793Y-140917127D01*
X126481588Y-140953199D01*
X126683757Y-141018888D01*
X126893713Y-141052142D01*
X126893714Y-141052142D01*
X127106286Y-141052142D01*
X127106287Y-141052142D01*
X127316243Y-141018888D01*
X127518412Y-140953199D01*
X127707816Y-140856693D01*
X127729789Y-140840728D01*
X127879786Y-140731751D01*
X127879788Y-140731748D01*
X127879792Y-140731746D01*
X128030104Y-140581434D01*
X128049898Y-140554190D01*
X128086903Y-140503257D01*
X128142233Y-140460591D01*
X128187221Y-140452142D01*
X131983993Y-140452142D01*
X132051032Y-140471827D01*
X132083260Y-140501832D01*
X132122449Y-140554183D01*
X132122452Y-140554186D01*
X132122454Y-140554188D01*
X132122457Y-140554190D01*
X132237664Y-140640435D01*
X132237671Y-140640439D01*
X132372517Y-140690733D01*
X132372516Y-140690733D01*
X132379444Y-140691477D01*
X132432127Y-140697142D01*
X135037872Y-140697141D01*
X135097483Y-140690733D01*
X135232331Y-140640438D01*
X135347546Y-140554188D01*
X135433796Y-140438973D01*
X135484091Y-140304125D01*
X135490500Y-140244515D01*
X135490499Y-139148770D01*
X135484091Y-139089159D01*
X135433796Y-138954311D01*
X135433795Y-138954310D01*
X135433793Y-138954306D01*
X135347547Y-138839097D01*
X135347544Y-138839094D01*
X135232335Y-138752848D01*
X135232328Y-138752844D01*
X135097482Y-138702550D01*
X135097483Y-138702550D01*
X135037883Y-138696143D01*
X135037881Y-138696142D01*
X135037873Y-138696142D01*
X135037864Y-138696142D01*
X132432129Y-138696142D01*
X132432123Y-138696143D01*
X132372516Y-138702550D01*
X132237671Y-138752844D01*
X132237664Y-138752848D01*
X132122457Y-138839093D01*
X132122448Y-138839102D01*
X132075772Y-138901453D01*
X132019838Y-138943324D01*
X131976506Y-138951142D01*
X128187221Y-138951142D01*
X128120182Y-138931457D01*
X128086903Y-138900027D01*
X128030107Y-138821853D01*
X127879786Y-138671532D01*
X127707820Y-138546593D01*
X127707115Y-138546233D01*
X127699054Y-138542127D01*
X127648259Y-138494154D01*
X127631463Y-138426334D01*
X127653999Y-138360198D01*
X127699054Y-138321157D01*
X127707816Y-138316693D01*
X127729789Y-138300728D01*
X127879786Y-138191751D01*
X127879788Y-138191748D01*
X127879792Y-138191746D01*
X128030104Y-138041434D01*
X128090534Y-137958257D01*
X128145863Y-137915591D01*
X128190853Y-137907142D01*
X128670249Y-137907142D01*
X128737288Y-137926827D01*
X128769515Y-137956830D01*
X128812450Y-138014183D01*
X128812454Y-138014188D01*
X128812457Y-138014190D01*
X128927664Y-138100435D01*
X128927671Y-138100439D01*
X129062517Y-138150733D01*
X129062516Y-138150733D01*
X129069444Y-138151477D01*
X129122127Y-138157142D01*
X131727872Y-138157141D01*
X131787483Y-138150733D01*
X131922331Y-138100438D01*
X132037546Y-138014188D01*
X132123796Y-137898973D01*
X132174091Y-137764125D01*
X132180500Y-137704515D01*
X132180499Y-136608770D01*
X132174091Y-136549159D01*
X132123796Y-136414311D01*
X132123795Y-136414310D01*
X132123793Y-136414306D01*
X132037547Y-136299097D01*
X132037544Y-136299094D01*
X131922335Y-136212848D01*
X131922328Y-136212844D01*
X131787482Y-136162550D01*
X131787483Y-136162550D01*
X131727883Y-136156143D01*
X131727881Y-136156142D01*
X131727873Y-136156142D01*
X131727864Y-136156142D01*
X129122129Y-136156142D01*
X129122123Y-136156143D01*
X129062516Y-136162550D01*
X128927671Y-136212844D01*
X128927664Y-136212848D01*
X128812457Y-136299093D01*
X128812451Y-136299099D01*
X128769515Y-136356454D01*
X128713581Y-136398324D01*
X128670249Y-136406142D01*
X128183588Y-136406142D01*
X128116549Y-136386457D01*
X128083269Y-136355026D01*
X128030107Y-136281853D01*
X127879786Y-136131532D01*
X127707820Y-136006593D01*
X127707115Y-136006233D01*
X127699054Y-136002127D01*
X127648259Y-135954154D01*
X127631463Y-135886334D01*
X127653999Y-135820198D01*
X127699054Y-135781157D01*
X127707816Y-135776693D01*
X127729789Y-135760728D01*
X127879786Y-135651751D01*
X127879788Y-135651748D01*
X127879792Y-135651746D01*
X128030104Y-135501434D01*
X128049898Y-135474190D01*
X128086903Y-135423257D01*
X128142233Y-135380591D01*
X128187221Y-135372142D01*
X131983993Y-135372142D01*
X132051032Y-135391827D01*
X132083260Y-135421832D01*
X132122449Y-135474183D01*
X132122452Y-135474186D01*
X132122454Y-135474188D01*
X132122457Y-135474190D01*
X132237664Y-135560435D01*
X132237671Y-135560439D01*
X132372517Y-135610733D01*
X132372516Y-135610733D01*
X132379444Y-135611477D01*
X132432127Y-135617142D01*
X135037872Y-135617141D01*
X135097483Y-135610733D01*
X135232331Y-135560438D01*
X135347546Y-135474188D01*
X135433796Y-135358973D01*
X135484091Y-135224125D01*
X135490500Y-135164515D01*
X135490499Y-134068770D01*
X135484091Y-134009159D01*
X135433796Y-133874311D01*
X135433795Y-133874310D01*
X135433793Y-133874306D01*
X135347547Y-133759097D01*
X135347544Y-133759094D01*
X135232335Y-133672848D01*
X135232328Y-133672844D01*
X135097482Y-133622550D01*
X135097483Y-133622550D01*
X135037883Y-133616143D01*
X135037881Y-133616142D01*
X135037873Y-133616142D01*
X135037864Y-133616142D01*
X132432129Y-133616142D01*
X132432123Y-133616143D01*
X132372516Y-133622550D01*
X132237671Y-133672844D01*
X132237664Y-133672848D01*
X132122457Y-133759093D01*
X132122448Y-133759102D01*
X132075772Y-133821453D01*
X132019838Y-133863324D01*
X131976506Y-133871142D01*
X128187221Y-133871142D01*
X128120182Y-133851457D01*
X128086903Y-133820027D01*
X128030107Y-133741853D01*
X127879786Y-133591532D01*
X127707820Y-133466593D01*
X127707115Y-133466233D01*
X127699054Y-133462127D01*
X127648259Y-133414154D01*
X127631463Y-133346334D01*
X127653999Y-133280198D01*
X127699054Y-133241157D01*
X127707816Y-133236693D01*
X127729789Y-133220728D01*
X127879786Y-133111751D01*
X127879788Y-133111748D01*
X127879792Y-133111746D01*
X128030104Y-132961434D01*
X128090534Y-132878257D01*
X128145863Y-132835591D01*
X128190853Y-132827142D01*
X128670249Y-132827142D01*
X128737288Y-132846827D01*
X128769515Y-132876830D01*
X128812450Y-132934183D01*
X128812454Y-132934188D01*
X128812457Y-132934190D01*
X128927664Y-133020435D01*
X128927671Y-133020439D01*
X129062517Y-133070733D01*
X129062516Y-133070733D01*
X129069444Y-133071477D01*
X129122127Y-133077142D01*
X131727872Y-133077141D01*
X131787483Y-133070733D01*
X131922331Y-133020438D01*
X132037546Y-132934188D01*
X132123796Y-132818973D01*
X132174091Y-132684125D01*
X132180500Y-132624515D01*
X132180499Y-131528770D01*
X132174091Y-131469159D01*
X132123796Y-131334311D01*
X132123795Y-131334310D01*
X132123793Y-131334306D01*
X132037547Y-131219097D01*
X132037544Y-131219094D01*
X131922335Y-131132848D01*
X131922328Y-131132844D01*
X131787482Y-131082550D01*
X131787483Y-131082550D01*
X131727883Y-131076143D01*
X131727881Y-131076142D01*
X131727873Y-131076142D01*
X131727864Y-131076142D01*
X129122129Y-131076142D01*
X129122123Y-131076143D01*
X129062516Y-131082550D01*
X128927671Y-131132844D01*
X128927664Y-131132848D01*
X128812457Y-131219093D01*
X128812451Y-131219099D01*
X128769515Y-131276454D01*
X128713581Y-131318324D01*
X128670249Y-131326142D01*
X128183588Y-131326142D01*
X128116549Y-131306457D01*
X128083269Y-131275026D01*
X128030107Y-131201853D01*
X127879786Y-131051532D01*
X127707820Y-130926593D01*
X127707115Y-130926233D01*
X127699054Y-130922127D01*
X127648259Y-130874154D01*
X127631463Y-130806334D01*
X127653999Y-130740198D01*
X127699054Y-130701157D01*
X127707816Y-130696693D01*
X127729789Y-130680728D01*
X127879786Y-130571751D01*
X127879788Y-130571748D01*
X127879792Y-130571746D01*
X128030104Y-130421434D01*
X128049898Y-130394190D01*
X128086903Y-130343257D01*
X128142233Y-130300591D01*
X128187221Y-130292142D01*
X131983993Y-130292142D01*
X132051032Y-130311827D01*
X132083260Y-130341832D01*
X132122449Y-130394183D01*
X132122452Y-130394186D01*
X132122454Y-130394188D01*
X132122457Y-130394190D01*
X132237664Y-130480435D01*
X132237671Y-130480439D01*
X132372517Y-130530733D01*
X132372516Y-130530733D01*
X132379444Y-130531477D01*
X132432127Y-130537142D01*
X135037872Y-130537141D01*
X135097483Y-130530733D01*
X135232331Y-130480438D01*
X135347546Y-130394188D01*
X135433796Y-130278973D01*
X135484091Y-130144125D01*
X135490500Y-130084515D01*
X135490499Y-128988770D01*
X135484091Y-128929159D01*
X135433796Y-128794311D01*
X135433795Y-128794310D01*
X135433793Y-128794306D01*
X135347547Y-128679097D01*
X135347544Y-128679094D01*
X135232335Y-128592848D01*
X135232328Y-128592844D01*
X135097482Y-128542550D01*
X135097483Y-128542550D01*
X135037883Y-128536143D01*
X135037881Y-128536142D01*
X135037873Y-128536142D01*
X135037864Y-128536142D01*
X132432129Y-128536142D01*
X132432123Y-128536143D01*
X132372516Y-128542550D01*
X132237671Y-128592844D01*
X132237664Y-128592848D01*
X132122457Y-128679093D01*
X132122448Y-128679102D01*
X132075772Y-128741453D01*
X132019838Y-128783324D01*
X131976506Y-128791142D01*
X128187221Y-128791142D01*
X128120182Y-128771457D01*
X128086903Y-128740027D01*
X128030107Y-128661853D01*
X127879786Y-128511532D01*
X127707820Y-128386593D01*
X127707115Y-128386233D01*
X127699054Y-128382127D01*
X127648259Y-128334154D01*
X127631463Y-128266334D01*
X127653999Y-128200198D01*
X127699054Y-128161157D01*
X127707816Y-128156693D01*
X127729789Y-128140728D01*
X127879786Y-128031751D01*
X127879788Y-128031748D01*
X127879792Y-128031746D01*
X128030104Y-127881434D01*
X128090534Y-127798257D01*
X128145863Y-127755591D01*
X128190853Y-127747142D01*
X128670249Y-127747142D01*
X128737288Y-127766827D01*
X128769515Y-127796830D01*
X128812450Y-127854183D01*
X128812454Y-127854188D01*
X128812457Y-127854190D01*
X128927664Y-127940435D01*
X128927671Y-127940439D01*
X129062517Y-127990733D01*
X129062516Y-127990733D01*
X129069444Y-127991477D01*
X129122127Y-127997142D01*
X131727872Y-127997141D01*
X131787483Y-127990733D01*
X131922331Y-127940438D01*
X132037546Y-127854188D01*
X132123796Y-127738973D01*
X132174091Y-127604125D01*
X132180500Y-127544515D01*
X132180499Y-126448770D01*
X132174091Y-126389159D01*
X132123796Y-126254311D01*
X132123795Y-126254310D01*
X132123793Y-126254306D01*
X132037547Y-126139097D01*
X132037544Y-126139094D01*
X131922335Y-126052848D01*
X131922328Y-126052844D01*
X131787482Y-126002550D01*
X131787483Y-126002550D01*
X131727883Y-125996143D01*
X131727881Y-125996142D01*
X131727873Y-125996142D01*
X131727864Y-125996142D01*
X129122129Y-125996142D01*
X129122123Y-125996143D01*
X129062516Y-126002550D01*
X128927671Y-126052844D01*
X128927664Y-126052848D01*
X128812457Y-126139093D01*
X128812451Y-126139099D01*
X128769515Y-126196454D01*
X128713581Y-126238324D01*
X128670249Y-126246142D01*
X128183588Y-126246142D01*
X128116549Y-126226457D01*
X128083269Y-126195026D01*
X128030107Y-126121853D01*
X127879786Y-125971532D01*
X127707820Y-125846593D01*
X127707115Y-125846233D01*
X127699054Y-125842127D01*
X127648259Y-125794154D01*
X127631463Y-125726334D01*
X127653999Y-125660198D01*
X127699054Y-125621157D01*
X127707816Y-125616693D01*
X127729789Y-125600728D01*
X127879786Y-125491751D01*
X127879788Y-125491748D01*
X127879792Y-125491746D01*
X128030104Y-125341434D01*
X128049898Y-125314190D01*
X128086903Y-125263257D01*
X128142233Y-125220591D01*
X128187221Y-125212142D01*
X131983993Y-125212142D01*
X132051032Y-125231827D01*
X132083260Y-125261832D01*
X132122449Y-125314183D01*
X132122452Y-125314186D01*
X132122454Y-125314188D01*
X132122457Y-125314190D01*
X132237664Y-125400435D01*
X132237671Y-125400439D01*
X132372517Y-125450733D01*
X132372516Y-125450733D01*
X132379444Y-125451477D01*
X132432127Y-125457142D01*
X135037872Y-125457141D01*
X135097483Y-125450733D01*
X135232331Y-125400438D01*
X135347546Y-125314188D01*
X135433796Y-125198973D01*
X135484091Y-125064125D01*
X135490500Y-125004515D01*
X135490499Y-123908770D01*
X135484091Y-123849159D01*
X135433796Y-123714311D01*
X135433795Y-123714310D01*
X135433793Y-123714306D01*
X135347547Y-123599097D01*
X135347544Y-123599094D01*
X135232335Y-123512848D01*
X135232328Y-123512844D01*
X135097482Y-123462550D01*
X135097483Y-123462550D01*
X135037883Y-123456143D01*
X135037881Y-123456142D01*
X135037873Y-123456142D01*
X135037864Y-123456142D01*
X132432129Y-123456142D01*
X132432123Y-123456143D01*
X132372516Y-123462550D01*
X132237671Y-123512844D01*
X132237664Y-123512848D01*
X132122457Y-123599093D01*
X132122448Y-123599102D01*
X132075772Y-123661453D01*
X132019838Y-123703324D01*
X131976506Y-123711142D01*
X128187221Y-123711142D01*
X128120182Y-123691457D01*
X128086903Y-123660027D01*
X128030107Y-123581853D01*
X127879786Y-123431532D01*
X127707820Y-123306593D01*
X127707115Y-123306233D01*
X127699054Y-123302127D01*
X127648259Y-123254154D01*
X127631463Y-123186334D01*
X127653999Y-123120198D01*
X127699054Y-123081157D01*
X127707816Y-123076693D01*
X127729789Y-123060728D01*
X127879786Y-122951751D01*
X127879788Y-122951748D01*
X127879792Y-122951746D01*
X128030104Y-122801434D01*
X128090534Y-122718257D01*
X128145863Y-122675591D01*
X128190853Y-122667142D01*
X128670249Y-122667142D01*
X128737288Y-122686827D01*
X128769515Y-122716830D01*
X128812450Y-122774183D01*
X128812454Y-122774188D01*
X128812457Y-122774190D01*
X128927664Y-122860435D01*
X128927671Y-122860439D01*
X129062517Y-122910733D01*
X129062516Y-122910733D01*
X129069444Y-122911477D01*
X129122127Y-122917142D01*
X131727872Y-122917141D01*
X131787483Y-122910733D01*
X131922331Y-122860438D01*
X132037546Y-122774188D01*
X132123796Y-122658973D01*
X132174091Y-122524125D01*
X132180500Y-122464515D01*
X132180499Y-121368770D01*
X132174091Y-121309159D01*
X132123796Y-121174311D01*
X132123795Y-121174310D01*
X132123793Y-121174306D01*
X132037547Y-121059097D01*
X132037544Y-121059094D01*
X131922335Y-120972848D01*
X131922328Y-120972844D01*
X131787482Y-120922550D01*
X131787483Y-120922550D01*
X131727883Y-120916143D01*
X131727881Y-120916142D01*
X131727873Y-120916142D01*
X131727864Y-120916142D01*
X129122129Y-120916142D01*
X129122123Y-120916143D01*
X129062516Y-120922550D01*
X128927671Y-120972844D01*
X128927664Y-120972848D01*
X128812457Y-121059093D01*
X128812451Y-121059099D01*
X128769515Y-121116454D01*
X128713581Y-121158324D01*
X128670249Y-121166142D01*
X128183588Y-121166142D01*
X128116549Y-121146457D01*
X128083269Y-121115026D01*
X128030107Y-121041853D01*
X127879786Y-120891532D01*
X127707820Y-120766593D01*
X127707115Y-120766233D01*
X127699054Y-120762127D01*
X127648259Y-120714154D01*
X127631463Y-120646334D01*
X127653999Y-120580198D01*
X127699054Y-120541157D01*
X127707816Y-120536693D01*
X127729789Y-120520728D01*
X127879786Y-120411751D01*
X127879788Y-120411748D01*
X127879792Y-120411746D01*
X128030104Y-120261434D01*
X128049898Y-120234190D01*
X128086903Y-120183257D01*
X128142233Y-120140591D01*
X128187221Y-120132142D01*
X131983993Y-120132142D01*
X132051032Y-120151827D01*
X132083260Y-120181832D01*
X132122449Y-120234183D01*
X132122452Y-120234186D01*
X132122454Y-120234188D01*
X132122457Y-120234190D01*
X132237664Y-120320435D01*
X132237671Y-120320439D01*
X132372517Y-120370733D01*
X132372516Y-120370733D01*
X132379444Y-120371477D01*
X132432127Y-120377142D01*
X135037872Y-120377141D01*
X135097483Y-120370733D01*
X135232331Y-120320438D01*
X135347546Y-120234188D01*
X135433796Y-120118973D01*
X135484091Y-119984125D01*
X135490500Y-119924515D01*
X135490499Y-118828770D01*
X135484091Y-118769159D01*
X135433796Y-118634311D01*
X135433795Y-118634310D01*
X135433793Y-118634306D01*
X135347547Y-118519097D01*
X135347544Y-118519094D01*
X135232335Y-118432848D01*
X135232328Y-118432844D01*
X135097482Y-118382550D01*
X135097483Y-118382550D01*
X135037883Y-118376143D01*
X135037881Y-118376142D01*
X135037873Y-118376142D01*
X135037864Y-118376142D01*
X132432129Y-118376142D01*
X132432123Y-118376143D01*
X132372516Y-118382550D01*
X132237671Y-118432844D01*
X132237664Y-118432848D01*
X132122457Y-118519093D01*
X132122448Y-118519102D01*
X132075772Y-118581453D01*
X132019838Y-118623324D01*
X131976506Y-118631142D01*
X128187221Y-118631142D01*
X128120182Y-118611457D01*
X128086903Y-118580027D01*
X128030107Y-118501853D01*
X127879786Y-118351532D01*
X127707820Y-118226593D01*
X127707115Y-118226233D01*
X127699054Y-118222127D01*
X127648259Y-118174154D01*
X127631463Y-118106334D01*
X127653999Y-118040198D01*
X127699054Y-118001157D01*
X127707816Y-117996693D01*
X127729789Y-117980728D01*
X127879786Y-117871751D01*
X127879788Y-117871748D01*
X127879792Y-117871746D01*
X128030104Y-117721434D01*
X128090534Y-117638257D01*
X128145863Y-117595591D01*
X128190853Y-117587142D01*
X128670249Y-117587142D01*
X128737288Y-117606827D01*
X128769515Y-117636830D01*
X128812450Y-117694183D01*
X128812454Y-117694188D01*
X128812457Y-117694190D01*
X128927664Y-117780435D01*
X128927671Y-117780439D01*
X129062517Y-117830733D01*
X129062516Y-117830733D01*
X129069444Y-117831477D01*
X129122127Y-117837142D01*
X131727872Y-117837141D01*
X131787483Y-117830733D01*
X131922331Y-117780438D01*
X132037546Y-117694188D01*
X132123796Y-117578973D01*
X132174091Y-117444125D01*
X132180500Y-117384515D01*
X132180499Y-116288770D01*
X132174091Y-116229159D01*
X132123796Y-116094311D01*
X132123795Y-116094310D01*
X132123793Y-116094306D01*
X132037547Y-115979097D01*
X132037544Y-115979094D01*
X131922335Y-115892848D01*
X131922328Y-115892844D01*
X131787482Y-115842550D01*
X131787483Y-115842550D01*
X131727883Y-115836143D01*
X131727881Y-115836142D01*
X131727873Y-115836142D01*
X131727864Y-115836142D01*
X129122129Y-115836142D01*
X129122123Y-115836143D01*
X129062516Y-115842550D01*
X128927671Y-115892844D01*
X128927664Y-115892848D01*
X128812457Y-115979093D01*
X128812451Y-115979099D01*
X128769515Y-116036454D01*
X128713581Y-116078324D01*
X128670249Y-116086142D01*
X128183588Y-116086142D01*
X128116549Y-116066457D01*
X128083269Y-116035026D01*
X128030107Y-115961853D01*
X127879786Y-115811532D01*
X127707820Y-115686593D01*
X127707115Y-115686233D01*
X127699054Y-115682127D01*
X127648259Y-115634154D01*
X127631463Y-115566334D01*
X127653999Y-115500198D01*
X127699054Y-115461157D01*
X127707816Y-115456693D01*
X127729789Y-115440728D01*
X127879786Y-115331751D01*
X127879788Y-115331748D01*
X127879792Y-115331746D01*
X128030104Y-115181434D01*
X128049898Y-115154190D01*
X128086903Y-115103257D01*
X128142233Y-115060591D01*
X128187221Y-115052142D01*
X131983993Y-115052142D01*
X132051032Y-115071827D01*
X132083260Y-115101832D01*
X132122449Y-115154183D01*
X132122452Y-115154186D01*
X132122454Y-115154188D01*
X132122457Y-115154190D01*
X132237664Y-115240435D01*
X132237671Y-115240439D01*
X132372517Y-115290733D01*
X132372516Y-115290733D01*
X132379444Y-115291477D01*
X132432127Y-115297142D01*
X135037872Y-115297141D01*
X135097483Y-115290733D01*
X135232331Y-115240438D01*
X135347546Y-115154188D01*
X135433796Y-115038973D01*
X135484091Y-114904125D01*
X135490500Y-114844515D01*
X135490499Y-113748770D01*
X135484091Y-113689159D01*
X135433796Y-113554311D01*
X135433795Y-113554310D01*
X135433793Y-113554306D01*
X135347547Y-113439097D01*
X135347544Y-113439094D01*
X135232335Y-113352848D01*
X135232328Y-113352844D01*
X135097482Y-113302550D01*
X135097483Y-113302550D01*
X135037883Y-113296143D01*
X135037881Y-113296142D01*
X135037873Y-113296142D01*
X135037864Y-113296142D01*
X132432129Y-113296142D01*
X132432123Y-113296143D01*
X132372516Y-113302550D01*
X132237671Y-113352844D01*
X132237664Y-113352848D01*
X132122457Y-113439093D01*
X132122448Y-113439102D01*
X132075772Y-113501453D01*
X132019838Y-113543324D01*
X131976506Y-113551142D01*
X128187221Y-113551142D01*
X128120182Y-113531457D01*
X128086903Y-113500027D01*
X128030107Y-113421853D01*
X127879786Y-113271532D01*
X127707820Y-113146593D01*
X127707115Y-113146233D01*
X127699054Y-113142127D01*
X127648259Y-113094154D01*
X127631463Y-113026334D01*
X127653999Y-112960198D01*
X127699054Y-112921157D01*
X127707816Y-112916693D01*
X127729789Y-112900728D01*
X127879786Y-112791751D01*
X127879788Y-112791748D01*
X127879792Y-112791746D01*
X128030104Y-112641434D01*
X128090534Y-112558257D01*
X128145863Y-112515591D01*
X128190853Y-112507142D01*
X128670249Y-112507142D01*
X128737288Y-112526827D01*
X128769515Y-112556830D01*
X128812450Y-112614183D01*
X128812454Y-112614188D01*
X128812457Y-112614190D01*
X128927664Y-112700435D01*
X128927671Y-112700439D01*
X129062517Y-112750733D01*
X129062516Y-112750733D01*
X129069444Y-112751477D01*
X129122127Y-112757142D01*
X131727872Y-112757141D01*
X131787483Y-112750733D01*
X131922331Y-112700438D01*
X132037546Y-112614188D01*
X132123796Y-112498973D01*
X132174091Y-112364125D01*
X132180500Y-112304515D01*
X132180499Y-111208770D01*
X132174091Y-111149159D01*
X132123796Y-111014311D01*
X132123795Y-111014310D01*
X132123793Y-111014306D01*
X132037547Y-110899097D01*
X132037544Y-110899094D01*
X131922335Y-110812848D01*
X131922328Y-110812844D01*
X131787482Y-110762550D01*
X131787483Y-110762550D01*
X131727883Y-110756143D01*
X131727881Y-110756142D01*
X131727873Y-110756142D01*
X131727864Y-110756142D01*
X129122129Y-110756142D01*
X129122123Y-110756143D01*
X129062516Y-110762550D01*
X128927671Y-110812844D01*
X128927664Y-110812848D01*
X128812457Y-110899093D01*
X128812451Y-110899099D01*
X128769515Y-110956454D01*
X128713581Y-110998324D01*
X128670249Y-111006142D01*
X128183588Y-111006142D01*
X128116549Y-110986457D01*
X128083269Y-110955026D01*
X128030107Y-110881853D01*
X127879786Y-110731532D01*
X127707820Y-110606593D01*
X127707115Y-110606233D01*
X127699054Y-110602127D01*
X127648259Y-110554154D01*
X127631463Y-110486334D01*
X127653999Y-110420198D01*
X127699054Y-110381157D01*
X127707816Y-110376693D01*
X127729789Y-110360728D01*
X127879786Y-110251751D01*
X127879788Y-110251748D01*
X127879792Y-110251746D01*
X128030104Y-110101434D01*
X128049898Y-110074190D01*
X128086903Y-110023257D01*
X128142233Y-109980591D01*
X128187221Y-109972142D01*
X131983993Y-109972142D01*
X132051032Y-109991827D01*
X132083260Y-110021832D01*
X132122449Y-110074183D01*
X132122452Y-110074186D01*
X132122454Y-110074188D01*
X132122457Y-110074190D01*
X132237664Y-110160435D01*
X132237671Y-110160439D01*
X132372517Y-110210733D01*
X132372516Y-110210733D01*
X132379444Y-110211477D01*
X132432127Y-110217142D01*
X135037872Y-110217141D01*
X135097483Y-110210733D01*
X135232331Y-110160438D01*
X135347546Y-110074188D01*
X135433796Y-109958973D01*
X135484091Y-109824125D01*
X135490500Y-109764515D01*
X135490499Y-108668770D01*
X135484091Y-108609159D01*
X135433796Y-108474311D01*
X135433795Y-108474310D01*
X135433793Y-108474306D01*
X135347547Y-108359097D01*
X135347544Y-108359094D01*
X135232335Y-108272848D01*
X135232328Y-108272844D01*
X135097482Y-108222550D01*
X135097483Y-108222550D01*
X135037883Y-108216143D01*
X135037881Y-108216142D01*
X135037873Y-108216142D01*
X135037864Y-108216142D01*
X132432129Y-108216142D01*
X132432123Y-108216143D01*
X132372516Y-108222550D01*
X132237671Y-108272844D01*
X132237664Y-108272848D01*
X132122457Y-108359093D01*
X132122448Y-108359102D01*
X132075772Y-108421453D01*
X132019838Y-108463324D01*
X131976506Y-108471142D01*
X128187221Y-108471142D01*
X128120182Y-108451457D01*
X128086903Y-108420027D01*
X128030107Y-108341853D01*
X127879786Y-108191532D01*
X127707820Y-108066593D01*
X127707115Y-108066233D01*
X127699054Y-108062127D01*
X127648259Y-108014154D01*
X127631463Y-107946334D01*
X127653999Y-107880198D01*
X127699054Y-107841157D01*
X127707816Y-107836693D01*
X127729789Y-107820728D01*
X127879786Y-107711751D01*
X127879788Y-107711748D01*
X127879792Y-107711746D01*
X128030104Y-107561434D01*
X128090534Y-107478257D01*
X128145863Y-107435591D01*
X128190853Y-107427142D01*
X128670249Y-107427142D01*
X128737288Y-107446827D01*
X128769515Y-107476830D01*
X128812450Y-107534183D01*
X128812454Y-107534188D01*
X128812457Y-107534190D01*
X128927664Y-107620435D01*
X128927671Y-107620439D01*
X129062517Y-107670733D01*
X129062516Y-107670733D01*
X129069444Y-107671477D01*
X129122127Y-107677142D01*
X131727872Y-107677141D01*
X131787483Y-107670733D01*
X131922331Y-107620438D01*
X132037546Y-107534188D01*
X132123796Y-107418973D01*
X132174091Y-107284125D01*
X132180500Y-107224515D01*
X132180499Y-106128770D01*
X132174091Y-106069159D01*
X132123796Y-105934311D01*
X132123795Y-105934310D01*
X132123793Y-105934306D01*
X132037547Y-105819097D01*
X132037544Y-105819094D01*
X131922335Y-105732848D01*
X131922328Y-105732844D01*
X131787482Y-105682550D01*
X131787483Y-105682550D01*
X131727883Y-105676143D01*
X131727881Y-105676142D01*
X131727873Y-105676142D01*
X131727864Y-105676142D01*
X129122129Y-105676142D01*
X129122123Y-105676143D01*
X129062516Y-105682550D01*
X128927671Y-105732844D01*
X128927664Y-105732848D01*
X128812457Y-105819093D01*
X128812451Y-105819099D01*
X128769515Y-105876454D01*
X128713581Y-105918324D01*
X128670249Y-105926142D01*
X128183588Y-105926142D01*
X128116549Y-105906457D01*
X128083269Y-105875026D01*
X128030107Y-105801853D01*
X127879786Y-105651532D01*
X127707820Y-105526593D01*
X127707115Y-105526233D01*
X127699054Y-105522127D01*
X127648259Y-105474154D01*
X127631463Y-105406334D01*
X127653999Y-105340198D01*
X127699054Y-105301157D01*
X127707816Y-105296693D01*
X127729789Y-105280728D01*
X127879786Y-105171751D01*
X127879788Y-105171748D01*
X127879792Y-105171746D01*
X128030104Y-105021434D01*
X128049898Y-104994190D01*
X128086903Y-104943257D01*
X128142233Y-104900591D01*
X128187221Y-104892142D01*
X131983993Y-104892142D01*
X132051032Y-104911827D01*
X132083260Y-104941832D01*
X132122449Y-104994183D01*
X132122452Y-104994186D01*
X132122454Y-104994188D01*
X132122457Y-104994190D01*
X132237664Y-105080435D01*
X132237671Y-105080439D01*
X132372517Y-105130733D01*
X132372516Y-105130733D01*
X132379444Y-105131477D01*
X132432127Y-105137142D01*
X135037872Y-105137141D01*
X135097483Y-105130733D01*
X135232331Y-105080438D01*
X135347546Y-104994188D01*
X135433796Y-104878973D01*
X135484091Y-104744125D01*
X135490500Y-104684515D01*
X135490499Y-103588770D01*
X135484091Y-103529159D01*
X135433796Y-103394311D01*
X135433795Y-103394310D01*
X135433793Y-103394306D01*
X135347547Y-103279097D01*
X135347544Y-103279094D01*
X135232335Y-103192848D01*
X135232328Y-103192844D01*
X135097482Y-103142550D01*
X135097483Y-103142550D01*
X135037883Y-103136143D01*
X135037881Y-103136142D01*
X135037873Y-103136142D01*
X135037864Y-103136142D01*
X132432129Y-103136142D01*
X132432123Y-103136143D01*
X132372516Y-103142550D01*
X132237671Y-103192844D01*
X132237664Y-103192848D01*
X132122457Y-103279093D01*
X132122448Y-103279102D01*
X132075772Y-103341453D01*
X132019838Y-103383324D01*
X131976506Y-103391142D01*
X128187221Y-103391142D01*
X128120182Y-103371457D01*
X128086903Y-103340027D01*
X128030107Y-103261853D01*
X127916569Y-103148315D01*
X127883084Y-103086992D01*
X127888068Y-103017300D01*
X127929940Y-102961367D01*
X127960915Y-102944452D01*
X128092331Y-102895438D01*
X128207546Y-102809188D01*
X128293796Y-102693973D01*
X128344091Y-102559125D01*
X128350500Y-102499515D01*
X128350500Y-102471142D01*
X128353050Y-102462456D01*
X128351762Y-102453495D01*
X128362740Y-102429454D01*
X128370185Y-102404103D01*
X128377025Y-102398175D01*
X128380787Y-102389939D01*
X128403021Y-102375649D01*
X128422989Y-102358348D01*
X128433503Y-102356060D01*
X128439565Y-102352165D01*
X128474500Y-102347142D01*
X128670249Y-102347142D01*
X128737288Y-102366827D01*
X128769515Y-102396830D01*
X128774960Y-102404103D01*
X128812454Y-102454188D01*
X128812457Y-102454190D01*
X128927664Y-102540435D01*
X128927671Y-102540439D01*
X129062517Y-102590733D01*
X129062516Y-102590733D01*
X129069444Y-102591477D01*
X129122127Y-102597142D01*
X131727872Y-102597141D01*
X131787483Y-102590733D01*
X131922331Y-102540438D01*
X132037546Y-102454188D01*
X132123796Y-102338973D01*
X132174091Y-102204125D01*
X132180500Y-102144515D01*
X132180499Y-101048770D01*
X132174091Y-100989159D01*
X132123796Y-100854311D01*
X132123795Y-100854310D01*
X132123793Y-100854306D01*
X132037547Y-100739097D01*
X132037544Y-100739094D01*
X131922335Y-100652848D01*
X131922328Y-100652844D01*
X131787482Y-100602550D01*
X131787483Y-100602550D01*
X131727883Y-100596143D01*
X131727881Y-100596142D01*
X131727873Y-100596142D01*
X131727864Y-100596142D01*
X129122129Y-100596142D01*
X129122123Y-100596143D01*
X129062516Y-100602550D01*
X128927671Y-100652844D01*
X128927664Y-100652848D01*
X128812457Y-100739093D01*
X128812451Y-100739099D01*
X128769515Y-100796454D01*
X128765859Y-100799190D01*
X128763962Y-100803345D01*
X128738144Y-100819936D01*
X128713581Y-100838324D01*
X128707953Y-100839339D01*
X128705184Y-100841119D01*
X128670249Y-100846142D01*
X128474499Y-100846142D01*
X128407460Y-100826457D01*
X128361705Y-100773653D01*
X128350499Y-100722142D01*
X128350499Y-100703771D01*
X128350498Y-100703765D01*
X128344091Y-100644158D01*
X128293797Y-100509313D01*
X128293793Y-100509306D01*
X128207547Y-100394097D01*
X128207544Y-100394094D01*
X128092335Y-100307848D01*
X128092328Y-100307844D01*
X127957482Y-100257550D01*
X127957483Y-100257550D01*
X127897883Y-100251143D01*
X127897881Y-100251142D01*
X127897873Y-100251142D01*
X127897865Y-100251142D01*
X126354500Y-100251142D01*
X126287461Y-100231457D01*
X126241706Y-100178653D01*
X126230500Y-100127142D01*
X126230500Y-98414500D01*
X126250185Y-98347461D01*
X126302989Y-98301706D01*
X126354500Y-98290500D01*
X150505500Y-98290500D01*
X150572539Y-98310185D01*
G37*
G04 #@! TD.AperFunction*
M02*
