G04 #@! TF.GenerationSoftware,KiCad,Pcbnew,9.0.6*
G04 #@! TF.CreationDate,2026-01-07T17:17:41-06:00*
G04 #@! TF.ProjectId,QFN-32_5x5_P0.5,51464e2d-3332-45f3-9578-355f50302e35,rev?*
G04 #@! TF.SameCoordinates,Original*
G04 #@! TF.FileFunction,Legend,Bot*
G04 #@! TF.FilePolarity,Positive*
%FSLAX46Y46*%
G04 Gerber Fmt 4.6, Leading zero omitted, Abs format (unit mm)*
G04 Created by KiCad (PCBNEW 9.0.6) date 2026-01-07 17:17:41*
%MOMM*%
%LPD*%
G01*
G04 APERTURE LIST*
%ADD10C,0.150000*%
%ADD11C,0.120000*%
%ADD12C,1.700000*%
%ADD13R,1.700000X1.700000*%
%ADD14R,2.510000X1.000000*%
G04 APERTURE END LIST*
D10*
X133365714Y-96131461D02*
X133365714Y-96845746D01*
X133365714Y-96845746D02*
X133413333Y-96988603D01*
X133413333Y-96988603D02*
X133508571Y-97083842D01*
X133508571Y-97083842D02*
X133651428Y-97131461D01*
X133651428Y-97131461D02*
X133746666Y-97131461D01*
X132365714Y-97131461D02*
X132937142Y-97131461D01*
X132651428Y-97131461D02*
X132651428Y-96131461D01*
X132651428Y-96131461D02*
X132746666Y-96274318D01*
X132746666Y-96274318D02*
X132841904Y-96369556D01*
X132841904Y-96369556D02*
X132937142Y-96417175D01*
X131746666Y-96131461D02*
X131651428Y-96131461D01*
X131651428Y-96131461D02*
X131556190Y-96179080D01*
X131556190Y-96179080D02*
X131508571Y-96226699D01*
X131508571Y-96226699D02*
X131460952Y-96321937D01*
X131460952Y-96321937D02*
X131413333Y-96512413D01*
X131413333Y-96512413D02*
X131413333Y-96750508D01*
X131413333Y-96750508D02*
X131460952Y-96940984D01*
X131460952Y-96940984D02*
X131508571Y-97036222D01*
X131508571Y-97036222D02*
X131556190Y-97083842D01*
X131556190Y-97083842D02*
X131651428Y-97131461D01*
X131651428Y-97131461D02*
X131746666Y-97131461D01*
X131746666Y-97131461D02*
X131841904Y-97083842D01*
X131841904Y-97083842D02*
X131889523Y-97036222D01*
X131889523Y-97036222D02*
X131937142Y-96940984D01*
X131937142Y-96940984D02*
X131984761Y-96750508D01*
X131984761Y-96750508D02*
X131984761Y-96512413D01*
X131984761Y-96512413D02*
X131937142Y-96321937D01*
X131937142Y-96321937D02*
X131889523Y-96226699D01*
X131889523Y-96226699D02*
X131841904Y-96179080D01*
X131841904Y-96179080D02*
X131746666Y-96131461D01*
X131079999Y-96131461D02*
X130460952Y-96131461D01*
X130460952Y-96131461D02*
X130794285Y-96512413D01*
X130794285Y-96512413D02*
X130651428Y-96512413D01*
X130651428Y-96512413D02*
X130556190Y-96560032D01*
X130556190Y-96560032D02*
X130508571Y-96607651D01*
X130508571Y-96607651D02*
X130460952Y-96702889D01*
X130460952Y-96702889D02*
X130460952Y-96940984D01*
X130460952Y-96940984D02*
X130508571Y-97036222D01*
X130508571Y-97036222D02*
X130556190Y-97083842D01*
X130556190Y-97083842D02*
X130651428Y-97131461D01*
X130651428Y-97131461D02*
X130937142Y-97131461D01*
X130937142Y-97131461D02*
X131032380Y-97083842D01*
X131032380Y-97083842D02*
X131079999Y-97036222D01*
X146065714Y-96131461D02*
X146065714Y-96845746D01*
X146065714Y-96845746D02*
X146113333Y-96988603D01*
X146113333Y-96988603D02*
X146208571Y-97083842D01*
X146208571Y-97083842D02*
X146351428Y-97131461D01*
X146351428Y-97131461D02*
X146446666Y-97131461D01*
X145065714Y-97131461D02*
X145637142Y-97131461D01*
X145351428Y-97131461D02*
X145351428Y-96131461D01*
X145351428Y-96131461D02*
X145446666Y-96274318D01*
X145446666Y-96274318D02*
X145541904Y-96369556D01*
X145541904Y-96369556D02*
X145637142Y-96417175D01*
X144446666Y-96131461D02*
X144351428Y-96131461D01*
X144351428Y-96131461D02*
X144256190Y-96179080D01*
X144256190Y-96179080D02*
X144208571Y-96226699D01*
X144208571Y-96226699D02*
X144160952Y-96321937D01*
X144160952Y-96321937D02*
X144113333Y-96512413D01*
X144113333Y-96512413D02*
X144113333Y-96750508D01*
X144113333Y-96750508D02*
X144160952Y-96940984D01*
X144160952Y-96940984D02*
X144208571Y-97036222D01*
X144208571Y-97036222D02*
X144256190Y-97083842D01*
X144256190Y-97083842D02*
X144351428Y-97131461D01*
X144351428Y-97131461D02*
X144446666Y-97131461D01*
X144446666Y-97131461D02*
X144541904Y-97083842D01*
X144541904Y-97083842D02*
X144589523Y-97036222D01*
X144589523Y-97036222D02*
X144637142Y-96940984D01*
X144637142Y-96940984D02*
X144684761Y-96750508D01*
X144684761Y-96750508D02*
X144684761Y-96512413D01*
X144684761Y-96512413D02*
X144637142Y-96321937D01*
X144637142Y-96321937D02*
X144589523Y-96226699D01*
X144589523Y-96226699D02*
X144541904Y-96179080D01*
X144541904Y-96179080D02*
X144446666Y-96131461D01*
X143256190Y-96464794D02*
X143256190Y-97131461D01*
X143494285Y-96083842D02*
X143732380Y-96798127D01*
X143732380Y-96798127D02*
X143113333Y-96798127D01*
D11*
X130700000Y-97676642D02*
X130700000Y-100786642D01*
X130700000Y-102406642D02*
X130700000Y-105866642D01*
X130700000Y-107486642D02*
X130700000Y-110946642D01*
X130700000Y-112566642D02*
X130700000Y-116026642D01*
X130700000Y-117646642D02*
X130700000Y-121106642D01*
X130700000Y-122726642D02*
X130700000Y-126186642D01*
X130700000Y-127806642D02*
X130700000Y-131266642D01*
X130700000Y-132886642D02*
X130700000Y-136346642D01*
X130700000Y-137966642D02*
X130700000Y-141426642D01*
X130700000Y-143046642D02*
X130700000Y-143616642D01*
X133460000Y-97676642D02*
X130700000Y-97676642D01*
X133460000Y-97676642D02*
X133460000Y-98246642D01*
X133460000Y-99866642D02*
X133460000Y-103326642D01*
X133460000Y-104946642D02*
X133460000Y-108406642D01*
X133460000Y-110026642D02*
X133460000Y-113486642D01*
X133460000Y-115106642D02*
X133460000Y-118566642D01*
X133460000Y-120186642D02*
X133460000Y-123646642D01*
X133460000Y-125266642D02*
X133460000Y-128726642D01*
X133460000Y-130346642D02*
X133460000Y-133806642D01*
X133460000Y-135426642D02*
X133460000Y-138886642D01*
X133460000Y-140506642D02*
X133460000Y-143616642D01*
X133460000Y-143616642D02*
X130700000Y-143616642D01*
X143400000Y-97676642D02*
X143400000Y-98246642D01*
X143400000Y-99866642D02*
X143400000Y-103326642D01*
X143400000Y-104946642D02*
X143400000Y-108406642D01*
X143400000Y-110026642D02*
X143400000Y-113486642D01*
X143400000Y-115106642D02*
X143400000Y-118566642D01*
X143400000Y-120186642D02*
X143400000Y-123646642D01*
X143400000Y-125266642D02*
X143400000Y-128726642D01*
X143400000Y-130346642D02*
X143400000Y-133806642D01*
X143400000Y-135426642D02*
X143400000Y-138886642D01*
X143400000Y-140506642D02*
X143400000Y-143616642D01*
X146160000Y-97676642D02*
X143400000Y-97676642D01*
X146160000Y-97676642D02*
X146160000Y-100786642D01*
X146160000Y-98246642D02*
X146160000Y-100786642D01*
X146160000Y-102406642D02*
X146160000Y-105866642D01*
X146160000Y-107486642D02*
X146160000Y-110946642D01*
X146160000Y-112566642D02*
X146160000Y-116026642D01*
X146160000Y-117646642D02*
X146160000Y-121106642D01*
X146160000Y-122726642D02*
X146160000Y-126186642D01*
X146160000Y-127806642D02*
X146160000Y-131266642D01*
X146160000Y-132886642D02*
X146160000Y-136346642D01*
X146160000Y-137966642D02*
X146160000Y-141426642D01*
X146160000Y-143046642D02*
X146160000Y-143616642D01*
X146160000Y-143616642D02*
X143400000Y-143616642D01*
%LPC*%
D12*
X127000000Y-99061642D03*
D13*
X127000000Y-101601642D03*
D12*
X127000000Y-104141642D03*
X127000000Y-106681642D03*
X127000000Y-109221642D03*
X127000000Y-111761642D03*
X127000000Y-114301642D03*
X127000000Y-116841642D03*
X127000000Y-119381642D03*
X127000000Y-121921642D03*
X127000000Y-124461642D03*
X127000000Y-127001642D03*
X127000000Y-129541642D03*
X127000000Y-132081642D03*
X127000000Y-134621642D03*
X127000000Y-137161642D03*
X127000000Y-139701642D03*
X127000000Y-142241642D03*
X149860000Y-99061642D03*
X149860000Y-101601642D03*
X149860000Y-104141642D03*
X149860000Y-106681642D03*
X149860000Y-109221642D03*
X149860000Y-111761642D03*
X149860000Y-114301642D03*
X149860000Y-116841642D03*
X149860000Y-119381642D03*
X149860000Y-121921642D03*
X149860000Y-124461642D03*
X149860000Y-127001642D03*
X149860000Y-129541642D03*
X149860000Y-132081642D03*
X149860000Y-134621642D03*
X149860000Y-137161642D03*
X149860000Y-139701642D03*
X149860000Y-142241642D03*
D14*
X133735000Y-99056642D03*
X130425000Y-101596642D03*
X133735000Y-104136642D03*
X130425000Y-106676642D03*
X133735000Y-109216642D03*
X130425000Y-111756642D03*
X133735000Y-114296642D03*
X130425000Y-116836642D03*
X133735000Y-119376642D03*
X130425000Y-121916642D03*
X133735000Y-124456642D03*
X130425000Y-126996642D03*
X133735000Y-129536642D03*
X130425000Y-132076642D03*
X133735000Y-134616642D03*
X130425000Y-137156642D03*
X133735000Y-139696642D03*
X130425000Y-142236642D03*
X143125000Y-99056642D03*
X146435000Y-101596642D03*
X143125000Y-104136642D03*
X146435000Y-106676642D03*
X143125000Y-109216642D03*
X146435000Y-111756642D03*
X143125000Y-114296642D03*
X146435000Y-116836642D03*
X143125000Y-119376642D03*
X146435000Y-121916642D03*
X143125000Y-124456642D03*
X146435000Y-126996642D03*
X143125000Y-129536642D03*
X146435000Y-132076642D03*
X143125000Y-134616642D03*
X146435000Y-137156642D03*
X143125000Y-139696642D03*
X146435000Y-142236642D03*
%LPD*%
M02*
