%TF.GenerationSoftware,KiCad,Pcbnew,9.0.6*%
%TF.CreationDate,2026-01-07T17:17:43-06:00*%
%TF.ProjectId,QFN-32_5x5_P0.5,51464e2d-3332-45f3-9578-355f50302e35,rev?*%
%TF.SameCoordinates,Original*%
%TF.FileFunction,Drillmap*%
%TF.FilePolarity,Positive*%
%FSLAX45Y45*%
G04 Gerber Fmt 4.5, Leading zero omitted, Abs format (unit mm)*
G04 Created by KiCad (PCBNEW 9.0.6) date 2026-01-07 17:17:43*
%MOMM*%
%LPD*%
G01*
G04 APERTURE LIST*
%ADD10C,0.050000*%
%ADD11C,0.200000*%
%ADD12C,0.100000*%
G04 APERTURE END LIST*
D10*
X12573000Y-9779000D02*
X15113000Y-9779000D01*
X15113000Y-14351000D01*
X12573000Y-14351000D01*
X12573000Y-9779000D01*
D11*
D12*
X13691579Y-12055000D02*
X13711579Y-12075000D01*
X13711579Y-12055000D02*
X13691579Y-12075000D01*
X13762289Y-11984289D02*
X13782289Y-12004289D01*
X13782289Y-11984289D02*
X13762289Y-12004289D01*
X13762289Y-12125711D02*
X13782289Y-12145711D01*
X13782289Y-12125711D02*
X13762289Y-12145711D01*
X13833000Y-11913579D02*
X13853000Y-11933579D01*
X13853000Y-11913579D02*
X13833000Y-11933579D01*
X13833000Y-12055000D02*
X13853000Y-12075000D01*
X13853000Y-12055000D02*
X13833000Y-12075000D01*
X13833000Y-12196421D02*
X13853000Y-12216421D01*
X13853000Y-12196421D02*
X13833000Y-12216421D01*
X13903711Y-11984289D02*
X13923711Y-12004289D01*
X13923711Y-11984289D02*
X13903711Y-12004289D01*
X13903711Y-12125711D02*
X13923711Y-12145711D01*
X13923711Y-12125711D02*
X13903711Y-12145711D01*
X13974421Y-12055000D02*
X13994421Y-12075000D01*
X13994421Y-12055000D02*
X13974421Y-12075000D01*
X13858000Y-10502900D02*
G75*
G02*
X13828000Y-10502900I-15000J0D01*
G01*
X13828000Y-10502900D02*
G75*
G02*
X13858000Y-10502900I15000J0D01*
G01*
X13858000Y-11595100D02*
G75*
G02*
X13828000Y-11595100I-15000J0D01*
G01*
X13828000Y-11595100D02*
G75*
G02*
X13858000Y-11595100I15000J0D01*
G01*
X13858000Y-12534900D02*
G75*
G02*
X13828000Y-12534900I-15000J0D01*
G01*
X13828000Y-12534900D02*
G75*
G02*
X13858000Y-12534900I15000J0D01*
G01*
X13858000Y-13906500D02*
G75*
G02*
X13828000Y-13906500I-15000J0D01*
G01*
X13828000Y-13906500D02*
G75*
G02*
X13858000Y-13906500I15000J0D01*
G01*
X12700000Y-9856164D02*
X12700000Y-9956164D01*
X12650000Y-9906164D02*
X12750000Y-9906164D01*
X12700000Y-10110164D02*
X12700000Y-10210164D01*
X12650000Y-10160164D02*
X12750000Y-10160164D01*
X12700000Y-10364164D02*
X12700000Y-10464164D01*
X12650000Y-10414164D02*
X12750000Y-10414164D01*
X12700000Y-10618164D02*
X12700000Y-10718164D01*
X12650000Y-10668164D02*
X12750000Y-10668164D01*
X12700000Y-10872164D02*
X12700000Y-10972164D01*
X12650000Y-10922164D02*
X12750000Y-10922164D01*
X12700000Y-11126164D02*
X12700000Y-11226164D01*
X12650000Y-11176164D02*
X12750000Y-11176164D01*
X12700000Y-11380164D02*
X12700000Y-11480164D01*
X12650000Y-11430164D02*
X12750000Y-11430164D01*
X12700000Y-11634164D02*
X12700000Y-11734164D01*
X12650000Y-11684164D02*
X12750000Y-11684164D01*
X12700000Y-11888164D02*
X12700000Y-11988164D01*
X12650000Y-11938164D02*
X12750000Y-11938164D01*
X12700000Y-12142164D02*
X12700000Y-12242164D01*
X12650000Y-12192164D02*
X12750000Y-12192164D01*
X12700000Y-12396164D02*
X12700000Y-12496164D01*
X12650000Y-12446164D02*
X12750000Y-12446164D01*
X12700000Y-12650164D02*
X12700000Y-12750164D01*
X12650000Y-12700164D02*
X12750000Y-12700164D01*
X12700000Y-12904164D02*
X12700000Y-13004164D01*
X12650000Y-12954164D02*
X12750000Y-12954164D01*
X12700000Y-13158164D02*
X12700000Y-13258164D01*
X12650000Y-13208164D02*
X12750000Y-13208164D01*
X12700000Y-13412164D02*
X12700000Y-13512164D01*
X12650000Y-13462164D02*
X12750000Y-13462164D01*
X12700000Y-13666164D02*
X12700000Y-13766164D01*
X12650000Y-13716164D02*
X12750000Y-13716164D01*
X12700000Y-13920164D02*
X12700000Y-14020164D01*
X12650000Y-13970164D02*
X12750000Y-13970164D01*
X12700000Y-14174164D02*
X12700000Y-14274164D01*
X12650000Y-14224164D02*
X12750000Y-14224164D01*
X14986000Y-9856164D02*
X14986000Y-9956164D01*
X14936000Y-9906164D02*
X15036000Y-9906164D01*
X14986000Y-10110164D02*
X14986000Y-10210164D01*
X14936000Y-10160164D02*
X15036000Y-10160164D01*
X14986000Y-10364164D02*
X14986000Y-10464164D01*
X14936000Y-10414164D02*
X15036000Y-10414164D01*
X14986000Y-10618164D02*
X14986000Y-10718164D01*
X14936000Y-10668164D02*
X15036000Y-10668164D01*
X14986000Y-10872164D02*
X14986000Y-10972164D01*
X14936000Y-10922164D02*
X15036000Y-10922164D01*
X14986000Y-11126164D02*
X14986000Y-11226164D01*
X14936000Y-11176164D02*
X15036000Y-11176164D01*
X14986000Y-11380164D02*
X14986000Y-11480164D01*
X14936000Y-11430164D02*
X15036000Y-11430164D01*
X14986000Y-11634164D02*
X14986000Y-11734164D01*
X14936000Y-11684164D02*
X15036000Y-11684164D01*
X14986000Y-11888164D02*
X14986000Y-11988164D01*
X14936000Y-11938164D02*
X15036000Y-11938164D01*
X14986000Y-12142164D02*
X14986000Y-12242164D01*
X14936000Y-12192164D02*
X15036000Y-12192164D01*
X14986000Y-12396164D02*
X14986000Y-12496164D01*
X14936000Y-12446164D02*
X15036000Y-12446164D01*
X14986000Y-12650164D02*
X14986000Y-12750164D01*
X14936000Y-12700164D02*
X15036000Y-12700164D01*
X14986000Y-12904164D02*
X14986000Y-13004164D01*
X14936000Y-12954164D02*
X15036000Y-12954164D01*
X14986000Y-13158164D02*
X14986000Y-13258164D01*
X14936000Y-13208164D02*
X15036000Y-13208164D01*
X14986000Y-13412164D02*
X14986000Y-13512164D01*
X14936000Y-13462164D02*
X15036000Y-13462164D01*
X14986000Y-13666164D02*
X14986000Y-13766164D01*
X14936000Y-13716164D02*
X15036000Y-13716164D01*
X14986000Y-13920164D02*
X14986000Y-14020164D01*
X14936000Y-13970164D02*
X15036000Y-13970164D01*
X14986000Y-14174164D02*
X14986000Y-14274164D01*
X14936000Y-14224164D02*
X15036000Y-14224164D01*
D11*
X12831277Y-14664984D02*
X12831277Y-14464984D01*
X12831277Y-14464984D02*
X12878896Y-14464984D01*
X12878896Y-14464984D02*
X12907467Y-14474508D01*
X12907467Y-14474508D02*
X12926515Y-14493555D01*
X12926515Y-14493555D02*
X12936039Y-14512603D01*
X12936039Y-14512603D02*
X12945562Y-14550698D01*
X12945562Y-14550698D02*
X12945562Y-14579269D01*
X12945562Y-14579269D02*
X12936039Y-14617365D01*
X12936039Y-14617365D02*
X12926515Y-14636412D01*
X12926515Y-14636412D02*
X12907467Y-14655460D01*
X12907467Y-14655460D02*
X12878896Y-14664984D01*
X12878896Y-14664984D02*
X12831277Y-14664984D01*
X13031277Y-14664984D02*
X13031277Y-14531650D01*
X13031277Y-14569746D02*
X13040801Y-14550698D01*
X13040801Y-14550698D02*
X13050324Y-14541174D01*
X13050324Y-14541174D02*
X13069372Y-14531650D01*
X13069372Y-14531650D02*
X13088420Y-14531650D01*
X13155086Y-14664984D02*
X13155086Y-14531650D01*
X13155086Y-14464984D02*
X13145562Y-14474508D01*
X13145562Y-14474508D02*
X13155086Y-14484031D01*
X13155086Y-14484031D02*
X13164610Y-14474508D01*
X13164610Y-14474508D02*
X13155086Y-14464984D01*
X13155086Y-14464984D02*
X13155086Y-14484031D01*
X13278896Y-14664984D02*
X13259848Y-14655460D01*
X13259848Y-14655460D02*
X13250324Y-14636412D01*
X13250324Y-14636412D02*
X13250324Y-14464984D01*
X13383658Y-14664984D02*
X13364610Y-14655460D01*
X13364610Y-14655460D02*
X13355086Y-14636412D01*
X13355086Y-14636412D02*
X13355086Y-14464984D01*
X13612229Y-14664984D02*
X13612229Y-14464984D01*
X13612229Y-14464984D02*
X13678896Y-14607841D01*
X13678896Y-14607841D02*
X13745562Y-14464984D01*
X13745562Y-14464984D02*
X13745562Y-14664984D01*
X13926515Y-14664984D02*
X13926515Y-14560222D01*
X13926515Y-14560222D02*
X13916991Y-14541174D01*
X13916991Y-14541174D02*
X13897943Y-14531650D01*
X13897943Y-14531650D02*
X13859848Y-14531650D01*
X13859848Y-14531650D02*
X13840801Y-14541174D01*
X13926515Y-14655460D02*
X13907467Y-14664984D01*
X13907467Y-14664984D02*
X13859848Y-14664984D01*
X13859848Y-14664984D02*
X13840801Y-14655460D01*
X13840801Y-14655460D02*
X13831277Y-14636412D01*
X13831277Y-14636412D02*
X13831277Y-14617365D01*
X13831277Y-14617365D02*
X13840801Y-14598317D01*
X13840801Y-14598317D02*
X13859848Y-14588793D01*
X13859848Y-14588793D02*
X13907467Y-14588793D01*
X13907467Y-14588793D02*
X13926515Y-14579269D01*
X14021753Y-14531650D02*
X14021753Y-14731650D01*
X14021753Y-14541174D02*
X14040801Y-14531650D01*
X14040801Y-14531650D02*
X14078896Y-14531650D01*
X14078896Y-14531650D02*
X14097943Y-14541174D01*
X14097943Y-14541174D02*
X14107467Y-14550698D01*
X14107467Y-14550698D02*
X14116991Y-14569746D01*
X14116991Y-14569746D02*
X14116991Y-14626888D01*
X14116991Y-14626888D02*
X14107467Y-14645936D01*
X14107467Y-14645936D02*
X14097943Y-14655460D01*
X14097943Y-14655460D02*
X14078896Y-14664984D01*
X14078896Y-14664984D02*
X14040801Y-14664984D01*
X14040801Y-14664984D02*
X14021753Y-14655460D01*
X14202705Y-14645936D02*
X14212229Y-14655460D01*
X14212229Y-14655460D02*
X14202705Y-14664984D01*
X14202705Y-14664984D02*
X14193182Y-14655460D01*
X14193182Y-14655460D02*
X14202705Y-14645936D01*
X14202705Y-14645936D02*
X14202705Y-14664984D01*
X14202705Y-14541174D02*
X14212229Y-14550698D01*
X14212229Y-14550698D02*
X14202705Y-14560222D01*
X14202705Y-14560222D02*
X14193182Y-14550698D01*
X14193182Y-14550698D02*
X14202705Y-14541174D01*
X14202705Y-14541174D02*
X14202705Y-14560222D01*
D12*
X12550500Y-14983500D02*
X12570500Y-15003500D01*
X12570500Y-14983500D02*
X12550500Y-15003500D01*
D11*
X12869372Y-14884984D02*
X12888420Y-14884984D01*
X12888420Y-14884984D02*
X12907467Y-14894508D01*
X12907467Y-14894508D02*
X12916991Y-14904031D01*
X12916991Y-14904031D02*
X12926515Y-14923079D01*
X12926515Y-14923079D02*
X12936039Y-14961174D01*
X12936039Y-14961174D02*
X12936039Y-15008793D01*
X12936039Y-15008793D02*
X12926515Y-15046888D01*
X12926515Y-15046888D02*
X12916991Y-15065936D01*
X12916991Y-15065936D02*
X12907467Y-15075460D01*
X12907467Y-15075460D02*
X12888420Y-15084984D01*
X12888420Y-15084984D02*
X12869372Y-15084984D01*
X12869372Y-15084984D02*
X12850324Y-15075460D01*
X12850324Y-15075460D02*
X12840801Y-15065936D01*
X12840801Y-15065936D02*
X12831277Y-15046888D01*
X12831277Y-15046888D02*
X12821753Y-15008793D01*
X12821753Y-15008793D02*
X12821753Y-14961174D01*
X12821753Y-14961174D02*
X12831277Y-14923079D01*
X12831277Y-14923079D02*
X12840801Y-14904031D01*
X12840801Y-14904031D02*
X12850324Y-14894508D01*
X12850324Y-14894508D02*
X12869372Y-14884984D01*
X13021753Y-15065936D02*
X13031277Y-15075460D01*
X13031277Y-15075460D02*
X13021753Y-15084984D01*
X13021753Y-15084984D02*
X13012229Y-15075460D01*
X13012229Y-15075460D02*
X13021753Y-15065936D01*
X13021753Y-15065936D02*
X13021753Y-15084984D01*
X13107467Y-14904031D02*
X13116991Y-14894508D01*
X13116991Y-14894508D02*
X13136039Y-14884984D01*
X13136039Y-14884984D02*
X13183658Y-14884984D01*
X13183658Y-14884984D02*
X13202705Y-14894508D01*
X13202705Y-14894508D02*
X13212229Y-14904031D01*
X13212229Y-14904031D02*
X13221753Y-14923079D01*
X13221753Y-14923079D02*
X13221753Y-14942127D01*
X13221753Y-14942127D02*
X13212229Y-14970698D01*
X13212229Y-14970698D02*
X13097943Y-15084984D01*
X13097943Y-15084984D02*
X13221753Y-15084984D01*
X13345562Y-14884984D02*
X13364610Y-14884984D01*
X13364610Y-14884984D02*
X13383658Y-14894508D01*
X13383658Y-14894508D02*
X13393182Y-14904031D01*
X13393182Y-14904031D02*
X13402705Y-14923079D01*
X13402705Y-14923079D02*
X13412229Y-14961174D01*
X13412229Y-14961174D02*
X13412229Y-15008793D01*
X13412229Y-15008793D02*
X13402705Y-15046888D01*
X13402705Y-15046888D02*
X13393182Y-15065936D01*
X13393182Y-15065936D02*
X13383658Y-15075460D01*
X13383658Y-15075460D02*
X13364610Y-15084984D01*
X13364610Y-15084984D02*
X13345562Y-15084984D01*
X13345562Y-15084984D02*
X13326515Y-15075460D01*
X13326515Y-15075460D02*
X13316991Y-15065936D01*
X13316991Y-15065936D02*
X13307467Y-15046888D01*
X13307467Y-15046888D02*
X13297943Y-15008793D01*
X13297943Y-15008793D02*
X13297943Y-14961174D01*
X13297943Y-14961174D02*
X13307467Y-14923079D01*
X13307467Y-14923079D02*
X13316991Y-14904031D01*
X13316991Y-14904031D02*
X13326515Y-14894508D01*
X13326515Y-14894508D02*
X13345562Y-14884984D01*
X13536039Y-14884984D02*
X13555086Y-14884984D01*
X13555086Y-14884984D02*
X13574134Y-14894508D01*
X13574134Y-14894508D02*
X13583658Y-14904031D01*
X13583658Y-14904031D02*
X13593182Y-14923079D01*
X13593182Y-14923079D02*
X13602705Y-14961174D01*
X13602705Y-14961174D02*
X13602705Y-15008793D01*
X13602705Y-15008793D02*
X13593182Y-15046888D01*
X13593182Y-15046888D02*
X13583658Y-15065936D01*
X13583658Y-15065936D02*
X13574134Y-15075460D01*
X13574134Y-15075460D02*
X13555086Y-15084984D01*
X13555086Y-15084984D02*
X13536039Y-15084984D01*
X13536039Y-15084984D02*
X13516991Y-15075460D01*
X13516991Y-15075460D02*
X13507467Y-15065936D01*
X13507467Y-15065936D02*
X13497943Y-15046888D01*
X13497943Y-15046888D02*
X13488420Y-15008793D01*
X13488420Y-15008793D02*
X13488420Y-14961174D01*
X13488420Y-14961174D02*
X13497943Y-14923079D01*
X13497943Y-14923079D02*
X13507467Y-14904031D01*
X13507467Y-14904031D02*
X13516991Y-14894508D01*
X13516991Y-14894508D02*
X13536039Y-14884984D01*
X13688420Y-15084984D02*
X13688420Y-14951650D01*
X13688420Y-14970698D02*
X13697943Y-14961174D01*
X13697943Y-14961174D02*
X13716991Y-14951650D01*
X13716991Y-14951650D02*
X13745563Y-14951650D01*
X13745563Y-14951650D02*
X13764610Y-14961174D01*
X13764610Y-14961174D02*
X13774134Y-14980222D01*
X13774134Y-14980222D02*
X13774134Y-15084984D01*
X13774134Y-14980222D02*
X13783658Y-14961174D01*
X13783658Y-14961174D02*
X13802705Y-14951650D01*
X13802705Y-14951650D02*
X13831277Y-14951650D01*
X13831277Y-14951650D02*
X13850324Y-14961174D01*
X13850324Y-14961174D02*
X13859848Y-14980222D01*
X13859848Y-14980222D02*
X13859848Y-15084984D01*
X13955086Y-15084984D02*
X13955086Y-14951650D01*
X13955086Y-14970698D02*
X13964610Y-14961174D01*
X13964610Y-14961174D02*
X13983658Y-14951650D01*
X13983658Y-14951650D02*
X14012229Y-14951650D01*
X14012229Y-14951650D02*
X14031277Y-14961174D01*
X14031277Y-14961174D02*
X14040801Y-14980222D01*
X14040801Y-14980222D02*
X14040801Y-15084984D01*
X14040801Y-14980222D02*
X14050324Y-14961174D01*
X14050324Y-14961174D02*
X14069372Y-14951650D01*
X14069372Y-14951650D02*
X14097943Y-14951650D01*
X14097943Y-14951650D02*
X14116991Y-14961174D01*
X14116991Y-14961174D02*
X14126515Y-14980222D01*
X14126515Y-14980222D02*
X14126515Y-15084984D01*
X14516991Y-14875460D02*
X14345563Y-15132603D01*
X14774134Y-14884984D02*
X14793182Y-14884984D01*
X14793182Y-14884984D02*
X14812229Y-14894508D01*
X14812229Y-14894508D02*
X14821753Y-14904031D01*
X14821753Y-14904031D02*
X14831277Y-14923079D01*
X14831277Y-14923079D02*
X14840801Y-14961174D01*
X14840801Y-14961174D02*
X14840801Y-15008793D01*
X14840801Y-15008793D02*
X14831277Y-15046888D01*
X14831277Y-15046888D02*
X14821753Y-15065936D01*
X14821753Y-15065936D02*
X14812229Y-15075460D01*
X14812229Y-15075460D02*
X14793182Y-15084984D01*
X14793182Y-15084984D02*
X14774134Y-15084984D01*
X14774134Y-15084984D02*
X14755086Y-15075460D01*
X14755086Y-15075460D02*
X14745563Y-15065936D01*
X14745563Y-15065936D02*
X14736039Y-15046888D01*
X14736039Y-15046888D02*
X14726515Y-15008793D01*
X14726515Y-15008793D02*
X14726515Y-14961174D01*
X14726515Y-14961174D02*
X14736039Y-14923079D01*
X14736039Y-14923079D02*
X14745563Y-14904031D01*
X14745563Y-14904031D02*
X14755086Y-14894508D01*
X14755086Y-14894508D02*
X14774134Y-14884984D01*
X14926515Y-15065936D02*
X14936039Y-15075460D01*
X14936039Y-15075460D02*
X14926515Y-15084984D01*
X14926515Y-15084984D02*
X14916991Y-15075460D01*
X14916991Y-15075460D02*
X14926515Y-15065936D01*
X14926515Y-15065936D02*
X14926515Y-15084984D01*
X15059848Y-14884984D02*
X15078896Y-14884984D01*
X15078896Y-14884984D02*
X15097944Y-14894508D01*
X15097944Y-14894508D02*
X15107467Y-14904031D01*
X15107467Y-14904031D02*
X15116991Y-14923079D01*
X15116991Y-14923079D02*
X15126515Y-14961174D01*
X15126515Y-14961174D02*
X15126515Y-15008793D01*
X15126515Y-15008793D02*
X15116991Y-15046888D01*
X15116991Y-15046888D02*
X15107467Y-15065936D01*
X15107467Y-15065936D02*
X15097944Y-15075460D01*
X15097944Y-15075460D02*
X15078896Y-15084984D01*
X15078896Y-15084984D02*
X15059848Y-15084984D01*
X15059848Y-15084984D02*
X15040801Y-15075460D01*
X15040801Y-15075460D02*
X15031277Y-15065936D01*
X15031277Y-15065936D02*
X15021753Y-15046888D01*
X15021753Y-15046888D02*
X15012229Y-15008793D01*
X15012229Y-15008793D02*
X15012229Y-14961174D01*
X15012229Y-14961174D02*
X15021753Y-14923079D01*
X15021753Y-14923079D02*
X15031277Y-14904031D01*
X15031277Y-14904031D02*
X15040801Y-14894508D01*
X15040801Y-14894508D02*
X15059848Y-14884984D01*
X15250325Y-14884984D02*
X15269372Y-14884984D01*
X15269372Y-14884984D02*
X15288420Y-14894508D01*
X15288420Y-14894508D02*
X15297944Y-14904031D01*
X15297944Y-14904031D02*
X15307467Y-14923079D01*
X15307467Y-14923079D02*
X15316991Y-14961174D01*
X15316991Y-14961174D02*
X15316991Y-15008793D01*
X15316991Y-15008793D02*
X15307467Y-15046888D01*
X15307467Y-15046888D02*
X15297944Y-15065936D01*
X15297944Y-15065936D02*
X15288420Y-15075460D01*
X15288420Y-15075460D02*
X15269372Y-15084984D01*
X15269372Y-15084984D02*
X15250325Y-15084984D01*
X15250325Y-15084984D02*
X15231277Y-15075460D01*
X15231277Y-15075460D02*
X15221753Y-15065936D01*
X15221753Y-15065936D02*
X15212229Y-15046888D01*
X15212229Y-15046888D02*
X15202706Y-15008793D01*
X15202706Y-15008793D02*
X15202706Y-14961174D01*
X15202706Y-14961174D02*
X15212229Y-14923079D01*
X15212229Y-14923079D02*
X15221753Y-14904031D01*
X15221753Y-14904031D02*
X15231277Y-14894508D01*
X15231277Y-14894508D02*
X15250325Y-14884984D01*
X15383658Y-14884984D02*
X15516991Y-14884984D01*
X15516991Y-14884984D02*
X15431277Y-15084984D01*
X15602706Y-15084984D02*
X15640801Y-15084984D01*
X15640801Y-15084984D02*
X15659848Y-15075460D01*
X15659848Y-15075460D02*
X15669372Y-15065936D01*
X15669372Y-15065936D02*
X15688420Y-15037365D01*
X15688420Y-15037365D02*
X15697944Y-14999269D01*
X15697944Y-14999269D02*
X15697944Y-14923079D01*
X15697944Y-14923079D02*
X15688420Y-14904031D01*
X15688420Y-14904031D02*
X15678896Y-14894508D01*
X15678896Y-14894508D02*
X15659848Y-14884984D01*
X15659848Y-14884984D02*
X15621753Y-14884984D01*
X15621753Y-14884984D02*
X15602706Y-14894508D01*
X15602706Y-14894508D02*
X15593182Y-14904031D01*
X15593182Y-14904031D02*
X15583658Y-14923079D01*
X15583658Y-14923079D02*
X15583658Y-14970698D01*
X15583658Y-14970698D02*
X15593182Y-14989746D01*
X15593182Y-14989746D02*
X15602706Y-14999269D01*
X15602706Y-14999269D02*
X15621753Y-15008793D01*
X15621753Y-15008793D02*
X15659848Y-15008793D01*
X15659848Y-15008793D02*
X15678896Y-14999269D01*
X15678896Y-14999269D02*
X15688420Y-14989746D01*
X15688420Y-14989746D02*
X15697944Y-14970698D01*
X15774134Y-14884984D02*
X15774134Y-14923079D01*
X15850325Y-14884984D02*
X15850325Y-14923079D01*
X16145563Y-15161174D02*
X16136039Y-15151650D01*
X16136039Y-15151650D02*
X16116991Y-15123079D01*
X16116991Y-15123079D02*
X16107468Y-15104031D01*
X16107468Y-15104031D02*
X16097944Y-15075460D01*
X16097944Y-15075460D02*
X16088420Y-15027841D01*
X16088420Y-15027841D02*
X16088420Y-14989746D01*
X16088420Y-14989746D02*
X16097944Y-14942127D01*
X16097944Y-14942127D02*
X16107468Y-14913555D01*
X16107468Y-14913555D02*
X16116991Y-14894508D01*
X16116991Y-14894508D02*
X16136039Y-14865936D01*
X16136039Y-14865936D02*
X16145563Y-14856412D01*
X16231277Y-15084984D02*
X16269372Y-15084984D01*
X16269372Y-15084984D02*
X16288420Y-15075460D01*
X16288420Y-15075460D02*
X16297944Y-15065936D01*
X16297944Y-15065936D02*
X16316991Y-15037365D01*
X16316991Y-15037365D02*
X16326515Y-14999269D01*
X16326515Y-14999269D02*
X16326515Y-14923079D01*
X16326515Y-14923079D02*
X16316991Y-14904031D01*
X16316991Y-14904031D02*
X16307468Y-14894508D01*
X16307468Y-14894508D02*
X16288420Y-14884984D01*
X16288420Y-14884984D02*
X16250325Y-14884984D01*
X16250325Y-14884984D02*
X16231277Y-14894508D01*
X16231277Y-14894508D02*
X16221753Y-14904031D01*
X16221753Y-14904031D02*
X16212229Y-14923079D01*
X16212229Y-14923079D02*
X16212229Y-14970698D01*
X16212229Y-14970698D02*
X16221753Y-14989746D01*
X16221753Y-14989746D02*
X16231277Y-14999269D01*
X16231277Y-14999269D02*
X16250325Y-15008793D01*
X16250325Y-15008793D02*
X16288420Y-15008793D01*
X16288420Y-15008793D02*
X16307468Y-14999269D01*
X16307468Y-14999269D02*
X16316991Y-14989746D01*
X16316991Y-14989746D02*
X16326515Y-14970698D01*
X16564610Y-15084984D02*
X16564610Y-14884984D01*
X16650325Y-15084984D02*
X16650325Y-14980222D01*
X16650325Y-14980222D02*
X16640801Y-14961174D01*
X16640801Y-14961174D02*
X16621753Y-14951650D01*
X16621753Y-14951650D02*
X16593182Y-14951650D01*
X16593182Y-14951650D02*
X16574134Y-14961174D01*
X16574134Y-14961174D02*
X16564610Y-14970698D01*
X16774134Y-15084984D02*
X16755087Y-15075460D01*
X16755087Y-15075460D02*
X16745563Y-15065936D01*
X16745563Y-15065936D02*
X16736039Y-15046888D01*
X16736039Y-15046888D02*
X16736039Y-14989746D01*
X16736039Y-14989746D02*
X16745563Y-14970698D01*
X16745563Y-14970698D02*
X16755087Y-14961174D01*
X16755087Y-14961174D02*
X16774134Y-14951650D01*
X16774134Y-14951650D02*
X16802706Y-14951650D01*
X16802706Y-14951650D02*
X16821753Y-14961174D01*
X16821753Y-14961174D02*
X16831277Y-14970698D01*
X16831277Y-14970698D02*
X16840801Y-14989746D01*
X16840801Y-14989746D02*
X16840801Y-15046888D01*
X16840801Y-15046888D02*
X16831277Y-15065936D01*
X16831277Y-15065936D02*
X16821753Y-15075460D01*
X16821753Y-15075460D02*
X16802706Y-15084984D01*
X16802706Y-15084984D02*
X16774134Y-15084984D01*
X16955087Y-15084984D02*
X16936039Y-15075460D01*
X16936039Y-15075460D02*
X16926515Y-15056412D01*
X16926515Y-15056412D02*
X16926515Y-14884984D01*
X17107468Y-15075460D02*
X17088420Y-15084984D01*
X17088420Y-15084984D02*
X17050325Y-15084984D01*
X17050325Y-15084984D02*
X17031277Y-15075460D01*
X17031277Y-15075460D02*
X17021753Y-15056412D01*
X17021753Y-15056412D02*
X17021753Y-14980222D01*
X17021753Y-14980222D02*
X17031277Y-14961174D01*
X17031277Y-14961174D02*
X17050325Y-14951650D01*
X17050325Y-14951650D02*
X17088420Y-14951650D01*
X17088420Y-14951650D02*
X17107468Y-14961174D01*
X17107468Y-14961174D02*
X17116992Y-14980222D01*
X17116992Y-14980222D02*
X17116992Y-14999269D01*
X17116992Y-14999269D02*
X17021753Y-15018317D01*
X17193182Y-15075460D02*
X17212230Y-15084984D01*
X17212230Y-15084984D02*
X17250325Y-15084984D01*
X17250325Y-15084984D02*
X17269373Y-15075460D01*
X17269373Y-15075460D02*
X17278896Y-15056412D01*
X17278896Y-15056412D02*
X17278896Y-15046888D01*
X17278896Y-15046888D02*
X17269373Y-15027841D01*
X17269373Y-15027841D02*
X17250325Y-15018317D01*
X17250325Y-15018317D02*
X17221753Y-15018317D01*
X17221753Y-15018317D02*
X17202706Y-15008793D01*
X17202706Y-15008793D02*
X17193182Y-14989746D01*
X17193182Y-14989746D02*
X17193182Y-14980222D01*
X17193182Y-14980222D02*
X17202706Y-14961174D01*
X17202706Y-14961174D02*
X17221753Y-14951650D01*
X17221753Y-14951650D02*
X17250325Y-14951650D01*
X17250325Y-14951650D02*
X17269373Y-14961174D01*
X17345563Y-15161174D02*
X17355087Y-15151650D01*
X17355087Y-15151650D02*
X17374134Y-15123079D01*
X17374134Y-15123079D02*
X17383658Y-15104031D01*
X17383658Y-15104031D02*
X17393182Y-15075460D01*
X17393182Y-15075460D02*
X17402706Y-15027841D01*
X17402706Y-15027841D02*
X17402706Y-14989746D01*
X17402706Y-14989746D02*
X17393182Y-14942127D01*
X17393182Y-14942127D02*
X17383658Y-14913555D01*
X17383658Y-14913555D02*
X17374134Y-14894508D01*
X17374134Y-14894508D02*
X17355087Y-14865936D01*
X17355087Y-14865936D02*
X17345563Y-14856412D01*
D12*
X12570500Y-15257500D02*
G75*
G02*
X12540500Y-15257500I-15000J0D01*
G01*
X12540500Y-15257500D02*
G75*
G02*
X12570500Y-15257500I15000J0D01*
G01*
D11*
X12869372Y-15148984D02*
X12888420Y-15148984D01*
X12888420Y-15148984D02*
X12907467Y-15158508D01*
X12907467Y-15158508D02*
X12916991Y-15168031D01*
X12916991Y-15168031D02*
X12926515Y-15187079D01*
X12926515Y-15187079D02*
X12936039Y-15225174D01*
X12936039Y-15225174D02*
X12936039Y-15272793D01*
X12936039Y-15272793D02*
X12926515Y-15310888D01*
X12926515Y-15310888D02*
X12916991Y-15329936D01*
X12916991Y-15329936D02*
X12907467Y-15339460D01*
X12907467Y-15339460D02*
X12888420Y-15348984D01*
X12888420Y-15348984D02*
X12869372Y-15348984D01*
X12869372Y-15348984D02*
X12850324Y-15339460D01*
X12850324Y-15339460D02*
X12840801Y-15329936D01*
X12840801Y-15329936D02*
X12831277Y-15310888D01*
X12831277Y-15310888D02*
X12821753Y-15272793D01*
X12821753Y-15272793D02*
X12821753Y-15225174D01*
X12821753Y-15225174D02*
X12831277Y-15187079D01*
X12831277Y-15187079D02*
X12840801Y-15168031D01*
X12840801Y-15168031D02*
X12850324Y-15158508D01*
X12850324Y-15158508D02*
X12869372Y-15148984D01*
X13021753Y-15329936D02*
X13031277Y-15339460D01*
X13031277Y-15339460D02*
X13021753Y-15348984D01*
X13021753Y-15348984D02*
X13012229Y-15339460D01*
X13012229Y-15339460D02*
X13021753Y-15329936D01*
X13021753Y-15329936D02*
X13021753Y-15348984D01*
X13097943Y-15148984D02*
X13221753Y-15148984D01*
X13221753Y-15148984D02*
X13155086Y-15225174D01*
X13155086Y-15225174D02*
X13183658Y-15225174D01*
X13183658Y-15225174D02*
X13202705Y-15234698D01*
X13202705Y-15234698D02*
X13212229Y-15244222D01*
X13212229Y-15244222D02*
X13221753Y-15263269D01*
X13221753Y-15263269D02*
X13221753Y-15310888D01*
X13221753Y-15310888D02*
X13212229Y-15329936D01*
X13212229Y-15329936D02*
X13202705Y-15339460D01*
X13202705Y-15339460D02*
X13183658Y-15348984D01*
X13183658Y-15348984D02*
X13126515Y-15348984D01*
X13126515Y-15348984D02*
X13107467Y-15339460D01*
X13107467Y-15339460D02*
X13097943Y-15329936D01*
X13345562Y-15148984D02*
X13364610Y-15148984D01*
X13364610Y-15148984D02*
X13383658Y-15158508D01*
X13383658Y-15158508D02*
X13393182Y-15168031D01*
X13393182Y-15168031D02*
X13402705Y-15187079D01*
X13402705Y-15187079D02*
X13412229Y-15225174D01*
X13412229Y-15225174D02*
X13412229Y-15272793D01*
X13412229Y-15272793D02*
X13402705Y-15310888D01*
X13402705Y-15310888D02*
X13393182Y-15329936D01*
X13393182Y-15329936D02*
X13383658Y-15339460D01*
X13383658Y-15339460D02*
X13364610Y-15348984D01*
X13364610Y-15348984D02*
X13345562Y-15348984D01*
X13345562Y-15348984D02*
X13326515Y-15339460D01*
X13326515Y-15339460D02*
X13316991Y-15329936D01*
X13316991Y-15329936D02*
X13307467Y-15310888D01*
X13307467Y-15310888D02*
X13297943Y-15272793D01*
X13297943Y-15272793D02*
X13297943Y-15225174D01*
X13297943Y-15225174D02*
X13307467Y-15187079D01*
X13307467Y-15187079D02*
X13316991Y-15168031D01*
X13316991Y-15168031D02*
X13326515Y-15158508D01*
X13326515Y-15158508D02*
X13345562Y-15148984D01*
X13536039Y-15148984D02*
X13555086Y-15148984D01*
X13555086Y-15148984D02*
X13574134Y-15158508D01*
X13574134Y-15158508D02*
X13583658Y-15168031D01*
X13583658Y-15168031D02*
X13593182Y-15187079D01*
X13593182Y-15187079D02*
X13602705Y-15225174D01*
X13602705Y-15225174D02*
X13602705Y-15272793D01*
X13602705Y-15272793D02*
X13593182Y-15310888D01*
X13593182Y-15310888D02*
X13583658Y-15329936D01*
X13583658Y-15329936D02*
X13574134Y-15339460D01*
X13574134Y-15339460D02*
X13555086Y-15348984D01*
X13555086Y-15348984D02*
X13536039Y-15348984D01*
X13536039Y-15348984D02*
X13516991Y-15339460D01*
X13516991Y-15339460D02*
X13507467Y-15329936D01*
X13507467Y-15329936D02*
X13497943Y-15310888D01*
X13497943Y-15310888D02*
X13488420Y-15272793D01*
X13488420Y-15272793D02*
X13488420Y-15225174D01*
X13488420Y-15225174D02*
X13497943Y-15187079D01*
X13497943Y-15187079D02*
X13507467Y-15168031D01*
X13507467Y-15168031D02*
X13516991Y-15158508D01*
X13516991Y-15158508D02*
X13536039Y-15148984D01*
X13688420Y-15348984D02*
X13688420Y-15215650D01*
X13688420Y-15234698D02*
X13697943Y-15225174D01*
X13697943Y-15225174D02*
X13716991Y-15215650D01*
X13716991Y-15215650D02*
X13745563Y-15215650D01*
X13745563Y-15215650D02*
X13764610Y-15225174D01*
X13764610Y-15225174D02*
X13774134Y-15244222D01*
X13774134Y-15244222D02*
X13774134Y-15348984D01*
X13774134Y-15244222D02*
X13783658Y-15225174D01*
X13783658Y-15225174D02*
X13802705Y-15215650D01*
X13802705Y-15215650D02*
X13831277Y-15215650D01*
X13831277Y-15215650D02*
X13850324Y-15225174D01*
X13850324Y-15225174D02*
X13859848Y-15244222D01*
X13859848Y-15244222D02*
X13859848Y-15348984D01*
X13955086Y-15348984D02*
X13955086Y-15215650D01*
X13955086Y-15234698D02*
X13964610Y-15225174D01*
X13964610Y-15225174D02*
X13983658Y-15215650D01*
X13983658Y-15215650D02*
X14012229Y-15215650D01*
X14012229Y-15215650D02*
X14031277Y-15225174D01*
X14031277Y-15225174D02*
X14040801Y-15244222D01*
X14040801Y-15244222D02*
X14040801Y-15348984D01*
X14040801Y-15244222D02*
X14050324Y-15225174D01*
X14050324Y-15225174D02*
X14069372Y-15215650D01*
X14069372Y-15215650D02*
X14097943Y-15215650D01*
X14097943Y-15215650D02*
X14116991Y-15225174D01*
X14116991Y-15225174D02*
X14126515Y-15244222D01*
X14126515Y-15244222D02*
X14126515Y-15348984D01*
X14516991Y-15139460D02*
X14345563Y-15396603D01*
X14774134Y-15148984D02*
X14793182Y-15148984D01*
X14793182Y-15148984D02*
X14812229Y-15158508D01*
X14812229Y-15158508D02*
X14821753Y-15168031D01*
X14821753Y-15168031D02*
X14831277Y-15187079D01*
X14831277Y-15187079D02*
X14840801Y-15225174D01*
X14840801Y-15225174D02*
X14840801Y-15272793D01*
X14840801Y-15272793D02*
X14831277Y-15310888D01*
X14831277Y-15310888D02*
X14821753Y-15329936D01*
X14821753Y-15329936D02*
X14812229Y-15339460D01*
X14812229Y-15339460D02*
X14793182Y-15348984D01*
X14793182Y-15348984D02*
X14774134Y-15348984D01*
X14774134Y-15348984D02*
X14755086Y-15339460D01*
X14755086Y-15339460D02*
X14745563Y-15329936D01*
X14745563Y-15329936D02*
X14736039Y-15310888D01*
X14736039Y-15310888D02*
X14726515Y-15272793D01*
X14726515Y-15272793D02*
X14726515Y-15225174D01*
X14726515Y-15225174D02*
X14736039Y-15187079D01*
X14736039Y-15187079D02*
X14745563Y-15168031D01*
X14745563Y-15168031D02*
X14755086Y-15158508D01*
X14755086Y-15158508D02*
X14774134Y-15148984D01*
X14926515Y-15329936D02*
X14936039Y-15339460D01*
X14936039Y-15339460D02*
X14926515Y-15348984D01*
X14926515Y-15348984D02*
X14916991Y-15339460D01*
X14916991Y-15339460D02*
X14926515Y-15329936D01*
X14926515Y-15329936D02*
X14926515Y-15348984D01*
X15059848Y-15148984D02*
X15078896Y-15148984D01*
X15078896Y-15148984D02*
X15097944Y-15158508D01*
X15097944Y-15158508D02*
X15107467Y-15168031D01*
X15107467Y-15168031D02*
X15116991Y-15187079D01*
X15116991Y-15187079D02*
X15126515Y-15225174D01*
X15126515Y-15225174D02*
X15126515Y-15272793D01*
X15126515Y-15272793D02*
X15116991Y-15310888D01*
X15116991Y-15310888D02*
X15107467Y-15329936D01*
X15107467Y-15329936D02*
X15097944Y-15339460D01*
X15097944Y-15339460D02*
X15078896Y-15348984D01*
X15078896Y-15348984D02*
X15059848Y-15348984D01*
X15059848Y-15348984D02*
X15040801Y-15339460D01*
X15040801Y-15339460D02*
X15031277Y-15329936D01*
X15031277Y-15329936D02*
X15021753Y-15310888D01*
X15021753Y-15310888D02*
X15012229Y-15272793D01*
X15012229Y-15272793D02*
X15012229Y-15225174D01*
X15012229Y-15225174D02*
X15021753Y-15187079D01*
X15021753Y-15187079D02*
X15031277Y-15168031D01*
X15031277Y-15168031D02*
X15040801Y-15158508D01*
X15040801Y-15158508D02*
X15059848Y-15148984D01*
X15316991Y-15348984D02*
X15202706Y-15348984D01*
X15259848Y-15348984D02*
X15259848Y-15148984D01*
X15259848Y-15148984D02*
X15240801Y-15177555D01*
X15240801Y-15177555D02*
X15221753Y-15196603D01*
X15221753Y-15196603D02*
X15202706Y-15206127D01*
X15507467Y-15348984D02*
X15393182Y-15348984D01*
X15450325Y-15348984D02*
X15450325Y-15148984D01*
X15450325Y-15148984D02*
X15431277Y-15177555D01*
X15431277Y-15177555D02*
X15412229Y-15196603D01*
X15412229Y-15196603D02*
X15393182Y-15206127D01*
X15621753Y-15234698D02*
X15602706Y-15225174D01*
X15602706Y-15225174D02*
X15593182Y-15215650D01*
X15593182Y-15215650D02*
X15583658Y-15196603D01*
X15583658Y-15196603D02*
X15583658Y-15187079D01*
X15583658Y-15187079D02*
X15593182Y-15168031D01*
X15593182Y-15168031D02*
X15602706Y-15158508D01*
X15602706Y-15158508D02*
X15621753Y-15148984D01*
X15621753Y-15148984D02*
X15659848Y-15148984D01*
X15659848Y-15148984D02*
X15678896Y-15158508D01*
X15678896Y-15158508D02*
X15688420Y-15168031D01*
X15688420Y-15168031D02*
X15697944Y-15187079D01*
X15697944Y-15187079D02*
X15697944Y-15196603D01*
X15697944Y-15196603D02*
X15688420Y-15215650D01*
X15688420Y-15215650D02*
X15678896Y-15225174D01*
X15678896Y-15225174D02*
X15659848Y-15234698D01*
X15659848Y-15234698D02*
X15621753Y-15234698D01*
X15621753Y-15234698D02*
X15602706Y-15244222D01*
X15602706Y-15244222D02*
X15593182Y-15253746D01*
X15593182Y-15253746D02*
X15583658Y-15272793D01*
X15583658Y-15272793D02*
X15583658Y-15310888D01*
X15583658Y-15310888D02*
X15593182Y-15329936D01*
X15593182Y-15329936D02*
X15602706Y-15339460D01*
X15602706Y-15339460D02*
X15621753Y-15348984D01*
X15621753Y-15348984D02*
X15659848Y-15348984D01*
X15659848Y-15348984D02*
X15678896Y-15339460D01*
X15678896Y-15339460D02*
X15688420Y-15329936D01*
X15688420Y-15329936D02*
X15697944Y-15310888D01*
X15697944Y-15310888D02*
X15697944Y-15272793D01*
X15697944Y-15272793D02*
X15688420Y-15253746D01*
X15688420Y-15253746D02*
X15678896Y-15244222D01*
X15678896Y-15244222D02*
X15659848Y-15234698D01*
X15774134Y-15148984D02*
X15774134Y-15187079D01*
X15850325Y-15148984D02*
X15850325Y-15187079D01*
X16145563Y-15425174D02*
X16136039Y-15415650D01*
X16136039Y-15415650D02*
X16116991Y-15387079D01*
X16116991Y-15387079D02*
X16107468Y-15368031D01*
X16107468Y-15368031D02*
X16097944Y-15339460D01*
X16097944Y-15339460D02*
X16088420Y-15291841D01*
X16088420Y-15291841D02*
X16088420Y-15253746D01*
X16088420Y-15253746D02*
X16097944Y-15206127D01*
X16097944Y-15206127D02*
X16107468Y-15177555D01*
X16107468Y-15177555D02*
X16116991Y-15158508D01*
X16116991Y-15158508D02*
X16136039Y-15129936D01*
X16136039Y-15129936D02*
X16145563Y-15120412D01*
X16307468Y-15215650D02*
X16307468Y-15348984D01*
X16259848Y-15139460D02*
X16212229Y-15282317D01*
X16212229Y-15282317D02*
X16336039Y-15282317D01*
X16564610Y-15348984D02*
X16564610Y-15148984D01*
X16650325Y-15348984D02*
X16650325Y-15244222D01*
X16650325Y-15244222D02*
X16640801Y-15225174D01*
X16640801Y-15225174D02*
X16621753Y-15215650D01*
X16621753Y-15215650D02*
X16593182Y-15215650D01*
X16593182Y-15215650D02*
X16574134Y-15225174D01*
X16574134Y-15225174D02*
X16564610Y-15234698D01*
X16774134Y-15348984D02*
X16755087Y-15339460D01*
X16755087Y-15339460D02*
X16745563Y-15329936D01*
X16745563Y-15329936D02*
X16736039Y-15310888D01*
X16736039Y-15310888D02*
X16736039Y-15253746D01*
X16736039Y-15253746D02*
X16745563Y-15234698D01*
X16745563Y-15234698D02*
X16755087Y-15225174D01*
X16755087Y-15225174D02*
X16774134Y-15215650D01*
X16774134Y-15215650D02*
X16802706Y-15215650D01*
X16802706Y-15215650D02*
X16821753Y-15225174D01*
X16821753Y-15225174D02*
X16831277Y-15234698D01*
X16831277Y-15234698D02*
X16840801Y-15253746D01*
X16840801Y-15253746D02*
X16840801Y-15310888D01*
X16840801Y-15310888D02*
X16831277Y-15329936D01*
X16831277Y-15329936D02*
X16821753Y-15339460D01*
X16821753Y-15339460D02*
X16802706Y-15348984D01*
X16802706Y-15348984D02*
X16774134Y-15348984D01*
X16955087Y-15348984D02*
X16936039Y-15339460D01*
X16936039Y-15339460D02*
X16926515Y-15320412D01*
X16926515Y-15320412D02*
X16926515Y-15148984D01*
X17107468Y-15339460D02*
X17088420Y-15348984D01*
X17088420Y-15348984D02*
X17050325Y-15348984D01*
X17050325Y-15348984D02*
X17031277Y-15339460D01*
X17031277Y-15339460D02*
X17021753Y-15320412D01*
X17021753Y-15320412D02*
X17021753Y-15244222D01*
X17021753Y-15244222D02*
X17031277Y-15225174D01*
X17031277Y-15225174D02*
X17050325Y-15215650D01*
X17050325Y-15215650D02*
X17088420Y-15215650D01*
X17088420Y-15215650D02*
X17107468Y-15225174D01*
X17107468Y-15225174D02*
X17116992Y-15244222D01*
X17116992Y-15244222D02*
X17116992Y-15263269D01*
X17116992Y-15263269D02*
X17021753Y-15282317D01*
X17193182Y-15339460D02*
X17212230Y-15348984D01*
X17212230Y-15348984D02*
X17250325Y-15348984D01*
X17250325Y-15348984D02*
X17269373Y-15339460D01*
X17269373Y-15339460D02*
X17278896Y-15320412D01*
X17278896Y-15320412D02*
X17278896Y-15310888D01*
X17278896Y-15310888D02*
X17269373Y-15291841D01*
X17269373Y-15291841D02*
X17250325Y-15282317D01*
X17250325Y-15282317D02*
X17221753Y-15282317D01*
X17221753Y-15282317D02*
X17202706Y-15272793D01*
X17202706Y-15272793D02*
X17193182Y-15253746D01*
X17193182Y-15253746D02*
X17193182Y-15244222D01*
X17193182Y-15244222D02*
X17202706Y-15225174D01*
X17202706Y-15225174D02*
X17221753Y-15215650D01*
X17221753Y-15215650D02*
X17250325Y-15215650D01*
X17250325Y-15215650D02*
X17269373Y-15225174D01*
X17345563Y-15425174D02*
X17355087Y-15415650D01*
X17355087Y-15415650D02*
X17374134Y-15387079D01*
X17374134Y-15387079D02*
X17383658Y-15368031D01*
X17383658Y-15368031D02*
X17393182Y-15339460D01*
X17393182Y-15339460D02*
X17402706Y-15291841D01*
X17402706Y-15291841D02*
X17402706Y-15253746D01*
X17402706Y-15253746D02*
X17393182Y-15206127D01*
X17393182Y-15206127D02*
X17383658Y-15177555D01*
X17383658Y-15177555D02*
X17374134Y-15158508D01*
X17374134Y-15158508D02*
X17355087Y-15129936D01*
X17355087Y-15129936D02*
X17345563Y-15120412D01*
D12*
X12520500Y-15471500D02*
X12520500Y-15571500D01*
X12470500Y-15521500D02*
X12570500Y-15521500D01*
D11*
X12936039Y-15612984D02*
X12821753Y-15612984D01*
X12878896Y-15612984D02*
X12878896Y-15412984D01*
X12878896Y-15412984D02*
X12859848Y-15441555D01*
X12859848Y-15441555D02*
X12840801Y-15460603D01*
X12840801Y-15460603D02*
X12821753Y-15470127D01*
X13021753Y-15593936D02*
X13031277Y-15603460D01*
X13031277Y-15603460D02*
X13021753Y-15612984D01*
X13021753Y-15612984D02*
X13012229Y-15603460D01*
X13012229Y-15603460D02*
X13021753Y-15593936D01*
X13021753Y-15593936D02*
X13021753Y-15612984D01*
X13155086Y-15412984D02*
X13174134Y-15412984D01*
X13174134Y-15412984D02*
X13193182Y-15422508D01*
X13193182Y-15422508D02*
X13202705Y-15432031D01*
X13202705Y-15432031D02*
X13212229Y-15451079D01*
X13212229Y-15451079D02*
X13221753Y-15489174D01*
X13221753Y-15489174D02*
X13221753Y-15536793D01*
X13221753Y-15536793D02*
X13212229Y-15574888D01*
X13212229Y-15574888D02*
X13202705Y-15593936D01*
X13202705Y-15593936D02*
X13193182Y-15603460D01*
X13193182Y-15603460D02*
X13174134Y-15612984D01*
X13174134Y-15612984D02*
X13155086Y-15612984D01*
X13155086Y-15612984D02*
X13136039Y-15603460D01*
X13136039Y-15603460D02*
X13126515Y-15593936D01*
X13126515Y-15593936D02*
X13116991Y-15574888D01*
X13116991Y-15574888D02*
X13107467Y-15536793D01*
X13107467Y-15536793D02*
X13107467Y-15489174D01*
X13107467Y-15489174D02*
X13116991Y-15451079D01*
X13116991Y-15451079D02*
X13126515Y-15432031D01*
X13126515Y-15432031D02*
X13136039Y-15422508D01*
X13136039Y-15422508D02*
X13155086Y-15412984D01*
X13345562Y-15412984D02*
X13364610Y-15412984D01*
X13364610Y-15412984D02*
X13383658Y-15422508D01*
X13383658Y-15422508D02*
X13393182Y-15432031D01*
X13393182Y-15432031D02*
X13402705Y-15451079D01*
X13402705Y-15451079D02*
X13412229Y-15489174D01*
X13412229Y-15489174D02*
X13412229Y-15536793D01*
X13412229Y-15536793D02*
X13402705Y-15574888D01*
X13402705Y-15574888D02*
X13393182Y-15593936D01*
X13393182Y-15593936D02*
X13383658Y-15603460D01*
X13383658Y-15603460D02*
X13364610Y-15612984D01*
X13364610Y-15612984D02*
X13345562Y-15612984D01*
X13345562Y-15612984D02*
X13326515Y-15603460D01*
X13326515Y-15603460D02*
X13316991Y-15593936D01*
X13316991Y-15593936D02*
X13307467Y-15574888D01*
X13307467Y-15574888D02*
X13297943Y-15536793D01*
X13297943Y-15536793D02*
X13297943Y-15489174D01*
X13297943Y-15489174D02*
X13307467Y-15451079D01*
X13307467Y-15451079D02*
X13316991Y-15432031D01*
X13316991Y-15432031D02*
X13326515Y-15422508D01*
X13326515Y-15422508D02*
X13345562Y-15412984D01*
X13536039Y-15412984D02*
X13555086Y-15412984D01*
X13555086Y-15412984D02*
X13574134Y-15422508D01*
X13574134Y-15422508D02*
X13583658Y-15432031D01*
X13583658Y-15432031D02*
X13593182Y-15451079D01*
X13593182Y-15451079D02*
X13602705Y-15489174D01*
X13602705Y-15489174D02*
X13602705Y-15536793D01*
X13602705Y-15536793D02*
X13593182Y-15574888D01*
X13593182Y-15574888D02*
X13583658Y-15593936D01*
X13583658Y-15593936D02*
X13574134Y-15603460D01*
X13574134Y-15603460D02*
X13555086Y-15612984D01*
X13555086Y-15612984D02*
X13536039Y-15612984D01*
X13536039Y-15612984D02*
X13516991Y-15603460D01*
X13516991Y-15603460D02*
X13507467Y-15593936D01*
X13507467Y-15593936D02*
X13497943Y-15574888D01*
X13497943Y-15574888D02*
X13488420Y-15536793D01*
X13488420Y-15536793D02*
X13488420Y-15489174D01*
X13488420Y-15489174D02*
X13497943Y-15451079D01*
X13497943Y-15451079D02*
X13507467Y-15432031D01*
X13507467Y-15432031D02*
X13516991Y-15422508D01*
X13516991Y-15422508D02*
X13536039Y-15412984D01*
X13688420Y-15612984D02*
X13688420Y-15479650D01*
X13688420Y-15498698D02*
X13697943Y-15489174D01*
X13697943Y-15489174D02*
X13716991Y-15479650D01*
X13716991Y-15479650D02*
X13745563Y-15479650D01*
X13745563Y-15479650D02*
X13764610Y-15489174D01*
X13764610Y-15489174D02*
X13774134Y-15508222D01*
X13774134Y-15508222D02*
X13774134Y-15612984D01*
X13774134Y-15508222D02*
X13783658Y-15489174D01*
X13783658Y-15489174D02*
X13802705Y-15479650D01*
X13802705Y-15479650D02*
X13831277Y-15479650D01*
X13831277Y-15479650D02*
X13850324Y-15489174D01*
X13850324Y-15489174D02*
X13859848Y-15508222D01*
X13859848Y-15508222D02*
X13859848Y-15612984D01*
X13955086Y-15612984D02*
X13955086Y-15479650D01*
X13955086Y-15498698D02*
X13964610Y-15489174D01*
X13964610Y-15489174D02*
X13983658Y-15479650D01*
X13983658Y-15479650D02*
X14012229Y-15479650D01*
X14012229Y-15479650D02*
X14031277Y-15489174D01*
X14031277Y-15489174D02*
X14040801Y-15508222D01*
X14040801Y-15508222D02*
X14040801Y-15612984D01*
X14040801Y-15508222D02*
X14050324Y-15489174D01*
X14050324Y-15489174D02*
X14069372Y-15479650D01*
X14069372Y-15479650D02*
X14097943Y-15479650D01*
X14097943Y-15479650D02*
X14116991Y-15489174D01*
X14116991Y-15489174D02*
X14126515Y-15508222D01*
X14126515Y-15508222D02*
X14126515Y-15612984D01*
X14516991Y-15403460D02*
X14345563Y-15660603D01*
X14774134Y-15412984D02*
X14793182Y-15412984D01*
X14793182Y-15412984D02*
X14812229Y-15422508D01*
X14812229Y-15422508D02*
X14821753Y-15432031D01*
X14821753Y-15432031D02*
X14831277Y-15451079D01*
X14831277Y-15451079D02*
X14840801Y-15489174D01*
X14840801Y-15489174D02*
X14840801Y-15536793D01*
X14840801Y-15536793D02*
X14831277Y-15574888D01*
X14831277Y-15574888D02*
X14821753Y-15593936D01*
X14821753Y-15593936D02*
X14812229Y-15603460D01*
X14812229Y-15603460D02*
X14793182Y-15612984D01*
X14793182Y-15612984D02*
X14774134Y-15612984D01*
X14774134Y-15612984D02*
X14755086Y-15603460D01*
X14755086Y-15603460D02*
X14745563Y-15593936D01*
X14745563Y-15593936D02*
X14736039Y-15574888D01*
X14736039Y-15574888D02*
X14726515Y-15536793D01*
X14726515Y-15536793D02*
X14726515Y-15489174D01*
X14726515Y-15489174D02*
X14736039Y-15451079D01*
X14736039Y-15451079D02*
X14745563Y-15432031D01*
X14745563Y-15432031D02*
X14755086Y-15422508D01*
X14755086Y-15422508D02*
X14774134Y-15412984D01*
X14926515Y-15593936D02*
X14936039Y-15603460D01*
X14936039Y-15603460D02*
X14926515Y-15612984D01*
X14926515Y-15612984D02*
X14916991Y-15603460D01*
X14916991Y-15603460D02*
X14926515Y-15593936D01*
X14926515Y-15593936D02*
X14926515Y-15612984D01*
X15059848Y-15412984D02*
X15078896Y-15412984D01*
X15078896Y-15412984D02*
X15097944Y-15422508D01*
X15097944Y-15422508D02*
X15107467Y-15432031D01*
X15107467Y-15432031D02*
X15116991Y-15451079D01*
X15116991Y-15451079D02*
X15126515Y-15489174D01*
X15126515Y-15489174D02*
X15126515Y-15536793D01*
X15126515Y-15536793D02*
X15116991Y-15574888D01*
X15116991Y-15574888D02*
X15107467Y-15593936D01*
X15107467Y-15593936D02*
X15097944Y-15603460D01*
X15097944Y-15603460D02*
X15078896Y-15612984D01*
X15078896Y-15612984D02*
X15059848Y-15612984D01*
X15059848Y-15612984D02*
X15040801Y-15603460D01*
X15040801Y-15603460D02*
X15031277Y-15593936D01*
X15031277Y-15593936D02*
X15021753Y-15574888D01*
X15021753Y-15574888D02*
X15012229Y-15536793D01*
X15012229Y-15536793D02*
X15012229Y-15489174D01*
X15012229Y-15489174D02*
X15021753Y-15451079D01*
X15021753Y-15451079D02*
X15031277Y-15432031D01*
X15031277Y-15432031D02*
X15040801Y-15422508D01*
X15040801Y-15422508D02*
X15059848Y-15412984D01*
X15193182Y-15412984D02*
X15316991Y-15412984D01*
X15316991Y-15412984D02*
X15250325Y-15489174D01*
X15250325Y-15489174D02*
X15278896Y-15489174D01*
X15278896Y-15489174D02*
X15297944Y-15498698D01*
X15297944Y-15498698D02*
X15307467Y-15508222D01*
X15307467Y-15508222D02*
X15316991Y-15527269D01*
X15316991Y-15527269D02*
X15316991Y-15574888D01*
X15316991Y-15574888D02*
X15307467Y-15593936D01*
X15307467Y-15593936D02*
X15297944Y-15603460D01*
X15297944Y-15603460D02*
X15278896Y-15612984D01*
X15278896Y-15612984D02*
X15221753Y-15612984D01*
X15221753Y-15612984D02*
X15202706Y-15603460D01*
X15202706Y-15603460D02*
X15193182Y-15593936D01*
X15412229Y-15612984D02*
X15450325Y-15612984D01*
X15450325Y-15612984D02*
X15469372Y-15603460D01*
X15469372Y-15603460D02*
X15478896Y-15593936D01*
X15478896Y-15593936D02*
X15497944Y-15565365D01*
X15497944Y-15565365D02*
X15507467Y-15527269D01*
X15507467Y-15527269D02*
X15507467Y-15451079D01*
X15507467Y-15451079D02*
X15497944Y-15432031D01*
X15497944Y-15432031D02*
X15488420Y-15422508D01*
X15488420Y-15422508D02*
X15469372Y-15412984D01*
X15469372Y-15412984D02*
X15431277Y-15412984D01*
X15431277Y-15412984D02*
X15412229Y-15422508D01*
X15412229Y-15422508D02*
X15402706Y-15432031D01*
X15402706Y-15432031D02*
X15393182Y-15451079D01*
X15393182Y-15451079D02*
X15393182Y-15498698D01*
X15393182Y-15498698D02*
X15402706Y-15517746D01*
X15402706Y-15517746D02*
X15412229Y-15527269D01*
X15412229Y-15527269D02*
X15431277Y-15536793D01*
X15431277Y-15536793D02*
X15469372Y-15536793D01*
X15469372Y-15536793D02*
X15488420Y-15527269D01*
X15488420Y-15527269D02*
X15497944Y-15517746D01*
X15497944Y-15517746D02*
X15507467Y-15498698D01*
X15678896Y-15479650D02*
X15678896Y-15612984D01*
X15631277Y-15403460D02*
X15583658Y-15546317D01*
X15583658Y-15546317D02*
X15707467Y-15546317D01*
X15774134Y-15412984D02*
X15774134Y-15451079D01*
X15850325Y-15412984D02*
X15850325Y-15451079D01*
X16145563Y-15689174D02*
X16136039Y-15679650D01*
X16136039Y-15679650D02*
X16116991Y-15651079D01*
X16116991Y-15651079D02*
X16107468Y-15632031D01*
X16107468Y-15632031D02*
X16097944Y-15603460D01*
X16097944Y-15603460D02*
X16088420Y-15555841D01*
X16088420Y-15555841D02*
X16088420Y-15517746D01*
X16088420Y-15517746D02*
X16097944Y-15470127D01*
X16097944Y-15470127D02*
X16107468Y-15441555D01*
X16107468Y-15441555D02*
X16116991Y-15422508D01*
X16116991Y-15422508D02*
X16136039Y-15393936D01*
X16136039Y-15393936D02*
X16145563Y-15384412D01*
X16202706Y-15412984D02*
X16326515Y-15412984D01*
X16326515Y-15412984D02*
X16259848Y-15489174D01*
X16259848Y-15489174D02*
X16288420Y-15489174D01*
X16288420Y-15489174D02*
X16307468Y-15498698D01*
X16307468Y-15498698D02*
X16316991Y-15508222D01*
X16316991Y-15508222D02*
X16326515Y-15527269D01*
X16326515Y-15527269D02*
X16326515Y-15574888D01*
X16326515Y-15574888D02*
X16316991Y-15593936D01*
X16316991Y-15593936D02*
X16307468Y-15603460D01*
X16307468Y-15603460D02*
X16288420Y-15612984D01*
X16288420Y-15612984D02*
X16231277Y-15612984D01*
X16231277Y-15612984D02*
X16212229Y-15603460D01*
X16212229Y-15603460D02*
X16202706Y-15593936D01*
X16497944Y-15412984D02*
X16459848Y-15412984D01*
X16459848Y-15412984D02*
X16440801Y-15422508D01*
X16440801Y-15422508D02*
X16431277Y-15432031D01*
X16431277Y-15432031D02*
X16412229Y-15460603D01*
X16412229Y-15460603D02*
X16402706Y-15498698D01*
X16402706Y-15498698D02*
X16402706Y-15574888D01*
X16402706Y-15574888D02*
X16412229Y-15593936D01*
X16412229Y-15593936D02*
X16421753Y-15603460D01*
X16421753Y-15603460D02*
X16440801Y-15612984D01*
X16440801Y-15612984D02*
X16478896Y-15612984D01*
X16478896Y-15612984D02*
X16497944Y-15603460D01*
X16497944Y-15603460D02*
X16507468Y-15593936D01*
X16507468Y-15593936D02*
X16516991Y-15574888D01*
X16516991Y-15574888D02*
X16516991Y-15527269D01*
X16516991Y-15527269D02*
X16507468Y-15508222D01*
X16507468Y-15508222D02*
X16497944Y-15498698D01*
X16497944Y-15498698D02*
X16478896Y-15489174D01*
X16478896Y-15489174D02*
X16440801Y-15489174D01*
X16440801Y-15489174D02*
X16421753Y-15498698D01*
X16421753Y-15498698D02*
X16412229Y-15508222D01*
X16412229Y-15508222D02*
X16402706Y-15527269D01*
X16755087Y-15612984D02*
X16755087Y-15412984D01*
X16840801Y-15612984D02*
X16840801Y-15508222D01*
X16840801Y-15508222D02*
X16831277Y-15489174D01*
X16831277Y-15489174D02*
X16812230Y-15479650D01*
X16812230Y-15479650D02*
X16783658Y-15479650D01*
X16783658Y-15479650D02*
X16764610Y-15489174D01*
X16764610Y-15489174D02*
X16755087Y-15498698D01*
X16964611Y-15612984D02*
X16945563Y-15603460D01*
X16945563Y-15603460D02*
X16936039Y-15593936D01*
X16936039Y-15593936D02*
X16926515Y-15574888D01*
X16926515Y-15574888D02*
X16926515Y-15517746D01*
X16926515Y-15517746D02*
X16936039Y-15498698D01*
X16936039Y-15498698D02*
X16945563Y-15489174D01*
X16945563Y-15489174D02*
X16964611Y-15479650D01*
X16964611Y-15479650D02*
X16993182Y-15479650D01*
X16993182Y-15479650D02*
X17012230Y-15489174D01*
X17012230Y-15489174D02*
X17021753Y-15498698D01*
X17021753Y-15498698D02*
X17031277Y-15517746D01*
X17031277Y-15517746D02*
X17031277Y-15574888D01*
X17031277Y-15574888D02*
X17021753Y-15593936D01*
X17021753Y-15593936D02*
X17012230Y-15603460D01*
X17012230Y-15603460D02*
X16993182Y-15612984D01*
X16993182Y-15612984D02*
X16964611Y-15612984D01*
X17145563Y-15612984D02*
X17126515Y-15603460D01*
X17126515Y-15603460D02*
X17116992Y-15584412D01*
X17116992Y-15584412D02*
X17116992Y-15412984D01*
X17297944Y-15603460D02*
X17278896Y-15612984D01*
X17278896Y-15612984D02*
X17240801Y-15612984D01*
X17240801Y-15612984D02*
X17221753Y-15603460D01*
X17221753Y-15603460D02*
X17212230Y-15584412D01*
X17212230Y-15584412D02*
X17212230Y-15508222D01*
X17212230Y-15508222D02*
X17221753Y-15489174D01*
X17221753Y-15489174D02*
X17240801Y-15479650D01*
X17240801Y-15479650D02*
X17278896Y-15479650D01*
X17278896Y-15479650D02*
X17297944Y-15489174D01*
X17297944Y-15489174D02*
X17307468Y-15508222D01*
X17307468Y-15508222D02*
X17307468Y-15527269D01*
X17307468Y-15527269D02*
X17212230Y-15546317D01*
X17383658Y-15603460D02*
X17402706Y-15612984D01*
X17402706Y-15612984D02*
X17440801Y-15612984D01*
X17440801Y-15612984D02*
X17459849Y-15603460D01*
X17459849Y-15603460D02*
X17469373Y-15584412D01*
X17469373Y-15584412D02*
X17469373Y-15574888D01*
X17469373Y-15574888D02*
X17459849Y-15555841D01*
X17459849Y-15555841D02*
X17440801Y-15546317D01*
X17440801Y-15546317D02*
X17412230Y-15546317D01*
X17412230Y-15546317D02*
X17393182Y-15536793D01*
X17393182Y-15536793D02*
X17383658Y-15517746D01*
X17383658Y-15517746D02*
X17383658Y-15508222D01*
X17383658Y-15508222D02*
X17393182Y-15489174D01*
X17393182Y-15489174D02*
X17412230Y-15479650D01*
X17412230Y-15479650D02*
X17440801Y-15479650D01*
X17440801Y-15479650D02*
X17459849Y-15489174D01*
X17536039Y-15689174D02*
X17545563Y-15679650D01*
X17545563Y-15679650D02*
X17564611Y-15651079D01*
X17564611Y-15651079D02*
X17574134Y-15632031D01*
X17574134Y-15632031D02*
X17583658Y-15603460D01*
X17583658Y-15603460D02*
X17593182Y-15555841D01*
X17593182Y-15555841D02*
X17593182Y-15517746D01*
X17593182Y-15517746D02*
X17583658Y-15470127D01*
X17583658Y-15470127D02*
X17574134Y-15441555D01*
X17574134Y-15441555D02*
X17564611Y-15422508D01*
X17564611Y-15422508D02*
X17545563Y-15393936D01*
X17545563Y-15393936D02*
X17536039Y-15384412D01*
M02*
