G04 #@! TF.GenerationSoftware,KiCad,Pcbnew,9.0.6*
G04 #@! TF.CreationDate,2026-01-07T17:17:41-06:00*
G04 #@! TF.ProjectId,QFN-32_5x5_P0.5,51464e2d-3332-45f3-9578-355f50302e35,rev?*
G04 #@! TF.SameCoordinates,Original*
G04 #@! TF.FileFunction,Soldermask,Bot*
G04 #@! TF.FilePolarity,Negative*
%FSLAX46Y46*%
G04 Gerber Fmt 4.6, Leading zero omitted, Abs format (unit mm)*
G04 Created by KiCad (PCBNEW 9.0.6) date 2026-01-07 17:17:41*
%MOMM*%
%LPD*%
G01*
G04 APERTURE LIST*
%ADD10C,1.700000*%
%ADD11R,1.700000X1.700000*%
%ADD12R,2.510000X1.000000*%
G04 APERTURE END LIST*
D10*
X127000000Y-99061642D03*
D11*
X127000000Y-101601642D03*
D10*
X127000000Y-104141642D03*
X127000000Y-106681642D03*
X127000000Y-109221642D03*
X127000000Y-111761642D03*
X127000000Y-114301642D03*
X127000000Y-116841642D03*
X127000000Y-119381642D03*
X127000000Y-121921642D03*
X127000000Y-124461642D03*
X127000000Y-127001642D03*
X127000000Y-129541642D03*
X127000000Y-132081642D03*
X127000000Y-134621642D03*
X127000000Y-137161642D03*
X127000000Y-139701642D03*
X127000000Y-142241642D03*
X149860000Y-99061642D03*
X149860000Y-101601642D03*
X149860000Y-104141642D03*
X149860000Y-106681642D03*
X149860000Y-109221642D03*
X149860000Y-111761642D03*
X149860000Y-114301642D03*
X149860000Y-116841642D03*
X149860000Y-119381642D03*
X149860000Y-121921642D03*
X149860000Y-124461642D03*
X149860000Y-127001642D03*
X149860000Y-129541642D03*
X149860000Y-132081642D03*
X149860000Y-134621642D03*
X149860000Y-137161642D03*
X149860000Y-139701642D03*
X149860000Y-142241642D03*
D12*
X133735000Y-99056642D03*
X130425000Y-101596642D03*
X133735000Y-104136642D03*
X130425000Y-106676642D03*
X133735000Y-109216642D03*
X130425000Y-111756642D03*
X133735000Y-114296642D03*
X130425000Y-116836642D03*
X133735000Y-119376642D03*
X130425000Y-121916642D03*
X133735000Y-124456642D03*
X130425000Y-126996642D03*
X133735000Y-129536642D03*
X130425000Y-132076642D03*
X133735000Y-134616642D03*
X130425000Y-137156642D03*
X133735000Y-139696642D03*
X130425000Y-142236642D03*
X143125000Y-99056642D03*
X146435000Y-101596642D03*
X143125000Y-104136642D03*
X146435000Y-106676642D03*
X143125000Y-109216642D03*
X146435000Y-111756642D03*
X143125000Y-114296642D03*
X146435000Y-116836642D03*
X143125000Y-119376642D03*
X146435000Y-121916642D03*
X143125000Y-124456642D03*
X146435000Y-126996642D03*
X143125000Y-129536642D03*
X146435000Y-132076642D03*
X143125000Y-134616642D03*
X146435000Y-137156642D03*
X143125000Y-139696642D03*
X146435000Y-142236642D03*
M02*
