G04 #@! TF.GenerationSoftware,KiCad,Pcbnew,9.0.6*
G04 #@! TF.CreationDate,2026-01-02T14:07:03-06:00*
G04 #@! TF.ProjectId,QFN-16_3x3,51464e2d-3136-45f3-9378-332e6b696361,rev?*
G04 #@! TF.SameCoordinates,Original*
G04 #@! TF.FileFunction,Legend,Top*
G04 #@! TF.FilePolarity,Positive*
%FSLAX46Y46*%
G04 Gerber Fmt 4.6, Leading zero omitted, Abs format (unit mm)*
G04 Created by KiCad (PCBNEW 9.0.6) date 2026-01-02 14:07:03*
%MOMM*%
%LPD*%
G01*
G04 APERTURE LIST*
G04 Aperture macros list*
%AMRoundRect*
0 Rectangle with rounded corners*
0 $1 Rounding radius*
0 $2 $3 $4 $5 $6 $7 $8 $9 X,Y pos of 4 corners*
0 Add a 4 corners polygon primitive as box body*
4,1,4,$2,$3,$4,$5,$6,$7,$8,$9,$2,$3,0*
0 Add four circle primitives for the rounded corners*
1,1,$1+$1,$2,$3*
1,1,$1+$1,$4,$5*
1,1,$1+$1,$6,$7*
1,1,$1+$1,$8,$9*
0 Add four rect primitives between the rounded corners*
20,1,$1+$1,$2,$3,$4,$5,0*
20,1,$1+$1,$4,$5,$6,$7,0*
20,1,$1+$1,$6,$7,$8,$9,0*
20,1,$1+$1,$8,$9,$2,$3,0*%
%AMRotRect*
0 Rectangle, with rotation*
0 The origin of the aperture is its center*
0 $1 length*
0 $2 width*
0 $3 Rotation angle, in degrees counterclockwise*
0 Add horizontal line*
21,1,$1,$2,0,0,$3*%
G04 Aperture macros list end*
%ADD10C,0.100000*%
%ADD11C,0.200000*%
%ADD12C,0.150000*%
%ADD13C,0.000000*%
%ADD14C,0.120000*%
%ADD15RoundRect,0.062500X-0.437522X0.349134X0.349134X-0.437522X0.437522X-0.349134X-0.349134X0.437522X0*%
%ADD16RoundRect,0.062500X-0.437522X-0.349134X-0.349134X-0.437522X0.437522X0.349134X0.349134X0.437522X0*%
%ADD17RotRect,1.700000X1.700000X315.000000*%
%ADD18C,1.700000*%
%ADD19R,1.700000X1.700000*%
G04 APERTURE END LIST*
D10*
X138334259Y-133304877D02*
X133354677Y-133306342D01*
X133350165Y-132690264D01*
X138329748Y-132688799D01*
X138334259Y-133304877D01*
G36*
X138334259Y-133304877D02*
G01*
X133354677Y-133306342D01*
X133350165Y-132690264D01*
X138329748Y-132688799D01*
X138334259Y-133304877D01*
G37*
G36*
X133128228Y-132814159D02*
G01*
X133161764Y-132847695D01*
X133179489Y-132883147D01*
X133200475Y-132967088D01*
X133200475Y-133026207D01*
X133179489Y-133110148D01*
X133161764Y-133145600D01*
X133128226Y-133179138D01*
X133075696Y-133196648D01*
X133014761Y-133196648D01*
X133014761Y-132796648D01*
X133075695Y-132796648D01*
X133128228Y-132814159D01*
G37*
G36*
X130966820Y-133053791D02*
G01*
X130867467Y-133053791D01*
X130917143Y-132904761D01*
X130966820Y-133053791D01*
G37*
G36*
X132681105Y-133053791D02*
G01*
X132581752Y-133053791D01*
X132631428Y-132904761D01*
X132681105Y-133053791D01*
G37*
G36*
X129958952Y-132811550D02*
G01*
X129971287Y-132823883D01*
X129986190Y-132853689D01*
X129986190Y-132901511D01*
X129971287Y-132931317D01*
X129958952Y-132943650D01*
X129929149Y-132958553D01*
X129800476Y-132958553D01*
X129800476Y-132796648D01*
X129929149Y-132796648D01*
X129958952Y-132811550D01*
G37*
G36*
X132244666Y-132811550D02*
G01*
X132257001Y-132823883D01*
X132271904Y-132853689D01*
X132271904Y-132901511D01*
X132257001Y-132931317D01*
X132244666Y-132943650D01*
X132214863Y-132958553D01*
X132086190Y-132958553D01*
X132086190Y-132796648D01*
X132214863Y-132796648D01*
X132244666Y-132811550D01*
G37*
G36*
X133356031Y-133352204D02*
G01*
X128220155Y-133352204D01*
X128220155Y-132727514D01*
X128275711Y-132727514D01*
X128275711Y-132765782D01*
X128302771Y-132792842D01*
X128321905Y-132796648D01*
X128414762Y-132796648D01*
X128414762Y-133246648D01*
X128418568Y-133265782D01*
X128445628Y-133292842D01*
X128483896Y-133292842D01*
X128510956Y-133265782D01*
X128514762Y-133246648D01*
X128514762Y-132796648D01*
X128607619Y-132796648D01*
X128626753Y-132792842D01*
X128653813Y-132765782D01*
X128653813Y-132746648D01*
X128724285Y-132746648D01*
X128724285Y-133246648D01*
X128728091Y-133265782D01*
X128755151Y-133292842D01*
X128793419Y-133292842D01*
X128820479Y-133265782D01*
X128824285Y-133246648D01*
X128824285Y-133034743D01*
X129009999Y-133034743D01*
X129009999Y-133246648D01*
X129013805Y-133265782D01*
X129040865Y-133292842D01*
X129079133Y-133292842D01*
X129106193Y-133265782D01*
X129109999Y-133246648D01*
X129109999Y-132746648D01*
X129248095Y-132746648D01*
X129248095Y-133246648D01*
X129251901Y-133265782D01*
X129278961Y-133292842D01*
X129298095Y-133296648D01*
X129536190Y-133296648D01*
X129555324Y-133292842D01*
X129582384Y-133265782D01*
X129582384Y-133227514D01*
X129555324Y-133200454D01*
X129536190Y-133196648D01*
X129348095Y-133196648D01*
X129348095Y-133034743D01*
X129464762Y-133034743D01*
X129483896Y-133030937D01*
X129510956Y-133003877D01*
X129510956Y-132965609D01*
X129483896Y-132938549D01*
X129464762Y-132934743D01*
X129348095Y-132934743D01*
X129348095Y-132796648D01*
X129536190Y-132796648D01*
X129555324Y-132792842D01*
X129582384Y-132765782D01*
X129582384Y-132746648D01*
X129700476Y-132746648D01*
X129700476Y-133246648D01*
X129704282Y-133265782D01*
X129731342Y-133292842D01*
X129769610Y-133292842D01*
X129796670Y-133265782D01*
X129800476Y-133246648D01*
X129800476Y-133058553D01*
X129843491Y-133058553D01*
X129995229Y-133275321D01*
X130009319Y-133288814D01*
X130047005Y-133295464D01*
X130078356Y-133273519D01*
X130085006Y-133235833D01*
X130077152Y-133217975D01*
X129962095Y-133053607D01*
X129963313Y-133053274D01*
X130010932Y-133029464D01*
X130017263Y-133024550D01*
X130023926Y-133020099D01*
X130047736Y-132996290D01*
X130052189Y-132989625D01*
X130057103Y-132983294D01*
X130080911Y-132935676D01*
X130081572Y-132933260D01*
X130082384Y-132932449D01*
X130083947Y-132924587D01*
X130086064Y-132916860D01*
X130085701Y-132915771D01*
X130086190Y-132913315D01*
X130086190Y-132841886D01*
X130085701Y-132839429D01*
X130086064Y-132838341D01*
X130083947Y-132830613D01*
X130082384Y-132822752D01*
X130081572Y-132821940D01*
X130080911Y-132819525D01*
X130057103Y-132771907D01*
X130052189Y-132765575D01*
X130047736Y-132758911D01*
X130035472Y-132746648D01*
X130200476Y-132746648D01*
X130200476Y-133246648D01*
X130204282Y-133265782D01*
X130231342Y-133292842D01*
X130269610Y-133292842D01*
X130296670Y-133265782D01*
X130300476Y-133246648D01*
X130300476Y-132972025D01*
X130371834Y-133124935D01*
X130379456Y-133135324D01*
X130380269Y-133137560D01*
X130381526Y-133138146D01*
X130383374Y-133140665D01*
X130399446Y-133146509D01*
X130414947Y-133153743D01*
X130417143Y-133152944D01*
X130419339Y-133153743D01*
X130434839Y-133146509D01*
X130450912Y-133140665D01*
X130452759Y-133138146D01*
X130454017Y-133137560D01*
X130454829Y-133135324D01*
X130462452Y-133124935D01*
X130533809Y-132972026D01*
X130533809Y-133246648D01*
X130537615Y-133265782D01*
X130564675Y-133292842D01*
X130602943Y-133292842D01*
X130630003Y-133265782D01*
X130633104Y-133250192D01*
X130700603Y-133250192D01*
X130717717Y-133284421D01*
X130754021Y-133296522D01*
X130788250Y-133279408D01*
X130797911Y-133262459D01*
X130834134Y-133153791D01*
X131000153Y-133153791D01*
X131036376Y-133262459D01*
X131046037Y-133279408D01*
X131080266Y-133296522D01*
X131116570Y-133284420D01*
X131133684Y-133250192D01*
X131131244Y-133230836D01*
X130969847Y-132746648D01*
X131200476Y-132746648D01*
X131200476Y-133246648D01*
X131204282Y-133265782D01*
X131231342Y-133292842D01*
X131250476Y-133296648D01*
X131488571Y-133296648D01*
X131507705Y-133292842D01*
X131534765Y-133265782D01*
X131534765Y-133227514D01*
X131507705Y-133200454D01*
X131488571Y-133196648D01*
X131300476Y-133196648D01*
X131300476Y-132746648D01*
X131986190Y-132746648D01*
X131986190Y-133246648D01*
X131989996Y-133265782D01*
X132017056Y-133292842D01*
X132055324Y-133292842D01*
X132082384Y-133265782D01*
X132085485Y-133250192D01*
X132414888Y-133250192D01*
X132432002Y-133284421D01*
X132468306Y-133296522D01*
X132502535Y-133279408D01*
X132512196Y-133262459D01*
X132548419Y-133153791D01*
X132714438Y-133153791D01*
X132750661Y-133262459D01*
X132760322Y-133279408D01*
X132794551Y-133296522D01*
X132830855Y-133284420D01*
X132847969Y-133250192D01*
X132845529Y-133230836D01*
X132684132Y-132746648D01*
X132914761Y-132746648D01*
X132914761Y-133246648D01*
X132918567Y-133265782D01*
X132945627Y-133292842D01*
X132964761Y-133296648D01*
X133083809Y-133296648D01*
X133091671Y-133295084D01*
X133099620Y-133294082D01*
X133171049Y-133270273D01*
X133173224Y-133269033D01*
X133174372Y-133269033D01*
X133181036Y-133264579D01*
X133187997Y-133260612D01*
X133188510Y-133259585D01*
X133190593Y-133258194D01*
X133238212Y-133210574D01*
X133242665Y-133203908D01*
X133247577Y-133197580D01*
X133271387Y-133149961D01*
X133272833Y-133144679D01*
X133275173Y-133139727D01*
X133298982Y-133044489D01*
X133299279Y-133038371D01*
X133300475Y-133032362D01*
X133300475Y-132960934D01*
X133299279Y-132954924D01*
X133298982Y-132948807D01*
X133275173Y-132853569D01*
X133272833Y-132848616D01*
X133271387Y-132843335D01*
X133247577Y-132795716D01*
X133242665Y-132789387D01*
X133238211Y-132782721D01*
X133190592Y-132735103D01*
X133188509Y-132733711D01*
X133187997Y-132732686D01*
X133181035Y-132728717D01*
X133174371Y-132724264D01*
X133173224Y-132724264D01*
X133171049Y-132723024D01*
X133099621Y-132699214D01*
X133091670Y-132698211D01*
X133083809Y-132696648D01*
X132964761Y-132696648D01*
X132945627Y-132700454D01*
X132918567Y-132727514D01*
X132914761Y-132746648D01*
X132684132Y-132746648D01*
X132678862Y-132730837D01*
X132669201Y-132713888D01*
X132665858Y-132712217D01*
X132664188Y-132708875D01*
X132649148Y-132703861D01*
X132634972Y-132696774D01*
X132631428Y-132697955D01*
X132627884Y-132696774D01*
X132613707Y-132703861D01*
X132598668Y-132708875D01*
X132596997Y-132712217D01*
X132593655Y-132713888D01*
X132583994Y-132730837D01*
X132417328Y-133230837D01*
X132414888Y-133250192D01*
X132085485Y-133250192D01*
X132086190Y-133246648D01*
X132086190Y-133058553D01*
X132226666Y-133058553D01*
X132229122Y-133058064D01*
X132230211Y-133058427D01*
X132237938Y-133056310D01*
X132245800Y-133054747D01*
X132246611Y-133053935D01*
X132249027Y-133053274D01*
X132296646Y-133029464D01*
X132302977Y-133024550D01*
X132309640Y-133020099D01*
X132333450Y-132996290D01*
X132337903Y-132989625D01*
X132342817Y-132983294D01*
X132366625Y-132935676D01*
X132367286Y-132933260D01*
X132368098Y-132932449D01*
X132369661Y-132924587D01*
X132371778Y-132916860D01*
X132371415Y-132915771D01*
X132371904Y-132913315D01*
X132371904Y-132841886D01*
X132371415Y-132839429D01*
X132371778Y-132838341D01*
X132369661Y-132830613D01*
X132368098Y-132822752D01*
X132367286Y-132821940D01*
X132366625Y-132819525D01*
X132342817Y-132771907D01*
X132337903Y-132765575D01*
X132333450Y-132758911D01*
X132309640Y-132735102D01*
X132302977Y-132730650D01*
X132296646Y-132725737D01*
X132249027Y-132701927D01*
X132246611Y-132701265D01*
X132245800Y-132700454D01*
X132237938Y-132698890D01*
X132230211Y-132696774D01*
X132229122Y-132697136D01*
X132226666Y-132696648D01*
X132036190Y-132696648D01*
X132017056Y-132700454D01*
X131989996Y-132727514D01*
X131986190Y-132746648D01*
X131300476Y-132746648D01*
X131296670Y-132727514D01*
X131269610Y-132700454D01*
X131231342Y-132700454D01*
X131204282Y-132727514D01*
X131200476Y-132746648D01*
X130969847Y-132746648D01*
X130964577Y-132730837D01*
X130954916Y-132713888D01*
X130951573Y-132712217D01*
X130949903Y-132708875D01*
X130934863Y-132703861D01*
X130920687Y-132696774D01*
X130917143Y-132697955D01*
X130913599Y-132696774D01*
X130899422Y-132703861D01*
X130884383Y-132708875D01*
X130882712Y-132712217D01*
X130879370Y-132713888D01*
X130869709Y-132730837D01*
X130703043Y-133230837D01*
X130700603Y-133250192D01*
X130633104Y-133250192D01*
X130633809Y-133246648D01*
X130633809Y-132746648D01*
X130630003Y-132727514D01*
X130623720Y-132721231D01*
X130620683Y-132712879D01*
X130610717Y-132708228D01*
X130602943Y-132700454D01*
X130594058Y-132700454D01*
X130586005Y-132696696D01*
X130575670Y-132700454D01*
X130564675Y-132700454D01*
X130558392Y-132706736D01*
X130550040Y-132709774D01*
X130538500Y-132725503D01*
X130417142Y-132985556D01*
X130295785Y-132725504D01*
X130284245Y-132709774D01*
X130275892Y-132706736D01*
X130269610Y-132700454D01*
X130258615Y-132700454D01*
X130248280Y-132696696D01*
X130240227Y-132700454D01*
X130231342Y-132700454D01*
X130223567Y-132708228D01*
X130213602Y-132712879D01*
X130210564Y-132721231D01*
X130204282Y-132727514D01*
X130200476Y-132746648D01*
X130035472Y-132746648D01*
X130023926Y-132735102D01*
X130017263Y-132730650D01*
X130010932Y-132725737D01*
X129963313Y-132701927D01*
X129960897Y-132701265D01*
X129960086Y-132700454D01*
X129952224Y-132698890D01*
X129944497Y-132696774D01*
X129943408Y-132697136D01*
X129940952Y-132696648D01*
X129750476Y-132696648D01*
X129731342Y-132700454D01*
X129704282Y-132727514D01*
X129700476Y-132746648D01*
X129582384Y-132746648D01*
X129582384Y-132727514D01*
X129555324Y-132700454D01*
X129536190Y-132696648D01*
X129298095Y-132696648D01*
X129278961Y-132700454D01*
X129251901Y-132727514D01*
X129248095Y-132746648D01*
X129109999Y-132746648D01*
X129106193Y-132727514D01*
X129079133Y-132700454D01*
X129040865Y-132700454D01*
X129013805Y-132727514D01*
X129009999Y-132746648D01*
X129009999Y-132934743D01*
X128824285Y-132934743D01*
X128824285Y-132746648D01*
X128820479Y-132727514D01*
X128793419Y-132700454D01*
X128755151Y-132700454D01*
X128728091Y-132727514D01*
X128724285Y-132746648D01*
X128653813Y-132746648D01*
X128653813Y-132727514D01*
X128626753Y-132700454D01*
X128607619Y-132696648D01*
X128321905Y-132696648D01*
X128302771Y-132700454D01*
X128275711Y-132727514D01*
X128220155Y-132727514D01*
X128220155Y-132641092D01*
X133356031Y-132641092D01*
X133356031Y-133352204D01*
G37*
X123362999Y-119905359D02*
X138317999Y-119905359D01*
X138317999Y-127499359D01*
X123362999Y-127499359D01*
X123362999Y-119905359D01*
G36*
X123362999Y-119905359D02*
G01*
X138317999Y-119905359D01*
X138317999Y-127499359D01*
X123362999Y-127499359D01*
X123362999Y-119905359D01*
G37*
D11*
X137028564Y-112212219D02*
X136457136Y-112212219D01*
X136742850Y-112212219D02*
X136742850Y-111212219D01*
X136742850Y-111212219D02*
X136647612Y-111355076D01*
X136647612Y-111355076D02*
X136552374Y-111450314D01*
X136552374Y-111450314D02*
X136457136Y-111497933D01*
X137885707Y-111212219D02*
X137695231Y-111212219D01*
X137695231Y-111212219D02*
X137599993Y-111259838D01*
X137599993Y-111259838D02*
X137552374Y-111307457D01*
X137552374Y-111307457D02*
X137457136Y-111450314D01*
X137457136Y-111450314D02*
X137409517Y-111640790D01*
X137409517Y-111640790D02*
X137409517Y-112021742D01*
X137409517Y-112021742D02*
X137457136Y-112116980D01*
X137457136Y-112116980D02*
X137504755Y-112164600D01*
X137504755Y-112164600D02*
X137599993Y-112212219D01*
X137599993Y-112212219D02*
X137790469Y-112212219D01*
X137790469Y-112212219D02*
X137885707Y-112164600D01*
X137885707Y-112164600D02*
X137933326Y-112116980D01*
X137933326Y-112116980D02*
X137980945Y-112021742D01*
X137980945Y-112021742D02*
X137980945Y-111783647D01*
X137980945Y-111783647D02*
X137933326Y-111688409D01*
X137933326Y-111688409D02*
X137885707Y-111640790D01*
X137885707Y-111640790D02*
X137790469Y-111593171D01*
X137790469Y-111593171D02*
X137599993Y-111593171D01*
X137599993Y-111593171D02*
X137504755Y-111640790D01*
X137504755Y-111640790D02*
X137457136Y-111688409D01*
X137457136Y-111688409D02*
X137409517Y-111783647D01*
X137504755Y-129992219D02*
X137695231Y-129992219D01*
X137695231Y-129992219D02*
X137790469Y-129944600D01*
X137790469Y-129944600D02*
X137838088Y-129896980D01*
X137838088Y-129896980D02*
X137933326Y-129754123D01*
X137933326Y-129754123D02*
X137980945Y-129563647D01*
X137980945Y-129563647D02*
X137980945Y-129182695D01*
X137980945Y-129182695D02*
X137933326Y-129087457D01*
X137933326Y-129087457D02*
X137885707Y-129039838D01*
X137885707Y-129039838D02*
X137790469Y-128992219D01*
X137790469Y-128992219D02*
X137599993Y-128992219D01*
X137599993Y-128992219D02*
X137504755Y-129039838D01*
X137504755Y-129039838D02*
X137457136Y-129087457D01*
X137457136Y-129087457D02*
X137409517Y-129182695D01*
X137409517Y-129182695D02*
X137409517Y-129420790D01*
X137409517Y-129420790D02*
X137457136Y-129516028D01*
X137457136Y-129516028D02*
X137504755Y-129563647D01*
X137504755Y-129563647D02*
X137599993Y-129611266D01*
X137599993Y-129611266D02*
X137790469Y-129611266D01*
X137790469Y-129611266D02*
X137885707Y-129563647D01*
X137885707Y-129563647D02*
X137933326Y-129516028D01*
X137933326Y-129516028D02*
X137980945Y-129420790D01*
X123829530Y-129420790D02*
X123734292Y-129373171D01*
X123734292Y-129373171D02*
X123686673Y-129325552D01*
X123686673Y-129325552D02*
X123639054Y-129230314D01*
X123639054Y-129230314D02*
X123639054Y-129182695D01*
X123639054Y-129182695D02*
X123686673Y-129087457D01*
X123686673Y-129087457D02*
X123734292Y-129039838D01*
X123734292Y-129039838D02*
X123829530Y-128992219D01*
X123829530Y-128992219D02*
X124020006Y-128992219D01*
X124020006Y-128992219D02*
X124115244Y-129039838D01*
X124115244Y-129039838D02*
X124162863Y-129087457D01*
X124162863Y-129087457D02*
X124210482Y-129182695D01*
X124210482Y-129182695D02*
X124210482Y-129230314D01*
X124210482Y-129230314D02*
X124162863Y-129325552D01*
X124162863Y-129325552D02*
X124115244Y-129373171D01*
X124115244Y-129373171D02*
X124020006Y-129420790D01*
X124020006Y-129420790D02*
X123829530Y-129420790D01*
X123829530Y-129420790D02*
X123734292Y-129468409D01*
X123734292Y-129468409D02*
X123686673Y-129516028D01*
X123686673Y-129516028D02*
X123639054Y-129611266D01*
X123639054Y-129611266D02*
X123639054Y-129801742D01*
X123639054Y-129801742D02*
X123686673Y-129896980D01*
X123686673Y-129896980D02*
X123734292Y-129944600D01*
X123734292Y-129944600D02*
X123829530Y-129992219D01*
X123829530Y-129992219D02*
X124020006Y-129992219D01*
X124020006Y-129992219D02*
X124115244Y-129944600D01*
X124115244Y-129944600D02*
X124162863Y-129896980D01*
X124162863Y-129896980D02*
X124210482Y-129801742D01*
X124210482Y-129801742D02*
X124210482Y-129611266D01*
X124210482Y-129611266D02*
X124162863Y-129516028D01*
X124162863Y-129516028D02*
X124115244Y-129468409D01*
X124115244Y-129468409D02*
X124020006Y-129420790D01*
X124210482Y-112212219D02*
X123639054Y-112212219D01*
X123924768Y-112212219D02*
X123924768Y-111212219D01*
X123924768Y-111212219D02*
X123829530Y-111355076D01*
X123829530Y-111355076D02*
X123734292Y-111450314D01*
X123734292Y-111450314D02*
X123639054Y-111497933D01*
D10*
X128223487Y-133351829D02*
X123321922Y-133353986D01*
X123317000Y-132693218D01*
X128218566Y-132691061D01*
X128223487Y-133351829D01*
G36*
X128223487Y-133351829D02*
G01*
X123321922Y-133353986D01*
X123317000Y-132693218D01*
X128218566Y-132691061D01*
X128223487Y-133351829D01*
G37*
X120540000Y-130920001D02*
X123260285Y-130920001D01*
X123260285Y-133460001D01*
X120540000Y-133460001D01*
X120540000Y-130920001D01*
G36*
X120540000Y-130920001D02*
G01*
X123260285Y-130920001D01*
X123260285Y-133460001D01*
X120540000Y-133460001D01*
X120540000Y-130920001D01*
G37*
X138359272Y-130920001D02*
X141080000Y-130920001D01*
X141080000Y-133460001D01*
X138359272Y-133460001D01*
X138359272Y-130920001D01*
G36*
X138359272Y-130920001D02*
G01*
X141080000Y-130920001D01*
X141080000Y-133460001D01*
X138359272Y-133460001D01*
X138359272Y-130920001D01*
G37*
X138373270Y-107950000D02*
X141080000Y-107950000D01*
X141080000Y-110490000D01*
X138373270Y-110490000D01*
X138373270Y-107950000D01*
G36*
X138373270Y-107950000D02*
G01*
X141080000Y-107950000D01*
X141080000Y-110490000D01*
X138373270Y-110490000D01*
X138373270Y-107950000D01*
G37*
X120540000Y-107950000D02*
X123258513Y-107950000D01*
X123258513Y-110490000D01*
X120540000Y-110490000D01*
X120540000Y-107950000D01*
G36*
X120540000Y-107950000D02*
G01*
X123258513Y-107950000D01*
X123258513Y-110490000D01*
X120540000Y-110490000D01*
X120540000Y-107950000D01*
G37*
D11*
X128539141Y-129242193D02*
X128443903Y-129194574D01*
X128443903Y-129194574D02*
X128348665Y-129099336D01*
X128348665Y-129099336D02*
X128205808Y-128956478D01*
X128205808Y-128956478D02*
X128110570Y-128908859D01*
X128110570Y-128908859D02*
X128015332Y-128908859D01*
X128062951Y-129146955D02*
X127967713Y-129099336D01*
X127967713Y-129099336D02*
X127872475Y-129004097D01*
X127872475Y-129004097D02*
X127824856Y-128813621D01*
X127824856Y-128813621D02*
X127824856Y-128480288D01*
X127824856Y-128480288D02*
X127872475Y-128289812D01*
X127872475Y-128289812D02*
X127967713Y-128194574D01*
X127967713Y-128194574D02*
X128062951Y-128146955D01*
X128062951Y-128146955D02*
X128253427Y-128146955D01*
X128253427Y-128146955D02*
X128348665Y-128194574D01*
X128348665Y-128194574D02*
X128443903Y-128289812D01*
X128443903Y-128289812D02*
X128491522Y-128480288D01*
X128491522Y-128480288D02*
X128491522Y-128813621D01*
X128491522Y-128813621D02*
X128443903Y-129004097D01*
X128443903Y-129004097D02*
X128348665Y-129099336D01*
X128348665Y-129099336D02*
X128253427Y-129146955D01*
X128253427Y-129146955D02*
X128062951Y-129146955D01*
X129253427Y-128623145D02*
X128920094Y-128623145D01*
X128920094Y-129146955D02*
X128920094Y-128146955D01*
X128920094Y-128146955D02*
X129396284Y-128146955D01*
X129777237Y-129146955D02*
X129777237Y-128146955D01*
X129777237Y-128146955D02*
X130348665Y-129146955D01*
X130348665Y-129146955D02*
X130348665Y-128146955D01*
X130824856Y-128766002D02*
X131586761Y-128766002D01*
X132586760Y-129146955D02*
X132015332Y-129146955D01*
X132301046Y-129146955D02*
X132301046Y-128146955D01*
X132301046Y-128146955D02*
X132205808Y-128289812D01*
X132205808Y-128289812D02*
X132110570Y-128385050D01*
X132110570Y-128385050D02*
X132015332Y-128432669D01*
X133443903Y-128146955D02*
X133253427Y-128146955D01*
X133253427Y-128146955D02*
X133158189Y-128194574D01*
X133158189Y-128194574D02*
X133110570Y-128242193D01*
X133110570Y-128242193D02*
X133015332Y-128385050D01*
X133015332Y-128385050D02*
X132967713Y-128575526D01*
X132967713Y-128575526D02*
X132967713Y-128956478D01*
X132967713Y-128956478D02*
X133015332Y-129051716D01*
X133015332Y-129051716D02*
X133062951Y-129099336D01*
X133062951Y-129099336D02*
X133158189Y-129146955D01*
X133158189Y-129146955D02*
X133348665Y-129146955D01*
X133348665Y-129146955D02*
X133443903Y-129099336D01*
X133443903Y-129099336D02*
X133491522Y-129051716D01*
X133491522Y-129051716D02*
X133539141Y-128956478D01*
X133539141Y-128956478D02*
X133539141Y-128718383D01*
X133539141Y-128718383D02*
X133491522Y-128623145D01*
X133491522Y-128623145D02*
X133443903Y-128575526D01*
X133443903Y-128575526D02*
X133348665Y-128527907D01*
X133348665Y-128527907D02*
X133158189Y-128527907D01*
X133158189Y-128527907D02*
X133062951Y-128575526D01*
X133062951Y-128575526D02*
X133015332Y-128623145D01*
X133015332Y-128623145D02*
X132967713Y-128718383D01*
X128134380Y-129756899D02*
X128753427Y-129756899D01*
X128753427Y-129756899D02*
X128420094Y-130137851D01*
X128420094Y-130137851D02*
X128562951Y-130137851D01*
X128562951Y-130137851D02*
X128658189Y-130185470D01*
X128658189Y-130185470D02*
X128705808Y-130233089D01*
X128705808Y-130233089D02*
X128753427Y-130328327D01*
X128753427Y-130328327D02*
X128753427Y-130566422D01*
X128753427Y-130566422D02*
X128705808Y-130661660D01*
X128705808Y-130661660D02*
X128658189Y-130709280D01*
X128658189Y-130709280D02*
X128562951Y-130756899D01*
X128562951Y-130756899D02*
X128277237Y-130756899D01*
X128277237Y-130756899D02*
X128181999Y-130709280D01*
X128181999Y-130709280D02*
X128134380Y-130661660D01*
X129086761Y-130756899D02*
X129610570Y-130090232D01*
X129086761Y-130090232D02*
X129610570Y-130756899D01*
X129896285Y-129756899D02*
X130515332Y-129756899D01*
X130515332Y-129756899D02*
X130181999Y-130137851D01*
X130181999Y-130137851D02*
X130324856Y-130137851D01*
X130324856Y-130137851D02*
X130420094Y-130185470D01*
X130420094Y-130185470D02*
X130467713Y-130233089D01*
X130467713Y-130233089D02*
X130515332Y-130328327D01*
X130515332Y-130328327D02*
X130515332Y-130566422D01*
X130515332Y-130566422D02*
X130467713Y-130661660D01*
X130467713Y-130661660D02*
X130420094Y-130709280D01*
X130420094Y-130709280D02*
X130324856Y-130756899D01*
X130324856Y-130756899D02*
X130039142Y-130756899D01*
X130039142Y-130756899D02*
X129943904Y-130709280D01*
X129943904Y-130709280D02*
X129896285Y-130661660D01*
X130943904Y-130756899D02*
X130943904Y-130090232D01*
X130943904Y-130185470D02*
X130991523Y-130137851D01*
X130991523Y-130137851D02*
X131086761Y-130090232D01*
X131086761Y-130090232D02*
X131229618Y-130090232D01*
X131229618Y-130090232D02*
X131324856Y-130137851D01*
X131324856Y-130137851D02*
X131372475Y-130233089D01*
X131372475Y-130233089D02*
X131372475Y-130756899D01*
X131372475Y-130233089D02*
X131420094Y-130137851D01*
X131420094Y-130137851D02*
X131515332Y-130090232D01*
X131515332Y-130090232D02*
X131658189Y-130090232D01*
X131658189Y-130090232D02*
X131753428Y-130137851D01*
X131753428Y-130137851D02*
X131801047Y-130233089D01*
X131801047Y-130233089D02*
X131801047Y-130756899D01*
X132277237Y-130756899D02*
X132277237Y-130090232D01*
X132277237Y-130185470D02*
X132324856Y-130137851D01*
X132324856Y-130137851D02*
X132420094Y-130090232D01*
X132420094Y-130090232D02*
X132562951Y-130090232D01*
X132562951Y-130090232D02*
X132658189Y-130137851D01*
X132658189Y-130137851D02*
X132705808Y-130233089D01*
X132705808Y-130233089D02*
X132705808Y-130756899D01*
X132705808Y-130233089D02*
X132753427Y-130137851D01*
X132753427Y-130137851D02*
X132848665Y-130090232D01*
X132848665Y-130090232D02*
X132991522Y-130090232D01*
X132991522Y-130090232D02*
X133086761Y-130137851D01*
X133086761Y-130137851D02*
X133134380Y-130233089D01*
X133134380Y-130233089D02*
X133134380Y-130756899D01*
X126301047Y-131366843D02*
X126396285Y-131366843D01*
X126396285Y-131366843D02*
X126491523Y-131414462D01*
X126491523Y-131414462D02*
X126539142Y-131462081D01*
X126539142Y-131462081D02*
X126586761Y-131557319D01*
X126586761Y-131557319D02*
X126634380Y-131747795D01*
X126634380Y-131747795D02*
X126634380Y-131985890D01*
X126634380Y-131985890D02*
X126586761Y-132176366D01*
X126586761Y-132176366D02*
X126539142Y-132271604D01*
X126539142Y-132271604D02*
X126491523Y-132319224D01*
X126491523Y-132319224D02*
X126396285Y-132366843D01*
X126396285Y-132366843D02*
X126301047Y-132366843D01*
X126301047Y-132366843D02*
X126205809Y-132319224D01*
X126205809Y-132319224D02*
X126158190Y-132271604D01*
X126158190Y-132271604D02*
X126110571Y-132176366D01*
X126110571Y-132176366D02*
X126062952Y-131985890D01*
X126062952Y-131985890D02*
X126062952Y-131747795D01*
X126062952Y-131747795D02*
X126110571Y-131557319D01*
X126110571Y-131557319D02*
X126158190Y-131462081D01*
X126158190Y-131462081D02*
X126205809Y-131414462D01*
X126205809Y-131414462D02*
X126301047Y-131366843D01*
X127062952Y-132271604D02*
X127110571Y-132319224D01*
X127110571Y-132319224D02*
X127062952Y-132366843D01*
X127062952Y-132366843D02*
X127015333Y-132319224D01*
X127015333Y-132319224D02*
X127062952Y-132271604D01*
X127062952Y-132271604D02*
X127062952Y-132366843D01*
X128015332Y-131366843D02*
X127539142Y-131366843D01*
X127539142Y-131366843D02*
X127491523Y-131843033D01*
X127491523Y-131843033D02*
X127539142Y-131795414D01*
X127539142Y-131795414D02*
X127634380Y-131747795D01*
X127634380Y-131747795D02*
X127872475Y-131747795D01*
X127872475Y-131747795D02*
X127967713Y-131795414D01*
X127967713Y-131795414D02*
X128015332Y-131843033D01*
X128015332Y-131843033D02*
X128062951Y-131938271D01*
X128062951Y-131938271D02*
X128062951Y-132176366D01*
X128062951Y-132176366D02*
X128015332Y-132271604D01*
X128015332Y-132271604D02*
X127967713Y-132319224D01*
X127967713Y-132319224D02*
X127872475Y-132366843D01*
X127872475Y-132366843D02*
X127634380Y-132366843D01*
X127634380Y-132366843D02*
X127539142Y-132319224D01*
X127539142Y-132319224D02*
X127491523Y-132271604D01*
X128491523Y-132366843D02*
X128491523Y-131700176D01*
X128491523Y-131795414D02*
X128539142Y-131747795D01*
X128539142Y-131747795D02*
X128634380Y-131700176D01*
X128634380Y-131700176D02*
X128777237Y-131700176D01*
X128777237Y-131700176D02*
X128872475Y-131747795D01*
X128872475Y-131747795D02*
X128920094Y-131843033D01*
X128920094Y-131843033D02*
X128920094Y-132366843D01*
X128920094Y-131843033D02*
X128967713Y-131747795D01*
X128967713Y-131747795D02*
X129062951Y-131700176D01*
X129062951Y-131700176D02*
X129205808Y-131700176D01*
X129205808Y-131700176D02*
X129301047Y-131747795D01*
X129301047Y-131747795D02*
X129348666Y-131843033D01*
X129348666Y-131843033D02*
X129348666Y-132366843D01*
X129824856Y-132366843D02*
X129824856Y-131700176D01*
X129824856Y-131795414D02*
X129872475Y-131747795D01*
X129872475Y-131747795D02*
X129967713Y-131700176D01*
X129967713Y-131700176D02*
X130110570Y-131700176D01*
X130110570Y-131700176D02*
X130205808Y-131747795D01*
X130205808Y-131747795D02*
X130253427Y-131843033D01*
X130253427Y-131843033D02*
X130253427Y-132366843D01*
X130253427Y-131843033D02*
X130301046Y-131747795D01*
X130301046Y-131747795D02*
X130396284Y-131700176D01*
X130396284Y-131700176D02*
X130539141Y-131700176D01*
X130539141Y-131700176D02*
X130634380Y-131747795D01*
X130634380Y-131747795D02*
X130681999Y-131843033D01*
X130681999Y-131843033D02*
X130681999Y-132366843D01*
X131920094Y-132366843D02*
X131920094Y-131366843D01*
X131920094Y-131366843D02*
X132301046Y-131366843D01*
X132301046Y-131366843D02*
X132396284Y-131414462D01*
X132396284Y-131414462D02*
X132443903Y-131462081D01*
X132443903Y-131462081D02*
X132491522Y-131557319D01*
X132491522Y-131557319D02*
X132491522Y-131700176D01*
X132491522Y-131700176D02*
X132443903Y-131795414D01*
X132443903Y-131795414D02*
X132396284Y-131843033D01*
X132396284Y-131843033D02*
X132301046Y-131890652D01*
X132301046Y-131890652D02*
X131920094Y-131890652D01*
X132920094Y-132366843D02*
X132920094Y-131700176D01*
X132920094Y-131366843D02*
X132872475Y-131414462D01*
X132872475Y-131414462D02*
X132920094Y-131462081D01*
X132920094Y-131462081D02*
X132967713Y-131414462D01*
X132967713Y-131414462D02*
X132920094Y-131366843D01*
X132920094Y-131366843D02*
X132920094Y-131462081D01*
X133253427Y-131700176D02*
X133634379Y-131700176D01*
X133396284Y-131366843D02*
X133396284Y-132223985D01*
X133396284Y-132223985D02*
X133443903Y-132319224D01*
X133443903Y-132319224D02*
X133539141Y-132366843D01*
X133539141Y-132366843D02*
X133634379Y-132366843D01*
X134396284Y-132319224D02*
X134301046Y-132366843D01*
X134301046Y-132366843D02*
X134110570Y-132366843D01*
X134110570Y-132366843D02*
X134015332Y-132319224D01*
X134015332Y-132319224D02*
X133967713Y-132271604D01*
X133967713Y-132271604D02*
X133920094Y-132176366D01*
X133920094Y-132176366D02*
X133920094Y-131890652D01*
X133920094Y-131890652D02*
X133967713Y-131795414D01*
X133967713Y-131795414D02*
X134015332Y-131747795D01*
X134015332Y-131747795D02*
X134110570Y-131700176D01*
X134110570Y-131700176D02*
X134301046Y-131700176D01*
X134301046Y-131700176D02*
X134396284Y-131747795D01*
X134824856Y-132366843D02*
X134824856Y-131366843D01*
X135253427Y-132366843D02*
X135253427Y-131843033D01*
X135253427Y-131843033D02*
X135205808Y-131747795D01*
X135205808Y-131747795D02*
X135110570Y-131700176D01*
X135110570Y-131700176D02*
X134967713Y-131700176D01*
X134967713Y-131700176D02*
X134872475Y-131747795D01*
X134872475Y-131747795D02*
X134824856Y-131795414D01*
D10*
X128217921Y-108616536D02*
X123308753Y-108613095D01*
X123317000Y-108005245D01*
X128222231Y-108003419D01*
X128217921Y-108616536D01*
G36*
X128217921Y-108616536D02*
G01*
X123308753Y-108613095D01*
X123317000Y-108005245D01*
X128222231Y-108003419D01*
X128217921Y-108616536D01*
G37*
X138334259Y-108616904D02*
X133359354Y-108615113D01*
X133359084Y-108003637D01*
X138329748Y-108000826D01*
X138334259Y-108616904D01*
G36*
X138334259Y-108616904D02*
G01*
X133359354Y-108615113D01*
X133359084Y-108003637D01*
X138329748Y-108000826D01*
X138334259Y-108616904D01*
G37*
G36*
X133128228Y-108126186D02*
G01*
X133161764Y-108159722D01*
X133179489Y-108195174D01*
X133200475Y-108279115D01*
X133200475Y-108338234D01*
X133179489Y-108422175D01*
X133161764Y-108457627D01*
X133128226Y-108491165D01*
X133075696Y-108508675D01*
X133014761Y-108508675D01*
X133014761Y-108108675D01*
X133075695Y-108108675D01*
X133128228Y-108126186D01*
G37*
G36*
X130966820Y-108365818D02*
G01*
X130867467Y-108365818D01*
X130917143Y-108216788D01*
X130966820Y-108365818D01*
G37*
G36*
X132681105Y-108365818D02*
G01*
X132581752Y-108365818D01*
X132631428Y-108216788D01*
X132681105Y-108365818D01*
G37*
G36*
X129958952Y-108123577D02*
G01*
X129971287Y-108135910D01*
X129986190Y-108165716D01*
X129986190Y-108213538D01*
X129971287Y-108243344D01*
X129958952Y-108255677D01*
X129929149Y-108270580D01*
X129800476Y-108270580D01*
X129800476Y-108108675D01*
X129929149Y-108108675D01*
X129958952Y-108123577D01*
G37*
G36*
X132244666Y-108123577D02*
G01*
X132257001Y-108135910D01*
X132271904Y-108165716D01*
X132271904Y-108213538D01*
X132257001Y-108243344D01*
X132244666Y-108255677D01*
X132214863Y-108270580D01*
X132086190Y-108270580D01*
X132086190Y-108108675D01*
X132214863Y-108108675D01*
X132244666Y-108123577D01*
G37*
G36*
X133356031Y-108664231D02*
G01*
X128220155Y-108664231D01*
X128220155Y-108039541D01*
X128275711Y-108039541D01*
X128275711Y-108077809D01*
X128302771Y-108104869D01*
X128321905Y-108108675D01*
X128414762Y-108108675D01*
X128414762Y-108558675D01*
X128418568Y-108577809D01*
X128445628Y-108604869D01*
X128483896Y-108604869D01*
X128510956Y-108577809D01*
X128514762Y-108558675D01*
X128514762Y-108108675D01*
X128607619Y-108108675D01*
X128626753Y-108104869D01*
X128653813Y-108077809D01*
X128653813Y-108058675D01*
X128724285Y-108058675D01*
X128724285Y-108558675D01*
X128728091Y-108577809D01*
X128755151Y-108604869D01*
X128793419Y-108604869D01*
X128820479Y-108577809D01*
X128824285Y-108558675D01*
X128824285Y-108346770D01*
X129009999Y-108346770D01*
X129009999Y-108558675D01*
X129013805Y-108577809D01*
X129040865Y-108604869D01*
X129079133Y-108604869D01*
X129106193Y-108577809D01*
X129109999Y-108558675D01*
X129109999Y-108058675D01*
X129248095Y-108058675D01*
X129248095Y-108558675D01*
X129251901Y-108577809D01*
X129278961Y-108604869D01*
X129298095Y-108608675D01*
X129536190Y-108608675D01*
X129555324Y-108604869D01*
X129582384Y-108577809D01*
X129582384Y-108539541D01*
X129555324Y-108512481D01*
X129536190Y-108508675D01*
X129348095Y-108508675D01*
X129348095Y-108346770D01*
X129464762Y-108346770D01*
X129483896Y-108342964D01*
X129510956Y-108315904D01*
X129510956Y-108277636D01*
X129483896Y-108250576D01*
X129464762Y-108246770D01*
X129348095Y-108246770D01*
X129348095Y-108108675D01*
X129536190Y-108108675D01*
X129555324Y-108104869D01*
X129582384Y-108077809D01*
X129582384Y-108058675D01*
X129700476Y-108058675D01*
X129700476Y-108558675D01*
X129704282Y-108577809D01*
X129731342Y-108604869D01*
X129769610Y-108604869D01*
X129796670Y-108577809D01*
X129800476Y-108558675D01*
X129800476Y-108370580D01*
X129843491Y-108370580D01*
X129995229Y-108587348D01*
X130009319Y-108600841D01*
X130047005Y-108607491D01*
X130078356Y-108585546D01*
X130085006Y-108547860D01*
X130077152Y-108530002D01*
X129962095Y-108365634D01*
X129963313Y-108365301D01*
X130010932Y-108341491D01*
X130017263Y-108336577D01*
X130023926Y-108332126D01*
X130047736Y-108308317D01*
X130052189Y-108301652D01*
X130057103Y-108295321D01*
X130080911Y-108247703D01*
X130081572Y-108245287D01*
X130082384Y-108244476D01*
X130083947Y-108236614D01*
X130086064Y-108228887D01*
X130085701Y-108227798D01*
X130086190Y-108225342D01*
X130086190Y-108153913D01*
X130085701Y-108151456D01*
X130086064Y-108150368D01*
X130083947Y-108142640D01*
X130082384Y-108134779D01*
X130081572Y-108133967D01*
X130080911Y-108131552D01*
X130057103Y-108083934D01*
X130052189Y-108077602D01*
X130047736Y-108070938D01*
X130035472Y-108058675D01*
X130200476Y-108058675D01*
X130200476Y-108558675D01*
X130204282Y-108577809D01*
X130231342Y-108604869D01*
X130269610Y-108604869D01*
X130296670Y-108577809D01*
X130300476Y-108558675D01*
X130300476Y-108284052D01*
X130371834Y-108436962D01*
X130379456Y-108447351D01*
X130380269Y-108449587D01*
X130381526Y-108450173D01*
X130383374Y-108452692D01*
X130399446Y-108458536D01*
X130414947Y-108465770D01*
X130417143Y-108464971D01*
X130419339Y-108465770D01*
X130434839Y-108458536D01*
X130450912Y-108452692D01*
X130452759Y-108450173D01*
X130454017Y-108449587D01*
X130454829Y-108447351D01*
X130462452Y-108436962D01*
X130533809Y-108284053D01*
X130533809Y-108558675D01*
X130537615Y-108577809D01*
X130564675Y-108604869D01*
X130602943Y-108604869D01*
X130630003Y-108577809D01*
X130633104Y-108562219D01*
X130700603Y-108562219D01*
X130717717Y-108596448D01*
X130754021Y-108608549D01*
X130788250Y-108591435D01*
X130797911Y-108574486D01*
X130834134Y-108465818D01*
X131000153Y-108465818D01*
X131036376Y-108574486D01*
X131046037Y-108591435D01*
X131080266Y-108608549D01*
X131116570Y-108596447D01*
X131133684Y-108562219D01*
X131131244Y-108542863D01*
X130969847Y-108058675D01*
X131200476Y-108058675D01*
X131200476Y-108558675D01*
X131204282Y-108577809D01*
X131231342Y-108604869D01*
X131250476Y-108608675D01*
X131488571Y-108608675D01*
X131507705Y-108604869D01*
X131534765Y-108577809D01*
X131534765Y-108539541D01*
X131507705Y-108512481D01*
X131488571Y-108508675D01*
X131300476Y-108508675D01*
X131300476Y-108058675D01*
X131986190Y-108058675D01*
X131986190Y-108558675D01*
X131989996Y-108577809D01*
X132017056Y-108604869D01*
X132055324Y-108604869D01*
X132082384Y-108577809D01*
X132085485Y-108562219D01*
X132414888Y-108562219D01*
X132432002Y-108596448D01*
X132468306Y-108608549D01*
X132502535Y-108591435D01*
X132512196Y-108574486D01*
X132548419Y-108465818D01*
X132714438Y-108465818D01*
X132750661Y-108574486D01*
X132760322Y-108591435D01*
X132794551Y-108608549D01*
X132830855Y-108596447D01*
X132847969Y-108562219D01*
X132845529Y-108542863D01*
X132684132Y-108058675D01*
X132914761Y-108058675D01*
X132914761Y-108558675D01*
X132918567Y-108577809D01*
X132945627Y-108604869D01*
X132964761Y-108608675D01*
X133083809Y-108608675D01*
X133091671Y-108607111D01*
X133099620Y-108606109D01*
X133171049Y-108582300D01*
X133173224Y-108581060D01*
X133174372Y-108581060D01*
X133181036Y-108576606D01*
X133187997Y-108572639D01*
X133188510Y-108571612D01*
X133190593Y-108570221D01*
X133238212Y-108522601D01*
X133242665Y-108515935D01*
X133247577Y-108509607D01*
X133271387Y-108461988D01*
X133272833Y-108456706D01*
X133275173Y-108451754D01*
X133298982Y-108356516D01*
X133299279Y-108350398D01*
X133300475Y-108344389D01*
X133300475Y-108272961D01*
X133299279Y-108266951D01*
X133298982Y-108260834D01*
X133275173Y-108165596D01*
X133272833Y-108160643D01*
X133271387Y-108155362D01*
X133247577Y-108107743D01*
X133242665Y-108101414D01*
X133238211Y-108094748D01*
X133190592Y-108047130D01*
X133188509Y-108045738D01*
X133187997Y-108044713D01*
X133181035Y-108040744D01*
X133174371Y-108036291D01*
X133173224Y-108036291D01*
X133171049Y-108035051D01*
X133099621Y-108011241D01*
X133091670Y-108010238D01*
X133083809Y-108008675D01*
X132964761Y-108008675D01*
X132945627Y-108012481D01*
X132918567Y-108039541D01*
X132914761Y-108058675D01*
X132684132Y-108058675D01*
X132678862Y-108042864D01*
X132669201Y-108025915D01*
X132665858Y-108024244D01*
X132664188Y-108020902D01*
X132649148Y-108015888D01*
X132634972Y-108008801D01*
X132631428Y-108009982D01*
X132627884Y-108008801D01*
X132613707Y-108015888D01*
X132598668Y-108020902D01*
X132596997Y-108024244D01*
X132593655Y-108025915D01*
X132583994Y-108042864D01*
X132417328Y-108542864D01*
X132414888Y-108562219D01*
X132085485Y-108562219D01*
X132086190Y-108558675D01*
X132086190Y-108370580D01*
X132226666Y-108370580D01*
X132229122Y-108370091D01*
X132230211Y-108370454D01*
X132237938Y-108368337D01*
X132245800Y-108366774D01*
X132246611Y-108365962D01*
X132249027Y-108365301D01*
X132296646Y-108341491D01*
X132302977Y-108336577D01*
X132309640Y-108332126D01*
X132333450Y-108308317D01*
X132337903Y-108301652D01*
X132342817Y-108295321D01*
X132366625Y-108247703D01*
X132367286Y-108245287D01*
X132368098Y-108244476D01*
X132369661Y-108236614D01*
X132371778Y-108228887D01*
X132371415Y-108227798D01*
X132371904Y-108225342D01*
X132371904Y-108153913D01*
X132371415Y-108151456D01*
X132371778Y-108150368D01*
X132369661Y-108142640D01*
X132368098Y-108134779D01*
X132367286Y-108133967D01*
X132366625Y-108131552D01*
X132342817Y-108083934D01*
X132337903Y-108077602D01*
X132333450Y-108070938D01*
X132309640Y-108047129D01*
X132302977Y-108042677D01*
X132296646Y-108037764D01*
X132249027Y-108013954D01*
X132246611Y-108013292D01*
X132245800Y-108012481D01*
X132237938Y-108010917D01*
X132230211Y-108008801D01*
X132229122Y-108009163D01*
X132226666Y-108008675D01*
X132036190Y-108008675D01*
X132017056Y-108012481D01*
X131989996Y-108039541D01*
X131986190Y-108058675D01*
X131300476Y-108058675D01*
X131296670Y-108039541D01*
X131269610Y-108012481D01*
X131231342Y-108012481D01*
X131204282Y-108039541D01*
X131200476Y-108058675D01*
X130969847Y-108058675D01*
X130964577Y-108042864D01*
X130954916Y-108025915D01*
X130951573Y-108024244D01*
X130949903Y-108020902D01*
X130934863Y-108015888D01*
X130920687Y-108008801D01*
X130917143Y-108009982D01*
X130913599Y-108008801D01*
X130899422Y-108015888D01*
X130884383Y-108020902D01*
X130882712Y-108024244D01*
X130879370Y-108025915D01*
X130869709Y-108042864D01*
X130703043Y-108542864D01*
X130700603Y-108562219D01*
X130633104Y-108562219D01*
X130633809Y-108558675D01*
X130633809Y-108058675D01*
X130630003Y-108039541D01*
X130623720Y-108033258D01*
X130620683Y-108024906D01*
X130610717Y-108020255D01*
X130602943Y-108012481D01*
X130594058Y-108012481D01*
X130586005Y-108008723D01*
X130575670Y-108012481D01*
X130564675Y-108012481D01*
X130558392Y-108018763D01*
X130550040Y-108021801D01*
X130538500Y-108037530D01*
X130417142Y-108297583D01*
X130295785Y-108037531D01*
X130284245Y-108021801D01*
X130275892Y-108018763D01*
X130269610Y-108012481D01*
X130258615Y-108012481D01*
X130248280Y-108008723D01*
X130240227Y-108012481D01*
X130231342Y-108012481D01*
X130223567Y-108020255D01*
X130213602Y-108024906D01*
X130210564Y-108033258D01*
X130204282Y-108039541D01*
X130200476Y-108058675D01*
X130035472Y-108058675D01*
X130023926Y-108047129D01*
X130017263Y-108042677D01*
X130010932Y-108037764D01*
X129963313Y-108013954D01*
X129960897Y-108013292D01*
X129960086Y-108012481D01*
X129952224Y-108010917D01*
X129944497Y-108008801D01*
X129943408Y-108009163D01*
X129940952Y-108008675D01*
X129750476Y-108008675D01*
X129731342Y-108012481D01*
X129704282Y-108039541D01*
X129700476Y-108058675D01*
X129582384Y-108058675D01*
X129582384Y-108039541D01*
X129555324Y-108012481D01*
X129536190Y-108008675D01*
X129298095Y-108008675D01*
X129278961Y-108012481D01*
X129251901Y-108039541D01*
X129248095Y-108058675D01*
X129109999Y-108058675D01*
X129106193Y-108039541D01*
X129079133Y-108012481D01*
X129040865Y-108012481D01*
X129013805Y-108039541D01*
X129009999Y-108058675D01*
X129009999Y-108246770D01*
X128824285Y-108246770D01*
X128824285Y-108058675D01*
X128820479Y-108039541D01*
X128793419Y-108012481D01*
X128755151Y-108012481D01*
X128728091Y-108039541D01*
X128724285Y-108058675D01*
X128653813Y-108058675D01*
X128653813Y-108039541D01*
X128626753Y-108012481D01*
X128607619Y-108008675D01*
X128321905Y-108008675D01*
X128302771Y-108012481D01*
X128275711Y-108039541D01*
X128220155Y-108039541D01*
X128220155Y-107953119D01*
X133356031Y-107953119D01*
X133356031Y-108664231D01*
G37*
D12*
X120634285Y-106294819D02*
X120634285Y-107009104D01*
X120634285Y-107009104D02*
X120586666Y-107151961D01*
X120586666Y-107151961D02*
X120491428Y-107247200D01*
X120491428Y-107247200D02*
X120348571Y-107294819D01*
X120348571Y-107294819D02*
X120253333Y-107294819D01*
X121634285Y-107294819D02*
X121062857Y-107294819D01*
X121348571Y-107294819D02*
X121348571Y-106294819D01*
X121348571Y-106294819D02*
X121253333Y-106437676D01*
X121253333Y-106437676D02*
X121158095Y-106532914D01*
X121158095Y-106532914D02*
X121062857Y-106580533D01*
X122253333Y-106294819D02*
X122348571Y-106294819D01*
X122348571Y-106294819D02*
X122443809Y-106342438D01*
X122443809Y-106342438D02*
X122491428Y-106390057D01*
X122491428Y-106390057D02*
X122539047Y-106485295D01*
X122539047Y-106485295D02*
X122586666Y-106675771D01*
X122586666Y-106675771D02*
X122586666Y-106913866D01*
X122586666Y-106913866D02*
X122539047Y-107104342D01*
X122539047Y-107104342D02*
X122491428Y-107199580D01*
X122491428Y-107199580D02*
X122443809Y-107247200D01*
X122443809Y-107247200D02*
X122348571Y-107294819D01*
X122348571Y-107294819D02*
X122253333Y-107294819D01*
X122253333Y-107294819D02*
X122158095Y-107247200D01*
X122158095Y-107247200D02*
X122110476Y-107199580D01*
X122110476Y-107199580D02*
X122062857Y-107104342D01*
X122062857Y-107104342D02*
X122015238Y-106913866D01*
X122015238Y-106913866D02*
X122015238Y-106675771D01*
X122015238Y-106675771D02*
X122062857Y-106485295D01*
X122062857Y-106485295D02*
X122110476Y-106390057D01*
X122110476Y-106390057D02*
X122158095Y-106342438D01*
X122158095Y-106342438D02*
X122253333Y-106294819D01*
X122920000Y-106294819D02*
X123539047Y-106294819D01*
X123539047Y-106294819D02*
X123205714Y-106675771D01*
X123205714Y-106675771D02*
X123348571Y-106675771D01*
X123348571Y-106675771D02*
X123443809Y-106723390D01*
X123443809Y-106723390D02*
X123491428Y-106771009D01*
X123491428Y-106771009D02*
X123539047Y-106866247D01*
X123539047Y-106866247D02*
X123539047Y-107104342D01*
X123539047Y-107104342D02*
X123491428Y-107199580D01*
X123491428Y-107199580D02*
X123443809Y-107247200D01*
X123443809Y-107247200D02*
X123348571Y-107294819D01*
X123348571Y-107294819D02*
X123062857Y-107294819D01*
X123062857Y-107294819D02*
X122967619Y-107247200D01*
X122967619Y-107247200D02*
X122920000Y-107199580D01*
X138414285Y-106294820D02*
X138414285Y-107009105D01*
X138414285Y-107009105D02*
X138366666Y-107151962D01*
X138366666Y-107151962D02*
X138271428Y-107247201D01*
X138271428Y-107247201D02*
X138128571Y-107294820D01*
X138128571Y-107294820D02*
X138033333Y-107294820D01*
X139414285Y-107294820D02*
X138842857Y-107294820D01*
X139128571Y-107294820D02*
X139128571Y-106294820D01*
X139128571Y-106294820D02*
X139033333Y-106437677D01*
X139033333Y-106437677D02*
X138938095Y-106532915D01*
X138938095Y-106532915D02*
X138842857Y-106580534D01*
X140033333Y-106294820D02*
X140128571Y-106294820D01*
X140128571Y-106294820D02*
X140223809Y-106342439D01*
X140223809Y-106342439D02*
X140271428Y-106390058D01*
X140271428Y-106390058D02*
X140319047Y-106485296D01*
X140319047Y-106485296D02*
X140366666Y-106675772D01*
X140366666Y-106675772D02*
X140366666Y-106913867D01*
X140366666Y-106913867D02*
X140319047Y-107104343D01*
X140319047Y-107104343D02*
X140271428Y-107199581D01*
X140271428Y-107199581D02*
X140223809Y-107247201D01*
X140223809Y-107247201D02*
X140128571Y-107294820D01*
X140128571Y-107294820D02*
X140033333Y-107294820D01*
X140033333Y-107294820D02*
X139938095Y-107247201D01*
X139938095Y-107247201D02*
X139890476Y-107199581D01*
X139890476Y-107199581D02*
X139842857Y-107104343D01*
X139842857Y-107104343D02*
X139795238Y-106913867D01*
X139795238Y-106913867D02*
X139795238Y-106675772D01*
X139795238Y-106675772D02*
X139842857Y-106485296D01*
X139842857Y-106485296D02*
X139890476Y-106390058D01*
X139890476Y-106390058D02*
X139938095Y-106342439D01*
X139938095Y-106342439D02*
X140033333Y-106294820D01*
X140747619Y-106390058D02*
X140795238Y-106342439D01*
X140795238Y-106342439D02*
X140890476Y-106294820D01*
X140890476Y-106294820D02*
X141128571Y-106294820D01*
X141128571Y-106294820D02*
X141223809Y-106342439D01*
X141223809Y-106342439D02*
X141271428Y-106390058D01*
X141271428Y-106390058D02*
X141319047Y-106485296D01*
X141319047Y-106485296D02*
X141319047Y-106580534D01*
X141319047Y-106580534D02*
X141271428Y-106723391D01*
X141271428Y-106723391D02*
X140700000Y-107294820D01*
X140700000Y-107294820D02*
X141319047Y-107294820D01*
D13*
G36*
X130822074Y-109302651D02*
G01*
X130832133Y-109309474D01*
X130846593Y-109319723D01*
X130864544Y-109332748D01*
X130885076Y-109347896D01*
X130903756Y-109361861D01*
X131031072Y-109452971D01*
X131160902Y-109536689D01*
X131293293Y-109613036D01*
X131428292Y-109682033D01*
X131565947Y-109743703D01*
X131706306Y-109798067D01*
X131849415Y-109845145D01*
X131995324Y-109884960D01*
X132127922Y-109914373D01*
X132152491Y-109918964D01*
X132176247Y-109922892D01*
X132197396Y-109925896D01*
X132214141Y-109927718D01*
X132223173Y-109928149D01*
X132235820Y-109928521D01*
X132244643Y-109929769D01*
X132247589Y-109931420D01*
X132251211Y-109934897D01*
X132260958Y-109937737D01*
X132275146Y-109939609D01*
X132292091Y-109940183D01*
X132292176Y-109940182D01*
X132302711Y-109940540D01*
X132319240Y-109941669D01*
X132339998Y-109943424D01*
X132363220Y-109945657D01*
X132380409Y-109947472D01*
X132406866Y-109950239D01*
X132434569Y-109952901D01*
X132460957Y-109955225D01*
X132483468Y-109956983D01*
X132492721Y-109957592D01*
X132510190Y-109958824D01*
X132524367Y-109960194D01*
X132533696Y-109961526D01*
X132536660Y-109962547D01*
X132540284Y-109963415D01*
X132550062Y-109963885D01*
X132564344Y-109963911D01*
X132575725Y-109963653D01*
X132592117Y-109963431D01*
X132605124Y-109963818D01*
X132613095Y-109964731D01*
X132614797Y-109965607D01*
X132618532Y-109966462D01*
X132629054Y-109967231D01*
X132645338Y-109967881D01*
X132666357Y-109968380D01*
X132691087Y-109968695D01*
X132716362Y-109968796D01*
X132743610Y-109968688D01*
X132768096Y-109968385D01*
X132788795Y-109967915D01*
X132804680Y-109967308D01*
X132814727Y-109966595D01*
X132817932Y-109965866D01*
X132821505Y-109964403D01*
X132830884Y-109963353D01*
X132844063Y-109962937D01*
X132844501Y-109962936D01*
X132881122Y-109961984D01*
X132924013Y-109959244D01*
X132971879Y-109954886D01*
X133023426Y-109949082D01*
X133077361Y-109942004D01*
X133132388Y-109933825D01*
X133187215Y-109924714D01*
X133240548Y-109914845D01*
X133291092Y-109904388D01*
X133299061Y-109902621D01*
X133434370Y-109868407D01*
X133569291Y-109826526D01*
X133703523Y-109777122D01*
X133836767Y-109720341D01*
X133968722Y-109656327D01*
X134099089Y-109585225D01*
X134227567Y-109507181D01*
X134353856Y-109422339D01*
X134469255Y-109337326D01*
X134490115Y-109321962D01*
X134505800Y-109312007D01*
X134516637Y-109307323D01*
X134522952Y-109307770D01*
X134525070Y-109313209D01*
X134525072Y-109313475D01*
X134527793Y-109317048D01*
X134535757Y-109325831D01*
X134548670Y-109339522D01*
X134566236Y-109357821D01*
X134588160Y-109380428D01*
X134614147Y-109407040D01*
X134643901Y-109437358D01*
X134677127Y-109471081D01*
X134713530Y-109507908D01*
X134752814Y-109547538D01*
X134794684Y-109589671D01*
X134838845Y-109634006D01*
X134885001Y-109680242D01*
X134898713Y-109693959D01*
X134958279Y-109753577D01*
X135012357Y-109807806D01*
X135061031Y-109856732D01*
X135104385Y-109900442D01*
X135142503Y-109939022D01*
X135175471Y-109972557D01*
X135203373Y-110001136D01*
X135226293Y-110024844D01*
X135244316Y-110043767D01*
X135257527Y-110057991D01*
X135266009Y-110067604D01*
X135269848Y-110072692D01*
X135270094Y-110073503D01*
X135265666Y-110078254D01*
X135256288Y-110084940D01*
X135244625Y-110091761D01*
X135235647Y-110097279D01*
X135224900Y-110105367D01*
X135211727Y-110116622D01*
X135195467Y-110131638D01*
X135175462Y-110151010D01*
X135151054Y-110175335D01*
X135141565Y-110184911D01*
X135107173Y-110219936D01*
X135077355Y-110250875D01*
X135050981Y-110278982D01*
X135026920Y-110305510D01*
X135004043Y-110331713D01*
X134981219Y-110358845D01*
X134957319Y-110388159D01*
X134949015Y-110398510D01*
X134887182Y-110479678D01*
X134832193Y-110560236D01*
X134783320Y-110641512D01*
X134739839Y-110724837D01*
X134701024Y-110811540D01*
X134666148Y-110902950D01*
X134653658Y-110939559D01*
X134629671Y-111015708D01*
X134609819Y-111087212D01*
X134593793Y-111155851D01*
X134581281Y-111223405D01*
X134571974Y-111291653D01*
X134565559Y-111362375D01*
X134561728Y-111437351D01*
X134560788Y-111471823D01*
X134560264Y-111501927D01*
X134559993Y-111529178D01*
X134559969Y-111552658D01*
X134560185Y-111571451D01*
X134560634Y-111584641D01*
X134561309Y-111591310D01*
X134561648Y-111591947D01*
X134563061Y-111595514D01*
X134563677Y-111604934D01*
X134563386Y-111618274D01*
X134563271Y-111620265D01*
X134563034Y-111636954D01*
X134563862Y-111657921D01*
X134565587Y-111679729D01*
X134566698Y-111689605D01*
X134583489Y-111792294D01*
X134607876Y-111895137D01*
X134639662Y-111997730D01*
X134678649Y-112099669D01*
X134724641Y-112200550D01*
X134777441Y-112299969D01*
X134836850Y-112397521D01*
X134902673Y-112492802D01*
X134974711Y-112585409D01*
X135041241Y-112662335D01*
X135065697Y-112689088D01*
X135088466Y-112713613D01*
X135109000Y-112735343D01*
X135126748Y-112753714D01*
X135141162Y-112768158D01*
X135151692Y-112778111D01*
X135157789Y-112783006D01*
X135158828Y-112783422D01*
X135162744Y-112786061D01*
X135171026Y-112793316D01*
X135182600Y-112804194D01*
X135196393Y-112817702D01*
X135202202Y-112823530D01*
X135217806Y-112839009D01*
X135232823Y-112853409D01*
X135245764Y-112865334D01*
X135255143Y-112873391D01*
X135256783Y-112874657D01*
X135265323Y-112882168D01*
X135270075Y-112888690D01*
X135270456Y-112890892D01*
X135267601Y-112894655D01*
X135259850Y-112903509D01*
X135247715Y-112916902D01*
X135231706Y-112934285D01*
X135212333Y-112955106D01*
X135190108Y-112978816D01*
X135165540Y-113004864D01*
X135139141Y-113032699D01*
X135130359Y-113041926D01*
X135101130Y-113072637D01*
X135071625Y-113103686D01*
X135042661Y-113134212D01*
X135015052Y-113163352D01*
X134989614Y-113190246D01*
X134967163Y-113214033D01*
X134948514Y-113233850D01*
X134935034Y-113248245D01*
X134918473Y-113265966D01*
X134897675Y-113288163D01*
X134873770Y-113313631D01*
X134847888Y-113341169D01*
X134821161Y-113369574D01*
X134794717Y-113397642D01*
X134778994Y-113414313D01*
X134752630Y-113442312D01*
X134724720Y-113472057D01*
X134696516Y-113502209D01*
X134669270Y-113531426D01*
X134644234Y-113558366D01*
X134622659Y-113581687D01*
X134613069Y-113592108D01*
X134594429Y-113612314D01*
X134577124Y-113630895D01*
X134561980Y-113646975D01*
X134549824Y-113659682D01*
X134541482Y-113668142D01*
X134538229Y-113671172D01*
X134526162Y-113676437D01*
X134510359Y-113678008D01*
X134502422Y-113677704D01*
X134495191Y-113676337D01*
X134487300Y-113673227D01*
X134477385Y-113667696D01*
X134464080Y-113659063D01*
X134446020Y-113646649D01*
X134442611Y-113644276D01*
X134350758Y-113581372D01*
X134263347Y-113523856D01*
X134179602Y-113471306D01*
X134098742Y-113423297D01*
X134019989Y-113379408D01*
X133942563Y-113339215D01*
X133865686Y-113302296D01*
X133788578Y-113268227D01*
X133710461Y-113236585D01*
X133649696Y-113213814D01*
X133510639Y-113167388D01*
X133370192Y-113128421D01*
X133228170Y-113096891D01*
X133084389Y-113072775D01*
X132938666Y-113056051D01*
X132790815Y-113046697D01*
X132640654Y-113044691D01*
X132487998Y-113050009D01*
X132368690Y-113059078D01*
X132224653Y-113076448D01*
X132082027Y-113101476D01*
X131940930Y-113134116D01*
X131801479Y-113174321D01*
X131663793Y-113222045D01*
X131527988Y-113277241D01*
X131394182Y-113339861D01*
X131262493Y-113409860D01*
X131133039Y-113487191D01*
X131005937Y-113571807D01*
X130920697Y-113633644D01*
X130892760Y-113654217D01*
X130869827Y-113670061D01*
X130850986Y-113681553D01*
X130835328Y-113689074D01*
X130821945Y-113693001D01*
X130809926Y-113693713D01*
X130798363Y-113691589D01*
X130789366Y-113688330D01*
X130782469Y-113684463D01*
X130770454Y-113676721D01*
X130754474Y-113665890D01*
X130735680Y-113652753D01*
X130715227Y-113638097D01*
X130710045Y-113634328D01*
X130586817Y-113547968D01*
X130464095Y-113469122D01*
X130341430Y-113397548D01*
X130218371Y-113333008D01*
X130094466Y-113275260D01*
X129969267Y-113224063D01*
X129881817Y-113192407D01*
X129759012Y-113153866D01*
X129631562Y-113120800D01*
X129500522Y-113093338D01*
X129366944Y-113071609D01*
X129231883Y-113055743D01*
X129096392Y-113045868D01*
X128961524Y-113042114D01*
X128828333Y-113044610D01*
X128727339Y-113050891D01*
X128581319Y-113066630D01*
X128437569Y-113089740D01*
X128295871Y-113120284D01*
X128156009Y-113158322D01*
X128017765Y-113203915D01*
X127880923Y-113257126D01*
X127745265Y-113318016D01*
X127695420Y-113342457D01*
X127668215Y-113356169D01*
X127642819Y-113369143D01*
X127618685Y-113381709D01*
X127595265Y-113394198D01*
X127572010Y-113406940D01*
X127548371Y-113420264D01*
X127523802Y-113434502D01*
X127497752Y-113449984D01*
X127469675Y-113467041D01*
X127439023Y-113486001D01*
X127405246Y-113507197D01*
X127367796Y-113530958D01*
X127326126Y-113557614D01*
X127279688Y-113587496D01*
X127227932Y-113620934D01*
X127170311Y-113658258D01*
X127157106Y-113666821D01*
X127140871Y-113677047D01*
X127126598Y-113685475D01*
X127115758Y-113691277D01*
X127109821Y-113693621D01*
X127109605Y-113693634D01*
X127105651Y-113690888D01*
X127096951Y-113683049D01*
X127084111Y-113670720D01*
X127067736Y-113654501D01*
X127048430Y-113634995D01*
X127026797Y-113612803D01*
X127003444Y-113588527D01*
X126994689Y-113579348D01*
X126961178Y-113544119D01*
X126930895Y-113512247D01*
X126903180Y-113483026D01*
X126877376Y-113455749D01*
X126852821Y-113429711D01*
X126828858Y-113404207D01*
X126804826Y-113378530D01*
X126780066Y-113351976D01*
X126753918Y-113323837D01*
X126725724Y-113293409D01*
X126694824Y-113259985D01*
X126660558Y-113222861D01*
X126622268Y-113181330D01*
X126583365Y-113139106D01*
X126570276Y-113124950D01*
X126552885Y-113106223D01*
X126532241Y-113084049D01*
X126509390Y-113059551D01*
X126485380Y-113033852D01*
X126461259Y-113008077D01*
X126451334Y-112997484D01*
X126429839Y-112974400D01*
X126410160Y-112952965D01*
X126392915Y-112933880D01*
X126378725Y-112917841D01*
X126368208Y-112905548D01*
X126361985Y-112897697D01*
X126360508Y-112895142D01*
X126363311Y-112890805D01*
X126371045Y-112882408D01*
X126382698Y-112870961D01*
X126397258Y-112857475D01*
X126406409Y-112849316D01*
X126433442Y-112824886D01*
X126463645Y-112796475D01*
X126495610Y-112765493D01*
X126527931Y-112733345D01*
X126559200Y-112701441D01*
X126588010Y-112671188D01*
X126612954Y-112643994D01*
X126622635Y-112633022D01*
X126699360Y-112539412D01*
X126768533Y-112443887D01*
X126785960Y-112416320D01*
X128532673Y-112416320D01*
X128658448Y-112415289D01*
X128784223Y-112414259D01*
X128897642Y-112108821D01*
X128914983Y-112062166D01*
X128931565Y-112017634D01*
X128947184Y-111975768D01*
X128961638Y-111937109D01*
X128974722Y-111902201D01*
X128986233Y-111871583D01*
X128995968Y-111845799D01*
X129003722Y-111825390D01*
X129009292Y-111810898D01*
X129012475Y-111802865D01*
X129013155Y-111801370D01*
X129014745Y-111804654D01*
X129018736Y-111814772D01*
X129024934Y-111831190D01*
X129033145Y-111853374D01*
X129043174Y-111880789D01*
X129054828Y-111912902D01*
X129067911Y-111949176D01*
X129082231Y-111989078D01*
X129097592Y-112032073D01*
X129113800Y-112077627D01*
X129124490Y-112107771D01*
X129233731Y-112416184D01*
X129349949Y-112416198D01*
X129379180Y-112416122D01*
X129405715Y-112415898D01*
X129428597Y-112415548D01*
X129446865Y-112415091D01*
X129459562Y-112414549D01*
X129465729Y-112413941D01*
X129466167Y-112413725D01*
X129465022Y-112409760D01*
X129461676Y-112398783D01*
X129456269Y-112381237D01*
X129448938Y-112357567D01*
X129439822Y-112328214D01*
X129429059Y-112293623D01*
X129416787Y-112254237D01*
X129403144Y-112210498D01*
X129388268Y-112162851D01*
X129372298Y-112111739D01*
X129355371Y-112057604D01*
X129337626Y-112000891D01*
X129319200Y-111942041D01*
X129316133Y-111932250D01*
X129297515Y-111872804D01*
X129279490Y-111815235D01*
X129262201Y-111760005D01*
X129245792Y-111707572D01*
X129230407Y-111658397D01*
X129216191Y-111612941D01*
X129203286Y-111571663D01*
X129191837Y-111535024D01*
X129187653Y-111521626D01*
X129185306Y-111514109D01*
X129741575Y-111514109D01*
X129741575Y-111521626D01*
X129741591Y-111604145D01*
X129741641Y-111679171D01*
X129741727Y-111747026D01*
X129741852Y-111808029D01*
X129742019Y-111862500D01*
X129742231Y-111910761D01*
X129742489Y-111953132D01*
X129742797Y-111989932D01*
X129743158Y-112021483D01*
X129743573Y-112048105D01*
X129744046Y-112070119D01*
X129744579Y-112087844D01*
X129745175Y-112101601D01*
X129745837Y-112111711D01*
X129746495Y-112117985D01*
X129755560Y-112168595D01*
X129768160Y-112215375D01*
X129783852Y-112256764D01*
X129788814Y-112267325D01*
X129806904Y-112303995D01*
X129786936Y-112357552D01*
X129779874Y-112376656D01*
X129773910Y-112393109D01*
X129769526Y-112405550D01*
X129767208Y-112412618D01*
X129766967Y-112413660D01*
X129770683Y-112414379D01*
X129781072Y-112414970D01*
X129796993Y-112415436D01*
X129817307Y-112415778D01*
X129840874Y-112415999D01*
X129866556Y-112416100D01*
X129893211Y-112416085D01*
X129919701Y-112415954D01*
X129944887Y-112415710D01*
X129967627Y-112415355D01*
X129986784Y-112414890D01*
X130001217Y-112414319D01*
X130009786Y-112413642D01*
X130011593Y-112413222D01*
X130013678Y-112409181D01*
X130018105Y-112398714D01*
X130024533Y-112382731D01*
X130032618Y-112362142D01*
X130042017Y-112337860D01*
X130052388Y-112310793D01*
X130063389Y-112281854D01*
X130074676Y-112251952D01*
X130085907Y-112221999D01*
X130096740Y-112192904D01*
X130106831Y-112165579D01*
X130115838Y-112140935D01*
X130123419Y-112119881D01*
X130129231Y-112103329D01*
X130132930Y-112092190D01*
X130134177Y-112087424D01*
X130135520Y-112083279D01*
X130139397Y-112072429D01*
X130145583Y-112055476D01*
X130153850Y-112033023D01*
X130163973Y-112005673D01*
X130175726Y-111974031D01*
X130188881Y-111938698D01*
X130203214Y-111900278D01*
X130218496Y-111859373D01*
X130234503Y-111816588D01*
X130251008Y-111772525D01*
X130267784Y-111727787D01*
X130284606Y-111682978D01*
X130301246Y-111638700D01*
X130317479Y-111595556D01*
X130333079Y-111554150D01*
X130347818Y-111515085D01*
X130361471Y-111478964D01*
X130373812Y-111446390D01*
X130384613Y-111417966D01*
X130393650Y-111394295D01*
X130400695Y-111375980D01*
X130405522Y-111363625D01*
X130407905Y-111357832D01*
X130408045Y-111357553D01*
X130408546Y-111360452D01*
X130409002Y-111370626D01*
X130409409Y-111387536D01*
X130409763Y-111410643D01*
X130410060Y-111439411D01*
X130410297Y-111473301D01*
X130410468Y-111511773D01*
X130410571Y-111554291D01*
X130410600Y-111600315D01*
X130410553Y-111649308D01*
X130410480Y-111682071D01*
X130409585Y-112012448D01*
X130397806Y-112035478D01*
X130388051Y-112051689D01*
X130376968Y-112063282D01*
X130367021Y-112070258D01*
X130358129Y-112075405D01*
X130349915Y-112078905D01*
X130340409Y-112081178D01*
X130327646Y-112082646D01*
X130309656Y-112083732D01*
X130302624Y-112084061D01*
X130257232Y-112086114D01*
X130208299Y-112216981D01*
X130196344Y-112248978D01*
X130184711Y-112280165D01*
X130173819Y-112309408D01*
X130164090Y-112335575D01*
X130155946Y-112357532D01*
X130149808Y-112374147D01*
X130146797Y-112382358D01*
X130134228Y-112416867D01*
X130279719Y-112415268D01*
X130317835Y-112414822D01*
X130349047Y-112414367D01*
X130374265Y-112413853D01*
X130394399Y-112413228D01*
X130410359Y-112412440D01*
X130423054Y-112411438D01*
X130433393Y-112410170D01*
X130442286Y-112408584D01*
X130450642Y-112406629D01*
X130455683Y-112405284D01*
X130493759Y-112392187D01*
X130526980Y-112374716D01*
X130557632Y-112351537D01*
X130573748Y-112336350D01*
X130599428Y-112306934D01*
X130620650Y-112274371D01*
X130637859Y-112237668D01*
X130651503Y-112195830D01*
X130662027Y-112147860D01*
X130664287Y-112134389D01*
X130665252Y-112127918D01*
X130666125Y-112121012D01*
X130666910Y-112113271D01*
X130667613Y-112104292D01*
X130668237Y-112093674D01*
X130668787Y-112081015D01*
X130669269Y-112065914D01*
X130669686Y-112047969D01*
X130670043Y-112026779D01*
X130670344Y-112001942D01*
X130670595Y-111973056D01*
X130670799Y-111939720D01*
X130670962Y-111901533D01*
X130670976Y-111896549D01*
X130989699Y-111896549D01*
X130989776Y-111999144D01*
X130990200Y-112046169D01*
X130991518Y-112086556D01*
X130993919Y-112121448D01*
X130997588Y-112151987D01*
X131002712Y-112179317D01*
X131009478Y-112204580D01*
X131018073Y-112228918D01*
X131028683Y-112253476D01*
X131032698Y-112261906D01*
X131055356Y-112301728D01*
X131081724Y-112335071D01*
X131112532Y-112362682D01*
X131148511Y-112385304D01*
X131158844Y-112390480D01*
X131173797Y-112397393D01*
X131187951Y-112403269D01*
X131202074Y-112408188D01*
X131216931Y-112412229D01*
X131233290Y-112415471D01*
X131251919Y-112417996D01*
X131273583Y-112419882D01*
X131299049Y-112421209D01*
X131329086Y-112422058D01*
X131364459Y-112422508D01*
X131405936Y-112422639D01*
X131454284Y-112422531D01*
X131466290Y-112422481D01*
X131508892Y-112422281D01*
X131544463Y-112422063D01*
X131573786Y-112421792D01*
X131597643Y-112421435D01*
X131616816Y-112420957D01*
X131632088Y-112420322D01*
X131644242Y-112419498D01*
X131654058Y-112418449D01*
X131662320Y-112417140D01*
X131669811Y-112415537D01*
X131677312Y-112413607D01*
X131679194Y-112413092D01*
X131724411Y-112397174D01*
X131764737Y-112375536D01*
X131800360Y-112347986D01*
X131831470Y-112314332D01*
X131858254Y-112274378D01*
X131880902Y-112227934D01*
X131893880Y-112193013D01*
X131903104Y-112163517D01*
X131910425Y-112135692D01*
X131916035Y-112108063D01*
X131920126Y-112079150D01*
X131922888Y-112047477D01*
X131924515Y-112011567D01*
X131925197Y-111969941D01*
X131925249Y-111951340D01*
X131925137Y-111917127D01*
X131924784Y-111889605D01*
X131924135Y-111867656D01*
X131923133Y-111850159D01*
X131921724Y-111835996D01*
X131919852Y-111824046D01*
X131918680Y-111818348D01*
X131904653Y-111768396D01*
X131885110Y-111720712D01*
X131859753Y-111674945D01*
X131828283Y-111630741D01*
X131790400Y-111587751D01*
X131745806Y-111545622D01*
X131694201Y-111504003D01*
X131635286Y-111462542D01*
X131593251Y-111435708D01*
X131529798Y-111395278D01*
X131473696Y-111356713D01*
X131424755Y-111319837D01*
X131382784Y-111284474D01*
X131347592Y-111250448D01*
X131318989Y-111217583D01*
X131296784Y-111185705D01*
X131280787Y-111154635D01*
X131276445Y-111143427D01*
X131272169Y-111129901D01*
X131269411Y-111116843D01*
X131267863Y-111101874D01*
X131267220Y-111082613D01*
X131267142Y-111071300D01*
X131267059Y-111025296D01*
X131284277Y-111008078D01*
X131292536Y-111000263D01*
X131300681Y-110993961D01*
X131309639Y-110989011D01*
X131320339Y-110985251D01*
X131333708Y-110982519D01*
X131350674Y-110980655D01*
X131372167Y-110979496D01*
X131399113Y-110978880D01*
X131432442Y-110978647D01*
X131453452Y-110978624D01*
X131488505Y-110978681D01*
X131516705Y-110978958D01*
X131539012Y-110979608D01*
X131556387Y-110980786D01*
X131569790Y-110982647D01*
X131580181Y-110985345D01*
X131588519Y-110989035D01*
X131595766Y-110993871D01*
X131602881Y-111000009D01*
X131606296Y-111003237D01*
X131622780Y-111023729D01*
X131635670Y-111050313D01*
X131645071Y-111083294D01*
X131651086Y-111122975D01*
X131652362Y-111137813D01*
X131654955Y-111173948D01*
X131791106Y-111173948D01*
X131927256Y-111173948D01*
X131927256Y-111073857D01*
X131926911Y-111029295D01*
X131925789Y-110991290D01*
X131923763Y-110958614D01*
X131920707Y-110930039D01*
X131916494Y-110904337D01*
X131910996Y-110880278D01*
X131905115Y-110859875D01*
X131886535Y-110811310D01*
X131876441Y-110793009D01*
X132212430Y-110793009D01*
X132212430Y-110959009D01*
X132383339Y-110960027D01*
X132554248Y-110961044D01*
X132555235Y-111688628D01*
X132556222Y-112416212D01*
X132683162Y-112416212D01*
X132810103Y-112416212D01*
X133485946Y-112416212D01*
X133954725Y-112416212D01*
X134423504Y-112416212D01*
X134423504Y-112250186D01*
X134423504Y-112084160D01*
X134085592Y-112084160D01*
X133747681Y-112084160D01*
X133747681Y-111357553D01*
X133747681Y-110630946D01*
X133619409Y-110630946D01*
X133491137Y-110630946D01*
X133488544Y-110915143D01*
X133488237Y-110953089D01*
X133487940Y-110998123D01*
X133487656Y-111049521D01*
X133487386Y-111106558D01*
X133487133Y-111168509D01*
X133486898Y-111234650D01*
X133486685Y-111304255D01*
X133486494Y-111376601D01*
X133486328Y-111450963D01*
X133486190Y-111526615D01*
X133486081Y-111602834D01*
X133486003Y-111678894D01*
X133485959Y-111754071D01*
X133485949Y-111807776D01*
X133485946Y-112416212D01*
X132810103Y-112416212D01*
X132811089Y-111688628D01*
X132812076Y-110961044D01*
X132983028Y-110960027D01*
X133153979Y-110959009D01*
X133152960Y-110794001D01*
X133151941Y-110628993D01*
X132682186Y-110628000D01*
X132212430Y-110627008D01*
X132212430Y-110793009D01*
X131876441Y-110793009D01*
X131863120Y-110768859D01*
X131834723Y-110732392D01*
X131801204Y-110701777D01*
X131762417Y-110676882D01*
X131718219Y-110657576D01*
X131669428Y-110643932D01*
X131660672Y-110642208D01*
X131651411Y-110640781D01*
X131640839Y-110639626D01*
X131628145Y-110638714D01*
X131612521Y-110638017D01*
X131593157Y-110637509D01*
X131569247Y-110637161D01*
X131539979Y-110636947D01*
X131504546Y-110636837D01*
X131462139Y-110636806D01*
X131460431Y-110636806D01*
X131416646Y-110636830D01*
X131379820Y-110636947D01*
X131349100Y-110637217D01*
X131323632Y-110637706D01*
X131302563Y-110638476D01*
X131285039Y-110639590D01*
X131270205Y-110641113D01*
X131257210Y-110643105D01*
X131245199Y-110645632D01*
X131233318Y-110648757D01*
X131220714Y-110652542D01*
X131212369Y-110655182D01*
X131167859Y-110672963D01*
X131128504Y-110696295D01*
X131094209Y-110725301D01*
X131064881Y-110760106D01*
X131040423Y-110800831D01*
X131020742Y-110847603D01*
X131005743Y-110900543D01*
X130999223Y-110933699D01*
X130996894Y-110951957D01*
X130994861Y-110976491D01*
X130993156Y-111005770D01*
X130991812Y-111038259D01*
X130990862Y-111072428D01*
X130990338Y-111106743D01*
X130990272Y-111139673D01*
X130990696Y-111169685D01*
X130991643Y-111195246D01*
X130993146Y-111214825D01*
X130993255Y-111215780D01*
X131002954Y-111270409D01*
X131019084Y-111322052D01*
X131041960Y-111371344D01*
X131071893Y-111418917D01*
X131109199Y-111465404D01*
X131126043Y-111483614D01*
X131155607Y-111513017D01*
X131186188Y-111540417D01*
X131219065Y-111566793D01*
X131255520Y-111593124D01*
X131296835Y-111620388D01*
X131339330Y-111646594D01*
X131394712Y-111680860D01*
X131445594Y-111714348D01*
X131491608Y-111746761D01*
X131532383Y-111777797D01*
X131567549Y-111807160D01*
X131596739Y-111834549D01*
X131619582Y-111859665D01*
X131635708Y-111882210D01*
X131639886Y-111889815D01*
X131643653Y-111897791D01*
X131646333Y-111905185D01*
X131648106Y-111913515D01*
X131649156Y-111924303D01*
X131649665Y-111939069D01*
X131649814Y-111959334D01*
X131649810Y-111972616D01*
X131649259Y-112003736D01*
X131647392Y-112028151D01*
X131643740Y-112046921D01*
X131637837Y-112061109D01*
X131629216Y-112071774D01*
X131617410Y-112079979D01*
X131601952Y-112086784D01*
X131599111Y-112087813D01*
X131590676Y-112089428D01*
X131575694Y-112090899D01*
X131555430Y-112092202D01*
X131531149Y-112093317D01*
X131504116Y-112094219D01*
X131475596Y-112094887D01*
X131446853Y-112095299D01*
X131419154Y-112095431D01*
X131393762Y-112095262D01*
X131371943Y-112094770D01*
X131354962Y-112093931D01*
X131344084Y-112092724D01*
X131342437Y-112092354D01*
X131321133Y-112082558D01*
X131303259Y-112065823D01*
X131288868Y-112042257D01*
X131278014Y-112011967D01*
X131270751Y-111975060D01*
X131267633Y-111942116D01*
X131265106Y-111898602D01*
X131127402Y-111897575D01*
X130989699Y-111896549D01*
X130670976Y-111896549D01*
X130671087Y-111858092D01*
X130671180Y-111808997D01*
X130671245Y-111753845D01*
X130671287Y-111692236D01*
X130671310Y-111623767D01*
X130671319Y-111548037D01*
X130671320Y-111517719D01*
X130671315Y-111439259D01*
X130671299Y-111368215D01*
X130671266Y-111304190D01*
X130671213Y-111246790D01*
X130671133Y-111195616D01*
X130671024Y-111150272D01*
X130670880Y-111110363D01*
X130670696Y-111075490D01*
X130670469Y-111045259D01*
X130670193Y-111019271D01*
X130669864Y-110997132D01*
X130669478Y-110978444D01*
X130669029Y-110962810D01*
X130668513Y-110949835D01*
X130667927Y-110939122D01*
X130667264Y-110930273D01*
X130666521Y-110922894D01*
X130665692Y-110916586D01*
X130664775Y-110910954D01*
X130664288Y-110908307D01*
X130657665Y-110875886D01*
X130650854Y-110848366D01*
X130643079Y-110822857D01*
X130635633Y-110801935D01*
X130625774Y-110775647D01*
X130653430Y-110702089D01*
X130661841Y-110679590D01*
X130669222Y-110659600D01*
X130675158Y-110643265D01*
X130679234Y-110631728D01*
X130680753Y-110627008D01*
X130681035Y-110626132D01*
X130681086Y-110625832D01*
X130677336Y-110625166D01*
X130666715Y-110624559D01*
X130650162Y-110624033D01*
X130628620Y-110623609D01*
X130603029Y-110623308D01*
X130574329Y-110623151D01*
X130560409Y-110623133D01*
X130439732Y-110623133D01*
X130433896Y-110637782D01*
X130431506Y-110644017D01*
X130426646Y-110656888D01*
X130419574Y-110675713D01*
X130410545Y-110699805D01*
X130399816Y-110728480D01*
X130387643Y-110761053D01*
X130374282Y-110796840D01*
X130359989Y-110835155D01*
X130345101Y-110875102D01*
X130329198Y-110917760D01*
X130313230Y-110960543D01*
X130297559Y-111002484D01*
X130282549Y-111042613D01*
X130268561Y-111079962D01*
X130255959Y-111113563D01*
X130245105Y-111142448D01*
X130236361Y-111165648D01*
X130231740Y-111177855D01*
X130224999Y-111195630D01*
X130215826Y-111219841D01*
X130204551Y-111249616D01*
X130191505Y-111284083D01*
X130177018Y-111322368D01*
X130161420Y-111363600D01*
X130145041Y-111406907D01*
X130128210Y-111451415D01*
X130111259Y-111496252D01*
X130106836Y-111507953D01*
X130090785Y-111550415D01*
X130075439Y-111591001D01*
X130061041Y-111629078D01*
X130047829Y-111664009D01*
X130036044Y-111695159D01*
X130025927Y-111721892D01*
X130017718Y-111743574D01*
X130011657Y-111759569D01*
X130007985Y-111769242D01*
X130007069Y-111771641D01*
X130006180Y-111773039D01*
X130005399Y-111772050D01*
X130004720Y-111768264D01*
X130004138Y-111761268D01*
X130003649Y-111750651D01*
X130003246Y-111736000D01*
X130002925Y-111716905D01*
X130002681Y-111692954D01*
X130002508Y-111663734D01*
X130002402Y-111628835D01*
X130002356Y-111587844D01*
X130002366Y-111540349D01*
X130002427Y-111485940D01*
X130002534Y-111424203D01*
X130002558Y-111412244D01*
X130003310Y-111039174D01*
X130012309Y-111019642D01*
X130026356Y-110995952D01*
X130044311Y-110978257D01*
X130058001Y-110969680D01*
X130065320Y-110966373D01*
X130073801Y-110963933D01*
X130084927Y-110962156D01*
X130100180Y-110960840D01*
X130121042Y-110959779D01*
X130133657Y-110959295D01*
X130193688Y-110957138D01*
X130251619Y-110801685D01*
X130264017Y-110768390D01*
X130275624Y-110737168D01*
X130286142Y-110708823D01*
X130295274Y-110684158D01*
X130302723Y-110663978D01*
X130308192Y-110649084D01*
X130311383Y-110640282D01*
X130312049Y-110638361D01*
X130312511Y-110636467D01*
X130312134Y-110634911D01*
X130310241Y-110633665D01*
X130306159Y-110632703D01*
X130299213Y-110632000D01*
X130288726Y-110631527D01*
X130274025Y-110631259D01*
X130254435Y-110631169D01*
X130229280Y-110631231D01*
X130197886Y-110631419D01*
X130159577Y-110631705D01*
X130145256Y-110631817D01*
X130104380Y-110632149D01*
X130070516Y-110632473D01*
X130042866Y-110632831D01*
X130020627Y-110633266D01*
X130003002Y-110633820D01*
X129989188Y-110634537D01*
X129978387Y-110635457D01*
X129969798Y-110636625D01*
X129962620Y-110638081D01*
X129956055Y-110639870D01*
X129949302Y-110642033D01*
X129948619Y-110642260D01*
X129907179Y-110659049D01*
X129870974Y-110680240D01*
X129839722Y-110706223D01*
X129813140Y-110737384D01*
X129790944Y-110774114D01*
X129772851Y-110816801D01*
X129758579Y-110865833D01*
X129748555Y-110917039D01*
X129747587Y-110923543D01*
X129746713Y-110930515D01*
X129745927Y-110938362D01*
X129745225Y-110947490D01*
X129744602Y-110958305D01*
X129744054Y-110971211D01*
X129743575Y-110986617D01*
X129743162Y-111004926D01*
X129742809Y-111026546D01*
X129742512Y-111051882D01*
X129742266Y-111081340D01*
X129742067Y-111115325D01*
X129741909Y-111154245D01*
X129741788Y-111198505D01*
X129741699Y-111248511D01*
X129741639Y-111304668D01*
X129741601Y-111367383D01*
X129741581Y-111437061D01*
X129741575Y-111514109D01*
X129185306Y-111514109D01*
X129181988Y-111503483D01*
X129173882Y-111477502D01*
X129167663Y-111457539D01*
X129163476Y-111444056D01*
X129161463Y-111437512D01*
X129161374Y-111437212D01*
X129160666Y-111434595D01*
X129160212Y-111431802D01*
X129160158Y-111428409D01*
X129160652Y-111423995D01*
X129161841Y-111418139D01*
X129163872Y-111410418D01*
X129166894Y-111400411D01*
X129171051Y-111387695D01*
X129176493Y-111371849D01*
X129183367Y-111352451D01*
X129191818Y-111329079D01*
X129201996Y-111301311D01*
X129214046Y-111268725D01*
X129228117Y-111230900D01*
X129244355Y-111187413D01*
X129262907Y-111137843D01*
X129283922Y-111081768D01*
X129305548Y-111024091D01*
X129325518Y-110970820D01*
X129344702Y-110919612D01*
X129362922Y-110870943D01*
X129380002Y-110825283D01*
X129395766Y-110783107D01*
X129410037Y-110744888D01*
X129422640Y-110711097D01*
X129433396Y-110682209D01*
X129442130Y-110658696D01*
X129448666Y-110641032D01*
X129452826Y-110629689D01*
X129454434Y-110625140D01*
X129454448Y-110625077D01*
X129450696Y-110624603D01*
X129440059Y-110624171D01*
X129423465Y-110623796D01*
X129401840Y-110623491D01*
X129376114Y-110623271D01*
X129347214Y-110623151D01*
X129330299Y-110623133D01*
X129206150Y-110623133D01*
X129120325Y-110854042D01*
X129105214Y-110894619D01*
X129090829Y-110933097D01*
X129077412Y-110968836D01*
X129065205Y-111001201D01*
X129054449Y-111029553D01*
X129045388Y-111053254D01*
X129038262Y-111071668D01*
X129033315Y-111084156D01*
X129030787Y-111090082D01*
X129030594Y-111090423D01*
X129028879Y-111089646D01*
X129025620Y-111084299D01*
X129020667Y-111074024D01*
X129013871Y-111058461D01*
X129005081Y-111037251D01*
X128994149Y-111010038D01*
X128980926Y-110976462D01*
X128965261Y-110936164D01*
X128952646Y-110903462D01*
X128937834Y-110864978D01*
X128923340Y-110827339D01*
X128909507Y-110791438D01*
X128896679Y-110758167D01*
X128885201Y-110728418D01*
X128875418Y-110703086D01*
X128867673Y-110683060D01*
X128862310Y-110669235D01*
X128861471Y-110667081D01*
X128844338Y-110623133D01*
X128727655Y-110623133D01*
X128610972Y-110623133D01*
X128722563Y-110954208D01*
X128739850Y-111005506D01*
X128757001Y-111056418D01*
X128773772Y-111106217D01*
X128789918Y-111154177D01*
X128805195Y-111199571D01*
X128819359Y-111241674D01*
X128832164Y-111279758D01*
X128843367Y-111313097D01*
X128852723Y-111340965D01*
X128859988Y-111362635D01*
X128863515Y-111373179D01*
X128892877Y-111461075D01*
X128723981Y-111908368D01*
X128702385Y-111965567D01*
X128681407Y-112021138D01*
X128661231Y-112074596D01*
X128642038Y-112125459D01*
X128624011Y-112173243D01*
X128607331Y-112217466D01*
X128592181Y-112257645D01*
X128578743Y-112293296D01*
X128567199Y-112323936D01*
X128557732Y-112349082D01*
X128550523Y-112368251D01*
X128545754Y-112380961D01*
X128543879Y-112385991D01*
X128532673Y-112416320D01*
X126785960Y-112416320D01*
X126830171Y-112346384D01*
X126884290Y-112246845D01*
X126930908Y-112145207D01*
X126970041Y-112041411D01*
X127001706Y-111935394D01*
X127025921Y-111827098D01*
X127042702Y-111716460D01*
X127052066Y-111603421D01*
X127053390Y-111525532D01*
X127426979Y-111525532D01*
X127426979Y-112416212D01*
X127571499Y-112416212D01*
X127716019Y-112416212D01*
X127717016Y-112056655D01*
X127718013Y-111697099D01*
X127886563Y-112055679D01*
X128055114Y-112414259D01*
X128204225Y-112415282D01*
X128237397Y-112415434D01*
X128267908Y-112415427D01*
X128294926Y-112415274D01*
X128317617Y-112414984D01*
X128335150Y-112414570D01*
X128346693Y-112414043D01*
X128351412Y-112413413D01*
X128351469Y-112413284D01*
X128349437Y-112408952D01*
X128344546Y-112398013D01*
X128337024Y-112380986D01*
X128327095Y-112358391D01*
X128314985Y-112330748D01*
X128300920Y-112298576D01*
X128285125Y-112262395D01*
X128267827Y-112222725D01*
X128249250Y-112180086D01*
X128229621Y-112134997D01*
X128209166Y-112087978D01*
X128188109Y-112039548D01*
X128166678Y-111990228D01*
X128145096Y-111940537D01*
X128123591Y-111890996D01*
X128102387Y-111842122D01*
X128081711Y-111794437D01*
X128061788Y-111748460D01*
X128042844Y-111704711D01*
X128025105Y-111663709D01*
X128008795Y-111625975D01*
X127994142Y-111592027D01*
X127981370Y-111562386D01*
X127970706Y-111537572D01*
X127962374Y-111518103D01*
X127956601Y-111504500D01*
X127953613Y-111497283D01*
X127953233Y-111496234D01*
X127954844Y-111492258D01*
X127959554Y-111481641D01*
X127967161Y-111464822D01*
X127977462Y-111442241D01*
X127990255Y-111414337D01*
X128005337Y-111381551D01*
X128022505Y-111344321D01*
X128041557Y-111303087D01*
X128062290Y-111258290D01*
X128084501Y-111210367D01*
X128107988Y-111159760D01*
X128132548Y-111106907D01*
X128149518Y-111070426D01*
X128174722Y-111016245D01*
X128199019Y-110963972D01*
X128222204Y-110914050D01*
X128244072Y-110866924D01*
X128264417Y-110823037D01*
X128283034Y-110782833D01*
X128299718Y-110746755D01*
X128314264Y-110715248D01*
X128326466Y-110688755D01*
X128336119Y-110667720D01*
X128343019Y-110652586D01*
X128346958Y-110643798D01*
X128347838Y-110641689D01*
X128347961Y-110639918D01*
X128346716Y-110638482D01*
X128343376Y-110637345D01*
X128337217Y-110636473D01*
X128327514Y-110635830D01*
X128313540Y-110635384D01*
X128294570Y-110635097D01*
X128269880Y-110634936D01*
X128238744Y-110634866D01*
X128205255Y-110634852D01*
X128060687Y-110634852D01*
X127889499Y-110959091D01*
X127864820Y-111005787D01*
X127841156Y-111050469D01*
X127818763Y-111092659D01*
X127797898Y-111131878D01*
X127778816Y-111167650D01*
X127761773Y-111199495D01*
X127747024Y-111226937D01*
X127734827Y-111249498D01*
X127725436Y-111266699D01*
X127719107Y-111278062D01*
X127716097Y-111283111D01*
X127715892Y-111283330D01*
X127715543Y-111279519D01*
X127715253Y-111268470D01*
X127715021Y-111250756D01*
X127714850Y-111226951D01*
X127714740Y-111197630D01*
X127714692Y-111163366D01*
X127714708Y-111124733D01*
X127714787Y-111082307D01*
X127714933Y-111036660D01*
X127715144Y-110988366D01*
X127715299Y-110959091D01*
X127717126Y-110634852D01*
X127572053Y-110634852D01*
X127426979Y-110634852D01*
X127426979Y-111525532D01*
X127053390Y-111525532D01*
X127054030Y-111487919D01*
X127048611Y-111369894D01*
X127035826Y-111249284D01*
X127026296Y-111185668D01*
X127003606Y-111071390D01*
X126973544Y-110959326D01*
X126936260Y-110849835D01*
X126891907Y-110743274D01*
X126840638Y-110640002D01*
X126837638Y-110634852D01*
X126782606Y-110540376D01*
X126717962Y-110444755D01*
X126701110Y-110421949D01*
X126653785Y-110362169D01*
X126601128Y-110301311D01*
X126545001Y-110241349D01*
X126487262Y-110184262D01*
X126429773Y-110132026D01*
X126422035Y-110125370D01*
X126405496Y-110110953D01*
X126391280Y-110098003D01*
X126380374Y-110087465D01*
X126373768Y-110080284D01*
X126372227Y-110077704D01*
X126374708Y-110074407D01*
X126382176Y-110066231D01*
X126394673Y-110053135D01*
X126412240Y-110035079D01*
X126434917Y-110012021D01*
X126462745Y-109983922D01*
X126495764Y-109950741D01*
X126534016Y-109912436D01*
X126577541Y-109868967D01*
X126626379Y-109820293D01*
X126680572Y-109766374D01*
X126740160Y-109707169D01*
X126805184Y-109642636D01*
X126875685Y-109572736D01*
X126951703Y-109497428D01*
X126992580Y-109456954D01*
X127025084Y-109424890D01*
X127052536Y-109398094D01*
X127075333Y-109376236D01*
X127093869Y-109358983D01*
X127108542Y-109346004D01*
X127119748Y-109336968D01*
X127127882Y-109331543D01*
X127133340Y-109329398D01*
X127136520Y-109330201D01*
X127137817Y-109333621D01*
X127137899Y-109335339D01*
X127141128Y-109339435D01*
X127150357Y-109347121D01*
X127164899Y-109357943D01*
X127184070Y-109371450D01*
X127207182Y-109387188D01*
X127233549Y-109404705D01*
X127262487Y-109423547D01*
X127293307Y-109443263D01*
X127325325Y-109463399D01*
X127357855Y-109483503D01*
X127390209Y-109503122D01*
X127410490Y-109515205D01*
X127541158Y-109589034D01*
X127672949Y-109656740D01*
X127805278Y-109718077D01*
X127937559Y-109772795D01*
X128069208Y-109820647D01*
X128199639Y-109861384D01*
X128276830Y-109882248D01*
X128321659Y-109893312D01*
X128365975Y-109903620D01*
X128408851Y-109912995D01*
X128449358Y-109921259D01*
X128486570Y-109928235D01*
X128519561Y-109933746D01*
X128547402Y-109937615D01*
X128569167Y-109939664D01*
X128578418Y-109939949D01*
X128592160Y-109940295D01*
X128602226Y-109941347D01*
X128606675Y-109942888D01*
X128606740Y-109943111D01*
X128609856Y-109945793D01*
X128619424Y-109948088D01*
X128635772Y-109950035D01*
X128659231Y-109951672D01*
X128690128Y-109953035D01*
X128694622Y-109953192D01*
X128714376Y-109954059D01*
X128731097Y-109955169D01*
X128743354Y-109956398D01*
X128749715Y-109957622D01*
X128750280Y-109958013D01*
X128754360Y-109959310D01*
X128764168Y-109959923D01*
X128777642Y-109959730D01*
X128778615Y-109959686D01*
X128792080Y-109959471D01*
X128801844Y-109960124D01*
X128805939Y-109961503D01*
X128805962Y-109961639D01*
X128809592Y-109962864D01*
X128819416Y-109963638D01*
X128833822Y-109963883D01*
X128846980Y-109963661D01*
X128863813Y-109963439D01*
X128877300Y-109963798D01*
X128885831Y-109964660D01*
X128888008Y-109965615D01*
X128891722Y-109966570D01*
X128902094Y-109967411D01*
X128917969Y-109968091D01*
X128938190Y-109968565D01*
X128961605Y-109968785D01*
X128968092Y-109968796D01*
X128992149Y-109968648D01*
X129013314Y-109968236D01*
X129030433Y-109967606D01*
X129042351Y-109966802D01*
X129047912Y-109965872D01*
X129048174Y-109965615D01*
X129051807Y-109964418D01*
X129061634Y-109963667D01*
X129076042Y-109963436D01*
X129089199Y-109963661D01*
X129106032Y-109963958D01*
X129119518Y-109963800D01*
X129128045Y-109963233D01*
X129130218Y-109962547D01*
X129133857Y-109961398D01*
X129143744Y-109960050D01*
X129158322Y-109958679D01*
X129174157Y-109957573D01*
X129261190Y-109950305D01*
X129353053Y-109938772D01*
X129448240Y-109923281D01*
X129545242Y-109904134D01*
X129642551Y-109881636D01*
X129738659Y-109856091D01*
X129832059Y-109827803D01*
X129854863Y-109820320D01*
X129980409Y-109774923D01*
X130106668Y-109722351D01*
X130232762Y-109663076D01*
X130357813Y-109597571D01*
X130480941Y-109526310D01*
X130601268Y-109449765D01*
X130717914Y-109368410D01*
X130778259Y-109323262D01*
X130793340Y-109312309D01*
X130805887Y-109304372D01*
X130814575Y-109300244D01*
X130817324Y-109299906D01*
X130822074Y-109302651D01*
G37*
G36*
X134528024Y-108824472D02*
G01*
X134543020Y-108842048D01*
X134558371Y-108859415D01*
X134574862Y-108877388D01*
X134593279Y-108896785D01*
X134614407Y-108918424D01*
X134639032Y-108943123D01*
X134667938Y-108971698D01*
X134694677Y-108997900D01*
X134714295Y-109017094D01*
X134738809Y-109041115D01*
X134767551Y-109069306D01*
X134799851Y-109101011D01*
X134835042Y-109135573D01*
X134872454Y-109172336D01*
X134911419Y-109210641D01*
X134951269Y-109249832D01*
X134991335Y-109289253D01*
X135030947Y-109328246D01*
X135042682Y-109339802D01*
X135085796Y-109382245D01*
X135132354Y-109428055D01*
X135181326Y-109476219D01*
X135231680Y-109525723D01*
X135282384Y-109575554D01*
X135332409Y-109624699D01*
X135380722Y-109672144D01*
X135426293Y-109716876D01*
X135468090Y-109757882D01*
X135495835Y-109785086D01*
X135544917Y-109833206D01*
X135588701Y-109876158D01*
X135627479Y-109914237D01*
X135661544Y-109947734D01*
X135691187Y-109976942D01*
X135716699Y-110002154D01*
X135738372Y-110023662D01*
X135756498Y-110041759D01*
X135771369Y-110056739D01*
X135783276Y-110068892D01*
X135792510Y-110078513D01*
X135799365Y-110085894D01*
X135804130Y-110091327D01*
X135807099Y-110095106D01*
X135808562Y-110097522D01*
X135808812Y-110098869D01*
X135808731Y-110099054D01*
X135804958Y-110102448D01*
X135796007Y-110109472D01*
X135783066Y-110119227D01*
X135767318Y-110130808D01*
X135760356Y-110135854D01*
X135740896Y-110150081D01*
X135720963Y-110164970D01*
X135702747Y-110178865D01*
X135688437Y-110190111D01*
X135686999Y-110191276D01*
X135673867Y-110201813D01*
X135656512Y-110215536D01*
X135636917Y-110230885D01*
X135617068Y-110246301D01*
X135611077Y-110250925D01*
X135530023Y-110315641D01*
X135454235Y-110380798D01*
X135384185Y-110445938D01*
X135320342Y-110510607D01*
X135263180Y-110574349D01*
X135215414Y-110633731D01*
X135156029Y-110718374D01*
X135103513Y-110806428D01*
X135057811Y-110898035D01*
X135018865Y-110993338D01*
X134986621Y-111092478D01*
X134961023Y-111195598D01*
X134942015Y-111302839D01*
X134936841Y-111341927D01*
X134933704Y-111375062D01*
X134931460Y-111413950D01*
X134930109Y-111456653D01*
X134929653Y-111501228D01*
X134930093Y-111545734D01*
X134931429Y-111588231D01*
X134933664Y-111626777D01*
X134936666Y-111658353D01*
X134952868Y-111762437D01*
X134975833Y-111862620D01*
X135005586Y-111958953D01*
X135042150Y-112051490D01*
X135085552Y-112140283D01*
X135135815Y-112225385D01*
X135192964Y-112306849D01*
X135257025Y-112384728D01*
X135296288Y-112427169D01*
X135322609Y-112453406D01*
X135354786Y-112483576D01*
X135392895Y-112517743D01*
X135437013Y-112555972D01*
X135487215Y-112598327D01*
X135543579Y-112644873D01*
X135606180Y-112695674D01*
X135675095Y-112750795D01*
X135722392Y-112788246D01*
X135744771Y-112806077D01*
X135765060Y-112822572D01*
X135782461Y-112837059D01*
X135796178Y-112848861D01*
X135805412Y-112857305D01*
X135809369Y-112861716D01*
X135809452Y-112861944D01*
X135806888Y-112865328D01*
X135799093Y-112874125D01*
X135786264Y-112888130D01*
X135768597Y-112907135D01*
X135746288Y-112930934D01*
X135719535Y-112959320D01*
X135688533Y-112992088D01*
X135653478Y-113029029D01*
X135614568Y-113069939D01*
X135571999Y-113114609D01*
X135525967Y-113162834D01*
X135476669Y-113214408D01*
X135424300Y-113269122D01*
X135369059Y-113326772D01*
X135311140Y-113387150D01*
X135250741Y-113450050D01*
X135192882Y-113510248D01*
X135135177Y-113570258D01*
X135078769Y-113628915D01*
X135023907Y-113685961D01*
X134970841Y-113741134D01*
X134919822Y-113794177D01*
X134871098Y-113844830D01*
X134824920Y-113892832D01*
X134781536Y-113937925D01*
X134741198Y-113979849D01*
X134704154Y-114018344D01*
X134670654Y-114053151D01*
X134640948Y-114084010D01*
X134615286Y-114110662D01*
X134593917Y-114132848D01*
X134577091Y-114150307D01*
X134565058Y-114162781D01*
X134558067Y-114170009D01*
X134556556Y-114171560D01*
X134537938Y-114190473D01*
X134436773Y-114108869D01*
X134388816Y-114070346D01*
X134345852Y-114036209D01*
X134306940Y-114005755D01*
X134271143Y-113978282D01*
X134237524Y-113953088D01*
X134205143Y-113929469D01*
X134173064Y-113906725D01*
X134140346Y-113884152D01*
X134106054Y-113861048D01*
X134103171Y-113859127D01*
X134000025Y-113793279D01*
X133895086Y-113731798D01*
X133789280Y-113675143D01*
X133683535Y-113623769D01*
X133578778Y-113578135D01*
X133475938Y-113538697D01*
X133403910Y-113514492D01*
X133276400Y-113478373D01*
X133145820Y-113449433D01*
X133012184Y-113427674D01*
X132875509Y-113413096D01*
X132735809Y-113405703D01*
X132593099Y-113405494D01*
X132447394Y-113412471D01*
X132376503Y-113418364D01*
X132255859Y-113433226D01*
X132134679Y-113454966D01*
X132014188Y-113483253D01*
X131895612Y-113517757D01*
X131780175Y-113558150D01*
X131669103Y-113604100D01*
X131644036Y-113615544D01*
X131625193Y-113624297D01*
X131605502Y-113633432D01*
X131588330Y-113641384D01*
X131583485Y-113643624D01*
X131529484Y-113670093D01*
X131471107Y-113701487D01*
X131409403Y-113737108D01*
X131345423Y-113776260D01*
X131280218Y-113818246D01*
X131214838Y-113862371D01*
X131150333Y-113907937D01*
X131087754Y-113954249D01*
X131028152Y-114000609D01*
X130972576Y-114046322D01*
X130960400Y-114056735D01*
X130944119Y-114070771D01*
X130923848Y-114088251D01*
X130901513Y-114107516D01*
X130879036Y-114126905D01*
X130863764Y-114140082D01*
X130845548Y-114155492D01*
X130828949Y-114168955D01*
X130815002Y-114179680D01*
X130804741Y-114186873D01*
X130799200Y-114189740D01*
X130798979Y-114189759D01*
X130792611Y-114186482D01*
X130783880Y-114177446D01*
X130776637Y-114167792D01*
X130765156Y-114153461D01*
X130747555Y-114134838D01*
X130724085Y-114112157D01*
X130694994Y-114085651D01*
X130660533Y-114055552D01*
X130620950Y-114022094D01*
X130618566Y-114020108D01*
X130502522Y-113927950D01*
X130384949Y-113843408D01*
X130265702Y-113766410D01*
X130144636Y-113696882D01*
X130021606Y-113634751D01*
X129896468Y-113579945D01*
X129769076Y-113532391D01*
X129639286Y-113492015D01*
X129506953Y-113458745D01*
X129501849Y-113457615D01*
X129381451Y-113434482D01*
X129257070Y-113417113D01*
X129130075Y-113405577D01*
X129001833Y-113399944D01*
X128873713Y-113400285D01*
X128747083Y-113406669D01*
X128661430Y-113414618D01*
X128526172Y-113433537D01*
X128392365Y-113460111D01*
X128260117Y-113494301D01*
X128129537Y-113536064D01*
X128000734Y-113585360D01*
X127873815Y-113642148D01*
X127748890Y-113706386D01*
X127626066Y-113778034D01*
X127522689Y-113845215D01*
X127491778Y-113866492D01*
X127462446Y-113887180D01*
X127433500Y-113908172D01*
X127403745Y-113930364D01*
X127371985Y-113954649D01*
X127337028Y-113981921D01*
X127297677Y-114013077D01*
X127284393Y-114023669D01*
X127245572Y-114054604D01*
X127209807Y-114082985D01*
X127177562Y-114108446D01*
X127149304Y-114130621D01*
X127125500Y-114149146D01*
X127106616Y-114163655D01*
X127093119Y-114173783D01*
X127088784Y-114176915D01*
X127076780Y-114185398D01*
X126787984Y-113882225D01*
X126712021Y-113802477D01*
X126641150Y-113728065D01*
X126575071Y-113658675D01*
X126513483Y-113593989D01*
X126456086Y-113533690D01*
X126402579Y-113477462D01*
X126352662Y-113424989D01*
X126306035Y-113375953D01*
X126262397Y-113330039D01*
X126221448Y-113286929D01*
X126182887Y-113246307D01*
X126146415Y-113207858D01*
X126111730Y-113171263D01*
X126078533Y-113136207D01*
X126046522Y-113102372D01*
X126015398Y-113069443D01*
X125984860Y-113037103D01*
X125954607Y-113005035D01*
X125924340Y-112972923D01*
X125893758Y-112940450D01*
X125862561Y-112907299D01*
X125832401Y-112875231D01*
X125986129Y-112875231D01*
X126080302Y-112974844D01*
X126174895Y-113074841D01*
X126265208Y-113170190D01*
X126352273Y-113261974D01*
X126437118Y-113351277D01*
X126520775Y-113439182D01*
X126604272Y-113526773D01*
X126688642Y-113615132D01*
X126774913Y-113705344D01*
X126776549Y-113707053D01*
X126814125Y-113746320D01*
X126850661Y-113784511D01*
X126885730Y-113821177D01*
X126918904Y-113855871D01*
X126949757Y-113888146D01*
X126977860Y-113917554D01*
X127002786Y-113943649D01*
X127024109Y-113965983D01*
X127041399Y-113984109D01*
X127054231Y-113997580D01*
X127062176Y-114005948D01*
X127063180Y-114007010D01*
X127076228Y-114020582D01*
X127085224Y-114029076D01*
X127091265Y-114033291D01*
X127095445Y-114034027D01*
X127098244Y-114032602D01*
X127103419Y-114028314D01*
X127113227Y-114020028D01*
X127126377Y-114008843D01*
X127141576Y-113995854D01*
X127145618Y-113992391D01*
X127266267Y-113893508D01*
X127388708Y-113802221D01*
X127512986Y-113718508D01*
X127639149Y-113642348D01*
X127767244Y-113573721D01*
X127897318Y-113512605D01*
X128029418Y-113458980D01*
X128163591Y-113412824D01*
X128299883Y-113374118D01*
X128438343Y-113342839D01*
X128579016Y-113318968D01*
X128692682Y-113305239D01*
X128837458Y-113294462D01*
X128980306Y-113291171D01*
X129121304Y-113295388D01*
X129260530Y-113307133D01*
X129398063Y-113326428D01*
X129533982Y-113353294D01*
X129668364Y-113387754D01*
X129801288Y-113429829D01*
X129932833Y-113479539D01*
X130063076Y-113536907D01*
X130192096Y-113601954D01*
X130319972Y-113674701D01*
X130446781Y-113755171D01*
X130520920Y-113806129D01*
X130565846Y-113838579D01*
X130613432Y-113874185D01*
X130661754Y-113911448D01*
X130708888Y-113948864D01*
X130752909Y-113984933D01*
X130785955Y-114012988D01*
X130814648Y-114037835D01*
X130825641Y-114028831D01*
X130831943Y-114023599D01*
X130843118Y-114014253D01*
X130858069Y-114001712D01*
X130875696Y-113986899D01*
X130894900Y-113970736D01*
X130898517Y-113967689D01*
X130965347Y-113913190D01*
X131036832Y-113858210D01*
X131111118Y-113804067D01*
X131186348Y-113752074D01*
X131260665Y-113703548D01*
X131332213Y-113659801D01*
X131337376Y-113656773D01*
X131398529Y-113622427D01*
X131464784Y-113587766D01*
X131534292Y-113553642D01*
X131605203Y-113520907D01*
X131675667Y-113490414D01*
X131743836Y-113463014D01*
X131807858Y-113439560D01*
X131812015Y-113438129D01*
X131948180Y-113395552D01*
X132085667Y-113360666D01*
X132224517Y-113333464D01*
X132364774Y-113313940D01*
X132506480Y-113302088D01*
X132649678Y-113297901D01*
X132751632Y-113299555D01*
X132890181Y-113307898D01*
X133026499Y-113323259D01*
X133160850Y-113345723D01*
X133293495Y-113375374D01*
X133424700Y-113412298D01*
X133554726Y-113456578D01*
X133683838Y-113508299D01*
X133812298Y-113567547D01*
X133940371Y-113634405D01*
X134068319Y-113708958D01*
X134113363Y-113737039D01*
X134201190Y-113794654D01*
X134287967Y-113855572D01*
X134375399Y-113921026D01*
X134451640Y-113981256D01*
X134520794Y-114037129D01*
X134565269Y-113991366D01*
X134574410Y-113981908D01*
X134588490Y-113967268D01*
X134607055Y-113947921D01*
X134629655Y-113924338D01*
X134655834Y-113896994D01*
X134685142Y-113866361D01*
X134717125Y-113832912D01*
X134751330Y-113797122D01*
X134787305Y-113759463D01*
X134824598Y-113720408D01*
X134862754Y-113680430D01*
X134872520Y-113670195D01*
X134918974Y-113621515D01*
X134960462Y-113578054D01*
X134997407Y-113539378D01*
X135030231Y-113505048D01*
X135059357Y-113474628D01*
X135085208Y-113447681D01*
X135108206Y-113423770D01*
X135128774Y-113402459D01*
X135147334Y-113383310D01*
X135164310Y-113365887D01*
X135180124Y-113349752D01*
X135195199Y-113334470D01*
X135209956Y-113319602D01*
X135224820Y-113304713D01*
X135240211Y-113289364D01*
X135256554Y-113273121D01*
X135259514Y-113270183D01*
X135275649Y-113254020D01*
X135289667Y-113239692D01*
X135300695Y-113228117D01*
X135307855Y-113220214D01*
X135310277Y-113216937D01*
X135312916Y-113213484D01*
X135320333Y-113205297D01*
X135331779Y-113193162D01*
X135346504Y-113177869D01*
X135363760Y-113160204D01*
X135377664Y-113146122D01*
X135397370Y-113126173D01*
X135421202Y-113101922D01*
X135447865Y-113074691D01*
X135476066Y-113045807D01*
X135504510Y-113016593D01*
X135531904Y-112988375D01*
X135543796Y-112976093D01*
X135642540Y-112874015D01*
X135627872Y-112861924D01*
X135618716Y-112854860D01*
X135611941Y-112850505D01*
X135610111Y-112849832D01*
X135606070Y-112847420D01*
X135597515Y-112840887D01*
X135585784Y-112831289D01*
X135574866Y-112821989D01*
X135560949Y-112810159D01*
X135542667Y-112794941D01*
X135521788Y-112777788D01*
X135500079Y-112760155D01*
X135484116Y-112747331D01*
X135465651Y-112732431D01*
X135449244Y-112718913D01*
X135435903Y-112707630D01*
X135426635Y-112699434D01*
X135422449Y-112695179D01*
X135422394Y-112695091D01*
X135416450Y-112690235D01*
X135413605Y-112689666D01*
X135408529Y-112687717D01*
X135407939Y-112686167D01*
X135405130Y-112682469D01*
X135397431Y-112674785D01*
X135385937Y-112664151D01*
X135371745Y-112651601D01*
X135367898Y-112648281D01*
X135320005Y-112606309D01*
X135277482Y-112567130D01*
X135239044Y-112529445D01*
X135203406Y-112491955D01*
X135169281Y-112453360D01*
X135139164Y-112417055D01*
X135076380Y-112333220D01*
X135019758Y-112245016D01*
X134969604Y-112153058D01*
X134926224Y-112057962D01*
X134889923Y-111960342D01*
X134861008Y-111860815D01*
X134859299Y-111853917D01*
X134854317Y-111833135D01*
X134849857Y-111813707D01*
X134846352Y-111797579D01*
X134844236Y-111786692D01*
X134844017Y-111785314D01*
X134841988Y-111772533D01*
X134839992Y-111761423D01*
X134839720Y-111760078D01*
X134835230Y-111736184D01*
X134831280Y-111709974D01*
X134827736Y-111680252D01*
X134824466Y-111645820D01*
X134821337Y-111605483D01*
X134819493Y-111578270D01*
X134816853Y-111492747D01*
X134819693Y-111403981D01*
X134824046Y-111349740D01*
X134826767Y-111323118D01*
X134829248Y-111300828D01*
X134831203Y-111285283D01*
X134832712Y-111274212D01*
X134834624Y-111259975D01*
X134835414Y-111254031D01*
X134838992Y-111231139D01*
X134844237Y-111202976D01*
X134850669Y-111171786D01*
X134857812Y-111139811D01*
X134865187Y-111109294D01*
X134870969Y-111087304D01*
X134902949Y-110983802D01*
X134940595Y-110885311D01*
X134984248Y-110791122D01*
X135034248Y-110700526D01*
X135090937Y-110612816D01*
X135117459Y-110575806D01*
X135127623Y-110561780D01*
X135135776Y-110550044D01*
X135140951Y-110542020D01*
X135142298Y-110539257D01*
X135145064Y-110535067D01*
X135151752Y-110528926D01*
X135152064Y-110528679D01*
X135158890Y-110522153D01*
X135161828Y-110517051D01*
X135161830Y-110516960D01*
X135164628Y-110511937D01*
X135171381Y-110505411D01*
X135171597Y-110505240D01*
X135178438Y-110498534D01*
X135181361Y-110493039D01*
X135181363Y-110492959D01*
X135184189Y-110487912D01*
X135191306Y-110480600D01*
X135195036Y-110477450D01*
X135203314Y-110470057D01*
X135208173Y-110464195D01*
X135208708Y-110462709D01*
X135211372Y-110458980D01*
X135218783Y-110450690D01*
X135230072Y-110438707D01*
X135244369Y-110423901D01*
X135260804Y-110407139D01*
X135278509Y-110389292D01*
X135296613Y-110371228D01*
X135314247Y-110353816D01*
X135330542Y-110337925D01*
X135344627Y-110324423D01*
X135355633Y-110314181D01*
X135362690Y-110308066D01*
X135364826Y-110306707D01*
X135369185Y-110303896D01*
X135376295Y-110296707D01*
X135381063Y-110291081D01*
X135389133Y-110282136D01*
X135395928Y-110276481D01*
X135398480Y-110275455D01*
X135403933Y-110272689D01*
X135411357Y-110265833D01*
X135413199Y-110263736D01*
X135420428Y-110256223D01*
X135426048Y-110252219D01*
X135426936Y-110252016D01*
X135431840Y-110249223D01*
X135438312Y-110242480D01*
X135438493Y-110242250D01*
X135444618Y-110235460D01*
X135448852Y-110232489D01*
X135448948Y-110232484D01*
X135452913Y-110230176D01*
X135461626Y-110223898D01*
X135473783Y-110214622D01*
X135487450Y-110203824D01*
X135504575Y-110190237D01*
X135522310Y-110176415D01*
X135538175Y-110164281D01*
X135546698Y-110157922D01*
X135559740Y-110148145D01*
X135576421Y-110135333D01*
X135594309Y-110121366D01*
X135606686Y-110111558D01*
X135643156Y-110082434D01*
X135594898Y-110035381D01*
X135584866Y-110025575D01*
X135569762Y-110010774D01*
X135550082Y-109991465D01*
X135526319Y-109968135D01*
X135498969Y-109941270D01*
X135468529Y-109911357D01*
X135435492Y-109878883D01*
X135400355Y-109844335D01*
X135363612Y-109808198D01*
X135325758Y-109770960D01*
X135292579Y-109738313D01*
X135253311Y-109699689D01*
X135211968Y-109659061D01*
X135168936Y-109616805D01*
X135124598Y-109573296D01*
X135079339Y-109528909D01*
X135033542Y-109484020D01*
X134987591Y-109439005D01*
X134941871Y-109394240D01*
X134896766Y-109350099D01*
X134852661Y-109306958D01*
X134809938Y-109265193D01*
X134768982Y-109225179D01*
X134730178Y-109187292D01*
X134693910Y-109151907D01*
X134660560Y-109119400D01*
X134630515Y-109090147D01*
X134604158Y-109064522D01*
X134581872Y-109042902D01*
X134564043Y-109025661D01*
X134551054Y-109013176D01*
X134543748Y-109006249D01*
X134531568Y-108995420D01*
X134523020Y-108989433D01*
X134516479Y-108987351D01*
X134511768Y-108987825D01*
X134505524Y-108991156D01*
X134494738Y-108998720D01*
X134480693Y-109009547D01*
X134464674Y-109022666D01*
X134456551Y-109029586D01*
X134345924Y-109119989D01*
X134229939Y-109204962D01*
X134109081Y-109284258D01*
X133983836Y-109357633D01*
X133854689Y-109424842D01*
X133722127Y-109485638D01*
X133586635Y-109539777D01*
X133448699Y-109587014D01*
X133308804Y-109627103D01*
X133239837Y-109644028D01*
X133136522Y-109665615D01*
X133033035Y-109682366D01*
X132927856Y-109694448D01*
X132819465Y-109702025D01*
X132706341Y-109705265D01*
X132677302Y-109705416D01*
X132564590Y-109703552D01*
X132456328Y-109697613D01*
X132350496Y-109687357D01*
X132245076Y-109672544D01*
X132138047Y-109652930D01*
X132027392Y-109628274D01*
X132021847Y-109626934D01*
X131994562Y-109620079D01*
X131964850Y-109612205D01*
X131933645Y-109603596D01*
X131901880Y-109594538D01*
X131870488Y-109585317D01*
X131840402Y-109576216D01*
X131812555Y-109567522D01*
X131787881Y-109559519D01*
X131767311Y-109552494D01*
X131751780Y-109546730D01*
X131742221Y-109542513D01*
X131739599Y-109540662D01*
X131734872Y-109538069D01*
X131725011Y-109534935D01*
X131717137Y-109533035D01*
X131705795Y-109529992D01*
X131698402Y-109526835D01*
X131696773Y-109525086D01*
X131693428Y-109522392D01*
X131687007Y-109521503D01*
X131679663Y-109520335D01*
X131677241Y-109518096D01*
X131673790Y-109515414D01*
X131665166Y-109512847D01*
X131661615Y-109512190D01*
X131651846Y-109509774D01*
X131646397Y-109506771D01*
X131645989Y-109505831D01*
X131642654Y-109502898D01*
X131636502Y-109501970D01*
X131626592Y-109499631D01*
X131621155Y-109496111D01*
X131613430Y-109491242D01*
X131608877Y-109490251D01*
X131600937Y-109487642D01*
X131596600Y-109484391D01*
X131588137Y-109479715D01*
X131581253Y-109478531D01*
X131574043Y-109477377D01*
X131571766Y-109475252D01*
X131568495Y-109471356D01*
X131560750Y-109467035D01*
X131551636Y-109463770D01*
X131545911Y-109462905D01*
X131538388Y-109460317D01*
X131534096Y-109457046D01*
X131525576Y-109452315D01*
X131519028Y-109451186D01*
X131509540Y-109449116D01*
X131504658Y-109446085D01*
X131499870Y-109442959D01*
X131489115Y-109436845D01*
X131473395Y-109428286D01*
X131453714Y-109417820D01*
X131431076Y-109405988D01*
X131411600Y-109395949D01*
X131320771Y-109347669D01*
X131234555Y-109298112D01*
X131151277Y-109246187D01*
X131069262Y-109190804D01*
X130986835Y-109130875D01*
X130902321Y-109065308D01*
X130897205Y-109061216D01*
X130869969Y-109039721D01*
X130847846Y-109023060D01*
X130830142Y-109010840D01*
X130816165Y-109002666D01*
X130805221Y-108998144D01*
X130796618Y-108996880D01*
X130789664Y-108998479D01*
X130788246Y-108999199D01*
X130782929Y-109003053D01*
X130772943Y-109011066D01*
X130759491Y-109022242D01*
X130743780Y-109035588D01*
X130734960Y-109043189D01*
X130651133Y-109112161D01*
X130560444Y-109179921D01*
X130463821Y-109245894D01*
X130362190Y-109309503D01*
X130256477Y-109370174D01*
X130147608Y-109427330D01*
X130036510Y-109480395D01*
X130019489Y-109488066D01*
X129902882Y-109536794D01*
X129782214Y-109580691D01*
X129659022Y-109619308D01*
X129534839Y-109652197D01*
X129411202Y-109678910D01*
X129304048Y-109696957D01*
X129268357Y-109702023D01*
X129236506Y-109706238D01*
X129207249Y-109709679D01*
X129179340Y-109712422D01*
X129151534Y-109714544D01*
X129122585Y-109716120D01*
X129091249Y-109717227D01*
X129056278Y-109717942D01*
X129016428Y-109718341D01*
X128970453Y-109718500D01*
X128952464Y-109718513D01*
X128906212Y-109718455D01*
X128866796Y-109718239D01*
X128833239Y-109717839D01*
X128804566Y-109717225D01*
X128779801Y-109716371D01*
X128757967Y-109715248D01*
X128738088Y-109713829D01*
X128719188Y-109712085D01*
X128716121Y-109711767D01*
X128591217Y-109696100D01*
X128469460Y-109675789D01*
X128352386Y-109651101D01*
X128317216Y-109642584D01*
X128285669Y-109634535D01*
X128255448Y-109626518D01*
X128227512Y-109618813D01*
X128202820Y-109611700D01*
X128182332Y-109605459D01*
X128167005Y-109600370D01*
X128157801Y-109596712D01*
X128155735Y-109595453D01*
X128149055Y-109592455D01*
X128143735Y-109591820D01*
X128135299Y-109590611D01*
X128123564Y-109587566D01*
X128111189Y-109583554D01*
X128100830Y-109579446D01*
X128095144Y-109576111D01*
X128094921Y-109575833D01*
X128090443Y-109573488D01*
X128080313Y-109569908D01*
X128066458Y-109565755D01*
X128061784Y-109564474D01*
X128047176Y-109560270D01*
X128035705Y-109556427D01*
X128029298Y-109553609D01*
X128028647Y-109553055D01*
X128023810Y-109550408D01*
X128014409Y-109547766D01*
X128011976Y-109547281D01*
X128002583Y-109544681D01*
X127997579Y-109541594D01*
X127997327Y-109540858D01*
X127993983Y-109538054D01*
X127987561Y-109537129D01*
X127980219Y-109535791D01*
X127977795Y-109533222D01*
X127974452Y-109530286D01*
X127968028Y-109529316D01*
X127960687Y-109527978D01*
X127958262Y-109525409D01*
X127954919Y-109522473D01*
X127948496Y-109521503D01*
X127941154Y-109520165D01*
X127938730Y-109517596D01*
X127935387Y-109514660D01*
X127928963Y-109513690D01*
X127921619Y-109512530D01*
X127919197Y-109510304D01*
X127915866Y-109507039D01*
X127907447Y-109502429D01*
X127896306Y-109497483D01*
X127884806Y-109493206D01*
X127875310Y-109490607D01*
X127872124Y-109490251D01*
X127865540Y-109488702D01*
X127863855Y-109487042D01*
X127860116Y-109484488D01*
X127850335Y-109479070D01*
X127835515Y-109471308D01*
X127816658Y-109461722D01*
X127794765Y-109450830D01*
X127781181Y-109444173D01*
X127668632Y-109386559D01*
X127560363Y-109325374D01*
X127455034Y-109259758D01*
X127351303Y-109188851D01*
X127247831Y-109111791D01*
X127180871Y-109058639D01*
X127157421Y-109039751D01*
X127138992Y-109025454D01*
X127124656Y-109015270D01*
X127113483Y-109008724D01*
X127104548Y-109005340D01*
X127096920Y-109004642D01*
X127089673Y-109006154D01*
X127083434Y-109008677D01*
X127078966Y-109012018D01*
X127069797Y-109020125D01*
X127055869Y-109033057D01*
X127037122Y-109050871D01*
X127013499Y-109073624D01*
X126984940Y-109101375D01*
X126951386Y-109134180D01*
X126912779Y-109172098D01*
X126869061Y-109215187D01*
X126820171Y-109263503D01*
X126766053Y-109317104D01*
X126706646Y-109376049D01*
X126641892Y-109440395D01*
X126571732Y-109510199D01*
X126527848Y-109553898D01*
X125987438Y-110092183D01*
X126005017Y-110103170D01*
X126015515Y-110110590D01*
X126029496Y-110121637D01*
X126044784Y-110134553D01*
X126053848Y-110142624D01*
X126065199Y-110152838D01*
X126081320Y-110167168D01*
X126101074Y-110184614D01*
X126123326Y-110204175D01*
X126146942Y-110224852D01*
X126170786Y-110245644D01*
X126170890Y-110245735D01*
X126214616Y-110283982D01*
X126253005Y-110318059D01*
X126286798Y-110348709D01*
X126316731Y-110376674D01*
X126343543Y-110402700D01*
X126367973Y-110427529D01*
X126390758Y-110451905D01*
X126412638Y-110476571D01*
X126434349Y-110502271D01*
X126456631Y-110529749D01*
X126471167Y-110548146D01*
X126490778Y-110574042D01*
X126512770Y-110604561D01*
X126535954Y-110637932D01*
X126559141Y-110672387D01*
X126581140Y-110706154D01*
X126600763Y-110737464D01*
X126616819Y-110764548D01*
X126617847Y-110766361D01*
X126665942Y-110859124D01*
X126707191Y-110954839D01*
X126741394Y-111052875D01*
X126768351Y-111152599D01*
X126787865Y-111253379D01*
X126798418Y-111339055D01*
X126799934Y-111362396D01*
X126800898Y-111391696D01*
X126801342Y-111425413D01*
X126801292Y-111462007D01*
X126800780Y-111499936D01*
X126799833Y-111537659D01*
X126798481Y-111573635D01*
X126796753Y-111606322D01*
X126794678Y-111634180D01*
X126792457Y-111654446D01*
X126777053Y-111748303D01*
X126756936Y-111841286D01*
X126732484Y-111932132D01*
X126704074Y-112019580D01*
X126672083Y-112102367D01*
X126636890Y-112179232D01*
X126633622Y-112185729D01*
X126594020Y-112258109D01*
X126549322Y-112328836D01*
X126499172Y-112398315D01*
X126443215Y-112466953D01*
X126381094Y-112535155D01*
X126312453Y-112603325D01*
X126236937Y-112671869D01*
X126154189Y-112741192D01*
X126126057Y-112763660D01*
X126107884Y-112778153D01*
X126091787Y-112791252D01*
X126078802Y-112802093D01*
X126069963Y-112809813D01*
X126066350Y-112813468D01*
X126061049Y-112818086D01*
X126058892Y-112818581D01*
X126053422Y-112820916D01*
X126043724Y-112827085D01*
X126031498Y-112835834D01*
X126018444Y-112845907D01*
X126006263Y-112856048D01*
X125998503Y-112863159D01*
X125986129Y-112875231D01*
X125832401Y-112875231D01*
X125830448Y-112873154D01*
X125830187Y-112872877D01*
X125809615Y-112850997D01*
X125880947Y-112800786D01*
X125934716Y-112762606D01*
X125982818Y-112727701D01*
X126026258Y-112695279D01*
X126066041Y-112664554D01*
X126103173Y-112634734D01*
X126138660Y-112605030D01*
X126173507Y-112574654D01*
X126203649Y-112547464D01*
X126284847Y-112468513D01*
X126358696Y-112386938D01*
X126425228Y-112302681D01*
X126484476Y-112215684D01*
X126536469Y-112125889D01*
X126581240Y-112033237D01*
X126618820Y-111937671D01*
X126649241Y-111839133D01*
X126672534Y-111737564D01*
X126685569Y-111657717D01*
X126689187Y-111624349D01*
X126691900Y-111585393D01*
X126693699Y-111542658D01*
X126694574Y-111497952D01*
X126694516Y-111453083D01*
X126693516Y-111409861D01*
X126691563Y-111370093D01*
X126688650Y-111335589D01*
X126687304Y-111324348D01*
X126669325Y-111217196D01*
X126644104Y-111112965D01*
X126611669Y-111011720D01*
X126572052Y-110913532D01*
X126525282Y-110818468D01*
X126471391Y-110726595D01*
X126410409Y-110637982D01*
X126342366Y-110552697D01*
X126340916Y-110551005D01*
X126301729Y-110506770D01*
X126260741Y-110463386D01*
X126217263Y-110420238D01*
X126170607Y-110376706D01*
X126120084Y-110332174D01*
X126065006Y-110286025D01*
X126004683Y-110237641D01*
X125938428Y-110186404D01*
X125911821Y-110166260D01*
X125832299Y-110106369D01*
X125972372Y-109966975D01*
X125990468Y-109948962D01*
X126013704Y-109925824D01*
X126041687Y-109897953D01*
X126074025Y-109865740D01*
X126110324Y-109829577D01*
X126150191Y-109789855D01*
X126193233Y-109746966D01*
X126239059Y-109701302D01*
X126287274Y-109653254D01*
X126337486Y-109603213D01*
X126389302Y-109551571D01*
X126442328Y-109498719D01*
X126496173Y-109445050D01*
X126550443Y-109390954D01*
X126604746Y-109336823D01*
X126605435Y-109336136D01*
X127098424Y-108844691D01*
X127113839Y-108857882D01*
X127141972Y-108881881D01*
X127170137Y-108905771D01*
X127197361Y-108928737D01*
X127222670Y-108949961D01*
X127245089Y-108968627D01*
X127263644Y-108983918D01*
X127277360Y-108995016D01*
X127278533Y-108995947D01*
X127299444Y-109012476D01*
X127316053Y-109025511D01*
X127330153Y-109036410D01*
X127343538Y-109046529D01*
X127358003Y-109057226D01*
X127375340Y-109069859D01*
X127395728Y-109084615D01*
X127517420Y-109168502D01*
X127639857Y-109244706D01*
X127763340Y-109313341D01*
X127888171Y-109374523D01*
X128014654Y-109428369D01*
X128143091Y-109474995D01*
X128273783Y-109514516D01*
X128407033Y-109547048D01*
X128543144Y-109572708D01*
X128682417Y-109591612D01*
X128729794Y-109596450D01*
X128750715Y-109597941D01*
X128778232Y-109599181D01*
X128811132Y-109600171D01*
X128848203Y-109600909D01*
X128888231Y-109601395D01*
X128930003Y-109601631D01*
X128972308Y-109601616D01*
X129013931Y-109601349D01*
X129053661Y-109600831D01*
X129090283Y-109600062D01*
X129122586Y-109599042D01*
X129149356Y-109597771D01*
X129167321Y-109596450D01*
X129309112Y-109579597D01*
X129447251Y-109555947D01*
X129582171Y-109525363D01*
X129714306Y-109487707D01*
X129844090Y-109442842D01*
X129971957Y-109390629D01*
X130098341Y-109330932D01*
X130223676Y-109263612D01*
X130232432Y-109258605D01*
X130320652Y-109205614D01*
X130410733Y-109147062D01*
X130500948Y-109084213D01*
X130589569Y-109018333D01*
X130674868Y-108950685D01*
X130755119Y-108882534D01*
X130794609Y-108847016D01*
X130804610Y-108837827D01*
X130907897Y-108924489D01*
X130948022Y-108957957D01*
X130983544Y-108987106D01*
X131015662Y-109012850D01*
X131045572Y-109036105D01*
X131074472Y-109057785D01*
X131103561Y-109078806D01*
X131134036Y-109100082D01*
X131167094Y-109122529D01*
X131167444Y-109122764D01*
X131281053Y-109195676D01*
X131394492Y-109261607D01*
X131509066Y-109321253D01*
X131626081Y-109375305D01*
X131703631Y-109407593D01*
X131830263Y-109454655D01*
X131957424Y-109494811D01*
X132086021Y-109528270D01*
X132216962Y-109555239D01*
X132351155Y-109575927D01*
X132489506Y-109590541D01*
X132509323Y-109592119D01*
X132536921Y-109593762D01*
X132570696Y-109595024D01*
X132609022Y-109595904D01*
X132650272Y-109596402D01*
X132692821Y-109596518D01*
X132735041Y-109596252D01*
X132775306Y-109595604D01*
X132811990Y-109594573D01*
X132843467Y-109593160D01*
X132858954Y-109592146D01*
X132997004Y-109577909D01*
X133133113Y-109556364D01*
X133267436Y-109527457D01*
X133400128Y-109491133D01*
X133531342Y-109447336D01*
X133661234Y-109396011D01*
X133789956Y-109337104D01*
X133917663Y-109270558D01*
X134044510Y-109196320D01*
X134142236Y-109133515D01*
X134169306Y-109114980D01*
X134197554Y-109094683D01*
X134227824Y-109071976D01*
X134260957Y-109046209D01*
X134297796Y-109016734D01*
X134339184Y-108982901D01*
X134358619Y-108966826D01*
X134381278Y-108948064D01*
X134402479Y-108930575D01*
X134421331Y-108915088D01*
X134436945Y-108902333D01*
X134448430Y-108893038D01*
X134454899Y-108887931D01*
X134455267Y-108887656D01*
X134462340Y-108881132D01*
X134472539Y-108870103D01*
X134484300Y-108856312D01*
X134492406Y-108846228D01*
X134518414Y-108813030D01*
X134528024Y-108824472D01*
G37*
D14*
X128533116Y-117022964D02*
X128868992Y-116687088D01*
X128868992Y-117358840D02*
X128533116Y-117022964D01*
X130474124Y-115081956D02*
X130810000Y-114746080D01*
X130810000Y-114746080D02*
X131145876Y-115081956D01*
X130810000Y-119299848D02*
X130474124Y-118963972D01*
X131145876Y-118963972D02*
X130810000Y-119299848D01*
X132751008Y-116687088D02*
X133086884Y-117022964D01*
X133086884Y-117022964D02*
X132751008Y-117358840D01*
X129467912Y-114620214D02*
X129064861Y-114556576D01*
X129404272Y-114217164D01*
X129467912Y-114620214D01*
G36*
X129467912Y-114620214D02*
G01*
X129064861Y-114556576D01*
X129404272Y-114217164D01*
X129467912Y-114620214D01*
G37*
X120540000Y-107950000D02*
X120540000Y-133460000D01*
X120540000Y-107950000D02*
X123300000Y-107950000D01*
X120540000Y-133460000D02*
X123300000Y-133460000D01*
X123300000Y-107950000D02*
X123300000Y-133460000D01*
X138320000Y-107950001D02*
X138320000Y-133460001D01*
X138320000Y-107950001D02*
X141080000Y-107950001D01*
X138320000Y-133460001D02*
X141080000Y-133460001D01*
X141080000Y-107950001D02*
X141080000Y-133460001D01*
%LPC*%
D15*
X130126581Y-115278885D03*
X129773028Y-115632439D03*
X129419475Y-115985992D03*
X129065921Y-116339545D03*
D16*
X129065921Y-117706383D03*
X129419475Y-118059936D03*
X129773028Y-118413489D03*
X130126581Y-118767043D03*
D15*
X131493419Y-118767043D03*
X131846972Y-118413489D03*
X132200525Y-118059936D03*
X132554079Y-117706383D03*
D16*
X132554079Y-116339545D03*
X132200525Y-115985992D03*
X131846972Y-115632439D03*
X131493419Y-115278885D03*
D17*
X130810000Y-117022964D03*
D18*
X121920000Y-109220000D03*
D19*
X121920000Y-111760000D03*
D18*
X121920000Y-114299999D03*
X121920000Y-116840000D03*
X121920000Y-119380000D03*
X121920000Y-121920000D03*
X121920000Y-124460000D03*
X121920000Y-127000001D03*
X121920000Y-129540000D03*
X121920000Y-132080000D03*
X139700000Y-109220001D03*
X139700000Y-111760001D03*
X139700000Y-114300001D03*
X139700000Y-116840001D03*
X139700000Y-119380001D03*
X139700000Y-121920001D03*
X139700000Y-124460001D03*
X139700000Y-127000001D03*
X139700000Y-129540001D03*
X139700000Y-132080001D03*
%LPD*%
M02*
