%TF.GenerationSoftware,KiCad,Pcbnew,9.0.6*%
%TF.CreationDate,2026-01-08T00:16:11-06:00*%
%TF.ProjectId,SMDIP-16_7.62x19.84_P2.54,534d4449-502d-4313-965f-372e36327831,rev?*%
%TF.SameCoordinates,Original*%
%TF.FileFunction,Drillmap*%
%TF.FilePolarity,Positive*%
%FSLAX45Y45*%
G04 Gerber Fmt 4.5, Leading zero omitted, Abs format (unit mm)*
G04 Created by KiCad (PCBNEW 9.0.6) date 2026-01-08 00:16:11*
%MOMM*%
%LPD*%
G01*
G04 APERTURE LIST*
%ADD10C,0.050000*%
%ADD11C,0.200000*%
%ADD12C,0.100000*%
G04 APERTURE END LIST*
D10*
X14251000Y-8756755D02*
G75*
G02*
X14350995Y-8856755I0J-99995D01*
G01*
X12673000Y-8756755D02*
X14251000Y-8756755D01*
X14351000Y-8856755D02*
X14351000Y-10701245D01*
X12673000Y-10801245D02*
G75*
G02*
X12573005Y-10701245I0J99995D01*
G01*
X14251000Y-10801245D02*
X12673000Y-10801245D01*
X14351000Y-10701245D02*
G75*
G02*
X14251000Y-10801250I-100000J-5D01*
G01*
X12573000Y-10701245D02*
X12573000Y-8856755D01*
X12573000Y-8856755D02*
G75*
G02*
X12673000Y-8756760I99990J5D01*
G01*
D11*
D12*
X12649523Y-8840000D02*
X12749523Y-8940000D01*
X12749523Y-8840000D02*
X12649523Y-8940000D01*
X12649523Y-9094000D02*
X12749523Y-9194000D01*
X12749523Y-9094000D02*
X12649523Y-9194000D01*
X12649523Y-9348000D02*
X12749523Y-9448000D01*
X12749523Y-9348000D02*
X12649523Y-9448000D01*
X12649523Y-9602000D02*
X12749523Y-9702000D01*
X12749523Y-9602000D02*
X12649523Y-9702000D01*
X12649523Y-9856000D02*
X12749523Y-9956000D01*
X12749523Y-9856000D02*
X12649523Y-9956000D01*
X12649523Y-10110000D02*
X12749523Y-10210000D01*
X12749523Y-10110000D02*
X12649523Y-10210000D01*
X12649523Y-10364000D02*
X12749523Y-10464000D01*
X12749523Y-10364000D02*
X12649523Y-10464000D01*
X12649523Y-10618000D02*
X12749523Y-10718000D01*
X12749523Y-10618000D02*
X12649523Y-10718000D01*
X14173523Y-8840000D02*
X14273523Y-8940000D01*
X14273523Y-8840000D02*
X14173523Y-8940000D01*
X14173523Y-9094000D02*
X14273523Y-9194000D01*
X14273523Y-9094000D02*
X14173523Y-9194000D01*
X14173523Y-9348000D02*
X14273523Y-9448000D01*
X14273523Y-9348000D02*
X14173523Y-9448000D01*
X14173523Y-9602000D02*
X14273523Y-9702000D01*
X14273523Y-9602000D02*
X14173523Y-9702000D01*
X14173523Y-9856000D02*
X14273523Y-9956000D01*
X14273523Y-9856000D02*
X14173523Y-9956000D01*
X14173523Y-10110000D02*
X14273523Y-10210000D01*
X14273523Y-10110000D02*
X14173523Y-10210000D01*
X14173523Y-10364000D02*
X14273523Y-10464000D01*
X14273523Y-10364000D02*
X14173523Y-10464000D01*
X14173523Y-10618000D02*
X14273523Y-10718000D01*
X14273523Y-10618000D02*
X14173523Y-10718000D01*
D11*
X12831277Y-11115229D02*
X12831277Y-10915229D01*
X12831277Y-10915229D02*
X12878896Y-10915229D01*
X12878896Y-10915229D02*
X12907467Y-10924753D01*
X12907467Y-10924753D02*
X12926515Y-10943801D01*
X12926515Y-10943801D02*
X12936039Y-10962848D01*
X12936039Y-10962848D02*
X12945562Y-11000943D01*
X12945562Y-11000943D02*
X12945562Y-11029515D01*
X12945562Y-11029515D02*
X12936039Y-11067610D01*
X12936039Y-11067610D02*
X12926515Y-11086658D01*
X12926515Y-11086658D02*
X12907467Y-11105705D01*
X12907467Y-11105705D02*
X12878896Y-11115229D01*
X12878896Y-11115229D02*
X12831277Y-11115229D01*
X13031277Y-11115229D02*
X13031277Y-10981896D01*
X13031277Y-11019991D02*
X13040801Y-11000943D01*
X13040801Y-11000943D02*
X13050324Y-10991420D01*
X13050324Y-10991420D02*
X13069372Y-10981896D01*
X13069372Y-10981896D02*
X13088420Y-10981896D01*
X13155086Y-11115229D02*
X13155086Y-10981896D01*
X13155086Y-10915229D02*
X13145562Y-10924753D01*
X13145562Y-10924753D02*
X13155086Y-10934277D01*
X13155086Y-10934277D02*
X13164610Y-10924753D01*
X13164610Y-10924753D02*
X13155086Y-10915229D01*
X13155086Y-10915229D02*
X13155086Y-10934277D01*
X13278896Y-11115229D02*
X13259848Y-11105705D01*
X13259848Y-11105705D02*
X13250324Y-11086658D01*
X13250324Y-11086658D02*
X13250324Y-10915229D01*
X13383658Y-11115229D02*
X13364610Y-11105705D01*
X13364610Y-11105705D02*
X13355086Y-11086658D01*
X13355086Y-11086658D02*
X13355086Y-10915229D01*
X13612229Y-11115229D02*
X13612229Y-10915229D01*
X13612229Y-10915229D02*
X13678896Y-11058086D01*
X13678896Y-11058086D02*
X13745562Y-10915229D01*
X13745562Y-10915229D02*
X13745562Y-11115229D01*
X13926515Y-11115229D02*
X13926515Y-11010467D01*
X13926515Y-11010467D02*
X13916991Y-10991420D01*
X13916991Y-10991420D02*
X13897943Y-10981896D01*
X13897943Y-10981896D02*
X13859848Y-10981896D01*
X13859848Y-10981896D02*
X13840801Y-10991420D01*
X13926515Y-11105705D02*
X13907467Y-11115229D01*
X13907467Y-11115229D02*
X13859848Y-11115229D01*
X13859848Y-11115229D02*
X13840801Y-11105705D01*
X13840801Y-11105705D02*
X13831277Y-11086658D01*
X13831277Y-11086658D02*
X13831277Y-11067610D01*
X13831277Y-11067610D02*
X13840801Y-11048562D01*
X13840801Y-11048562D02*
X13859848Y-11039039D01*
X13859848Y-11039039D02*
X13907467Y-11039039D01*
X13907467Y-11039039D02*
X13926515Y-11029515D01*
X14021753Y-10981896D02*
X14021753Y-11181896D01*
X14021753Y-10991420D02*
X14040801Y-10981896D01*
X14040801Y-10981896D02*
X14078896Y-10981896D01*
X14078896Y-10981896D02*
X14097943Y-10991420D01*
X14097943Y-10991420D02*
X14107467Y-11000943D01*
X14107467Y-11000943D02*
X14116991Y-11019991D01*
X14116991Y-11019991D02*
X14116991Y-11077134D01*
X14116991Y-11077134D02*
X14107467Y-11096181D01*
X14107467Y-11096181D02*
X14097943Y-11105705D01*
X14097943Y-11105705D02*
X14078896Y-11115229D01*
X14078896Y-11115229D02*
X14040801Y-11115229D01*
X14040801Y-11115229D02*
X14021753Y-11105705D01*
X14202705Y-11096181D02*
X14212229Y-11105705D01*
X14212229Y-11105705D02*
X14202705Y-11115229D01*
X14202705Y-11115229D02*
X14193182Y-11105705D01*
X14193182Y-11105705D02*
X14202705Y-11096181D01*
X14202705Y-11096181D02*
X14202705Y-11115229D01*
X14202705Y-10991420D02*
X14212229Y-11000943D01*
X14212229Y-11000943D02*
X14202705Y-11010467D01*
X14202705Y-11010467D02*
X14193182Y-11000943D01*
X14193182Y-11000943D02*
X14202705Y-10991420D01*
X14202705Y-10991420D02*
X14202705Y-11010467D01*
D12*
X12470500Y-11393745D02*
X12570500Y-11493745D01*
X12570500Y-11393745D02*
X12470500Y-11493745D01*
D11*
X12936039Y-11535229D02*
X12821753Y-11535229D01*
X12878896Y-11535229D02*
X12878896Y-11335229D01*
X12878896Y-11335229D02*
X12859848Y-11363800D01*
X12859848Y-11363800D02*
X12840801Y-11382848D01*
X12840801Y-11382848D02*
X12821753Y-11392372D01*
X13021753Y-11516181D02*
X13031277Y-11525705D01*
X13031277Y-11525705D02*
X13021753Y-11535229D01*
X13021753Y-11535229D02*
X13012229Y-11525705D01*
X13012229Y-11525705D02*
X13021753Y-11516181D01*
X13021753Y-11516181D02*
X13021753Y-11535229D01*
X13155086Y-11335229D02*
X13174134Y-11335229D01*
X13174134Y-11335229D02*
X13193182Y-11344753D01*
X13193182Y-11344753D02*
X13202705Y-11354277D01*
X13202705Y-11354277D02*
X13212229Y-11373324D01*
X13212229Y-11373324D02*
X13221753Y-11411419D01*
X13221753Y-11411419D02*
X13221753Y-11459039D01*
X13221753Y-11459039D02*
X13212229Y-11497134D01*
X13212229Y-11497134D02*
X13202705Y-11516181D01*
X13202705Y-11516181D02*
X13193182Y-11525705D01*
X13193182Y-11525705D02*
X13174134Y-11535229D01*
X13174134Y-11535229D02*
X13155086Y-11535229D01*
X13155086Y-11535229D02*
X13136039Y-11525705D01*
X13136039Y-11525705D02*
X13126515Y-11516181D01*
X13126515Y-11516181D02*
X13116991Y-11497134D01*
X13116991Y-11497134D02*
X13107467Y-11459039D01*
X13107467Y-11459039D02*
X13107467Y-11411419D01*
X13107467Y-11411419D02*
X13116991Y-11373324D01*
X13116991Y-11373324D02*
X13126515Y-11354277D01*
X13126515Y-11354277D02*
X13136039Y-11344753D01*
X13136039Y-11344753D02*
X13155086Y-11335229D01*
X13345562Y-11335229D02*
X13364610Y-11335229D01*
X13364610Y-11335229D02*
X13383658Y-11344753D01*
X13383658Y-11344753D02*
X13393182Y-11354277D01*
X13393182Y-11354277D02*
X13402705Y-11373324D01*
X13402705Y-11373324D02*
X13412229Y-11411419D01*
X13412229Y-11411419D02*
X13412229Y-11459039D01*
X13412229Y-11459039D02*
X13402705Y-11497134D01*
X13402705Y-11497134D02*
X13393182Y-11516181D01*
X13393182Y-11516181D02*
X13383658Y-11525705D01*
X13383658Y-11525705D02*
X13364610Y-11535229D01*
X13364610Y-11535229D02*
X13345562Y-11535229D01*
X13345562Y-11535229D02*
X13326515Y-11525705D01*
X13326515Y-11525705D02*
X13316991Y-11516181D01*
X13316991Y-11516181D02*
X13307467Y-11497134D01*
X13307467Y-11497134D02*
X13297943Y-11459039D01*
X13297943Y-11459039D02*
X13297943Y-11411419D01*
X13297943Y-11411419D02*
X13307467Y-11373324D01*
X13307467Y-11373324D02*
X13316991Y-11354277D01*
X13316991Y-11354277D02*
X13326515Y-11344753D01*
X13326515Y-11344753D02*
X13345562Y-11335229D01*
X13536039Y-11335229D02*
X13555086Y-11335229D01*
X13555086Y-11335229D02*
X13574134Y-11344753D01*
X13574134Y-11344753D02*
X13583658Y-11354277D01*
X13583658Y-11354277D02*
X13593182Y-11373324D01*
X13593182Y-11373324D02*
X13602705Y-11411419D01*
X13602705Y-11411419D02*
X13602705Y-11459039D01*
X13602705Y-11459039D02*
X13593182Y-11497134D01*
X13593182Y-11497134D02*
X13583658Y-11516181D01*
X13583658Y-11516181D02*
X13574134Y-11525705D01*
X13574134Y-11525705D02*
X13555086Y-11535229D01*
X13555086Y-11535229D02*
X13536039Y-11535229D01*
X13536039Y-11535229D02*
X13516991Y-11525705D01*
X13516991Y-11525705D02*
X13507467Y-11516181D01*
X13507467Y-11516181D02*
X13497943Y-11497134D01*
X13497943Y-11497134D02*
X13488420Y-11459039D01*
X13488420Y-11459039D02*
X13488420Y-11411419D01*
X13488420Y-11411419D02*
X13497943Y-11373324D01*
X13497943Y-11373324D02*
X13507467Y-11354277D01*
X13507467Y-11354277D02*
X13516991Y-11344753D01*
X13516991Y-11344753D02*
X13536039Y-11335229D01*
X13688420Y-11535229D02*
X13688420Y-11401896D01*
X13688420Y-11420943D02*
X13697943Y-11411419D01*
X13697943Y-11411419D02*
X13716991Y-11401896D01*
X13716991Y-11401896D02*
X13745563Y-11401896D01*
X13745563Y-11401896D02*
X13764610Y-11411419D01*
X13764610Y-11411419D02*
X13774134Y-11430467D01*
X13774134Y-11430467D02*
X13774134Y-11535229D01*
X13774134Y-11430467D02*
X13783658Y-11411419D01*
X13783658Y-11411419D02*
X13802705Y-11401896D01*
X13802705Y-11401896D02*
X13831277Y-11401896D01*
X13831277Y-11401896D02*
X13850324Y-11411419D01*
X13850324Y-11411419D02*
X13859848Y-11430467D01*
X13859848Y-11430467D02*
X13859848Y-11535229D01*
X13955086Y-11535229D02*
X13955086Y-11401896D01*
X13955086Y-11420943D02*
X13964610Y-11411419D01*
X13964610Y-11411419D02*
X13983658Y-11401896D01*
X13983658Y-11401896D02*
X14012229Y-11401896D01*
X14012229Y-11401896D02*
X14031277Y-11411419D01*
X14031277Y-11411419D02*
X14040801Y-11430467D01*
X14040801Y-11430467D02*
X14040801Y-11535229D01*
X14040801Y-11430467D02*
X14050324Y-11411419D01*
X14050324Y-11411419D02*
X14069372Y-11401896D01*
X14069372Y-11401896D02*
X14097943Y-11401896D01*
X14097943Y-11401896D02*
X14116991Y-11411419D01*
X14116991Y-11411419D02*
X14126515Y-11430467D01*
X14126515Y-11430467D02*
X14126515Y-11535229D01*
X14516991Y-11325705D02*
X14345563Y-11582848D01*
X14774134Y-11335229D02*
X14793182Y-11335229D01*
X14793182Y-11335229D02*
X14812229Y-11344753D01*
X14812229Y-11344753D02*
X14821753Y-11354277D01*
X14821753Y-11354277D02*
X14831277Y-11373324D01*
X14831277Y-11373324D02*
X14840801Y-11411419D01*
X14840801Y-11411419D02*
X14840801Y-11459039D01*
X14840801Y-11459039D02*
X14831277Y-11497134D01*
X14831277Y-11497134D02*
X14821753Y-11516181D01*
X14821753Y-11516181D02*
X14812229Y-11525705D01*
X14812229Y-11525705D02*
X14793182Y-11535229D01*
X14793182Y-11535229D02*
X14774134Y-11535229D01*
X14774134Y-11535229D02*
X14755086Y-11525705D01*
X14755086Y-11525705D02*
X14745563Y-11516181D01*
X14745563Y-11516181D02*
X14736039Y-11497134D01*
X14736039Y-11497134D02*
X14726515Y-11459039D01*
X14726515Y-11459039D02*
X14726515Y-11411419D01*
X14726515Y-11411419D02*
X14736039Y-11373324D01*
X14736039Y-11373324D02*
X14745563Y-11354277D01*
X14745563Y-11354277D02*
X14755086Y-11344753D01*
X14755086Y-11344753D02*
X14774134Y-11335229D01*
X14926515Y-11516181D02*
X14936039Y-11525705D01*
X14936039Y-11525705D02*
X14926515Y-11535229D01*
X14926515Y-11535229D02*
X14916991Y-11525705D01*
X14916991Y-11525705D02*
X14926515Y-11516181D01*
X14926515Y-11516181D02*
X14926515Y-11535229D01*
X15059848Y-11335229D02*
X15078896Y-11335229D01*
X15078896Y-11335229D02*
X15097944Y-11344753D01*
X15097944Y-11344753D02*
X15107467Y-11354277D01*
X15107467Y-11354277D02*
X15116991Y-11373324D01*
X15116991Y-11373324D02*
X15126515Y-11411419D01*
X15126515Y-11411419D02*
X15126515Y-11459039D01*
X15126515Y-11459039D02*
X15116991Y-11497134D01*
X15116991Y-11497134D02*
X15107467Y-11516181D01*
X15107467Y-11516181D02*
X15097944Y-11525705D01*
X15097944Y-11525705D02*
X15078896Y-11535229D01*
X15078896Y-11535229D02*
X15059848Y-11535229D01*
X15059848Y-11535229D02*
X15040801Y-11525705D01*
X15040801Y-11525705D02*
X15031277Y-11516181D01*
X15031277Y-11516181D02*
X15021753Y-11497134D01*
X15021753Y-11497134D02*
X15012229Y-11459039D01*
X15012229Y-11459039D02*
X15012229Y-11411419D01*
X15012229Y-11411419D02*
X15021753Y-11373324D01*
X15021753Y-11373324D02*
X15031277Y-11354277D01*
X15031277Y-11354277D02*
X15040801Y-11344753D01*
X15040801Y-11344753D02*
X15059848Y-11335229D01*
X15193182Y-11335229D02*
X15316991Y-11335229D01*
X15316991Y-11335229D02*
X15250325Y-11411419D01*
X15250325Y-11411419D02*
X15278896Y-11411419D01*
X15278896Y-11411419D02*
X15297944Y-11420943D01*
X15297944Y-11420943D02*
X15307467Y-11430467D01*
X15307467Y-11430467D02*
X15316991Y-11449515D01*
X15316991Y-11449515D02*
X15316991Y-11497134D01*
X15316991Y-11497134D02*
X15307467Y-11516181D01*
X15307467Y-11516181D02*
X15297944Y-11525705D01*
X15297944Y-11525705D02*
X15278896Y-11535229D01*
X15278896Y-11535229D02*
X15221753Y-11535229D01*
X15221753Y-11535229D02*
X15202706Y-11525705D01*
X15202706Y-11525705D02*
X15193182Y-11516181D01*
X15412229Y-11535229D02*
X15450325Y-11535229D01*
X15450325Y-11535229D02*
X15469372Y-11525705D01*
X15469372Y-11525705D02*
X15478896Y-11516181D01*
X15478896Y-11516181D02*
X15497944Y-11487610D01*
X15497944Y-11487610D02*
X15507467Y-11449515D01*
X15507467Y-11449515D02*
X15507467Y-11373324D01*
X15507467Y-11373324D02*
X15497944Y-11354277D01*
X15497944Y-11354277D02*
X15488420Y-11344753D01*
X15488420Y-11344753D02*
X15469372Y-11335229D01*
X15469372Y-11335229D02*
X15431277Y-11335229D01*
X15431277Y-11335229D02*
X15412229Y-11344753D01*
X15412229Y-11344753D02*
X15402706Y-11354277D01*
X15402706Y-11354277D02*
X15393182Y-11373324D01*
X15393182Y-11373324D02*
X15393182Y-11420943D01*
X15393182Y-11420943D02*
X15402706Y-11439991D01*
X15402706Y-11439991D02*
X15412229Y-11449515D01*
X15412229Y-11449515D02*
X15431277Y-11459039D01*
X15431277Y-11459039D02*
X15469372Y-11459039D01*
X15469372Y-11459039D02*
X15488420Y-11449515D01*
X15488420Y-11449515D02*
X15497944Y-11439991D01*
X15497944Y-11439991D02*
X15507467Y-11420943D01*
X15678896Y-11401896D02*
X15678896Y-11535229D01*
X15631277Y-11325705D02*
X15583658Y-11468562D01*
X15583658Y-11468562D02*
X15707467Y-11468562D01*
X15774134Y-11335229D02*
X15774134Y-11373324D01*
X15850325Y-11335229D02*
X15850325Y-11373324D01*
X16145563Y-11611419D02*
X16136039Y-11601896D01*
X16136039Y-11601896D02*
X16116991Y-11573324D01*
X16116991Y-11573324D02*
X16107468Y-11554277D01*
X16107468Y-11554277D02*
X16097944Y-11525705D01*
X16097944Y-11525705D02*
X16088420Y-11478086D01*
X16088420Y-11478086D02*
X16088420Y-11439991D01*
X16088420Y-11439991D02*
X16097944Y-11392372D01*
X16097944Y-11392372D02*
X16107468Y-11363800D01*
X16107468Y-11363800D02*
X16116991Y-11344753D01*
X16116991Y-11344753D02*
X16136039Y-11316181D01*
X16136039Y-11316181D02*
X16145563Y-11306658D01*
X16326515Y-11535229D02*
X16212229Y-11535229D01*
X16269372Y-11535229D02*
X16269372Y-11335229D01*
X16269372Y-11335229D02*
X16250325Y-11363800D01*
X16250325Y-11363800D02*
X16231277Y-11382848D01*
X16231277Y-11382848D02*
X16212229Y-11392372D01*
X16497944Y-11335229D02*
X16459848Y-11335229D01*
X16459848Y-11335229D02*
X16440801Y-11344753D01*
X16440801Y-11344753D02*
X16431277Y-11354277D01*
X16431277Y-11354277D02*
X16412229Y-11382848D01*
X16412229Y-11382848D02*
X16402706Y-11420943D01*
X16402706Y-11420943D02*
X16402706Y-11497134D01*
X16402706Y-11497134D02*
X16412229Y-11516181D01*
X16412229Y-11516181D02*
X16421753Y-11525705D01*
X16421753Y-11525705D02*
X16440801Y-11535229D01*
X16440801Y-11535229D02*
X16478896Y-11535229D01*
X16478896Y-11535229D02*
X16497944Y-11525705D01*
X16497944Y-11525705D02*
X16507468Y-11516181D01*
X16507468Y-11516181D02*
X16516991Y-11497134D01*
X16516991Y-11497134D02*
X16516991Y-11449515D01*
X16516991Y-11449515D02*
X16507468Y-11430467D01*
X16507468Y-11430467D02*
X16497944Y-11420943D01*
X16497944Y-11420943D02*
X16478896Y-11411419D01*
X16478896Y-11411419D02*
X16440801Y-11411419D01*
X16440801Y-11411419D02*
X16421753Y-11420943D01*
X16421753Y-11420943D02*
X16412229Y-11430467D01*
X16412229Y-11430467D02*
X16402706Y-11449515D01*
X16755087Y-11535229D02*
X16755087Y-11335229D01*
X16840801Y-11535229D02*
X16840801Y-11430467D01*
X16840801Y-11430467D02*
X16831277Y-11411419D01*
X16831277Y-11411419D02*
X16812230Y-11401896D01*
X16812230Y-11401896D02*
X16783658Y-11401896D01*
X16783658Y-11401896D02*
X16764610Y-11411419D01*
X16764610Y-11411419D02*
X16755087Y-11420943D01*
X16964611Y-11535229D02*
X16945563Y-11525705D01*
X16945563Y-11525705D02*
X16936039Y-11516181D01*
X16936039Y-11516181D02*
X16926515Y-11497134D01*
X16926515Y-11497134D02*
X16926515Y-11439991D01*
X16926515Y-11439991D02*
X16936039Y-11420943D01*
X16936039Y-11420943D02*
X16945563Y-11411419D01*
X16945563Y-11411419D02*
X16964611Y-11401896D01*
X16964611Y-11401896D02*
X16993182Y-11401896D01*
X16993182Y-11401896D02*
X17012230Y-11411419D01*
X17012230Y-11411419D02*
X17021753Y-11420943D01*
X17021753Y-11420943D02*
X17031277Y-11439991D01*
X17031277Y-11439991D02*
X17031277Y-11497134D01*
X17031277Y-11497134D02*
X17021753Y-11516181D01*
X17021753Y-11516181D02*
X17012230Y-11525705D01*
X17012230Y-11525705D02*
X16993182Y-11535229D01*
X16993182Y-11535229D02*
X16964611Y-11535229D01*
X17145563Y-11535229D02*
X17126515Y-11525705D01*
X17126515Y-11525705D02*
X17116992Y-11506658D01*
X17116992Y-11506658D02*
X17116992Y-11335229D01*
X17297944Y-11525705D02*
X17278896Y-11535229D01*
X17278896Y-11535229D02*
X17240801Y-11535229D01*
X17240801Y-11535229D02*
X17221753Y-11525705D01*
X17221753Y-11525705D02*
X17212230Y-11506658D01*
X17212230Y-11506658D02*
X17212230Y-11430467D01*
X17212230Y-11430467D02*
X17221753Y-11411419D01*
X17221753Y-11411419D02*
X17240801Y-11401896D01*
X17240801Y-11401896D02*
X17278896Y-11401896D01*
X17278896Y-11401896D02*
X17297944Y-11411419D01*
X17297944Y-11411419D02*
X17307468Y-11430467D01*
X17307468Y-11430467D02*
X17307468Y-11449515D01*
X17307468Y-11449515D02*
X17212230Y-11468562D01*
X17383658Y-11525705D02*
X17402706Y-11535229D01*
X17402706Y-11535229D02*
X17440801Y-11535229D01*
X17440801Y-11535229D02*
X17459849Y-11525705D01*
X17459849Y-11525705D02*
X17469373Y-11506658D01*
X17469373Y-11506658D02*
X17469373Y-11497134D01*
X17469373Y-11497134D02*
X17459849Y-11478086D01*
X17459849Y-11478086D02*
X17440801Y-11468562D01*
X17440801Y-11468562D02*
X17412230Y-11468562D01*
X17412230Y-11468562D02*
X17393182Y-11459039D01*
X17393182Y-11459039D02*
X17383658Y-11439991D01*
X17383658Y-11439991D02*
X17383658Y-11430467D01*
X17383658Y-11430467D02*
X17393182Y-11411419D01*
X17393182Y-11411419D02*
X17412230Y-11401896D01*
X17412230Y-11401896D02*
X17440801Y-11401896D01*
X17440801Y-11401896D02*
X17459849Y-11411419D01*
X17536039Y-11611419D02*
X17545563Y-11601896D01*
X17545563Y-11601896D02*
X17564611Y-11573324D01*
X17564611Y-11573324D02*
X17574134Y-11554277D01*
X17574134Y-11554277D02*
X17583658Y-11525705D01*
X17583658Y-11525705D02*
X17593182Y-11478086D01*
X17593182Y-11478086D02*
X17593182Y-11439991D01*
X17593182Y-11439991D02*
X17583658Y-11392372D01*
X17583658Y-11392372D02*
X17574134Y-11363800D01*
X17574134Y-11363800D02*
X17564611Y-11344753D01*
X17564611Y-11344753D02*
X17545563Y-11316181D01*
X17545563Y-11316181D02*
X17536039Y-11306658D01*
M02*
