%TF.GenerationSoftware,KiCad,Pcbnew,9.0.6*%
%TF.CreationDate,2026-01-08T00:16:11-06:00*%
%TF.ProjectId,SMDIP-16_7.62x19.84_P2.54,534d4449-502d-4313-965f-372e36327831,rev?*%
%TF.SameCoordinates,Original*%
%TF.FileFunction,Drillmap*%
%TF.FilePolarity,Positive*%
%FSLAX45Y45*%
G04 Gerber Fmt 4.5, Leading zero omitted, Abs format (unit mm)*
G04 Created by KiCad (PCBNEW 9.0.6) date 2026-01-08 00:16:11*
%MOMM*%
%LPD*%
G01*
G04 APERTURE LIST*
%ADD10C,0.050000*%
%ADD11C,0.200000*%
G04 APERTURE END LIST*
D10*
X14251000Y-8756755D02*
G75*
G02*
X14350995Y-8856755I0J-99995D01*
G01*
X12673000Y-8756755D02*
X14251000Y-8756755D01*
X14351000Y-8856755D02*
X14351000Y-10701245D01*
X12673000Y-10801245D02*
G75*
G02*
X12573005Y-10701245I0J99995D01*
G01*
X14251000Y-10801245D02*
X12673000Y-10801245D01*
X14351000Y-10701245D02*
G75*
G02*
X14251000Y-10801250I-100000J-5D01*
G01*
X12573000Y-10701245D02*
X12573000Y-8856755D01*
X12573000Y-8856755D02*
G75*
G02*
X12673000Y-8756760I99990J5D01*
G01*
D11*
X12831277Y-11115229D02*
X12831277Y-10915229D01*
X12831277Y-10915229D02*
X12878896Y-10915229D01*
X12878896Y-10915229D02*
X12907467Y-10924753D01*
X12907467Y-10924753D02*
X12926515Y-10943801D01*
X12926515Y-10943801D02*
X12936039Y-10962848D01*
X12936039Y-10962848D02*
X12945562Y-11000943D01*
X12945562Y-11000943D02*
X12945562Y-11029515D01*
X12945562Y-11029515D02*
X12936039Y-11067610D01*
X12936039Y-11067610D02*
X12926515Y-11086658D01*
X12926515Y-11086658D02*
X12907467Y-11105705D01*
X12907467Y-11105705D02*
X12878896Y-11115229D01*
X12878896Y-11115229D02*
X12831277Y-11115229D01*
X13031277Y-11115229D02*
X13031277Y-10981896D01*
X13031277Y-11019991D02*
X13040801Y-11000943D01*
X13040801Y-11000943D02*
X13050324Y-10991420D01*
X13050324Y-10991420D02*
X13069372Y-10981896D01*
X13069372Y-10981896D02*
X13088420Y-10981896D01*
X13155086Y-11115229D02*
X13155086Y-10981896D01*
X13155086Y-10915229D02*
X13145562Y-10924753D01*
X13145562Y-10924753D02*
X13155086Y-10934277D01*
X13155086Y-10934277D02*
X13164610Y-10924753D01*
X13164610Y-10924753D02*
X13155086Y-10915229D01*
X13155086Y-10915229D02*
X13155086Y-10934277D01*
X13278896Y-11115229D02*
X13259848Y-11105705D01*
X13259848Y-11105705D02*
X13250324Y-11086658D01*
X13250324Y-11086658D02*
X13250324Y-10915229D01*
X13383658Y-11115229D02*
X13364610Y-11105705D01*
X13364610Y-11105705D02*
X13355086Y-11086658D01*
X13355086Y-11086658D02*
X13355086Y-10915229D01*
X13612229Y-11115229D02*
X13612229Y-10915229D01*
X13612229Y-10915229D02*
X13678896Y-11058086D01*
X13678896Y-11058086D02*
X13745562Y-10915229D01*
X13745562Y-10915229D02*
X13745562Y-11115229D01*
X13926515Y-11115229D02*
X13926515Y-11010467D01*
X13926515Y-11010467D02*
X13916991Y-10991420D01*
X13916991Y-10991420D02*
X13897943Y-10981896D01*
X13897943Y-10981896D02*
X13859848Y-10981896D01*
X13859848Y-10981896D02*
X13840801Y-10991420D01*
X13926515Y-11105705D02*
X13907467Y-11115229D01*
X13907467Y-11115229D02*
X13859848Y-11115229D01*
X13859848Y-11115229D02*
X13840801Y-11105705D01*
X13840801Y-11105705D02*
X13831277Y-11086658D01*
X13831277Y-11086658D02*
X13831277Y-11067610D01*
X13831277Y-11067610D02*
X13840801Y-11048562D01*
X13840801Y-11048562D02*
X13859848Y-11039039D01*
X13859848Y-11039039D02*
X13907467Y-11039039D01*
X13907467Y-11039039D02*
X13926515Y-11029515D01*
X14021753Y-10981896D02*
X14021753Y-11181896D01*
X14021753Y-10991420D02*
X14040801Y-10981896D01*
X14040801Y-10981896D02*
X14078896Y-10981896D01*
X14078896Y-10981896D02*
X14097943Y-10991420D01*
X14097943Y-10991420D02*
X14107467Y-11000943D01*
X14107467Y-11000943D02*
X14116991Y-11019991D01*
X14116991Y-11019991D02*
X14116991Y-11077134D01*
X14116991Y-11077134D02*
X14107467Y-11096181D01*
X14107467Y-11096181D02*
X14097943Y-11105705D01*
X14097943Y-11105705D02*
X14078896Y-11115229D01*
X14078896Y-11115229D02*
X14040801Y-11115229D01*
X14040801Y-11115229D02*
X14021753Y-11105705D01*
X14202705Y-11096181D02*
X14212229Y-11105705D01*
X14212229Y-11105705D02*
X14202705Y-11115229D01*
X14202705Y-11115229D02*
X14193182Y-11105705D01*
X14193182Y-11105705D02*
X14202705Y-11096181D01*
X14202705Y-11096181D02*
X14202705Y-11115229D01*
X14202705Y-10991420D02*
X14212229Y-11000943D01*
X14212229Y-11000943D02*
X14202705Y-11010467D01*
X14202705Y-11010467D02*
X14193182Y-11000943D01*
X14193182Y-11000943D02*
X14202705Y-10991420D01*
X14202705Y-10991420D02*
X14202705Y-11010467D01*
M02*
