M48
; DRILL file {KiCad 9.0.6} date 2026-01-07T12:33:42-0600
; FORMAT={-:-/ absolute / metric / decimal}
; #@! TF.CreationDate,2026-01-07T12:33:42-06:00
; #@! TF.GenerationSoftware,Kicad,Pcbnew,9.0.6
; #@! TF.FileFunction,Plated,1,2,PTH
FMAT,2
METRIC
; #@! TA.AperFunction,Plated,PTH,ComponentDrill
T1C0.200
; #@! TA.AperFunction,Plated,PTH,ViaDrill
T2C0.300
; #@! TA.AperFunction,Plated,PTH,ComponentDrill
T3C1.000
%
G90
G05
T1
X136.379Y-128.27
X137.405Y-127.245
X137.405Y-129.295
X138.43Y-126.219
X138.43Y-128.27
X138.43Y-130.321
X139.455Y-127.245
X139.455Y-129.295
X140.481Y-128.27
T2
X138.43Y-93.98
X138.43Y-120.65
X138.43Y-135.89
X138.43Y-162.56
T3
X127.0Y-76.2
X127.0Y-78.74
X127.0Y-81.28
X127.0Y-83.82
X127.0Y-86.36
X127.0Y-88.9
X127.0Y-91.44
X127.0Y-93.98
X127.0Y-96.52
X127.0Y-99.06
X127.0Y-101.6
X127.0Y-104.14
X127.0Y-106.68
X127.0Y-109.22
X127.0Y-111.76
X127.0Y-114.3
X127.0Y-116.84
X127.0Y-119.38
X127.0Y-121.92
X127.0Y-124.46
X127.0Y-127.0
X127.0Y-129.54
X127.0Y-132.08
X127.0Y-134.62
X127.0Y-137.16
X127.0Y-139.7
X127.0Y-142.24
X127.0Y-144.78
X127.0Y-147.32
X127.0Y-149.86
X127.0Y-152.4
X127.0Y-154.94
X127.0Y-157.48
X127.0Y-160.02
X127.0Y-162.56
X127.0Y-165.1
X127.0Y-167.64
X127.0Y-170.18
X127.0Y-172.72
X127.0Y-175.26
X127.0Y-177.8
X127.0Y-180.34
X149.86Y-76.2
X149.86Y-78.74
X149.86Y-81.28
X149.86Y-83.82
X149.86Y-86.36
X149.86Y-88.9
X149.86Y-91.44
X149.86Y-93.98
X149.86Y-96.52
X149.86Y-99.06
X149.86Y-101.6
X149.86Y-104.14
X149.86Y-106.68
X149.86Y-109.22
X149.86Y-111.76
X149.86Y-114.3
X149.86Y-116.84
X149.86Y-119.38
X149.86Y-121.92
X149.86Y-124.46
X149.86Y-127.0
X149.86Y-129.54
X149.86Y-132.08
X149.86Y-134.62
X149.86Y-137.16
X149.86Y-139.7
X149.86Y-142.24
X149.86Y-144.78
X149.86Y-147.32
X149.86Y-149.86
X149.86Y-152.4
X149.86Y-154.94
X149.86Y-157.48
X149.86Y-160.02
X149.86Y-162.56
X149.86Y-165.1
X149.86Y-167.64
X149.86Y-170.18
X149.86Y-172.72
X149.86Y-175.26
X149.86Y-177.8
X149.86Y-180.34
M30
