%TF.GenerationSoftware,KiCad,Pcbnew,9.0.6*%
%TF.CreationDate,2026-01-02T18:24:06-06:00*%
%TF.ProjectId,QFN-80_10x10_P0.4,51464e2d-3830-45f3-9130-7831305f5030,rev?*%
%TF.SameCoordinates,Original*%
%TF.FileFunction,Drillmap*%
%TF.FilePolarity,Positive*%
%FSLAX45Y45*%
G04 Gerber Fmt 4.5, Leading zero omitted, Abs format (unit mm)*
G04 Created by KiCad (PCBNEW 9.0.6) date 2026-01-02 18:24:06*
%MOMM*%
%LPD*%
G01*
G04 APERTURE LIST*
%ADD10C,0.050000*%
%ADD11C,0.200000*%
G04 APERTURE END LIST*
D10*
X12573000Y-7493000D02*
X15113000Y-7493000D01*
X15113000Y-18161000D01*
X12573000Y-18161000D01*
X12573000Y-7493000D01*
D11*
X12831277Y-18474984D02*
X12831277Y-18274984D01*
X12831277Y-18274984D02*
X12878896Y-18274984D01*
X12878896Y-18274984D02*
X12907467Y-18284508D01*
X12907467Y-18284508D02*
X12926515Y-18303555D01*
X12926515Y-18303555D02*
X12936039Y-18322603D01*
X12936039Y-18322603D02*
X12945562Y-18360698D01*
X12945562Y-18360698D02*
X12945562Y-18389270D01*
X12945562Y-18389270D02*
X12936039Y-18427365D01*
X12936039Y-18427365D02*
X12926515Y-18446412D01*
X12926515Y-18446412D02*
X12907467Y-18465460D01*
X12907467Y-18465460D02*
X12878896Y-18474984D01*
X12878896Y-18474984D02*
X12831277Y-18474984D01*
X13031277Y-18474984D02*
X13031277Y-18341650D01*
X13031277Y-18379746D02*
X13040801Y-18360698D01*
X13040801Y-18360698D02*
X13050324Y-18351174D01*
X13050324Y-18351174D02*
X13069372Y-18341650D01*
X13069372Y-18341650D02*
X13088420Y-18341650D01*
X13155086Y-18474984D02*
X13155086Y-18341650D01*
X13155086Y-18274984D02*
X13145562Y-18284508D01*
X13145562Y-18284508D02*
X13155086Y-18294031D01*
X13155086Y-18294031D02*
X13164610Y-18284508D01*
X13164610Y-18284508D02*
X13155086Y-18274984D01*
X13155086Y-18274984D02*
X13155086Y-18294031D01*
X13278896Y-18474984D02*
X13259848Y-18465460D01*
X13259848Y-18465460D02*
X13250324Y-18446412D01*
X13250324Y-18446412D02*
X13250324Y-18274984D01*
X13383658Y-18474984D02*
X13364610Y-18465460D01*
X13364610Y-18465460D02*
X13355086Y-18446412D01*
X13355086Y-18446412D02*
X13355086Y-18274984D01*
X13612229Y-18474984D02*
X13612229Y-18274984D01*
X13612229Y-18274984D02*
X13678896Y-18417841D01*
X13678896Y-18417841D02*
X13745562Y-18274984D01*
X13745562Y-18274984D02*
X13745562Y-18474984D01*
X13926515Y-18474984D02*
X13926515Y-18370222D01*
X13926515Y-18370222D02*
X13916991Y-18351174D01*
X13916991Y-18351174D02*
X13897943Y-18341650D01*
X13897943Y-18341650D02*
X13859848Y-18341650D01*
X13859848Y-18341650D02*
X13840801Y-18351174D01*
X13926515Y-18465460D02*
X13907467Y-18474984D01*
X13907467Y-18474984D02*
X13859848Y-18474984D01*
X13859848Y-18474984D02*
X13840801Y-18465460D01*
X13840801Y-18465460D02*
X13831277Y-18446412D01*
X13831277Y-18446412D02*
X13831277Y-18427365D01*
X13831277Y-18427365D02*
X13840801Y-18408317D01*
X13840801Y-18408317D02*
X13859848Y-18398793D01*
X13859848Y-18398793D02*
X13907467Y-18398793D01*
X13907467Y-18398793D02*
X13926515Y-18389270D01*
X14021753Y-18341650D02*
X14021753Y-18541650D01*
X14021753Y-18351174D02*
X14040801Y-18341650D01*
X14040801Y-18341650D02*
X14078896Y-18341650D01*
X14078896Y-18341650D02*
X14097943Y-18351174D01*
X14097943Y-18351174D02*
X14107467Y-18360698D01*
X14107467Y-18360698D02*
X14116991Y-18379746D01*
X14116991Y-18379746D02*
X14116991Y-18436889D01*
X14116991Y-18436889D02*
X14107467Y-18455936D01*
X14107467Y-18455936D02*
X14097943Y-18465460D01*
X14097943Y-18465460D02*
X14078896Y-18474984D01*
X14078896Y-18474984D02*
X14040801Y-18474984D01*
X14040801Y-18474984D02*
X14021753Y-18465460D01*
X14202705Y-18455936D02*
X14212229Y-18465460D01*
X14212229Y-18465460D02*
X14202705Y-18474984D01*
X14202705Y-18474984D02*
X14193182Y-18465460D01*
X14193182Y-18465460D02*
X14202705Y-18455936D01*
X14202705Y-18455936D02*
X14202705Y-18474984D01*
X14202705Y-18351174D02*
X14212229Y-18360698D01*
X14212229Y-18360698D02*
X14202705Y-18370222D01*
X14202705Y-18370222D02*
X14193182Y-18360698D01*
X14193182Y-18360698D02*
X14202705Y-18351174D01*
X14202705Y-18351174D02*
X14202705Y-18370222D01*
M02*
