G04 #@! TF.GenerationSoftware,KiCad,Pcbnew,9.0.6*
G04 #@! TF.CreationDate,2026-01-07T12:33:40-06:00*
G04 #@! TF.ProjectId,QFN-80_10x10_P0.4,51464e2d-3830-45f3-9130-7831305f5030,rev?*
G04 #@! TF.SameCoordinates,Original*
G04 #@! TF.FileFunction,Legend,Top*
G04 #@! TF.FilePolarity,Positive*
%FSLAX46Y46*%
G04 Gerber Fmt 4.6, Leading zero omitted, Abs format (unit mm)*
G04 Created by KiCad (PCBNEW 9.0.6) date 2026-01-07 12:33:40*
%MOMM*%
%LPD*%
G01*
G04 APERTURE LIST*
G04 Aperture macros list*
%AMRoundRect*
0 Rectangle with rounded corners*
0 $1 Rounding radius*
0 $2 $3 $4 $5 $6 $7 $8 $9 X,Y pos of 4 corners*
0 Add a 4 corners polygon primitive as box body*
4,1,4,$2,$3,$4,$5,$6,$7,$8,$9,$2,$3,0*
0 Add four circle primitives for the rounded corners*
1,1,$1+$1,$2,$3*
1,1,$1+$1,$4,$5*
1,1,$1+$1,$6,$7*
1,1,$1+$1,$8,$9*
0 Add four rect primitives between the rounded corners*
20,1,$1+$1,$2,$3,$4,$5,0*
20,1,$1+$1,$4,$5,$6,$7,0*
20,1,$1+$1,$6,$7,$8,$9,0*
20,1,$1+$1,$8,$9,$2,$3,0*%
%AMRotRect*
0 Rectangle, with rotation*
0 The origin of the aperture is its center*
0 $1 length*
0 $2 width*
0 $3 Rotation angle, in degrees counterclockwise*
0 Add horizontal line*
21,1,$1,$2,0,0,$3*%
G04 Aperture macros list end*
%ADD10C,0.100000*%
%ADD11C,0.200000*%
%ADD12C,0.300000*%
%ADD13C,0.150000*%
%ADD14C,0.120000*%
%ADD15C,0.000000*%
%ADD16RoundRect,0.050000X-0.424264X0.353553X0.353553X-0.424264X0.424264X-0.353553X-0.353553X0.424264X0*%
%ADD17RoundRect,0.050000X-0.424264X-0.353553X-0.353553X-0.424264X0.424264X0.353553X0.353553X0.424264X0*%
%ADD18RotRect,4.750000X4.750000X315.000000*%
%ADD19C,1.700000*%
%ADD20R,1.700000X1.700000*%
G04 APERTURE END LIST*
D10*
X130447000Y-145779000D02*
X146483000Y-145779000D01*
X146483000Y-159640000D01*
X130447000Y-159640000D01*
X130447000Y-145779000D01*
G36*
X130447000Y-145779000D02*
G01*
X146483000Y-145779000D01*
X146483000Y-159640000D01*
X130447000Y-159640000D01*
X130447000Y-145779000D01*
G37*
X128437000Y-137789500D02*
X148483000Y-137789500D01*
X148483000Y-151540500D01*
X128437000Y-151540500D01*
X128437000Y-137789500D01*
G36*
X128437000Y-137789500D02*
G01*
X148483000Y-137789500D01*
X148483000Y-151540500D01*
X128437000Y-151540500D01*
X128437000Y-137789500D01*
G37*
D11*
G36*
X148437135Y-152983330D02*
G01*
X146493492Y-152983330D01*
X146493492Y-152258062D01*
X146604603Y-152258062D01*
X146606057Y-152262880D01*
X146606057Y-152267918D01*
X146611653Y-152281427D01*
X146615874Y-152295417D01*
X146619061Y-152299313D01*
X146620989Y-152303966D01*
X146631325Y-152314302D01*
X146640581Y-152325615D01*
X146645018Y-152327995D01*
X146648579Y-152331556D01*
X146662084Y-152337150D01*
X146674965Y-152344060D01*
X146679974Y-152344560D01*
X146684627Y-152346488D01*
X146699248Y-152346488D01*
X146713789Y-152347942D01*
X146718608Y-152346488D01*
X146723645Y-152346488D01*
X146737154Y-152340891D01*
X146751144Y-152336671D01*
X146755040Y-152333483D01*
X146759693Y-152331556D01*
X146774847Y-152319120D01*
X146810990Y-152282975D01*
X146870600Y-152253171D01*
X147061481Y-152253171D01*
X147121090Y-152282976D01*
X147145759Y-152307644D01*
X147175564Y-152367254D01*
X147175564Y-152558135D01*
X147145759Y-152617743D01*
X147121090Y-152642413D01*
X147061481Y-152672219D01*
X146870600Y-152672219D01*
X146810990Y-152642414D01*
X146774847Y-152606270D01*
X146759694Y-152593833D01*
X146723646Y-152578902D01*
X146684628Y-152578901D01*
X146648579Y-152593832D01*
X146620989Y-152621422D01*
X146606058Y-152657470D01*
X146606057Y-152696488D01*
X146620988Y-152732537D01*
X146633425Y-152747690D01*
X146681043Y-152795310D01*
X146688711Y-152801603D01*
X146690443Y-152803600D01*
X146693451Y-152805493D01*
X146696197Y-152807747D01*
X146698637Y-152808757D01*
X146707034Y-152814043D01*
X146802271Y-152861662D01*
X146820580Y-152868668D01*
X146824163Y-152868922D01*
X146827484Y-152870298D01*
X146846993Y-152872219D01*
X147085088Y-152872219D01*
X147104597Y-152870298D01*
X147107917Y-152868922D01*
X147111501Y-152868668D01*
X147129809Y-152861662D01*
X147225047Y-152814043D01*
X147233442Y-152808758D01*
X147235884Y-152807747D01*
X147238631Y-152805491D01*
X147241637Y-152803600D01*
X147243367Y-152801605D01*
X147251037Y-152795310D01*
X147298656Y-152747690D01*
X147304948Y-152740023D01*
X147306945Y-152738292D01*
X147308838Y-152735284D01*
X147311093Y-152732537D01*
X147312104Y-152730095D01*
X147317388Y-152721701D01*
X147365007Y-152626464D01*
X147372013Y-152608155D01*
X147372267Y-152604571D01*
X147373643Y-152601251D01*
X147375564Y-152581742D01*
X147375564Y-152343647D01*
X147373643Y-152324138D01*
X147372267Y-152320817D01*
X147372013Y-152317234D01*
X147365007Y-152298925D01*
X147317388Y-152203688D01*
X147312102Y-152195291D01*
X147311092Y-152192851D01*
X147308838Y-152190105D01*
X147306945Y-152187097D01*
X147304947Y-152185364D01*
X147298655Y-152177698D01*
X147251037Y-152130079D01*
X147243366Y-152123784D01*
X147241637Y-152121790D01*
X147238629Y-152119896D01*
X147235883Y-152117643D01*
X147233443Y-152116632D01*
X147225047Y-152111347D01*
X147129809Y-152063728D01*
X147111501Y-152056722D01*
X147107917Y-152056467D01*
X147104597Y-152055092D01*
X147085088Y-152053171D01*
X146846993Y-152053171D01*
X146827484Y-152055092D01*
X146824163Y-152056467D01*
X146823826Y-152056491D01*
X146824933Y-152045426D01*
X147557302Y-152045426D01*
X147560068Y-152084346D01*
X147577517Y-152119245D01*
X147606994Y-152144809D01*
X147644010Y-152157148D01*
X147682930Y-152154382D01*
X147701238Y-152147376D01*
X147796476Y-152099757D01*
X147804872Y-152094471D01*
X147807312Y-152093461D01*
X147810058Y-152091207D01*
X147813066Y-152089314D01*
X147814795Y-152087319D01*
X147822466Y-152081025D01*
X147842231Y-152061260D01*
X147842231Y-152672219D01*
X147656517Y-152672219D01*
X147637008Y-152674140D01*
X147600960Y-152689072D01*
X147573370Y-152716662D01*
X147558438Y-152752710D01*
X147558438Y-152791728D01*
X147573370Y-152827776D01*
X147600960Y-152855366D01*
X147637008Y-152870298D01*
X147656517Y-152872219D01*
X148227945Y-152872219D01*
X148247454Y-152870298D01*
X148283502Y-152855366D01*
X148311092Y-152827776D01*
X148326024Y-152791728D01*
X148326024Y-152752710D01*
X148311092Y-152716662D01*
X148283502Y-152689072D01*
X148247454Y-152674140D01*
X148227945Y-152672219D01*
X148042231Y-152672219D01*
X148042231Y-151772219D01*
X148042224Y-151772148D01*
X148042231Y-151772114D01*
X148042210Y-151772012D01*
X148040310Y-151752710D01*
X148036520Y-151743561D01*
X148034579Y-151733854D01*
X148029127Y-151725713D01*
X148025378Y-151716662D01*
X148018378Y-151709662D01*
X148012868Y-151701434D01*
X148004713Y-151695997D01*
X147997788Y-151689072D01*
X147988644Y-151685284D01*
X147980403Y-151679790D01*
X147970789Y-151677888D01*
X147961740Y-151674140D01*
X147951839Y-151674140D01*
X147942127Y-151672219D01*
X147932522Y-151674140D01*
X147922722Y-151674140D01*
X147913573Y-151677929D01*
X147903866Y-151679871D01*
X147895725Y-151685322D01*
X147886674Y-151689072D01*
X147879674Y-151696071D01*
X147871446Y-151701582D01*
X147859157Y-151716588D01*
X147859084Y-151716662D01*
X147859070Y-151716694D01*
X147859026Y-151716749D01*
X147769282Y-151851365D01*
X147692518Y-151928128D01*
X147611796Y-151968490D01*
X147595205Y-151978933D01*
X147569641Y-152008410D01*
X147557302Y-152045426D01*
X146824933Y-152045426D01*
X146842254Y-151872219D01*
X147227945Y-151872219D01*
X147247454Y-151870298D01*
X147283502Y-151855366D01*
X147311092Y-151827776D01*
X147326024Y-151791728D01*
X147326024Y-151752710D01*
X147311092Y-151716662D01*
X147283502Y-151689072D01*
X147247454Y-151674140D01*
X147227945Y-151672219D01*
X146751755Y-151672219D01*
X146744538Y-151672929D01*
X146742102Y-151672686D01*
X146739723Y-151673403D01*
X146732246Y-151674140D01*
X146718736Y-151679736D01*
X146704747Y-151683957D01*
X146700850Y-151687144D01*
X146696198Y-151689072D01*
X146685861Y-151699408D01*
X146674549Y-151708664D01*
X146672168Y-151713101D01*
X146668608Y-151716662D01*
X146663013Y-151730167D01*
X146656104Y-151743048D01*
X146654627Y-151750412D01*
X146653676Y-151752710D01*
X146653676Y-151755160D01*
X146652251Y-151762269D01*
X146604632Y-152238459D01*
X146604603Y-152258062D01*
X146493492Y-152258062D01*
X146493492Y-151561108D01*
X148437135Y-151561108D01*
X148437135Y-152983330D01*
G37*
G36*
X130003770Y-151902024D02*
G01*
X130028439Y-151926692D01*
X130063892Y-151997599D01*
X130105863Y-152165480D01*
X130105863Y-152378956D01*
X130063892Y-152546837D01*
X130028439Y-152617743D01*
X130003770Y-152642413D01*
X129944161Y-152672219D01*
X129896137Y-152672219D01*
X129836527Y-152642414D01*
X129811860Y-152617746D01*
X129776405Y-152546837D01*
X129734435Y-152378956D01*
X129734435Y-152165481D01*
X129776405Y-151997599D01*
X129811859Y-151926692D01*
X129836527Y-151902023D01*
X129896137Y-151872219D01*
X129944161Y-151872219D01*
X130003770Y-151902024D01*
G37*
G36*
X130416974Y-152983330D02*
G01*
X128425245Y-152983330D01*
X128425245Y-151752710D01*
X128536356Y-151752710D01*
X128536356Y-151791728D01*
X128551288Y-151827776D01*
X128578878Y-151855366D01*
X128614926Y-151870298D01*
X128634435Y-151872219D01*
X129033105Y-151872219D01*
X128844891Y-152087321D01*
X128838861Y-152095754D01*
X128837002Y-152097614D01*
X128836271Y-152099377D01*
X128833490Y-152103268D01*
X128828285Y-152118656D01*
X128822070Y-152133662D01*
X128822070Y-152137035D01*
X128820990Y-152140229D01*
X128822070Y-152156431D01*
X128822070Y-152172680D01*
X128823360Y-152175795D01*
X128823585Y-152179161D01*
X128830785Y-152193721D01*
X128837002Y-152208728D01*
X128839386Y-152211112D01*
X128840882Y-152214136D01*
X128853107Y-152224833D01*
X128864592Y-152236318D01*
X128867706Y-152237608D01*
X128870246Y-152239830D01*
X128885634Y-152245034D01*
X128900640Y-152251250D01*
X128905399Y-152251718D01*
X128907207Y-152252330D01*
X128909831Y-152252155D01*
X128920149Y-152253171D01*
X129039399Y-152253171D01*
X129099008Y-152282976D01*
X129123677Y-152307644D01*
X129153482Y-152367254D01*
X129153482Y-152558135D01*
X129123677Y-152617743D01*
X129099008Y-152642413D01*
X129039399Y-152672219D01*
X128800899Y-152672219D01*
X128741289Y-152642414D01*
X128705146Y-152606270D01*
X128689993Y-152593833D01*
X128653945Y-152578902D01*
X128614927Y-152578901D01*
X128578878Y-152593832D01*
X128551288Y-152621422D01*
X128536357Y-152657470D01*
X128536356Y-152696488D01*
X128551287Y-152732537D01*
X128563724Y-152747690D01*
X128611342Y-152795310D01*
X128619010Y-152801603D01*
X128620742Y-152803600D01*
X128623750Y-152805493D01*
X128626496Y-152807747D01*
X128628936Y-152808757D01*
X128637333Y-152814043D01*
X128732570Y-152861662D01*
X128750879Y-152868668D01*
X128754462Y-152868922D01*
X128757783Y-152870298D01*
X128777292Y-152872219D01*
X129063006Y-152872219D01*
X129082515Y-152870298D01*
X129085835Y-152868922D01*
X129089419Y-152868668D01*
X129107727Y-152861662D01*
X129202965Y-152814043D01*
X129211360Y-152808758D01*
X129213802Y-152807747D01*
X129216549Y-152805491D01*
X129219555Y-152803600D01*
X129221285Y-152801605D01*
X129228955Y-152795310D01*
X129276574Y-152747690D01*
X129282866Y-152740023D01*
X129284863Y-152738292D01*
X129286756Y-152735284D01*
X129289011Y-152732537D01*
X129290022Y-152730095D01*
X129295306Y-152721701D01*
X129342925Y-152626464D01*
X129349931Y-152608155D01*
X129350185Y-152604571D01*
X129351561Y-152601251D01*
X129353482Y-152581742D01*
X129353482Y-152343647D01*
X129351561Y-152324138D01*
X129350185Y-152320817D01*
X129349931Y-152317234D01*
X129342925Y-152298925D01*
X129295306Y-152203688D01*
X129290020Y-152195291D01*
X129289010Y-152192851D01*
X129286756Y-152190105D01*
X129284863Y-152187097D01*
X129282865Y-152185364D01*
X129276573Y-152177698D01*
X129252047Y-152153171D01*
X129534435Y-152153171D01*
X129534435Y-152391266D01*
X129534770Y-152394668D01*
X129534553Y-152396127D01*
X129535632Y-152403424D01*
X129536356Y-152410775D01*
X129536920Y-152412138D01*
X129537421Y-152415520D01*
X129585040Y-152605995D01*
X129585553Y-152607432D01*
X129585605Y-152608155D01*
X129588713Y-152616279D01*
X129591635Y-152624456D01*
X129592065Y-152625036D01*
X129592611Y-152626463D01*
X129640230Y-152721701D01*
X129645513Y-152730093D01*
X129646525Y-152732537D01*
X129648781Y-152735286D01*
X129650673Y-152738291D01*
X129652667Y-152740020D01*
X129658962Y-152747690D01*
X129706580Y-152795310D01*
X129714248Y-152801603D01*
X129715980Y-152803600D01*
X129718988Y-152805493D01*
X129721734Y-152807747D01*
X129724174Y-152808757D01*
X129732571Y-152814043D01*
X129827808Y-152861662D01*
X129846117Y-152868668D01*
X129849700Y-152868922D01*
X129853021Y-152870298D01*
X129872530Y-152872219D01*
X129967768Y-152872219D01*
X129987277Y-152870298D01*
X129990597Y-152868922D01*
X129994181Y-152868668D01*
X130012489Y-152861662D01*
X130107727Y-152814043D01*
X130116122Y-152808758D01*
X130118564Y-152807747D01*
X130121311Y-152805491D01*
X130124317Y-152803600D01*
X130126047Y-152801605D01*
X130133717Y-152795310D01*
X130181336Y-152747690D01*
X130187628Y-152740023D01*
X130189625Y-152738292D01*
X130191518Y-152735284D01*
X130193773Y-152732537D01*
X130194784Y-152730095D01*
X130200068Y-152721701D01*
X130247687Y-152626464D01*
X130248233Y-152625035D01*
X130248663Y-152624456D01*
X130251584Y-152616279D01*
X130254693Y-152608155D01*
X130254744Y-152607434D01*
X130255258Y-152605996D01*
X130302877Y-152415520D01*
X130303377Y-152412138D01*
X130303942Y-152410775D01*
X130304665Y-152403424D01*
X130305745Y-152396127D01*
X130305527Y-152394668D01*
X130305863Y-152391266D01*
X130305863Y-152153171D01*
X130305527Y-152149768D01*
X130305745Y-152148310D01*
X130304665Y-152141012D01*
X130303942Y-152133662D01*
X130303377Y-152132298D01*
X130302877Y-152128917D01*
X130255258Y-151938441D01*
X130254744Y-151937002D01*
X130254693Y-151936282D01*
X130251584Y-151928157D01*
X130248663Y-151919981D01*
X130248233Y-151919401D01*
X130247687Y-151917973D01*
X130200068Y-151822736D01*
X130194782Y-151814339D01*
X130193772Y-151811899D01*
X130191518Y-151809153D01*
X130189625Y-151806145D01*
X130187627Y-151804412D01*
X130181335Y-151796746D01*
X130133717Y-151749127D01*
X130126046Y-151742832D01*
X130124317Y-151740838D01*
X130121309Y-151738944D01*
X130118563Y-151736691D01*
X130116123Y-151735680D01*
X130107727Y-151730395D01*
X130012489Y-151682776D01*
X129994181Y-151675770D01*
X129990597Y-151675515D01*
X129987277Y-151674140D01*
X129967768Y-151672219D01*
X129872530Y-151672219D01*
X129853021Y-151674140D01*
X129849700Y-151675515D01*
X129846117Y-151675770D01*
X129827808Y-151682776D01*
X129732571Y-151730395D01*
X129724174Y-151735680D01*
X129721734Y-151736691D01*
X129718988Y-151738944D01*
X129715980Y-151740838D01*
X129714247Y-151742835D01*
X129706581Y-151749128D01*
X129658962Y-151796746D01*
X129652667Y-151804416D01*
X129650673Y-151806146D01*
X129648779Y-151809153D01*
X129646526Y-151811900D01*
X129645515Y-151814339D01*
X129640230Y-151822736D01*
X129592611Y-151917974D01*
X129592065Y-151919400D01*
X129591635Y-151919981D01*
X129588713Y-151928157D01*
X129585605Y-151936282D01*
X129585553Y-151937004D01*
X129585040Y-151938442D01*
X129537421Y-152128917D01*
X129536920Y-152132298D01*
X129536356Y-152133662D01*
X129535632Y-152141012D01*
X129534553Y-152148310D01*
X129534770Y-152149768D01*
X129534435Y-152153171D01*
X129252047Y-152153171D01*
X129228955Y-152130079D01*
X129221284Y-152123784D01*
X129219555Y-152121790D01*
X129216547Y-152119896D01*
X129213801Y-152117643D01*
X129211361Y-152116632D01*
X129202965Y-152111347D01*
X129124117Y-152071923D01*
X129328740Y-151838069D01*
X129334769Y-151829635D01*
X129336629Y-151827776D01*
X129337359Y-151826012D01*
X129340141Y-151822122D01*
X129345345Y-151806733D01*
X129351561Y-151791728D01*
X129351561Y-151788354D01*
X129352641Y-151785161D01*
X129351561Y-151768958D01*
X129351561Y-151752710D01*
X129350270Y-151749594D01*
X129350046Y-151746229D01*
X129342843Y-151731663D01*
X129336629Y-151716662D01*
X129334245Y-151714278D01*
X129332750Y-151711254D01*
X129320516Y-151700549D01*
X129309039Y-151689072D01*
X129305925Y-151687782D01*
X129303386Y-151685560D01*
X129287994Y-151680354D01*
X129272991Y-151674140D01*
X129268231Y-151673671D01*
X129266424Y-151673060D01*
X129263799Y-151673234D01*
X129253482Y-151672219D01*
X128634435Y-151672219D01*
X128614926Y-151674140D01*
X128578878Y-151689072D01*
X128551288Y-151716662D01*
X128536356Y-151752710D01*
X128425245Y-151752710D01*
X128425245Y-151561108D01*
X130416974Y-151561108D01*
X130416974Y-152983330D01*
G37*
D10*
X130437000Y-166707000D02*
X146523000Y-166707000D01*
X146523000Y-168260000D01*
X130437000Y-168260000D01*
X130437000Y-166707000D01*
G36*
X130437000Y-166707000D02*
G01*
X146523000Y-166707000D01*
X146523000Y-168260000D01*
X130437000Y-168260000D01*
X130437000Y-166707000D01*
G37*
X128397000Y-152977000D02*
X148463000Y-152977000D01*
X148463000Y-166838000D01*
X128397000Y-166838000D01*
X128397000Y-152977000D01*
G36*
X128397000Y-152977000D02*
G01*
X148463000Y-152977000D01*
X148463000Y-166838000D01*
X128397000Y-166838000D01*
X128397000Y-152977000D01*
G37*
D11*
G36*
X148429056Y-168313330D02*
G01*
X146483810Y-168313330D01*
X146483810Y-167756378D01*
X146594921Y-167756378D01*
X146596057Y-167772362D01*
X146596057Y-167788394D01*
X146597432Y-167791714D01*
X146597687Y-167795298D01*
X146604854Y-167809633D01*
X146610989Y-167824442D01*
X146613529Y-167826982D01*
X146615137Y-167830197D01*
X146627248Y-167840701D01*
X146638579Y-167852032D01*
X146641897Y-167853406D01*
X146644613Y-167855762D01*
X146659822Y-167860831D01*
X146674627Y-167866964D01*
X146679727Y-167867466D01*
X146681629Y-167868100D01*
X146684262Y-167867912D01*
X146694136Y-167868885D01*
X147070326Y-167868885D01*
X147070326Y-168102219D01*
X147072247Y-168121728D01*
X147087179Y-168157776D01*
X147114769Y-168185366D01*
X147150817Y-168200298D01*
X147189835Y-168200298D01*
X147225883Y-168185366D01*
X147253473Y-168157776D01*
X147268405Y-168121728D01*
X147270326Y-168102219D01*
X147270326Y-167868885D01*
X147313183Y-167868885D01*
X147332692Y-167866964D01*
X147368740Y-167852032D01*
X147396330Y-167824442D01*
X147411262Y-167788394D01*
X147411262Y-167749376D01*
X147396330Y-167713328D01*
X147368740Y-167685738D01*
X147332692Y-167670806D01*
X147313183Y-167668885D01*
X147270326Y-167668885D01*
X147270326Y-167588062D01*
X147546984Y-167588062D01*
X147548438Y-167592880D01*
X147548438Y-167597918D01*
X147554034Y-167611427D01*
X147558255Y-167625417D01*
X147561442Y-167629313D01*
X147563370Y-167633966D01*
X147573706Y-167644302D01*
X147582962Y-167655615D01*
X147587399Y-167657995D01*
X147590960Y-167661556D01*
X147604465Y-167667150D01*
X147617346Y-167674060D01*
X147622355Y-167674560D01*
X147627008Y-167676488D01*
X147641629Y-167676488D01*
X147656170Y-167677942D01*
X147660989Y-167676488D01*
X147666026Y-167676488D01*
X147679535Y-167670891D01*
X147693525Y-167666671D01*
X147697421Y-167663483D01*
X147702074Y-167661556D01*
X147717228Y-167649120D01*
X147753371Y-167612975D01*
X147812981Y-167583171D01*
X148003862Y-167583171D01*
X148063471Y-167612976D01*
X148088140Y-167637644D01*
X148117945Y-167697254D01*
X148117945Y-167888135D01*
X148088140Y-167947743D01*
X148063471Y-167972413D01*
X148003862Y-168002219D01*
X147812981Y-168002219D01*
X147753371Y-167972414D01*
X147717228Y-167936270D01*
X147702075Y-167923833D01*
X147666027Y-167908902D01*
X147627009Y-167908901D01*
X147590960Y-167923832D01*
X147563370Y-167951422D01*
X147548439Y-167987470D01*
X147548438Y-168026488D01*
X147563369Y-168062537D01*
X147575806Y-168077690D01*
X147623424Y-168125310D01*
X147631092Y-168131603D01*
X147632824Y-168133600D01*
X147635832Y-168135493D01*
X147638578Y-168137747D01*
X147641018Y-168138757D01*
X147649415Y-168144043D01*
X147744652Y-168191662D01*
X147762961Y-168198668D01*
X147766544Y-168198922D01*
X147769865Y-168200298D01*
X147789374Y-168202219D01*
X148027469Y-168202219D01*
X148046978Y-168200298D01*
X148050298Y-168198922D01*
X148053882Y-168198668D01*
X148072190Y-168191662D01*
X148167428Y-168144043D01*
X148175823Y-168138758D01*
X148178265Y-168137747D01*
X148181012Y-168135491D01*
X148184018Y-168133600D01*
X148185748Y-168131605D01*
X148193418Y-168125310D01*
X148241037Y-168077690D01*
X148247329Y-168070023D01*
X148249326Y-168068292D01*
X148251219Y-168065284D01*
X148253474Y-168062537D01*
X148254485Y-168060095D01*
X148259769Y-168051701D01*
X148307388Y-167956464D01*
X148314394Y-167938155D01*
X148314648Y-167934571D01*
X148316024Y-167931251D01*
X148317945Y-167911742D01*
X148317945Y-167673647D01*
X148316024Y-167654138D01*
X148314648Y-167650817D01*
X148314394Y-167647234D01*
X148307388Y-167628925D01*
X148259769Y-167533688D01*
X148254483Y-167525291D01*
X148253473Y-167522851D01*
X148251219Y-167520105D01*
X148249326Y-167517097D01*
X148247328Y-167515364D01*
X148241036Y-167507698D01*
X148193418Y-167460079D01*
X148185747Y-167453784D01*
X148184018Y-167451790D01*
X148181010Y-167449896D01*
X148178264Y-167447643D01*
X148175824Y-167446632D01*
X148167428Y-167441347D01*
X148072190Y-167393728D01*
X148053882Y-167386722D01*
X148050298Y-167386467D01*
X148046978Y-167385092D01*
X148027469Y-167383171D01*
X147789374Y-167383171D01*
X147769865Y-167385092D01*
X147766544Y-167386467D01*
X147766207Y-167386491D01*
X147784635Y-167202219D01*
X148170326Y-167202219D01*
X148189835Y-167200298D01*
X148225883Y-167185366D01*
X148253473Y-167157776D01*
X148268405Y-167121728D01*
X148268405Y-167082710D01*
X148253473Y-167046662D01*
X148225883Y-167019072D01*
X148189835Y-167004140D01*
X148170326Y-167002219D01*
X147694136Y-167002219D01*
X147686919Y-167002929D01*
X147684483Y-167002686D01*
X147682104Y-167003403D01*
X147674627Y-167004140D01*
X147661117Y-167009736D01*
X147647128Y-167013957D01*
X147643231Y-167017144D01*
X147638579Y-167019072D01*
X147628242Y-167029408D01*
X147616930Y-167038664D01*
X147614549Y-167043101D01*
X147610989Y-167046662D01*
X147605394Y-167060167D01*
X147598485Y-167073048D01*
X147597008Y-167080412D01*
X147596057Y-167082710D01*
X147596057Y-167085160D01*
X147594632Y-167092269D01*
X147547013Y-167568459D01*
X147546984Y-167588062D01*
X147270326Y-167588062D01*
X147270326Y-167435552D01*
X147268405Y-167416043D01*
X147253473Y-167379995D01*
X147225883Y-167352405D01*
X147189835Y-167337473D01*
X147150817Y-167337473D01*
X147114769Y-167352405D01*
X147087179Y-167379995D01*
X147072247Y-167416043D01*
X147070326Y-167435552D01*
X147070326Y-167668885D01*
X146832878Y-167668885D01*
X147027099Y-167086223D01*
X147031446Y-167067108D01*
X147028680Y-167028188D01*
X147011230Y-166993289D01*
X146981754Y-166967724D01*
X146944738Y-166955385D01*
X146905818Y-166958152D01*
X146870919Y-166975601D01*
X146845354Y-167005077D01*
X146837363Y-167022978D01*
X146599268Y-167737262D01*
X146597068Y-167746933D01*
X146596057Y-167749376D01*
X146596057Y-167751382D01*
X146594921Y-167756378D01*
X146483810Y-167756378D01*
X146483810Y-166844274D01*
X148429056Y-166844274D01*
X148429056Y-168313330D01*
G37*
G36*
X130051389Y-167602976D02*
G01*
X130076058Y-167627644D01*
X130105863Y-167687254D01*
X130105863Y-167878135D01*
X130076058Y-167937743D01*
X130051389Y-167962413D01*
X129991780Y-167992219D01*
X129848518Y-167992219D01*
X129788908Y-167962414D01*
X129764241Y-167937746D01*
X129734435Y-167878134D01*
X129734435Y-167687254D01*
X129764240Y-167627644D01*
X129788908Y-167602975D01*
X129848518Y-167573171D01*
X129991780Y-167573171D01*
X130051389Y-167602976D01*
G37*
G36*
X130416974Y-168303330D02*
G01*
X128425245Y-168303330D01*
X128425245Y-167072710D01*
X128536356Y-167072710D01*
X128536356Y-167111728D01*
X128551288Y-167147776D01*
X128578878Y-167175366D01*
X128614926Y-167190298D01*
X128634435Y-167192219D01*
X129033105Y-167192219D01*
X128844891Y-167407321D01*
X128838861Y-167415754D01*
X128837002Y-167417614D01*
X128836271Y-167419377D01*
X128833490Y-167423268D01*
X128828285Y-167438656D01*
X128822070Y-167453662D01*
X128822070Y-167457035D01*
X128820990Y-167460229D01*
X128822070Y-167476431D01*
X128822070Y-167492680D01*
X128823360Y-167495795D01*
X128823585Y-167499161D01*
X128830785Y-167513721D01*
X128837002Y-167528728D01*
X128839386Y-167531112D01*
X128840882Y-167534136D01*
X128853107Y-167544833D01*
X128864592Y-167556318D01*
X128867706Y-167557608D01*
X128870246Y-167559830D01*
X128885634Y-167565034D01*
X128900640Y-167571250D01*
X128905399Y-167571718D01*
X128907207Y-167572330D01*
X128909831Y-167572155D01*
X128920149Y-167573171D01*
X129039399Y-167573171D01*
X129099008Y-167602976D01*
X129123677Y-167627644D01*
X129153482Y-167687254D01*
X129153482Y-167878135D01*
X129123677Y-167937743D01*
X129099008Y-167962413D01*
X129039399Y-167992219D01*
X128800899Y-167992219D01*
X128741289Y-167962414D01*
X128705146Y-167926270D01*
X128689993Y-167913833D01*
X128653945Y-167898902D01*
X128614927Y-167898901D01*
X128578878Y-167913832D01*
X128551288Y-167941422D01*
X128536357Y-167977470D01*
X128536356Y-168016488D01*
X128551287Y-168052537D01*
X128563724Y-168067690D01*
X128611342Y-168115310D01*
X128619010Y-168121603D01*
X128620742Y-168123600D01*
X128623750Y-168125493D01*
X128626496Y-168127747D01*
X128628936Y-168128757D01*
X128637333Y-168134043D01*
X128732570Y-168181662D01*
X128750879Y-168188668D01*
X128754462Y-168188922D01*
X128757783Y-168190298D01*
X128777292Y-168192219D01*
X129063006Y-168192219D01*
X129082515Y-168190298D01*
X129085835Y-168188922D01*
X129089419Y-168188668D01*
X129107727Y-168181662D01*
X129202965Y-168134043D01*
X129211360Y-168128758D01*
X129213802Y-168127747D01*
X129216549Y-168125491D01*
X129219555Y-168123600D01*
X129221285Y-168121605D01*
X129228955Y-168115310D01*
X129276574Y-168067690D01*
X129282866Y-168060023D01*
X129284863Y-168058292D01*
X129286756Y-168055284D01*
X129289011Y-168052537D01*
X129290022Y-168050095D01*
X129295306Y-168041701D01*
X129342925Y-167946464D01*
X129349931Y-167928155D01*
X129350185Y-167924571D01*
X129351561Y-167921251D01*
X129353482Y-167901742D01*
X129353482Y-167663647D01*
X129351561Y-167644138D01*
X129350185Y-167640817D01*
X129349931Y-167637234D01*
X129342925Y-167618925D01*
X129295306Y-167523688D01*
X129293482Y-167520790D01*
X129534435Y-167520790D01*
X129534435Y-167901742D01*
X129536356Y-167921251D01*
X129537731Y-167924571D01*
X129537986Y-167928155D01*
X129544992Y-167946463D01*
X129592611Y-168041701D01*
X129597894Y-168050093D01*
X129598906Y-168052537D01*
X129601162Y-168055286D01*
X129603054Y-168058291D01*
X129605048Y-168060020D01*
X129611343Y-168067690D01*
X129658961Y-168115310D01*
X129666629Y-168121603D01*
X129668361Y-168123600D01*
X129671369Y-168125493D01*
X129674115Y-168127747D01*
X129676555Y-168128757D01*
X129684952Y-168134043D01*
X129780189Y-168181662D01*
X129798498Y-168188668D01*
X129802081Y-168188922D01*
X129805402Y-168190298D01*
X129824911Y-168192219D01*
X130015387Y-168192219D01*
X130034896Y-168190298D01*
X130038216Y-168188922D01*
X130041800Y-168188668D01*
X130060108Y-168181662D01*
X130155346Y-168134043D01*
X130163741Y-168128758D01*
X130166183Y-168127747D01*
X130168930Y-168125491D01*
X130171936Y-168123600D01*
X130173666Y-168121605D01*
X130181336Y-168115310D01*
X130228955Y-168067690D01*
X130235247Y-168060023D01*
X130237244Y-168058292D01*
X130239137Y-168055284D01*
X130241392Y-168052537D01*
X130242403Y-168050095D01*
X130247687Y-168041701D01*
X130295306Y-167946464D01*
X130302312Y-167928155D01*
X130302566Y-167924571D01*
X130303942Y-167921251D01*
X130305863Y-167901742D01*
X130305863Y-167663647D01*
X130303942Y-167644138D01*
X130302566Y-167640817D01*
X130302312Y-167637234D01*
X130295306Y-167618925D01*
X130247687Y-167523688D01*
X130242401Y-167515291D01*
X130241391Y-167512851D01*
X130239137Y-167510105D01*
X130237244Y-167507097D01*
X130235246Y-167505364D01*
X130228954Y-167497698D01*
X130181336Y-167450079D01*
X130173665Y-167443784D01*
X130171936Y-167441790D01*
X130168928Y-167439896D01*
X130166182Y-167437643D01*
X130163742Y-167436632D01*
X130155346Y-167431347D01*
X130060108Y-167383728D01*
X130041800Y-167376722D01*
X130038216Y-167376467D01*
X130034896Y-167375092D01*
X130015387Y-167373171D01*
X129824911Y-167373171D01*
X129805402Y-167375092D01*
X129802081Y-167376467D01*
X129798498Y-167376722D01*
X129780189Y-167383728D01*
X129770576Y-167388534D01*
X129774867Y-167371372D01*
X129855003Y-167251167D01*
X129884146Y-167222023D01*
X129943756Y-167192219D01*
X130110625Y-167192219D01*
X130130134Y-167190298D01*
X130166182Y-167175366D01*
X130193772Y-167147776D01*
X130208704Y-167111728D01*
X130208704Y-167072710D01*
X130193772Y-167036662D01*
X130166182Y-167009072D01*
X130130134Y-166994140D01*
X130110625Y-166992219D01*
X129920149Y-166992219D01*
X129900640Y-166994140D01*
X129897319Y-166995515D01*
X129893736Y-166995770D01*
X129875427Y-167002776D01*
X129780190Y-167050395D01*
X129771793Y-167055680D01*
X129769353Y-167056691D01*
X129766607Y-167058944D01*
X129763599Y-167060838D01*
X129761866Y-167062835D01*
X129754200Y-167069128D01*
X129706581Y-167116746D01*
X129706536Y-167116800D01*
X129706507Y-167116820D01*
X129700325Y-167124368D01*
X129694145Y-167131900D01*
X129694131Y-167131932D01*
X129694087Y-167131987D01*
X129598849Y-167274844D01*
X129593106Y-167285613D01*
X129591635Y-167287600D01*
X129590797Y-167289945D01*
X129589626Y-167292142D01*
X129589146Y-167294565D01*
X129585040Y-167306061D01*
X129537421Y-167496536D01*
X129536920Y-167499917D01*
X129536356Y-167501281D01*
X129535632Y-167508631D01*
X129534553Y-167515929D01*
X129534770Y-167517387D01*
X129534435Y-167520790D01*
X129293482Y-167520790D01*
X129290020Y-167515291D01*
X129289010Y-167512851D01*
X129286756Y-167510105D01*
X129284863Y-167507097D01*
X129282865Y-167505364D01*
X129276573Y-167497698D01*
X129228955Y-167450079D01*
X129221284Y-167443784D01*
X129219555Y-167441790D01*
X129216547Y-167439896D01*
X129213801Y-167437643D01*
X129211361Y-167436632D01*
X129202965Y-167431347D01*
X129124117Y-167391923D01*
X129328740Y-167158069D01*
X129334769Y-167149635D01*
X129336629Y-167147776D01*
X129337359Y-167146012D01*
X129340141Y-167142122D01*
X129345345Y-167126733D01*
X129351561Y-167111728D01*
X129351561Y-167108354D01*
X129352641Y-167105161D01*
X129351561Y-167088958D01*
X129351561Y-167072710D01*
X129350270Y-167069594D01*
X129350046Y-167066229D01*
X129342843Y-167051663D01*
X129336629Y-167036662D01*
X129334245Y-167034278D01*
X129332750Y-167031254D01*
X129320516Y-167020549D01*
X129309039Y-167009072D01*
X129305925Y-167007782D01*
X129303386Y-167005560D01*
X129287994Y-167000354D01*
X129272991Y-166994140D01*
X129268231Y-166993671D01*
X129266424Y-166993060D01*
X129263799Y-166993234D01*
X129253482Y-166992219D01*
X128634435Y-166992219D01*
X128614926Y-166994140D01*
X128578878Y-167009072D01*
X128551288Y-167036662D01*
X128536356Y-167072710D01*
X128425245Y-167072710D01*
X128425245Y-166881108D01*
X130416974Y-166881108D01*
X130416974Y-168303330D01*
G37*
D10*
X130397000Y-118355000D02*
X146453000Y-118355000D01*
X146453000Y-119985000D01*
X130397000Y-119985000D01*
X130397000Y-118355000D01*
G36*
X130397000Y-118355000D02*
G01*
X146453000Y-118355000D01*
X146453000Y-119985000D01*
X130397000Y-119985000D01*
X130397000Y-118355000D01*
G37*
X129419999Y-95811085D02*
X146445999Y-95811085D01*
X146445999Y-97441085D01*
X129419999Y-97441085D01*
X129419999Y-95811085D01*
G36*
X129419999Y-95811085D02*
G01*
X146445999Y-95811085D01*
X146445999Y-97441085D01*
X129419999Y-97441085D01*
X129419999Y-95811085D01*
G37*
D11*
G36*
X129059008Y-96530595D02*
G01*
X129083677Y-96555263D01*
X129113482Y-96614873D01*
X129113482Y-96758135D01*
X129083677Y-96817743D01*
X129059008Y-96842413D01*
X128999399Y-96872219D01*
X128856137Y-96872219D01*
X128796527Y-96842414D01*
X128771860Y-96817746D01*
X128742054Y-96758134D01*
X128742054Y-96614873D01*
X128771859Y-96555263D01*
X128796527Y-96530594D01*
X128856137Y-96500790D01*
X128999399Y-96500790D01*
X129059008Y-96530595D01*
G37*
G36*
X129059008Y-96102024D02*
G01*
X129083677Y-96126692D01*
X129113482Y-96186302D01*
X129113482Y-96186707D01*
X129083677Y-96246316D01*
X129059008Y-96270984D01*
X128999399Y-96300790D01*
X128856137Y-96300790D01*
X128796527Y-96270985D01*
X128771859Y-96246316D01*
X128742054Y-96186706D01*
X128742054Y-96186302D01*
X128771859Y-96126692D01*
X128796527Y-96102023D01*
X128856137Y-96072219D01*
X128999399Y-96072219D01*
X129059008Y-96102024D01*
G37*
G36*
X129424593Y-97183330D02*
G01*
X128430943Y-97183330D01*
X128430943Y-96162695D01*
X128542054Y-96162695D01*
X128542054Y-96210314D01*
X128543975Y-96229823D01*
X128545350Y-96233143D01*
X128545605Y-96236727D01*
X128552611Y-96255035D01*
X128600230Y-96350273D01*
X128605515Y-96358669D01*
X128606526Y-96361109D01*
X128608779Y-96363855D01*
X128610673Y-96366863D01*
X128612667Y-96368592D01*
X128618962Y-96376263D01*
X128643489Y-96400790D01*
X128618962Y-96425317D01*
X128612667Y-96432987D01*
X128610673Y-96434717D01*
X128608779Y-96437724D01*
X128606526Y-96440471D01*
X128605515Y-96442910D01*
X128600230Y-96451307D01*
X128552611Y-96546545D01*
X128545605Y-96564853D01*
X128545350Y-96568436D01*
X128543975Y-96571757D01*
X128542054Y-96591266D01*
X128542054Y-96781742D01*
X128543975Y-96801251D01*
X128545350Y-96804571D01*
X128545605Y-96808155D01*
X128552611Y-96826463D01*
X128600230Y-96921701D01*
X128605513Y-96930093D01*
X128606525Y-96932537D01*
X128608781Y-96935286D01*
X128610673Y-96938291D01*
X128612667Y-96940020D01*
X128618962Y-96947690D01*
X128666580Y-96995310D01*
X128674248Y-97001603D01*
X128675980Y-97003600D01*
X128678988Y-97005493D01*
X128681734Y-97007747D01*
X128684174Y-97008757D01*
X128692571Y-97014043D01*
X128787808Y-97061662D01*
X128806117Y-97068668D01*
X128809700Y-97068922D01*
X128813021Y-97070298D01*
X128832530Y-97072219D01*
X129023006Y-97072219D01*
X129042515Y-97070298D01*
X129045835Y-97068922D01*
X129049419Y-97068668D01*
X129067727Y-97061662D01*
X129162965Y-97014043D01*
X129171360Y-97008758D01*
X129173802Y-97007747D01*
X129176549Y-97005491D01*
X129179555Y-97003600D01*
X129181285Y-97001605D01*
X129188955Y-96995310D01*
X129236574Y-96947690D01*
X129242866Y-96940023D01*
X129244863Y-96938292D01*
X129246756Y-96935284D01*
X129249011Y-96932537D01*
X129250022Y-96930095D01*
X129255306Y-96921701D01*
X129302925Y-96826464D01*
X129309931Y-96808155D01*
X129310185Y-96804571D01*
X129311561Y-96801251D01*
X129313482Y-96781742D01*
X129313482Y-96591266D01*
X129311561Y-96571757D01*
X129310185Y-96568436D01*
X129309931Y-96564853D01*
X129302925Y-96546544D01*
X129255306Y-96451307D01*
X129250020Y-96442910D01*
X129249010Y-96440470D01*
X129246756Y-96437724D01*
X129244863Y-96434716D01*
X129242865Y-96432983D01*
X129236573Y-96425317D01*
X129212046Y-96400790D01*
X129236573Y-96376263D01*
X129242865Y-96368596D01*
X129244863Y-96366864D01*
X129246756Y-96363855D01*
X129249010Y-96361110D01*
X129250020Y-96358669D01*
X129255306Y-96350273D01*
X129302925Y-96255036D01*
X129309931Y-96236727D01*
X129310185Y-96233143D01*
X129311561Y-96229823D01*
X129313482Y-96210314D01*
X129313482Y-96162695D01*
X129311561Y-96143186D01*
X129310185Y-96139865D01*
X129309931Y-96136282D01*
X129302925Y-96117973D01*
X129255306Y-96022736D01*
X129250020Y-96014339D01*
X129249010Y-96011899D01*
X129246756Y-96009153D01*
X129244863Y-96006145D01*
X129242865Y-96004412D01*
X129236573Y-95996746D01*
X129188955Y-95949127D01*
X129181284Y-95942832D01*
X129179555Y-95940838D01*
X129176547Y-95938944D01*
X129173801Y-95936691D01*
X129171361Y-95935680D01*
X129162965Y-95930395D01*
X129067727Y-95882776D01*
X129049419Y-95875770D01*
X129045835Y-95875515D01*
X129042515Y-95874140D01*
X129023006Y-95872219D01*
X128832530Y-95872219D01*
X128813021Y-95874140D01*
X128809700Y-95875515D01*
X128806117Y-95875770D01*
X128787808Y-95882776D01*
X128692571Y-95930395D01*
X128684174Y-95935680D01*
X128681734Y-95936691D01*
X128678988Y-95938944D01*
X128675980Y-95940838D01*
X128674247Y-95942835D01*
X128666581Y-95949128D01*
X128618962Y-95996746D01*
X128612667Y-96004416D01*
X128610673Y-96006146D01*
X128608779Y-96009153D01*
X128606526Y-96011900D01*
X128605515Y-96014339D01*
X128600230Y-96022736D01*
X128552611Y-96117974D01*
X128545605Y-96136282D01*
X128545350Y-96139865D01*
X128543975Y-96143186D01*
X128542054Y-96162695D01*
X128430943Y-96162695D01*
X128430943Y-95761108D01*
X129424593Y-95761108D01*
X129424593Y-97183330D01*
G37*
G36*
X148419056Y-97183330D02*
G01*
X146427327Y-97183330D01*
X146427327Y-95952710D01*
X146538438Y-95952710D01*
X146538438Y-95991728D01*
X146553370Y-96027776D01*
X146580960Y-96055366D01*
X146617008Y-96070298D01*
X146636517Y-96072219D01*
X147151529Y-96072219D01*
X146782697Y-96932827D01*
X146776778Y-96951515D01*
X146776303Y-96990531D01*
X146790794Y-97026758D01*
X146818045Y-97054683D01*
X146853908Y-97070053D01*
X146892924Y-97070528D01*
X146929151Y-97056037D01*
X146957076Y-97028786D01*
X146966527Y-97011611D01*
X147395097Y-96011611D01*
X147401017Y-95992923D01*
X147401024Y-95992301D01*
X147401262Y-95991728D01*
X147401262Y-95972799D01*
X147401492Y-95953908D01*
X147401262Y-95953332D01*
X147401262Y-95952710D01*
X147490819Y-95952710D01*
X147490819Y-95991728D01*
X147505751Y-96027776D01*
X147533341Y-96055366D01*
X147569389Y-96070298D01*
X147588898Y-96072219D01*
X147987568Y-96072219D01*
X147799354Y-96287321D01*
X147793324Y-96295754D01*
X147791465Y-96297614D01*
X147790734Y-96299377D01*
X147787953Y-96303268D01*
X147782748Y-96318656D01*
X147776533Y-96333662D01*
X147776533Y-96337035D01*
X147775453Y-96340229D01*
X147776533Y-96356431D01*
X147776533Y-96372680D01*
X147777823Y-96375795D01*
X147778048Y-96379161D01*
X147785248Y-96393721D01*
X147791465Y-96408728D01*
X147793849Y-96411112D01*
X147795345Y-96414136D01*
X147807570Y-96424833D01*
X147819055Y-96436318D01*
X147822169Y-96437608D01*
X147824709Y-96439830D01*
X147840097Y-96445034D01*
X147855103Y-96451250D01*
X147859862Y-96451718D01*
X147861670Y-96452330D01*
X147864294Y-96452155D01*
X147874612Y-96453171D01*
X147993862Y-96453171D01*
X148053471Y-96482976D01*
X148078140Y-96507644D01*
X148107945Y-96567254D01*
X148107945Y-96758135D01*
X148078140Y-96817743D01*
X148053471Y-96842413D01*
X147993862Y-96872219D01*
X147755362Y-96872219D01*
X147695752Y-96842414D01*
X147659609Y-96806270D01*
X147644456Y-96793833D01*
X147608408Y-96778902D01*
X147569390Y-96778901D01*
X147533341Y-96793832D01*
X147505751Y-96821422D01*
X147490820Y-96857470D01*
X147490819Y-96896488D01*
X147505750Y-96932537D01*
X147518187Y-96947690D01*
X147565805Y-96995310D01*
X147573473Y-97001603D01*
X147575205Y-97003600D01*
X147578213Y-97005493D01*
X147580959Y-97007747D01*
X147583399Y-97008757D01*
X147591796Y-97014043D01*
X147687033Y-97061662D01*
X147705342Y-97068668D01*
X147708925Y-97068922D01*
X147712246Y-97070298D01*
X147731755Y-97072219D01*
X148017469Y-97072219D01*
X148036978Y-97070298D01*
X148040298Y-97068922D01*
X148043882Y-97068668D01*
X148062190Y-97061662D01*
X148157428Y-97014043D01*
X148165823Y-97008758D01*
X148168265Y-97007747D01*
X148171012Y-97005491D01*
X148174018Y-97003600D01*
X148175748Y-97001605D01*
X148183418Y-96995310D01*
X148231037Y-96947690D01*
X148237329Y-96940023D01*
X148239326Y-96938292D01*
X148241219Y-96935284D01*
X148243474Y-96932537D01*
X148244485Y-96930095D01*
X148249769Y-96921701D01*
X148297388Y-96826464D01*
X148304394Y-96808155D01*
X148304648Y-96804571D01*
X148306024Y-96801251D01*
X148307945Y-96781742D01*
X148307945Y-96543647D01*
X148306024Y-96524138D01*
X148304648Y-96520817D01*
X148304394Y-96517234D01*
X148297388Y-96498925D01*
X148249769Y-96403688D01*
X148244483Y-96395291D01*
X148243473Y-96392851D01*
X148241219Y-96390105D01*
X148239326Y-96387097D01*
X148237328Y-96385364D01*
X148231036Y-96377698D01*
X148183418Y-96330079D01*
X148175747Y-96323784D01*
X148174018Y-96321790D01*
X148171010Y-96319896D01*
X148168264Y-96317643D01*
X148165824Y-96316632D01*
X148157428Y-96311347D01*
X148078580Y-96271923D01*
X148283203Y-96038069D01*
X148289232Y-96029635D01*
X148291092Y-96027776D01*
X148291822Y-96026012D01*
X148294604Y-96022122D01*
X148299808Y-96006733D01*
X148306024Y-95991728D01*
X148306024Y-95988354D01*
X148307104Y-95985161D01*
X148306024Y-95968958D01*
X148306024Y-95952710D01*
X148304733Y-95949594D01*
X148304509Y-95946229D01*
X148297306Y-95931663D01*
X148291092Y-95916662D01*
X148288708Y-95914278D01*
X148287213Y-95911254D01*
X148274979Y-95900549D01*
X148263502Y-95889072D01*
X148260388Y-95887782D01*
X148257849Y-95885560D01*
X148242457Y-95880354D01*
X148227454Y-95874140D01*
X148222694Y-95873671D01*
X148220887Y-95873060D01*
X148218262Y-95873234D01*
X148207945Y-95872219D01*
X147588898Y-95872219D01*
X147569389Y-95874140D01*
X147533341Y-95889072D01*
X147505751Y-95916662D01*
X147490819Y-95952710D01*
X147401262Y-95952710D01*
X147394008Y-95935199D01*
X147387001Y-95917680D01*
X147386567Y-95917236D01*
X147386330Y-95916662D01*
X147372950Y-95903282D01*
X147359750Y-95889756D01*
X147359179Y-95889511D01*
X147358740Y-95889072D01*
X147341223Y-95881816D01*
X147323886Y-95874386D01*
X147323267Y-95874378D01*
X147322692Y-95874140D01*
X147303183Y-95872219D01*
X146636517Y-95872219D01*
X146617008Y-95874140D01*
X146580960Y-95889072D01*
X146553370Y-95916662D01*
X146538438Y-95952710D01*
X146427327Y-95952710D01*
X146427327Y-95761108D01*
X148419056Y-95761108D01*
X148419056Y-97183330D01*
G37*
D10*
X130440000Y-136404363D02*
X146456000Y-136404363D01*
X146456000Y-137814363D01*
X130440000Y-137814363D01*
X130440000Y-136404363D01*
G36*
X130440000Y-136404363D02*
G01*
X146456000Y-136404363D01*
X146456000Y-137814363D01*
X130440000Y-137814363D01*
X130440000Y-136404363D01*
G37*
X129861750Y-181330600D02*
X146422500Y-181330600D01*
X146422500Y-181737000D01*
X129861750Y-181737000D01*
X129861750Y-181330600D01*
G36*
X129861750Y-181330600D02*
G01*
X146422500Y-181330600D01*
X146422500Y-181737000D01*
X129861750Y-181737000D01*
X129861750Y-181330600D01*
G37*
X125603000Y-179069750D02*
X130674500Y-179069750D01*
X130674500Y-181737000D01*
X125603000Y-181737000D01*
X125603000Y-179069750D01*
G36*
X125603000Y-179069750D02*
G01*
X130674500Y-179069750D01*
X130674500Y-181737000D01*
X125603000Y-181737000D01*
X125603000Y-179069750D01*
G37*
X146041500Y-179069750D02*
X151240000Y-179069750D01*
X151240000Y-181737000D01*
X146041500Y-181737000D01*
X146041500Y-179069750D01*
G36*
X146041500Y-179069750D02*
G01*
X151240000Y-179069750D01*
X151240000Y-181737000D01*
X146041500Y-181737000D01*
X146041500Y-179069750D01*
G37*
X125603000Y-74802750D02*
X130674500Y-74802750D01*
X130674500Y-77470000D01*
X125603000Y-77470000D01*
X125603000Y-74802750D01*
G36*
X125603000Y-74802750D02*
G01*
X130674500Y-74802750D01*
X130674500Y-77470000D01*
X125603000Y-77470000D01*
X125603000Y-74802750D01*
G37*
X130547500Y-74802750D02*
X146854250Y-74802750D01*
X146854250Y-75082150D01*
X130547500Y-75082150D01*
X130547500Y-74802750D01*
G36*
X130547500Y-74802750D02*
G01*
X146854250Y-74802750D01*
X146854250Y-75082150D01*
X130547500Y-75082150D01*
X130547500Y-74802750D01*
G37*
X130547500Y-179069750D02*
X146854250Y-179069750D01*
X146854250Y-179349150D01*
X130547500Y-179349150D01*
X130547500Y-179069750D01*
G36*
X130547500Y-179069750D02*
G01*
X146854250Y-179069750D01*
X146854250Y-179349150D01*
X130547500Y-179349150D01*
X130547500Y-179069750D01*
G37*
X146041500Y-74802750D02*
X151240000Y-74802750D01*
X151240000Y-77470000D01*
X146041500Y-77470000D01*
X146041500Y-74802750D01*
G36*
X146041500Y-74802750D02*
G01*
X151240000Y-74802750D01*
X151240000Y-77470000D01*
X146041500Y-77470000D01*
X146041500Y-74802750D01*
G37*
X128397000Y-97198000D02*
X148463000Y-97198000D01*
X148463000Y-118608000D01*
X128397000Y-118608000D01*
X128397000Y-97198000D01*
G36*
X128397000Y-97198000D02*
G01*
X148463000Y-97198000D01*
X148463000Y-118608000D01*
X128397000Y-118608000D01*
X128397000Y-97198000D01*
G37*
X129861750Y-77063600D02*
X146422500Y-77063600D01*
X146422500Y-77470000D01*
X129861750Y-77470000D01*
X129861750Y-77063600D01*
G36*
X129861750Y-77063600D02*
G01*
X146422500Y-77063600D01*
X146422500Y-77470000D01*
X129861750Y-77470000D01*
X129861750Y-77063600D01*
G37*
D12*
G36*
X145376186Y-75517236D02*
G01*
X145476793Y-75617843D01*
X145529972Y-75724202D01*
X145592928Y-75976023D01*
X145592928Y-76153382D01*
X145529972Y-76405203D01*
X145476793Y-76511563D01*
X145376187Y-76612169D01*
X145218585Y-76664703D01*
X145035785Y-76664703D01*
X145035785Y-75464703D01*
X145218588Y-75464703D01*
X145376186Y-75517236D01*
G37*
G36*
X135868361Y-75509410D02*
G01*
X135905365Y-75546414D01*
X135950071Y-75635826D01*
X135950071Y-75779293D01*
X135905364Y-75868706D01*
X135868359Y-75905711D01*
X135778947Y-75950417D01*
X135392928Y-75950417D01*
X135392928Y-75464703D01*
X135778947Y-75464703D01*
X135868361Y-75509410D01*
G37*
G36*
X138891959Y-76236132D02*
G01*
X138593900Y-76236132D01*
X138742929Y-75789044D01*
X138891959Y-76236132D01*
G37*
G36*
X144034816Y-76236132D02*
G01*
X143736757Y-76236132D01*
X143885786Y-75789044D01*
X144034816Y-76236132D01*
G37*
G36*
X142725504Y-75509410D02*
G01*
X142762508Y-75546414D01*
X142807214Y-75635826D01*
X142807214Y-75779293D01*
X142762507Y-75868706D01*
X142725502Y-75905711D01*
X142636090Y-75950417D01*
X142250071Y-75950417D01*
X142250071Y-75464703D01*
X142636090Y-75464703D01*
X142725504Y-75509410D01*
G37*
G36*
X146059595Y-77131370D02*
G01*
X130643429Y-77131370D01*
X130643429Y-75285439D01*
X130810096Y-75285439D01*
X130810096Y-75343967D01*
X130832494Y-75398039D01*
X130873878Y-75439423D01*
X130927950Y-75461821D01*
X130957214Y-75464703D01*
X131235785Y-75464703D01*
X131235785Y-76814703D01*
X131238667Y-76843967D01*
X131261065Y-76898039D01*
X131302449Y-76939423D01*
X131356521Y-76961821D01*
X131415049Y-76961821D01*
X131469121Y-76939423D01*
X131510505Y-76898039D01*
X131532903Y-76843967D01*
X131535785Y-76814703D01*
X131535785Y-75464703D01*
X131814357Y-75464703D01*
X131843621Y-75461821D01*
X131897693Y-75439423D01*
X131939077Y-75398039D01*
X131961475Y-75343967D01*
X131961475Y-75314703D01*
X132164356Y-75314703D01*
X132164356Y-76814703D01*
X132167238Y-76843967D01*
X132189636Y-76898039D01*
X132231020Y-76939423D01*
X132285092Y-76961821D01*
X132343620Y-76961821D01*
X132397692Y-76939423D01*
X132439076Y-76898039D01*
X132461474Y-76843967D01*
X132464356Y-76814703D01*
X132464356Y-76178989D01*
X133021499Y-76178989D01*
X133021499Y-76814703D01*
X133024381Y-76843967D01*
X133046779Y-76898039D01*
X133088163Y-76939423D01*
X133142235Y-76961821D01*
X133200763Y-76961821D01*
X133254835Y-76939423D01*
X133296219Y-76898039D01*
X133318617Y-76843967D01*
X133321499Y-76814703D01*
X133321499Y-75314703D01*
X133735785Y-75314703D01*
X133735785Y-76814703D01*
X133738667Y-76843967D01*
X133761065Y-76898039D01*
X133802449Y-76939423D01*
X133856521Y-76961821D01*
X133885785Y-76964703D01*
X134600071Y-76964703D01*
X134629335Y-76961821D01*
X134683407Y-76939423D01*
X134724791Y-76898039D01*
X134747189Y-76843967D01*
X134747189Y-76785439D01*
X134724791Y-76731367D01*
X134683407Y-76689983D01*
X134629335Y-76667585D01*
X134600071Y-76664703D01*
X134035785Y-76664703D01*
X134035785Y-76178989D01*
X134385785Y-76178989D01*
X134415049Y-76176107D01*
X134469121Y-76153709D01*
X134510505Y-76112325D01*
X134532903Y-76058253D01*
X134532903Y-75999725D01*
X134510505Y-75945653D01*
X134469121Y-75904269D01*
X134415049Y-75881871D01*
X134385785Y-75878989D01*
X134035785Y-75878989D01*
X134035785Y-75464703D01*
X134600071Y-75464703D01*
X134629335Y-75461821D01*
X134683407Y-75439423D01*
X134724791Y-75398039D01*
X134747189Y-75343967D01*
X134747189Y-75314703D01*
X135092928Y-75314703D01*
X135092928Y-76814703D01*
X135095810Y-76843967D01*
X135118208Y-76898039D01*
X135159592Y-76939423D01*
X135213664Y-76961821D01*
X135272192Y-76961821D01*
X135326264Y-76939423D01*
X135367648Y-76898039D01*
X135390046Y-76843967D01*
X135392928Y-76814703D01*
X135392928Y-76250417D01*
X135521973Y-76250417D01*
X135977186Y-76900722D01*
X135996329Y-76923044D01*
X136045686Y-76954497D01*
X136103322Y-76964668D01*
X136160464Y-76952009D01*
X136208412Y-76918445D01*
X136239865Y-76869088D01*
X136250036Y-76811452D01*
X136237377Y-76754310D01*
X136222956Y-76728684D01*
X135878004Y-76235895D01*
X135881439Y-76234581D01*
X136024296Y-76163153D01*
X136036889Y-76155225D01*
X136040549Y-76153710D01*
X136044668Y-76150328D01*
X136049182Y-76147488D01*
X136051778Y-76144494D01*
X136063280Y-76135055D01*
X136134709Y-76063626D01*
X136144150Y-76052121D01*
X136147142Y-76049527D01*
X136149980Y-76045017D01*
X136153364Y-76040895D01*
X136154880Y-76037233D01*
X136162807Y-76024642D01*
X136234235Y-75881784D01*
X136244745Y-75854321D01*
X136245126Y-75848945D01*
X136247189Y-75843967D01*
X136250071Y-75814703D01*
X136250071Y-75600417D01*
X136247189Y-75571153D01*
X136245126Y-75566174D01*
X136244745Y-75560799D01*
X136234235Y-75533336D01*
X136162807Y-75390478D01*
X136154878Y-75377883D01*
X136153363Y-75374224D01*
X136149981Y-75370103D01*
X136147142Y-75365593D01*
X136144150Y-75362998D01*
X136134708Y-75351493D01*
X136097917Y-75314703D01*
X136592928Y-75314703D01*
X136592928Y-76814703D01*
X136595810Y-76843967D01*
X136618208Y-76898039D01*
X136659592Y-76939423D01*
X136713664Y-76961821D01*
X136772192Y-76961821D01*
X136826264Y-76939423D01*
X136867648Y-76898039D01*
X136890046Y-76843967D01*
X136892928Y-76814703D01*
X136892928Y-75990836D01*
X137107001Y-76449565D01*
X137113347Y-76460278D01*
X137114668Y-76463910D01*
X137117019Y-76466478D01*
X137121988Y-76474865D01*
X137138793Y-76490255D01*
X137154195Y-76507073D01*
X137160238Y-76509893D01*
X137165151Y-76514392D01*
X137186571Y-76522181D01*
X137207233Y-76531823D01*
X137213890Y-76532115D01*
X137220153Y-76534393D01*
X137242932Y-76533392D01*
X137265703Y-76534393D01*
X137271962Y-76532116D01*
X137278624Y-76531824D01*
X137299291Y-76522179D01*
X137320706Y-76514392D01*
X137325619Y-76509892D01*
X137331661Y-76507073D01*
X137347056Y-76490260D01*
X137363869Y-76474865D01*
X137368837Y-76466476D01*
X137371188Y-76463910D01*
X137372507Y-76460280D01*
X137378855Y-76449565D01*
X137592928Y-75990837D01*
X137592928Y-76814703D01*
X137595810Y-76843967D01*
X137618208Y-76898039D01*
X137659592Y-76939423D01*
X137713664Y-76961821D01*
X137772192Y-76961821D01*
X137826264Y-76939423D01*
X137867648Y-76898039D01*
X137890046Y-76843967D01*
X137892928Y-76814703D01*
X137892928Y-76795942D01*
X138094107Y-76795942D01*
X138098256Y-76854323D01*
X138124430Y-76906670D01*
X138168644Y-76945017D01*
X138224168Y-76963525D01*
X138282549Y-76959376D01*
X138334896Y-76933202D01*
X138373243Y-76888988D01*
X138385231Y-76862137D01*
X138493900Y-76536132D01*
X138991959Y-76536132D01*
X139100627Y-76862137D01*
X139112615Y-76888988D01*
X139150962Y-76933203D01*
X139203310Y-76959376D01*
X139261690Y-76963526D01*
X139317214Y-76945017D01*
X139361428Y-76906670D01*
X139387602Y-76854323D01*
X139391752Y-76795943D01*
X139385232Y-76767269D01*
X138901042Y-75314703D01*
X139592928Y-75314703D01*
X139592928Y-76814703D01*
X139595810Y-76843967D01*
X139618208Y-76898039D01*
X139659592Y-76939423D01*
X139713664Y-76961821D01*
X139742928Y-76964703D01*
X140457214Y-76964703D01*
X140486478Y-76961821D01*
X140540550Y-76939423D01*
X140581934Y-76898039D01*
X140604332Y-76843967D01*
X140604332Y-76785439D01*
X140581934Y-76731367D01*
X140540550Y-76689983D01*
X140486478Y-76667585D01*
X140457214Y-76664703D01*
X139892928Y-76664703D01*
X139892928Y-75314703D01*
X141950071Y-75314703D01*
X141950071Y-76814703D01*
X141952953Y-76843967D01*
X141975351Y-76898039D01*
X142016735Y-76939423D01*
X142070807Y-76961821D01*
X142129335Y-76961821D01*
X142183407Y-76939423D01*
X142224791Y-76898039D01*
X142247189Y-76843967D01*
X142250071Y-76814703D01*
X142250071Y-76795942D01*
X143236964Y-76795942D01*
X143241113Y-76854323D01*
X143267287Y-76906670D01*
X143311501Y-76945017D01*
X143367025Y-76963525D01*
X143425406Y-76959376D01*
X143477753Y-76933202D01*
X143516100Y-76888988D01*
X143528088Y-76862137D01*
X143636757Y-76536132D01*
X144134816Y-76536132D01*
X144243484Y-76862137D01*
X144255472Y-76888988D01*
X144293819Y-76933203D01*
X144346167Y-76959376D01*
X144404547Y-76963526D01*
X144460071Y-76945017D01*
X144504285Y-76906670D01*
X144530459Y-76854323D01*
X144534609Y-76795943D01*
X144528089Y-76767269D01*
X144043899Y-75314703D01*
X144735785Y-75314703D01*
X144735785Y-76814703D01*
X144738667Y-76843967D01*
X144761065Y-76898039D01*
X144802449Y-76939423D01*
X144856521Y-76961821D01*
X144885785Y-76964703D01*
X145242928Y-76964703D01*
X145257733Y-76963244D01*
X145261688Y-76963526D01*
X145266889Y-76962343D01*
X145272192Y-76961821D01*
X145275849Y-76960305D01*
X145290362Y-76957006D01*
X145504648Y-76885578D01*
X145531499Y-76873590D01*
X145535570Y-76870058D01*
X145540550Y-76867996D01*
X145563280Y-76849341D01*
X145706137Y-76706483D01*
X145715575Y-76694981D01*
X145718570Y-76692385D01*
X145721410Y-76687871D01*
X145724792Y-76683752D01*
X145726307Y-76680092D01*
X145734235Y-76667499D01*
X145805664Y-76524643D01*
X145806483Y-76522500D01*
X145807128Y-76521631D01*
X145811512Y-76509359D01*
X145816173Y-76497179D01*
X145816249Y-76496098D01*
X145817021Y-76493940D01*
X145888449Y-76208226D01*
X145889198Y-76203154D01*
X145890046Y-76201110D01*
X145891131Y-76190087D01*
X145892751Y-76179137D01*
X145892425Y-76176949D01*
X145892928Y-76171846D01*
X145892928Y-75957560D01*
X145892425Y-75952456D01*
X145892751Y-75950269D01*
X145891131Y-75939318D01*
X145890046Y-75928296D01*
X145889198Y-75926251D01*
X145888449Y-75921180D01*
X145817021Y-75635466D01*
X145816249Y-75633307D01*
X145816173Y-75632227D01*
X145811512Y-75620046D01*
X145807128Y-75607775D01*
X145806483Y-75606905D01*
X145805664Y-75604763D01*
X145734235Y-75461907D01*
X145726308Y-75449315D01*
X145724792Y-75445653D01*
X145721408Y-75441530D01*
X145718570Y-75437021D01*
X145715577Y-75434425D01*
X145706137Y-75422923D01*
X145563280Y-75280066D01*
X145540549Y-75261411D01*
X145535569Y-75259348D01*
X145531499Y-75255818D01*
X145504648Y-75243829D01*
X145290362Y-75172401D01*
X145275854Y-75169102D01*
X145272192Y-75167585D01*
X145266883Y-75167062D01*
X145261689Y-75165881D01*
X145257739Y-75166161D01*
X145242928Y-75164703D01*
X144885785Y-75164703D01*
X144856521Y-75167585D01*
X144802449Y-75189983D01*
X144761065Y-75231367D01*
X144738667Y-75285439D01*
X144735785Y-75314703D01*
X144043899Y-75314703D01*
X144028088Y-75267269D01*
X144016100Y-75240418D01*
X144009077Y-75232321D01*
X144004285Y-75222736D01*
X143990076Y-75210412D01*
X143977753Y-75196204D01*
X143968167Y-75191411D01*
X143960071Y-75184389D01*
X143942227Y-75178440D01*
X143925406Y-75170030D01*
X143914717Y-75169270D01*
X143904547Y-75165880D01*
X143885781Y-75167213D01*
X143867025Y-75165881D01*
X143856857Y-75169270D01*
X143846167Y-75170030D01*
X143829343Y-75178441D01*
X143811501Y-75184389D01*
X143803406Y-75191409D01*
X143793819Y-75196203D01*
X143781493Y-75210414D01*
X143767287Y-75222736D01*
X143762494Y-75232320D01*
X143755472Y-75240418D01*
X143743484Y-75267269D01*
X143243484Y-76767269D01*
X143236964Y-76795942D01*
X142250071Y-76795942D01*
X142250071Y-76250417D01*
X142671500Y-76250417D01*
X142700764Y-76247535D01*
X142705742Y-76245472D01*
X142711118Y-76245091D01*
X142738582Y-76234581D01*
X142881439Y-76163153D01*
X142894032Y-76155225D01*
X142897692Y-76153710D01*
X142901811Y-76150328D01*
X142906325Y-76147488D01*
X142908921Y-76144494D01*
X142920423Y-76135055D01*
X142991852Y-76063626D01*
X143001293Y-76052121D01*
X143004285Y-76049527D01*
X143007123Y-76045017D01*
X143010507Y-76040895D01*
X143012023Y-76037233D01*
X143019950Y-76024642D01*
X143091378Y-75881784D01*
X143101888Y-75854321D01*
X143102269Y-75848945D01*
X143104332Y-75843967D01*
X143107214Y-75814703D01*
X143107214Y-75600417D01*
X143104332Y-75571153D01*
X143102269Y-75566174D01*
X143101888Y-75560799D01*
X143091378Y-75533336D01*
X143019950Y-75390478D01*
X143012021Y-75377883D01*
X143010506Y-75374224D01*
X143007124Y-75370103D01*
X143004285Y-75365593D01*
X143001293Y-75362998D01*
X142991851Y-75351493D01*
X142920422Y-75280065D01*
X142908922Y-75270627D01*
X142906325Y-75267633D01*
X142901808Y-75264790D01*
X142897691Y-75261411D01*
X142894034Y-75259896D01*
X142881439Y-75251968D01*
X142738582Y-75180539D01*
X142711119Y-75170030D01*
X142705744Y-75169648D01*
X142700764Y-75167585D01*
X142671500Y-75164703D01*
X142100071Y-75164703D01*
X142070807Y-75167585D01*
X142016735Y-75189983D01*
X141975351Y-75231367D01*
X141952953Y-75285439D01*
X141950071Y-75314703D01*
X139892928Y-75314703D01*
X139890046Y-75285439D01*
X139867648Y-75231367D01*
X139826264Y-75189983D01*
X139772192Y-75167585D01*
X139713664Y-75167585D01*
X139659592Y-75189983D01*
X139618208Y-75231367D01*
X139595810Y-75285439D01*
X139592928Y-75314703D01*
X138901042Y-75314703D01*
X138885231Y-75267269D01*
X138873243Y-75240418D01*
X138866220Y-75232321D01*
X138861428Y-75222736D01*
X138847219Y-75210412D01*
X138834896Y-75196204D01*
X138825310Y-75191411D01*
X138817214Y-75184389D01*
X138799370Y-75178440D01*
X138782549Y-75170030D01*
X138771860Y-75169270D01*
X138761690Y-75165880D01*
X138742924Y-75167213D01*
X138724168Y-75165881D01*
X138714000Y-75169270D01*
X138703310Y-75170030D01*
X138686486Y-75178441D01*
X138668644Y-75184389D01*
X138660549Y-75191409D01*
X138650962Y-75196203D01*
X138638636Y-75210414D01*
X138624430Y-75222736D01*
X138619637Y-75232320D01*
X138612615Y-75240418D01*
X138600627Y-75267269D01*
X138100627Y-76767269D01*
X138094107Y-76795942D01*
X137892928Y-76795942D01*
X137892928Y-75314703D01*
X137891033Y-75295465D01*
X137891189Y-75291927D01*
X137890497Y-75290026D01*
X137890046Y-75285439D01*
X137880085Y-75261393D01*
X137871188Y-75236925D01*
X137868928Y-75234457D01*
X137867648Y-75231367D01*
X137849250Y-75212969D01*
X137831661Y-75193762D01*
X137828627Y-75192346D01*
X137826264Y-75189983D01*
X137802233Y-75180029D01*
X137778624Y-75169011D01*
X137775279Y-75168864D01*
X137772192Y-75167585D01*
X137746168Y-75167585D01*
X137720153Y-75166442D01*
X137717010Y-75167585D01*
X137713664Y-75167585D01*
X137689611Y-75177548D01*
X137665151Y-75186443D01*
X137662683Y-75188702D01*
X137659592Y-75189983D01*
X137641183Y-75208391D01*
X137621988Y-75225970D01*
X137619638Y-75229936D01*
X137618208Y-75231367D01*
X137616852Y-75234639D01*
X137607001Y-75251270D01*
X137242928Y-76031426D01*
X136878855Y-75251270D01*
X136869001Y-75234635D01*
X136867648Y-75231367D01*
X136866219Y-75229938D01*
X136863869Y-75225970D01*
X136844661Y-75208380D01*
X136826264Y-75189983D01*
X136823173Y-75188702D01*
X136820706Y-75186443D01*
X136796240Y-75177546D01*
X136772192Y-75167585D01*
X136768846Y-75167585D01*
X136765703Y-75166442D01*
X136739699Y-75167585D01*
X136713664Y-75167585D01*
X136710573Y-75168865D01*
X136707233Y-75169012D01*
X136683637Y-75180022D01*
X136659592Y-75189983D01*
X136657228Y-75192346D01*
X136654195Y-75193762D01*
X136636605Y-75212969D01*
X136618208Y-75231367D01*
X136616927Y-75234457D01*
X136614668Y-75236925D01*
X136605771Y-75261390D01*
X136595810Y-75285439D01*
X136595358Y-75290027D01*
X136594667Y-75291928D01*
X136594822Y-75295466D01*
X136592928Y-75314703D01*
X136097917Y-75314703D01*
X136063279Y-75280065D01*
X136051779Y-75270627D01*
X136049182Y-75267633D01*
X136044665Y-75264790D01*
X136040548Y-75261411D01*
X136036891Y-75259896D01*
X136024296Y-75251968D01*
X135881439Y-75180539D01*
X135853976Y-75170030D01*
X135848601Y-75169648D01*
X135843621Y-75167585D01*
X135814357Y-75164703D01*
X135242928Y-75164703D01*
X135213664Y-75167585D01*
X135159592Y-75189983D01*
X135118208Y-75231367D01*
X135095810Y-75285439D01*
X135092928Y-75314703D01*
X134747189Y-75314703D01*
X134747189Y-75285439D01*
X134724791Y-75231367D01*
X134683407Y-75189983D01*
X134629335Y-75167585D01*
X134600071Y-75164703D01*
X133885785Y-75164703D01*
X133856521Y-75167585D01*
X133802449Y-75189983D01*
X133761065Y-75231367D01*
X133738667Y-75285439D01*
X133735785Y-75314703D01*
X133321499Y-75314703D01*
X133318617Y-75285439D01*
X133296219Y-75231367D01*
X133254835Y-75189983D01*
X133200763Y-75167585D01*
X133142235Y-75167585D01*
X133088163Y-75189983D01*
X133046779Y-75231367D01*
X133024381Y-75285439D01*
X133021499Y-75314703D01*
X133021499Y-75878989D01*
X132464356Y-75878989D01*
X132464356Y-75314703D01*
X132461474Y-75285439D01*
X132439076Y-75231367D01*
X132397692Y-75189983D01*
X132343620Y-75167585D01*
X132285092Y-75167585D01*
X132231020Y-75189983D01*
X132189636Y-75231367D01*
X132167238Y-75285439D01*
X132164356Y-75314703D01*
X131961475Y-75314703D01*
X131961475Y-75285439D01*
X131939077Y-75231367D01*
X131897693Y-75189983D01*
X131843621Y-75167585D01*
X131814357Y-75164703D01*
X130957214Y-75164703D01*
X130927950Y-75167585D01*
X130873878Y-75189983D01*
X130832494Y-75231367D01*
X130810096Y-75285439D01*
X130643429Y-75285439D01*
X130643429Y-74998036D01*
X146059595Y-74998036D01*
X146059595Y-77131370D01*
G37*
D11*
G36*
X130462672Y-137823330D02*
G01*
X128425245Y-137823330D01*
X128425245Y-137592710D01*
X128536356Y-137592710D01*
X128536356Y-137631728D01*
X128551288Y-137667776D01*
X128578878Y-137695366D01*
X128614926Y-137710298D01*
X128634435Y-137712219D01*
X129253482Y-137712219D01*
X129272991Y-137710298D01*
X129309039Y-137695366D01*
X129336629Y-137667776D01*
X129351561Y-137631728D01*
X129351561Y-137592710D01*
X129336629Y-137556662D01*
X129309039Y-137529072D01*
X129272991Y-137514140D01*
X129253482Y-137512219D01*
X128875857Y-137512219D01*
X129121697Y-137266378D01*
X129535220Y-137266378D01*
X129536356Y-137282362D01*
X129536356Y-137298394D01*
X129537731Y-137301714D01*
X129537986Y-137305298D01*
X129545153Y-137319633D01*
X129551288Y-137334442D01*
X129553828Y-137336982D01*
X129555436Y-137340197D01*
X129567547Y-137350701D01*
X129578878Y-137362032D01*
X129582196Y-137363406D01*
X129584912Y-137365762D01*
X129600121Y-137370831D01*
X129614926Y-137376964D01*
X129620026Y-137377466D01*
X129621928Y-137378100D01*
X129624561Y-137377912D01*
X129634435Y-137378885D01*
X130010625Y-137378885D01*
X130010625Y-137612219D01*
X130012546Y-137631728D01*
X130027478Y-137667776D01*
X130055068Y-137695366D01*
X130091116Y-137710298D01*
X130130134Y-137710298D01*
X130166182Y-137695366D01*
X130193772Y-137667776D01*
X130208704Y-137631728D01*
X130210625Y-137612219D01*
X130210625Y-137378885D01*
X130253482Y-137378885D01*
X130272991Y-137376964D01*
X130309039Y-137362032D01*
X130336629Y-137334442D01*
X130351561Y-137298394D01*
X130351561Y-137259376D01*
X130336629Y-137223328D01*
X130309039Y-137195738D01*
X130272991Y-137180806D01*
X130253482Y-137178885D01*
X130210625Y-137178885D01*
X130210625Y-136945552D01*
X130208704Y-136926043D01*
X130193772Y-136889995D01*
X130166182Y-136862405D01*
X130130134Y-136847473D01*
X130091116Y-136847473D01*
X130055068Y-136862405D01*
X130027478Y-136889995D01*
X130012546Y-136926043D01*
X130010625Y-136945552D01*
X130010625Y-137178885D01*
X129773177Y-137178885D01*
X129967398Y-136596223D01*
X129971745Y-136577108D01*
X129968979Y-136538188D01*
X129951529Y-136503289D01*
X129922053Y-136477724D01*
X129885037Y-136465385D01*
X129846117Y-136468152D01*
X129811218Y-136485601D01*
X129785653Y-136515077D01*
X129777662Y-136532978D01*
X129539567Y-137247262D01*
X129537367Y-137256933D01*
X129536356Y-137259376D01*
X129536356Y-137261382D01*
X129535220Y-137266378D01*
X129121697Y-137266378D01*
X129276574Y-137111501D01*
X129289010Y-137096347D01*
X129290384Y-137093028D01*
X129292740Y-137090313D01*
X129300731Y-137072413D01*
X129348350Y-136929556D01*
X129350549Y-136919883D01*
X129351561Y-136917442D01*
X129351909Y-136913904D01*
X129352697Y-136910441D01*
X129352509Y-136907806D01*
X129353482Y-136897933D01*
X129353482Y-136802695D01*
X129351561Y-136783186D01*
X129350185Y-136779865D01*
X129349931Y-136776282D01*
X129342925Y-136757973D01*
X129295306Y-136662736D01*
X129290020Y-136654339D01*
X129289010Y-136651899D01*
X129286756Y-136649153D01*
X129284863Y-136646145D01*
X129282865Y-136644412D01*
X129276573Y-136636746D01*
X129228955Y-136589127D01*
X129221284Y-136582832D01*
X129219555Y-136580838D01*
X129216547Y-136578944D01*
X129213801Y-136576691D01*
X129211361Y-136575680D01*
X129202965Y-136570395D01*
X129107727Y-136522776D01*
X129089419Y-136515770D01*
X129085835Y-136515515D01*
X129082515Y-136514140D01*
X129063006Y-136512219D01*
X128824911Y-136512219D01*
X128805402Y-136514140D01*
X128802081Y-136515515D01*
X128798498Y-136515770D01*
X128780189Y-136522776D01*
X128684952Y-136570395D01*
X128676555Y-136575680D01*
X128674115Y-136576691D01*
X128671369Y-136578944D01*
X128668361Y-136580838D01*
X128666628Y-136582835D01*
X128658962Y-136589128D01*
X128611343Y-136636746D01*
X128598907Y-136651900D01*
X128583975Y-136687948D01*
X128583975Y-136726966D01*
X128598907Y-136763014D01*
X128626497Y-136790604D01*
X128662545Y-136805536D01*
X128701563Y-136805536D01*
X128737611Y-136790604D01*
X128752765Y-136778168D01*
X128788908Y-136742023D01*
X128848518Y-136712219D01*
X129039399Y-136712219D01*
X129099008Y-136742024D01*
X129123677Y-136766692D01*
X129153482Y-136826302D01*
X129153482Y-136881706D01*
X129118460Y-136986770D01*
X128563724Y-137541508D01*
X128551288Y-137556662D01*
X128536356Y-137592710D01*
X128425245Y-137592710D01*
X128425245Y-136354274D01*
X130462672Y-136354274D01*
X130462672Y-137823330D01*
G37*
X129290482Y-79192219D02*
X128719054Y-79192219D01*
X129004768Y-79192219D02*
X129004768Y-78192219D01*
X129004768Y-78192219D02*
X128909530Y-78335076D01*
X128909530Y-78335076D02*
X128814292Y-78430314D01*
X128814292Y-78430314D02*
X128719054Y-78477933D01*
X129195244Y-177585552D02*
X129195244Y-178252219D01*
X128957149Y-177204600D02*
X128719054Y-177918885D01*
X128719054Y-177918885D02*
X129338101Y-177918885D01*
X129909530Y-177252219D02*
X130004768Y-177252219D01*
X130004768Y-177252219D02*
X130100006Y-177299838D01*
X130100006Y-177299838D02*
X130147625Y-177347457D01*
X130147625Y-177347457D02*
X130195244Y-177442695D01*
X130195244Y-177442695D02*
X130242863Y-177633171D01*
X130242863Y-177633171D02*
X130242863Y-177871266D01*
X130242863Y-177871266D02*
X130195244Y-178061742D01*
X130195244Y-178061742D02*
X130147625Y-178156980D01*
X130147625Y-178156980D02*
X130100006Y-178204600D01*
X130100006Y-178204600D02*
X130004768Y-178252219D01*
X130004768Y-178252219D02*
X129909530Y-178252219D01*
X129909530Y-178252219D02*
X129814292Y-178204600D01*
X129814292Y-178204600D02*
X129766673Y-178156980D01*
X129766673Y-178156980D02*
X129719054Y-178061742D01*
X129719054Y-178061742D02*
X129671435Y-177871266D01*
X129671435Y-177871266D02*
X129671435Y-177633171D01*
X129671435Y-177633171D02*
X129719054Y-177442695D01*
X129719054Y-177442695D02*
X129766673Y-177347457D01*
X129766673Y-177347457D02*
X129814292Y-177299838D01*
X129814292Y-177299838D02*
X129909530Y-177252219D01*
X146807612Y-78620790D02*
X146712374Y-78573171D01*
X146712374Y-78573171D02*
X146664755Y-78525552D01*
X146664755Y-78525552D02*
X146617136Y-78430314D01*
X146617136Y-78430314D02*
X146617136Y-78382695D01*
X146617136Y-78382695D02*
X146664755Y-78287457D01*
X146664755Y-78287457D02*
X146712374Y-78239838D01*
X146712374Y-78239838D02*
X146807612Y-78192219D01*
X146807612Y-78192219D02*
X146998088Y-78192219D01*
X146998088Y-78192219D02*
X147093326Y-78239838D01*
X147093326Y-78239838D02*
X147140945Y-78287457D01*
X147140945Y-78287457D02*
X147188564Y-78382695D01*
X147188564Y-78382695D02*
X147188564Y-78430314D01*
X147188564Y-78430314D02*
X147140945Y-78525552D01*
X147140945Y-78525552D02*
X147093326Y-78573171D01*
X147093326Y-78573171D02*
X146998088Y-78620790D01*
X146998088Y-78620790D02*
X146807612Y-78620790D01*
X146807612Y-78620790D02*
X146712374Y-78668409D01*
X146712374Y-78668409D02*
X146664755Y-78716028D01*
X146664755Y-78716028D02*
X146617136Y-78811266D01*
X146617136Y-78811266D02*
X146617136Y-79001742D01*
X146617136Y-79001742D02*
X146664755Y-79096980D01*
X146664755Y-79096980D02*
X146712374Y-79144600D01*
X146712374Y-79144600D02*
X146807612Y-79192219D01*
X146807612Y-79192219D02*
X146998088Y-79192219D01*
X146998088Y-79192219D02*
X147093326Y-79144600D01*
X147093326Y-79144600D02*
X147140945Y-79096980D01*
X147140945Y-79096980D02*
X147188564Y-79001742D01*
X147188564Y-79001742D02*
X147188564Y-78811266D01*
X147188564Y-78811266D02*
X147140945Y-78716028D01*
X147140945Y-78716028D02*
X147093326Y-78668409D01*
X147093326Y-78668409D02*
X146998088Y-78620790D01*
X147807612Y-78192219D02*
X147902850Y-78192219D01*
X147902850Y-78192219D02*
X147998088Y-78239838D01*
X147998088Y-78239838D02*
X148045707Y-78287457D01*
X148045707Y-78287457D02*
X148093326Y-78382695D01*
X148093326Y-78382695D02*
X148140945Y-78573171D01*
X148140945Y-78573171D02*
X148140945Y-78811266D01*
X148140945Y-78811266D02*
X148093326Y-79001742D01*
X148093326Y-79001742D02*
X148045707Y-79096980D01*
X148045707Y-79096980D02*
X147998088Y-79144600D01*
X147998088Y-79144600D02*
X147902850Y-79192219D01*
X147902850Y-79192219D02*
X147807612Y-79192219D01*
X147807612Y-79192219D02*
X147712374Y-79144600D01*
X147712374Y-79144600D02*
X147664755Y-79096980D01*
X147664755Y-79096980D02*
X147617136Y-79001742D01*
X147617136Y-79001742D02*
X147569517Y-78811266D01*
X147569517Y-78811266D02*
X147569517Y-78573171D01*
X147569517Y-78573171D02*
X147617136Y-78382695D01*
X147617136Y-78382695D02*
X147664755Y-78287457D01*
X147664755Y-78287457D02*
X147712374Y-78239838D01*
X147712374Y-78239838D02*
X147807612Y-78192219D01*
X136287142Y-172681388D02*
X136191904Y-172633769D01*
X136191904Y-172633769D02*
X136096666Y-172538531D01*
X136096666Y-172538531D02*
X135953809Y-172395673D01*
X135953809Y-172395673D02*
X135858571Y-172348054D01*
X135858571Y-172348054D02*
X135763333Y-172348054D01*
X135810952Y-172586150D02*
X135715714Y-172538531D01*
X135715714Y-172538531D02*
X135620476Y-172443292D01*
X135620476Y-172443292D02*
X135572857Y-172252816D01*
X135572857Y-172252816D02*
X135572857Y-171919483D01*
X135572857Y-171919483D02*
X135620476Y-171729007D01*
X135620476Y-171729007D02*
X135715714Y-171633769D01*
X135715714Y-171633769D02*
X135810952Y-171586150D01*
X135810952Y-171586150D02*
X136001428Y-171586150D01*
X136001428Y-171586150D02*
X136096666Y-171633769D01*
X136096666Y-171633769D02*
X136191904Y-171729007D01*
X136191904Y-171729007D02*
X136239523Y-171919483D01*
X136239523Y-171919483D02*
X136239523Y-172252816D01*
X136239523Y-172252816D02*
X136191904Y-172443292D01*
X136191904Y-172443292D02*
X136096666Y-172538531D01*
X136096666Y-172538531D02*
X136001428Y-172586150D01*
X136001428Y-172586150D02*
X135810952Y-172586150D01*
X137001428Y-172062340D02*
X136668095Y-172062340D01*
X136668095Y-172586150D02*
X136668095Y-171586150D01*
X136668095Y-171586150D02*
X137144285Y-171586150D01*
X137525238Y-172586150D02*
X137525238Y-171586150D01*
X137525238Y-171586150D02*
X138096666Y-172586150D01*
X138096666Y-172586150D02*
X138096666Y-171586150D01*
X138572857Y-172205197D02*
X139334762Y-172205197D01*
X139953809Y-172014721D02*
X139858571Y-171967102D01*
X139858571Y-171967102D02*
X139810952Y-171919483D01*
X139810952Y-171919483D02*
X139763333Y-171824245D01*
X139763333Y-171824245D02*
X139763333Y-171776626D01*
X139763333Y-171776626D02*
X139810952Y-171681388D01*
X139810952Y-171681388D02*
X139858571Y-171633769D01*
X139858571Y-171633769D02*
X139953809Y-171586150D01*
X139953809Y-171586150D02*
X140144285Y-171586150D01*
X140144285Y-171586150D02*
X140239523Y-171633769D01*
X140239523Y-171633769D02*
X140287142Y-171681388D01*
X140287142Y-171681388D02*
X140334761Y-171776626D01*
X140334761Y-171776626D02*
X140334761Y-171824245D01*
X140334761Y-171824245D02*
X140287142Y-171919483D01*
X140287142Y-171919483D02*
X140239523Y-171967102D01*
X140239523Y-171967102D02*
X140144285Y-172014721D01*
X140144285Y-172014721D02*
X139953809Y-172014721D01*
X139953809Y-172014721D02*
X139858571Y-172062340D01*
X139858571Y-172062340D02*
X139810952Y-172109959D01*
X139810952Y-172109959D02*
X139763333Y-172205197D01*
X139763333Y-172205197D02*
X139763333Y-172395673D01*
X139763333Y-172395673D02*
X139810952Y-172490911D01*
X139810952Y-172490911D02*
X139858571Y-172538531D01*
X139858571Y-172538531D02*
X139953809Y-172586150D01*
X139953809Y-172586150D02*
X140144285Y-172586150D01*
X140144285Y-172586150D02*
X140239523Y-172538531D01*
X140239523Y-172538531D02*
X140287142Y-172490911D01*
X140287142Y-172490911D02*
X140334761Y-172395673D01*
X140334761Y-172395673D02*
X140334761Y-172205197D01*
X140334761Y-172205197D02*
X140287142Y-172109959D01*
X140287142Y-172109959D02*
X140239523Y-172062340D01*
X140239523Y-172062340D02*
X140144285Y-172014721D01*
X140953809Y-171586150D02*
X141049047Y-171586150D01*
X141049047Y-171586150D02*
X141144285Y-171633769D01*
X141144285Y-171633769D02*
X141191904Y-171681388D01*
X141191904Y-171681388D02*
X141239523Y-171776626D01*
X141239523Y-171776626D02*
X141287142Y-171967102D01*
X141287142Y-171967102D02*
X141287142Y-172205197D01*
X141287142Y-172205197D02*
X141239523Y-172395673D01*
X141239523Y-172395673D02*
X141191904Y-172490911D01*
X141191904Y-172490911D02*
X141144285Y-172538531D01*
X141144285Y-172538531D02*
X141049047Y-172586150D01*
X141049047Y-172586150D02*
X140953809Y-172586150D01*
X140953809Y-172586150D02*
X140858571Y-172538531D01*
X140858571Y-172538531D02*
X140810952Y-172490911D01*
X140810952Y-172490911D02*
X140763333Y-172395673D01*
X140763333Y-172395673D02*
X140715714Y-172205197D01*
X140715714Y-172205197D02*
X140715714Y-171967102D01*
X140715714Y-171967102D02*
X140763333Y-171776626D01*
X140763333Y-171776626D02*
X140810952Y-171681388D01*
X140810952Y-171681388D02*
X140858571Y-171633769D01*
X140858571Y-171633769D02*
X140953809Y-171586150D01*
X135549047Y-174196094D02*
X134977619Y-174196094D01*
X135263333Y-174196094D02*
X135263333Y-173196094D01*
X135263333Y-173196094D02*
X135168095Y-173338951D01*
X135168095Y-173338951D02*
X135072857Y-173434189D01*
X135072857Y-173434189D02*
X134977619Y-173481808D01*
X136168095Y-173196094D02*
X136263333Y-173196094D01*
X136263333Y-173196094D02*
X136358571Y-173243713D01*
X136358571Y-173243713D02*
X136406190Y-173291332D01*
X136406190Y-173291332D02*
X136453809Y-173386570D01*
X136453809Y-173386570D02*
X136501428Y-173577046D01*
X136501428Y-173577046D02*
X136501428Y-173815141D01*
X136501428Y-173815141D02*
X136453809Y-174005617D01*
X136453809Y-174005617D02*
X136406190Y-174100855D01*
X136406190Y-174100855D02*
X136358571Y-174148475D01*
X136358571Y-174148475D02*
X136263333Y-174196094D01*
X136263333Y-174196094D02*
X136168095Y-174196094D01*
X136168095Y-174196094D02*
X136072857Y-174148475D01*
X136072857Y-174148475D02*
X136025238Y-174100855D01*
X136025238Y-174100855D02*
X135977619Y-174005617D01*
X135977619Y-174005617D02*
X135930000Y-173815141D01*
X135930000Y-173815141D02*
X135930000Y-173577046D01*
X135930000Y-173577046D02*
X135977619Y-173386570D01*
X135977619Y-173386570D02*
X136025238Y-173291332D01*
X136025238Y-173291332D02*
X136072857Y-173243713D01*
X136072857Y-173243713D02*
X136168095Y-173196094D01*
X136834762Y-174196094D02*
X137358571Y-173529427D01*
X136834762Y-173529427D02*
X137358571Y-174196094D01*
X138263333Y-174196094D02*
X137691905Y-174196094D01*
X137977619Y-174196094D02*
X137977619Y-173196094D01*
X137977619Y-173196094D02*
X137882381Y-173338951D01*
X137882381Y-173338951D02*
X137787143Y-173434189D01*
X137787143Y-173434189D02*
X137691905Y-173481808D01*
X138882381Y-173196094D02*
X138977619Y-173196094D01*
X138977619Y-173196094D02*
X139072857Y-173243713D01*
X139072857Y-173243713D02*
X139120476Y-173291332D01*
X139120476Y-173291332D02*
X139168095Y-173386570D01*
X139168095Y-173386570D02*
X139215714Y-173577046D01*
X139215714Y-173577046D02*
X139215714Y-173815141D01*
X139215714Y-173815141D02*
X139168095Y-174005617D01*
X139168095Y-174005617D02*
X139120476Y-174100855D01*
X139120476Y-174100855D02*
X139072857Y-174148475D01*
X139072857Y-174148475D02*
X138977619Y-174196094D01*
X138977619Y-174196094D02*
X138882381Y-174196094D01*
X138882381Y-174196094D02*
X138787143Y-174148475D01*
X138787143Y-174148475D02*
X138739524Y-174100855D01*
X138739524Y-174100855D02*
X138691905Y-174005617D01*
X138691905Y-174005617D02*
X138644286Y-173815141D01*
X138644286Y-173815141D02*
X138644286Y-173577046D01*
X138644286Y-173577046D02*
X138691905Y-173386570D01*
X138691905Y-173386570D02*
X138739524Y-173291332D01*
X138739524Y-173291332D02*
X138787143Y-173243713D01*
X138787143Y-173243713D02*
X138882381Y-173196094D01*
X139644286Y-174196094D02*
X139644286Y-173529427D01*
X139644286Y-173624665D02*
X139691905Y-173577046D01*
X139691905Y-173577046D02*
X139787143Y-173529427D01*
X139787143Y-173529427D02*
X139930000Y-173529427D01*
X139930000Y-173529427D02*
X140025238Y-173577046D01*
X140025238Y-173577046D02*
X140072857Y-173672284D01*
X140072857Y-173672284D02*
X140072857Y-174196094D01*
X140072857Y-173672284D02*
X140120476Y-173577046D01*
X140120476Y-173577046D02*
X140215714Y-173529427D01*
X140215714Y-173529427D02*
X140358571Y-173529427D01*
X140358571Y-173529427D02*
X140453810Y-173577046D01*
X140453810Y-173577046D02*
X140501429Y-173672284D01*
X140501429Y-173672284D02*
X140501429Y-174196094D01*
X140977619Y-174196094D02*
X140977619Y-173529427D01*
X140977619Y-173624665D02*
X141025238Y-173577046D01*
X141025238Y-173577046D02*
X141120476Y-173529427D01*
X141120476Y-173529427D02*
X141263333Y-173529427D01*
X141263333Y-173529427D02*
X141358571Y-173577046D01*
X141358571Y-173577046D02*
X141406190Y-173672284D01*
X141406190Y-173672284D02*
X141406190Y-174196094D01*
X141406190Y-173672284D02*
X141453809Y-173577046D01*
X141453809Y-173577046D02*
X141549047Y-173529427D01*
X141549047Y-173529427D02*
X141691904Y-173529427D01*
X141691904Y-173529427D02*
X141787143Y-173577046D01*
X141787143Y-173577046D02*
X141834762Y-173672284D01*
X141834762Y-173672284D02*
X141834762Y-174196094D01*
X134049048Y-174806038D02*
X134144286Y-174806038D01*
X134144286Y-174806038D02*
X134239524Y-174853657D01*
X134239524Y-174853657D02*
X134287143Y-174901276D01*
X134287143Y-174901276D02*
X134334762Y-174996514D01*
X134334762Y-174996514D02*
X134382381Y-175186990D01*
X134382381Y-175186990D02*
X134382381Y-175425085D01*
X134382381Y-175425085D02*
X134334762Y-175615561D01*
X134334762Y-175615561D02*
X134287143Y-175710799D01*
X134287143Y-175710799D02*
X134239524Y-175758419D01*
X134239524Y-175758419D02*
X134144286Y-175806038D01*
X134144286Y-175806038D02*
X134049048Y-175806038D01*
X134049048Y-175806038D02*
X133953810Y-175758419D01*
X133953810Y-175758419D02*
X133906191Y-175710799D01*
X133906191Y-175710799D02*
X133858572Y-175615561D01*
X133858572Y-175615561D02*
X133810953Y-175425085D01*
X133810953Y-175425085D02*
X133810953Y-175186990D01*
X133810953Y-175186990D02*
X133858572Y-174996514D01*
X133858572Y-174996514D02*
X133906191Y-174901276D01*
X133906191Y-174901276D02*
X133953810Y-174853657D01*
X133953810Y-174853657D02*
X134049048Y-174806038D01*
X134810953Y-175710799D02*
X134858572Y-175758419D01*
X134858572Y-175758419D02*
X134810953Y-175806038D01*
X134810953Y-175806038D02*
X134763334Y-175758419D01*
X134763334Y-175758419D02*
X134810953Y-175710799D01*
X134810953Y-175710799D02*
X134810953Y-175806038D01*
X135715714Y-175139371D02*
X135715714Y-175806038D01*
X135477619Y-174758419D02*
X135239524Y-175472704D01*
X135239524Y-175472704D02*
X135858571Y-175472704D01*
X136239524Y-175806038D02*
X136239524Y-175139371D01*
X136239524Y-175234609D02*
X136287143Y-175186990D01*
X136287143Y-175186990D02*
X136382381Y-175139371D01*
X136382381Y-175139371D02*
X136525238Y-175139371D01*
X136525238Y-175139371D02*
X136620476Y-175186990D01*
X136620476Y-175186990D02*
X136668095Y-175282228D01*
X136668095Y-175282228D02*
X136668095Y-175806038D01*
X136668095Y-175282228D02*
X136715714Y-175186990D01*
X136715714Y-175186990D02*
X136810952Y-175139371D01*
X136810952Y-175139371D02*
X136953809Y-175139371D01*
X136953809Y-175139371D02*
X137049048Y-175186990D01*
X137049048Y-175186990D02*
X137096667Y-175282228D01*
X137096667Y-175282228D02*
X137096667Y-175806038D01*
X137572857Y-175806038D02*
X137572857Y-175139371D01*
X137572857Y-175234609D02*
X137620476Y-175186990D01*
X137620476Y-175186990D02*
X137715714Y-175139371D01*
X137715714Y-175139371D02*
X137858571Y-175139371D01*
X137858571Y-175139371D02*
X137953809Y-175186990D01*
X137953809Y-175186990D02*
X138001428Y-175282228D01*
X138001428Y-175282228D02*
X138001428Y-175806038D01*
X138001428Y-175282228D02*
X138049047Y-175186990D01*
X138049047Y-175186990D02*
X138144285Y-175139371D01*
X138144285Y-175139371D02*
X138287142Y-175139371D01*
X138287142Y-175139371D02*
X138382381Y-175186990D01*
X138382381Y-175186990D02*
X138430000Y-175282228D01*
X138430000Y-175282228D02*
X138430000Y-175806038D01*
X139668095Y-175806038D02*
X139668095Y-174806038D01*
X139668095Y-174806038D02*
X140049047Y-174806038D01*
X140049047Y-174806038D02*
X140144285Y-174853657D01*
X140144285Y-174853657D02*
X140191904Y-174901276D01*
X140191904Y-174901276D02*
X140239523Y-174996514D01*
X140239523Y-174996514D02*
X140239523Y-175139371D01*
X140239523Y-175139371D02*
X140191904Y-175234609D01*
X140191904Y-175234609D02*
X140144285Y-175282228D01*
X140144285Y-175282228D02*
X140049047Y-175329847D01*
X140049047Y-175329847D02*
X139668095Y-175329847D01*
X140668095Y-175806038D02*
X140668095Y-175139371D01*
X140668095Y-174806038D02*
X140620476Y-174853657D01*
X140620476Y-174853657D02*
X140668095Y-174901276D01*
X140668095Y-174901276D02*
X140715714Y-174853657D01*
X140715714Y-174853657D02*
X140668095Y-174806038D01*
X140668095Y-174806038D02*
X140668095Y-174901276D01*
X141001428Y-175139371D02*
X141382380Y-175139371D01*
X141144285Y-174806038D02*
X141144285Y-175663180D01*
X141144285Y-175663180D02*
X141191904Y-175758419D01*
X141191904Y-175758419D02*
X141287142Y-175806038D01*
X141287142Y-175806038D02*
X141382380Y-175806038D01*
X142144285Y-175758419D02*
X142049047Y-175806038D01*
X142049047Y-175806038D02*
X141858571Y-175806038D01*
X141858571Y-175806038D02*
X141763333Y-175758419D01*
X141763333Y-175758419D02*
X141715714Y-175710799D01*
X141715714Y-175710799D02*
X141668095Y-175615561D01*
X141668095Y-175615561D02*
X141668095Y-175329847D01*
X141668095Y-175329847D02*
X141715714Y-175234609D01*
X141715714Y-175234609D02*
X141763333Y-175186990D01*
X141763333Y-175186990D02*
X141858571Y-175139371D01*
X141858571Y-175139371D02*
X142049047Y-175139371D01*
X142049047Y-175139371D02*
X142144285Y-175186990D01*
X142572857Y-175806038D02*
X142572857Y-174806038D01*
X143001428Y-175806038D02*
X143001428Y-175282228D01*
X143001428Y-175282228D02*
X142953809Y-175186990D01*
X142953809Y-175186990D02*
X142858571Y-175139371D01*
X142858571Y-175139371D02*
X142715714Y-175139371D01*
X142715714Y-175139371D02*
X142620476Y-175186990D01*
X142620476Y-175186990D02*
X142572857Y-175234609D01*
G36*
X148424984Y-137777381D02*
G01*
X146433492Y-137777381D01*
X146433492Y-137052113D01*
X146544603Y-137052113D01*
X146546057Y-137056931D01*
X146546057Y-137061969D01*
X146551653Y-137075478D01*
X146555874Y-137089468D01*
X146559061Y-137093364D01*
X146560989Y-137098017D01*
X146571325Y-137108353D01*
X146580581Y-137119666D01*
X146585018Y-137122046D01*
X146588579Y-137125607D01*
X146602084Y-137131201D01*
X146614965Y-137138111D01*
X146619974Y-137138611D01*
X146624627Y-137140539D01*
X146639248Y-137140539D01*
X146653789Y-137141993D01*
X146658608Y-137140539D01*
X146663645Y-137140539D01*
X146677154Y-137134942D01*
X146691144Y-137130722D01*
X146695040Y-137127534D01*
X146699693Y-137125607D01*
X146714847Y-137113171D01*
X146750990Y-137077026D01*
X146810600Y-137047222D01*
X147001481Y-137047222D01*
X147061090Y-137077027D01*
X147085759Y-137101695D01*
X147115564Y-137161305D01*
X147115564Y-137352186D01*
X147085759Y-137411794D01*
X147061090Y-137436464D01*
X147001481Y-137466270D01*
X146810600Y-137466270D01*
X146750990Y-137436465D01*
X146714847Y-137400321D01*
X146699694Y-137387884D01*
X146663646Y-137372953D01*
X146624628Y-137372952D01*
X146588579Y-137387883D01*
X146560989Y-137415473D01*
X146546058Y-137451521D01*
X146546057Y-137490539D01*
X146560988Y-137526588D01*
X146573425Y-137541741D01*
X146621043Y-137589361D01*
X146628711Y-137595654D01*
X146630443Y-137597651D01*
X146633451Y-137599544D01*
X146636197Y-137601798D01*
X146638637Y-137602808D01*
X146647034Y-137608094D01*
X146742271Y-137655713D01*
X146760580Y-137662719D01*
X146764163Y-137662973D01*
X146767484Y-137664349D01*
X146786993Y-137666270D01*
X147025088Y-137666270D01*
X147044597Y-137664349D01*
X147047917Y-137662973D01*
X147051501Y-137662719D01*
X147069809Y-137655713D01*
X147165047Y-137608094D01*
X147173442Y-137602809D01*
X147175884Y-137601798D01*
X147178631Y-137599542D01*
X147181637Y-137597651D01*
X147183367Y-137595656D01*
X147191037Y-137589361D01*
X147238656Y-137541741D01*
X147244948Y-137534074D01*
X147246945Y-137532343D01*
X147248838Y-137529335D01*
X147251093Y-137526588D01*
X147252104Y-137524146D01*
X147257388Y-137515752D01*
X147305007Y-137420515D01*
X147312013Y-137402206D01*
X147312267Y-137398622D01*
X147313643Y-137395302D01*
X147315564Y-137375793D01*
X147315564Y-137137698D01*
X147313643Y-137118189D01*
X147312267Y-137114868D01*
X147312013Y-137111285D01*
X147305007Y-137092976D01*
X147257388Y-136997739D01*
X147252102Y-136989342D01*
X147251092Y-136986902D01*
X147248838Y-136984156D01*
X147246945Y-136981148D01*
X147244947Y-136979415D01*
X147238655Y-136971749D01*
X147191037Y-136924130D01*
X147183366Y-136917835D01*
X147181637Y-136915841D01*
X147178629Y-136913947D01*
X147175883Y-136911694D01*
X147173443Y-136910683D01*
X147165047Y-136905398D01*
X147069809Y-136857779D01*
X147051501Y-136850773D01*
X147047917Y-136850518D01*
X147044597Y-136849143D01*
X147025088Y-136847222D01*
X146786993Y-136847222D01*
X146767484Y-136849143D01*
X146764163Y-136850518D01*
X146763826Y-136850542D01*
X146782254Y-136666270D01*
X147167945Y-136666270D01*
X147187454Y-136664349D01*
X147223502Y-136649417D01*
X147251092Y-136621827D01*
X147266024Y-136585779D01*
X147266024Y-136546761D01*
X147450819Y-136546761D01*
X147450819Y-136585779D01*
X147465751Y-136621827D01*
X147493341Y-136649417D01*
X147529389Y-136664349D01*
X147548898Y-136666270D01*
X148063910Y-136666270D01*
X147695078Y-137526878D01*
X147689159Y-137545566D01*
X147688684Y-137584582D01*
X147703175Y-137620809D01*
X147730426Y-137648734D01*
X147766289Y-137664104D01*
X147805305Y-137664579D01*
X147841532Y-137650088D01*
X147869457Y-137622837D01*
X147878908Y-137605662D01*
X148307478Y-136605662D01*
X148313398Y-136586974D01*
X148313405Y-136586352D01*
X148313643Y-136585779D01*
X148313643Y-136566850D01*
X148313873Y-136547959D01*
X148313643Y-136547383D01*
X148313643Y-136546761D01*
X148306389Y-136529250D01*
X148299382Y-136511731D01*
X148298948Y-136511287D01*
X148298711Y-136510713D01*
X148285331Y-136497333D01*
X148272131Y-136483807D01*
X148271560Y-136483562D01*
X148271121Y-136483123D01*
X148253604Y-136475867D01*
X148236267Y-136468437D01*
X148235648Y-136468429D01*
X148235073Y-136468191D01*
X148215564Y-136466270D01*
X147548898Y-136466270D01*
X147529389Y-136468191D01*
X147493341Y-136483123D01*
X147465751Y-136510713D01*
X147450819Y-136546761D01*
X147266024Y-136546761D01*
X147251092Y-136510713D01*
X147223502Y-136483123D01*
X147187454Y-136468191D01*
X147167945Y-136466270D01*
X146691755Y-136466270D01*
X146684538Y-136466980D01*
X146682102Y-136466737D01*
X146679723Y-136467454D01*
X146672246Y-136468191D01*
X146658736Y-136473787D01*
X146644747Y-136478008D01*
X146640850Y-136481195D01*
X146636198Y-136483123D01*
X146625861Y-136493459D01*
X146614549Y-136502715D01*
X146612168Y-136507152D01*
X146608608Y-136510713D01*
X146603013Y-136524218D01*
X146596104Y-136537099D01*
X146594627Y-136544463D01*
X146593676Y-136546761D01*
X146593676Y-136549211D01*
X146592251Y-136556320D01*
X146544632Y-137032510D01*
X146544603Y-137052113D01*
X146433492Y-137052113D01*
X146433492Y-136355159D01*
X148424984Y-136355159D01*
X148424984Y-137777381D01*
G37*
G36*
X130422902Y-120043330D02*
G01*
X128431728Y-120043330D01*
X128431728Y-119105426D01*
X128542839Y-119105426D01*
X128545605Y-119144346D01*
X128563054Y-119179245D01*
X128592531Y-119204809D01*
X128629547Y-119217148D01*
X128668467Y-119214382D01*
X128686775Y-119207376D01*
X128782013Y-119159757D01*
X128790409Y-119154471D01*
X128792849Y-119153461D01*
X128795595Y-119151207D01*
X128798603Y-119149314D01*
X128800332Y-119147319D01*
X128808003Y-119141025D01*
X128827768Y-119121260D01*
X128827768Y-119732219D01*
X128642054Y-119732219D01*
X128622545Y-119734140D01*
X128586497Y-119749072D01*
X128558907Y-119776662D01*
X128543975Y-119812710D01*
X128543975Y-119851728D01*
X128558907Y-119887776D01*
X128586497Y-119915366D01*
X128622545Y-119930298D01*
X128642054Y-119932219D01*
X129213482Y-119932219D01*
X129232991Y-119930298D01*
X129269039Y-119915366D01*
X129296629Y-119887776D01*
X129311561Y-119851728D01*
X129311561Y-119812710D01*
X129296629Y-119776662D01*
X129269039Y-119749072D01*
X129232991Y-119734140D01*
X129213482Y-119732219D01*
X129027768Y-119732219D01*
X129027768Y-118832219D01*
X129027761Y-118832148D01*
X129027768Y-118832114D01*
X129027747Y-118832012D01*
X129025847Y-118812710D01*
X129448737Y-118812710D01*
X129448737Y-118851728D01*
X129463669Y-118887776D01*
X129491259Y-118915366D01*
X129527307Y-118930298D01*
X129546816Y-118932219D01*
X130061828Y-118932219D01*
X129692996Y-119792827D01*
X129687077Y-119811515D01*
X129686602Y-119850531D01*
X129701093Y-119886758D01*
X129728344Y-119914683D01*
X129764207Y-119930053D01*
X129803223Y-119930528D01*
X129839450Y-119916037D01*
X129867375Y-119888786D01*
X129876826Y-119871611D01*
X130305396Y-118871611D01*
X130311316Y-118852923D01*
X130311323Y-118852301D01*
X130311561Y-118851728D01*
X130311561Y-118832799D01*
X130311791Y-118813908D01*
X130311561Y-118813332D01*
X130311561Y-118812710D01*
X130304307Y-118795199D01*
X130297300Y-118777680D01*
X130296866Y-118777236D01*
X130296629Y-118776662D01*
X130283249Y-118763282D01*
X130270049Y-118749756D01*
X130269478Y-118749511D01*
X130269039Y-118749072D01*
X130251522Y-118741816D01*
X130234185Y-118734386D01*
X130233566Y-118734378D01*
X130232991Y-118734140D01*
X130213482Y-118732219D01*
X129546816Y-118732219D01*
X129527307Y-118734140D01*
X129491259Y-118749072D01*
X129463669Y-118776662D01*
X129448737Y-118812710D01*
X129025847Y-118812710D01*
X129022057Y-118803561D01*
X129020116Y-118793854D01*
X129014664Y-118785713D01*
X129010915Y-118776662D01*
X129003915Y-118769662D01*
X128998405Y-118761434D01*
X128990250Y-118755997D01*
X128983325Y-118749072D01*
X128974181Y-118745284D01*
X128965940Y-118739790D01*
X128956326Y-118737888D01*
X128947277Y-118734140D01*
X128937376Y-118734140D01*
X128927664Y-118732219D01*
X128918059Y-118734140D01*
X128908259Y-118734140D01*
X128899110Y-118737929D01*
X128889403Y-118739871D01*
X128881262Y-118745322D01*
X128872211Y-118749072D01*
X128865211Y-118756071D01*
X128856983Y-118761582D01*
X128844694Y-118776588D01*
X128844621Y-118776662D01*
X128844607Y-118776694D01*
X128844563Y-118776749D01*
X128754819Y-118911365D01*
X128678055Y-118988128D01*
X128597333Y-119028490D01*
X128580742Y-119038933D01*
X128555178Y-119068410D01*
X128542839Y-119105426D01*
X128431728Y-119105426D01*
X128431728Y-118621108D01*
X130422902Y-118621108D01*
X130422902Y-120043330D01*
G37*
D12*
G36*
X145376186Y-179784236D02*
G01*
X145476793Y-179884843D01*
X145529972Y-179991202D01*
X145592928Y-180243023D01*
X145592928Y-180420382D01*
X145529972Y-180672203D01*
X145476793Y-180778563D01*
X145376187Y-180879169D01*
X145218585Y-180931703D01*
X145035785Y-180931703D01*
X145035785Y-179731703D01*
X145218588Y-179731703D01*
X145376186Y-179784236D01*
G37*
G36*
X135868361Y-179776410D02*
G01*
X135905365Y-179813414D01*
X135950071Y-179902826D01*
X135950071Y-180046293D01*
X135905364Y-180135706D01*
X135868359Y-180172711D01*
X135778947Y-180217417D01*
X135392928Y-180217417D01*
X135392928Y-179731703D01*
X135778947Y-179731703D01*
X135868361Y-179776410D01*
G37*
G36*
X138891959Y-180503132D02*
G01*
X138593900Y-180503132D01*
X138742929Y-180056044D01*
X138891959Y-180503132D01*
G37*
G36*
X144034816Y-180503132D02*
G01*
X143736757Y-180503132D01*
X143885786Y-180056044D01*
X144034816Y-180503132D01*
G37*
G36*
X142725504Y-179776410D02*
G01*
X142762508Y-179813414D01*
X142807214Y-179902826D01*
X142807214Y-180046293D01*
X142762507Y-180135706D01*
X142725502Y-180172711D01*
X142636090Y-180217417D01*
X142250071Y-180217417D01*
X142250071Y-179731703D01*
X142636090Y-179731703D01*
X142725504Y-179776410D01*
G37*
G36*
X146059595Y-181398370D02*
G01*
X130643429Y-181398370D01*
X130643429Y-179552439D01*
X130810096Y-179552439D01*
X130810096Y-179610967D01*
X130832494Y-179665039D01*
X130873878Y-179706423D01*
X130927950Y-179728821D01*
X130957214Y-179731703D01*
X131235785Y-179731703D01*
X131235785Y-181081703D01*
X131238667Y-181110967D01*
X131261065Y-181165039D01*
X131302449Y-181206423D01*
X131356521Y-181228821D01*
X131415049Y-181228821D01*
X131469121Y-181206423D01*
X131510505Y-181165039D01*
X131532903Y-181110967D01*
X131535785Y-181081703D01*
X131535785Y-179731703D01*
X131814357Y-179731703D01*
X131843621Y-179728821D01*
X131897693Y-179706423D01*
X131939077Y-179665039D01*
X131961475Y-179610967D01*
X131961475Y-179581703D01*
X132164356Y-179581703D01*
X132164356Y-181081703D01*
X132167238Y-181110967D01*
X132189636Y-181165039D01*
X132231020Y-181206423D01*
X132285092Y-181228821D01*
X132343620Y-181228821D01*
X132397692Y-181206423D01*
X132439076Y-181165039D01*
X132461474Y-181110967D01*
X132464356Y-181081703D01*
X132464356Y-180445989D01*
X133021499Y-180445989D01*
X133021499Y-181081703D01*
X133024381Y-181110967D01*
X133046779Y-181165039D01*
X133088163Y-181206423D01*
X133142235Y-181228821D01*
X133200763Y-181228821D01*
X133254835Y-181206423D01*
X133296219Y-181165039D01*
X133318617Y-181110967D01*
X133321499Y-181081703D01*
X133321499Y-179581703D01*
X133735785Y-179581703D01*
X133735785Y-181081703D01*
X133738667Y-181110967D01*
X133761065Y-181165039D01*
X133802449Y-181206423D01*
X133856521Y-181228821D01*
X133885785Y-181231703D01*
X134600071Y-181231703D01*
X134629335Y-181228821D01*
X134683407Y-181206423D01*
X134724791Y-181165039D01*
X134747189Y-181110967D01*
X134747189Y-181052439D01*
X134724791Y-180998367D01*
X134683407Y-180956983D01*
X134629335Y-180934585D01*
X134600071Y-180931703D01*
X134035785Y-180931703D01*
X134035785Y-180445989D01*
X134385785Y-180445989D01*
X134415049Y-180443107D01*
X134469121Y-180420709D01*
X134510505Y-180379325D01*
X134532903Y-180325253D01*
X134532903Y-180266725D01*
X134510505Y-180212653D01*
X134469121Y-180171269D01*
X134415049Y-180148871D01*
X134385785Y-180145989D01*
X134035785Y-180145989D01*
X134035785Y-179731703D01*
X134600071Y-179731703D01*
X134629335Y-179728821D01*
X134683407Y-179706423D01*
X134724791Y-179665039D01*
X134747189Y-179610967D01*
X134747189Y-179581703D01*
X135092928Y-179581703D01*
X135092928Y-181081703D01*
X135095810Y-181110967D01*
X135118208Y-181165039D01*
X135159592Y-181206423D01*
X135213664Y-181228821D01*
X135272192Y-181228821D01*
X135326264Y-181206423D01*
X135367648Y-181165039D01*
X135390046Y-181110967D01*
X135392928Y-181081703D01*
X135392928Y-180517417D01*
X135521973Y-180517417D01*
X135977186Y-181167722D01*
X135996329Y-181190044D01*
X136045686Y-181221497D01*
X136103322Y-181231668D01*
X136160464Y-181219009D01*
X136208412Y-181185445D01*
X136239865Y-181136088D01*
X136250036Y-181078452D01*
X136237377Y-181021310D01*
X136222956Y-180995684D01*
X135878004Y-180502895D01*
X135881439Y-180501581D01*
X136024296Y-180430153D01*
X136036889Y-180422225D01*
X136040549Y-180420710D01*
X136044668Y-180417328D01*
X136049182Y-180414488D01*
X136051778Y-180411494D01*
X136063280Y-180402055D01*
X136134709Y-180330626D01*
X136144150Y-180319121D01*
X136147142Y-180316527D01*
X136149980Y-180312017D01*
X136153364Y-180307895D01*
X136154880Y-180304233D01*
X136162807Y-180291642D01*
X136234235Y-180148784D01*
X136244745Y-180121321D01*
X136245126Y-180115945D01*
X136247189Y-180110967D01*
X136250071Y-180081703D01*
X136250071Y-179867417D01*
X136247189Y-179838153D01*
X136245126Y-179833174D01*
X136244745Y-179827799D01*
X136234235Y-179800336D01*
X136162807Y-179657478D01*
X136154878Y-179644883D01*
X136153363Y-179641224D01*
X136149981Y-179637103D01*
X136147142Y-179632593D01*
X136144150Y-179629998D01*
X136134708Y-179618493D01*
X136097917Y-179581703D01*
X136592928Y-179581703D01*
X136592928Y-181081703D01*
X136595810Y-181110967D01*
X136618208Y-181165039D01*
X136659592Y-181206423D01*
X136713664Y-181228821D01*
X136772192Y-181228821D01*
X136826264Y-181206423D01*
X136867648Y-181165039D01*
X136890046Y-181110967D01*
X136892928Y-181081703D01*
X136892928Y-180257836D01*
X137107001Y-180716565D01*
X137113347Y-180727278D01*
X137114668Y-180730910D01*
X137117019Y-180733478D01*
X137121988Y-180741865D01*
X137138793Y-180757255D01*
X137154195Y-180774073D01*
X137160238Y-180776893D01*
X137165151Y-180781392D01*
X137186571Y-180789181D01*
X137207233Y-180798823D01*
X137213890Y-180799115D01*
X137220153Y-180801393D01*
X137242932Y-180800392D01*
X137265703Y-180801393D01*
X137271962Y-180799116D01*
X137278624Y-180798824D01*
X137299291Y-180789179D01*
X137320706Y-180781392D01*
X137325619Y-180776892D01*
X137331661Y-180774073D01*
X137347056Y-180757260D01*
X137363869Y-180741865D01*
X137368837Y-180733476D01*
X137371188Y-180730910D01*
X137372507Y-180727280D01*
X137378855Y-180716565D01*
X137592928Y-180257837D01*
X137592928Y-181081703D01*
X137595810Y-181110967D01*
X137618208Y-181165039D01*
X137659592Y-181206423D01*
X137713664Y-181228821D01*
X137772192Y-181228821D01*
X137826264Y-181206423D01*
X137867648Y-181165039D01*
X137890046Y-181110967D01*
X137892928Y-181081703D01*
X137892928Y-181062942D01*
X138094107Y-181062942D01*
X138098256Y-181121323D01*
X138124430Y-181173670D01*
X138168644Y-181212017D01*
X138224168Y-181230525D01*
X138282549Y-181226376D01*
X138334896Y-181200202D01*
X138373243Y-181155988D01*
X138385231Y-181129137D01*
X138493900Y-180803132D01*
X138991959Y-180803132D01*
X139100627Y-181129137D01*
X139112615Y-181155988D01*
X139150962Y-181200203D01*
X139203310Y-181226376D01*
X139261690Y-181230526D01*
X139317214Y-181212017D01*
X139361428Y-181173670D01*
X139387602Y-181121323D01*
X139391752Y-181062943D01*
X139385232Y-181034269D01*
X138901042Y-179581703D01*
X139592928Y-179581703D01*
X139592928Y-181081703D01*
X139595810Y-181110967D01*
X139618208Y-181165039D01*
X139659592Y-181206423D01*
X139713664Y-181228821D01*
X139742928Y-181231703D01*
X140457214Y-181231703D01*
X140486478Y-181228821D01*
X140540550Y-181206423D01*
X140581934Y-181165039D01*
X140604332Y-181110967D01*
X140604332Y-181052439D01*
X140581934Y-180998367D01*
X140540550Y-180956983D01*
X140486478Y-180934585D01*
X140457214Y-180931703D01*
X139892928Y-180931703D01*
X139892928Y-179581703D01*
X141950071Y-179581703D01*
X141950071Y-181081703D01*
X141952953Y-181110967D01*
X141975351Y-181165039D01*
X142016735Y-181206423D01*
X142070807Y-181228821D01*
X142129335Y-181228821D01*
X142183407Y-181206423D01*
X142224791Y-181165039D01*
X142247189Y-181110967D01*
X142250071Y-181081703D01*
X142250071Y-181062942D01*
X143236964Y-181062942D01*
X143241113Y-181121323D01*
X143267287Y-181173670D01*
X143311501Y-181212017D01*
X143367025Y-181230525D01*
X143425406Y-181226376D01*
X143477753Y-181200202D01*
X143516100Y-181155988D01*
X143528088Y-181129137D01*
X143636757Y-180803132D01*
X144134816Y-180803132D01*
X144243484Y-181129137D01*
X144255472Y-181155988D01*
X144293819Y-181200203D01*
X144346167Y-181226376D01*
X144404547Y-181230526D01*
X144460071Y-181212017D01*
X144504285Y-181173670D01*
X144530459Y-181121323D01*
X144534609Y-181062943D01*
X144528089Y-181034269D01*
X144043899Y-179581703D01*
X144735785Y-179581703D01*
X144735785Y-181081703D01*
X144738667Y-181110967D01*
X144761065Y-181165039D01*
X144802449Y-181206423D01*
X144856521Y-181228821D01*
X144885785Y-181231703D01*
X145242928Y-181231703D01*
X145257733Y-181230244D01*
X145261688Y-181230526D01*
X145266889Y-181229343D01*
X145272192Y-181228821D01*
X145275849Y-181227305D01*
X145290362Y-181224006D01*
X145504648Y-181152578D01*
X145531499Y-181140590D01*
X145535570Y-181137058D01*
X145540550Y-181134996D01*
X145563280Y-181116341D01*
X145706137Y-180973483D01*
X145715575Y-180961981D01*
X145718570Y-180959385D01*
X145721410Y-180954871D01*
X145724792Y-180950752D01*
X145726307Y-180947092D01*
X145734235Y-180934499D01*
X145805664Y-180791643D01*
X145806483Y-180789500D01*
X145807128Y-180788631D01*
X145811512Y-180776359D01*
X145816173Y-180764179D01*
X145816249Y-180763098D01*
X145817021Y-180760940D01*
X145888449Y-180475226D01*
X145889198Y-180470154D01*
X145890046Y-180468110D01*
X145891131Y-180457087D01*
X145892751Y-180446137D01*
X145892425Y-180443949D01*
X145892928Y-180438846D01*
X145892928Y-180224560D01*
X145892425Y-180219456D01*
X145892751Y-180217269D01*
X145891131Y-180206318D01*
X145890046Y-180195296D01*
X145889198Y-180193251D01*
X145888449Y-180188180D01*
X145817021Y-179902466D01*
X145816249Y-179900307D01*
X145816173Y-179899227D01*
X145811512Y-179887046D01*
X145807128Y-179874775D01*
X145806483Y-179873905D01*
X145805664Y-179871763D01*
X145734235Y-179728907D01*
X145726308Y-179716315D01*
X145724792Y-179712653D01*
X145721408Y-179708530D01*
X145718570Y-179704021D01*
X145715577Y-179701425D01*
X145706137Y-179689923D01*
X145563280Y-179547066D01*
X145540549Y-179528411D01*
X145535569Y-179526348D01*
X145531499Y-179522818D01*
X145504648Y-179510829D01*
X145290362Y-179439401D01*
X145275854Y-179436102D01*
X145272192Y-179434585D01*
X145266883Y-179434062D01*
X145261689Y-179432881D01*
X145257739Y-179433161D01*
X145242928Y-179431703D01*
X144885785Y-179431703D01*
X144856521Y-179434585D01*
X144802449Y-179456983D01*
X144761065Y-179498367D01*
X144738667Y-179552439D01*
X144735785Y-179581703D01*
X144043899Y-179581703D01*
X144028088Y-179534269D01*
X144016100Y-179507418D01*
X144009077Y-179499321D01*
X144004285Y-179489736D01*
X143990076Y-179477412D01*
X143977753Y-179463204D01*
X143968167Y-179458411D01*
X143960071Y-179451389D01*
X143942227Y-179445440D01*
X143925406Y-179437030D01*
X143914717Y-179436270D01*
X143904547Y-179432880D01*
X143885781Y-179434213D01*
X143867025Y-179432881D01*
X143856857Y-179436270D01*
X143846167Y-179437030D01*
X143829343Y-179445441D01*
X143811501Y-179451389D01*
X143803406Y-179458409D01*
X143793819Y-179463203D01*
X143781493Y-179477414D01*
X143767287Y-179489736D01*
X143762494Y-179499320D01*
X143755472Y-179507418D01*
X143743484Y-179534269D01*
X143243484Y-181034269D01*
X143236964Y-181062942D01*
X142250071Y-181062942D01*
X142250071Y-180517417D01*
X142671500Y-180517417D01*
X142700764Y-180514535D01*
X142705742Y-180512472D01*
X142711118Y-180512091D01*
X142738582Y-180501581D01*
X142881439Y-180430153D01*
X142894032Y-180422225D01*
X142897692Y-180420710D01*
X142901811Y-180417328D01*
X142906325Y-180414488D01*
X142908921Y-180411494D01*
X142920423Y-180402055D01*
X142991852Y-180330626D01*
X143001293Y-180319121D01*
X143004285Y-180316527D01*
X143007123Y-180312017D01*
X143010507Y-180307895D01*
X143012023Y-180304233D01*
X143019950Y-180291642D01*
X143091378Y-180148784D01*
X143101888Y-180121321D01*
X143102269Y-180115945D01*
X143104332Y-180110967D01*
X143107214Y-180081703D01*
X143107214Y-179867417D01*
X143104332Y-179838153D01*
X143102269Y-179833174D01*
X143101888Y-179827799D01*
X143091378Y-179800336D01*
X143019950Y-179657478D01*
X143012021Y-179644883D01*
X143010506Y-179641224D01*
X143007124Y-179637103D01*
X143004285Y-179632593D01*
X143001293Y-179629998D01*
X142991851Y-179618493D01*
X142920422Y-179547065D01*
X142908922Y-179537627D01*
X142906325Y-179534633D01*
X142901808Y-179531790D01*
X142897691Y-179528411D01*
X142894034Y-179526896D01*
X142881439Y-179518968D01*
X142738582Y-179447539D01*
X142711119Y-179437030D01*
X142705744Y-179436648D01*
X142700764Y-179434585D01*
X142671500Y-179431703D01*
X142100071Y-179431703D01*
X142070807Y-179434585D01*
X142016735Y-179456983D01*
X141975351Y-179498367D01*
X141952953Y-179552439D01*
X141950071Y-179581703D01*
X139892928Y-179581703D01*
X139890046Y-179552439D01*
X139867648Y-179498367D01*
X139826264Y-179456983D01*
X139772192Y-179434585D01*
X139713664Y-179434585D01*
X139659592Y-179456983D01*
X139618208Y-179498367D01*
X139595810Y-179552439D01*
X139592928Y-179581703D01*
X138901042Y-179581703D01*
X138885231Y-179534269D01*
X138873243Y-179507418D01*
X138866220Y-179499321D01*
X138861428Y-179489736D01*
X138847219Y-179477412D01*
X138834896Y-179463204D01*
X138825310Y-179458411D01*
X138817214Y-179451389D01*
X138799370Y-179445440D01*
X138782549Y-179437030D01*
X138771860Y-179436270D01*
X138761690Y-179432880D01*
X138742924Y-179434213D01*
X138724168Y-179432881D01*
X138714000Y-179436270D01*
X138703310Y-179437030D01*
X138686486Y-179445441D01*
X138668644Y-179451389D01*
X138660549Y-179458409D01*
X138650962Y-179463203D01*
X138638636Y-179477414D01*
X138624430Y-179489736D01*
X138619637Y-179499320D01*
X138612615Y-179507418D01*
X138600627Y-179534269D01*
X138100627Y-181034269D01*
X138094107Y-181062942D01*
X137892928Y-181062942D01*
X137892928Y-179581703D01*
X137891033Y-179562465D01*
X137891189Y-179558927D01*
X137890497Y-179557026D01*
X137890046Y-179552439D01*
X137880085Y-179528393D01*
X137871188Y-179503925D01*
X137868928Y-179501457D01*
X137867648Y-179498367D01*
X137849250Y-179479969D01*
X137831661Y-179460762D01*
X137828627Y-179459346D01*
X137826264Y-179456983D01*
X137802233Y-179447029D01*
X137778624Y-179436011D01*
X137775279Y-179435864D01*
X137772192Y-179434585D01*
X137746168Y-179434585D01*
X137720153Y-179433442D01*
X137717010Y-179434585D01*
X137713664Y-179434585D01*
X137689611Y-179444548D01*
X137665151Y-179453443D01*
X137662683Y-179455702D01*
X137659592Y-179456983D01*
X137641183Y-179475391D01*
X137621988Y-179492970D01*
X137619638Y-179496936D01*
X137618208Y-179498367D01*
X137616852Y-179501639D01*
X137607001Y-179518270D01*
X137242928Y-180298426D01*
X136878855Y-179518270D01*
X136869001Y-179501635D01*
X136867648Y-179498367D01*
X136866219Y-179496938D01*
X136863869Y-179492970D01*
X136844661Y-179475380D01*
X136826264Y-179456983D01*
X136823173Y-179455702D01*
X136820706Y-179453443D01*
X136796240Y-179444546D01*
X136772192Y-179434585D01*
X136768846Y-179434585D01*
X136765703Y-179433442D01*
X136739699Y-179434585D01*
X136713664Y-179434585D01*
X136710573Y-179435865D01*
X136707233Y-179436012D01*
X136683637Y-179447022D01*
X136659592Y-179456983D01*
X136657228Y-179459346D01*
X136654195Y-179460762D01*
X136636605Y-179479969D01*
X136618208Y-179498367D01*
X136616927Y-179501457D01*
X136614668Y-179503925D01*
X136605771Y-179528390D01*
X136595810Y-179552439D01*
X136595358Y-179557027D01*
X136594667Y-179558928D01*
X136594822Y-179562466D01*
X136592928Y-179581703D01*
X136097917Y-179581703D01*
X136063279Y-179547065D01*
X136051779Y-179537627D01*
X136049182Y-179534633D01*
X136044665Y-179531790D01*
X136040548Y-179528411D01*
X136036891Y-179526896D01*
X136024296Y-179518968D01*
X135881439Y-179447539D01*
X135853976Y-179437030D01*
X135848601Y-179436648D01*
X135843621Y-179434585D01*
X135814357Y-179431703D01*
X135242928Y-179431703D01*
X135213664Y-179434585D01*
X135159592Y-179456983D01*
X135118208Y-179498367D01*
X135095810Y-179552439D01*
X135092928Y-179581703D01*
X134747189Y-179581703D01*
X134747189Y-179552439D01*
X134724791Y-179498367D01*
X134683407Y-179456983D01*
X134629335Y-179434585D01*
X134600071Y-179431703D01*
X133885785Y-179431703D01*
X133856521Y-179434585D01*
X133802449Y-179456983D01*
X133761065Y-179498367D01*
X133738667Y-179552439D01*
X133735785Y-179581703D01*
X133321499Y-179581703D01*
X133318617Y-179552439D01*
X133296219Y-179498367D01*
X133254835Y-179456983D01*
X133200763Y-179434585D01*
X133142235Y-179434585D01*
X133088163Y-179456983D01*
X133046779Y-179498367D01*
X133024381Y-179552439D01*
X133021499Y-179581703D01*
X133021499Y-180145989D01*
X132464356Y-180145989D01*
X132464356Y-179581703D01*
X132461474Y-179552439D01*
X132439076Y-179498367D01*
X132397692Y-179456983D01*
X132343620Y-179434585D01*
X132285092Y-179434585D01*
X132231020Y-179456983D01*
X132189636Y-179498367D01*
X132167238Y-179552439D01*
X132164356Y-179581703D01*
X131961475Y-179581703D01*
X131961475Y-179552439D01*
X131939077Y-179498367D01*
X131897693Y-179456983D01*
X131843621Y-179434585D01*
X131814357Y-179431703D01*
X130957214Y-179431703D01*
X130927950Y-179434585D01*
X130873878Y-179456983D01*
X130832494Y-179498367D01*
X130810096Y-179552439D01*
X130643429Y-179552439D01*
X130643429Y-179265036D01*
X146059595Y-179265036D01*
X146059595Y-181398370D01*
G37*
D11*
X147093326Y-177585552D02*
X147093326Y-178252219D01*
X146855231Y-177204600D02*
X146617136Y-177918885D01*
X146617136Y-177918885D02*
X147236183Y-177918885D01*
X148140945Y-178252219D02*
X147569517Y-178252219D01*
X147855231Y-178252219D02*
X147855231Y-177252219D01*
X147855231Y-177252219D02*
X147759993Y-177395076D01*
X147759993Y-177395076D02*
X147664755Y-177490314D01*
X147664755Y-177490314D02*
X147569517Y-177537933D01*
G36*
X147061090Y-119342976D02*
G01*
X147085759Y-119367644D01*
X147115564Y-119427254D01*
X147115564Y-119618135D01*
X147085759Y-119677743D01*
X147061090Y-119702413D01*
X147001481Y-119732219D01*
X146858219Y-119732219D01*
X146798609Y-119702414D01*
X146773942Y-119677746D01*
X146744136Y-119618134D01*
X146744136Y-119427254D01*
X146773941Y-119367644D01*
X146798609Y-119342975D01*
X146858219Y-119313171D01*
X147001481Y-119313171D01*
X147061090Y-119342976D01*
G37*
G36*
X148424754Y-120043330D02*
G01*
X146433025Y-120043330D01*
X146433025Y-119260790D01*
X146544136Y-119260790D01*
X146544136Y-119641742D01*
X146546057Y-119661251D01*
X146547432Y-119664571D01*
X146547687Y-119668155D01*
X146554693Y-119686463D01*
X146602312Y-119781701D01*
X146607595Y-119790093D01*
X146608607Y-119792537D01*
X146610863Y-119795286D01*
X146612755Y-119798291D01*
X146614749Y-119800020D01*
X146621044Y-119807690D01*
X146668662Y-119855310D01*
X146676330Y-119861603D01*
X146678062Y-119863600D01*
X146681070Y-119865493D01*
X146683816Y-119867747D01*
X146686256Y-119868757D01*
X146694653Y-119874043D01*
X146789890Y-119921662D01*
X146808199Y-119928668D01*
X146811782Y-119928922D01*
X146815103Y-119930298D01*
X146834612Y-119932219D01*
X147025088Y-119932219D01*
X147044597Y-119930298D01*
X147047917Y-119928922D01*
X147051501Y-119928668D01*
X147069809Y-119921662D01*
X147165047Y-119874043D01*
X147173442Y-119868758D01*
X147175884Y-119867747D01*
X147178631Y-119865491D01*
X147181637Y-119863600D01*
X147183367Y-119861605D01*
X147191037Y-119855310D01*
X147238656Y-119807690D01*
X147244948Y-119800023D01*
X147246945Y-119798292D01*
X147248838Y-119795284D01*
X147251093Y-119792537D01*
X147252104Y-119790095D01*
X147257388Y-119781701D01*
X147305007Y-119686464D01*
X147312013Y-119668155D01*
X147312267Y-119664571D01*
X147313643Y-119661251D01*
X147315564Y-119641742D01*
X147315564Y-119486378D01*
X147497302Y-119486378D01*
X147498438Y-119502362D01*
X147498438Y-119518394D01*
X147499813Y-119521714D01*
X147500068Y-119525298D01*
X147507235Y-119539633D01*
X147513370Y-119554442D01*
X147515910Y-119556982D01*
X147517518Y-119560197D01*
X147529629Y-119570701D01*
X147540960Y-119582032D01*
X147544278Y-119583406D01*
X147546994Y-119585762D01*
X147562203Y-119590831D01*
X147577008Y-119596964D01*
X147582108Y-119597466D01*
X147584010Y-119598100D01*
X147586643Y-119597912D01*
X147596517Y-119598885D01*
X147972707Y-119598885D01*
X147972707Y-119832219D01*
X147974628Y-119851728D01*
X147989560Y-119887776D01*
X148017150Y-119915366D01*
X148053198Y-119930298D01*
X148092216Y-119930298D01*
X148128264Y-119915366D01*
X148155854Y-119887776D01*
X148170786Y-119851728D01*
X148172707Y-119832219D01*
X148172707Y-119598885D01*
X148215564Y-119598885D01*
X148235073Y-119596964D01*
X148271121Y-119582032D01*
X148298711Y-119554442D01*
X148313643Y-119518394D01*
X148313643Y-119479376D01*
X148298711Y-119443328D01*
X148271121Y-119415738D01*
X148235073Y-119400806D01*
X148215564Y-119398885D01*
X148172707Y-119398885D01*
X148172707Y-119165552D01*
X148170786Y-119146043D01*
X148155854Y-119109995D01*
X148128264Y-119082405D01*
X148092216Y-119067473D01*
X148053198Y-119067473D01*
X148017150Y-119082405D01*
X147989560Y-119109995D01*
X147974628Y-119146043D01*
X147972707Y-119165552D01*
X147972707Y-119398885D01*
X147735259Y-119398885D01*
X147929480Y-118816223D01*
X147933827Y-118797108D01*
X147931061Y-118758188D01*
X147913611Y-118723289D01*
X147884135Y-118697724D01*
X147847119Y-118685385D01*
X147808199Y-118688152D01*
X147773300Y-118705601D01*
X147747735Y-118735077D01*
X147739744Y-118752978D01*
X147501649Y-119467262D01*
X147499449Y-119476933D01*
X147498438Y-119479376D01*
X147498438Y-119481382D01*
X147497302Y-119486378D01*
X147315564Y-119486378D01*
X147315564Y-119403647D01*
X147313643Y-119384138D01*
X147312267Y-119380817D01*
X147312013Y-119377234D01*
X147305007Y-119358925D01*
X147257388Y-119263688D01*
X147252102Y-119255291D01*
X147251092Y-119252851D01*
X147248838Y-119250105D01*
X147246945Y-119247097D01*
X147244947Y-119245364D01*
X147238655Y-119237698D01*
X147191037Y-119190079D01*
X147183366Y-119183784D01*
X147181637Y-119181790D01*
X147178629Y-119179896D01*
X147175883Y-119177643D01*
X147173443Y-119176632D01*
X147165047Y-119171347D01*
X147069809Y-119123728D01*
X147051501Y-119116722D01*
X147047917Y-119116467D01*
X147044597Y-119115092D01*
X147025088Y-119113171D01*
X146834612Y-119113171D01*
X146815103Y-119115092D01*
X146811782Y-119116467D01*
X146808199Y-119116722D01*
X146789890Y-119123728D01*
X146780277Y-119128534D01*
X146784568Y-119111372D01*
X146864704Y-118991167D01*
X146893847Y-118962023D01*
X146953457Y-118932219D01*
X147120326Y-118932219D01*
X147139835Y-118930298D01*
X147175883Y-118915366D01*
X147203473Y-118887776D01*
X147218405Y-118851728D01*
X147218405Y-118812710D01*
X147203473Y-118776662D01*
X147175883Y-118749072D01*
X147139835Y-118734140D01*
X147120326Y-118732219D01*
X146929850Y-118732219D01*
X146910341Y-118734140D01*
X146907020Y-118735515D01*
X146903437Y-118735770D01*
X146885128Y-118742776D01*
X146789891Y-118790395D01*
X146781494Y-118795680D01*
X146779054Y-118796691D01*
X146776308Y-118798944D01*
X146773300Y-118800838D01*
X146771567Y-118802835D01*
X146763901Y-118809128D01*
X146716282Y-118856746D01*
X146716237Y-118856800D01*
X146716208Y-118856820D01*
X146710026Y-118864368D01*
X146703846Y-118871900D01*
X146703832Y-118871932D01*
X146703788Y-118871987D01*
X146608550Y-119014844D01*
X146602807Y-119025613D01*
X146601336Y-119027600D01*
X146600498Y-119029945D01*
X146599327Y-119032142D01*
X146598847Y-119034565D01*
X146594741Y-119046061D01*
X146547122Y-119236536D01*
X146546621Y-119239917D01*
X146546057Y-119241281D01*
X146545333Y-119248631D01*
X146544254Y-119255929D01*
X146544471Y-119257387D01*
X146544136Y-119260790D01*
X146433025Y-119260790D01*
X146433025Y-118574274D01*
X148424754Y-118574274D01*
X148424754Y-120043330D01*
G37*
D13*
X125714285Y-73274819D02*
X125714285Y-73989104D01*
X125714285Y-73989104D02*
X125666666Y-74131961D01*
X125666666Y-74131961D02*
X125571428Y-74227200D01*
X125571428Y-74227200D02*
X125428571Y-74274819D01*
X125428571Y-74274819D02*
X125333333Y-74274819D01*
X126714285Y-74274819D02*
X126142857Y-74274819D01*
X126428571Y-74274819D02*
X126428571Y-73274819D01*
X126428571Y-73274819D02*
X126333333Y-73417676D01*
X126333333Y-73417676D02*
X126238095Y-73512914D01*
X126238095Y-73512914D02*
X126142857Y-73560533D01*
X127333333Y-73274819D02*
X127428571Y-73274819D01*
X127428571Y-73274819D02*
X127523809Y-73322438D01*
X127523809Y-73322438D02*
X127571428Y-73370057D01*
X127571428Y-73370057D02*
X127619047Y-73465295D01*
X127619047Y-73465295D02*
X127666666Y-73655771D01*
X127666666Y-73655771D02*
X127666666Y-73893866D01*
X127666666Y-73893866D02*
X127619047Y-74084342D01*
X127619047Y-74084342D02*
X127571428Y-74179580D01*
X127571428Y-74179580D02*
X127523809Y-74227200D01*
X127523809Y-74227200D02*
X127428571Y-74274819D01*
X127428571Y-74274819D02*
X127333333Y-74274819D01*
X127333333Y-74274819D02*
X127238095Y-74227200D01*
X127238095Y-74227200D02*
X127190476Y-74179580D01*
X127190476Y-74179580D02*
X127142857Y-74084342D01*
X127142857Y-74084342D02*
X127095238Y-73893866D01*
X127095238Y-73893866D02*
X127095238Y-73655771D01*
X127095238Y-73655771D02*
X127142857Y-73465295D01*
X127142857Y-73465295D02*
X127190476Y-73370057D01*
X127190476Y-73370057D02*
X127238095Y-73322438D01*
X127238095Y-73322438D02*
X127333333Y-73274819D01*
X128619047Y-74274819D02*
X128047619Y-74274819D01*
X128333333Y-74274819D02*
X128333333Y-73274819D01*
X128333333Y-73274819D02*
X128238095Y-73417676D01*
X128238095Y-73417676D02*
X128142857Y-73512914D01*
X128142857Y-73512914D02*
X128047619Y-73560533D01*
X148574285Y-73274819D02*
X148574285Y-73989104D01*
X148574285Y-73989104D02*
X148526666Y-74131961D01*
X148526666Y-74131961D02*
X148431428Y-74227200D01*
X148431428Y-74227200D02*
X148288571Y-74274819D01*
X148288571Y-74274819D02*
X148193333Y-74274819D01*
X149574285Y-74274819D02*
X149002857Y-74274819D01*
X149288571Y-74274819D02*
X149288571Y-73274819D01*
X149288571Y-73274819D02*
X149193333Y-73417676D01*
X149193333Y-73417676D02*
X149098095Y-73512914D01*
X149098095Y-73512914D02*
X149002857Y-73560533D01*
X150193333Y-73274819D02*
X150288571Y-73274819D01*
X150288571Y-73274819D02*
X150383809Y-73322438D01*
X150383809Y-73322438D02*
X150431428Y-73370057D01*
X150431428Y-73370057D02*
X150479047Y-73465295D01*
X150479047Y-73465295D02*
X150526666Y-73655771D01*
X150526666Y-73655771D02*
X150526666Y-73893866D01*
X150526666Y-73893866D02*
X150479047Y-74084342D01*
X150479047Y-74084342D02*
X150431428Y-74179580D01*
X150431428Y-74179580D02*
X150383809Y-74227200D01*
X150383809Y-74227200D02*
X150288571Y-74274819D01*
X150288571Y-74274819D02*
X150193333Y-74274819D01*
X150193333Y-74274819D02*
X150098095Y-74227200D01*
X150098095Y-74227200D02*
X150050476Y-74179580D01*
X150050476Y-74179580D02*
X150002857Y-74084342D01*
X150002857Y-74084342D02*
X149955238Y-73893866D01*
X149955238Y-73893866D02*
X149955238Y-73655771D01*
X149955238Y-73655771D02*
X150002857Y-73465295D01*
X150002857Y-73465295D02*
X150050476Y-73370057D01*
X150050476Y-73370057D02*
X150098095Y-73322438D01*
X150098095Y-73322438D02*
X150193333Y-73274819D01*
X150907619Y-73370057D02*
X150955238Y-73322438D01*
X150955238Y-73322438D02*
X151050476Y-73274819D01*
X151050476Y-73274819D02*
X151288571Y-73274819D01*
X151288571Y-73274819D02*
X151383809Y-73322438D01*
X151383809Y-73322438D02*
X151431428Y-73370057D01*
X151431428Y-73370057D02*
X151479047Y-73465295D01*
X151479047Y-73465295D02*
X151479047Y-73560533D01*
X151479047Y-73560533D02*
X151431428Y-73703390D01*
X151431428Y-73703390D02*
X150860000Y-74274819D01*
X150860000Y-74274819D02*
X151479047Y-74274819D01*
D14*
X131203369Y-128270000D02*
X131875120Y-127598249D01*
X131875120Y-128941751D02*
X131203369Y-128270000D01*
X137758249Y-121715120D02*
X138430000Y-121043369D01*
X138430000Y-121043369D02*
X139101751Y-121715120D01*
X138430000Y-135496631D02*
X137758249Y-134824880D01*
X139101751Y-134824880D02*
X138430000Y-135496631D01*
X144984880Y-127598249D02*
X145656631Y-128270000D01*
X145656631Y-128270000D02*
X144984880Y-128941751D01*
X136867294Y-121333282D02*
X136464243Y-121269643D01*
X136803654Y-120930232D01*
X136867294Y-121333282D01*
G36*
X136867294Y-121333282D02*
G01*
X136464243Y-121269643D01*
X136803654Y-120930232D01*
X136867294Y-121333282D01*
G37*
X125620000Y-179070000D02*
X125620000Y-176270000D01*
X125620000Y-179070000D02*
X125620000Y-181720000D01*
X125620000Y-181720000D02*
X128380000Y-181720000D01*
X128380000Y-176300000D02*
X128380000Y-181720000D01*
D15*
G36*
X145866048Y-81285983D02*
G01*
X145896040Y-81321136D01*
X145926741Y-81355869D01*
X145959724Y-81391815D01*
X145996557Y-81430610D01*
X146038813Y-81473888D01*
X146088063Y-81523285D01*
X146145876Y-81580435D01*
X146199353Y-81632840D01*
X146238590Y-81671227D01*
X146287618Y-81719269D01*
X146345101Y-81775652D01*
X146409702Y-81839062D01*
X146480083Y-81908186D01*
X146554908Y-81981711D01*
X146632838Y-82058321D01*
X146712538Y-82136704D01*
X146792669Y-82215546D01*
X146871894Y-82293532D01*
X146895364Y-82316643D01*
X146981592Y-82401530D01*
X147074708Y-82493150D01*
X147172651Y-82589478D01*
X147273359Y-82688486D01*
X147374768Y-82788148D01*
X147474818Y-82886437D01*
X147571444Y-82981327D01*
X147662585Y-83070791D01*
X147746179Y-83152803D01*
X147801670Y-83207212D01*
X147899833Y-83303451D01*
X147987401Y-83389356D01*
X148064958Y-83465513D01*
X148133087Y-83532507D01*
X148192373Y-83590923D01*
X148243397Y-83641347D01*
X148286743Y-83684363D01*
X148322996Y-83720558D01*
X148352737Y-83750517D01*
X148376551Y-83774824D01*
X148395020Y-83794066D01*
X148408729Y-83808828D01*
X148418260Y-83819694D01*
X148424198Y-83827251D01*
X148427124Y-83832084D01*
X148427623Y-83834778D01*
X148427461Y-83835148D01*
X148419915Y-83841935D01*
X148402014Y-83855984D01*
X148376131Y-83875493D01*
X148344636Y-83898656D01*
X148330712Y-83908747D01*
X148291792Y-83937202D01*
X148251926Y-83966979D01*
X148215493Y-83994769D01*
X148186873Y-84017262D01*
X148183997Y-84019591D01*
X148157733Y-84040665D01*
X148123023Y-84068111D01*
X148083834Y-84098809D01*
X148044135Y-84129642D01*
X148032153Y-84138889D01*
X147870045Y-84268322D01*
X147718470Y-84398635D01*
X147578369Y-84528916D01*
X147450684Y-84658254D01*
X147336359Y-84785737D01*
X147240827Y-84904502D01*
X147122057Y-85073787D01*
X147017026Y-85249895D01*
X146925621Y-85433110D01*
X146847730Y-85623716D01*
X146783242Y-85821996D01*
X146732046Y-86028236D01*
X146694029Y-86242718D01*
X146683682Y-86320894D01*
X146677408Y-86387163D01*
X146672919Y-86464940D01*
X146670217Y-86550345D01*
X146669305Y-86639495D01*
X146670185Y-86728508D01*
X146672858Y-86813501D01*
X146677328Y-86890594D01*
X146683332Y-86953745D01*
X146715736Y-87161914D01*
X146761666Y-87362279D01*
X146821171Y-87554945D01*
X146894300Y-87740019D01*
X146981103Y-87917605D01*
X147081629Y-88087810D01*
X147195928Y-88250738D01*
X147324049Y-88406495D01*
X147402576Y-88491377D01*
X147455217Y-88543852D01*
X147519571Y-88604192D01*
X147595789Y-88672526D01*
X147684025Y-88748984D01*
X147784430Y-88833693D01*
X147897157Y-88926785D01*
X148022359Y-89028387D01*
X148160189Y-89138630D01*
X148254783Y-89213532D01*
X148299542Y-89249193D01*
X148340120Y-89282184D01*
X148374922Y-89311157D01*
X148402355Y-89334762D01*
X148420824Y-89351649D01*
X148428737Y-89360471D01*
X148428903Y-89360928D01*
X148423775Y-89367696D01*
X148408186Y-89385290D01*
X148382527Y-89413299D01*
X148347193Y-89451309D01*
X148302576Y-89498907D01*
X148249069Y-89555680D01*
X148187065Y-89621215D01*
X148116956Y-89695098D01*
X148039136Y-89776917D01*
X147953998Y-89866258D01*
X147861934Y-89962708D01*
X147763337Y-90065855D01*
X147658600Y-90175284D01*
X147548117Y-90290584D01*
X147432279Y-90411340D01*
X147311481Y-90537140D01*
X147195763Y-90657535D01*
X147080353Y-90777555D01*
X146967537Y-90894870D01*
X146857813Y-91008961D01*
X146751682Y-91119308D01*
X146649643Y-91225394D01*
X146552196Y-91326699D01*
X146459839Y-91422704D01*
X146373072Y-91512889D01*
X146292395Y-91596737D01*
X146218307Y-91673727D01*
X146151307Y-91743341D01*
X146091895Y-91805060D01*
X146040571Y-91858364D01*
X145997833Y-91902735D01*
X145964181Y-91937654D01*
X145940115Y-91962601D01*
X145926134Y-91977058D01*
X145923112Y-91980160D01*
X145885875Y-92017986D01*
X145683545Y-91854777D01*
X145587632Y-91777732D01*
X145501703Y-91709458D01*
X145423879Y-91648550D01*
X145352286Y-91593604D01*
X145285047Y-91543215D01*
X145220286Y-91495978D01*
X145156127Y-91450489D01*
X145090692Y-91405343D01*
X145022107Y-91359136D01*
X145016342Y-91355294D01*
X144810050Y-91223597D01*
X144600171Y-91100636D01*
X144388559Y-90987325D01*
X144177069Y-90884578D01*
X143967556Y-90793309D01*
X143761875Y-90714433D01*
X143617819Y-90666024D01*
X143362799Y-90593786D01*
X143101639Y-90535906D01*
X142834368Y-90492387D01*
X142561018Y-90463232D01*
X142281617Y-90448445D01*
X141996197Y-90448027D01*
X141704788Y-90461982D01*
X141563005Y-90473767D01*
X141321717Y-90503492D01*
X141079357Y-90546971D01*
X140838376Y-90603545D01*
X140601224Y-90672554D01*
X140370350Y-90753339D01*
X140148205Y-90845239D01*
X140098071Y-90868127D01*
X140060386Y-90885634D01*
X140021003Y-90903903D01*
X139986660Y-90919808D01*
X139976970Y-90924288D01*
X139868968Y-90977226D01*
X139752213Y-91040013D01*
X139628805Y-91111255D01*
X139500846Y-91189559D01*
X139370435Y-91273532D01*
X139239675Y-91361781D01*
X139110666Y-91452914D01*
X138985508Y-91545537D01*
X138866304Y-91638258D01*
X138755152Y-91729684D01*
X138730799Y-91750510D01*
X138698238Y-91778581D01*
X138657696Y-91813542D01*
X138613025Y-91852071D01*
X138568072Y-91890850D01*
X138537527Y-91917204D01*
X138501095Y-91948023D01*
X138467898Y-91974950D01*
X138440004Y-91996400D01*
X138419481Y-92010785D01*
X138408400Y-92016519D01*
X138407958Y-92016557D01*
X138395222Y-92010004D01*
X138377759Y-91991931D01*
X138363273Y-91972623D01*
X138340311Y-91943961D01*
X138305110Y-91906716D01*
X138258169Y-91861354D01*
X138199987Y-91808341D01*
X138131065Y-91748143D01*
X138051900Y-91681227D01*
X138047132Y-91677255D01*
X137815044Y-91492939D01*
X137579897Y-91323855D01*
X137341403Y-91169859D01*
X137099271Y-91030803D01*
X136853211Y-90906542D01*
X136602935Y-90796930D01*
X136348152Y-90701822D01*
X136088572Y-90621070D01*
X135823906Y-90554530D01*
X135813698Y-90552269D01*
X135572902Y-90506004D01*
X135324140Y-90471266D01*
X135070149Y-90448194D01*
X134813666Y-90436928D01*
X134557426Y-90437609D01*
X134304165Y-90450377D01*
X134132860Y-90466276D01*
X133862343Y-90504113D01*
X133594729Y-90557262D01*
X133330234Y-90625641D01*
X133069074Y-90709167D01*
X132811467Y-90807759D01*
X132557630Y-90921335D01*
X132307779Y-91049812D01*
X132062131Y-91193108D01*
X131855377Y-91327469D01*
X131793555Y-91370024D01*
X131734892Y-91411400D01*
X131677000Y-91453384D01*
X131617489Y-91497767D01*
X131553970Y-91546337D01*
X131484055Y-91600882D01*
X131405354Y-91663193D01*
X131378785Y-91684378D01*
X131301144Y-91746248D01*
X131229613Y-91803009D01*
X131165123Y-91853931D01*
X131108608Y-91898282D01*
X131061000Y-91935332D01*
X131023232Y-91964350D01*
X130996237Y-91984606D01*
X130987567Y-91990869D01*
X130963560Y-92007835D01*
X130385968Y-91401489D01*
X130234042Y-91241993D01*
X130092300Y-91093170D01*
X129960142Y-90954390D01*
X129836966Y-90825017D01*
X129722171Y-90704419D01*
X129615157Y-90591964D01*
X129515324Y-90487017D01*
X129422070Y-90388945D01*
X129334794Y-90297117D01*
X129252896Y-90210897D01*
X129175774Y-90129654D01*
X129102829Y-90052755D01*
X129033460Y-89979565D01*
X128967065Y-89909453D01*
X128903043Y-89841784D01*
X128840795Y-89775926D01*
X128779719Y-89711245D01*
X128719214Y-89647109D01*
X128658680Y-89582885D01*
X128597516Y-89517939D01*
X128535121Y-89451637D01*
X128474802Y-89387502D01*
X128782257Y-89387502D01*
X128970604Y-89586727D01*
X129159790Y-89786721D01*
X129340416Y-89977419D01*
X129514545Y-90160987D01*
X129684236Y-90339593D01*
X129851549Y-90515403D01*
X130018544Y-90690585D01*
X130187283Y-90867304D01*
X130359826Y-91047727D01*
X130363097Y-91051145D01*
X130438249Y-91129680D01*
X130511321Y-91206061D01*
X130581459Y-91279393D01*
X130647808Y-91348781D01*
X130709513Y-91413331D01*
X130765719Y-91472148D01*
X130815572Y-91524338D01*
X130858217Y-91569006D01*
X130892798Y-91605258D01*
X130918462Y-91632199D01*
X130934352Y-91648935D01*
X130936359Y-91651060D01*
X130962455Y-91678204D01*
X130980448Y-91695191D01*
X130992529Y-91703621D01*
X131000889Y-91705093D01*
X131006487Y-91702243D01*
X131016837Y-91693667D01*
X131036454Y-91677096D01*
X131062753Y-91654726D01*
X131093151Y-91628748D01*
X131101235Y-91621821D01*
X131342534Y-91424056D01*
X131587415Y-91241482D01*
X131835971Y-91074056D01*
X132088298Y-90921736D01*
X132344488Y-90784481D01*
X132604636Y-90662249D01*
X132868836Y-90554999D01*
X133137181Y-90462688D01*
X133409766Y-90385275D01*
X133686685Y-90322717D01*
X133968031Y-90274975D01*
X134195364Y-90247518D01*
X134484916Y-90225964D01*
X134770611Y-90219382D01*
X135052607Y-90227815D01*
X135331060Y-90251305D01*
X135606126Y-90289895D01*
X135877963Y-90343628D01*
X136146728Y-90412548D01*
X136412576Y-90496697D01*
X136675665Y-90596118D01*
X136936151Y-90710853D01*
X137194192Y-90840947D01*
X137449943Y-90986442D01*
X137703562Y-91147381D01*
X137851839Y-91249298D01*
X137941692Y-91314197D01*
X138036864Y-91385410D01*
X138133508Y-91459935D01*
X138227775Y-91534768D01*
X138315817Y-91606905D01*
X138381910Y-91663016D01*
X138439296Y-91712709D01*
X138461281Y-91694701D01*
X138473885Y-91684238D01*
X138496236Y-91665545D01*
X138526137Y-91640464D01*
X138561391Y-91610838D01*
X138599800Y-91578511D01*
X138607033Y-91572418D01*
X138740693Y-91463419D01*
X138883664Y-91353460D01*
X139032236Y-91245174D01*
X139182695Y-91141188D01*
X139331329Y-91044135D01*
X139474426Y-90956642D01*
X139484752Y-90950585D01*
X139607057Y-90881893D01*
X139739567Y-90812571D01*
X139878583Y-90744323D01*
X140020405Y-90678854D01*
X140161334Y-90617868D01*
X140297671Y-90563068D01*
X140425716Y-90516159D01*
X140434029Y-90513298D01*
X140706360Y-90428144D01*
X140981333Y-90358372D01*
X141259033Y-90303968D01*
X141539547Y-90264920D01*
X141822959Y-90241215D01*
X142109355Y-90232841D01*
X142313263Y-90236150D01*
X142590362Y-90252835D01*
X142862998Y-90283557D01*
X143131699Y-90328485D01*
X143396990Y-90387788D01*
X143659399Y-90461635D01*
X143919451Y-90550195D01*
X144177675Y-90653638D01*
X144434596Y-90772133D01*
X144690742Y-90905850D01*
X144946638Y-91054956D01*
X145036725Y-91111118D01*
X145212380Y-91226347D01*
X145385933Y-91348183D01*
X145560798Y-91479092D01*
X145713279Y-91599551D01*
X145851587Y-91711297D01*
X145940537Y-91619772D01*
X145958819Y-91600855D01*
X145986979Y-91571576D01*
X146024110Y-91532881D01*
X146069309Y-91485715D01*
X146121668Y-91431027D01*
X146180284Y-91369761D01*
X146244249Y-91302864D01*
X146312660Y-91231283D01*
X146384610Y-91155965D01*
X146459195Y-91077855D01*
X146535508Y-90997900D01*
X146555040Y-90977430D01*
X146647948Y-90880069D01*
X146730923Y-90793148D01*
X146804813Y-90715795D01*
X146870461Y-90647135D01*
X146928713Y-90586295D01*
X146980415Y-90532401D01*
X147026411Y-90484580D01*
X147067547Y-90441957D01*
X147104668Y-90403660D01*
X147138620Y-90368813D01*
X147170248Y-90336544D01*
X147200397Y-90305979D01*
X147229912Y-90276244D01*
X147259639Y-90246465D01*
X147290422Y-90215768D01*
X147323108Y-90183281D01*
X147329027Y-90177406D01*
X147361297Y-90145080D01*
X147389334Y-90116424D01*
X147411389Y-90093274D01*
X147425709Y-90077467D01*
X147430553Y-90070914D01*
X147435831Y-90064008D01*
X147450665Y-90047633D01*
X147473557Y-90023364D01*
X147503008Y-89992778D01*
X147537520Y-89957448D01*
X147565327Y-89929284D01*
X147604739Y-89889386D01*
X147652403Y-89840883D01*
X147705730Y-89786422D01*
X147762132Y-89728654D01*
X147819020Y-89670226D01*
X147873807Y-89613789D01*
X147897591Y-89589226D01*
X148095080Y-89385069D01*
X148065743Y-89360887D01*
X148047431Y-89346760D01*
X148033882Y-89338049D01*
X148030222Y-89336704D01*
X148022139Y-89331879D01*
X148005030Y-89318813D01*
X147981568Y-89299618D01*
X147959732Y-89281018D01*
X147931898Y-89257358D01*
X147895334Y-89226921D01*
X147853575Y-89192616D01*
X147810157Y-89157350D01*
X147778231Y-89131701D01*
X147741302Y-89101902D01*
X147708488Y-89074866D01*
X147681805Y-89052299D01*
X147663270Y-89035907D01*
X147654898Y-89027398D01*
X147654788Y-89027221D01*
X147642899Y-89017509D01*
X147637209Y-89016372D01*
X147627057Y-89012473D01*
X147625878Y-89009373D01*
X147620259Y-89001978D01*
X147604861Y-88986610D01*
X147581874Y-88965341D01*
X147553489Y-88940242D01*
X147545795Y-88933602D01*
X147431163Y-88832407D01*
X147328376Y-88735546D01*
X147235186Y-88640591D01*
X147149349Y-88545119D01*
X147068619Y-88446703D01*
X146990751Y-88342920D01*
X146964116Y-88305391D01*
X146855025Y-88136688D01*
X146757314Y-87958947D01*
X146671703Y-87774009D01*
X146598916Y-87583718D01*
X146539673Y-87389918D01*
X146494695Y-87194450D01*
X146470188Y-87043595D01*
X146449009Y-86825405D01*
X146443083Y-86607498D01*
X146452204Y-86390683D01*
X146476166Y-86175767D01*
X146514764Y-85963558D01*
X146567792Y-85754864D01*
X146635044Y-85550491D01*
X146716313Y-85351249D01*
X146811395Y-85157944D01*
X146920083Y-84971385D01*
X147042171Y-84792379D01*
X147044917Y-84788652D01*
X147065245Y-84760600D01*
X147081551Y-84737128D01*
X147091901Y-84721080D01*
X147094595Y-84715553D01*
X147100128Y-84707173D01*
X147113503Y-84694892D01*
X147114128Y-84694398D01*
X147127779Y-84681346D01*
X147133655Y-84671141D01*
X147133660Y-84670959D01*
X147139256Y-84660914D01*
X147152761Y-84647861D01*
X147153193Y-84647520D01*
X147166876Y-84634107D01*
X147172722Y-84623118D01*
X147172725Y-84622957D01*
X147178377Y-84612864D01*
X147192612Y-84598240D01*
X147200071Y-84591939D01*
X147216628Y-84577153D01*
X147226346Y-84565430D01*
X147227416Y-84562457D01*
X147232743Y-84555000D01*
X147247565Y-84538420D01*
X147270143Y-84514454D01*
X147298737Y-84484841D01*
X147331608Y-84451318D01*
X147367018Y-84415624D01*
X147403226Y-84379495D01*
X147438494Y-84344671D01*
X147471083Y-84312889D01*
X147499253Y-84285886D01*
X147521265Y-84265401D01*
X147535380Y-84253172D01*
X147539651Y-84250454D01*
X147548370Y-84244831D01*
X147562589Y-84230453D01*
X147572126Y-84219202D01*
X147588266Y-84201311D01*
X147601855Y-84190002D01*
X147606959Y-84187950D01*
X147617866Y-84182418D01*
X147632713Y-84168705D01*
X147636398Y-84164511D01*
X147650856Y-84149485D01*
X147662095Y-84141478D01*
X147663871Y-84141072D01*
X147673679Y-84135485D01*
X147686623Y-84121999D01*
X147686986Y-84121540D01*
X147699236Y-84107960D01*
X147707703Y-84102018D01*
X147707895Y-84102007D01*
X147715825Y-84097391D01*
X147733251Y-84084835D01*
X147757566Y-84066283D01*
X147784900Y-84044687D01*
X147819149Y-84017514D01*
X147854620Y-83989870D01*
X147886349Y-83965601D01*
X147903395Y-83952884D01*
X147929479Y-83933330D01*
X147962842Y-83907706D01*
X147998618Y-83879771D01*
X148023371Y-83860155D01*
X148096312Y-83801908D01*
X147999795Y-83707802D01*
X147979732Y-83688189D01*
X147949524Y-83658587D01*
X147910163Y-83619969D01*
X147862637Y-83573309D01*
X147807938Y-83519579D01*
X147747057Y-83459754D01*
X147680984Y-83394806D01*
X147610709Y-83325709D01*
X147537223Y-83253436D01*
X147461516Y-83178960D01*
X147395158Y-83113665D01*
X147316621Y-83036418D01*
X147233936Y-82955162D01*
X147147872Y-82870649D01*
X147059196Y-82783631D01*
X146968677Y-82694857D01*
X146877083Y-82605080D01*
X146785182Y-82515050D01*
X146693742Y-82425519D01*
X146603532Y-82337237D01*
X146515321Y-82250955D01*
X146429875Y-82167425D01*
X146347964Y-82087397D01*
X146270356Y-82011623D01*
X146197819Y-81940854D01*
X146131120Y-81875840D01*
X146071030Y-81817333D01*
X146018315Y-81766083D01*
X145973744Y-81722843D01*
X145938085Y-81688362D01*
X145912107Y-81663392D01*
X145897495Y-81649538D01*
X145873135Y-81627880D01*
X145856040Y-81615906D01*
X145842958Y-81611742D01*
X145833535Y-81612690D01*
X145821048Y-81619351D01*
X145799475Y-81634480D01*
X145771386Y-81656134D01*
X145739347Y-81682372D01*
X145723102Y-81696212D01*
X145501848Y-81877018D01*
X145269877Y-82046963D01*
X145028161Y-82205556D01*
X144777671Y-82352306D01*
X144519378Y-82486723D01*
X144254254Y-82608315D01*
X143983270Y-82716594D01*
X143707397Y-82811067D01*
X143427608Y-82891245D01*
X143289674Y-82925096D01*
X143083043Y-82968270D01*
X142876069Y-83001772D01*
X142665712Y-83025935D01*
X142448930Y-83041090D01*
X142222682Y-83047569D01*
X142164604Y-83047872D01*
X141939180Y-83044144D01*
X141722655Y-83032265D01*
X141510992Y-83011754D01*
X141300151Y-82982127D01*
X141086094Y-82942899D01*
X140864784Y-82893588D01*
X140853694Y-82890907D01*
X140799123Y-82877198D01*
X140739700Y-82861449D01*
X140677290Y-82844232D01*
X140613759Y-82826116D01*
X140550975Y-82807673D01*
X140490803Y-82789472D01*
X140435110Y-82772083D01*
X140385761Y-82756078D01*
X140344622Y-82742027D01*
X140313560Y-82730499D01*
X140294441Y-82722066D01*
X140289197Y-82718364D01*
X140279743Y-82713177D01*
X140260022Y-82706910D01*
X140244273Y-82703110D01*
X140221589Y-82697023D01*
X140206803Y-82690709D01*
X140203546Y-82687211D01*
X140196856Y-82681823D01*
X140184014Y-82680045D01*
X140169326Y-82677710D01*
X140164481Y-82673231D01*
X140157580Y-82667868D01*
X140140331Y-82662733D01*
X140133229Y-82661419D01*
X140113691Y-82656588D01*
X140102793Y-82650582D01*
X140101978Y-82648701D01*
X140095308Y-82642836D01*
X140083003Y-82640980D01*
X140063184Y-82636302D01*
X140052309Y-82629261D01*
X140036859Y-82619524D01*
X140027754Y-82617541D01*
X140011873Y-82612324D01*
X140003199Y-82605822D01*
X139986273Y-82596469D01*
X139972505Y-82594102D01*
X139958085Y-82591794D01*
X139953531Y-82587543D01*
X139946989Y-82579752D01*
X139931500Y-82571109D01*
X139913272Y-82564580D01*
X139901821Y-82562850D01*
X139886776Y-82557673D01*
X139878191Y-82551131D01*
X139861151Y-82541670D01*
X139848056Y-82539411D01*
X139829080Y-82535272D01*
X139819315Y-82529209D01*
X139809740Y-82522957D01*
X139788229Y-82510730D01*
X139756789Y-82493611D01*
X139717428Y-82472679D01*
X139672152Y-82449016D01*
X139633199Y-82428938D01*
X139451541Y-82332378D01*
X139279109Y-82233263D01*
X139112554Y-82129413D01*
X138948524Y-82018648D01*
X138783670Y-81898789D01*
X138614642Y-81767655D01*
X138604409Y-81759472D01*
X138549938Y-81716481D01*
X138505691Y-81683159D01*
X138470283Y-81658719D01*
X138442329Y-81642371D01*
X138420441Y-81633328D01*
X138403236Y-81630799D01*
X138389328Y-81633998D01*
X138386492Y-81635437D01*
X138375858Y-81643146D01*
X138355885Y-81659172D01*
X138328982Y-81681524D01*
X138297559Y-81708215D01*
X138279920Y-81723418D01*
X138112265Y-81861361D01*
X137930888Y-81996881D01*
X137737642Y-82128827D01*
X137534379Y-82256046D01*
X137322953Y-82377388D01*
X137105216Y-82491700D01*
X136883020Y-82597830D01*
X136848977Y-82613172D01*
X136615763Y-82710627D01*
X136374428Y-82798421D01*
X136128043Y-82875655D01*
X135879678Y-82941434D01*
X135632403Y-82994860D01*
X135418096Y-83030953D01*
X135346714Y-83041085D01*
X135283011Y-83049516D01*
X135224497Y-83056398D01*
X135168679Y-83061884D01*
X135113067Y-83066127D01*
X135055170Y-83069279D01*
X134992497Y-83071494D01*
X134922555Y-83072924D01*
X134842855Y-83073721D01*
X134750905Y-83074039D01*
X134714927Y-83074065D01*
X134622423Y-83073949D01*
X134543591Y-83073518D01*
X134476478Y-83072717D01*
X134419132Y-83071490D01*
X134369601Y-83069782D01*
X134325933Y-83067536D01*
X134286175Y-83064698D01*
X134248375Y-83061210D01*
X134242242Y-83060574D01*
X133992433Y-83029240D01*
X133748919Y-82988618D01*
X133514771Y-82939242D01*
X133444432Y-82922208D01*
X133381338Y-82906110D01*
X133320896Y-82890075D01*
X133265024Y-82874665D01*
X133215640Y-82860439D01*
X133174663Y-82847957D01*
X133144010Y-82837779D01*
X133125602Y-82830464D01*
X133121470Y-82827945D01*
X133108109Y-82821950D01*
X133097470Y-82820679D01*
X133080597Y-82818262D01*
X133057128Y-82812171D01*
X133032378Y-82804147D01*
X133011659Y-82795931D01*
X133000287Y-82789261D01*
X132999842Y-82788706D01*
X132990886Y-82784015D01*
X132970626Y-82776856D01*
X132942916Y-82768549D01*
X132933568Y-82765988D01*
X132904351Y-82757580D01*
X132881409Y-82749894D01*
X132868596Y-82744258D01*
X132867294Y-82743150D01*
X132857619Y-82737856D01*
X132838818Y-82732571D01*
X132833952Y-82731602D01*
X132815165Y-82726401D01*
X132805158Y-82720227D01*
X132804654Y-82718756D01*
X132797965Y-82713148D01*
X132785121Y-82711297D01*
X132770438Y-82708622D01*
X132765589Y-82703484D01*
X132758903Y-82697611D01*
X132746056Y-82695671D01*
X132731373Y-82692996D01*
X132726524Y-82687858D01*
X132719838Y-82681985D01*
X132706991Y-82680045D01*
X132692308Y-82677370D01*
X132687459Y-82672232D01*
X132680773Y-82666359D01*
X132667926Y-82664419D01*
X132653238Y-82662099D01*
X132648394Y-82657648D01*
X132641731Y-82651117D01*
X132624894Y-82641898D01*
X132602612Y-82632005D01*
X132579611Y-82623452D01*
X132560620Y-82618254D01*
X132554247Y-82617541D01*
X132541080Y-82614444D01*
X132537710Y-82611124D01*
X132530231Y-82606016D01*
X132510669Y-82595180D01*
X132481030Y-82579656D01*
X132443315Y-82560484D01*
X132399530Y-82538700D01*
X132372361Y-82525386D01*
X132147263Y-82410157D01*
X131930725Y-82287787D01*
X131720067Y-82156556D01*
X131512606Y-82014742D01*
X131305662Y-81860621D01*
X131171741Y-81754317D01*
X131124842Y-81716542D01*
X131087984Y-81687947D01*
X131059311Y-81667579D01*
X131036966Y-81654487D01*
X131019095Y-81647719D01*
X131003839Y-81646323D01*
X130989345Y-81649348D01*
X130976868Y-81654393D01*
X130967932Y-81661075D01*
X130949594Y-81677290D01*
X130921737Y-81703154D01*
X130884244Y-81738781D01*
X130836997Y-81784288D01*
X130779879Y-81839789D01*
X130712772Y-81905400D01*
X130635558Y-81981236D01*
X130548121Y-82067413D01*
X130450342Y-82164045D01*
X130342105Y-82271248D01*
X130223291Y-82389138D01*
X130093783Y-82517829D01*
X129953464Y-82657437D01*
X129865695Y-82744835D01*
X128784875Y-83821406D01*
X128820034Y-83843380D01*
X128841029Y-83858219D01*
X128868991Y-83880313D01*
X128899567Y-83906146D01*
X128917696Y-83922287D01*
X128940398Y-83942715D01*
X128972639Y-83971375D01*
X129012147Y-84006267D01*
X129056652Y-84045390D01*
X129103884Y-84086744D01*
X129151571Y-84128328D01*
X129151779Y-84128510D01*
X129239231Y-84205004D01*
X129316010Y-84273158D01*
X129383595Y-84334457D01*
X129443462Y-84390388D01*
X129497086Y-84442439D01*
X129545946Y-84492097D01*
X129591516Y-84540849D01*
X129635275Y-84590182D01*
X129678697Y-84641582D01*
X129723261Y-84696537D01*
X129752334Y-84733331D01*
X129791555Y-84785124D01*
X129835539Y-84846162D01*
X129881907Y-84912904D01*
X129928281Y-84981813D01*
X129972280Y-85049347D01*
X130011525Y-85111968D01*
X130043638Y-85166136D01*
X130045694Y-85169761D01*
X130141884Y-85355287D01*
X130224381Y-85546717D01*
X130292787Y-85742789D01*
X130346702Y-85942237D01*
X130385730Y-86143798D01*
X130406836Y-86315150D01*
X130409867Y-86361832D01*
X130411796Y-86420432D01*
X130412683Y-86487866D01*
X130412584Y-86561054D01*
X130411559Y-86636912D01*
X130409665Y-86712357D01*
X130406961Y-86784309D01*
X130403505Y-86849684D01*
X130399356Y-86905400D01*
X130394914Y-86945932D01*
X130364105Y-87133646D01*
X130323871Y-87319611D01*
X130274967Y-87501304D01*
X130218147Y-87676200D01*
X130154166Y-87841774D01*
X130083779Y-87995503D01*
X130077244Y-88008498D01*
X129998039Y-88153257D01*
X129908643Y-88294711D01*
X129808344Y-88433670D01*
X129696429Y-88570946D01*
X129572187Y-88707349D01*
X129434906Y-88843689D01*
X129283873Y-88980777D01*
X129118378Y-89119423D01*
X129062113Y-89164359D01*
X129025767Y-89193346D01*
X128993573Y-89219543D01*
X128967603Y-89241225D01*
X128949925Y-89256666D01*
X128942700Y-89263975D01*
X128932098Y-89273211D01*
X128927784Y-89274201D01*
X128916843Y-89278871D01*
X128897447Y-89291210D01*
X128872995Y-89308708D01*
X128846888Y-89328853D01*
X128822526Y-89349136D01*
X128807005Y-89363358D01*
X128782257Y-89387502D01*
X128474802Y-89387502D01*
X128470895Y-89383348D01*
X128470374Y-89382794D01*
X128429229Y-89339034D01*
X128571893Y-89238611D01*
X128679432Y-89162252D01*
X128775636Y-89092441D01*
X128862516Y-89027598D01*
X128942082Y-88966147D01*
X129016346Y-88906507D01*
X129087319Y-88847100D01*
X129157013Y-88786348D01*
X129217298Y-88731967D01*
X129379693Y-88574065D01*
X129527391Y-88410916D01*
X129660456Y-88242402D01*
X129778951Y-88068408D01*
X129882938Y-87888817D01*
X129972480Y-87703514D01*
X130047640Y-87512382D01*
X130108482Y-87315306D01*
X130155067Y-87112168D01*
X130181137Y-86952473D01*
X130188373Y-86885737D01*
X130193800Y-86807826D01*
X130197397Y-86722355D01*
X130199148Y-86632943D01*
X130199032Y-86543206D01*
X130197031Y-86456761D01*
X130193126Y-86377226D01*
X130187299Y-86308218D01*
X130184607Y-86285736D01*
X130148650Y-86071432D01*
X130098207Y-85862969D01*
X130033337Y-85660480D01*
X129954103Y-85464104D01*
X129860564Y-85273975D01*
X129752782Y-85090230D01*
X129630817Y-84913003D01*
X129494731Y-84742433D01*
X129491831Y-84739050D01*
X129413457Y-84650579D01*
X129331481Y-84563812D01*
X129244526Y-84477515D01*
X129151213Y-84390451D01*
X129050168Y-84301388D01*
X128940011Y-84209089D01*
X128819366Y-84112321D01*
X128686856Y-84009847D01*
X128633642Y-83969559D01*
X128474597Y-83849778D01*
X128754744Y-83570990D01*
X128790936Y-83534963D01*
X128837408Y-83488687D01*
X128893374Y-83432945D01*
X128958049Y-83368519D01*
X129030647Y-83296193D01*
X129110381Y-83216750D01*
X129196466Y-83130972D01*
X129288117Y-83039644D01*
X129384547Y-82943547D01*
X129484971Y-82843465D01*
X129588603Y-82740181D01*
X129694656Y-82634478D01*
X129802346Y-82527139D01*
X129910886Y-82418948D01*
X130019491Y-82310686D01*
X130020869Y-82309312D01*
X131006848Y-81326422D01*
X131037678Y-81352803D01*
X131093943Y-81400801D01*
X131150274Y-81448582D01*
X131204722Y-81494514D01*
X131255340Y-81536962D01*
X131300178Y-81574294D01*
X131337287Y-81604875D01*
X131364720Y-81627072D01*
X131367065Y-81628933D01*
X131408888Y-81661991D01*
X131442105Y-81688062D01*
X131470305Y-81709859D01*
X131497076Y-81730097D01*
X131526005Y-81751492D01*
X131560680Y-81776757D01*
X131601455Y-81806269D01*
X131844840Y-81974044D01*
X132089713Y-82126451D01*
X132336679Y-82263721D01*
X132586342Y-82386086D01*
X132839308Y-82493778D01*
X133096181Y-82587029D01*
X133357565Y-82666071D01*
X133624066Y-82731136D01*
X133896287Y-82782456D01*
X134174834Y-82820263D01*
X134269588Y-82829939D01*
X134311429Y-82832922D01*
X134366463Y-82835402D01*
X134432264Y-82837381D01*
X134506405Y-82838857D01*
X134586461Y-82839830D01*
X134670006Y-82840302D01*
X134754615Y-82840271D01*
X134837862Y-82839738D01*
X134917321Y-82838702D01*
X134990566Y-82837164D01*
X135055172Y-82835124D01*
X135108712Y-82832582D01*
X135144641Y-82829939D01*
X135428224Y-82796233D01*
X135704501Y-82748934D01*
X135974341Y-82687766D01*
X136238611Y-82612454D01*
X136498179Y-82522723D01*
X136753914Y-82418298D01*
X137006682Y-82298903D01*
X137257352Y-82164263D01*
X137274863Y-82154249D01*
X137451304Y-82048267D01*
X137631466Y-81931163D01*
X137811896Y-81805466D01*
X137989137Y-81673705D01*
X138159736Y-81538409D01*
X138320238Y-81402108D01*
X138399217Y-81331072D01*
X138419220Y-81312693D01*
X138625794Y-81486018D01*
X138706044Y-81552954D01*
X138777088Y-81611251D01*
X138841323Y-81662739D01*
X138901143Y-81709249D01*
X138958944Y-81752610D01*
X139017122Y-81794651D01*
X139078071Y-81837204D01*
X139144187Y-81882098D01*
X139144887Y-81882568D01*
X139372105Y-82028391D01*
X139598983Y-82160254D01*
X139828132Y-82279545D01*
X140062161Y-82387649D01*
X140217262Y-82452226D01*
X140470525Y-82546349D01*
X140724847Y-82626661D01*
X140982042Y-82693579D01*
X141243924Y-82747518D01*
X141512309Y-82788893D01*
X141789012Y-82818121D01*
X141828646Y-82821277D01*
X141883842Y-82824564D01*
X141951392Y-82827087D01*
X142028043Y-82828847D01*
X142110544Y-82829843D01*
X142195641Y-82830075D01*
X142280081Y-82829543D01*
X142360612Y-82828247D01*
X142433980Y-82826186D01*
X142496934Y-82823360D01*
X142527908Y-82821331D01*
X142804007Y-82792857D01*
X143076225Y-82749768D01*
X143344872Y-82691954D01*
X143610256Y-82619306D01*
X143872684Y-82531712D01*
X144132467Y-82429062D01*
X144389911Y-82311247D01*
X144645325Y-82178156D01*
X144899019Y-82029679D01*
X145094472Y-81904070D01*
X145148611Y-81867000D01*
X145205108Y-81826406D01*
X145265647Y-81780991D01*
X145331913Y-81729457D01*
X145405592Y-81670507D01*
X145488368Y-81602841D01*
X145527238Y-81570692D01*
X145572556Y-81533167D01*
X145614957Y-81498189D01*
X145652661Y-81467216D01*
X145683889Y-81441706D01*
X145706860Y-81423115D01*
X145719797Y-81412902D01*
X145720533Y-81412351D01*
X145734680Y-81399304D01*
X145755078Y-81377246D01*
X145778599Y-81349664D01*
X145794812Y-81329495D01*
X145846827Y-81263100D01*
X145866048Y-81285983D01*
G37*
G36*
X138454147Y-82242341D02*
G01*
X138474266Y-82255987D01*
X138503186Y-82276486D01*
X138539087Y-82302535D01*
X138580152Y-82332831D01*
X138617511Y-82360761D01*
X138872144Y-82542981D01*
X139131804Y-82710417D01*
X139396585Y-82863111D01*
X139666584Y-83001106D01*
X139941894Y-83124446D01*
X140222611Y-83233173D01*
X140508830Y-83327330D01*
X140800647Y-83406960D01*
X141065844Y-83465786D01*
X141114982Y-83474968D01*
X141162494Y-83482823D01*
X141204791Y-83488832D01*
X141238282Y-83492475D01*
X141256345Y-83493337D01*
X141281639Y-83494082D01*
X141299286Y-83496577D01*
X141305177Y-83499880D01*
X141312422Y-83506834D01*
X141331916Y-83512514D01*
X141360291Y-83516258D01*
X141394181Y-83517405D01*
X141394351Y-83517404D01*
X141415422Y-83518120D01*
X141448480Y-83520378D01*
X141489996Y-83523887D01*
X141536440Y-83528353D01*
X141570818Y-83531984D01*
X141623731Y-83537518D01*
X141679137Y-83542841D01*
X141731913Y-83547490D01*
X141776935Y-83551005D01*
X141795441Y-83552223D01*
X141830379Y-83554688D01*
X141858733Y-83557428D01*
X141877391Y-83560092D01*
X141883320Y-83562133D01*
X141890567Y-83563869D01*
X141910123Y-83564810D01*
X141938687Y-83564862D01*
X141961450Y-83564346D01*
X141994233Y-83563901D01*
X142020247Y-83564675D01*
X142036189Y-83566502D01*
X142039593Y-83568253D01*
X142047063Y-83569964D01*
X142068108Y-83571502D01*
X142100675Y-83572801D01*
X142142714Y-83573799D01*
X142192173Y-83574430D01*
X142242723Y-83574631D01*
X142297219Y-83574416D01*
X142346191Y-83573809D01*
X142387589Y-83572869D01*
X142419360Y-83571656D01*
X142439454Y-83570230D01*
X142445864Y-83568772D01*
X142453010Y-83565846D01*
X142471768Y-83563746D01*
X142498126Y-83562913D01*
X142499001Y-83562912D01*
X142572244Y-83561008D01*
X142658026Y-83555527D01*
X142753758Y-83546811D01*
X142856852Y-83535203D01*
X142964721Y-83521048D01*
X143074776Y-83504689D01*
X143184430Y-83486468D01*
X143291095Y-83466729D01*
X143392183Y-83445816D01*
X143408122Y-83442282D01*
X143678740Y-83373854D01*
X143948581Y-83290092D01*
X144217046Y-83191284D01*
X144483533Y-83077721D01*
X144747444Y-82949693D01*
X145008178Y-82807490D01*
X145265134Y-82651402D01*
X145517712Y-82481718D01*
X145748510Y-82311692D01*
X145790229Y-82280963D01*
X145821600Y-82261053D01*
X145843274Y-82251685D01*
X145855903Y-82252579D01*
X145860140Y-82263458D01*
X145860144Y-82263989D01*
X145865585Y-82271136D01*
X145881514Y-82288702D01*
X145907339Y-82316084D01*
X145942472Y-82352682D01*
X145986320Y-82397895D01*
X146038293Y-82451120D01*
X146097802Y-82511756D01*
X146164254Y-82579201D01*
X146237059Y-82652855D01*
X146315627Y-82732116D01*
X146399367Y-82816382D01*
X146487689Y-82905051D01*
X146580001Y-82997524D01*
X146607425Y-83024958D01*
X146726558Y-83144194D01*
X146834714Y-83252652D01*
X146932061Y-83350504D01*
X147018769Y-83437923D01*
X147095006Y-83515083D01*
X147160942Y-83582154D01*
X147216745Y-83639312D01*
X147262586Y-83686727D01*
X147298632Y-83724573D01*
X147325053Y-83753022D01*
X147342017Y-83772248D01*
X147349695Y-83782423D01*
X147350188Y-83784045D01*
X147341332Y-83793548D01*
X147322576Y-83806920D01*
X147299250Y-83820562D01*
X147281293Y-83831598D01*
X147259800Y-83847774D01*
X147233453Y-83870283D01*
X147200933Y-83900315D01*
X147160924Y-83939060D01*
X147112108Y-83987709D01*
X147093129Y-84006861D01*
X147024346Y-84076911D01*
X146964710Y-84138789D01*
X146911962Y-84195003D01*
X146863840Y-84248059D01*
X146818085Y-84300466D01*
X146772438Y-84354730D01*
X146724637Y-84413358D01*
X146708029Y-84434059D01*
X146584364Y-84596395D01*
X146474385Y-84757511D01*
X146376639Y-84920064D01*
X146289677Y-85086714D01*
X146212047Y-85260120D01*
X146142296Y-85442939D01*
X146117316Y-85516157D01*
X146069341Y-85668455D01*
X146029638Y-85811463D01*
X145997586Y-85948742D01*
X145972562Y-86083849D01*
X145953947Y-86220345D01*
X145941118Y-86361790D01*
X145933456Y-86511741D01*
X145931575Y-86580685D01*
X145930527Y-86640894D01*
X145929986Y-86695396D01*
X145929937Y-86742356D01*
X145930369Y-86779942D01*
X145931267Y-86806321D01*
X145932618Y-86819660D01*
X145933296Y-86820934D01*
X145936122Y-86828068D01*
X145937354Y-86846907D01*
X145936771Y-86873588D01*
X145936542Y-86877569D01*
X145936067Y-86910948D01*
X145937724Y-86952882D01*
X145941173Y-86996497D01*
X145943396Y-87016249D01*
X145976978Y-87221628D01*
X146025752Y-87427314D01*
X146089324Y-87632500D01*
X146167298Y-87836378D01*
X146259282Y-88038140D01*
X146364881Y-88236977D01*
X146483700Y-88432081D01*
X146615345Y-88622644D01*
X146759422Y-88807858D01*
X146892482Y-88961709D01*
X146941393Y-89015215D01*
X146986932Y-89064265D01*
X147027999Y-89107726D01*
X147063496Y-89144467D01*
X147092324Y-89173356D01*
X147113384Y-89193261D01*
X147125577Y-89203051D01*
X147127656Y-89203884D01*
X147135488Y-89209161D01*
X147152052Y-89223671D01*
X147175200Y-89245427D01*
X147202785Y-89272443D01*
X147214404Y-89284100D01*
X147245611Y-89315058D01*
X147275645Y-89343857D01*
X147301528Y-89367707D01*
X147320286Y-89383821D01*
X147323566Y-89386353D01*
X147340645Y-89401376D01*
X147350149Y-89414420D01*
X147350911Y-89418824D01*
X147345201Y-89426350D01*
X147329700Y-89444057D01*
X147305430Y-89470843D01*
X147273411Y-89505609D01*
X147234666Y-89547252D01*
X147190215Y-89594671D01*
X147141080Y-89646767D01*
X147088282Y-89702437D01*
X147070717Y-89720892D01*
X147012259Y-89782314D01*
X146953250Y-89844412D01*
X146895321Y-89905463D01*
X146840103Y-89963744D01*
X146789227Y-90017532D01*
X146744325Y-90065105D01*
X146707028Y-90104739D01*
X146680068Y-90133530D01*
X146646945Y-90168972D01*
X146605349Y-90213365D01*
X146557539Y-90264302D01*
X146505776Y-90319378D01*
X146452321Y-90376187D01*
X146399434Y-90432324D01*
X146367988Y-90465665D01*
X146315260Y-90521663D01*
X146259440Y-90581154D01*
X146203032Y-90641458D01*
X146148540Y-90699891D01*
X146098467Y-90753771D01*
X146055317Y-90800414D01*
X146036137Y-90821255D01*
X145998858Y-90861668D01*
X145964248Y-90898829D01*
X145933960Y-90930990D01*
X145909647Y-90956404D01*
X145892964Y-90973323D01*
X145886458Y-90979384D01*
X145862323Y-90989914D01*
X145830717Y-90993056D01*
X145814844Y-90992447D01*
X145800382Y-90989713D01*
X145784600Y-90983494D01*
X145764770Y-90972431D01*
X145738159Y-90955166D01*
X145702039Y-90930337D01*
X145695222Y-90925591D01*
X145511515Y-90799784D01*
X145336694Y-90684752D01*
X145169203Y-90579651D01*
X145007483Y-90483634D01*
X144849977Y-90395856D01*
X144695125Y-90315470D01*
X144541371Y-90241631D01*
X144387156Y-90173493D01*
X144230921Y-90110210D01*
X144109392Y-90064667D01*
X143831278Y-89971816D01*
X143550383Y-89893882D01*
X143266339Y-89830822D01*
X142978777Y-89782590D01*
X142687331Y-89749142D01*
X142391630Y-89730434D01*
X142091308Y-89726421D01*
X141785996Y-89737058D01*
X141547379Y-89755195D01*
X141259305Y-89789935D01*
X140974053Y-89839991D01*
X140691859Y-89905272D01*
X140412958Y-89985682D01*
X140137585Y-90081130D01*
X139865975Y-90191521D01*
X139598363Y-90316762D01*
X139334986Y-90456760D01*
X139076077Y-90611422D01*
X138821873Y-90780654D01*
X138651393Y-90904328D01*
X138595520Y-90945474D01*
X138549653Y-90977161D01*
X138511971Y-91000146D01*
X138480656Y-91015187D01*
X138453889Y-91023041D01*
X138429852Y-91024465D01*
X138406725Y-91020217D01*
X138388731Y-91013699D01*
X138374938Y-91005965D01*
X138350908Y-90990482D01*
X138318947Y-90968819D01*
X138281360Y-90942546D01*
X138240454Y-90913233D01*
X138230090Y-90905695D01*
X137983633Y-90732975D01*
X137738189Y-90575283D01*
X137492859Y-90432136D01*
X137246741Y-90303055D01*
X136998932Y-90187559D01*
X136748533Y-90085166D01*
X136573633Y-90021854D01*
X136328023Y-89944772D01*
X136073123Y-89878639D01*
X135811043Y-89823715D01*
X135543888Y-89780258D01*
X135273765Y-89748525D01*
X135002783Y-89728775D01*
X134733047Y-89721267D01*
X134466665Y-89726259D01*
X134264678Y-89738822D01*
X133972638Y-89770300D01*
X133685137Y-89816520D01*
X133401742Y-89877607D01*
X133122018Y-89953683D01*
X132845530Y-90044870D01*
X132571846Y-90151292D01*
X132300529Y-90273071D01*
X132200839Y-90321954D01*
X132146429Y-90349378D01*
X132095638Y-90375326D01*
X132047370Y-90400458D01*
X132000529Y-90425436D01*
X131954019Y-90450919D01*
X131906742Y-90477568D01*
X131857603Y-90506044D01*
X131805504Y-90537008D01*
X131749350Y-90571121D01*
X131688045Y-90609042D01*
X131620491Y-90651433D01*
X131545592Y-90698955D01*
X131462252Y-90752267D01*
X131369375Y-90812031D01*
X131265863Y-90878907D01*
X131150622Y-90953556D01*
X131124211Y-90970682D01*
X131091741Y-90991133D01*
X131063196Y-91007990D01*
X131041515Y-91019593D01*
X131029641Y-91024282D01*
X131029209Y-91024308D01*
X131021301Y-91018815D01*
X131003902Y-91003138D01*
X130978222Y-90978479D01*
X130945471Y-90946042D01*
X130906859Y-90907030D01*
X130863594Y-90862646D01*
X130816888Y-90814093D01*
X130799378Y-90795736D01*
X130732355Y-90725278D01*
X130671789Y-90661534D01*
X130616360Y-90603091D01*
X130564751Y-90548537D01*
X130515642Y-90496462D01*
X130467715Y-90445453D01*
X130419651Y-90394100D01*
X130370131Y-90340991D01*
X130317836Y-90284714D01*
X130261448Y-90223857D01*
X130199647Y-90157010D01*
X130131116Y-90082761D01*
X130054535Y-89999699D01*
X129976729Y-89915251D01*
X129950551Y-89886940D01*
X129915770Y-89849486D01*
X129874481Y-89805138D01*
X129828779Y-89756141D01*
X129780760Y-89704744D01*
X129732518Y-89653194D01*
X129712667Y-89632008D01*
X129669678Y-89585839D01*
X129630319Y-89542970D01*
X129595830Y-89504799D01*
X129567449Y-89472722D01*
X129546415Y-89448135D01*
X129533969Y-89432434D01*
X129531015Y-89427324D01*
X129536621Y-89418650D01*
X129552090Y-89401855D01*
X129575396Y-89378961D01*
X129604516Y-89351989D01*
X129622817Y-89335672D01*
X129676883Y-89286811D01*
X129737289Y-89229990D01*
X129801220Y-89168025D01*
X129865861Y-89103730D01*
X129928399Y-89039922D01*
X129986019Y-88979416D01*
X130035907Y-88925027D01*
X130055269Y-88903084D01*
X130208720Y-88715864D01*
X130347066Y-88524813D01*
X130381919Y-88469680D01*
X133875337Y-88469680D01*
X134126153Y-88467618D01*
X134376969Y-88465557D01*
X134603021Y-87856145D01*
X134637667Y-87762869D01*
X134670841Y-87673797D01*
X134702131Y-87590020D01*
X134731127Y-87512628D01*
X134757417Y-87442712D01*
X134780589Y-87381363D01*
X134800231Y-87329672D01*
X134815932Y-87288730D01*
X134827280Y-87259627D01*
X134833864Y-87243455D01*
X134835341Y-87240427D01*
X134839622Y-87245584D01*
X134848141Y-87263525D01*
X134860082Y-87292245D01*
X134874627Y-87329743D01*
X134890961Y-87374015D01*
X134899056Y-87396686D01*
X134912392Y-87434407D01*
X134930262Y-87484921D01*
X134951981Y-87546296D01*
X134976864Y-87616596D01*
X135004225Y-87693887D01*
X135033382Y-87776234D01*
X135063647Y-87861704D01*
X135094338Y-87948361D01*
X135117022Y-88012404D01*
X135277541Y-88465557D01*
X135742691Y-88469697D01*
X135738090Y-88452001D01*
X135735225Y-88442496D01*
X135727959Y-88418974D01*
X135716572Y-88382331D01*
X135701343Y-88333458D01*
X135682552Y-88273248D01*
X135660477Y-88202596D01*
X135635398Y-88122393D01*
X135607595Y-88033533D01*
X135577346Y-87936909D01*
X135544931Y-87833414D01*
X135510629Y-87723942D01*
X135474720Y-87609385D01*
X135437482Y-87490636D01*
X135427146Y-87457683D01*
X135185748Y-86688104D01*
X136300962Y-86688104D01*
X136300971Y-86847822D01*
X136301003Y-86992690D01*
X136301066Y-87123481D01*
X136301170Y-87240972D01*
X136301323Y-87345937D01*
X136301533Y-87439151D01*
X136301809Y-87521390D01*
X136302160Y-87593428D01*
X136302594Y-87656041D01*
X136303120Y-87710003D01*
X136303747Y-87756091D01*
X136304482Y-87795077D01*
X136305335Y-87827739D01*
X136306314Y-87854850D01*
X136307428Y-87877187D01*
X136308686Y-87895523D01*
X136310095Y-87910635D01*
X136311665Y-87923296D01*
X136313405Y-87934283D01*
X136314864Y-87942087D01*
X136332455Y-88018322D01*
X136353648Y-88088856D01*
X136377413Y-88150810D01*
X136402716Y-88201305D01*
X136414278Y-88219448D01*
X136419557Y-88227898D01*
X136422102Y-88236557D01*
X136421358Y-88248207D01*
X136416773Y-88265627D01*
X136407791Y-88291597D01*
X136393860Y-88328899D01*
X136390930Y-88336643D01*
X136376697Y-88374465D01*
X136364117Y-88408292D01*
X136354425Y-88434771D01*
X136348859Y-88450551D01*
X136348425Y-88451884D01*
X136342881Y-88469464D01*
X136583657Y-88469344D01*
X136643754Y-88469123D01*
X136698989Y-88468555D01*
X136747376Y-88467690D01*
X136786931Y-88466575D01*
X136815668Y-88465261D01*
X136831601Y-88463796D01*
X136834001Y-88463145D01*
X136843268Y-88450873D01*
X136846103Y-88441779D01*
X136851952Y-88422548D01*
X136857978Y-88409503D01*
X136866583Y-88390116D01*
X136870075Y-88378251D01*
X136875030Y-88360881D01*
X136882611Y-88340549D01*
X136890022Y-88321876D01*
X136894290Y-88309433D01*
X136894324Y-88309298D01*
X136898497Y-88297070D01*
X136905877Y-88278445D01*
X136906044Y-88278046D01*
X136913458Y-88259373D01*
X136917729Y-88246930D01*
X136917763Y-88246794D01*
X136921936Y-88234566D01*
X136929316Y-88215942D01*
X136929483Y-88215542D01*
X136937194Y-88195394D01*
X136941805Y-88180383D01*
X136944689Y-88170008D01*
X136945533Y-88168664D01*
X136947950Y-88162378D01*
X136949262Y-88156944D01*
X136953980Y-88141630D01*
X136961584Y-88121786D01*
X136968999Y-88103113D01*
X136973269Y-88090670D01*
X136973304Y-88090534D01*
X136977477Y-88078306D01*
X136984856Y-88059682D01*
X136985023Y-88059282D01*
X136992455Y-88040607D01*
X136996764Y-88028165D01*
X136996799Y-88028030D01*
X137001377Y-88013512D01*
X137010909Y-87986116D01*
X137024977Y-87946947D01*
X137043161Y-87897114D01*
X137065041Y-87837724D01*
X137090197Y-87769883D01*
X137118211Y-87694700D01*
X137148661Y-87613281D01*
X137181130Y-87526733D01*
X137215197Y-87436164D01*
X137250443Y-87342681D01*
X137286448Y-87247390D01*
X137322792Y-87151400D01*
X137359057Y-87055817D01*
X137394821Y-86961749D01*
X137429667Y-86870303D01*
X137463174Y-86782585D01*
X137494922Y-86699704D01*
X137524493Y-86622766D01*
X137551466Y-86552878D01*
X137575422Y-86491148D01*
X137595942Y-86438683D01*
X137612605Y-86396590D01*
X137624992Y-86365977D01*
X137632685Y-86347950D01*
X137635219Y-86343351D01*
X137636142Y-86351939D01*
X137636968Y-86374985D01*
X137637690Y-86411324D01*
X137638301Y-86459787D01*
X137638795Y-86519207D01*
X137639163Y-86588419D01*
X137639400Y-86666254D01*
X137639498Y-86751546D01*
X137639450Y-86843128D01*
X137639250Y-86939833D01*
X137639077Y-86993462D01*
X137638654Y-87113754D01*
X137638253Y-87219449D01*
X137637791Y-87311575D01*
X137637181Y-87391161D01*
X137636337Y-87459234D01*
X137635175Y-87516824D01*
X137633609Y-87564958D01*
X137631554Y-87604666D01*
X137628923Y-87636975D01*
X137625632Y-87662913D01*
X137621595Y-87683510D01*
X137616726Y-87699793D01*
X137610941Y-87712791D01*
X137604153Y-87723533D01*
X137596278Y-87733046D01*
X137587229Y-87742359D01*
X137576921Y-87752500D01*
X137575914Y-87753503D01*
X137551311Y-87774576D01*
X137524049Y-87789843D01*
X137490850Y-87800364D01*
X137448439Y-87807202D01*
X137397822Y-87811188D01*
X137322294Y-87815350D01*
X137214929Y-88105295D01*
X137190681Y-88170726D01*
X137167592Y-88232930D01*
X137146350Y-88290063D01*
X137127641Y-88340284D01*
X137112151Y-88381749D01*
X137100567Y-88412614D01*
X137093577Y-88431038D01*
X137092785Y-88433082D01*
X137078006Y-88470925D01*
X137365307Y-88467557D01*
X137441025Y-88466613D01*
X137502959Y-88465659D01*
X137552952Y-88464589D01*
X137592846Y-88463295D01*
X137624483Y-88461670D01*
X137649707Y-88459607D01*
X137670358Y-88456999D01*
X137688280Y-88453739D01*
X137705314Y-88449718D01*
X137714659Y-88447230D01*
X137803255Y-88415874D01*
X137881634Y-88372973D01*
X137949873Y-88318422D01*
X138008051Y-88252117D01*
X138056244Y-88173955D01*
X138094531Y-88083830D01*
X138122989Y-87981639D01*
X138140678Y-87875882D01*
X138141909Y-87857604D01*
X138143044Y-87823966D01*
X138144082Y-87775232D01*
X138145020Y-87711669D01*
X138145856Y-87633540D01*
X138146590Y-87541112D01*
X138147198Y-87438150D01*
X138789397Y-87438150D01*
X138789419Y-87623708D01*
X138789967Y-87706657D01*
X138791761Y-87776844D01*
X138795054Y-87837103D01*
X138800101Y-87890265D01*
X138807156Y-87939164D01*
X138816475Y-87986632D01*
X138825385Y-88024124D01*
X138856883Y-88120774D01*
X138899580Y-88206578D01*
X138953190Y-88281289D01*
X139017431Y-88344659D01*
X139092018Y-88396441D01*
X139176666Y-88436385D01*
X139271093Y-88464246D01*
X139344573Y-88476636D01*
X139364676Y-88478078D01*
X139398468Y-88479332D01*
X139444010Y-88480374D01*
X139499367Y-88481178D01*
X139562600Y-88481721D01*
X139631773Y-88481978D01*
X139704948Y-88481925D01*
X139750393Y-88481731D01*
X139833896Y-88481226D01*
X139903395Y-88480684D01*
X139960514Y-88480031D01*
X140006876Y-88479193D01*
X140044103Y-88478096D01*
X140073819Y-88476668D01*
X140097646Y-88474834D01*
X140117208Y-88472522D01*
X140134126Y-88469656D01*
X140150024Y-88466164D01*
X140162453Y-88463039D01*
X140254044Y-88431830D01*
X140336242Y-88388236D01*
X140409146Y-88332163D01*
X140472860Y-88263519D01*
X140527484Y-88182209D01*
X140573120Y-88088141D01*
X140575039Y-88083420D01*
X140598167Y-88021561D01*
X140616865Y-87960621D01*
X140631464Y-87898193D01*
X140642294Y-87831871D01*
X140649682Y-87759248D01*
X140653960Y-87677919D01*
X140655457Y-87585476D01*
X140654854Y-87500654D01*
X140653459Y-87426172D01*
X140651448Y-87364794D01*
X140648384Y-87314001D01*
X140643830Y-87271270D01*
X140637349Y-87234083D01*
X140628503Y-87199917D01*
X140616856Y-87166253D01*
X140601970Y-87130570D01*
X140583878Y-87091337D01*
X140533638Y-86998160D01*
X140473009Y-86909491D01*
X140401073Y-86824403D01*
X140316911Y-86741970D01*
X140219602Y-86661265D01*
X140108229Y-86581363D01*
X140024125Y-86527097D01*
X139904316Y-86451006D01*
X139798293Y-86379840D01*
X139705263Y-86312895D01*
X139624435Y-86249471D01*
X139555016Y-86188867D01*
X139496213Y-86130380D01*
X139447235Y-86073309D01*
X139407288Y-86016952D01*
X139375582Y-85960608D01*
X139369215Y-85947238D01*
X139360727Y-85927256D01*
X139354778Y-85908095D01*
X139350795Y-85886067D01*
X139348205Y-85857487D01*
X139346434Y-85818667D01*
X139345735Y-85796302D01*
X139342658Y-85689705D01*
X139371341Y-85657956D01*
X139387282Y-85641374D01*
X139403299Y-85627943D01*
X139421211Y-85617315D01*
X139442839Y-85609141D01*
X139470001Y-85603073D01*
X139504516Y-85598762D01*
X139548206Y-85595859D01*
X139602888Y-85594016D01*
X139670382Y-85592884D01*
X139713287Y-85592441D01*
X139783847Y-85591887D01*
X139840680Y-85591838D01*
X139885685Y-85592605D01*
X139920759Y-85594496D01*
X139947800Y-85597822D01*
X139968708Y-85602891D01*
X139985378Y-85610013D01*
X139999711Y-85619498D01*
X140013603Y-85631655D01*
X140025516Y-85643353D01*
X140059701Y-85688010D01*
X140085909Y-85745705D01*
X140104196Y-85816599D01*
X140114614Y-85900852D01*
X140115146Y-85908759D01*
X140119964Y-85984936D01*
X140664512Y-85984936D01*
X140664490Y-85795471D01*
X140663337Y-85692889D01*
X140659669Y-85603631D01*
X140655619Y-85555222D01*
X140653137Y-85525549D01*
X140643390Y-85456490D01*
X140630078Y-85394306D01*
X140612851Y-85336845D01*
X140591358Y-85281958D01*
X140575193Y-85247167D01*
X140526930Y-85164012D01*
X140469756Y-85093454D01*
X140402961Y-85034901D01*
X140325831Y-84987758D01*
X140237654Y-84951432D01*
X140210223Y-84942925D01*
X140176452Y-84933785D01*
X140142756Y-84926228D01*
X140107360Y-84920139D01*
X140068493Y-84915406D01*
X140024381Y-84911914D01*
X139973251Y-84909551D01*
X139913331Y-84908202D01*
X139842846Y-84907756D01*
X139760026Y-84908097D01*
X139678680Y-84908922D01*
X139599479Y-84909940D01*
X139534114Y-84910970D01*
X139480794Y-84912108D01*
X139437729Y-84913447D01*
X139403128Y-84915081D01*
X139375202Y-84917107D01*
X139352159Y-84919617D01*
X139332210Y-84922706D01*
X139313565Y-84926470D01*
X139303864Y-84928707D01*
X139204946Y-84959041D01*
X139117090Y-85000393D01*
X139040148Y-85052891D01*
X138973972Y-85116667D01*
X138918415Y-85191849D01*
X138873330Y-85278569D01*
X138855650Y-85323530D01*
X138842645Y-85360802D01*
X138831880Y-85394507D01*
X138823144Y-85426619D01*
X138816229Y-85459111D01*
X138810923Y-85493958D01*
X138807018Y-85533132D01*
X138804304Y-85578607D01*
X138802572Y-85632357D01*
X138801610Y-85696356D01*
X138801211Y-85772578D01*
X138801154Y-85836489D01*
X138801191Y-86137289D01*
X138822682Y-86205919D01*
X138858583Y-86303582D01*
X138903394Y-86393900D01*
X138958837Y-86479623D01*
X139026632Y-86563500D01*
X139085756Y-86625985D01*
X139134667Y-86673230D01*
X139183244Y-86716557D01*
X139234045Y-86757899D01*
X139289627Y-86799190D01*
X139352546Y-86842361D01*
X139425361Y-86889346D01*
X139475595Y-86920622D01*
X139601654Y-87000013D01*
X139713254Y-87073980D01*
X139810544Y-87142644D01*
X139893674Y-87206125D01*
X139962793Y-87264544D01*
X140018050Y-87318022D01*
X140059596Y-87366680D01*
X140087580Y-87410638D01*
X140090905Y-87417449D01*
X140098013Y-87433815D01*
X140103058Y-87449503D01*
X140106386Y-87467589D01*
X140108345Y-87491153D01*
X140109282Y-87523272D01*
X140109544Y-87567024D01*
X140109543Y-87582690D01*
X140108622Y-87643752D01*
X140105376Y-87691501D01*
X140098918Y-87728183D01*
X140088363Y-87756043D01*
X140072827Y-87777329D01*
X140051423Y-87794287D01*
X140023268Y-87809162D01*
X140019655Y-87810797D01*
X140009037Y-87814815D01*
X139995864Y-87818046D01*
X139978301Y-87820603D01*
X139954512Y-87822598D01*
X139922663Y-87824146D01*
X139880918Y-87825358D01*
X139827441Y-87826347D01*
X139760399Y-87827228D01*
X139751172Y-87827334D01*
X139676896Y-87828050D01*
X139616462Y-87828148D01*
X139568090Y-87827332D01*
X139530000Y-87825307D01*
X139500413Y-87821779D01*
X139477548Y-87816451D01*
X139459624Y-87809029D01*
X139444863Y-87799218D01*
X139431483Y-87786721D01*
X139418487Y-87772160D01*
X139394376Y-87737972D01*
X139375094Y-87696505D01*
X139360057Y-87645755D01*
X139348681Y-87583719D01*
X139340381Y-87508394D01*
X139339903Y-87502607D01*
X139334679Y-87438150D01*
X138789397Y-87438150D01*
X138147198Y-87438150D01*
X138147219Y-87434649D01*
X138147742Y-87314416D01*
X138148156Y-87180679D01*
X138148460Y-87033703D01*
X138148652Y-86873754D01*
X138148730Y-86701095D01*
X138148732Y-86668190D01*
X138148728Y-86512118D01*
X138148709Y-86370866D01*
X138148663Y-86243627D01*
X138148581Y-86129596D01*
X138148453Y-86027965D01*
X138148266Y-85937930D01*
X138148012Y-85858682D01*
X138147680Y-85789417D01*
X138147258Y-85729328D01*
X138146737Y-85677608D01*
X138146106Y-85633452D01*
X138145354Y-85596053D01*
X138144472Y-85564605D01*
X138143447Y-85538302D01*
X138142271Y-85516337D01*
X138140933Y-85497904D01*
X138139421Y-85482198D01*
X138137725Y-85468411D01*
X138135836Y-85455737D01*
X138133742Y-85443370D01*
X138132685Y-85437440D01*
X138122921Y-85390159D01*
X138110071Y-85337530D01*
X138096223Y-85287817D01*
X138089331Y-85265894D01*
X138062025Y-85183610D01*
X138117098Y-85038307D01*
X138133933Y-84993658D01*
X138148690Y-84954075D01*
X138160529Y-84921846D01*
X138168611Y-84899261D01*
X138168719Y-84898931D01*
X141234860Y-84898931D01*
X141234860Y-85555222D01*
X141922402Y-85555222D01*
X141922402Y-88469464D01*
X142430246Y-88469464D01*
X143779311Y-88469464D01*
X145657007Y-88469464D01*
X145657007Y-87813173D01*
X144305361Y-87813173D01*
X144305361Y-84898931D01*
X143789704Y-84898931D01*
X143789700Y-85834536D01*
X143789647Y-85976723D01*
X143789492Y-86129781D01*
X143789243Y-86291151D01*
X143788908Y-86458276D01*
X143788495Y-86628599D01*
X143788010Y-86799561D01*
X143787460Y-86968605D01*
X143786855Y-87133174D01*
X143786200Y-87290709D01*
X143785504Y-87438652D01*
X143784773Y-87574447D01*
X143784504Y-87619802D01*
X143779311Y-88469464D01*
X142430246Y-88469464D01*
X142430246Y-85555222D01*
X143109975Y-85555222D01*
X143109975Y-84898931D01*
X141234860Y-84898931D01*
X138168719Y-84898931D01*
X138172096Y-84888607D01*
X138172171Y-84888155D01*
X138164672Y-84886958D01*
X138143428Y-84885868D01*
X138110321Y-84884923D01*
X138067232Y-84884161D01*
X138016043Y-84883620D01*
X137958634Y-84883338D01*
X137930652Y-84883306D01*
X137689133Y-84883306D01*
X137669145Y-84936043D01*
X137663251Y-84951697D01*
X137652353Y-84980742D01*
X137636918Y-85021934D01*
X137617413Y-85074026D01*
X137594302Y-85135772D01*
X137568053Y-85205928D01*
X137539131Y-85283247D01*
X137508003Y-85366484D01*
X137475135Y-85454392D01*
X137440993Y-85545727D01*
X137434524Y-85563035D01*
X137367485Y-85742271D01*
X137303449Y-85913223D01*
X137242575Y-86075475D01*
X137185021Y-86228609D01*
X137130946Y-86372208D01*
X137080509Y-86505855D01*
X137033867Y-86629134D01*
X136991180Y-86741626D01*
X136952607Y-86842915D01*
X136918306Y-86932584D01*
X136888435Y-87010215D01*
X136863153Y-87075392D01*
X136842620Y-87127698D01*
X136826992Y-87166715D01*
X136816430Y-87192027D01*
X136811091Y-87203215D01*
X136810562Y-87203761D01*
X136809681Y-87196128D01*
X136808886Y-87173953D01*
X136808182Y-87138319D01*
X136807576Y-87090309D01*
X136807072Y-87031005D01*
X136806678Y-86961492D01*
X136806399Y-86882852D01*
X136806241Y-86796168D01*
X136806210Y-86702525D01*
X136806311Y-86603004D01*
X136806550Y-86498689D01*
X136806622Y-86475200D01*
X136808951Y-85746640D01*
X136826491Y-85694810D01*
X136850887Y-85642178D01*
X136884050Y-85602159D01*
X136925668Y-85575083D01*
X136946527Y-85567370D01*
X136978898Y-85560763D01*
X137023462Y-85556764D01*
X137081742Y-85555244D01*
X137090930Y-85555222D01*
X137194426Y-85555222D01*
X137211365Y-85510297D01*
X137218002Y-85492589D01*
X137229338Y-85462229D01*
X137244627Y-85421211D01*
X137263128Y-85371532D01*
X137284098Y-85315187D01*
X137306792Y-85254172D01*
X137328483Y-85195825D01*
X137351495Y-85133927D01*
X137372936Y-85076297D01*
X137392161Y-85024663D01*
X137408527Y-84980752D01*
X137421390Y-84946292D01*
X137430106Y-84923010D01*
X137434031Y-84912633D01*
X137434042Y-84912604D01*
X137434654Y-84909141D01*
X137432555Y-84906316D01*
X137426336Y-84904066D01*
X137414585Y-84902326D01*
X137395892Y-84901031D01*
X137368847Y-84900118D01*
X137332040Y-84899521D01*
X137284060Y-84899177D01*
X137223497Y-84899021D01*
X137148940Y-84898989D01*
X137135834Y-84898990D01*
X137061212Y-84899222D01*
X136991420Y-84899857D01*
X136928308Y-84900853D01*
X136873723Y-84902167D01*
X136829514Y-84903756D01*
X136797529Y-84905576D01*
X136781461Y-84907252D01*
X136690499Y-84928944D01*
X136608877Y-84963135D01*
X136536584Y-85009835D01*
X136473609Y-85069059D01*
X136419941Y-85140818D01*
X136375568Y-85225125D01*
X136340479Y-85321993D01*
X136315612Y-85426308D01*
X136313639Y-85437387D01*
X136311852Y-85449086D01*
X136310240Y-85462187D01*
X136308795Y-85477473D01*
X136307508Y-85495725D01*
X136306370Y-85517725D01*
X136305371Y-85544257D01*
X136304503Y-85576100D01*
X136303757Y-85614039D01*
X136303122Y-85658855D01*
X136302591Y-85711331D01*
X136302155Y-85772247D01*
X136301803Y-85842387D01*
X136301527Y-85922533D01*
X136301319Y-86013467D01*
X136301168Y-86115970D01*
X136301066Y-86230826D01*
X136301004Y-86358815D01*
X136300973Y-86500721D01*
X136300963Y-86657326D01*
X136300962Y-86688104D01*
X135185748Y-86688104D01*
X135120803Y-86481060D01*
X135419746Y-85684136D01*
X135459762Y-85577447D01*
X135498207Y-85474917D01*
X135534729Y-85377486D01*
X135568975Y-85286096D01*
X135600594Y-85201689D01*
X135629232Y-85125204D01*
X135654538Y-85057585D01*
X135676160Y-84999771D01*
X135693744Y-84952705D01*
X135706938Y-84917328D01*
X135715390Y-84894580D01*
X135718749Y-84885404D01*
X135718793Y-84885259D01*
X135711315Y-84884787D01*
X135690066Y-84884364D01*
X135656903Y-84884004D01*
X135613679Y-84883721D01*
X135562251Y-84883529D01*
X135504473Y-84883440D01*
X135470833Y-84883440D01*
X135222771Y-84883574D01*
X135047228Y-85356125D01*
X135016790Y-85437868D01*
X134987878Y-85515131D01*
X134960958Y-85586692D01*
X134936498Y-85651329D01*
X134914964Y-85707821D01*
X134896822Y-85754945D01*
X134882539Y-85791478D01*
X134872582Y-85816200D01*
X134867416Y-85827888D01*
X134866843Y-85828676D01*
X134863274Y-85821582D01*
X134854597Y-85801109D01*
X134841291Y-85768471D01*
X134823836Y-85724882D01*
X134802713Y-85671554D01*
X134778402Y-85609702D01*
X134751382Y-85540539D01*
X134722133Y-85465280D01*
X134691135Y-85385136D01*
X134679898Y-85355991D01*
X134497796Y-84883306D01*
X134032457Y-84883306D01*
X134085754Y-85041518D01*
X134096308Y-85072843D01*
X134111388Y-85117587D01*
X134130526Y-85174364D01*
X134153253Y-85241787D01*
X134179103Y-85318468D01*
X134207607Y-85403020D01*
X134238299Y-85494057D01*
X134270710Y-85590191D01*
X134304373Y-85690035D01*
X134338820Y-85792201D01*
X134366925Y-85875554D01*
X134400217Y-85974562D01*
X134431978Y-86069541D01*
X134461860Y-86159423D01*
X134489516Y-86243139D01*
X134514599Y-86319621D01*
X134536761Y-86387801D01*
X134555656Y-86446610D01*
X134570937Y-86494981D01*
X134582256Y-86531845D01*
X134589266Y-86556134D01*
X134591620Y-86566779D01*
X134591599Y-86567003D01*
X134588641Y-86575428D01*
X134580562Y-86597415D01*
X134567761Y-86631907D01*
X134550634Y-86677847D01*
X134529580Y-86734178D01*
X134504995Y-86799843D01*
X134477279Y-86873785D01*
X134446829Y-86954948D01*
X134414043Y-87042273D01*
X134379318Y-87134704D01*
X134343052Y-87231184D01*
X134305643Y-87330656D01*
X134267489Y-87432063D01*
X134228988Y-87534348D01*
X134190537Y-87636454D01*
X134152534Y-87737324D01*
X134115377Y-87835902D01*
X134079464Y-87931129D01*
X134045192Y-88021949D01*
X134012960Y-88107305D01*
X133983165Y-88186140D01*
X133956205Y-88257398D01*
X133932477Y-88320020D01*
X133912380Y-88372950D01*
X133896312Y-88415131D01*
X133884669Y-88445507D01*
X133883674Y-88448086D01*
X133875337Y-88469680D01*
X130381919Y-88469680D01*
X130382056Y-88469464D01*
X130470341Y-88329808D01*
X130578580Y-88130729D01*
X130671815Y-87927454D01*
X130750081Y-87719861D01*
X130813412Y-87507828D01*
X130861841Y-87291235D01*
X130895403Y-87069960D01*
X130914131Y-86843881D01*
X130918059Y-86612877D01*
X130907221Y-86376827D01*
X130881652Y-86135608D01*
X130862591Y-86008375D01*
X130817212Y-85779819D01*
X130757087Y-85555692D01*
X130682519Y-85336709D01*
X130593813Y-85123587D01*
X130491276Y-84917043D01*
X130485277Y-84906744D01*
X131663958Y-84906744D01*
X131663958Y-88469464D01*
X132234306Y-88469464D01*
X132234306Y-87750669D01*
X132234378Y-87643866D01*
X132234588Y-87542230D01*
X132234925Y-87446803D01*
X132235381Y-87358626D01*
X132235945Y-87278741D01*
X132236607Y-87208189D01*
X132237357Y-87148013D01*
X132238186Y-87099253D01*
X132239085Y-87062951D01*
X132240042Y-87040149D01*
X132241048Y-87031888D01*
X132241090Y-87031875D01*
X132245284Y-87038794D01*
X132255654Y-87058925D01*
X132271748Y-87091326D01*
X132293117Y-87135060D01*
X132319308Y-87189185D01*
X132349871Y-87252763D01*
X132384355Y-87324852D01*
X132422309Y-87404514D01*
X132463282Y-87490808D01*
X132506823Y-87582794D01*
X132552481Y-87679533D01*
X132585975Y-87750669D01*
X132924076Y-88469464D01*
X133216860Y-88469464D01*
X133292261Y-88469427D01*
X133353478Y-88469273D01*
X133401953Y-88468932D01*
X133439129Y-88468336D01*
X133466447Y-88467417D01*
X133485350Y-88466106D01*
X133497280Y-88464337D01*
X133503679Y-88462039D01*
X133505989Y-88459145D01*
X133505713Y-88455791D01*
X133502149Y-88447041D01*
X133492708Y-88424845D01*
X133477770Y-88390076D01*
X133457713Y-88343607D01*
X133432916Y-88286311D01*
X133403758Y-88219062D01*
X133370619Y-88142732D01*
X133333878Y-88058195D01*
X133293913Y-87966323D01*
X133251104Y-87867990D01*
X133205829Y-87764068D01*
X133158468Y-87655432D01*
X133109694Y-87543625D01*
X133060664Y-87431149D01*
X133013402Y-87322490D01*
X132968283Y-87218524D01*
X132925684Y-87120127D01*
X132885978Y-87028173D01*
X132849542Y-86943537D01*
X132816751Y-86867094D01*
X132787980Y-86799719D01*
X132763605Y-86742288D01*
X132744000Y-86695675D01*
X132729542Y-86660755D01*
X132720606Y-86638403D01*
X132717566Y-86629507D01*
X132720800Y-86620546D01*
X132730241Y-86598313D01*
X132745485Y-86563696D01*
X132766127Y-86517580D01*
X132791762Y-86460853D01*
X132821986Y-86394399D01*
X132856393Y-86319107D01*
X132894579Y-86235862D01*
X132936138Y-86145551D01*
X132980666Y-86049061D01*
X133027759Y-85947277D01*
X133077011Y-85841086D01*
X133112674Y-85764349D01*
X133163139Y-85655822D01*
X133211734Y-85551250D01*
X133258057Y-85451504D01*
X133301705Y-85357456D01*
X133342272Y-85269978D01*
X133379358Y-85189939D01*
X133412557Y-85118213D01*
X133441467Y-85055670D01*
X133465684Y-85003182D01*
X133484805Y-84961619D01*
X133498427Y-84931853D01*
X133506146Y-84914757D01*
X133507822Y-84910781D01*
X133500297Y-84909864D01*
X133478871Y-84909020D01*
X133445269Y-84908273D01*
X133401218Y-84907648D01*
X133348443Y-84907169D01*
X133288668Y-84906860D01*
X133223619Y-84906745D01*
X133220651Y-84906744D01*
X132933481Y-84906744D01*
X132594522Y-85549362D01*
X132545277Y-85642633D01*
X132497955Y-85732082D01*
X132453082Y-85816725D01*
X132411183Y-85895581D01*
X132372785Y-85967665D01*
X132338413Y-86031994D01*
X132308591Y-86087585D01*
X132283847Y-86133454D01*
X132264705Y-86168618D01*
X132251691Y-86192095D01*
X132245330Y-86202899D01*
X132244935Y-86203420D01*
X132243016Y-86203568D01*
X132241334Y-86199012D01*
X132239876Y-86188857D01*
X132238626Y-86172204D01*
X132237570Y-86148156D01*
X132236693Y-86115814D01*
X132235979Y-86074282D01*
X132235415Y-86022662D01*
X132234984Y-85960055D01*
X132234673Y-85885565D01*
X132234466Y-85798293D01*
X132234349Y-85697343D01*
X132234307Y-85581816D01*
X132234306Y-85560803D01*
X132234306Y-84906744D01*
X131663958Y-84906744D01*
X130485277Y-84906744D01*
X130375211Y-84717792D01*
X130245924Y-84526550D01*
X130212220Y-84480937D01*
X130117569Y-84361378D01*
X130012256Y-84239661D01*
X129900001Y-84119738D01*
X129784524Y-84005564D01*
X129669545Y-83901091D01*
X129654069Y-83887780D01*
X129620991Y-83858945D01*
X129592559Y-83833045D01*
X129570748Y-83811969D01*
X129557535Y-83797608D01*
X129554454Y-83792448D01*
X129559415Y-83785853D01*
X129574352Y-83769501D01*
X129599346Y-83743309D01*
X129634480Y-83707197D01*
X129679834Y-83661082D01*
X129735489Y-83604884D01*
X129801528Y-83538521D01*
X129878032Y-83461911D01*
X129965081Y-83374973D01*
X130062758Y-83277626D01*
X130171144Y-83169788D01*
X130290320Y-83051377D01*
X130420368Y-82922312D01*
X130561370Y-82782512D01*
X130713405Y-82631895D01*
X130795160Y-82550947D01*
X130860168Y-82486819D01*
X130915072Y-82433228D01*
X130960665Y-82389511D01*
X130997738Y-82355005D01*
X131027084Y-82329048D01*
X131049495Y-82310976D01*
X131065763Y-82300126D01*
X131076680Y-82295836D01*
X131083040Y-82297442D01*
X131085633Y-82304281D01*
X131085798Y-82307717D01*
X131092255Y-82315909D01*
X131110713Y-82331281D01*
X131139798Y-82352926D01*
X131178139Y-82379939D01*
X131224363Y-82411415D01*
X131277098Y-82446449D01*
X131334973Y-82484134D01*
X131396614Y-82523565D01*
X131460650Y-82563838D01*
X131525709Y-82604046D01*
X131590418Y-82643284D01*
X131630980Y-82667449D01*
X131892315Y-82815107D01*
X132155898Y-82950520D01*
X132420555Y-83073193D01*
X132685118Y-83182629D01*
X132948416Y-83278333D01*
X133209277Y-83359808D01*
X133363659Y-83401536D01*
X133453318Y-83423663D01*
X133541950Y-83444279D01*
X133627701Y-83463029D01*
X133708715Y-83479557D01*
X133783140Y-83493510D01*
X133849121Y-83504532D01*
X133904804Y-83512269D01*
X133948334Y-83516367D01*
X133966835Y-83516938D01*
X133994320Y-83517630D01*
X134014452Y-83519734D01*
X134023350Y-83522815D01*
X134023479Y-83523262D01*
X134029711Y-83528625D01*
X134048847Y-83533216D01*
X134081544Y-83537110D01*
X134128461Y-83540383D01*
X134190255Y-83543110D01*
X134199244Y-83543423D01*
X134238752Y-83545157D01*
X134272194Y-83547377D01*
X134296707Y-83549835D01*
X134309429Y-83552283D01*
X134310560Y-83553066D01*
X134318719Y-83555659D01*
X134338336Y-83556885D01*
X134365284Y-83556499D01*
X134367230Y-83556411D01*
X134394160Y-83555982D01*
X134413687Y-83557287D01*
X134421877Y-83560046D01*
X134421924Y-83560317D01*
X134429184Y-83562767D01*
X134448831Y-83564316D01*
X134477644Y-83564805D01*
X134503960Y-83564362D01*
X134537626Y-83563918D01*
X134564600Y-83564635D01*
X134581662Y-83566359D01*
X134586016Y-83568269D01*
X134593444Y-83570180D01*
X134614188Y-83571862D01*
X134645937Y-83573222D01*
X134686380Y-83574169D01*
X134733209Y-83574610D01*
X134746184Y-83574631D01*
X134794297Y-83574336D01*
X134836628Y-83573512D01*
X134870865Y-83572251D01*
X134894701Y-83570644D01*
X134905823Y-83568784D01*
X134906347Y-83568269D01*
X134913614Y-83565876D01*
X134933267Y-83564373D01*
X134962083Y-83563912D01*
X134988398Y-83564362D01*
X135022064Y-83564955D01*
X135049035Y-83564640D01*
X135066089Y-83563505D01*
X135070435Y-83562133D01*
X135077713Y-83559835D01*
X135097487Y-83557139D01*
X135126644Y-83554398D01*
X135158314Y-83552186D01*
X135332379Y-83537649D01*
X135516106Y-83514584D01*
X135706479Y-83483602D01*
X135900483Y-83445308D01*
X136095101Y-83400312D01*
X136287317Y-83349222D01*
X136474117Y-83292646D01*
X136519726Y-83277679D01*
X136770817Y-83186886D01*
X137023335Y-83081741D01*
X137275524Y-82963191D01*
X137525626Y-82832181D01*
X137771882Y-82689659D01*
X138012535Y-82536570D01*
X138245827Y-82373860D01*
X138366517Y-82283563D01*
X138396680Y-82261658D01*
X138421774Y-82245784D01*
X138439150Y-82237527D01*
X138444647Y-82236851D01*
X138454147Y-82242341D01*
G37*
D14*
X125620000Y-74820000D02*
X127000000Y-74820000D01*
X125620000Y-76200000D02*
X125620000Y-74820000D01*
X125620000Y-77470000D02*
X125620000Y-176640000D01*
X125620000Y-77470000D02*
X128380000Y-77470000D01*
X128380000Y-77470000D02*
X128380000Y-176640000D01*
X148480000Y-74820000D02*
X149860000Y-74820000D01*
X148480000Y-76200000D02*
X148480000Y-74820000D01*
X148480000Y-77470000D02*
X148480000Y-176640000D01*
X148480000Y-77470000D02*
X151240000Y-77470000D01*
X151240000Y-77470000D02*
X151240000Y-176640000D01*
X148480000Y-179070000D02*
X148480000Y-176270000D01*
X148480000Y-179070000D02*
X148480000Y-181720000D01*
X148480000Y-181720000D02*
X151240000Y-181720000D01*
X151240000Y-176300000D02*
X151240000Y-181720000D01*
%LPC*%
D16*
X137475406Y-121941394D03*
X137192562Y-122224236D03*
X136909720Y-122507080D03*
X136626878Y-122789922D03*
X136344034Y-123072766D03*
X136061192Y-123355608D03*
X135778350Y-123638451D03*
X135495507Y-123921293D03*
X135212665Y-124204135D03*
X134929821Y-124486979D03*
X134646979Y-124769821D03*
X134364135Y-125052665D03*
X134081293Y-125335507D03*
X133798451Y-125618350D03*
X133515608Y-125901192D03*
X133232766Y-126184034D03*
X132949922Y-126466878D03*
X132667080Y-126749720D03*
X132384236Y-127032562D03*
X132101394Y-127315406D03*
D17*
X132101394Y-129224594D03*
X132384236Y-129507438D03*
X132667080Y-129790280D03*
X132949922Y-130073122D03*
X133232766Y-130355966D03*
X133515608Y-130638808D03*
X133798451Y-130921650D03*
X134081293Y-131204493D03*
X134364135Y-131487335D03*
X134646979Y-131770179D03*
X134929821Y-132053021D03*
X135212665Y-132335865D03*
X135495507Y-132618707D03*
X135778350Y-132901549D03*
X136061192Y-133184392D03*
X136344034Y-133467234D03*
X136626878Y-133750078D03*
X136909720Y-134032920D03*
X137192562Y-134315764D03*
X137475406Y-134598606D03*
D16*
X139384594Y-134598606D03*
X139667438Y-134315764D03*
X139950280Y-134032920D03*
X140233122Y-133750078D03*
X140515966Y-133467234D03*
X140798808Y-133184392D03*
X141081650Y-132901549D03*
X141364493Y-132618707D03*
X141647335Y-132335865D03*
X141930179Y-132053021D03*
X142213021Y-131770179D03*
X142495865Y-131487335D03*
X142778707Y-131204493D03*
X143061549Y-130921650D03*
X143344392Y-130638808D03*
X143627234Y-130355966D03*
X143910078Y-130073122D03*
X144192920Y-129790280D03*
X144475764Y-129507438D03*
X144758606Y-129224594D03*
D17*
X144758606Y-127315406D03*
X144475764Y-127032562D03*
X144192920Y-126749720D03*
X143910078Y-126466878D03*
X143627234Y-126184034D03*
X143344392Y-125901192D03*
X143061549Y-125618350D03*
X142778707Y-125335507D03*
X142495865Y-125052665D03*
X142213021Y-124769821D03*
X141930179Y-124486979D03*
X141647335Y-124204135D03*
X141364493Y-123921293D03*
X141081650Y-123638451D03*
X140798808Y-123355608D03*
X140515966Y-123072766D03*
X140233122Y-122789922D03*
X139950280Y-122507080D03*
X139667438Y-122224236D03*
X139384594Y-121941394D03*
D18*
X138430000Y-128270000D03*
D19*
X127000000Y-177800000D03*
X127000000Y-180340000D03*
X127000000Y-76200000D03*
D20*
X127000000Y-78740000D03*
D19*
X127000000Y-81280000D03*
X127000000Y-83820000D03*
X127000000Y-86360000D03*
X127000000Y-88900000D03*
X127000000Y-91440000D03*
X127000000Y-93980000D03*
X127000000Y-96520000D03*
X127000000Y-99060000D03*
X127000000Y-101600000D03*
X127000000Y-104140000D03*
X127000000Y-106680000D03*
X127000000Y-109220000D03*
X127000000Y-111760000D03*
X127000000Y-114300000D03*
X127000000Y-116840000D03*
X127000000Y-119380000D03*
X127000000Y-121920000D03*
X127000000Y-124460000D03*
X127000000Y-127000000D03*
X127000000Y-129540000D03*
X127000000Y-132080000D03*
X127000000Y-134620000D03*
X127000000Y-137160000D03*
X127000000Y-139700000D03*
X127000000Y-142240000D03*
X127000000Y-144780000D03*
X127000000Y-147320000D03*
X127000000Y-149860000D03*
X127000000Y-152400000D03*
X127000000Y-154940000D03*
X127000000Y-157480000D03*
X127000000Y-160020000D03*
X127000000Y-162560000D03*
X127000000Y-165100000D03*
X127000000Y-167640000D03*
X127000000Y-170180000D03*
X127000000Y-172720000D03*
X127000000Y-175260000D03*
X149860000Y-76200000D03*
X149860000Y-78740000D03*
X149860000Y-81280000D03*
X149860000Y-83820000D03*
X149860000Y-86360000D03*
X149860000Y-88900000D03*
X149860000Y-91440000D03*
X149860000Y-93980000D03*
X149860000Y-96520000D03*
X149860000Y-99060000D03*
X149860000Y-101600000D03*
X149860000Y-104140000D03*
X149860000Y-106680000D03*
X149860000Y-109220000D03*
X149860000Y-111760000D03*
X149860000Y-114300000D03*
X149860000Y-116840000D03*
X149860000Y-119380000D03*
X149860000Y-121920000D03*
X149860000Y-124460000D03*
X149860000Y-127000000D03*
X149860000Y-129540000D03*
X149860000Y-132080000D03*
X149860000Y-134620000D03*
X149860000Y-137160000D03*
X149860000Y-139700000D03*
X149860000Y-142240000D03*
X149860000Y-144780000D03*
X149860000Y-147320000D03*
X149860000Y-149860000D03*
X149860000Y-152400000D03*
X149860000Y-154940000D03*
X149860000Y-157480000D03*
X149860000Y-160020000D03*
X149860000Y-162560000D03*
X149860000Y-165100000D03*
X149860000Y-167640000D03*
X149860000Y-170180000D03*
X149860000Y-172720000D03*
X149860000Y-175260000D03*
X149860000Y-177800000D03*
X149860000Y-180340000D03*
%LPD*%
M02*
