G04 #@! TF.GenerationSoftware,KiCad,Pcbnew,9.0.6*
G04 #@! TF.CreationDate,2026-01-07T12:33:40-06:00*
G04 #@! TF.ProjectId,QFN-80_10x10_P0.4,51464e2d-3830-45f3-9130-7831305f5030,rev?*
G04 #@! TF.SameCoordinates,Original*
G04 #@! TF.FileFunction,Copper,L1,Top*
G04 #@! TF.FilePolarity,Positive*
%FSLAX46Y46*%
G04 Gerber Fmt 4.6, Leading zero omitted, Abs format (unit mm)*
G04 Created by KiCad (PCBNEW 9.0.6) date 2026-01-07 12:33:40*
%MOMM*%
%LPD*%
G01*
G04 APERTURE LIST*
G04 Aperture macros list*
%AMRoundRect*
0 Rectangle with rounded corners*
0 $1 Rounding radius*
0 $2 $3 $4 $5 $6 $7 $8 $9 X,Y pos of 4 corners*
0 Add a 4 corners polygon primitive as box body*
4,1,4,$2,$3,$4,$5,$6,$7,$8,$9,$2,$3,0*
0 Add four circle primitives for the rounded corners*
1,1,$1+$1,$2,$3*
1,1,$1+$1,$4,$5*
1,1,$1+$1,$6,$7*
1,1,$1+$1,$8,$9*
0 Add four rect primitives between the rounded corners*
20,1,$1+$1,$2,$3,$4,$5,0*
20,1,$1+$1,$4,$5,$6,$7,0*
20,1,$1+$1,$6,$7,$8,$9,0*
20,1,$1+$1,$8,$9,$2,$3,0*%
%AMRotRect*
0 Rectangle, with rotation*
0 The origin of the aperture is its center*
0 $1 length*
0 $2 width*
0 $3 Rotation angle, in degrees counterclockwise*
0 Add horizontal line*
21,1,$1,$2,0,0,$3*%
G04 Aperture macros list end*
G04 #@! TA.AperFunction,SMDPad,CuDef*
%ADD10RoundRect,0.050000X-0.424264X0.353553X0.353553X-0.424264X0.424264X-0.353553X-0.353553X0.424264X0*%
G04 #@! TD*
G04 #@! TA.AperFunction,SMDPad,CuDef*
%ADD11RoundRect,0.050000X-0.424264X-0.353553X-0.353553X-0.424264X0.424264X0.353553X0.353553X0.424264X0*%
G04 #@! TD*
G04 #@! TA.AperFunction,HeatsinkPad*
%ADD12C,0.500000*%
G04 #@! TD*
G04 #@! TA.AperFunction,HeatsinkPad*
%ADD13RotRect,4.750000X4.750000X315.000000*%
G04 #@! TD*
G04 #@! TA.AperFunction,ComponentPad*
%ADD14C,1.700000*%
G04 #@! TD*
G04 #@! TA.AperFunction,ComponentPad*
%ADD15R,1.700000X1.700000*%
G04 #@! TD*
G04 #@! TA.AperFunction,ViaPad*
%ADD16C,0.600000*%
G04 #@! TD*
G04 #@! TA.AperFunction,Conductor*
%ADD17C,0.200000*%
G04 #@! TD*
G04 APERTURE END LIST*
D10*
X137475406Y-121941394D03*
X137192562Y-122224236D03*
X136909720Y-122507080D03*
X136626878Y-122789922D03*
X136344034Y-123072766D03*
X136061192Y-123355608D03*
X135778350Y-123638451D03*
X135495507Y-123921293D03*
X135212665Y-124204135D03*
X134929821Y-124486979D03*
X134646979Y-124769821D03*
X134364135Y-125052665D03*
X134081293Y-125335507D03*
X133798451Y-125618350D03*
X133515608Y-125901192D03*
X133232766Y-126184034D03*
X132949922Y-126466878D03*
X132667080Y-126749720D03*
X132384236Y-127032562D03*
X132101394Y-127315406D03*
D11*
X132101394Y-129224594D03*
X132384236Y-129507438D03*
X132667080Y-129790280D03*
X132949922Y-130073122D03*
X133232766Y-130355966D03*
X133515608Y-130638808D03*
X133798451Y-130921650D03*
X134081293Y-131204493D03*
X134364135Y-131487335D03*
X134646979Y-131770179D03*
X134929821Y-132053021D03*
X135212665Y-132335865D03*
X135495507Y-132618707D03*
X135778350Y-132901549D03*
X136061192Y-133184392D03*
X136344034Y-133467234D03*
X136626878Y-133750078D03*
X136909720Y-134032920D03*
X137192562Y-134315764D03*
X137475406Y-134598606D03*
D10*
X139384594Y-134598606D03*
X139667438Y-134315764D03*
X139950280Y-134032920D03*
X140233122Y-133750078D03*
X140515966Y-133467234D03*
X140798808Y-133184392D03*
X141081650Y-132901549D03*
X141364493Y-132618707D03*
X141647335Y-132335865D03*
X141930179Y-132053021D03*
X142213021Y-131770179D03*
X142495865Y-131487335D03*
X142778707Y-131204493D03*
X143061549Y-130921650D03*
X143344392Y-130638808D03*
X143627234Y-130355966D03*
X143910078Y-130073122D03*
X144192920Y-129790280D03*
X144475764Y-129507438D03*
X144758606Y-129224594D03*
D11*
X144758606Y-127315406D03*
X144475764Y-127032562D03*
X144192920Y-126749720D03*
X143910078Y-126466878D03*
X143627234Y-126184034D03*
X143344392Y-125901192D03*
X143061549Y-125618350D03*
X142778707Y-125335507D03*
X142495865Y-125052665D03*
X142213021Y-124769821D03*
X141930179Y-124486979D03*
X141647335Y-124204135D03*
X141364493Y-123921293D03*
X141081650Y-123638451D03*
X140798808Y-123355608D03*
X140515966Y-123072766D03*
X140233122Y-122789922D03*
X139950280Y-122507080D03*
X139667438Y-122224236D03*
X139384594Y-121941394D03*
D12*
X138430000Y-126219390D03*
X137404695Y-127244695D03*
X136379390Y-128270000D03*
X139455305Y-127244695D03*
X138430000Y-128270000D03*
D13*
X138430000Y-128270000D03*
D12*
X137404695Y-129295305D03*
X140480610Y-128270000D03*
X139455305Y-129295305D03*
X138430000Y-130320610D03*
D14*
X127000000Y-177800000D03*
X127000000Y-180340000D03*
X127000000Y-76200000D03*
D15*
X127000000Y-78740000D03*
D14*
X127000000Y-81280000D03*
X127000000Y-83820000D03*
X127000000Y-86360000D03*
X127000000Y-88900000D03*
X127000000Y-91440000D03*
X127000000Y-93980000D03*
X127000000Y-96520000D03*
X127000000Y-99060000D03*
X127000000Y-101600000D03*
X127000000Y-104140000D03*
X127000000Y-106680000D03*
X127000000Y-109220000D03*
X127000000Y-111760000D03*
X127000000Y-114300000D03*
X127000000Y-116840000D03*
X127000000Y-119380000D03*
X127000000Y-121920000D03*
X127000000Y-124460000D03*
X127000000Y-127000000D03*
X127000000Y-129540000D03*
X127000000Y-132080000D03*
X127000000Y-134620000D03*
X127000000Y-137160000D03*
X127000000Y-139700000D03*
X127000000Y-142240000D03*
X127000000Y-144780000D03*
X127000000Y-147320000D03*
X127000000Y-149860000D03*
X127000000Y-152400000D03*
X127000000Y-154940000D03*
X127000000Y-157480000D03*
X127000000Y-160020000D03*
X127000000Y-162560000D03*
X127000000Y-165100000D03*
X127000000Y-167640000D03*
X127000000Y-170180000D03*
X127000000Y-172720000D03*
X127000000Y-175260000D03*
X149860000Y-76200000D03*
X149860000Y-78740000D03*
X149860000Y-81280000D03*
X149860000Y-83820000D03*
X149860000Y-86360000D03*
X149860000Y-88900000D03*
X149860000Y-91440000D03*
X149860000Y-93980000D03*
X149860000Y-96520000D03*
X149860000Y-99060000D03*
X149860000Y-101600000D03*
X149860000Y-104140000D03*
X149860000Y-106680000D03*
X149860000Y-109220000D03*
X149860000Y-111760000D03*
X149860000Y-114300000D03*
X149860000Y-116840000D03*
X149860000Y-119380000D03*
X149860000Y-121920000D03*
X149860000Y-124460000D03*
X149860000Y-127000000D03*
X149860000Y-129540000D03*
X149860000Y-132080000D03*
X149860000Y-134620000D03*
X149860000Y-137160000D03*
X149860000Y-139700000D03*
X149860000Y-142240000D03*
X149860000Y-144780000D03*
X149860000Y-147320000D03*
X149860000Y-149860000D03*
X149860000Y-152400000D03*
X149860000Y-154940000D03*
X149860000Y-157480000D03*
X149860000Y-160020000D03*
X149860000Y-162560000D03*
X149860000Y-165100000D03*
X149860000Y-167640000D03*
X149860000Y-170180000D03*
X149860000Y-172720000D03*
X149860000Y-175260000D03*
X149860000Y-177800000D03*
X149860000Y-180340000D03*
D16*
X138430000Y-120650000D03*
X138430000Y-135890000D03*
X138430000Y-93980000D03*
X138430000Y-162560000D03*
D17*
X146050666Y-117603127D02*
X146558666Y-117095127D01*
X146558666Y-115317127D02*
X147066666Y-114809127D01*
X147574666Y-110745127D02*
X148082666Y-110237127D01*
X146050665Y-119381127D02*
X146050666Y-117603127D01*
X148082666Y-108459127D02*
X149860666Y-106681127D01*
X148082666Y-110237127D02*
X148082666Y-108459127D01*
X147574666Y-112523127D02*
X147574666Y-110745127D01*
X142355109Y-125195213D02*
X145542666Y-122007656D01*
X146558666Y-117095127D02*
X146558666Y-115317127D01*
X147066666Y-114809127D02*
X147066666Y-113031127D01*
X147066666Y-113031127D02*
X147574666Y-112523127D01*
X145542666Y-119889127D02*
X146050665Y-119381127D01*
X145542666Y-122007656D02*
X145542666Y-119889127D01*
X129794000Y-136652000D02*
X129794000Y-138430000D01*
X129286000Y-138938000D02*
X129286000Y-140716000D01*
X133939872Y-130780229D02*
X130302000Y-134418101D01*
X128778000Y-141224000D02*
X128778000Y-143002000D01*
X128778000Y-143002000D02*
X127000000Y-144780000D01*
X130302000Y-134418101D02*
X130302000Y-136144000D01*
X129794000Y-138430000D02*
X129286000Y-138938000D01*
X129286000Y-140716000D02*
X128778000Y-141224000D01*
X130302000Y-136144000D02*
X129794000Y-136652000D01*
X129794666Y-107951127D02*
X129286666Y-107443127D01*
X131318666Y-116587127D02*
X131318666Y-114809127D01*
X128778666Y-105157127D02*
X128778666Y-103379127D01*
X130302666Y-112015127D02*
X130302666Y-110237127D01*
X129286666Y-107443127D02*
X129286666Y-105665127D01*
X135071909Y-124629527D02*
X132334666Y-121892284D01*
X130810666Y-112523127D02*
X130302666Y-112015127D01*
X132334666Y-119381127D02*
X131826666Y-118873127D01*
X131826667Y-117095127D02*
X131318666Y-116587127D01*
X130302666Y-110237127D02*
X129794666Y-109729127D01*
X129286666Y-105665127D02*
X128778666Y-105157127D01*
X131318666Y-114809127D02*
X130810666Y-114301128D01*
X132334666Y-121892284D02*
X132334666Y-119381127D01*
X130810666Y-114301128D02*
X130810666Y-112523127D01*
X128778666Y-103379127D02*
X127000666Y-101601127D01*
X129794666Y-109729127D02*
X129794666Y-107951127D01*
X131826666Y-118873127D02*
X131826667Y-117095127D01*
X129794667Y-90171127D02*
X129286666Y-89663127D01*
X137051808Y-122649628D02*
X135890666Y-121488485D01*
X129286666Y-87885127D02*
X128778666Y-87377128D01*
X132334666Y-101601127D02*
X131826666Y-101093127D01*
X135890666Y-117603127D02*
X135382666Y-117095127D01*
X130810666Y-96521127D02*
X130810666Y-94743127D01*
X135382666Y-117095127D02*
X135382666Y-115317127D01*
X134874666Y-114809127D02*
X134874666Y-113031127D01*
X129794666Y-91949127D02*
X129794667Y-90171127D01*
X133350666Y-107951127D02*
X133350666Y-106173127D01*
X134874666Y-113031127D02*
X134366666Y-112523127D01*
X134366666Y-112523127D02*
X134366666Y-110745127D01*
X132842666Y-105665126D02*
X132842666Y-103887128D01*
X133858666Y-108459127D02*
X133350666Y-107951127D01*
X132842666Y-103887128D02*
X132334666Y-103379127D01*
X133350666Y-106173127D02*
X132842666Y-105665126D01*
X130302666Y-92457127D02*
X129794666Y-91949127D01*
X132334666Y-103379127D02*
X132334666Y-101601127D01*
X130810666Y-94743127D02*
X130302666Y-94235127D01*
X130302666Y-94235127D02*
X130302666Y-92457127D01*
X133858666Y-110237127D02*
X133858666Y-108459127D01*
X131318666Y-97029127D02*
X130810666Y-96521127D01*
X128778666Y-87377128D02*
X128778666Y-85599127D01*
X128778666Y-85599127D02*
X127000666Y-83821127D01*
X129286666Y-89663127D02*
X129286666Y-87885127D01*
X131826666Y-99315127D02*
X131318666Y-98807127D01*
X135382666Y-115317127D02*
X134874666Y-114809127D01*
X134366666Y-110745127D02*
X133858666Y-110237127D01*
X131318666Y-98807127D02*
X131318666Y-97029127D01*
X131826666Y-101093127D02*
X131826666Y-99315127D01*
X135890666Y-121488485D02*
X135890666Y-117603127D01*
X128778666Y-94997127D02*
X128778667Y-93219127D01*
X136203280Y-123498156D02*
X134366666Y-121661542D01*
X132334666Y-109221127D02*
X131826666Y-108713126D01*
X132334666Y-110999127D02*
X132334666Y-109221127D01*
X129794666Y-99569127D02*
X129794666Y-97791127D01*
X133858666Y-116079127D02*
X133350666Y-115571127D01*
X133350666Y-115571127D02*
X133350666Y-113793127D01*
X129286666Y-97283127D02*
X129286666Y-95505127D01*
X133858666Y-117857127D02*
X133858666Y-116079127D01*
X131826666Y-108713126D02*
X131826666Y-106935128D01*
X129794666Y-97791127D02*
X129286666Y-97283127D01*
X130810666Y-104141127D02*
X130810666Y-102363127D01*
X133350666Y-113793127D02*
X132842666Y-113285127D01*
X131826666Y-106935128D02*
X131318666Y-106427127D01*
X132842666Y-111507127D02*
X132334666Y-110999127D01*
X134366666Y-118365127D02*
X133858666Y-117857127D01*
X128778667Y-93219127D02*
X127000666Y-91441127D01*
X131318666Y-104649127D02*
X130810666Y-104141127D01*
X134366666Y-121661542D02*
X134366666Y-118365127D01*
X130302666Y-101855127D02*
X130302666Y-100077127D01*
X130810666Y-102363127D02*
X130302666Y-101855127D01*
X129286666Y-95505127D02*
X128778666Y-94997127D01*
X130302666Y-100077127D02*
X129794666Y-99569127D01*
X131318666Y-106427127D02*
X131318666Y-104649127D01*
X132842666Y-113285127D02*
X132842666Y-111507127D01*
X131318666Y-109729127D02*
X130810666Y-109221127D01*
X132334666Y-114301127D02*
X131826666Y-113793127D01*
X130810666Y-107443127D02*
X130302666Y-106935127D01*
X129794666Y-102871128D02*
X129286666Y-102363127D01*
X131826666Y-113793127D02*
X131826666Y-112015127D01*
X129286666Y-100585127D02*
X128778666Y-100077127D01*
X130302666Y-105157127D02*
X129794667Y-104649127D01*
X132334666Y-116079127D02*
X132334666Y-114301127D01*
X133350666Y-121776914D02*
X133350666Y-118873127D01*
X131826666Y-112015127D02*
X131318666Y-111507127D01*
X128778666Y-100077127D02*
X128778666Y-98299127D01*
X135637594Y-124063842D02*
X133350666Y-121776914D01*
X128778666Y-98299127D02*
X127000666Y-96521127D01*
X133350666Y-118873127D02*
X132842666Y-118365128D01*
X132842666Y-118365128D02*
X132842666Y-116587127D01*
X131318666Y-111507127D02*
X131318666Y-109729127D01*
X130810666Y-109221127D02*
X130810666Y-107443127D01*
X132842666Y-116587127D02*
X132334666Y-116079127D01*
X129286666Y-102363127D02*
X129286666Y-100585127D01*
X130302666Y-106935127D02*
X130302666Y-105157127D01*
X129794667Y-104649127D02*
X129794666Y-102871128D01*
X129794666Y-86869127D02*
X129794666Y-85091127D01*
X130810666Y-89663127D02*
X130302666Y-89155127D01*
X129286666Y-84583127D02*
X129286666Y-82805127D01*
X131826666Y-96013127D02*
X131826666Y-94235126D01*
X135890666Y-114301127D02*
X135890666Y-112523127D01*
X135890666Y-112523127D02*
X135382666Y-112015127D01*
X133350666Y-102871127D02*
X133350666Y-101093127D01*
X134874666Y-109729126D02*
X134874666Y-107951128D01*
X131318666Y-91949127D02*
X130810666Y-91441128D01*
X133350666Y-101093127D02*
X132842666Y-100585127D01*
X132842666Y-98807127D02*
X132334666Y-98299127D01*
X136906666Y-121373116D02*
X136906666Y-117095127D01*
X133858666Y-105157127D02*
X133858666Y-103379127D01*
X130302666Y-89155127D02*
X130302666Y-87377127D01*
X133858666Y-103379127D02*
X133350666Y-102871127D01*
X136398666Y-114809127D02*
X135890666Y-114301127D01*
X128778666Y-80519127D02*
X127000666Y-78741127D01*
X130302666Y-87377127D02*
X129794666Y-86869127D01*
X128778666Y-82297127D02*
X128778666Y-80519127D01*
X136398666Y-116587127D02*
X136398666Y-114809127D01*
X132334666Y-96521127D02*
X131826666Y-96013127D01*
X131826666Y-94235126D02*
X131318666Y-93727127D01*
X130810666Y-91441128D02*
X130810666Y-89663127D01*
X136906666Y-117095127D02*
X136398666Y-116587127D01*
X132842666Y-100585127D02*
X132842666Y-98807127D01*
X131318666Y-93727127D02*
X131318666Y-91949127D01*
X135382666Y-110237127D02*
X134874666Y-109729126D01*
X134366666Y-105665127D02*
X133858666Y-105157127D01*
X129286666Y-82805127D02*
X128778666Y-82297127D01*
X129794666Y-85091127D02*
X129286666Y-84583127D01*
X134874666Y-107951128D02*
X134366666Y-107443127D01*
X135382666Y-112015127D02*
X135382666Y-110237127D01*
X132334666Y-98299127D02*
X132334666Y-96521127D01*
X137617493Y-122083943D02*
X136906666Y-121373116D01*
X134366666Y-107443127D02*
X134366666Y-105665127D01*
X130302000Y-146304000D02*
X129794000Y-146812000D01*
X131318000Y-139954000D02*
X131318000Y-141732000D01*
X129794000Y-146812000D02*
X129794000Y-148590000D01*
X131826000Y-137668000D02*
X131826000Y-139446000D01*
X128778000Y-153162000D02*
X127000000Y-154940000D01*
X132334000Y-134648843D02*
X132334000Y-137160000D01*
X129286000Y-150876000D02*
X128778000Y-151384000D01*
X135071243Y-131911600D02*
X132334000Y-134648843D01*
X131826000Y-139446000D02*
X131318000Y-139954000D01*
X129794000Y-148590000D02*
X129286000Y-149098000D01*
X130302000Y-144526000D02*
X130302000Y-146304000D01*
X130810000Y-142240000D02*
X130810000Y-144018000D01*
X128778000Y-151384000D02*
X128778000Y-153162000D01*
X130810000Y-144018000D02*
X130302000Y-144526000D01*
X129286000Y-149098000D02*
X129286000Y-150876000D01*
X131318000Y-141732000D02*
X130810000Y-142240000D01*
X132334000Y-137160000D02*
X131826000Y-137668000D01*
X131826666Y-109475127D02*
X131318666Y-108967127D01*
X129286666Y-99823127D02*
X129286666Y-98045127D01*
X132842666Y-115825127D02*
X132842667Y-114047127D01*
X131826666Y-111253128D02*
X131826666Y-109475127D01*
X132334666Y-111761127D02*
X131826666Y-111253128D01*
X132334666Y-113539127D02*
X132334666Y-111761127D01*
X130302666Y-104395127D02*
X130302666Y-102617127D01*
X129794666Y-100331126D02*
X129286666Y-99823127D01*
X131318666Y-107189127D02*
X130810666Y-106681127D01*
X133858666Y-118619127D02*
X133350666Y-118111127D01*
X129794666Y-102109127D02*
X129794666Y-100331126D01*
X133858666Y-121719229D02*
X133858666Y-118619127D01*
X128778666Y-95759127D02*
X127000666Y-93981127D01*
X133350666Y-118111127D02*
X133350666Y-116333127D01*
X135920437Y-123780999D02*
X133858666Y-121719229D01*
X130810666Y-104903127D02*
X130302666Y-104395127D01*
X130302666Y-102617127D02*
X129794666Y-102109127D01*
X130810666Y-106681127D02*
X130810666Y-104903127D01*
X132842667Y-114047127D02*
X132334666Y-113539127D01*
X133350666Y-116333127D02*
X132842666Y-115825127D01*
X129286666Y-98045127D02*
X128778667Y-97537127D01*
X131318666Y-108967127D02*
X131318666Y-107189127D01*
X128778667Y-97537127D02*
X128778666Y-95759127D01*
X128778000Y-143764000D02*
X128778000Y-145542000D01*
X130810000Y-136398000D02*
X130302000Y-136906000D01*
X129286000Y-141478000D02*
X129286000Y-143256000D01*
X128778000Y-145542000D02*
X127000000Y-147320000D01*
X129794000Y-140970000D02*
X129286000Y-141478000D01*
X130302000Y-138684000D02*
X129794000Y-139192000D01*
X130302000Y-136906000D02*
X130302000Y-138684000D01*
X130810000Y-134475787D02*
X130810000Y-136398000D01*
X129286000Y-143256000D02*
X128778000Y-143764000D01*
X129794000Y-139192000D02*
X129794000Y-140970000D01*
X134222715Y-131063072D02*
X130810000Y-134475787D01*
X132334666Y-100839127D02*
X132334666Y-99061127D01*
X131826667Y-98553127D02*
X131826666Y-96775127D01*
X132334666Y-99061127D02*
X131826667Y-98553127D01*
X129286666Y-85345127D02*
X128778666Y-84837126D01*
X135890666Y-115063126D02*
X135382666Y-114555127D01*
X130302666Y-89917127D02*
X129794666Y-89409127D01*
X130810666Y-92203127D02*
X130302666Y-91695127D01*
X134874666Y-110491127D02*
X134366666Y-109983127D01*
X128778667Y-83059127D02*
X127000666Y-81281127D01*
X135382666Y-114555127D02*
X135382666Y-112777127D01*
X130810666Y-93981127D02*
X130810666Y-92203127D01*
X131318666Y-94489127D02*
X130810666Y-93981127D01*
X133858666Y-105919127D02*
X133350666Y-105411127D01*
X131318666Y-96267127D02*
X131318666Y-94489127D01*
X133858666Y-107697127D02*
X133858666Y-105919127D01*
X131826666Y-96775127D02*
X131318666Y-96267127D01*
X129286666Y-87123127D02*
X129286666Y-85345127D01*
X133350666Y-105411127D02*
X133350666Y-103633127D01*
X134366666Y-109983127D02*
X134366666Y-108205127D01*
X129794666Y-87631127D02*
X129286666Y-87123127D01*
X132842666Y-101347126D02*
X132334666Y-100839127D01*
X134366666Y-108205127D02*
X133858666Y-107697127D01*
X134874666Y-112269128D02*
X134874666Y-110491127D01*
X136398666Y-117349127D02*
X135890666Y-116841127D01*
X132842666Y-103125127D02*
X132842666Y-101347126D01*
X136398666Y-121430801D02*
X136398666Y-117349127D01*
X137334649Y-122366785D02*
X136398666Y-121430801D01*
X129794666Y-89409127D02*
X129794666Y-87631127D01*
X128778666Y-84837126D02*
X128778667Y-83059127D01*
X130302666Y-91695127D02*
X130302666Y-89917127D01*
X135890666Y-116841127D02*
X135890666Y-115063126D01*
X135382666Y-112777127D02*
X134874666Y-112269128D01*
X133350666Y-103633127D02*
X132842666Y-103125127D01*
X128778000Y-153924000D02*
X128778000Y-155702000D01*
X132842000Y-134706529D02*
X132842000Y-137414000D01*
X130810000Y-146558000D02*
X130302000Y-147066000D01*
X130302000Y-147066000D02*
X130302000Y-148844000D01*
X128778000Y-155702000D02*
X127000000Y-157480000D01*
X131826000Y-141986000D02*
X131318000Y-142494000D01*
X135354086Y-132194443D02*
X132842000Y-134706529D01*
X131318000Y-142494000D02*
X131318000Y-144272000D01*
X132842000Y-137414000D02*
X132334000Y-137922000D01*
X129794000Y-151130000D02*
X129286000Y-151638000D01*
X129794000Y-149352000D02*
X129794000Y-151130000D01*
X132334000Y-139700000D02*
X131826000Y-140208000D01*
X131826000Y-140208000D02*
X131826000Y-141986000D01*
X132334000Y-137922000D02*
X132334000Y-139700000D01*
X129286000Y-153416000D02*
X128778000Y-153924000D01*
X130302000Y-148844000D02*
X129794000Y-149352000D01*
X129286000Y-151638000D02*
X129286000Y-153416000D01*
X131318000Y-144272000D02*
X130810000Y-144780000D01*
X130810000Y-144780000D02*
X130810000Y-146558000D01*
X128778000Y-135382000D02*
X127000000Y-137160000D01*
X133091344Y-129931701D02*
X128778000Y-134245045D01*
X128778000Y-134245045D02*
X128778000Y-135382000D01*
X132808501Y-129648858D02*
X127837359Y-134620000D01*
X127837359Y-134620000D02*
X127000000Y-134620000D01*
X132526323Y-127175111D02*
X129812339Y-124461127D01*
X129812339Y-124461127D02*
X127000666Y-124461127D01*
X127254666Y-126747127D02*
X127000666Y-127001127D01*
X131532655Y-126747127D02*
X127254666Y-126747127D01*
X132243482Y-127457954D02*
X131532655Y-126747127D01*
X132809167Y-126892269D02*
X127838025Y-121921127D01*
X127838025Y-121921127D02*
X127000666Y-121921127D01*
X132842666Y-121834598D02*
X132842666Y-119127127D01*
X129794666Y-107189127D02*
X129794666Y-105411127D01*
X130810667Y-109983127D02*
X130302666Y-109475127D01*
X130810666Y-111761126D02*
X130810667Y-109983127D01*
X129286666Y-104903127D02*
X129286666Y-103125127D01*
X130302666Y-107697127D02*
X129794666Y-107189127D01*
X130302666Y-109475127D02*
X130302666Y-107697127D01*
X132334666Y-118619127D02*
X132334666Y-116841127D01*
X135354752Y-124346684D02*
X132842666Y-121834598D01*
X132334666Y-116841127D02*
X131826666Y-116333127D01*
X129286666Y-103125127D02*
X128778666Y-102617127D01*
X131318666Y-114047127D02*
X131318666Y-112269127D01*
X128778666Y-102617127D02*
X128778666Y-100839127D01*
X128778666Y-100839127D02*
X127000666Y-99061127D01*
X131826666Y-114555127D02*
X131318666Y-114047127D01*
X132842666Y-119127127D02*
X132334666Y-118619127D01*
X129794666Y-105411127D02*
X129286666Y-104903127D01*
X131826666Y-116333127D02*
X131826666Y-114555127D01*
X131318666Y-112269127D02*
X130810666Y-111761126D01*
X129794666Y-119889127D02*
X129794666Y-118111127D01*
X130302666Y-120397127D02*
X129794666Y-119889127D01*
X129794666Y-118111127D02*
X129286666Y-117603127D01*
X129286666Y-117603127D02*
X129286666Y-115825127D01*
X133940538Y-125760898D02*
X130302666Y-122123026D01*
X129286666Y-115825127D02*
X128778666Y-115317127D01*
X128778666Y-115317127D02*
X128778666Y-113539127D01*
X128778666Y-113539127D02*
X127000666Y-111761127D01*
X130302666Y-122123026D02*
X130302666Y-120397127D01*
X129794000Y-154432000D02*
X129794000Y-156210000D01*
X131318000Y-149352000D02*
X130810000Y-149860000D01*
X129286000Y-158496000D02*
X128778000Y-159004000D01*
X132334000Y-144780000D02*
X131826000Y-145288000D01*
X130810000Y-151638000D02*
X130302000Y-152146000D01*
X131826000Y-147066000D02*
X131318000Y-147574000D01*
X133858000Y-134821899D02*
X133858000Y-137922000D01*
X133350000Y-140208000D02*
X132842000Y-140716000D01*
X133350000Y-138430000D02*
X133350000Y-140208000D01*
X129794000Y-156210000D02*
X129286000Y-156718000D01*
X131318000Y-147574000D02*
X131318000Y-149352000D01*
X129286000Y-156718000D02*
X129286000Y-158496000D01*
X132334000Y-143002000D02*
X132334000Y-144780000D01*
X131826000Y-145288000D02*
X131826000Y-147066000D01*
X135919771Y-132760128D02*
X133858000Y-134821899D01*
X130302000Y-153924000D02*
X129794000Y-154432000D01*
X128778000Y-159004000D02*
X128778000Y-160782000D01*
X132842000Y-142494000D02*
X132334000Y-143002000D01*
X133858000Y-137922000D02*
X133350000Y-138430000D01*
X132842000Y-140716000D02*
X132842000Y-142494000D01*
X130302000Y-152146000D02*
X130302000Y-153924000D01*
X128778000Y-160782000D02*
X127000000Y-162560000D01*
X130810000Y-149860000D02*
X130810000Y-151638000D01*
X129286000Y-138176000D02*
X128778000Y-138684000D01*
X129794000Y-134360415D02*
X129794000Y-135890000D01*
X128778000Y-140462000D02*
X127000000Y-142240000D01*
X128778000Y-138684000D02*
X128778000Y-140462000D01*
X129286000Y-136398000D02*
X129286000Y-138176000D01*
X133657029Y-130497386D02*
X129794000Y-134360415D01*
X129794000Y-135890000D02*
X129286000Y-136398000D01*
X131531989Y-129794000D02*
X127254000Y-129794000D01*
X132242816Y-129083173D02*
X131531989Y-129794000D01*
X127254000Y-129794000D02*
X127000000Y-129540000D01*
X128778667Y-120397127D02*
X128778666Y-118619127D01*
X129286666Y-120905127D02*
X128778667Y-120397127D01*
X129286666Y-122238396D02*
X129286666Y-120905127D01*
X128778666Y-118619127D02*
X127000666Y-116841127D01*
X133374853Y-126326583D02*
X129286666Y-122238396D01*
X128778000Y-146304000D02*
X128778000Y-148082000D01*
X131318000Y-136652000D02*
X130810000Y-137160000D01*
X129794000Y-141732000D02*
X129794000Y-143510000D01*
X134505557Y-131345914D02*
X131318000Y-134533471D01*
X130810000Y-137160000D02*
X130810000Y-138938000D01*
X130302000Y-141224000D02*
X129794000Y-141732000D01*
X129286000Y-145796000D02*
X128778000Y-146304000D01*
X128778000Y-148082000D02*
X127000000Y-149860000D01*
X131318000Y-134533471D02*
X131318000Y-136652000D01*
X129286000Y-144018000D02*
X129286000Y-145796000D01*
X130302000Y-139446000D02*
X130302000Y-141224000D01*
X129794000Y-143510000D02*
X129286000Y-144018000D01*
X130810000Y-138938000D02*
X130302000Y-139446000D01*
X133657695Y-126043741D02*
X129794666Y-122180712D01*
X128778666Y-117857127D02*
X128778667Y-116079127D01*
X129794666Y-122180712D02*
X129794666Y-120651127D01*
X129286666Y-118365127D02*
X128778666Y-117857127D01*
X129286666Y-120143127D02*
X129286666Y-118365127D01*
X129794666Y-120651127D02*
X129286666Y-120143127D01*
X128778667Y-116079127D02*
X127000666Y-114301127D01*
X128778000Y-136144000D02*
X128778000Y-137922000D01*
X129286000Y-134302731D02*
X129286000Y-135636000D01*
X133374187Y-130214544D02*
X129286000Y-134302731D01*
X128778000Y-137922000D02*
X127000000Y-139700000D01*
X129286000Y-135636000D02*
X128778000Y-136144000D01*
X129794000Y-146050000D02*
X129286000Y-146558000D01*
X130810000Y-139700000D02*
X130810000Y-141478000D01*
X131318000Y-137414000D02*
X131318000Y-139192000D01*
X130302000Y-143764000D02*
X129794000Y-144272000D01*
X131318000Y-139192000D02*
X130810000Y-139700000D01*
X129286000Y-146558000D02*
X129286000Y-148336000D01*
X130302000Y-141986000D02*
X130302000Y-143764000D01*
X131826000Y-134591157D02*
X131826000Y-136906000D01*
X128778000Y-148844000D02*
X128778000Y-150622000D01*
X134788400Y-131628757D02*
X131826000Y-134591157D01*
X131826000Y-136906000D02*
X131318000Y-137414000D01*
X130810000Y-141478000D02*
X130302000Y-141986000D01*
X129286000Y-148336000D02*
X128778000Y-148844000D01*
X128778000Y-150622000D02*
X127000000Y-152400000D01*
X129794000Y-144272000D02*
X129794000Y-146050000D01*
X131826000Y-142748000D02*
X131826000Y-144526000D01*
X129794000Y-151892000D02*
X129794000Y-153670000D01*
X133350000Y-137668000D02*
X132842000Y-138176000D01*
X129286000Y-154178000D02*
X129286000Y-155956000D01*
X128778000Y-156464000D02*
X128778000Y-158242000D01*
X132334000Y-140462000D02*
X132334000Y-142240000D01*
X131826000Y-144526000D02*
X131318000Y-145034000D01*
X133350000Y-134764213D02*
X133350000Y-137668000D01*
X132334000Y-142240000D02*
X131826000Y-142748000D01*
X129286000Y-155956000D02*
X128778000Y-156464000D01*
X130302000Y-149606000D02*
X130302000Y-151384000D01*
X128778000Y-158242000D02*
X127000000Y-160020000D01*
X129794000Y-153670000D02*
X129286000Y-154178000D01*
X130810000Y-147320000D02*
X130810000Y-149098000D01*
X130810000Y-149098000D02*
X130302000Y-149606000D01*
X130302000Y-151384000D02*
X129794000Y-151892000D01*
X131318000Y-145034000D02*
X131318000Y-146812000D01*
X132842000Y-139954000D02*
X132334000Y-140462000D01*
X135636928Y-132477285D02*
X133350000Y-134764213D01*
X131318000Y-146812000D02*
X130810000Y-147320000D01*
X132842000Y-138176000D02*
X132842000Y-139954000D01*
X128778667Y-122296082D02*
X128778666Y-121159127D01*
X133092010Y-126609426D02*
X128778667Y-122296082D01*
X128778666Y-121159127D02*
X127000666Y-119381127D01*
X134366666Y-115825127D02*
X133858666Y-115317128D01*
X130810666Y-99823128D02*
X130302666Y-99315127D01*
X132334666Y-108459127D02*
X132334666Y-106681127D01*
X133858666Y-115317128D02*
X133858666Y-113539127D01*
X129286666Y-94743127D02*
X129286666Y-92965127D01*
X131826666Y-106173127D02*
X131826666Y-104395127D01*
X131826666Y-104395127D02*
X131318666Y-103887127D01*
X131318666Y-103887127D02*
X131318666Y-102109127D01*
X133858666Y-113539127D02*
X133350666Y-113031127D01*
X132842666Y-108967127D02*
X132334666Y-108459127D01*
X128778666Y-92457127D02*
X128778666Y-90679127D01*
X129794666Y-97029127D02*
X129794666Y-95251127D01*
X131318666Y-102109127D02*
X130810667Y-101601127D01*
X133350666Y-113031127D02*
X133350666Y-111253127D01*
X129286666Y-92965127D02*
X128778666Y-92457127D01*
X128778666Y-90679127D02*
X127000666Y-88901127D01*
X136486122Y-123215314D02*
X134874666Y-121603858D01*
X130810667Y-101601127D02*
X130810666Y-99823128D01*
X129794666Y-95251127D02*
X129286666Y-94743127D01*
X134874666Y-118111126D02*
X134366666Y-117603127D01*
X130302666Y-97537127D02*
X129794666Y-97029127D01*
X132334666Y-106681127D02*
X131826666Y-106173127D01*
X134874666Y-121603858D02*
X134874666Y-118111126D01*
X134366666Y-117603127D02*
X134366666Y-115825127D01*
X130302666Y-99315127D02*
X130302666Y-97537127D01*
X133350666Y-111253127D02*
X132842666Y-110745127D01*
X132842666Y-110745127D02*
X132842666Y-108967127D01*
X132842666Y-106427127D02*
X132334666Y-105919127D01*
X131318666Y-99569127D02*
X130810666Y-99061127D01*
X134366666Y-113285127D02*
X133858666Y-112777126D01*
X130302666Y-94997127D02*
X129794667Y-94489127D01*
X133350666Y-108713127D02*
X132842666Y-108205127D01*
X132334666Y-105919127D02*
X132334666Y-104141127D01*
X131826666Y-103633127D02*
X131826666Y-101855127D01*
X130302666Y-96775127D02*
X130302666Y-94997127D01*
X130810666Y-99061127D02*
X130810666Y-97283126D01*
X134874666Y-115571127D02*
X134366666Y-115063127D01*
X130810666Y-97283126D02*
X130302666Y-96775127D01*
X134366666Y-115063127D02*
X134366666Y-113285127D01*
X129286666Y-90425127D02*
X128778666Y-89917127D01*
X129286666Y-92203127D02*
X129286666Y-90425127D01*
X133858666Y-112777126D02*
X133858667Y-110999127D01*
X136768965Y-122932471D02*
X135382666Y-121546172D01*
X135382666Y-121546172D02*
X135382666Y-117857127D01*
X133350666Y-110491127D02*
X133350666Y-108713127D01*
X131826666Y-101855127D02*
X131318666Y-101347127D01*
X132842666Y-108205127D02*
X132842666Y-106427127D01*
X131318666Y-101347127D02*
X131318666Y-99569127D01*
X128778666Y-89917127D02*
X128778666Y-88139127D01*
X135382666Y-117857127D02*
X134874666Y-117349127D01*
X133858667Y-110999127D02*
X133350666Y-110491127D01*
X132334666Y-104141127D02*
X131826666Y-103633127D01*
X134874666Y-117349127D02*
X134874666Y-115571127D01*
X129794667Y-94489127D02*
X129794666Y-92711127D01*
X128778666Y-88139127D02*
X127000666Y-86361127D01*
X129794666Y-92711127D02*
X129286666Y-92203127D01*
X134223381Y-125478055D02*
X130810666Y-122065340D01*
X129794666Y-115571127D02*
X129286666Y-115063127D01*
X130302666Y-117857127D02*
X129794666Y-117349128D01*
X129286666Y-113285127D02*
X128778666Y-112777127D01*
X128778666Y-110999127D02*
X127000666Y-109221127D01*
X130810666Y-120143126D02*
X130302666Y-119635127D01*
X129794666Y-117349128D02*
X129794666Y-115571127D01*
X128778666Y-112777127D02*
X128778666Y-110999127D01*
X130302666Y-119635127D02*
X130302666Y-117857127D01*
X129286666Y-115063127D02*
X129286666Y-113285127D01*
X130810666Y-122065340D02*
X130810666Y-120143126D01*
X130810666Y-119381127D02*
X130810666Y-117603127D01*
X130302666Y-115317127D02*
X129794666Y-114809126D01*
X131318666Y-122007656D02*
X131318666Y-119889127D01*
X128778666Y-108459127D02*
X127000666Y-106681127D01*
X131318666Y-119889127D02*
X130810666Y-119381127D01*
X130302666Y-117095127D02*
X130302666Y-115317127D01*
X129794667Y-113031127D02*
X129286666Y-112523127D01*
X128778666Y-110237127D02*
X128778666Y-108459127D01*
X129286666Y-112523127D02*
X129286666Y-110745127D01*
X129286666Y-110745127D02*
X128778666Y-110237127D01*
X129794666Y-114809126D02*
X129794667Y-113031127D01*
X134506223Y-125195213D02*
X131318666Y-122007656D01*
X130810666Y-117603127D02*
X130302666Y-117095127D01*
X130302666Y-114555127D02*
X130302666Y-112777127D01*
X131826666Y-121949970D02*
X131826666Y-119635127D01*
X129286666Y-109983127D02*
X129286666Y-108205127D01*
X128778667Y-105919127D02*
X127000666Y-104141127D01*
X129794666Y-110491127D02*
X129286666Y-109983127D01*
X131826666Y-119635127D02*
X131318666Y-119127127D01*
X131318666Y-119127127D02*
X131318666Y-117349127D01*
X131318666Y-117349127D02*
X130810666Y-116841127D01*
X130810666Y-116841127D02*
X130810666Y-115063127D01*
X130302666Y-112777127D02*
X129794666Y-112269127D01*
X129286666Y-108205127D02*
X128778667Y-107697127D01*
X130810666Y-115063127D02*
X130302666Y-114555127D01*
X129794666Y-112269127D02*
X129794666Y-110491127D01*
X134789066Y-124912370D02*
X131826666Y-121949970D01*
X128778667Y-107697127D02*
X128778667Y-105919127D01*
X132525658Y-129366016D02*
X129811674Y-132080000D01*
X129811674Y-132080000D02*
X127000000Y-132080000D01*
X147574000Y-144018000D02*
X147574000Y-145796000D01*
X145542000Y-136652000D02*
X146050000Y-137160000D01*
X146050000Y-138938000D02*
X146558000Y-139446000D01*
X146558000Y-141224000D02*
X147066000Y-141732000D01*
X142354443Y-131345914D02*
X145542000Y-134533471D01*
X146050000Y-137160000D02*
X146050000Y-138938000D01*
X148082000Y-146304000D02*
X148082000Y-148082000D01*
X147066000Y-143510000D02*
X147574000Y-144018000D01*
X147574000Y-145796000D02*
X148082000Y-146304000D01*
X146558000Y-139446000D02*
X146558000Y-141224000D01*
X148082000Y-148082000D02*
X149860000Y-149860000D01*
X145542000Y-134533471D02*
X145542000Y-136652000D01*
X147066000Y-141732000D02*
X147066000Y-143510000D01*
X148082666Y-122296082D02*
X148082665Y-121159127D01*
X148082665Y-121159127D02*
X149860666Y-119381127D01*
X143769322Y-126609426D02*
X148082666Y-122296082D01*
X144018000Y-150876000D02*
X144018000Y-152654000D01*
X141986000Y-141732000D02*
X141986000Y-143510000D01*
X140970000Y-138938000D02*
X141478000Y-139446000D01*
X148082000Y-169164000D02*
X148082000Y-170942000D01*
X143510000Y-150368000D02*
X144018000Y-150876000D01*
X142494000Y-145796000D02*
X143002000Y-146304000D01*
X144526000Y-153162000D02*
X144526000Y-154940000D01*
X145034000Y-157226000D02*
X145542000Y-157734000D01*
X141986000Y-143510000D02*
X142494000Y-144018000D01*
X145542000Y-159512000D02*
X146050000Y-160020000D01*
X147066000Y-164592000D02*
X147066000Y-166370000D01*
X146050000Y-161798000D02*
X146558000Y-162306000D01*
X145034000Y-155448000D02*
X145034000Y-157226000D01*
X141478000Y-139446000D02*
X141478000Y-141224000D01*
X148082000Y-170942000D02*
X149860000Y-172720000D01*
X141478000Y-141224000D02*
X141986000Y-141732000D01*
X143510000Y-148590000D02*
X143510000Y-150368000D01*
X147066000Y-166370000D02*
X147574000Y-166878000D01*
X147574000Y-168656000D02*
X148082000Y-169164000D01*
X145542000Y-157734000D02*
X145542000Y-159512000D01*
X144018000Y-152654000D02*
X144526000Y-153162000D01*
X139808858Y-133891499D02*
X140970000Y-135052641D01*
X146558000Y-162306000D02*
X146558000Y-164084000D01*
X146558000Y-164084000D02*
X147066000Y-164592000D01*
X142494000Y-144018000D02*
X142494000Y-145796000D01*
X146050000Y-160020000D02*
X146050000Y-161798000D01*
X143002000Y-146304000D02*
X143002000Y-148082000D01*
X147574000Y-166878000D02*
X147574000Y-168656000D01*
X140970000Y-135052641D02*
X140970000Y-138938000D01*
X144526000Y-154940000D02*
X145034000Y-155448000D01*
X143002000Y-148082000D02*
X143510000Y-148590000D01*
X130302000Y-167386000D02*
X130302000Y-169164000D01*
X128778000Y-176022000D02*
X127000000Y-177800000D01*
X129286000Y-171958000D02*
X129286000Y-173736000D01*
X135382000Y-146304000D02*
X134874000Y-146812000D01*
X135890000Y-144018000D02*
X135382000Y-144526000D01*
X130810000Y-166878000D02*
X130302000Y-167386000D01*
X132334000Y-160020000D02*
X131826000Y-160528000D01*
X134366000Y-149098000D02*
X134366000Y-150876000D01*
X128778000Y-174244000D02*
X128778000Y-176022000D01*
X129794000Y-169672000D02*
X129794000Y-171450000D01*
X136906000Y-139446000D02*
X136398000Y-139954000D01*
X137616827Y-134457184D02*
X136906000Y-135168011D01*
X131826000Y-162306000D02*
X131318000Y-162814000D01*
X130810000Y-165100000D02*
X130810000Y-166878000D01*
X134366000Y-150876000D02*
X133858000Y-151384000D01*
X133350000Y-155448000D02*
X132842000Y-155956000D01*
X129794000Y-171450000D02*
X129286000Y-171958000D01*
X130302000Y-169164000D02*
X129794000Y-169672000D01*
X135890000Y-142240000D02*
X135890000Y-144018000D01*
X136398000Y-139954000D02*
X136398000Y-141732000D01*
X133858000Y-151384000D02*
X133858000Y-153162000D01*
X132334000Y-158242000D02*
X132334000Y-160020000D01*
X134874000Y-148590000D02*
X134366000Y-149098000D01*
X133350000Y-153670000D02*
X133350000Y-155448000D01*
X132842000Y-157734000D02*
X132334000Y-158242000D01*
X131318000Y-164592000D02*
X130810000Y-165100000D01*
X136906000Y-135168011D02*
X136906000Y-139446000D01*
X136398000Y-141732000D02*
X135890000Y-142240000D01*
X129286000Y-173736000D02*
X128778000Y-174244000D01*
X131826000Y-160528000D02*
X131826000Y-162306000D01*
X132842000Y-155956000D02*
X132842000Y-157734000D01*
X131318000Y-162814000D02*
X131318000Y-164592000D01*
X134874000Y-146812000D02*
X134874000Y-148590000D01*
X133858000Y-153162000D02*
X133350000Y-153670000D01*
X135382000Y-144526000D02*
X135382000Y-146304000D01*
X147574000Y-135636000D02*
X148082000Y-136144000D01*
X148082000Y-136144000D02*
X148082000Y-137922000D01*
X148082000Y-137922000D02*
X149860000Y-139700000D01*
X143485813Y-130214544D02*
X147574000Y-134302731D01*
X147574000Y-134302731D02*
X147574000Y-135636000D01*
X143768656Y-129931701D02*
X148082000Y-134245045D01*
X148082000Y-135382000D02*
X149860000Y-137160000D01*
X148082000Y-134245045D02*
X148082000Y-135382000D01*
X144334342Y-129366016D02*
X147048326Y-132080000D01*
X147048326Y-132080000D02*
X149860000Y-132080000D01*
X147066665Y-122180712D02*
X147066666Y-120651127D01*
X148082666Y-116079127D02*
X149860666Y-114301127D01*
X147574667Y-118365127D02*
X148082666Y-117857127D01*
X147574667Y-120143127D02*
X147574667Y-118365127D01*
X148082666Y-117857127D02*
X148082666Y-116079127D01*
X147066666Y-120651127D02*
X147574667Y-120143127D01*
X143203636Y-126043741D02*
X147066665Y-122180712D01*
X146558000Y-136144000D02*
X147066000Y-136652000D01*
X148082000Y-141224000D02*
X148082000Y-143002000D01*
X142920128Y-130780229D02*
X146558000Y-134418101D01*
X147574000Y-140716000D02*
X148082000Y-141224000D01*
X147066000Y-136652000D02*
X147066000Y-138430000D01*
X146558000Y-134418101D02*
X146558000Y-136144000D01*
X147066000Y-138430000D02*
X147574000Y-138938000D01*
X148082000Y-143002000D02*
X149860000Y-144780000D01*
X147574000Y-138938000D02*
X147574000Y-140716000D01*
X139954000Y-139446000D02*
X140462000Y-139954000D01*
X140462000Y-139954000D02*
X140462000Y-141732000D01*
X143002000Y-151384000D02*
X143002000Y-153162000D01*
X142494000Y-150876000D02*
X143002000Y-151384000D01*
X141986000Y-148590000D02*
X142494000Y-149098000D01*
X146050000Y-166878000D02*
X146558000Y-167386000D01*
X144526000Y-160020000D02*
X145034000Y-160528000D01*
X140462000Y-141732000D02*
X140970000Y-142240000D01*
X144018000Y-155956000D02*
X144018000Y-157734000D01*
X147574000Y-171958000D02*
X147574000Y-173736000D01*
X147574000Y-173736000D02*
X148082000Y-174244000D01*
X144526000Y-158242000D02*
X144526000Y-160020000D01*
X139954000Y-135168011D02*
X139954000Y-139446000D01*
X140970000Y-142240000D02*
X140970000Y-144018000D01*
X141986000Y-146812000D02*
X141986000Y-148590000D01*
X146558000Y-167386000D02*
X146558000Y-169164000D01*
X145542000Y-164592000D02*
X146050000Y-165100000D01*
X146050000Y-165100000D02*
X146050000Y-166878000D01*
X143510000Y-155448000D02*
X144018000Y-155956000D01*
X141478000Y-146304000D02*
X141986000Y-146812000D01*
X141478000Y-144526000D02*
X141478000Y-146304000D01*
X139243173Y-134457184D02*
X139954000Y-135168011D01*
X148082000Y-174244000D02*
X148082000Y-176022000D01*
X146558000Y-169164000D02*
X147066000Y-169672000D01*
X142494000Y-149098000D02*
X142494000Y-150876000D01*
X143510000Y-153670000D02*
X143510000Y-155448000D01*
X147066000Y-169672000D02*
X147066000Y-171450000D01*
X148082000Y-176022000D02*
X149860000Y-177800000D01*
X145034000Y-162306000D02*
X145542000Y-162814000D01*
X147066000Y-171450000D02*
X147574000Y-171958000D01*
X145034000Y-160528000D02*
X145034000Y-162306000D01*
X140970000Y-144018000D02*
X141478000Y-144526000D01*
X145542000Y-162814000D02*
X145542000Y-164592000D01*
X144018000Y-157734000D02*
X144526000Y-158242000D01*
X143002000Y-153162000D02*
X143510000Y-153670000D01*
X145328011Y-129794000D02*
X149606000Y-129794000D01*
X144617184Y-129083173D02*
X145328011Y-129794000D01*
X149606000Y-129794000D02*
X149860000Y-129540000D01*
X147574000Y-138176000D02*
X148082000Y-138684000D01*
X147574000Y-136398000D02*
X147574000Y-138176000D01*
X148082000Y-140462000D02*
X149860000Y-142240000D01*
X147066000Y-135890000D02*
X147574000Y-136398000D01*
X147066000Y-134360415D02*
X147066000Y-135890000D01*
X148082000Y-138684000D02*
X148082000Y-140462000D01*
X143202971Y-130497386D02*
X147066000Y-134360415D01*
X144526000Y-140462000D02*
X144526000Y-142240000D01*
X145034000Y-144526000D02*
X145542000Y-145034000D01*
X144018000Y-139954000D02*
X144526000Y-140462000D01*
X147066000Y-151892000D02*
X147066000Y-153670000D01*
X143510000Y-137668000D02*
X144018000Y-138176000D01*
X147574000Y-155956000D02*
X148082000Y-156464000D01*
X143510000Y-134764213D02*
X143510000Y-137668000D01*
X145542000Y-146812000D02*
X146050000Y-147320000D01*
X146050000Y-149098000D02*
X146558000Y-149606000D01*
X145542000Y-145034000D02*
X145542000Y-146812000D01*
X144526000Y-142240000D02*
X145034000Y-142748000D01*
X145034000Y-142748000D02*
X145034000Y-144526000D01*
X148082000Y-158242000D02*
X149860000Y-160020000D01*
X147574000Y-154178000D02*
X147574000Y-155956000D01*
X144018000Y-138176000D02*
X144018000Y-139954000D01*
X141223072Y-132477285D02*
X143510000Y-134764213D01*
X146050000Y-147320000D02*
X146050000Y-149098000D01*
X148082000Y-156464000D02*
X148082000Y-158242000D01*
X146558000Y-149606000D02*
X146558000Y-151384000D01*
X147066000Y-153670000D02*
X147574000Y-154178000D01*
X146558000Y-151384000D02*
X147066000Y-151892000D01*
X147574666Y-115063127D02*
X147574666Y-113285127D01*
X146558666Y-119635127D02*
X146558666Y-117857127D01*
X146050666Y-120143127D02*
X146558666Y-119635127D01*
X148082665Y-110999127D02*
X149860666Y-109221127D01*
X146050666Y-122065340D02*
X146050666Y-120143127D01*
X148082666Y-112777126D02*
X148082665Y-110999127D01*
X146558666Y-117857127D02*
X147066666Y-117349127D01*
X147574666Y-113285127D02*
X148082666Y-112777126D01*
X142637951Y-125478055D02*
X146050666Y-122065340D01*
X147066666Y-115571127D02*
X147574666Y-115063127D01*
X147066666Y-117349127D02*
X147066666Y-115571127D01*
X134366000Y-138176000D02*
X133858000Y-138684000D01*
X132842000Y-143256000D02*
X132842000Y-145034000D01*
X131826000Y-147828000D02*
X131826000Y-149606000D01*
X129286000Y-159258000D02*
X129286000Y-161036000D01*
X131318000Y-151892000D02*
X130810000Y-152400000D01*
X129794000Y-156972000D02*
X129794000Y-158750000D01*
X128778000Y-161544000D02*
X128778000Y-163322000D01*
X133858000Y-140462000D02*
X133350000Y-140970000D01*
X130302000Y-154686000D02*
X130302000Y-156464000D01*
X132842000Y-145034000D02*
X132334000Y-145542000D01*
X131318000Y-150114000D02*
X131318000Y-151892000D01*
X128778000Y-163322000D02*
X127000000Y-165100000D01*
X132334000Y-147320000D02*
X131826000Y-147828000D01*
X129794000Y-158750000D02*
X129286000Y-159258000D01*
X129286000Y-161036000D02*
X128778000Y-161544000D01*
X136202614Y-133042971D02*
X134366000Y-134879585D01*
X130810000Y-152400000D02*
X130810000Y-154178000D01*
X132334000Y-145542000D02*
X132334000Y-147320000D01*
X131826000Y-149606000D02*
X131318000Y-150114000D01*
X134366000Y-134879585D02*
X134366000Y-138176000D01*
X133350000Y-142748000D02*
X132842000Y-143256000D01*
X133350000Y-140970000D02*
X133350000Y-142748000D01*
X130810000Y-154178000D02*
X130302000Y-154686000D01*
X130302000Y-156464000D02*
X129794000Y-156972000D01*
X133858000Y-138684000D02*
X133858000Y-140462000D01*
X132334000Y-150622000D02*
X132334000Y-152400000D01*
X128778000Y-168402000D02*
X127000000Y-170180000D01*
X131826000Y-154686000D02*
X131318000Y-155194000D01*
X130302000Y-161544000D02*
X129794000Y-162052000D01*
X131318000Y-155194000D02*
X131318000Y-156972000D01*
X129794000Y-163830000D02*
X129286000Y-164338000D01*
X132842000Y-150114000D02*
X132334000Y-150622000D01*
X129286000Y-164338000D02*
X129286000Y-166116000D01*
X133350000Y-147828000D02*
X132842000Y-148336000D01*
X130810000Y-159258000D02*
X130302000Y-159766000D01*
X132334000Y-152400000D02*
X131826000Y-152908000D01*
X130810000Y-157480000D02*
X130810000Y-159258000D01*
X133858000Y-143764000D02*
X133858000Y-145542000D01*
X131826000Y-152908000D02*
X131826000Y-154686000D01*
X134874000Y-139192000D02*
X134874000Y-140970000D01*
X132842000Y-148336000D02*
X132842000Y-150114000D01*
X128778000Y-166624000D02*
X128778000Y-168402000D01*
X135382000Y-134994955D02*
X135382000Y-138684000D01*
X136768299Y-133608656D02*
X135382000Y-134994955D01*
X134366000Y-143256000D02*
X133858000Y-143764000D01*
X133350000Y-146050000D02*
X133350000Y-147828000D01*
X134874000Y-140970000D02*
X134366000Y-141478000D01*
X135382000Y-138684000D02*
X134874000Y-139192000D01*
X131318000Y-156972000D02*
X130810000Y-157480000D01*
X134366000Y-141478000D02*
X134366000Y-143256000D01*
X133858000Y-145542000D02*
X133350000Y-146050000D01*
X129286000Y-166116000D02*
X128778000Y-166624000D01*
X129794000Y-162052000D02*
X129794000Y-163830000D01*
X130302000Y-159766000D02*
X130302000Y-161544000D01*
X147574666Y-117603127D02*
X147574666Y-115825127D01*
X146558666Y-122123026D02*
X146558666Y-120397127D01*
X148082665Y-115317127D02*
X148082666Y-113539127D01*
X147066665Y-118111127D02*
X147574666Y-117603127D01*
X147574666Y-115825127D02*
X148082665Y-115317127D01*
X148082666Y-113539127D02*
X149860666Y-111761127D01*
X146558666Y-120397127D02*
X147066666Y-119889127D01*
X142920794Y-125760898D02*
X146558666Y-122123026D01*
X147066666Y-119889127D02*
X147066665Y-118111127D01*
X147066000Y-139192000D02*
X147066000Y-140970000D01*
X147574000Y-143256000D02*
X148082000Y-143764000D01*
X147574000Y-141478000D02*
X147574000Y-143256000D01*
X148082000Y-143764000D02*
X148082000Y-145542000D01*
X146558000Y-136906000D02*
X146558000Y-138684000D01*
X146050000Y-134475787D02*
X146050000Y-136398000D01*
X148082000Y-145542000D02*
X149860000Y-147320000D01*
X142637285Y-131063072D02*
X146050000Y-134475787D01*
X147066000Y-140970000D02*
X147574000Y-141478000D01*
X146558000Y-138684000D02*
X147066000Y-139192000D01*
X146050000Y-136398000D02*
X146558000Y-136906000D01*
X145034000Y-136906000D02*
X145542000Y-137414000D01*
X146558000Y-143764000D02*
X147066000Y-144272000D01*
X146050000Y-139700000D02*
X146050000Y-141478000D01*
X147066000Y-146050000D02*
X147574000Y-146558000D01*
X145542000Y-137414000D02*
X145542000Y-139192000D01*
X148082000Y-150622000D02*
X149860000Y-152400000D01*
X148082000Y-148844000D02*
X148082000Y-150622000D01*
X146558000Y-141986000D02*
X146558000Y-143764000D01*
X147574000Y-148336000D02*
X148082000Y-148844000D01*
X147066000Y-144272000D02*
X147066000Y-146050000D01*
X147574000Y-146558000D02*
X147574000Y-148336000D01*
X146050000Y-141478000D02*
X146558000Y-141986000D01*
X145542000Y-139192000D02*
X146050000Y-139700000D01*
X145034000Y-134591157D02*
X145034000Y-136906000D01*
X142071600Y-131628757D02*
X145034000Y-134591157D01*
X145034000Y-140208000D02*
X145034000Y-141986000D01*
X147574000Y-153416000D02*
X148082000Y-153924000D01*
X144526000Y-139700000D02*
X145034000Y-140208000D01*
X146558000Y-148844000D02*
X147066000Y-149352000D01*
X141505914Y-132194443D02*
X144018000Y-134706529D01*
X147574000Y-151638000D02*
X147574000Y-153416000D01*
X146050000Y-146558000D02*
X146558000Y-147066000D01*
X147066000Y-151130000D02*
X147574000Y-151638000D01*
X146050000Y-144780000D02*
X146050000Y-146558000D01*
X148082000Y-155702000D02*
X149860000Y-157480000D01*
X145542000Y-144272000D02*
X146050000Y-144780000D01*
X144018000Y-137414000D02*
X144526000Y-137922000D01*
X148082000Y-153924000D02*
X148082000Y-155702000D01*
X147066000Y-149352000D02*
X147066000Y-151130000D01*
X144018000Y-134706529D02*
X144018000Y-137414000D01*
X144526000Y-137922000D02*
X144526000Y-139700000D01*
X145034000Y-141986000D02*
X145542000Y-142494000D01*
X145542000Y-142494000D02*
X145542000Y-144272000D01*
X146558000Y-147066000D02*
X146558000Y-148844000D01*
X145034000Y-152146000D02*
X145542000Y-152654000D01*
X143002000Y-141224000D02*
X143002000Y-143002000D01*
X147066000Y-161290000D02*
X147574000Y-161798000D01*
X141986000Y-138430000D02*
X142494000Y-138938000D01*
X144526000Y-148082000D02*
X144526000Y-149860000D01*
X142494000Y-138938000D02*
X142494000Y-140716000D01*
X145542000Y-152654000D02*
X145542000Y-154432000D01*
X145034000Y-150368000D02*
X145034000Y-152146000D01*
X143510000Y-143510000D02*
X143510000Y-145288000D01*
X146050000Y-156718000D02*
X146558000Y-157226000D01*
X140374544Y-133325813D02*
X141986000Y-134937269D01*
X144018000Y-145796000D02*
X144018000Y-147574000D01*
X146558000Y-159004000D02*
X147066000Y-159512000D01*
X143002000Y-143002000D02*
X143510000Y-143510000D01*
X144526000Y-149860000D02*
X145034000Y-150368000D01*
X147066000Y-159512000D02*
X147066000Y-161290000D01*
X147574000Y-163576000D02*
X148082000Y-164084000D01*
X144018000Y-147574000D02*
X144526000Y-148082000D01*
X143510000Y-145288000D02*
X144018000Y-145796000D01*
X146050000Y-154940000D02*
X146050000Y-156718000D01*
X146558000Y-157226000D02*
X146558000Y-159004000D01*
X148082000Y-164084000D02*
X148082000Y-165862000D01*
X147574000Y-161798000D02*
X147574000Y-163576000D01*
X141986000Y-134937269D02*
X141986000Y-138430000D01*
X142494000Y-140716000D02*
X143002000Y-141224000D01*
X145542000Y-154432000D02*
X146050000Y-154940000D01*
X148082000Y-165862000D02*
X149860000Y-167640000D01*
X144052165Y-126892269D02*
X149023307Y-121921127D01*
X149023307Y-121921127D02*
X149860666Y-121921127D01*
X143510000Y-138430000D02*
X143510000Y-140208000D01*
X147066000Y-156210000D02*
X147574000Y-156718000D01*
X144526000Y-143002000D02*
X144526000Y-144780000D01*
X147574000Y-156718000D02*
X147574000Y-158496000D01*
X147574000Y-158496000D02*
X148082000Y-159004000D01*
X145542000Y-147574000D02*
X145542000Y-149352000D01*
X146558000Y-153924000D02*
X147066000Y-154432000D01*
X148082000Y-160782000D02*
X149860000Y-162560000D01*
X145034000Y-145288000D02*
X145034000Y-147066000D01*
X145034000Y-147066000D02*
X145542000Y-147574000D01*
X144018000Y-140716000D02*
X144018000Y-142494000D01*
X143510000Y-140208000D02*
X144018000Y-140716000D01*
X148082000Y-159004000D02*
X148082000Y-160782000D01*
X144526000Y-144780000D02*
X145034000Y-145288000D01*
X144018000Y-142494000D02*
X144526000Y-143002000D01*
X145542000Y-149352000D02*
X146050000Y-149860000D01*
X146558000Y-152146000D02*
X146558000Y-153924000D01*
X143002000Y-134821899D02*
X143002000Y-137922000D01*
X146050000Y-151638000D02*
X146558000Y-152146000D01*
X140940229Y-132760128D02*
X143002000Y-134821899D01*
X143002000Y-137922000D02*
X143510000Y-138430000D01*
X147066000Y-154432000D02*
X147066000Y-156210000D01*
X146050000Y-149860000D02*
X146050000Y-151638000D01*
X132842000Y-153416000D02*
X132842000Y-155194000D01*
X129794000Y-168910000D02*
X129286000Y-169418000D01*
X136398000Y-139192000D02*
X135890000Y-139700000D01*
X135382000Y-143764000D02*
X134874000Y-144272000D01*
X134366000Y-146558000D02*
X134366000Y-148336000D01*
X135382000Y-141986000D02*
X135382000Y-143764000D01*
X134874000Y-144272000D02*
X134874000Y-146050000D01*
X133350000Y-152908000D02*
X132842000Y-153416000D01*
X129286000Y-171196000D02*
X128778000Y-171704000D01*
X135890000Y-141478000D02*
X135382000Y-141986000D01*
X131318000Y-162052000D02*
X130810000Y-162560000D01*
X132334000Y-157480000D02*
X131826000Y-157988000D01*
X132334000Y-155702000D02*
X132334000Y-157480000D01*
X130810000Y-162560000D02*
X130810000Y-164338000D01*
X133858000Y-150622000D02*
X133350000Y-151130000D01*
X130302000Y-164846000D02*
X130302000Y-166624000D01*
X131826000Y-159766000D02*
X131318000Y-160274000D01*
X135890000Y-139700000D02*
X135890000Y-141478000D01*
X137333984Y-134174342D02*
X136398000Y-135110326D01*
X129794000Y-167132000D02*
X129794000Y-168910000D01*
X131318000Y-160274000D02*
X131318000Y-162052000D01*
X130810000Y-164338000D02*
X130302000Y-164846000D01*
X132842000Y-155194000D02*
X132334000Y-155702000D01*
X129286000Y-169418000D02*
X129286000Y-171196000D01*
X128778000Y-171704000D02*
X128778000Y-173482000D01*
X128778000Y-173482000D02*
X127000000Y-175260000D01*
X133350000Y-151130000D02*
X133350000Y-152908000D01*
X134366000Y-148336000D02*
X133858000Y-148844000D01*
X130302000Y-166624000D02*
X129794000Y-167132000D01*
X134874000Y-146050000D02*
X134366000Y-146558000D01*
X133858000Y-148844000D02*
X133858000Y-150622000D01*
X136398000Y-135110326D02*
X136398000Y-139192000D01*
X131826000Y-157988000D02*
X131826000Y-159766000D01*
X147574666Y-122238396D02*
X147574666Y-120905127D01*
X148082666Y-120397127D02*
X148082666Y-118619127D01*
X147574666Y-120905127D02*
X148082666Y-120397127D01*
X148082666Y-118619127D02*
X149860666Y-116841127D01*
X143486478Y-126326583D02*
X147574666Y-122238396D01*
X145542000Y-151892000D02*
X146050000Y-152400000D01*
X142494000Y-138176000D02*
X143002000Y-138684000D01*
X144018000Y-143256000D02*
X144018000Y-145034000D01*
X143510000Y-140970000D02*
X143510000Y-142748000D01*
X146050000Y-154178000D02*
X146558000Y-154686000D01*
X142494000Y-134879585D02*
X142494000Y-138176000D01*
X143510000Y-142748000D02*
X144018000Y-143256000D01*
X144018000Y-145034000D02*
X144526000Y-145542000D01*
X147574000Y-159258000D02*
X147574000Y-161036000D01*
X148082000Y-161544000D02*
X148082000Y-163322000D01*
X144526000Y-145542000D02*
X144526000Y-147320000D01*
X145034000Y-147828000D02*
X145034000Y-149606000D01*
X143002000Y-138684000D02*
X143002000Y-140462000D01*
X146558000Y-154686000D02*
X146558000Y-156464000D01*
X146050000Y-152400000D02*
X146050000Y-154178000D01*
X145034000Y-149606000D02*
X145542000Y-150114000D01*
X146558000Y-156464000D02*
X147066000Y-156972000D01*
X147574000Y-161036000D02*
X148082000Y-161544000D01*
X144526000Y-147320000D02*
X145034000Y-147828000D01*
X147066000Y-158750000D02*
X147574000Y-159258000D01*
X140657386Y-133042971D02*
X142494000Y-134879585D01*
X147066000Y-156972000D02*
X147066000Y-158750000D01*
X148082000Y-163322000D02*
X149860000Y-165100000D01*
X143002000Y-140462000D02*
X143510000Y-140970000D01*
X145542000Y-150114000D02*
X145542000Y-151892000D01*
X142494000Y-143256000D02*
X143002000Y-143764000D01*
X143510000Y-146050000D02*
X143510000Y-147828000D01*
X140091701Y-133608656D02*
X141478000Y-134994955D01*
X143510000Y-147828000D02*
X144018000Y-148336000D01*
X142494000Y-141478000D02*
X142494000Y-143256000D01*
X141478000Y-134994955D02*
X141478000Y-138684000D01*
X146558000Y-161544000D02*
X147066000Y-162052000D01*
X148082000Y-168402000D02*
X149860000Y-170180000D01*
X141478000Y-138684000D02*
X141986000Y-139192000D01*
X147066000Y-162052000D02*
X147066000Y-163830000D01*
X144526000Y-150622000D02*
X144526000Y-152400000D01*
X147066000Y-163830000D02*
X147574000Y-164338000D01*
X146558000Y-159766000D02*
X146558000Y-161544000D01*
X146050000Y-159258000D02*
X146558000Y-159766000D01*
X143002000Y-145542000D02*
X143510000Y-146050000D01*
X145542000Y-156972000D02*
X146050000Y-157480000D01*
X144018000Y-148336000D02*
X144018000Y-150114000D01*
X146050000Y-157480000D02*
X146050000Y-159258000D01*
X141986000Y-139192000D02*
X141986000Y-140970000D01*
X148082000Y-166624000D02*
X148082000Y-168402000D01*
X145542000Y-155194000D02*
X145542000Y-156972000D01*
X141986000Y-140970000D02*
X142494000Y-141478000D01*
X144018000Y-150114000D02*
X144526000Y-150622000D01*
X143002000Y-143764000D02*
X143002000Y-145542000D01*
X145034000Y-152908000D02*
X145034000Y-154686000D01*
X145034000Y-154686000D02*
X145542000Y-155194000D01*
X147574000Y-166116000D02*
X148082000Y-166624000D01*
X147574000Y-164338000D02*
X147574000Y-166116000D01*
X144526000Y-152400000D02*
X145034000Y-152908000D01*
X144051499Y-129648858D02*
X149022641Y-134620000D01*
X149022641Y-134620000D02*
X149860000Y-134620000D01*
X147066000Y-168910000D02*
X147574000Y-169418000D01*
X146050000Y-162560000D02*
X146050000Y-164338000D01*
X141986000Y-144272000D02*
X141986000Y-146050000D01*
X147066000Y-167132000D02*
X147066000Y-168910000D01*
X143002000Y-150622000D02*
X143510000Y-151130000D01*
X148082000Y-171704000D02*
X148082000Y-173482000D01*
X145034000Y-159766000D02*
X145542000Y-160274000D01*
X143510000Y-152908000D02*
X144018000Y-153416000D01*
X146558000Y-164846000D02*
X146558000Y-166624000D01*
X140970000Y-141478000D02*
X141478000Y-141986000D01*
X140462000Y-135110326D02*
X140462000Y-139192000D01*
X144526000Y-157480000D02*
X145034000Y-157988000D01*
X148082000Y-173482000D02*
X149860000Y-175260000D01*
X145034000Y-157988000D02*
X145034000Y-159766000D01*
X147574000Y-171196000D02*
X148082000Y-171704000D01*
X142494000Y-146558000D02*
X142494000Y-148336000D01*
X143510000Y-151130000D02*
X143510000Y-152908000D01*
X140970000Y-139700000D02*
X140970000Y-141478000D01*
X140462000Y-139192000D02*
X140970000Y-139700000D01*
X145542000Y-160274000D02*
X145542000Y-162052000D01*
X144018000Y-155194000D02*
X144526000Y-155702000D01*
X141478000Y-141986000D02*
X141478000Y-143764000D01*
X147574000Y-169418000D02*
X147574000Y-171196000D01*
X142494000Y-148336000D02*
X143002000Y-148844000D01*
X146558000Y-166624000D02*
X147066000Y-167132000D01*
X146050000Y-164338000D02*
X146558000Y-164846000D01*
X139526016Y-134174342D02*
X140462000Y-135110326D01*
X144526000Y-155702000D02*
X144526000Y-157480000D01*
X144018000Y-153416000D02*
X144018000Y-155194000D01*
X145542000Y-162052000D02*
X146050000Y-162560000D01*
X141478000Y-143764000D02*
X141986000Y-144272000D01*
X141986000Y-146050000D02*
X142494000Y-146558000D01*
X143002000Y-148844000D02*
X143002000Y-150622000D01*
X144335008Y-127175111D02*
X147048992Y-124461127D01*
X147048992Y-124461127D02*
X149860666Y-124461127D01*
X132334000Y-153162000D02*
X132334000Y-154940000D01*
X134366000Y-144018000D02*
X134366000Y-145796000D01*
X134874000Y-143510000D02*
X134366000Y-144018000D01*
X130302000Y-164084000D02*
X129794000Y-164592000D01*
X133858000Y-148082000D02*
X133350000Y-148590000D01*
X133350000Y-148590000D02*
X133350000Y-150368000D01*
X134874000Y-141732000D02*
X134874000Y-143510000D01*
X128778000Y-170942000D02*
X127000000Y-172720000D01*
X128778000Y-169164000D02*
X128778000Y-170942000D01*
X135382000Y-139446000D02*
X135382000Y-141224000D01*
X130810000Y-160020000D02*
X130810000Y-161798000D01*
X129286000Y-168656000D02*
X128778000Y-169164000D01*
X135890000Y-138938000D02*
X135382000Y-139446000D01*
X131826000Y-155448000D02*
X131826000Y-157226000D01*
X129286000Y-166878000D02*
X129286000Y-168656000D01*
X131826000Y-157226000D02*
X131318000Y-157734000D01*
X133350000Y-150368000D02*
X132842000Y-150876000D01*
X133858000Y-146304000D02*
X133858000Y-148082000D01*
X132842000Y-152654000D02*
X132334000Y-153162000D01*
X135890000Y-135052641D02*
X135890000Y-138938000D01*
X131318000Y-159512000D02*
X130810000Y-160020000D01*
X131318000Y-157734000D02*
X131318000Y-159512000D01*
X129794000Y-166370000D02*
X129286000Y-166878000D01*
X130810000Y-161798000D02*
X130302000Y-162306000D01*
X132334000Y-154940000D02*
X131826000Y-155448000D01*
X130302000Y-162306000D02*
X130302000Y-164084000D01*
X137051142Y-133891499D02*
X135890000Y-135052641D01*
X135382000Y-141224000D02*
X134874000Y-141732000D01*
X134366000Y-145796000D02*
X133858000Y-146304000D01*
X132842000Y-150876000D02*
X132842000Y-152654000D01*
X129794000Y-164592000D02*
X129794000Y-166370000D01*
X145328677Y-126747128D02*
X149606667Y-126747127D01*
X149606667Y-126747127D02*
X149860666Y-127001127D01*
X144617850Y-127457954D02*
X145328677Y-126747128D01*
X136485456Y-133325813D02*
X134874000Y-134937269D01*
X131826000Y-150368000D02*
X131826000Y-152146000D01*
X133350000Y-143510000D02*
X133350000Y-145288000D01*
X131826000Y-152146000D02*
X131318000Y-152654000D01*
X128778000Y-165862000D02*
X127000000Y-167640000D01*
X132334000Y-149860000D02*
X131826000Y-150368000D01*
X133858000Y-143002000D02*
X133350000Y-143510000D01*
X128778000Y-164084000D02*
X128778000Y-165862000D01*
X130810000Y-156718000D02*
X130302000Y-157226000D01*
X129286000Y-163576000D02*
X128778000Y-164084000D01*
X134874000Y-138430000D02*
X134366000Y-138938000D01*
X129794000Y-161290000D02*
X129286000Y-161798000D01*
X133858000Y-141224000D02*
X133858000Y-143002000D01*
X134874000Y-134937269D02*
X134874000Y-138430000D01*
X130302000Y-157226000D02*
X130302000Y-159004000D01*
X132334000Y-148082000D02*
X132334000Y-149860000D01*
X130810000Y-154940000D02*
X130810000Y-156718000D01*
X134366000Y-138938000D02*
X134366000Y-140716000D01*
X129794000Y-159512000D02*
X129794000Y-161290000D01*
X132842000Y-147574000D02*
X132334000Y-148082000D01*
X132842000Y-145796000D02*
X132842000Y-147574000D01*
X133350000Y-145288000D02*
X132842000Y-145796000D01*
X129286000Y-161798000D02*
X129286000Y-163576000D01*
X131318000Y-154432000D02*
X130810000Y-154940000D01*
X134366000Y-140716000D02*
X133858000Y-141224000D01*
X130302000Y-159004000D02*
X129794000Y-159512000D01*
X131318000Y-152654000D02*
X131318000Y-154432000D01*
X147066000Y-148590000D02*
X147574000Y-149098000D01*
X145034000Y-137668000D02*
X145034000Y-139446000D01*
X147066000Y-146812000D02*
X147066000Y-148590000D01*
X146050000Y-142240000D02*
X146050000Y-144018000D01*
X146050000Y-144018000D02*
X146558000Y-144526000D01*
X141788757Y-131911600D02*
X144526000Y-134648843D01*
X145542000Y-141732000D02*
X146050000Y-142240000D01*
X145034000Y-139446000D02*
X145542000Y-139954000D01*
X147574000Y-150876000D02*
X148082000Y-151384000D01*
X146558000Y-144526000D02*
X146558000Y-146304000D01*
X148082000Y-153162000D02*
X149860000Y-154940000D01*
X144526000Y-137160000D02*
X145034000Y-137668000D01*
X145542000Y-139954000D02*
X145542000Y-141732000D01*
X146558000Y-146304000D02*
X147066000Y-146812000D01*
X148082000Y-151384000D02*
X148082000Y-153162000D01*
X144526000Y-134648843D02*
X144526000Y-137160000D01*
X147574000Y-149098000D02*
X147574000Y-150876000D01*
X138430000Y-130320610D02*
X138430000Y-135382000D01*
X138430666Y-126220517D02*
X138430666Y-121159127D01*
X146050666Y-99823127D02*
X146558666Y-99315127D01*
X148082665Y-92457127D02*
X148082666Y-90679127D01*
X147574666Y-92965127D02*
X148082665Y-92457127D01*
X145034666Y-106173127D02*
X145034666Y-104395127D01*
X143510666Y-111253127D02*
X144018666Y-110745126D01*
X145034666Y-104395127D02*
X145542666Y-103887127D01*
X144526666Y-108459127D02*
X144526666Y-106681127D01*
X142494666Y-117603127D02*
X142494666Y-115825127D01*
X145542666Y-103887127D02*
X145542666Y-102109127D01*
X147574666Y-94743127D02*
X147574666Y-92965127D01*
X143510666Y-113031127D02*
X143510666Y-111253127D01*
X143002666Y-115317127D02*
X143002666Y-113539127D01*
X146558666Y-99315127D02*
X146558666Y-97537127D01*
X143002666Y-113539127D02*
X143510666Y-113031127D01*
X141986666Y-121603858D02*
X141986666Y-118111127D01*
X147066665Y-95251127D02*
X147574666Y-94743127D01*
X145542666Y-102109127D02*
X146050666Y-101601127D01*
X146050666Y-101601127D02*
X146050666Y-99823127D01*
X141986666Y-118111127D02*
X142494666Y-117603127D01*
X140375210Y-123215314D02*
X141986666Y-121603858D01*
X144018666Y-110745126D02*
X144018665Y-108967127D01*
X142494666Y-115825127D02*
X143002666Y-115317127D01*
X144018665Y-108967127D02*
X144526666Y-108459127D01*
X146558666Y-97537127D02*
X147066666Y-97029127D01*
X147066666Y-97029127D02*
X147066665Y-95251127D01*
X144526666Y-106681127D02*
X145034666Y-106173127D01*
X148082666Y-90679127D02*
X149860666Y-88901127D01*
X147574666Y-107443127D02*
X147574667Y-105665127D01*
X145034666Y-118873127D02*
X145034666Y-117095127D01*
X146558666Y-112015127D02*
X146558666Y-110237127D01*
X141789423Y-124629527D02*
X144526666Y-121892284D01*
X147066665Y-109729127D02*
X147066665Y-107951127D01*
X148082666Y-105157127D02*
X148082666Y-103379127D01*
X146050666Y-114301127D02*
X146050666Y-112523127D01*
X145542666Y-116587127D02*
X145542666Y-114809127D01*
X147574667Y-105665127D02*
X148082666Y-105157127D01*
X145542666Y-114809127D02*
X146050666Y-114301127D01*
X146558666Y-110237127D02*
X147066665Y-109729127D01*
X148082666Y-103379127D02*
X149860666Y-101601127D01*
X144526666Y-121892284D02*
X144526666Y-119381127D01*
X146050666Y-112523127D02*
X146558666Y-112015127D01*
X147066665Y-107951127D02*
X147574666Y-107443127D01*
X145034666Y-117095127D02*
X145542666Y-116587127D01*
X144526666Y-119381127D02*
X145034666Y-118873127D01*
X147574666Y-87885127D02*
X148082666Y-87377127D01*
X147066666Y-90171127D02*
X147574666Y-89663127D01*
X144018666Y-103887127D02*
X144526666Y-103379127D01*
X148082666Y-85599127D02*
X149860666Y-83821127D01*
X145542666Y-97029127D02*
X146050665Y-96521127D01*
X142494666Y-110745127D02*
X143002666Y-110237127D01*
X146050665Y-96521127D02*
X146050666Y-94743127D01*
X141478666Y-117095127D02*
X141478666Y-115317127D01*
X143002666Y-108459127D02*
X143510666Y-107951127D01*
X143510666Y-107951127D02*
X143510666Y-106173127D01*
X145034666Y-99315126D02*
X145542666Y-98807127D01*
X146558666Y-94235127D02*
X146558666Y-92457127D01*
X140970666Y-121488486D02*
X140970666Y-117603127D01*
X148082666Y-87377127D02*
X148082666Y-85599127D01*
X147574666Y-89663127D02*
X147574666Y-87885127D01*
X143510666Y-106173127D02*
X144018666Y-105665127D01*
X144018666Y-105665127D02*
X144018666Y-103887127D01*
X145542666Y-98807127D02*
X145542666Y-97029127D01*
X143002666Y-110237127D02*
X143002666Y-108459127D01*
X141478666Y-115317127D02*
X141986666Y-114809126D01*
X140970666Y-117603127D02*
X141478666Y-117095127D01*
X141986665Y-113031127D02*
X142494666Y-112523127D01*
X142494666Y-112523127D02*
X142494666Y-110745127D01*
X146050666Y-94743127D02*
X146558666Y-94235127D01*
X144526666Y-103379127D02*
X144526666Y-101601127D01*
X144526666Y-101601127D02*
X145034666Y-101093127D01*
X146558666Y-92457127D02*
X147066666Y-91949127D01*
X141986666Y-114809126D02*
X141986665Y-113031127D01*
X145034666Y-101093127D02*
X145034666Y-99315126D01*
X147066666Y-91949127D02*
X147066666Y-90171127D01*
X139809524Y-122649628D02*
X140970666Y-121488486D01*
X147066666Y-107189127D02*
X147066666Y-105411127D01*
X146558666Y-109475127D02*
X146558666Y-107697127D01*
X144018665Y-121834598D02*
X144018665Y-119127127D01*
X148082666Y-100839128D02*
X149860666Y-99061127D01*
X147574666Y-104903127D02*
X147574666Y-103125127D01*
X144526666Y-118619127D02*
X144526666Y-116841127D01*
X146050666Y-109983127D02*
X146558666Y-109475127D01*
X144526666Y-116841127D02*
X145034666Y-116333128D01*
X144018665Y-119127127D02*
X144526666Y-118619127D01*
X147066666Y-105411127D02*
X147574666Y-104903127D01*
X145542666Y-112269127D02*
X146050666Y-111761127D01*
X146558666Y-107697127D02*
X147066666Y-107189127D01*
X146050666Y-111761127D02*
X146050666Y-109983127D01*
X141506579Y-124346684D02*
X144018665Y-121834598D01*
X147574666Y-103125127D02*
X148082665Y-102617127D01*
X148082665Y-102617127D02*
X148082666Y-100839128D01*
X145034666Y-114555127D02*
X145542666Y-114047127D01*
X145034666Y-116333128D02*
X145034666Y-114555127D01*
X145542666Y-114047127D02*
X145542666Y-112269127D01*
X139954665Y-121373116D02*
X139954666Y-117095126D01*
X145542666Y-93727127D02*
X145542666Y-91949127D01*
X146050666Y-89663127D02*
X146558666Y-89155127D01*
X143002666Y-103379127D02*
X143510666Y-102871127D01*
X141986666Y-107951127D02*
X142494666Y-107443127D01*
X144526666Y-96521127D02*
X145034666Y-96013127D01*
X147066666Y-86869126D02*
X147066665Y-85091127D01*
X142494666Y-107443127D02*
X142494666Y-105665127D01*
X139954666Y-117095126D02*
X140462666Y-116587127D01*
X140970666Y-112523127D02*
X141478666Y-112015127D01*
X146558666Y-87377127D02*
X147066666Y-86869126D01*
X144018665Y-100585127D02*
X144018666Y-98807128D01*
X143510666Y-101093127D02*
X144018665Y-100585127D01*
X148082666Y-80519127D02*
X149860666Y-78741127D01*
X145034666Y-96013127D02*
X145034666Y-94235127D01*
X146050666Y-91441127D02*
X146050666Y-89663127D01*
X141478666Y-112015127D02*
X141478666Y-110237127D01*
X145034666Y-94235127D02*
X145542666Y-93727127D01*
X140970666Y-114301128D02*
X140970666Y-112523127D01*
X148082666Y-82297127D02*
X148082666Y-80519127D01*
X141986666Y-109729127D02*
X141986666Y-107951127D01*
X140462666Y-114809127D02*
X140970666Y-114301128D01*
X147574667Y-82805127D02*
X148082666Y-82297127D01*
X139243838Y-122083943D02*
X139954665Y-121373116D01*
X143002666Y-105157127D02*
X143002666Y-103379127D01*
X144526666Y-98299127D02*
X144526666Y-96521127D01*
X147574666Y-84583127D02*
X147574667Y-82805127D01*
X142494666Y-105665127D02*
X143002666Y-105157127D01*
X146558666Y-89155127D02*
X146558666Y-87377127D01*
X144018666Y-98807128D02*
X144526666Y-98299127D01*
X145542666Y-91949127D02*
X146050666Y-91441127D01*
X143510666Y-102871127D02*
X143510666Y-101093127D01*
X141478666Y-110237127D02*
X141986666Y-109729127D01*
X140462666Y-116587127D02*
X140462666Y-114809127D01*
X147066665Y-85091127D02*
X147574666Y-84583127D01*
X142494666Y-109983127D02*
X142494666Y-108205127D01*
X145034666Y-98553127D02*
X145034666Y-96775127D01*
X146558666Y-89917127D02*
X147066666Y-89409128D01*
X147066666Y-87631127D02*
X147574667Y-87123127D01*
X148082666Y-84837127D02*
X148082666Y-83059127D01*
X145542666Y-94489127D02*
X146050666Y-93981127D01*
X145542666Y-96267127D02*
X145542666Y-94489127D01*
X144526666Y-100839127D02*
X144526666Y-99061127D01*
X144526666Y-99061127D02*
X145034666Y-98553127D01*
X147574666Y-85345127D02*
X148082666Y-84837127D01*
X139526682Y-122366785D02*
X140462666Y-121430801D01*
X140462666Y-121430801D02*
X140462666Y-117349127D01*
X143510666Y-105411127D02*
X143510666Y-103633127D01*
X141478666Y-114555127D02*
X141478666Y-112777127D01*
X146050665Y-92203127D02*
X146558666Y-91695127D01*
X147066666Y-89409128D02*
X147066666Y-87631127D01*
X140970666Y-116841127D02*
X140970666Y-115063127D01*
X141986666Y-112269127D02*
X141986666Y-110491127D01*
X140970666Y-115063127D02*
X141478666Y-114555127D01*
X146558666Y-91695127D02*
X146558666Y-89917127D01*
X146050666Y-93981127D02*
X146050665Y-92203127D01*
X143002666Y-105919128D02*
X143510666Y-105411127D01*
X147574667Y-87123127D02*
X147574666Y-85345127D01*
X141986666Y-110491127D02*
X142494666Y-109983127D01*
X145034666Y-96775127D02*
X145542666Y-96267127D01*
X144018666Y-101347127D02*
X144526666Y-100839127D01*
X144018666Y-103125127D02*
X144018666Y-101347127D01*
X142494666Y-108205127D02*
X143002666Y-107697126D01*
X141478666Y-112777127D02*
X141986666Y-112269127D01*
X143510666Y-103633127D02*
X144018666Y-103125127D01*
X148082666Y-83059127D02*
X149860666Y-81281127D01*
X140462666Y-117349127D02*
X140970666Y-116841127D01*
X143002666Y-107697126D02*
X143002666Y-105919128D01*
X147574667Y-95505127D02*
X148082666Y-94997127D01*
X143510666Y-113793127D02*
X144018666Y-113285128D01*
X142494666Y-121661542D02*
X142494666Y-118365127D01*
X144018666Y-111507127D02*
X144526666Y-110999127D01*
X147066665Y-99569127D02*
X147066666Y-97791127D01*
X144526666Y-109221127D02*
X145034666Y-108713127D01*
X148082666Y-93219127D02*
X149860666Y-91441127D01*
X142494666Y-118365127D02*
X143002666Y-117857127D01*
X145542666Y-104649127D02*
X146050666Y-104141127D01*
X144526666Y-110999127D02*
X144526666Y-109221127D01*
X146050666Y-102363126D02*
X146558666Y-101855127D01*
X145034666Y-106935127D02*
X145542666Y-106427127D01*
X147574667Y-97283127D02*
X147574667Y-95505127D01*
X143510666Y-115571127D02*
X143510666Y-113793127D01*
X146558666Y-101855127D02*
X146558666Y-100077127D01*
X146558666Y-100077127D02*
X147066665Y-99569127D01*
X140658052Y-123498156D02*
X142494666Y-121661542D01*
X144018666Y-113285128D02*
X144018666Y-111507127D01*
X146050666Y-104141127D02*
X146050666Y-102363126D01*
X148082666Y-94997127D02*
X148082666Y-93219127D01*
X143002666Y-117857127D02*
X143002665Y-116079127D01*
X147066666Y-97791127D02*
X147574667Y-97283127D01*
X145034666Y-108713127D02*
X145034666Y-106935127D01*
X145542666Y-106427127D02*
X145542666Y-104649127D01*
X143002665Y-116079127D02*
X143510666Y-115571127D01*
X143510666Y-110491127D02*
X143510666Y-108713127D01*
X144018666Y-106427127D02*
X144526666Y-105919127D01*
X146050666Y-99061127D02*
X146050666Y-97283127D01*
X142494666Y-115063127D02*
X142494666Y-113285127D01*
X142494666Y-113285127D02*
X143002666Y-112777127D01*
X145034665Y-103633127D02*
X145034666Y-101855128D01*
X141478666Y-121546172D02*
X141478666Y-117857127D01*
X148082665Y-88139127D02*
X149860666Y-86361127D01*
X145542666Y-99569127D02*
X146050666Y-99061127D01*
X143002666Y-110999127D02*
X143510666Y-110491127D01*
X147574666Y-92203127D02*
X147574666Y-90425127D01*
X144526666Y-105919127D02*
X144526666Y-104141127D01*
X143510666Y-108713127D02*
X144018666Y-108205127D01*
X145542666Y-101347127D02*
X145542666Y-99569127D01*
X141478666Y-117857127D02*
X141986666Y-117349128D01*
X147574666Y-90425127D02*
X148082666Y-89917126D01*
X144526666Y-104141127D02*
X145034665Y-103633127D01*
X147066666Y-92711127D02*
X147574666Y-92203127D01*
X146050666Y-97283127D02*
X146558666Y-96775127D01*
X146558666Y-96775127D02*
X146558666Y-94997127D01*
X143002666Y-112777127D02*
X143002666Y-110999127D01*
X145034666Y-101855128D02*
X145542666Y-101347127D01*
X148082666Y-89917126D02*
X148082665Y-88139127D01*
X147066666Y-94489127D02*
X147066666Y-92711127D01*
X141986666Y-115571127D02*
X142494666Y-115063127D01*
X144018666Y-108205127D02*
X144018666Y-106427127D01*
X141986666Y-117349128D02*
X141986666Y-115571127D01*
X146558666Y-94997127D02*
X147066666Y-94489127D01*
X140092367Y-122932471D02*
X141478666Y-121546172D01*
X146558666Y-114555127D02*
X146558666Y-112777127D01*
X147574666Y-108205127D02*
X148082666Y-107697127D01*
X142072266Y-124912370D02*
X145034666Y-121949969D01*
X147066666Y-110491127D02*
X147574667Y-109983127D01*
X145542666Y-119127127D02*
X145542666Y-117349127D01*
X146050665Y-115063127D02*
X146558666Y-114555127D01*
X145034666Y-121949969D02*
X145034666Y-119635127D01*
X146558666Y-112777127D02*
X147066666Y-112269128D01*
X148082666Y-107697127D02*
X148082666Y-105919127D01*
X146050666Y-116841127D02*
X146050665Y-115063127D01*
X147574667Y-109983127D02*
X147574666Y-108205127D01*
X145542666Y-117349127D02*
X146050666Y-116841127D01*
X147066666Y-112269128D02*
X147066666Y-110491127D01*
X145034666Y-119635127D02*
X145542666Y-119127127D01*
X148082666Y-105919127D02*
X149860666Y-104141127D01*
X147066666Y-102109127D02*
X147066666Y-100331127D01*
X146558666Y-104395127D02*
X146558666Y-102617127D01*
X147574666Y-98045127D02*
X148082666Y-97537127D01*
X143510666Y-118111127D02*
X143510666Y-116333127D01*
X148082666Y-95759127D02*
X149860666Y-93981127D01*
X143002666Y-121719228D02*
X143002666Y-118619127D01*
X140940895Y-123780999D02*
X143002666Y-121719228D01*
X146050665Y-106681127D02*
X146050665Y-104903127D01*
X147066666Y-100331127D02*
X147574667Y-99823127D01*
X144526666Y-111761127D02*
X145034666Y-111253127D01*
X143510666Y-116333127D02*
X144018666Y-115825127D01*
X146050665Y-104903127D02*
X146558666Y-104395127D01*
X144526666Y-113539127D02*
X144526666Y-111761127D01*
X146558666Y-102617127D02*
X147066666Y-102109127D01*
X145034666Y-111253127D02*
X145034666Y-109475127D01*
X143002666Y-118619127D02*
X143510666Y-118111127D01*
X145542666Y-108967127D02*
X145542666Y-107189127D01*
X144018666Y-115825127D02*
X144018666Y-114047127D01*
X145034666Y-109475127D02*
X145542666Y-108967127D01*
X145542666Y-107189127D02*
X146050665Y-106681127D01*
X148082666Y-97537127D02*
X148082666Y-95759127D01*
X147574667Y-99823127D02*
X147574666Y-98045127D01*
X144018666Y-114047127D02*
X144526666Y-113539127D01*
X145542666Y-109729127D02*
X146050666Y-109221127D01*
X146558666Y-105157127D02*
X147066666Y-104649127D01*
X143510666Y-121776914D02*
X143510666Y-118873127D01*
X148082666Y-100077127D02*
X148082665Y-98299127D01*
X145542666Y-111507127D02*
X145542666Y-109729127D01*
X144018666Y-116587127D02*
X144526666Y-116079127D01*
X147066666Y-102871127D02*
X147574666Y-102363127D01*
X148082665Y-98299127D02*
X149860666Y-96521127D01*
X144018666Y-118365127D02*
X144018666Y-116587127D01*
X146558666Y-106935127D02*
X146558666Y-105157127D01*
X146050666Y-109221127D02*
X146050666Y-107443127D01*
X146050666Y-107443127D02*
X146558666Y-106935127D01*
X147066666Y-104649127D02*
X147066666Y-102871127D01*
X145034666Y-113793126D02*
X145034665Y-112015127D01*
X144526666Y-114301127D02*
X145034666Y-113793126D01*
X147574666Y-102363127D02*
X147574666Y-100585127D01*
X141223737Y-124063842D02*
X143510666Y-121776914D01*
X143510666Y-118873127D02*
X144018666Y-118365127D01*
X145034665Y-112015127D02*
X145542666Y-111507127D01*
X144526666Y-116079127D02*
X144526666Y-114301127D01*
X147574666Y-100585127D02*
X148082666Y-100077127D01*
G04 #@! TA.AperFunction,Conductor*
G36*
X138519697Y-134578170D02*
G01*
X138527511Y-134587188D01*
X138540585Y-134603831D01*
X138540598Y-134603846D01*
X139317181Y-135380428D01*
X139350666Y-135441751D01*
X139353500Y-135468109D01*
X139353500Y-139359330D01*
X139353499Y-139359348D01*
X139353499Y-139525054D01*
X139353498Y-139525054D01*
X139394423Y-139677785D01*
X139420074Y-139722214D01*
X139420076Y-139722216D01*
X139473479Y-139814714D01*
X139473481Y-139814717D01*
X139592349Y-139933585D01*
X139592355Y-139933590D01*
X139825181Y-140166416D01*
X139858666Y-140227739D01*
X139861500Y-140254097D01*
X139861500Y-141645330D01*
X139861499Y-141645348D01*
X139861499Y-141811054D01*
X139861498Y-141811054D01*
X139902423Y-141963785D01*
X139928074Y-142008214D01*
X139928076Y-142008216D01*
X139981479Y-142100714D01*
X139981481Y-142100717D01*
X140100349Y-142219585D01*
X140100355Y-142219590D01*
X140333181Y-142452416D01*
X140366666Y-142513739D01*
X140369500Y-142540097D01*
X140369500Y-143931330D01*
X140369499Y-143931348D01*
X140369499Y-144097054D01*
X140369498Y-144097054D01*
X140369499Y-144097056D01*
X140369499Y-144097057D01*
X140410423Y-144249785D01*
X140410425Y-144249788D01*
X140417240Y-144261592D01*
X140489477Y-144386712D01*
X140489481Y-144386717D01*
X140608349Y-144505585D01*
X140608355Y-144505590D01*
X140841181Y-144738416D01*
X140874666Y-144799739D01*
X140877500Y-144826097D01*
X140877500Y-146217330D01*
X140877499Y-146217348D01*
X140877499Y-146383054D01*
X140877498Y-146383054D01*
X140918423Y-146535785D01*
X140944074Y-146580214D01*
X140944076Y-146580216D01*
X140997479Y-146672714D01*
X140997481Y-146672717D01*
X141116349Y-146791585D01*
X141116355Y-146791590D01*
X141349181Y-147024416D01*
X141382666Y-147085739D01*
X141385500Y-147112097D01*
X141385500Y-148503330D01*
X141385499Y-148503348D01*
X141385499Y-148669054D01*
X141385498Y-148669054D01*
X141385499Y-148669056D01*
X141385499Y-148669057D01*
X141426423Y-148821785D01*
X141426424Y-148821786D01*
X141431104Y-148829894D01*
X141431106Y-148829896D01*
X141505477Y-148958712D01*
X141505481Y-148958717D01*
X141624349Y-149077585D01*
X141624355Y-149077590D01*
X141857181Y-149310416D01*
X141890666Y-149371739D01*
X141893500Y-149398097D01*
X141893500Y-150789330D01*
X141893499Y-150789348D01*
X141893499Y-150955054D01*
X141893498Y-150955054D01*
X141909575Y-151015051D01*
X141934423Y-151107785D01*
X141936594Y-151111546D01*
X141936598Y-151111558D01*
X141936601Y-151111557D01*
X142013477Y-151244712D01*
X142013481Y-151244717D01*
X142132349Y-151363585D01*
X142132355Y-151363590D01*
X142365181Y-151596416D01*
X142398666Y-151657739D01*
X142401500Y-151684097D01*
X142401500Y-153075330D01*
X142401499Y-153075348D01*
X142401499Y-153241054D01*
X142401498Y-153241054D01*
X142401499Y-153241056D01*
X142401499Y-153241057D01*
X142442423Y-153393785D01*
X142442424Y-153393786D01*
X142446298Y-153400498D01*
X142446300Y-153400500D01*
X142521477Y-153530712D01*
X142521481Y-153530717D01*
X142640349Y-153649585D01*
X142640355Y-153649590D01*
X142873181Y-153882416D01*
X142906666Y-153943739D01*
X142909500Y-153970097D01*
X142909500Y-155361330D01*
X142909499Y-155361348D01*
X142909499Y-155527054D01*
X142909498Y-155527054D01*
X142950423Y-155679785D01*
X142971988Y-155717135D01*
X142971989Y-155717139D01*
X143029475Y-155816709D01*
X143029481Y-155816717D01*
X143148349Y-155935585D01*
X143148355Y-155935590D01*
X143381181Y-156168416D01*
X143414666Y-156229739D01*
X143417500Y-156256097D01*
X143417500Y-157647330D01*
X143417499Y-157647348D01*
X143417499Y-157813054D01*
X143417498Y-157813054D01*
X143458423Y-157965785D01*
X143484074Y-158010214D01*
X143484076Y-158010216D01*
X143537479Y-158102714D01*
X143537481Y-158102717D01*
X143656349Y-158221585D01*
X143656355Y-158221590D01*
X143889181Y-158454416D01*
X143922666Y-158515739D01*
X143925500Y-158542097D01*
X143925500Y-159933330D01*
X143925499Y-159933348D01*
X143925499Y-160099054D01*
X143925498Y-160099054D01*
X143966423Y-160251785D01*
X143992074Y-160296214D01*
X143992076Y-160296216D01*
X144045479Y-160388714D01*
X144045481Y-160388717D01*
X144164349Y-160507585D01*
X144164355Y-160507590D01*
X144397181Y-160740416D01*
X144430666Y-160801739D01*
X144433500Y-160828097D01*
X144433500Y-162219330D01*
X144433499Y-162219348D01*
X144433499Y-162385054D01*
X144433498Y-162385054D01*
X144474423Y-162537785D01*
X144500074Y-162582214D01*
X144500076Y-162582216D01*
X144553479Y-162674714D01*
X144553481Y-162674717D01*
X144672349Y-162793585D01*
X144672355Y-162793590D01*
X144905181Y-163026416D01*
X144938666Y-163087739D01*
X144941500Y-163114097D01*
X144941500Y-164505330D01*
X144941499Y-164505348D01*
X144941499Y-164671054D01*
X144941498Y-164671054D01*
X144982423Y-164823785D01*
X145008074Y-164868214D01*
X145008076Y-164868216D01*
X145061479Y-164960714D01*
X145061481Y-164960717D01*
X145180349Y-165079585D01*
X145180355Y-165079590D01*
X145413181Y-165312416D01*
X145446666Y-165373739D01*
X145449500Y-165400097D01*
X145449500Y-166791330D01*
X145449499Y-166791348D01*
X145449499Y-166957054D01*
X145449498Y-166957054D01*
X145449499Y-166957056D01*
X145449499Y-166957057D01*
X145490423Y-167109785D01*
X145490425Y-167109788D01*
X145497240Y-167121592D01*
X145569477Y-167246712D01*
X145569481Y-167246717D01*
X145688349Y-167365585D01*
X145688355Y-167365590D01*
X145921181Y-167598416D01*
X145954666Y-167659739D01*
X145957500Y-167686097D01*
X145957500Y-169077330D01*
X145957499Y-169077348D01*
X145957499Y-169243054D01*
X145957498Y-169243054D01*
X145998423Y-169395785D01*
X146024074Y-169440214D01*
X146024076Y-169440216D01*
X146077479Y-169532714D01*
X146077481Y-169532717D01*
X146196349Y-169651585D01*
X146196355Y-169651590D01*
X146429181Y-169884416D01*
X146462666Y-169945739D01*
X146465500Y-169972097D01*
X146465500Y-171363330D01*
X146465499Y-171363348D01*
X146465499Y-171529054D01*
X146465498Y-171529054D01*
X146465499Y-171529056D01*
X146465499Y-171529057D01*
X146506423Y-171681785D01*
X146506424Y-171681786D01*
X146511104Y-171689894D01*
X146511106Y-171689896D01*
X146585477Y-171818712D01*
X146585481Y-171818717D01*
X146704349Y-171937585D01*
X146704355Y-171937590D01*
X146937181Y-172170416D01*
X146970666Y-172231739D01*
X146973500Y-172258097D01*
X146973500Y-173649330D01*
X146973499Y-173649348D01*
X146973499Y-173815054D01*
X146973498Y-173815054D01*
X146989575Y-173875051D01*
X147014423Y-173967785D01*
X147016594Y-173971546D01*
X147016598Y-173971558D01*
X147016601Y-173971557D01*
X147093477Y-174104712D01*
X147093481Y-174104717D01*
X147212349Y-174223585D01*
X147212355Y-174223590D01*
X147445181Y-174456416D01*
X147478666Y-174517739D01*
X147481500Y-174544097D01*
X147481500Y-175935330D01*
X147481499Y-175935348D01*
X147481499Y-176101054D01*
X147481498Y-176101054D01*
X147481499Y-176101057D01*
X147522423Y-176253785D01*
X147522424Y-176253786D01*
X147526298Y-176260498D01*
X147526300Y-176260500D01*
X147601477Y-176390712D01*
X147601481Y-176390717D01*
X147720349Y-176509585D01*
X147720355Y-176509590D01*
X148526241Y-177315476D01*
X148559726Y-177376799D01*
X148556492Y-177441473D01*
X148542753Y-177483757D01*
X148509500Y-177693713D01*
X148509500Y-177906286D01*
X148542753Y-178116239D01*
X148608444Y-178318414D01*
X148704951Y-178507820D01*
X148829890Y-178679786D01*
X148980213Y-178830109D01*
X149152179Y-178955048D01*
X149152181Y-178955049D01*
X149152184Y-178955051D01*
X149341588Y-179051557D01*
X149543757Y-179117246D01*
X149753713Y-179150500D01*
X149753714Y-179150500D01*
X149966286Y-179150500D01*
X149966287Y-179150500D01*
X150176243Y-179117246D01*
X150378412Y-179051557D01*
X150449205Y-179015485D01*
X150517874Y-179002590D01*
X150582614Y-179028866D01*
X150622872Y-179085972D01*
X150629500Y-179125971D01*
X150629500Y-180985500D01*
X150609815Y-181052539D01*
X150557011Y-181098294D01*
X150505500Y-181109500D01*
X126354500Y-181109500D01*
X126287461Y-181089815D01*
X126241706Y-181037011D01*
X126230500Y-180985500D01*
X126230500Y-179125971D01*
X126250185Y-179058932D01*
X126302989Y-179013177D01*
X126372147Y-179003233D01*
X126410793Y-179015485D01*
X126481588Y-179051557D01*
X126683757Y-179117246D01*
X126893713Y-179150500D01*
X126893714Y-179150500D01*
X127106286Y-179150500D01*
X127106287Y-179150500D01*
X127316243Y-179117246D01*
X127518412Y-179051557D01*
X127707816Y-178955051D01*
X127729789Y-178939086D01*
X127879786Y-178830109D01*
X127879788Y-178830106D01*
X127879792Y-178830104D01*
X128030104Y-178679792D01*
X128030106Y-178679788D01*
X128030109Y-178679786D01*
X128155048Y-178507820D01*
X128155047Y-178507820D01*
X128155051Y-178507816D01*
X128251557Y-178318412D01*
X128317246Y-178116243D01*
X128350500Y-177906287D01*
X128350500Y-177693713D01*
X128317246Y-177483757D01*
X128303506Y-177441473D01*
X128301512Y-177371635D01*
X128333755Y-177315478D01*
X129258520Y-176390716D01*
X129337577Y-176253784D01*
X129378501Y-176101057D01*
X129378501Y-175942942D01*
X129378501Y-175935339D01*
X129378500Y-175935329D01*
X129378500Y-174544096D01*
X129398185Y-174477057D01*
X129414815Y-174456419D01*
X129644506Y-174226727D01*
X129644511Y-174226724D01*
X129654714Y-174216520D01*
X129654716Y-174216520D01*
X129766520Y-174104716D01*
X129845577Y-173967784D01*
X129886500Y-173815057D01*
X129886500Y-172258096D01*
X129906185Y-172191057D01*
X129922815Y-172170419D01*
X130152506Y-171940727D01*
X130152511Y-171940724D01*
X130162714Y-171930520D01*
X130162716Y-171930520D01*
X130274520Y-171818716D01*
X130353577Y-171681784D01*
X130390898Y-171542500D01*
X130394500Y-171529058D01*
X130394500Y-171370943D01*
X130394500Y-169972096D01*
X130414185Y-169905057D01*
X130430815Y-169884419D01*
X130660506Y-169654727D01*
X130660511Y-169654724D01*
X130670714Y-169644520D01*
X130670716Y-169644520D01*
X130782520Y-169532716D01*
X130861577Y-169395784D01*
X130902500Y-169243057D01*
X130902500Y-167686096D01*
X130922185Y-167619057D01*
X130938815Y-167598419D01*
X131168506Y-167368727D01*
X131168511Y-167368724D01*
X131178714Y-167358520D01*
X131178716Y-167358520D01*
X131290520Y-167246716D01*
X131369577Y-167109784D01*
X131410500Y-166957057D01*
X131410500Y-165400096D01*
X131430185Y-165333057D01*
X131446815Y-165312419D01*
X131676506Y-165082727D01*
X131676511Y-165082724D01*
X131686714Y-165072520D01*
X131686716Y-165072520D01*
X131798520Y-164960716D01*
X131877577Y-164823784D01*
X131918500Y-164671057D01*
X131918500Y-163114096D01*
X131938185Y-163047057D01*
X131954815Y-163026419D01*
X132184506Y-162796727D01*
X132184511Y-162796724D01*
X132194714Y-162786520D01*
X132194716Y-162786520D01*
X132306520Y-162674716D01*
X132385577Y-162537784D01*
X132426500Y-162385057D01*
X132426500Y-160828096D01*
X132446185Y-160761057D01*
X132462815Y-160740419D01*
X132692506Y-160510727D01*
X132692511Y-160510724D01*
X132702714Y-160500520D01*
X132702716Y-160500520D01*
X132814520Y-160388716D01*
X132893577Y-160251784D01*
X132934500Y-160099057D01*
X132934500Y-158542096D01*
X132954185Y-158475057D01*
X132970815Y-158454419D01*
X133200506Y-158224727D01*
X133200511Y-158224724D01*
X133210714Y-158214520D01*
X133210716Y-158214520D01*
X133322520Y-158102716D01*
X133401577Y-157965784D01*
X133442500Y-157813057D01*
X133442500Y-156256096D01*
X133462185Y-156189057D01*
X133478815Y-156168419D01*
X133708506Y-155938727D01*
X133708511Y-155938724D01*
X133718714Y-155928520D01*
X133718716Y-155928520D01*
X133830520Y-155816716D01*
X133909577Y-155679784D01*
X133950500Y-155527057D01*
X133950500Y-153970096D01*
X133970185Y-153903057D01*
X133986815Y-153882419D01*
X134216506Y-153652727D01*
X134216511Y-153652724D01*
X134226714Y-153642520D01*
X134226716Y-153642520D01*
X134338520Y-153530716D01*
X134417577Y-153393784D01*
X134458500Y-153241057D01*
X134458500Y-151684096D01*
X134478185Y-151617057D01*
X134494815Y-151596419D01*
X134724506Y-151366727D01*
X134724511Y-151366724D01*
X134734714Y-151356520D01*
X134734716Y-151356520D01*
X134846520Y-151244716D01*
X134925577Y-151107784D01*
X134966500Y-150955057D01*
X134966500Y-149398096D01*
X134986185Y-149331057D01*
X135002815Y-149310419D01*
X135232506Y-149080727D01*
X135232511Y-149080724D01*
X135242714Y-149070520D01*
X135242716Y-149070520D01*
X135354520Y-148958716D01*
X135433577Y-148821784D01*
X135470898Y-148682500D01*
X135474500Y-148669058D01*
X135474500Y-148510943D01*
X135474500Y-148510942D01*
X135474500Y-147112096D01*
X135494185Y-147045057D01*
X135510815Y-147024419D01*
X135740506Y-146794727D01*
X135740511Y-146794724D01*
X135750714Y-146784520D01*
X135750716Y-146784520D01*
X135862520Y-146672716D01*
X135941577Y-146535784D01*
X135982500Y-146383057D01*
X135982500Y-144826096D01*
X136002185Y-144759057D01*
X136018815Y-144738419D01*
X136248506Y-144508727D01*
X136248511Y-144508724D01*
X136258714Y-144498520D01*
X136258716Y-144498520D01*
X136370520Y-144386716D01*
X136449577Y-144249784D01*
X136490500Y-144097057D01*
X136490500Y-142540096D01*
X136510185Y-142473057D01*
X136526815Y-142452419D01*
X136756506Y-142222727D01*
X136756511Y-142222724D01*
X136766714Y-142212520D01*
X136766716Y-142212520D01*
X136878520Y-142100716D01*
X136957577Y-141963784D01*
X136998500Y-141811057D01*
X136998500Y-140254096D01*
X137018185Y-140187057D01*
X137034815Y-140166419D01*
X137264506Y-139936727D01*
X137264511Y-139936724D01*
X137274714Y-139926520D01*
X137274716Y-139926520D01*
X137386520Y-139814716D01*
X137465577Y-139677784D01*
X137506500Y-139525057D01*
X137506500Y-135468109D01*
X137526185Y-135401070D01*
X137542819Y-135380428D01*
X138319401Y-134603846D01*
X138319410Y-134603837D01*
X138332489Y-134587187D01*
X138389381Y-134546630D01*
X138459170Y-134543268D01*
X138519697Y-134578170D01*
G37*
G04 #@! TD.AperFunction*
G04 #@! TA.AperFunction,Conductor*
G36*
X138447245Y-122593736D02*
G01*
X138459170Y-122593162D01*
X138479647Y-122604970D01*
X138501981Y-122612713D01*
X138515570Y-122625684D01*
X138519697Y-122628064D01*
X138527500Y-122637070D01*
X138540590Y-122653732D01*
X138540595Y-122653738D01*
X138672247Y-122785390D01*
X138672251Y-122785393D01*
X138672256Y-122785398D01*
X138742320Y-122840439D01*
X138742322Y-122840440D01*
X138745217Y-122842714D01*
X138766125Y-122863622D01*
X138768392Y-122866507D01*
X138768393Y-122866510D01*
X138823434Y-122936574D01*
X138823437Y-122936577D01*
X138823441Y-122936582D01*
X138955091Y-123068232D01*
X138955095Y-123068235D01*
X138955100Y-123068240D01*
X139025164Y-123123281D01*
X139025166Y-123123281D01*
X139028052Y-123125549D01*
X139048960Y-123146457D01*
X139051233Y-123149351D01*
X139051235Y-123149354D01*
X139106276Y-123219418D01*
X139106279Y-123219421D01*
X139106283Y-123219426D01*
X139237939Y-123351082D01*
X139310897Y-123408397D01*
X139331804Y-123429303D01*
X139334077Y-123432196D01*
X139389118Y-123502260D01*
X139389120Y-123502262D01*
X139389124Y-123502267D01*
X139520775Y-123633918D01*
X139520779Y-123633921D01*
X139520784Y-123633926D01*
X139590848Y-123688967D01*
X139590849Y-123688967D01*
X139593741Y-123691239D01*
X139614649Y-123712147D01*
X139616920Y-123715038D01*
X139616921Y-123715040D01*
X139671962Y-123785104D01*
X139671965Y-123785107D01*
X139671969Y-123785112D01*
X139803625Y-123916768D01*
X139876583Y-123974083D01*
X139897490Y-123994989D01*
X139899763Y-123997882D01*
X139954804Y-124067946D01*
X139954806Y-124067948D01*
X139954810Y-124067953D01*
X140086467Y-124199610D01*
X140159424Y-124256924D01*
X140180332Y-124277831D01*
X140182604Y-124280723D01*
X140182605Y-124280725D01*
X140237646Y-124350789D01*
X140237649Y-124350792D01*
X140237653Y-124350797D01*
X140369303Y-124482447D01*
X140369307Y-124482450D01*
X140369312Y-124482455D01*
X140439376Y-124537496D01*
X140439377Y-124537496D01*
X140442270Y-124539769D01*
X140463177Y-124560677D01*
X140520490Y-124633633D01*
X140652152Y-124765295D01*
X140725110Y-124822610D01*
X140746017Y-124843516D01*
X140748290Y-124846409D01*
X140803331Y-124916473D01*
X140803333Y-124916475D01*
X140803337Y-124916480D01*
X140934988Y-125048131D01*
X140934992Y-125048134D01*
X140934997Y-125048139D01*
X141005061Y-125103180D01*
X141005062Y-125103180D01*
X141007954Y-125105452D01*
X141028862Y-125126360D01*
X141031133Y-125129251D01*
X141031134Y-125129253D01*
X141086175Y-125199317D01*
X141086178Y-125199320D01*
X141086182Y-125199325D01*
X141217838Y-125330981D01*
X141290796Y-125388296D01*
X141311703Y-125409202D01*
X141313976Y-125412095D01*
X141369017Y-125482159D01*
X141369019Y-125482161D01*
X141369023Y-125482166D01*
X141500674Y-125613817D01*
X141500678Y-125613820D01*
X141500683Y-125613825D01*
X141570747Y-125668866D01*
X141570748Y-125668866D01*
X141573640Y-125671138D01*
X141594548Y-125692046D01*
X141596819Y-125694937D01*
X141596820Y-125694939D01*
X141651861Y-125765003D01*
X141651864Y-125765006D01*
X141651868Y-125765011D01*
X141783524Y-125896667D01*
X141856482Y-125953982D01*
X141877389Y-125974888D01*
X141879662Y-125977781D01*
X141934703Y-126047845D01*
X141934705Y-126047847D01*
X141934709Y-126047852D01*
X142066366Y-126179509D01*
X142139323Y-126236823D01*
X142160231Y-126257730D01*
X142162503Y-126260622D01*
X142162504Y-126260624D01*
X142217545Y-126330688D01*
X142217548Y-126330691D01*
X142217552Y-126330696D01*
X142349202Y-126462346D01*
X142349206Y-126462349D01*
X142349211Y-126462354D01*
X142419275Y-126517395D01*
X142419276Y-126517395D01*
X142422169Y-126519668D01*
X142443076Y-126540576D01*
X142500389Y-126613532D01*
X142632051Y-126745194D01*
X142705009Y-126802509D01*
X142725916Y-126823415D01*
X142728189Y-126826308D01*
X142783230Y-126896372D01*
X142783232Y-126896374D01*
X142783236Y-126896379D01*
X142914887Y-127028030D01*
X142914891Y-127028033D01*
X142914896Y-127028038D01*
X142984960Y-127083079D01*
X142984961Y-127083079D01*
X142987853Y-127085351D01*
X143008761Y-127106259D01*
X143011032Y-127109150D01*
X143011033Y-127109152D01*
X143066074Y-127179216D01*
X143066077Y-127179219D01*
X143066081Y-127179224D01*
X143197737Y-127310880D01*
X143270695Y-127368195D01*
X143291602Y-127389101D01*
X143293875Y-127391994D01*
X143348916Y-127462058D01*
X143348918Y-127462060D01*
X143348922Y-127462065D01*
X143480573Y-127593716D01*
X143480577Y-127593719D01*
X143480582Y-127593724D01*
X143550646Y-127648765D01*
X143550648Y-127648766D01*
X143553543Y-127651040D01*
X143574451Y-127671948D01*
X143576718Y-127674833D01*
X143576719Y-127674836D01*
X143631760Y-127744900D01*
X143631763Y-127744903D01*
X143631767Y-127744908D01*
X143763417Y-127876558D01*
X143763421Y-127876561D01*
X143763426Y-127876566D01*
X143833490Y-127931607D01*
X143833492Y-127931607D01*
X143836378Y-127933875D01*
X143857286Y-127954783D01*
X143859559Y-127957677D01*
X143859561Y-127957680D01*
X143914602Y-128027744D01*
X143914605Y-128027747D01*
X143914609Y-128027752D01*
X144046259Y-128159402D01*
X144046262Y-128159404D01*
X144046268Y-128159410D01*
X144062920Y-128172491D01*
X144103476Y-128229384D01*
X144106836Y-128299173D01*
X144071932Y-128359700D01*
X144062927Y-128367502D01*
X144047736Y-128379436D01*
X144046259Y-128380597D01*
X143914608Y-128512248D01*
X143857284Y-128585217D01*
X143836378Y-128606123D01*
X143763418Y-128663440D01*
X143631766Y-128795092D01*
X143574449Y-128868052D01*
X143553543Y-128888958D01*
X143480574Y-128946282D01*
X143348922Y-129077934D01*
X143291602Y-129150898D01*
X143270696Y-129171804D01*
X143197732Y-129229124D01*
X143066080Y-129360776D01*
X143008759Y-129433741D01*
X142987853Y-129454647D01*
X142914888Y-129511968D01*
X142783236Y-129643620D01*
X142725916Y-129716584D01*
X142705010Y-129737490D01*
X142632046Y-129794810D01*
X142500394Y-129926462D01*
X142443077Y-129999422D01*
X142422172Y-130020327D01*
X142349204Y-130077651D01*
X142217550Y-130209305D01*
X142160226Y-130282273D01*
X142139321Y-130303178D01*
X142066361Y-130360495D01*
X141934709Y-130492147D01*
X141877389Y-130565111D01*
X141856483Y-130586017D01*
X141783519Y-130643337D01*
X141651867Y-130774989D01*
X141594546Y-130847954D01*
X141573640Y-130868860D01*
X141500675Y-130926181D01*
X141369023Y-131057833D01*
X141311703Y-131130797D01*
X141290797Y-131151703D01*
X141217833Y-131209023D01*
X141086181Y-131340675D01*
X141028860Y-131413640D01*
X141007954Y-131434546D01*
X140934989Y-131491867D01*
X140803337Y-131623519D01*
X140746017Y-131696483D01*
X140725111Y-131717389D01*
X140652147Y-131774709D01*
X140520495Y-131906361D01*
X140463178Y-131979321D01*
X140442273Y-132000226D01*
X140369305Y-132057550D01*
X140237651Y-132189204D01*
X140180327Y-132262172D01*
X140159422Y-132283077D01*
X140086462Y-132340394D01*
X139954810Y-132472046D01*
X139897490Y-132545010D01*
X139876584Y-132565916D01*
X139803620Y-132623236D01*
X139671968Y-132754888D01*
X139614647Y-132827853D01*
X139593741Y-132848759D01*
X139520776Y-132906080D01*
X139389124Y-133037732D01*
X139331804Y-133110696D01*
X139310898Y-133131602D01*
X139237934Y-133188922D01*
X139106282Y-133320574D01*
X139048958Y-133393543D01*
X139028052Y-133414449D01*
X138955092Y-133471766D01*
X138823440Y-133603418D01*
X138766123Y-133676378D01*
X138745217Y-133697284D01*
X138672248Y-133754608D01*
X138540597Y-133886259D01*
X138540590Y-133886268D01*
X138527508Y-133902920D01*
X138470616Y-133943476D01*
X138400827Y-133946836D01*
X138340300Y-133911932D01*
X138332497Y-133902927D01*
X138319410Y-133886268D01*
X138319405Y-133886263D01*
X138319402Y-133886259D01*
X138187752Y-133754609D01*
X138187747Y-133754605D01*
X138187744Y-133754602D01*
X138117680Y-133699561D01*
X138117677Y-133699559D01*
X138114783Y-133697286D01*
X138093875Y-133676378D01*
X138091607Y-133673492D01*
X138091607Y-133673490D01*
X138036566Y-133603426D01*
X138036561Y-133603421D01*
X138036558Y-133603417D01*
X137904908Y-133471767D01*
X137904903Y-133471763D01*
X137904900Y-133471760D01*
X137834836Y-133416719D01*
X137834833Y-133416718D01*
X137831948Y-133414451D01*
X137811040Y-133393543D01*
X137808766Y-133390648D01*
X137808765Y-133390646D01*
X137753724Y-133320582D01*
X137753719Y-133320577D01*
X137753716Y-133320573D01*
X137622065Y-133188922D01*
X137622060Y-133188918D01*
X137622058Y-133188916D01*
X137551994Y-133133875D01*
X137549101Y-133131602D01*
X137528195Y-133110695D01*
X137470880Y-133037737D01*
X137339224Y-132906081D01*
X137339219Y-132906077D01*
X137339216Y-132906074D01*
X137269152Y-132851033D01*
X137269150Y-132851032D01*
X137266259Y-132848761D01*
X137245351Y-132827853D01*
X137243079Y-132824961D01*
X137243079Y-132824960D01*
X137188038Y-132754896D01*
X137188033Y-132754891D01*
X137188030Y-132754887D01*
X137056379Y-132623236D01*
X137056374Y-132623232D01*
X137056372Y-132623230D01*
X136986308Y-132568189D01*
X136983415Y-132565916D01*
X136962509Y-132545009D01*
X136905194Y-132472051D01*
X136773532Y-132340389D01*
X136700576Y-132283076D01*
X136679668Y-132262169D01*
X136677395Y-132259275D01*
X136622354Y-132189211D01*
X136622349Y-132189206D01*
X136622346Y-132189202D01*
X136490696Y-132057552D01*
X136490691Y-132057548D01*
X136490688Y-132057545D01*
X136420624Y-132002504D01*
X136420622Y-132002503D01*
X136417730Y-132000231D01*
X136396823Y-131979323D01*
X136339509Y-131906366D01*
X136207852Y-131774709D01*
X136207847Y-131774705D01*
X136207845Y-131774703D01*
X136137781Y-131719662D01*
X136134888Y-131717389D01*
X136113982Y-131696482D01*
X136056667Y-131623524D01*
X135925011Y-131491868D01*
X135925006Y-131491864D01*
X135925003Y-131491861D01*
X135854939Y-131436820D01*
X135854937Y-131436819D01*
X135852046Y-131434548D01*
X135831138Y-131413640D01*
X135828866Y-131410748D01*
X135828866Y-131410747D01*
X135773825Y-131340683D01*
X135773820Y-131340678D01*
X135773817Y-131340674D01*
X135642166Y-131209023D01*
X135642161Y-131209019D01*
X135642159Y-131209017D01*
X135572095Y-131153976D01*
X135569202Y-131151703D01*
X135548296Y-131130796D01*
X135490981Y-131057838D01*
X135359325Y-130926182D01*
X135359320Y-130926178D01*
X135359317Y-130926175D01*
X135289253Y-130871134D01*
X135289251Y-130871133D01*
X135286360Y-130868862D01*
X135265452Y-130847954D01*
X135263180Y-130845062D01*
X135263180Y-130845061D01*
X135208139Y-130774997D01*
X135208134Y-130774992D01*
X135208131Y-130774988D01*
X135076480Y-130643337D01*
X135076475Y-130643333D01*
X135076473Y-130643331D01*
X135006409Y-130588290D01*
X135003516Y-130586017D01*
X134982610Y-130565110D01*
X134925295Y-130492152D01*
X134793633Y-130360490D01*
X134720677Y-130303177D01*
X134699769Y-130282270D01*
X134697496Y-130279376D01*
X134642455Y-130209312D01*
X134642450Y-130209307D01*
X134642447Y-130209303D01*
X134510797Y-130077653D01*
X134510792Y-130077649D01*
X134510789Y-130077646D01*
X134440725Y-130022605D01*
X134440723Y-130022604D01*
X134437831Y-130020332D01*
X134416924Y-129999424D01*
X134359610Y-129926467D01*
X134227953Y-129794810D01*
X134227948Y-129794806D01*
X134227946Y-129794804D01*
X134157882Y-129739763D01*
X134154989Y-129737490D01*
X134134083Y-129716583D01*
X134076768Y-129643625D01*
X133945112Y-129511969D01*
X133945107Y-129511965D01*
X133945104Y-129511962D01*
X133875040Y-129456921D01*
X133875038Y-129456920D01*
X133872147Y-129454649D01*
X133851239Y-129433741D01*
X133848967Y-129430849D01*
X133848967Y-129430848D01*
X133793926Y-129360784D01*
X133793921Y-129360779D01*
X133793918Y-129360775D01*
X133662267Y-129229124D01*
X133662262Y-129229120D01*
X133662260Y-129229118D01*
X133592196Y-129174077D01*
X133589303Y-129171804D01*
X133568397Y-129150897D01*
X133511082Y-129077939D01*
X133379426Y-128946283D01*
X133379421Y-128946279D01*
X133379418Y-128946276D01*
X133309354Y-128891235D01*
X133309351Y-128891233D01*
X133306457Y-128888960D01*
X133285549Y-128868052D01*
X133283281Y-128865166D01*
X133283281Y-128865164D01*
X133228240Y-128795100D01*
X133228235Y-128795095D01*
X133228232Y-128795091D01*
X133096582Y-128663441D01*
X133096577Y-128663437D01*
X133096574Y-128663434D01*
X133026510Y-128608393D01*
X133026507Y-128608392D01*
X133023622Y-128606125D01*
X133002714Y-128585217D01*
X133000440Y-128582322D01*
X133000439Y-128582320D01*
X132945398Y-128512256D01*
X132945393Y-128512251D01*
X132945390Y-128512247D01*
X132813738Y-128380595D01*
X132813732Y-128380590D01*
X132797080Y-128367508D01*
X132756524Y-128310619D01*
X132753162Y-128240830D01*
X132788064Y-128180303D01*
X132797070Y-128172499D01*
X132813732Y-128159410D01*
X132945398Y-128027744D01*
X133000439Y-127957680D01*
X133000440Y-127957677D01*
X133002714Y-127954783D01*
X133023622Y-127933875D01*
X133026507Y-127931607D01*
X133026510Y-127931607D01*
X133096574Y-127876566D01*
X133228240Y-127744900D01*
X133283281Y-127674836D01*
X133283281Y-127674833D01*
X133285549Y-127671948D01*
X133306457Y-127651040D01*
X133309351Y-127648766D01*
X133309354Y-127648765D01*
X133379418Y-127593724D01*
X133511084Y-127462058D01*
X133566125Y-127391994D01*
X133566127Y-127391988D01*
X133568394Y-127389103D01*
X133589305Y-127368192D01*
X133592190Y-127365925D01*
X133592196Y-127365923D01*
X133662260Y-127310882D01*
X133793926Y-127179216D01*
X133848967Y-127109152D01*
X133848967Y-127109149D01*
X133851239Y-127106259D01*
X133872147Y-127085351D01*
X133875037Y-127083079D01*
X133875040Y-127083079D01*
X133945104Y-127028038D01*
X134076770Y-126896372D01*
X134131811Y-126826308D01*
X134131813Y-126826302D01*
X134134080Y-126823417D01*
X134154991Y-126802506D01*
X134157876Y-126800239D01*
X134157882Y-126800237D01*
X134227946Y-126745196D01*
X134359612Y-126613530D01*
X134414653Y-126543466D01*
X134414653Y-126543464D01*
X134416922Y-126540577D01*
X134437830Y-126519668D01*
X134440721Y-126517396D01*
X134440725Y-126517395D01*
X134510789Y-126462354D01*
X134642455Y-126330688D01*
X134697496Y-126260624D01*
X134697497Y-126260620D01*
X134699769Y-126257729D01*
X134720678Y-126236821D01*
X134723565Y-126234552D01*
X134723567Y-126234552D01*
X134793631Y-126179511D01*
X134925297Y-126047845D01*
X134980338Y-125977781D01*
X134980340Y-125977775D01*
X134982607Y-125974890D01*
X135003518Y-125953979D01*
X135006403Y-125951712D01*
X135006409Y-125951710D01*
X135076473Y-125896669D01*
X135208139Y-125765003D01*
X135263180Y-125694939D01*
X135263180Y-125694936D01*
X135265452Y-125692046D01*
X135286360Y-125671138D01*
X135289250Y-125668866D01*
X135289253Y-125668866D01*
X135359317Y-125613825D01*
X135490983Y-125482159D01*
X135546024Y-125412095D01*
X135546026Y-125412089D01*
X135548293Y-125409204D01*
X135569204Y-125388293D01*
X135572089Y-125386026D01*
X135572095Y-125386024D01*
X135642159Y-125330983D01*
X135773825Y-125199317D01*
X135828866Y-125129253D01*
X135828866Y-125129250D01*
X135831138Y-125126360D01*
X135852046Y-125105452D01*
X135854936Y-125103180D01*
X135854939Y-125103180D01*
X135925003Y-125048139D01*
X136056669Y-124916473D01*
X136111710Y-124846409D01*
X136111712Y-124846403D01*
X136113979Y-124843518D01*
X136134890Y-124822607D01*
X136137775Y-124820340D01*
X136137781Y-124820338D01*
X136207845Y-124765297D01*
X136339511Y-124633631D01*
X136394552Y-124563567D01*
X136394552Y-124563565D01*
X136396821Y-124560678D01*
X136417729Y-124539769D01*
X136420620Y-124537497D01*
X136420624Y-124537496D01*
X136490688Y-124482455D01*
X136622354Y-124350789D01*
X136677395Y-124280725D01*
X136677396Y-124280721D01*
X136679668Y-124277830D01*
X136700577Y-124256922D01*
X136703464Y-124254653D01*
X136703466Y-124254653D01*
X136773530Y-124199612D01*
X136905196Y-124067946D01*
X136960237Y-123997882D01*
X136960239Y-123997876D01*
X136962506Y-123994991D01*
X136983417Y-123974080D01*
X136986302Y-123971813D01*
X136986308Y-123971811D01*
X137056372Y-123916770D01*
X137188038Y-123785104D01*
X137243079Y-123715040D01*
X137243079Y-123715037D01*
X137245351Y-123712147D01*
X137266259Y-123691239D01*
X137269149Y-123688967D01*
X137269152Y-123688967D01*
X137339216Y-123633926D01*
X137470882Y-123502260D01*
X137525923Y-123432196D01*
X137525925Y-123432190D01*
X137528192Y-123429305D01*
X137549103Y-123408394D01*
X137551988Y-123406127D01*
X137551994Y-123406125D01*
X137622058Y-123351084D01*
X137753724Y-123219418D01*
X137808765Y-123149354D01*
X137808766Y-123149351D01*
X137811040Y-123146457D01*
X137831948Y-123125549D01*
X137834833Y-123123281D01*
X137834836Y-123123281D01*
X137904900Y-123068240D01*
X138036566Y-122936574D01*
X138091607Y-122866510D01*
X138091607Y-122866507D01*
X138093875Y-122863622D01*
X138114783Y-122842714D01*
X138117677Y-122840440D01*
X138117680Y-122840439D01*
X138187744Y-122785398D01*
X138319410Y-122653732D01*
X138332491Y-122637080D01*
X138351735Y-122623361D01*
X138368057Y-122606262D01*
X138379660Y-122603453D01*
X138389381Y-122596524D01*
X138412991Y-122595386D01*
X138435966Y-122589826D01*
X138447245Y-122593736D01*
G37*
G04 #@! TD.AperFunction*
G04 #@! TA.AperFunction,Conductor*
G36*
X150572539Y-75450185D02*
G01*
X150618294Y-75502989D01*
X150629500Y-75554500D01*
X150629500Y-77414028D01*
X150609815Y-77481067D01*
X150557011Y-77526822D01*
X150487853Y-77536766D01*
X150449206Y-77524513D01*
X150378417Y-77488445D01*
X150378414Y-77488444D01*
X150378412Y-77488443D01*
X150176243Y-77422754D01*
X150176241Y-77422753D01*
X150176240Y-77422753D01*
X150014957Y-77397208D01*
X149966287Y-77389500D01*
X149753713Y-77389500D01*
X149705042Y-77397208D01*
X149543760Y-77422753D01*
X149341585Y-77488444D01*
X149152179Y-77584951D01*
X148980213Y-77709890D01*
X148829890Y-77860213D01*
X148704951Y-78032179D01*
X148608444Y-78221585D01*
X148542753Y-78423760D01*
X148509500Y-78633713D01*
X148509500Y-78846286D01*
X148542753Y-79056242D01*
X148556931Y-79099878D01*
X148558925Y-79169719D01*
X148526680Y-79225875D01*
X147713952Y-80038605D01*
X147602147Y-80150409D01*
X147602145Y-80150412D01*
X147552027Y-80237221D01*
X147552025Y-80237223D01*
X147523091Y-80287336D01*
X147523090Y-80287337D01*
X147507210Y-80346599D01*
X147482165Y-80440070D01*
X147482165Y-80440071D01*
X147482165Y-80440072D01*
X147482165Y-80608173D01*
X147482166Y-80608186D01*
X147482166Y-81997029D01*
X147462481Y-82064068D01*
X147445847Y-82084710D01*
X147198881Y-82331675D01*
X147198882Y-82331676D01*
X147094145Y-82436412D01*
X147040744Y-82528910D01*
X147040742Y-82528912D01*
X147015092Y-82573337D01*
X147015090Y-82573340D01*
X146990544Y-82664949D01*
X146974166Y-82726070D01*
X146974166Y-82726071D01*
X146974166Y-82726072D01*
X146974167Y-82819500D01*
X146974167Y-82819501D01*
X146974166Y-84283027D01*
X146954481Y-84350067D01*
X146937847Y-84370708D01*
X146697951Y-84610605D01*
X146586146Y-84722409D01*
X146586144Y-84722412D01*
X146551713Y-84782050D01*
X146551712Y-84782051D01*
X146507089Y-84859339D01*
X146507088Y-84859342D01*
X146466165Y-85012069D01*
X146466164Y-85012071D01*
X146466164Y-85177778D01*
X146466165Y-85177795D01*
X146466165Y-86569029D01*
X146446480Y-86636068D01*
X146429846Y-86656710D01*
X146182880Y-86903675D01*
X146182881Y-86903676D01*
X146078145Y-87008412D01*
X146043850Y-87067815D01*
X146043849Y-87067816D01*
X145999090Y-87145340D01*
X145999089Y-87145341D01*
X145978627Y-87221706D01*
X145958165Y-87298070D01*
X145958165Y-87298071D01*
X145958165Y-87298072D01*
X145958166Y-87390104D01*
X145958166Y-88855029D01*
X145938481Y-88922068D01*
X145921847Y-88942710D01*
X145570147Y-89294409D01*
X145570145Y-89294411D01*
X145555674Y-89319476D01*
X145549558Y-89330071D01*
X145491089Y-89431342D01*
X145450165Y-89584070D01*
X145450165Y-89584072D01*
X145450165Y-89752173D01*
X145450166Y-89752186D01*
X145450166Y-91141029D01*
X145430481Y-91208068D01*
X145413847Y-91228710D01*
X145062147Y-91580409D01*
X145062145Y-91580412D01*
X145012027Y-91667221D01*
X145012025Y-91667223D01*
X144983091Y-91717336D01*
X144983090Y-91717337D01*
X144983089Y-91717342D01*
X144942165Y-91870070D01*
X144942165Y-91870072D01*
X144942165Y-92038173D01*
X144942166Y-92038186D01*
X144942166Y-93427029D01*
X144922481Y-93494068D01*
X144905847Y-93514710D01*
X144554147Y-93866409D01*
X144554145Y-93866412D01*
X144529086Y-93909816D01*
X144517693Y-93929551D01*
X144504027Y-93953221D01*
X144504025Y-93953223D01*
X144475091Y-94003336D01*
X144475090Y-94003337D01*
X144475089Y-94003342D01*
X144434165Y-94156070D01*
X144434165Y-94156072D01*
X144434165Y-94324173D01*
X144434166Y-94324186D01*
X144434166Y-95713029D01*
X144414481Y-95780068D01*
X144397847Y-95800710D01*
X144046147Y-96152409D01*
X144046143Y-96152414D01*
X144002410Y-96228164D01*
X144002410Y-96228165D01*
X143967089Y-96289341D01*
X143953447Y-96340251D01*
X143926165Y-96442070D01*
X143926165Y-96442071D01*
X143926165Y-96442072D01*
X143926165Y-96610173D01*
X143926166Y-96610186D01*
X143926166Y-97999029D01*
X143906481Y-98066068D01*
X143889847Y-98086710D01*
X143642880Y-98333676D01*
X143642881Y-98333677D01*
X143538144Y-98438413D01*
X143506785Y-98492730D01*
X143484742Y-98530911D01*
X143473431Y-98550502D01*
X143459090Y-98575341D01*
X143459089Y-98575342D01*
X143440257Y-98645625D01*
X143418165Y-98728071D01*
X143418165Y-98728072D01*
X143418165Y-98728073D01*
X143418166Y-98829342D01*
X143418166Y-98829343D01*
X143418165Y-100285029D01*
X143398480Y-100352069D01*
X143381846Y-100372710D01*
X143134880Y-100619675D01*
X143134881Y-100619676D01*
X143030143Y-100724414D01*
X142959252Y-100847203D01*
X142951090Y-100861339D01*
X142951089Y-100861343D01*
X142910165Y-101014070D01*
X142910165Y-101014071D01*
X142910165Y-101014072D01*
X142910166Y-101115341D01*
X142910166Y-102571029D01*
X142890481Y-102638068D01*
X142873847Y-102658710D01*
X142522147Y-103010409D01*
X142522145Y-103010412D01*
X142503919Y-103041980D01*
X142485693Y-103073550D01*
X142443089Y-103147342D01*
X142402165Y-103300070D01*
X142402165Y-103300072D01*
X142402165Y-103468173D01*
X142402166Y-103468186D01*
X142402166Y-104857029D01*
X142382481Y-104924068D01*
X142365847Y-104944710D01*
X142014147Y-105296409D01*
X142014141Y-105296417D01*
X141975843Y-105362753D01*
X141975843Y-105362754D01*
X141935089Y-105433342D01*
X141894165Y-105586070D01*
X141894165Y-105586072D01*
X141894165Y-105754173D01*
X141894166Y-105754186D01*
X141894166Y-107143029D01*
X141874481Y-107210068D01*
X141857847Y-107230710D01*
X141506147Y-107582409D01*
X141506145Y-107582412D01*
X141456027Y-107669221D01*
X141456025Y-107669223D01*
X141427091Y-107719336D01*
X141427090Y-107719337D01*
X141427089Y-107719342D01*
X141386165Y-107872070D01*
X141386165Y-107872071D01*
X141386165Y-107872072D01*
X141386165Y-108044617D01*
X141386166Y-108044626D01*
X141386166Y-109429029D01*
X141366481Y-109496068D01*
X141349847Y-109516710D01*
X140998147Y-109868409D01*
X140998145Y-109868412D01*
X140948027Y-109955221D01*
X140948025Y-109955223D01*
X140919091Y-110005336D01*
X140919090Y-110005337D01*
X140903210Y-110064599D01*
X140878165Y-110158070D01*
X140878165Y-110158072D01*
X140878165Y-110326173D01*
X140878166Y-110326186D01*
X140878166Y-111715029D01*
X140858481Y-111782068D01*
X140841847Y-111802710D01*
X140490147Y-112154409D01*
X140444245Y-112233914D01*
X140411089Y-112291342D01*
X140370165Y-112444070D01*
X140370165Y-112444072D01*
X140370165Y-112612173D01*
X140370166Y-112612186D01*
X140370166Y-114001029D01*
X140350481Y-114068068D01*
X140333847Y-114088710D01*
X139982147Y-114440409D01*
X139982145Y-114440412D01*
X139932027Y-114527221D01*
X139932025Y-114527223D01*
X139903091Y-114577336D01*
X139903090Y-114577339D01*
X139903089Y-114577341D01*
X139903089Y-114577342D01*
X139864693Y-114720638D01*
X139862166Y-114730069D01*
X139862165Y-114730071D01*
X139862165Y-114898172D01*
X139862166Y-114898185D01*
X139862166Y-116287028D01*
X139842481Y-116354067D01*
X139825847Y-116374709D01*
X139474147Y-116726408D01*
X139474145Y-116726410D01*
X139448522Y-116770791D01*
X139437692Y-116789551D01*
X139416390Y-116826446D01*
X139395089Y-116863340D01*
X139354166Y-117016068D01*
X139354165Y-117016070D01*
X139354165Y-121071224D01*
X139334480Y-121138263D01*
X139317846Y-121158905D01*
X138540598Y-121936153D01*
X138540589Y-121936163D01*
X138527510Y-121952813D01*
X138470616Y-121993370D01*
X138400827Y-121996730D01*
X138340300Y-121961826D01*
X138332490Y-121952813D01*
X138319410Y-121936163D01*
X138319401Y-121936153D01*
X137543485Y-121160237D01*
X137510000Y-121098914D01*
X137507166Y-121072556D01*
X137507166Y-117016068D01*
X137504939Y-117006638D01*
X137503914Y-117003936D01*
X137485076Y-116933628D01*
X137466243Y-116863343D01*
X137423639Y-116789550D01*
X137387190Y-116726417D01*
X137387187Y-116726413D01*
X137387186Y-116726411D01*
X137275382Y-116614607D01*
X137275381Y-116614606D01*
X137271051Y-116610276D01*
X137271040Y-116610266D01*
X137035485Y-116374711D01*
X137002000Y-116313388D01*
X136999166Y-116287030D01*
X136999166Y-114730068D01*
X136996940Y-114720638D01*
X136995915Y-114717938D01*
X136988200Y-114689146D01*
X136958242Y-114577341D01*
X136958239Y-114577336D01*
X136879190Y-114440417D01*
X136879187Y-114440413D01*
X136879186Y-114440411D01*
X136767382Y-114328607D01*
X136767381Y-114328606D01*
X136763051Y-114324276D01*
X136763040Y-114324266D01*
X136527485Y-114088711D01*
X136494000Y-114027388D01*
X136491166Y-114001030D01*
X136491166Y-112444072D01*
X136491166Y-112444070D01*
X136450243Y-112291343D01*
X136417087Y-112233914D01*
X136371190Y-112154417D01*
X136371187Y-112154413D01*
X136371186Y-112154411D01*
X136259382Y-112042607D01*
X136259381Y-112042606D01*
X136255051Y-112038276D01*
X136255040Y-112038266D01*
X136019485Y-111802711D01*
X135986000Y-111741388D01*
X135983166Y-111715030D01*
X135983166Y-110158072D01*
X135983166Y-110158070D01*
X135942243Y-110005343D01*
X135942239Y-110005336D01*
X135863190Y-109868417D01*
X135863187Y-109868413D01*
X135863186Y-109868411D01*
X135751382Y-109756607D01*
X135511485Y-109516710D01*
X135478000Y-109455387D01*
X135475166Y-109429029D01*
X135475166Y-107872073D01*
X135475166Y-107872072D01*
X135475166Y-107872071D01*
X135434243Y-107719344D01*
X135405306Y-107669223D01*
X135355190Y-107582418D01*
X135355184Y-107582410D01*
X135003485Y-107230711D01*
X134970000Y-107169388D01*
X134967166Y-107143030D01*
X134967166Y-105586068D01*
X134964940Y-105576638D01*
X134963915Y-105573938D01*
X134956200Y-105545146D01*
X134926242Y-105433341D01*
X134926239Y-105433336D01*
X134847190Y-105296417D01*
X134847187Y-105296413D01*
X134847186Y-105296411D01*
X134735382Y-105184607D01*
X134735381Y-105184606D01*
X134731051Y-105180276D01*
X134731040Y-105180266D01*
X134495485Y-104944711D01*
X134462000Y-104883388D01*
X134459166Y-104857030D01*
X134459166Y-103300072D01*
X134459166Y-103300070D01*
X134418243Y-103147343D01*
X134375639Y-103073550D01*
X134339190Y-103010417D01*
X134339187Y-103010413D01*
X134339186Y-103010411D01*
X134227382Y-102898607D01*
X134227381Y-102898606D01*
X134223051Y-102894276D01*
X134223040Y-102894266D01*
X133987485Y-102658711D01*
X133954000Y-102597388D01*
X133951166Y-102571030D01*
X133951166Y-101014072D01*
X133951166Y-101014070D01*
X133910243Y-100861343D01*
X133902079Y-100847203D01*
X133831190Y-100724417D01*
X133831187Y-100724413D01*
X133831186Y-100724411D01*
X133719382Y-100612607D01*
X133719381Y-100612606D01*
X133715051Y-100608276D01*
X133715040Y-100608266D01*
X133479485Y-100372711D01*
X133446000Y-100311388D01*
X133443166Y-100285030D01*
X133443166Y-98728071D01*
X133443166Y-98728070D01*
X133433611Y-98692412D01*
X133421076Y-98645628D01*
X133402243Y-98575343D01*
X133376591Y-98530912D01*
X133323190Y-98438417D01*
X133323187Y-98438413D01*
X133323186Y-98438411D01*
X133211382Y-98326607D01*
X133211381Y-98326606D01*
X133207051Y-98322276D01*
X133207040Y-98322266D01*
X132971485Y-98086711D01*
X132938000Y-98025388D01*
X132935166Y-97999030D01*
X132935166Y-96442071D01*
X132935166Y-96442070D01*
X132925611Y-96406412D01*
X132913076Y-96359628D01*
X132894243Y-96289343D01*
X132858922Y-96228164D01*
X132815190Y-96152417D01*
X132815187Y-96152413D01*
X132815186Y-96152411D01*
X132703382Y-96040607D01*
X132703381Y-96040606D01*
X132699051Y-96036276D01*
X132699040Y-96036266D01*
X132463485Y-95800711D01*
X132430000Y-95739388D01*
X132427166Y-95713030D01*
X132427166Y-94328625D01*
X132427167Y-94328616D01*
X132427167Y-94156069D01*
X132386243Y-94003342D01*
X132386243Y-94003341D01*
X132343640Y-93929551D01*
X132307186Y-93866410D01*
X132195382Y-93754606D01*
X132195381Y-93754605D01*
X132191051Y-93750275D01*
X132191040Y-93750265D01*
X131955485Y-93514710D01*
X131922000Y-93453387D01*
X131919166Y-93427029D01*
X131919166Y-92038186D01*
X131919167Y-92038173D01*
X131919167Y-91870070D01*
X131919167Y-91870069D01*
X131878243Y-91717342D01*
X131849305Y-91667222D01*
X131799186Y-91580411D01*
X131687382Y-91468607D01*
X131687381Y-91468606D01*
X131683051Y-91464276D01*
X131683040Y-91464266D01*
X131447485Y-91228711D01*
X131414000Y-91167388D01*
X131411166Y-91141030D01*
X131411166Y-89584072D01*
X131411166Y-89584070D01*
X131370243Y-89431343D01*
X131311775Y-89330072D01*
X131291190Y-89294417D01*
X131291187Y-89294413D01*
X131291186Y-89294411D01*
X131179382Y-89182607D01*
X131179381Y-89182606D01*
X131175051Y-89178276D01*
X131175040Y-89178266D01*
X130939485Y-88942711D01*
X130906000Y-88881388D01*
X130903166Y-88855030D01*
X130903166Y-87298072D01*
X130903166Y-87298070D01*
X130862243Y-87145343D01*
X130817483Y-87067815D01*
X130783190Y-87008417D01*
X130783187Y-87008413D01*
X130783186Y-87008411D01*
X130671382Y-86896607D01*
X130671381Y-86896606D01*
X130667051Y-86892276D01*
X130667040Y-86892266D01*
X130431485Y-86656711D01*
X130398000Y-86595388D01*
X130395166Y-86569030D01*
X130395166Y-85012071D01*
X130395166Y-85012070D01*
X130394477Y-85009500D01*
X130379028Y-84951843D01*
X130354243Y-84859343D01*
X130309619Y-84782051D01*
X130275190Y-84722417D01*
X130275187Y-84722413D01*
X130275186Y-84722411D01*
X130163382Y-84610607D01*
X130163381Y-84610606D01*
X130159051Y-84606276D01*
X130159040Y-84606266D01*
X129923485Y-84370711D01*
X129890000Y-84309388D01*
X129887166Y-84283030D01*
X129887166Y-82726072D01*
X129887166Y-82726070D01*
X129846243Y-82573343D01*
X129820591Y-82528912D01*
X129767190Y-82436417D01*
X129767187Y-82436413D01*
X129767186Y-82436411D01*
X129655382Y-82324607D01*
X129655381Y-82324606D01*
X129651051Y-82320276D01*
X129651040Y-82320266D01*
X129415485Y-82084711D01*
X129382000Y-82023388D01*
X129379166Y-81997030D01*
X129379166Y-80608187D01*
X129379167Y-80608174D01*
X129379167Y-80440071D01*
X129338242Y-80287341D01*
X129338239Y-80287336D01*
X129259190Y-80150417D01*
X129259187Y-80150413D01*
X129259186Y-80150411D01*
X128959010Y-79850235D01*
X128386818Y-79278043D01*
X128353333Y-79216720D01*
X128350499Y-79190362D01*
X128350499Y-77842129D01*
X128350498Y-77842123D01*
X128344091Y-77782516D01*
X128293797Y-77647671D01*
X128293793Y-77647664D01*
X128207547Y-77532455D01*
X128207544Y-77532452D01*
X128092335Y-77446206D01*
X128092328Y-77446202D01*
X127957482Y-77395908D01*
X127957483Y-77395908D01*
X127897883Y-77389501D01*
X127897881Y-77389500D01*
X127897873Y-77389500D01*
X127897865Y-77389500D01*
X126354500Y-77389500D01*
X126287461Y-77369815D01*
X126241706Y-77317011D01*
X126230500Y-77265500D01*
X126230500Y-75554500D01*
X126250185Y-75487461D01*
X126302989Y-75441706D01*
X126354500Y-75430500D01*
X150505500Y-75430500D01*
X150572539Y-75450185D01*
G37*
G04 #@! TD.AperFunction*
M02*
