G04 #@! TF.GenerationSoftware,KiCad,Pcbnew,9.0.6*
G04 #@! TF.CreationDate,2026-01-07T12:06:17-06:00*
G04 #@! TF.ProjectId,DHVQFN-16_4.15x3.65_P0.5,44485651-464e-42d3-9136-5f342e313578,rev?*
G04 #@! TF.SameCoordinates,Original*
G04 #@! TF.FileFunction,Copper,L1,Top*
G04 #@! TF.FilePolarity,Positive*
%FSLAX46Y46*%
G04 Gerber Fmt 4.6, Leading zero omitted, Abs format (unit mm)*
G04 Created by KiCad (PCBNEW 9.0.6) date 2026-01-07 12:06:17*
%MOMM*%
%LPD*%
G01*
G04 APERTURE LIST*
G04 #@! TA.AperFunction,SMDPad,CuDef*
%ADD10R,0.280000X1.200000*%
G04 #@! TD*
G04 #@! TA.AperFunction,SMDPad,CuDef*
%ADD11R,1.200000X0.280000*%
G04 #@! TD*
G04 #@! TA.AperFunction,ComponentPad*
%ADD12C,0.508000*%
G04 #@! TD*
G04 #@! TA.AperFunction,SMDPad,CuDef*
%ADD13R,2.050000X2.550000*%
G04 #@! TD*
G04 #@! TA.AperFunction,ComponentPad*
%ADD14C,1.700000*%
G04 #@! TD*
G04 #@! TA.AperFunction,ComponentPad*
%ADD15R,1.700000X1.700000*%
G04 #@! TD*
G04 #@! TA.AperFunction,ViaPad*
%ADD16C,0.600000*%
G04 #@! TD*
G04 #@! TA.AperFunction,Conductor*
%ADD17C,0.200000*%
G04 #@! TD*
G04 #@! TA.AperFunction,Conductor*
%ADD18C,0.300000*%
G04 #@! TD*
G04 APERTURE END LIST*
D10*
X132345999Y-110234300D03*
D11*
X131063001Y-111259300D03*
X131063001Y-111759299D03*
X131063001Y-112259300D03*
X131063001Y-112759300D03*
X131063001Y-113259301D03*
X131063001Y-113759300D03*
D10*
X132345999Y-114784300D03*
X133846001Y-114784300D03*
D11*
X135128999Y-113759300D03*
X135128999Y-113259301D03*
X135128999Y-112759300D03*
X135128999Y-112259300D03*
X135128999Y-111759299D03*
X135128999Y-111259300D03*
D10*
X133846001Y-110234300D03*
D12*
X132702300Y-111721900D03*
X132702300Y-112509300D03*
X132702300Y-113296700D03*
D13*
X133096000Y-112509300D03*
D12*
X133489700Y-111721900D03*
X133489700Y-112509300D03*
X133489700Y-113296700D03*
D14*
X124206000Y-99822000D03*
D15*
X124206000Y-102362000D03*
D14*
X124206000Y-104902000D03*
X124206000Y-107442000D03*
X124206000Y-109982000D03*
X124206000Y-112522000D03*
X124206000Y-115062000D03*
X124206000Y-117602000D03*
X124206000Y-120142000D03*
X124206000Y-122682000D03*
X141986000Y-99822000D03*
X141986000Y-102362000D03*
X141986000Y-104902000D03*
X141986000Y-107442000D03*
X141986000Y-109982000D03*
X141986000Y-112522000D03*
X141986000Y-115062000D03*
X141986000Y-117602000D03*
X141986000Y-120142000D03*
X141986000Y-122682000D03*
D16*
X133096000Y-118237000D03*
X133096000Y-106934000D03*
X133096000Y-100838000D03*
D17*
X136365300Y-113759300D02*
X140208000Y-117602000D01*
X140208000Y-117602000D02*
X141986000Y-117602000D01*
X135128999Y-113759300D02*
X136365300Y-113759300D01*
X131063001Y-111759299D02*
X128523299Y-111759299D01*
X128523299Y-111759299D02*
X124206000Y-107442000D01*
X128548699Y-113259301D02*
X126746000Y-115062000D01*
X126746000Y-115062000D02*
X124206000Y-115062000D01*
X131063001Y-113259301D02*
X128548699Y-113259301D01*
X127762000Y-120142000D02*
X124206000Y-120142000D01*
X132345999Y-114784300D02*
X132345999Y-115558001D01*
X132345999Y-115558001D02*
X127762000Y-120142000D01*
X132345999Y-110234300D02*
X132345999Y-109485999D01*
X125222000Y-102362000D02*
X124206000Y-102362000D01*
X132345999Y-109485999D02*
X125222000Y-102362000D01*
X131063001Y-113759300D02*
X129826700Y-113759300D01*
X125984000Y-117602000D02*
X124206000Y-117602000D01*
X129826700Y-113759300D02*
X125984000Y-117602000D01*
X125984000Y-106680000D02*
X124206000Y-104902000D01*
X125984000Y-107442000D02*
X125984000Y-106680000D01*
X129801300Y-111259300D02*
X125984000Y-107442000D01*
X131063001Y-111259300D02*
X129801300Y-111259300D01*
X124206000Y-105156000D02*
X124206000Y-104902000D01*
X138430000Y-120142000D02*
X141986000Y-120142000D01*
X133846001Y-115558001D02*
X138430000Y-120142000D01*
X133846001Y-114784300D02*
X133846001Y-115558001D01*
X135128999Y-111759299D02*
X137668701Y-111759299D01*
X137668701Y-111759299D02*
X141986000Y-107442000D01*
X140208000Y-106680000D02*
X141986000Y-104902000D01*
X135128999Y-111259300D02*
X136390700Y-111259300D01*
X136390700Y-111259300D02*
X140208000Y-107442000D01*
X140208000Y-107442000D02*
X140208000Y-106680000D01*
X131063001Y-112759300D02*
X124443300Y-112759300D01*
X124443300Y-112759300D02*
X124206000Y-112522000D01*
X126483300Y-112259300D02*
X124206000Y-109982000D01*
X131063001Y-112259300D02*
X126483300Y-112259300D01*
X135128999Y-112259300D02*
X139708700Y-112259300D01*
X139708700Y-112259300D02*
X141986000Y-109982000D01*
X141748700Y-112759300D02*
X141986000Y-112522000D01*
X135128999Y-112759300D02*
X141748700Y-112759300D01*
X135128999Y-113259301D02*
X137643301Y-113259301D01*
X139446000Y-115062000D02*
X141986000Y-115062000D01*
X137643301Y-113259301D02*
X139446000Y-115062000D01*
D18*
X133096000Y-112509300D02*
X133096000Y-106934000D01*
X133096000Y-118237000D02*
X133096000Y-112509300D01*
D17*
X140970000Y-102362000D02*
X141986000Y-102362000D01*
X133846001Y-110234300D02*
X133846001Y-109485999D01*
X133846001Y-109485999D02*
X140970000Y-102362000D01*
G04 #@! TA.AperFunction,Conductor*
G36*
X133155427Y-115427014D02*
G01*
X133204832Y-115476419D01*
X133212182Y-115492512D01*
X133237682Y-115560880D01*
X133245500Y-115604214D01*
X133245500Y-115637055D01*
X133245499Y-115637055D01*
X133286424Y-115789786D01*
X133308541Y-115828092D01*
X133308542Y-115828096D01*
X133308543Y-115828096D01*
X133365480Y-115926715D01*
X133365482Y-115926718D01*
X133484350Y-116045586D01*
X133484355Y-116045590D01*
X138061284Y-120622520D01*
X138061286Y-120622521D01*
X138061290Y-120622524D01*
X138198209Y-120701573D01*
X138198216Y-120701577D01*
X138350943Y-120742501D01*
X138350945Y-120742501D01*
X138516654Y-120742501D01*
X138516670Y-120742500D01*
X140700281Y-120742500D01*
X140767320Y-120762185D01*
X140810765Y-120810205D01*
X140830947Y-120849814D01*
X140830948Y-120849815D01*
X140955890Y-121021786D01*
X141106213Y-121172109D01*
X141278179Y-121297048D01*
X141278181Y-121297049D01*
X141278184Y-121297051D01*
X141467588Y-121393557D01*
X141669757Y-121459246D01*
X141879713Y-121492500D01*
X141879714Y-121492500D01*
X142092286Y-121492500D01*
X142092287Y-121492500D01*
X142302243Y-121459246D01*
X142504412Y-121393557D01*
X142575205Y-121357485D01*
X142643874Y-121344590D01*
X142708614Y-121370866D01*
X142748872Y-121427972D01*
X142755500Y-121467971D01*
X142755500Y-123290774D01*
X142735815Y-123357813D01*
X142683011Y-123403568D01*
X142631500Y-123414774D01*
X123560500Y-123414774D01*
X123493461Y-123395089D01*
X123447706Y-123342285D01*
X123436500Y-123290774D01*
X123436500Y-121467971D01*
X123456185Y-121400932D01*
X123508989Y-121355177D01*
X123578147Y-121345233D01*
X123616793Y-121357485D01*
X123687588Y-121393557D01*
X123889757Y-121459246D01*
X124099713Y-121492500D01*
X124099714Y-121492500D01*
X124312286Y-121492500D01*
X124312287Y-121492500D01*
X124522243Y-121459246D01*
X124724412Y-121393557D01*
X124913816Y-121297051D01*
X124935789Y-121281086D01*
X125085786Y-121172109D01*
X125085788Y-121172106D01*
X125085792Y-121172104D01*
X125236104Y-121021792D01*
X125236106Y-121021788D01*
X125236109Y-121021786D01*
X125294661Y-120941193D01*
X125361051Y-120849816D01*
X125361349Y-120849230D01*
X125381235Y-120810205D01*
X125429209Y-120759409D01*
X125491719Y-120742500D01*
X127675331Y-120742500D01*
X127675347Y-120742501D01*
X127682943Y-120742501D01*
X127841054Y-120742501D01*
X127841057Y-120742501D01*
X127993785Y-120701577D01*
X128043904Y-120672639D01*
X128130716Y-120622520D01*
X128242520Y-120510716D01*
X128242520Y-120510714D01*
X128252728Y-120500507D01*
X128252729Y-120500504D01*
X132826519Y-115926717D01*
X132905576Y-115789785D01*
X132946500Y-115637058D01*
X132946500Y-115604214D01*
X132949050Y-115595528D01*
X132947762Y-115586567D01*
X132954318Y-115560880D01*
X132979818Y-115492512D01*
X133021690Y-115436579D01*
X133087154Y-115412162D01*
X133155427Y-115427014D01*
G37*
G04 #@! TD.AperFunction*
G04 #@! TA.AperFunction,Conductor*
G36*
X133155426Y-110877012D02*
G01*
X133204832Y-110926417D01*
X133212182Y-110942512D01*
X133262203Y-111076628D01*
X133262207Y-111076635D01*
X133348453Y-111191844D01*
X133348456Y-111191847D01*
X133463665Y-111278093D01*
X133463672Y-111278097D01*
X133508619Y-111294861D01*
X133598518Y-111328391D01*
X133658128Y-111334800D01*
X133905036Y-111334799D01*
X133907237Y-111335445D01*
X133909462Y-111334878D01*
X133940594Y-111345239D01*
X133972074Y-111354483D01*
X133973577Y-111356217D01*
X133975756Y-111356943D01*
X133996343Y-111382491D01*
X134017829Y-111407287D01*
X134018605Y-111410118D01*
X134019596Y-111411347D01*
X134028325Y-111445545D01*
X134033754Y-111496045D01*
X134033754Y-111522549D01*
X134028499Y-111571426D01*
X134028499Y-111571429D01*
X134028499Y-111571432D01*
X134028499Y-111947168D01*
X134028500Y-111947173D01*
X134031257Y-111972823D01*
X134033753Y-111996041D01*
X134033754Y-111996045D01*
X134033754Y-112022550D01*
X134028499Y-112071427D01*
X134028499Y-112071430D01*
X134028499Y-112071433D01*
X134028499Y-112447169D01*
X134028500Y-112447174D01*
X134033754Y-112496046D01*
X134033754Y-112522550D01*
X134028499Y-112571427D01*
X134028499Y-112571430D01*
X134028499Y-112571433D01*
X134028499Y-112947169D01*
X134028500Y-112947174D01*
X134031257Y-112972824D01*
X134033753Y-112996042D01*
X134033754Y-112996046D01*
X134033754Y-113022551D01*
X134028499Y-113071428D01*
X134028499Y-113071431D01*
X134028499Y-113071434D01*
X134028499Y-113447170D01*
X134028500Y-113447175D01*
X134033754Y-113496046D01*
X134033753Y-113522554D01*
X134033753Y-113522557D01*
X134028323Y-113573057D01*
X134001585Y-113637607D01*
X133944192Y-113677455D01*
X133905034Y-113683800D01*
X133658131Y-113683800D01*
X133658124Y-113683801D01*
X133598517Y-113690208D01*
X133463672Y-113740502D01*
X133463665Y-113740506D01*
X133348456Y-113826752D01*
X133348453Y-113826755D01*
X133262207Y-113941964D01*
X133262203Y-113941971D01*
X133212182Y-114076087D01*
X133170311Y-114132021D01*
X133104847Y-114156438D01*
X133036574Y-114141587D01*
X132987168Y-114092181D01*
X132979818Y-114076087D01*
X132929796Y-113941971D01*
X132929792Y-113941964D01*
X132843546Y-113826755D01*
X132843543Y-113826752D01*
X132728334Y-113740506D01*
X132728327Y-113740502D01*
X132593481Y-113690208D01*
X132593482Y-113690208D01*
X132533882Y-113683801D01*
X132533880Y-113683800D01*
X132533872Y-113683800D01*
X132533864Y-113683800D01*
X132286965Y-113683800D01*
X132284762Y-113683153D01*
X132282538Y-113683721D01*
X132251392Y-113673354D01*
X132219926Y-113664115D01*
X132218423Y-113662381D01*
X132216244Y-113661656D01*
X132195644Y-113636092D01*
X132174171Y-113611311D01*
X132173394Y-113608481D01*
X132172404Y-113607252D01*
X132163675Y-113573054D01*
X132160857Y-113546846D01*
X132158246Y-113522552D01*
X132158246Y-113496050D01*
X132163501Y-113447174D01*
X132163500Y-113071429D01*
X132163499Y-113071427D01*
X132163499Y-113071412D01*
X132158246Y-113022555D01*
X132158246Y-112996046D01*
X132163501Y-112947173D01*
X132163500Y-112571428D01*
X132158246Y-112522552D01*
X132158246Y-112496046D01*
X132163501Y-112447173D01*
X132163500Y-112071428D01*
X132163499Y-112071426D01*
X132163499Y-112071411D01*
X132158246Y-112022554D01*
X132158246Y-111996045D01*
X132163501Y-111947172D01*
X132163500Y-111571427D01*
X132158246Y-111522551D01*
X132158247Y-111496047D01*
X132163677Y-111445543D01*
X132190415Y-111380992D01*
X132247807Y-111341144D01*
X132286966Y-111334799D01*
X132533870Y-111334799D01*
X132533871Y-111334799D01*
X132593482Y-111328391D01*
X132728330Y-111278096D01*
X132843545Y-111191846D01*
X132929795Y-111076631D01*
X132979818Y-110942511D01*
X133021689Y-110886578D01*
X133087153Y-110862161D01*
X133155426Y-110877012D01*
G37*
G04 #@! TD.AperFunction*
G04 #@! TA.AperFunction,Conductor*
G36*
X142698539Y-99035459D02*
G01*
X142744294Y-99088263D01*
X142755500Y-99139774D01*
X142755500Y-101036028D01*
X142735815Y-101103067D01*
X142683011Y-101148822D01*
X142613853Y-101158766D01*
X142575206Y-101146513D01*
X142504417Y-101110445D01*
X142504414Y-101110444D01*
X142504412Y-101110443D01*
X142302243Y-101044754D01*
X142302241Y-101044753D01*
X142302240Y-101044753D01*
X142140957Y-101019208D01*
X142092287Y-101011500D01*
X141879713Y-101011500D01*
X141831042Y-101019208D01*
X141669760Y-101044753D01*
X141467585Y-101110444D01*
X141278179Y-101206951D01*
X141106213Y-101331890D01*
X140955890Y-101482213D01*
X140830949Y-101654182D01*
X140779260Y-101755626D01*
X140766822Y-101768794D01*
X140758521Y-101784898D01*
X140731665Y-101806017D01*
X140731285Y-101806421D01*
X140730778Y-101806716D01*
X140703858Y-101822259D01*
X140688095Y-101831360D01*
X140644689Y-101856420D01*
X140601285Y-101881479D01*
X140601282Y-101881481D01*
X133365482Y-109117281D01*
X133365476Y-109117289D01*
X133323208Y-109190500D01*
X133323207Y-109190503D01*
X133323207Y-109190504D01*
X133286424Y-109254214D01*
X133245500Y-109406942D01*
X133245500Y-109406944D01*
X133245500Y-109414385D01*
X133242949Y-109423070D01*
X133244238Y-109432032D01*
X133237682Y-109457718D01*
X133212182Y-109526087D01*
X133170311Y-109582021D01*
X133104847Y-109606438D01*
X133036574Y-109591586D01*
X132987168Y-109542181D01*
X132979818Y-109526087D01*
X132954318Y-109457718D01*
X132946500Y-109414385D01*
X132946500Y-109406944D01*
X132946500Y-109406942D01*
X132905576Y-109254214D01*
X132868793Y-109190504D01*
X132868793Y-109190503D01*
X132826523Y-109117289D01*
X132826520Y-109117285D01*
X132826519Y-109117283D01*
X132714715Y-109005479D01*
X132714714Y-109005478D01*
X132710384Y-109001148D01*
X132710373Y-109001138D01*
X125709590Y-102000355D01*
X125702521Y-101993286D01*
X125702520Y-101993284D01*
X125592815Y-101883579D01*
X125559333Y-101822259D01*
X125556499Y-101795901D01*
X125556499Y-101464129D01*
X125556498Y-101464123D01*
X125550091Y-101404516D01*
X125499797Y-101269671D01*
X125499793Y-101269664D01*
X125413547Y-101154455D01*
X125413544Y-101154452D01*
X125298335Y-101068206D01*
X125298328Y-101068202D01*
X125163482Y-101017908D01*
X125163483Y-101017908D01*
X125103883Y-101011501D01*
X125103881Y-101011500D01*
X125103873Y-101011500D01*
X125103865Y-101011500D01*
X123560500Y-101011500D01*
X123493461Y-100991815D01*
X123447706Y-100939011D01*
X123436500Y-100887500D01*
X123436500Y-99139774D01*
X123456185Y-99072735D01*
X123508989Y-99026980D01*
X123560500Y-99015774D01*
X142631500Y-99015774D01*
X142698539Y-99035459D01*
G37*
G04 #@! TD.AperFunction*
M02*
