M48
; DRILL file {KiCad 9.0.6} date 2026-01-07T12:06:19-0600
; FORMAT={-:-/ absolute / metric / decimal}
; #@! TF.CreationDate,2026-01-07T12:06:19-06:00
; #@! TF.GenerationSoftware,Kicad,Pcbnew,9.0.6
; #@! TF.FileFunction,Plated,1,2,PTH
FMAT,2
METRIC
; #@! TA.AperFunction,Plated,PTH,ComponentDrill
T1C0.254
; #@! TA.AperFunction,Plated,PTH,ViaDrill
T2C0.300
; #@! TA.AperFunction,Plated,PTH,ComponentDrill
T3C1.000
%
G90
G05
T1
X132.702Y-111.722
X132.702Y-112.509
X132.702Y-113.297
X133.49Y-111.722
X133.49Y-112.509
X133.49Y-113.297
T2
X133.096Y-100.838
X133.096Y-106.934
X133.096Y-118.237
T3
X124.206Y-99.822
X124.206Y-102.362
X124.206Y-104.902
X124.206Y-107.442
X124.206Y-109.982
X124.206Y-112.522
X124.206Y-115.062
X124.206Y-117.602
X124.206Y-120.142
X124.206Y-122.682
X141.986Y-99.822
X141.986Y-102.362
X141.986Y-104.902
X141.986Y-107.442
X141.986Y-109.982
X141.986Y-112.522
X141.986Y-115.062
X141.986Y-117.602
X141.986Y-120.142
X141.986Y-122.682
M30
