G04 #@! TF.GenerationSoftware,KiCad,Pcbnew,9.0.6*
G04 #@! TF.CreationDate,2026-01-07T12:06:17-06:00*
G04 #@! TF.ProjectId,DHVQFN-16_4.15x3.65_P0.5,44485651-464e-42d3-9136-5f342e313578,rev?*
G04 #@! TF.SameCoordinates,Original*
G04 #@! TF.FileFunction,Copper,L2,Bot*
G04 #@! TF.FilePolarity,Positive*
%FSLAX46Y46*%
G04 Gerber Fmt 4.6, Leading zero omitted, Abs format (unit mm)*
G04 Created by KiCad (PCBNEW 9.0.6) date 2026-01-07 12:06:17*
%MOMM*%
%LPD*%
G01*
G04 APERTURE LIST*
G04 #@! TA.AperFunction,ComponentPad*
%ADD10C,0.508000*%
G04 #@! TD*
G04 #@! TA.AperFunction,ComponentPad*
%ADD11C,1.700000*%
G04 #@! TD*
G04 #@! TA.AperFunction,ComponentPad*
%ADD12R,1.700000X1.700000*%
G04 #@! TD*
G04 #@! TA.AperFunction,SMDPad,CuDef*
%ADD13R,2.510000X1.000000*%
G04 #@! TD*
G04 #@! TA.AperFunction,ViaPad*
%ADD14C,0.600000*%
G04 #@! TD*
G04 #@! TA.AperFunction,Conductor*
%ADD15C,0.500000*%
G04 #@! TD*
G04 APERTURE END LIST*
D10*
X132702300Y-111721900D03*
X132702300Y-112509300D03*
X132702300Y-113296700D03*
X133489700Y-111721900D03*
X133489700Y-112509300D03*
X133489700Y-113296700D03*
D11*
X124206000Y-99822000D03*
D12*
X124206000Y-102362000D03*
D11*
X124206000Y-104902000D03*
X124206000Y-107442000D03*
X124206000Y-109982000D03*
X124206000Y-112522000D03*
X124206000Y-115062000D03*
X124206000Y-117602000D03*
X124206000Y-120142000D03*
X124206000Y-122682000D03*
X141986000Y-99822000D03*
X141986000Y-102362000D03*
X141986000Y-104902000D03*
X141986000Y-107442000D03*
X141986000Y-109982000D03*
X141986000Y-112522000D03*
X141986000Y-115062000D03*
X141986000Y-117602000D03*
X141986000Y-120142000D03*
X141986000Y-122682000D03*
D13*
X130941000Y-99822000D03*
X127631000Y-102362000D03*
X130941000Y-104902000D03*
X127631000Y-107442000D03*
X130941000Y-109982000D03*
X127631000Y-112522000D03*
X130941000Y-115062000D03*
X127631000Y-117602000D03*
X130941000Y-120142000D03*
X127631000Y-122682000D03*
X135251000Y-99822000D03*
X138561000Y-102362000D03*
X135251000Y-104902000D03*
X138561000Y-107442000D03*
X135251000Y-109982000D03*
X138561000Y-112522000D03*
X135251000Y-115062000D03*
X138561000Y-117602000D03*
X135251000Y-120142000D03*
X138561000Y-122682000D03*
D14*
X133096000Y-118237000D03*
X133096000Y-106934000D03*
X133096000Y-100838000D03*
D15*
X138561000Y-117602000D02*
X141986000Y-117602000D01*
X127631000Y-107442000D02*
X124206000Y-107442000D01*
X124206000Y-115062000D02*
X130941000Y-115062000D01*
X130941000Y-120142000D02*
X124206000Y-120142000D01*
X127631000Y-102362000D02*
X124206000Y-102362000D01*
X127631000Y-117602000D02*
X124206000Y-117602000D01*
X124206000Y-104902000D02*
X130941000Y-104902000D01*
X141986000Y-120142000D02*
X135251000Y-120142000D01*
X138561000Y-107442000D02*
X141986000Y-107442000D01*
X141986000Y-104902000D02*
X135251000Y-104902000D01*
X127631000Y-112522000D02*
X124206000Y-112522000D01*
X124206000Y-109982000D02*
X130941000Y-109982000D01*
X141986000Y-109982000D02*
X135251000Y-109982000D01*
X138561000Y-112522000D02*
X141986000Y-112522000D01*
X141986000Y-115062000D02*
X135251000Y-115062000D01*
X124206000Y-99822000D02*
X141986000Y-99822000D01*
X124206000Y-122682000D02*
X141986000Y-122682000D01*
X138561000Y-102362000D02*
X141986000Y-102362000D01*
G04 #@! TA.AperFunction,Conductor*
G36*
X142698539Y-99035459D02*
G01*
X142744294Y-99088263D01*
X142755500Y-99139774D01*
X142755500Y-101036028D01*
X142735815Y-101103067D01*
X142683011Y-101148822D01*
X142613853Y-101158766D01*
X142575206Y-101146513D01*
X142504417Y-101110445D01*
X142504414Y-101110444D01*
X142504412Y-101110443D01*
X142302243Y-101044754D01*
X142302241Y-101044753D01*
X142302240Y-101044753D01*
X142140957Y-101019208D01*
X142092287Y-101011500D01*
X141879713Y-101011500D01*
X141831042Y-101019208D01*
X141669760Y-101044753D01*
X141467585Y-101110444D01*
X141278179Y-101206951D01*
X141106213Y-101331890D01*
X140955892Y-101482211D01*
X140899097Y-101560385D01*
X140843767Y-101603051D01*
X140798779Y-101611500D01*
X140315751Y-101611500D01*
X140248712Y-101591815D01*
X140216485Y-101561812D01*
X140173548Y-101504457D01*
X140173546Y-101504454D01*
X140173542Y-101504451D01*
X140058335Y-101418206D01*
X140058328Y-101418202D01*
X139923482Y-101367908D01*
X139923483Y-101367908D01*
X139863883Y-101361501D01*
X139863881Y-101361500D01*
X139863873Y-101361500D01*
X139863864Y-101361500D01*
X137258129Y-101361500D01*
X137258123Y-101361501D01*
X137198516Y-101367908D01*
X137063671Y-101418202D01*
X137063664Y-101418206D01*
X136948455Y-101504452D01*
X136948452Y-101504455D01*
X136862206Y-101619664D01*
X136862202Y-101619671D01*
X136811908Y-101754517D01*
X136805501Y-101814116D01*
X136805501Y-101814123D01*
X136805500Y-101814135D01*
X136805500Y-102909870D01*
X136805501Y-102909876D01*
X136811908Y-102969483D01*
X136862202Y-103104328D01*
X136862206Y-103104335D01*
X136948452Y-103219544D01*
X136948455Y-103219547D01*
X137063664Y-103305793D01*
X137063671Y-103305797D01*
X137198517Y-103356091D01*
X137198516Y-103356091D01*
X137205444Y-103356835D01*
X137258127Y-103362500D01*
X139863872Y-103362499D01*
X139923483Y-103356091D01*
X140058331Y-103305796D01*
X140173546Y-103219546D01*
X140211040Y-103169461D01*
X140216485Y-103162188D01*
X140272419Y-103120318D01*
X140315751Y-103112500D01*
X140798779Y-103112500D01*
X140865818Y-103132185D01*
X140899097Y-103163615D01*
X140955892Y-103241788D01*
X141106213Y-103392109D01*
X141278182Y-103517050D01*
X141286946Y-103521516D01*
X141337742Y-103569491D01*
X141354536Y-103637312D01*
X141331998Y-103703447D01*
X141286946Y-103742484D01*
X141278182Y-103746949D01*
X141106213Y-103871890D01*
X140955892Y-104022211D01*
X140899097Y-104100385D01*
X140843767Y-104143051D01*
X140798779Y-104151500D01*
X137005751Y-104151500D01*
X136938712Y-104131815D01*
X136906485Y-104101812D01*
X136863548Y-104044457D01*
X136863546Y-104044454D01*
X136863542Y-104044451D01*
X136748335Y-103958206D01*
X136748328Y-103958202D01*
X136613482Y-103907908D01*
X136613483Y-103907908D01*
X136553883Y-103901501D01*
X136553881Y-103901500D01*
X136553873Y-103901500D01*
X136553864Y-103901500D01*
X133948129Y-103901500D01*
X133948123Y-103901501D01*
X133888516Y-103907908D01*
X133753671Y-103958202D01*
X133753664Y-103958206D01*
X133638455Y-104044452D01*
X133638452Y-104044455D01*
X133552206Y-104159664D01*
X133552202Y-104159671D01*
X133501908Y-104294517D01*
X133495501Y-104354116D01*
X133495501Y-104354123D01*
X133495500Y-104354135D01*
X133495500Y-105449870D01*
X133495501Y-105449876D01*
X133501908Y-105509483D01*
X133552202Y-105644328D01*
X133552206Y-105644335D01*
X133638452Y-105759544D01*
X133638455Y-105759547D01*
X133753664Y-105845793D01*
X133753671Y-105845797D01*
X133888517Y-105896091D01*
X133888516Y-105896091D01*
X133895444Y-105896835D01*
X133948127Y-105902500D01*
X136553872Y-105902499D01*
X136613483Y-105896091D01*
X136748331Y-105845796D01*
X136863546Y-105759546D01*
X136890227Y-105723903D01*
X136906485Y-105702188D01*
X136962419Y-105660318D01*
X137005751Y-105652500D01*
X140798779Y-105652500D01*
X140865818Y-105672185D01*
X140899097Y-105703615D01*
X140955892Y-105781788D01*
X141106213Y-105932109D01*
X141278182Y-106057050D01*
X141286946Y-106061516D01*
X141337742Y-106109491D01*
X141354536Y-106177312D01*
X141331998Y-106243447D01*
X141286946Y-106282484D01*
X141278182Y-106286949D01*
X141106213Y-106411890D01*
X140955892Y-106562211D01*
X140899097Y-106640385D01*
X140843767Y-106683051D01*
X140798779Y-106691500D01*
X140315751Y-106691500D01*
X140248712Y-106671815D01*
X140216485Y-106641812D01*
X140173548Y-106584457D01*
X140173546Y-106584454D01*
X140173542Y-106584451D01*
X140058335Y-106498206D01*
X140058328Y-106498202D01*
X139923482Y-106447908D01*
X139923483Y-106447908D01*
X139863883Y-106441501D01*
X139863881Y-106441500D01*
X139863873Y-106441500D01*
X139863864Y-106441500D01*
X137258129Y-106441500D01*
X137258123Y-106441501D01*
X137198516Y-106447908D01*
X137063671Y-106498202D01*
X137063664Y-106498206D01*
X136948455Y-106584452D01*
X136948452Y-106584455D01*
X136862206Y-106699664D01*
X136862202Y-106699671D01*
X136811908Y-106834517D01*
X136805501Y-106894116D01*
X136805501Y-106894123D01*
X136805500Y-106894135D01*
X136805500Y-107989870D01*
X136805501Y-107989876D01*
X136811908Y-108049483D01*
X136862202Y-108184328D01*
X136862206Y-108184335D01*
X136948452Y-108299544D01*
X136948455Y-108299547D01*
X137063664Y-108385793D01*
X137063671Y-108385797D01*
X137198517Y-108436091D01*
X137198516Y-108436091D01*
X137205444Y-108436835D01*
X137258127Y-108442500D01*
X139863872Y-108442499D01*
X139923483Y-108436091D01*
X140058331Y-108385796D01*
X140173546Y-108299546D01*
X140200227Y-108263903D01*
X140216485Y-108242188D01*
X140272419Y-108200318D01*
X140315751Y-108192500D01*
X140798779Y-108192500D01*
X140865818Y-108212185D01*
X140899097Y-108243615D01*
X140955892Y-108321788D01*
X141106213Y-108472109D01*
X141278182Y-108597050D01*
X141286946Y-108601516D01*
X141337742Y-108649491D01*
X141354536Y-108717312D01*
X141331998Y-108783447D01*
X141286946Y-108822484D01*
X141278182Y-108826949D01*
X141106213Y-108951890D01*
X140955892Y-109102211D01*
X140899097Y-109180385D01*
X140843767Y-109223051D01*
X140798779Y-109231500D01*
X137005751Y-109231500D01*
X136938712Y-109211815D01*
X136906485Y-109181812D01*
X136863548Y-109124457D01*
X136863546Y-109124454D01*
X136863542Y-109124451D01*
X136748335Y-109038206D01*
X136748328Y-109038202D01*
X136613482Y-108987908D01*
X136613483Y-108987908D01*
X136553883Y-108981501D01*
X136553881Y-108981500D01*
X136553873Y-108981500D01*
X136553864Y-108981500D01*
X133948129Y-108981500D01*
X133948123Y-108981501D01*
X133888516Y-108987908D01*
X133753671Y-109038202D01*
X133753664Y-109038206D01*
X133638455Y-109124452D01*
X133638452Y-109124455D01*
X133552206Y-109239664D01*
X133552202Y-109239671D01*
X133501908Y-109374517D01*
X133495501Y-109434116D01*
X133495501Y-109434123D01*
X133495500Y-109434135D01*
X133495500Y-110529870D01*
X133495501Y-110529876D01*
X133501908Y-110589483D01*
X133552202Y-110724328D01*
X133552206Y-110724335D01*
X133638452Y-110839544D01*
X133638455Y-110839547D01*
X133753664Y-110925793D01*
X133753671Y-110925797D01*
X133888517Y-110976091D01*
X133888516Y-110976091D01*
X133895444Y-110976835D01*
X133948127Y-110982500D01*
X136553872Y-110982499D01*
X136613483Y-110976091D01*
X136748331Y-110925796D01*
X136863546Y-110839546D01*
X136890227Y-110803903D01*
X136906485Y-110782188D01*
X136962419Y-110740318D01*
X137005751Y-110732500D01*
X140798779Y-110732500D01*
X140865818Y-110752185D01*
X140899097Y-110783615D01*
X140955892Y-110861788D01*
X141106213Y-111012109D01*
X141278182Y-111137050D01*
X141286946Y-111141516D01*
X141337742Y-111189491D01*
X141354536Y-111257312D01*
X141331998Y-111323447D01*
X141286946Y-111362484D01*
X141278182Y-111366949D01*
X141106213Y-111491890D01*
X140955892Y-111642211D01*
X140899097Y-111720385D01*
X140843767Y-111763051D01*
X140798779Y-111771500D01*
X140315751Y-111771500D01*
X140248712Y-111751815D01*
X140216485Y-111721812D01*
X140173548Y-111664457D01*
X140173546Y-111664454D01*
X140173542Y-111664451D01*
X140058335Y-111578206D01*
X140058328Y-111578202D01*
X139923482Y-111527908D01*
X139923483Y-111527908D01*
X139863883Y-111521501D01*
X139863881Y-111521500D01*
X139863873Y-111521500D01*
X139863864Y-111521500D01*
X137258129Y-111521500D01*
X137258123Y-111521501D01*
X137198516Y-111527908D01*
X137063671Y-111578202D01*
X137063664Y-111578206D01*
X136948455Y-111664452D01*
X136948452Y-111664455D01*
X136862206Y-111779664D01*
X136862202Y-111779671D01*
X136811908Y-111914517D01*
X136805501Y-111974116D01*
X136805501Y-111974123D01*
X136805500Y-111974135D01*
X136805500Y-113069870D01*
X136805501Y-113069876D01*
X136811908Y-113129483D01*
X136862202Y-113264328D01*
X136862206Y-113264335D01*
X136948452Y-113379544D01*
X136948455Y-113379547D01*
X137063664Y-113465793D01*
X137063671Y-113465797D01*
X137198517Y-113516091D01*
X137198516Y-113516091D01*
X137205444Y-113516835D01*
X137258127Y-113522500D01*
X139863872Y-113522499D01*
X139923483Y-113516091D01*
X140058331Y-113465796D01*
X140173546Y-113379546D01*
X140200227Y-113343903D01*
X140216485Y-113322188D01*
X140272419Y-113280318D01*
X140315751Y-113272500D01*
X140798779Y-113272500D01*
X140865818Y-113292185D01*
X140899097Y-113323615D01*
X140955892Y-113401788D01*
X141106213Y-113552109D01*
X141278182Y-113677050D01*
X141286946Y-113681516D01*
X141337742Y-113729491D01*
X141354536Y-113797312D01*
X141331998Y-113863447D01*
X141286946Y-113902484D01*
X141278182Y-113906949D01*
X141106213Y-114031890D01*
X140955892Y-114182211D01*
X140899097Y-114260385D01*
X140843767Y-114303051D01*
X140798779Y-114311500D01*
X137005751Y-114311500D01*
X136938712Y-114291815D01*
X136906485Y-114261812D01*
X136863548Y-114204457D01*
X136863546Y-114204454D01*
X136863542Y-114204451D01*
X136748335Y-114118206D01*
X136748328Y-114118202D01*
X136613482Y-114067908D01*
X136613483Y-114067908D01*
X136553883Y-114061501D01*
X136553881Y-114061500D01*
X136553873Y-114061500D01*
X136553864Y-114061500D01*
X133948129Y-114061500D01*
X133948123Y-114061501D01*
X133888516Y-114067908D01*
X133753671Y-114118202D01*
X133753664Y-114118206D01*
X133638455Y-114204452D01*
X133638452Y-114204455D01*
X133552206Y-114319664D01*
X133552202Y-114319671D01*
X133501908Y-114454517D01*
X133495501Y-114514116D01*
X133495501Y-114514123D01*
X133495500Y-114514135D01*
X133495500Y-115609870D01*
X133495501Y-115609876D01*
X133501908Y-115669483D01*
X133552202Y-115804328D01*
X133552206Y-115804335D01*
X133638452Y-115919544D01*
X133638455Y-115919547D01*
X133753664Y-116005793D01*
X133753671Y-116005797D01*
X133888517Y-116056091D01*
X133888516Y-116056091D01*
X133895444Y-116056835D01*
X133948127Y-116062500D01*
X136553872Y-116062499D01*
X136613483Y-116056091D01*
X136748331Y-116005796D01*
X136863546Y-115919546D01*
X136890227Y-115883903D01*
X136906485Y-115862188D01*
X136962419Y-115820318D01*
X137005751Y-115812500D01*
X140798779Y-115812500D01*
X140865818Y-115832185D01*
X140899097Y-115863615D01*
X140955892Y-115941788D01*
X141106213Y-116092109D01*
X141278182Y-116217050D01*
X141286946Y-116221516D01*
X141337742Y-116269491D01*
X141354536Y-116337312D01*
X141331998Y-116403447D01*
X141286946Y-116442484D01*
X141278182Y-116446949D01*
X141106213Y-116571890D01*
X140955892Y-116722211D01*
X140899097Y-116800385D01*
X140843767Y-116843051D01*
X140798779Y-116851500D01*
X140315751Y-116851500D01*
X140248712Y-116831815D01*
X140216485Y-116801812D01*
X140173548Y-116744457D01*
X140173546Y-116744454D01*
X140173542Y-116744451D01*
X140058335Y-116658206D01*
X140058328Y-116658202D01*
X139923482Y-116607908D01*
X139923483Y-116607908D01*
X139863883Y-116601501D01*
X139863881Y-116601500D01*
X139863873Y-116601500D01*
X139863864Y-116601500D01*
X137258129Y-116601500D01*
X137258123Y-116601501D01*
X137198516Y-116607908D01*
X137063671Y-116658202D01*
X137063664Y-116658206D01*
X136948455Y-116744452D01*
X136948452Y-116744455D01*
X136862206Y-116859664D01*
X136862202Y-116859671D01*
X136811908Y-116994517D01*
X136805501Y-117054116D01*
X136805501Y-117054123D01*
X136805500Y-117054135D01*
X136805500Y-118149870D01*
X136805501Y-118149876D01*
X136811908Y-118209483D01*
X136862202Y-118344328D01*
X136862206Y-118344335D01*
X136948452Y-118459544D01*
X136948455Y-118459547D01*
X137063664Y-118545793D01*
X137063671Y-118545797D01*
X137198517Y-118596091D01*
X137198516Y-118596091D01*
X137205444Y-118596835D01*
X137258127Y-118602500D01*
X139863872Y-118602499D01*
X139923483Y-118596091D01*
X140058331Y-118545796D01*
X140173546Y-118459546D01*
X140200227Y-118423903D01*
X140216485Y-118402188D01*
X140272419Y-118360318D01*
X140315751Y-118352500D01*
X140798779Y-118352500D01*
X140865818Y-118372185D01*
X140899097Y-118403615D01*
X140955892Y-118481788D01*
X141106213Y-118632109D01*
X141278182Y-118757050D01*
X141286946Y-118761516D01*
X141337742Y-118809491D01*
X141354536Y-118877312D01*
X141331998Y-118943447D01*
X141286946Y-118982484D01*
X141278182Y-118986949D01*
X141106213Y-119111890D01*
X140955892Y-119262211D01*
X140899097Y-119340385D01*
X140843767Y-119383051D01*
X140798779Y-119391500D01*
X137005751Y-119391500D01*
X136938712Y-119371815D01*
X136906485Y-119341812D01*
X136863548Y-119284457D01*
X136863546Y-119284454D01*
X136863542Y-119284451D01*
X136748335Y-119198206D01*
X136748328Y-119198202D01*
X136613482Y-119147908D01*
X136613483Y-119147908D01*
X136553883Y-119141501D01*
X136553881Y-119141500D01*
X136553873Y-119141500D01*
X136553864Y-119141500D01*
X133948129Y-119141500D01*
X133948123Y-119141501D01*
X133888516Y-119147908D01*
X133753671Y-119198202D01*
X133753664Y-119198206D01*
X133638455Y-119284452D01*
X133638452Y-119284455D01*
X133552206Y-119399664D01*
X133552202Y-119399671D01*
X133501908Y-119534517D01*
X133495501Y-119594116D01*
X133495501Y-119594123D01*
X133495500Y-119594135D01*
X133495500Y-120689870D01*
X133495501Y-120689876D01*
X133501908Y-120749483D01*
X133552202Y-120884328D01*
X133552206Y-120884335D01*
X133638452Y-120999544D01*
X133638455Y-120999547D01*
X133753664Y-121085793D01*
X133753671Y-121085797D01*
X133888517Y-121136091D01*
X133888516Y-121136091D01*
X133895444Y-121136835D01*
X133948127Y-121142500D01*
X136553872Y-121142499D01*
X136613483Y-121136091D01*
X136748331Y-121085796D01*
X136863546Y-120999546D01*
X136890227Y-120963903D01*
X136906485Y-120942188D01*
X136962419Y-120900318D01*
X137005751Y-120892500D01*
X140798779Y-120892500D01*
X140865818Y-120912185D01*
X140899097Y-120943615D01*
X140955892Y-121021788D01*
X141106213Y-121172109D01*
X141278179Y-121297048D01*
X141278181Y-121297049D01*
X141278184Y-121297051D01*
X141467588Y-121393557D01*
X141669757Y-121459246D01*
X141879713Y-121492500D01*
X141879714Y-121492500D01*
X142092286Y-121492500D01*
X142092287Y-121492500D01*
X142302243Y-121459246D01*
X142504412Y-121393557D01*
X142575205Y-121357485D01*
X142643874Y-121344590D01*
X142708614Y-121370866D01*
X142748872Y-121427972D01*
X142755500Y-121467971D01*
X142755500Y-123290774D01*
X142735815Y-123357813D01*
X142683011Y-123403568D01*
X142631500Y-123414774D01*
X123560500Y-123414774D01*
X123493461Y-123395089D01*
X123447706Y-123342285D01*
X123436500Y-123290774D01*
X123436500Y-121467971D01*
X123456185Y-121400932D01*
X123508989Y-121355177D01*
X123578147Y-121345233D01*
X123616793Y-121357485D01*
X123687588Y-121393557D01*
X123889757Y-121459246D01*
X124099713Y-121492500D01*
X124099714Y-121492500D01*
X124312286Y-121492500D01*
X124312287Y-121492500D01*
X124522243Y-121459246D01*
X124724412Y-121393557D01*
X124913816Y-121297051D01*
X124935789Y-121281086D01*
X125085786Y-121172109D01*
X125085788Y-121172106D01*
X125085792Y-121172104D01*
X125236104Y-121021792D01*
X125252266Y-120999547D01*
X125292903Y-120943615D01*
X125348233Y-120900949D01*
X125393221Y-120892500D01*
X129186249Y-120892500D01*
X129253288Y-120912185D01*
X129285515Y-120942188D01*
X129328451Y-120999542D01*
X129328454Y-120999546D01*
X129328457Y-120999548D01*
X129443664Y-121085793D01*
X129443671Y-121085797D01*
X129578517Y-121136091D01*
X129578516Y-121136091D01*
X129585444Y-121136835D01*
X129638127Y-121142500D01*
X132243872Y-121142499D01*
X132303483Y-121136091D01*
X132438331Y-121085796D01*
X132553546Y-120999546D01*
X132639796Y-120884331D01*
X132690091Y-120749483D01*
X132696500Y-120689873D01*
X132696499Y-119594128D01*
X132690091Y-119534517D01*
X132639796Y-119399669D01*
X132639795Y-119399668D01*
X132639793Y-119399664D01*
X132553547Y-119284455D01*
X132553544Y-119284452D01*
X132438335Y-119198206D01*
X132438328Y-119198202D01*
X132303482Y-119147908D01*
X132303483Y-119147908D01*
X132243883Y-119141501D01*
X132243881Y-119141500D01*
X132243873Y-119141500D01*
X132243864Y-119141500D01*
X129638129Y-119141500D01*
X129638123Y-119141501D01*
X129578516Y-119147908D01*
X129443671Y-119198202D01*
X129443664Y-119198206D01*
X129328457Y-119284451D01*
X129328451Y-119284457D01*
X129285515Y-119341812D01*
X129229581Y-119383682D01*
X129186249Y-119391500D01*
X125393221Y-119391500D01*
X125326182Y-119371815D01*
X125292903Y-119340385D01*
X125236107Y-119262211D01*
X125085786Y-119111890D01*
X124913820Y-118986951D01*
X124913115Y-118986591D01*
X124905054Y-118982485D01*
X124854259Y-118934512D01*
X124837463Y-118866692D01*
X124859999Y-118800556D01*
X124905054Y-118761515D01*
X124913816Y-118757051D01*
X124935789Y-118741086D01*
X125085786Y-118632109D01*
X125085788Y-118632106D01*
X125085792Y-118632104D01*
X125236104Y-118481792D01*
X125252266Y-118459547D01*
X125292903Y-118403615D01*
X125348233Y-118360949D01*
X125393221Y-118352500D01*
X125876249Y-118352500D01*
X125943288Y-118372185D01*
X125975515Y-118402188D01*
X126018451Y-118459542D01*
X126018454Y-118459546D01*
X126018457Y-118459548D01*
X126133664Y-118545793D01*
X126133671Y-118545797D01*
X126268517Y-118596091D01*
X126268516Y-118596091D01*
X126275444Y-118596835D01*
X126328127Y-118602500D01*
X128933872Y-118602499D01*
X128993483Y-118596091D01*
X129128331Y-118545796D01*
X129243546Y-118459546D01*
X129329796Y-118344331D01*
X129380091Y-118209483D01*
X129386500Y-118149873D01*
X129386499Y-117054128D01*
X129380091Y-116994517D01*
X129329796Y-116859669D01*
X129329795Y-116859668D01*
X129329793Y-116859664D01*
X129243547Y-116744455D01*
X129243544Y-116744452D01*
X129128335Y-116658206D01*
X129128328Y-116658202D01*
X128993482Y-116607908D01*
X128993483Y-116607908D01*
X128933883Y-116601501D01*
X128933881Y-116601500D01*
X128933873Y-116601500D01*
X128933864Y-116601500D01*
X126328129Y-116601500D01*
X126328123Y-116601501D01*
X126268516Y-116607908D01*
X126133671Y-116658202D01*
X126133664Y-116658206D01*
X126018457Y-116744451D01*
X126018451Y-116744457D01*
X125975515Y-116801812D01*
X125919581Y-116843682D01*
X125876249Y-116851500D01*
X125393221Y-116851500D01*
X125326182Y-116831815D01*
X125292903Y-116800385D01*
X125236107Y-116722211D01*
X125085786Y-116571890D01*
X124913820Y-116446951D01*
X124913115Y-116446591D01*
X124905054Y-116442485D01*
X124854259Y-116394512D01*
X124837463Y-116326692D01*
X124859999Y-116260556D01*
X124905054Y-116221515D01*
X124913816Y-116217051D01*
X124935789Y-116201086D01*
X125085786Y-116092109D01*
X125085788Y-116092106D01*
X125085792Y-116092104D01*
X125236104Y-115941792D01*
X125252266Y-115919547D01*
X125292903Y-115863615D01*
X125348233Y-115820949D01*
X125393221Y-115812500D01*
X129186249Y-115812500D01*
X129253288Y-115832185D01*
X129285515Y-115862188D01*
X129328451Y-115919542D01*
X129328454Y-115919546D01*
X129328457Y-115919548D01*
X129443664Y-116005793D01*
X129443671Y-116005797D01*
X129578517Y-116056091D01*
X129578516Y-116056091D01*
X129585444Y-116056835D01*
X129638127Y-116062500D01*
X132243872Y-116062499D01*
X132303483Y-116056091D01*
X132438331Y-116005796D01*
X132553546Y-115919546D01*
X132639796Y-115804331D01*
X132690091Y-115669483D01*
X132696500Y-115609873D01*
X132696499Y-114514128D01*
X132690091Y-114454517D01*
X132639796Y-114319669D01*
X132639795Y-114319668D01*
X132639793Y-114319664D01*
X132553547Y-114204455D01*
X132553544Y-114204452D01*
X132438335Y-114118206D01*
X132438328Y-114118202D01*
X132303482Y-114067908D01*
X132303483Y-114067908D01*
X132243883Y-114061501D01*
X132243881Y-114061500D01*
X132243873Y-114061500D01*
X132243864Y-114061500D01*
X129638129Y-114061500D01*
X129638123Y-114061501D01*
X129578516Y-114067908D01*
X129443671Y-114118202D01*
X129443664Y-114118206D01*
X129328457Y-114204451D01*
X129328451Y-114204457D01*
X129285515Y-114261812D01*
X129229581Y-114303682D01*
X129186249Y-114311500D01*
X125393221Y-114311500D01*
X125326182Y-114291815D01*
X125292903Y-114260385D01*
X125236107Y-114182211D01*
X125099896Y-114046000D01*
X131572000Y-114046000D01*
X134620000Y-114046000D01*
X134620000Y-110998000D01*
X131572000Y-110998000D01*
X131572000Y-114046000D01*
X125099896Y-114046000D01*
X125085786Y-114031890D01*
X124913820Y-113906951D01*
X124913115Y-113906591D01*
X124905054Y-113902485D01*
X124854259Y-113854512D01*
X124837463Y-113786692D01*
X124859999Y-113720556D01*
X124905054Y-113681515D01*
X124913816Y-113677051D01*
X124935789Y-113661086D01*
X125085786Y-113552109D01*
X125085788Y-113552106D01*
X125085792Y-113552104D01*
X125236104Y-113401792D01*
X125252266Y-113379547D01*
X125292903Y-113323615D01*
X125348233Y-113280949D01*
X125393221Y-113272500D01*
X125876249Y-113272500D01*
X125943288Y-113292185D01*
X125975515Y-113322188D01*
X126018451Y-113379542D01*
X126018454Y-113379546D01*
X126018457Y-113379548D01*
X126133664Y-113465793D01*
X126133671Y-113465797D01*
X126268517Y-113516091D01*
X126268516Y-113516091D01*
X126275444Y-113516835D01*
X126328127Y-113522500D01*
X128933872Y-113522499D01*
X128993483Y-113516091D01*
X129128331Y-113465796D01*
X129243546Y-113379546D01*
X129329796Y-113264331D01*
X129380091Y-113129483D01*
X129386500Y-113069873D01*
X129386499Y-111974128D01*
X129380091Y-111914517D01*
X129329796Y-111779669D01*
X129329795Y-111779668D01*
X129329793Y-111779664D01*
X129243547Y-111664455D01*
X129243544Y-111664452D01*
X129128335Y-111578206D01*
X129128328Y-111578202D01*
X128993482Y-111527908D01*
X128993483Y-111527908D01*
X128933883Y-111521501D01*
X128933881Y-111521500D01*
X128933873Y-111521500D01*
X128933864Y-111521500D01*
X126328129Y-111521500D01*
X126328123Y-111521501D01*
X126268516Y-111527908D01*
X126133671Y-111578202D01*
X126133664Y-111578206D01*
X126018457Y-111664451D01*
X126018451Y-111664457D01*
X125975515Y-111721812D01*
X125919581Y-111763682D01*
X125876249Y-111771500D01*
X125393221Y-111771500D01*
X125326182Y-111751815D01*
X125292903Y-111720385D01*
X125236107Y-111642211D01*
X125085786Y-111491890D01*
X124913820Y-111366951D01*
X124913115Y-111366591D01*
X124905054Y-111362485D01*
X124854259Y-111314512D01*
X124837463Y-111246692D01*
X124859999Y-111180556D01*
X124905054Y-111141515D01*
X124913816Y-111137051D01*
X124935789Y-111121086D01*
X125085786Y-111012109D01*
X125085788Y-111012106D01*
X125085792Y-111012104D01*
X125236104Y-110861792D01*
X125252266Y-110839547D01*
X125292903Y-110783615D01*
X125348233Y-110740949D01*
X125393221Y-110732500D01*
X129186249Y-110732500D01*
X129253288Y-110752185D01*
X129285515Y-110782188D01*
X129328451Y-110839542D01*
X129328454Y-110839546D01*
X129328457Y-110839548D01*
X129443664Y-110925793D01*
X129443671Y-110925797D01*
X129578517Y-110976091D01*
X129578516Y-110976091D01*
X129585444Y-110976835D01*
X129638127Y-110982500D01*
X132243872Y-110982499D01*
X132303483Y-110976091D01*
X132438331Y-110925796D01*
X132553546Y-110839546D01*
X132639796Y-110724331D01*
X132690091Y-110589483D01*
X132696500Y-110529873D01*
X132696499Y-109434128D01*
X132690091Y-109374517D01*
X132639796Y-109239669D01*
X132639795Y-109239668D01*
X132639793Y-109239664D01*
X132553547Y-109124455D01*
X132553544Y-109124452D01*
X132438335Y-109038206D01*
X132438328Y-109038202D01*
X132303482Y-108987908D01*
X132303483Y-108987908D01*
X132243883Y-108981501D01*
X132243881Y-108981500D01*
X132243873Y-108981500D01*
X132243864Y-108981500D01*
X129638129Y-108981500D01*
X129638123Y-108981501D01*
X129578516Y-108987908D01*
X129443671Y-109038202D01*
X129443664Y-109038206D01*
X129328457Y-109124451D01*
X129328451Y-109124457D01*
X129285515Y-109181812D01*
X129229581Y-109223682D01*
X129186249Y-109231500D01*
X125393221Y-109231500D01*
X125326182Y-109211815D01*
X125292903Y-109180385D01*
X125236107Y-109102211D01*
X125085786Y-108951890D01*
X124913820Y-108826951D01*
X124913115Y-108826591D01*
X124905054Y-108822485D01*
X124854259Y-108774512D01*
X124837463Y-108706692D01*
X124859999Y-108640556D01*
X124905054Y-108601515D01*
X124913816Y-108597051D01*
X124935789Y-108581086D01*
X125085786Y-108472109D01*
X125085788Y-108472106D01*
X125085792Y-108472104D01*
X125236104Y-108321792D01*
X125252266Y-108299547D01*
X125292903Y-108243615D01*
X125348233Y-108200949D01*
X125393221Y-108192500D01*
X125876249Y-108192500D01*
X125943288Y-108212185D01*
X125975515Y-108242188D01*
X126018451Y-108299542D01*
X126018454Y-108299546D01*
X126018457Y-108299548D01*
X126133664Y-108385793D01*
X126133671Y-108385797D01*
X126268517Y-108436091D01*
X126268516Y-108436091D01*
X126275444Y-108436835D01*
X126328127Y-108442500D01*
X128933872Y-108442499D01*
X128993483Y-108436091D01*
X129128331Y-108385796D01*
X129243546Y-108299546D01*
X129329796Y-108184331D01*
X129380091Y-108049483D01*
X129386500Y-107989873D01*
X129386499Y-106894128D01*
X129380091Y-106834517D01*
X129329796Y-106699669D01*
X129329795Y-106699668D01*
X129329793Y-106699664D01*
X129243547Y-106584455D01*
X129243544Y-106584452D01*
X129128335Y-106498206D01*
X129128328Y-106498202D01*
X128993482Y-106447908D01*
X128993483Y-106447908D01*
X128933883Y-106441501D01*
X128933881Y-106441500D01*
X128933873Y-106441500D01*
X128933864Y-106441500D01*
X126328129Y-106441500D01*
X126328123Y-106441501D01*
X126268516Y-106447908D01*
X126133671Y-106498202D01*
X126133664Y-106498206D01*
X126018457Y-106584451D01*
X126018451Y-106584457D01*
X125975515Y-106641812D01*
X125919581Y-106683682D01*
X125876249Y-106691500D01*
X125393221Y-106691500D01*
X125326182Y-106671815D01*
X125292903Y-106640385D01*
X125236107Y-106562211D01*
X125085786Y-106411890D01*
X124913820Y-106286951D01*
X124913115Y-106286591D01*
X124905054Y-106282485D01*
X124854259Y-106234512D01*
X124837463Y-106166692D01*
X124859999Y-106100556D01*
X124905054Y-106061515D01*
X124913816Y-106057051D01*
X124935789Y-106041086D01*
X125085786Y-105932109D01*
X125085788Y-105932106D01*
X125085792Y-105932104D01*
X125236104Y-105781792D01*
X125252266Y-105759547D01*
X125292903Y-105703615D01*
X125348233Y-105660949D01*
X125393221Y-105652500D01*
X129186249Y-105652500D01*
X129253288Y-105672185D01*
X129285515Y-105702188D01*
X129328451Y-105759542D01*
X129328454Y-105759546D01*
X129328457Y-105759548D01*
X129443664Y-105845793D01*
X129443671Y-105845797D01*
X129578517Y-105896091D01*
X129578516Y-105896091D01*
X129585444Y-105896835D01*
X129638127Y-105902500D01*
X132243872Y-105902499D01*
X132303483Y-105896091D01*
X132438331Y-105845796D01*
X132553546Y-105759546D01*
X132639796Y-105644331D01*
X132690091Y-105509483D01*
X132696500Y-105449873D01*
X132696499Y-104354128D01*
X132690091Y-104294517D01*
X132639796Y-104159669D01*
X132639795Y-104159668D01*
X132639793Y-104159664D01*
X132553547Y-104044455D01*
X132553544Y-104044452D01*
X132438335Y-103958206D01*
X132438328Y-103958202D01*
X132303482Y-103907908D01*
X132303483Y-103907908D01*
X132243883Y-103901501D01*
X132243881Y-103901500D01*
X132243873Y-103901500D01*
X132243864Y-103901500D01*
X129638129Y-103901500D01*
X129638123Y-103901501D01*
X129578516Y-103907908D01*
X129443671Y-103958202D01*
X129443664Y-103958206D01*
X129328457Y-104044451D01*
X129328451Y-104044457D01*
X129285515Y-104101812D01*
X129229581Y-104143682D01*
X129186249Y-104151500D01*
X125393221Y-104151500D01*
X125326182Y-104131815D01*
X125292903Y-104100385D01*
X125236107Y-104022211D01*
X125122569Y-103908673D01*
X125089084Y-103847350D01*
X125094068Y-103777658D01*
X125135940Y-103721725D01*
X125166915Y-103704810D01*
X125298331Y-103655796D01*
X125413546Y-103569546D01*
X125499796Y-103454331D01*
X125550091Y-103319483D01*
X125556500Y-103259873D01*
X125556500Y-103236500D01*
X125559050Y-103227814D01*
X125557762Y-103218853D01*
X125568740Y-103194812D01*
X125576185Y-103169461D01*
X125583025Y-103163533D01*
X125586787Y-103155297D01*
X125609021Y-103141007D01*
X125628989Y-103123706D01*
X125639503Y-103121418D01*
X125645565Y-103117523D01*
X125680500Y-103112500D01*
X125876249Y-103112500D01*
X125943288Y-103132185D01*
X125975515Y-103162188D01*
X125980960Y-103169461D01*
X126018454Y-103219546D01*
X126018457Y-103219548D01*
X126133664Y-103305793D01*
X126133671Y-103305797D01*
X126268517Y-103356091D01*
X126268516Y-103356091D01*
X126275444Y-103356835D01*
X126328127Y-103362500D01*
X128933872Y-103362499D01*
X128993483Y-103356091D01*
X129128331Y-103305796D01*
X129243546Y-103219546D01*
X129329796Y-103104331D01*
X129380091Y-102969483D01*
X129386500Y-102909873D01*
X129386499Y-101814128D01*
X129380091Y-101754517D01*
X129329796Y-101619669D01*
X129329795Y-101619668D01*
X129329793Y-101619664D01*
X129243547Y-101504455D01*
X129243544Y-101504452D01*
X129128335Y-101418206D01*
X129128328Y-101418202D01*
X128993482Y-101367908D01*
X128993483Y-101367908D01*
X128933883Y-101361501D01*
X128933881Y-101361500D01*
X128933873Y-101361500D01*
X128933864Y-101361500D01*
X126328129Y-101361500D01*
X126328123Y-101361501D01*
X126268516Y-101367908D01*
X126133671Y-101418202D01*
X126133664Y-101418206D01*
X126018457Y-101504451D01*
X126018451Y-101504457D01*
X125975515Y-101561812D01*
X125971859Y-101564548D01*
X125969962Y-101568703D01*
X125944144Y-101585294D01*
X125919581Y-101603682D01*
X125913953Y-101604697D01*
X125911184Y-101606477D01*
X125876249Y-101611500D01*
X125680499Y-101611500D01*
X125613460Y-101591815D01*
X125567705Y-101539011D01*
X125556499Y-101487500D01*
X125556499Y-101464129D01*
X125556498Y-101464123D01*
X125550091Y-101404516D01*
X125499797Y-101269671D01*
X125499793Y-101269664D01*
X125413547Y-101154455D01*
X125413544Y-101154452D01*
X125298335Y-101068206D01*
X125298328Y-101068202D01*
X125163482Y-101017908D01*
X125163483Y-101017908D01*
X125103883Y-101011501D01*
X125103881Y-101011500D01*
X125103873Y-101011500D01*
X125103865Y-101011500D01*
X123560500Y-101011500D01*
X123493461Y-100991815D01*
X123447706Y-100939011D01*
X123436500Y-100887500D01*
X123436500Y-99139774D01*
X123456185Y-99072735D01*
X123508989Y-99026980D01*
X123560500Y-99015774D01*
X142631500Y-99015774D01*
X142698539Y-99035459D01*
G37*
G04 #@! TD.AperFunction*
G04 #@! TA.AperFunction,Conductor*
G36*
X134309039Y-104426685D02*
G01*
X134354794Y-104479489D01*
X134366000Y-104531000D01*
X134366000Y-105272999D01*
X134363449Y-105281684D01*
X134364738Y-105290646D01*
X134353759Y-105314686D01*
X134346315Y-105340038D01*
X134339474Y-105345965D01*
X134335713Y-105354202D01*
X134313478Y-105368491D01*
X134293511Y-105385793D01*
X134282996Y-105388080D01*
X134276935Y-105391976D01*
X134242000Y-105396999D01*
X134125000Y-105396999D01*
X134057961Y-105377314D01*
X134012206Y-105324510D01*
X134001000Y-105272999D01*
X134001000Y-104531000D01*
X134020685Y-104463961D01*
X134073489Y-104418206D01*
X134125000Y-104407000D01*
X134242000Y-104407000D01*
X134309039Y-104426685D01*
G37*
G04 #@! TD.AperFunction*
G04 #@! TA.AperFunction,Conductor*
G36*
X134620000Y-114046000D02*
G01*
X131572000Y-114046000D01*
X131572000Y-110998000D01*
X134620000Y-110998000D01*
X134620000Y-114046000D01*
G37*
G04 #@! TD.AperFunction*
M02*
