M48
; DRILL file {KiCad 9.0.6} date 2026-01-08T22:09:00-0600
; FORMAT={-:-/ absolute / metric / decimal}
; #@! TF.CreationDate,2026-01-08T22:09:00-06:00
; #@! TF.GenerationSoftware,Kicad,Pcbnew,9.0.6
; #@! TF.FileFunction,Plated,1,2,PTH
FMAT,2
METRIC
; #@! TA.AperFunction,Plated,PTH,ComponentDrill
T1C0.200
; #@! TA.AperFunction,Plated,PTH,ViaDrill
T2C0.300
; #@! TA.AperFunction,Plated,PTH,ComponentDrill
T3C1.000
%
G90
G05
T1
X121.707Y-108.942
X122.449Y-108.2
X122.449Y-109.684
X123.192Y-107.457
X123.192Y-108.942
X123.192Y-110.427
X123.934Y-108.2
X123.934Y-109.684
X124.677Y-108.942
T2
X123.093Y-122.428
X123.19Y-105.41
X123.19Y-112.522
T3
X111.76Y-96.266
X111.76Y-98.806
X111.76Y-101.346
X111.76Y-103.886
X111.76Y-106.426
X111.76Y-108.966
X111.76Y-111.506
X111.76Y-114.046
X111.76Y-116.586
X111.76Y-119.126
X111.76Y-121.666
X111.76Y-124.206
X111.76Y-126.746
X111.76Y-129.286
X134.62Y-96.266
X134.62Y-98.806
X134.62Y-101.346
X134.62Y-103.886
X134.62Y-106.426
X134.62Y-108.966
X134.62Y-111.506
X134.62Y-114.046
X134.62Y-116.586
X134.62Y-119.126
X134.62Y-121.666
X134.62Y-124.206
X134.62Y-126.746
X134.62Y-129.286
M30
