G04 #@! TF.GenerationSoftware,KiCad,Pcbnew,9.0.6*
G04 #@! TF.CreationDate,2026-01-08T22:08:58-06:00*
G04 #@! TF.ProjectId,QFN-24_4x4_P0.5,51464e2d-3234-45f3-9478-345f50302e35,rev?*
G04 #@! TF.SameCoordinates,Original*
G04 #@! TF.FileFunction,Legend,Bot*
G04 #@! TF.FilePolarity,Positive*
%FSLAX46Y46*%
G04 Gerber Fmt 4.6, Leading zero omitted, Abs format (unit mm)*
G04 Created by KiCad (PCBNEW 9.0.6) date 2026-01-08 22:08:58*
%MOMM*%
%LPD*%
G01*
G04 APERTURE LIST*
%ADD10C,0.120000*%
%ADD11C,1.700000*%
%ADD12R,1.700000X1.700000*%
%ADD13R,2.510000X1.000000*%
G04 APERTURE END LIST*
D10*
X128160000Y-127556000D02*
X128160000Y-130666000D01*
X128160000Y-122476000D02*
X128160000Y-125936000D01*
X128160000Y-117396000D02*
X128160000Y-120856000D01*
X128160000Y-112316000D02*
X128160000Y-115776000D01*
X128160000Y-107236000D02*
X128160000Y-110696000D01*
X128160000Y-102156000D02*
X128160000Y-105616000D01*
X128160000Y-97076000D02*
X128160000Y-100536000D01*
X128160000Y-94886000D02*
X128160000Y-95456000D01*
X130920000Y-130666000D02*
X128160000Y-130666000D01*
X130920000Y-130096000D02*
X130920000Y-130666000D01*
X130920000Y-125016000D02*
X130920000Y-128476000D01*
X130920000Y-119936000D02*
X130920000Y-123396000D01*
X130920000Y-114856000D02*
X130920000Y-118316000D01*
X130920000Y-109776000D02*
X130920000Y-113236000D01*
X130920000Y-104696000D02*
X130920000Y-108156000D01*
X130920000Y-99616000D02*
X130920000Y-103076000D01*
X130920000Y-95456000D02*
X130920000Y-97996000D01*
X130920000Y-94886000D02*
X128160000Y-94886000D01*
X130920000Y-94886000D02*
X130920000Y-97996000D01*
X115460000Y-130096000D02*
X115460000Y-130666000D01*
X115460000Y-125016000D02*
X115460000Y-128476000D01*
X115460000Y-119936000D02*
X115460000Y-123396000D01*
X115460000Y-114856000D02*
X115460000Y-118316000D01*
X115460000Y-109776000D02*
X115460000Y-113236000D01*
X115460000Y-104696000D02*
X115460000Y-108156000D01*
X115460000Y-99616000D02*
X115460000Y-103076000D01*
X115460000Y-94886000D02*
X115460000Y-97996000D01*
X118220000Y-130666000D02*
X115460000Y-130666000D01*
X118220000Y-127556000D02*
X118220000Y-130666000D01*
X118220000Y-122476000D02*
X118220000Y-125936000D01*
X118220000Y-117396000D02*
X118220000Y-120856000D01*
X118220000Y-112316000D02*
X118220000Y-115776000D01*
X118220000Y-107236000D02*
X118220000Y-110696000D01*
X118220000Y-102156000D02*
X118220000Y-105616000D01*
X118220000Y-97076000D02*
X118220000Y-100536000D01*
X118220000Y-94886000D02*
X115460000Y-94886000D01*
X118220000Y-94886000D02*
X118220000Y-95456000D01*
%LPC*%
D11*
X134620000Y-129286000D03*
X134620000Y-126746000D03*
X134620000Y-124206000D03*
X134620000Y-121666000D03*
X134620000Y-119126000D03*
X134620000Y-116586000D03*
X134620000Y-114046000D03*
X134620000Y-111506000D03*
X134620000Y-108966000D03*
X134620000Y-106426000D03*
X134620000Y-103886000D03*
X134620000Y-101346000D03*
X134620000Y-98806000D03*
X134620000Y-96266000D03*
X111760000Y-129286000D03*
X111760000Y-126746000D03*
X111760000Y-124206000D03*
X111760000Y-121666000D03*
X111760000Y-119126000D03*
X111760000Y-116586000D03*
X111760000Y-114046000D03*
X111760000Y-111506000D03*
X111760000Y-108966000D03*
X111760000Y-106426000D03*
X111760000Y-103886000D03*
X111760000Y-101346000D03*
D12*
X111760000Y-98806000D03*
D11*
X111760000Y-96266000D03*
D13*
X131195000Y-129286000D03*
X127885000Y-126746000D03*
X131195000Y-124206000D03*
X127885000Y-121666000D03*
X131195000Y-119126000D03*
X127885000Y-116586000D03*
X131195000Y-114046000D03*
X127885000Y-111506000D03*
X131195000Y-108966000D03*
X127885000Y-106426000D03*
X131195000Y-103886000D03*
X127885000Y-101346000D03*
X131195000Y-98806000D03*
X127885000Y-96266000D03*
X115185000Y-129286000D03*
X118495000Y-126746000D03*
X115185000Y-124206000D03*
X118495000Y-121666000D03*
X115185000Y-119126000D03*
X118495000Y-116586000D03*
X115185000Y-114046000D03*
X118495000Y-111506000D03*
X115185000Y-108966000D03*
X118495000Y-106426000D03*
X115185000Y-103886000D03*
X118495000Y-101346000D03*
X115185000Y-98806000D03*
X118495000Y-96266000D03*
%LPD*%
M02*
