G04 #@! TF.GenerationSoftware,KiCad,Pcbnew,9.0.6*
G04 #@! TF.CreationDate,2026-01-08T22:08:58-06:00*
G04 #@! TF.ProjectId,QFN-24_4x4_P0.5,51464e2d-3234-45f3-9478-345f50302e35,rev?*
G04 #@! TF.SameCoordinates,Original*
G04 #@! TF.FileFunction,Copper,L2,Bot*
G04 #@! TF.FilePolarity,Positive*
%FSLAX46Y46*%
G04 Gerber Fmt 4.6, Leading zero omitted, Abs format (unit mm)*
G04 Created by KiCad (PCBNEW 9.0.6) date 2026-01-08 22:08:58*
%MOMM*%
%LPD*%
G01*
G04 APERTURE LIST*
G04 Aperture macros list*
%AMRotRect*
0 Rectangle, with rotation*
0 The origin of the aperture is its center*
0 $1 length*
0 $2 width*
0 $3 Rotation angle, in degrees counterclockwise*
0 Add horizontal line*
21,1,$1,$2,0,0,$3*%
G04 Aperture macros list end*
G04 #@! TA.AperFunction,HeatsinkPad*
%ADD10C,0.500000*%
G04 #@! TD*
G04 #@! TA.AperFunction,HeatsinkPad*
%ADD11RotRect,2.600000X2.600000X315.000000*%
G04 #@! TD*
G04 #@! TA.AperFunction,ComponentPad*
%ADD12C,1.700000*%
G04 #@! TD*
G04 #@! TA.AperFunction,ComponentPad*
%ADD13R,1.700000X1.700000*%
G04 #@! TD*
G04 #@! TA.AperFunction,SMDPad,CuDef*
%ADD14R,2.510000X1.000000*%
G04 #@! TD*
G04 #@! TA.AperFunction,ViaPad*
%ADD15C,0.600000*%
G04 #@! TD*
G04 #@! TA.AperFunction,Conductor*
%ADD16C,0.500000*%
G04 #@! TD*
G04 APERTURE END LIST*
D10*
X123191580Y-107457094D03*
X122449118Y-108199556D03*
X121706656Y-108942018D03*
X123934042Y-108199556D03*
X123191580Y-108942018D03*
D11*
X123191580Y-108942018D03*
D10*
X122449118Y-109684480D03*
X124676504Y-108942018D03*
X123934042Y-109684480D03*
X123191580Y-110426942D03*
D12*
X134620000Y-129286000D03*
X134620000Y-126746000D03*
X134620000Y-124206000D03*
X134620000Y-121666000D03*
X134620000Y-119126000D03*
X134620000Y-116586000D03*
X134620000Y-114046000D03*
X134620000Y-111506000D03*
X134620000Y-108966000D03*
X134620000Y-106426000D03*
X134620000Y-103886000D03*
X134620000Y-101346000D03*
X134620000Y-98806000D03*
X134620000Y-96266000D03*
X111760000Y-129286000D03*
X111760000Y-126746000D03*
X111760000Y-124206000D03*
X111760000Y-121666000D03*
X111760000Y-119126000D03*
X111760000Y-116586000D03*
X111760000Y-114046000D03*
X111760000Y-111506000D03*
X111760000Y-108966000D03*
X111760000Y-106426000D03*
X111760000Y-103886000D03*
X111760000Y-101346000D03*
D13*
X111760000Y-98806000D03*
D12*
X111760000Y-96266000D03*
D14*
X131195000Y-129286000D03*
X127885000Y-126746000D03*
X131195000Y-124206000D03*
X127885000Y-121666000D03*
X131195000Y-119126000D03*
X127885000Y-116586000D03*
X131195000Y-114046000D03*
X127885000Y-111506000D03*
X131195000Y-108966000D03*
X127885000Y-106426000D03*
X131195000Y-103886000D03*
X127885000Y-101346000D03*
X131195000Y-98806000D03*
X127885000Y-96266000D03*
X115185000Y-129286000D03*
X118495000Y-126746000D03*
X115185000Y-124206000D03*
X118495000Y-121666000D03*
X115185000Y-119126000D03*
X118495000Y-116586000D03*
X115185000Y-114046000D03*
X118495000Y-111506000D03*
X115185000Y-108966000D03*
X118495000Y-106426000D03*
X115185000Y-103886000D03*
X118495000Y-101346000D03*
X115185000Y-98806000D03*
X118495000Y-96266000D03*
D15*
X123092625Y-122428000D03*
X123190000Y-105410000D03*
X123190000Y-112522000D03*
D16*
X118495000Y-96266000D02*
X134620000Y-96266000D01*
X127885000Y-101346000D02*
X134620000Y-101346000D01*
X118495000Y-121666000D02*
X111760000Y-121666000D01*
X111760000Y-103886000D02*
X115185000Y-103886000D01*
X118495000Y-111506000D02*
X111760000Y-111506000D01*
X118495000Y-116586000D02*
X111760000Y-116586000D01*
X111760000Y-98806000D02*
X115185000Y-98806000D01*
X111760000Y-114046000D02*
X115185000Y-114046000D01*
X131195000Y-98806000D02*
X134620000Y-98806000D01*
X118495000Y-101346000D02*
X111760000Y-101346000D01*
X131195000Y-108966000D02*
X134620000Y-108966000D01*
X127885000Y-111506000D02*
X134620000Y-111506000D01*
X127885000Y-121666000D02*
X134620000Y-121666000D01*
X131195000Y-119126000D02*
X134620000Y-119126000D01*
X131195000Y-124206000D02*
X134620000Y-124206000D01*
X111760000Y-119126000D02*
X115185000Y-119126000D01*
X131195000Y-103886000D02*
X134620000Y-103886000D01*
X127885000Y-116586000D02*
X134620000Y-116586000D01*
X131195000Y-129286000D02*
X134620000Y-129286000D01*
X111760000Y-96266000D02*
X118495000Y-96266000D01*
X127885000Y-106426000D02*
X134620000Y-106426000D01*
X127885000Y-126746000D02*
X134620000Y-126746000D01*
X111760000Y-108966000D02*
X115185000Y-108966000D01*
X118495000Y-106426000D02*
X111760000Y-106426000D01*
X111760000Y-129286000D02*
X115185000Y-129286000D01*
X118495000Y-126746000D02*
X111760000Y-126746000D01*
X111760000Y-124206000D02*
X115185000Y-124206000D01*
X131195000Y-114046000D02*
X134620000Y-114046000D01*
G04 #@! TA.AperFunction,Conductor*
G36*
X135332539Y-95454415D02*
G01*
X135378294Y-95507219D01*
X135389500Y-95558730D01*
X135389500Y-97480028D01*
X135369815Y-97547067D01*
X135317011Y-97592822D01*
X135247853Y-97602766D01*
X135209206Y-97590513D01*
X135138417Y-97554445D01*
X135138414Y-97554444D01*
X135138412Y-97554443D01*
X134936243Y-97488754D01*
X134936241Y-97488753D01*
X134936240Y-97488753D01*
X134774957Y-97463208D01*
X134726287Y-97455500D01*
X134513713Y-97455500D01*
X134465042Y-97463208D01*
X134303760Y-97488753D01*
X134101585Y-97554444D01*
X133912179Y-97650951D01*
X133740213Y-97775890D01*
X133589892Y-97926211D01*
X133533097Y-98004385D01*
X133477767Y-98047051D01*
X133432779Y-98055500D01*
X132949751Y-98055500D01*
X132882712Y-98035815D01*
X132850485Y-98005812D01*
X132807548Y-97948457D01*
X132807546Y-97948454D01*
X132807542Y-97948451D01*
X132692335Y-97862206D01*
X132692328Y-97862202D01*
X132557482Y-97811908D01*
X132557483Y-97811908D01*
X132497883Y-97805501D01*
X132497881Y-97805500D01*
X132497873Y-97805500D01*
X132497864Y-97805500D01*
X129892129Y-97805500D01*
X129892123Y-97805501D01*
X129832516Y-97811908D01*
X129697671Y-97862202D01*
X129697664Y-97862206D01*
X129582455Y-97948452D01*
X129582452Y-97948455D01*
X129496206Y-98063664D01*
X129496202Y-98063671D01*
X129445908Y-98198517D01*
X129439501Y-98258116D01*
X129439501Y-98258123D01*
X129439500Y-98258135D01*
X129439500Y-99353870D01*
X129439501Y-99353876D01*
X129445908Y-99413483D01*
X129496202Y-99548328D01*
X129496206Y-99548335D01*
X129582452Y-99663544D01*
X129582455Y-99663547D01*
X129697664Y-99749793D01*
X129697671Y-99749797D01*
X129832517Y-99800091D01*
X129832516Y-99800091D01*
X129839444Y-99800835D01*
X129892127Y-99806500D01*
X132497872Y-99806499D01*
X132557483Y-99800091D01*
X132692331Y-99749796D01*
X132807546Y-99663546D01*
X132845040Y-99613461D01*
X132850485Y-99606188D01*
X132906419Y-99564318D01*
X132949751Y-99556500D01*
X133432779Y-99556500D01*
X133499818Y-99576185D01*
X133533097Y-99607615D01*
X133589892Y-99685788D01*
X133740213Y-99836109D01*
X133912182Y-99961050D01*
X133920946Y-99965516D01*
X133971742Y-100013491D01*
X133988536Y-100081312D01*
X133965998Y-100147447D01*
X133920946Y-100186484D01*
X133912182Y-100190949D01*
X133740213Y-100315890D01*
X133589892Y-100466211D01*
X133533097Y-100544385D01*
X133477767Y-100587051D01*
X133432779Y-100595500D01*
X129639751Y-100595500D01*
X129572712Y-100575815D01*
X129540485Y-100545812D01*
X129497548Y-100488457D01*
X129497546Y-100488454D01*
X129497542Y-100488451D01*
X129382335Y-100402206D01*
X129382328Y-100402202D01*
X129247482Y-100351908D01*
X129247483Y-100351908D01*
X129187883Y-100345501D01*
X129187881Y-100345500D01*
X129187873Y-100345500D01*
X129187864Y-100345500D01*
X126582129Y-100345500D01*
X126582123Y-100345501D01*
X126522516Y-100351908D01*
X126387671Y-100402202D01*
X126387664Y-100402206D01*
X126272455Y-100488452D01*
X126272452Y-100488455D01*
X126186206Y-100603664D01*
X126186202Y-100603671D01*
X126135908Y-100738517D01*
X126129501Y-100798116D01*
X126129501Y-100798123D01*
X126129500Y-100798135D01*
X126129500Y-101893870D01*
X126129501Y-101893876D01*
X126135908Y-101953483D01*
X126186202Y-102088328D01*
X126186206Y-102088335D01*
X126272452Y-102203544D01*
X126272455Y-102203547D01*
X126387664Y-102289793D01*
X126387671Y-102289797D01*
X126522517Y-102340091D01*
X126522516Y-102340091D01*
X126529444Y-102340835D01*
X126582127Y-102346500D01*
X129187872Y-102346499D01*
X129247483Y-102340091D01*
X129382331Y-102289796D01*
X129497546Y-102203546D01*
X129524227Y-102167903D01*
X129540485Y-102146188D01*
X129596419Y-102104318D01*
X129639751Y-102096500D01*
X133432779Y-102096500D01*
X133499818Y-102116185D01*
X133533097Y-102147615D01*
X133589892Y-102225788D01*
X133740213Y-102376109D01*
X133912182Y-102501050D01*
X133920946Y-102505516D01*
X133971742Y-102553491D01*
X133988536Y-102621312D01*
X133965998Y-102687447D01*
X133920946Y-102726484D01*
X133912182Y-102730949D01*
X133740213Y-102855890D01*
X133589892Y-103006211D01*
X133533097Y-103084385D01*
X133477767Y-103127051D01*
X133432779Y-103135500D01*
X132949751Y-103135500D01*
X132882712Y-103115815D01*
X132850485Y-103085812D01*
X132807548Y-103028457D01*
X132807546Y-103028454D01*
X132807542Y-103028451D01*
X132692335Y-102942206D01*
X132692328Y-102942202D01*
X132557482Y-102891908D01*
X132557483Y-102891908D01*
X132497883Y-102885501D01*
X132497881Y-102885500D01*
X132497873Y-102885500D01*
X132497864Y-102885500D01*
X129892129Y-102885500D01*
X129892123Y-102885501D01*
X129832516Y-102891908D01*
X129697671Y-102942202D01*
X129697664Y-102942206D01*
X129582455Y-103028452D01*
X129582452Y-103028455D01*
X129496206Y-103143664D01*
X129496202Y-103143671D01*
X129445908Y-103278517D01*
X129439501Y-103338116D01*
X129439501Y-103338123D01*
X129439500Y-103338135D01*
X129439500Y-104433870D01*
X129439501Y-104433876D01*
X129445908Y-104493483D01*
X129496202Y-104628328D01*
X129496206Y-104628335D01*
X129582452Y-104743544D01*
X129582455Y-104743547D01*
X129697664Y-104829793D01*
X129697671Y-104829797D01*
X129832517Y-104880091D01*
X129832516Y-104880091D01*
X129839444Y-104880835D01*
X129892127Y-104886500D01*
X132497872Y-104886499D01*
X132557483Y-104880091D01*
X132692331Y-104829796D01*
X132807546Y-104743546D01*
X132834227Y-104707903D01*
X132850485Y-104686188D01*
X132906419Y-104644318D01*
X132949751Y-104636500D01*
X133432779Y-104636500D01*
X133499818Y-104656185D01*
X133533097Y-104687615D01*
X133589892Y-104765788D01*
X133740213Y-104916109D01*
X133912182Y-105041050D01*
X133920946Y-105045516D01*
X133971742Y-105093491D01*
X133988536Y-105161312D01*
X133965998Y-105227447D01*
X133920946Y-105266484D01*
X133912182Y-105270949D01*
X133740213Y-105395890D01*
X133589892Y-105546211D01*
X133533097Y-105624385D01*
X133477767Y-105667051D01*
X133432779Y-105675500D01*
X129639751Y-105675500D01*
X129572712Y-105655815D01*
X129540485Y-105625812D01*
X129497548Y-105568457D01*
X129497546Y-105568454D01*
X129497542Y-105568451D01*
X129382335Y-105482206D01*
X129382328Y-105482202D01*
X129247482Y-105431908D01*
X129247483Y-105431908D01*
X129187883Y-105425501D01*
X129187881Y-105425500D01*
X129187873Y-105425500D01*
X129187864Y-105425500D01*
X126582129Y-105425500D01*
X126582123Y-105425501D01*
X126522516Y-105431908D01*
X126387671Y-105482202D01*
X126387664Y-105482206D01*
X126272455Y-105568452D01*
X126272452Y-105568455D01*
X126186206Y-105683664D01*
X126186202Y-105683671D01*
X126135908Y-105818517D01*
X126129501Y-105878116D01*
X126129501Y-105878123D01*
X126129500Y-105878135D01*
X126129500Y-106973870D01*
X126129501Y-106973876D01*
X126135908Y-107033483D01*
X126186202Y-107168328D01*
X126186206Y-107168335D01*
X126272452Y-107283544D01*
X126272455Y-107283547D01*
X126387664Y-107369793D01*
X126387671Y-107369797D01*
X126522517Y-107420091D01*
X126522516Y-107420091D01*
X126529444Y-107420835D01*
X126582127Y-107426500D01*
X129187872Y-107426499D01*
X129247483Y-107420091D01*
X129382331Y-107369796D01*
X129497546Y-107283546D01*
X129524227Y-107247903D01*
X129540485Y-107226188D01*
X129596419Y-107184318D01*
X129639751Y-107176500D01*
X133432779Y-107176500D01*
X133499818Y-107196185D01*
X133533097Y-107227615D01*
X133589892Y-107305788D01*
X133740213Y-107456109D01*
X133912182Y-107581050D01*
X133920946Y-107585516D01*
X133971742Y-107633491D01*
X133988536Y-107701312D01*
X133965998Y-107767447D01*
X133920946Y-107806484D01*
X133912182Y-107810949D01*
X133740213Y-107935890D01*
X133589892Y-108086211D01*
X133533097Y-108164385D01*
X133477767Y-108207051D01*
X133432779Y-108215500D01*
X132949751Y-108215500D01*
X132882712Y-108195815D01*
X132850485Y-108165812D01*
X132807548Y-108108457D01*
X132807546Y-108108454D01*
X132807542Y-108108451D01*
X132692335Y-108022206D01*
X132692328Y-108022202D01*
X132557482Y-107971908D01*
X132557483Y-107971908D01*
X132497883Y-107965501D01*
X132497881Y-107965500D01*
X132497873Y-107965500D01*
X132497864Y-107965500D01*
X129892129Y-107965500D01*
X129892123Y-107965501D01*
X129832516Y-107971908D01*
X129697671Y-108022202D01*
X129697664Y-108022206D01*
X129582455Y-108108452D01*
X129582452Y-108108455D01*
X129496206Y-108223664D01*
X129496202Y-108223671D01*
X129445908Y-108358517D01*
X129439501Y-108418116D01*
X129439501Y-108418123D01*
X129439500Y-108418135D01*
X129439500Y-109513870D01*
X129439501Y-109513876D01*
X129445908Y-109573483D01*
X129496202Y-109708328D01*
X129496206Y-109708335D01*
X129582452Y-109823544D01*
X129582455Y-109823547D01*
X129697664Y-109909793D01*
X129697671Y-109909797D01*
X129832517Y-109960091D01*
X129832516Y-109960091D01*
X129839444Y-109960835D01*
X129892127Y-109966500D01*
X132497872Y-109966499D01*
X132557483Y-109960091D01*
X132692331Y-109909796D01*
X132807546Y-109823546D01*
X132834227Y-109787903D01*
X132850485Y-109766188D01*
X132906419Y-109724318D01*
X132949751Y-109716500D01*
X133432779Y-109716500D01*
X133499818Y-109736185D01*
X133533097Y-109767615D01*
X133589892Y-109845788D01*
X133740213Y-109996109D01*
X133912182Y-110121050D01*
X133920946Y-110125516D01*
X133971742Y-110173491D01*
X133988536Y-110241312D01*
X133965998Y-110307447D01*
X133920946Y-110346484D01*
X133912182Y-110350949D01*
X133740213Y-110475890D01*
X133589892Y-110626211D01*
X133533097Y-110704385D01*
X133477767Y-110747051D01*
X133432779Y-110755500D01*
X129639751Y-110755500D01*
X129572712Y-110735815D01*
X129540485Y-110705812D01*
X129497548Y-110648457D01*
X129497546Y-110648454D01*
X129497542Y-110648451D01*
X129382335Y-110562206D01*
X129382328Y-110562202D01*
X129247482Y-110511908D01*
X129247483Y-110511908D01*
X129187883Y-110505501D01*
X129187881Y-110505500D01*
X129187873Y-110505500D01*
X129187864Y-110505500D01*
X126582129Y-110505500D01*
X126582123Y-110505501D01*
X126522516Y-110511908D01*
X126387671Y-110562202D01*
X126387664Y-110562206D01*
X126272455Y-110648452D01*
X126272452Y-110648455D01*
X126186206Y-110763664D01*
X126186202Y-110763671D01*
X126135908Y-110898517D01*
X126129501Y-110958116D01*
X126129501Y-110958123D01*
X126129500Y-110958135D01*
X126129500Y-112053870D01*
X126129501Y-112053876D01*
X126135908Y-112113483D01*
X126186202Y-112248328D01*
X126186206Y-112248335D01*
X126272452Y-112363544D01*
X126272455Y-112363547D01*
X126387664Y-112449793D01*
X126387671Y-112449797D01*
X126522517Y-112500091D01*
X126522516Y-112500091D01*
X126529444Y-112500835D01*
X126582127Y-112506500D01*
X129187872Y-112506499D01*
X129247483Y-112500091D01*
X129382331Y-112449796D01*
X129497546Y-112363546D01*
X129524227Y-112327903D01*
X129540485Y-112306188D01*
X129596419Y-112264318D01*
X129639751Y-112256500D01*
X133432779Y-112256500D01*
X133499818Y-112276185D01*
X133533097Y-112307615D01*
X133589892Y-112385788D01*
X133740213Y-112536109D01*
X133912182Y-112661050D01*
X133920946Y-112665516D01*
X133971742Y-112713491D01*
X133988536Y-112781312D01*
X133965998Y-112847447D01*
X133920946Y-112886484D01*
X133912182Y-112890949D01*
X133740213Y-113015890D01*
X133589892Y-113166211D01*
X133533097Y-113244385D01*
X133477767Y-113287051D01*
X133432779Y-113295500D01*
X132949751Y-113295500D01*
X132882712Y-113275815D01*
X132850485Y-113245812D01*
X132807548Y-113188457D01*
X132807546Y-113188454D01*
X132807542Y-113188451D01*
X132692335Y-113102206D01*
X132692328Y-113102202D01*
X132557482Y-113051908D01*
X132557483Y-113051908D01*
X132497883Y-113045501D01*
X132497881Y-113045500D01*
X132497873Y-113045500D01*
X132497864Y-113045500D01*
X129892129Y-113045500D01*
X129892123Y-113045501D01*
X129832516Y-113051908D01*
X129697671Y-113102202D01*
X129697664Y-113102206D01*
X129582455Y-113188452D01*
X129582452Y-113188455D01*
X129496206Y-113303664D01*
X129496202Y-113303671D01*
X129445908Y-113438517D01*
X129439501Y-113498116D01*
X129439501Y-113498123D01*
X129439500Y-113498135D01*
X129439500Y-114593870D01*
X129439501Y-114593876D01*
X129445908Y-114653483D01*
X129496202Y-114788328D01*
X129496206Y-114788335D01*
X129582452Y-114903544D01*
X129582455Y-114903547D01*
X129697664Y-114989793D01*
X129697671Y-114989797D01*
X129832517Y-115040091D01*
X129832516Y-115040091D01*
X129839444Y-115040835D01*
X129892127Y-115046500D01*
X132497872Y-115046499D01*
X132557483Y-115040091D01*
X132692331Y-114989796D01*
X132807546Y-114903546D01*
X132834227Y-114867903D01*
X132850485Y-114846188D01*
X132906419Y-114804318D01*
X132949751Y-114796500D01*
X133432779Y-114796500D01*
X133499818Y-114816185D01*
X133533097Y-114847615D01*
X133589892Y-114925788D01*
X133740213Y-115076109D01*
X133912182Y-115201050D01*
X133920946Y-115205516D01*
X133971742Y-115253491D01*
X133988536Y-115321312D01*
X133965998Y-115387447D01*
X133920946Y-115426484D01*
X133912182Y-115430949D01*
X133740213Y-115555890D01*
X133589892Y-115706211D01*
X133533097Y-115784385D01*
X133477767Y-115827051D01*
X133432779Y-115835500D01*
X129639751Y-115835500D01*
X129572712Y-115815815D01*
X129540485Y-115785812D01*
X129497548Y-115728457D01*
X129497546Y-115728454D01*
X129497542Y-115728451D01*
X129382335Y-115642206D01*
X129382328Y-115642202D01*
X129247482Y-115591908D01*
X129247483Y-115591908D01*
X129187883Y-115585501D01*
X129187881Y-115585500D01*
X129187873Y-115585500D01*
X129187864Y-115585500D01*
X126582129Y-115585500D01*
X126582123Y-115585501D01*
X126522516Y-115591908D01*
X126387671Y-115642202D01*
X126387664Y-115642206D01*
X126272455Y-115728452D01*
X126272452Y-115728455D01*
X126186206Y-115843664D01*
X126186202Y-115843671D01*
X126135908Y-115978517D01*
X126129501Y-116038116D01*
X126129501Y-116038123D01*
X126129500Y-116038135D01*
X126129500Y-117133870D01*
X126129501Y-117133876D01*
X126135908Y-117193483D01*
X126186202Y-117328328D01*
X126186206Y-117328335D01*
X126272452Y-117443544D01*
X126272455Y-117443547D01*
X126387664Y-117529793D01*
X126387671Y-117529797D01*
X126522517Y-117580091D01*
X126522516Y-117580091D01*
X126529444Y-117580835D01*
X126582127Y-117586500D01*
X129187872Y-117586499D01*
X129247483Y-117580091D01*
X129382331Y-117529796D01*
X129497546Y-117443546D01*
X129524227Y-117407903D01*
X129540485Y-117386188D01*
X129596419Y-117344318D01*
X129639751Y-117336500D01*
X133432779Y-117336500D01*
X133499818Y-117356185D01*
X133533097Y-117387615D01*
X133589892Y-117465788D01*
X133740213Y-117616109D01*
X133912182Y-117741050D01*
X133920946Y-117745516D01*
X133971742Y-117793491D01*
X133988536Y-117861312D01*
X133965998Y-117927447D01*
X133920946Y-117966484D01*
X133912182Y-117970949D01*
X133740213Y-118095890D01*
X133589892Y-118246211D01*
X133533097Y-118324385D01*
X133477767Y-118367051D01*
X133432779Y-118375500D01*
X132949751Y-118375500D01*
X132882712Y-118355815D01*
X132850485Y-118325812D01*
X132807548Y-118268457D01*
X132807546Y-118268454D01*
X132807542Y-118268451D01*
X132692335Y-118182206D01*
X132692328Y-118182202D01*
X132557482Y-118131908D01*
X132557483Y-118131908D01*
X132497883Y-118125501D01*
X132497881Y-118125500D01*
X132497873Y-118125500D01*
X132497864Y-118125500D01*
X129892129Y-118125500D01*
X129892123Y-118125501D01*
X129832516Y-118131908D01*
X129697671Y-118182202D01*
X129697664Y-118182206D01*
X129582455Y-118268452D01*
X129582452Y-118268455D01*
X129496206Y-118383664D01*
X129496202Y-118383671D01*
X129445908Y-118518517D01*
X129439501Y-118578116D01*
X129439501Y-118578123D01*
X129439500Y-118578135D01*
X129439500Y-119673870D01*
X129439501Y-119673876D01*
X129445908Y-119733483D01*
X129496202Y-119868328D01*
X129496206Y-119868335D01*
X129582452Y-119983544D01*
X129582455Y-119983547D01*
X129697664Y-120069793D01*
X129697671Y-120069797D01*
X129832517Y-120120091D01*
X129832516Y-120120091D01*
X129839444Y-120120835D01*
X129892127Y-120126500D01*
X132497872Y-120126499D01*
X132557483Y-120120091D01*
X132692331Y-120069796D01*
X132807546Y-119983546D01*
X132834227Y-119947903D01*
X132850485Y-119926188D01*
X132906419Y-119884318D01*
X132949751Y-119876500D01*
X133432779Y-119876500D01*
X133499818Y-119896185D01*
X133533097Y-119927615D01*
X133589892Y-120005788D01*
X133740213Y-120156109D01*
X133912182Y-120281050D01*
X133920946Y-120285516D01*
X133971742Y-120333491D01*
X133988536Y-120401312D01*
X133965998Y-120467447D01*
X133920946Y-120506484D01*
X133912182Y-120510949D01*
X133740213Y-120635890D01*
X133589892Y-120786211D01*
X133533097Y-120864385D01*
X133477767Y-120907051D01*
X133432779Y-120915500D01*
X129639751Y-120915500D01*
X129572712Y-120895815D01*
X129540485Y-120865812D01*
X129497548Y-120808457D01*
X129497546Y-120808454D01*
X129497542Y-120808451D01*
X129382335Y-120722206D01*
X129382328Y-120722202D01*
X129247482Y-120671908D01*
X129247483Y-120671908D01*
X129187883Y-120665501D01*
X129187881Y-120665500D01*
X129187873Y-120665500D01*
X129187864Y-120665500D01*
X126582129Y-120665500D01*
X126582123Y-120665501D01*
X126522516Y-120671908D01*
X126387671Y-120722202D01*
X126387664Y-120722206D01*
X126272455Y-120808452D01*
X126272452Y-120808455D01*
X126186206Y-120923664D01*
X126186202Y-120923671D01*
X126135908Y-121058517D01*
X126129501Y-121118116D01*
X126129501Y-121118123D01*
X126129500Y-121118135D01*
X126129500Y-122213870D01*
X126129501Y-122213876D01*
X126135908Y-122273483D01*
X126186202Y-122408328D01*
X126186206Y-122408335D01*
X126272452Y-122523544D01*
X126272455Y-122523547D01*
X126387664Y-122609793D01*
X126387671Y-122609797D01*
X126522517Y-122660091D01*
X126522516Y-122660091D01*
X126529444Y-122660835D01*
X126582127Y-122666500D01*
X129187872Y-122666499D01*
X129247483Y-122660091D01*
X129382331Y-122609796D01*
X129497546Y-122523546D01*
X129524227Y-122487903D01*
X129540485Y-122466188D01*
X129596419Y-122424318D01*
X129639751Y-122416500D01*
X133432779Y-122416500D01*
X133499818Y-122436185D01*
X133533097Y-122467615D01*
X133589892Y-122545788D01*
X133740213Y-122696109D01*
X133912182Y-122821050D01*
X133920946Y-122825516D01*
X133971742Y-122873491D01*
X133988536Y-122941312D01*
X133965998Y-123007447D01*
X133920946Y-123046484D01*
X133912182Y-123050949D01*
X133740213Y-123175890D01*
X133589892Y-123326211D01*
X133533097Y-123404385D01*
X133477767Y-123447051D01*
X133432779Y-123455500D01*
X132949751Y-123455500D01*
X132882712Y-123435815D01*
X132850485Y-123405812D01*
X132807548Y-123348457D01*
X132807546Y-123348454D01*
X132807542Y-123348451D01*
X132692335Y-123262206D01*
X132692328Y-123262202D01*
X132557482Y-123211908D01*
X132557483Y-123211908D01*
X132497883Y-123205501D01*
X132497881Y-123205500D01*
X132497873Y-123205500D01*
X132497864Y-123205500D01*
X129892129Y-123205500D01*
X129892123Y-123205501D01*
X129832516Y-123211908D01*
X129697671Y-123262202D01*
X129697664Y-123262206D01*
X129582455Y-123348452D01*
X129582452Y-123348455D01*
X129496206Y-123463664D01*
X129496202Y-123463671D01*
X129445908Y-123598517D01*
X129439501Y-123658116D01*
X129439501Y-123658123D01*
X129439500Y-123658135D01*
X129439500Y-124753870D01*
X129439501Y-124753876D01*
X129445908Y-124813483D01*
X129496202Y-124948328D01*
X129496206Y-124948335D01*
X129582452Y-125063544D01*
X129582455Y-125063547D01*
X129697664Y-125149793D01*
X129697671Y-125149797D01*
X129832517Y-125200091D01*
X129832516Y-125200091D01*
X129839444Y-125200835D01*
X129892127Y-125206500D01*
X132497872Y-125206499D01*
X132557483Y-125200091D01*
X132692331Y-125149796D01*
X132807546Y-125063546D01*
X132834227Y-125027903D01*
X132850485Y-125006188D01*
X132906419Y-124964318D01*
X132949751Y-124956500D01*
X133432779Y-124956500D01*
X133499818Y-124976185D01*
X133533097Y-125007615D01*
X133589892Y-125085788D01*
X133740213Y-125236109D01*
X133912182Y-125361050D01*
X133920946Y-125365516D01*
X133971742Y-125413491D01*
X133988536Y-125481312D01*
X133965998Y-125547447D01*
X133920946Y-125586484D01*
X133912182Y-125590949D01*
X133740213Y-125715890D01*
X133589892Y-125866211D01*
X133533097Y-125944385D01*
X133477767Y-125987051D01*
X133432779Y-125995500D01*
X129639751Y-125995500D01*
X129572712Y-125975815D01*
X129540485Y-125945812D01*
X129497548Y-125888457D01*
X129497546Y-125888454D01*
X129497542Y-125888451D01*
X129382335Y-125802206D01*
X129382328Y-125802202D01*
X129247482Y-125751908D01*
X129247483Y-125751908D01*
X129187883Y-125745501D01*
X129187881Y-125745500D01*
X129187873Y-125745500D01*
X129187864Y-125745500D01*
X126582129Y-125745500D01*
X126582123Y-125745501D01*
X126522516Y-125751908D01*
X126387671Y-125802202D01*
X126387664Y-125802206D01*
X126272455Y-125888452D01*
X126272452Y-125888455D01*
X126186206Y-126003664D01*
X126186202Y-126003671D01*
X126135908Y-126138517D01*
X126129501Y-126198116D01*
X126129501Y-126198123D01*
X126129500Y-126198135D01*
X126129500Y-127293870D01*
X126129501Y-127293876D01*
X126135908Y-127353483D01*
X126186202Y-127488328D01*
X126186206Y-127488335D01*
X126272452Y-127603544D01*
X126272455Y-127603547D01*
X126387664Y-127689793D01*
X126387671Y-127689797D01*
X126522517Y-127740091D01*
X126522516Y-127740091D01*
X126529444Y-127740835D01*
X126582127Y-127746500D01*
X129187872Y-127746499D01*
X129247483Y-127740091D01*
X129382331Y-127689796D01*
X129497546Y-127603546D01*
X129524227Y-127567903D01*
X129540485Y-127546188D01*
X129596419Y-127504318D01*
X129639751Y-127496500D01*
X133432779Y-127496500D01*
X133499818Y-127516185D01*
X133533097Y-127547615D01*
X133589892Y-127625788D01*
X133740213Y-127776109D01*
X133912179Y-127901048D01*
X133912181Y-127901049D01*
X133912184Y-127901051D01*
X134101588Y-127997557D01*
X134303757Y-128063246D01*
X134513713Y-128096500D01*
X134513714Y-128096500D01*
X134726286Y-128096500D01*
X134726287Y-128096500D01*
X134936243Y-128063246D01*
X135138412Y-127997557D01*
X135209205Y-127961485D01*
X135277874Y-127948590D01*
X135342614Y-127974866D01*
X135382872Y-128031972D01*
X135389500Y-128071971D01*
X135389500Y-129869730D01*
X135369815Y-129936769D01*
X135317011Y-129982524D01*
X135265500Y-129993730D01*
X111114500Y-129993730D01*
X111047461Y-129974045D01*
X111001706Y-129921241D01*
X110990500Y-129869730D01*
X110990500Y-128071971D01*
X111010185Y-128004932D01*
X111062989Y-127959177D01*
X111132147Y-127949233D01*
X111170793Y-127961485D01*
X111241588Y-127997557D01*
X111443757Y-128063246D01*
X111653713Y-128096500D01*
X111653714Y-128096500D01*
X111866286Y-128096500D01*
X111866287Y-128096500D01*
X112076243Y-128063246D01*
X112278412Y-127997557D01*
X112467816Y-127901051D01*
X112489789Y-127885086D01*
X112639786Y-127776109D01*
X112639788Y-127776106D01*
X112639792Y-127776104D01*
X112790104Y-127625792D01*
X112806266Y-127603547D01*
X112846903Y-127547615D01*
X112902233Y-127504949D01*
X112947221Y-127496500D01*
X116740249Y-127496500D01*
X116807288Y-127516185D01*
X116839515Y-127546188D01*
X116882451Y-127603542D01*
X116882454Y-127603546D01*
X116882457Y-127603548D01*
X116997664Y-127689793D01*
X116997671Y-127689797D01*
X117132517Y-127740091D01*
X117132516Y-127740091D01*
X117139444Y-127740835D01*
X117192127Y-127746500D01*
X119797872Y-127746499D01*
X119857483Y-127740091D01*
X119992331Y-127689796D01*
X120107546Y-127603546D01*
X120193796Y-127488331D01*
X120244091Y-127353483D01*
X120250500Y-127293873D01*
X120250499Y-126198128D01*
X120244091Y-126138517D01*
X120193796Y-126003669D01*
X120193795Y-126003668D01*
X120193793Y-126003664D01*
X120107547Y-125888455D01*
X120107544Y-125888452D01*
X119992335Y-125802206D01*
X119992328Y-125802202D01*
X119857482Y-125751908D01*
X119857483Y-125751908D01*
X119797883Y-125745501D01*
X119797881Y-125745500D01*
X119797873Y-125745500D01*
X119797864Y-125745500D01*
X117192129Y-125745500D01*
X117192123Y-125745501D01*
X117132516Y-125751908D01*
X116997671Y-125802202D01*
X116997664Y-125802206D01*
X116882457Y-125888451D01*
X116882451Y-125888457D01*
X116839515Y-125945812D01*
X116783581Y-125987682D01*
X116740249Y-125995500D01*
X112947221Y-125995500D01*
X112880182Y-125975815D01*
X112846903Y-125944385D01*
X112790107Y-125866211D01*
X112639786Y-125715890D01*
X112467820Y-125590951D01*
X112467115Y-125590591D01*
X112459054Y-125586485D01*
X112408259Y-125538512D01*
X112391463Y-125470692D01*
X112413999Y-125404556D01*
X112459054Y-125365515D01*
X112467816Y-125361051D01*
X112489789Y-125345086D01*
X112639786Y-125236109D01*
X112639788Y-125236106D01*
X112639792Y-125236104D01*
X112790104Y-125085792D01*
X112806266Y-125063547D01*
X112846903Y-125007615D01*
X112902233Y-124964949D01*
X112947221Y-124956500D01*
X113430249Y-124956500D01*
X113497288Y-124976185D01*
X113529515Y-125006188D01*
X113572451Y-125063542D01*
X113572454Y-125063546D01*
X113572457Y-125063548D01*
X113687664Y-125149793D01*
X113687671Y-125149797D01*
X113822517Y-125200091D01*
X113822516Y-125200091D01*
X113829444Y-125200835D01*
X113882127Y-125206500D01*
X116487872Y-125206499D01*
X116547483Y-125200091D01*
X116682331Y-125149796D01*
X116797546Y-125063546D01*
X116883796Y-124948331D01*
X116934091Y-124813483D01*
X116940500Y-124753873D01*
X116940499Y-123658128D01*
X116934091Y-123598517D01*
X116883796Y-123463669D01*
X116883795Y-123463668D01*
X116883793Y-123463664D01*
X116797547Y-123348455D01*
X116797544Y-123348452D01*
X116682335Y-123262206D01*
X116682328Y-123262202D01*
X116547482Y-123211908D01*
X116547483Y-123211908D01*
X116487883Y-123205501D01*
X116487881Y-123205500D01*
X116487873Y-123205500D01*
X116487864Y-123205500D01*
X113882129Y-123205500D01*
X113882123Y-123205501D01*
X113822516Y-123211908D01*
X113687671Y-123262202D01*
X113687664Y-123262206D01*
X113572457Y-123348451D01*
X113572451Y-123348457D01*
X113529515Y-123405812D01*
X113473581Y-123447682D01*
X113430249Y-123455500D01*
X112947221Y-123455500D01*
X112880182Y-123435815D01*
X112846903Y-123404385D01*
X112790107Y-123326211D01*
X112639786Y-123175890D01*
X112467820Y-123050951D01*
X112467115Y-123050591D01*
X112459054Y-123046485D01*
X112408259Y-122998512D01*
X112391463Y-122930692D01*
X112413999Y-122864556D01*
X112459054Y-122825515D01*
X112467816Y-122821051D01*
X112489789Y-122805086D01*
X112639786Y-122696109D01*
X112639788Y-122696106D01*
X112639792Y-122696104D01*
X112790104Y-122545792D01*
X112806266Y-122523547D01*
X112846903Y-122467615D01*
X112902233Y-122424949D01*
X112947221Y-122416500D01*
X116740249Y-122416500D01*
X116807288Y-122436185D01*
X116839515Y-122466188D01*
X116882451Y-122523542D01*
X116882454Y-122523546D01*
X116882457Y-122523548D01*
X116997664Y-122609793D01*
X116997671Y-122609797D01*
X117132517Y-122660091D01*
X117132516Y-122660091D01*
X117139444Y-122660835D01*
X117192127Y-122666500D01*
X119797872Y-122666499D01*
X119857483Y-122660091D01*
X119992331Y-122609796D01*
X120107546Y-122523546D01*
X120193796Y-122408331D01*
X120244091Y-122273483D01*
X120250500Y-122213873D01*
X120250499Y-121118128D01*
X120244091Y-121058517D01*
X120193796Y-120923669D01*
X120193795Y-120923668D01*
X120193793Y-120923664D01*
X120107547Y-120808455D01*
X120107544Y-120808452D01*
X119992335Y-120722206D01*
X119992328Y-120722202D01*
X119857482Y-120671908D01*
X119857483Y-120671908D01*
X119797883Y-120665501D01*
X119797881Y-120665500D01*
X119797873Y-120665500D01*
X119797864Y-120665500D01*
X117192129Y-120665500D01*
X117192123Y-120665501D01*
X117132516Y-120671908D01*
X116997671Y-120722202D01*
X116997664Y-120722206D01*
X116882457Y-120808451D01*
X116882451Y-120808457D01*
X116839515Y-120865812D01*
X116783581Y-120907682D01*
X116740249Y-120915500D01*
X112947221Y-120915500D01*
X112880182Y-120895815D01*
X112846903Y-120864385D01*
X112790107Y-120786211D01*
X112639786Y-120635890D01*
X112467820Y-120510951D01*
X112467115Y-120510591D01*
X112459054Y-120506485D01*
X112408259Y-120458512D01*
X112391463Y-120390692D01*
X112413999Y-120324556D01*
X112459054Y-120285515D01*
X112467816Y-120281051D01*
X112489789Y-120265086D01*
X112639786Y-120156109D01*
X112639788Y-120156106D01*
X112639792Y-120156104D01*
X112790104Y-120005792D01*
X112806266Y-119983547D01*
X112846903Y-119927615D01*
X112902233Y-119884949D01*
X112947221Y-119876500D01*
X113430249Y-119876500D01*
X113497288Y-119896185D01*
X113529515Y-119926188D01*
X113572451Y-119983542D01*
X113572454Y-119983546D01*
X113572457Y-119983548D01*
X113687664Y-120069793D01*
X113687671Y-120069797D01*
X113822517Y-120120091D01*
X113822516Y-120120091D01*
X113829444Y-120120835D01*
X113882127Y-120126500D01*
X116487872Y-120126499D01*
X116547483Y-120120091D01*
X116682331Y-120069796D01*
X116797546Y-119983546D01*
X116883796Y-119868331D01*
X116934091Y-119733483D01*
X116940500Y-119673873D01*
X116940499Y-118578128D01*
X116934091Y-118518517D01*
X116883796Y-118383669D01*
X116883795Y-118383668D01*
X116883793Y-118383664D01*
X116797547Y-118268455D01*
X116797544Y-118268452D01*
X116682335Y-118182206D01*
X116682328Y-118182202D01*
X116547482Y-118131908D01*
X116547483Y-118131908D01*
X116487883Y-118125501D01*
X116487881Y-118125500D01*
X116487873Y-118125500D01*
X116487864Y-118125500D01*
X113882129Y-118125500D01*
X113882123Y-118125501D01*
X113822516Y-118131908D01*
X113687671Y-118182202D01*
X113687664Y-118182206D01*
X113572457Y-118268451D01*
X113572451Y-118268457D01*
X113529515Y-118325812D01*
X113473581Y-118367682D01*
X113430249Y-118375500D01*
X112947221Y-118375500D01*
X112880182Y-118355815D01*
X112846903Y-118324385D01*
X112790107Y-118246211D01*
X112639786Y-118095890D01*
X112467820Y-117970951D01*
X112467115Y-117970591D01*
X112459054Y-117966485D01*
X112408259Y-117918512D01*
X112391463Y-117850692D01*
X112413999Y-117784556D01*
X112459054Y-117745515D01*
X112467816Y-117741051D01*
X112489789Y-117725086D01*
X112639786Y-117616109D01*
X112639788Y-117616106D01*
X112639792Y-117616104D01*
X112790104Y-117465792D01*
X112806266Y-117443547D01*
X112846903Y-117387615D01*
X112902233Y-117344949D01*
X112947221Y-117336500D01*
X116740249Y-117336500D01*
X116807288Y-117356185D01*
X116839515Y-117386188D01*
X116882451Y-117443542D01*
X116882454Y-117443546D01*
X116882457Y-117443548D01*
X116997664Y-117529793D01*
X116997671Y-117529797D01*
X117132517Y-117580091D01*
X117132516Y-117580091D01*
X117139444Y-117580835D01*
X117192127Y-117586500D01*
X119797872Y-117586499D01*
X119857483Y-117580091D01*
X119992331Y-117529796D01*
X120107546Y-117443546D01*
X120193796Y-117328331D01*
X120244091Y-117193483D01*
X120250500Y-117133873D01*
X120250499Y-116038128D01*
X120244091Y-115978517D01*
X120193796Y-115843669D01*
X120193795Y-115843668D01*
X120193793Y-115843664D01*
X120107547Y-115728455D01*
X120107544Y-115728452D01*
X119992335Y-115642206D01*
X119992328Y-115642202D01*
X119857482Y-115591908D01*
X119857483Y-115591908D01*
X119797883Y-115585501D01*
X119797881Y-115585500D01*
X119797873Y-115585500D01*
X119797864Y-115585500D01*
X117192129Y-115585500D01*
X117192123Y-115585501D01*
X117132516Y-115591908D01*
X116997671Y-115642202D01*
X116997664Y-115642206D01*
X116882457Y-115728451D01*
X116882451Y-115728457D01*
X116839515Y-115785812D01*
X116783581Y-115827682D01*
X116740249Y-115835500D01*
X112947221Y-115835500D01*
X112880182Y-115815815D01*
X112846903Y-115784385D01*
X112790107Y-115706211D01*
X112639786Y-115555890D01*
X112467820Y-115430951D01*
X112467115Y-115430591D01*
X112459054Y-115426485D01*
X112408259Y-115378512D01*
X112391463Y-115310692D01*
X112413999Y-115244556D01*
X112459054Y-115205515D01*
X112467816Y-115201051D01*
X112489789Y-115185086D01*
X112639786Y-115076109D01*
X112639788Y-115076106D01*
X112639792Y-115076104D01*
X112790104Y-114925792D01*
X112806266Y-114903547D01*
X112846903Y-114847615D01*
X112902233Y-114804949D01*
X112947221Y-114796500D01*
X113430249Y-114796500D01*
X113497288Y-114816185D01*
X113529515Y-114846188D01*
X113572451Y-114903542D01*
X113572454Y-114903546D01*
X113572457Y-114903548D01*
X113687664Y-114989793D01*
X113687671Y-114989797D01*
X113822517Y-115040091D01*
X113822516Y-115040091D01*
X113829444Y-115040835D01*
X113882127Y-115046500D01*
X116487872Y-115046499D01*
X116547483Y-115040091D01*
X116682331Y-114989796D01*
X116797546Y-114903546D01*
X116883796Y-114788331D01*
X116934091Y-114653483D01*
X116940500Y-114593873D01*
X116940499Y-113498128D01*
X116934091Y-113438517D01*
X116883796Y-113303669D01*
X116883795Y-113303668D01*
X116883793Y-113303664D01*
X116797547Y-113188455D01*
X116797544Y-113188452D01*
X116682335Y-113102206D01*
X116682328Y-113102202D01*
X116547482Y-113051908D01*
X116547483Y-113051908D01*
X116487883Y-113045501D01*
X116487881Y-113045500D01*
X116487873Y-113045500D01*
X116487864Y-113045500D01*
X113882129Y-113045500D01*
X113882123Y-113045501D01*
X113822516Y-113051908D01*
X113687671Y-113102202D01*
X113687664Y-113102206D01*
X113572457Y-113188451D01*
X113572451Y-113188457D01*
X113529515Y-113245812D01*
X113473581Y-113287682D01*
X113430249Y-113295500D01*
X112947221Y-113295500D01*
X112880182Y-113275815D01*
X112846903Y-113244385D01*
X112790107Y-113166211D01*
X112639786Y-113015890D01*
X112467820Y-112890951D01*
X112467115Y-112890591D01*
X112459054Y-112886485D01*
X112408259Y-112838512D01*
X112391463Y-112770692D01*
X112413999Y-112704556D01*
X112459054Y-112665515D01*
X112467816Y-112661051D01*
X112489789Y-112645086D01*
X112639786Y-112536109D01*
X112639788Y-112536106D01*
X112639792Y-112536104D01*
X112790104Y-112385792D01*
X112806266Y-112363547D01*
X112846903Y-112307615D01*
X112902233Y-112264949D01*
X112947221Y-112256500D01*
X116740249Y-112256500D01*
X116807288Y-112276185D01*
X116839515Y-112306188D01*
X116882451Y-112363542D01*
X116882454Y-112363546D01*
X116882457Y-112363548D01*
X116997664Y-112449793D01*
X116997671Y-112449797D01*
X117132517Y-112500091D01*
X117132516Y-112500091D01*
X117139444Y-112500835D01*
X117192127Y-112506500D01*
X119797872Y-112506499D01*
X119857483Y-112500091D01*
X119992331Y-112449796D01*
X120107546Y-112363546D01*
X120193796Y-112248331D01*
X120244091Y-112113483D01*
X120250500Y-112053873D01*
X120250499Y-110958128D01*
X120244091Y-110898517D01*
X120193796Y-110763669D01*
X120193795Y-110763668D01*
X120193793Y-110763664D01*
X120107547Y-110648455D01*
X120107544Y-110648452D01*
X119992335Y-110562206D01*
X119992328Y-110562202D01*
X119857482Y-110511908D01*
X119857483Y-110511908D01*
X119797883Y-110505501D01*
X119797881Y-110505500D01*
X119797873Y-110505500D01*
X119797864Y-110505500D01*
X117192129Y-110505500D01*
X117192123Y-110505501D01*
X117132516Y-110511908D01*
X116997671Y-110562202D01*
X116997664Y-110562206D01*
X116882457Y-110648451D01*
X116882451Y-110648457D01*
X116839515Y-110705812D01*
X116783581Y-110747682D01*
X116740249Y-110755500D01*
X112947221Y-110755500D01*
X112880182Y-110735815D01*
X112846903Y-110704385D01*
X112790107Y-110626211D01*
X112639786Y-110475890D01*
X112467820Y-110350951D01*
X112467115Y-110350591D01*
X112459054Y-110346485D01*
X112408259Y-110298512D01*
X112391463Y-110230692D01*
X112413999Y-110164556D01*
X112459054Y-110125515D01*
X112467816Y-110121051D01*
X112489789Y-110105086D01*
X112639786Y-109996109D01*
X112639788Y-109996106D01*
X112639792Y-109996104D01*
X112790104Y-109845792D01*
X112806266Y-109823547D01*
X112846903Y-109767615D01*
X112902233Y-109724949D01*
X112947221Y-109716500D01*
X113430249Y-109716500D01*
X113497288Y-109736185D01*
X113529515Y-109766188D01*
X113572451Y-109823542D01*
X113572454Y-109823546D01*
X113572457Y-109823548D01*
X113687664Y-109909793D01*
X113687671Y-109909797D01*
X113822517Y-109960091D01*
X113822516Y-109960091D01*
X113829444Y-109960835D01*
X113882127Y-109966500D01*
X116487872Y-109966499D01*
X116547483Y-109960091D01*
X116682331Y-109909796D01*
X116797546Y-109823546D01*
X116883796Y-109708331D01*
X116934091Y-109573483D01*
X116940500Y-109513873D01*
X116940499Y-108418128D01*
X116934091Y-108358517D01*
X116883796Y-108223669D01*
X116883795Y-108223668D01*
X116883793Y-108223664D01*
X116797547Y-108108455D01*
X116797544Y-108108452D01*
X116682335Y-108022206D01*
X116682328Y-108022202D01*
X116547482Y-107971908D01*
X116547483Y-107971908D01*
X116487883Y-107965501D01*
X116487881Y-107965500D01*
X116487873Y-107965500D01*
X116487864Y-107965500D01*
X113882129Y-107965500D01*
X113882123Y-107965501D01*
X113822516Y-107971908D01*
X113687671Y-108022202D01*
X113687664Y-108022206D01*
X113572457Y-108108451D01*
X113572451Y-108108457D01*
X113529515Y-108165812D01*
X113473581Y-108207682D01*
X113430249Y-108215500D01*
X112947221Y-108215500D01*
X112880182Y-108195815D01*
X112846903Y-108164385D01*
X112790107Y-108086211D01*
X112639786Y-107935890D01*
X112467820Y-107810951D01*
X112467115Y-107810591D01*
X112459054Y-107806485D01*
X112408259Y-107758512D01*
X112391463Y-107690692D01*
X112413999Y-107624556D01*
X112459054Y-107585515D01*
X112467816Y-107581051D01*
X112489789Y-107565086D01*
X112639786Y-107456109D01*
X112639788Y-107456106D01*
X112639792Y-107456104D01*
X112790104Y-107305792D01*
X112806266Y-107283547D01*
X112846903Y-107227615D01*
X112902233Y-107184949D01*
X112947221Y-107176500D01*
X116740249Y-107176500D01*
X116807288Y-107196185D01*
X116839515Y-107226188D01*
X116882451Y-107283542D01*
X116882454Y-107283546D01*
X116882457Y-107283548D01*
X116997664Y-107369793D01*
X116997671Y-107369797D01*
X117132517Y-107420091D01*
X117132516Y-107420091D01*
X117139444Y-107420835D01*
X117192127Y-107426500D01*
X119797872Y-107426499D01*
X119857483Y-107420091D01*
X119992331Y-107369796D01*
X120107546Y-107283546D01*
X120193796Y-107168331D01*
X120244091Y-107033483D01*
X120250500Y-106973873D01*
X120250499Y-105878128D01*
X120244091Y-105818517D01*
X120193796Y-105683669D01*
X120193795Y-105683668D01*
X120193793Y-105683664D01*
X120107547Y-105568455D01*
X120107544Y-105568452D01*
X119992335Y-105482206D01*
X119992328Y-105482202D01*
X119857482Y-105431908D01*
X119857483Y-105431908D01*
X119797883Y-105425501D01*
X119797881Y-105425500D01*
X119797873Y-105425500D01*
X119797864Y-105425500D01*
X117192129Y-105425500D01*
X117192123Y-105425501D01*
X117132516Y-105431908D01*
X116997671Y-105482202D01*
X116997664Y-105482206D01*
X116882457Y-105568451D01*
X116882451Y-105568457D01*
X116839515Y-105625812D01*
X116783581Y-105667682D01*
X116740249Y-105675500D01*
X112947221Y-105675500D01*
X112880182Y-105655815D01*
X112846903Y-105624385D01*
X112790107Y-105546211D01*
X112639786Y-105395890D01*
X112467820Y-105270951D01*
X112467115Y-105270591D01*
X112459054Y-105266485D01*
X112408259Y-105218512D01*
X112391463Y-105150692D01*
X112413999Y-105084556D01*
X112459054Y-105045515D01*
X112467816Y-105041051D01*
X112489789Y-105025086D01*
X112639786Y-104916109D01*
X112639788Y-104916106D01*
X112639792Y-104916104D01*
X112790104Y-104765792D01*
X112806266Y-104743547D01*
X112846903Y-104687615D01*
X112902233Y-104644949D01*
X112947221Y-104636500D01*
X113430249Y-104636500D01*
X113497288Y-104656185D01*
X113529515Y-104686188D01*
X113572451Y-104743542D01*
X113572454Y-104743546D01*
X113572457Y-104743548D01*
X113687664Y-104829793D01*
X113687671Y-104829797D01*
X113822517Y-104880091D01*
X113822516Y-104880091D01*
X113829444Y-104880835D01*
X113882127Y-104886500D01*
X116487872Y-104886499D01*
X116547483Y-104880091D01*
X116682331Y-104829796D01*
X116797546Y-104743546D01*
X116883796Y-104628331D01*
X116934091Y-104493483D01*
X116940500Y-104433873D01*
X116940499Y-103338128D01*
X116934091Y-103278517D01*
X116883796Y-103143669D01*
X116883795Y-103143668D01*
X116883793Y-103143664D01*
X116797547Y-103028455D01*
X116797544Y-103028452D01*
X116682335Y-102942206D01*
X116682328Y-102942202D01*
X116547482Y-102891908D01*
X116547483Y-102891908D01*
X116487883Y-102885501D01*
X116487881Y-102885500D01*
X116487873Y-102885500D01*
X116487864Y-102885500D01*
X113882129Y-102885500D01*
X113882123Y-102885501D01*
X113822516Y-102891908D01*
X113687671Y-102942202D01*
X113687664Y-102942206D01*
X113572457Y-103028451D01*
X113572451Y-103028457D01*
X113529515Y-103085812D01*
X113473581Y-103127682D01*
X113430249Y-103135500D01*
X112947221Y-103135500D01*
X112880182Y-103115815D01*
X112846903Y-103084385D01*
X112790107Y-103006211D01*
X112639786Y-102855890D01*
X112467820Y-102730951D01*
X112467115Y-102730591D01*
X112459054Y-102726485D01*
X112408259Y-102678512D01*
X112391463Y-102610692D01*
X112413999Y-102544556D01*
X112459054Y-102505515D01*
X112467816Y-102501051D01*
X112489789Y-102485086D01*
X112639786Y-102376109D01*
X112639788Y-102376106D01*
X112639792Y-102376104D01*
X112790104Y-102225792D01*
X112806266Y-102203547D01*
X112846903Y-102147615D01*
X112902233Y-102104949D01*
X112947221Y-102096500D01*
X116740249Y-102096500D01*
X116807288Y-102116185D01*
X116839515Y-102146188D01*
X116882451Y-102203542D01*
X116882454Y-102203546D01*
X116882457Y-102203548D01*
X116997664Y-102289793D01*
X116997671Y-102289797D01*
X117132517Y-102340091D01*
X117132516Y-102340091D01*
X117139444Y-102340835D01*
X117192127Y-102346500D01*
X119797872Y-102346499D01*
X119857483Y-102340091D01*
X119992331Y-102289796D01*
X120107546Y-102203546D01*
X120193796Y-102088331D01*
X120244091Y-101953483D01*
X120250500Y-101893873D01*
X120250499Y-100798128D01*
X120244091Y-100738517D01*
X120193796Y-100603669D01*
X120193795Y-100603668D01*
X120193793Y-100603664D01*
X120107547Y-100488455D01*
X120107544Y-100488452D01*
X119992335Y-100402206D01*
X119992328Y-100402202D01*
X119857482Y-100351908D01*
X119857483Y-100351908D01*
X119797883Y-100345501D01*
X119797881Y-100345500D01*
X119797873Y-100345500D01*
X119797864Y-100345500D01*
X117192129Y-100345500D01*
X117192123Y-100345501D01*
X117132516Y-100351908D01*
X116997671Y-100402202D01*
X116997664Y-100402206D01*
X116882457Y-100488451D01*
X116882451Y-100488457D01*
X116839515Y-100545812D01*
X116783581Y-100587682D01*
X116740249Y-100595500D01*
X112947221Y-100595500D01*
X112880182Y-100575815D01*
X112846903Y-100544385D01*
X112790107Y-100466211D01*
X112676569Y-100352673D01*
X112643084Y-100291350D01*
X112648068Y-100221658D01*
X112689940Y-100165725D01*
X112720915Y-100148810D01*
X112852331Y-100099796D01*
X112967546Y-100013546D01*
X113053796Y-99898331D01*
X113104091Y-99763483D01*
X113110500Y-99703873D01*
X113110500Y-99680500D01*
X113113050Y-99671814D01*
X113111762Y-99662853D01*
X113122740Y-99638812D01*
X113130185Y-99613461D01*
X113137025Y-99607533D01*
X113140787Y-99599297D01*
X113163021Y-99585007D01*
X113182989Y-99567706D01*
X113193503Y-99565418D01*
X113199565Y-99561523D01*
X113234500Y-99556500D01*
X113430249Y-99556500D01*
X113497288Y-99576185D01*
X113529515Y-99606188D01*
X113534960Y-99613461D01*
X113572454Y-99663546D01*
X113572457Y-99663548D01*
X113687664Y-99749793D01*
X113687671Y-99749797D01*
X113822517Y-99800091D01*
X113822516Y-99800091D01*
X113829444Y-99800835D01*
X113882127Y-99806500D01*
X116487872Y-99806499D01*
X116547483Y-99800091D01*
X116682331Y-99749796D01*
X116797546Y-99663546D01*
X116883796Y-99548331D01*
X116934091Y-99413483D01*
X116940500Y-99353873D01*
X116940499Y-98258128D01*
X116934091Y-98198517D01*
X116883796Y-98063669D01*
X116883795Y-98063668D01*
X116883793Y-98063664D01*
X116797547Y-97948455D01*
X116797544Y-97948452D01*
X116682335Y-97862206D01*
X116682328Y-97862202D01*
X116547482Y-97811908D01*
X116547483Y-97811908D01*
X116487883Y-97805501D01*
X116487881Y-97805500D01*
X116487873Y-97805500D01*
X116487864Y-97805500D01*
X113882129Y-97805500D01*
X113882123Y-97805501D01*
X113822516Y-97811908D01*
X113687671Y-97862202D01*
X113687664Y-97862206D01*
X113572457Y-97948451D01*
X113572451Y-97948457D01*
X113529515Y-98005812D01*
X113525859Y-98008548D01*
X113523962Y-98012703D01*
X113498144Y-98029294D01*
X113473581Y-98047682D01*
X113467953Y-98048697D01*
X113465184Y-98050477D01*
X113430249Y-98055500D01*
X113234499Y-98055500D01*
X113167460Y-98035815D01*
X113121705Y-97983011D01*
X113110499Y-97931500D01*
X113110499Y-97908129D01*
X113110498Y-97908123D01*
X113104091Y-97848516D01*
X113053797Y-97713671D01*
X113053793Y-97713664D01*
X112967547Y-97598455D01*
X112967544Y-97598452D01*
X112852335Y-97512206D01*
X112852328Y-97512202D01*
X112717482Y-97461908D01*
X112717483Y-97461908D01*
X112657883Y-97455501D01*
X112657881Y-97455500D01*
X112657873Y-97455500D01*
X112657865Y-97455500D01*
X111114500Y-97455500D01*
X111047461Y-97435815D01*
X111001706Y-97383011D01*
X110990500Y-97331500D01*
X110990500Y-95558730D01*
X111010185Y-95491691D01*
X111062989Y-95445936D01*
X111114500Y-95434730D01*
X135265500Y-95434730D01*
X135332539Y-95454415D01*
G37*
G04 #@! TD.AperFunction*
M02*
