G04 #@! TF.GenerationSoftware,KiCad,Pcbnew,9.0.6*
G04 #@! TF.CreationDate,2026-01-01T12:21:55-06:00*
G04 #@! TF.ProjectId,FFC-40,4646432d-3430-42e6-9b69-6361645f7063,rev?*
G04 #@! TF.SameCoordinates,Original*
G04 #@! TF.FileFunction,Paste,Top*
G04 #@! TF.FilePolarity,Positive*
%FSLAX46Y46*%
G04 Gerber Fmt 4.6, Leading zero omitted, Abs format (unit mm)*
G04 Created by KiCad (PCBNEW 9.0.6) date 2026-01-01 12:21:55*
%MOMM*%
%LPD*%
G01*
G04 APERTURE LIST*
G04 Aperture macros list*
%AMRoundRect*
0 Rectangle with rounded corners*
0 $1 Rounding radius*
0 $2 $3 $4 $5 $6 $7 $8 $9 X,Y pos of 4 corners*
0 Add a 4 corners polygon primitive as box body*
4,1,4,$2,$3,$4,$5,$6,$7,$8,$9,$2,$3,0*
0 Add four circle primitives for the rounded corners*
1,1,$1+$1,$2,$3*
1,1,$1+$1,$4,$5*
1,1,$1+$1,$6,$7*
1,1,$1+$1,$8,$9*
0 Add four rect primitives between the rounded corners*
20,1,$1+$1,$2,$3,$4,$5,0*
20,1,$1+$1,$4,$5,$6,$7,0*
20,1,$1+$1,$6,$7,$8,$9,0*
20,1,$1+$1,$8,$9,$2,$3,0*%
%AMFreePoly0*
4,1,7,1.050000,-0.975000,-0.250000,-0.975000,-0.250000,-0.625000,-1.050000,-0.625000,-1.050000,0.975000,1.050000,0.975000,1.050000,-0.975000,1.050000,-0.975000,$1*%
%AMFreePoly1*
4,1,7,1.050000,-0.625000,0.250000,-0.625000,0.250000,-0.975000,-1.050000,-0.975000,-1.050000,0.975000,1.050000,0.975000,1.050000,-0.625000,1.050000,-0.625000,$1*%
G04 Aperture macros list end*
%ADD10RoundRect,0.075000X0.075000X0.475000X-0.075000X0.475000X-0.075000X-0.475000X0.075000X-0.475000X0*%
%ADD11FreePoly0,180.000000*%
%ADD12FreePoly1,180.000000*%
G04 APERTURE END LIST*
D10*
X132432000Y-93700000D03*
X131932000Y-93700000D03*
X131432000Y-93700000D03*
X130932000Y-93700000D03*
X130432000Y-93700000D03*
X129932000Y-93700000D03*
X129432000Y-93700000D03*
X128932000Y-93700000D03*
X128432000Y-93700000D03*
X127932000Y-93700000D03*
X127432000Y-93700000D03*
X126932000Y-93700000D03*
X126432000Y-93700000D03*
X125932000Y-93700000D03*
X125432000Y-93700000D03*
X124932000Y-93700000D03*
X124432000Y-93700000D03*
X123932000Y-93700000D03*
X123432000Y-93700000D03*
X122932000Y-93700000D03*
X122432000Y-93700000D03*
X121932000Y-93700000D03*
X121432000Y-93700000D03*
X120932000Y-93700000D03*
X120432000Y-93700000D03*
X119932000Y-93700000D03*
X119432000Y-93700000D03*
X118932000Y-93700000D03*
X118432000Y-93700000D03*
X117932000Y-93700000D03*
X117432000Y-93700000D03*
X116932000Y-93700000D03*
X116432000Y-93700000D03*
X115932000Y-93700000D03*
X115432000Y-93700000D03*
X114932000Y-93700000D03*
X114432000Y-93700000D03*
X113932000Y-93700000D03*
X113432000Y-93700000D03*
X112932000Y-93700000D03*
D11*
X134682000Y-92575000D03*
D12*
X110682000Y-92575000D03*
M02*
