M48
; DRILL file {KiCad 9.0.6} date 2026-01-01T12:21:58-0600
; FORMAT={-:-/ absolute / metric / decimal}
; #@! TF.CreationDate,2026-01-01T12:21:58-06:00
; #@! TF.GenerationSoftware,Kicad,Pcbnew,9.0.6
; #@! TF.FileFunction,Plated,1,2,PTH
FMAT,2
METRIC
; #@! TA.AperFunction,Plated,PTH,ViaDrill
T1C0.300
; #@! TA.AperFunction,Plated,PTH,ComponentDrill
T2C1.000
%
G90
G05
T1
X113.2Y-89.5
X114.2Y-89.5
X115.2Y-89.5
X116.2Y-89.5
X117.2Y-89.5
X118.2Y-89.5
X119.2Y-89.5
X120.2Y-89.5
X121.2Y-89.5
X122.2Y-89.5
X123.2Y-89.508
X124.2Y-89.508
X125.2Y-89.508
X126.2Y-89.508
X127.2Y-89.508
X128.2Y-89.508
X129.2Y-89.508
X130.2Y-89.508
X131.2Y-89.508
X132.2Y-89.508
T2
X118.872Y-97.282
X118.872Y-99.822
X118.872Y-102.362
X118.872Y-104.902
X118.872Y-107.442
X118.872Y-109.982
X118.872Y-112.522
X118.872Y-115.062
X118.872Y-117.602
X118.872Y-120.142
X118.872Y-122.682
X118.872Y-125.222
X118.872Y-127.762
X118.872Y-130.302
X118.872Y-132.842
X118.872Y-135.382
X118.872Y-137.922
X118.872Y-140.462
X118.872Y-143.002
X118.872Y-145.542
X126.492Y-97.273
X126.492Y-99.813
X126.492Y-102.353
X126.492Y-104.893
X126.492Y-107.433
X126.492Y-109.973
X126.492Y-112.513
X126.492Y-115.053
X126.492Y-117.593
X126.492Y-120.133
X126.492Y-122.673
X126.492Y-125.213
X126.492Y-127.753
X126.492Y-130.293
X126.492Y-132.833
X126.492Y-135.373
X126.492Y-137.913
X126.492Y-140.453
X126.492Y-142.993
X126.492Y-145.533
M30
