G04 #@! TF.GenerationSoftware,KiCad,Pcbnew,9.0.6*
G04 #@! TF.CreationDate,2026-01-07T21:29:58-06:00*
G04 #@! TF.ProjectId,QFP-32_7x7_P0.8,5146502d-3332-45f3-9778-375f50302e38,rev?*
G04 #@! TF.SameCoordinates,Original*
G04 #@! TF.FileFunction,Legend,Bot*
G04 #@! TF.FilePolarity,Positive*
%FSLAX46Y46*%
G04 Gerber Fmt 4.6, Leading zero omitted, Abs format (unit mm)*
G04 Created by KiCad (PCBNEW 9.0.6) date 2026-01-07 21:29:58*
%MOMM*%
%LPD*%
G01*
G04 APERTURE LIST*
%ADD10C,0.150000*%
%ADD11C,0.120000*%
%ADD12R,1.700000X1.700000*%
%ADD13C,1.700000*%
%ADD14R,2.510000X1.000000*%
G04 APERTURE END LIST*
D10*
X133365714Y-98671461D02*
X133365714Y-99385746D01*
X133365714Y-99385746D02*
X133413333Y-99528603D01*
X133413333Y-99528603D02*
X133508571Y-99623842D01*
X133508571Y-99623842D02*
X133651428Y-99671461D01*
X133651428Y-99671461D02*
X133746666Y-99671461D01*
X132365714Y-99671461D02*
X132937142Y-99671461D01*
X132651428Y-99671461D02*
X132651428Y-98671461D01*
X132651428Y-98671461D02*
X132746666Y-98814318D01*
X132746666Y-98814318D02*
X132841904Y-98909556D01*
X132841904Y-98909556D02*
X132937142Y-98957175D01*
X131746666Y-98671461D02*
X131651428Y-98671461D01*
X131651428Y-98671461D02*
X131556190Y-98719080D01*
X131556190Y-98719080D02*
X131508571Y-98766699D01*
X131508571Y-98766699D02*
X131460952Y-98861937D01*
X131460952Y-98861937D02*
X131413333Y-99052413D01*
X131413333Y-99052413D02*
X131413333Y-99290508D01*
X131413333Y-99290508D02*
X131460952Y-99480984D01*
X131460952Y-99480984D02*
X131508571Y-99576222D01*
X131508571Y-99576222D02*
X131556190Y-99623842D01*
X131556190Y-99623842D02*
X131651428Y-99671461D01*
X131651428Y-99671461D02*
X131746666Y-99671461D01*
X131746666Y-99671461D02*
X131841904Y-99623842D01*
X131841904Y-99623842D02*
X131889523Y-99576222D01*
X131889523Y-99576222D02*
X131937142Y-99480984D01*
X131937142Y-99480984D02*
X131984761Y-99290508D01*
X131984761Y-99290508D02*
X131984761Y-99052413D01*
X131984761Y-99052413D02*
X131937142Y-98861937D01*
X131937142Y-98861937D02*
X131889523Y-98766699D01*
X131889523Y-98766699D02*
X131841904Y-98719080D01*
X131841904Y-98719080D02*
X131746666Y-98671461D01*
X131079999Y-98671461D02*
X130460952Y-98671461D01*
X130460952Y-98671461D02*
X130794285Y-99052413D01*
X130794285Y-99052413D02*
X130651428Y-99052413D01*
X130651428Y-99052413D02*
X130556190Y-99100032D01*
X130556190Y-99100032D02*
X130508571Y-99147651D01*
X130508571Y-99147651D02*
X130460952Y-99242889D01*
X130460952Y-99242889D02*
X130460952Y-99480984D01*
X130460952Y-99480984D02*
X130508571Y-99576222D01*
X130508571Y-99576222D02*
X130556190Y-99623842D01*
X130556190Y-99623842D02*
X130651428Y-99671461D01*
X130651428Y-99671461D02*
X130937142Y-99671461D01*
X130937142Y-99671461D02*
X131032380Y-99623842D01*
X131032380Y-99623842D02*
X131079999Y-99576222D01*
X146065714Y-98671461D02*
X146065714Y-99385746D01*
X146065714Y-99385746D02*
X146113333Y-99528603D01*
X146113333Y-99528603D02*
X146208571Y-99623842D01*
X146208571Y-99623842D02*
X146351428Y-99671461D01*
X146351428Y-99671461D02*
X146446666Y-99671461D01*
X145065714Y-99671461D02*
X145637142Y-99671461D01*
X145351428Y-99671461D02*
X145351428Y-98671461D01*
X145351428Y-98671461D02*
X145446666Y-98814318D01*
X145446666Y-98814318D02*
X145541904Y-98909556D01*
X145541904Y-98909556D02*
X145637142Y-98957175D01*
X144446666Y-98671461D02*
X144351428Y-98671461D01*
X144351428Y-98671461D02*
X144256190Y-98719080D01*
X144256190Y-98719080D02*
X144208571Y-98766699D01*
X144208571Y-98766699D02*
X144160952Y-98861937D01*
X144160952Y-98861937D02*
X144113333Y-99052413D01*
X144113333Y-99052413D02*
X144113333Y-99290508D01*
X144113333Y-99290508D02*
X144160952Y-99480984D01*
X144160952Y-99480984D02*
X144208571Y-99576222D01*
X144208571Y-99576222D02*
X144256190Y-99623842D01*
X144256190Y-99623842D02*
X144351428Y-99671461D01*
X144351428Y-99671461D02*
X144446666Y-99671461D01*
X144446666Y-99671461D02*
X144541904Y-99623842D01*
X144541904Y-99623842D02*
X144589523Y-99576222D01*
X144589523Y-99576222D02*
X144637142Y-99480984D01*
X144637142Y-99480984D02*
X144684761Y-99290508D01*
X144684761Y-99290508D02*
X144684761Y-99052413D01*
X144684761Y-99052413D02*
X144637142Y-98861937D01*
X144637142Y-98861937D02*
X144589523Y-98766699D01*
X144589523Y-98766699D02*
X144541904Y-98719080D01*
X144541904Y-98719080D02*
X144446666Y-98671461D01*
X143256190Y-99004794D02*
X143256190Y-99671461D01*
X143494285Y-98623842D02*
X143732380Y-99338127D01*
X143732380Y-99338127D02*
X143113333Y-99338127D01*
D11*
X130700000Y-100216642D02*
X130700000Y-103326642D01*
X130700000Y-104946642D02*
X130700000Y-108406642D01*
X130700000Y-110026642D02*
X130700000Y-113486642D01*
X130700000Y-115106642D02*
X130700000Y-118566642D01*
X130700000Y-120186642D02*
X130700000Y-123646642D01*
X130700000Y-125266642D02*
X130700000Y-128726642D01*
X130700000Y-130346642D02*
X130700000Y-133806642D01*
X130700000Y-135426642D02*
X130700000Y-138886642D01*
X130700000Y-140506642D02*
X130700000Y-141076642D01*
X133460000Y-100216642D02*
X130700000Y-100216642D01*
X133460000Y-100216642D02*
X133460000Y-100786642D01*
X133460000Y-102406642D02*
X133460000Y-105866642D01*
X133460000Y-107486642D02*
X133460000Y-110946642D01*
X133460000Y-112566642D02*
X133460000Y-116026642D01*
X133460000Y-117646642D02*
X133460000Y-121106642D01*
X133460000Y-122726642D02*
X133460000Y-126186642D01*
X133460000Y-127806642D02*
X133460000Y-131266642D01*
X133460000Y-132886642D02*
X133460000Y-136346642D01*
X133460000Y-137966642D02*
X133460000Y-141076642D01*
X133460000Y-141076642D02*
X130700000Y-141076642D01*
X143400000Y-100216642D02*
X143400000Y-100786642D01*
X143400000Y-102406642D02*
X143400000Y-105866642D01*
X143400000Y-107486642D02*
X143400000Y-110946642D01*
X143400000Y-112566642D02*
X143400000Y-116026642D01*
X143400000Y-117646642D02*
X143400000Y-121106642D01*
X143400000Y-122726642D02*
X143400000Y-126186642D01*
X143400000Y-127806642D02*
X143400000Y-131266642D01*
X143400000Y-132886642D02*
X143400000Y-136346642D01*
X143400000Y-137966642D02*
X143400000Y-141076642D01*
X146160000Y-100216642D02*
X143400000Y-100216642D01*
X146160000Y-100216642D02*
X146160000Y-103326642D01*
X146160000Y-100786642D02*
X146160000Y-103326642D01*
X146160000Y-104946642D02*
X146160000Y-108406642D01*
X146160000Y-110026642D02*
X146160000Y-113486642D01*
X146160000Y-115106642D02*
X146160000Y-118566642D01*
X146160000Y-120186642D02*
X146160000Y-123646642D01*
X146160000Y-125266642D02*
X146160000Y-128726642D01*
X146160000Y-130346642D02*
X146160000Y-133806642D01*
X146160000Y-135426642D02*
X146160000Y-138886642D01*
X146160000Y-140506642D02*
X146160000Y-141076642D01*
X146160000Y-141076642D02*
X143400000Y-141076642D01*
%LPC*%
D12*
X127000000Y-101600000D03*
D13*
X127000000Y-104140000D03*
X127000000Y-106680000D03*
X127000000Y-109220000D03*
X127000000Y-111760000D03*
X127000000Y-114300000D03*
X127000000Y-116840000D03*
X127000000Y-119380000D03*
X127000000Y-121920000D03*
X127000000Y-124460000D03*
X127000000Y-127000000D03*
X127000000Y-129540000D03*
X127000000Y-132080000D03*
X127000000Y-134620000D03*
X127000000Y-137160000D03*
X127000000Y-139700000D03*
X149860000Y-101600000D03*
X149860000Y-104140000D03*
X149860000Y-106680000D03*
X149860000Y-109220000D03*
X149860000Y-111760000D03*
X149860000Y-114300000D03*
X149860000Y-116840000D03*
X149860000Y-119380000D03*
X149860000Y-121920000D03*
X149860000Y-124460000D03*
X149860000Y-127000000D03*
X149860000Y-129540000D03*
X149860000Y-132080000D03*
X149860000Y-134620000D03*
X149860000Y-137160000D03*
X149860000Y-139700000D03*
D14*
X133735000Y-101596642D03*
X130425000Y-104136642D03*
X133735000Y-106676642D03*
X130425000Y-109216642D03*
X133735000Y-111756642D03*
X130425000Y-114296642D03*
X133735000Y-116836642D03*
X130425000Y-119376642D03*
X133735000Y-121916642D03*
X130425000Y-124456642D03*
X133735000Y-126996642D03*
X130425000Y-129536642D03*
X133735000Y-132076642D03*
X130425000Y-134616642D03*
X133735000Y-137156642D03*
X130425000Y-139696642D03*
X143125000Y-101596642D03*
X146435000Y-104136642D03*
X143125000Y-106676642D03*
X146435000Y-109216642D03*
X143125000Y-111756642D03*
X146435000Y-114296642D03*
X143125000Y-116836642D03*
X146435000Y-119376642D03*
X143125000Y-121916642D03*
X146435000Y-124456642D03*
X143125000Y-126996642D03*
X146435000Y-129536642D03*
X143125000Y-132076642D03*
X146435000Y-134616642D03*
X143125000Y-137156642D03*
X146435000Y-139696642D03*
%LPD*%
M02*
