%TF.GenerationSoftware,KiCad,Pcbnew,9.0.6*%
%TF.CreationDate,2026-01-07T21:30:00-06:00*%
%TF.ProjectId,QFP-32_7x7_P0.8,5146502d-3332-45f3-9778-375f50302e38,rev?*%
%TF.SameCoordinates,Original*%
%TF.FileFunction,Drillmap*%
%TF.FilePolarity,Positive*%
%FSLAX45Y45*%
G04 Gerber Fmt 4.5, Leading zero omitted, Abs format (unit mm)*
G04 Created by KiCad (PCBNEW 9.0.6) date 2026-01-07 21:30:00*
%MOMM*%
%LPD*%
G01*
G04 APERTURE LIST*
%ADD10C,0.050000*%
%ADD11C,0.200000*%
G04 APERTURE END LIST*
D10*
X12573000Y-10033000D02*
X15113000Y-10033000D01*
X15113000Y-14097000D01*
X12573000Y-14097000D01*
X12573000Y-10033000D01*
D11*
X12831277Y-14410984D02*
X12831277Y-14210984D01*
X12831277Y-14210984D02*
X12878896Y-14210984D01*
X12878896Y-14210984D02*
X12907467Y-14220508D01*
X12907467Y-14220508D02*
X12926515Y-14239555D01*
X12926515Y-14239555D02*
X12936039Y-14258603D01*
X12936039Y-14258603D02*
X12945562Y-14296698D01*
X12945562Y-14296698D02*
X12945562Y-14325269D01*
X12945562Y-14325269D02*
X12936039Y-14363365D01*
X12936039Y-14363365D02*
X12926515Y-14382412D01*
X12926515Y-14382412D02*
X12907467Y-14401460D01*
X12907467Y-14401460D02*
X12878896Y-14410984D01*
X12878896Y-14410984D02*
X12831277Y-14410984D01*
X13031277Y-14410984D02*
X13031277Y-14277650D01*
X13031277Y-14315746D02*
X13040801Y-14296698D01*
X13040801Y-14296698D02*
X13050324Y-14287174D01*
X13050324Y-14287174D02*
X13069372Y-14277650D01*
X13069372Y-14277650D02*
X13088420Y-14277650D01*
X13155086Y-14410984D02*
X13155086Y-14277650D01*
X13155086Y-14210984D02*
X13145562Y-14220508D01*
X13145562Y-14220508D02*
X13155086Y-14230031D01*
X13155086Y-14230031D02*
X13164610Y-14220508D01*
X13164610Y-14220508D02*
X13155086Y-14210984D01*
X13155086Y-14210984D02*
X13155086Y-14230031D01*
X13278896Y-14410984D02*
X13259848Y-14401460D01*
X13259848Y-14401460D02*
X13250324Y-14382412D01*
X13250324Y-14382412D02*
X13250324Y-14210984D01*
X13383658Y-14410984D02*
X13364610Y-14401460D01*
X13364610Y-14401460D02*
X13355086Y-14382412D01*
X13355086Y-14382412D02*
X13355086Y-14210984D01*
X13612229Y-14410984D02*
X13612229Y-14210984D01*
X13612229Y-14210984D02*
X13678896Y-14353841D01*
X13678896Y-14353841D02*
X13745562Y-14210984D01*
X13745562Y-14210984D02*
X13745562Y-14410984D01*
X13926515Y-14410984D02*
X13926515Y-14306222D01*
X13926515Y-14306222D02*
X13916991Y-14287174D01*
X13916991Y-14287174D02*
X13897943Y-14277650D01*
X13897943Y-14277650D02*
X13859848Y-14277650D01*
X13859848Y-14277650D02*
X13840801Y-14287174D01*
X13926515Y-14401460D02*
X13907467Y-14410984D01*
X13907467Y-14410984D02*
X13859848Y-14410984D01*
X13859848Y-14410984D02*
X13840801Y-14401460D01*
X13840801Y-14401460D02*
X13831277Y-14382412D01*
X13831277Y-14382412D02*
X13831277Y-14363365D01*
X13831277Y-14363365D02*
X13840801Y-14344317D01*
X13840801Y-14344317D02*
X13859848Y-14334793D01*
X13859848Y-14334793D02*
X13907467Y-14334793D01*
X13907467Y-14334793D02*
X13926515Y-14325269D01*
X14021753Y-14277650D02*
X14021753Y-14477650D01*
X14021753Y-14287174D02*
X14040801Y-14277650D01*
X14040801Y-14277650D02*
X14078896Y-14277650D01*
X14078896Y-14277650D02*
X14097943Y-14287174D01*
X14097943Y-14287174D02*
X14107467Y-14296698D01*
X14107467Y-14296698D02*
X14116991Y-14315746D01*
X14116991Y-14315746D02*
X14116991Y-14372888D01*
X14116991Y-14372888D02*
X14107467Y-14391936D01*
X14107467Y-14391936D02*
X14097943Y-14401460D01*
X14097943Y-14401460D02*
X14078896Y-14410984D01*
X14078896Y-14410984D02*
X14040801Y-14410984D01*
X14040801Y-14410984D02*
X14021753Y-14401460D01*
X14202705Y-14391936D02*
X14212229Y-14401460D01*
X14212229Y-14401460D02*
X14202705Y-14410984D01*
X14202705Y-14410984D02*
X14193182Y-14401460D01*
X14193182Y-14401460D02*
X14202705Y-14391936D01*
X14202705Y-14391936D02*
X14202705Y-14410984D01*
X14202705Y-14287174D02*
X14212229Y-14296698D01*
X14212229Y-14296698D02*
X14202705Y-14306222D01*
X14202705Y-14306222D02*
X14193182Y-14296698D01*
X14193182Y-14296698D02*
X14202705Y-14287174D01*
X14202705Y-14287174D02*
X14202705Y-14306222D01*
M02*
