G04 #@! TF.GenerationSoftware,KiCad,Pcbnew,9.0.6*
G04 #@! TF.CreationDate,2026-01-07T22:53:03-06:00*
G04 #@! TF.ProjectId,QFN-56_7x7_P0.4,51464e2d-3536-45f3-9778-375f50302e34,rev?*
G04 #@! TF.SameCoordinates,Original*
G04 #@! TF.FileFunction,Copper,L2,Bot*
G04 #@! TF.FilePolarity,Positive*
%FSLAX46Y46*%
G04 Gerber Fmt 4.6, Leading zero omitted, Abs format (unit mm)*
G04 Created by KiCad (PCBNEW 9.0.6) date 2026-01-07 22:53:03*
%MOMM*%
%LPD*%
G01*
G04 APERTURE LIST*
G04 Aperture macros list*
%AMRotRect*
0 Rectangle, with rotation*
0 The origin of the aperture is its center*
0 $1 length*
0 $2 width*
0 $3 Rotation angle, in degrees counterclockwise*
0 Add horizontal line*
21,1,$1,$2,0,0,$3*%
G04 Aperture macros list end*
G04 #@! TA.AperFunction,SMDPad,CuDef*
%ADD10R,2.510000X1.000000*%
G04 #@! TD*
G04 #@! TA.AperFunction,ComponentPad*
%ADD11C,1.700000*%
G04 #@! TD*
G04 #@! TA.AperFunction,ComponentPad*
%ADD12R,1.700000X1.700000*%
G04 #@! TD*
G04 #@! TA.AperFunction,HeatsinkPad*
%ADD13C,0.500000*%
G04 #@! TD*
G04 #@! TA.AperFunction,HeatsinkPad*
%ADD14RotRect,4.000000X4.000000X315.000000*%
G04 #@! TD*
G04 #@! TA.AperFunction,ViaPad*
%ADD15C,0.600000*%
G04 #@! TD*
G04 #@! TA.AperFunction,Conductor*
%ADD16C,0.450000*%
G04 #@! TD*
G04 APERTURE END LIST*
D10*
X143125000Y-83820000D03*
X146435000Y-86360000D03*
X143125000Y-88900000D03*
X146435000Y-91440000D03*
X143125000Y-93980000D03*
X146435000Y-96520000D03*
X143125000Y-99060000D03*
X146435000Y-101600000D03*
X143125000Y-104140000D03*
X146435000Y-106680000D03*
X143125000Y-109220000D03*
X146435000Y-111760000D03*
X143125000Y-114300000D03*
X146435000Y-116840000D03*
X143125000Y-119380000D03*
X146435000Y-121920000D03*
X143125000Y-124460000D03*
X146435000Y-127000000D03*
X143125000Y-129540000D03*
X146435000Y-132080000D03*
X143125000Y-134620000D03*
X146435000Y-137160000D03*
X143125000Y-139700000D03*
X146435000Y-142240000D03*
X143125000Y-144780000D03*
X146435000Y-147320000D03*
X143125000Y-149860000D03*
X146435000Y-152400000D03*
X143125000Y-154940000D03*
X146435000Y-157480000D03*
X133735000Y-83820000D03*
X130425000Y-86360000D03*
X133735000Y-88900000D03*
X130425000Y-91440000D03*
X133735000Y-93980000D03*
X130425000Y-96520000D03*
X133735000Y-99060000D03*
X130425000Y-101600000D03*
X133735000Y-104140000D03*
X130425000Y-106680000D03*
X133735000Y-109220000D03*
X130425000Y-111760000D03*
X133735000Y-114300000D03*
X130425000Y-116840000D03*
X133735000Y-119380000D03*
X130425000Y-121920000D03*
X133735000Y-124460000D03*
X130425000Y-127000000D03*
X133735000Y-129540000D03*
X130425000Y-132080000D03*
X133735000Y-134620000D03*
X130425000Y-137160000D03*
X133735000Y-139700000D03*
X130425000Y-142240000D03*
X133735000Y-144780000D03*
X130425000Y-147320000D03*
X133735000Y-149860000D03*
X130425000Y-152400000D03*
X133735000Y-154940000D03*
X130425000Y-157480000D03*
D11*
X149860000Y-83820000D03*
X149860000Y-86360000D03*
X149860000Y-88900000D03*
X149860000Y-91440000D03*
X149860000Y-93980000D03*
X149860000Y-96520000D03*
X149860000Y-99060000D03*
X149860000Y-101600000D03*
X149860000Y-104140000D03*
X149860000Y-106680000D03*
X149860000Y-109220000D03*
X149860000Y-111760000D03*
X149860000Y-114300000D03*
X149860000Y-116840000D03*
X149860000Y-119380000D03*
X149860000Y-121920000D03*
X149860000Y-124460000D03*
X149860000Y-127000000D03*
X149860000Y-129540000D03*
X149860000Y-132080000D03*
X149860000Y-134620000D03*
X149860000Y-137160000D03*
X149860000Y-139700000D03*
X149860000Y-142240000D03*
X149860000Y-144780000D03*
X149860000Y-147320000D03*
X149860000Y-149860000D03*
X149860000Y-152400000D03*
X149860000Y-154940000D03*
X149860000Y-157480000D03*
D12*
X127000000Y-83820000D03*
D11*
X127000000Y-86360000D03*
X127000000Y-88900000D03*
X127000000Y-91440000D03*
X127000000Y-93980000D03*
X127000000Y-96520000D03*
X127000000Y-99060000D03*
X127000000Y-101600000D03*
X127000000Y-104140000D03*
X127000000Y-106680000D03*
X127000000Y-109220000D03*
X127000000Y-111760000D03*
X127000000Y-114300000D03*
X127000000Y-116840000D03*
X127000000Y-119380000D03*
X127000000Y-121920000D03*
X127000000Y-124460000D03*
X127000000Y-127000000D03*
X127000000Y-129540000D03*
X127000000Y-132080000D03*
X127000000Y-134620000D03*
X127000000Y-137160000D03*
X127000000Y-139700000D03*
X127000000Y-142240000D03*
X127000000Y-144780000D03*
X127000000Y-147320000D03*
X127000000Y-149860000D03*
X127000000Y-152400000D03*
X127000000Y-154940000D03*
X127000000Y-157480000D03*
D13*
X138430000Y-119445126D03*
X137192563Y-120682563D03*
X135955126Y-121920000D03*
X139667437Y-120682563D03*
X138430000Y-121920000D03*
D14*
X138430000Y-121920000D03*
D13*
X137192563Y-123157437D03*
X140904874Y-121920000D03*
X139667437Y-123157437D03*
X138430000Y-124394874D03*
D15*
X138430000Y-97790000D03*
X138430000Y-145796000D03*
X138430000Y-115570000D03*
X138430000Y-128270000D03*
D16*
X130425000Y-152400000D02*
X127000000Y-152400000D01*
X133735000Y-109220000D02*
X127000000Y-109220000D01*
X127000000Y-91440000D02*
X130425000Y-91440000D01*
X133735000Y-99060000D02*
X127000000Y-99060000D01*
X133735000Y-104140000D02*
X127000000Y-104140000D01*
X127000000Y-86360000D02*
X130425000Y-86360000D01*
X143125000Y-149860000D02*
X149860000Y-149860000D01*
X127000000Y-101600000D02*
X130425000Y-101600000D01*
X127000000Y-154940000D02*
X133735000Y-154940000D01*
X133735000Y-88900000D02*
X127000000Y-88900000D01*
X149860000Y-147320000D02*
X146435000Y-147320000D01*
X133735000Y-144780000D02*
X127000000Y-144780000D01*
X127000000Y-142240000D02*
X130425000Y-142240000D01*
X127000000Y-132080000D02*
X130425000Y-132080000D01*
X133735000Y-134620000D02*
X127000000Y-134620000D01*
X133735000Y-129540000D02*
X127000000Y-129540000D01*
X127000000Y-106680000D02*
X130425000Y-106680000D01*
X133735000Y-119380000D02*
X127000000Y-119380000D01*
X149860000Y-142240000D02*
X146435000Y-142240000D01*
X127000000Y-149860000D02*
X133735000Y-149860000D01*
X127000000Y-137160000D02*
X130425000Y-137160000D01*
X133735000Y-124460000D02*
X127000000Y-124460000D01*
X143125000Y-154940000D02*
X149860000Y-154940000D01*
X127000000Y-121920000D02*
X130425000Y-121920000D01*
X130425000Y-147320000D02*
X127000000Y-147320000D01*
X146435000Y-152400000D02*
X149860000Y-152400000D01*
X143125000Y-144780000D02*
X149860000Y-144780000D01*
X127000000Y-127000000D02*
X130425000Y-127000000D01*
X127000000Y-96520000D02*
X130425000Y-96520000D01*
X133735000Y-93980000D02*
X127000000Y-93980000D01*
X127000000Y-116840000D02*
X130425000Y-116840000D01*
X133735000Y-114300000D02*
X127000000Y-114300000D01*
X127000000Y-111760000D02*
X130425000Y-111760000D01*
X133735000Y-139700000D02*
X127000000Y-139700000D01*
X143125000Y-119380000D02*
X149860000Y-119380000D01*
X149860000Y-127000000D02*
X146435000Y-127000000D01*
X143125000Y-124460000D02*
X149860000Y-124460000D01*
X149860000Y-106680000D02*
X146435000Y-106680000D01*
X143125000Y-139700000D02*
X149860000Y-139700000D01*
X143125000Y-134620000D02*
X149860000Y-134620000D01*
X143125000Y-104140000D02*
X149860000Y-104140000D01*
X143125000Y-114300000D02*
X149860000Y-114300000D01*
X143125000Y-109220000D02*
X149860000Y-109220000D01*
X143125000Y-129540000D02*
X149860000Y-129540000D01*
X149860000Y-111760000D02*
X146435000Y-111760000D01*
X149860000Y-116840000D02*
X146435000Y-116840000D01*
X149860000Y-121920000D02*
X146435000Y-121920000D01*
X149860000Y-132080000D02*
X146435000Y-132080000D01*
X149860000Y-137160000D02*
X146435000Y-137160000D01*
X146435000Y-157480000D02*
X149860000Y-157480000D01*
X127000000Y-83820000D02*
X133735000Y-83820000D01*
X143125000Y-83820000D02*
X149860000Y-83820000D01*
X130425000Y-157480000D02*
X127000000Y-157480000D01*
X149860000Y-96520000D02*
X146435000Y-96520000D01*
X149860000Y-91440000D02*
X146435000Y-91440000D01*
X146435000Y-86360000D02*
X149860000Y-86360000D01*
X143125000Y-88900000D02*
X149860000Y-88900000D01*
X143125000Y-99060000D02*
X149860000Y-99060000D01*
X143125000Y-93980000D02*
X149860000Y-93980000D01*
X149860000Y-101600000D02*
X146435000Y-101600000D01*
G04 #@! TA.AperFunction,Conductor*
G36*
X150572539Y-83070185D02*
G01*
X150618294Y-83122989D01*
X150629500Y-83174500D01*
X150629500Y-85034028D01*
X150609815Y-85101067D01*
X150557011Y-85146822D01*
X150487853Y-85156766D01*
X150449206Y-85144513D01*
X150378417Y-85108445D01*
X150378414Y-85108444D01*
X150378412Y-85108443D01*
X150176243Y-85042754D01*
X150176241Y-85042753D01*
X150176240Y-85042753D01*
X150014957Y-85017208D01*
X149966287Y-85009500D01*
X149753713Y-85009500D01*
X149705042Y-85017208D01*
X149543760Y-85042753D01*
X149341585Y-85108444D01*
X149152179Y-85204951D01*
X148980213Y-85329890D01*
X148829892Y-85480211D01*
X148754935Y-85583384D01*
X148699605Y-85626051D01*
X148654616Y-85634500D01*
X148208465Y-85634500D01*
X148141426Y-85614815D01*
X148109198Y-85584811D01*
X148108130Y-85583384D01*
X148047546Y-85502454D01*
X148017829Y-85480208D01*
X147932335Y-85416206D01*
X147932328Y-85416202D01*
X147797482Y-85365908D01*
X147797483Y-85365908D01*
X147737883Y-85359501D01*
X147737881Y-85359500D01*
X147737873Y-85359500D01*
X147737864Y-85359500D01*
X145132129Y-85359500D01*
X145132123Y-85359501D01*
X145072516Y-85365908D01*
X144937671Y-85416202D01*
X144937664Y-85416206D01*
X144822455Y-85502452D01*
X144822452Y-85502455D01*
X144736206Y-85617664D01*
X144736202Y-85617671D01*
X144685908Y-85752517D01*
X144679501Y-85812116D01*
X144679501Y-85812123D01*
X144679500Y-85812135D01*
X144679500Y-86907870D01*
X144679501Y-86907876D01*
X144685908Y-86967483D01*
X144736202Y-87102328D01*
X144736206Y-87102335D01*
X144822452Y-87217544D01*
X144822455Y-87217547D01*
X144937664Y-87303793D01*
X144937671Y-87303797D01*
X145072517Y-87354091D01*
X145072516Y-87354091D01*
X145079444Y-87354835D01*
X145132127Y-87360500D01*
X147737872Y-87360499D01*
X147797483Y-87354091D01*
X147932331Y-87303796D01*
X148047546Y-87217546D01*
X148109199Y-87135188D01*
X148165132Y-87093318D01*
X148208465Y-87085500D01*
X148654616Y-87085500D01*
X148721655Y-87105185D01*
X148754935Y-87136616D01*
X148829892Y-87239788D01*
X148980213Y-87390109D01*
X149152182Y-87515050D01*
X149160946Y-87519516D01*
X149211742Y-87567491D01*
X149228536Y-87635312D01*
X149205998Y-87701447D01*
X149160946Y-87740484D01*
X149152182Y-87744949D01*
X148980213Y-87869890D01*
X148829892Y-88020211D01*
X148754935Y-88123384D01*
X148699605Y-88166051D01*
X148654616Y-88174500D01*
X144898465Y-88174500D01*
X144831426Y-88154815D01*
X144799198Y-88124811D01*
X144798130Y-88123384D01*
X144737546Y-88042454D01*
X144707829Y-88020208D01*
X144622335Y-87956206D01*
X144622328Y-87956202D01*
X144487482Y-87905908D01*
X144487483Y-87905908D01*
X144427883Y-87899501D01*
X144427881Y-87899500D01*
X144427873Y-87899500D01*
X144427864Y-87899500D01*
X141822129Y-87899500D01*
X141822123Y-87899501D01*
X141762516Y-87905908D01*
X141627671Y-87956202D01*
X141627664Y-87956206D01*
X141512455Y-88042452D01*
X141512452Y-88042455D01*
X141426206Y-88157664D01*
X141426202Y-88157671D01*
X141375908Y-88292517D01*
X141369501Y-88352116D01*
X141369501Y-88352123D01*
X141369500Y-88352135D01*
X141369500Y-89447870D01*
X141369501Y-89447876D01*
X141375908Y-89507483D01*
X141426202Y-89642328D01*
X141426206Y-89642335D01*
X141512452Y-89757544D01*
X141512455Y-89757547D01*
X141627664Y-89843793D01*
X141627671Y-89843797D01*
X141762517Y-89894091D01*
X141762516Y-89894091D01*
X141769444Y-89894835D01*
X141822127Y-89900500D01*
X144427872Y-89900499D01*
X144487483Y-89894091D01*
X144622331Y-89843796D01*
X144737546Y-89757546D01*
X144799199Y-89675188D01*
X144855132Y-89633318D01*
X144898465Y-89625500D01*
X148654616Y-89625500D01*
X148721655Y-89645185D01*
X148754935Y-89676616D01*
X148829892Y-89779788D01*
X148980213Y-89930109D01*
X149152182Y-90055050D01*
X149160946Y-90059516D01*
X149211742Y-90107491D01*
X149228536Y-90175312D01*
X149205998Y-90241447D01*
X149160946Y-90280484D01*
X149152182Y-90284949D01*
X148980213Y-90409890D01*
X148829892Y-90560211D01*
X148754935Y-90663384D01*
X148699605Y-90706051D01*
X148654616Y-90714500D01*
X148208465Y-90714500D01*
X148141426Y-90694815D01*
X148109198Y-90664811D01*
X148108130Y-90663384D01*
X148047546Y-90582454D01*
X148017829Y-90560208D01*
X147932335Y-90496206D01*
X147932328Y-90496202D01*
X147797482Y-90445908D01*
X147797483Y-90445908D01*
X147737883Y-90439501D01*
X147737881Y-90439500D01*
X147737873Y-90439500D01*
X147737864Y-90439500D01*
X145132129Y-90439500D01*
X145132123Y-90439501D01*
X145072516Y-90445908D01*
X144937671Y-90496202D01*
X144937664Y-90496206D01*
X144822455Y-90582452D01*
X144822452Y-90582455D01*
X144736206Y-90697664D01*
X144736202Y-90697671D01*
X144685908Y-90832517D01*
X144679501Y-90892116D01*
X144679501Y-90892123D01*
X144679500Y-90892135D01*
X144679500Y-91987870D01*
X144679501Y-91987876D01*
X144685908Y-92047483D01*
X144736202Y-92182328D01*
X144736206Y-92182335D01*
X144822452Y-92297544D01*
X144822455Y-92297547D01*
X144937664Y-92383793D01*
X144937671Y-92383797D01*
X145072517Y-92434091D01*
X145072516Y-92434091D01*
X145079444Y-92434835D01*
X145132127Y-92440500D01*
X147737872Y-92440499D01*
X147797483Y-92434091D01*
X147932331Y-92383796D01*
X148047546Y-92297546D01*
X148109199Y-92215188D01*
X148165132Y-92173318D01*
X148208465Y-92165500D01*
X148654616Y-92165500D01*
X148721655Y-92185185D01*
X148754935Y-92216616D01*
X148829892Y-92319788D01*
X148980213Y-92470109D01*
X149152182Y-92595050D01*
X149160946Y-92599516D01*
X149211742Y-92647491D01*
X149228536Y-92715312D01*
X149205998Y-92781447D01*
X149160946Y-92820484D01*
X149152182Y-92824949D01*
X148980213Y-92949890D01*
X148829892Y-93100211D01*
X148754935Y-93203384D01*
X148699605Y-93246051D01*
X148654616Y-93254500D01*
X144898465Y-93254500D01*
X144831426Y-93234815D01*
X144799198Y-93204811D01*
X144798130Y-93203384D01*
X144737546Y-93122454D01*
X144707829Y-93100208D01*
X144622335Y-93036206D01*
X144622328Y-93036202D01*
X144487482Y-92985908D01*
X144487483Y-92985908D01*
X144427883Y-92979501D01*
X144427881Y-92979500D01*
X144427873Y-92979500D01*
X144427864Y-92979500D01*
X141822129Y-92979500D01*
X141822123Y-92979501D01*
X141762516Y-92985908D01*
X141627671Y-93036202D01*
X141627664Y-93036206D01*
X141512455Y-93122452D01*
X141512452Y-93122455D01*
X141426206Y-93237664D01*
X141426202Y-93237671D01*
X141375908Y-93372517D01*
X141369501Y-93432116D01*
X141369501Y-93432123D01*
X141369500Y-93432135D01*
X141369500Y-94527870D01*
X141369501Y-94527876D01*
X141375908Y-94587483D01*
X141426202Y-94722328D01*
X141426206Y-94722335D01*
X141512452Y-94837544D01*
X141512455Y-94837547D01*
X141627664Y-94923793D01*
X141627671Y-94923797D01*
X141762517Y-94974091D01*
X141762516Y-94974091D01*
X141769444Y-94974835D01*
X141822127Y-94980500D01*
X144427872Y-94980499D01*
X144487483Y-94974091D01*
X144622331Y-94923796D01*
X144737546Y-94837546D01*
X144799199Y-94755188D01*
X144855132Y-94713318D01*
X144898465Y-94705500D01*
X148654616Y-94705500D01*
X148721655Y-94725185D01*
X148754935Y-94756616D01*
X148829892Y-94859788D01*
X148980213Y-95010109D01*
X149152182Y-95135050D01*
X149160946Y-95139516D01*
X149211742Y-95187491D01*
X149228536Y-95255312D01*
X149205998Y-95321447D01*
X149160946Y-95360484D01*
X149152182Y-95364949D01*
X148980213Y-95489890D01*
X148829892Y-95640211D01*
X148754935Y-95743384D01*
X148699605Y-95786051D01*
X148654616Y-95794500D01*
X148208465Y-95794500D01*
X148141426Y-95774815D01*
X148109198Y-95744811D01*
X148108130Y-95743384D01*
X148047546Y-95662454D01*
X148017829Y-95640208D01*
X147932335Y-95576206D01*
X147932328Y-95576202D01*
X147797482Y-95525908D01*
X147797483Y-95525908D01*
X147737883Y-95519501D01*
X147737881Y-95519500D01*
X147737873Y-95519500D01*
X147737864Y-95519500D01*
X145132129Y-95519500D01*
X145132123Y-95519501D01*
X145072516Y-95525908D01*
X144937671Y-95576202D01*
X144937664Y-95576206D01*
X144822455Y-95662452D01*
X144822452Y-95662455D01*
X144736206Y-95777664D01*
X144736202Y-95777671D01*
X144685908Y-95912517D01*
X144679501Y-95972116D01*
X144679501Y-95972123D01*
X144679500Y-95972135D01*
X144679500Y-97067870D01*
X144679501Y-97067876D01*
X144685908Y-97127483D01*
X144736202Y-97262328D01*
X144736206Y-97262335D01*
X144822452Y-97377544D01*
X144822455Y-97377547D01*
X144937664Y-97463793D01*
X144937671Y-97463797D01*
X145072517Y-97514091D01*
X145072516Y-97514091D01*
X145079444Y-97514835D01*
X145132127Y-97520500D01*
X147737872Y-97520499D01*
X147797483Y-97514091D01*
X147932331Y-97463796D01*
X148047546Y-97377546D01*
X148109199Y-97295188D01*
X148165132Y-97253318D01*
X148208465Y-97245500D01*
X148654616Y-97245500D01*
X148721655Y-97265185D01*
X148754935Y-97296616D01*
X148829892Y-97399788D01*
X148980213Y-97550109D01*
X149152182Y-97675050D01*
X149160946Y-97679516D01*
X149211742Y-97727491D01*
X149228536Y-97795312D01*
X149205998Y-97861447D01*
X149160946Y-97900484D01*
X149152182Y-97904949D01*
X148980213Y-98029890D01*
X148829892Y-98180211D01*
X148754935Y-98283384D01*
X148699605Y-98326051D01*
X148654616Y-98334500D01*
X144898465Y-98334500D01*
X144831426Y-98314815D01*
X144799198Y-98284811D01*
X144798130Y-98283384D01*
X144737546Y-98202454D01*
X144707829Y-98180208D01*
X144622335Y-98116206D01*
X144622328Y-98116202D01*
X144487482Y-98065908D01*
X144487483Y-98065908D01*
X144427883Y-98059501D01*
X144427881Y-98059500D01*
X144427873Y-98059500D01*
X144427864Y-98059500D01*
X141822129Y-98059500D01*
X141822123Y-98059501D01*
X141762516Y-98065908D01*
X141627671Y-98116202D01*
X141627664Y-98116206D01*
X141512455Y-98202452D01*
X141512452Y-98202455D01*
X141426206Y-98317664D01*
X141426202Y-98317671D01*
X141375908Y-98452517D01*
X141369501Y-98512116D01*
X141369501Y-98512123D01*
X141369500Y-98512135D01*
X141369500Y-99607870D01*
X141369501Y-99607876D01*
X141375908Y-99667483D01*
X141426202Y-99802328D01*
X141426206Y-99802335D01*
X141512452Y-99917544D01*
X141512455Y-99917547D01*
X141627664Y-100003793D01*
X141627671Y-100003797D01*
X141762517Y-100054091D01*
X141762516Y-100054091D01*
X141769444Y-100054835D01*
X141822127Y-100060500D01*
X144427872Y-100060499D01*
X144487483Y-100054091D01*
X144622331Y-100003796D01*
X144737546Y-99917546D01*
X144799199Y-99835188D01*
X144855132Y-99793318D01*
X144898465Y-99785500D01*
X148654616Y-99785500D01*
X148721655Y-99805185D01*
X148754935Y-99836616D01*
X148829892Y-99939788D01*
X148980213Y-100090109D01*
X149152182Y-100215050D01*
X149160946Y-100219516D01*
X149211742Y-100267491D01*
X149228536Y-100335312D01*
X149205998Y-100401447D01*
X149160946Y-100440484D01*
X149152182Y-100444949D01*
X148980213Y-100569890D01*
X148829892Y-100720211D01*
X148754935Y-100823384D01*
X148699605Y-100866051D01*
X148654616Y-100874500D01*
X148208465Y-100874500D01*
X148141426Y-100854815D01*
X148109198Y-100824811D01*
X148108130Y-100823384D01*
X148047546Y-100742454D01*
X148017829Y-100720208D01*
X147932335Y-100656206D01*
X147932328Y-100656202D01*
X147797482Y-100605908D01*
X147797483Y-100605908D01*
X147737883Y-100599501D01*
X147737881Y-100599500D01*
X147737873Y-100599500D01*
X147737864Y-100599500D01*
X145132129Y-100599500D01*
X145132123Y-100599501D01*
X145072516Y-100605908D01*
X144937671Y-100656202D01*
X144937664Y-100656206D01*
X144822455Y-100742452D01*
X144822452Y-100742455D01*
X144736206Y-100857664D01*
X144736202Y-100857671D01*
X144685908Y-100992517D01*
X144679501Y-101052116D01*
X144679501Y-101052123D01*
X144679500Y-101052135D01*
X144679500Y-102147870D01*
X144679501Y-102147876D01*
X144685908Y-102207483D01*
X144736202Y-102342328D01*
X144736206Y-102342335D01*
X144822452Y-102457544D01*
X144822455Y-102457547D01*
X144937664Y-102543793D01*
X144937671Y-102543797D01*
X145072517Y-102594091D01*
X145072516Y-102594091D01*
X145079444Y-102594835D01*
X145132127Y-102600500D01*
X147737872Y-102600499D01*
X147797483Y-102594091D01*
X147932331Y-102543796D01*
X148047546Y-102457546D01*
X148109199Y-102375188D01*
X148165132Y-102333318D01*
X148208465Y-102325500D01*
X148654616Y-102325500D01*
X148721655Y-102345185D01*
X148754935Y-102376616D01*
X148829892Y-102479788D01*
X148980213Y-102630109D01*
X149152182Y-102755050D01*
X149160946Y-102759516D01*
X149211742Y-102807491D01*
X149228536Y-102875312D01*
X149205998Y-102941447D01*
X149160946Y-102980484D01*
X149152182Y-102984949D01*
X148980213Y-103109890D01*
X148829892Y-103260211D01*
X148754935Y-103363384D01*
X148699605Y-103406051D01*
X148654616Y-103414500D01*
X144898465Y-103414500D01*
X144831426Y-103394815D01*
X144799198Y-103364811D01*
X144798130Y-103363384D01*
X144737546Y-103282454D01*
X144707829Y-103260208D01*
X144622335Y-103196206D01*
X144622328Y-103196202D01*
X144487482Y-103145908D01*
X144487483Y-103145908D01*
X144427883Y-103139501D01*
X144427881Y-103139500D01*
X144427873Y-103139500D01*
X144427864Y-103139500D01*
X141822129Y-103139500D01*
X141822123Y-103139501D01*
X141762516Y-103145908D01*
X141627671Y-103196202D01*
X141627664Y-103196206D01*
X141512455Y-103282452D01*
X141512452Y-103282455D01*
X141426206Y-103397664D01*
X141426202Y-103397671D01*
X141375908Y-103532517D01*
X141369501Y-103592116D01*
X141369501Y-103592123D01*
X141369500Y-103592135D01*
X141369500Y-104687870D01*
X141369501Y-104687876D01*
X141375908Y-104747483D01*
X141426202Y-104882328D01*
X141426206Y-104882335D01*
X141512452Y-104997544D01*
X141512455Y-104997547D01*
X141627664Y-105083793D01*
X141627671Y-105083797D01*
X141762517Y-105134091D01*
X141762516Y-105134091D01*
X141769444Y-105134835D01*
X141822127Y-105140500D01*
X144427872Y-105140499D01*
X144487483Y-105134091D01*
X144622331Y-105083796D01*
X144737546Y-104997546D01*
X144799199Y-104915188D01*
X144855132Y-104873318D01*
X144898465Y-104865500D01*
X148654616Y-104865500D01*
X148721655Y-104885185D01*
X148754935Y-104916616D01*
X148829892Y-105019788D01*
X148980213Y-105170109D01*
X149152182Y-105295050D01*
X149160946Y-105299516D01*
X149211742Y-105347491D01*
X149228536Y-105415312D01*
X149205998Y-105481447D01*
X149160946Y-105520484D01*
X149152182Y-105524949D01*
X148980213Y-105649890D01*
X148829892Y-105800211D01*
X148754935Y-105903384D01*
X148699605Y-105946051D01*
X148654616Y-105954500D01*
X148208465Y-105954500D01*
X148141426Y-105934815D01*
X148109198Y-105904811D01*
X148108130Y-105903384D01*
X148047546Y-105822454D01*
X148017829Y-105800208D01*
X147932335Y-105736206D01*
X147932328Y-105736202D01*
X147797482Y-105685908D01*
X147797483Y-105685908D01*
X147737883Y-105679501D01*
X147737881Y-105679500D01*
X147737873Y-105679500D01*
X147737864Y-105679500D01*
X145132129Y-105679500D01*
X145132123Y-105679501D01*
X145072516Y-105685908D01*
X144937671Y-105736202D01*
X144937664Y-105736206D01*
X144822455Y-105822452D01*
X144822452Y-105822455D01*
X144736206Y-105937664D01*
X144736202Y-105937671D01*
X144685908Y-106072517D01*
X144679501Y-106132116D01*
X144679501Y-106132123D01*
X144679500Y-106132135D01*
X144679500Y-107227870D01*
X144679501Y-107227876D01*
X144685908Y-107287483D01*
X144736202Y-107422328D01*
X144736206Y-107422335D01*
X144822452Y-107537544D01*
X144822455Y-107537547D01*
X144937664Y-107623793D01*
X144937671Y-107623797D01*
X145072517Y-107674091D01*
X145072516Y-107674091D01*
X145079444Y-107674835D01*
X145132127Y-107680500D01*
X147737872Y-107680499D01*
X147797483Y-107674091D01*
X147932331Y-107623796D01*
X148047546Y-107537546D01*
X148109199Y-107455188D01*
X148165132Y-107413318D01*
X148208465Y-107405500D01*
X148654616Y-107405500D01*
X148721655Y-107425185D01*
X148754935Y-107456616D01*
X148829892Y-107559788D01*
X148980213Y-107710109D01*
X149152182Y-107835050D01*
X149160946Y-107839516D01*
X149211742Y-107887491D01*
X149228536Y-107955312D01*
X149205998Y-108021447D01*
X149160946Y-108060484D01*
X149152182Y-108064949D01*
X148980213Y-108189890D01*
X148829892Y-108340211D01*
X148754935Y-108443384D01*
X148699605Y-108486051D01*
X148654616Y-108494500D01*
X144898465Y-108494500D01*
X144831426Y-108474815D01*
X144799198Y-108444811D01*
X144798130Y-108443384D01*
X144737546Y-108362454D01*
X144707829Y-108340208D01*
X144622335Y-108276206D01*
X144622328Y-108276202D01*
X144487482Y-108225908D01*
X144487483Y-108225908D01*
X144427883Y-108219501D01*
X144427881Y-108219500D01*
X144427873Y-108219500D01*
X144427864Y-108219500D01*
X141822129Y-108219500D01*
X141822123Y-108219501D01*
X141762516Y-108225908D01*
X141627671Y-108276202D01*
X141627664Y-108276206D01*
X141512455Y-108362452D01*
X141512452Y-108362455D01*
X141426206Y-108477664D01*
X141426202Y-108477671D01*
X141375908Y-108612517D01*
X141369501Y-108672116D01*
X141369501Y-108672123D01*
X141369500Y-108672135D01*
X141369500Y-109767870D01*
X141369501Y-109767876D01*
X141375908Y-109827483D01*
X141426202Y-109962328D01*
X141426206Y-109962335D01*
X141512452Y-110077544D01*
X141512455Y-110077547D01*
X141627664Y-110163793D01*
X141627671Y-110163797D01*
X141762517Y-110214091D01*
X141762516Y-110214091D01*
X141769444Y-110214835D01*
X141822127Y-110220500D01*
X144427872Y-110220499D01*
X144487483Y-110214091D01*
X144622331Y-110163796D01*
X144737546Y-110077546D01*
X144799199Y-109995188D01*
X144855132Y-109953318D01*
X144898465Y-109945500D01*
X148654616Y-109945500D01*
X148721655Y-109965185D01*
X148754935Y-109996616D01*
X148829892Y-110099788D01*
X148980213Y-110250109D01*
X149152182Y-110375050D01*
X149160946Y-110379516D01*
X149211742Y-110427491D01*
X149228536Y-110495312D01*
X149205998Y-110561447D01*
X149160946Y-110600484D01*
X149152182Y-110604949D01*
X148980213Y-110729890D01*
X148829892Y-110880211D01*
X148754935Y-110983384D01*
X148699605Y-111026051D01*
X148654616Y-111034500D01*
X148208465Y-111034500D01*
X148141426Y-111014815D01*
X148109198Y-110984811D01*
X148108130Y-110983384D01*
X148047546Y-110902454D01*
X148017829Y-110880208D01*
X147932335Y-110816206D01*
X147932328Y-110816202D01*
X147797482Y-110765908D01*
X147797483Y-110765908D01*
X147737883Y-110759501D01*
X147737881Y-110759500D01*
X147737873Y-110759500D01*
X147737864Y-110759500D01*
X145132129Y-110759500D01*
X145132123Y-110759501D01*
X145072516Y-110765908D01*
X144937671Y-110816202D01*
X144937664Y-110816206D01*
X144822455Y-110902452D01*
X144822452Y-110902455D01*
X144736206Y-111017664D01*
X144736202Y-111017671D01*
X144685908Y-111152517D01*
X144679501Y-111212116D01*
X144679501Y-111212123D01*
X144679500Y-111212135D01*
X144679500Y-112307870D01*
X144679501Y-112307876D01*
X144685908Y-112367483D01*
X144736202Y-112502328D01*
X144736206Y-112502335D01*
X144822452Y-112617544D01*
X144822455Y-112617547D01*
X144937664Y-112703793D01*
X144937671Y-112703797D01*
X145072517Y-112754091D01*
X145072516Y-112754091D01*
X145079444Y-112754835D01*
X145132127Y-112760500D01*
X147737872Y-112760499D01*
X147797483Y-112754091D01*
X147932331Y-112703796D01*
X148047546Y-112617546D01*
X148109199Y-112535188D01*
X148165132Y-112493318D01*
X148208465Y-112485500D01*
X148654616Y-112485500D01*
X148721655Y-112505185D01*
X148754935Y-112536616D01*
X148829892Y-112639788D01*
X148980213Y-112790109D01*
X149152182Y-112915050D01*
X149160946Y-112919516D01*
X149211742Y-112967491D01*
X149228536Y-113035312D01*
X149205998Y-113101447D01*
X149160946Y-113140484D01*
X149152182Y-113144949D01*
X148980213Y-113269890D01*
X148829892Y-113420211D01*
X148754935Y-113523384D01*
X148699605Y-113566051D01*
X148654616Y-113574500D01*
X144898465Y-113574500D01*
X144831426Y-113554815D01*
X144799198Y-113524811D01*
X144798130Y-113523384D01*
X144737546Y-113442454D01*
X144707829Y-113420208D01*
X144622335Y-113356206D01*
X144622328Y-113356202D01*
X144487482Y-113305908D01*
X144487483Y-113305908D01*
X144427883Y-113299501D01*
X144427881Y-113299500D01*
X144427873Y-113299500D01*
X144427864Y-113299500D01*
X141822129Y-113299500D01*
X141822123Y-113299501D01*
X141762516Y-113305908D01*
X141627671Y-113356202D01*
X141627664Y-113356206D01*
X141512455Y-113442452D01*
X141512452Y-113442455D01*
X141426206Y-113557664D01*
X141426202Y-113557671D01*
X141375908Y-113692517D01*
X141369501Y-113752116D01*
X141369501Y-113752123D01*
X141369500Y-113752135D01*
X141369500Y-114847870D01*
X141369501Y-114847876D01*
X141375908Y-114907483D01*
X141426202Y-115042328D01*
X141426206Y-115042335D01*
X141512452Y-115157544D01*
X141512455Y-115157547D01*
X141627664Y-115243793D01*
X141627671Y-115243797D01*
X141762517Y-115294091D01*
X141762516Y-115294091D01*
X141769444Y-115294835D01*
X141822127Y-115300500D01*
X144427872Y-115300499D01*
X144487483Y-115294091D01*
X144622331Y-115243796D01*
X144737546Y-115157546D01*
X144799199Y-115075188D01*
X144855132Y-115033318D01*
X144898465Y-115025500D01*
X148654616Y-115025500D01*
X148721655Y-115045185D01*
X148754935Y-115076616D01*
X148829892Y-115179788D01*
X148980213Y-115330109D01*
X149152182Y-115455050D01*
X149160946Y-115459516D01*
X149211742Y-115507491D01*
X149228536Y-115575312D01*
X149205998Y-115641447D01*
X149160946Y-115680484D01*
X149152182Y-115684949D01*
X148980213Y-115809890D01*
X148829892Y-115960211D01*
X148754935Y-116063384D01*
X148699605Y-116106051D01*
X148654616Y-116114500D01*
X148208465Y-116114500D01*
X148141426Y-116094815D01*
X148109198Y-116064811D01*
X148108130Y-116063384D01*
X148047546Y-115982454D01*
X148017829Y-115960208D01*
X147932335Y-115896206D01*
X147932328Y-115896202D01*
X147797482Y-115845908D01*
X147797483Y-115845908D01*
X147737883Y-115839501D01*
X147737881Y-115839500D01*
X147737873Y-115839500D01*
X147737864Y-115839500D01*
X145132129Y-115839500D01*
X145132123Y-115839501D01*
X145072516Y-115845908D01*
X144937671Y-115896202D01*
X144937664Y-115896206D01*
X144822455Y-115982452D01*
X144822452Y-115982455D01*
X144736206Y-116097664D01*
X144736202Y-116097671D01*
X144685908Y-116232517D01*
X144679501Y-116292116D01*
X144679501Y-116292123D01*
X144679500Y-116292135D01*
X144679500Y-117387870D01*
X144679501Y-117387876D01*
X144685908Y-117447483D01*
X144736202Y-117582328D01*
X144736206Y-117582335D01*
X144822452Y-117697544D01*
X144822455Y-117697547D01*
X144937664Y-117783793D01*
X144937671Y-117783797D01*
X145072517Y-117834091D01*
X145072516Y-117834091D01*
X145079444Y-117834835D01*
X145132127Y-117840500D01*
X147737872Y-117840499D01*
X147797483Y-117834091D01*
X147932331Y-117783796D01*
X148047546Y-117697546D01*
X148109199Y-117615188D01*
X148165132Y-117573318D01*
X148208465Y-117565500D01*
X148654616Y-117565500D01*
X148721655Y-117585185D01*
X148754935Y-117616616D01*
X148829892Y-117719788D01*
X148980213Y-117870109D01*
X149152182Y-117995050D01*
X149160946Y-117999516D01*
X149211742Y-118047491D01*
X149228536Y-118115312D01*
X149205998Y-118181447D01*
X149160946Y-118220484D01*
X149152182Y-118224949D01*
X148980213Y-118349890D01*
X148829892Y-118500211D01*
X148754935Y-118603384D01*
X148699605Y-118646051D01*
X148654616Y-118654500D01*
X144898465Y-118654500D01*
X144831426Y-118634815D01*
X144799198Y-118604811D01*
X144798130Y-118603384D01*
X144737546Y-118522454D01*
X144707829Y-118500208D01*
X144622335Y-118436206D01*
X144622328Y-118436202D01*
X144487482Y-118385908D01*
X144487483Y-118385908D01*
X144427883Y-118379501D01*
X144427881Y-118379500D01*
X144427873Y-118379500D01*
X144427864Y-118379500D01*
X141822129Y-118379500D01*
X141822123Y-118379501D01*
X141762516Y-118385908D01*
X141627671Y-118436202D01*
X141627664Y-118436206D01*
X141512455Y-118522452D01*
X141512452Y-118522455D01*
X141426206Y-118637664D01*
X141426202Y-118637671D01*
X141375908Y-118772517D01*
X141369501Y-118832116D01*
X141369501Y-118832123D01*
X141369500Y-118832135D01*
X141369500Y-119927870D01*
X141369501Y-119927876D01*
X141375908Y-119987483D01*
X141426202Y-120122328D01*
X141426206Y-120122335D01*
X141512452Y-120237544D01*
X141512455Y-120237547D01*
X141627664Y-120323793D01*
X141627671Y-120323797D01*
X141762517Y-120374091D01*
X141762516Y-120374091D01*
X141769444Y-120374835D01*
X141822127Y-120380500D01*
X144427872Y-120380499D01*
X144487483Y-120374091D01*
X144622331Y-120323796D01*
X144737546Y-120237546D01*
X144799199Y-120155188D01*
X144855132Y-120113318D01*
X144898465Y-120105500D01*
X148654616Y-120105500D01*
X148721655Y-120125185D01*
X148754935Y-120156616D01*
X148829892Y-120259788D01*
X148980213Y-120410109D01*
X149152182Y-120535050D01*
X149160946Y-120539516D01*
X149211742Y-120587491D01*
X149228536Y-120655312D01*
X149205998Y-120721447D01*
X149160946Y-120760484D01*
X149152182Y-120764949D01*
X148980213Y-120889890D01*
X148829892Y-121040211D01*
X148754935Y-121143384D01*
X148699605Y-121186051D01*
X148654616Y-121194500D01*
X148208465Y-121194500D01*
X148141426Y-121174815D01*
X148109198Y-121144811D01*
X148108130Y-121143384D01*
X148047546Y-121062454D01*
X148017829Y-121040208D01*
X147932335Y-120976206D01*
X147932328Y-120976202D01*
X147797482Y-120925908D01*
X147797483Y-120925908D01*
X147737883Y-120919501D01*
X147737881Y-120919500D01*
X147737873Y-120919500D01*
X147737864Y-120919500D01*
X145132129Y-120919500D01*
X145132123Y-120919501D01*
X145072516Y-120925908D01*
X144937671Y-120976202D01*
X144937664Y-120976206D01*
X144822455Y-121062452D01*
X144822452Y-121062455D01*
X144736206Y-121177664D01*
X144736202Y-121177671D01*
X144685908Y-121312517D01*
X144679501Y-121372116D01*
X144679501Y-121372123D01*
X144679500Y-121372135D01*
X144679500Y-122467870D01*
X144679501Y-122467876D01*
X144685908Y-122527483D01*
X144736202Y-122662328D01*
X144736206Y-122662335D01*
X144822452Y-122777544D01*
X144822455Y-122777547D01*
X144937664Y-122863793D01*
X144937671Y-122863797D01*
X145072517Y-122914091D01*
X145072516Y-122914091D01*
X145079444Y-122914835D01*
X145132127Y-122920500D01*
X147737872Y-122920499D01*
X147797483Y-122914091D01*
X147932331Y-122863796D01*
X148047546Y-122777546D01*
X148109199Y-122695188D01*
X148165132Y-122653318D01*
X148208465Y-122645500D01*
X148654616Y-122645500D01*
X148721655Y-122665185D01*
X148754935Y-122696616D01*
X148829892Y-122799788D01*
X148980213Y-122950109D01*
X149152182Y-123075050D01*
X149160946Y-123079516D01*
X149211742Y-123127491D01*
X149228536Y-123195312D01*
X149205998Y-123261447D01*
X149160946Y-123300484D01*
X149152182Y-123304949D01*
X148980213Y-123429890D01*
X148829892Y-123580211D01*
X148754935Y-123683384D01*
X148699605Y-123726051D01*
X148654616Y-123734500D01*
X144898465Y-123734500D01*
X144831426Y-123714815D01*
X144799198Y-123684811D01*
X144798130Y-123683384D01*
X144737546Y-123602454D01*
X144707829Y-123580208D01*
X144622335Y-123516206D01*
X144622328Y-123516202D01*
X144487482Y-123465908D01*
X144487483Y-123465908D01*
X144427883Y-123459501D01*
X144427881Y-123459500D01*
X144427873Y-123459500D01*
X144427864Y-123459500D01*
X141822129Y-123459500D01*
X141822123Y-123459501D01*
X141762516Y-123465908D01*
X141627671Y-123516202D01*
X141627664Y-123516206D01*
X141512455Y-123602452D01*
X141512452Y-123602455D01*
X141426206Y-123717664D01*
X141426202Y-123717671D01*
X141375908Y-123852517D01*
X141369501Y-123912116D01*
X141369501Y-123912123D01*
X141369500Y-123912135D01*
X141369500Y-125007870D01*
X141369501Y-125007876D01*
X141375908Y-125067483D01*
X141426202Y-125202328D01*
X141426206Y-125202335D01*
X141512452Y-125317544D01*
X141512455Y-125317547D01*
X141627664Y-125403793D01*
X141627671Y-125403797D01*
X141762517Y-125454091D01*
X141762516Y-125454091D01*
X141769444Y-125454835D01*
X141822127Y-125460500D01*
X144427872Y-125460499D01*
X144487483Y-125454091D01*
X144622331Y-125403796D01*
X144737546Y-125317546D01*
X144799199Y-125235188D01*
X144855132Y-125193318D01*
X144898465Y-125185500D01*
X148654616Y-125185500D01*
X148721655Y-125205185D01*
X148754935Y-125236616D01*
X148829892Y-125339788D01*
X148980213Y-125490109D01*
X149152182Y-125615050D01*
X149160946Y-125619516D01*
X149211742Y-125667491D01*
X149228536Y-125735312D01*
X149205998Y-125801447D01*
X149160946Y-125840484D01*
X149152182Y-125844949D01*
X148980213Y-125969890D01*
X148829892Y-126120211D01*
X148754935Y-126223384D01*
X148699605Y-126266051D01*
X148654616Y-126274500D01*
X148208465Y-126274500D01*
X148141426Y-126254815D01*
X148109198Y-126224811D01*
X148108130Y-126223384D01*
X148047546Y-126142454D01*
X148017829Y-126120208D01*
X147932335Y-126056206D01*
X147932328Y-126056202D01*
X147797482Y-126005908D01*
X147797483Y-126005908D01*
X147737883Y-125999501D01*
X147737881Y-125999500D01*
X147737873Y-125999500D01*
X147737864Y-125999500D01*
X145132129Y-125999500D01*
X145132123Y-125999501D01*
X145072516Y-126005908D01*
X144937671Y-126056202D01*
X144937664Y-126056206D01*
X144822455Y-126142452D01*
X144822452Y-126142455D01*
X144736206Y-126257664D01*
X144736202Y-126257671D01*
X144685908Y-126392517D01*
X144679501Y-126452116D01*
X144679501Y-126452123D01*
X144679500Y-126452135D01*
X144679500Y-127547870D01*
X144679501Y-127547876D01*
X144685908Y-127607483D01*
X144736202Y-127742328D01*
X144736206Y-127742335D01*
X144822452Y-127857544D01*
X144822455Y-127857547D01*
X144937664Y-127943793D01*
X144937671Y-127943797D01*
X145072517Y-127994091D01*
X145072516Y-127994091D01*
X145079444Y-127994835D01*
X145132127Y-128000500D01*
X147737872Y-128000499D01*
X147797483Y-127994091D01*
X147932331Y-127943796D01*
X148047546Y-127857546D01*
X148109199Y-127775188D01*
X148165132Y-127733318D01*
X148208465Y-127725500D01*
X148654616Y-127725500D01*
X148721655Y-127745185D01*
X148754935Y-127776616D01*
X148829892Y-127879788D01*
X148980213Y-128030109D01*
X149152182Y-128155050D01*
X149160946Y-128159516D01*
X149211742Y-128207491D01*
X149228536Y-128275312D01*
X149205998Y-128341447D01*
X149160946Y-128380484D01*
X149152182Y-128384949D01*
X148980213Y-128509890D01*
X148829892Y-128660211D01*
X148754935Y-128763384D01*
X148699605Y-128806051D01*
X148654616Y-128814500D01*
X144898465Y-128814500D01*
X144831426Y-128794815D01*
X144799198Y-128764811D01*
X144798130Y-128763384D01*
X144737546Y-128682454D01*
X144707829Y-128660208D01*
X144622335Y-128596206D01*
X144622328Y-128596202D01*
X144487482Y-128545908D01*
X144487483Y-128545908D01*
X144427883Y-128539501D01*
X144427881Y-128539500D01*
X144427873Y-128539500D01*
X144427864Y-128539500D01*
X141822129Y-128539500D01*
X141822123Y-128539501D01*
X141762516Y-128545908D01*
X141627671Y-128596202D01*
X141627664Y-128596206D01*
X141512455Y-128682452D01*
X141512452Y-128682455D01*
X141426206Y-128797664D01*
X141426202Y-128797671D01*
X141375908Y-128932517D01*
X141369501Y-128992116D01*
X141369501Y-128992123D01*
X141369500Y-128992135D01*
X141369500Y-130087870D01*
X141369501Y-130087876D01*
X141375908Y-130147483D01*
X141426202Y-130282328D01*
X141426206Y-130282335D01*
X141512452Y-130397544D01*
X141512455Y-130397547D01*
X141627664Y-130483793D01*
X141627671Y-130483797D01*
X141762517Y-130534091D01*
X141762516Y-130534091D01*
X141769444Y-130534835D01*
X141822127Y-130540500D01*
X144427872Y-130540499D01*
X144487483Y-130534091D01*
X144622331Y-130483796D01*
X144737546Y-130397546D01*
X144799199Y-130315188D01*
X144855132Y-130273318D01*
X144898465Y-130265500D01*
X148654616Y-130265500D01*
X148721655Y-130285185D01*
X148754935Y-130316616D01*
X148829892Y-130419788D01*
X148980213Y-130570109D01*
X149152182Y-130695050D01*
X149160946Y-130699516D01*
X149211742Y-130747491D01*
X149228536Y-130815312D01*
X149205998Y-130881447D01*
X149160946Y-130920484D01*
X149152182Y-130924949D01*
X148980213Y-131049890D01*
X148829892Y-131200211D01*
X148754935Y-131303384D01*
X148699605Y-131346051D01*
X148654616Y-131354500D01*
X148208465Y-131354500D01*
X148141426Y-131334815D01*
X148109198Y-131304811D01*
X148108130Y-131303384D01*
X148047546Y-131222454D01*
X148017829Y-131200208D01*
X147932335Y-131136206D01*
X147932328Y-131136202D01*
X147797482Y-131085908D01*
X147797483Y-131085908D01*
X147737883Y-131079501D01*
X147737881Y-131079500D01*
X147737873Y-131079500D01*
X147737864Y-131079500D01*
X145132129Y-131079500D01*
X145132123Y-131079501D01*
X145072516Y-131085908D01*
X144937671Y-131136202D01*
X144937664Y-131136206D01*
X144822455Y-131222452D01*
X144822452Y-131222455D01*
X144736206Y-131337664D01*
X144736202Y-131337671D01*
X144685908Y-131472517D01*
X144679501Y-131532116D01*
X144679501Y-131532123D01*
X144679500Y-131532135D01*
X144679500Y-132627870D01*
X144679501Y-132627876D01*
X144685908Y-132687483D01*
X144736202Y-132822328D01*
X144736206Y-132822335D01*
X144822452Y-132937544D01*
X144822455Y-132937547D01*
X144937664Y-133023793D01*
X144937671Y-133023797D01*
X145072517Y-133074091D01*
X145072516Y-133074091D01*
X145079444Y-133074835D01*
X145132127Y-133080500D01*
X147737872Y-133080499D01*
X147797483Y-133074091D01*
X147932331Y-133023796D01*
X148047546Y-132937546D01*
X148109199Y-132855188D01*
X148165132Y-132813318D01*
X148208465Y-132805500D01*
X148654616Y-132805500D01*
X148721655Y-132825185D01*
X148754935Y-132856616D01*
X148829892Y-132959788D01*
X148980213Y-133110109D01*
X149152182Y-133235050D01*
X149160946Y-133239516D01*
X149211742Y-133287491D01*
X149228536Y-133355312D01*
X149205998Y-133421447D01*
X149160946Y-133460484D01*
X149152182Y-133464949D01*
X148980213Y-133589890D01*
X148829892Y-133740211D01*
X148754935Y-133843384D01*
X148699605Y-133886051D01*
X148654616Y-133894500D01*
X144898465Y-133894500D01*
X144831426Y-133874815D01*
X144799198Y-133844811D01*
X144798130Y-133843384D01*
X144737546Y-133762454D01*
X144707829Y-133740208D01*
X144622335Y-133676206D01*
X144622328Y-133676202D01*
X144487482Y-133625908D01*
X144487483Y-133625908D01*
X144427883Y-133619501D01*
X144427881Y-133619500D01*
X144427873Y-133619500D01*
X144427864Y-133619500D01*
X141822129Y-133619500D01*
X141822123Y-133619501D01*
X141762516Y-133625908D01*
X141627671Y-133676202D01*
X141627664Y-133676206D01*
X141512455Y-133762452D01*
X141512452Y-133762455D01*
X141426206Y-133877664D01*
X141426202Y-133877671D01*
X141375908Y-134012517D01*
X141369501Y-134072116D01*
X141369501Y-134072123D01*
X141369500Y-134072135D01*
X141369500Y-135167870D01*
X141369501Y-135167876D01*
X141375908Y-135227483D01*
X141426202Y-135362328D01*
X141426206Y-135362335D01*
X141512452Y-135477544D01*
X141512455Y-135477547D01*
X141627664Y-135563793D01*
X141627671Y-135563797D01*
X141762517Y-135614091D01*
X141762516Y-135614091D01*
X141769444Y-135614835D01*
X141822127Y-135620500D01*
X144427872Y-135620499D01*
X144487483Y-135614091D01*
X144622331Y-135563796D01*
X144737546Y-135477546D01*
X144799199Y-135395188D01*
X144855132Y-135353318D01*
X144898465Y-135345500D01*
X148654616Y-135345500D01*
X148721655Y-135365185D01*
X148754935Y-135396616D01*
X148829892Y-135499788D01*
X148980213Y-135650109D01*
X149152182Y-135775050D01*
X149160946Y-135779516D01*
X149211742Y-135827491D01*
X149228536Y-135895312D01*
X149205998Y-135961447D01*
X149160946Y-136000484D01*
X149152182Y-136004949D01*
X148980213Y-136129890D01*
X148829892Y-136280211D01*
X148754935Y-136383384D01*
X148699605Y-136426051D01*
X148654616Y-136434500D01*
X148208465Y-136434500D01*
X148141426Y-136414815D01*
X148109198Y-136384811D01*
X148108130Y-136383384D01*
X148047546Y-136302454D01*
X148017829Y-136280208D01*
X147932335Y-136216206D01*
X147932328Y-136216202D01*
X147797482Y-136165908D01*
X147797483Y-136165908D01*
X147737883Y-136159501D01*
X147737881Y-136159500D01*
X147737873Y-136159500D01*
X147737864Y-136159500D01*
X145132129Y-136159500D01*
X145132123Y-136159501D01*
X145072516Y-136165908D01*
X144937671Y-136216202D01*
X144937664Y-136216206D01*
X144822455Y-136302452D01*
X144822452Y-136302455D01*
X144736206Y-136417664D01*
X144736202Y-136417671D01*
X144685908Y-136552517D01*
X144679501Y-136612116D01*
X144679501Y-136612123D01*
X144679500Y-136612135D01*
X144679500Y-137707870D01*
X144679501Y-137707876D01*
X144685908Y-137767483D01*
X144736202Y-137902328D01*
X144736206Y-137902335D01*
X144822452Y-138017544D01*
X144822455Y-138017547D01*
X144937664Y-138103793D01*
X144937671Y-138103797D01*
X145072517Y-138154091D01*
X145072516Y-138154091D01*
X145079444Y-138154835D01*
X145132127Y-138160500D01*
X147737872Y-138160499D01*
X147797483Y-138154091D01*
X147932331Y-138103796D01*
X148047546Y-138017546D01*
X148109199Y-137935188D01*
X148165132Y-137893318D01*
X148208465Y-137885500D01*
X148654616Y-137885500D01*
X148721655Y-137905185D01*
X148754935Y-137936616D01*
X148829892Y-138039788D01*
X148980213Y-138190109D01*
X149152182Y-138315050D01*
X149160946Y-138319516D01*
X149211742Y-138367491D01*
X149228536Y-138435312D01*
X149205998Y-138501447D01*
X149160946Y-138540484D01*
X149152182Y-138544949D01*
X148980213Y-138669890D01*
X148829892Y-138820211D01*
X148754935Y-138923384D01*
X148699605Y-138966051D01*
X148654616Y-138974500D01*
X144898465Y-138974500D01*
X144831426Y-138954815D01*
X144799198Y-138924811D01*
X144798130Y-138923384D01*
X144737546Y-138842454D01*
X144707829Y-138820208D01*
X144622335Y-138756206D01*
X144622328Y-138756202D01*
X144487482Y-138705908D01*
X144487483Y-138705908D01*
X144427883Y-138699501D01*
X144427881Y-138699500D01*
X144427873Y-138699500D01*
X144427864Y-138699500D01*
X141822129Y-138699500D01*
X141822123Y-138699501D01*
X141762516Y-138705908D01*
X141627671Y-138756202D01*
X141627664Y-138756206D01*
X141512455Y-138842452D01*
X141512452Y-138842455D01*
X141426206Y-138957664D01*
X141426202Y-138957671D01*
X141375908Y-139092517D01*
X141369501Y-139152116D01*
X141369501Y-139152123D01*
X141369500Y-139152135D01*
X141369500Y-140247870D01*
X141369501Y-140247876D01*
X141375908Y-140307483D01*
X141426202Y-140442328D01*
X141426206Y-140442335D01*
X141512452Y-140557544D01*
X141512455Y-140557547D01*
X141627664Y-140643793D01*
X141627671Y-140643797D01*
X141762517Y-140694091D01*
X141762516Y-140694091D01*
X141769444Y-140694835D01*
X141822127Y-140700500D01*
X144427872Y-140700499D01*
X144487483Y-140694091D01*
X144622331Y-140643796D01*
X144737546Y-140557546D01*
X144799199Y-140475188D01*
X144855132Y-140433318D01*
X144898465Y-140425500D01*
X148654616Y-140425500D01*
X148721655Y-140445185D01*
X148754935Y-140476616D01*
X148829892Y-140579788D01*
X148980213Y-140730109D01*
X149152182Y-140855050D01*
X149160946Y-140859516D01*
X149211742Y-140907491D01*
X149228536Y-140975312D01*
X149205998Y-141041447D01*
X149160946Y-141080484D01*
X149152182Y-141084949D01*
X148980213Y-141209890D01*
X148829892Y-141360211D01*
X148754935Y-141463384D01*
X148699605Y-141506051D01*
X148654616Y-141514500D01*
X148208465Y-141514500D01*
X148141426Y-141494815D01*
X148109198Y-141464811D01*
X148108130Y-141463384D01*
X148047546Y-141382454D01*
X148017829Y-141360208D01*
X147932335Y-141296206D01*
X147932328Y-141296202D01*
X147797482Y-141245908D01*
X147797483Y-141245908D01*
X147737883Y-141239501D01*
X147737881Y-141239500D01*
X147737873Y-141239500D01*
X147737864Y-141239500D01*
X145132129Y-141239500D01*
X145132123Y-141239501D01*
X145072516Y-141245908D01*
X144937671Y-141296202D01*
X144937664Y-141296206D01*
X144822455Y-141382452D01*
X144822452Y-141382455D01*
X144736206Y-141497664D01*
X144736202Y-141497671D01*
X144685908Y-141632517D01*
X144679501Y-141692116D01*
X144679501Y-141692123D01*
X144679500Y-141692135D01*
X144679500Y-142787870D01*
X144679501Y-142787876D01*
X144685908Y-142847483D01*
X144736202Y-142982328D01*
X144736206Y-142982335D01*
X144822452Y-143097544D01*
X144822455Y-143097547D01*
X144937664Y-143183793D01*
X144937671Y-143183797D01*
X145072517Y-143234091D01*
X145072516Y-143234091D01*
X145079444Y-143234835D01*
X145132127Y-143240500D01*
X147737872Y-143240499D01*
X147797483Y-143234091D01*
X147932331Y-143183796D01*
X148047546Y-143097546D01*
X148109199Y-143015188D01*
X148165132Y-142973318D01*
X148208465Y-142965500D01*
X148654616Y-142965500D01*
X148721655Y-142985185D01*
X148754935Y-143016616D01*
X148829892Y-143119788D01*
X148980213Y-143270109D01*
X149152182Y-143395050D01*
X149160946Y-143399516D01*
X149211742Y-143447491D01*
X149228536Y-143515312D01*
X149205998Y-143581447D01*
X149160946Y-143620484D01*
X149152182Y-143624949D01*
X148980213Y-143749890D01*
X148829892Y-143900211D01*
X148754935Y-144003384D01*
X148699605Y-144046051D01*
X148654616Y-144054500D01*
X144898465Y-144054500D01*
X144831426Y-144034815D01*
X144799198Y-144004811D01*
X144798130Y-144003384D01*
X144737546Y-143922454D01*
X144707829Y-143900208D01*
X144622335Y-143836206D01*
X144622328Y-143836202D01*
X144487482Y-143785908D01*
X144487483Y-143785908D01*
X144427883Y-143779501D01*
X144427881Y-143779500D01*
X144427873Y-143779500D01*
X144427864Y-143779500D01*
X141822129Y-143779500D01*
X141822123Y-143779501D01*
X141762516Y-143785908D01*
X141627671Y-143836202D01*
X141627664Y-143836206D01*
X141512455Y-143922452D01*
X141512452Y-143922455D01*
X141426206Y-144037664D01*
X141426202Y-144037671D01*
X141375908Y-144172517D01*
X141369501Y-144232116D01*
X141369501Y-144232123D01*
X141369500Y-144232135D01*
X141369500Y-145327870D01*
X141369501Y-145327876D01*
X141375908Y-145387483D01*
X141426202Y-145522328D01*
X141426206Y-145522335D01*
X141512452Y-145637544D01*
X141512455Y-145637547D01*
X141627664Y-145723793D01*
X141627671Y-145723797D01*
X141762517Y-145774091D01*
X141762516Y-145774091D01*
X141769444Y-145774835D01*
X141822127Y-145780500D01*
X144427872Y-145780499D01*
X144487483Y-145774091D01*
X144622331Y-145723796D01*
X144737546Y-145637546D01*
X144799199Y-145555188D01*
X144855132Y-145513318D01*
X144898465Y-145505500D01*
X148654616Y-145505500D01*
X148721655Y-145525185D01*
X148754935Y-145556616D01*
X148829892Y-145659788D01*
X148980213Y-145810109D01*
X149152182Y-145935050D01*
X149160946Y-145939516D01*
X149211742Y-145987491D01*
X149228536Y-146055312D01*
X149205998Y-146121447D01*
X149160946Y-146160484D01*
X149152182Y-146164949D01*
X148980213Y-146289890D01*
X148829892Y-146440211D01*
X148754935Y-146543384D01*
X148699605Y-146586051D01*
X148654616Y-146594500D01*
X148208465Y-146594500D01*
X148141426Y-146574815D01*
X148109198Y-146544811D01*
X148108130Y-146543384D01*
X148047546Y-146462454D01*
X148017829Y-146440208D01*
X147932335Y-146376206D01*
X147932328Y-146376202D01*
X147797482Y-146325908D01*
X147797483Y-146325908D01*
X147737883Y-146319501D01*
X147737881Y-146319500D01*
X147737873Y-146319500D01*
X147737864Y-146319500D01*
X145132129Y-146319500D01*
X145132123Y-146319501D01*
X145072516Y-146325908D01*
X144937671Y-146376202D01*
X144937664Y-146376206D01*
X144822455Y-146462452D01*
X144822452Y-146462455D01*
X144736206Y-146577664D01*
X144736202Y-146577671D01*
X144685908Y-146712517D01*
X144679501Y-146772116D01*
X144679501Y-146772123D01*
X144679500Y-146772135D01*
X144679500Y-147867870D01*
X144679501Y-147867876D01*
X144685908Y-147927483D01*
X144736202Y-148062328D01*
X144736206Y-148062335D01*
X144822452Y-148177544D01*
X144822455Y-148177547D01*
X144937664Y-148263793D01*
X144937671Y-148263797D01*
X145072517Y-148314091D01*
X145072516Y-148314091D01*
X145079444Y-148314835D01*
X145132127Y-148320500D01*
X147737872Y-148320499D01*
X147797483Y-148314091D01*
X147932331Y-148263796D01*
X148047546Y-148177546D01*
X148109199Y-148095188D01*
X148165132Y-148053318D01*
X148208465Y-148045500D01*
X148654616Y-148045500D01*
X148721655Y-148065185D01*
X148754935Y-148096616D01*
X148829892Y-148199788D01*
X148980213Y-148350109D01*
X149152182Y-148475050D01*
X149160946Y-148479516D01*
X149211742Y-148527491D01*
X149228536Y-148595312D01*
X149205998Y-148661447D01*
X149160946Y-148700484D01*
X149152182Y-148704949D01*
X148980213Y-148829890D01*
X148829892Y-148980211D01*
X148754935Y-149083384D01*
X148699605Y-149126051D01*
X148654616Y-149134500D01*
X144898465Y-149134500D01*
X144831426Y-149114815D01*
X144799198Y-149084811D01*
X144798130Y-149083384D01*
X144737546Y-149002454D01*
X144707829Y-148980208D01*
X144622335Y-148916206D01*
X144622328Y-148916202D01*
X144487482Y-148865908D01*
X144487483Y-148865908D01*
X144427883Y-148859501D01*
X144427881Y-148859500D01*
X144427873Y-148859500D01*
X144427864Y-148859500D01*
X141822129Y-148859500D01*
X141822123Y-148859501D01*
X141762516Y-148865908D01*
X141627671Y-148916202D01*
X141627664Y-148916206D01*
X141512455Y-149002452D01*
X141512452Y-149002455D01*
X141426206Y-149117664D01*
X141426202Y-149117671D01*
X141375908Y-149252517D01*
X141369501Y-149312116D01*
X141369501Y-149312123D01*
X141369500Y-149312135D01*
X141369500Y-150407870D01*
X141369501Y-150407876D01*
X141375908Y-150467483D01*
X141426202Y-150602328D01*
X141426206Y-150602335D01*
X141512452Y-150717544D01*
X141512455Y-150717547D01*
X141627664Y-150803793D01*
X141627671Y-150803797D01*
X141762517Y-150854091D01*
X141762516Y-150854091D01*
X141769444Y-150854835D01*
X141822127Y-150860500D01*
X144427872Y-150860499D01*
X144487483Y-150854091D01*
X144622331Y-150803796D01*
X144737546Y-150717546D01*
X144799199Y-150635188D01*
X144855132Y-150593318D01*
X144898465Y-150585500D01*
X148654616Y-150585500D01*
X148721655Y-150605185D01*
X148754935Y-150636616D01*
X148829892Y-150739788D01*
X148980213Y-150890109D01*
X149152182Y-151015050D01*
X149160946Y-151019516D01*
X149211742Y-151067491D01*
X149228536Y-151135312D01*
X149205998Y-151201447D01*
X149160946Y-151240484D01*
X149152182Y-151244949D01*
X148980213Y-151369890D01*
X148829892Y-151520211D01*
X148754935Y-151623384D01*
X148699605Y-151666051D01*
X148654616Y-151674500D01*
X148208465Y-151674500D01*
X148141426Y-151654815D01*
X148109198Y-151624811D01*
X148108130Y-151623384D01*
X148047546Y-151542454D01*
X148017829Y-151520208D01*
X147932335Y-151456206D01*
X147932328Y-151456202D01*
X147797482Y-151405908D01*
X147797483Y-151405908D01*
X147737883Y-151399501D01*
X147737881Y-151399500D01*
X147737873Y-151399500D01*
X147737864Y-151399500D01*
X145132129Y-151399500D01*
X145132123Y-151399501D01*
X145072516Y-151405908D01*
X144937671Y-151456202D01*
X144937664Y-151456206D01*
X144822455Y-151542452D01*
X144822452Y-151542455D01*
X144736206Y-151657664D01*
X144736202Y-151657671D01*
X144685908Y-151792517D01*
X144679501Y-151852116D01*
X144679501Y-151852123D01*
X144679500Y-151852135D01*
X144679500Y-152947870D01*
X144679501Y-152947876D01*
X144685908Y-153007483D01*
X144736202Y-153142328D01*
X144736206Y-153142335D01*
X144822452Y-153257544D01*
X144822455Y-153257547D01*
X144937664Y-153343793D01*
X144937671Y-153343797D01*
X145072517Y-153394091D01*
X145072516Y-153394091D01*
X145079444Y-153394835D01*
X145132127Y-153400500D01*
X147737872Y-153400499D01*
X147797483Y-153394091D01*
X147932331Y-153343796D01*
X148047546Y-153257546D01*
X148109199Y-153175188D01*
X148165132Y-153133318D01*
X148208465Y-153125500D01*
X148654616Y-153125500D01*
X148721655Y-153145185D01*
X148754935Y-153176616D01*
X148829892Y-153279788D01*
X148980213Y-153430109D01*
X149152182Y-153555050D01*
X149160946Y-153559516D01*
X149211742Y-153607491D01*
X149228536Y-153675312D01*
X149205998Y-153741447D01*
X149160946Y-153780484D01*
X149152182Y-153784949D01*
X148980213Y-153909890D01*
X148829892Y-154060211D01*
X148754935Y-154163384D01*
X148699605Y-154206051D01*
X148654616Y-154214500D01*
X144898465Y-154214500D01*
X144831426Y-154194815D01*
X144799198Y-154164811D01*
X144798130Y-154163384D01*
X144737546Y-154082454D01*
X144707829Y-154060208D01*
X144622335Y-153996206D01*
X144622328Y-153996202D01*
X144487482Y-153945908D01*
X144487483Y-153945908D01*
X144427883Y-153939501D01*
X144427881Y-153939500D01*
X144427873Y-153939500D01*
X144427864Y-153939500D01*
X141822129Y-153939500D01*
X141822123Y-153939501D01*
X141762516Y-153945908D01*
X141627671Y-153996202D01*
X141627664Y-153996206D01*
X141512455Y-154082452D01*
X141512452Y-154082455D01*
X141426206Y-154197664D01*
X141426202Y-154197671D01*
X141375908Y-154332517D01*
X141369501Y-154392116D01*
X141369501Y-154392123D01*
X141369500Y-154392135D01*
X141369500Y-155487870D01*
X141369501Y-155487876D01*
X141375908Y-155547483D01*
X141426202Y-155682328D01*
X141426206Y-155682335D01*
X141512452Y-155797544D01*
X141512455Y-155797547D01*
X141627664Y-155883793D01*
X141627671Y-155883797D01*
X141762517Y-155934091D01*
X141762516Y-155934091D01*
X141769444Y-155934835D01*
X141822127Y-155940500D01*
X144427872Y-155940499D01*
X144487483Y-155934091D01*
X144622331Y-155883796D01*
X144737546Y-155797546D01*
X144799199Y-155715188D01*
X144855132Y-155673318D01*
X144898465Y-155665500D01*
X148654616Y-155665500D01*
X148721655Y-155685185D01*
X148754935Y-155716616D01*
X148829892Y-155819788D01*
X148980213Y-155970109D01*
X149152179Y-156095048D01*
X149152181Y-156095049D01*
X149152184Y-156095051D01*
X149341588Y-156191557D01*
X149543757Y-156257246D01*
X149753713Y-156290500D01*
X149753714Y-156290500D01*
X149966286Y-156290500D01*
X149966287Y-156290500D01*
X150176243Y-156257246D01*
X150378412Y-156191557D01*
X150449205Y-156155485D01*
X150517874Y-156142590D01*
X150582614Y-156168866D01*
X150622872Y-156225972D01*
X150629500Y-156265971D01*
X150629500Y-158125500D01*
X150609815Y-158192539D01*
X150557011Y-158238294D01*
X150505500Y-158249500D01*
X126354500Y-158249500D01*
X126287461Y-158229815D01*
X126241706Y-158177011D01*
X126230500Y-158125500D01*
X126230500Y-156265971D01*
X126250185Y-156198932D01*
X126302989Y-156153177D01*
X126372147Y-156143233D01*
X126410793Y-156155485D01*
X126481588Y-156191557D01*
X126683757Y-156257246D01*
X126893713Y-156290500D01*
X126893714Y-156290500D01*
X127106286Y-156290500D01*
X127106287Y-156290500D01*
X127316243Y-156257246D01*
X127518412Y-156191557D01*
X127707816Y-156095051D01*
X127729789Y-156079086D01*
X127879786Y-155970109D01*
X127879788Y-155970106D01*
X127879792Y-155970104D01*
X128030104Y-155819792D01*
X128105065Y-155716615D01*
X128160395Y-155673949D01*
X128205384Y-155665500D01*
X131961535Y-155665500D01*
X132028574Y-155685185D01*
X132060800Y-155715187D01*
X132122454Y-155797546D01*
X132152171Y-155819792D01*
X132237664Y-155883793D01*
X132237671Y-155883797D01*
X132372517Y-155934091D01*
X132372516Y-155934091D01*
X132379444Y-155934835D01*
X132432127Y-155940500D01*
X135037872Y-155940499D01*
X135097483Y-155934091D01*
X135232331Y-155883796D01*
X135347546Y-155797546D01*
X135433796Y-155682331D01*
X135484091Y-155547483D01*
X135490500Y-155487873D01*
X135490499Y-154392128D01*
X135484091Y-154332517D01*
X135436922Y-154206051D01*
X135433797Y-154197671D01*
X135433793Y-154197664D01*
X135347547Y-154082455D01*
X135347544Y-154082452D01*
X135232335Y-153996206D01*
X135232328Y-153996202D01*
X135097482Y-153945908D01*
X135097483Y-153945908D01*
X135037883Y-153939501D01*
X135037881Y-153939500D01*
X135037873Y-153939500D01*
X135037864Y-153939500D01*
X132432129Y-153939500D01*
X132432123Y-153939501D01*
X132372516Y-153945908D01*
X132237671Y-153996202D01*
X132237664Y-153996206D01*
X132122456Y-154082452D01*
X132122455Y-154082453D01*
X132122454Y-154082454D01*
X132061870Y-154163384D01*
X132060802Y-154164811D01*
X132004868Y-154206682D01*
X131961535Y-154214500D01*
X128205384Y-154214500D01*
X128138345Y-154194815D01*
X128105065Y-154163384D01*
X128030107Y-154060211D01*
X127879786Y-153909890D01*
X127707820Y-153784951D01*
X127707115Y-153784591D01*
X127699054Y-153780485D01*
X127648259Y-153732512D01*
X127631463Y-153664692D01*
X127653999Y-153598556D01*
X127699054Y-153559515D01*
X127707816Y-153555051D01*
X127729789Y-153539086D01*
X127879786Y-153430109D01*
X127879788Y-153430106D01*
X127879792Y-153430104D01*
X128030104Y-153279792D01*
X128105065Y-153176615D01*
X128160395Y-153133949D01*
X128205384Y-153125500D01*
X128651535Y-153125500D01*
X128718574Y-153145185D01*
X128750800Y-153175187D01*
X128812454Y-153257546D01*
X128842171Y-153279792D01*
X128927664Y-153343793D01*
X128927671Y-153343797D01*
X129062517Y-153394091D01*
X129062516Y-153394091D01*
X129069444Y-153394835D01*
X129122127Y-153400500D01*
X131727872Y-153400499D01*
X131787483Y-153394091D01*
X131922331Y-153343796D01*
X132037546Y-153257546D01*
X132123796Y-153142331D01*
X132174091Y-153007483D01*
X132180500Y-152947873D01*
X132180499Y-151852128D01*
X132174091Y-151792517D01*
X132126922Y-151666051D01*
X132123797Y-151657671D01*
X132123793Y-151657664D01*
X132037547Y-151542455D01*
X132037544Y-151542452D01*
X131922335Y-151456206D01*
X131922328Y-151456202D01*
X131787482Y-151405908D01*
X131787483Y-151405908D01*
X131727883Y-151399501D01*
X131727881Y-151399500D01*
X131727873Y-151399500D01*
X131727864Y-151399500D01*
X129122129Y-151399500D01*
X129122123Y-151399501D01*
X129062516Y-151405908D01*
X128927671Y-151456202D01*
X128927664Y-151456206D01*
X128812456Y-151542452D01*
X128812455Y-151542453D01*
X128812454Y-151542454D01*
X128751870Y-151623384D01*
X128750802Y-151624811D01*
X128694868Y-151666682D01*
X128651535Y-151674500D01*
X128205384Y-151674500D01*
X128138345Y-151654815D01*
X128105065Y-151623384D01*
X128030107Y-151520211D01*
X127879786Y-151369890D01*
X127707820Y-151244951D01*
X127707115Y-151244591D01*
X127699054Y-151240485D01*
X127648259Y-151192512D01*
X127631463Y-151124692D01*
X127653999Y-151058556D01*
X127699054Y-151019515D01*
X127707816Y-151015051D01*
X127729789Y-150999086D01*
X127879786Y-150890109D01*
X127879788Y-150890106D01*
X127879792Y-150890104D01*
X128030104Y-150739792D01*
X128105065Y-150636615D01*
X128160395Y-150593949D01*
X128205384Y-150585500D01*
X131961535Y-150585500D01*
X132028574Y-150605185D01*
X132060800Y-150635187D01*
X132122454Y-150717546D01*
X132152171Y-150739792D01*
X132237664Y-150803793D01*
X132237671Y-150803797D01*
X132372517Y-150854091D01*
X132372516Y-150854091D01*
X132379444Y-150854835D01*
X132432127Y-150860500D01*
X135037872Y-150860499D01*
X135097483Y-150854091D01*
X135232331Y-150803796D01*
X135347546Y-150717546D01*
X135433796Y-150602331D01*
X135484091Y-150467483D01*
X135490500Y-150407873D01*
X135490499Y-149312128D01*
X135484091Y-149252517D01*
X135436922Y-149126051D01*
X135433797Y-149117671D01*
X135433793Y-149117664D01*
X135347547Y-149002455D01*
X135347544Y-149002452D01*
X135232335Y-148916206D01*
X135232328Y-148916202D01*
X135097482Y-148865908D01*
X135097483Y-148865908D01*
X135037883Y-148859501D01*
X135037881Y-148859500D01*
X135037873Y-148859500D01*
X135037864Y-148859500D01*
X132432129Y-148859500D01*
X132432123Y-148859501D01*
X132372516Y-148865908D01*
X132237671Y-148916202D01*
X132237664Y-148916206D01*
X132122456Y-149002452D01*
X132122455Y-149002453D01*
X132122454Y-149002454D01*
X132061870Y-149083384D01*
X132060802Y-149084811D01*
X132004868Y-149126682D01*
X131961535Y-149134500D01*
X128205384Y-149134500D01*
X128138345Y-149114815D01*
X128105065Y-149083384D01*
X128030107Y-148980211D01*
X127879786Y-148829890D01*
X127707820Y-148704951D01*
X127707115Y-148704591D01*
X127699054Y-148700485D01*
X127648259Y-148652512D01*
X127631463Y-148584692D01*
X127653999Y-148518556D01*
X127699054Y-148479515D01*
X127707816Y-148475051D01*
X127729789Y-148459086D01*
X127879786Y-148350109D01*
X127879788Y-148350106D01*
X127879792Y-148350104D01*
X128030104Y-148199792D01*
X128105065Y-148096615D01*
X128160395Y-148053949D01*
X128205384Y-148045500D01*
X128651535Y-148045500D01*
X128718574Y-148065185D01*
X128750800Y-148095187D01*
X128812454Y-148177546D01*
X128842171Y-148199792D01*
X128927664Y-148263793D01*
X128927671Y-148263797D01*
X129062517Y-148314091D01*
X129062516Y-148314091D01*
X129069444Y-148314835D01*
X129122127Y-148320500D01*
X131727872Y-148320499D01*
X131787483Y-148314091D01*
X131922331Y-148263796D01*
X132037546Y-148177546D01*
X132123796Y-148062331D01*
X132174091Y-147927483D01*
X132180500Y-147867873D01*
X132180499Y-146772128D01*
X132174091Y-146712517D01*
X132126922Y-146586051D01*
X132123797Y-146577671D01*
X132123793Y-146577664D01*
X132037547Y-146462455D01*
X132037544Y-146462452D01*
X131922335Y-146376206D01*
X131922328Y-146376202D01*
X131787482Y-146325908D01*
X131787483Y-146325908D01*
X131727883Y-146319501D01*
X131727881Y-146319500D01*
X131727873Y-146319500D01*
X131727864Y-146319500D01*
X129122129Y-146319500D01*
X129122123Y-146319501D01*
X129062516Y-146325908D01*
X128927671Y-146376202D01*
X128927664Y-146376206D01*
X128812456Y-146462452D01*
X128812455Y-146462453D01*
X128812454Y-146462454D01*
X128751870Y-146543384D01*
X128750802Y-146544811D01*
X128694868Y-146586682D01*
X128651535Y-146594500D01*
X128205384Y-146594500D01*
X128138345Y-146574815D01*
X128105065Y-146543384D01*
X128030107Y-146440211D01*
X127879786Y-146289890D01*
X127707820Y-146164951D01*
X127707115Y-146164591D01*
X127699054Y-146160485D01*
X127648259Y-146112512D01*
X127631463Y-146044692D01*
X127653999Y-145978556D01*
X127699054Y-145939515D01*
X127707816Y-145935051D01*
X127729789Y-145919086D01*
X127879786Y-145810109D01*
X127879788Y-145810106D01*
X127879792Y-145810104D01*
X128030104Y-145659792D01*
X128105065Y-145556615D01*
X128160395Y-145513949D01*
X128205384Y-145505500D01*
X131961535Y-145505500D01*
X132028574Y-145525185D01*
X132060800Y-145555187D01*
X132122454Y-145637546D01*
X132152171Y-145659792D01*
X132237664Y-145723793D01*
X132237671Y-145723797D01*
X132372517Y-145774091D01*
X132372516Y-145774091D01*
X132379444Y-145774835D01*
X132432127Y-145780500D01*
X135037872Y-145780499D01*
X135097483Y-145774091D01*
X135232331Y-145723796D01*
X135347546Y-145637546D01*
X135433796Y-145522331D01*
X135484091Y-145387483D01*
X135490500Y-145327873D01*
X135490499Y-144232128D01*
X135484091Y-144172517D01*
X135436922Y-144046051D01*
X135433797Y-144037671D01*
X135433793Y-144037664D01*
X135347547Y-143922455D01*
X135347544Y-143922452D01*
X135232335Y-143836206D01*
X135232328Y-143836202D01*
X135097482Y-143785908D01*
X135097483Y-143785908D01*
X135037883Y-143779501D01*
X135037881Y-143779500D01*
X135037873Y-143779500D01*
X135037864Y-143779500D01*
X132432129Y-143779500D01*
X132432123Y-143779501D01*
X132372516Y-143785908D01*
X132237671Y-143836202D01*
X132237664Y-143836206D01*
X132122456Y-143922452D01*
X132122455Y-143922453D01*
X132122454Y-143922454D01*
X132061870Y-144003384D01*
X132060802Y-144004811D01*
X132004868Y-144046682D01*
X131961535Y-144054500D01*
X128205384Y-144054500D01*
X128138345Y-144034815D01*
X128105065Y-144003384D01*
X128030107Y-143900211D01*
X127879786Y-143749890D01*
X127707820Y-143624951D01*
X127707115Y-143624591D01*
X127699054Y-143620485D01*
X127648259Y-143572512D01*
X127631463Y-143504692D01*
X127653999Y-143438556D01*
X127699054Y-143399515D01*
X127707816Y-143395051D01*
X127729789Y-143379086D01*
X127879786Y-143270109D01*
X127879788Y-143270106D01*
X127879792Y-143270104D01*
X128030104Y-143119792D01*
X128105065Y-143016615D01*
X128160395Y-142973949D01*
X128205384Y-142965500D01*
X128651535Y-142965500D01*
X128718574Y-142985185D01*
X128750800Y-143015187D01*
X128812454Y-143097546D01*
X128842171Y-143119792D01*
X128927664Y-143183793D01*
X128927671Y-143183797D01*
X129062517Y-143234091D01*
X129062516Y-143234091D01*
X129069444Y-143234835D01*
X129122127Y-143240500D01*
X131727872Y-143240499D01*
X131787483Y-143234091D01*
X131922331Y-143183796D01*
X132037546Y-143097546D01*
X132123796Y-142982331D01*
X132174091Y-142847483D01*
X132180500Y-142787873D01*
X132180499Y-141692128D01*
X132174091Y-141632517D01*
X132126922Y-141506051D01*
X132123797Y-141497671D01*
X132123793Y-141497664D01*
X132037547Y-141382455D01*
X132037544Y-141382452D01*
X131922335Y-141296206D01*
X131922328Y-141296202D01*
X131787482Y-141245908D01*
X131787483Y-141245908D01*
X131727883Y-141239501D01*
X131727881Y-141239500D01*
X131727873Y-141239500D01*
X131727864Y-141239500D01*
X129122129Y-141239500D01*
X129122123Y-141239501D01*
X129062516Y-141245908D01*
X128927671Y-141296202D01*
X128927664Y-141296206D01*
X128812456Y-141382452D01*
X128812455Y-141382453D01*
X128812454Y-141382454D01*
X128751870Y-141463384D01*
X128750802Y-141464811D01*
X128694868Y-141506682D01*
X128651535Y-141514500D01*
X128205384Y-141514500D01*
X128138345Y-141494815D01*
X128105065Y-141463384D01*
X128030107Y-141360211D01*
X127879786Y-141209890D01*
X127707820Y-141084951D01*
X127707115Y-141084591D01*
X127699054Y-141080485D01*
X127648259Y-141032512D01*
X127631463Y-140964692D01*
X127653999Y-140898556D01*
X127699054Y-140859515D01*
X127707816Y-140855051D01*
X127729789Y-140839086D01*
X127879786Y-140730109D01*
X127879788Y-140730106D01*
X127879792Y-140730104D01*
X128030104Y-140579792D01*
X128105065Y-140476615D01*
X128160395Y-140433949D01*
X128205384Y-140425500D01*
X131961535Y-140425500D01*
X132028574Y-140445185D01*
X132060800Y-140475187D01*
X132122454Y-140557546D01*
X132152171Y-140579792D01*
X132237664Y-140643793D01*
X132237671Y-140643797D01*
X132372517Y-140694091D01*
X132372516Y-140694091D01*
X132379444Y-140694835D01*
X132432127Y-140700500D01*
X135037872Y-140700499D01*
X135097483Y-140694091D01*
X135232331Y-140643796D01*
X135347546Y-140557546D01*
X135433796Y-140442331D01*
X135484091Y-140307483D01*
X135490500Y-140247873D01*
X135490499Y-139152128D01*
X135484091Y-139092517D01*
X135436922Y-138966051D01*
X135433797Y-138957671D01*
X135433793Y-138957664D01*
X135347547Y-138842455D01*
X135347544Y-138842452D01*
X135232335Y-138756206D01*
X135232328Y-138756202D01*
X135097482Y-138705908D01*
X135097483Y-138705908D01*
X135037883Y-138699501D01*
X135037881Y-138699500D01*
X135037873Y-138699500D01*
X135037864Y-138699500D01*
X132432129Y-138699500D01*
X132432123Y-138699501D01*
X132372516Y-138705908D01*
X132237671Y-138756202D01*
X132237664Y-138756206D01*
X132122456Y-138842452D01*
X132122455Y-138842453D01*
X132122454Y-138842454D01*
X132061870Y-138923384D01*
X132060802Y-138924811D01*
X132004868Y-138966682D01*
X131961535Y-138974500D01*
X128205384Y-138974500D01*
X128138345Y-138954815D01*
X128105065Y-138923384D01*
X128030107Y-138820211D01*
X127879786Y-138669890D01*
X127707820Y-138544951D01*
X127707115Y-138544591D01*
X127699054Y-138540485D01*
X127648259Y-138492512D01*
X127631463Y-138424692D01*
X127653999Y-138358556D01*
X127699054Y-138319515D01*
X127707816Y-138315051D01*
X127729789Y-138299086D01*
X127879786Y-138190109D01*
X127879788Y-138190106D01*
X127879792Y-138190104D01*
X128030104Y-138039792D01*
X128105065Y-137936615D01*
X128160395Y-137893949D01*
X128205384Y-137885500D01*
X128651535Y-137885500D01*
X128718574Y-137905185D01*
X128750800Y-137935187D01*
X128812454Y-138017546D01*
X128842171Y-138039792D01*
X128927664Y-138103793D01*
X128927671Y-138103797D01*
X129062517Y-138154091D01*
X129062516Y-138154091D01*
X129069444Y-138154835D01*
X129122127Y-138160500D01*
X131727872Y-138160499D01*
X131787483Y-138154091D01*
X131922331Y-138103796D01*
X132037546Y-138017546D01*
X132123796Y-137902331D01*
X132174091Y-137767483D01*
X132180500Y-137707873D01*
X132180499Y-136612128D01*
X132174091Y-136552517D01*
X132126922Y-136426051D01*
X132123797Y-136417671D01*
X132123793Y-136417664D01*
X132037547Y-136302455D01*
X132037544Y-136302452D01*
X131922335Y-136216206D01*
X131922328Y-136216202D01*
X131787482Y-136165908D01*
X131787483Y-136165908D01*
X131727883Y-136159501D01*
X131727881Y-136159500D01*
X131727873Y-136159500D01*
X131727864Y-136159500D01*
X129122129Y-136159500D01*
X129122123Y-136159501D01*
X129062516Y-136165908D01*
X128927671Y-136216202D01*
X128927664Y-136216206D01*
X128812456Y-136302452D01*
X128812455Y-136302453D01*
X128812454Y-136302454D01*
X128751870Y-136383384D01*
X128750802Y-136384811D01*
X128694868Y-136426682D01*
X128651535Y-136434500D01*
X128205384Y-136434500D01*
X128138345Y-136414815D01*
X128105065Y-136383384D01*
X128030107Y-136280211D01*
X127879786Y-136129890D01*
X127707820Y-136004951D01*
X127707115Y-136004591D01*
X127699054Y-136000485D01*
X127648259Y-135952512D01*
X127631463Y-135884692D01*
X127653999Y-135818556D01*
X127699054Y-135779515D01*
X127707816Y-135775051D01*
X127729789Y-135759086D01*
X127879786Y-135650109D01*
X127879788Y-135650106D01*
X127879792Y-135650104D01*
X128030104Y-135499792D01*
X128105065Y-135396615D01*
X128160395Y-135353949D01*
X128205384Y-135345500D01*
X131961535Y-135345500D01*
X132028574Y-135365185D01*
X132060800Y-135395187D01*
X132122454Y-135477546D01*
X132152171Y-135499792D01*
X132237664Y-135563793D01*
X132237671Y-135563797D01*
X132372517Y-135614091D01*
X132372516Y-135614091D01*
X132379444Y-135614835D01*
X132432127Y-135620500D01*
X135037872Y-135620499D01*
X135097483Y-135614091D01*
X135232331Y-135563796D01*
X135347546Y-135477546D01*
X135433796Y-135362331D01*
X135484091Y-135227483D01*
X135490500Y-135167873D01*
X135490499Y-134072128D01*
X135484091Y-134012517D01*
X135436922Y-133886051D01*
X135433797Y-133877671D01*
X135433793Y-133877664D01*
X135347547Y-133762455D01*
X135347544Y-133762452D01*
X135232335Y-133676206D01*
X135232328Y-133676202D01*
X135097482Y-133625908D01*
X135097483Y-133625908D01*
X135037883Y-133619501D01*
X135037881Y-133619500D01*
X135037873Y-133619500D01*
X135037864Y-133619500D01*
X132432129Y-133619500D01*
X132432123Y-133619501D01*
X132372516Y-133625908D01*
X132237671Y-133676202D01*
X132237664Y-133676206D01*
X132122456Y-133762452D01*
X132122455Y-133762453D01*
X132122454Y-133762454D01*
X132061870Y-133843384D01*
X132060802Y-133844811D01*
X132004868Y-133886682D01*
X131961535Y-133894500D01*
X128205384Y-133894500D01*
X128138345Y-133874815D01*
X128105065Y-133843384D01*
X128030107Y-133740211D01*
X127879786Y-133589890D01*
X127707820Y-133464951D01*
X127707115Y-133464591D01*
X127699054Y-133460485D01*
X127648259Y-133412512D01*
X127631463Y-133344692D01*
X127653999Y-133278556D01*
X127699054Y-133239515D01*
X127707816Y-133235051D01*
X127729789Y-133219086D01*
X127879786Y-133110109D01*
X127879788Y-133110106D01*
X127879792Y-133110104D01*
X128030104Y-132959792D01*
X128105065Y-132856615D01*
X128160395Y-132813949D01*
X128205384Y-132805500D01*
X128651535Y-132805500D01*
X128718574Y-132825185D01*
X128750800Y-132855187D01*
X128812454Y-132937546D01*
X128842171Y-132959792D01*
X128927664Y-133023793D01*
X128927671Y-133023797D01*
X129062517Y-133074091D01*
X129062516Y-133074091D01*
X129069444Y-133074835D01*
X129122127Y-133080500D01*
X131727872Y-133080499D01*
X131787483Y-133074091D01*
X131922331Y-133023796D01*
X132037546Y-132937546D01*
X132123796Y-132822331D01*
X132174091Y-132687483D01*
X132180500Y-132627873D01*
X132180499Y-131532128D01*
X132174091Y-131472517D01*
X132126922Y-131346051D01*
X132123797Y-131337671D01*
X132123793Y-131337664D01*
X132037547Y-131222455D01*
X132037544Y-131222452D01*
X131922335Y-131136206D01*
X131922328Y-131136202D01*
X131787482Y-131085908D01*
X131787483Y-131085908D01*
X131727883Y-131079501D01*
X131727881Y-131079500D01*
X131727873Y-131079500D01*
X131727864Y-131079500D01*
X129122129Y-131079500D01*
X129122123Y-131079501D01*
X129062516Y-131085908D01*
X128927671Y-131136202D01*
X128927664Y-131136206D01*
X128812456Y-131222452D01*
X128812455Y-131222453D01*
X128812454Y-131222454D01*
X128751870Y-131303384D01*
X128750802Y-131304811D01*
X128694868Y-131346682D01*
X128651535Y-131354500D01*
X128205384Y-131354500D01*
X128138345Y-131334815D01*
X128105065Y-131303384D01*
X128030107Y-131200211D01*
X127879786Y-131049890D01*
X127707820Y-130924951D01*
X127707115Y-130924591D01*
X127699054Y-130920485D01*
X127648259Y-130872512D01*
X127631463Y-130804692D01*
X127653999Y-130738556D01*
X127699054Y-130699515D01*
X127707816Y-130695051D01*
X127729789Y-130679086D01*
X127879786Y-130570109D01*
X127879788Y-130570106D01*
X127879792Y-130570104D01*
X128030104Y-130419792D01*
X128105065Y-130316615D01*
X128160395Y-130273949D01*
X128205384Y-130265500D01*
X131961535Y-130265500D01*
X132028574Y-130285185D01*
X132060800Y-130315187D01*
X132122454Y-130397546D01*
X132152171Y-130419792D01*
X132237664Y-130483793D01*
X132237671Y-130483797D01*
X132372517Y-130534091D01*
X132372516Y-130534091D01*
X132379444Y-130534835D01*
X132432127Y-130540500D01*
X135037872Y-130540499D01*
X135097483Y-130534091D01*
X135232331Y-130483796D01*
X135347546Y-130397546D01*
X135433796Y-130282331D01*
X135484091Y-130147483D01*
X135490500Y-130087873D01*
X135490499Y-128992128D01*
X135484091Y-128932517D01*
X135436922Y-128806051D01*
X135433797Y-128797671D01*
X135433793Y-128797664D01*
X135347547Y-128682455D01*
X135347544Y-128682452D01*
X135232335Y-128596206D01*
X135232328Y-128596202D01*
X135097482Y-128545908D01*
X135097483Y-128545908D01*
X135037883Y-128539501D01*
X135037881Y-128539500D01*
X135037873Y-128539500D01*
X135037864Y-128539500D01*
X132432129Y-128539500D01*
X132432123Y-128539501D01*
X132372516Y-128545908D01*
X132237671Y-128596202D01*
X132237664Y-128596206D01*
X132122456Y-128682452D01*
X132122455Y-128682453D01*
X132122454Y-128682454D01*
X132061870Y-128763384D01*
X132060802Y-128764811D01*
X132004868Y-128806682D01*
X131961535Y-128814500D01*
X128205384Y-128814500D01*
X128138345Y-128794815D01*
X128105065Y-128763384D01*
X128030107Y-128660211D01*
X127879786Y-128509890D01*
X127707820Y-128384951D01*
X127707115Y-128384591D01*
X127699054Y-128380485D01*
X127648259Y-128332512D01*
X127631463Y-128264692D01*
X127653999Y-128198556D01*
X127699054Y-128159515D01*
X127707816Y-128155051D01*
X127729789Y-128139086D01*
X127879786Y-128030109D01*
X127879788Y-128030106D01*
X127879792Y-128030104D01*
X128030104Y-127879792D01*
X128105065Y-127776615D01*
X128160395Y-127733949D01*
X128205384Y-127725500D01*
X128651535Y-127725500D01*
X128718574Y-127745185D01*
X128750800Y-127775187D01*
X128812454Y-127857546D01*
X128842171Y-127879792D01*
X128927664Y-127943793D01*
X128927671Y-127943797D01*
X129062517Y-127994091D01*
X129062516Y-127994091D01*
X129069444Y-127994835D01*
X129122127Y-128000500D01*
X131727872Y-128000499D01*
X131787483Y-127994091D01*
X131922331Y-127943796D01*
X132037546Y-127857546D01*
X132123796Y-127742331D01*
X132174091Y-127607483D01*
X132180500Y-127547873D01*
X132180499Y-126452128D01*
X132174091Y-126392517D01*
X132126922Y-126266051D01*
X132123797Y-126257671D01*
X132123793Y-126257664D01*
X132037547Y-126142455D01*
X132037544Y-126142452D01*
X131922335Y-126056206D01*
X131922328Y-126056202D01*
X131787482Y-126005908D01*
X131787483Y-126005908D01*
X131727883Y-125999501D01*
X131727881Y-125999500D01*
X131727873Y-125999500D01*
X131727864Y-125999500D01*
X129122129Y-125999500D01*
X129122123Y-125999501D01*
X129062516Y-126005908D01*
X128927671Y-126056202D01*
X128927664Y-126056206D01*
X128812456Y-126142452D01*
X128812455Y-126142453D01*
X128812454Y-126142454D01*
X128751870Y-126223384D01*
X128750802Y-126224811D01*
X128694868Y-126266682D01*
X128651535Y-126274500D01*
X128205384Y-126274500D01*
X128138345Y-126254815D01*
X128105065Y-126223384D01*
X128030107Y-126120211D01*
X127879786Y-125969890D01*
X127707820Y-125844951D01*
X127707115Y-125844591D01*
X127699054Y-125840485D01*
X127648259Y-125792512D01*
X127631463Y-125724692D01*
X127653999Y-125658556D01*
X127699054Y-125619515D01*
X127707816Y-125615051D01*
X127729789Y-125599086D01*
X127879786Y-125490109D01*
X127879788Y-125490106D01*
X127879792Y-125490104D01*
X128030104Y-125339792D01*
X128105065Y-125236615D01*
X128160395Y-125193949D01*
X128205384Y-125185500D01*
X131961535Y-125185500D01*
X132028574Y-125205185D01*
X132060800Y-125235187D01*
X132122454Y-125317546D01*
X132152171Y-125339792D01*
X132237664Y-125403793D01*
X132237671Y-125403797D01*
X132372517Y-125454091D01*
X132372516Y-125454091D01*
X132379444Y-125454835D01*
X132432127Y-125460500D01*
X135037872Y-125460499D01*
X135097483Y-125454091D01*
X135232331Y-125403796D01*
X135347546Y-125317546D01*
X135433796Y-125202331D01*
X135484091Y-125067483D01*
X135490500Y-125007873D01*
X135490499Y-123912128D01*
X135484091Y-123852517D01*
X135436922Y-123726051D01*
X135433797Y-123717671D01*
X135433793Y-123717664D01*
X135347547Y-123602455D01*
X135347544Y-123602452D01*
X135232335Y-123516206D01*
X135232328Y-123516202D01*
X135097482Y-123465908D01*
X135097483Y-123465908D01*
X135037883Y-123459501D01*
X135037881Y-123459500D01*
X135037873Y-123459500D01*
X135037864Y-123459500D01*
X132432129Y-123459500D01*
X132432123Y-123459501D01*
X132372516Y-123465908D01*
X132237671Y-123516202D01*
X132237664Y-123516206D01*
X132122456Y-123602452D01*
X132122455Y-123602453D01*
X132122454Y-123602454D01*
X132061870Y-123683384D01*
X132060802Y-123684811D01*
X132004868Y-123726682D01*
X131961535Y-123734500D01*
X128205384Y-123734500D01*
X128138345Y-123714815D01*
X128105065Y-123683384D01*
X128030107Y-123580211D01*
X127879786Y-123429890D01*
X127707820Y-123304951D01*
X127707115Y-123304591D01*
X127699054Y-123300485D01*
X127648259Y-123252512D01*
X127631463Y-123184692D01*
X127653999Y-123118556D01*
X127699054Y-123079515D01*
X127707816Y-123075051D01*
X127729789Y-123059086D01*
X127879786Y-122950109D01*
X127879788Y-122950106D01*
X127879792Y-122950104D01*
X128030104Y-122799792D01*
X128105065Y-122696615D01*
X128160395Y-122653949D01*
X128205384Y-122645500D01*
X128651535Y-122645500D01*
X128718574Y-122665185D01*
X128750800Y-122695187D01*
X128812454Y-122777546D01*
X128842171Y-122799792D01*
X128927664Y-122863793D01*
X128927671Y-122863797D01*
X129062517Y-122914091D01*
X129062516Y-122914091D01*
X129069444Y-122914835D01*
X129122127Y-122920500D01*
X131727872Y-122920499D01*
X131787483Y-122914091D01*
X131922331Y-122863796D01*
X132037546Y-122777546D01*
X132123796Y-122662331D01*
X132174091Y-122527483D01*
X132180500Y-122467873D01*
X132180499Y-121372128D01*
X132174091Y-121312517D01*
X132126922Y-121186051D01*
X132123797Y-121177671D01*
X132123793Y-121177664D01*
X132037547Y-121062455D01*
X132037544Y-121062452D01*
X131922335Y-120976206D01*
X131922328Y-120976202D01*
X131787482Y-120925908D01*
X131787483Y-120925908D01*
X131727883Y-120919501D01*
X131727881Y-120919500D01*
X131727873Y-120919500D01*
X131727864Y-120919500D01*
X129122129Y-120919500D01*
X129122123Y-120919501D01*
X129062516Y-120925908D01*
X128927671Y-120976202D01*
X128927664Y-120976206D01*
X128812456Y-121062452D01*
X128812455Y-121062453D01*
X128812454Y-121062454D01*
X128751870Y-121143384D01*
X128750802Y-121144811D01*
X128694868Y-121186682D01*
X128651535Y-121194500D01*
X128205384Y-121194500D01*
X128138345Y-121174815D01*
X128105065Y-121143384D01*
X128030107Y-121040211D01*
X127879786Y-120889890D01*
X127707820Y-120764951D01*
X127707115Y-120764591D01*
X127699054Y-120760485D01*
X127648259Y-120712512D01*
X127631463Y-120644692D01*
X127653999Y-120578556D01*
X127699054Y-120539515D01*
X127707816Y-120535051D01*
X127729789Y-120519086D01*
X127879786Y-120410109D01*
X127879788Y-120410106D01*
X127879792Y-120410104D01*
X128030104Y-120259792D01*
X128105065Y-120156615D01*
X128160395Y-120113949D01*
X128205384Y-120105500D01*
X131961535Y-120105500D01*
X132028574Y-120125185D01*
X132060800Y-120155187D01*
X132122454Y-120237546D01*
X132152171Y-120259792D01*
X132237664Y-120323793D01*
X132237671Y-120323797D01*
X132372517Y-120374091D01*
X132372516Y-120374091D01*
X132379444Y-120374835D01*
X132432127Y-120380500D01*
X135037872Y-120380499D01*
X135097483Y-120374091D01*
X135232331Y-120323796D01*
X135347546Y-120237546D01*
X135433796Y-120122331D01*
X135484091Y-119987483D01*
X135490500Y-119927873D01*
X135490499Y-118832128D01*
X135484091Y-118772517D01*
X135436922Y-118646051D01*
X135433797Y-118637671D01*
X135433793Y-118637664D01*
X135347547Y-118522455D01*
X135347544Y-118522452D01*
X135232335Y-118436206D01*
X135232328Y-118436202D01*
X135097482Y-118385908D01*
X135097483Y-118385908D01*
X135037883Y-118379501D01*
X135037881Y-118379500D01*
X135037873Y-118379500D01*
X135037864Y-118379500D01*
X132432129Y-118379500D01*
X132432123Y-118379501D01*
X132372516Y-118385908D01*
X132237671Y-118436202D01*
X132237664Y-118436206D01*
X132122456Y-118522452D01*
X132122455Y-118522453D01*
X132122454Y-118522454D01*
X132061870Y-118603384D01*
X132060802Y-118604811D01*
X132004868Y-118646682D01*
X131961535Y-118654500D01*
X128205384Y-118654500D01*
X128138345Y-118634815D01*
X128105065Y-118603384D01*
X128030107Y-118500211D01*
X127879786Y-118349890D01*
X127707820Y-118224951D01*
X127707115Y-118224591D01*
X127699054Y-118220485D01*
X127648259Y-118172512D01*
X127631463Y-118104692D01*
X127653999Y-118038556D01*
X127699054Y-117999515D01*
X127707816Y-117995051D01*
X127729789Y-117979086D01*
X127879786Y-117870109D01*
X127879788Y-117870106D01*
X127879792Y-117870104D01*
X128030104Y-117719792D01*
X128105065Y-117616615D01*
X128160395Y-117573949D01*
X128205384Y-117565500D01*
X128651535Y-117565500D01*
X128718574Y-117585185D01*
X128750800Y-117615187D01*
X128812454Y-117697546D01*
X128842171Y-117719792D01*
X128927664Y-117783793D01*
X128927671Y-117783797D01*
X129062517Y-117834091D01*
X129062516Y-117834091D01*
X129069444Y-117834835D01*
X129122127Y-117840500D01*
X131727872Y-117840499D01*
X131787483Y-117834091D01*
X131922331Y-117783796D01*
X132037546Y-117697546D01*
X132123796Y-117582331D01*
X132174091Y-117447483D01*
X132180500Y-117387873D01*
X132180499Y-116292128D01*
X132174091Y-116232517D01*
X132126922Y-116106051D01*
X132123797Y-116097671D01*
X132123793Y-116097664D01*
X132037547Y-115982455D01*
X132037544Y-115982452D01*
X131922335Y-115896206D01*
X131922328Y-115896202D01*
X131787482Y-115845908D01*
X131787483Y-115845908D01*
X131727883Y-115839501D01*
X131727881Y-115839500D01*
X131727873Y-115839500D01*
X131727864Y-115839500D01*
X129122129Y-115839500D01*
X129122123Y-115839501D01*
X129062516Y-115845908D01*
X128927671Y-115896202D01*
X128927664Y-115896206D01*
X128812456Y-115982452D01*
X128812455Y-115982453D01*
X128812454Y-115982454D01*
X128751870Y-116063384D01*
X128750802Y-116064811D01*
X128694868Y-116106682D01*
X128651535Y-116114500D01*
X128205384Y-116114500D01*
X128138345Y-116094815D01*
X128105065Y-116063384D01*
X128030107Y-115960211D01*
X127879786Y-115809890D01*
X127707820Y-115684951D01*
X127707115Y-115684591D01*
X127699054Y-115680485D01*
X127648259Y-115632512D01*
X127631463Y-115564692D01*
X127653999Y-115498556D01*
X127699054Y-115459515D01*
X127707816Y-115455051D01*
X127729789Y-115439086D01*
X127879786Y-115330109D01*
X127879788Y-115330106D01*
X127879792Y-115330104D01*
X128030104Y-115179792D01*
X128105065Y-115076615D01*
X128160395Y-115033949D01*
X128205384Y-115025500D01*
X131961535Y-115025500D01*
X132028574Y-115045185D01*
X132060800Y-115075187D01*
X132122454Y-115157546D01*
X132152171Y-115179792D01*
X132237664Y-115243793D01*
X132237671Y-115243797D01*
X132372517Y-115294091D01*
X132372516Y-115294091D01*
X132379444Y-115294835D01*
X132432127Y-115300500D01*
X135037872Y-115300499D01*
X135097483Y-115294091D01*
X135232331Y-115243796D01*
X135347546Y-115157546D01*
X135433796Y-115042331D01*
X135484091Y-114907483D01*
X135490500Y-114847873D01*
X135490499Y-113752128D01*
X135484091Y-113692517D01*
X135436922Y-113566051D01*
X135433797Y-113557671D01*
X135433793Y-113557664D01*
X135347547Y-113442455D01*
X135347544Y-113442452D01*
X135232335Y-113356206D01*
X135232328Y-113356202D01*
X135097482Y-113305908D01*
X135097483Y-113305908D01*
X135037883Y-113299501D01*
X135037881Y-113299500D01*
X135037873Y-113299500D01*
X135037864Y-113299500D01*
X132432129Y-113299500D01*
X132432123Y-113299501D01*
X132372516Y-113305908D01*
X132237671Y-113356202D01*
X132237664Y-113356206D01*
X132122456Y-113442452D01*
X132122455Y-113442453D01*
X132122454Y-113442454D01*
X132061870Y-113523384D01*
X132060802Y-113524811D01*
X132004868Y-113566682D01*
X131961535Y-113574500D01*
X128205384Y-113574500D01*
X128138345Y-113554815D01*
X128105065Y-113523384D01*
X128030107Y-113420211D01*
X127879786Y-113269890D01*
X127707820Y-113144951D01*
X127707115Y-113144591D01*
X127699054Y-113140485D01*
X127648259Y-113092512D01*
X127631463Y-113024692D01*
X127653999Y-112958556D01*
X127699054Y-112919515D01*
X127707816Y-112915051D01*
X127729789Y-112899086D01*
X127879786Y-112790109D01*
X127879788Y-112790106D01*
X127879792Y-112790104D01*
X128030104Y-112639792D01*
X128105065Y-112536615D01*
X128160395Y-112493949D01*
X128205384Y-112485500D01*
X128651535Y-112485500D01*
X128718574Y-112505185D01*
X128750800Y-112535187D01*
X128812454Y-112617546D01*
X128842171Y-112639792D01*
X128927664Y-112703793D01*
X128927671Y-112703797D01*
X129062517Y-112754091D01*
X129062516Y-112754091D01*
X129069444Y-112754835D01*
X129122127Y-112760500D01*
X131727872Y-112760499D01*
X131787483Y-112754091D01*
X131922331Y-112703796D01*
X132037546Y-112617546D01*
X132123796Y-112502331D01*
X132174091Y-112367483D01*
X132180500Y-112307873D01*
X132180499Y-111212128D01*
X132174091Y-111152517D01*
X132126922Y-111026051D01*
X132123797Y-111017671D01*
X132123793Y-111017664D01*
X132037547Y-110902455D01*
X132037544Y-110902452D01*
X131922335Y-110816206D01*
X131922328Y-110816202D01*
X131787482Y-110765908D01*
X131787483Y-110765908D01*
X131727883Y-110759501D01*
X131727881Y-110759500D01*
X131727873Y-110759500D01*
X131727864Y-110759500D01*
X129122129Y-110759500D01*
X129122123Y-110759501D01*
X129062516Y-110765908D01*
X128927671Y-110816202D01*
X128927664Y-110816206D01*
X128812456Y-110902452D01*
X128812455Y-110902453D01*
X128812454Y-110902454D01*
X128751870Y-110983384D01*
X128750802Y-110984811D01*
X128694868Y-111026682D01*
X128651535Y-111034500D01*
X128205384Y-111034500D01*
X128138345Y-111014815D01*
X128105065Y-110983384D01*
X128030107Y-110880211D01*
X127879786Y-110729890D01*
X127707820Y-110604951D01*
X127707115Y-110604591D01*
X127699054Y-110600485D01*
X127648259Y-110552512D01*
X127631463Y-110484692D01*
X127653999Y-110418556D01*
X127699054Y-110379515D01*
X127707816Y-110375051D01*
X127729789Y-110359086D01*
X127879786Y-110250109D01*
X127879788Y-110250106D01*
X127879792Y-110250104D01*
X128030104Y-110099792D01*
X128105065Y-109996615D01*
X128160395Y-109953949D01*
X128205384Y-109945500D01*
X131961535Y-109945500D01*
X132028574Y-109965185D01*
X132060800Y-109995187D01*
X132122454Y-110077546D01*
X132152171Y-110099792D01*
X132237664Y-110163793D01*
X132237671Y-110163797D01*
X132372517Y-110214091D01*
X132372516Y-110214091D01*
X132379444Y-110214835D01*
X132432127Y-110220500D01*
X135037872Y-110220499D01*
X135097483Y-110214091D01*
X135232331Y-110163796D01*
X135347546Y-110077546D01*
X135433796Y-109962331D01*
X135484091Y-109827483D01*
X135490500Y-109767873D01*
X135490499Y-108672128D01*
X135484091Y-108612517D01*
X135436922Y-108486051D01*
X135433797Y-108477671D01*
X135433793Y-108477664D01*
X135347547Y-108362455D01*
X135347544Y-108362452D01*
X135232335Y-108276206D01*
X135232328Y-108276202D01*
X135097482Y-108225908D01*
X135097483Y-108225908D01*
X135037883Y-108219501D01*
X135037881Y-108219500D01*
X135037873Y-108219500D01*
X135037864Y-108219500D01*
X132432129Y-108219500D01*
X132432123Y-108219501D01*
X132372516Y-108225908D01*
X132237671Y-108276202D01*
X132237664Y-108276206D01*
X132122456Y-108362452D01*
X132122455Y-108362453D01*
X132122454Y-108362454D01*
X132061870Y-108443384D01*
X132060802Y-108444811D01*
X132004868Y-108486682D01*
X131961535Y-108494500D01*
X128205384Y-108494500D01*
X128138345Y-108474815D01*
X128105065Y-108443384D01*
X128030107Y-108340211D01*
X127879786Y-108189890D01*
X127707820Y-108064951D01*
X127707115Y-108064591D01*
X127699054Y-108060485D01*
X127648259Y-108012512D01*
X127631463Y-107944692D01*
X127653999Y-107878556D01*
X127699054Y-107839515D01*
X127707816Y-107835051D01*
X127729789Y-107819086D01*
X127879786Y-107710109D01*
X127879788Y-107710106D01*
X127879792Y-107710104D01*
X128030104Y-107559792D01*
X128105065Y-107456615D01*
X128160395Y-107413949D01*
X128205384Y-107405500D01*
X128651535Y-107405500D01*
X128718574Y-107425185D01*
X128750800Y-107455187D01*
X128812454Y-107537546D01*
X128842171Y-107559792D01*
X128927664Y-107623793D01*
X128927671Y-107623797D01*
X129062517Y-107674091D01*
X129062516Y-107674091D01*
X129069444Y-107674835D01*
X129122127Y-107680500D01*
X131727872Y-107680499D01*
X131787483Y-107674091D01*
X131922331Y-107623796D01*
X132037546Y-107537546D01*
X132123796Y-107422331D01*
X132174091Y-107287483D01*
X132180500Y-107227873D01*
X132180499Y-106132128D01*
X132174091Y-106072517D01*
X132126922Y-105946051D01*
X132123797Y-105937671D01*
X132123793Y-105937664D01*
X132037547Y-105822455D01*
X132037544Y-105822452D01*
X131922335Y-105736206D01*
X131922328Y-105736202D01*
X131787482Y-105685908D01*
X131787483Y-105685908D01*
X131727883Y-105679501D01*
X131727881Y-105679500D01*
X131727873Y-105679500D01*
X131727864Y-105679500D01*
X129122129Y-105679500D01*
X129122123Y-105679501D01*
X129062516Y-105685908D01*
X128927671Y-105736202D01*
X128927664Y-105736206D01*
X128812456Y-105822452D01*
X128812455Y-105822453D01*
X128812454Y-105822454D01*
X128751870Y-105903384D01*
X128750802Y-105904811D01*
X128694868Y-105946682D01*
X128651535Y-105954500D01*
X128205384Y-105954500D01*
X128138345Y-105934815D01*
X128105065Y-105903384D01*
X128030107Y-105800211D01*
X127879786Y-105649890D01*
X127707820Y-105524951D01*
X127707115Y-105524591D01*
X127699054Y-105520485D01*
X127648259Y-105472512D01*
X127631463Y-105404692D01*
X127653999Y-105338556D01*
X127699054Y-105299515D01*
X127707816Y-105295051D01*
X127729789Y-105279086D01*
X127879786Y-105170109D01*
X127879788Y-105170106D01*
X127879792Y-105170104D01*
X128030104Y-105019792D01*
X128105065Y-104916615D01*
X128160395Y-104873949D01*
X128205384Y-104865500D01*
X131961535Y-104865500D01*
X132028574Y-104885185D01*
X132060800Y-104915187D01*
X132122454Y-104997546D01*
X132152171Y-105019792D01*
X132237664Y-105083793D01*
X132237671Y-105083797D01*
X132372517Y-105134091D01*
X132372516Y-105134091D01*
X132379444Y-105134835D01*
X132432127Y-105140500D01*
X135037872Y-105140499D01*
X135097483Y-105134091D01*
X135232331Y-105083796D01*
X135347546Y-104997546D01*
X135433796Y-104882331D01*
X135484091Y-104747483D01*
X135490500Y-104687873D01*
X135490499Y-103592128D01*
X135484091Y-103532517D01*
X135436922Y-103406051D01*
X135433797Y-103397671D01*
X135433793Y-103397664D01*
X135347547Y-103282455D01*
X135347544Y-103282452D01*
X135232335Y-103196206D01*
X135232328Y-103196202D01*
X135097482Y-103145908D01*
X135097483Y-103145908D01*
X135037883Y-103139501D01*
X135037881Y-103139500D01*
X135037873Y-103139500D01*
X135037864Y-103139500D01*
X132432129Y-103139500D01*
X132432123Y-103139501D01*
X132372516Y-103145908D01*
X132237671Y-103196202D01*
X132237664Y-103196206D01*
X132122456Y-103282452D01*
X132122455Y-103282453D01*
X132122454Y-103282454D01*
X132061870Y-103363384D01*
X132060802Y-103364811D01*
X132004868Y-103406682D01*
X131961535Y-103414500D01*
X128205384Y-103414500D01*
X128138345Y-103394815D01*
X128105065Y-103363384D01*
X128030107Y-103260211D01*
X127879786Y-103109890D01*
X127707820Y-102984951D01*
X127707115Y-102984591D01*
X127699054Y-102980485D01*
X127648259Y-102932512D01*
X127631463Y-102864692D01*
X127653999Y-102798556D01*
X127699054Y-102759515D01*
X127707816Y-102755051D01*
X127729789Y-102739086D01*
X127879786Y-102630109D01*
X127879788Y-102630106D01*
X127879792Y-102630104D01*
X128030104Y-102479792D01*
X128105065Y-102376615D01*
X128160395Y-102333949D01*
X128205384Y-102325500D01*
X128651535Y-102325500D01*
X128718574Y-102345185D01*
X128750800Y-102375187D01*
X128812454Y-102457546D01*
X128842171Y-102479792D01*
X128927664Y-102543793D01*
X128927671Y-102543797D01*
X129062517Y-102594091D01*
X129062516Y-102594091D01*
X129069444Y-102594835D01*
X129122127Y-102600500D01*
X131727872Y-102600499D01*
X131787483Y-102594091D01*
X131922331Y-102543796D01*
X132037546Y-102457546D01*
X132123796Y-102342331D01*
X132174091Y-102207483D01*
X132180500Y-102147873D01*
X132180499Y-101052128D01*
X132174091Y-100992517D01*
X132126922Y-100866051D01*
X132123797Y-100857671D01*
X132123793Y-100857664D01*
X132037547Y-100742455D01*
X132037544Y-100742452D01*
X131922335Y-100656206D01*
X131922328Y-100656202D01*
X131787482Y-100605908D01*
X131787483Y-100605908D01*
X131727883Y-100599501D01*
X131727881Y-100599500D01*
X131727873Y-100599500D01*
X131727864Y-100599500D01*
X129122129Y-100599500D01*
X129122123Y-100599501D01*
X129062516Y-100605908D01*
X128927671Y-100656202D01*
X128927664Y-100656206D01*
X128812456Y-100742452D01*
X128812455Y-100742453D01*
X128812454Y-100742454D01*
X128751870Y-100823384D01*
X128750802Y-100824811D01*
X128694868Y-100866682D01*
X128651535Y-100874500D01*
X128205384Y-100874500D01*
X128138345Y-100854815D01*
X128105065Y-100823384D01*
X128030107Y-100720211D01*
X127879786Y-100569890D01*
X127707820Y-100444951D01*
X127707115Y-100444591D01*
X127699054Y-100440485D01*
X127648259Y-100392512D01*
X127631463Y-100324692D01*
X127653999Y-100258556D01*
X127699054Y-100219515D01*
X127707816Y-100215051D01*
X127729789Y-100199086D01*
X127879786Y-100090109D01*
X127879788Y-100090106D01*
X127879792Y-100090104D01*
X128030104Y-99939792D01*
X128105065Y-99836615D01*
X128160395Y-99793949D01*
X128205384Y-99785500D01*
X131961535Y-99785500D01*
X132028574Y-99805185D01*
X132060800Y-99835187D01*
X132122454Y-99917546D01*
X132152171Y-99939792D01*
X132237664Y-100003793D01*
X132237671Y-100003797D01*
X132372517Y-100054091D01*
X132372516Y-100054091D01*
X132379444Y-100054835D01*
X132432127Y-100060500D01*
X135037872Y-100060499D01*
X135097483Y-100054091D01*
X135232331Y-100003796D01*
X135347546Y-99917546D01*
X135433796Y-99802331D01*
X135484091Y-99667483D01*
X135490500Y-99607873D01*
X135490499Y-98512128D01*
X135484091Y-98452517D01*
X135436922Y-98326051D01*
X135433797Y-98317671D01*
X135433793Y-98317664D01*
X135347547Y-98202455D01*
X135347544Y-98202452D01*
X135232335Y-98116206D01*
X135232328Y-98116202D01*
X135097482Y-98065908D01*
X135097483Y-98065908D01*
X135037883Y-98059501D01*
X135037881Y-98059500D01*
X135037873Y-98059500D01*
X135037864Y-98059500D01*
X132432129Y-98059500D01*
X132432123Y-98059501D01*
X132372516Y-98065908D01*
X132237671Y-98116202D01*
X132237664Y-98116206D01*
X132122456Y-98202452D01*
X132122455Y-98202453D01*
X132122454Y-98202454D01*
X132061870Y-98283384D01*
X132060802Y-98284811D01*
X132004868Y-98326682D01*
X131961535Y-98334500D01*
X128205384Y-98334500D01*
X128138345Y-98314815D01*
X128105065Y-98283384D01*
X128030107Y-98180211D01*
X127879786Y-98029890D01*
X127707820Y-97904951D01*
X127707115Y-97904591D01*
X127699054Y-97900485D01*
X127648259Y-97852512D01*
X127631463Y-97784692D01*
X127653999Y-97718556D01*
X127699054Y-97679515D01*
X127707816Y-97675051D01*
X127729789Y-97659086D01*
X127879786Y-97550109D01*
X127879788Y-97550106D01*
X127879792Y-97550104D01*
X128030104Y-97399792D01*
X128105065Y-97296615D01*
X128160395Y-97253949D01*
X128205384Y-97245500D01*
X128651535Y-97245500D01*
X128718574Y-97265185D01*
X128750800Y-97295187D01*
X128812454Y-97377546D01*
X128842171Y-97399792D01*
X128927664Y-97463793D01*
X128927671Y-97463797D01*
X129062517Y-97514091D01*
X129062516Y-97514091D01*
X129069444Y-97514835D01*
X129122127Y-97520500D01*
X131727872Y-97520499D01*
X131787483Y-97514091D01*
X131922331Y-97463796D01*
X132037546Y-97377546D01*
X132123796Y-97262331D01*
X132174091Y-97127483D01*
X132180500Y-97067873D01*
X132180499Y-95972128D01*
X132174091Y-95912517D01*
X132126922Y-95786051D01*
X132123797Y-95777671D01*
X132123793Y-95777664D01*
X132037547Y-95662455D01*
X132037544Y-95662452D01*
X131922335Y-95576206D01*
X131922328Y-95576202D01*
X131787482Y-95525908D01*
X131787483Y-95525908D01*
X131727883Y-95519501D01*
X131727881Y-95519500D01*
X131727873Y-95519500D01*
X131727864Y-95519500D01*
X129122129Y-95519500D01*
X129122123Y-95519501D01*
X129062516Y-95525908D01*
X128927671Y-95576202D01*
X128927664Y-95576206D01*
X128812456Y-95662452D01*
X128812455Y-95662453D01*
X128812454Y-95662454D01*
X128751870Y-95743384D01*
X128750802Y-95744811D01*
X128694868Y-95786682D01*
X128651535Y-95794500D01*
X128205384Y-95794500D01*
X128138345Y-95774815D01*
X128105065Y-95743384D01*
X128030107Y-95640211D01*
X127879786Y-95489890D01*
X127707820Y-95364951D01*
X127707115Y-95364591D01*
X127699054Y-95360485D01*
X127648259Y-95312512D01*
X127631463Y-95244692D01*
X127653999Y-95178556D01*
X127699054Y-95139515D01*
X127707816Y-95135051D01*
X127729789Y-95119086D01*
X127879786Y-95010109D01*
X127879788Y-95010106D01*
X127879792Y-95010104D01*
X128030104Y-94859792D01*
X128105065Y-94756615D01*
X128160395Y-94713949D01*
X128205384Y-94705500D01*
X131961535Y-94705500D01*
X132028574Y-94725185D01*
X132060800Y-94755187D01*
X132122454Y-94837546D01*
X132152171Y-94859792D01*
X132237664Y-94923793D01*
X132237671Y-94923797D01*
X132372517Y-94974091D01*
X132372516Y-94974091D01*
X132379444Y-94974835D01*
X132432127Y-94980500D01*
X135037872Y-94980499D01*
X135097483Y-94974091D01*
X135232331Y-94923796D01*
X135347546Y-94837546D01*
X135433796Y-94722331D01*
X135484091Y-94587483D01*
X135490500Y-94527873D01*
X135490499Y-93432128D01*
X135484091Y-93372517D01*
X135436922Y-93246051D01*
X135433797Y-93237671D01*
X135433793Y-93237664D01*
X135347547Y-93122455D01*
X135347544Y-93122452D01*
X135232335Y-93036206D01*
X135232328Y-93036202D01*
X135097482Y-92985908D01*
X135097483Y-92985908D01*
X135037883Y-92979501D01*
X135037881Y-92979500D01*
X135037873Y-92979500D01*
X135037864Y-92979500D01*
X132432129Y-92979500D01*
X132432123Y-92979501D01*
X132372516Y-92985908D01*
X132237671Y-93036202D01*
X132237664Y-93036206D01*
X132122456Y-93122452D01*
X132122455Y-93122453D01*
X132122454Y-93122454D01*
X132061870Y-93203384D01*
X132060802Y-93204811D01*
X132004868Y-93246682D01*
X131961535Y-93254500D01*
X128205384Y-93254500D01*
X128138345Y-93234815D01*
X128105065Y-93203384D01*
X128030107Y-93100211D01*
X127879786Y-92949890D01*
X127707820Y-92824951D01*
X127707115Y-92824591D01*
X127699054Y-92820485D01*
X127648259Y-92772512D01*
X127631463Y-92704692D01*
X127653999Y-92638556D01*
X127699054Y-92599515D01*
X127707816Y-92595051D01*
X127729789Y-92579086D01*
X127879786Y-92470109D01*
X127879788Y-92470106D01*
X127879792Y-92470104D01*
X128030104Y-92319792D01*
X128105065Y-92216615D01*
X128160395Y-92173949D01*
X128205384Y-92165500D01*
X128651535Y-92165500D01*
X128718574Y-92185185D01*
X128750800Y-92215187D01*
X128812454Y-92297546D01*
X128842171Y-92319792D01*
X128927664Y-92383793D01*
X128927671Y-92383797D01*
X129062517Y-92434091D01*
X129062516Y-92434091D01*
X129069444Y-92434835D01*
X129122127Y-92440500D01*
X131727872Y-92440499D01*
X131787483Y-92434091D01*
X131922331Y-92383796D01*
X132037546Y-92297546D01*
X132123796Y-92182331D01*
X132174091Y-92047483D01*
X132180500Y-91987873D01*
X132180499Y-90892128D01*
X132174091Y-90832517D01*
X132126922Y-90706051D01*
X132123797Y-90697671D01*
X132123793Y-90697664D01*
X132037547Y-90582455D01*
X132037544Y-90582452D01*
X131922335Y-90496206D01*
X131922328Y-90496202D01*
X131787482Y-90445908D01*
X131787483Y-90445908D01*
X131727883Y-90439501D01*
X131727881Y-90439500D01*
X131727873Y-90439500D01*
X131727864Y-90439500D01*
X129122129Y-90439500D01*
X129122123Y-90439501D01*
X129062516Y-90445908D01*
X128927671Y-90496202D01*
X128927664Y-90496206D01*
X128812456Y-90582452D01*
X128812455Y-90582453D01*
X128812454Y-90582454D01*
X128751870Y-90663384D01*
X128750802Y-90664811D01*
X128694868Y-90706682D01*
X128651535Y-90714500D01*
X128205384Y-90714500D01*
X128138345Y-90694815D01*
X128105065Y-90663384D01*
X128030107Y-90560211D01*
X127879786Y-90409890D01*
X127707820Y-90284951D01*
X127707115Y-90284591D01*
X127699054Y-90280485D01*
X127648259Y-90232512D01*
X127631463Y-90164692D01*
X127653999Y-90098556D01*
X127699054Y-90059515D01*
X127707816Y-90055051D01*
X127729789Y-90039086D01*
X127879786Y-89930109D01*
X127879788Y-89930106D01*
X127879792Y-89930104D01*
X128030104Y-89779792D01*
X128105065Y-89676615D01*
X128160395Y-89633949D01*
X128205384Y-89625500D01*
X131961535Y-89625500D01*
X132028574Y-89645185D01*
X132060800Y-89675187D01*
X132122454Y-89757546D01*
X132152171Y-89779792D01*
X132237664Y-89843793D01*
X132237671Y-89843797D01*
X132372517Y-89894091D01*
X132372516Y-89894091D01*
X132379444Y-89894835D01*
X132432127Y-89900500D01*
X135037872Y-89900499D01*
X135097483Y-89894091D01*
X135232331Y-89843796D01*
X135347546Y-89757546D01*
X135433796Y-89642331D01*
X135484091Y-89507483D01*
X135490500Y-89447873D01*
X135490499Y-88352128D01*
X135484091Y-88292517D01*
X135436922Y-88166051D01*
X135433797Y-88157671D01*
X135433793Y-88157664D01*
X135347547Y-88042455D01*
X135347544Y-88042452D01*
X135232335Y-87956206D01*
X135232328Y-87956202D01*
X135097482Y-87905908D01*
X135097483Y-87905908D01*
X135037883Y-87899501D01*
X135037881Y-87899500D01*
X135037873Y-87899500D01*
X135037864Y-87899500D01*
X132432129Y-87899500D01*
X132432123Y-87899501D01*
X132372516Y-87905908D01*
X132237671Y-87956202D01*
X132237664Y-87956206D01*
X132122456Y-88042452D01*
X132122455Y-88042453D01*
X132122454Y-88042454D01*
X132061870Y-88123384D01*
X132060802Y-88124811D01*
X132004868Y-88166682D01*
X131961535Y-88174500D01*
X128205384Y-88174500D01*
X128138345Y-88154815D01*
X128105065Y-88123384D01*
X128030107Y-88020211D01*
X127879786Y-87869890D01*
X127707820Y-87744951D01*
X127707115Y-87744591D01*
X127699054Y-87740485D01*
X127648259Y-87692512D01*
X127631463Y-87624692D01*
X127653999Y-87558556D01*
X127699054Y-87519515D01*
X127707816Y-87515051D01*
X127729789Y-87499086D01*
X127879786Y-87390109D01*
X127879788Y-87390106D01*
X127879792Y-87390104D01*
X128030104Y-87239792D01*
X128105065Y-87136615D01*
X128160395Y-87093949D01*
X128205384Y-87085500D01*
X128651535Y-87085500D01*
X128718574Y-87105185D01*
X128750800Y-87135187D01*
X128812454Y-87217546D01*
X128842171Y-87239792D01*
X128927664Y-87303793D01*
X128927671Y-87303797D01*
X129062517Y-87354091D01*
X129062516Y-87354091D01*
X129069444Y-87354835D01*
X129122127Y-87360500D01*
X131727872Y-87360499D01*
X131787483Y-87354091D01*
X131922331Y-87303796D01*
X132037546Y-87217546D01*
X132123796Y-87102331D01*
X132174091Y-86967483D01*
X132180500Y-86907873D01*
X132180499Y-85812128D01*
X132174091Y-85752517D01*
X132126922Y-85626051D01*
X132123797Y-85617671D01*
X132123793Y-85617664D01*
X132037547Y-85502455D01*
X132037544Y-85502452D01*
X131922335Y-85416206D01*
X131922328Y-85416202D01*
X131787482Y-85365908D01*
X131787483Y-85365908D01*
X131727883Y-85359501D01*
X131727881Y-85359500D01*
X131727873Y-85359500D01*
X131727864Y-85359500D01*
X129122129Y-85359500D01*
X129122123Y-85359501D01*
X129062516Y-85365908D01*
X128927671Y-85416202D01*
X128927664Y-85416206D01*
X128812456Y-85502452D01*
X128812455Y-85502453D01*
X128812454Y-85502454D01*
X128751870Y-85583384D01*
X128750802Y-85584811D01*
X128694868Y-85626682D01*
X128651535Y-85634500D01*
X128205384Y-85634500D01*
X128138345Y-85614815D01*
X128105065Y-85583384D01*
X128030107Y-85480211D01*
X127879786Y-85329890D01*
X127707820Y-85204951D01*
X127518414Y-85108444D01*
X127518413Y-85108443D01*
X127518412Y-85108443D01*
X127316243Y-85042754D01*
X127316241Y-85042753D01*
X127316240Y-85042753D01*
X127154957Y-85017208D01*
X127106287Y-85009500D01*
X126893713Y-85009500D01*
X126845042Y-85017208D01*
X126683760Y-85042753D01*
X126481582Y-85108445D01*
X126410794Y-85144513D01*
X126342125Y-85157409D01*
X126277384Y-85131132D01*
X126237128Y-85074025D01*
X126230500Y-85034028D01*
X126230500Y-83174500D01*
X126250185Y-83107461D01*
X126302989Y-83061706D01*
X126354500Y-83050500D01*
X150505500Y-83050500D01*
X150572539Y-83070185D01*
G37*
G04 #@! TD.AperFunction*
M02*
