G04 #@! TF.GenerationSoftware,KiCad,Pcbnew,9.0.6*
G04 #@! TF.CreationDate,2026-01-07T22:53:03-06:00*
G04 #@! TF.ProjectId,QFN-56_7x7_P0.4,51464e2d-3536-45f3-9778-375f50302e34,rev?*
G04 #@! TF.SameCoordinates,Original*
G04 #@! TF.FileFunction,Soldermask,Top*
G04 #@! TF.FilePolarity,Negative*
%FSLAX46Y46*%
G04 Gerber Fmt 4.6, Leading zero omitted, Abs format (unit mm)*
G04 Created by KiCad (PCBNEW 9.0.6) date 2026-01-07 22:53:03*
%MOMM*%
%LPD*%
G01*
G04 APERTURE LIST*
G04 Aperture macros list*
%AMRoundRect*
0 Rectangle with rounded corners*
0 $1 Rounding radius*
0 $2 $3 $4 $5 $6 $7 $8 $9 X,Y pos of 4 corners*
0 Add a 4 corners polygon primitive as box body*
4,1,4,$2,$3,$4,$5,$6,$7,$8,$9,$2,$3,0*
0 Add four circle primitives for the rounded corners*
1,1,$1+$1,$2,$3*
1,1,$1+$1,$4,$5*
1,1,$1+$1,$6,$7*
1,1,$1+$1,$8,$9*
0 Add four rect primitives between the rounded corners*
20,1,$1+$1,$2,$3,$4,$5,0*
20,1,$1+$1,$4,$5,$6,$7,0*
20,1,$1+$1,$6,$7,$8,$9,0*
20,1,$1+$1,$8,$9,$2,$3,0*%
%AMRotRect*
0 Rectangle, with rotation*
0 The origin of the aperture is its center*
0 $1 length*
0 $2 width*
0 $3 Rotation angle, in degrees counterclockwise*
0 Add horizontal line*
21,1,$1,$2,0,0,$3*%
G04 Aperture macros list end*
%ADD10C,1.700000*%
%ADD11R,1.700000X1.700000*%
%ADD12RoundRect,0.050000X-0.424264X0.353553X0.353553X-0.424264X0.424264X-0.353553X-0.353553X0.424264X0*%
%ADD13RoundRect,0.050000X-0.424264X-0.353553X-0.353553X-0.424264X0.424264X0.353553X0.353553X0.424264X0*%
%ADD14RotRect,4.000000X4.000000X315.000000*%
G04 APERTURE END LIST*
D10*
X149860000Y-83820000D03*
X149860000Y-86360000D03*
X149860000Y-88900000D03*
X149860000Y-91440000D03*
X149860000Y-93980000D03*
X149860000Y-96520000D03*
X149860000Y-99060000D03*
X149860000Y-101600000D03*
X149860000Y-104140000D03*
X149860000Y-106680000D03*
X149860000Y-109220000D03*
X149860000Y-111760000D03*
X149860000Y-114300000D03*
X149860000Y-116840000D03*
X149860000Y-119380000D03*
X149860000Y-121920000D03*
X149860000Y-124460000D03*
X149860000Y-127000000D03*
X149860000Y-129540000D03*
X149860000Y-132080000D03*
X149860000Y-134620000D03*
X149860000Y-137160000D03*
X149860000Y-139700000D03*
X149860000Y-142240000D03*
X149860000Y-144780000D03*
X149860000Y-147320000D03*
X149860000Y-149860000D03*
X149860000Y-152400000D03*
X149860000Y-154940000D03*
X149860000Y-157480000D03*
D11*
X127000000Y-83820000D03*
D10*
X127000000Y-86360000D03*
X127000000Y-88900000D03*
X127000000Y-91440000D03*
X127000000Y-93980000D03*
X127000000Y-96520000D03*
X127000000Y-99060000D03*
X127000000Y-101600000D03*
X127000000Y-104140000D03*
X127000000Y-106680000D03*
X127000000Y-109220000D03*
X127000000Y-111760000D03*
X127000000Y-114300000D03*
X127000000Y-116840000D03*
X127000000Y-119380000D03*
X127000000Y-121920000D03*
X127000000Y-124460000D03*
X127000000Y-127000000D03*
X127000000Y-129540000D03*
X127000000Y-132080000D03*
X127000000Y-134620000D03*
X127000000Y-137160000D03*
X127000000Y-139700000D03*
X127000000Y-142240000D03*
X127000000Y-144780000D03*
X127000000Y-147320000D03*
X127000000Y-149860000D03*
X127000000Y-152400000D03*
X127000000Y-154940000D03*
X127000000Y-157480000D03*
D12*
X137687538Y-117500583D03*
X137404696Y-117783426D03*
X137121852Y-118066268D03*
X136839010Y-118349111D03*
X136556167Y-118631953D03*
X136273325Y-118914797D03*
X135990482Y-119197639D03*
X135707639Y-119480482D03*
X135424797Y-119763325D03*
X135141953Y-120046167D03*
X134859111Y-120329010D03*
X134576268Y-120611852D03*
X134293426Y-120894696D03*
X134010583Y-121177538D03*
D13*
X134010583Y-122662462D03*
X134293426Y-122945304D03*
X134576268Y-123228148D03*
X134859111Y-123510990D03*
X135141953Y-123793833D03*
X135424797Y-124076675D03*
X135707639Y-124359518D03*
X135990482Y-124642361D03*
X136273325Y-124925203D03*
X136556167Y-125208047D03*
X136839010Y-125490889D03*
X137121852Y-125773732D03*
X137404696Y-126056574D03*
X137687538Y-126339417D03*
D12*
X139172462Y-126339417D03*
X139455304Y-126056574D03*
X139738148Y-125773732D03*
X140020990Y-125490889D03*
X140303833Y-125208047D03*
X140586675Y-124925203D03*
X140869518Y-124642361D03*
X141152361Y-124359518D03*
X141435203Y-124076675D03*
X141718047Y-123793833D03*
X142000889Y-123510990D03*
X142283732Y-123228148D03*
X142566574Y-122945304D03*
X142849417Y-122662462D03*
D13*
X142849417Y-121177538D03*
X142566574Y-120894696D03*
X142283732Y-120611852D03*
X142000889Y-120329010D03*
X141718047Y-120046167D03*
X141435203Y-119763325D03*
X141152361Y-119480482D03*
X140869518Y-119197639D03*
X140586675Y-118914797D03*
X140303833Y-118631953D03*
X140020990Y-118349111D03*
X139738148Y-118066268D03*
X139455304Y-117783426D03*
X139172462Y-117500583D03*
D14*
X138430000Y-121920000D03*
M02*
