G04 #@! TF.GenerationSoftware,KiCad,Pcbnew,9.0.6*
G04 #@! TF.CreationDate,2026-01-02T23:06:21-06:00*
G04 #@! TF.ProjectId,DHVQFN-20_4.65x3.65_P0.5,44485651-464e-42d3-9230-5f342e363578,rev?*
G04 #@! TF.SameCoordinates,Original*
G04 #@! TF.FileFunction,Paste,Top*
G04 #@! TF.FilePolarity,Positive*
%FSLAX46Y46*%
G04 Gerber Fmt 4.6, Leading zero omitted, Abs format (unit mm)*
G04 Created by KiCad (PCBNEW 9.0.6) date 2026-01-02 23:06:21*
%MOMM*%
%LPD*%
G01*
G04 APERTURE LIST*
%ADD10C,0.000000*%
G04 APERTURE END LIST*
D10*
G36*
X137105107Y-117918879D02*
G01*
X136304892Y-117918879D01*
X136304891Y-117688663D01*
X137105108Y-117688663D01*
X137105107Y-117918879D01*
G37*
G36*
X137105108Y-118418878D02*
G01*
X136304891Y-118418878D01*
X136304891Y-118188662D01*
X137105108Y-118188662D01*
X137105108Y-118418878D01*
G37*
G36*
X137105108Y-118918879D02*
G01*
X136304891Y-118918879D01*
X136304891Y-118688662D01*
X137105107Y-118688661D01*
X137105108Y-118918879D01*
G37*
G36*
X137105108Y-119418878D02*
G01*
X136304891Y-119418878D01*
X136304891Y-119188662D01*
X137105108Y-119188662D01*
X137105108Y-119418878D01*
G37*
G36*
X137105108Y-119918878D02*
G01*
X136304891Y-119918878D01*
X136304891Y-119688662D01*
X137105108Y-119688662D01*
X137105108Y-119918878D01*
G37*
G36*
X137105107Y-120418879D02*
G01*
X136304891Y-120418878D01*
X136304891Y-120188663D01*
X137105108Y-120188663D01*
X137105107Y-120418879D01*
G37*
G36*
X137105108Y-120918878D02*
G01*
X136304891Y-120918878D01*
X136304891Y-120688662D01*
X137105108Y-120688662D01*
X137105108Y-120918878D01*
G37*
G36*
X137105108Y-121418879D02*
G01*
X136304891Y-121418879D01*
X136304892Y-121188661D01*
X137105107Y-121188661D01*
X137105108Y-121418879D01*
G37*
G36*
X137795109Y-117728877D02*
G01*
X137564891Y-117728877D01*
X137564891Y-116928662D01*
X137795109Y-116928662D01*
X137795109Y-117728877D01*
G37*
G36*
X137795109Y-122178878D02*
G01*
X137564891Y-122178878D01*
X137564891Y-121378663D01*
X137795109Y-121378663D01*
X137795109Y-122178878D01*
G37*
G36*
X139295109Y-117728877D02*
G01*
X139064891Y-117728877D01*
X139064891Y-116928662D01*
X139295109Y-116928662D01*
X139295109Y-117728877D01*
G37*
G36*
X139295109Y-122178878D02*
G01*
X139064891Y-122178878D01*
X139064891Y-121378663D01*
X139295109Y-121378663D01*
X139295109Y-122178878D01*
G37*
G36*
X140555108Y-117918879D02*
G01*
X139754893Y-117918879D01*
X139754892Y-117688661D01*
X140555109Y-117688661D01*
X140555108Y-117918879D01*
G37*
G36*
X140555109Y-118418878D02*
G01*
X139754892Y-118418878D01*
X139754892Y-118188662D01*
X140555109Y-118188662D01*
X140555109Y-118418878D01*
G37*
G36*
X140555109Y-119418878D02*
G01*
X139754892Y-119418878D01*
X139754892Y-119188662D01*
X140555109Y-119188662D01*
X140555109Y-119418878D01*
G37*
G36*
X140555109Y-119918878D02*
G01*
X139754892Y-119918878D01*
X139754892Y-119688662D01*
X140555109Y-119688662D01*
X140555109Y-119918878D01*
G37*
G36*
X140555109Y-120418878D02*
G01*
X139754893Y-120418879D01*
X139754892Y-120188661D01*
X140555109Y-120188661D01*
X140555109Y-120418878D01*
G37*
G36*
X140555109Y-120918878D02*
G01*
X139754892Y-120918878D01*
X139754892Y-120688662D01*
X140555109Y-120688662D01*
X140555109Y-120918878D01*
G37*
G36*
X140555109Y-118688662D02*
G01*
X140555109Y-118918877D01*
X139754892Y-118918877D01*
X139754893Y-118688661D01*
X140555109Y-118688662D01*
G37*
G36*
X140555109Y-121418877D02*
G01*
X139754892Y-121418877D01*
X139754893Y-121188661D01*
X140555108Y-121188661D01*
X140555109Y-121418877D01*
G37*
G36*
X137936300Y-118103701D02*
G01*
X137936300Y-118524949D01*
X137794879Y-118666370D01*
X137479931Y-118666370D01*
X137479930Y-118103700D01*
X137936300Y-118103701D01*
G37*
G36*
X137936300Y-120582591D02*
G01*
X137936300Y-121003839D01*
X137479930Y-121003840D01*
X137479931Y-120441170D01*
X137794879Y-120441170D01*
X137936300Y-120582591D01*
G37*
G36*
X139380069Y-118666370D02*
G01*
X139065121Y-118666370D01*
X138923700Y-118524949D01*
X138923700Y-118103701D01*
X139380070Y-118103700D01*
X139380069Y-118666370D01*
G37*
G36*
X139380070Y-121003840D02*
G01*
X138923700Y-121003839D01*
X138923700Y-120582591D01*
X139065121Y-120441170D01*
X139380069Y-120441170D01*
X139380070Y-121003840D01*
G37*
G36*
X137936300Y-119007791D02*
G01*
X137936300Y-119312349D01*
X137794879Y-119453770D01*
X137479930Y-119453770D01*
X137479930Y-118866370D01*
X137794879Y-118866370D01*
X137936300Y-119007791D01*
G37*
G36*
X137936300Y-119795191D02*
G01*
X137936300Y-120099749D01*
X137794879Y-120241170D01*
X137479930Y-120241170D01*
X137479930Y-119653770D01*
X137794879Y-119653770D01*
X137936300Y-119795191D01*
G37*
G36*
X138723700Y-118524949D02*
G01*
X138582279Y-118666370D01*
X138277721Y-118666370D01*
X138136300Y-118524949D01*
X138136300Y-118103701D01*
X138723700Y-118103701D01*
X138723700Y-118524949D01*
G37*
G36*
X138723700Y-120582591D02*
G01*
X138723700Y-121003839D01*
X138136300Y-121003839D01*
X138136300Y-120582591D01*
X138277721Y-120441170D01*
X138582279Y-120441170D01*
X138723700Y-120582591D01*
G37*
G36*
X139380070Y-119453770D02*
G01*
X139065121Y-119453770D01*
X138923700Y-119312349D01*
X138923700Y-119007791D01*
X139065121Y-118866370D01*
X139380070Y-118866370D01*
X139380070Y-119453770D01*
G37*
G36*
X139380070Y-120241170D02*
G01*
X139065121Y-120241170D01*
X138923700Y-120099749D01*
X138923700Y-119795191D01*
X139065121Y-119653770D01*
X139380070Y-119653770D01*
X139380070Y-120241170D01*
G37*
G36*
X138723700Y-119007791D02*
G01*
X138723700Y-119312349D01*
X138582279Y-119453770D01*
X138277721Y-119453770D01*
X138136300Y-119312349D01*
X138136300Y-119007791D01*
X138277721Y-118866370D01*
X138582279Y-118866370D01*
X138723700Y-119007791D01*
G37*
G36*
X138723700Y-119795191D02*
G01*
X138723700Y-120099749D01*
X138582279Y-120241170D01*
X138277721Y-120241170D01*
X138136300Y-120099749D01*
X138136300Y-119795191D01*
X138277721Y-119653770D01*
X138582279Y-119653770D01*
X138723700Y-119795191D01*
G37*
M02*
