G04 #@! TF.GenerationSoftware,KiCad,Pcbnew,9.0.6*
G04 #@! TF.CreationDate,2026-01-02T23:06:20-06:00*
G04 #@! TF.ProjectId,DHVQFN-20_4.65x3.65_P0.5,44485651-464e-42d3-9230-5f342e363578,rev?*
G04 #@! TF.SameCoordinates,Original*
G04 #@! TF.FileFunction,Copper,L1,Top*
G04 #@! TF.FilePolarity,Positive*
%FSLAX46Y46*%
G04 Gerber Fmt 4.6, Leading zero omitted, Abs format (unit mm)*
G04 Created by KiCad (PCBNEW 9.0.6) date 2026-01-02 23:06:20*
%MOMM*%
%LPD*%
G01*
G04 APERTURE LIST*
G04 #@! TA.AperFunction,SMDPad,CuDef*
%ADD10R,0.280000X1.200000*%
G04 #@! TD*
G04 #@! TA.AperFunction,SMDPad,CuDef*
%ADD11R,1.200000X0.280000*%
G04 #@! TD*
G04 #@! TA.AperFunction,SMDPad,CuDef*
%ADD12R,2.050000X3.049999*%
G04 #@! TD*
G04 #@! TA.AperFunction,ComponentPad*
%ADD13C,0.508000*%
G04 #@! TD*
G04 #@! TA.AperFunction,ComponentPad*
%ADD14C,1.700000*%
G04 #@! TD*
G04 #@! TA.AperFunction,ComponentPad*
%ADD15R,1.700000X1.700000*%
G04 #@! TD*
G04 #@! TA.AperFunction,ViaPad*
%ADD16C,0.600000*%
G04 #@! TD*
G04 #@! TA.AperFunction,Conductor*
%ADD17C,0.200000*%
G04 #@! TD*
G04 APERTURE END LIST*
D10*
X137679999Y-117128771D03*
D11*
X136505000Y-117803771D03*
X136505000Y-118303770D03*
X136505000Y-118803769D03*
X136505000Y-119303770D03*
X136505000Y-119803770D03*
X136505000Y-120303771D03*
X136505000Y-120803770D03*
X136505000Y-121303769D03*
D10*
X137679999Y-121978769D03*
X139180001Y-121978769D03*
D11*
X140355000Y-121303769D03*
X140355000Y-120803770D03*
X140355000Y-120303771D03*
X140355000Y-119803770D03*
X140355000Y-119303770D03*
X140355000Y-118803769D03*
X140355000Y-118303770D03*
X140355000Y-117803771D03*
D10*
X139180001Y-117128771D03*
D12*
X138430000Y-119553770D03*
D13*
X138036300Y-118766370D03*
X138036300Y-119553770D03*
X138036300Y-120341170D03*
X138823700Y-118766370D03*
X138823700Y-119553770D03*
X138823700Y-120341170D03*
D14*
X129540000Y-106680000D03*
D15*
X129540000Y-109220000D03*
D14*
X129540000Y-111760000D03*
X129540000Y-114300000D03*
X129540000Y-116840000D03*
X129540000Y-119380000D03*
X129540000Y-121920000D03*
X129540000Y-124460000D03*
X129540000Y-127000000D03*
X129540000Y-129540000D03*
X129540000Y-132080000D03*
X129540000Y-134620000D03*
X147320000Y-106680000D03*
X147320000Y-109220000D03*
X147320000Y-111760000D03*
X147320000Y-114300000D03*
X147320000Y-116840000D03*
X147320000Y-119380000D03*
X147320000Y-121920000D03*
X147320000Y-124460000D03*
X147320000Y-127000000D03*
X147320000Y-129540000D03*
X147320000Y-132080000D03*
X147320000Y-134620000D03*
D16*
X138430000Y-129540000D03*
X138430000Y-109220000D03*
X138430000Y-115824000D03*
X138430000Y-123190000D03*
D17*
X131318000Y-130302000D02*
X129540000Y-132080000D01*
X137679999Y-121978769D02*
X137679999Y-122670001D01*
X137679999Y-122670001D02*
X131318000Y-129032000D01*
X131318000Y-129032000D02*
X131318000Y-130302000D01*
X136505000Y-118303770D02*
X135575770Y-118303770D01*
X135575770Y-118303770D02*
X131572000Y-114300000D01*
X131572000Y-114300000D02*
X129540000Y-114300000D01*
X134958230Y-119803770D02*
X132842000Y-121920000D01*
X136505000Y-119803770D02*
X134958230Y-119803770D01*
X132842000Y-121920000D02*
X129540000Y-121920000D01*
X134500000Y-122802000D02*
X130302000Y-127000000D01*
X135482230Y-120803770D02*
X134500000Y-121786000D01*
X130302000Y-127000000D02*
X129540000Y-127000000D01*
X134500000Y-121786000D02*
X134500000Y-122802000D01*
X136505000Y-120803770D02*
X135482230Y-120803770D01*
X137679999Y-117128771D02*
X137679999Y-116343999D01*
X137679999Y-116343999D02*
X130556000Y-109220000D01*
X130556000Y-109220000D02*
X129540000Y-109220000D01*
X136505000Y-120303771D02*
X135220229Y-120303771D01*
X135220229Y-120303771D02*
X131064000Y-124460000D01*
X131064000Y-124460000D02*
X129540000Y-124460000D01*
X135837771Y-117803771D02*
X129794000Y-111760000D01*
X136505000Y-117803771D02*
X135837771Y-117803771D01*
X129794000Y-111760000D02*
X129540000Y-111760000D01*
X141022229Y-117803771D02*
X147066000Y-111760000D01*
X140355000Y-117803771D02*
X141022229Y-117803771D01*
X147066000Y-111760000D02*
X147320000Y-111760000D01*
X139180001Y-117128771D02*
X139180001Y-116343999D01*
X139180001Y-116343999D02*
X146304000Y-109220000D01*
X146304000Y-109220000D02*
X147320000Y-109220000D01*
X141284230Y-118303770D02*
X145288000Y-114300000D01*
X140355000Y-118303770D02*
X141284230Y-118303770D01*
X145288000Y-114300000D02*
X147320000Y-114300000D01*
X136505000Y-121303769D02*
X135744231Y-121303769D01*
X135500000Y-123580000D02*
X129540000Y-129540000D01*
X135500000Y-121548000D02*
X135500000Y-123580000D01*
X135744231Y-121303769D02*
X135500000Y-121548000D01*
X145796000Y-124460000D02*
X147320000Y-124460000D01*
X140355000Y-120303771D02*
X141639771Y-120303771D01*
X141639771Y-120303771D02*
X145796000Y-124460000D01*
X138430000Y-116332000D02*
X138430000Y-122809000D01*
X140355000Y-119303770D02*
X147243770Y-119303770D01*
X147243770Y-119303770D02*
X147320000Y-119380000D01*
X144018000Y-121920000D02*
X147320000Y-121920000D01*
X140355000Y-119803770D02*
X141901770Y-119803770D01*
X141901770Y-119803770D02*
X144018000Y-121920000D01*
X141546231Y-118803769D02*
X143510000Y-116840000D01*
X143510000Y-116840000D02*
X147320000Y-116840000D01*
X140355000Y-118803769D02*
X141546231Y-118803769D01*
X136505000Y-119303770D02*
X129616230Y-119303770D01*
X129616230Y-119303770D02*
X129540000Y-119380000D01*
X136505000Y-118803769D02*
X135313769Y-118803769D01*
X135313769Y-118803769D02*
X133350000Y-116840000D01*
X133350000Y-116840000D02*
X129540000Y-116840000D01*
X142250000Y-122692000D02*
X146558000Y-127000000D01*
X140355000Y-120803770D02*
X141377770Y-120803770D01*
X146558000Y-127000000D02*
X147320000Y-127000000D01*
X142250000Y-121676000D02*
X142250000Y-122692000D01*
X141377770Y-120803770D02*
X142250000Y-121676000D01*
X141250000Y-123470000D02*
X147320000Y-129540000D01*
X141250000Y-121438000D02*
X141250000Y-123470000D01*
X140355000Y-121303769D02*
X141115769Y-121303769D01*
X141115769Y-121303769D02*
X141250000Y-121438000D01*
X139180001Y-121978769D02*
X139180001Y-122670001D01*
X145542000Y-130302000D02*
X147320000Y-132080000D01*
X145542000Y-129032000D02*
X145542000Y-130302000D01*
X139180001Y-122670001D02*
X145542000Y-129032000D01*
G04 #@! TA.AperFunction,Conductor*
G36*
X138489426Y-122621482D02*
G01*
X138538832Y-122670887D01*
X138546181Y-122686979D01*
X138588255Y-122799786D01*
X138597503Y-122824579D01*
X138598160Y-122825337D01*
X138605143Y-122844762D01*
X138620421Y-122901781D01*
X138620423Y-122901784D01*
X138640358Y-122936311D01*
X138640359Y-122936315D01*
X138699476Y-123038710D01*
X138699482Y-123038718D01*
X138818350Y-123157586D01*
X138818356Y-123157591D01*
X144905181Y-129244416D01*
X144938666Y-129305739D01*
X144941500Y-129332097D01*
X144941500Y-130215330D01*
X144941499Y-130215348D01*
X144941499Y-130381054D01*
X144941498Y-130381054D01*
X144941499Y-130381057D01*
X144982423Y-130533785D01*
X144982424Y-130533786D01*
X144986298Y-130540498D01*
X144986300Y-130540500D01*
X145061477Y-130670712D01*
X145061481Y-130670717D01*
X145180349Y-130789585D01*
X145180355Y-130789590D01*
X145986241Y-131595476D01*
X146019726Y-131656799D01*
X146016492Y-131721473D01*
X146002753Y-131763757D01*
X145969500Y-131973713D01*
X145969500Y-132186286D01*
X146002753Y-132396239D01*
X146068444Y-132598414D01*
X146164951Y-132787820D01*
X146289890Y-132959786D01*
X146440213Y-133110109D01*
X146612179Y-133235048D01*
X146612181Y-133235049D01*
X146612184Y-133235051D01*
X146801588Y-133331557D01*
X147003757Y-133397246D01*
X147213713Y-133430500D01*
X147213714Y-133430500D01*
X147426286Y-133430500D01*
X147426287Y-133430500D01*
X147636243Y-133397246D01*
X147838412Y-133331557D01*
X147909205Y-133295485D01*
X147977874Y-133282590D01*
X148042614Y-133308866D01*
X148082872Y-133365972D01*
X148089500Y-133405971D01*
X148089500Y-135265500D01*
X148069815Y-135332539D01*
X148017011Y-135378294D01*
X147965500Y-135389500D01*
X128894500Y-135389500D01*
X128827461Y-135369815D01*
X128781706Y-135317011D01*
X128770500Y-135265500D01*
X128770500Y-133405971D01*
X128790185Y-133338932D01*
X128842989Y-133293177D01*
X128912147Y-133283233D01*
X128950793Y-133295485D01*
X129021588Y-133331557D01*
X129223757Y-133397246D01*
X129433713Y-133430500D01*
X129433714Y-133430500D01*
X129646286Y-133430500D01*
X129646287Y-133430500D01*
X129856243Y-133397246D01*
X130058412Y-133331557D01*
X130247816Y-133235051D01*
X130269789Y-133219086D01*
X130419786Y-133110109D01*
X130419788Y-133110106D01*
X130419792Y-133110104D01*
X130570104Y-132959792D01*
X130570106Y-132959788D01*
X130570109Y-132959786D01*
X130695048Y-132787820D01*
X130695047Y-132787820D01*
X130695051Y-132787816D01*
X130791557Y-132598412D01*
X130857246Y-132396243D01*
X130890500Y-132186287D01*
X130890500Y-131973713D01*
X130857246Y-131763757D01*
X130843506Y-131721473D01*
X130841512Y-131651635D01*
X130873755Y-131595478D01*
X131798520Y-130670716D01*
X131877577Y-130533784D01*
X131918501Y-130381057D01*
X131918501Y-130222942D01*
X131918501Y-130215339D01*
X131918500Y-130215329D01*
X131918500Y-129332096D01*
X131938185Y-129265057D01*
X131954814Y-129244420D01*
X138038505Y-123160728D01*
X138038510Y-123160725D01*
X138048713Y-123150521D01*
X138048715Y-123150521D01*
X138160519Y-123038717D01*
X138188124Y-122990903D01*
X138219628Y-122936337D01*
X138219631Y-122936329D01*
X138219640Y-122936315D01*
X138239576Y-122901786D01*
X138254855Y-122844762D01*
X138260961Y-122829513D01*
X138260694Y-122829414D01*
X138313818Y-122686981D01*
X138355689Y-122631047D01*
X138421153Y-122606630D01*
X138489426Y-122621482D01*
G37*
G04 #@! TD.AperFunction*
G04 #@! TA.AperFunction,Conductor*
G36*
X138446979Y-117762249D02*
G01*
X138473334Y-117764135D01*
X138480579Y-117769558D01*
X138489426Y-117771483D01*
X138508113Y-117790170D01*
X138529268Y-117806006D01*
X138535664Y-117817720D01*
X138538832Y-117820888D01*
X138546182Y-117836983D01*
X138596203Y-117971099D01*
X138596207Y-117971106D01*
X138682453Y-118086315D01*
X138682456Y-118086318D01*
X138797665Y-118172564D01*
X138797672Y-118172568D01*
X138842619Y-118189332D01*
X138932518Y-118222862D01*
X138992128Y-118229271D01*
X139130500Y-118229270D01*
X139137402Y-118231296D01*
X139144489Y-118230062D01*
X139170475Y-118241007D01*
X139197539Y-118248954D01*
X139202250Y-118254391D01*
X139208880Y-118257184D01*
X139224825Y-118280443D01*
X139243294Y-118301758D01*
X139245282Y-118310285D01*
X139248386Y-118314813D01*
X139252775Y-118342423D01*
X139254445Y-118349583D01*
X139254500Y-118351447D01*
X139254501Y-118491642D01*
X139260267Y-118545282D01*
X139260410Y-118550082D01*
X139259755Y-118552585D01*
X139259755Y-118567019D01*
X139254500Y-118615896D01*
X139254500Y-118615899D01*
X139254500Y-118615902D01*
X139254500Y-118991638D01*
X139254501Y-118991643D01*
X139257258Y-119017293D01*
X139259754Y-119040511D01*
X139259755Y-119040515D01*
X139259755Y-119067020D01*
X139254500Y-119115897D01*
X139254500Y-119115900D01*
X139254500Y-119115903D01*
X139254500Y-119491639D01*
X139254501Y-119491644D01*
X139259755Y-119540516D01*
X139259755Y-119567020D01*
X139254500Y-119615897D01*
X139254500Y-119615900D01*
X139254500Y-119615903D01*
X139254500Y-119991639D01*
X139254501Y-119991644D01*
X139257258Y-120017294D01*
X139259754Y-120040512D01*
X139259755Y-120040516D01*
X139259755Y-120067021D01*
X139254500Y-120115898D01*
X139254500Y-120115901D01*
X139254500Y-120115904D01*
X139254500Y-120491640D01*
X139254501Y-120491645D01*
X139259755Y-120540516D01*
X139260410Y-120557457D01*
X139260267Y-120562256D01*
X139254500Y-120615897D01*
X139254500Y-120756107D01*
X139254445Y-120757956D01*
X139244156Y-120789495D01*
X139234815Y-120821308D01*
X139233370Y-120822560D01*
X139232776Y-120824381D01*
X139207063Y-120845355D01*
X139182011Y-120867063D01*
X139179883Y-120867525D01*
X139178634Y-120868545D01*
X139171448Y-120869360D01*
X139130501Y-120878269D01*
X138992131Y-120878269D01*
X138992124Y-120878270D01*
X138932517Y-120884677D01*
X138797672Y-120934971D01*
X138797665Y-120934975D01*
X138682456Y-121021221D01*
X138682453Y-121021224D01*
X138596207Y-121136433D01*
X138596203Y-121136440D01*
X138546182Y-121270556D01*
X138504311Y-121326490D01*
X138438847Y-121350907D01*
X138370574Y-121336056D01*
X138321168Y-121286650D01*
X138313818Y-121270556D01*
X138263796Y-121136440D01*
X138263792Y-121136433D01*
X138177546Y-121021224D01*
X138177543Y-121021221D01*
X138062334Y-120934975D01*
X138062327Y-120934971D01*
X137927481Y-120884677D01*
X137927482Y-120884677D01*
X137867882Y-120878270D01*
X137867880Y-120878269D01*
X137867872Y-120878269D01*
X137867864Y-120878269D01*
X137729499Y-120878269D01*
X137722595Y-120876242D01*
X137715509Y-120877477D01*
X137689517Y-120866529D01*
X137662460Y-120858584D01*
X137657749Y-120853147D01*
X137651119Y-120850355D01*
X137635170Y-120827090D01*
X137616705Y-120805780D01*
X137614716Y-120797253D01*
X137611613Y-120792726D01*
X137607223Y-120765116D01*
X137605554Y-120757956D01*
X137605499Y-120756106D01*
X137605499Y-120615898D01*
X137599732Y-120562257D01*
X137599590Y-120557457D01*
X137600245Y-120554953D01*
X137600245Y-120540520D01*
X137605500Y-120491644D01*
X137605499Y-120115899D01*
X137605498Y-120115897D01*
X137605498Y-120115882D01*
X137600245Y-120067025D01*
X137600245Y-120040516D01*
X137605500Y-119991643D01*
X137605499Y-119615898D01*
X137600245Y-119567022D01*
X137600245Y-119540516D01*
X137605500Y-119491643D01*
X137605499Y-119115898D01*
X137605498Y-119115896D01*
X137605498Y-119115881D01*
X137600245Y-119067024D01*
X137600245Y-119040515D01*
X137605500Y-118991642D01*
X137605499Y-118615897D01*
X137600244Y-118567020D01*
X137599590Y-118550082D01*
X137599732Y-118545284D01*
X137605500Y-118491643D01*
X137605499Y-118351416D01*
X137605554Y-118349583D01*
X137615837Y-118318060D01*
X137625183Y-118286231D01*
X137626629Y-118284977D01*
X137627223Y-118283159D01*
X137652915Y-118262200D01*
X137677987Y-118240476D01*
X137680114Y-118240013D01*
X137681364Y-118238994D01*
X137688550Y-118238177D01*
X137729499Y-118229270D01*
X137867870Y-118229270D01*
X137867871Y-118229270D01*
X137927482Y-118222862D01*
X138062330Y-118172567D01*
X138177545Y-118086317D01*
X138263795Y-117971102D01*
X138313818Y-117836982D01*
X138329653Y-117815828D01*
X138342319Y-117792634D01*
X138350264Y-117788295D01*
X138355689Y-117781049D01*
X138380451Y-117771813D01*
X138403643Y-117759150D01*
X138412670Y-117759795D01*
X138421153Y-117756632D01*
X138446979Y-117762249D01*
G37*
G04 #@! TD.AperFunction*
G04 #@! TA.AperFunction,Conductor*
G36*
X148032539Y-105930185D02*
G01*
X148078294Y-105982989D01*
X148089500Y-106034500D01*
X148089500Y-107894028D01*
X148069815Y-107961067D01*
X148017011Y-108006822D01*
X147947853Y-108016766D01*
X147909206Y-108004513D01*
X147838417Y-107968445D01*
X147838414Y-107968444D01*
X147838412Y-107968443D01*
X147636243Y-107902754D01*
X147636241Y-107902753D01*
X147636240Y-107902753D01*
X147474957Y-107877208D01*
X147426287Y-107869500D01*
X147213713Y-107869500D01*
X147165042Y-107877208D01*
X147003760Y-107902753D01*
X146801585Y-107968444D01*
X146612179Y-108064951D01*
X146440213Y-108189890D01*
X146289890Y-108340213D01*
X146164949Y-108512182D01*
X146113260Y-108613626D01*
X146100822Y-108626794D01*
X146092521Y-108642898D01*
X146065665Y-108664017D01*
X146065285Y-108664421D01*
X146064778Y-108664716D01*
X146037858Y-108680259D01*
X146022095Y-108689360D01*
X145978689Y-108714420D01*
X145935285Y-108739479D01*
X145935282Y-108739481D01*
X138699482Y-115975281D01*
X138699481Y-115975283D01*
X138665410Y-116034297D01*
X138649362Y-116062093D01*
X138649360Y-116062094D01*
X138649360Y-116062095D01*
X138620426Y-116112208D01*
X138620425Y-116112209D01*
X138607932Y-116158834D01*
X138579500Y-116264942D01*
X138579500Y-116264944D01*
X138579500Y-116308856D01*
X138576949Y-116317541D01*
X138578238Y-116326503D01*
X138571682Y-116352189D01*
X138546182Y-116420558D01*
X138504311Y-116476492D01*
X138438847Y-116500909D01*
X138370574Y-116486057D01*
X138321168Y-116436652D01*
X138313818Y-116420558D01*
X138288318Y-116352189D01*
X138280500Y-116308856D01*
X138280500Y-116264944D01*
X138280500Y-116264942D01*
X138239576Y-116112214D01*
X138210638Y-116062094D01*
X138160519Y-115975283D01*
X138048715Y-115863479D01*
X138048714Y-115863478D01*
X138044384Y-115859148D01*
X138044373Y-115859138D01*
X131043590Y-108858355D01*
X131036521Y-108851286D01*
X131036520Y-108851284D01*
X130926815Y-108741579D01*
X130893333Y-108680259D01*
X130890499Y-108653901D01*
X130890499Y-108322129D01*
X130890498Y-108322123D01*
X130884091Y-108262516D01*
X130833797Y-108127671D01*
X130833793Y-108127664D01*
X130747547Y-108012455D01*
X130747544Y-108012452D01*
X130632335Y-107926206D01*
X130632328Y-107926202D01*
X130497482Y-107875908D01*
X130497483Y-107875908D01*
X130437883Y-107869501D01*
X130437881Y-107869500D01*
X130437873Y-107869500D01*
X130437865Y-107869500D01*
X128894500Y-107869500D01*
X128827461Y-107849815D01*
X128781706Y-107797011D01*
X128770500Y-107745500D01*
X128770500Y-106034500D01*
X128790185Y-105967461D01*
X128842989Y-105921706D01*
X128894500Y-105910500D01*
X147965500Y-105910500D01*
X148032539Y-105930185D01*
G37*
G04 #@! TD.AperFunction*
M02*
