G04 #@! TF.GenerationSoftware,KiCad,Pcbnew,9.0.6*
G04 #@! TF.CreationDate,2026-01-07T17:27:52-06:00*
G04 #@! TF.ProjectId,DHVQFN-20_4.65x3.65_P0.5,44485651-464e-42d3-9230-5f342e363578,rev?*
G04 #@! TF.SameCoordinates,Original*
G04 #@! TF.FileFunction,Legend,Top*
G04 #@! TF.FilePolarity,Positive*
%FSLAX46Y46*%
G04 Gerber Fmt 4.6, Leading zero omitted, Abs format (unit mm)*
G04 Created by KiCad (PCBNEW 9.0.6) date 2026-01-07 17:27:52*
%MOMM*%
%LPD*%
G01*
G04 APERTURE LIST*
%ADD10C,0.200000*%
%ADD11C,0.100000*%
%ADD12C,0.300000*%
%ADD13C,0.152400*%
%ADD14C,0.000000*%
%ADD15C,0.120000*%
%ADD16R,0.280000X1.200000*%
%ADD17R,1.200000X0.280000*%
%ADD18R,2.050000X3.049999*%
%ADD19C,0.508000*%
%ADD20C,1.700000*%
%ADD21R,1.700000X1.700000*%
G04 APERTURE END LIST*
D10*
X144631564Y-119812219D02*
X144060136Y-119812219D01*
X144345850Y-119812219D02*
X144345850Y-118812219D01*
X144345850Y-118812219D02*
X144250612Y-118955076D01*
X144250612Y-118955076D02*
X144155374Y-119050314D01*
X144155374Y-119050314D02*
X144060136Y-119097933D01*
X145488707Y-118812219D02*
X145298231Y-118812219D01*
X145298231Y-118812219D02*
X145202993Y-118859838D01*
X145202993Y-118859838D02*
X145155374Y-118907457D01*
X145155374Y-118907457D02*
X145060136Y-119050314D01*
X145060136Y-119050314D02*
X145012517Y-119240790D01*
X145012517Y-119240790D02*
X145012517Y-119621742D01*
X145012517Y-119621742D02*
X145060136Y-119716980D01*
X145060136Y-119716980D02*
X145107755Y-119764600D01*
X145107755Y-119764600D02*
X145202993Y-119812219D01*
X145202993Y-119812219D02*
X145393469Y-119812219D01*
X145393469Y-119812219D02*
X145488707Y-119764600D01*
X145488707Y-119764600D02*
X145536326Y-119716980D01*
X145536326Y-119716980D02*
X145583945Y-119621742D01*
X145583945Y-119621742D02*
X145583945Y-119383647D01*
X145583945Y-119383647D02*
X145536326Y-119288409D01*
X145536326Y-119288409D02*
X145488707Y-119240790D01*
X145488707Y-119240790D02*
X145393469Y-119193171D01*
X145393469Y-119193171D02*
X145202993Y-119193171D01*
X145202993Y-119193171D02*
X145107755Y-119240790D01*
X145107755Y-119240790D02*
X145060136Y-119288409D01*
X145060136Y-119288409D02*
X145012517Y-119383647D01*
X131765863Y-118812219D02*
X131289673Y-118812219D01*
X131289673Y-118812219D02*
X131242054Y-119288409D01*
X131242054Y-119288409D02*
X131289673Y-119240790D01*
X131289673Y-119240790D02*
X131384911Y-119193171D01*
X131384911Y-119193171D02*
X131623006Y-119193171D01*
X131623006Y-119193171D02*
X131718244Y-119240790D01*
X131718244Y-119240790D02*
X131765863Y-119288409D01*
X131765863Y-119288409D02*
X131813482Y-119383647D01*
X131813482Y-119383647D02*
X131813482Y-119621742D01*
X131813482Y-119621742D02*
X131765863Y-119716980D01*
X131765863Y-119716980D02*
X131718244Y-119764600D01*
X131718244Y-119764600D02*
X131623006Y-119812219D01*
X131623006Y-119812219D02*
X131384911Y-119812219D01*
X131384911Y-119812219D02*
X131289673Y-119764600D01*
X131289673Y-119764600D02*
X131242054Y-119716980D01*
D11*
X140976968Y-135238434D02*
X146431000Y-135238434D01*
X146431000Y-136017929D01*
X140976968Y-136017929D01*
X140976968Y-135238434D01*
G36*
X140976968Y-135238434D02*
G01*
X146431000Y-135238434D01*
X146431000Y-136017929D01*
X140976968Y-136017929D01*
X140976968Y-135238434D01*
G37*
X128143000Y-133477000D02*
X130864898Y-133477000D01*
X130864898Y-136017000D01*
X128143000Y-136017000D01*
X128143000Y-133477000D01*
G36*
X128143000Y-133477000D02*
G01*
X130864898Y-133477000D01*
X130864898Y-136017000D01*
X128143000Y-136017000D01*
X128143000Y-133477000D01*
G37*
X130455358Y-135238386D02*
X135838688Y-135238386D01*
X135838688Y-136025786D01*
X130455358Y-136025786D01*
X130455358Y-135238386D01*
G36*
X130455358Y-135238386D02*
G01*
X135838688Y-135238386D01*
X135838688Y-136025786D01*
X130455358Y-136025786D01*
X130455358Y-135238386D01*
G37*
X145974913Y-133477000D02*
X148717000Y-133477000D01*
X148717000Y-136017000D01*
X145974913Y-136017000D01*
X145974913Y-133477000D01*
G36*
X145974913Y-133477000D02*
G01*
X148717000Y-133477000D01*
X148717000Y-136017000D01*
X145974913Y-136017000D01*
X145974913Y-133477000D01*
G37*
X128143000Y-105410000D02*
X130928500Y-105410000D01*
X130928500Y-108077250D01*
X128143000Y-108077250D01*
X128143000Y-105410000D01*
G36*
X128143000Y-105410000D02*
G01*
X130928500Y-105410000D01*
X130928500Y-108077250D01*
X128143000Y-108077250D01*
X128143000Y-105410000D01*
G37*
X130556000Y-105410000D02*
X145973750Y-105410000D01*
X145973750Y-105638600D01*
X130556000Y-105638600D01*
X130556000Y-105410000D01*
G36*
X130556000Y-105410000D02*
G01*
X145973750Y-105410000D01*
X145973750Y-105638600D01*
X130556000Y-105638600D01*
X130556000Y-105410000D01*
G37*
X135636000Y-135934139D02*
X141097000Y-135934139D01*
X141097000Y-136017000D01*
X135636000Y-136017000D01*
X135636000Y-135934139D01*
G36*
X135636000Y-135934139D02*
G01*
X141097000Y-135934139D01*
X141097000Y-136017000D01*
X135636000Y-136017000D01*
X135636000Y-135934139D01*
G37*
X130378250Y-107670850D02*
X146685000Y-107670850D01*
X146685000Y-108077250D01*
X130378250Y-108077250D01*
X130378250Y-107670850D01*
G36*
X130378250Y-107670850D02*
G01*
X146685000Y-107670850D01*
X146685000Y-108077250D01*
X130378250Y-108077250D01*
X130378250Y-107670850D01*
G37*
X130937000Y-123063000D02*
X145923000Y-123063000D01*
X145923000Y-130048000D01*
X130937000Y-130048000D01*
X130937000Y-123063000D01*
G36*
X130937000Y-123063000D02*
G01*
X145923000Y-123063000D01*
X145923000Y-130048000D01*
X130937000Y-130048000D01*
X130937000Y-123063000D01*
G37*
X145825750Y-105410000D02*
X148687250Y-105410000D01*
X148687250Y-108077250D01*
X145825750Y-108077250D01*
X145825750Y-105410000D01*
G36*
X145825750Y-105410000D02*
G01*
X148687250Y-105410000D01*
X148687250Y-108077250D01*
X145825750Y-108077250D01*
X145825750Y-105410000D01*
G37*
D10*
X144077136Y-108767457D02*
X144124755Y-108719838D01*
X144124755Y-108719838D02*
X144219993Y-108672219D01*
X144219993Y-108672219D02*
X144458088Y-108672219D01*
X144458088Y-108672219D02*
X144553326Y-108719838D01*
X144553326Y-108719838D02*
X144600945Y-108767457D01*
X144600945Y-108767457D02*
X144648564Y-108862695D01*
X144648564Y-108862695D02*
X144648564Y-108957933D01*
X144648564Y-108957933D02*
X144600945Y-109100790D01*
X144600945Y-109100790D02*
X144029517Y-109672219D01*
X144029517Y-109672219D02*
X144648564Y-109672219D01*
X145267612Y-108672219D02*
X145362850Y-108672219D01*
X145362850Y-108672219D02*
X145458088Y-108719838D01*
X145458088Y-108719838D02*
X145505707Y-108767457D01*
X145505707Y-108767457D02*
X145553326Y-108862695D01*
X145553326Y-108862695D02*
X145600945Y-109053171D01*
X145600945Y-109053171D02*
X145600945Y-109291266D01*
X145600945Y-109291266D02*
X145553326Y-109481742D01*
X145553326Y-109481742D02*
X145505707Y-109576980D01*
X145505707Y-109576980D02*
X145458088Y-109624600D01*
X145458088Y-109624600D02*
X145362850Y-109672219D01*
X145362850Y-109672219D02*
X145267612Y-109672219D01*
X145267612Y-109672219D02*
X145172374Y-109624600D01*
X145172374Y-109624600D02*
X145124755Y-109576980D01*
X145124755Y-109576980D02*
X145077136Y-109481742D01*
X145077136Y-109481742D02*
X145029517Y-109291266D01*
X145029517Y-109291266D02*
X145029517Y-109053171D01*
X145029517Y-109053171D02*
X145077136Y-108862695D01*
X145077136Y-108862695D02*
X145124755Y-108767457D01*
X145124755Y-108767457D02*
X145172374Y-108719838D01*
X145172374Y-108719838D02*
X145267612Y-108672219D01*
D12*
G36*
X145150162Y-106148973D02*
G01*
X145246007Y-106244818D01*
X145296805Y-106346415D01*
X145357381Y-106588715D01*
X145357381Y-106758929D01*
X145296805Y-107001229D01*
X145246007Y-107102825D01*
X145150163Y-107198669D01*
X144999705Y-107248822D01*
X144828810Y-107248822D01*
X144828810Y-106098822D01*
X144999708Y-106098822D01*
X145150162Y-106148973D01*
G37*
G36*
X135959003Y-106141148D02*
G01*
X135993626Y-106175771D01*
X136035952Y-106260423D01*
X136035952Y-106396745D01*
X135993626Y-106481397D01*
X135959003Y-106516019D01*
X135874352Y-106558346D01*
X135507381Y-106558346D01*
X135507381Y-106098822D01*
X135874352Y-106098822D01*
X135959003Y-106141148D01*
G37*
G36*
X138877837Y-106834536D02*
G01*
X138603590Y-106834536D01*
X138740713Y-106423164D01*
X138877837Y-106834536D01*
G37*
G36*
X143849266Y-106834536D02*
G01*
X143575019Y-106834536D01*
X143712142Y-106423164D01*
X143849266Y-106834536D01*
G37*
G36*
X142587575Y-106141148D02*
G01*
X142622198Y-106175771D01*
X142664524Y-106260423D01*
X142664524Y-106396745D01*
X142622198Y-106481397D01*
X142587575Y-106516019D01*
X142502924Y-106558346D01*
X142135953Y-106558346D01*
X142135953Y-106098822D01*
X142502924Y-106098822D01*
X142587575Y-106141148D01*
G37*
G36*
X145818492Y-107709933D02*
G01*
X130906294Y-107709933D01*
X130906294Y-105919558D01*
X131067405Y-105919558D01*
X131067405Y-105978086D01*
X131089803Y-106032158D01*
X131131187Y-106073542D01*
X131185259Y-106095940D01*
X131214523Y-106098822D01*
X131478808Y-106098822D01*
X131478808Y-107398822D01*
X131481690Y-107428086D01*
X131504088Y-107482158D01*
X131545472Y-107523542D01*
X131599544Y-107545940D01*
X131658072Y-107545940D01*
X131712144Y-107523542D01*
X131753528Y-107482158D01*
X131775926Y-107428086D01*
X131778808Y-107398822D01*
X131778808Y-106098822D01*
X132043094Y-106098822D01*
X132072358Y-106095940D01*
X132126430Y-106073542D01*
X132167814Y-106032158D01*
X132190212Y-105978086D01*
X132190212Y-105948822D01*
X132376428Y-105948822D01*
X132376428Y-107398822D01*
X132379310Y-107428086D01*
X132401708Y-107482158D01*
X132443092Y-107523542D01*
X132497164Y-107545940D01*
X132555692Y-107545940D01*
X132609764Y-107523542D01*
X132651148Y-107482158D01*
X132673546Y-107428086D01*
X132676428Y-107398822D01*
X132676428Y-106789298D01*
X133204999Y-106789298D01*
X133204999Y-107398822D01*
X133207881Y-107428086D01*
X133230279Y-107482158D01*
X133271663Y-107523542D01*
X133325735Y-107545940D01*
X133384263Y-107545940D01*
X133438335Y-107523542D01*
X133479719Y-107482158D01*
X133502117Y-107428086D01*
X133504999Y-107398822D01*
X133504999Y-105948822D01*
X133895476Y-105948822D01*
X133895476Y-107398822D01*
X133898358Y-107428086D01*
X133920756Y-107482158D01*
X133962140Y-107523542D01*
X134016212Y-107545940D01*
X134045476Y-107548822D01*
X134735952Y-107548822D01*
X134765216Y-107545940D01*
X134819288Y-107523542D01*
X134860672Y-107482158D01*
X134883070Y-107428086D01*
X134883070Y-107369558D01*
X134860672Y-107315486D01*
X134819288Y-107274102D01*
X134765216Y-107251704D01*
X134735952Y-107248822D01*
X134195476Y-107248822D01*
X134195476Y-106789298D01*
X134528809Y-106789298D01*
X134558073Y-106786416D01*
X134612145Y-106764018D01*
X134653529Y-106722634D01*
X134675927Y-106668562D01*
X134675927Y-106610034D01*
X134653529Y-106555962D01*
X134612145Y-106514578D01*
X134558073Y-106492180D01*
X134528809Y-106489298D01*
X134195476Y-106489298D01*
X134195476Y-106098822D01*
X134735952Y-106098822D01*
X134765216Y-106095940D01*
X134819288Y-106073542D01*
X134860672Y-106032158D01*
X134883070Y-105978086D01*
X134883070Y-105948822D01*
X135207381Y-105948822D01*
X135207381Y-107398822D01*
X135210263Y-107428086D01*
X135232661Y-107482158D01*
X135274045Y-107523542D01*
X135328117Y-107545940D01*
X135386645Y-107545940D01*
X135440717Y-107523542D01*
X135482101Y-107482158D01*
X135504499Y-107428086D01*
X135507381Y-107398822D01*
X135507381Y-106858346D01*
X135624521Y-106858346D01*
X136063067Y-107484841D01*
X136082210Y-107507162D01*
X136131567Y-107538616D01*
X136189203Y-107548786D01*
X136246344Y-107536127D01*
X136294292Y-107502564D01*
X136325746Y-107453206D01*
X136335917Y-107395571D01*
X136323257Y-107338429D01*
X136308837Y-107312802D01*
X135978909Y-106841477D01*
X136114939Y-106773462D01*
X136127532Y-106765534D01*
X136131192Y-106764019D01*
X136135311Y-106760637D01*
X136139825Y-106757797D01*
X136142421Y-106754802D01*
X136153923Y-106745364D01*
X136222970Y-106676317D01*
X136232410Y-106664814D01*
X136235403Y-106662219D01*
X136238241Y-106657709D01*
X136241625Y-106653587D01*
X136243141Y-106649924D01*
X136251068Y-106637333D01*
X136320116Y-106499237D01*
X136330626Y-106471774D01*
X136331008Y-106466396D01*
X136333070Y-106461419D01*
X136335952Y-106432155D01*
X136335952Y-106225013D01*
X136333070Y-106195749D01*
X136331008Y-106190771D01*
X136330626Y-106185394D01*
X136320116Y-106157931D01*
X136251068Y-106019835D01*
X136243141Y-106007243D01*
X136241625Y-106003581D01*
X136238241Y-105999458D01*
X136235403Y-105994949D01*
X136232410Y-105992353D01*
X136222970Y-105980851D01*
X136190941Y-105948822D01*
X136657381Y-105948822D01*
X136657381Y-107398822D01*
X136660263Y-107428086D01*
X136682661Y-107482158D01*
X136724045Y-107523542D01*
X136778117Y-107545940D01*
X136836645Y-107545940D01*
X136890717Y-107523542D01*
X136932101Y-107482158D01*
X136954499Y-107428086D01*
X136957381Y-107398822D01*
X136957381Y-106624957D01*
X137154786Y-107047969D01*
X137161135Y-107058687D01*
X137162454Y-107062314D01*
X137164803Y-107064879D01*
X137169773Y-107073269D01*
X137186585Y-107088664D01*
X137201981Y-107105477D01*
X137208022Y-107108296D01*
X137212936Y-107112796D01*
X137234359Y-107120586D01*
X137255019Y-107130227D01*
X137261676Y-107130519D01*
X137267939Y-107132797D01*
X137290714Y-107131795D01*
X137313489Y-107132797D01*
X137319751Y-107130519D01*
X137326409Y-107130227D01*
X137347064Y-107120587D01*
X137368492Y-107112796D01*
X137373407Y-107108294D01*
X137379447Y-107105476D01*
X137394839Y-107088668D01*
X137411655Y-107073269D01*
X137416624Y-107064880D01*
X137418974Y-107062314D01*
X137420293Y-107058684D01*
X137426641Y-107047969D01*
X137624047Y-106624955D01*
X137624047Y-107398822D01*
X137626929Y-107428086D01*
X137649327Y-107482158D01*
X137690711Y-107523542D01*
X137744783Y-107545940D01*
X137803311Y-107545940D01*
X137857383Y-107523542D01*
X137898767Y-107482158D01*
X137921165Y-107428086D01*
X137924047Y-107398822D01*
X137924047Y-107380062D01*
X138108559Y-107380062D01*
X138112708Y-107438442D01*
X138138882Y-107490789D01*
X138183096Y-107529136D01*
X138238621Y-107547644D01*
X138297001Y-107543495D01*
X138349348Y-107517321D01*
X138387695Y-107473107D01*
X138399684Y-107446256D01*
X138503590Y-107134536D01*
X138977837Y-107134536D01*
X139081744Y-107446256D01*
X139093733Y-107473107D01*
X139132080Y-107517321D01*
X139184427Y-107543495D01*
X139242807Y-107547644D01*
X139298332Y-107529136D01*
X139342546Y-107490789D01*
X139368720Y-107438441D01*
X139372869Y-107380061D01*
X139366349Y-107351388D01*
X138898828Y-105948822D01*
X139557381Y-105948822D01*
X139557381Y-107398822D01*
X139560263Y-107428086D01*
X139582661Y-107482158D01*
X139624045Y-107523542D01*
X139678117Y-107545940D01*
X139707381Y-107548822D01*
X140397857Y-107548822D01*
X140427121Y-107545940D01*
X140481193Y-107523542D01*
X140522577Y-107482158D01*
X140544975Y-107428086D01*
X140544975Y-107369558D01*
X140522577Y-107315486D01*
X140481193Y-107274102D01*
X140427121Y-107251704D01*
X140397857Y-107248822D01*
X139857381Y-107248822D01*
X139857381Y-105948822D01*
X141835953Y-105948822D01*
X141835953Y-107398822D01*
X141838835Y-107428086D01*
X141861233Y-107482158D01*
X141902617Y-107523542D01*
X141956689Y-107545940D01*
X142015217Y-107545940D01*
X142069289Y-107523542D01*
X142110673Y-107482158D01*
X142133071Y-107428086D01*
X142135953Y-107398822D01*
X142135953Y-107380062D01*
X143079988Y-107380062D01*
X143084137Y-107438442D01*
X143110311Y-107490789D01*
X143154525Y-107529136D01*
X143210050Y-107547644D01*
X143268430Y-107543495D01*
X143320777Y-107517321D01*
X143359124Y-107473107D01*
X143371113Y-107446256D01*
X143475019Y-107134536D01*
X143949266Y-107134536D01*
X144053173Y-107446256D01*
X144065162Y-107473107D01*
X144103509Y-107517321D01*
X144155856Y-107543495D01*
X144214236Y-107547644D01*
X144269761Y-107529136D01*
X144313975Y-107490789D01*
X144340149Y-107438441D01*
X144344298Y-107380061D01*
X144337778Y-107351388D01*
X143870257Y-105948822D01*
X144528810Y-105948822D01*
X144528810Y-107398822D01*
X144531692Y-107428086D01*
X144554090Y-107482158D01*
X144595474Y-107523542D01*
X144649546Y-107545940D01*
X144678810Y-107548822D01*
X145024048Y-107548822D01*
X145038853Y-107547363D01*
X145042808Y-107547645D01*
X145048009Y-107546462D01*
X145053312Y-107545940D01*
X145056969Y-107544424D01*
X145071482Y-107541125D01*
X145278625Y-107472078D01*
X145305476Y-107460089D01*
X145309545Y-107456559D01*
X145314527Y-107454496D01*
X145337257Y-107435841D01*
X145475353Y-107297744D01*
X145484795Y-107286238D01*
X145487785Y-107283646D01*
X145490620Y-107279141D01*
X145494008Y-107275014D01*
X145495526Y-107271348D01*
X145503450Y-107258761D01*
X145572497Y-107120665D01*
X145573314Y-107118528D01*
X145573961Y-107117656D01*
X145578350Y-107105369D01*
X145583007Y-107093202D01*
X145583083Y-107092120D01*
X145583854Y-107089965D01*
X145652902Y-106813775D01*
X145653652Y-106808702D01*
X145654499Y-106806658D01*
X145655584Y-106795638D01*
X145657204Y-106784686D01*
X145656878Y-106782497D01*
X145657381Y-106777394D01*
X145657381Y-106570251D01*
X145656878Y-106565147D01*
X145657204Y-106562960D01*
X145655584Y-106552008D01*
X145654499Y-106540987D01*
X145653652Y-106538942D01*
X145652902Y-106533870D01*
X145583854Y-106257680D01*
X145583083Y-106255524D01*
X145583007Y-106254442D01*
X145578347Y-106242267D01*
X145573961Y-106229988D01*
X145573314Y-106229115D01*
X145572497Y-106226979D01*
X145503450Y-106088883D01*
X145495523Y-106076291D01*
X145494007Y-106072630D01*
X145490623Y-106068507D01*
X145487785Y-106063998D01*
X145484793Y-106061403D01*
X145475352Y-106049899D01*
X145337257Y-105911804D01*
X145314526Y-105893149D01*
X145309546Y-105891086D01*
X145305476Y-105887556D01*
X145278625Y-105875568D01*
X145071482Y-105806520D01*
X145056974Y-105803221D01*
X145053312Y-105801704D01*
X145048003Y-105801181D01*
X145042809Y-105800000D01*
X145038859Y-105800280D01*
X145024048Y-105798822D01*
X144678810Y-105798822D01*
X144649546Y-105801704D01*
X144595474Y-105824102D01*
X144554090Y-105865486D01*
X144531692Y-105919558D01*
X144528810Y-105948822D01*
X143870257Y-105948822D01*
X143854446Y-105901388D01*
X143842457Y-105874537D01*
X143835434Y-105866440D01*
X143830642Y-105856855D01*
X143816433Y-105844531D01*
X143804110Y-105830323D01*
X143794524Y-105825530D01*
X143786428Y-105818508D01*
X143768586Y-105812560D01*
X143751763Y-105804149D01*
X143741070Y-105803389D01*
X143730903Y-105800000D01*
X143712143Y-105801333D01*
X143693383Y-105800000D01*
X143683215Y-105803389D01*
X143672523Y-105804149D01*
X143655699Y-105812560D01*
X143637858Y-105818508D01*
X143629761Y-105825530D01*
X143620176Y-105830323D01*
X143607852Y-105844531D01*
X143593644Y-105856855D01*
X143588851Y-105866440D01*
X143581829Y-105874537D01*
X143569840Y-105901388D01*
X143086507Y-107351388D01*
X143079988Y-107380062D01*
X142135953Y-107380062D01*
X142135953Y-106858346D01*
X142538334Y-106858346D01*
X142567598Y-106855464D01*
X142572578Y-106853400D01*
X142577953Y-106853019D01*
X142605416Y-106842510D01*
X142743511Y-106773462D01*
X142756104Y-106765534D01*
X142759764Y-106764019D01*
X142763883Y-106760637D01*
X142768397Y-106757797D01*
X142770993Y-106754802D01*
X142782495Y-106745364D01*
X142851542Y-106676317D01*
X142860982Y-106664814D01*
X142863975Y-106662219D01*
X142866813Y-106657709D01*
X142870197Y-106653587D01*
X142871713Y-106649924D01*
X142879640Y-106637333D01*
X142948688Y-106499237D01*
X142959198Y-106471774D01*
X142959580Y-106466396D01*
X142961642Y-106461419D01*
X142964524Y-106432155D01*
X142964524Y-106225013D01*
X142961642Y-106195749D01*
X142959580Y-106190771D01*
X142959198Y-106185394D01*
X142948688Y-106157931D01*
X142879640Y-106019835D01*
X142871713Y-106007243D01*
X142870197Y-106003581D01*
X142866813Y-105999458D01*
X142863975Y-105994949D01*
X142860982Y-105992353D01*
X142851542Y-105980851D01*
X142782495Y-105911804D01*
X142770993Y-105902365D01*
X142768397Y-105899371D01*
X142763883Y-105896530D01*
X142759764Y-105893149D01*
X142756104Y-105891633D01*
X142743511Y-105883706D01*
X142605416Y-105814658D01*
X142577953Y-105804149D01*
X142572578Y-105803767D01*
X142567598Y-105801704D01*
X142538334Y-105798822D01*
X141985953Y-105798822D01*
X141956689Y-105801704D01*
X141902617Y-105824102D01*
X141861233Y-105865486D01*
X141838835Y-105919558D01*
X141835953Y-105948822D01*
X139857381Y-105948822D01*
X139854499Y-105919558D01*
X139832101Y-105865486D01*
X139790717Y-105824102D01*
X139736645Y-105801704D01*
X139678117Y-105801704D01*
X139624045Y-105824102D01*
X139582661Y-105865486D01*
X139560263Y-105919558D01*
X139557381Y-105948822D01*
X138898828Y-105948822D01*
X138883017Y-105901388D01*
X138871028Y-105874537D01*
X138864005Y-105866440D01*
X138859213Y-105856855D01*
X138845004Y-105844531D01*
X138832681Y-105830323D01*
X138823095Y-105825530D01*
X138814999Y-105818508D01*
X138797157Y-105812560D01*
X138780334Y-105804149D01*
X138769641Y-105803389D01*
X138759474Y-105800000D01*
X138740714Y-105801333D01*
X138721954Y-105800000D01*
X138711786Y-105803389D01*
X138701094Y-105804149D01*
X138684270Y-105812560D01*
X138666429Y-105818508D01*
X138658332Y-105825530D01*
X138648747Y-105830323D01*
X138636423Y-105844531D01*
X138622215Y-105856855D01*
X138617422Y-105866440D01*
X138610400Y-105874537D01*
X138598411Y-105901388D01*
X138115078Y-107351388D01*
X138108559Y-107380062D01*
X137924047Y-107380062D01*
X137924047Y-105948822D01*
X137922152Y-105929585D01*
X137922308Y-105926047D01*
X137921616Y-105924146D01*
X137921165Y-105919558D01*
X137911203Y-105895509D01*
X137902307Y-105871044D01*
X137900047Y-105868576D01*
X137898767Y-105865486D01*
X137880363Y-105847082D01*
X137862780Y-105827882D01*
X137859748Y-105826467D01*
X137857383Y-105824102D01*
X137833328Y-105814138D01*
X137809742Y-105803131D01*
X137806401Y-105802984D01*
X137803311Y-105801704D01*
X137777276Y-105801704D01*
X137751272Y-105800561D01*
X137748129Y-105801704D01*
X137744783Y-105801704D01*
X137720734Y-105811665D01*
X137696269Y-105820562D01*
X137693801Y-105822821D01*
X137690711Y-105824102D01*
X137672313Y-105842499D01*
X137653106Y-105860089D01*
X137650754Y-105864058D01*
X137649327Y-105865486D01*
X137647973Y-105868752D01*
X137638119Y-105885389D01*
X137290713Y-106629830D01*
X136943308Y-105885389D01*
X136933454Y-105868754D01*
X136932101Y-105865486D01*
X136930672Y-105864057D01*
X136928322Y-105860089D01*
X136909114Y-105842499D01*
X136890717Y-105824102D01*
X136887626Y-105822821D01*
X136885159Y-105820562D01*
X136860693Y-105811665D01*
X136836645Y-105801704D01*
X136833299Y-105801704D01*
X136830156Y-105800561D01*
X136804152Y-105801704D01*
X136778117Y-105801704D01*
X136775026Y-105802984D01*
X136771686Y-105803131D01*
X136748090Y-105814141D01*
X136724045Y-105824102D01*
X136721681Y-105826465D01*
X136718648Y-105827881D01*
X136701058Y-105847088D01*
X136682661Y-105865486D01*
X136681380Y-105868576D01*
X136679121Y-105871044D01*
X136670224Y-105895509D01*
X136660263Y-105919558D01*
X136659811Y-105924146D01*
X136659120Y-105926047D01*
X136659275Y-105929585D01*
X136657381Y-105948822D01*
X136190941Y-105948822D01*
X136153923Y-105911804D01*
X136142421Y-105902365D01*
X136139825Y-105899371D01*
X136135311Y-105896530D01*
X136131192Y-105893149D01*
X136127532Y-105891633D01*
X136114939Y-105883706D01*
X135976844Y-105814658D01*
X135949381Y-105804149D01*
X135944006Y-105803767D01*
X135939026Y-105801704D01*
X135909762Y-105798822D01*
X135357381Y-105798822D01*
X135328117Y-105801704D01*
X135274045Y-105824102D01*
X135232661Y-105865486D01*
X135210263Y-105919558D01*
X135207381Y-105948822D01*
X134883070Y-105948822D01*
X134883070Y-105919558D01*
X134860672Y-105865486D01*
X134819288Y-105824102D01*
X134765216Y-105801704D01*
X134735952Y-105798822D01*
X134045476Y-105798822D01*
X134016212Y-105801704D01*
X133962140Y-105824102D01*
X133920756Y-105865486D01*
X133898358Y-105919558D01*
X133895476Y-105948822D01*
X133504999Y-105948822D01*
X133502117Y-105919558D01*
X133479719Y-105865486D01*
X133438335Y-105824102D01*
X133384263Y-105801704D01*
X133325735Y-105801704D01*
X133271663Y-105824102D01*
X133230279Y-105865486D01*
X133207881Y-105919558D01*
X133204999Y-105948822D01*
X133204999Y-106489298D01*
X132676428Y-106489298D01*
X132676428Y-105948822D01*
X132673546Y-105919558D01*
X132651148Y-105865486D01*
X132609764Y-105824102D01*
X132555692Y-105801704D01*
X132497164Y-105801704D01*
X132443092Y-105824102D01*
X132401708Y-105865486D01*
X132379310Y-105919558D01*
X132376428Y-105948822D01*
X132190212Y-105948822D01*
X132190212Y-105919558D01*
X132167814Y-105865486D01*
X132126430Y-105824102D01*
X132072358Y-105801704D01*
X132043094Y-105798822D01*
X131214523Y-105798822D01*
X131185259Y-105801704D01*
X131131187Y-105824102D01*
X131089803Y-105865486D01*
X131067405Y-105919558D01*
X130906294Y-105919558D01*
X130906294Y-105637711D01*
X145818492Y-105637711D01*
X145818492Y-107709933D01*
G37*
D10*
X131830482Y-109672219D02*
X131259054Y-109672219D01*
X131544768Y-109672219D02*
X131544768Y-108672219D01*
X131544768Y-108672219D02*
X131449530Y-108815076D01*
X131449530Y-108815076D02*
X131354292Y-108910314D01*
X131354292Y-108910314D02*
X131259054Y-108957933D01*
X134104595Y-131560075D02*
X134104595Y-130560075D01*
X134104595Y-130560075D02*
X134342690Y-130560075D01*
X134342690Y-130560075D02*
X134485547Y-130607694D01*
X134485547Y-130607694D02*
X134580785Y-130702932D01*
X134580785Y-130702932D02*
X134628404Y-130798170D01*
X134628404Y-130798170D02*
X134676023Y-130988646D01*
X134676023Y-130988646D02*
X134676023Y-131131503D01*
X134676023Y-131131503D02*
X134628404Y-131321979D01*
X134628404Y-131321979D02*
X134580785Y-131417217D01*
X134580785Y-131417217D02*
X134485547Y-131512456D01*
X134485547Y-131512456D02*
X134342690Y-131560075D01*
X134342690Y-131560075D02*
X134104595Y-131560075D01*
X135104595Y-131560075D02*
X135104595Y-130560075D01*
X135104595Y-131036265D02*
X135676023Y-131036265D01*
X135676023Y-131560075D02*
X135676023Y-130560075D01*
X136009357Y-130560075D02*
X136342690Y-131560075D01*
X136342690Y-131560075D02*
X136676023Y-130560075D01*
X137676023Y-131655313D02*
X137580785Y-131607694D01*
X137580785Y-131607694D02*
X137485547Y-131512456D01*
X137485547Y-131512456D02*
X137342690Y-131369598D01*
X137342690Y-131369598D02*
X137247452Y-131321979D01*
X137247452Y-131321979D02*
X137152214Y-131321979D01*
X137199833Y-131560075D02*
X137104595Y-131512456D01*
X137104595Y-131512456D02*
X137009357Y-131417217D01*
X137009357Y-131417217D02*
X136961738Y-131226741D01*
X136961738Y-131226741D02*
X136961738Y-130893408D01*
X136961738Y-130893408D02*
X137009357Y-130702932D01*
X137009357Y-130702932D02*
X137104595Y-130607694D01*
X137104595Y-130607694D02*
X137199833Y-130560075D01*
X137199833Y-130560075D02*
X137390309Y-130560075D01*
X137390309Y-130560075D02*
X137485547Y-130607694D01*
X137485547Y-130607694D02*
X137580785Y-130702932D01*
X137580785Y-130702932D02*
X137628404Y-130893408D01*
X137628404Y-130893408D02*
X137628404Y-131226741D01*
X137628404Y-131226741D02*
X137580785Y-131417217D01*
X137580785Y-131417217D02*
X137485547Y-131512456D01*
X137485547Y-131512456D02*
X137390309Y-131560075D01*
X137390309Y-131560075D02*
X137199833Y-131560075D01*
X138390309Y-131036265D02*
X138056976Y-131036265D01*
X138056976Y-131560075D02*
X138056976Y-130560075D01*
X138056976Y-130560075D02*
X138533166Y-130560075D01*
X138914119Y-131560075D02*
X138914119Y-130560075D01*
X138914119Y-130560075D02*
X139485547Y-131560075D01*
X139485547Y-131560075D02*
X139485547Y-130560075D01*
X139961738Y-131179122D02*
X140723643Y-131179122D01*
X141152214Y-130655313D02*
X141199833Y-130607694D01*
X141199833Y-130607694D02*
X141295071Y-130560075D01*
X141295071Y-130560075D02*
X141533166Y-130560075D01*
X141533166Y-130560075D02*
X141628404Y-130607694D01*
X141628404Y-130607694D02*
X141676023Y-130655313D01*
X141676023Y-130655313D02*
X141723642Y-130750551D01*
X141723642Y-130750551D02*
X141723642Y-130845789D01*
X141723642Y-130845789D02*
X141676023Y-130988646D01*
X141676023Y-130988646D02*
X141104595Y-131560075D01*
X141104595Y-131560075D02*
X141723642Y-131560075D01*
X142342690Y-130560075D02*
X142437928Y-130560075D01*
X142437928Y-130560075D02*
X142533166Y-130607694D01*
X142533166Y-130607694D02*
X142580785Y-130655313D01*
X142580785Y-130655313D02*
X142628404Y-130750551D01*
X142628404Y-130750551D02*
X142676023Y-130941027D01*
X142676023Y-130941027D02*
X142676023Y-131179122D01*
X142676023Y-131179122D02*
X142628404Y-131369598D01*
X142628404Y-131369598D02*
X142580785Y-131464836D01*
X142580785Y-131464836D02*
X142533166Y-131512456D01*
X142533166Y-131512456D02*
X142437928Y-131560075D01*
X142437928Y-131560075D02*
X142342690Y-131560075D01*
X142342690Y-131560075D02*
X142247452Y-131512456D01*
X142247452Y-131512456D02*
X142199833Y-131464836D01*
X142199833Y-131464836D02*
X142152214Y-131369598D01*
X142152214Y-131369598D02*
X142104595Y-131179122D01*
X142104595Y-131179122D02*
X142104595Y-130941027D01*
X142104595Y-130941027D02*
X142152214Y-130750551D01*
X142152214Y-130750551D02*
X142199833Y-130655313D01*
X142199833Y-130655313D02*
X142247452Y-130607694D01*
X142247452Y-130607694D02*
X142342690Y-130560075D01*
X133961738Y-132503352D02*
X133961738Y-133170019D01*
X133723643Y-132122400D02*
X133485548Y-132836685D01*
X133485548Y-132836685D02*
X134104595Y-132836685D01*
X134485548Y-133074780D02*
X134533167Y-133122400D01*
X134533167Y-133122400D02*
X134485548Y-133170019D01*
X134485548Y-133170019D02*
X134437929Y-133122400D01*
X134437929Y-133122400D02*
X134485548Y-133074780D01*
X134485548Y-133074780D02*
X134485548Y-133170019D01*
X135390309Y-132170019D02*
X135199833Y-132170019D01*
X135199833Y-132170019D02*
X135104595Y-132217638D01*
X135104595Y-132217638D02*
X135056976Y-132265257D01*
X135056976Y-132265257D02*
X134961738Y-132408114D01*
X134961738Y-132408114D02*
X134914119Y-132598590D01*
X134914119Y-132598590D02*
X134914119Y-132979542D01*
X134914119Y-132979542D02*
X134961738Y-133074780D01*
X134961738Y-133074780D02*
X135009357Y-133122400D01*
X135009357Y-133122400D02*
X135104595Y-133170019D01*
X135104595Y-133170019D02*
X135295071Y-133170019D01*
X135295071Y-133170019D02*
X135390309Y-133122400D01*
X135390309Y-133122400D02*
X135437928Y-133074780D01*
X135437928Y-133074780D02*
X135485547Y-132979542D01*
X135485547Y-132979542D02*
X135485547Y-132741447D01*
X135485547Y-132741447D02*
X135437928Y-132646209D01*
X135437928Y-132646209D02*
X135390309Y-132598590D01*
X135390309Y-132598590D02*
X135295071Y-132550971D01*
X135295071Y-132550971D02*
X135104595Y-132550971D01*
X135104595Y-132550971D02*
X135009357Y-132598590D01*
X135009357Y-132598590D02*
X134961738Y-132646209D01*
X134961738Y-132646209D02*
X134914119Y-132741447D01*
X136390309Y-132170019D02*
X135914119Y-132170019D01*
X135914119Y-132170019D02*
X135866500Y-132646209D01*
X135866500Y-132646209D02*
X135914119Y-132598590D01*
X135914119Y-132598590D02*
X136009357Y-132550971D01*
X136009357Y-132550971D02*
X136247452Y-132550971D01*
X136247452Y-132550971D02*
X136342690Y-132598590D01*
X136342690Y-132598590D02*
X136390309Y-132646209D01*
X136390309Y-132646209D02*
X136437928Y-132741447D01*
X136437928Y-132741447D02*
X136437928Y-132979542D01*
X136437928Y-132979542D02*
X136390309Y-133074780D01*
X136390309Y-133074780D02*
X136342690Y-133122400D01*
X136342690Y-133122400D02*
X136247452Y-133170019D01*
X136247452Y-133170019D02*
X136009357Y-133170019D01*
X136009357Y-133170019D02*
X135914119Y-133122400D01*
X135914119Y-133122400D02*
X135866500Y-133074780D01*
X136771262Y-133170019D02*
X137295071Y-132503352D01*
X136771262Y-132503352D02*
X137295071Y-133170019D01*
X137580786Y-132170019D02*
X138199833Y-132170019D01*
X138199833Y-132170019D02*
X137866500Y-132550971D01*
X137866500Y-132550971D02*
X138009357Y-132550971D01*
X138009357Y-132550971D02*
X138104595Y-132598590D01*
X138104595Y-132598590D02*
X138152214Y-132646209D01*
X138152214Y-132646209D02*
X138199833Y-132741447D01*
X138199833Y-132741447D02*
X138199833Y-132979542D01*
X138199833Y-132979542D02*
X138152214Y-133074780D01*
X138152214Y-133074780D02*
X138104595Y-133122400D01*
X138104595Y-133122400D02*
X138009357Y-133170019D01*
X138009357Y-133170019D02*
X137723643Y-133170019D01*
X137723643Y-133170019D02*
X137628405Y-133122400D01*
X137628405Y-133122400D02*
X137580786Y-133074780D01*
X138628405Y-133074780D02*
X138676024Y-133122400D01*
X138676024Y-133122400D02*
X138628405Y-133170019D01*
X138628405Y-133170019D02*
X138580786Y-133122400D01*
X138580786Y-133122400D02*
X138628405Y-133074780D01*
X138628405Y-133074780D02*
X138628405Y-133170019D01*
X139533166Y-132170019D02*
X139342690Y-132170019D01*
X139342690Y-132170019D02*
X139247452Y-132217638D01*
X139247452Y-132217638D02*
X139199833Y-132265257D01*
X139199833Y-132265257D02*
X139104595Y-132408114D01*
X139104595Y-132408114D02*
X139056976Y-132598590D01*
X139056976Y-132598590D02*
X139056976Y-132979542D01*
X139056976Y-132979542D02*
X139104595Y-133074780D01*
X139104595Y-133074780D02*
X139152214Y-133122400D01*
X139152214Y-133122400D02*
X139247452Y-133170019D01*
X139247452Y-133170019D02*
X139437928Y-133170019D01*
X139437928Y-133170019D02*
X139533166Y-133122400D01*
X139533166Y-133122400D02*
X139580785Y-133074780D01*
X139580785Y-133074780D02*
X139628404Y-132979542D01*
X139628404Y-132979542D02*
X139628404Y-132741447D01*
X139628404Y-132741447D02*
X139580785Y-132646209D01*
X139580785Y-132646209D02*
X139533166Y-132598590D01*
X139533166Y-132598590D02*
X139437928Y-132550971D01*
X139437928Y-132550971D02*
X139247452Y-132550971D01*
X139247452Y-132550971D02*
X139152214Y-132598590D01*
X139152214Y-132598590D02*
X139104595Y-132646209D01*
X139104595Y-132646209D02*
X139056976Y-132741447D01*
X140533166Y-132170019D02*
X140056976Y-132170019D01*
X140056976Y-132170019D02*
X140009357Y-132646209D01*
X140009357Y-132646209D02*
X140056976Y-132598590D01*
X140056976Y-132598590D02*
X140152214Y-132550971D01*
X140152214Y-132550971D02*
X140390309Y-132550971D01*
X140390309Y-132550971D02*
X140485547Y-132598590D01*
X140485547Y-132598590D02*
X140533166Y-132646209D01*
X140533166Y-132646209D02*
X140580785Y-132741447D01*
X140580785Y-132741447D02*
X140580785Y-132979542D01*
X140580785Y-132979542D02*
X140533166Y-133074780D01*
X140533166Y-133074780D02*
X140485547Y-133122400D01*
X140485547Y-133122400D02*
X140390309Y-133170019D01*
X140390309Y-133170019D02*
X140152214Y-133170019D01*
X140152214Y-133170019D02*
X140056976Y-133122400D01*
X140056976Y-133122400D02*
X140009357Y-133074780D01*
X141009357Y-133170019D02*
X141009357Y-132503352D01*
X141009357Y-132598590D02*
X141056976Y-132550971D01*
X141056976Y-132550971D02*
X141152214Y-132503352D01*
X141152214Y-132503352D02*
X141295071Y-132503352D01*
X141295071Y-132503352D02*
X141390309Y-132550971D01*
X141390309Y-132550971D02*
X141437928Y-132646209D01*
X141437928Y-132646209D02*
X141437928Y-133170019D01*
X141437928Y-132646209D02*
X141485547Y-132550971D01*
X141485547Y-132550971D02*
X141580785Y-132503352D01*
X141580785Y-132503352D02*
X141723642Y-132503352D01*
X141723642Y-132503352D02*
X141818881Y-132550971D01*
X141818881Y-132550971D02*
X141866500Y-132646209D01*
X141866500Y-132646209D02*
X141866500Y-133170019D01*
X142342690Y-133170019D02*
X142342690Y-132503352D01*
X142342690Y-132598590D02*
X142390309Y-132550971D01*
X142390309Y-132550971D02*
X142485547Y-132503352D01*
X142485547Y-132503352D02*
X142628404Y-132503352D01*
X142628404Y-132503352D02*
X142723642Y-132550971D01*
X142723642Y-132550971D02*
X142771261Y-132646209D01*
X142771261Y-132646209D02*
X142771261Y-133170019D01*
X142771261Y-132646209D02*
X142818880Y-132550971D01*
X142818880Y-132550971D02*
X142914118Y-132503352D01*
X142914118Y-132503352D02*
X143056975Y-132503352D01*
X143056975Y-132503352D02*
X143152214Y-132550971D01*
X143152214Y-132550971D02*
X143199833Y-132646209D01*
X143199833Y-132646209D02*
X143199833Y-133170019D01*
X133985548Y-133779963D02*
X134080786Y-133779963D01*
X134080786Y-133779963D02*
X134176024Y-133827582D01*
X134176024Y-133827582D02*
X134223643Y-133875201D01*
X134223643Y-133875201D02*
X134271262Y-133970439D01*
X134271262Y-133970439D02*
X134318881Y-134160915D01*
X134318881Y-134160915D02*
X134318881Y-134399010D01*
X134318881Y-134399010D02*
X134271262Y-134589486D01*
X134271262Y-134589486D02*
X134223643Y-134684724D01*
X134223643Y-134684724D02*
X134176024Y-134732344D01*
X134176024Y-134732344D02*
X134080786Y-134779963D01*
X134080786Y-134779963D02*
X133985548Y-134779963D01*
X133985548Y-134779963D02*
X133890310Y-134732344D01*
X133890310Y-134732344D02*
X133842691Y-134684724D01*
X133842691Y-134684724D02*
X133795072Y-134589486D01*
X133795072Y-134589486D02*
X133747453Y-134399010D01*
X133747453Y-134399010D02*
X133747453Y-134160915D01*
X133747453Y-134160915D02*
X133795072Y-133970439D01*
X133795072Y-133970439D02*
X133842691Y-133875201D01*
X133842691Y-133875201D02*
X133890310Y-133827582D01*
X133890310Y-133827582D02*
X133985548Y-133779963D01*
X134747453Y-134684724D02*
X134795072Y-134732344D01*
X134795072Y-134732344D02*
X134747453Y-134779963D01*
X134747453Y-134779963D02*
X134699834Y-134732344D01*
X134699834Y-134732344D02*
X134747453Y-134684724D01*
X134747453Y-134684724D02*
X134747453Y-134779963D01*
X135699833Y-133779963D02*
X135223643Y-133779963D01*
X135223643Y-133779963D02*
X135176024Y-134256153D01*
X135176024Y-134256153D02*
X135223643Y-134208534D01*
X135223643Y-134208534D02*
X135318881Y-134160915D01*
X135318881Y-134160915D02*
X135556976Y-134160915D01*
X135556976Y-134160915D02*
X135652214Y-134208534D01*
X135652214Y-134208534D02*
X135699833Y-134256153D01*
X135699833Y-134256153D02*
X135747452Y-134351391D01*
X135747452Y-134351391D02*
X135747452Y-134589486D01*
X135747452Y-134589486D02*
X135699833Y-134684724D01*
X135699833Y-134684724D02*
X135652214Y-134732344D01*
X135652214Y-134732344D02*
X135556976Y-134779963D01*
X135556976Y-134779963D02*
X135318881Y-134779963D01*
X135318881Y-134779963D02*
X135223643Y-134732344D01*
X135223643Y-134732344D02*
X135176024Y-134684724D01*
X136176024Y-134779963D02*
X136176024Y-134113296D01*
X136176024Y-134208534D02*
X136223643Y-134160915D01*
X136223643Y-134160915D02*
X136318881Y-134113296D01*
X136318881Y-134113296D02*
X136461738Y-134113296D01*
X136461738Y-134113296D02*
X136556976Y-134160915D01*
X136556976Y-134160915D02*
X136604595Y-134256153D01*
X136604595Y-134256153D02*
X136604595Y-134779963D01*
X136604595Y-134256153D02*
X136652214Y-134160915D01*
X136652214Y-134160915D02*
X136747452Y-134113296D01*
X136747452Y-134113296D02*
X136890309Y-134113296D01*
X136890309Y-134113296D02*
X136985548Y-134160915D01*
X136985548Y-134160915D02*
X137033167Y-134256153D01*
X137033167Y-134256153D02*
X137033167Y-134779963D01*
X137509357Y-134779963D02*
X137509357Y-134113296D01*
X137509357Y-134208534D02*
X137556976Y-134160915D01*
X137556976Y-134160915D02*
X137652214Y-134113296D01*
X137652214Y-134113296D02*
X137795071Y-134113296D01*
X137795071Y-134113296D02*
X137890309Y-134160915D01*
X137890309Y-134160915D02*
X137937928Y-134256153D01*
X137937928Y-134256153D02*
X137937928Y-134779963D01*
X137937928Y-134256153D02*
X137985547Y-134160915D01*
X137985547Y-134160915D02*
X138080785Y-134113296D01*
X138080785Y-134113296D02*
X138223642Y-134113296D01*
X138223642Y-134113296D02*
X138318881Y-134160915D01*
X138318881Y-134160915D02*
X138366500Y-134256153D01*
X138366500Y-134256153D02*
X138366500Y-134779963D01*
X139604595Y-134779963D02*
X139604595Y-133779963D01*
X139604595Y-133779963D02*
X139985547Y-133779963D01*
X139985547Y-133779963D02*
X140080785Y-133827582D01*
X140080785Y-133827582D02*
X140128404Y-133875201D01*
X140128404Y-133875201D02*
X140176023Y-133970439D01*
X140176023Y-133970439D02*
X140176023Y-134113296D01*
X140176023Y-134113296D02*
X140128404Y-134208534D01*
X140128404Y-134208534D02*
X140080785Y-134256153D01*
X140080785Y-134256153D02*
X139985547Y-134303772D01*
X139985547Y-134303772D02*
X139604595Y-134303772D01*
X140604595Y-134779963D02*
X140604595Y-134113296D01*
X140604595Y-133779963D02*
X140556976Y-133827582D01*
X140556976Y-133827582D02*
X140604595Y-133875201D01*
X140604595Y-133875201D02*
X140652214Y-133827582D01*
X140652214Y-133827582D02*
X140604595Y-133779963D01*
X140604595Y-133779963D02*
X140604595Y-133875201D01*
X140937928Y-134113296D02*
X141318880Y-134113296D01*
X141080785Y-133779963D02*
X141080785Y-134637105D01*
X141080785Y-134637105D02*
X141128404Y-134732344D01*
X141128404Y-134732344D02*
X141223642Y-134779963D01*
X141223642Y-134779963D02*
X141318880Y-134779963D01*
X142080785Y-134732344D02*
X141985547Y-134779963D01*
X141985547Y-134779963D02*
X141795071Y-134779963D01*
X141795071Y-134779963D02*
X141699833Y-134732344D01*
X141699833Y-134732344D02*
X141652214Y-134684724D01*
X141652214Y-134684724D02*
X141604595Y-134589486D01*
X141604595Y-134589486D02*
X141604595Y-134303772D01*
X141604595Y-134303772D02*
X141652214Y-134208534D01*
X141652214Y-134208534D02*
X141699833Y-134160915D01*
X141699833Y-134160915D02*
X141795071Y-134113296D01*
X141795071Y-134113296D02*
X141985547Y-134113296D01*
X141985547Y-134113296D02*
X142080785Y-134160915D01*
X142509357Y-134779963D02*
X142509357Y-133779963D01*
X142937928Y-134779963D02*
X142937928Y-134256153D01*
X142937928Y-134256153D02*
X142890309Y-134160915D01*
X142890309Y-134160915D02*
X142795071Y-134113296D01*
X142795071Y-134113296D02*
X142652214Y-134113296D01*
X142652214Y-134113296D02*
X142556976Y-134160915D01*
X142556976Y-134160915D02*
X142509357Y-134208534D01*
X144648564Y-132532219D02*
X144077136Y-132532219D01*
X144362850Y-132532219D02*
X144362850Y-131532219D01*
X144362850Y-131532219D02*
X144267612Y-131675076D01*
X144267612Y-131675076D02*
X144172374Y-131770314D01*
X144172374Y-131770314D02*
X144077136Y-131817933D01*
X145600945Y-132532219D02*
X145029517Y-132532219D01*
X145315231Y-132532219D02*
X145315231Y-131532219D01*
X145315231Y-131532219D02*
X145219993Y-131675076D01*
X145219993Y-131675076D02*
X145124755Y-131770314D01*
X145124755Y-131770314D02*
X145029517Y-131817933D01*
D11*
G36*
X140748228Y-135361857D02*
G01*
X140781764Y-135395393D01*
X140799489Y-135430845D01*
X140820475Y-135514786D01*
X140820475Y-135573905D01*
X140799489Y-135657846D01*
X140781764Y-135693298D01*
X140748226Y-135726836D01*
X140695696Y-135744346D01*
X140634761Y-135744346D01*
X140634761Y-135344346D01*
X140695695Y-135344346D01*
X140748228Y-135361857D01*
G37*
G36*
X138586820Y-135601489D02*
G01*
X138487467Y-135601489D01*
X138537143Y-135452459D01*
X138586820Y-135601489D01*
G37*
G36*
X140301105Y-135601489D02*
G01*
X140201752Y-135601489D01*
X140251428Y-135452459D01*
X140301105Y-135601489D01*
G37*
G36*
X137578952Y-135359248D02*
G01*
X137591287Y-135371581D01*
X137606190Y-135401387D01*
X137606190Y-135449209D01*
X137591287Y-135479015D01*
X137578952Y-135491348D01*
X137549149Y-135506251D01*
X137420476Y-135506251D01*
X137420476Y-135344346D01*
X137549149Y-135344346D01*
X137578952Y-135359248D01*
G37*
G36*
X139864666Y-135359248D02*
G01*
X139877001Y-135371581D01*
X139891904Y-135401387D01*
X139891904Y-135449209D01*
X139877001Y-135479015D01*
X139864666Y-135491348D01*
X139834863Y-135506251D01*
X139706190Y-135506251D01*
X139706190Y-135344346D01*
X139834863Y-135344346D01*
X139864666Y-135359248D01*
G37*
G36*
X140976031Y-135899902D02*
G01*
X135840155Y-135899902D01*
X135840155Y-135275212D01*
X135895711Y-135275212D01*
X135895711Y-135313480D01*
X135922771Y-135340540D01*
X135941905Y-135344346D01*
X136034762Y-135344346D01*
X136034762Y-135794346D01*
X136038568Y-135813480D01*
X136065628Y-135840540D01*
X136103896Y-135840540D01*
X136130956Y-135813480D01*
X136134762Y-135794346D01*
X136134762Y-135344346D01*
X136227619Y-135344346D01*
X136246753Y-135340540D01*
X136273813Y-135313480D01*
X136273813Y-135294346D01*
X136344285Y-135294346D01*
X136344285Y-135794346D01*
X136348091Y-135813480D01*
X136375151Y-135840540D01*
X136413419Y-135840540D01*
X136440479Y-135813480D01*
X136444285Y-135794346D01*
X136444285Y-135582441D01*
X136629999Y-135582441D01*
X136629999Y-135794346D01*
X136633805Y-135813480D01*
X136660865Y-135840540D01*
X136699133Y-135840540D01*
X136726193Y-135813480D01*
X136729999Y-135794346D01*
X136729999Y-135294346D01*
X136868095Y-135294346D01*
X136868095Y-135794346D01*
X136871901Y-135813480D01*
X136898961Y-135840540D01*
X136918095Y-135844346D01*
X137156190Y-135844346D01*
X137175324Y-135840540D01*
X137202384Y-135813480D01*
X137202384Y-135775212D01*
X137175324Y-135748152D01*
X137156190Y-135744346D01*
X136968095Y-135744346D01*
X136968095Y-135582441D01*
X137084762Y-135582441D01*
X137103896Y-135578635D01*
X137130956Y-135551575D01*
X137130956Y-135513307D01*
X137103896Y-135486247D01*
X137084762Y-135482441D01*
X136968095Y-135482441D01*
X136968095Y-135344346D01*
X137156190Y-135344346D01*
X137175324Y-135340540D01*
X137202384Y-135313480D01*
X137202384Y-135294346D01*
X137320476Y-135294346D01*
X137320476Y-135794346D01*
X137324282Y-135813480D01*
X137351342Y-135840540D01*
X137389610Y-135840540D01*
X137416670Y-135813480D01*
X137420476Y-135794346D01*
X137420476Y-135606251D01*
X137463491Y-135606251D01*
X137615229Y-135823019D01*
X137629319Y-135836512D01*
X137667005Y-135843162D01*
X137698356Y-135821217D01*
X137705006Y-135783531D01*
X137697152Y-135765673D01*
X137582095Y-135601305D01*
X137583313Y-135600972D01*
X137630932Y-135577162D01*
X137637263Y-135572248D01*
X137643926Y-135567797D01*
X137667736Y-135543988D01*
X137672189Y-135537323D01*
X137677103Y-135530992D01*
X137700911Y-135483374D01*
X137701572Y-135480958D01*
X137702384Y-135480147D01*
X137703947Y-135472285D01*
X137706064Y-135464558D01*
X137705701Y-135463469D01*
X137706190Y-135461013D01*
X137706190Y-135389584D01*
X137705701Y-135387127D01*
X137706064Y-135386039D01*
X137703947Y-135378311D01*
X137702384Y-135370450D01*
X137701572Y-135369638D01*
X137700911Y-135367223D01*
X137677103Y-135319605D01*
X137672189Y-135313273D01*
X137667736Y-135306609D01*
X137655472Y-135294346D01*
X137820476Y-135294346D01*
X137820476Y-135794346D01*
X137824282Y-135813480D01*
X137851342Y-135840540D01*
X137889610Y-135840540D01*
X137916670Y-135813480D01*
X137920476Y-135794346D01*
X137920476Y-135519723D01*
X137991834Y-135672633D01*
X137999456Y-135683022D01*
X138000269Y-135685258D01*
X138001526Y-135685844D01*
X138003374Y-135688363D01*
X138019446Y-135694207D01*
X138034947Y-135701441D01*
X138037143Y-135700642D01*
X138039339Y-135701441D01*
X138054839Y-135694207D01*
X138070912Y-135688363D01*
X138072759Y-135685844D01*
X138074017Y-135685258D01*
X138074829Y-135683022D01*
X138082452Y-135672633D01*
X138153809Y-135519724D01*
X138153809Y-135794346D01*
X138157615Y-135813480D01*
X138184675Y-135840540D01*
X138222943Y-135840540D01*
X138250003Y-135813480D01*
X138253104Y-135797890D01*
X138320603Y-135797890D01*
X138337717Y-135832119D01*
X138374021Y-135844220D01*
X138408250Y-135827106D01*
X138417911Y-135810157D01*
X138454134Y-135701489D01*
X138620153Y-135701489D01*
X138656376Y-135810157D01*
X138666037Y-135827106D01*
X138700266Y-135844220D01*
X138736570Y-135832118D01*
X138753684Y-135797890D01*
X138751244Y-135778534D01*
X138589847Y-135294346D01*
X138820476Y-135294346D01*
X138820476Y-135794346D01*
X138824282Y-135813480D01*
X138851342Y-135840540D01*
X138870476Y-135844346D01*
X139108571Y-135844346D01*
X139127705Y-135840540D01*
X139154765Y-135813480D01*
X139154765Y-135775212D01*
X139127705Y-135748152D01*
X139108571Y-135744346D01*
X138920476Y-135744346D01*
X138920476Y-135294346D01*
X139606190Y-135294346D01*
X139606190Y-135794346D01*
X139609996Y-135813480D01*
X139637056Y-135840540D01*
X139675324Y-135840540D01*
X139702384Y-135813480D01*
X139705485Y-135797890D01*
X140034888Y-135797890D01*
X140052002Y-135832119D01*
X140088306Y-135844220D01*
X140122535Y-135827106D01*
X140132196Y-135810157D01*
X140168419Y-135701489D01*
X140334438Y-135701489D01*
X140370661Y-135810157D01*
X140380322Y-135827106D01*
X140414551Y-135844220D01*
X140450855Y-135832118D01*
X140467969Y-135797890D01*
X140465529Y-135778534D01*
X140304132Y-135294346D01*
X140534761Y-135294346D01*
X140534761Y-135794346D01*
X140538567Y-135813480D01*
X140565627Y-135840540D01*
X140584761Y-135844346D01*
X140703809Y-135844346D01*
X140711671Y-135842782D01*
X140719620Y-135841780D01*
X140791049Y-135817971D01*
X140793224Y-135816731D01*
X140794372Y-135816731D01*
X140801036Y-135812277D01*
X140807997Y-135808310D01*
X140808510Y-135807283D01*
X140810593Y-135805892D01*
X140858212Y-135758272D01*
X140862665Y-135751606D01*
X140867577Y-135745278D01*
X140891387Y-135697659D01*
X140892833Y-135692377D01*
X140895173Y-135687425D01*
X140918982Y-135592187D01*
X140919279Y-135586069D01*
X140920475Y-135580060D01*
X140920475Y-135508632D01*
X140919279Y-135502622D01*
X140918982Y-135496505D01*
X140895173Y-135401267D01*
X140892833Y-135396314D01*
X140891387Y-135391033D01*
X140867577Y-135343414D01*
X140862665Y-135337085D01*
X140858211Y-135330419D01*
X140810592Y-135282801D01*
X140808509Y-135281409D01*
X140807997Y-135280384D01*
X140801035Y-135276415D01*
X140794371Y-135271962D01*
X140793224Y-135271962D01*
X140791049Y-135270722D01*
X140719621Y-135246912D01*
X140711670Y-135245909D01*
X140703809Y-135244346D01*
X140584761Y-135244346D01*
X140565627Y-135248152D01*
X140538567Y-135275212D01*
X140534761Y-135294346D01*
X140304132Y-135294346D01*
X140298862Y-135278535D01*
X140289201Y-135261586D01*
X140285858Y-135259915D01*
X140284188Y-135256573D01*
X140269148Y-135251559D01*
X140254972Y-135244472D01*
X140251428Y-135245653D01*
X140247884Y-135244472D01*
X140233707Y-135251559D01*
X140218668Y-135256573D01*
X140216997Y-135259915D01*
X140213655Y-135261586D01*
X140203994Y-135278535D01*
X140037328Y-135778535D01*
X140034888Y-135797890D01*
X139705485Y-135797890D01*
X139706190Y-135794346D01*
X139706190Y-135606251D01*
X139846666Y-135606251D01*
X139849122Y-135605762D01*
X139850211Y-135606125D01*
X139857938Y-135604008D01*
X139865800Y-135602445D01*
X139866611Y-135601633D01*
X139869027Y-135600972D01*
X139916646Y-135577162D01*
X139922977Y-135572248D01*
X139929640Y-135567797D01*
X139953450Y-135543988D01*
X139957903Y-135537323D01*
X139962817Y-135530992D01*
X139986625Y-135483374D01*
X139987286Y-135480958D01*
X139988098Y-135480147D01*
X139989661Y-135472285D01*
X139991778Y-135464558D01*
X139991415Y-135463469D01*
X139991904Y-135461013D01*
X139991904Y-135389584D01*
X139991415Y-135387127D01*
X139991778Y-135386039D01*
X139989661Y-135378311D01*
X139988098Y-135370450D01*
X139987286Y-135369638D01*
X139986625Y-135367223D01*
X139962817Y-135319605D01*
X139957903Y-135313273D01*
X139953450Y-135306609D01*
X139929640Y-135282800D01*
X139922977Y-135278348D01*
X139916646Y-135273435D01*
X139869027Y-135249625D01*
X139866611Y-135248963D01*
X139865800Y-135248152D01*
X139857938Y-135246588D01*
X139850211Y-135244472D01*
X139849122Y-135244834D01*
X139846666Y-135244346D01*
X139656190Y-135244346D01*
X139637056Y-135248152D01*
X139609996Y-135275212D01*
X139606190Y-135294346D01*
X138920476Y-135294346D01*
X138916670Y-135275212D01*
X138889610Y-135248152D01*
X138851342Y-135248152D01*
X138824282Y-135275212D01*
X138820476Y-135294346D01*
X138589847Y-135294346D01*
X138584577Y-135278535D01*
X138574916Y-135261586D01*
X138571573Y-135259915D01*
X138569903Y-135256573D01*
X138554863Y-135251559D01*
X138540687Y-135244472D01*
X138537143Y-135245653D01*
X138533599Y-135244472D01*
X138519422Y-135251559D01*
X138504383Y-135256573D01*
X138502712Y-135259915D01*
X138499370Y-135261586D01*
X138489709Y-135278535D01*
X138323043Y-135778535D01*
X138320603Y-135797890D01*
X138253104Y-135797890D01*
X138253809Y-135794346D01*
X138253809Y-135294346D01*
X138250003Y-135275212D01*
X138243720Y-135268929D01*
X138240683Y-135260577D01*
X138230717Y-135255926D01*
X138222943Y-135248152D01*
X138214058Y-135248152D01*
X138206005Y-135244394D01*
X138195670Y-135248152D01*
X138184675Y-135248152D01*
X138178392Y-135254434D01*
X138170040Y-135257472D01*
X138158500Y-135273201D01*
X138037142Y-135533254D01*
X137915785Y-135273202D01*
X137904245Y-135257472D01*
X137895892Y-135254434D01*
X137889610Y-135248152D01*
X137878615Y-135248152D01*
X137868280Y-135244394D01*
X137860227Y-135248152D01*
X137851342Y-135248152D01*
X137843567Y-135255926D01*
X137833602Y-135260577D01*
X137830564Y-135268929D01*
X137824282Y-135275212D01*
X137820476Y-135294346D01*
X137655472Y-135294346D01*
X137643926Y-135282800D01*
X137637263Y-135278348D01*
X137630932Y-135273435D01*
X137583313Y-135249625D01*
X137580897Y-135248963D01*
X137580086Y-135248152D01*
X137572224Y-135246588D01*
X137564497Y-135244472D01*
X137563408Y-135244834D01*
X137560952Y-135244346D01*
X137370476Y-135244346D01*
X137351342Y-135248152D01*
X137324282Y-135275212D01*
X137320476Y-135294346D01*
X137202384Y-135294346D01*
X137202384Y-135275212D01*
X137175324Y-135248152D01*
X137156190Y-135244346D01*
X136918095Y-135244346D01*
X136898961Y-135248152D01*
X136871901Y-135275212D01*
X136868095Y-135294346D01*
X136729999Y-135294346D01*
X136726193Y-135275212D01*
X136699133Y-135248152D01*
X136660865Y-135248152D01*
X136633805Y-135275212D01*
X136629999Y-135294346D01*
X136629999Y-135482441D01*
X136444285Y-135482441D01*
X136444285Y-135294346D01*
X136440479Y-135275212D01*
X136413419Y-135248152D01*
X136375151Y-135248152D01*
X136348091Y-135275212D01*
X136344285Y-135294346D01*
X136273813Y-135294346D01*
X136273813Y-135275212D01*
X136246753Y-135248152D01*
X136227619Y-135244346D01*
X135941905Y-135244346D01*
X135922771Y-135248152D01*
X135895711Y-135275212D01*
X135840155Y-135275212D01*
X135840155Y-135188790D01*
X140976031Y-135188790D01*
X140976031Y-135899902D01*
G37*
D10*
X131830482Y-132532219D02*
X131259054Y-132532219D01*
X131544768Y-132532219D02*
X131544768Y-131532219D01*
X131544768Y-131532219D02*
X131449530Y-131675076D01*
X131449530Y-131675076D02*
X131354292Y-131770314D01*
X131354292Y-131770314D02*
X131259054Y-131817933D01*
X132449530Y-131532219D02*
X132544768Y-131532219D01*
X132544768Y-131532219D02*
X132640006Y-131579838D01*
X132640006Y-131579838D02*
X132687625Y-131627457D01*
X132687625Y-131627457D02*
X132735244Y-131722695D01*
X132735244Y-131722695D02*
X132782863Y-131913171D01*
X132782863Y-131913171D02*
X132782863Y-132151266D01*
X132782863Y-132151266D02*
X132735244Y-132341742D01*
X132735244Y-132341742D02*
X132687625Y-132436980D01*
X132687625Y-132436980D02*
X132640006Y-132484600D01*
X132640006Y-132484600D02*
X132544768Y-132532219D01*
X132544768Y-132532219D02*
X132449530Y-132532219D01*
X132449530Y-132532219D02*
X132354292Y-132484600D01*
X132354292Y-132484600D02*
X132306673Y-132436980D01*
X132306673Y-132436980D02*
X132259054Y-132341742D01*
X132259054Y-132341742D02*
X132211435Y-132151266D01*
X132211435Y-132151266D02*
X132211435Y-131913171D01*
X132211435Y-131913171D02*
X132259054Y-131722695D01*
X132259054Y-131722695D02*
X132306673Y-131627457D01*
X132306673Y-131627457D02*
X132354292Y-131579838D01*
X132354292Y-131579838D02*
X132449530Y-131532219D01*
D13*
X136605000Y-121878771D02*
X137207260Y-121878771D01*
X137207260Y-117228769D02*
X136605000Y-117228769D01*
X138152739Y-121878771D02*
X138707261Y-121878771D01*
X138707261Y-117228769D02*
X138152739Y-117228769D01*
X139652740Y-121878771D02*
X140255000Y-121878771D01*
X140255000Y-117228769D02*
X139652740Y-117228769D01*
D14*
G36*
X142148024Y-109459472D02*
G01*
X142163020Y-109477048D01*
X142178371Y-109494415D01*
X142194862Y-109512388D01*
X142213279Y-109531785D01*
X142234407Y-109553424D01*
X142259032Y-109578123D01*
X142287938Y-109606698D01*
X142314677Y-109632900D01*
X142334295Y-109652094D01*
X142358809Y-109676115D01*
X142387551Y-109704306D01*
X142419851Y-109736011D01*
X142455042Y-109770573D01*
X142492454Y-109807336D01*
X142531419Y-109845641D01*
X142571269Y-109884832D01*
X142611335Y-109924253D01*
X142650947Y-109963246D01*
X142662682Y-109974802D01*
X142705796Y-110017245D01*
X142752354Y-110063055D01*
X142801326Y-110111219D01*
X142851680Y-110160723D01*
X142902384Y-110210554D01*
X142952409Y-110259699D01*
X143000722Y-110307144D01*
X143046293Y-110351876D01*
X143088090Y-110392882D01*
X143115835Y-110420086D01*
X143164917Y-110468206D01*
X143208701Y-110511158D01*
X143247479Y-110549237D01*
X143281544Y-110582734D01*
X143311187Y-110611942D01*
X143336699Y-110637154D01*
X143358372Y-110658662D01*
X143376498Y-110676759D01*
X143391369Y-110691739D01*
X143403276Y-110703892D01*
X143412510Y-110713513D01*
X143419365Y-110720894D01*
X143424130Y-110726327D01*
X143427099Y-110730106D01*
X143428562Y-110732522D01*
X143428812Y-110733869D01*
X143428731Y-110734054D01*
X143424958Y-110737448D01*
X143416007Y-110744472D01*
X143403066Y-110754227D01*
X143387318Y-110765808D01*
X143380356Y-110770854D01*
X143360896Y-110785081D01*
X143340963Y-110799970D01*
X143322747Y-110813865D01*
X143308437Y-110825111D01*
X143306999Y-110826276D01*
X143293867Y-110836813D01*
X143276512Y-110850536D01*
X143256917Y-110865885D01*
X143237068Y-110881301D01*
X143231077Y-110885925D01*
X143150023Y-110950641D01*
X143074235Y-111015798D01*
X143004185Y-111080938D01*
X142940342Y-111145607D01*
X142883180Y-111209349D01*
X142835414Y-111268731D01*
X142776029Y-111353374D01*
X142723513Y-111441428D01*
X142677811Y-111533035D01*
X142638865Y-111628338D01*
X142606621Y-111727478D01*
X142581023Y-111830598D01*
X142562015Y-111937839D01*
X142556841Y-111976927D01*
X142553704Y-112010062D01*
X142551460Y-112048950D01*
X142550109Y-112091653D01*
X142549653Y-112136228D01*
X142550093Y-112180734D01*
X142551429Y-112223231D01*
X142553664Y-112261777D01*
X142556666Y-112293353D01*
X142572868Y-112397437D01*
X142595833Y-112497620D01*
X142625586Y-112593953D01*
X142662150Y-112686490D01*
X142705552Y-112775283D01*
X142755815Y-112860385D01*
X142812964Y-112941849D01*
X142877025Y-113019728D01*
X142916288Y-113062169D01*
X142942609Y-113088406D01*
X142974786Y-113118576D01*
X143012895Y-113152743D01*
X143057013Y-113190972D01*
X143107215Y-113233327D01*
X143163579Y-113279873D01*
X143226180Y-113330674D01*
X143295095Y-113385795D01*
X143342392Y-113423246D01*
X143364771Y-113441077D01*
X143385060Y-113457572D01*
X143402461Y-113472059D01*
X143416178Y-113483861D01*
X143425412Y-113492305D01*
X143429369Y-113496716D01*
X143429452Y-113496944D01*
X143426888Y-113500328D01*
X143419093Y-113509125D01*
X143406264Y-113523130D01*
X143388597Y-113542135D01*
X143366288Y-113565934D01*
X143339535Y-113594320D01*
X143308533Y-113627088D01*
X143273478Y-113664029D01*
X143234568Y-113704939D01*
X143191999Y-113749609D01*
X143145967Y-113797834D01*
X143096669Y-113849408D01*
X143044300Y-113904122D01*
X142989059Y-113961772D01*
X142931140Y-114022150D01*
X142870741Y-114085050D01*
X142812882Y-114145248D01*
X142755177Y-114205258D01*
X142698769Y-114263915D01*
X142643907Y-114320961D01*
X142590841Y-114376134D01*
X142539822Y-114429177D01*
X142491098Y-114479830D01*
X142444920Y-114527832D01*
X142401536Y-114572925D01*
X142361198Y-114614849D01*
X142324154Y-114653344D01*
X142290654Y-114688151D01*
X142260948Y-114719010D01*
X142235286Y-114745662D01*
X142213917Y-114767848D01*
X142197091Y-114785307D01*
X142185058Y-114797781D01*
X142178067Y-114805009D01*
X142176556Y-114806560D01*
X142157938Y-114825473D01*
X142056773Y-114743869D01*
X142008816Y-114705346D01*
X141965852Y-114671209D01*
X141926940Y-114640755D01*
X141891143Y-114613282D01*
X141857524Y-114588088D01*
X141825143Y-114564469D01*
X141793064Y-114541725D01*
X141760346Y-114519152D01*
X141726054Y-114496048D01*
X141723171Y-114494127D01*
X141620025Y-114428279D01*
X141515086Y-114366798D01*
X141409280Y-114310143D01*
X141303535Y-114258769D01*
X141198778Y-114213135D01*
X141095938Y-114173697D01*
X141023910Y-114149492D01*
X140896400Y-114113373D01*
X140765820Y-114084433D01*
X140632184Y-114062674D01*
X140495509Y-114048096D01*
X140355809Y-114040703D01*
X140213099Y-114040494D01*
X140067394Y-114047471D01*
X139996503Y-114053364D01*
X139875859Y-114068226D01*
X139754679Y-114089966D01*
X139634188Y-114118253D01*
X139515612Y-114152757D01*
X139400175Y-114193150D01*
X139289103Y-114239100D01*
X139264036Y-114250544D01*
X139245193Y-114259297D01*
X139225502Y-114268432D01*
X139208330Y-114276384D01*
X139203485Y-114278624D01*
X139149484Y-114305093D01*
X139091107Y-114336487D01*
X139029403Y-114372108D01*
X138965423Y-114411260D01*
X138900218Y-114453246D01*
X138834838Y-114497371D01*
X138770333Y-114542937D01*
X138707754Y-114589249D01*
X138648152Y-114635609D01*
X138592576Y-114681322D01*
X138580400Y-114691735D01*
X138564119Y-114705771D01*
X138543848Y-114723251D01*
X138521513Y-114742516D01*
X138499036Y-114761905D01*
X138483764Y-114775082D01*
X138465548Y-114790492D01*
X138448949Y-114803955D01*
X138435002Y-114814680D01*
X138424741Y-114821873D01*
X138419200Y-114824740D01*
X138418979Y-114824759D01*
X138412611Y-114821482D01*
X138403880Y-114812446D01*
X138396637Y-114802792D01*
X138385156Y-114788461D01*
X138367555Y-114769838D01*
X138344085Y-114747157D01*
X138314994Y-114720651D01*
X138280533Y-114690552D01*
X138240950Y-114657094D01*
X138238566Y-114655108D01*
X138122522Y-114562950D01*
X138004949Y-114478408D01*
X137885702Y-114401410D01*
X137764636Y-114331882D01*
X137641606Y-114269751D01*
X137516468Y-114214945D01*
X137389076Y-114167391D01*
X137259286Y-114127015D01*
X137126953Y-114093745D01*
X137121849Y-114092615D01*
X137001451Y-114069482D01*
X136877070Y-114052113D01*
X136750075Y-114040577D01*
X136621833Y-114034944D01*
X136493713Y-114035285D01*
X136367083Y-114041669D01*
X136281430Y-114049618D01*
X136146172Y-114068537D01*
X136012365Y-114095111D01*
X135880117Y-114129301D01*
X135749537Y-114171064D01*
X135620734Y-114220360D01*
X135493815Y-114277148D01*
X135368890Y-114341386D01*
X135246066Y-114413034D01*
X135142689Y-114480215D01*
X135111778Y-114501492D01*
X135082446Y-114522180D01*
X135053500Y-114543172D01*
X135023745Y-114565364D01*
X134991985Y-114589649D01*
X134957028Y-114616921D01*
X134917677Y-114648077D01*
X134904393Y-114658669D01*
X134865572Y-114689604D01*
X134829807Y-114717985D01*
X134797562Y-114743446D01*
X134769304Y-114765621D01*
X134745500Y-114784146D01*
X134726616Y-114798655D01*
X134713119Y-114808783D01*
X134708784Y-114811915D01*
X134696780Y-114820398D01*
X134407984Y-114517225D01*
X134332021Y-114437477D01*
X134261150Y-114363065D01*
X134195071Y-114293675D01*
X134133483Y-114228989D01*
X134076086Y-114168690D01*
X134022579Y-114112462D01*
X133972662Y-114059989D01*
X133926035Y-114010953D01*
X133882397Y-113965039D01*
X133841448Y-113921929D01*
X133802887Y-113881307D01*
X133766415Y-113842858D01*
X133731730Y-113806263D01*
X133698533Y-113771207D01*
X133666522Y-113737372D01*
X133635398Y-113704443D01*
X133604860Y-113672103D01*
X133574607Y-113640035D01*
X133544340Y-113607923D01*
X133513758Y-113575450D01*
X133482561Y-113542299D01*
X133452401Y-113510231D01*
X133606129Y-113510231D01*
X133700302Y-113609844D01*
X133794895Y-113709841D01*
X133885208Y-113805190D01*
X133972273Y-113896974D01*
X134057118Y-113986277D01*
X134140775Y-114074182D01*
X134224272Y-114161773D01*
X134308642Y-114250132D01*
X134394913Y-114340344D01*
X134396549Y-114342053D01*
X134434125Y-114381320D01*
X134470661Y-114419511D01*
X134505730Y-114456177D01*
X134538904Y-114490871D01*
X134569757Y-114523146D01*
X134597860Y-114552554D01*
X134622786Y-114578649D01*
X134644109Y-114600983D01*
X134661399Y-114619109D01*
X134674231Y-114632580D01*
X134682176Y-114640948D01*
X134683180Y-114642010D01*
X134696228Y-114655582D01*
X134705224Y-114664076D01*
X134711265Y-114668291D01*
X134715445Y-114669027D01*
X134718244Y-114667602D01*
X134723419Y-114663314D01*
X134733227Y-114655028D01*
X134746377Y-114643843D01*
X134761576Y-114630854D01*
X134765618Y-114627391D01*
X134886267Y-114528508D01*
X135008708Y-114437221D01*
X135132986Y-114353508D01*
X135259149Y-114277348D01*
X135387244Y-114208721D01*
X135517318Y-114147605D01*
X135649418Y-114093980D01*
X135783591Y-114047824D01*
X135919883Y-114009118D01*
X136058343Y-113977839D01*
X136199016Y-113953968D01*
X136312682Y-113940239D01*
X136457458Y-113929462D01*
X136600306Y-113926171D01*
X136741304Y-113930388D01*
X136880530Y-113942133D01*
X137018063Y-113961428D01*
X137153982Y-113988294D01*
X137288364Y-114022754D01*
X137421288Y-114064829D01*
X137552833Y-114114539D01*
X137683076Y-114171907D01*
X137812096Y-114236954D01*
X137939972Y-114309701D01*
X138066781Y-114390171D01*
X138140920Y-114441129D01*
X138185846Y-114473579D01*
X138233432Y-114509185D01*
X138281754Y-114546448D01*
X138328888Y-114583864D01*
X138372909Y-114619933D01*
X138405955Y-114647988D01*
X138434648Y-114672835D01*
X138445641Y-114663831D01*
X138451943Y-114658599D01*
X138463118Y-114649253D01*
X138478069Y-114636712D01*
X138495696Y-114621899D01*
X138514900Y-114605736D01*
X138518517Y-114602689D01*
X138585347Y-114548190D01*
X138656832Y-114493210D01*
X138731118Y-114439067D01*
X138806348Y-114387074D01*
X138880665Y-114338548D01*
X138952213Y-114294801D01*
X138957376Y-114291773D01*
X139018529Y-114257427D01*
X139084784Y-114222766D01*
X139154292Y-114188642D01*
X139225203Y-114155907D01*
X139295667Y-114125414D01*
X139363836Y-114098014D01*
X139427858Y-114074560D01*
X139432015Y-114073129D01*
X139568180Y-114030552D01*
X139705667Y-113995666D01*
X139844517Y-113968464D01*
X139984774Y-113948940D01*
X140126480Y-113937088D01*
X140269678Y-113932901D01*
X140371632Y-113934555D01*
X140510181Y-113942898D01*
X140646499Y-113958259D01*
X140780850Y-113980723D01*
X140913495Y-114010374D01*
X141044700Y-114047298D01*
X141174726Y-114091578D01*
X141303838Y-114143299D01*
X141432298Y-114202547D01*
X141560371Y-114269405D01*
X141688319Y-114343958D01*
X141733363Y-114372039D01*
X141821190Y-114429654D01*
X141907967Y-114490572D01*
X141995399Y-114556026D01*
X142071640Y-114616256D01*
X142140794Y-114672129D01*
X142185269Y-114626366D01*
X142194410Y-114616908D01*
X142208490Y-114602268D01*
X142227055Y-114582921D01*
X142249655Y-114559338D01*
X142275834Y-114531994D01*
X142305142Y-114501361D01*
X142337125Y-114467912D01*
X142371330Y-114432122D01*
X142407305Y-114394463D01*
X142444598Y-114355408D01*
X142482754Y-114315430D01*
X142492520Y-114305195D01*
X142538974Y-114256515D01*
X142580462Y-114213054D01*
X142617407Y-114174378D01*
X142650231Y-114140048D01*
X142679357Y-114109628D01*
X142705208Y-114082681D01*
X142728206Y-114058770D01*
X142748774Y-114037459D01*
X142767334Y-114018310D01*
X142784310Y-114000887D01*
X142800124Y-113984752D01*
X142815199Y-113969470D01*
X142829956Y-113954602D01*
X142844820Y-113939713D01*
X142860211Y-113924364D01*
X142876554Y-113908121D01*
X142879514Y-113905183D01*
X142895649Y-113889020D01*
X142909667Y-113874692D01*
X142920695Y-113863117D01*
X142927855Y-113855214D01*
X142930277Y-113851937D01*
X142932916Y-113848484D01*
X142940333Y-113840297D01*
X142951779Y-113828162D01*
X142966504Y-113812869D01*
X142983760Y-113795204D01*
X142997664Y-113781122D01*
X143017370Y-113761173D01*
X143041202Y-113736922D01*
X143067865Y-113709691D01*
X143096066Y-113680807D01*
X143124510Y-113651593D01*
X143151904Y-113623375D01*
X143163796Y-113611093D01*
X143262540Y-113509015D01*
X143247872Y-113496924D01*
X143238716Y-113489860D01*
X143231941Y-113485505D01*
X143230111Y-113484832D01*
X143226070Y-113482420D01*
X143217515Y-113475887D01*
X143205784Y-113466289D01*
X143194866Y-113456989D01*
X143180949Y-113445159D01*
X143162667Y-113429941D01*
X143141788Y-113412788D01*
X143120079Y-113395155D01*
X143104116Y-113382331D01*
X143085651Y-113367431D01*
X143069244Y-113353913D01*
X143055903Y-113342630D01*
X143046635Y-113334434D01*
X143042449Y-113330179D01*
X143042394Y-113330091D01*
X143036450Y-113325235D01*
X143033605Y-113324666D01*
X143028529Y-113322717D01*
X143027939Y-113321167D01*
X143025130Y-113317469D01*
X143017431Y-113309785D01*
X143005937Y-113299151D01*
X142991745Y-113286601D01*
X142987898Y-113283281D01*
X142940005Y-113241309D01*
X142897482Y-113202130D01*
X142859044Y-113164445D01*
X142823406Y-113126955D01*
X142789281Y-113088360D01*
X142759164Y-113052055D01*
X142696380Y-112968220D01*
X142639758Y-112880016D01*
X142589604Y-112788058D01*
X142546224Y-112692962D01*
X142509923Y-112595342D01*
X142481008Y-112495815D01*
X142479299Y-112488917D01*
X142474317Y-112468135D01*
X142469857Y-112448707D01*
X142466352Y-112432579D01*
X142464236Y-112421692D01*
X142464017Y-112420314D01*
X142461988Y-112407533D01*
X142459992Y-112396423D01*
X142459720Y-112395078D01*
X142455230Y-112371184D01*
X142451280Y-112344974D01*
X142447736Y-112315252D01*
X142444466Y-112280820D01*
X142441337Y-112240483D01*
X142439493Y-112213270D01*
X142436853Y-112127747D01*
X142439693Y-112038981D01*
X142444046Y-111984740D01*
X142446767Y-111958118D01*
X142449248Y-111935828D01*
X142451203Y-111920283D01*
X142452712Y-111909212D01*
X142454624Y-111894975D01*
X142455414Y-111889031D01*
X142458992Y-111866139D01*
X142464237Y-111837976D01*
X142470669Y-111806786D01*
X142477812Y-111774811D01*
X142485187Y-111744294D01*
X142490969Y-111722304D01*
X142522949Y-111618802D01*
X142560595Y-111520311D01*
X142604248Y-111426122D01*
X142654248Y-111335526D01*
X142710937Y-111247816D01*
X142737459Y-111210806D01*
X142747623Y-111196780D01*
X142755776Y-111185044D01*
X142760951Y-111177020D01*
X142762298Y-111174257D01*
X142765064Y-111170067D01*
X142771752Y-111163926D01*
X142772064Y-111163679D01*
X142778890Y-111157153D01*
X142781828Y-111152051D01*
X142781830Y-111151960D01*
X142784628Y-111146937D01*
X142791381Y-111140411D01*
X142791597Y-111140240D01*
X142798438Y-111133534D01*
X142801361Y-111128039D01*
X142801363Y-111127959D01*
X142804189Y-111122912D01*
X142811306Y-111115600D01*
X142815036Y-111112450D01*
X142823314Y-111105057D01*
X142828173Y-111099195D01*
X142828708Y-111097709D01*
X142831372Y-111093980D01*
X142838783Y-111085690D01*
X142850072Y-111073707D01*
X142864369Y-111058901D01*
X142880804Y-111042139D01*
X142898509Y-111024292D01*
X142916613Y-111006228D01*
X142934247Y-110988816D01*
X142950542Y-110972925D01*
X142964627Y-110959423D01*
X142975633Y-110949181D01*
X142982690Y-110943066D01*
X142984826Y-110941707D01*
X142989185Y-110938896D01*
X142996295Y-110931707D01*
X143001063Y-110926081D01*
X143009133Y-110917136D01*
X143015928Y-110911481D01*
X143018480Y-110910455D01*
X143023933Y-110907689D01*
X143031357Y-110900833D01*
X143033199Y-110898736D01*
X143040428Y-110891223D01*
X143046048Y-110887219D01*
X143046936Y-110887016D01*
X143051840Y-110884223D01*
X143058312Y-110877480D01*
X143058493Y-110877250D01*
X143064618Y-110870460D01*
X143068852Y-110867489D01*
X143068948Y-110867484D01*
X143072913Y-110865176D01*
X143081626Y-110858898D01*
X143093783Y-110849622D01*
X143107450Y-110838824D01*
X143124575Y-110825237D01*
X143142310Y-110811415D01*
X143158175Y-110799281D01*
X143166698Y-110792922D01*
X143179740Y-110783145D01*
X143196421Y-110770333D01*
X143214309Y-110756366D01*
X143226686Y-110746558D01*
X143263156Y-110717434D01*
X143214898Y-110670381D01*
X143204866Y-110660575D01*
X143189762Y-110645774D01*
X143170082Y-110626465D01*
X143146319Y-110603135D01*
X143118969Y-110576270D01*
X143088529Y-110546357D01*
X143055492Y-110513883D01*
X143020355Y-110479335D01*
X142983612Y-110443198D01*
X142945758Y-110405960D01*
X142912579Y-110373313D01*
X142873311Y-110334689D01*
X142831968Y-110294061D01*
X142788936Y-110251805D01*
X142744598Y-110208296D01*
X142699339Y-110163909D01*
X142653542Y-110119020D01*
X142607591Y-110074005D01*
X142561871Y-110029240D01*
X142516766Y-109985099D01*
X142472661Y-109941958D01*
X142429938Y-109900193D01*
X142388982Y-109860179D01*
X142350178Y-109822292D01*
X142313910Y-109786907D01*
X142280560Y-109754400D01*
X142250515Y-109725147D01*
X142224158Y-109699522D01*
X142201872Y-109677902D01*
X142184043Y-109660661D01*
X142171054Y-109648176D01*
X142163748Y-109641249D01*
X142151568Y-109630420D01*
X142143020Y-109624433D01*
X142136479Y-109622351D01*
X142131768Y-109622825D01*
X142125524Y-109626156D01*
X142114738Y-109633720D01*
X142100693Y-109644547D01*
X142084674Y-109657666D01*
X142076551Y-109664586D01*
X141965924Y-109754989D01*
X141849939Y-109839962D01*
X141729081Y-109919258D01*
X141603836Y-109992633D01*
X141474689Y-110059842D01*
X141342127Y-110120638D01*
X141206635Y-110174777D01*
X141068699Y-110222014D01*
X140928804Y-110262103D01*
X140859837Y-110279028D01*
X140756522Y-110300615D01*
X140653035Y-110317366D01*
X140547856Y-110329448D01*
X140439465Y-110337025D01*
X140326341Y-110340265D01*
X140297302Y-110340416D01*
X140184590Y-110338552D01*
X140076328Y-110332613D01*
X139970496Y-110322357D01*
X139865076Y-110307544D01*
X139758047Y-110287930D01*
X139647392Y-110263274D01*
X139641847Y-110261934D01*
X139614562Y-110255079D01*
X139584850Y-110247205D01*
X139553645Y-110238596D01*
X139521880Y-110229538D01*
X139490488Y-110220317D01*
X139460402Y-110211216D01*
X139432555Y-110202522D01*
X139407881Y-110194519D01*
X139387311Y-110187494D01*
X139371780Y-110181730D01*
X139362221Y-110177513D01*
X139359599Y-110175662D01*
X139354872Y-110173069D01*
X139345011Y-110169935D01*
X139337137Y-110168035D01*
X139325795Y-110164992D01*
X139318402Y-110161835D01*
X139316773Y-110160086D01*
X139313428Y-110157392D01*
X139307007Y-110156503D01*
X139299663Y-110155335D01*
X139297241Y-110153096D01*
X139293790Y-110150414D01*
X139285166Y-110147847D01*
X139281615Y-110147190D01*
X139271846Y-110144774D01*
X139266397Y-110141771D01*
X139265989Y-110140831D01*
X139262654Y-110137898D01*
X139256502Y-110136970D01*
X139246592Y-110134631D01*
X139241155Y-110131111D01*
X139233430Y-110126242D01*
X139228877Y-110125251D01*
X139220937Y-110122642D01*
X139216600Y-110119391D01*
X139208137Y-110114715D01*
X139201253Y-110113531D01*
X139194043Y-110112377D01*
X139191766Y-110110252D01*
X139188495Y-110106356D01*
X139180750Y-110102035D01*
X139171636Y-110098770D01*
X139165911Y-110097905D01*
X139158388Y-110095317D01*
X139154096Y-110092046D01*
X139145576Y-110087315D01*
X139139028Y-110086186D01*
X139129540Y-110084116D01*
X139124658Y-110081085D01*
X139119870Y-110077959D01*
X139109115Y-110071845D01*
X139093395Y-110063286D01*
X139073714Y-110052820D01*
X139051076Y-110040988D01*
X139031600Y-110030949D01*
X138940771Y-109982669D01*
X138854555Y-109933112D01*
X138771277Y-109881187D01*
X138689262Y-109825804D01*
X138606835Y-109765875D01*
X138522321Y-109700308D01*
X138517205Y-109696216D01*
X138489969Y-109674721D01*
X138467846Y-109658060D01*
X138450142Y-109645840D01*
X138436165Y-109637666D01*
X138425221Y-109633144D01*
X138416618Y-109631880D01*
X138409664Y-109633479D01*
X138408246Y-109634199D01*
X138402929Y-109638053D01*
X138392943Y-109646066D01*
X138379491Y-109657242D01*
X138363780Y-109670588D01*
X138354960Y-109678189D01*
X138271133Y-109747161D01*
X138180444Y-109814921D01*
X138083821Y-109880894D01*
X137982190Y-109944503D01*
X137876477Y-110005174D01*
X137767608Y-110062330D01*
X137656510Y-110115395D01*
X137639489Y-110123066D01*
X137522882Y-110171794D01*
X137402214Y-110215691D01*
X137279022Y-110254308D01*
X137154839Y-110287197D01*
X137031202Y-110313910D01*
X136924048Y-110331957D01*
X136888357Y-110337023D01*
X136856506Y-110341238D01*
X136827249Y-110344679D01*
X136799340Y-110347422D01*
X136771534Y-110349544D01*
X136742585Y-110351120D01*
X136711249Y-110352227D01*
X136676278Y-110352942D01*
X136636428Y-110353341D01*
X136590453Y-110353500D01*
X136572464Y-110353513D01*
X136526212Y-110353455D01*
X136486796Y-110353239D01*
X136453239Y-110352839D01*
X136424566Y-110352225D01*
X136399801Y-110351371D01*
X136377967Y-110350248D01*
X136358088Y-110348829D01*
X136339188Y-110347085D01*
X136336121Y-110346767D01*
X136211217Y-110331100D01*
X136089460Y-110310789D01*
X135972386Y-110286101D01*
X135937216Y-110277584D01*
X135905669Y-110269535D01*
X135875448Y-110261518D01*
X135847512Y-110253813D01*
X135822820Y-110246700D01*
X135802332Y-110240459D01*
X135787005Y-110235370D01*
X135777801Y-110231712D01*
X135775735Y-110230453D01*
X135769055Y-110227455D01*
X135763735Y-110226820D01*
X135755299Y-110225611D01*
X135743564Y-110222566D01*
X135731189Y-110218554D01*
X135720830Y-110214446D01*
X135715144Y-110211111D01*
X135714921Y-110210833D01*
X135710443Y-110208488D01*
X135700313Y-110204908D01*
X135686458Y-110200755D01*
X135681784Y-110199474D01*
X135667176Y-110195270D01*
X135655705Y-110191427D01*
X135649298Y-110188609D01*
X135648647Y-110188055D01*
X135643810Y-110185408D01*
X135634409Y-110182766D01*
X135631976Y-110182281D01*
X135622583Y-110179681D01*
X135617579Y-110176594D01*
X135617327Y-110175858D01*
X135613983Y-110173054D01*
X135607561Y-110172129D01*
X135600219Y-110170791D01*
X135597795Y-110168222D01*
X135594452Y-110165286D01*
X135588028Y-110164316D01*
X135580687Y-110162978D01*
X135578262Y-110160409D01*
X135574919Y-110157473D01*
X135568496Y-110156503D01*
X135561154Y-110155165D01*
X135558730Y-110152596D01*
X135555387Y-110149660D01*
X135548963Y-110148690D01*
X135541619Y-110147530D01*
X135539197Y-110145304D01*
X135535866Y-110142039D01*
X135527447Y-110137429D01*
X135516306Y-110132483D01*
X135504806Y-110128206D01*
X135495310Y-110125607D01*
X135492124Y-110125251D01*
X135485540Y-110123702D01*
X135483855Y-110122042D01*
X135480116Y-110119488D01*
X135470335Y-110114070D01*
X135455515Y-110106308D01*
X135436658Y-110096722D01*
X135414765Y-110085830D01*
X135401181Y-110079173D01*
X135288632Y-110021559D01*
X135180363Y-109960374D01*
X135075034Y-109894758D01*
X134971303Y-109823851D01*
X134867831Y-109746791D01*
X134800871Y-109693639D01*
X134777421Y-109674751D01*
X134758992Y-109660454D01*
X134744656Y-109650270D01*
X134733483Y-109643724D01*
X134724548Y-109640340D01*
X134716920Y-109639642D01*
X134709673Y-109641154D01*
X134703434Y-109643677D01*
X134698966Y-109647018D01*
X134689797Y-109655125D01*
X134675869Y-109668057D01*
X134657122Y-109685871D01*
X134633499Y-109708624D01*
X134604940Y-109736375D01*
X134571386Y-109769180D01*
X134532779Y-109807098D01*
X134489061Y-109850187D01*
X134440171Y-109898503D01*
X134386053Y-109952104D01*
X134326646Y-110011049D01*
X134261892Y-110075395D01*
X134191732Y-110145199D01*
X134147848Y-110188898D01*
X133607438Y-110727183D01*
X133625017Y-110738170D01*
X133635515Y-110745590D01*
X133649496Y-110756637D01*
X133664784Y-110769553D01*
X133673848Y-110777624D01*
X133685199Y-110787838D01*
X133701320Y-110802168D01*
X133721074Y-110819614D01*
X133743326Y-110839175D01*
X133766942Y-110859852D01*
X133790786Y-110880644D01*
X133790890Y-110880735D01*
X133834616Y-110918982D01*
X133873005Y-110953059D01*
X133906798Y-110983709D01*
X133936731Y-111011674D01*
X133963543Y-111037700D01*
X133987973Y-111062529D01*
X134010758Y-111086905D01*
X134032638Y-111111571D01*
X134054349Y-111137271D01*
X134076631Y-111164749D01*
X134091167Y-111183146D01*
X134110778Y-111209042D01*
X134132770Y-111239561D01*
X134155954Y-111272932D01*
X134179141Y-111307387D01*
X134201140Y-111341154D01*
X134220763Y-111372464D01*
X134236819Y-111399548D01*
X134237847Y-111401361D01*
X134285942Y-111494124D01*
X134327191Y-111589839D01*
X134361394Y-111687875D01*
X134388351Y-111787599D01*
X134407865Y-111888379D01*
X134418418Y-111974055D01*
X134419934Y-111997396D01*
X134420898Y-112026696D01*
X134421342Y-112060413D01*
X134421292Y-112097007D01*
X134420780Y-112134936D01*
X134419833Y-112172659D01*
X134418481Y-112208635D01*
X134416753Y-112241322D01*
X134414678Y-112269180D01*
X134412457Y-112289446D01*
X134397053Y-112383303D01*
X134376936Y-112476286D01*
X134352484Y-112567132D01*
X134324074Y-112654580D01*
X134292083Y-112737367D01*
X134256890Y-112814232D01*
X134253622Y-112820729D01*
X134214020Y-112893109D01*
X134169322Y-112963836D01*
X134119172Y-113033315D01*
X134063215Y-113101953D01*
X134001094Y-113170155D01*
X133932453Y-113238325D01*
X133856937Y-113306869D01*
X133774189Y-113376192D01*
X133746057Y-113398660D01*
X133727884Y-113413153D01*
X133711787Y-113426252D01*
X133698802Y-113437093D01*
X133689963Y-113444813D01*
X133686350Y-113448468D01*
X133681049Y-113453086D01*
X133678892Y-113453581D01*
X133673422Y-113455916D01*
X133663724Y-113462085D01*
X133651498Y-113470834D01*
X133638444Y-113480907D01*
X133626263Y-113491048D01*
X133618503Y-113498159D01*
X133606129Y-113510231D01*
X133452401Y-113510231D01*
X133450448Y-113508154D01*
X133450187Y-113507877D01*
X133429615Y-113485997D01*
X133500947Y-113435786D01*
X133554716Y-113397606D01*
X133602818Y-113362701D01*
X133646258Y-113330279D01*
X133686041Y-113299554D01*
X133723173Y-113269734D01*
X133758660Y-113240030D01*
X133793507Y-113209654D01*
X133823649Y-113182464D01*
X133904847Y-113103513D01*
X133978696Y-113021938D01*
X134045228Y-112937681D01*
X134104476Y-112850684D01*
X134156469Y-112760889D01*
X134201240Y-112668237D01*
X134238820Y-112572671D01*
X134269241Y-112474133D01*
X134292534Y-112372564D01*
X134305569Y-112292717D01*
X134309187Y-112259349D01*
X134311900Y-112220393D01*
X134313699Y-112177658D01*
X134314574Y-112132952D01*
X134314516Y-112088083D01*
X134313516Y-112044861D01*
X134311563Y-112005093D01*
X134308650Y-111970589D01*
X134307304Y-111959348D01*
X134289325Y-111852196D01*
X134264104Y-111747965D01*
X134231669Y-111646720D01*
X134192052Y-111548532D01*
X134145282Y-111453468D01*
X134091391Y-111361595D01*
X134030409Y-111272982D01*
X133962366Y-111187697D01*
X133960916Y-111186005D01*
X133921729Y-111141770D01*
X133880741Y-111098386D01*
X133837263Y-111055238D01*
X133790607Y-111011706D01*
X133740084Y-110967174D01*
X133685006Y-110921025D01*
X133624683Y-110872641D01*
X133558428Y-110821404D01*
X133531821Y-110801260D01*
X133452299Y-110741369D01*
X133592372Y-110601975D01*
X133610468Y-110583962D01*
X133633704Y-110560824D01*
X133661687Y-110532953D01*
X133694025Y-110500740D01*
X133730324Y-110464577D01*
X133770191Y-110424855D01*
X133813233Y-110381966D01*
X133859059Y-110336302D01*
X133907274Y-110288254D01*
X133957486Y-110238213D01*
X134009302Y-110186571D01*
X134062328Y-110133719D01*
X134116173Y-110080050D01*
X134170443Y-110025954D01*
X134224746Y-109971823D01*
X134225435Y-109971136D01*
X134718424Y-109479691D01*
X134733839Y-109492882D01*
X134761972Y-109516881D01*
X134790137Y-109540771D01*
X134817361Y-109563737D01*
X134842670Y-109584961D01*
X134865089Y-109603627D01*
X134883644Y-109618918D01*
X134897360Y-109630016D01*
X134898533Y-109630947D01*
X134919444Y-109647476D01*
X134936053Y-109660511D01*
X134950153Y-109671410D01*
X134963538Y-109681529D01*
X134978003Y-109692226D01*
X134995340Y-109704859D01*
X135015728Y-109719615D01*
X135137420Y-109803502D01*
X135259857Y-109879706D01*
X135383340Y-109948341D01*
X135508171Y-110009523D01*
X135634654Y-110063369D01*
X135763091Y-110109995D01*
X135893783Y-110149516D01*
X136027033Y-110182048D01*
X136163144Y-110207708D01*
X136302417Y-110226612D01*
X136349794Y-110231450D01*
X136370715Y-110232941D01*
X136398232Y-110234181D01*
X136431132Y-110235171D01*
X136468203Y-110235909D01*
X136508231Y-110236395D01*
X136550003Y-110236631D01*
X136592308Y-110236616D01*
X136633931Y-110236349D01*
X136673661Y-110235831D01*
X136710283Y-110235062D01*
X136742586Y-110234042D01*
X136769356Y-110232771D01*
X136787321Y-110231450D01*
X136929112Y-110214597D01*
X137067251Y-110190947D01*
X137202171Y-110160363D01*
X137334306Y-110122707D01*
X137464090Y-110077842D01*
X137591957Y-110025629D01*
X137718341Y-109965932D01*
X137843676Y-109898612D01*
X137852432Y-109893605D01*
X137940652Y-109840614D01*
X138030733Y-109782062D01*
X138120948Y-109719213D01*
X138209569Y-109653333D01*
X138294868Y-109585685D01*
X138375119Y-109517534D01*
X138414609Y-109482016D01*
X138424610Y-109472827D01*
X138527897Y-109559489D01*
X138568022Y-109592957D01*
X138603544Y-109622106D01*
X138635662Y-109647850D01*
X138665572Y-109671105D01*
X138694472Y-109692785D01*
X138723561Y-109713806D01*
X138754036Y-109735082D01*
X138787094Y-109757529D01*
X138787444Y-109757764D01*
X138901053Y-109830676D01*
X139014492Y-109896607D01*
X139129066Y-109956253D01*
X139246081Y-110010305D01*
X139323631Y-110042593D01*
X139450263Y-110089655D01*
X139577424Y-110129811D01*
X139706021Y-110163270D01*
X139836962Y-110190239D01*
X139971155Y-110210927D01*
X140109506Y-110225541D01*
X140129323Y-110227119D01*
X140156921Y-110228762D01*
X140190696Y-110230024D01*
X140229022Y-110230904D01*
X140270272Y-110231402D01*
X140312821Y-110231518D01*
X140355041Y-110231252D01*
X140395306Y-110230604D01*
X140431990Y-110229573D01*
X140463467Y-110228160D01*
X140478954Y-110227146D01*
X140617004Y-110212909D01*
X140753113Y-110191364D01*
X140887436Y-110162457D01*
X141020128Y-110126133D01*
X141151342Y-110082336D01*
X141281234Y-110031011D01*
X141409956Y-109972104D01*
X141537663Y-109905558D01*
X141664510Y-109831320D01*
X141762236Y-109768515D01*
X141789306Y-109749980D01*
X141817554Y-109729683D01*
X141847824Y-109706976D01*
X141880957Y-109681209D01*
X141917796Y-109651734D01*
X141959184Y-109617901D01*
X141978619Y-109601826D01*
X142001278Y-109583064D01*
X142022479Y-109565575D01*
X142041331Y-109550088D01*
X142056945Y-109537333D01*
X142068430Y-109528038D01*
X142074899Y-109522931D01*
X142075267Y-109522656D01*
X142082340Y-109516132D01*
X142092539Y-109505103D01*
X142104300Y-109491312D01*
X142112406Y-109481228D01*
X142138414Y-109448030D01*
X142148024Y-109459472D01*
G37*
G36*
X138442074Y-109937651D02*
G01*
X138452133Y-109944474D01*
X138466593Y-109954723D01*
X138484544Y-109967748D01*
X138505076Y-109982896D01*
X138523756Y-109996861D01*
X138651072Y-110087971D01*
X138780902Y-110171689D01*
X138913293Y-110248036D01*
X139048292Y-110317033D01*
X139185947Y-110378703D01*
X139326306Y-110433067D01*
X139469415Y-110480145D01*
X139615324Y-110519960D01*
X139747922Y-110549373D01*
X139772491Y-110553964D01*
X139796247Y-110557892D01*
X139817396Y-110560896D01*
X139834141Y-110562718D01*
X139843173Y-110563149D01*
X139855820Y-110563521D01*
X139864643Y-110564769D01*
X139867589Y-110566420D01*
X139871211Y-110569897D01*
X139880958Y-110572737D01*
X139895146Y-110574609D01*
X139912091Y-110575183D01*
X139912176Y-110575182D01*
X139922711Y-110575540D01*
X139939240Y-110576669D01*
X139959998Y-110578424D01*
X139983220Y-110580657D01*
X140000409Y-110582472D01*
X140026866Y-110585239D01*
X140054569Y-110587901D01*
X140080957Y-110590225D01*
X140103468Y-110591983D01*
X140112721Y-110592592D01*
X140130190Y-110593824D01*
X140144367Y-110595194D01*
X140153696Y-110596526D01*
X140156660Y-110597547D01*
X140160284Y-110598415D01*
X140170062Y-110598885D01*
X140184344Y-110598911D01*
X140195725Y-110598653D01*
X140212117Y-110598431D01*
X140225124Y-110598818D01*
X140233095Y-110599731D01*
X140234797Y-110600607D01*
X140238532Y-110601462D01*
X140249054Y-110602231D01*
X140265338Y-110602881D01*
X140286357Y-110603380D01*
X140311087Y-110603695D01*
X140336362Y-110603796D01*
X140363610Y-110603688D01*
X140388096Y-110603385D01*
X140408795Y-110602915D01*
X140424680Y-110602308D01*
X140434727Y-110601595D01*
X140437932Y-110600866D01*
X140441505Y-110599403D01*
X140450884Y-110598353D01*
X140464063Y-110597937D01*
X140464501Y-110597936D01*
X140501122Y-110596984D01*
X140544013Y-110594244D01*
X140591879Y-110589886D01*
X140643426Y-110584082D01*
X140697361Y-110577004D01*
X140752388Y-110568825D01*
X140807215Y-110559714D01*
X140860548Y-110549845D01*
X140911092Y-110539388D01*
X140919061Y-110537621D01*
X141054370Y-110503407D01*
X141189291Y-110461526D01*
X141323523Y-110412122D01*
X141456767Y-110355341D01*
X141588722Y-110291327D01*
X141719089Y-110220225D01*
X141847567Y-110142181D01*
X141973856Y-110057339D01*
X142089255Y-109972326D01*
X142110115Y-109956962D01*
X142125800Y-109947007D01*
X142136637Y-109942323D01*
X142142952Y-109942770D01*
X142145070Y-109948209D01*
X142145072Y-109948475D01*
X142147793Y-109952048D01*
X142155757Y-109960831D01*
X142168670Y-109974522D01*
X142186236Y-109992821D01*
X142208160Y-110015428D01*
X142234147Y-110042040D01*
X142263901Y-110072358D01*
X142297127Y-110106081D01*
X142333530Y-110142908D01*
X142372814Y-110182538D01*
X142414684Y-110224671D01*
X142458845Y-110269006D01*
X142505001Y-110315242D01*
X142518713Y-110328959D01*
X142578279Y-110388577D01*
X142632357Y-110442806D01*
X142681031Y-110491732D01*
X142724385Y-110535442D01*
X142762503Y-110574022D01*
X142795471Y-110607557D01*
X142823373Y-110636136D01*
X142846293Y-110659844D01*
X142864316Y-110678767D01*
X142877527Y-110692991D01*
X142886009Y-110702604D01*
X142889848Y-110707692D01*
X142890094Y-110708503D01*
X142885666Y-110713254D01*
X142876288Y-110719940D01*
X142864625Y-110726761D01*
X142855647Y-110732279D01*
X142844900Y-110740367D01*
X142831727Y-110751622D01*
X142815467Y-110766638D01*
X142795462Y-110786010D01*
X142771054Y-110810335D01*
X142761565Y-110819911D01*
X142727173Y-110854936D01*
X142697355Y-110885875D01*
X142670981Y-110913982D01*
X142646920Y-110940510D01*
X142624043Y-110966713D01*
X142601219Y-110993845D01*
X142577319Y-111023159D01*
X142569015Y-111033510D01*
X142507182Y-111114678D01*
X142452193Y-111195236D01*
X142403320Y-111276512D01*
X142359839Y-111359837D01*
X142321024Y-111446540D01*
X142286148Y-111537950D01*
X142273658Y-111574559D01*
X142249671Y-111650708D01*
X142229819Y-111722212D01*
X142213793Y-111790851D01*
X142201281Y-111858405D01*
X142191974Y-111926653D01*
X142185559Y-111997375D01*
X142181728Y-112072351D01*
X142180788Y-112106823D01*
X142180264Y-112136927D01*
X142179993Y-112164178D01*
X142179969Y-112187658D01*
X142180185Y-112206451D01*
X142180634Y-112219641D01*
X142181309Y-112226310D01*
X142181648Y-112226947D01*
X142183061Y-112230514D01*
X142183677Y-112239934D01*
X142183386Y-112253274D01*
X142183271Y-112255265D01*
X142183034Y-112271954D01*
X142183862Y-112292921D01*
X142185587Y-112314729D01*
X142186698Y-112324605D01*
X142203489Y-112427294D01*
X142227876Y-112530137D01*
X142259662Y-112632730D01*
X142298649Y-112734669D01*
X142344641Y-112835550D01*
X142397441Y-112934969D01*
X142456850Y-113032521D01*
X142522673Y-113127802D01*
X142594711Y-113220409D01*
X142661241Y-113297335D01*
X142685697Y-113324088D01*
X142708466Y-113348613D01*
X142729000Y-113370343D01*
X142746748Y-113388714D01*
X142761162Y-113403158D01*
X142771692Y-113413111D01*
X142777789Y-113418006D01*
X142778828Y-113418422D01*
X142782744Y-113421061D01*
X142791026Y-113428316D01*
X142802600Y-113439194D01*
X142816393Y-113452702D01*
X142822202Y-113458530D01*
X142837806Y-113474009D01*
X142852823Y-113488409D01*
X142865764Y-113500334D01*
X142875143Y-113508391D01*
X142876783Y-113509657D01*
X142885323Y-113517168D01*
X142890075Y-113523690D01*
X142890456Y-113525892D01*
X142887601Y-113529655D01*
X142879850Y-113538509D01*
X142867715Y-113551902D01*
X142851706Y-113569285D01*
X142832333Y-113590106D01*
X142810108Y-113613816D01*
X142785540Y-113639864D01*
X142759141Y-113667699D01*
X142750359Y-113676926D01*
X142721130Y-113707637D01*
X142691625Y-113738686D01*
X142662661Y-113769212D01*
X142635052Y-113798352D01*
X142609614Y-113825246D01*
X142587163Y-113849033D01*
X142568514Y-113868850D01*
X142555034Y-113883245D01*
X142538473Y-113900966D01*
X142517675Y-113923163D01*
X142493770Y-113948631D01*
X142467888Y-113976169D01*
X142441161Y-114004574D01*
X142414717Y-114032642D01*
X142398994Y-114049313D01*
X142372630Y-114077312D01*
X142344720Y-114107057D01*
X142316516Y-114137209D01*
X142289270Y-114166426D01*
X142264234Y-114193366D01*
X142242659Y-114216687D01*
X142233069Y-114227108D01*
X142214429Y-114247314D01*
X142197124Y-114265895D01*
X142181980Y-114281975D01*
X142169824Y-114294682D01*
X142161482Y-114303142D01*
X142158229Y-114306172D01*
X142146162Y-114311437D01*
X142130359Y-114313008D01*
X142122422Y-114312704D01*
X142115191Y-114311337D01*
X142107300Y-114308227D01*
X142097385Y-114302696D01*
X142084080Y-114294063D01*
X142066020Y-114281649D01*
X142062611Y-114279276D01*
X141970758Y-114216372D01*
X141883347Y-114158856D01*
X141799602Y-114106306D01*
X141718742Y-114058297D01*
X141639989Y-114014408D01*
X141562563Y-113974215D01*
X141485686Y-113937296D01*
X141408578Y-113903227D01*
X141330461Y-113871585D01*
X141269696Y-113848814D01*
X141130639Y-113802388D01*
X140990192Y-113763421D01*
X140848170Y-113731891D01*
X140704389Y-113707775D01*
X140558666Y-113691051D01*
X140410815Y-113681697D01*
X140260654Y-113679691D01*
X140107998Y-113685009D01*
X139988690Y-113694078D01*
X139844653Y-113711448D01*
X139702027Y-113736476D01*
X139560930Y-113769116D01*
X139421479Y-113809321D01*
X139283793Y-113857045D01*
X139147988Y-113912241D01*
X139014182Y-113974861D01*
X138882493Y-114044860D01*
X138753039Y-114122191D01*
X138625937Y-114206807D01*
X138540697Y-114268644D01*
X138512760Y-114289217D01*
X138489827Y-114305061D01*
X138470986Y-114316553D01*
X138455328Y-114324074D01*
X138441945Y-114328001D01*
X138429926Y-114328713D01*
X138418363Y-114326589D01*
X138409366Y-114323330D01*
X138402469Y-114319463D01*
X138390454Y-114311721D01*
X138374474Y-114300890D01*
X138355680Y-114287753D01*
X138335227Y-114273097D01*
X138330045Y-114269328D01*
X138206817Y-114182968D01*
X138084095Y-114104122D01*
X137961430Y-114032548D01*
X137838371Y-113968008D01*
X137714466Y-113910260D01*
X137589267Y-113859063D01*
X137501817Y-113827407D01*
X137379012Y-113788866D01*
X137251562Y-113755800D01*
X137120522Y-113728338D01*
X136986944Y-113706609D01*
X136851883Y-113690743D01*
X136716392Y-113680868D01*
X136581524Y-113677114D01*
X136448333Y-113679610D01*
X136347339Y-113685891D01*
X136201319Y-113701630D01*
X136057569Y-113724740D01*
X135915871Y-113755284D01*
X135776009Y-113793322D01*
X135637765Y-113838915D01*
X135500923Y-113892126D01*
X135365265Y-113953016D01*
X135315420Y-113977457D01*
X135288215Y-113991169D01*
X135262819Y-114004143D01*
X135238685Y-114016709D01*
X135215265Y-114029198D01*
X135192010Y-114041940D01*
X135168371Y-114055264D01*
X135143802Y-114069502D01*
X135117752Y-114084984D01*
X135089675Y-114102041D01*
X135059023Y-114121001D01*
X135025246Y-114142197D01*
X134987796Y-114165958D01*
X134946126Y-114192614D01*
X134899688Y-114222496D01*
X134847932Y-114255934D01*
X134790311Y-114293258D01*
X134777106Y-114301821D01*
X134760871Y-114312047D01*
X134746598Y-114320475D01*
X134735758Y-114326277D01*
X134729821Y-114328621D01*
X134729605Y-114328634D01*
X134725651Y-114325888D01*
X134716951Y-114318049D01*
X134704111Y-114305720D01*
X134687736Y-114289501D01*
X134668430Y-114269995D01*
X134646797Y-114247803D01*
X134623444Y-114223527D01*
X134614689Y-114214348D01*
X134581178Y-114179119D01*
X134550895Y-114147247D01*
X134523180Y-114118026D01*
X134497376Y-114090749D01*
X134472821Y-114064711D01*
X134448858Y-114039207D01*
X134424826Y-114013530D01*
X134400066Y-113986976D01*
X134373918Y-113958837D01*
X134345724Y-113928409D01*
X134314824Y-113894985D01*
X134280558Y-113857861D01*
X134242268Y-113816330D01*
X134203365Y-113774106D01*
X134190276Y-113759950D01*
X134172885Y-113741223D01*
X134152241Y-113719049D01*
X134129390Y-113694551D01*
X134105380Y-113668852D01*
X134081259Y-113643077D01*
X134071334Y-113632484D01*
X134049839Y-113609400D01*
X134030160Y-113587965D01*
X134012915Y-113568880D01*
X133998725Y-113552841D01*
X133988208Y-113540548D01*
X133981985Y-113532697D01*
X133980508Y-113530142D01*
X133983311Y-113525805D01*
X133991045Y-113517408D01*
X134002698Y-113505961D01*
X134017258Y-113492475D01*
X134026409Y-113484316D01*
X134053442Y-113459886D01*
X134083645Y-113431475D01*
X134115610Y-113400493D01*
X134147931Y-113368345D01*
X134179200Y-113336441D01*
X134208010Y-113306188D01*
X134232954Y-113278994D01*
X134242635Y-113268022D01*
X134319360Y-113174412D01*
X134388533Y-113078887D01*
X134405960Y-113051320D01*
X136152673Y-113051320D01*
X136278448Y-113050289D01*
X136404223Y-113049259D01*
X136517642Y-112743821D01*
X136534983Y-112697166D01*
X136551565Y-112652634D01*
X136567184Y-112610768D01*
X136581638Y-112572109D01*
X136594722Y-112537201D01*
X136606233Y-112506583D01*
X136615968Y-112480799D01*
X136623722Y-112460390D01*
X136629292Y-112445898D01*
X136632475Y-112437865D01*
X136633155Y-112436370D01*
X136634745Y-112439654D01*
X136638736Y-112449772D01*
X136644934Y-112466190D01*
X136653145Y-112488374D01*
X136663174Y-112515789D01*
X136674828Y-112547902D01*
X136687911Y-112584176D01*
X136702231Y-112624078D01*
X136717592Y-112667073D01*
X136733800Y-112712627D01*
X136744490Y-112742771D01*
X136853731Y-113051184D01*
X136969949Y-113051198D01*
X136999180Y-113051122D01*
X137025715Y-113050898D01*
X137048597Y-113050548D01*
X137066865Y-113050091D01*
X137079562Y-113049549D01*
X137085729Y-113048941D01*
X137086167Y-113048725D01*
X137085022Y-113044760D01*
X137081676Y-113033783D01*
X137076269Y-113016237D01*
X137068938Y-112992567D01*
X137059822Y-112963214D01*
X137049059Y-112928623D01*
X137036787Y-112889237D01*
X137023144Y-112845498D01*
X137008268Y-112797851D01*
X136992298Y-112746739D01*
X136975371Y-112692604D01*
X136957626Y-112635891D01*
X136939200Y-112577041D01*
X136936133Y-112567250D01*
X136917515Y-112507804D01*
X136899490Y-112450235D01*
X136882201Y-112395005D01*
X136865792Y-112342572D01*
X136850407Y-112293397D01*
X136836191Y-112247941D01*
X136823286Y-112206663D01*
X136811837Y-112170024D01*
X136807653Y-112156626D01*
X136805306Y-112149109D01*
X137361575Y-112149109D01*
X137361575Y-112156626D01*
X137361591Y-112239145D01*
X137361641Y-112314171D01*
X137361727Y-112382026D01*
X137361852Y-112443029D01*
X137362019Y-112497500D01*
X137362231Y-112545761D01*
X137362489Y-112588132D01*
X137362797Y-112624932D01*
X137363158Y-112656483D01*
X137363573Y-112683105D01*
X137364046Y-112705119D01*
X137364579Y-112722844D01*
X137365175Y-112736601D01*
X137365837Y-112746711D01*
X137366495Y-112752985D01*
X137375560Y-112803595D01*
X137388160Y-112850375D01*
X137403852Y-112891764D01*
X137408814Y-112902325D01*
X137426904Y-112938995D01*
X137406936Y-112992552D01*
X137399874Y-113011656D01*
X137393910Y-113028109D01*
X137389526Y-113040550D01*
X137387208Y-113047618D01*
X137386967Y-113048660D01*
X137390683Y-113049379D01*
X137401072Y-113049970D01*
X137416993Y-113050436D01*
X137437307Y-113050778D01*
X137460874Y-113050999D01*
X137486556Y-113051100D01*
X137513211Y-113051085D01*
X137539701Y-113050954D01*
X137564887Y-113050710D01*
X137587627Y-113050355D01*
X137606784Y-113049890D01*
X137621217Y-113049319D01*
X137629786Y-113048642D01*
X137631593Y-113048222D01*
X137633678Y-113044181D01*
X137638105Y-113033714D01*
X137644533Y-113017731D01*
X137652618Y-112997142D01*
X137662017Y-112972860D01*
X137672388Y-112945793D01*
X137683389Y-112916854D01*
X137694676Y-112886952D01*
X137705907Y-112856999D01*
X137716740Y-112827904D01*
X137726831Y-112800579D01*
X137735838Y-112775935D01*
X137743419Y-112754881D01*
X137749231Y-112738329D01*
X137752930Y-112727190D01*
X137754177Y-112722424D01*
X137755520Y-112718279D01*
X137759397Y-112707429D01*
X137765583Y-112690476D01*
X137773850Y-112668023D01*
X137783973Y-112640673D01*
X137795726Y-112609031D01*
X137808881Y-112573698D01*
X137823214Y-112535278D01*
X137838496Y-112494373D01*
X137854503Y-112451588D01*
X137871008Y-112407525D01*
X137887784Y-112362787D01*
X137904606Y-112317978D01*
X137921246Y-112273700D01*
X137937479Y-112230556D01*
X137953079Y-112189150D01*
X137967818Y-112150085D01*
X137981471Y-112113964D01*
X137993812Y-112081390D01*
X138004613Y-112052966D01*
X138013650Y-112029295D01*
X138020695Y-112010980D01*
X138025522Y-111998625D01*
X138027905Y-111992832D01*
X138028045Y-111992553D01*
X138028546Y-111995452D01*
X138029002Y-112005626D01*
X138029409Y-112022536D01*
X138029763Y-112045643D01*
X138030060Y-112074411D01*
X138030297Y-112108301D01*
X138030468Y-112146773D01*
X138030571Y-112189291D01*
X138030600Y-112235315D01*
X138030553Y-112284308D01*
X138030480Y-112317071D01*
X138029585Y-112647448D01*
X138017806Y-112670478D01*
X138008051Y-112686689D01*
X137996968Y-112698282D01*
X137987021Y-112705258D01*
X137978129Y-112710405D01*
X137969915Y-112713905D01*
X137960409Y-112716178D01*
X137947646Y-112717646D01*
X137929656Y-112718732D01*
X137922624Y-112719061D01*
X137877232Y-112721114D01*
X137828299Y-112851981D01*
X137816344Y-112883978D01*
X137804711Y-112915165D01*
X137793819Y-112944408D01*
X137784090Y-112970575D01*
X137775946Y-112992532D01*
X137769808Y-113009147D01*
X137766797Y-113017358D01*
X137754228Y-113051867D01*
X137899719Y-113050268D01*
X137937835Y-113049822D01*
X137969047Y-113049367D01*
X137994265Y-113048853D01*
X138014399Y-113048228D01*
X138030359Y-113047440D01*
X138043054Y-113046438D01*
X138053393Y-113045170D01*
X138062286Y-113043584D01*
X138070642Y-113041629D01*
X138075683Y-113040284D01*
X138113759Y-113027187D01*
X138146980Y-113009716D01*
X138177632Y-112986537D01*
X138193748Y-112971350D01*
X138219428Y-112941934D01*
X138240650Y-112909371D01*
X138257859Y-112872668D01*
X138271503Y-112830830D01*
X138282027Y-112782860D01*
X138284287Y-112769389D01*
X138285252Y-112762918D01*
X138286125Y-112756012D01*
X138286910Y-112748271D01*
X138287613Y-112739292D01*
X138288237Y-112728674D01*
X138288787Y-112716015D01*
X138289269Y-112700914D01*
X138289686Y-112682969D01*
X138290043Y-112661779D01*
X138290344Y-112636942D01*
X138290595Y-112608056D01*
X138290799Y-112574720D01*
X138290962Y-112536533D01*
X138290976Y-112531549D01*
X138609699Y-112531549D01*
X138609776Y-112634144D01*
X138610200Y-112681169D01*
X138611518Y-112721556D01*
X138613919Y-112756448D01*
X138617588Y-112786987D01*
X138622712Y-112814317D01*
X138629478Y-112839580D01*
X138638073Y-112863918D01*
X138648683Y-112888476D01*
X138652698Y-112896906D01*
X138675356Y-112936728D01*
X138701724Y-112970071D01*
X138732532Y-112997682D01*
X138768511Y-113020304D01*
X138778844Y-113025480D01*
X138793797Y-113032393D01*
X138807951Y-113038269D01*
X138822074Y-113043188D01*
X138836931Y-113047229D01*
X138853290Y-113050471D01*
X138871919Y-113052996D01*
X138893583Y-113054882D01*
X138919049Y-113056209D01*
X138949086Y-113057058D01*
X138984459Y-113057508D01*
X139025936Y-113057639D01*
X139074284Y-113057531D01*
X139086290Y-113057481D01*
X139128892Y-113057281D01*
X139164463Y-113057063D01*
X139193786Y-113056792D01*
X139217643Y-113056435D01*
X139236816Y-113055957D01*
X139252088Y-113055322D01*
X139264242Y-113054498D01*
X139274058Y-113053449D01*
X139282320Y-113052140D01*
X139289811Y-113050537D01*
X139297312Y-113048607D01*
X139299194Y-113048092D01*
X139344411Y-113032174D01*
X139384737Y-113010536D01*
X139420360Y-112982986D01*
X139451470Y-112949332D01*
X139478254Y-112909378D01*
X139500902Y-112862934D01*
X139513880Y-112828013D01*
X139523104Y-112798517D01*
X139530425Y-112770692D01*
X139536035Y-112743063D01*
X139540126Y-112714150D01*
X139542888Y-112682477D01*
X139544515Y-112646567D01*
X139545197Y-112604941D01*
X139545249Y-112586340D01*
X139545137Y-112552127D01*
X139544784Y-112524605D01*
X139544135Y-112502656D01*
X139543133Y-112485159D01*
X139541724Y-112470996D01*
X139539852Y-112459046D01*
X139538680Y-112453348D01*
X139524653Y-112403396D01*
X139505110Y-112355712D01*
X139479753Y-112309945D01*
X139448283Y-112265741D01*
X139410400Y-112222751D01*
X139365806Y-112180622D01*
X139314201Y-112139003D01*
X139255286Y-112097542D01*
X139213251Y-112070708D01*
X139149798Y-112030278D01*
X139093696Y-111991713D01*
X139044755Y-111954837D01*
X139002784Y-111919474D01*
X138967592Y-111885448D01*
X138938989Y-111852583D01*
X138916784Y-111820705D01*
X138900787Y-111789635D01*
X138896445Y-111778427D01*
X138892169Y-111764901D01*
X138889411Y-111751843D01*
X138887863Y-111736874D01*
X138887220Y-111717613D01*
X138887142Y-111706300D01*
X138887059Y-111660296D01*
X138904277Y-111643078D01*
X138912536Y-111635263D01*
X138920681Y-111628961D01*
X138929639Y-111624011D01*
X138940339Y-111620251D01*
X138953708Y-111617519D01*
X138970674Y-111615655D01*
X138992167Y-111614496D01*
X139019113Y-111613880D01*
X139052442Y-111613647D01*
X139073452Y-111613624D01*
X139108505Y-111613681D01*
X139136705Y-111613958D01*
X139159012Y-111614608D01*
X139176387Y-111615786D01*
X139189790Y-111617647D01*
X139200181Y-111620345D01*
X139208519Y-111624035D01*
X139215766Y-111628871D01*
X139222881Y-111635009D01*
X139226296Y-111638237D01*
X139242780Y-111658729D01*
X139255670Y-111685313D01*
X139265071Y-111718294D01*
X139271086Y-111757975D01*
X139272362Y-111772813D01*
X139274955Y-111808948D01*
X139411106Y-111808948D01*
X139547256Y-111808948D01*
X139547256Y-111708857D01*
X139546911Y-111664295D01*
X139545789Y-111626290D01*
X139543763Y-111593614D01*
X139540707Y-111565039D01*
X139536494Y-111539337D01*
X139530996Y-111515278D01*
X139525115Y-111494875D01*
X139506535Y-111446310D01*
X139496441Y-111428009D01*
X139832430Y-111428009D01*
X139832430Y-111594009D01*
X140003339Y-111595027D01*
X140174248Y-111596044D01*
X140175235Y-112323628D01*
X140176222Y-113051212D01*
X140303162Y-113051212D01*
X140430103Y-113051212D01*
X141105946Y-113051212D01*
X141574725Y-113051212D01*
X142043504Y-113051212D01*
X142043504Y-112885186D01*
X142043504Y-112719160D01*
X141705592Y-112719160D01*
X141367681Y-112719160D01*
X141367681Y-111992553D01*
X141367681Y-111265946D01*
X141239409Y-111265946D01*
X141111137Y-111265946D01*
X141108544Y-111550143D01*
X141108237Y-111588089D01*
X141107940Y-111633123D01*
X141107656Y-111684521D01*
X141107386Y-111741558D01*
X141107133Y-111803509D01*
X141106898Y-111869650D01*
X141106685Y-111939255D01*
X141106494Y-112011601D01*
X141106328Y-112085963D01*
X141106190Y-112161615D01*
X141106081Y-112237834D01*
X141106003Y-112313894D01*
X141105959Y-112389071D01*
X141105949Y-112442776D01*
X141105946Y-113051212D01*
X140430103Y-113051212D01*
X140431089Y-112323628D01*
X140432076Y-111596044D01*
X140603028Y-111595027D01*
X140773979Y-111594009D01*
X140772960Y-111429001D01*
X140771941Y-111263993D01*
X140302186Y-111263000D01*
X139832430Y-111262008D01*
X139832430Y-111428009D01*
X139496441Y-111428009D01*
X139483120Y-111403859D01*
X139454723Y-111367392D01*
X139421204Y-111336777D01*
X139382417Y-111311882D01*
X139338219Y-111292576D01*
X139289428Y-111278932D01*
X139280672Y-111277208D01*
X139271411Y-111275781D01*
X139260839Y-111274626D01*
X139248145Y-111273714D01*
X139232521Y-111273017D01*
X139213157Y-111272509D01*
X139189247Y-111272161D01*
X139159979Y-111271947D01*
X139124546Y-111271837D01*
X139082139Y-111271806D01*
X139080431Y-111271806D01*
X139036646Y-111271830D01*
X138999820Y-111271947D01*
X138969100Y-111272217D01*
X138943632Y-111272706D01*
X138922563Y-111273476D01*
X138905039Y-111274590D01*
X138890205Y-111276113D01*
X138877210Y-111278105D01*
X138865199Y-111280632D01*
X138853318Y-111283757D01*
X138840714Y-111287542D01*
X138832369Y-111290182D01*
X138787859Y-111307963D01*
X138748504Y-111331295D01*
X138714209Y-111360301D01*
X138684881Y-111395106D01*
X138660423Y-111435831D01*
X138640742Y-111482603D01*
X138625743Y-111535543D01*
X138619223Y-111568699D01*
X138616894Y-111586957D01*
X138614861Y-111611491D01*
X138613156Y-111640770D01*
X138611812Y-111673259D01*
X138610862Y-111707428D01*
X138610338Y-111741743D01*
X138610272Y-111774673D01*
X138610696Y-111804685D01*
X138611643Y-111830246D01*
X138613146Y-111849825D01*
X138613255Y-111850780D01*
X138622954Y-111905409D01*
X138639084Y-111957052D01*
X138661960Y-112006344D01*
X138691893Y-112053917D01*
X138729199Y-112100404D01*
X138746043Y-112118614D01*
X138775607Y-112148017D01*
X138806188Y-112175417D01*
X138839065Y-112201793D01*
X138875520Y-112228124D01*
X138916835Y-112255388D01*
X138959330Y-112281594D01*
X139014712Y-112315860D01*
X139065594Y-112349348D01*
X139111608Y-112381761D01*
X139152383Y-112412797D01*
X139187549Y-112442160D01*
X139216739Y-112469549D01*
X139239582Y-112494665D01*
X139255708Y-112517210D01*
X139259886Y-112524815D01*
X139263653Y-112532791D01*
X139266333Y-112540185D01*
X139268106Y-112548515D01*
X139269156Y-112559303D01*
X139269665Y-112574069D01*
X139269814Y-112594334D01*
X139269810Y-112607616D01*
X139269259Y-112638736D01*
X139267392Y-112663151D01*
X139263740Y-112681921D01*
X139257837Y-112696109D01*
X139249216Y-112706774D01*
X139237410Y-112714979D01*
X139221952Y-112721784D01*
X139219111Y-112722813D01*
X139210676Y-112724428D01*
X139195694Y-112725899D01*
X139175430Y-112727202D01*
X139151149Y-112728317D01*
X139124116Y-112729219D01*
X139095596Y-112729887D01*
X139066853Y-112730299D01*
X139039154Y-112730431D01*
X139013762Y-112730262D01*
X138991943Y-112729770D01*
X138974962Y-112728931D01*
X138964084Y-112727724D01*
X138962437Y-112727354D01*
X138941133Y-112717558D01*
X138923259Y-112700823D01*
X138908868Y-112677257D01*
X138898014Y-112646967D01*
X138890751Y-112610060D01*
X138887633Y-112577116D01*
X138885106Y-112533602D01*
X138747402Y-112532575D01*
X138609699Y-112531549D01*
X138290976Y-112531549D01*
X138291087Y-112493092D01*
X138291180Y-112443997D01*
X138291245Y-112388845D01*
X138291287Y-112327236D01*
X138291310Y-112258767D01*
X138291319Y-112183037D01*
X138291320Y-112152719D01*
X138291315Y-112074259D01*
X138291299Y-112003215D01*
X138291266Y-111939190D01*
X138291213Y-111881790D01*
X138291133Y-111830616D01*
X138291024Y-111785272D01*
X138290880Y-111745363D01*
X138290696Y-111710490D01*
X138290469Y-111680259D01*
X138290193Y-111654271D01*
X138289864Y-111632132D01*
X138289478Y-111613444D01*
X138289029Y-111597810D01*
X138288513Y-111584835D01*
X138287927Y-111574122D01*
X138287264Y-111565273D01*
X138286521Y-111557894D01*
X138285692Y-111551586D01*
X138284775Y-111545954D01*
X138284288Y-111543307D01*
X138277665Y-111510886D01*
X138270854Y-111483366D01*
X138263079Y-111457857D01*
X138255633Y-111436935D01*
X138245774Y-111410647D01*
X138273430Y-111337089D01*
X138281841Y-111314590D01*
X138289222Y-111294600D01*
X138295158Y-111278265D01*
X138299234Y-111266728D01*
X138300753Y-111262008D01*
X138301035Y-111261132D01*
X138301086Y-111260832D01*
X138297336Y-111260166D01*
X138286715Y-111259559D01*
X138270162Y-111259033D01*
X138248620Y-111258609D01*
X138223029Y-111258308D01*
X138194329Y-111258151D01*
X138180409Y-111258133D01*
X138059732Y-111258133D01*
X138053896Y-111272782D01*
X138051506Y-111279017D01*
X138046646Y-111291888D01*
X138039574Y-111310713D01*
X138030545Y-111334805D01*
X138019816Y-111363480D01*
X138007643Y-111396053D01*
X137994282Y-111431840D01*
X137979989Y-111470155D01*
X137965101Y-111510102D01*
X137949198Y-111552760D01*
X137933230Y-111595543D01*
X137917559Y-111637484D01*
X137902549Y-111677613D01*
X137888561Y-111714962D01*
X137875959Y-111748563D01*
X137865105Y-111777448D01*
X137856361Y-111800648D01*
X137851740Y-111812855D01*
X137844999Y-111830630D01*
X137835826Y-111854841D01*
X137824551Y-111884616D01*
X137811505Y-111919083D01*
X137797018Y-111957368D01*
X137781420Y-111998600D01*
X137765041Y-112041907D01*
X137748210Y-112086415D01*
X137731259Y-112131252D01*
X137726836Y-112142953D01*
X137710785Y-112185415D01*
X137695439Y-112226001D01*
X137681041Y-112264078D01*
X137667829Y-112299009D01*
X137656044Y-112330159D01*
X137645927Y-112356892D01*
X137637718Y-112378574D01*
X137631657Y-112394569D01*
X137627985Y-112404242D01*
X137627069Y-112406641D01*
X137626180Y-112408039D01*
X137625399Y-112407050D01*
X137624720Y-112403264D01*
X137624138Y-112396268D01*
X137623649Y-112385651D01*
X137623246Y-112371000D01*
X137622925Y-112351905D01*
X137622681Y-112327954D01*
X137622508Y-112298734D01*
X137622402Y-112263835D01*
X137622356Y-112222844D01*
X137622366Y-112175349D01*
X137622427Y-112120940D01*
X137622534Y-112059203D01*
X137622558Y-112047244D01*
X137623310Y-111674174D01*
X137632309Y-111654642D01*
X137646356Y-111630952D01*
X137664311Y-111613257D01*
X137678001Y-111604680D01*
X137685320Y-111601373D01*
X137693801Y-111598933D01*
X137704927Y-111597156D01*
X137720180Y-111595840D01*
X137741042Y-111594779D01*
X137753657Y-111594295D01*
X137813688Y-111592138D01*
X137871619Y-111436685D01*
X137884017Y-111403390D01*
X137895624Y-111372168D01*
X137906142Y-111343823D01*
X137915274Y-111319158D01*
X137922723Y-111298978D01*
X137928192Y-111284084D01*
X137931383Y-111275282D01*
X137932049Y-111273361D01*
X137932511Y-111271467D01*
X137932134Y-111269911D01*
X137930241Y-111268665D01*
X137926159Y-111267703D01*
X137919213Y-111267000D01*
X137908726Y-111266527D01*
X137894025Y-111266259D01*
X137874435Y-111266169D01*
X137849280Y-111266231D01*
X137817886Y-111266419D01*
X137779577Y-111266705D01*
X137765256Y-111266817D01*
X137724380Y-111267149D01*
X137690516Y-111267473D01*
X137662866Y-111267831D01*
X137640627Y-111268266D01*
X137623002Y-111268820D01*
X137609188Y-111269537D01*
X137598387Y-111270457D01*
X137589798Y-111271625D01*
X137582620Y-111273081D01*
X137576055Y-111274870D01*
X137569302Y-111277033D01*
X137568619Y-111277260D01*
X137527179Y-111294049D01*
X137490974Y-111315240D01*
X137459722Y-111341223D01*
X137433140Y-111372384D01*
X137410944Y-111409114D01*
X137392851Y-111451801D01*
X137378579Y-111500833D01*
X137368555Y-111552039D01*
X137367587Y-111558543D01*
X137366713Y-111565515D01*
X137365927Y-111573362D01*
X137365225Y-111582490D01*
X137364602Y-111593305D01*
X137364054Y-111606211D01*
X137363575Y-111621617D01*
X137363162Y-111639926D01*
X137362809Y-111661546D01*
X137362512Y-111686882D01*
X137362266Y-111716340D01*
X137362067Y-111750325D01*
X137361909Y-111789245D01*
X137361788Y-111833505D01*
X137361699Y-111883511D01*
X137361639Y-111939668D01*
X137361601Y-112002383D01*
X137361581Y-112072061D01*
X137361575Y-112149109D01*
X136805306Y-112149109D01*
X136801988Y-112138483D01*
X136793882Y-112112502D01*
X136787663Y-112092539D01*
X136783476Y-112079056D01*
X136781463Y-112072512D01*
X136781374Y-112072212D01*
X136780666Y-112069595D01*
X136780212Y-112066802D01*
X136780158Y-112063409D01*
X136780652Y-112058995D01*
X136781841Y-112053139D01*
X136783872Y-112045418D01*
X136786894Y-112035411D01*
X136791051Y-112022695D01*
X136796493Y-112006849D01*
X136803367Y-111987451D01*
X136811818Y-111964079D01*
X136821996Y-111936311D01*
X136834046Y-111903725D01*
X136848117Y-111865900D01*
X136864355Y-111822413D01*
X136882907Y-111772843D01*
X136903922Y-111716768D01*
X136925548Y-111659091D01*
X136945518Y-111605820D01*
X136964702Y-111554612D01*
X136982922Y-111505943D01*
X137000002Y-111460283D01*
X137015766Y-111418107D01*
X137030037Y-111379888D01*
X137042640Y-111346097D01*
X137053396Y-111317209D01*
X137062130Y-111293696D01*
X137068666Y-111276032D01*
X137072826Y-111264689D01*
X137074434Y-111260140D01*
X137074448Y-111260077D01*
X137070696Y-111259603D01*
X137060059Y-111259171D01*
X137043465Y-111258796D01*
X137021840Y-111258491D01*
X136996114Y-111258271D01*
X136967214Y-111258151D01*
X136950299Y-111258133D01*
X136826150Y-111258133D01*
X136740325Y-111489042D01*
X136725214Y-111529619D01*
X136710829Y-111568097D01*
X136697412Y-111603836D01*
X136685205Y-111636201D01*
X136674449Y-111664553D01*
X136665388Y-111688254D01*
X136658262Y-111706668D01*
X136653315Y-111719156D01*
X136650787Y-111725082D01*
X136650594Y-111725423D01*
X136648879Y-111724646D01*
X136645620Y-111719299D01*
X136640667Y-111709024D01*
X136633871Y-111693461D01*
X136625081Y-111672251D01*
X136614149Y-111645038D01*
X136600926Y-111611462D01*
X136585261Y-111571164D01*
X136572646Y-111538462D01*
X136557834Y-111499978D01*
X136543340Y-111462339D01*
X136529507Y-111426438D01*
X136516679Y-111393167D01*
X136505201Y-111363418D01*
X136495418Y-111338086D01*
X136487673Y-111318060D01*
X136482310Y-111304235D01*
X136481471Y-111302081D01*
X136464338Y-111258133D01*
X136347655Y-111258133D01*
X136230972Y-111258133D01*
X136342563Y-111589208D01*
X136359850Y-111640506D01*
X136377001Y-111691418D01*
X136393772Y-111741217D01*
X136409918Y-111789177D01*
X136425195Y-111834571D01*
X136439359Y-111876674D01*
X136452164Y-111914758D01*
X136463367Y-111948097D01*
X136472723Y-111975965D01*
X136479988Y-111997635D01*
X136483515Y-112008179D01*
X136512877Y-112096075D01*
X136343981Y-112543368D01*
X136322385Y-112600567D01*
X136301407Y-112656138D01*
X136281231Y-112709596D01*
X136262038Y-112760459D01*
X136244011Y-112808243D01*
X136227331Y-112852466D01*
X136212181Y-112892645D01*
X136198743Y-112928296D01*
X136187199Y-112958936D01*
X136177732Y-112984082D01*
X136170523Y-113003251D01*
X136165754Y-113015961D01*
X136163879Y-113020991D01*
X136152673Y-113051320D01*
X134405960Y-113051320D01*
X134450171Y-112981384D01*
X134504290Y-112881845D01*
X134550908Y-112780207D01*
X134590041Y-112676411D01*
X134621706Y-112570394D01*
X134645921Y-112462098D01*
X134662702Y-112351460D01*
X134672066Y-112238421D01*
X134673390Y-112160532D01*
X135046979Y-112160532D01*
X135046979Y-113051212D01*
X135191499Y-113051212D01*
X135336019Y-113051212D01*
X135337016Y-112691655D01*
X135338013Y-112332099D01*
X135506563Y-112690679D01*
X135675114Y-113049259D01*
X135824225Y-113050282D01*
X135857397Y-113050434D01*
X135887908Y-113050427D01*
X135914926Y-113050274D01*
X135937617Y-113049984D01*
X135955150Y-113049570D01*
X135966693Y-113049043D01*
X135971412Y-113048413D01*
X135971469Y-113048284D01*
X135969437Y-113043952D01*
X135964546Y-113033013D01*
X135957024Y-113015986D01*
X135947095Y-112993391D01*
X135934985Y-112965748D01*
X135920920Y-112933576D01*
X135905125Y-112897395D01*
X135887827Y-112857725D01*
X135869250Y-112815086D01*
X135849621Y-112769997D01*
X135829166Y-112722978D01*
X135808109Y-112674548D01*
X135786678Y-112625228D01*
X135765096Y-112575537D01*
X135743591Y-112525996D01*
X135722387Y-112477122D01*
X135701711Y-112429437D01*
X135681788Y-112383460D01*
X135662844Y-112339711D01*
X135645105Y-112298709D01*
X135628795Y-112260975D01*
X135614142Y-112227027D01*
X135601370Y-112197386D01*
X135590706Y-112172572D01*
X135582374Y-112153103D01*
X135576601Y-112139500D01*
X135573613Y-112132283D01*
X135573233Y-112131234D01*
X135574844Y-112127258D01*
X135579554Y-112116641D01*
X135587161Y-112099822D01*
X135597462Y-112077241D01*
X135610255Y-112049337D01*
X135625337Y-112016551D01*
X135642505Y-111979321D01*
X135661557Y-111938087D01*
X135682290Y-111893290D01*
X135704501Y-111845367D01*
X135727988Y-111794760D01*
X135752548Y-111741907D01*
X135769518Y-111705426D01*
X135794722Y-111651245D01*
X135819019Y-111598972D01*
X135842204Y-111549050D01*
X135864072Y-111501924D01*
X135884417Y-111458037D01*
X135903034Y-111417833D01*
X135919718Y-111381755D01*
X135934264Y-111350248D01*
X135946466Y-111323755D01*
X135956119Y-111302720D01*
X135963019Y-111287586D01*
X135966958Y-111278798D01*
X135967838Y-111276689D01*
X135967961Y-111274918D01*
X135966716Y-111273482D01*
X135963376Y-111272345D01*
X135957217Y-111271473D01*
X135947514Y-111270830D01*
X135933540Y-111270384D01*
X135914570Y-111270097D01*
X135889880Y-111269936D01*
X135858744Y-111269866D01*
X135825255Y-111269852D01*
X135680687Y-111269852D01*
X135509499Y-111594091D01*
X135484820Y-111640787D01*
X135461156Y-111685469D01*
X135438763Y-111727659D01*
X135417898Y-111766878D01*
X135398816Y-111802650D01*
X135381773Y-111834495D01*
X135367024Y-111861937D01*
X135354827Y-111884498D01*
X135345436Y-111901699D01*
X135339107Y-111913062D01*
X135336097Y-111918111D01*
X135335892Y-111918330D01*
X135335543Y-111914519D01*
X135335253Y-111903470D01*
X135335021Y-111885756D01*
X135334850Y-111861951D01*
X135334740Y-111832630D01*
X135334692Y-111798366D01*
X135334708Y-111759733D01*
X135334787Y-111717307D01*
X135334933Y-111671660D01*
X135335144Y-111623366D01*
X135335299Y-111594091D01*
X135337126Y-111269852D01*
X135192053Y-111269852D01*
X135046979Y-111269852D01*
X135046979Y-112160532D01*
X134673390Y-112160532D01*
X134674030Y-112122919D01*
X134668611Y-112004894D01*
X134655826Y-111884284D01*
X134646296Y-111820668D01*
X134623606Y-111706390D01*
X134593544Y-111594326D01*
X134556260Y-111484835D01*
X134511907Y-111378274D01*
X134460638Y-111275002D01*
X134457638Y-111269852D01*
X134402606Y-111175376D01*
X134337962Y-111079755D01*
X134321110Y-111056949D01*
X134273785Y-110997169D01*
X134221128Y-110936311D01*
X134165001Y-110876349D01*
X134107262Y-110819262D01*
X134049773Y-110767026D01*
X134042035Y-110760370D01*
X134025496Y-110745953D01*
X134011280Y-110733003D01*
X134000374Y-110722465D01*
X133993768Y-110715284D01*
X133992227Y-110712704D01*
X133994708Y-110709407D01*
X134002176Y-110701231D01*
X134014673Y-110688135D01*
X134032240Y-110670079D01*
X134054917Y-110647021D01*
X134082745Y-110618922D01*
X134115764Y-110585741D01*
X134154016Y-110547436D01*
X134197541Y-110503967D01*
X134246379Y-110455293D01*
X134300572Y-110401374D01*
X134360160Y-110342169D01*
X134425184Y-110277636D01*
X134495685Y-110207736D01*
X134571703Y-110132428D01*
X134612580Y-110091954D01*
X134645084Y-110059890D01*
X134672536Y-110033094D01*
X134695333Y-110011236D01*
X134713869Y-109993983D01*
X134728542Y-109981004D01*
X134739748Y-109971968D01*
X134747882Y-109966543D01*
X134753340Y-109964398D01*
X134756520Y-109965201D01*
X134757817Y-109968621D01*
X134757899Y-109970339D01*
X134761128Y-109974435D01*
X134770357Y-109982121D01*
X134784899Y-109992943D01*
X134804070Y-110006450D01*
X134827182Y-110022188D01*
X134853549Y-110039705D01*
X134882487Y-110058547D01*
X134913307Y-110078263D01*
X134945325Y-110098399D01*
X134977855Y-110118503D01*
X135010209Y-110138122D01*
X135030490Y-110150205D01*
X135161158Y-110224034D01*
X135292949Y-110291740D01*
X135425278Y-110353077D01*
X135557559Y-110407795D01*
X135689208Y-110455647D01*
X135819639Y-110496384D01*
X135896830Y-110517248D01*
X135941659Y-110528312D01*
X135985975Y-110538620D01*
X136028851Y-110547995D01*
X136069358Y-110556259D01*
X136106570Y-110563235D01*
X136139561Y-110568746D01*
X136167402Y-110572615D01*
X136189167Y-110574664D01*
X136198418Y-110574949D01*
X136212160Y-110575295D01*
X136222226Y-110576347D01*
X136226675Y-110577888D01*
X136226740Y-110578111D01*
X136229856Y-110580793D01*
X136239424Y-110583088D01*
X136255772Y-110585035D01*
X136279231Y-110586672D01*
X136310128Y-110588035D01*
X136314622Y-110588192D01*
X136334376Y-110589059D01*
X136351097Y-110590169D01*
X136363354Y-110591398D01*
X136369715Y-110592622D01*
X136370280Y-110593013D01*
X136374360Y-110594310D01*
X136384168Y-110594923D01*
X136397642Y-110594730D01*
X136398615Y-110594686D01*
X136412080Y-110594471D01*
X136421844Y-110595124D01*
X136425939Y-110596503D01*
X136425962Y-110596639D01*
X136429592Y-110597864D01*
X136439416Y-110598638D01*
X136453822Y-110598883D01*
X136466980Y-110598661D01*
X136483813Y-110598439D01*
X136497300Y-110598798D01*
X136505831Y-110599660D01*
X136508008Y-110600615D01*
X136511722Y-110601570D01*
X136522094Y-110602411D01*
X136537969Y-110603091D01*
X136558190Y-110603565D01*
X136581605Y-110603785D01*
X136588092Y-110603796D01*
X136612149Y-110603648D01*
X136633314Y-110603236D01*
X136650433Y-110602606D01*
X136662351Y-110601802D01*
X136667912Y-110600872D01*
X136668174Y-110600615D01*
X136671807Y-110599418D01*
X136681634Y-110598667D01*
X136696042Y-110598436D01*
X136709199Y-110598661D01*
X136726032Y-110598958D01*
X136739518Y-110598800D01*
X136748045Y-110598233D01*
X136750218Y-110597547D01*
X136753857Y-110596398D01*
X136763744Y-110595050D01*
X136778322Y-110593679D01*
X136794157Y-110592573D01*
X136881190Y-110585305D01*
X136973053Y-110573772D01*
X137068240Y-110558281D01*
X137165242Y-110539134D01*
X137262551Y-110516636D01*
X137358659Y-110491091D01*
X137452059Y-110462803D01*
X137474863Y-110455320D01*
X137600409Y-110409923D01*
X137726668Y-110357351D01*
X137852762Y-110298076D01*
X137977813Y-110232571D01*
X138100941Y-110161310D01*
X138221268Y-110084765D01*
X138337914Y-110003410D01*
X138398259Y-109958262D01*
X138413340Y-109947309D01*
X138425887Y-109939372D01*
X138434575Y-109935244D01*
X138437324Y-109934906D01*
X138442074Y-109937651D01*
G37*
D15*
X128160000Y-105410000D02*
X128160000Y-136000000D01*
X128160000Y-105410000D02*
X130920000Y-105410000D01*
X128160000Y-136000000D02*
X130920000Y-136000000D01*
X130920000Y-105410000D02*
X130920000Y-136000000D01*
X145940000Y-105410000D02*
X145940000Y-136000000D01*
X145940000Y-105410000D02*
X148700000Y-105410000D01*
X145940000Y-136000000D02*
X148700000Y-136000000D01*
X148700000Y-105410000D02*
X148700000Y-136000000D01*
%LPC*%
D16*
X137679999Y-117128771D03*
D17*
X136505000Y-117803771D03*
X136505000Y-118303770D03*
X136505000Y-118803769D03*
X136505000Y-119303770D03*
X136505000Y-119803770D03*
X136505000Y-120303771D03*
X136505000Y-120803770D03*
X136505000Y-121303769D03*
D16*
X137679999Y-121978769D03*
X139180001Y-121978769D03*
D17*
X140355000Y-121303769D03*
X140355000Y-120803770D03*
X140355000Y-120303771D03*
X140355000Y-119803770D03*
X140355000Y-119303770D03*
X140355000Y-118803769D03*
X140355000Y-118303770D03*
X140355000Y-117803771D03*
D16*
X139180001Y-117128771D03*
D18*
X138430000Y-119553770D03*
D19*
X138036300Y-118766370D03*
X138036300Y-119553770D03*
X138036300Y-120341170D03*
X138823700Y-118766370D03*
X138823700Y-119553770D03*
X138823700Y-120341170D03*
D20*
X129540000Y-106680000D03*
D21*
X129540000Y-109220000D03*
D20*
X129540000Y-111760000D03*
X129540000Y-114300000D03*
X129540000Y-116840000D03*
X129540000Y-119380000D03*
X129540000Y-121920000D03*
X129540000Y-124460000D03*
X129540000Y-127000000D03*
X129540000Y-129540000D03*
X129540000Y-132080000D03*
X129540000Y-134620000D03*
X147320000Y-106680000D03*
X147320000Y-109220000D03*
X147320000Y-111760000D03*
X147320000Y-114300000D03*
X147320000Y-116840000D03*
X147320000Y-119380000D03*
X147320000Y-121920000D03*
X147320000Y-124460000D03*
X147320000Y-127000000D03*
X147320000Y-129540000D03*
X147320000Y-132080000D03*
X147320000Y-134620000D03*
%LPD*%
M02*
