%TF.GenerationSoftware,KiCad,Pcbnew,9.0.6*%
%TF.CreationDate,2026-01-08T16:00:19-06:00*%
%TF.ProjectId,QFN-28_6x6_P0.65,51464e2d-3238-45f3-9678-365f50302e36,rev?*%
%TF.SameCoordinates,Original*%
%TF.FileFunction,Drillmap*%
%TF.FilePolarity,Positive*%
%FSLAX45Y45*%
G04 Gerber Fmt 4.5, Leading zero omitted, Abs format (unit mm)*
G04 Created by KiCad (PCBNEW 9.0.6) date 2026-01-08 16:00:19*
%MOMM*%
%LPD*%
G01*
G04 APERTURE LIST*
%ADD10C,0.050000*%
%ADD11C,0.200000*%
G04 APERTURE END LIST*
D10*
X10388600Y-9061623D02*
X12928600Y-9061623D01*
X12928600Y-13151023D01*
X10388600Y-13151023D01*
X10388600Y-9061623D01*
D11*
X10646877Y-13465007D02*
X10646877Y-13265007D01*
X10646877Y-13265007D02*
X10694496Y-13265007D01*
X10694496Y-13265007D02*
X10723067Y-13274531D01*
X10723067Y-13274531D02*
X10742115Y-13293578D01*
X10742115Y-13293578D02*
X10751639Y-13312626D01*
X10751639Y-13312626D02*
X10761163Y-13350721D01*
X10761163Y-13350721D02*
X10761163Y-13379292D01*
X10761163Y-13379292D02*
X10751639Y-13417388D01*
X10751639Y-13417388D02*
X10742115Y-13436435D01*
X10742115Y-13436435D02*
X10723067Y-13455483D01*
X10723067Y-13455483D02*
X10694496Y-13465007D01*
X10694496Y-13465007D02*
X10646877Y-13465007D01*
X10846877Y-13465007D02*
X10846877Y-13331673D01*
X10846877Y-13369769D02*
X10856401Y-13350721D01*
X10856401Y-13350721D02*
X10865924Y-13341197D01*
X10865924Y-13341197D02*
X10884972Y-13331673D01*
X10884972Y-13331673D02*
X10904020Y-13331673D01*
X10970686Y-13465007D02*
X10970686Y-13331673D01*
X10970686Y-13265007D02*
X10961163Y-13274531D01*
X10961163Y-13274531D02*
X10970686Y-13284054D01*
X10970686Y-13284054D02*
X10980210Y-13274531D01*
X10980210Y-13274531D02*
X10970686Y-13265007D01*
X10970686Y-13265007D02*
X10970686Y-13284054D01*
X11094496Y-13465007D02*
X11075448Y-13455483D01*
X11075448Y-13455483D02*
X11065924Y-13436435D01*
X11065924Y-13436435D02*
X11065924Y-13265007D01*
X11199258Y-13465007D02*
X11180210Y-13455483D01*
X11180210Y-13455483D02*
X11170686Y-13436435D01*
X11170686Y-13436435D02*
X11170686Y-13265007D01*
X11427829Y-13465007D02*
X11427829Y-13265007D01*
X11427829Y-13265007D02*
X11494496Y-13407864D01*
X11494496Y-13407864D02*
X11561162Y-13265007D01*
X11561162Y-13265007D02*
X11561162Y-13465007D01*
X11742115Y-13465007D02*
X11742115Y-13360245D01*
X11742115Y-13360245D02*
X11732591Y-13341197D01*
X11732591Y-13341197D02*
X11713543Y-13331673D01*
X11713543Y-13331673D02*
X11675448Y-13331673D01*
X11675448Y-13331673D02*
X11656401Y-13341197D01*
X11742115Y-13455483D02*
X11723067Y-13465007D01*
X11723067Y-13465007D02*
X11675448Y-13465007D01*
X11675448Y-13465007D02*
X11656401Y-13455483D01*
X11656401Y-13455483D02*
X11646877Y-13436435D01*
X11646877Y-13436435D02*
X11646877Y-13417388D01*
X11646877Y-13417388D02*
X11656401Y-13398340D01*
X11656401Y-13398340D02*
X11675448Y-13388816D01*
X11675448Y-13388816D02*
X11723067Y-13388816D01*
X11723067Y-13388816D02*
X11742115Y-13379292D01*
X11837353Y-13331673D02*
X11837353Y-13531673D01*
X11837353Y-13341197D02*
X11856401Y-13331673D01*
X11856401Y-13331673D02*
X11894496Y-13331673D01*
X11894496Y-13331673D02*
X11913543Y-13341197D01*
X11913543Y-13341197D02*
X11923067Y-13350721D01*
X11923067Y-13350721D02*
X11932591Y-13369769D01*
X11932591Y-13369769D02*
X11932591Y-13426911D01*
X11932591Y-13426911D02*
X11923067Y-13445959D01*
X11923067Y-13445959D02*
X11913543Y-13455483D01*
X11913543Y-13455483D02*
X11894496Y-13465007D01*
X11894496Y-13465007D02*
X11856401Y-13465007D01*
X11856401Y-13465007D02*
X11837353Y-13455483D01*
X12018305Y-13445959D02*
X12027829Y-13455483D01*
X12027829Y-13455483D02*
X12018305Y-13465007D01*
X12018305Y-13465007D02*
X12008782Y-13455483D01*
X12008782Y-13455483D02*
X12018305Y-13445959D01*
X12018305Y-13445959D02*
X12018305Y-13465007D01*
X12018305Y-13341197D02*
X12027829Y-13350721D01*
X12027829Y-13350721D02*
X12018305Y-13360245D01*
X12018305Y-13360245D02*
X12008782Y-13350721D01*
X12008782Y-13350721D02*
X12018305Y-13341197D01*
X12018305Y-13341197D02*
X12018305Y-13360245D01*
M02*
