G04 #@! TF.GenerationSoftware,KiCad,Pcbnew,9.0.6*
G04 #@! TF.CreationDate,2026-01-08T16:00:18-06:00*
G04 #@! TF.ProjectId,QFN-28_6x6_P0.65,51464e2d-3238-45f3-9678-365f50302e36,rev?*
G04 #@! TF.SameCoordinates,Original*
G04 #@! TF.FileFunction,Legend,Top*
G04 #@! TF.FilePolarity,Positive*
%FSLAX46Y46*%
G04 Gerber Fmt 4.6, Leading zero omitted, Abs format (unit mm)*
G04 Created by KiCad (PCBNEW 9.0.6) date 2026-01-08 16:00:18*
%MOMM*%
%LPD*%
G01*
G04 APERTURE LIST*
G04 Aperture macros list*
%AMRoundRect*
0 Rectangle with rounded corners*
0 $1 Rounding radius*
0 $2 $3 $4 $5 $6 $7 $8 $9 X,Y pos of 4 corners*
0 Add a 4 corners polygon primitive as box body*
4,1,4,$2,$3,$4,$5,$6,$7,$8,$9,$2,$3,0*
0 Add four circle primitives for the rounded corners*
1,1,$1+$1,$2,$3*
1,1,$1+$1,$4,$5*
1,1,$1+$1,$6,$7*
1,1,$1+$1,$8,$9*
0 Add four rect primitives between the rounded corners*
20,1,$1+$1,$2,$3,$4,$5,0*
20,1,$1+$1,$4,$5,$6,$7,0*
20,1,$1+$1,$6,$7,$8,$9,0*
20,1,$1+$1,$8,$9,$2,$3,0*%
%AMRotRect*
0 Rectangle, with rotation*
0 The origin of the aperture is its center*
0 $1 length*
0 $2 width*
0 $3 Rotation angle, in degrees counterclockwise*
0 Add horizontal line*
21,1,$1,$2,0,0,$3*%
G04 Aperture macros list end*
%ADD10C,0.100000*%
%ADD11C,0.200000*%
%ADD12C,0.300000*%
%ADD13C,0.000000*%
%ADD14C,0.120000*%
%ADD15C,1.700000*%
%ADD16R,1.700000X1.700000*%
%ADD17RotRect,4.250000X4.250000X315.000000*%
%ADD18RoundRect,0.075000X-0.494975X-0.388909X-0.388909X-0.494975X0.494975X0.388909X0.388909X0.494975X0*%
%ADD19RoundRect,0.075000X-0.494975X0.388909X0.388909X-0.494975X0.494975X-0.388909X-0.388909X0.494975X0*%
G04 APERTURE END LIST*
D10*
X106620164Y-112303238D02*
X126686164Y-112303238D01*
X126686164Y-116527698D01*
X106620164Y-116527698D01*
X106620164Y-112303238D01*
G36*
X106620164Y-112303238D02*
G01*
X126686164Y-112303238D01*
X126686164Y-116527698D01*
X106620164Y-116527698D01*
X106620164Y-112303238D01*
G37*
D11*
X124773136Y-94035457D02*
X124820755Y-93987838D01*
X124820755Y-93987838D02*
X124915993Y-93940219D01*
X124915993Y-93940219D02*
X125154088Y-93940219D01*
X125154088Y-93940219D02*
X125249326Y-93987838D01*
X125249326Y-93987838D02*
X125296945Y-94035457D01*
X125296945Y-94035457D02*
X125344564Y-94130695D01*
X125344564Y-94130695D02*
X125344564Y-94225933D01*
X125344564Y-94225933D02*
X125296945Y-94368790D01*
X125296945Y-94368790D02*
X124725517Y-94940219D01*
X124725517Y-94940219D02*
X125344564Y-94940219D01*
X125915993Y-94368790D02*
X125820755Y-94321171D01*
X125820755Y-94321171D02*
X125773136Y-94273552D01*
X125773136Y-94273552D02*
X125725517Y-94178314D01*
X125725517Y-94178314D02*
X125725517Y-94130695D01*
X125725517Y-94130695D02*
X125773136Y-94035457D01*
X125773136Y-94035457D02*
X125820755Y-93987838D01*
X125820755Y-93987838D02*
X125915993Y-93940219D01*
X125915993Y-93940219D02*
X126106469Y-93940219D01*
X126106469Y-93940219D02*
X126201707Y-93987838D01*
X126201707Y-93987838D02*
X126249326Y-94035457D01*
X126249326Y-94035457D02*
X126296945Y-94130695D01*
X126296945Y-94130695D02*
X126296945Y-94178314D01*
X126296945Y-94178314D02*
X126249326Y-94273552D01*
X126249326Y-94273552D02*
X126201707Y-94321171D01*
X126201707Y-94321171D02*
X126106469Y-94368790D01*
X126106469Y-94368790D02*
X125915993Y-94368790D01*
X125915993Y-94368790D02*
X125820755Y-94416409D01*
X125820755Y-94416409D02*
X125773136Y-94464028D01*
X125773136Y-94464028D02*
X125725517Y-94559266D01*
X125725517Y-94559266D02*
X125725517Y-94749742D01*
X125725517Y-94749742D02*
X125773136Y-94844980D01*
X125773136Y-94844980D02*
X125820755Y-94892600D01*
X125820755Y-94892600D02*
X125915993Y-94940219D01*
X125915993Y-94940219D02*
X126106469Y-94940219D01*
X126106469Y-94940219D02*
X126201707Y-94892600D01*
X126201707Y-94892600D02*
X126249326Y-94844980D01*
X126249326Y-94844980D02*
X126296945Y-94749742D01*
X126296945Y-94749742D02*
X126296945Y-94559266D01*
X126296945Y-94559266D02*
X126249326Y-94464028D01*
X126249326Y-94464028D02*
X126201707Y-94416409D01*
X126201707Y-94416409D02*
X126106469Y-94368790D01*
X107446482Y-94940219D02*
X106875054Y-94940219D01*
X107160768Y-94940219D02*
X107160768Y-93940219D01*
X107160768Y-93940219D02*
X107065530Y-94083076D01*
X107065530Y-94083076D02*
X106970292Y-94178314D01*
X106970292Y-94178314D02*
X106875054Y-94225933D01*
D10*
X103759000Y-128714375D02*
X108839000Y-128714375D01*
X108839000Y-131381625D01*
X103759000Y-131381625D01*
X103759000Y-128714375D01*
G36*
X103759000Y-128714375D02*
G01*
X108839000Y-128714375D01*
X108839000Y-131381625D01*
X103759000Y-131381625D01*
X103759000Y-128714375D01*
G37*
X106553000Y-118029770D02*
X126619000Y-118029770D01*
X126619000Y-123270230D01*
X106553000Y-123270230D01*
X106553000Y-118029770D01*
G36*
X106553000Y-118029770D02*
G01*
X126619000Y-118029770D01*
X126619000Y-123270230D01*
X106553000Y-123270230D01*
X106553000Y-118029770D01*
G37*
X108542750Y-92875225D02*
X124341500Y-92875225D01*
X124341500Y-93281625D01*
X108542750Y-93281625D01*
X108542750Y-92875225D01*
G36*
X108542750Y-92875225D02*
G01*
X124341500Y-92875225D01*
X124341500Y-93281625D01*
X108542750Y-93281625D01*
X108542750Y-92875225D01*
G37*
X124197500Y-128714375D02*
X129396000Y-128714375D01*
X129396000Y-131381625D01*
X124197500Y-131381625D01*
X124197500Y-128714375D01*
G36*
X124197500Y-128714375D02*
G01*
X129396000Y-128714375D01*
X129396000Y-131381625D01*
X124197500Y-131381625D01*
X124197500Y-128714375D01*
G37*
X107958500Y-90614375D02*
X124900250Y-90614375D01*
X124900250Y-90842975D01*
X107958500Y-90842975D01*
X107958500Y-90614375D01*
G36*
X107958500Y-90614375D02*
G01*
X124900250Y-90614375D01*
X124900250Y-90842975D01*
X107958500Y-90842975D01*
X107958500Y-90614375D01*
G37*
X108576500Y-128714375D02*
X124629250Y-128714375D01*
X124629250Y-128942725D01*
X108576500Y-128942725D01*
X108576500Y-128714375D01*
G36*
X108576500Y-128714375D02*
G01*
X124629250Y-128714375D01*
X124629250Y-128942725D01*
X108576500Y-128942725D01*
X108576500Y-128714375D01*
G37*
X107636750Y-130975225D02*
X125340500Y-130975225D01*
X125340500Y-131381625D01*
X107636750Y-131381625D01*
X107636750Y-130975225D01*
G36*
X107636750Y-130975225D02*
G01*
X125340500Y-130975225D01*
X125340500Y-131381625D01*
X107636750Y-131381625D01*
X107636750Y-130975225D01*
G37*
X108518000Y-112291230D02*
X124625847Y-112291230D01*
X124625847Y-121740230D01*
X108518000Y-121740230D01*
X108518000Y-112291230D01*
G36*
X108518000Y-112291230D02*
G01*
X124625847Y-112291230D01*
X124625847Y-121740230D01*
X108518000Y-121740230D01*
X108518000Y-112291230D01*
G37*
X103776000Y-90614375D02*
X108856000Y-90614375D01*
X108856000Y-93281625D01*
X103776000Y-93281625D01*
X103776000Y-90614375D01*
G36*
X103776000Y-90614375D02*
G01*
X108856000Y-90614375D01*
X108856000Y-93281625D01*
X103776000Y-93281625D01*
X103776000Y-90614375D01*
G37*
X124227250Y-90614375D02*
X129413000Y-90614375D01*
X129413000Y-93281625D01*
X124227250Y-93281625D01*
X124227250Y-90614375D01*
G36*
X124227250Y-90614375D02*
G01*
X129413000Y-90614375D01*
X129413000Y-93281625D01*
X124227250Y-93281625D01*
X124227250Y-90614375D01*
G37*
D11*
G36*
X126245759Y-116904279D02*
G01*
X126270428Y-116928947D01*
X126300233Y-116988557D01*
X126300233Y-117179438D01*
X126270428Y-117239047D01*
X126245759Y-117263715D01*
X126186150Y-117293521D01*
X126042888Y-117293521D01*
X125983278Y-117263716D01*
X125958610Y-117239047D01*
X125928805Y-117179437D01*
X125928805Y-116988557D01*
X125958610Y-116928947D01*
X125983278Y-116904278D01*
X126042888Y-116874474D01*
X126186150Y-116874474D01*
X126245759Y-116904279D01*
G37*
G36*
X126611344Y-117985585D02*
G01*
X124666098Y-117985585D01*
X124666098Y-117047681D01*
X124777209Y-117047681D01*
X124779975Y-117086601D01*
X124797424Y-117121500D01*
X124826901Y-117147064D01*
X124863917Y-117159403D01*
X124902837Y-117156637D01*
X124921145Y-117149631D01*
X125016383Y-117102012D01*
X125024779Y-117096726D01*
X125027219Y-117095716D01*
X125029965Y-117093462D01*
X125032973Y-117091569D01*
X125034702Y-117089574D01*
X125042373Y-117083280D01*
X125062138Y-117063515D01*
X125062138Y-117674474D01*
X124876424Y-117674474D01*
X124856915Y-117676395D01*
X124820867Y-117691327D01*
X124793277Y-117718917D01*
X124778345Y-117754965D01*
X124778345Y-117793983D01*
X124793277Y-117830031D01*
X124820867Y-117857621D01*
X124856915Y-117872553D01*
X124876424Y-117874474D01*
X125447852Y-117874474D01*
X125467361Y-117872553D01*
X125503409Y-117857621D01*
X125530999Y-117830031D01*
X125545931Y-117793983D01*
X125545931Y-117754965D01*
X125530999Y-117718917D01*
X125503409Y-117691327D01*
X125467361Y-117676395D01*
X125447852Y-117674474D01*
X125262138Y-117674474D01*
X125262138Y-116964950D01*
X125728805Y-116964950D01*
X125728805Y-117203045D01*
X125730726Y-117222554D01*
X125732101Y-117225874D01*
X125732356Y-117229458D01*
X125739362Y-117247766D01*
X125786981Y-117343004D01*
X125792266Y-117351400D01*
X125793277Y-117353840D01*
X125795530Y-117356586D01*
X125797424Y-117359594D01*
X125799418Y-117361323D01*
X125805713Y-117368994D01*
X125853332Y-117416612D01*
X125860998Y-117422904D01*
X125862731Y-117424902D01*
X125865739Y-117426795D01*
X125868485Y-117429049D01*
X125870925Y-117430059D01*
X125879322Y-117435345D01*
X125974559Y-117482964D01*
X125992868Y-117489970D01*
X125996451Y-117490224D01*
X125999772Y-117491600D01*
X126019281Y-117493521D01*
X126209757Y-117493521D01*
X126229266Y-117491600D01*
X126232586Y-117490224D01*
X126236170Y-117489970D01*
X126254478Y-117482964D01*
X126264091Y-117478157D01*
X126259801Y-117495319D01*
X126179664Y-117615524D01*
X126150521Y-117644668D01*
X126090912Y-117674474D01*
X125924043Y-117674474D01*
X125904534Y-117676395D01*
X125868486Y-117691327D01*
X125840896Y-117718917D01*
X125825964Y-117754965D01*
X125825964Y-117793983D01*
X125840896Y-117830031D01*
X125868486Y-117857621D01*
X125904534Y-117872553D01*
X125924043Y-117874474D01*
X126114519Y-117874474D01*
X126134028Y-117872553D01*
X126137348Y-117871177D01*
X126140932Y-117870923D01*
X126159240Y-117863917D01*
X126254478Y-117816298D01*
X126262873Y-117811013D01*
X126265315Y-117810002D01*
X126268062Y-117807746D01*
X126271068Y-117805855D01*
X126272798Y-117803860D01*
X126280468Y-117797565D01*
X126328087Y-117749945D01*
X126328129Y-117749892D01*
X126328161Y-117749872D01*
X126334300Y-117742374D01*
X126340524Y-117734792D01*
X126340538Y-117734756D01*
X126340581Y-117734705D01*
X126435819Y-117591848D01*
X126441561Y-117581078D01*
X126443033Y-117579092D01*
X126443871Y-117576746D01*
X126445042Y-117574550D01*
X126445521Y-117572126D01*
X126449628Y-117560632D01*
X126497247Y-117370156D01*
X126497747Y-117366774D01*
X126498312Y-117365411D01*
X126499035Y-117358060D01*
X126500115Y-117350763D01*
X126499897Y-117349304D01*
X126500233Y-117345902D01*
X126500233Y-116964950D01*
X126498312Y-116945441D01*
X126496936Y-116942120D01*
X126496682Y-116938537D01*
X126489676Y-116920228D01*
X126442057Y-116824991D01*
X126436771Y-116816594D01*
X126435761Y-116814154D01*
X126433507Y-116811408D01*
X126431614Y-116808400D01*
X126429616Y-116806667D01*
X126423324Y-116799001D01*
X126375706Y-116751382D01*
X126368035Y-116745087D01*
X126366306Y-116743093D01*
X126363298Y-116741199D01*
X126360552Y-116738946D01*
X126358112Y-116737935D01*
X126349716Y-116732650D01*
X126254478Y-116685031D01*
X126236170Y-116678025D01*
X126232586Y-116677770D01*
X126229266Y-116676395D01*
X126209757Y-116674474D01*
X126019281Y-116674474D01*
X125999772Y-116676395D01*
X125996451Y-116677770D01*
X125992868Y-116678025D01*
X125974559Y-116685031D01*
X125879322Y-116732650D01*
X125870925Y-116737935D01*
X125868485Y-116738946D01*
X125865739Y-116741199D01*
X125862731Y-116743093D01*
X125860998Y-116745090D01*
X125853332Y-116751383D01*
X125805713Y-116799001D01*
X125799418Y-116806671D01*
X125797424Y-116808401D01*
X125795530Y-116811408D01*
X125793277Y-116814155D01*
X125792266Y-116816594D01*
X125786981Y-116824991D01*
X125739362Y-116920229D01*
X125732356Y-116938537D01*
X125732101Y-116942120D01*
X125730726Y-116945441D01*
X125728805Y-116964950D01*
X125262138Y-116964950D01*
X125262138Y-116774474D01*
X125262131Y-116774403D01*
X125262138Y-116774369D01*
X125262117Y-116774267D01*
X125260217Y-116754965D01*
X125256427Y-116745816D01*
X125254486Y-116736109D01*
X125249034Y-116727968D01*
X125245285Y-116718917D01*
X125238285Y-116711917D01*
X125232775Y-116703689D01*
X125224620Y-116698252D01*
X125217695Y-116691327D01*
X125208551Y-116687539D01*
X125200310Y-116682045D01*
X125190696Y-116680143D01*
X125181647Y-116676395D01*
X125171746Y-116676395D01*
X125162034Y-116674474D01*
X125152429Y-116676395D01*
X125142629Y-116676395D01*
X125133480Y-116680184D01*
X125123773Y-116682126D01*
X125115632Y-116687577D01*
X125106581Y-116691327D01*
X125099581Y-116698326D01*
X125091353Y-116703837D01*
X125079064Y-116718843D01*
X125078991Y-116718917D01*
X125078977Y-116718949D01*
X125078933Y-116719004D01*
X124989189Y-116853620D01*
X124912425Y-116930383D01*
X124831703Y-116970745D01*
X124815112Y-116981188D01*
X124789548Y-117010665D01*
X124777209Y-117047681D01*
X124666098Y-117047681D01*
X124666098Y-116563363D01*
X126611344Y-116563363D01*
X126611344Y-117985585D01*
G37*
X125344564Y-127896844D02*
X124773136Y-127896844D01*
X125058850Y-127896844D02*
X125058850Y-126896844D01*
X125058850Y-126896844D02*
X124963612Y-127039701D01*
X124963612Y-127039701D02*
X124868374Y-127134939D01*
X124868374Y-127134939D02*
X124773136Y-127182558D01*
X126249326Y-126896844D02*
X125773136Y-126896844D01*
X125773136Y-126896844D02*
X125725517Y-127373034D01*
X125725517Y-127373034D02*
X125773136Y-127325415D01*
X125773136Y-127325415D02*
X125868374Y-127277796D01*
X125868374Y-127277796D02*
X126106469Y-127277796D01*
X126106469Y-127277796D02*
X126201707Y-127325415D01*
X126201707Y-127325415D02*
X126249326Y-127373034D01*
X126249326Y-127373034D02*
X126296945Y-127468272D01*
X126296945Y-127468272D02*
X126296945Y-127706367D01*
X126296945Y-127706367D02*
X126249326Y-127801605D01*
X126249326Y-127801605D02*
X126201707Y-127849225D01*
X126201707Y-127849225D02*
X126106469Y-127896844D01*
X126106469Y-127896844D02*
X125868374Y-127896844D01*
X125868374Y-127896844D02*
X125773136Y-127849225D01*
X125773136Y-127849225D02*
X125725517Y-127801605D01*
X107321863Y-104100219D02*
X106845673Y-104100219D01*
X106845673Y-104100219D02*
X106798054Y-104576409D01*
X106798054Y-104576409D02*
X106845673Y-104528790D01*
X106845673Y-104528790D02*
X106940911Y-104481171D01*
X106940911Y-104481171D02*
X107179006Y-104481171D01*
X107179006Y-104481171D02*
X107274244Y-104528790D01*
X107274244Y-104528790D02*
X107321863Y-104576409D01*
X107321863Y-104576409D02*
X107369482Y-104671647D01*
X107369482Y-104671647D02*
X107369482Y-104909742D01*
X107369482Y-104909742D02*
X107321863Y-105004980D01*
X107321863Y-105004980D02*
X107274244Y-105052600D01*
X107274244Y-105052600D02*
X107179006Y-105100219D01*
X107179006Y-105100219D02*
X106940911Y-105100219D01*
X106940911Y-105100219D02*
X106845673Y-105052600D01*
X106845673Y-105052600D02*
X106798054Y-105004980D01*
X114443142Y-125008816D02*
X114347904Y-124961197D01*
X114347904Y-124961197D02*
X114252666Y-124865959D01*
X114252666Y-124865959D02*
X114109809Y-124723101D01*
X114109809Y-124723101D02*
X114014571Y-124675482D01*
X114014571Y-124675482D02*
X113919333Y-124675482D01*
X113966952Y-124913578D02*
X113871714Y-124865959D01*
X113871714Y-124865959D02*
X113776476Y-124770720D01*
X113776476Y-124770720D02*
X113728857Y-124580244D01*
X113728857Y-124580244D02*
X113728857Y-124246911D01*
X113728857Y-124246911D02*
X113776476Y-124056435D01*
X113776476Y-124056435D02*
X113871714Y-123961197D01*
X113871714Y-123961197D02*
X113966952Y-123913578D01*
X113966952Y-123913578D02*
X114157428Y-123913578D01*
X114157428Y-123913578D02*
X114252666Y-123961197D01*
X114252666Y-123961197D02*
X114347904Y-124056435D01*
X114347904Y-124056435D02*
X114395523Y-124246911D01*
X114395523Y-124246911D02*
X114395523Y-124580244D01*
X114395523Y-124580244D02*
X114347904Y-124770720D01*
X114347904Y-124770720D02*
X114252666Y-124865959D01*
X114252666Y-124865959D02*
X114157428Y-124913578D01*
X114157428Y-124913578D02*
X113966952Y-124913578D01*
X115157428Y-124389768D02*
X114824095Y-124389768D01*
X114824095Y-124913578D02*
X114824095Y-123913578D01*
X114824095Y-123913578D02*
X115300285Y-123913578D01*
X115681238Y-124913578D02*
X115681238Y-123913578D01*
X115681238Y-123913578D02*
X116252666Y-124913578D01*
X116252666Y-124913578D02*
X116252666Y-123913578D01*
X116728857Y-124532625D02*
X117490762Y-124532625D01*
X117919333Y-124008816D02*
X117966952Y-123961197D01*
X117966952Y-123961197D02*
X118062190Y-123913578D01*
X118062190Y-123913578D02*
X118300285Y-123913578D01*
X118300285Y-123913578D02*
X118395523Y-123961197D01*
X118395523Y-123961197D02*
X118443142Y-124008816D01*
X118443142Y-124008816D02*
X118490761Y-124104054D01*
X118490761Y-124104054D02*
X118490761Y-124199292D01*
X118490761Y-124199292D02*
X118443142Y-124342149D01*
X118443142Y-124342149D02*
X117871714Y-124913578D01*
X117871714Y-124913578D02*
X118490761Y-124913578D01*
X119062190Y-124342149D02*
X118966952Y-124294530D01*
X118966952Y-124294530D02*
X118919333Y-124246911D01*
X118919333Y-124246911D02*
X118871714Y-124151673D01*
X118871714Y-124151673D02*
X118871714Y-124104054D01*
X118871714Y-124104054D02*
X118919333Y-124008816D01*
X118919333Y-124008816D02*
X118966952Y-123961197D01*
X118966952Y-123961197D02*
X119062190Y-123913578D01*
X119062190Y-123913578D02*
X119252666Y-123913578D01*
X119252666Y-123913578D02*
X119347904Y-123961197D01*
X119347904Y-123961197D02*
X119395523Y-124008816D01*
X119395523Y-124008816D02*
X119443142Y-124104054D01*
X119443142Y-124104054D02*
X119443142Y-124151673D01*
X119443142Y-124151673D02*
X119395523Y-124246911D01*
X119395523Y-124246911D02*
X119347904Y-124294530D01*
X119347904Y-124294530D02*
X119252666Y-124342149D01*
X119252666Y-124342149D02*
X119062190Y-124342149D01*
X119062190Y-124342149D02*
X118966952Y-124389768D01*
X118966952Y-124389768D02*
X118919333Y-124437387D01*
X118919333Y-124437387D02*
X118871714Y-124532625D01*
X118871714Y-124532625D02*
X118871714Y-124723101D01*
X118871714Y-124723101D02*
X118919333Y-124818339D01*
X118919333Y-124818339D02*
X118966952Y-124865959D01*
X118966952Y-124865959D02*
X119062190Y-124913578D01*
X119062190Y-124913578D02*
X119252666Y-124913578D01*
X119252666Y-124913578D02*
X119347904Y-124865959D01*
X119347904Y-124865959D02*
X119395523Y-124818339D01*
X119395523Y-124818339D02*
X119443142Y-124723101D01*
X119443142Y-124723101D02*
X119443142Y-124532625D01*
X119443142Y-124532625D02*
X119395523Y-124437387D01*
X119395523Y-124437387D02*
X119347904Y-124389768D01*
X119347904Y-124389768D02*
X119252666Y-124342149D01*
X114562190Y-125523522D02*
X114371714Y-125523522D01*
X114371714Y-125523522D02*
X114276476Y-125571141D01*
X114276476Y-125571141D02*
X114228857Y-125618760D01*
X114228857Y-125618760D02*
X114133619Y-125761617D01*
X114133619Y-125761617D02*
X114086000Y-125952093D01*
X114086000Y-125952093D02*
X114086000Y-126333045D01*
X114086000Y-126333045D02*
X114133619Y-126428283D01*
X114133619Y-126428283D02*
X114181238Y-126475903D01*
X114181238Y-126475903D02*
X114276476Y-126523522D01*
X114276476Y-126523522D02*
X114466952Y-126523522D01*
X114466952Y-126523522D02*
X114562190Y-126475903D01*
X114562190Y-126475903D02*
X114609809Y-126428283D01*
X114609809Y-126428283D02*
X114657428Y-126333045D01*
X114657428Y-126333045D02*
X114657428Y-126094950D01*
X114657428Y-126094950D02*
X114609809Y-125999712D01*
X114609809Y-125999712D02*
X114562190Y-125952093D01*
X114562190Y-125952093D02*
X114466952Y-125904474D01*
X114466952Y-125904474D02*
X114276476Y-125904474D01*
X114276476Y-125904474D02*
X114181238Y-125952093D01*
X114181238Y-125952093D02*
X114133619Y-125999712D01*
X114133619Y-125999712D02*
X114086000Y-126094950D01*
X114990762Y-126523522D02*
X115514571Y-125856855D01*
X114990762Y-125856855D02*
X115514571Y-126523522D01*
X116324095Y-125523522D02*
X116133619Y-125523522D01*
X116133619Y-125523522D02*
X116038381Y-125571141D01*
X116038381Y-125571141D02*
X115990762Y-125618760D01*
X115990762Y-125618760D02*
X115895524Y-125761617D01*
X115895524Y-125761617D02*
X115847905Y-125952093D01*
X115847905Y-125952093D02*
X115847905Y-126333045D01*
X115847905Y-126333045D02*
X115895524Y-126428283D01*
X115895524Y-126428283D02*
X115943143Y-126475903D01*
X115943143Y-126475903D02*
X116038381Y-126523522D01*
X116038381Y-126523522D02*
X116228857Y-126523522D01*
X116228857Y-126523522D02*
X116324095Y-126475903D01*
X116324095Y-126475903D02*
X116371714Y-126428283D01*
X116371714Y-126428283D02*
X116419333Y-126333045D01*
X116419333Y-126333045D02*
X116419333Y-126094950D01*
X116419333Y-126094950D02*
X116371714Y-125999712D01*
X116371714Y-125999712D02*
X116324095Y-125952093D01*
X116324095Y-125952093D02*
X116228857Y-125904474D01*
X116228857Y-125904474D02*
X116038381Y-125904474D01*
X116038381Y-125904474D02*
X115943143Y-125952093D01*
X115943143Y-125952093D02*
X115895524Y-125999712D01*
X115895524Y-125999712D02*
X115847905Y-126094950D01*
X116847905Y-126523522D02*
X116847905Y-125856855D01*
X116847905Y-125952093D02*
X116895524Y-125904474D01*
X116895524Y-125904474D02*
X116990762Y-125856855D01*
X116990762Y-125856855D02*
X117133619Y-125856855D01*
X117133619Y-125856855D02*
X117228857Y-125904474D01*
X117228857Y-125904474D02*
X117276476Y-125999712D01*
X117276476Y-125999712D02*
X117276476Y-126523522D01*
X117276476Y-125999712D02*
X117324095Y-125904474D01*
X117324095Y-125904474D02*
X117419333Y-125856855D01*
X117419333Y-125856855D02*
X117562190Y-125856855D01*
X117562190Y-125856855D02*
X117657429Y-125904474D01*
X117657429Y-125904474D02*
X117705048Y-125999712D01*
X117705048Y-125999712D02*
X117705048Y-126523522D01*
X118181238Y-126523522D02*
X118181238Y-125856855D01*
X118181238Y-125952093D02*
X118228857Y-125904474D01*
X118228857Y-125904474D02*
X118324095Y-125856855D01*
X118324095Y-125856855D02*
X118466952Y-125856855D01*
X118466952Y-125856855D02*
X118562190Y-125904474D01*
X118562190Y-125904474D02*
X118609809Y-125999712D01*
X118609809Y-125999712D02*
X118609809Y-126523522D01*
X118609809Y-125999712D02*
X118657428Y-125904474D01*
X118657428Y-125904474D02*
X118752666Y-125856855D01*
X118752666Y-125856855D02*
X118895523Y-125856855D01*
X118895523Y-125856855D02*
X118990762Y-125904474D01*
X118990762Y-125904474D02*
X119038381Y-125999712D01*
X119038381Y-125999712D02*
X119038381Y-126523522D01*
X111728857Y-127133466D02*
X111824095Y-127133466D01*
X111824095Y-127133466D02*
X111919333Y-127181085D01*
X111919333Y-127181085D02*
X111966952Y-127228704D01*
X111966952Y-127228704D02*
X112014571Y-127323942D01*
X112014571Y-127323942D02*
X112062190Y-127514418D01*
X112062190Y-127514418D02*
X112062190Y-127752513D01*
X112062190Y-127752513D02*
X112014571Y-127942989D01*
X112014571Y-127942989D02*
X111966952Y-128038227D01*
X111966952Y-128038227D02*
X111919333Y-128085847D01*
X111919333Y-128085847D02*
X111824095Y-128133466D01*
X111824095Y-128133466D02*
X111728857Y-128133466D01*
X111728857Y-128133466D02*
X111633619Y-128085847D01*
X111633619Y-128085847D02*
X111586000Y-128038227D01*
X111586000Y-128038227D02*
X111538381Y-127942989D01*
X111538381Y-127942989D02*
X111490762Y-127752513D01*
X111490762Y-127752513D02*
X111490762Y-127514418D01*
X111490762Y-127514418D02*
X111538381Y-127323942D01*
X111538381Y-127323942D02*
X111586000Y-127228704D01*
X111586000Y-127228704D02*
X111633619Y-127181085D01*
X111633619Y-127181085D02*
X111728857Y-127133466D01*
X112490762Y-128038227D02*
X112538381Y-128085847D01*
X112538381Y-128085847D02*
X112490762Y-128133466D01*
X112490762Y-128133466D02*
X112443143Y-128085847D01*
X112443143Y-128085847D02*
X112490762Y-128038227D01*
X112490762Y-128038227D02*
X112490762Y-128133466D01*
X113395523Y-127133466D02*
X113205047Y-127133466D01*
X113205047Y-127133466D02*
X113109809Y-127181085D01*
X113109809Y-127181085D02*
X113062190Y-127228704D01*
X113062190Y-127228704D02*
X112966952Y-127371561D01*
X112966952Y-127371561D02*
X112919333Y-127562037D01*
X112919333Y-127562037D02*
X112919333Y-127942989D01*
X112919333Y-127942989D02*
X112966952Y-128038227D01*
X112966952Y-128038227D02*
X113014571Y-128085847D01*
X113014571Y-128085847D02*
X113109809Y-128133466D01*
X113109809Y-128133466D02*
X113300285Y-128133466D01*
X113300285Y-128133466D02*
X113395523Y-128085847D01*
X113395523Y-128085847D02*
X113443142Y-128038227D01*
X113443142Y-128038227D02*
X113490761Y-127942989D01*
X113490761Y-127942989D02*
X113490761Y-127704894D01*
X113490761Y-127704894D02*
X113443142Y-127609656D01*
X113443142Y-127609656D02*
X113395523Y-127562037D01*
X113395523Y-127562037D02*
X113300285Y-127514418D01*
X113300285Y-127514418D02*
X113109809Y-127514418D01*
X113109809Y-127514418D02*
X113014571Y-127562037D01*
X113014571Y-127562037D02*
X112966952Y-127609656D01*
X112966952Y-127609656D02*
X112919333Y-127704894D01*
X114395523Y-127133466D02*
X113919333Y-127133466D01*
X113919333Y-127133466D02*
X113871714Y-127609656D01*
X113871714Y-127609656D02*
X113919333Y-127562037D01*
X113919333Y-127562037D02*
X114014571Y-127514418D01*
X114014571Y-127514418D02*
X114252666Y-127514418D01*
X114252666Y-127514418D02*
X114347904Y-127562037D01*
X114347904Y-127562037D02*
X114395523Y-127609656D01*
X114395523Y-127609656D02*
X114443142Y-127704894D01*
X114443142Y-127704894D02*
X114443142Y-127942989D01*
X114443142Y-127942989D02*
X114395523Y-128038227D01*
X114395523Y-128038227D02*
X114347904Y-128085847D01*
X114347904Y-128085847D02*
X114252666Y-128133466D01*
X114252666Y-128133466D02*
X114014571Y-128133466D01*
X114014571Y-128133466D02*
X113919333Y-128085847D01*
X113919333Y-128085847D02*
X113871714Y-128038227D01*
X114871714Y-128133466D02*
X114871714Y-127466799D01*
X114871714Y-127562037D02*
X114919333Y-127514418D01*
X114919333Y-127514418D02*
X115014571Y-127466799D01*
X115014571Y-127466799D02*
X115157428Y-127466799D01*
X115157428Y-127466799D02*
X115252666Y-127514418D01*
X115252666Y-127514418D02*
X115300285Y-127609656D01*
X115300285Y-127609656D02*
X115300285Y-128133466D01*
X115300285Y-127609656D02*
X115347904Y-127514418D01*
X115347904Y-127514418D02*
X115443142Y-127466799D01*
X115443142Y-127466799D02*
X115585999Y-127466799D01*
X115585999Y-127466799D02*
X115681238Y-127514418D01*
X115681238Y-127514418D02*
X115728857Y-127609656D01*
X115728857Y-127609656D02*
X115728857Y-128133466D01*
X116205047Y-128133466D02*
X116205047Y-127466799D01*
X116205047Y-127562037D02*
X116252666Y-127514418D01*
X116252666Y-127514418D02*
X116347904Y-127466799D01*
X116347904Y-127466799D02*
X116490761Y-127466799D01*
X116490761Y-127466799D02*
X116585999Y-127514418D01*
X116585999Y-127514418D02*
X116633618Y-127609656D01*
X116633618Y-127609656D02*
X116633618Y-128133466D01*
X116633618Y-127609656D02*
X116681237Y-127514418D01*
X116681237Y-127514418D02*
X116776475Y-127466799D01*
X116776475Y-127466799D02*
X116919332Y-127466799D01*
X116919332Y-127466799D02*
X117014571Y-127514418D01*
X117014571Y-127514418D02*
X117062190Y-127609656D01*
X117062190Y-127609656D02*
X117062190Y-128133466D01*
X118300285Y-128133466D02*
X118300285Y-127133466D01*
X118300285Y-127133466D02*
X118681237Y-127133466D01*
X118681237Y-127133466D02*
X118776475Y-127181085D01*
X118776475Y-127181085D02*
X118824094Y-127228704D01*
X118824094Y-127228704D02*
X118871713Y-127323942D01*
X118871713Y-127323942D02*
X118871713Y-127466799D01*
X118871713Y-127466799D02*
X118824094Y-127562037D01*
X118824094Y-127562037D02*
X118776475Y-127609656D01*
X118776475Y-127609656D02*
X118681237Y-127657275D01*
X118681237Y-127657275D02*
X118300285Y-127657275D01*
X119300285Y-128133466D02*
X119300285Y-127466799D01*
X119300285Y-127133466D02*
X119252666Y-127181085D01*
X119252666Y-127181085D02*
X119300285Y-127228704D01*
X119300285Y-127228704D02*
X119347904Y-127181085D01*
X119347904Y-127181085D02*
X119300285Y-127133466D01*
X119300285Y-127133466D02*
X119300285Y-127228704D01*
X119633618Y-127466799D02*
X120014570Y-127466799D01*
X119776475Y-127133466D02*
X119776475Y-127990608D01*
X119776475Y-127990608D02*
X119824094Y-128085847D01*
X119824094Y-128085847D02*
X119919332Y-128133466D01*
X119919332Y-128133466D02*
X120014570Y-128133466D01*
X120776475Y-128085847D02*
X120681237Y-128133466D01*
X120681237Y-128133466D02*
X120490761Y-128133466D01*
X120490761Y-128133466D02*
X120395523Y-128085847D01*
X120395523Y-128085847D02*
X120347904Y-128038227D01*
X120347904Y-128038227D02*
X120300285Y-127942989D01*
X120300285Y-127942989D02*
X120300285Y-127657275D01*
X120300285Y-127657275D02*
X120347904Y-127562037D01*
X120347904Y-127562037D02*
X120395523Y-127514418D01*
X120395523Y-127514418D02*
X120490761Y-127466799D01*
X120490761Y-127466799D02*
X120681237Y-127466799D01*
X120681237Y-127466799D02*
X120776475Y-127514418D01*
X121205047Y-128133466D02*
X121205047Y-127133466D01*
X121633618Y-128133466D02*
X121633618Y-127609656D01*
X121633618Y-127609656D02*
X121585999Y-127514418D01*
X121585999Y-127514418D02*
X121490761Y-127466799D01*
X121490761Y-127466799D02*
X121347904Y-127466799D01*
X121347904Y-127466799D02*
X121252666Y-127514418D01*
X121252666Y-127514418D02*
X121205047Y-127562037D01*
G36*
X108095051Y-116899478D02*
G01*
X108119720Y-116924146D01*
X108155173Y-116995053D01*
X108197144Y-117162934D01*
X108197144Y-117376410D01*
X108155173Y-117544291D01*
X108119720Y-117615197D01*
X108095051Y-117639867D01*
X108035442Y-117669673D01*
X107987418Y-117669673D01*
X107927808Y-117639868D01*
X107903141Y-117615200D01*
X107867686Y-117544291D01*
X107825716Y-117376410D01*
X107825716Y-117162935D01*
X107867686Y-116995053D01*
X107903140Y-116924146D01*
X107927808Y-116899477D01*
X107987418Y-116869673D01*
X108035442Y-116869673D01*
X108095051Y-116899478D01*
G37*
G36*
X108508255Y-117980784D02*
G01*
X106563009Y-117980784D01*
X106563009Y-117042880D01*
X106674120Y-117042880D01*
X106676886Y-117081800D01*
X106694335Y-117116699D01*
X106723812Y-117142263D01*
X106760828Y-117154602D01*
X106799748Y-117151836D01*
X106818056Y-117144830D01*
X106913294Y-117097211D01*
X106921690Y-117091925D01*
X106924130Y-117090915D01*
X106926876Y-117088661D01*
X106929884Y-117086768D01*
X106931613Y-117084773D01*
X106939284Y-117078479D01*
X106959049Y-117058714D01*
X106959049Y-117669673D01*
X106773335Y-117669673D01*
X106753826Y-117671594D01*
X106717778Y-117686526D01*
X106690188Y-117714116D01*
X106675256Y-117750164D01*
X106675256Y-117789182D01*
X106690188Y-117825230D01*
X106717778Y-117852820D01*
X106753826Y-117867752D01*
X106773335Y-117869673D01*
X107344763Y-117869673D01*
X107364272Y-117867752D01*
X107400320Y-117852820D01*
X107427910Y-117825230D01*
X107442842Y-117789182D01*
X107442842Y-117750164D01*
X107427910Y-117714116D01*
X107400320Y-117686526D01*
X107364272Y-117671594D01*
X107344763Y-117669673D01*
X107159049Y-117669673D01*
X107159049Y-117150625D01*
X107625716Y-117150625D01*
X107625716Y-117388720D01*
X107626051Y-117392122D01*
X107625834Y-117393581D01*
X107626913Y-117400878D01*
X107627637Y-117408229D01*
X107628201Y-117409592D01*
X107628702Y-117412974D01*
X107676321Y-117603449D01*
X107676834Y-117604886D01*
X107676886Y-117605609D01*
X107679994Y-117613733D01*
X107682916Y-117621910D01*
X107683346Y-117622490D01*
X107683892Y-117623917D01*
X107731511Y-117719155D01*
X107736794Y-117727547D01*
X107737806Y-117729991D01*
X107740062Y-117732740D01*
X107741954Y-117735745D01*
X107743948Y-117737474D01*
X107750243Y-117745144D01*
X107797861Y-117792764D01*
X107805529Y-117799057D01*
X107807261Y-117801054D01*
X107810269Y-117802947D01*
X107813015Y-117805201D01*
X107815455Y-117806211D01*
X107823852Y-117811497D01*
X107919089Y-117859116D01*
X107937398Y-117866122D01*
X107940981Y-117866376D01*
X107944302Y-117867752D01*
X107963811Y-117869673D01*
X108059049Y-117869673D01*
X108078558Y-117867752D01*
X108081878Y-117866376D01*
X108085462Y-117866122D01*
X108103770Y-117859116D01*
X108199008Y-117811497D01*
X108207403Y-117806212D01*
X108209845Y-117805201D01*
X108212592Y-117802945D01*
X108215598Y-117801054D01*
X108217328Y-117799059D01*
X108224998Y-117792764D01*
X108272617Y-117745144D01*
X108278909Y-117737477D01*
X108280906Y-117735746D01*
X108282799Y-117732738D01*
X108285054Y-117729991D01*
X108286065Y-117727549D01*
X108291349Y-117719155D01*
X108338968Y-117623918D01*
X108339514Y-117622489D01*
X108339944Y-117621910D01*
X108342865Y-117613733D01*
X108345974Y-117605609D01*
X108346025Y-117604888D01*
X108346539Y-117603450D01*
X108394158Y-117412974D01*
X108394658Y-117409592D01*
X108395223Y-117408229D01*
X108395946Y-117400878D01*
X108397026Y-117393581D01*
X108396808Y-117392122D01*
X108397144Y-117388720D01*
X108397144Y-117150625D01*
X108396808Y-117147222D01*
X108397026Y-117145764D01*
X108395946Y-117138466D01*
X108395223Y-117131116D01*
X108394658Y-117129752D01*
X108394158Y-117126371D01*
X108346539Y-116935895D01*
X108346025Y-116934456D01*
X108345974Y-116933736D01*
X108342865Y-116925611D01*
X108339944Y-116917435D01*
X108339514Y-116916855D01*
X108338968Y-116915427D01*
X108291349Y-116820190D01*
X108286063Y-116811793D01*
X108285053Y-116809353D01*
X108282799Y-116806607D01*
X108280906Y-116803599D01*
X108278908Y-116801866D01*
X108272616Y-116794200D01*
X108224998Y-116746581D01*
X108217327Y-116740286D01*
X108215598Y-116738292D01*
X108212590Y-116736398D01*
X108209844Y-116734145D01*
X108207404Y-116733134D01*
X108199008Y-116727849D01*
X108103770Y-116680230D01*
X108085462Y-116673224D01*
X108081878Y-116672969D01*
X108078558Y-116671594D01*
X108059049Y-116669673D01*
X107963811Y-116669673D01*
X107944302Y-116671594D01*
X107940981Y-116672969D01*
X107937398Y-116673224D01*
X107919089Y-116680230D01*
X107823852Y-116727849D01*
X107815455Y-116733134D01*
X107813015Y-116734145D01*
X107810269Y-116736398D01*
X107807261Y-116738292D01*
X107805528Y-116740289D01*
X107797862Y-116746582D01*
X107750243Y-116794200D01*
X107743948Y-116801870D01*
X107741954Y-116803600D01*
X107740060Y-116806607D01*
X107737807Y-116809354D01*
X107736796Y-116811793D01*
X107731511Y-116820190D01*
X107683892Y-116915428D01*
X107683346Y-116916854D01*
X107682916Y-116917435D01*
X107679994Y-116925611D01*
X107676886Y-116933736D01*
X107676834Y-116934458D01*
X107676321Y-116935896D01*
X107628702Y-117126371D01*
X107628201Y-117129752D01*
X107627637Y-117131116D01*
X107626913Y-117138466D01*
X107625834Y-117145764D01*
X107626051Y-117147222D01*
X107625716Y-117150625D01*
X107159049Y-117150625D01*
X107159049Y-116769673D01*
X107159042Y-116769602D01*
X107159049Y-116769568D01*
X107159028Y-116769466D01*
X107157128Y-116750164D01*
X107153338Y-116741015D01*
X107151397Y-116731308D01*
X107145945Y-116723167D01*
X107142196Y-116714116D01*
X107135196Y-116707116D01*
X107129686Y-116698888D01*
X107121531Y-116693451D01*
X107114606Y-116686526D01*
X107105462Y-116682738D01*
X107097221Y-116677244D01*
X107087607Y-116675342D01*
X107078558Y-116671594D01*
X107068657Y-116671594D01*
X107058945Y-116669673D01*
X107049340Y-116671594D01*
X107039540Y-116671594D01*
X107030391Y-116675383D01*
X107020684Y-116677325D01*
X107012543Y-116682776D01*
X107003492Y-116686526D01*
X106996492Y-116693525D01*
X106988264Y-116699036D01*
X106975975Y-116714042D01*
X106975902Y-116714116D01*
X106975888Y-116714148D01*
X106975844Y-116714203D01*
X106886100Y-116848819D01*
X106809336Y-116925582D01*
X106728614Y-116965944D01*
X106712023Y-116976387D01*
X106686459Y-117005864D01*
X106674120Y-117042880D01*
X106563009Y-117042880D01*
X106563009Y-116558562D01*
X108508255Y-116558562D01*
X108508255Y-117980784D01*
G37*
D12*
G36*
X123532186Y-129428861D02*
G01*
X123632793Y-129529468D01*
X123685972Y-129635827D01*
X123748928Y-129887648D01*
X123748928Y-130065007D01*
X123685972Y-130316828D01*
X123632793Y-130423188D01*
X123532187Y-130523794D01*
X123374585Y-130576328D01*
X123191785Y-130576328D01*
X123191785Y-129376328D01*
X123374588Y-129376328D01*
X123532186Y-129428861D01*
G37*
G36*
X114024361Y-129421035D02*
G01*
X114061365Y-129458039D01*
X114106071Y-129547451D01*
X114106071Y-129690918D01*
X114061364Y-129780331D01*
X114024359Y-129817336D01*
X113934947Y-129862042D01*
X113548928Y-129862042D01*
X113548928Y-129376328D01*
X113934947Y-129376328D01*
X114024361Y-129421035D01*
G37*
G36*
X117047959Y-130147757D02*
G01*
X116749900Y-130147757D01*
X116898929Y-129700669D01*
X117047959Y-130147757D01*
G37*
G36*
X122190816Y-130147757D02*
G01*
X121892757Y-130147757D01*
X122041786Y-129700669D01*
X122190816Y-130147757D01*
G37*
G36*
X120881504Y-129421035D02*
G01*
X120918508Y-129458039D01*
X120963214Y-129547451D01*
X120963214Y-129690918D01*
X120918507Y-129780331D01*
X120881502Y-129817336D01*
X120792090Y-129862042D01*
X120406071Y-129862042D01*
X120406071Y-129376328D01*
X120792090Y-129376328D01*
X120881504Y-129421035D01*
G37*
G36*
X124215595Y-131042995D02*
G01*
X108799429Y-131042995D01*
X108799429Y-129197064D01*
X108966096Y-129197064D01*
X108966096Y-129255592D01*
X108988494Y-129309664D01*
X109029878Y-129351048D01*
X109083950Y-129373446D01*
X109113214Y-129376328D01*
X109391785Y-129376328D01*
X109391785Y-130726328D01*
X109394667Y-130755592D01*
X109417065Y-130809664D01*
X109458449Y-130851048D01*
X109512521Y-130873446D01*
X109571049Y-130873446D01*
X109625121Y-130851048D01*
X109666505Y-130809664D01*
X109688903Y-130755592D01*
X109691785Y-130726328D01*
X109691785Y-129376328D01*
X109970357Y-129376328D01*
X109999621Y-129373446D01*
X110053693Y-129351048D01*
X110095077Y-129309664D01*
X110117475Y-129255592D01*
X110117475Y-129226328D01*
X110320356Y-129226328D01*
X110320356Y-130726328D01*
X110323238Y-130755592D01*
X110345636Y-130809664D01*
X110387020Y-130851048D01*
X110441092Y-130873446D01*
X110499620Y-130873446D01*
X110553692Y-130851048D01*
X110595076Y-130809664D01*
X110617474Y-130755592D01*
X110620356Y-130726328D01*
X110620356Y-130090614D01*
X111177499Y-130090614D01*
X111177499Y-130726328D01*
X111180381Y-130755592D01*
X111202779Y-130809664D01*
X111244163Y-130851048D01*
X111298235Y-130873446D01*
X111356763Y-130873446D01*
X111410835Y-130851048D01*
X111452219Y-130809664D01*
X111474617Y-130755592D01*
X111477499Y-130726328D01*
X111477499Y-129226328D01*
X111891785Y-129226328D01*
X111891785Y-130726328D01*
X111894667Y-130755592D01*
X111917065Y-130809664D01*
X111958449Y-130851048D01*
X112012521Y-130873446D01*
X112041785Y-130876328D01*
X112756071Y-130876328D01*
X112785335Y-130873446D01*
X112839407Y-130851048D01*
X112880791Y-130809664D01*
X112903189Y-130755592D01*
X112903189Y-130697064D01*
X112880791Y-130642992D01*
X112839407Y-130601608D01*
X112785335Y-130579210D01*
X112756071Y-130576328D01*
X112191785Y-130576328D01*
X112191785Y-130090614D01*
X112541785Y-130090614D01*
X112571049Y-130087732D01*
X112625121Y-130065334D01*
X112666505Y-130023950D01*
X112688903Y-129969878D01*
X112688903Y-129911350D01*
X112666505Y-129857278D01*
X112625121Y-129815894D01*
X112571049Y-129793496D01*
X112541785Y-129790614D01*
X112191785Y-129790614D01*
X112191785Y-129376328D01*
X112756071Y-129376328D01*
X112785335Y-129373446D01*
X112839407Y-129351048D01*
X112880791Y-129309664D01*
X112903189Y-129255592D01*
X112903189Y-129226328D01*
X113248928Y-129226328D01*
X113248928Y-130726328D01*
X113251810Y-130755592D01*
X113274208Y-130809664D01*
X113315592Y-130851048D01*
X113369664Y-130873446D01*
X113428192Y-130873446D01*
X113482264Y-130851048D01*
X113523648Y-130809664D01*
X113546046Y-130755592D01*
X113548928Y-130726328D01*
X113548928Y-130162042D01*
X113677973Y-130162042D01*
X114133186Y-130812347D01*
X114152329Y-130834669D01*
X114201686Y-130866122D01*
X114259322Y-130876293D01*
X114316464Y-130863634D01*
X114364412Y-130830070D01*
X114395865Y-130780713D01*
X114406036Y-130723077D01*
X114393377Y-130665935D01*
X114378956Y-130640309D01*
X114034004Y-130147520D01*
X114037439Y-130146206D01*
X114180296Y-130074778D01*
X114192889Y-130066850D01*
X114196549Y-130065335D01*
X114200668Y-130061953D01*
X114205182Y-130059113D01*
X114207778Y-130056119D01*
X114219280Y-130046680D01*
X114290709Y-129975251D01*
X114300150Y-129963746D01*
X114303142Y-129961152D01*
X114305980Y-129956642D01*
X114309364Y-129952520D01*
X114310880Y-129948858D01*
X114318807Y-129936267D01*
X114390235Y-129793409D01*
X114400745Y-129765946D01*
X114401126Y-129760570D01*
X114403189Y-129755592D01*
X114406071Y-129726328D01*
X114406071Y-129512042D01*
X114403189Y-129482778D01*
X114401126Y-129477799D01*
X114400745Y-129472424D01*
X114390235Y-129444961D01*
X114318807Y-129302103D01*
X114310878Y-129289508D01*
X114309363Y-129285849D01*
X114305981Y-129281728D01*
X114303142Y-129277218D01*
X114300150Y-129274623D01*
X114290708Y-129263118D01*
X114253917Y-129226328D01*
X114748928Y-129226328D01*
X114748928Y-130726328D01*
X114751810Y-130755592D01*
X114774208Y-130809664D01*
X114815592Y-130851048D01*
X114869664Y-130873446D01*
X114928192Y-130873446D01*
X114982264Y-130851048D01*
X115023648Y-130809664D01*
X115046046Y-130755592D01*
X115048928Y-130726328D01*
X115048928Y-129902461D01*
X115263001Y-130361190D01*
X115269347Y-130371903D01*
X115270668Y-130375535D01*
X115273019Y-130378103D01*
X115277988Y-130386490D01*
X115294793Y-130401880D01*
X115310195Y-130418698D01*
X115316238Y-130421518D01*
X115321151Y-130426017D01*
X115342571Y-130433806D01*
X115363233Y-130443448D01*
X115369890Y-130443740D01*
X115376153Y-130446018D01*
X115398932Y-130445017D01*
X115421703Y-130446018D01*
X115427962Y-130443741D01*
X115434624Y-130443449D01*
X115455291Y-130433804D01*
X115476706Y-130426017D01*
X115481619Y-130421517D01*
X115487661Y-130418698D01*
X115503056Y-130401885D01*
X115519869Y-130386490D01*
X115524837Y-130378101D01*
X115527188Y-130375535D01*
X115528507Y-130371905D01*
X115534855Y-130361190D01*
X115748928Y-129902462D01*
X115748928Y-130726328D01*
X115751810Y-130755592D01*
X115774208Y-130809664D01*
X115815592Y-130851048D01*
X115869664Y-130873446D01*
X115928192Y-130873446D01*
X115982264Y-130851048D01*
X116023648Y-130809664D01*
X116046046Y-130755592D01*
X116048928Y-130726328D01*
X116048928Y-130707567D01*
X116250107Y-130707567D01*
X116254256Y-130765948D01*
X116280430Y-130818295D01*
X116324644Y-130856642D01*
X116380168Y-130875150D01*
X116438549Y-130871001D01*
X116490896Y-130844827D01*
X116529243Y-130800613D01*
X116541231Y-130773762D01*
X116649900Y-130447757D01*
X117147959Y-130447757D01*
X117256627Y-130773762D01*
X117268615Y-130800613D01*
X117306962Y-130844828D01*
X117359310Y-130871001D01*
X117417690Y-130875151D01*
X117473214Y-130856642D01*
X117517428Y-130818295D01*
X117543602Y-130765948D01*
X117547752Y-130707568D01*
X117541232Y-130678894D01*
X117057042Y-129226328D01*
X117748928Y-129226328D01*
X117748928Y-130726328D01*
X117751810Y-130755592D01*
X117774208Y-130809664D01*
X117815592Y-130851048D01*
X117869664Y-130873446D01*
X117898928Y-130876328D01*
X118613214Y-130876328D01*
X118642478Y-130873446D01*
X118696550Y-130851048D01*
X118737934Y-130809664D01*
X118760332Y-130755592D01*
X118760332Y-130697064D01*
X118737934Y-130642992D01*
X118696550Y-130601608D01*
X118642478Y-130579210D01*
X118613214Y-130576328D01*
X118048928Y-130576328D01*
X118048928Y-129226328D01*
X120106071Y-129226328D01*
X120106071Y-130726328D01*
X120108953Y-130755592D01*
X120131351Y-130809664D01*
X120172735Y-130851048D01*
X120226807Y-130873446D01*
X120285335Y-130873446D01*
X120339407Y-130851048D01*
X120380791Y-130809664D01*
X120403189Y-130755592D01*
X120406071Y-130726328D01*
X120406071Y-130707567D01*
X121392964Y-130707567D01*
X121397113Y-130765948D01*
X121423287Y-130818295D01*
X121467501Y-130856642D01*
X121523025Y-130875150D01*
X121581406Y-130871001D01*
X121633753Y-130844827D01*
X121672100Y-130800613D01*
X121684088Y-130773762D01*
X121792757Y-130447757D01*
X122290816Y-130447757D01*
X122399484Y-130773762D01*
X122411472Y-130800613D01*
X122449819Y-130844828D01*
X122502167Y-130871001D01*
X122560547Y-130875151D01*
X122616071Y-130856642D01*
X122660285Y-130818295D01*
X122686459Y-130765948D01*
X122690609Y-130707568D01*
X122684089Y-130678894D01*
X122199899Y-129226328D01*
X122891785Y-129226328D01*
X122891785Y-130726328D01*
X122894667Y-130755592D01*
X122917065Y-130809664D01*
X122958449Y-130851048D01*
X123012521Y-130873446D01*
X123041785Y-130876328D01*
X123398928Y-130876328D01*
X123413733Y-130874869D01*
X123417688Y-130875151D01*
X123422889Y-130873968D01*
X123428192Y-130873446D01*
X123431849Y-130871930D01*
X123446362Y-130868631D01*
X123660648Y-130797203D01*
X123687499Y-130785215D01*
X123691570Y-130781683D01*
X123696550Y-130779621D01*
X123719280Y-130760966D01*
X123862137Y-130618108D01*
X123871575Y-130606606D01*
X123874570Y-130604010D01*
X123877410Y-130599496D01*
X123880792Y-130595377D01*
X123882307Y-130591717D01*
X123890235Y-130579124D01*
X123961664Y-130436268D01*
X123962483Y-130434125D01*
X123963128Y-130433256D01*
X123967512Y-130420984D01*
X123972173Y-130408804D01*
X123972249Y-130407723D01*
X123973021Y-130405565D01*
X124044449Y-130119851D01*
X124045198Y-130114779D01*
X124046046Y-130112735D01*
X124047131Y-130101712D01*
X124048751Y-130090762D01*
X124048425Y-130088574D01*
X124048928Y-130083471D01*
X124048928Y-129869185D01*
X124048425Y-129864081D01*
X124048751Y-129861894D01*
X124047131Y-129850943D01*
X124046046Y-129839921D01*
X124045198Y-129837876D01*
X124044449Y-129832805D01*
X123973021Y-129547091D01*
X123972249Y-129544932D01*
X123972173Y-129543852D01*
X123967512Y-129531671D01*
X123963128Y-129519400D01*
X123962483Y-129518530D01*
X123961664Y-129516388D01*
X123890235Y-129373532D01*
X123882308Y-129360940D01*
X123880792Y-129357278D01*
X123877408Y-129353155D01*
X123874570Y-129348646D01*
X123871577Y-129346050D01*
X123862137Y-129334548D01*
X123719280Y-129191691D01*
X123696549Y-129173036D01*
X123691569Y-129170973D01*
X123687499Y-129167443D01*
X123660648Y-129155454D01*
X123446362Y-129084026D01*
X123431854Y-129080727D01*
X123428192Y-129079210D01*
X123422883Y-129078687D01*
X123417689Y-129077506D01*
X123413739Y-129077786D01*
X123398928Y-129076328D01*
X123041785Y-129076328D01*
X123012521Y-129079210D01*
X122958449Y-129101608D01*
X122917065Y-129142992D01*
X122894667Y-129197064D01*
X122891785Y-129226328D01*
X122199899Y-129226328D01*
X122184088Y-129178894D01*
X122172100Y-129152043D01*
X122165077Y-129143946D01*
X122160285Y-129134361D01*
X122146076Y-129122037D01*
X122133753Y-129107829D01*
X122124167Y-129103036D01*
X122116071Y-129096014D01*
X122098227Y-129090065D01*
X122081406Y-129081655D01*
X122070717Y-129080895D01*
X122060547Y-129077505D01*
X122041781Y-129078838D01*
X122023025Y-129077506D01*
X122012857Y-129080895D01*
X122002167Y-129081655D01*
X121985343Y-129090066D01*
X121967501Y-129096014D01*
X121959406Y-129103034D01*
X121949819Y-129107828D01*
X121937493Y-129122039D01*
X121923287Y-129134361D01*
X121918494Y-129143945D01*
X121911472Y-129152043D01*
X121899484Y-129178894D01*
X121399484Y-130678894D01*
X121392964Y-130707567D01*
X120406071Y-130707567D01*
X120406071Y-130162042D01*
X120827500Y-130162042D01*
X120856764Y-130159160D01*
X120861742Y-130157097D01*
X120867118Y-130156716D01*
X120894582Y-130146206D01*
X121037439Y-130074778D01*
X121050032Y-130066850D01*
X121053692Y-130065335D01*
X121057811Y-130061953D01*
X121062325Y-130059113D01*
X121064921Y-130056119D01*
X121076423Y-130046680D01*
X121147852Y-129975251D01*
X121157293Y-129963746D01*
X121160285Y-129961152D01*
X121163123Y-129956642D01*
X121166507Y-129952520D01*
X121168023Y-129948858D01*
X121175950Y-129936267D01*
X121247378Y-129793409D01*
X121257888Y-129765946D01*
X121258269Y-129760570D01*
X121260332Y-129755592D01*
X121263214Y-129726328D01*
X121263214Y-129512042D01*
X121260332Y-129482778D01*
X121258269Y-129477799D01*
X121257888Y-129472424D01*
X121247378Y-129444961D01*
X121175950Y-129302103D01*
X121168021Y-129289508D01*
X121166506Y-129285849D01*
X121163124Y-129281728D01*
X121160285Y-129277218D01*
X121157293Y-129274623D01*
X121147851Y-129263118D01*
X121076422Y-129191690D01*
X121064922Y-129182252D01*
X121062325Y-129179258D01*
X121057808Y-129176415D01*
X121053691Y-129173036D01*
X121050034Y-129171521D01*
X121037439Y-129163593D01*
X120894582Y-129092164D01*
X120867119Y-129081655D01*
X120861744Y-129081273D01*
X120856764Y-129079210D01*
X120827500Y-129076328D01*
X120256071Y-129076328D01*
X120226807Y-129079210D01*
X120172735Y-129101608D01*
X120131351Y-129142992D01*
X120108953Y-129197064D01*
X120106071Y-129226328D01*
X118048928Y-129226328D01*
X118046046Y-129197064D01*
X118023648Y-129142992D01*
X117982264Y-129101608D01*
X117928192Y-129079210D01*
X117869664Y-129079210D01*
X117815592Y-129101608D01*
X117774208Y-129142992D01*
X117751810Y-129197064D01*
X117748928Y-129226328D01*
X117057042Y-129226328D01*
X117041231Y-129178894D01*
X117029243Y-129152043D01*
X117022220Y-129143946D01*
X117017428Y-129134361D01*
X117003219Y-129122037D01*
X116990896Y-129107829D01*
X116981310Y-129103036D01*
X116973214Y-129096014D01*
X116955370Y-129090065D01*
X116938549Y-129081655D01*
X116927860Y-129080895D01*
X116917690Y-129077505D01*
X116898924Y-129078838D01*
X116880168Y-129077506D01*
X116870000Y-129080895D01*
X116859310Y-129081655D01*
X116842486Y-129090066D01*
X116824644Y-129096014D01*
X116816549Y-129103034D01*
X116806962Y-129107828D01*
X116794636Y-129122039D01*
X116780430Y-129134361D01*
X116775637Y-129143945D01*
X116768615Y-129152043D01*
X116756627Y-129178894D01*
X116256627Y-130678894D01*
X116250107Y-130707567D01*
X116048928Y-130707567D01*
X116048928Y-129226328D01*
X116047033Y-129207090D01*
X116047189Y-129203552D01*
X116046497Y-129201651D01*
X116046046Y-129197064D01*
X116036085Y-129173018D01*
X116027188Y-129148550D01*
X116024928Y-129146082D01*
X116023648Y-129142992D01*
X116005250Y-129124594D01*
X115987661Y-129105387D01*
X115984627Y-129103971D01*
X115982264Y-129101608D01*
X115958233Y-129091654D01*
X115934624Y-129080636D01*
X115931279Y-129080489D01*
X115928192Y-129079210D01*
X115902168Y-129079210D01*
X115876153Y-129078067D01*
X115873010Y-129079210D01*
X115869664Y-129079210D01*
X115845611Y-129089173D01*
X115821151Y-129098068D01*
X115818683Y-129100327D01*
X115815592Y-129101608D01*
X115797183Y-129120016D01*
X115777988Y-129137595D01*
X115775638Y-129141561D01*
X115774208Y-129142992D01*
X115772852Y-129146264D01*
X115763001Y-129162895D01*
X115398928Y-129943051D01*
X115034855Y-129162895D01*
X115025001Y-129146260D01*
X115023648Y-129142992D01*
X115022219Y-129141563D01*
X115019869Y-129137595D01*
X115000661Y-129120005D01*
X114982264Y-129101608D01*
X114979173Y-129100327D01*
X114976706Y-129098068D01*
X114952240Y-129089171D01*
X114928192Y-129079210D01*
X114924846Y-129079210D01*
X114921703Y-129078067D01*
X114895699Y-129079210D01*
X114869664Y-129079210D01*
X114866573Y-129080490D01*
X114863233Y-129080637D01*
X114839637Y-129091647D01*
X114815592Y-129101608D01*
X114813228Y-129103971D01*
X114810195Y-129105387D01*
X114792605Y-129124594D01*
X114774208Y-129142992D01*
X114772927Y-129146082D01*
X114770668Y-129148550D01*
X114761771Y-129173015D01*
X114751810Y-129197064D01*
X114751358Y-129201652D01*
X114750667Y-129203553D01*
X114750822Y-129207091D01*
X114748928Y-129226328D01*
X114253917Y-129226328D01*
X114219279Y-129191690D01*
X114207779Y-129182252D01*
X114205182Y-129179258D01*
X114200665Y-129176415D01*
X114196548Y-129173036D01*
X114192891Y-129171521D01*
X114180296Y-129163593D01*
X114037439Y-129092164D01*
X114009976Y-129081655D01*
X114004601Y-129081273D01*
X113999621Y-129079210D01*
X113970357Y-129076328D01*
X113398928Y-129076328D01*
X113369664Y-129079210D01*
X113315592Y-129101608D01*
X113274208Y-129142992D01*
X113251810Y-129197064D01*
X113248928Y-129226328D01*
X112903189Y-129226328D01*
X112903189Y-129197064D01*
X112880791Y-129142992D01*
X112839407Y-129101608D01*
X112785335Y-129079210D01*
X112756071Y-129076328D01*
X112041785Y-129076328D01*
X112012521Y-129079210D01*
X111958449Y-129101608D01*
X111917065Y-129142992D01*
X111894667Y-129197064D01*
X111891785Y-129226328D01*
X111477499Y-129226328D01*
X111474617Y-129197064D01*
X111452219Y-129142992D01*
X111410835Y-129101608D01*
X111356763Y-129079210D01*
X111298235Y-129079210D01*
X111244163Y-129101608D01*
X111202779Y-129142992D01*
X111180381Y-129197064D01*
X111177499Y-129226328D01*
X111177499Y-129790614D01*
X110620356Y-129790614D01*
X110620356Y-129226328D01*
X110617474Y-129197064D01*
X110595076Y-129142992D01*
X110553692Y-129101608D01*
X110499620Y-129079210D01*
X110441092Y-129079210D01*
X110387020Y-129101608D01*
X110345636Y-129142992D01*
X110323238Y-129197064D01*
X110320356Y-129226328D01*
X110117475Y-129226328D01*
X110117475Y-129197064D01*
X110095077Y-129142992D01*
X110053693Y-129101608D01*
X109999621Y-129079210D01*
X109970357Y-129076328D01*
X109113214Y-129076328D01*
X109083950Y-129079210D01*
X109029878Y-129101608D01*
X108988494Y-129142992D01*
X108966096Y-129197064D01*
X108799429Y-129197064D01*
X108799429Y-128909661D01*
X124215595Y-128909661D01*
X124215595Y-131042995D01*
G37*
G36*
X123549186Y-91328861D02*
G01*
X123649793Y-91429468D01*
X123702972Y-91535827D01*
X123765928Y-91787648D01*
X123765928Y-91965007D01*
X123702972Y-92216828D01*
X123649793Y-92323188D01*
X123549187Y-92423794D01*
X123391585Y-92476328D01*
X123208785Y-92476328D01*
X123208785Y-91276328D01*
X123391588Y-91276328D01*
X123549186Y-91328861D01*
G37*
G36*
X114041361Y-91321035D02*
G01*
X114078365Y-91358039D01*
X114123071Y-91447451D01*
X114123071Y-91590918D01*
X114078364Y-91680331D01*
X114041359Y-91717336D01*
X113951947Y-91762042D01*
X113565928Y-91762042D01*
X113565928Y-91276328D01*
X113951947Y-91276328D01*
X114041361Y-91321035D01*
G37*
G36*
X117064959Y-92047757D02*
G01*
X116766900Y-92047757D01*
X116915929Y-91600669D01*
X117064959Y-92047757D01*
G37*
G36*
X122207816Y-92047757D02*
G01*
X121909757Y-92047757D01*
X122058786Y-91600669D01*
X122207816Y-92047757D01*
G37*
G36*
X120898504Y-91321035D02*
G01*
X120935508Y-91358039D01*
X120980214Y-91447451D01*
X120980214Y-91590918D01*
X120935507Y-91680331D01*
X120898502Y-91717336D01*
X120809090Y-91762042D01*
X120423071Y-91762042D01*
X120423071Y-91276328D01*
X120809090Y-91276328D01*
X120898504Y-91321035D01*
G37*
G36*
X124232595Y-92942995D02*
G01*
X108816429Y-92942995D01*
X108816429Y-91097064D01*
X108983096Y-91097064D01*
X108983096Y-91155592D01*
X109005494Y-91209664D01*
X109046878Y-91251048D01*
X109100950Y-91273446D01*
X109130214Y-91276328D01*
X109408785Y-91276328D01*
X109408785Y-92626328D01*
X109411667Y-92655592D01*
X109434065Y-92709664D01*
X109475449Y-92751048D01*
X109529521Y-92773446D01*
X109588049Y-92773446D01*
X109642121Y-92751048D01*
X109683505Y-92709664D01*
X109705903Y-92655592D01*
X109708785Y-92626328D01*
X109708785Y-91276328D01*
X109987357Y-91276328D01*
X110016621Y-91273446D01*
X110070693Y-91251048D01*
X110112077Y-91209664D01*
X110134475Y-91155592D01*
X110134475Y-91126328D01*
X110337356Y-91126328D01*
X110337356Y-92626328D01*
X110340238Y-92655592D01*
X110362636Y-92709664D01*
X110404020Y-92751048D01*
X110458092Y-92773446D01*
X110516620Y-92773446D01*
X110570692Y-92751048D01*
X110612076Y-92709664D01*
X110634474Y-92655592D01*
X110637356Y-92626328D01*
X110637356Y-91990614D01*
X111194499Y-91990614D01*
X111194499Y-92626328D01*
X111197381Y-92655592D01*
X111219779Y-92709664D01*
X111261163Y-92751048D01*
X111315235Y-92773446D01*
X111373763Y-92773446D01*
X111427835Y-92751048D01*
X111469219Y-92709664D01*
X111491617Y-92655592D01*
X111494499Y-92626328D01*
X111494499Y-91126328D01*
X111908785Y-91126328D01*
X111908785Y-92626328D01*
X111911667Y-92655592D01*
X111934065Y-92709664D01*
X111975449Y-92751048D01*
X112029521Y-92773446D01*
X112058785Y-92776328D01*
X112773071Y-92776328D01*
X112802335Y-92773446D01*
X112856407Y-92751048D01*
X112897791Y-92709664D01*
X112920189Y-92655592D01*
X112920189Y-92597064D01*
X112897791Y-92542992D01*
X112856407Y-92501608D01*
X112802335Y-92479210D01*
X112773071Y-92476328D01*
X112208785Y-92476328D01*
X112208785Y-91990614D01*
X112558785Y-91990614D01*
X112588049Y-91987732D01*
X112642121Y-91965334D01*
X112683505Y-91923950D01*
X112705903Y-91869878D01*
X112705903Y-91811350D01*
X112683505Y-91757278D01*
X112642121Y-91715894D01*
X112588049Y-91693496D01*
X112558785Y-91690614D01*
X112208785Y-91690614D01*
X112208785Y-91276328D01*
X112773071Y-91276328D01*
X112802335Y-91273446D01*
X112856407Y-91251048D01*
X112897791Y-91209664D01*
X112920189Y-91155592D01*
X112920189Y-91126328D01*
X113265928Y-91126328D01*
X113265928Y-92626328D01*
X113268810Y-92655592D01*
X113291208Y-92709664D01*
X113332592Y-92751048D01*
X113386664Y-92773446D01*
X113445192Y-92773446D01*
X113499264Y-92751048D01*
X113540648Y-92709664D01*
X113563046Y-92655592D01*
X113565928Y-92626328D01*
X113565928Y-92062042D01*
X113694973Y-92062042D01*
X114150186Y-92712347D01*
X114169329Y-92734669D01*
X114218686Y-92766122D01*
X114276322Y-92776293D01*
X114333464Y-92763634D01*
X114381412Y-92730070D01*
X114412865Y-92680713D01*
X114423036Y-92623077D01*
X114410377Y-92565935D01*
X114395956Y-92540309D01*
X114051004Y-92047520D01*
X114054439Y-92046206D01*
X114197296Y-91974778D01*
X114209889Y-91966850D01*
X114213549Y-91965335D01*
X114217668Y-91961953D01*
X114222182Y-91959113D01*
X114224778Y-91956119D01*
X114236280Y-91946680D01*
X114307709Y-91875251D01*
X114317150Y-91863746D01*
X114320142Y-91861152D01*
X114322980Y-91856642D01*
X114326364Y-91852520D01*
X114327880Y-91848858D01*
X114335807Y-91836267D01*
X114407235Y-91693409D01*
X114417745Y-91665946D01*
X114418126Y-91660570D01*
X114420189Y-91655592D01*
X114423071Y-91626328D01*
X114423071Y-91412042D01*
X114420189Y-91382778D01*
X114418126Y-91377799D01*
X114417745Y-91372424D01*
X114407235Y-91344961D01*
X114335807Y-91202103D01*
X114327878Y-91189508D01*
X114326363Y-91185849D01*
X114322981Y-91181728D01*
X114320142Y-91177218D01*
X114317150Y-91174623D01*
X114307708Y-91163118D01*
X114270917Y-91126328D01*
X114765928Y-91126328D01*
X114765928Y-92626328D01*
X114768810Y-92655592D01*
X114791208Y-92709664D01*
X114832592Y-92751048D01*
X114886664Y-92773446D01*
X114945192Y-92773446D01*
X114999264Y-92751048D01*
X115040648Y-92709664D01*
X115063046Y-92655592D01*
X115065928Y-92626328D01*
X115065928Y-91802461D01*
X115280001Y-92261190D01*
X115286347Y-92271903D01*
X115287668Y-92275535D01*
X115290019Y-92278103D01*
X115294988Y-92286490D01*
X115311793Y-92301880D01*
X115327195Y-92318698D01*
X115333238Y-92321518D01*
X115338151Y-92326017D01*
X115359571Y-92333806D01*
X115380233Y-92343448D01*
X115386890Y-92343740D01*
X115393153Y-92346018D01*
X115415932Y-92345017D01*
X115438703Y-92346018D01*
X115444962Y-92343741D01*
X115451624Y-92343449D01*
X115472291Y-92333804D01*
X115493706Y-92326017D01*
X115498619Y-92321517D01*
X115504661Y-92318698D01*
X115520056Y-92301885D01*
X115536869Y-92286490D01*
X115541837Y-92278101D01*
X115544188Y-92275535D01*
X115545507Y-92271905D01*
X115551855Y-92261190D01*
X115765928Y-91802462D01*
X115765928Y-92626328D01*
X115768810Y-92655592D01*
X115791208Y-92709664D01*
X115832592Y-92751048D01*
X115886664Y-92773446D01*
X115945192Y-92773446D01*
X115999264Y-92751048D01*
X116040648Y-92709664D01*
X116063046Y-92655592D01*
X116065928Y-92626328D01*
X116065928Y-92607567D01*
X116267107Y-92607567D01*
X116271256Y-92665948D01*
X116297430Y-92718295D01*
X116341644Y-92756642D01*
X116397168Y-92775150D01*
X116455549Y-92771001D01*
X116507896Y-92744827D01*
X116546243Y-92700613D01*
X116558231Y-92673762D01*
X116666900Y-92347757D01*
X117164959Y-92347757D01*
X117273627Y-92673762D01*
X117285615Y-92700613D01*
X117323962Y-92744828D01*
X117376310Y-92771001D01*
X117434690Y-92775151D01*
X117490214Y-92756642D01*
X117534428Y-92718295D01*
X117560602Y-92665948D01*
X117564752Y-92607568D01*
X117558232Y-92578894D01*
X117074042Y-91126328D01*
X117765928Y-91126328D01*
X117765928Y-92626328D01*
X117768810Y-92655592D01*
X117791208Y-92709664D01*
X117832592Y-92751048D01*
X117886664Y-92773446D01*
X117915928Y-92776328D01*
X118630214Y-92776328D01*
X118659478Y-92773446D01*
X118713550Y-92751048D01*
X118754934Y-92709664D01*
X118777332Y-92655592D01*
X118777332Y-92597064D01*
X118754934Y-92542992D01*
X118713550Y-92501608D01*
X118659478Y-92479210D01*
X118630214Y-92476328D01*
X118065928Y-92476328D01*
X118065928Y-91126328D01*
X120123071Y-91126328D01*
X120123071Y-92626328D01*
X120125953Y-92655592D01*
X120148351Y-92709664D01*
X120189735Y-92751048D01*
X120243807Y-92773446D01*
X120302335Y-92773446D01*
X120356407Y-92751048D01*
X120397791Y-92709664D01*
X120420189Y-92655592D01*
X120423071Y-92626328D01*
X120423071Y-92607567D01*
X121409964Y-92607567D01*
X121414113Y-92665948D01*
X121440287Y-92718295D01*
X121484501Y-92756642D01*
X121540025Y-92775150D01*
X121598406Y-92771001D01*
X121650753Y-92744827D01*
X121689100Y-92700613D01*
X121701088Y-92673762D01*
X121809757Y-92347757D01*
X122307816Y-92347757D01*
X122416484Y-92673762D01*
X122428472Y-92700613D01*
X122466819Y-92744828D01*
X122519167Y-92771001D01*
X122577547Y-92775151D01*
X122633071Y-92756642D01*
X122677285Y-92718295D01*
X122703459Y-92665948D01*
X122707609Y-92607568D01*
X122701089Y-92578894D01*
X122216899Y-91126328D01*
X122908785Y-91126328D01*
X122908785Y-92626328D01*
X122911667Y-92655592D01*
X122934065Y-92709664D01*
X122975449Y-92751048D01*
X123029521Y-92773446D01*
X123058785Y-92776328D01*
X123415928Y-92776328D01*
X123430733Y-92774869D01*
X123434688Y-92775151D01*
X123439889Y-92773968D01*
X123445192Y-92773446D01*
X123448849Y-92771930D01*
X123463362Y-92768631D01*
X123677648Y-92697203D01*
X123704499Y-92685215D01*
X123708570Y-92681683D01*
X123713550Y-92679621D01*
X123736280Y-92660966D01*
X123879137Y-92518108D01*
X123888575Y-92506606D01*
X123891570Y-92504010D01*
X123894410Y-92499496D01*
X123897792Y-92495377D01*
X123899307Y-92491717D01*
X123907235Y-92479124D01*
X123978664Y-92336268D01*
X123979483Y-92334125D01*
X123980128Y-92333256D01*
X123984512Y-92320984D01*
X123989173Y-92308804D01*
X123989249Y-92307723D01*
X123990021Y-92305565D01*
X124061449Y-92019851D01*
X124062198Y-92014779D01*
X124063046Y-92012735D01*
X124064131Y-92001712D01*
X124065751Y-91990762D01*
X124065425Y-91988574D01*
X124065928Y-91983471D01*
X124065928Y-91769185D01*
X124065425Y-91764081D01*
X124065751Y-91761894D01*
X124064131Y-91750943D01*
X124063046Y-91739921D01*
X124062198Y-91737876D01*
X124061449Y-91732805D01*
X123990021Y-91447091D01*
X123989249Y-91444932D01*
X123989173Y-91443852D01*
X123984512Y-91431671D01*
X123980128Y-91419400D01*
X123979483Y-91418530D01*
X123978664Y-91416388D01*
X123907235Y-91273532D01*
X123899308Y-91260940D01*
X123897792Y-91257278D01*
X123894408Y-91253155D01*
X123891570Y-91248646D01*
X123888577Y-91246050D01*
X123879137Y-91234548D01*
X123736280Y-91091691D01*
X123713549Y-91073036D01*
X123708569Y-91070973D01*
X123704499Y-91067443D01*
X123677648Y-91055454D01*
X123463362Y-90984026D01*
X123448854Y-90980727D01*
X123445192Y-90979210D01*
X123439883Y-90978687D01*
X123434689Y-90977506D01*
X123430739Y-90977786D01*
X123415928Y-90976328D01*
X123058785Y-90976328D01*
X123029521Y-90979210D01*
X122975449Y-91001608D01*
X122934065Y-91042992D01*
X122911667Y-91097064D01*
X122908785Y-91126328D01*
X122216899Y-91126328D01*
X122201088Y-91078894D01*
X122189100Y-91052043D01*
X122182077Y-91043946D01*
X122177285Y-91034361D01*
X122163076Y-91022037D01*
X122150753Y-91007829D01*
X122141167Y-91003036D01*
X122133071Y-90996014D01*
X122115227Y-90990065D01*
X122098406Y-90981655D01*
X122087717Y-90980895D01*
X122077547Y-90977505D01*
X122058781Y-90978838D01*
X122040025Y-90977506D01*
X122029857Y-90980895D01*
X122019167Y-90981655D01*
X122002343Y-90990066D01*
X121984501Y-90996014D01*
X121976406Y-91003034D01*
X121966819Y-91007828D01*
X121954493Y-91022039D01*
X121940287Y-91034361D01*
X121935494Y-91043945D01*
X121928472Y-91052043D01*
X121916484Y-91078894D01*
X121416484Y-92578894D01*
X121409964Y-92607567D01*
X120423071Y-92607567D01*
X120423071Y-92062042D01*
X120844500Y-92062042D01*
X120873764Y-92059160D01*
X120878742Y-92057097D01*
X120884118Y-92056716D01*
X120911582Y-92046206D01*
X121054439Y-91974778D01*
X121067032Y-91966850D01*
X121070692Y-91965335D01*
X121074811Y-91961953D01*
X121079325Y-91959113D01*
X121081921Y-91956119D01*
X121093423Y-91946680D01*
X121164852Y-91875251D01*
X121174293Y-91863746D01*
X121177285Y-91861152D01*
X121180123Y-91856642D01*
X121183507Y-91852520D01*
X121185023Y-91848858D01*
X121192950Y-91836267D01*
X121264378Y-91693409D01*
X121274888Y-91665946D01*
X121275269Y-91660570D01*
X121277332Y-91655592D01*
X121280214Y-91626328D01*
X121280214Y-91412042D01*
X121277332Y-91382778D01*
X121275269Y-91377799D01*
X121274888Y-91372424D01*
X121264378Y-91344961D01*
X121192950Y-91202103D01*
X121185021Y-91189508D01*
X121183506Y-91185849D01*
X121180124Y-91181728D01*
X121177285Y-91177218D01*
X121174293Y-91174623D01*
X121164851Y-91163118D01*
X121093422Y-91091690D01*
X121081922Y-91082252D01*
X121079325Y-91079258D01*
X121074808Y-91076415D01*
X121070691Y-91073036D01*
X121067034Y-91071521D01*
X121054439Y-91063593D01*
X120911582Y-90992164D01*
X120884119Y-90981655D01*
X120878744Y-90981273D01*
X120873764Y-90979210D01*
X120844500Y-90976328D01*
X120273071Y-90976328D01*
X120243807Y-90979210D01*
X120189735Y-91001608D01*
X120148351Y-91042992D01*
X120125953Y-91097064D01*
X120123071Y-91126328D01*
X118065928Y-91126328D01*
X118063046Y-91097064D01*
X118040648Y-91042992D01*
X117999264Y-91001608D01*
X117945192Y-90979210D01*
X117886664Y-90979210D01*
X117832592Y-91001608D01*
X117791208Y-91042992D01*
X117768810Y-91097064D01*
X117765928Y-91126328D01*
X117074042Y-91126328D01*
X117058231Y-91078894D01*
X117046243Y-91052043D01*
X117039220Y-91043946D01*
X117034428Y-91034361D01*
X117020219Y-91022037D01*
X117007896Y-91007829D01*
X116998310Y-91003036D01*
X116990214Y-90996014D01*
X116972370Y-90990065D01*
X116955549Y-90981655D01*
X116944860Y-90980895D01*
X116934690Y-90977505D01*
X116915924Y-90978838D01*
X116897168Y-90977506D01*
X116887000Y-90980895D01*
X116876310Y-90981655D01*
X116859486Y-90990066D01*
X116841644Y-90996014D01*
X116833549Y-91003034D01*
X116823962Y-91007828D01*
X116811636Y-91022039D01*
X116797430Y-91034361D01*
X116792637Y-91043945D01*
X116785615Y-91052043D01*
X116773627Y-91078894D01*
X116273627Y-92578894D01*
X116267107Y-92607567D01*
X116065928Y-92607567D01*
X116065928Y-91126328D01*
X116064033Y-91107090D01*
X116064189Y-91103552D01*
X116063497Y-91101651D01*
X116063046Y-91097064D01*
X116053085Y-91073018D01*
X116044188Y-91048550D01*
X116041928Y-91046082D01*
X116040648Y-91042992D01*
X116022250Y-91024594D01*
X116004661Y-91005387D01*
X116001627Y-91003971D01*
X115999264Y-91001608D01*
X115975233Y-90991654D01*
X115951624Y-90980636D01*
X115948279Y-90980489D01*
X115945192Y-90979210D01*
X115919168Y-90979210D01*
X115893153Y-90978067D01*
X115890010Y-90979210D01*
X115886664Y-90979210D01*
X115862611Y-90989173D01*
X115838151Y-90998068D01*
X115835683Y-91000327D01*
X115832592Y-91001608D01*
X115814183Y-91020016D01*
X115794988Y-91037595D01*
X115792638Y-91041561D01*
X115791208Y-91042992D01*
X115789852Y-91046264D01*
X115780001Y-91062895D01*
X115415928Y-91843051D01*
X115051855Y-91062895D01*
X115042001Y-91046260D01*
X115040648Y-91042992D01*
X115039219Y-91041563D01*
X115036869Y-91037595D01*
X115017661Y-91020005D01*
X114999264Y-91001608D01*
X114996173Y-91000327D01*
X114993706Y-90998068D01*
X114969240Y-90989171D01*
X114945192Y-90979210D01*
X114941846Y-90979210D01*
X114938703Y-90978067D01*
X114912699Y-90979210D01*
X114886664Y-90979210D01*
X114883573Y-90980490D01*
X114880233Y-90980637D01*
X114856637Y-90991647D01*
X114832592Y-91001608D01*
X114830228Y-91003971D01*
X114827195Y-91005387D01*
X114809605Y-91024594D01*
X114791208Y-91042992D01*
X114789927Y-91046082D01*
X114787668Y-91048550D01*
X114778771Y-91073015D01*
X114768810Y-91097064D01*
X114768358Y-91101652D01*
X114767667Y-91103553D01*
X114767822Y-91107091D01*
X114765928Y-91126328D01*
X114270917Y-91126328D01*
X114236279Y-91091690D01*
X114224779Y-91082252D01*
X114222182Y-91079258D01*
X114217665Y-91076415D01*
X114213548Y-91073036D01*
X114209891Y-91071521D01*
X114197296Y-91063593D01*
X114054439Y-90992164D01*
X114026976Y-90981655D01*
X114021601Y-90981273D01*
X114016621Y-90979210D01*
X113987357Y-90976328D01*
X113415928Y-90976328D01*
X113386664Y-90979210D01*
X113332592Y-91001608D01*
X113291208Y-91042992D01*
X113268810Y-91097064D01*
X113265928Y-91126328D01*
X112920189Y-91126328D01*
X112920189Y-91097064D01*
X112897791Y-91042992D01*
X112856407Y-91001608D01*
X112802335Y-90979210D01*
X112773071Y-90976328D01*
X112058785Y-90976328D01*
X112029521Y-90979210D01*
X111975449Y-91001608D01*
X111934065Y-91042992D01*
X111911667Y-91097064D01*
X111908785Y-91126328D01*
X111494499Y-91126328D01*
X111491617Y-91097064D01*
X111469219Y-91042992D01*
X111427835Y-91001608D01*
X111373763Y-90979210D01*
X111315235Y-90979210D01*
X111261163Y-91001608D01*
X111219779Y-91042992D01*
X111197381Y-91097064D01*
X111194499Y-91126328D01*
X111194499Y-91690614D01*
X110637356Y-91690614D01*
X110637356Y-91126328D01*
X110634474Y-91097064D01*
X110612076Y-91042992D01*
X110570692Y-91001608D01*
X110516620Y-90979210D01*
X110458092Y-90979210D01*
X110404020Y-91001608D01*
X110362636Y-91042992D01*
X110340238Y-91097064D01*
X110337356Y-91126328D01*
X110134475Y-91126328D01*
X110134475Y-91097064D01*
X110112077Y-91042992D01*
X110070693Y-91001608D01*
X110016621Y-90979210D01*
X109987357Y-90976328D01*
X109130214Y-90976328D01*
X109100950Y-90979210D01*
X109046878Y-91001608D01*
X109005494Y-91042992D01*
X108983096Y-91097064D01*
X108816429Y-91097064D01*
X108816429Y-90809661D01*
X124232595Y-90809661D01*
X124232595Y-92942995D01*
G37*
D11*
X124860136Y-104195457D02*
X124907755Y-104147838D01*
X124907755Y-104147838D02*
X125002993Y-104100219D01*
X125002993Y-104100219D02*
X125241088Y-104100219D01*
X125241088Y-104100219D02*
X125336326Y-104147838D01*
X125336326Y-104147838D02*
X125383945Y-104195457D01*
X125383945Y-104195457D02*
X125431564Y-104290695D01*
X125431564Y-104290695D02*
X125431564Y-104385933D01*
X125431564Y-104385933D02*
X125383945Y-104528790D01*
X125383945Y-104528790D02*
X124812517Y-105100219D01*
X124812517Y-105100219D02*
X125431564Y-105100219D01*
X126288707Y-104433552D02*
X126288707Y-105100219D01*
X126050612Y-104052600D02*
X125812517Y-104766885D01*
X125812517Y-104766885D02*
X126431564Y-104766885D01*
X107446482Y-127896844D02*
X106875054Y-127896844D01*
X107160768Y-127896844D02*
X107160768Y-126896844D01*
X107160768Y-126896844D02*
X107065530Y-127039701D01*
X107065530Y-127039701D02*
X106970292Y-127134939D01*
X106970292Y-127134939D02*
X106875054Y-127182558D01*
X108303625Y-127230177D02*
X108303625Y-127896844D01*
X108065530Y-126849225D02*
X107827435Y-127563510D01*
X107827435Y-127563510D02*
X108446482Y-127563510D01*
D13*
G36*
X116598074Y-95166457D02*
G01*
X116608133Y-95173280D01*
X116622593Y-95183529D01*
X116640544Y-95196554D01*
X116661076Y-95211702D01*
X116679756Y-95225667D01*
X116807072Y-95316777D01*
X116936902Y-95400495D01*
X117069293Y-95476842D01*
X117204292Y-95545839D01*
X117341947Y-95607509D01*
X117482306Y-95661873D01*
X117625415Y-95708951D01*
X117771324Y-95748766D01*
X117903922Y-95778179D01*
X117928491Y-95782770D01*
X117952247Y-95786698D01*
X117973396Y-95789702D01*
X117990141Y-95791524D01*
X117999173Y-95791955D01*
X118011820Y-95792327D01*
X118020643Y-95793575D01*
X118023589Y-95795226D01*
X118027211Y-95798703D01*
X118036958Y-95801543D01*
X118051146Y-95803415D01*
X118068091Y-95803989D01*
X118068176Y-95803988D01*
X118078711Y-95804346D01*
X118095240Y-95805475D01*
X118115998Y-95807230D01*
X118139220Y-95809463D01*
X118156409Y-95811278D01*
X118182866Y-95814045D01*
X118210569Y-95816707D01*
X118236957Y-95819031D01*
X118259468Y-95820789D01*
X118268721Y-95821398D01*
X118286190Y-95822630D01*
X118300367Y-95824000D01*
X118309696Y-95825332D01*
X118312660Y-95826353D01*
X118316284Y-95827221D01*
X118326062Y-95827691D01*
X118340344Y-95827717D01*
X118351725Y-95827459D01*
X118368117Y-95827237D01*
X118381124Y-95827624D01*
X118389095Y-95828537D01*
X118390797Y-95829413D01*
X118394532Y-95830268D01*
X118405054Y-95831037D01*
X118421338Y-95831687D01*
X118442357Y-95832186D01*
X118467087Y-95832501D01*
X118492362Y-95832602D01*
X118519610Y-95832494D01*
X118544096Y-95832191D01*
X118564795Y-95831721D01*
X118580680Y-95831114D01*
X118590727Y-95830401D01*
X118593932Y-95829672D01*
X118597505Y-95828209D01*
X118606884Y-95827159D01*
X118620063Y-95826743D01*
X118620501Y-95826742D01*
X118657122Y-95825790D01*
X118700013Y-95823050D01*
X118747879Y-95818692D01*
X118799426Y-95812888D01*
X118853361Y-95805810D01*
X118908388Y-95797631D01*
X118963215Y-95788520D01*
X119016548Y-95778651D01*
X119067092Y-95768194D01*
X119075061Y-95766427D01*
X119210370Y-95732213D01*
X119345291Y-95690332D01*
X119479523Y-95640928D01*
X119612767Y-95584147D01*
X119744722Y-95520133D01*
X119875089Y-95449031D01*
X120003567Y-95370987D01*
X120129856Y-95286145D01*
X120245255Y-95201132D01*
X120266115Y-95185768D01*
X120281800Y-95175813D01*
X120292637Y-95171129D01*
X120298952Y-95171576D01*
X120301070Y-95177015D01*
X120301072Y-95177281D01*
X120303793Y-95180854D01*
X120311757Y-95189637D01*
X120324670Y-95203328D01*
X120342236Y-95221627D01*
X120364160Y-95244234D01*
X120390147Y-95270846D01*
X120419901Y-95301164D01*
X120453127Y-95334887D01*
X120489530Y-95371714D01*
X120528814Y-95411344D01*
X120570684Y-95453477D01*
X120614845Y-95497812D01*
X120661001Y-95544048D01*
X120674713Y-95557765D01*
X120734279Y-95617383D01*
X120788357Y-95671612D01*
X120837031Y-95720538D01*
X120880385Y-95764248D01*
X120918503Y-95802828D01*
X120951471Y-95836363D01*
X120979373Y-95864942D01*
X121002293Y-95888650D01*
X121020316Y-95907573D01*
X121033527Y-95921797D01*
X121042009Y-95931410D01*
X121045848Y-95936498D01*
X121046094Y-95937309D01*
X121041666Y-95942060D01*
X121032288Y-95948746D01*
X121020625Y-95955567D01*
X121011647Y-95961085D01*
X121000900Y-95969173D01*
X120987727Y-95980428D01*
X120971467Y-95995444D01*
X120951462Y-96014816D01*
X120927054Y-96039141D01*
X120917565Y-96048717D01*
X120883173Y-96083742D01*
X120853355Y-96114681D01*
X120826981Y-96142788D01*
X120802920Y-96169316D01*
X120780043Y-96195519D01*
X120757219Y-96222651D01*
X120733319Y-96251965D01*
X120725015Y-96262316D01*
X120663182Y-96343484D01*
X120608193Y-96424042D01*
X120559320Y-96505318D01*
X120515839Y-96588643D01*
X120477024Y-96675346D01*
X120442148Y-96766756D01*
X120429658Y-96803365D01*
X120405671Y-96879514D01*
X120385819Y-96951018D01*
X120369793Y-97019657D01*
X120357281Y-97087211D01*
X120347974Y-97155459D01*
X120341559Y-97226181D01*
X120337728Y-97301157D01*
X120336788Y-97335629D01*
X120336264Y-97365733D01*
X120335993Y-97392984D01*
X120335969Y-97416464D01*
X120336185Y-97435257D01*
X120336634Y-97448447D01*
X120337309Y-97455116D01*
X120337648Y-97455753D01*
X120339061Y-97459320D01*
X120339677Y-97468740D01*
X120339386Y-97482080D01*
X120339271Y-97484071D01*
X120339034Y-97500760D01*
X120339862Y-97521727D01*
X120341587Y-97543535D01*
X120342698Y-97553411D01*
X120359489Y-97656100D01*
X120383876Y-97758943D01*
X120415662Y-97861536D01*
X120454649Y-97963475D01*
X120500641Y-98064356D01*
X120553441Y-98163775D01*
X120612850Y-98261327D01*
X120678673Y-98356608D01*
X120750711Y-98449215D01*
X120817241Y-98526141D01*
X120841697Y-98552894D01*
X120864466Y-98577419D01*
X120885000Y-98599149D01*
X120902748Y-98617520D01*
X120917162Y-98631964D01*
X120927692Y-98641917D01*
X120933789Y-98646812D01*
X120934828Y-98647228D01*
X120938744Y-98649867D01*
X120947026Y-98657122D01*
X120958600Y-98668000D01*
X120972393Y-98681508D01*
X120978202Y-98687336D01*
X120993806Y-98702815D01*
X121008823Y-98717215D01*
X121021764Y-98729140D01*
X121031143Y-98737197D01*
X121032783Y-98738463D01*
X121041323Y-98745974D01*
X121046075Y-98752496D01*
X121046456Y-98754698D01*
X121043601Y-98758461D01*
X121035850Y-98767315D01*
X121023715Y-98780708D01*
X121007706Y-98798091D01*
X120988333Y-98818912D01*
X120966108Y-98842622D01*
X120941540Y-98868670D01*
X120915141Y-98896505D01*
X120906359Y-98905732D01*
X120877130Y-98936443D01*
X120847625Y-98967492D01*
X120818661Y-98998018D01*
X120791052Y-99027158D01*
X120765614Y-99054052D01*
X120743163Y-99077839D01*
X120724514Y-99097656D01*
X120711034Y-99112051D01*
X120694473Y-99129772D01*
X120673675Y-99151969D01*
X120649770Y-99177437D01*
X120623888Y-99204975D01*
X120597161Y-99233380D01*
X120570717Y-99261448D01*
X120554994Y-99278119D01*
X120528630Y-99306118D01*
X120500720Y-99335863D01*
X120472516Y-99366015D01*
X120445270Y-99395232D01*
X120420234Y-99422172D01*
X120398659Y-99445493D01*
X120389069Y-99455914D01*
X120370429Y-99476120D01*
X120353124Y-99494701D01*
X120337980Y-99510781D01*
X120325824Y-99523488D01*
X120317482Y-99531948D01*
X120314229Y-99534978D01*
X120302162Y-99540243D01*
X120286359Y-99541814D01*
X120278422Y-99541510D01*
X120271191Y-99540143D01*
X120263300Y-99537033D01*
X120253385Y-99531502D01*
X120240080Y-99522869D01*
X120222020Y-99510455D01*
X120218611Y-99508082D01*
X120126758Y-99445178D01*
X120039347Y-99387662D01*
X119955602Y-99335112D01*
X119874742Y-99287103D01*
X119795989Y-99243214D01*
X119718563Y-99203021D01*
X119641686Y-99166102D01*
X119564578Y-99132033D01*
X119486461Y-99100391D01*
X119425696Y-99077620D01*
X119286639Y-99031194D01*
X119146192Y-98992227D01*
X119004170Y-98960697D01*
X118860389Y-98936581D01*
X118714666Y-98919857D01*
X118566815Y-98910503D01*
X118416654Y-98908497D01*
X118263998Y-98913815D01*
X118144690Y-98922884D01*
X118000653Y-98940254D01*
X117858027Y-98965282D01*
X117716930Y-98997922D01*
X117577479Y-99038127D01*
X117439793Y-99085851D01*
X117303988Y-99141047D01*
X117170182Y-99203667D01*
X117038493Y-99273666D01*
X116909039Y-99350997D01*
X116781937Y-99435613D01*
X116696697Y-99497450D01*
X116668760Y-99518023D01*
X116645827Y-99533867D01*
X116626986Y-99545359D01*
X116611328Y-99552880D01*
X116597945Y-99556807D01*
X116585926Y-99557519D01*
X116574363Y-99555395D01*
X116565366Y-99552136D01*
X116558469Y-99548269D01*
X116546454Y-99540527D01*
X116530474Y-99529696D01*
X116511680Y-99516559D01*
X116491227Y-99501903D01*
X116486045Y-99498134D01*
X116362817Y-99411774D01*
X116240095Y-99332928D01*
X116117430Y-99261354D01*
X115994371Y-99196814D01*
X115870466Y-99139066D01*
X115745267Y-99087869D01*
X115657817Y-99056213D01*
X115535012Y-99017672D01*
X115407562Y-98984606D01*
X115276522Y-98957144D01*
X115142944Y-98935415D01*
X115007883Y-98919549D01*
X114872392Y-98909674D01*
X114737524Y-98905920D01*
X114604333Y-98908416D01*
X114503339Y-98914697D01*
X114357319Y-98930436D01*
X114213569Y-98953546D01*
X114071871Y-98984090D01*
X113932009Y-99022128D01*
X113793765Y-99067721D01*
X113656923Y-99120932D01*
X113521265Y-99181822D01*
X113471420Y-99206263D01*
X113444215Y-99219975D01*
X113418819Y-99232949D01*
X113394685Y-99245515D01*
X113371265Y-99258004D01*
X113348010Y-99270746D01*
X113324371Y-99284070D01*
X113299802Y-99298308D01*
X113273752Y-99313790D01*
X113245675Y-99330847D01*
X113215023Y-99349807D01*
X113181246Y-99371003D01*
X113143796Y-99394764D01*
X113102126Y-99421420D01*
X113055688Y-99451302D01*
X113003932Y-99484740D01*
X112946311Y-99522064D01*
X112933106Y-99530627D01*
X112916871Y-99540853D01*
X112902598Y-99549281D01*
X112891758Y-99555083D01*
X112885821Y-99557427D01*
X112885605Y-99557440D01*
X112881651Y-99554694D01*
X112872951Y-99546855D01*
X112860111Y-99534526D01*
X112843736Y-99518307D01*
X112824430Y-99498801D01*
X112802797Y-99476609D01*
X112779444Y-99452333D01*
X112770689Y-99443154D01*
X112737178Y-99407925D01*
X112706895Y-99376053D01*
X112679180Y-99346832D01*
X112653376Y-99319555D01*
X112628821Y-99293517D01*
X112604858Y-99268013D01*
X112580826Y-99242336D01*
X112556066Y-99215782D01*
X112529918Y-99187643D01*
X112501724Y-99157215D01*
X112470824Y-99123791D01*
X112436558Y-99086667D01*
X112398268Y-99045136D01*
X112359365Y-99002912D01*
X112346276Y-98988756D01*
X112328885Y-98970029D01*
X112308241Y-98947855D01*
X112285390Y-98923357D01*
X112261380Y-98897658D01*
X112237259Y-98871883D01*
X112227334Y-98861290D01*
X112205839Y-98838206D01*
X112186160Y-98816771D01*
X112168915Y-98797686D01*
X112154725Y-98781647D01*
X112144208Y-98769354D01*
X112137985Y-98761503D01*
X112136508Y-98758948D01*
X112139311Y-98754611D01*
X112147045Y-98746214D01*
X112158698Y-98734767D01*
X112173258Y-98721281D01*
X112182409Y-98713122D01*
X112209442Y-98688692D01*
X112239645Y-98660281D01*
X112271610Y-98629299D01*
X112303931Y-98597151D01*
X112335200Y-98565247D01*
X112364010Y-98534994D01*
X112388954Y-98507800D01*
X112398635Y-98496828D01*
X112475360Y-98403218D01*
X112544533Y-98307693D01*
X112561960Y-98280126D01*
X114308673Y-98280126D01*
X114434448Y-98279095D01*
X114560223Y-98278065D01*
X114673642Y-97972627D01*
X114690983Y-97925972D01*
X114707565Y-97881440D01*
X114723184Y-97839574D01*
X114737638Y-97800915D01*
X114750722Y-97766007D01*
X114762233Y-97735389D01*
X114771968Y-97709605D01*
X114779722Y-97689196D01*
X114785292Y-97674704D01*
X114788475Y-97666671D01*
X114789155Y-97665176D01*
X114790745Y-97668460D01*
X114794736Y-97678578D01*
X114800934Y-97694996D01*
X114809145Y-97717180D01*
X114819174Y-97744595D01*
X114830828Y-97776708D01*
X114843911Y-97812982D01*
X114858231Y-97852884D01*
X114873592Y-97895879D01*
X114889800Y-97941433D01*
X114900490Y-97971577D01*
X115009731Y-98279990D01*
X115125949Y-98280004D01*
X115155180Y-98279928D01*
X115181715Y-98279704D01*
X115204597Y-98279354D01*
X115222865Y-98278897D01*
X115235562Y-98278355D01*
X115241729Y-98277747D01*
X115242167Y-98277531D01*
X115241022Y-98273566D01*
X115237676Y-98262589D01*
X115232269Y-98245043D01*
X115224938Y-98221373D01*
X115215822Y-98192020D01*
X115205059Y-98157429D01*
X115192787Y-98118043D01*
X115179144Y-98074304D01*
X115164268Y-98026657D01*
X115148298Y-97975545D01*
X115131371Y-97921410D01*
X115113626Y-97864697D01*
X115095200Y-97805847D01*
X115092133Y-97796056D01*
X115073515Y-97736610D01*
X115055490Y-97679041D01*
X115038201Y-97623811D01*
X115021792Y-97571378D01*
X115006407Y-97522203D01*
X114992191Y-97476747D01*
X114979286Y-97435469D01*
X114967837Y-97398830D01*
X114963653Y-97385432D01*
X114961306Y-97377915D01*
X115517575Y-97377915D01*
X115517575Y-97385432D01*
X115517591Y-97467951D01*
X115517641Y-97542977D01*
X115517727Y-97610832D01*
X115517852Y-97671835D01*
X115518019Y-97726306D01*
X115518231Y-97774567D01*
X115518489Y-97816938D01*
X115518797Y-97853738D01*
X115519158Y-97885289D01*
X115519573Y-97911911D01*
X115520046Y-97933925D01*
X115520579Y-97951650D01*
X115521175Y-97965407D01*
X115521837Y-97975517D01*
X115522495Y-97981791D01*
X115531560Y-98032401D01*
X115544160Y-98079181D01*
X115559852Y-98120570D01*
X115564814Y-98131131D01*
X115582904Y-98167801D01*
X115562936Y-98221358D01*
X115555874Y-98240462D01*
X115549910Y-98256915D01*
X115545526Y-98269356D01*
X115543208Y-98276424D01*
X115542967Y-98277466D01*
X115546683Y-98278185D01*
X115557072Y-98278776D01*
X115572993Y-98279242D01*
X115593307Y-98279584D01*
X115616874Y-98279805D01*
X115642556Y-98279906D01*
X115669211Y-98279891D01*
X115695701Y-98279760D01*
X115720887Y-98279516D01*
X115743627Y-98279161D01*
X115762784Y-98278696D01*
X115777217Y-98278125D01*
X115785786Y-98277448D01*
X115787593Y-98277028D01*
X115789678Y-98272987D01*
X115794105Y-98262520D01*
X115800533Y-98246537D01*
X115808618Y-98225948D01*
X115818017Y-98201666D01*
X115828388Y-98174599D01*
X115839389Y-98145660D01*
X115850676Y-98115758D01*
X115861907Y-98085805D01*
X115872740Y-98056710D01*
X115882831Y-98029385D01*
X115891838Y-98004741D01*
X115899419Y-97983687D01*
X115905231Y-97967135D01*
X115908930Y-97955996D01*
X115910177Y-97951230D01*
X115911520Y-97947085D01*
X115915397Y-97936235D01*
X115921583Y-97919282D01*
X115929850Y-97896829D01*
X115939973Y-97869479D01*
X115951726Y-97837837D01*
X115964881Y-97802504D01*
X115979214Y-97764084D01*
X115994496Y-97723179D01*
X116010503Y-97680394D01*
X116027008Y-97636331D01*
X116043784Y-97591593D01*
X116060606Y-97546784D01*
X116077246Y-97502506D01*
X116093479Y-97459362D01*
X116109079Y-97417956D01*
X116123818Y-97378891D01*
X116137471Y-97342770D01*
X116149812Y-97310196D01*
X116160613Y-97281772D01*
X116169650Y-97258101D01*
X116176695Y-97239786D01*
X116181522Y-97227431D01*
X116183905Y-97221638D01*
X116184045Y-97221359D01*
X116184546Y-97224258D01*
X116185002Y-97234432D01*
X116185409Y-97251342D01*
X116185763Y-97274449D01*
X116186060Y-97303217D01*
X116186297Y-97337107D01*
X116186468Y-97375579D01*
X116186571Y-97418097D01*
X116186600Y-97464121D01*
X116186553Y-97513114D01*
X116186480Y-97545877D01*
X116185585Y-97876254D01*
X116173806Y-97899284D01*
X116164051Y-97915495D01*
X116152968Y-97927088D01*
X116143021Y-97934064D01*
X116134129Y-97939211D01*
X116125915Y-97942711D01*
X116116409Y-97944984D01*
X116103646Y-97946452D01*
X116085656Y-97947538D01*
X116078624Y-97947867D01*
X116033232Y-97949920D01*
X115984299Y-98080787D01*
X115972344Y-98112784D01*
X115960711Y-98143971D01*
X115949819Y-98173214D01*
X115940090Y-98199381D01*
X115931946Y-98221338D01*
X115925808Y-98237953D01*
X115922797Y-98246164D01*
X115910228Y-98280673D01*
X116055719Y-98279074D01*
X116093835Y-98278628D01*
X116125047Y-98278173D01*
X116150265Y-98277659D01*
X116170399Y-98277034D01*
X116186359Y-98276246D01*
X116199054Y-98275244D01*
X116209393Y-98273976D01*
X116218286Y-98272390D01*
X116226642Y-98270435D01*
X116231683Y-98269090D01*
X116269759Y-98255993D01*
X116302980Y-98238522D01*
X116333632Y-98215343D01*
X116349748Y-98200156D01*
X116375428Y-98170740D01*
X116396650Y-98138177D01*
X116413859Y-98101474D01*
X116427503Y-98059636D01*
X116438027Y-98011666D01*
X116440287Y-97998195D01*
X116441252Y-97991724D01*
X116442125Y-97984818D01*
X116442910Y-97977077D01*
X116443613Y-97968098D01*
X116444237Y-97957480D01*
X116444787Y-97944821D01*
X116445269Y-97929720D01*
X116445686Y-97911775D01*
X116446043Y-97890585D01*
X116446344Y-97865748D01*
X116446595Y-97836862D01*
X116446799Y-97803526D01*
X116446962Y-97765339D01*
X116446976Y-97760355D01*
X116765699Y-97760355D01*
X116765776Y-97862950D01*
X116766200Y-97909975D01*
X116767518Y-97950362D01*
X116769919Y-97985254D01*
X116773588Y-98015793D01*
X116778712Y-98043123D01*
X116785478Y-98068386D01*
X116794073Y-98092724D01*
X116804683Y-98117282D01*
X116808698Y-98125712D01*
X116831356Y-98165534D01*
X116857724Y-98198877D01*
X116888532Y-98226488D01*
X116924511Y-98249110D01*
X116934844Y-98254286D01*
X116949797Y-98261199D01*
X116963951Y-98267075D01*
X116978074Y-98271994D01*
X116992931Y-98276035D01*
X117009290Y-98279277D01*
X117027919Y-98281802D01*
X117049583Y-98283688D01*
X117075049Y-98285015D01*
X117105086Y-98285864D01*
X117140459Y-98286314D01*
X117181936Y-98286445D01*
X117230284Y-98286337D01*
X117242290Y-98286287D01*
X117284892Y-98286087D01*
X117320463Y-98285869D01*
X117349786Y-98285598D01*
X117373643Y-98285241D01*
X117392816Y-98284763D01*
X117408088Y-98284128D01*
X117420242Y-98283304D01*
X117430058Y-98282255D01*
X117438320Y-98280946D01*
X117445811Y-98279343D01*
X117453312Y-98277413D01*
X117455194Y-98276898D01*
X117500411Y-98260980D01*
X117540737Y-98239342D01*
X117576360Y-98211792D01*
X117607470Y-98178138D01*
X117634254Y-98138184D01*
X117656902Y-98091740D01*
X117669880Y-98056819D01*
X117679104Y-98027323D01*
X117686425Y-97999498D01*
X117692035Y-97971869D01*
X117696126Y-97942956D01*
X117698888Y-97911283D01*
X117700515Y-97875373D01*
X117701197Y-97833747D01*
X117701249Y-97815146D01*
X117701137Y-97780933D01*
X117700784Y-97753411D01*
X117700135Y-97731462D01*
X117699133Y-97713965D01*
X117697724Y-97699802D01*
X117695852Y-97687852D01*
X117694680Y-97682154D01*
X117680653Y-97632202D01*
X117661110Y-97584518D01*
X117635753Y-97538751D01*
X117604283Y-97494547D01*
X117566400Y-97451557D01*
X117521806Y-97409428D01*
X117470201Y-97367809D01*
X117411286Y-97326348D01*
X117369251Y-97299514D01*
X117305798Y-97259084D01*
X117249696Y-97220519D01*
X117200755Y-97183643D01*
X117158784Y-97148280D01*
X117123592Y-97114254D01*
X117094989Y-97081389D01*
X117072784Y-97049511D01*
X117056787Y-97018441D01*
X117052445Y-97007233D01*
X117048169Y-96993707D01*
X117045411Y-96980649D01*
X117043863Y-96965680D01*
X117043220Y-96946419D01*
X117043142Y-96935106D01*
X117043059Y-96889102D01*
X117060277Y-96871884D01*
X117068536Y-96864069D01*
X117076681Y-96857767D01*
X117085639Y-96852817D01*
X117096339Y-96849057D01*
X117109708Y-96846325D01*
X117126674Y-96844461D01*
X117148167Y-96843302D01*
X117175113Y-96842686D01*
X117208442Y-96842453D01*
X117229452Y-96842430D01*
X117264505Y-96842487D01*
X117292705Y-96842764D01*
X117315012Y-96843414D01*
X117332387Y-96844592D01*
X117345790Y-96846453D01*
X117356181Y-96849151D01*
X117364519Y-96852841D01*
X117371766Y-96857677D01*
X117378881Y-96863815D01*
X117382296Y-96867043D01*
X117398780Y-96887535D01*
X117411670Y-96914119D01*
X117421071Y-96947100D01*
X117427086Y-96986781D01*
X117428362Y-97001619D01*
X117430955Y-97037754D01*
X117567106Y-97037754D01*
X117703256Y-97037754D01*
X117703256Y-96937663D01*
X117702911Y-96893101D01*
X117701789Y-96855096D01*
X117699763Y-96822420D01*
X117696707Y-96793845D01*
X117692494Y-96768143D01*
X117686996Y-96744084D01*
X117681115Y-96723681D01*
X117662535Y-96675116D01*
X117652441Y-96656815D01*
X117988430Y-96656815D01*
X117988430Y-96822815D01*
X118159339Y-96823833D01*
X118330248Y-96824850D01*
X118331235Y-97552434D01*
X118332222Y-98280018D01*
X118459162Y-98280018D01*
X118586103Y-98280018D01*
X119261946Y-98280018D01*
X119730725Y-98280018D01*
X120199504Y-98280018D01*
X120199504Y-98113992D01*
X120199504Y-97947966D01*
X119861592Y-97947966D01*
X119523681Y-97947966D01*
X119523681Y-97221359D01*
X119523681Y-96494752D01*
X119395409Y-96494752D01*
X119267137Y-96494752D01*
X119264544Y-96778949D01*
X119264237Y-96816895D01*
X119263940Y-96861929D01*
X119263656Y-96913327D01*
X119263386Y-96970364D01*
X119263133Y-97032315D01*
X119262898Y-97098456D01*
X119262685Y-97168061D01*
X119262494Y-97240407D01*
X119262328Y-97314769D01*
X119262190Y-97390421D01*
X119262081Y-97466640D01*
X119262003Y-97542700D01*
X119261959Y-97617877D01*
X119261949Y-97671582D01*
X119261946Y-98280018D01*
X118586103Y-98280018D01*
X118587089Y-97552434D01*
X118588076Y-96824850D01*
X118759028Y-96823833D01*
X118929979Y-96822815D01*
X118928960Y-96657807D01*
X118927941Y-96492799D01*
X118458186Y-96491806D01*
X117988430Y-96490814D01*
X117988430Y-96656815D01*
X117652441Y-96656815D01*
X117639120Y-96632665D01*
X117610723Y-96596198D01*
X117577204Y-96565583D01*
X117538417Y-96540688D01*
X117494219Y-96521382D01*
X117445428Y-96507738D01*
X117436672Y-96506014D01*
X117427411Y-96504587D01*
X117416839Y-96503432D01*
X117404145Y-96502520D01*
X117388521Y-96501823D01*
X117369157Y-96501315D01*
X117345247Y-96500967D01*
X117315979Y-96500753D01*
X117280546Y-96500643D01*
X117238139Y-96500612D01*
X117236431Y-96500612D01*
X117192646Y-96500636D01*
X117155820Y-96500753D01*
X117125100Y-96501023D01*
X117099632Y-96501512D01*
X117078563Y-96502282D01*
X117061039Y-96503396D01*
X117046205Y-96504919D01*
X117033210Y-96506911D01*
X117021199Y-96509438D01*
X117009318Y-96512563D01*
X116996714Y-96516348D01*
X116988369Y-96518988D01*
X116943859Y-96536769D01*
X116904504Y-96560101D01*
X116870209Y-96589107D01*
X116840881Y-96623912D01*
X116816423Y-96664637D01*
X116796742Y-96711409D01*
X116781743Y-96764349D01*
X116775223Y-96797505D01*
X116772894Y-96815763D01*
X116770861Y-96840297D01*
X116769156Y-96869576D01*
X116767812Y-96902065D01*
X116766862Y-96936234D01*
X116766338Y-96970549D01*
X116766272Y-97003479D01*
X116766696Y-97033491D01*
X116767643Y-97059052D01*
X116769146Y-97078631D01*
X116769255Y-97079586D01*
X116778954Y-97134215D01*
X116795084Y-97185858D01*
X116817960Y-97235150D01*
X116847893Y-97282723D01*
X116885199Y-97329210D01*
X116902043Y-97347420D01*
X116931607Y-97376823D01*
X116962188Y-97404223D01*
X116995065Y-97430599D01*
X117031520Y-97456930D01*
X117072835Y-97484194D01*
X117115330Y-97510400D01*
X117170712Y-97544666D01*
X117221594Y-97578154D01*
X117267608Y-97610567D01*
X117308383Y-97641603D01*
X117343549Y-97670966D01*
X117372739Y-97698355D01*
X117395582Y-97723471D01*
X117411708Y-97746016D01*
X117415886Y-97753621D01*
X117419653Y-97761597D01*
X117422333Y-97768991D01*
X117424106Y-97777321D01*
X117425156Y-97788109D01*
X117425665Y-97802875D01*
X117425814Y-97823140D01*
X117425810Y-97836422D01*
X117425259Y-97867542D01*
X117423392Y-97891957D01*
X117419740Y-97910727D01*
X117413837Y-97924915D01*
X117405216Y-97935580D01*
X117393410Y-97943785D01*
X117377952Y-97950590D01*
X117375111Y-97951619D01*
X117366676Y-97953234D01*
X117351694Y-97954705D01*
X117331430Y-97956008D01*
X117307149Y-97957123D01*
X117280116Y-97958025D01*
X117251596Y-97958693D01*
X117222853Y-97959105D01*
X117195154Y-97959237D01*
X117169762Y-97959068D01*
X117147943Y-97958576D01*
X117130962Y-97957737D01*
X117120084Y-97956530D01*
X117118437Y-97956160D01*
X117097133Y-97946364D01*
X117079259Y-97929629D01*
X117064868Y-97906063D01*
X117054014Y-97875773D01*
X117046751Y-97838866D01*
X117043633Y-97805922D01*
X117041106Y-97762408D01*
X116903402Y-97761381D01*
X116765699Y-97760355D01*
X116446976Y-97760355D01*
X116447087Y-97721898D01*
X116447180Y-97672803D01*
X116447245Y-97617651D01*
X116447287Y-97556042D01*
X116447310Y-97487573D01*
X116447319Y-97411843D01*
X116447320Y-97381525D01*
X116447315Y-97303065D01*
X116447299Y-97232021D01*
X116447266Y-97167996D01*
X116447213Y-97110596D01*
X116447133Y-97059422D01*
X116447024Y-97014078D01*
X116446880Y-96974169D01*
X116446696Y-96939296D01*
X116446469Y-96909065D01*
X116446193Y-96883077D01*
X116445864Y-96860938D01*
X116445478Y-96842250D01*
X116445029Y-96826616D01*
X116444513Y-96813641D01*
X116443927Y-96802928D01*
X116443264Y-96794079D01*
X116442521Y-96786700D01*
X116441692Y-96780392D01*
X116440775Y-96774760D01*
X116440288Y-96772113D01*
X116433665Y-96739692D01*
X116426854Y-96712172D01*
X116419079Y-96686663D01*
X116411633Y-96665741D01*
X116401774Y-96639453D01*
X116429430Y-96565895D01*
X116437841Y-96543396D01*
X116445222Y-96523406D01*
X116451158Y-96507071D01*
X116455234Y-96495534D01*
X116456753Y-96490814D01*
X116457035Y-96489938D01*
X116457086Y-96489638D01*
X116453336Y-96488972D01*
X116442715Y-96488365D01*
X116426162Y-96487839D01*
X116404620Y-96487415D01*
X116379029Y-96487114D01*
X116350329Y-96486957D01*
X116336409Y-96486939D01*
X116215732Y-96486939D01*
X116209896Y-96501588D01*
X116207506Y-96507823D01*
X116202646Y-96520694D01*
X116195574Y-96539519D01*
X116186545Y-96563611D01*
X116175816Y-96592286D01*
X116163643Y-96624859D01*
X116150282Y-96660646D01*
X116135989Y-96698961D01*
X116121101Y-96738908D01*
X116105198Y-96781566D01*
X116089230Y-96824349D01*
X116073559Y-96866290D01*
X116058549Y-96906419D01*
X116044561Y-96943768D01*
X116031959Y-96977369D01*
X116021105Y-97006254D01*
X116012361Y-97029454D01*
X116007740Y-97041661D01*
X116000999Y-97059436D01*
X115991826Y-97083647D01*
X115980551Y-97113422D01*
X115967505Y-97147889D01*
X115953018Y-97186174D01*
X115937420Y-97227406D01*
X115921041Y-97270713D01*
X115904210Y-97315221D01*
X115887259Y-97360058D01*
X115882836Y-97371759D01*
X115866785Y-97414221D01*
X115851439Y-97454807D01*
X115837041Y-97492884D01*
X115823829Y-97527815D01*
X115812044Y-97558965D01*
X115801927Y-97585698D01*
X115793718Y-97607380D01*
X115787657Y-97623375D01*
X115783985Y-97633048D01*
X115783069Y-97635447D01*
X115782180Y-97636845D01*
X115781399Y-97635856D01*
X115780720Y-97632070D01*
X115780138Y-97625074D01*
X115779649Y-97614457D01*
X115779246Y-97599806D01*
X115778925Y-97580711D01*
X115778681Y-97556760D01*
X115778508Y-97527540D01*
X115778402Y-97492641D01*
X115778356Y-97451650D01*
X115778366Y-97404155D01*
X115778427Y-97349746D01*
X115778534Y-97288009D01*
X115778558Y-97276050D01*
X115779310Y-96902980D01*
X115788309Y-96883448D01*
X115802356Y-96859758D01*
X115820311Y-96842063D01*
X115834001Y-96833486D01*
X115841320Y-96830179D01*
X115849801Y-96827739D01*
X115860927Y-96825962D01*
X115876180Y-96824646D01*
X115897042Y-96823585D01*
X115909657Y-96823101D01*
X115969688Y-96820944D01*
X116027619Y-96665491D01*
X116040017Y-96632196D01*
X116051624Y-96600974D01*
X116062142Y-96572629D01*
X116071274Y-96547964D01*
X116078723Y-96527784D01*
X116084192Y-96512890D01*
X116087383Y-96504088D01*
X116088049Y-96502167D01*
X116088511Y-96500273D01*
X116088134Y-96498717D01*
X116086241Y-96497471D01*
X116082159Y-96496509D01*
X116075213Y-96495806D01*
X116064726Y-96495333D01*
X116050025Y-96495065D01*
X116030435Y-96494975D01*
X116005280Y-96495037D01*
X115973886Y-96495225D01*
X115935577Y-96495511D01*
X115921256Y-96495623D01*
X115880380Y-96495955D01*
X115846516Y-96496279D01*
X115818866Y-96496637D01*
X115796627Y-96497072D01*
X115779002Y-96497626D01*
X115765188Y-96498343D01*
X115754387Y-96499263D01*
X115745798Y-96500431D01*
X115738620Y-96501887D01*
X115732055Y-96503676D01*
X115725302Y-96505839D01*
X115724619Y-96506066D01*
X115683179Y-96522855D01*
X115646974Y-96544046D01*
X115615722Y-96570029D01*
X115589140Y-96601190D01*
X115566944Y-96637920D01*
X115548851Y-96680607D01*
X115534579Y-96729639D01*
X115524555Y-96780845D01*
X115523587Y-96787349D01*
X115522713Y-96794321D01*
X115521927Y-96802168D01*
X115521225Y-96811296D01*
X115520602Y-96822111D01*
X115520054Y-96835017D01*
X115519575Y-96850423D01*
X115519162Y-96868732D01*
X115518809Y-96890352D01*
X115518512Y-96915688D01*
X115518266Y-96945146D01*
X115518067Y-96979131D01*
X115517909Y-97018051D01*
X115517788Y-97062311D01*
X115517699Y-97112317D01*
X115517639Y-97168474D01*
X115517601Y-97231189D01*
X115517581Y-97300867D01*
X115517575Y-97377915D01*
X114961306Y-97377915D01*
X114957988Y-97367289D01*
X114949882Y-97341308D01*
X114943663Y-97321345D01*
X114939476Y-97307862D01*
X114937463Y-97301318D01*
X114937374Y-97301018D01*
X114936666Y-97298401D01*
X114936212Y-97295608D01*
X114936158Y-97292215D01*
X114936652Y-97287801D01*
X114937841Y-97281945D01*
X114939872Y-97274224D01*
X114942894Y-97264217D01*
X114947051Y-97251501D01*
X114952493Y-97235655D01*
X114959367Y-97216257D01*
X114967818Y-97192885D01*
X114977996Y-97165117D01*
X114990046Y-97132531D01*
X115004117Y-97094706D01*
X115020355Y-97051219D01*
X115038907Y-97001649D01*
X115059922Y-96945574D01*
X115081548Y-96887897D01*
X115101518Y-96834626D01*
X115120702Y-96783418D01*
X115138922Y-96734749D01*
X115156002Y-96689089D01*
X115171766Y-96646913D01*
X115186037Y-96608694D01*
X115198640Y-96574903D01*
X115209396Y-96546015D01*
X115218130Y-96522502D01*
X115224666Y-96504838D01*
X115228826Y-96493495D01*
X115230434Y-96488946D01*
X115230448Y-96488883D01*
X115226696Y-96488409D01*
X115216059Y-96487977D01*
X115199465Y-96487602D01*
X115177840Y-96487297D01*
X115152114Y-96487077D01*
X115123214Y-96486957D01*
X115106299Y-96486939D01*
X114982150Y-96486939D01*
X114896325Y-96717848D01*
X114881214Y-96758425D01*
X114866829Y-96796903D01*
X114853412Y-96832642D01*
X114841205Y-96865007D01*
X114830449Y-96893359D01*
X114821388Y-96917060D01*
X114814262Y-96935474D01*
X114809315Y-96947962D01*
X114806787Y-96953888D01*
X114806594Y-96954229D01*
X114804879Y-96953452D01*
X114801620Y-96948105D01*
X114796667Y-96937830D01*
X114789871Y-96922267D01*
X114781081Y-96901057D01*
X114770149Y-96873844D01*
X114756926Y-96840268D01*
X114741261Y-96799970D01*
X114728646Y-96767268D01*
X114713834Y-96728784D01*
X114699340Y-96691145D01*
X114685507Y-96655244D01*
X114672679Y-96621973D01*
X114661201Y-96592224D01*
X114651418Y-96566892D01*
X114643673Y-96546866D01*
X114638310Y-96533041D01*
X114637471Y-96530887D01*
X114620338Y-96486939D01*
X114503655Y-96486939D01*
X114386972Y-96486939D01*
X114498563Y-96818014D01*
X114515850Y-96869312D01*
X114533001Y-96920224D01*
X114549772Y-96970023D01*
X114565918Y-97017983D01*
X114581195Y-97063377D01*
X114595359Y-97105480D01*
X114608164Y-97143564D01*
X114619367Y-97176903D01*
X114628723Y-97204771D01*
X114635988Y-97226441D01*
X114639515Y-97236985D01*
X114668877Y-97324881D01*
X114499981Y-97772174D01*
X114478385Y-97829373D01*
X114457407Y-97884944D01*
X114437231Y-97938402D01*
X114418038Y-97989265D01*
X114400011Y-98037049D01*
X114383331Y-98081272D01*
X114368181Y-98121451D01*
X114354743Y-98157102D01*
X114343199Y-98187742D01*
X114333732Y-98212888D01*
X114326523Y-98232057D01*
X114321754Y-98244767D01*
X114319879Y-98249797D01*
X114308673Y-98280126D01*
X112561960Y-98280126D01*
X112606171Y-98210190D01*
X112660290Y-98110651D01*
X112706908Y-98009013D01*
X112746041Y-97905217D01*
X112777706Y-97799200D01*
X112801921Y-97690904D01*
X112818702Y-97580266D01*
X112828066Y-97467227D01*
X112829390Y-97389338D01*
X113202979Y-97389338D01*
X113202979Y-98280018D01*
X113347499Y-98280018D01*
X113492019Y-98280018D01*
X113493016Y-97920461D01*
X113494013Y-97560905D01*
X113662563Y-97919485D01*
X113831114Y-98278065D01*
X113980225Y-98279088D01*
X114013397Y-98279240D01*
X114043908Y-98279233D01*
X114070926Y-98279080D01*
X114093617Y-98278790D01*
X114111150Y-98278376D01*
X114122693Y-98277849D01*
X114127412Y-98277219D01*
X114127469Y-98277090D01*
X114125437Y-98272758D01*
X114120546Y-98261819D01*
X114113024Y-98244792D01*
X114103095Y-98222197D01*
X114090985Y-98194554D01*
X114076920Y-98162382D01*
X114061125Y-98126201D01*
X114043827Y-98086531D01*
X114025250Y-98043892D01*
X114005621Y-97998803D01*
X113985166Y-97951784D01*
X113964109Y-97903354D01*
X113942678Y-97854034D01*
X113921096Y-97804343D01*
X113899591Y-97754802D01*
X113878387Y-97705928D01*
X113857711Y-97658243D01*
X113837788Y-97612266D01*
X113818844Y-97568517D01*
X113801105Y-97527515D01*
X113784795Y-97489781D01*
X113770142Y-97455833D01*
X113757370Y-97426192D01*
X113746706Y-97401378D01*
X113738374Y-97381909D01*
X113732601Y-97368306D01*
X113729613Y-97361089D01*
X113729233Y-97360040D01*
X113730844Y-97356064D01*
X113735554Y-97345447D01*
X113743161Y-97328628D01*
X113753462Y-97306047D01*
X113766255Y-97278143D01*
X113781337Y-97245357D01*
X113798505Y-97208127D01*
X113817557Y-97166893D01*
X113838290Y-97122096D01*
X113860501Y-97074173D01*
X113883988Y-97023566D01*
X113908548Y-96970713D01*
X113925518Y-96934232D01*
X113950722Y-96880051D01*
X113975019Y-96827778D01*
X113998204Y-96777856D01*
X114020072Y-96730730D01*
X114040417Y-96686843D01*
X114059034Y-96646639D01*
X114075718Y-96610561D01*
X114090264Y-96579054D01*
X114102466Y-96552561D01*
X114112119Y-96531526D01*
X114119019Y-96516392D01*
X114122958Y-96507604D01*
X114123838Y-96505495D01*
X114123961Y-96503724D01*
X114122716Y-96502288D01*
X114119376Y-96501151D01*
X114113217Y-96500279D01*
X114103514Y-96499636D01*
X114089540Y-96499190D01*
X114070570Y-96498903D01*
X114045880Y-96498742D01*
X114014744Y-96498672D01*
X113981255Y-96498658D01*
X113836687Y-96498658D01*
X113665499Y-96822897D01*
X113640820Y-96869593D01*
X113617156Y-96914275D01*
X113594763Y-96956465D01*
X113573898Y-96995684D01*
X113554816Y-97031456D01*
X113537773Y-97063301D01*
X113523024Y-97090743D01*
X113510827Y-97113304D01*
X113501436Y-97130505D01*
X113495107Y-97141868D01*
X113492097Y-97146917D01*
X113491892Y-97147136D01*
X113491543Y-97143325D01*
X113491253Y-97132276D01*
X113491021Y-97114562D01*
X113490850Y-97090757D01*
X113490740Y-97061436D01*
X113490692Y-97027172D01*
X113490708Y-96988539D01*
X113490787Y-96946113D01*
X113490933Y-96900466D01*
X113491144Y-96852172D01*
X113491299Y-96822897D01*
X113493126Y-96498658D01*
X113348053Y-96498658D01*
X113202979Y-96498658D01*
X113202979Y-97389338D01*
X112829390Y-97389338D01*
X112830030Y-97351725D01*
X112824611Y-97233700D01*
X112811826Y-97113090D01*
X112802296Y-97049474D01*
X112779606Y-96935196D01*
X112749544Y-96823132D01*
X112712260Y-96713641D01*
X112667907Y-96607080D01*
X112616638Y-96503808D01*
X112613638Y-96498658D01*
X112558606Y-96404182D01*
X112493962Y-96308561D01*
X112477110Y-96285755D01*
X112429785Y-96225975D01*
X112377128Y-96165117D01*
X112321001Y-96105155D01*
X112263262Y-96048068D01*
X112205773Y-95995832D01*
X112198035Y-95989176D01*
X112181496Y-95974759D01*
X112167280Y-95961809D01*
X112156374Y-95951271D01*
X112149768Y-95944090D01*
X112148227Y-95941510D01*
X112150708Y-95938213D01*
X112158176Y-95930037D01*
X112170673Y-95916941D01*
X112188240Y-95898885D01*
X112210917Y-95875827D01*
X112238745Y-95847728D01*
X112271764Y-95814547D01*
X112310016Y-95776242D01*
X112353541Y-95732773D01*
X112402379Y-95684099D01*
X112456572Y-95630180D01*
X112516160Y-95570975D01*
X112581184Y-95506442D01*
X112651685Y-95436542D01*
X112727703Y-95361234D01*
X112768580Y-95320760D01*
X112801084Y-95288696D01*
X112828536Y-95261900D01*
X112851333Y-95240042D01*
X112869869Y-95222789D01*
X112884542Y-95209810D01*
X112895748Y-95200774D01*
X112903882Y-95195349D01*
X112909340Y-95193204D01*
X112912520Y-95194007D01*
X112913817Y-95197427D01*
X112913899Y-95199145D01*
X112917128Y-95203241D01*
X112926357Y-95210927D01*
X112940899Y-95221749D01*
X112960070Y-95235256D01*
X112983182Y-95250994D01*
X113009549Y-95268511D01*
X113038487Y-95287353D01*
X113069307Y-95307069D01*
X113101325Y-95327205D01*
X113133855Y-95347309D01*
X113166209Y-95366928D01*
X113186490Y-95379011D01*
X113317158Y-95452840D01*
X113448949Y-95520546D01*
X113581278Y-95581883D01*
X113713559Y-95636601D01*
X113845208Y-95684453D01*
X113975639Y-95725190D01*
X114052830Y-95746054D01*
X114097659Y-95757118D01*
X114141975Y-95767426D01*
X114184851Y-95776801D01*
X114225358Y-95785065D01*
X114262570Y-95792041D01*
X114295561Y-95797552D01*
X114323402Y-95801421D01*
X114345167Y-95803470D01*
X114354418Y-95803755D01*
X114368160Y-95804101D01*
X114378226Y-95805153D01*
X114382675Y-95806694D01*
X114382740Y-95806917D01*
X114385856Y-95809599D01*
X114395424Y-95811894D01*
X114411772Y-95813841D01*
X114435231Y-95815478D01*
X114466128Y-95816841D01*
X114470622Y-95816998D01*
X114490376Y-95817865D01*
X114507097Y-95818975D01*
X114519354Y-95820204D01*
X114525715Y-95821428D01*
X114526280Y-95821819D01*
X114530360Y-95823116D01*
X114540168Y-95823729D01*
X114553642Y-95823536D01*
X114554615Y-95823492D01*
X114568080Y-95823277D01*
X114577844Y-95823930D01*
X114581939Y-95825309D01*
X114581962Y-95825445D01*
X114585592Y-95826670D01*
X114595416Y-95827444D01*
X114609822Y-95827689D01*
X114622980Y-95827467D01*
X114639813Y-95827245D01*
X114653300Y-95827604D01*
X114661831Y-95828466D01*
X114664008Y-95829421D01*
X114667722Y-95830376D01*
X114678094Y-95831217D01*
X114693969Y-95831897D01*
X114714190Y-95832371D01*
X114737605Y-95832591D01*
X114744092Y-95832602D01*
X114768149Y-95832454D01*
X114789314Y-95832042D01*
X114806433Y-95831412D01*
X114818351Y-95830608D01*
X114823912Y-95829678D01*
X114824174Y-95829421D01*
X114827807Y-95828224D01*
X114837634Y-95827473D01*
X114852042Y-95827242D01*
X114865199Y-95827467D01*
X114882032Y-95827764D01*
X114895518Y-95827606D01*
X114904045Y-95827039D01*
X114906218Y-95826353D01*
X114909857Y-95825204D01*
X114919744Y-95823856D01*
X114934322Y-95822485D01*
X114950157Y-95821379D01*
X115037190Y-95814111D01*
X115129053Y-95802578D01*
X115224240Y-95787087D01*
X115321242Y-95767940D01*
X115418551Y-95745442D01*
X115514659Y-95719897D01*
X115608059Y-95691609D01*
X115630863Y-95684126D01*
X115756409Y-95638729D01*
X115882668Y-95586157D01*
X116008762Y-95526882D01*
X116133813Y-95461377D01*
X116256941Y-95390116D01*
X116377268Y-95313571D01*
X116493914Y-95232216D01*
X116554259Y-95187068D01*
X116569340Y-95176115D01*
X116581887Y-95168178D01*
X116590575Y-95164050D01*
X116593324Y-95163712D01*
X116598074Y-95166457D01*
G37*
G36*
X120304024Y-94688278D02*
G01*
X120319020Y-94705854D01*
X120334371Y-94723221D01*
X120350862Y-94741194D01*
X120369279Y-94760591D01*
X120390407Y-94782230D01*
X120415032Y-94806929D01*
X120443938Y-94835504D01*
X120470677Y-94861706D01*
X120490295Y-94880900D01*
X120514809Y-94904921D01*
X120543551Y-94933112D01*
X120575851Y-94964817D01*
X120611042Y-94999379D01*
X120648454Y-95036142D01*
X120687419Y-95074447D01*
X120727269Y-95113638D01*
X120767335Y-95153059D01*
X120806947Y-95192052D01*
X120818682Y-95203608D01*
X120861796Y-95246051D01*
X120908354Y-95291861D01*
X120957326Y-95340025D01*
X121007680Y-95389529D01*
X121058384Y-95439360D01*
X121108409Y-95488505D01*
X121156722Y-95535950D01*
X121202293Y-95580682D01*
X121244090Y-95621688D01*
X121271835Y-95648892D01*
X121320917Y-95697012D01*
X121364701Y-95739964D01*
X121403479Y-95778043D01*
X121437544Y-95811540D01*
X121467187Y-95840748D01*
X121492699Y-95865960D01*
X121514372Y-95887468D01*
X121532498Y-95905565D01*
X121547369Y-95920545D01*
X121559276Y-95932698D01*
X121568510Y-95942319D01*
X121575365Y-95949700D01*
X121580130Y-95955133D01*
X121583099Y-95958912D01*
X121584562Y-95961328D01*
X121584812Y-95962675D01*
X121584731Y-95962860D01*
X121580958Y-95966254D01*
X121572007Y-95973278D01*
X121559066Y-95983033D01*
X121543318Y-95994614D01*
X121536356Y-95999660D01*
X121516896Y-96013887D01*
X121496963Y-96028776D01*
X121478747Y-96042671D01*
X121464437Y-96053917D01*
X121462999Y-96055082D01*
X121449867Y-96065619D01*
X121432512Y-96079342D01*
X121412917Y-96094691D01*
X121393068Y-96110107D01*
X121387077Y-96114731D01*
X121306023Y-96179447D01*
X121230235Y-96244604D01*
X121160185Y-96309744D01*
X121096342Y-96374413D01*
X121039180Y-96438155D01*
X120991414Y-96497537D01*
X120932029Y-96582180D01*
X120879513Y-96670234D01*
X120833811Y-96761841D01*
X120794865Y-96857144D01*
X120762621Y-96956284D01*
X120737023Y-97059404D01*
X120718015Y-97166645D01*
X120712841Y-97205733D01*
X120709704Y-97238868D01*
X120707460Y-97277756D01*
X120706109Y-97320459D01*
X120705653Y-97365034D01*
X120706093Y-97409540D01*
X120707429Y-97452037D01*
X120709664Y-97490583D01*
X120712666Y-97522159D01*
X120728868Y-97626243D01*
X120751833Y-97726426D01*
X120781586Y-97822759D01*
X120818150Y-97915296D01*
X120861552Y-98004089D01*
X120911815Y-98089191D01*
X120968964Y-98170655D01*
X121033025Y-98248534D01*
X121072288Y-98290975D01*
X121098609Y-98317212D01*
X121130786Y-98347382D01*
X121168895Y-98381549D01*
X121213013Y-98419778D01*
X121263215Y-98462133D01*
X121319579Y-98508679D01*
X121382180Y-98559480D01*
X121451095Y-98614601D01*
X121498392Y-98652052D01*
X121520771Y-98669883D01*
X121541060Y-98686378D01*
X121558461Y-98700865D01*
X121572178Y-98712667D01*
X121581412Y-98721111D01*
X121585369Y-98725522D01*
X121585452Y-98725750D01*
X121582888Y-98729134D01*
X121575093Y-98737931D01*
X121562264Y-98751936D01*
X121544597Y-98770941D01*
X121522288Y-98794740D01*
X121495535Y-98823126D01*
X121464533Y-98855894D01*
X121429478Y-98892835D01*
X121390568Y-98933745D01*
X121347999Y-98978415D01*
X121301967Y-99026640D01*
X121252669Y-99078214D01*
X121200300Y-99132928D01*
X121145059Y-99190578D01*
X121087140Y-99250956D01*
X121026741Y-99313856D01*
X120968882Y-99374054D01*
X120911177Y-99434064D01*
X120854769Y-99492721D01*
X120799907Y-99549767D01*
X120746841Y-99604940D01*
X120695822Y-99657983D01*
X120647098Y-99708636D01*
X120600920Y-99756638D01*
X120557536Y-99801731D01*
X120517198Y-99843655D01*
X120480154Y-99882150D01*
X120446654Y-99916957D01*
X120416948Y-99947816D01*
X120391286Y-99974468D01*
X120369917Y-99996654D01*
X120353091Y-100014113D01*
X120341058Y-100026587D01*
X120334067Y-100033815D01*
X120332556Y-100035366D01*
X120313938Y-100054279D01*
X120212773Y-99972675D01*
X120164816Y-99934152D01*
X120121852Y-99900015D01*
X120082940Y-99869561D01*
X120047143Y-99842088D01*
X120013524Y-99816894D01*
X119981143Y-99793275D01*
X119949064Y-99770531D01*
X119916346Y-99747958D01*
X119882054Y-99724854D01*
X119879171Y-99722933D01*
X119776025Y-99657085D01*
X119671086Y-99595604D01*
X119565280Y-99538949D01*
X119459535Y-99487575D01*
X119354778Y-99441941D01*
X119251938Y-99402503D01*
X119179910Y-99378298D01*
X119052400Y-99342179D01*
X118921820Y-99313239D01*
X118788184Y-99291480D01*
X118651509Y-99276902D01*
X118511809Y-99269509D01*
X118369099Y-99269300D01*
X118223394Y-99276277D01*
X118152503Y-99282170D01*
X118031859Y-99297032D01*
X117910679Y-99318772D01*
X117790188Y-99347059D01*
X117671612Y-99381563D01*
X117556175Y-99421956D01*
X117445103Y-99467906D01*
X117420036Y-99479350D01*
X117401193Y-99488103D01*
X117381502Y-99497238D01*
X117364330Y-99505190D01*
X117359485Y-99507430D01*
X117305484Y-99533899D01*
X117247107Y-99565293D01*
X117185403Y-99600914D01*
X117121423Y-99640066D01*
X117056218Y-99682052D01*
X116990838Y-99726177D01*
X116926333Y-99771743D01*
X116863754Y-99818055D01*
X116804152Y-99864415D01*
X116748576Y-99910128D01*
X116736400Y-99920541D01*
X116720119Y-99934577D01*
X116699848Y-99952057D01*
X116677513Y-99971322D01*
X116655036Y-99990711D01*
X116639764Y-100003888D01*
X116621548Y-100019298D01*
X116604949Y-100032761D01*
X116591002Y-100043486D01*
X116580741Y-100050679D01*
X116575200Y-100053546D01*
X116574979Y-100053565D01*
X116568611Y-100050288D01*
X116559880Y-100041252D01*
X116552637Y-100031598D01*
X116541156Y-100017267D01*
X116523555Y-99998644D01*
X116500085Y-99975963D01*
X116470994Y-99949457D01*
X116436533Y-99919358D01*
X116396950Y-99885900D01*
X116394566Y-99883914D01*
X116278522Y-99791756D01*
X116160949Y-99707214D01*
X116041702Y-99630216D01*
X115920636Y-99560688D01*
X115797606Y-99498557D01*
X115672468Y-99443751D01*
X115545076Y-99396197D01*
X115415286Y-99355821D01*
X115282953Y-99322551D01*
X115277849Y-99321421D01*
X115157451Y-99298288D01*
X115033070Y-99280919D01*
X114906075Y-99269383D01*
X114777833Y-99263750D01*
X114649713Y-99264091D01*
X114523083Y-99270475D01*
X114437430Y-99278424D01*
X114302172Y-99297343D01*
X114168365Y-99323917D01*
X114036117Y-99358107D01*
X113905537Y-99399870D01*
X113776734Y-99449166D01*
X113649815Y-99505954D01*
X113524890Y-99570192D01*
X113402066Y-99641840D01*
X113298689Y-99709021D01*
X113267778Y-99730298D01*
X113238446Y-99750986D01*
X113209500Y-99771978D01*
X113179745Y-99794170D01*
X113147985Y-99818455D01*
X113113028Y-99845727D01*
X113073677Y-99876883D01*
X113060393Y-99887475D01*
X113021572Y-99918410D01*
X112985807Y-99946791D01*
X112953562Y-99972252D01*
X112925304Y-99994427D01*
X112901500Y-100012952D01*
X112882616Y-100027461D01*
X112869119Y-100037589D01*
X112864784Y-100040721D01*
X112852780Y-100049204D01*
X112563984Y-99746031D01*
X112488021Y-99666283D01*
X112417150Y-99591871D01*
X112351071Y-99522481D01*
X112289483Y-99457795D01*
X112232086Y-99397496D01*
X112178579Y-99341268D01*
X112128662Y-99288795D01*
X112082035Y-99239759D01*
X112038397Y-99193845D01*
X111997448Y-99150735D01*
X111958887Y-99110113D01*
X111922415Y-99071664D01*
X111887730Y-99035069D01*
X111854533Y-99000013D01*
X111822522Y-98966178D01*
X111791398Y-98933249D01*
X111760860Y-98900909D01*
X111730607Y-98868841D01*
X111700340Y-98836729D01*
X111669758Y-98804256D01*
X111638561Y-98771105D01*
X111608401Y-98739037D01*
X111762129Y-98739037D01*
X111856302Y-98838650D01*
X111950895Y-98938647D01*
X112041208Y-99033996D01*
X112128273Y-99125780D01*
X112213118Y-99215083D01*
X112296775Y-99302988D01*
X112380272Y-99390579D01*
X112464642Y-99478938D01*
X112550913Y-99569150D01*
X112552549Y-99570859D01*
X112590125Y-99610126D01*
X112626661Y-99648317D01*
X112661730Y-99684983D01*
X112694904Y-99719677D01*
X112725757Y-99751952D01*
X112753860Y-99781360D01*
X112778786Y-99807455D01*
X112800109Y-99829789D01*
X112817399Y-99847915D01*
X112830231Y-99861386D01*
X112838176Y-99869754D01*
X112839180Y-99870816D01*
X112852228Y-99884388D01*
X112861224Y-99892882D01*
X112867265Y-99897097D01*
X112871445Y-99897833D01*
X112874244Y-99896408D01*
X112879419Y-99892120D01*
X112889227Y-99883834D01*
X112902377Y-99872649D01*
X112917576Y-99859660D01*
X112921618Y-99856197D01*
X113042267Y-99757314D01*
X113164708Y-99666027D01*
X113288986Y-99582314D01*
X113415149Y-99506154D01*
X113543244Y-99437527D01*
X113673318Y-99376411D01*
X113805418Y-99322786D01*
X113939591Y-99276630D01*
X114075883Y-99237924D01*
X114214343Y-99206645D01*
X114355016Y-99182774D01*
X114468682Y-99169045D01*
X114613458Y-99158268D01*
X114756306Y-99154977D01*
X114897304Y-99159194D01*
X115036530Y-99170939D01*
X115174063Y-99190234D01*
X115309982Y-99217100D01*
X115444364Y-99251560D01*
X115577288Y-99293635D01*
X115708833Y-99343345D01*
X115839076Y-99400713D01*
X115968096Y-99465760D01*
X116095972Y-99538507D01*
X116222781Y-99618977D01*
X116296920Y-99669935D01*
X116341846Y-99702385D01*
X116389432Y-99737991D01*
X116437754Y-99775254D01*
X116484888Y-99812670D01*
X116528909Y-99848739D01*
X116561955Y-99876794D01*
X116590648Y-99901641D01*
X116601641Y-99892637D01*
X116607943Y-99887405D01*
X116619118Y-99878059D01*
X116634069Y-99865518D01*
X116651696Y-99850705D01*
X116670900Y-99834542D01*
X116674517Y-99831495D01*
X116741347Y-99776996D01*
X116812832Y-99722016D01*
X116887118Y-99667873D01*
X116962348Y-99615880D01*
X117036665Y-99567354D01*
X117108213Y-99523607D01*
X117113376Y-99520579D01*
X117174529Y-99486233D01*
X117240784Y-99451572D01*
X117310292Y-99417448D01*
X117381203Y-99384713D01*
X117451667Y-99354220D01*
X117519836Y-99326820D01*
X117583858Y-99303366D01*
X117588015Y-99301935D01*
X117724180Y-99259358D01*
X117861667Y-99224472D01*
X118000517Y-99197270D01*
X118140774Y-99177746D01*
X118282480Y-99165894D01*
X118425678Y-99161707D01*
X118527632Y-99163361D01*
X118666181Y-99171704D01*
X118802499Y-99187065D01*
X118936850Y-99209529D01*
X119069495Y-99239180D01*
X119200700Y-99276104D01*
X119330726Y-99320384D01*
X119459838Y-99372105D01*
X119588298Y-99431353D01*
X119716371Y-99498211D01*
X119844319Y-99572764D01*
X119889363Y-99600845D01*
X119977190Y-99658460D01*
X120063967Y-99719378D01*
X120151399Y-99784832D01*
X120227640Y-99845062D01*
X120296794Y-99900935D01*
X120341269Y-99855172D01*
X120350410Y-99845714D01*
X120364490Y-99831074D01*
X120383055Y-99811727D01*
X120405655Y-99788144D01*
X120431834Y-99760800D01*
X120461142Y-99730167D01*
X120493125Y-99696718D01*
X120527330Y-99660928D01*
X120563305Y-99623269D01*
X120600598Y-99584214D01*
X120638754Y-99544236D01*
X120648520Y-99534001D01*
X120694974Y-99485321D01*
X120736462Y-99441860D01*
X120773407Y-99403184D01*
X120806231Y-99368854D01*
X120835357Y-99338434D01*
X120861208Y-99311487D01*
X120884206Y-99287576D01*
X120904774Y-99266265D01*
X120923334Y-99247116D01*
X120940310Y-99229693D01*
X120956124Y-99213558D01*
X120971199Y-99198276D01*
X120985956Y-99183408D01*
X121000820Y-99168519D01*
X121016211Y-99153170D01*
X121032554Y-99136927D01*
X121035514Y-99133989D01*
X121051649Y-99117826D01*
X121065667Y-99103498D01*
X121076695Y-99091923D01*
X121083855Y-99084020D01*
X121086277Y-99080743D01*
X121088916Y-99077290D01*
X121096333Y-99069103D01*
X121107779Y-99056968D01*
X121122504Y-99041675D01*
X121139760Y-99024010D01*
X121153664Y-99009928D01*
X121173370Y-98989979D01*
X121197202Y-98965728D01*
X121223865Y-98938497D01*
X121252066Y-98909613D01*
X121280510Y-98880399D01*
X121307904Y-98852181D01*
X121319796Y-98839899D01*
X121418540Y-98737821D01*
X121403872Y-98725730D01*
X121394716Y-98718666D01*
X121387941Y-98714311D01*
X121386111Y-98713638D01*
X121382070Y-98711226D01*
X121373515Y-98704693D01*
X121361784Y-98695095D01*
X121350866Y-98685795D01*
X121336949Y-98673965D01*
X121318667Y-98658747D01*
X121297788Y-98641594D01*
X121276079Y-98623961D01*
X121260116Y-98611137D01*
X121241651Y-98596237D01*
X121225244Y-98582719D01*
X121211903Y-98571436D01*
X121202635Y-98563240D01*
X121198449Y-98558985D01*
X121198394Y-98558897D01*
X121192450Y-98554041D01*
X121189605Y-98553472D01*
X121184529Y-98551523D01*
X121183939Y-98549973D01*
X121181130Y-98546275D01*
X121173431Y-98538591D01*
X121161937Y-98527957D01*
X121147745Y-98515407D01*
X121143898Y-98512087D01*
X121096005Y-98470115D01*
X121053482Y-98430936D01*
X121015044Y-98393251D01*
X120979406Y-98355761D01*
X120945281Y-98317166D01*
X120915164Y-98280861D01*
X120852380Y-98197026D01*
X120795758Y-98108822D01*
X120745604Y-98016864D01*
X120702224Y-97921768D01*
X120665923Y-97824148D01*
X120637008Y-97724621D01*
X120635299Y-97717723D01*
X120630317Y-97696941D01*
X120625857Y-97677513D01*
X120622352Y-97661385D01*
X120620236Y-97650498D01*
X120620017Y-97649120D01*
X120617988Y-97636339D01*
X120615992Y-97625229D01*
X120615720Y-97623884D01*
X120611230Y-97599990D01*
X120607280Y-97573780D01*
X120603736Y-97544058D01*
X120600466Y-97509626D01*
X120597337Y-97469289D01*
X120595493Y-97442076D01*
X120592853Y-97356553D01*
X120595693Y-97267787D01*
X120600046Y-97213546D01*
X120602767Y-97186924D01*
X120605248Y-97164634D01*
X120607203Y-97149089D01*
X120608712Y-97138018D01*
X120610624Y-97123781D01*
X120611414Y-97117837D01*
X120614992Y-97094945D01*
X120620237Y-97066782D01*
X120626669Y-97035592D01*
X120633812Y-97003617D01*
X120641187Y-96973100D01*
X120646969Y-96951110D01*
X120678949Y-96847608D01*
X120716595Y-96749117D01*
X120760248Y-96654928D01*
X120810248Y-96564332D01*
X120866937Y-96476622D01*
X120893459Y-96439612D01*
X120903623Y-96425586D01*
X120911776Y-96413850D01*
X120916951Y-96405826D01*
X120918298Y-96403063D01*
X120921064Y-96398873D01*
X120927752Y-96392732D01*
X120928064Y-96392485D01*
X120934890Y-96385959D01*
X120937828Y-96380857D01*
X120937830Y-96380766D01*
X120940628Y-96375743D01*
X120947381Y-96369217D01*
X120947597Y-96369046D01*
X120954438Y-96362340D01*
X120957361Y-96356845D01*
X120957363Y-96356765D01*
X120960189Y-96351718D01*
X120967306Y-96344406D01*
X120971036Y-96341256D01*
X120979314Y-96333863D01*
X120984173Y-96328001D01*
X120984708Y-96326515D01*
X120987372Y-96322786D01*
X120994783Y-96314496D01*
X121006072Y-96302513D01*
X121020369Y-96287707D01*
X121036804Y-96270945D01*
X121054509Y-96253098D01*
X121072613Y-96235034D01*
X121090247Y-96217622D01*
X121106542Y-96201731D01*
X121120627Y-96188229D01*
X121131633Y-96177987D01*
X121138690Y-96171872D01*
X121140826Y-96170513D01*
X121145185Y-96167702D01*
X121152295Y-96160513D01*
X121157063Y-96154887D01*
X121165133Y-96145942D01*
X121171928Y-96140287D01*
X121174480Y-96139261D01*
X121179933Y-96136495D01*
X121187357Y-96129639D01*
X121189199Y-96127542D01*
X121196428Y-96120029D01*
X121202048Y-96116025D01*
X121202936Y-96115822D01*
X121207840Y-96113029D01*
X121214312Y-96106286D01*
X121214493Y-96106056D01*
X121220618Y-96099266D01*
X121224852Y-96096295D01*
X121224948Y-96096290D01*
X121228913Y-96093982D01*
X121237626Y-96087704D01*
X121249783Y-96078428D01*
X121263450Y-96067630D01*
X121280575Y-96054043D01*
X121298310Y-96040221D01*
X121314175Y-96028087D01*
X121322698Y-96021728D01*
X121335740Y-96011951D01*
X121352421Y-95999139D01*
X121370309Y-95985172D01*
X121382686Y-95975364D01*
X121419156Y-95946240D01*
X121370898Y-95899187D01*
X121360866Y-95889381D01*
X121345762Y-95874580D01*
X121326082Y-95855271D01*
X121302319Y-95831941D01*
X121274969Y-95805076D01*
X121244529Y-95775163D01*
X121211492Y-95742689D01*
X121176355Y-95708141D01*
X121139612Y-95672004D01*
X121101758Y-95634766D01*
X121068579Y-95602119D01*
X121029311Y-95563495D01*
X120987968Y-95522867D01*
X120944936Y-95480611D01*
X120900598Y-95437102D01*
X120855339Y-95392715D01*
X120809542Y-95347826D01*
X120763591Y-95302811D01*
X120717871Y-95258046D01*
X120672766Y-95213905D01*
X120628661Y-95170764D01*
X120585938Y-95128999D01*
X120544982Y-95088985D01*
X120506178Y-95051098D01*
X120469910Y-95015713D01*
X120436560Y-94983206D01*
X120406515Y-94953953D01*
X120380158Y-94928328D01*
X120357872Y-94906708D01*
X120340043Y-94889467D01*
X120327054Y-94876982D01*
X120319748Y-94870055D01*
X120307568Y-94859226D01*
X120299020Y-94853239D01*
X120292479Y-94851157D01*
X120287768Y-94851631D01*
X120281524Y-94854962D01*
X120270738Y-94862526D01*
X120256693Y-94873353D01*
X120240674Y-94886472D01*
X120232551Y-94893392D01*
X120121924Y-94983795D01*
X120005939Y-95068768D01*
X119885081Y-95148064D01*
X119759836Y-95221439D01*
X119630689Y-95288648D01*
X119498127Y-95349444D01*
X119362635Y-95403583D01*
X119224699Y-95450820D01*
X119084804Y-95490909D01*
X119015837Y-95507834D01*
X118912522Y-95529421D01*
X118809035Y-95546172D01*
X118703856Y-95558254D01*
X118595465Y-95565831D01*
X118482341Y-95569071D01*
X118453302Y-95569222D01*
X118340590Y-95567358D01*
X118232328Y-95561419D01*
X118126496Y-95551163D01*
X118021076Y-95536350D01*
X117914047Y-95516736D01*
X117803392Y-95492080D01*
X117797847Y-95490740D01*
X117770562Y-95483885D01*
X117740850Y-95476011D01*
X117709645Y-95467402D01*
X117677880Y-95458344D01*
X117646488Y-95449123D01*
X117616402Y-95440022D01*
X117588555Y-95431328D01*
X117563881Y-95423325D01*
X117543311Y-95416300D01*
X117527780Y-95410536D01*
X117518221Y-95406319D01*
X117515599Y-95404468D01*
X117510872Y-95401875D01*
X117501011Y-95398741D01*
X117493137Y-95396841D01*
X117481795Y-95393798D01*
X117474402Y-95390641D01*
X117472773Y-95388892D01*
X117469428Y-95386198D01*
X117463007Y-95385309D01*
X117455663Y-95384141D01*
X117453241Y-95381902D01*
X117449790Y-95379220D01*
X117441166Y-95376653D01*
X117437615Y-95375996D01*
X117427846Y-95373580D01*
X117422397Y-95370577D01*
X117421989Y-95369637D01*
X117418654Y-95366704D01*
X117412502Y-95365776D01*
X117402592Y-95363437D01*
X117397155Y-95359917D01*
X117389430Y-95355048D01*
X117384877Y-95354057D01*
X117376937Y-95351448D01*
X117372600Y-95348197D01*
X117364137Y-95343521D01*
X117357253Y-95342337D01*
X117350043Y-95341183D01*
X117347766Y-95339058D01*
X117344495Y-95335162D01*
X117336750Y-95330841D01*
X117327636Y-95327576D01*
X117321911Y-95326711D01*
X117314388Y-95324123D01*
X117310096Y-95320852D01*
X117301576Y-95316121D01*
X117295028Y-95314992D01*
X117285540Y-95312922D01*
X117280658Y-95309891D01*
X117275870Y-95306765D01*
X117265115Y-95300651D01*
X117249395Y-95292092D01*
X117229714Y-95281626D01*
X117207076Y-95269794D01*
X117187600Y-95259755D01*
X117096771Y-95211475D01*
X117010555Y-95161918D01*
X116927277Y-95109993D01*
X116845262Y-95054610D01*
X116762835Y-94994681D01*
X116678321Y-94929114D01*
X116673205Y-94925022D01*
X116645969Y-94903527D01*
X116623846Y-94886866D01*
X116606142Y-94874646D01*
X116592165Y-94866472D01*
X116581221Y-94861950D01*
X116572618Y-94860686D01*
X116565664Y-94862285D01*
X116564246Y-94863005D01*
X116558929Y-94866859D01*
X116548943Y-94874872D01*
X116535491Y-94886048D01*
X116519780Y-94899394D01*
X116510960Y-94906995D01*
X116427133Y-94975967D01*
X116336444Y-95043727D01*
X116239821Y-95109700D01*
X116138190Y-95173309D01*
X116032477Y-95233980D01*
X115923608Y-95291136D01*
X115812510Y-95344201D01*
X115795489Y-95351872D01*
X115678882Y-95400600D01*
X115558214Y-95444497D01*
X115435022Y-95483114D01*
X115310839Y-95516003D01*
X115187202Y-95542716D01*
X115080048Y-95560763D01*
X115044357Y-95565829D01*
X115012506Y-95570044D01*
X114983249Y-95573485D01*
X114955340Y-95576228D01*
X114927534Y-95578350D01*
X114898585Y-95579926D01*
X114867249Y-95581033D01*
X114832278Y-95581748D01*
X114792428Y-95582147D01*
X114746453Y-95582306D01*
X114728464Y-95582319D01*
X114682212Y-95582261D01*
X114642796Y-95582045D01*
X114609239Y-95581645D01*
X114580566Y-95581031D01*
X114555801Y-95580177D01*
X114533967Y-95579054D01*
X114514088Y-95577635D01*
X114495188Y-95575891D01*
X114492121Y-95575573D01*
X114367217Y-95559906D01*
X114245460Y-95539595D01*
X114128386Y-95514907D01*
X114093216Y-95506390D01*
X114061669Y-95498341D01*
X114031448Y-95490324D01*
X114003512Y-95482619D01*
X113978820Y-95475506D01*
X113958332Y-95469265D01*
X113943005Y-95464176D01*
X113933801Y-95460518D01*
X113931735Y-95459259D01*
X113925055Y-95456261D01*
X113919735Y-95455626D01*
X113911299Y-95454417D01*
X113899564Y-95451372D01*
X113887189Y-95447360D01*
X113876830Y-95443252D01*
X113871144Y-95439917D01*
X113870921Y-95439639D01*
X113866443Y-95437294D01*
X113856313Y-95433714D01*
X113842458Y-95429561D01*
X113837784Y-95428280D01*
X113823176Y-95424076D01*
X113811705Y-95420233D01*
X113805298Y-95417415D01*
X113804647Y-95416861D01*
X113799810Y-95414214D01*
X113790409Y-95411572D01*
X113787976Y-95411087D01*
X113778583Y-95408487D01*
X113773579Y-95405400D01*
X113773327Y-95404664D01*
X113769983Y-95401860D01*
X113763561Y-95400935D01*
X113756219Y-95399597D01*
X113753795Y-95397028D01*
X113750452Y-95394092D01*
X113744028Y-95393122D01*
X113736687Y-95391784D01*
X113734262Y-95389215D01*
X113730919Y-95386279D01*
X113724496Y-95385309D01*
X113717154Y-95383971D01*
X113714730Y-95381402D01*
X113711387Y-95378466D01*
X113704963Y-95377496D01*
X113697619Y-95376336D01*
X113695197Y-95374110D01*
X113691866Y-95370845D01*
X113683447Y-95366235D01*
X113672306Y-95361289D01*
X113660806Y-95357012D01*
X113651310Y-95354413D01*
X113648124Y-95354057D01*
X113641540Y-95352508D01*
X113639855Y-95350848D01*
X113636116Y-95348294D01*
X113626335Y-95342876D01*
X113611515Y-95335114D01*
X113592658Y-95325528D01*
X113570765Y-95314636D01*
X113557181Y-95307979D01*
X113444632Y-95250365D01*
X113336363Y-95189180D01*
X113231034Y-95123564D01*
X113127303Y-95052657D01*
X113023831Y-94975597D01*
X112956871Y-94922445D01*
X112933421Y-94903557D01*
X112914992Y-94889260D01*
X112900656Y-94879076D01*
X112889483Y-94872530D01*
X112880548Y-94869146D01*
X112872920Y-94868448D01*
X112865673Y-94869960D01*
X112859434Y-94872483D01*
X112854966Y-94875824D01*
X112845797Y-94883931D01*
X112831869Y-94896863D01*
X112813122Y-94914677D01*
X112789499Y-94937430D01*
X112760940Y-94965181D01*
X112727386Y-94997986D01*
X112688779Y-95035904D01*
X112645061Y-95078993D01*
X112596171Y-95127309D01*
X112542053Y-95180910D01*
X112482646Y-95239855D01*
X112417892Y-95304201D01*
X112347732Y-95374005D01*
X112303848Y-95417704D01*
X111763438Y-95955989D01*
X111781017Y-95966976D01*
X111791515Y-95974396D01*
X111805496Y-95985443D01*
X111820784Y-95998359D01*
X111829848Y-96006430D01*
X111841199Y-96016644D01*
X111857320Y-96030974D01*
X111877074Y-96048420D01*
X111899326Y-96067981D01*
X111922942Y-96088658D01*
X111946786Y-96109450D01*
X111946890Y-96109541D01*
X111990616Y-96147788D01*
X112029005Y-96181865D01*
X112062798Y-96212515D01*
X112092731Y-96240480D01*
X112119543Y-96266506D01*
X112143973Y-96291335D01*
X112166758Y-96315711D01*
X112188638Y-96340377D01*
X112210349Y-96366077D01*
X112232631Y-96393555D01*
X112247167Y-96411952D01*
X112266778Y-96437848D01*
X112288770Y-96468367D01*
X112311954Y-96501738D01*
X112335141Y-96536193D01*
X112357140Y-96569960D01*
X112376763Y-96601270D01*
X112392819Y-96628354D01*
X112393847Y-96630167D01*
X112441942Y-96722930D01*
X112483191Y-96818645D01*
X112517394Y-96916681D01*
X112544351Y-97016405D01*
X112563865Y-97117185D01*
X112574418Y-97202861D01*
X112575934Y-97226202D01*
X112576898Y-97255502D01*
X112577342Y-97289219D01*
X112577292Y-97325813D01*
X112576780Y-97363742D01*
X112575833Y-97401465D01*
X112574481Y-97437441D01*
X112572753Y-97470128D01*
X112570678Y-97497986D01*
X112568457Y-97518252D01*
X112553053Y-97612109D01*
X112532936Y-97705092D01*
X112508484Y-97795938D01*
X112480074Y-97883386D01*
X112448083Y-97966173D01*
X112412890Y-98043038D01*
X112409622Y-98049535D01*
X112370020Y-98121915D01*
X112325322Y-98192642D01*
X112275172Y-98262121D01*
X112219215Y-98330759D01*
X112157094Y-98398961D01*
X112088453Y-98467131D01*
X112012937Y-98535675D01*
X111930189Y-98604998D01*
X111902057Y-98627466D01*
X111883884Y-98641959D01*
X111867787Y-98655058D01*
X111854802Y-98665899D01*
X111845963Y-98673619D01*
X111842350Y-98677274D01*
X111837049Y-98681892D01*
X111834892Y-98682387D01*
X111829422Y-98684722D01*
X111819724Y-98690891D01*
X111807498Y-98699640D01*
X111794444Y-98709713D01*
X111782263Y-98719854D01*
X111774503Y-98726965D01*
X111762129Y-98739037D01*
X111608401Y-98739037D01*
X111606448Y-98736960D01*
X111606187Y-98736683D01*
X111585615Y-98714803D01*
X111656947Y-98664592D01*
X111710716Y-98626412D01*
X111758818Y-98591507D01*
X111802258Y-98559085D01*
X111842041Y-98528360D01*
X111879173Y-98498540D01*
X111914660Y-98468836D01*
X111949507Y-98438460D01*
X111979649Y-98411270D01*
X112060847Y-98332319D01*
X112134696Y-98250744D01*
X112201228Y-98166487D01*
X112260476Y-98079490D01*
X112312469Y-97989695D01*
X112357240Y-97897043D01*
X112394820Y-97801477D01*
X112425241Y-97702939D01*
X112448534Y-97601370D01*
X112461569Y-97521523D01*
X112465187Y-97488155D01*
X112467900Y-97449199D01*
X112469699Y-97406464D01*
X112470574Y-97361758D01*
X112470516Y-97316889D01*
X112469516Y-97273667D01*
X112467563Y-97233899D01*
X112464650Y-97199395D01*
X112463304Y-97188154D01*
X112445325Y-97081002D01*
X112420104Y-96976771D01*
X112387669Y-96875526D01*
X112348052Y-96777338D01*
X112301282Y-96682274D01*
X112247391Y-96590401D01*
X112186409Y-96501788D01*
X112118366Y-96416503D01*
X112116916Y-96414811D01*
X112077729Y-96370576D01*
X112036741Y-96327192D01*
X111993263Y-96284044D01*
X111946607Y-96240512D01*
X111896084Y-96195980D01*
X111841006Y-96149831D01*
X111780683Y-96101447D01*
X111714428Y-96050210D01*
X111687821Y-96030066D01*
X111608299Y-95970175D01*
X111748372Y-95830781D01*
X111766468Y-95812768D01*
X111789704Y-95789630D01*
X111817687Y-95761759D01*
X111850025Y-95729546D01*
X111886324Y-95693383D01*
X111926191Y-95653661D01*
X111969233Y-95610772D01*
X112015059Y-95565108D01*
X112063274Y-95517060D01*
X112113486Y-95467019D01*
X112165302Y-95415377D01*
X112218328Y-95362525D01*
X112272173Y-95308856D01*
X112326443Y-95254760D01*
X112380746Y-95200629D01*
X112381435Y-95199942D01*
X112874424Y-94708497D01*
X112889839Y-94721688D01*
X112917972Y-94745687D01*
X112946137Y-94769577D01*
X112973361Y-94792543D01*
X112998670Y-94813767D01*
X113021089Y-94832433D01*
X113039644Y-94847724D01*
X113053360Y-94858822D01*
X113054533Y-94859753D01*
X113075444Y-94876282D01*
X113092053Y-94889317D01*
X113106153Y-94900216D01*
X113119538Y-94910335D01*
X113134003Y-94921032D01*
X113151340Y-94933665D01*
X113171728Y-94948421D01*
X113293420Y-95032308D01*
X113415857Y-95108512D01*
X113539340Y-95177147D01*
X113664171Y-95238329D01*
X113790654Y-95292175D01*
X113919091Y-95338801D01*
X114049783Y-95378322D01*
X114183033Y-95410854D01*
X114319144Y-95436514D01*
X114458417Y-95455418D01*
X114505794Y-95460256D01*
X114526715Y-95461747D01*
X114554232Y-95462987D01*
X114587132Y-95463977D01*
X114624203Y-95464715D01*
X114664231Y-95465201D01*
X114706003Y-95465437D01*
X114748308Y-95465422D01*
X114789931Y-95465155D01*
X114829661Y-95464637D01*
X114866283Y-95463868D01*
X114898586Y-95462848D01*
X114925356Y-95461577D01*
X114943321Y-95460256D01*
X115085112Y-95443403D01*
X115223251Y-95419753D01*
X115358171Y-95389169D01*
X115490306Y-95351513D01*
X115620090Y-95306648D01*
X115747957Y-95254435D01*
X115874341Y-95194738D01*
X115999676Y-95127418D01*
X116008432Y-95122411D01*
X116096652Y-95069420D01*
X116186733Y-95010868D01*
X116276948Y-94948019D01*
X116365569Y-94882139D01*
X116450868Y-94814491D01*
X116531119Y-94746340D01*
X116570609Y-94710822D01*
X116580610Y-94701633D01*
X116683897Y-94788295D01*
X116724022Y-94821763D01*
X116759544Y-94850912D01*
X116791662Y-94876656D01*
X116821572Y-94899911D01*
X116850472Y-94921591D01*
X116879561Y-94942612D01*
X116910036Y-94963888D01*
X116943094Y-94986335D01*
X116943444Y-94986570D01*
X117057053Y-95059482D01*
X117170492Y-95125413D01*
X117285066Y-95185059D01*
X117402081Y-95239111D01*
X117479631Y-95271399D01*
X117606263Y-95318461D01*
X117733424Y-95358617D01*
X117862021Y-95392076D01*
X117992962Y-95419045D01*
X118127155Y-95439733D01*
X118265506Y-95454347D01*
X118285323Y-95455925D01*
X118312921Y-95457568D01*
X118346696Y-95458830D01*
X118385022Y-95459710D01*
X118426272Y-95460208D01*
X118468821Y-95460324D01*
X118511041Y-95460058D01*
X118551306Y-95459410D01*
X118587990Y-95458379D01*
X118619467Y-95456966D01*
X118634954Y-95455952D01*
X118773004Y-95441715D01*
X118909113Y-95420170D01*
X119043436Y-95391263D01*
X119176128Y-95354939D01*
X119307342Y-95311142D01*
X119437234Y-95259817D01*
X119565956Y-95200910D01*
X119693663Y-95134364D01*
X119820510Y-95060126D01*
X119918236Y-94997321D01*
X119945306Y-94978786D01*
X119973554Y-94958489D01*
X120003824Y-94935782D01*
X120036957Y-94910015D01*
X120073796Y-94880540D01*
X120115184Y-94846707D01*
X120134619Y-94830632D01*
X120157278Y-94811870D01*
X120178479Y-94794381D01*
X120197331Y-94778894D01*
X120212945Y-94766139D01*
X120224430Y-94756844D01*
X120230899Y-94751737D01*
X120231267Y-94751462D01*
X120238340Y-94744938D01*
X120248539Y-94733909D01*
X120260300Y-94720118D01*
X120268406Y-94710034D01*
X120294414Y-94676836D01*
X120304024Y-94688278D01*
G37*
D14*
X126636000Y-90678000D02*
X126636000Y-131428000D01*
X126636000Y-90678000D02*
X129396000Y-90678000D01*
X126636000Y-131428000D02*
X129396000Y-131428000D01*
X129396000Y-90678000D02*
X129396000Y-131428000D01*
X103776000Y-90678000D02*
X106536000Y-90678000D01*
X103776000Y-90678000D02*
X103776000Y-131428000D01*
X103776000Y-131428000D02*
X106536000Y-131428000D01*
X106536000Y-90678000D02*
X106536000Y-131428000D01*
X115055114Y-101694627D02*
X114652063Y-101630988D01*
X114991474Y-101291577D01*
X115055114Y-101694627D01*
G36*
X115055114Y-101694627D02*
G01*
X114652063Y-101630988D01*
X114991474Y-101291577D01*
X115055114Y-101694627D01*
G37*
X116586000Y-110381434D02*
X116055670Y-109851104D01*
X117116330Y-109851104D02*
X116586000Y-110381434D01*
X120984204Y-105983230D02*
X120453874Y-106513560D01*
X120453874Y-105452900D02*
X120984204Y-105983230D01*
X112718126Y-106513560D02*
X112187796Y-105983230D01*
X112187796Y-105983230D02*
X112718126Y-105452900D01*
X116055670Y-102115356D02*
X116586000Y-101585026D01*
X116586000Y-101585026D02*
X117116330Y-102115356D01*
%LPC*%
D15*
X128016000Y-91948000D03*
X128016000Y-94488000D03*
X128016000Y-97028000D03*
X128016000Y-99568000D03*
X128016000Y-102108000D03*
X128016000Y-104648000D03*
X128016000Y-107188000D03*
X128016000Y-109728000D03*
X128016000Y-112268000D03*
X128016000Y-114808000D03*
X128016000Y-117348000D03*
X128016000Y-119888000D03*
X128016000Y-122428000D03*
X128016000Y-124968000D03*
X128016000Y-127508000D03*
X128016000Y-130048000D03*
D16*
X105156000Y-91948000D03*
D15*
X105156000Y-94488000D03*
X105156000Y-97028000D03*
X105156000Y-99568000D03*
X105156000Y-102108000D03*
X105156000Y-104648000D03*
X105156000Y-107188000D03*
X105156000Y-109728000D03*
X105156000Y-112268000D03*
X105156000Y-114808000D03*
X105156000Y-117348000D03*
X105156000Y-119888000D03*
X105156000Y-122428000D03*
X105156000Y-124968000D03*
X105156000Y-127508000D03*
X105156000Y-130048000D03*
D17*
X116586000Y-105983230D03*
D18*
X117354979Y-102456535D03*
X117814598Y-102916154D03*
X118274217Y-103375774D03*
X118733836Y-103835394D03*
X119193456Y-104295013D03*
X119653076Y-104754632D03*
X120112695Y-105214251D03*
D19*
X120112695Y-106752209D03*
X119653076Y-107211828D03*
X119193456Y-107671447D03*
X118733836Y-108131066D03*
X118274217Y-108590686D03*
X117814598Y-109050306D03*
X117354979Y-109509925D03*
D18*
X115817021Y-109509925D03*
X115357402Y-109050306D03*
X114897783Y-108590686D03*
X114438164Y-108131066D03*
X113978544Y-107671447D03*
X113518924Y-107211828D03*
X113059305Y-106752209D03*
D19*
X113059305Y-105214251D03*
X113518924Y-104754632D03*
X113978544Y-104295013D03*
X114438164Y-103835394D03*
X114897783Y-103375774D03*
X115357402Y-102916154D03*
X115817021Y-102456535D03*
%LPD*%
M02*
