M48
; DRILL file {KiCad 9.0.6} date 2026-01-08T16:00:19-0600
; FORMAT={-:-/ absolute / metric / decimal}
; #@! TF.CreationDate,2026-01-08T16:00:19-06:00
; #@! TF.GenerationSoftware,Kicad,Pcbnew,9.0.6
; #@! TF.FileFunction,Plated,1,2,PTH
FMAT,2
METRIC
; #@! TA.AperFunction,Plated,PTH,ComponentDrill
T1C0.200
; #@! TA.AperFunction,Plated,PTH,ViaDrill
T2C0.300
; #@! TA.AperFunction,Plated,PTH,ComponentDrill
T3C1.000
%
G90
G05
T1
X114.571Y-105.983
X115.242Y-105.311
X115.242Y-106.655
X115.914Y-104.64
X115.914Y-105.983
X115.914Y-107.327
X116.586Y-103.968
X116.586Y-105.311
X116.586Y-106.655
X116.586Y-107.998
X117.258Y-104.64
X117.258Y-105.983
X117.258Y-107.327
X117.93Y-105.311
X117.93Y-106.655
X118.601Y-105.983
T2
X116.489Y-123.017
X116.586Y-101.284
X116.586Y-110.682
T3
X105.156Y-91.948
X105.156Y-94.488
X105.156Y-97.028
X105.156Y-99.568
X105.156Y-102.108
X105.156Y-104.648
X105.156Y-107.188
X105.156Y-109.728
X105.156Y-112.268
X105.156Y-114.808
X105.156Y-117.348
X105.156Y-119.888
X105.156Y-122.428
X105.156Y-124.968
X105.156Y-127.508
X105.156Y-130.048
X128.016Y-91.948
X128.016Y-94.488
X128.016Y-97.028
X128.016Y-99.568
X128.016Y-102.108
X128.016Y-104.648
X128.016Y-107.188
X128.016Y-109.728
X128.016Y-112.268
X128.016Y-114.808
X128.016Y-117.348
X128.016Y-119.888
X128.016Y-122.428
X128.016Y-124.968
X128.016Y-127.508
X128.016Y-130.048
M30
