%TF.GenerationSoftware,KiCad,Pcbnew,9.0.6*%
%TF.CreationDate,2026-01-08T14:50:16-06:00*%
%TF.ProjectId,QFP-48_7x7_P0.5,5146502d-3438-45f3-9778-375f50302e35,rev?*%
%TF.SameCoordinates,Original*%
%TF.FileFunction,Drillmap*%
%TF.FilePolarity,Positive*%
%FSLAX45Y45*%
G04 Gerber Fmt 4.5, Leading zero omitted, Abs format (unit mm)*
G04 Created by KiCad (PCBNEW 9.0.6) date 2026-01-08 14:50:16*
%MOMM*%
%LPD*%
G01*
G04 APERTURE LIST*
%ADD10C,0.050000*%
%ADD11C,0.200000*%
%ADD12C,0.100000*%
G04 APERTURE END LIST*
D10*
X12573000Y-9004300D02*
X15113000Y-9004300D01*
X15113000Y-15113000D01*
X12573000Y-15113000D01*
X12573000Y-9004300D01*
D11*
D12*
X12650000Y-9089214D02*
X12750000Y-9189214D01*
X12750000Y-9089214D02*
X12650000Y-9189214D01*
X12650000Y-9343214D02*
X12750000Y-9443214D01*
X12750000Y-9343214D02*
X12650000Y-9443214D01*
X12650000Y-9597214D02*
X12750000Y-9697214D01*
X12750000Y-9597214D02*
X12650000Y-9697214D01*
X12650000Y-9851214D02*
X12750000Y-9951214D01*
X12750000Y-9851214D02*
X12650000Y-9951214D01*
X12650000Y-10105214D02*
X12750000Y-10205214D01*
X12750000Y-10105214D02*
X12650000Y-10205214D01*
X12650000Y-10359214D02*
X12750000Y-10459214D01*
X12750000Y-10359214D02*
X12650000Y-10459214D01*
X12650000Y-10613214D02*
X12750000Y-10713214D01*
X12750000Y-10613214D02*
X12650000Y-10713214D01*
X12650000Y-10867214D02*
X12750000Y-10967214D01*
X12750000Y-10867214D02*
X12650000Y-10967214D01*
X12650000Y-11121214D02*
X12750000Y-11221214D01*
X12750000Y-11121214D02*
X12650000Y-11221214D01*
X12650000Y-11375214D02*
X12750000Y-11475214D01*
X12750000Y-11375214D02*
X12650000Y-11475214D01*
X12650000Y-11629214D02*
X12750000Y-11729214D01*
X12750000Y-11629214D02*
X12650000Y-11729214D01*
X12650000Y-11883214D02*
X12750000Y-11983214D01*
X12750000Y-11883214D02*
X12650000Y-11983214D01*
X12650000Y-12137214D02*
X12750000Y-12237214D01*
X12750000Y-12137214D02*
X12650000Y-12237214D01*
X12650000Y-12391214D02*
X12750000Y-12491214D01*
X12750000Y-12391214D02*
X12650000Y-12491214D01*
X12650000Y-12645214D02*
X12750000Y-12745214D01*
X12750000Y-12645214D02*
X12650000Y-12745214D01*
X12650000Y-12899214D02*
X12750000Y-12999214D01*
X12750000Y-12899214D02*
X12650000Y-12999214D01*
X12650000Y-13153214D02*
X12750000Y-13253214D01*
X12750000Y-13153214D02*
X12650000Y-13253214D01*
X12650000Y-13407214D02*
X12750000Y-13507214D01*
X12750000Y-13407214D02*
X12650000Y-13507214D01*
X12650000Y-13661214D02*
X12750000Y-13761214D01*
X12750000Y-13661214D02*
X12650000Y-13761214D01*
X12650000Y-13915214D02*
X12750000Y-14015214D01*
X12750000Y-13915214D02*
X12650000Y-14015214D01*
X12650000Y-14169214D02*
X12750000Y-14269214D01*
X12750000Y-14169214D02*
X12650000Y-14269214D01*
X12650000Y-14423214D02*
X12750000Y-14523214D01*
X12750000Y-14423214D02*
X12650000Y-14523214D01*
X12650000Y-14677214D02*
X12750000Y-14777214D01*
X12750000Y-14677214D02*
X12650000Y-14777214D01*
X12650000Y-14931214D02*
X12750000Y-15031214D01*
X12750000Y-14931214D02*
X12650000Y-15031214D01*
X14936000Y-9089214D02*
X15036000Y-9189214D01*
X15036000Y-9089214D02*
X14936000Y-9189214D01*
X14936000Y-9343214D02*
X15036000Y-9443214D01*
X15036000Y-9343214D02*
X14936000Y-9443214D01*
X14936000Y-9597214D02*
X15036000Y-9697214D01*
X15036000Y-9597214D02*
X14936000Y-9697214D01*
X14936000Y-9851214D02*
X15036000Y-9951214D01*
X15036000Y-9851214D02*
X14936000Y-9951214D01*
X14936000Y-10105214D02*
X15036000Y-10205214D01*
X15036000Y-10105214D02*
X14936000Y-10205214D01*
X14936000Y-10359214D02*
X15036000Y-10459214D01*
X15036000Y-10359214D02*
X14936000Y-10459214D01*
X14936000Y-10613214D02*
X15036000Y-10713214D01*
X15036000Y-10613214D02*
X14936000Y-10713214D01*
X14936000Y-10867214D02*
X15036000Y-10967214D01*
X15036000Y-10867214D02*
X14936000Y-10967214D01*
X14936000Y-11121214D02*
X15036000Y-11221214D01*
X15036000Y-11121214D02*
X14936000Y-11221214D01*
X14936000Y-11375214D02*
X15036000Y-11475214D01*
X15036000Y-11375214D02*
X14936000Y-11475214D01*
X14936000Y-11629214D02*
X15036000Y-11729214D01*
X15036000Y-11629214D02*
X14936000Y-11729214D01*
X14936000Y-11883214D02*
X15036000Y-11983214D01*
X15036000Y-11883214D02*
X14936000Y-11983214D01*
X14936000Y-12137214D02*
X15036000Y-12237214D01*
X15036000Y-12137214D02*
X14936000Y-12237214D01*
X14936000Y-12391214D02*
X15036000Y-12491214D01*
X15036000Y-12391214D02*
X14936000Y-12491214D01*
X14936000Y-12645214D02*
X15036000Y-12745214D01*
X15036000Y-12645214D02*
X14936000Y-12745214D01*
X14936000Y-12899214D02*
X15036000Y-12999214D01*
X15036000Y-12899214D02*
X14936000Y-12999214D01*
X14936000Y-13153214D02*
X15036000Y-13253214D01*
X15036000Y-13153214D02*
X14936000Y-13253214D01*
X14936000Y-13407214D02*
X15036000Y-13507214D01*
X15036000Y-13407214D02*
X14936000Y-13507214D01*
X14936000Y-13661214D02*
X15036000Y-13761214D01*
X15036000Y-13661214D02*
X14936000Y-13761214D01*
X14936000Y-13915214D02*
X15036000Y-14015214D01*
X15036000Y-13915214D02*
X14936000Y-14015214D01*
X14936000Y-14169214D02*
X15036000Y-14269214D01*
X15036000Y-14169214D02*
X14936000Y-14269214D01*
X14936000Y-14423214D02*
X15036000Y-14523214D01*
X15036000Y-14423214D02*
X14936000Y-14523214D01*
X14936000Y-14677214D02*
X15036000Y-14777214D01*
X15036000Y-14677214D02*
X14936000Y-14777214D01*
X14936000Y-14931214D02*
X15036000Y-15031214D01*
X15036000Y-14931214D02*
X14936000Y-15031214D01*
D11*
X12831277Y-15426984D02*
X12831277Y-15226984D01*
X12831277Y-15226984D02*
X12878896Y-15226984D01*
X12878896Y-15226984D02*
X12907467Y-15236508D01*
X12907467Y-15236508D02*
X12926515Y-15255555D01*
X12926515Y-15255555D02*
X12936039Y-15274603D01*
X12936039Y-15274603D02*
X12945562Y-15312698D01*
X12945562Y-15312698D02*
X12945562Y-15341269D01*
X12945562Y-15341269D02*
X12936039Y-15379365D01*
X12936039Y-15379365D02*
X12926515Y-15398412D01*
X12926515Y-15398412D02*
X12907467Y-15417460D01*
X12907467Y-15417460D02*
X12878896Y-15426984D01*
X12878896Y-15426984D02*
X12831277Y-15426984D01*
X13031277Y-15426984D02*
X13031277Y-15293650D01*
X13031277Y-15331746D02*
X13040801Y-15312698D01*
X13040801Y-15312698D02*
X13050324Y-15303174D01*
X13050324Y-15303174D02*
X13069372Y-15293650D01*
X13069372Y-15293650D02*
X13088420Y-15293650D01*
X13155086Y-15426984D02*
X13155086Y-15293650D01*
X13155086Y-15226984D02*
X13145562Y-15236508D01*
X13145562Y-15236508D02*
X13155086Y-15246031D01*
X13155086Y-15246031D02*
X13164610Y-15236508D01*
X13164610Y-15236508D02*
X13155086Y-15226984D01*
X13155086Y-15226984D02*
X13155086Y-15246031D01*
X13278896Y-15426984D02*
X13259848Y-15417460D01*
X13259848Y-15417460D02*
X13250324Y-15398412D01*
X13250324Y-15398412D02*
X13250324Y-15226984D01*
X13383658Y-15426984D02*
X13364610Y-15417460D01*
X13364610Y-15417460D02*
X13355086Y-15398412D01*
X13355086Y-15398412D02*
X13355086Y-15226984D01*
X13612229Y-15426984D02*
X13612229Y-15226984D01*
X13612229Y-15226984D02*
X13678896Y-15369841D01*
X13678896Y-15369841D02*
X13745562Y-15226984D01*
X13745562Y-15226984D02*
X13745562Y-15426984D01*
X13926515Y-15426984D02*
X13926515Y-15322222D01*
X13926515Y-15322222D02*
X13916991Y-15303174D01*
X13916991Y-15303174D02*
X13897943Y-15293650D01*
X13897943Y-15293650D02*
X13859848Y-15293650D01*
X13859848Y-15293650D02*
X13840801Y-15303174D01*
X13926515Y-15417460D02*
X13907467Y-15426984D01*
X13907467Y-15426984D02*
X13859848Y-15426984D01*
X13859848Y-15426984D02*
X13840801Y-15417460D01*
X13840801Y-15417460D02*
X13831277Y-15398412D01*
X13831277Y-15398412D02*
X13831277Y-15379365D01*
X13831277Y-15379365D02*
X13840801Y-15360317D01*
X13840801Y-15360317D02*
X13859848Y-15350793D01*
X13859848Y-15350793D02*
X13907467Y-15350793D01*
X13907467Y-15350793D02*
X13926515Y-15341269D01*
X14021753Y-15293650D02*
X14021753Y-15493650D01*
X14021753Y-15303174D02*
X14040801Y-15293650D01*
X14040801Y-15293650D02*
X14078896Y-15293650D01*
X14078896Y-15293650D02*
X14097943Y-15303174D01*
X14097943Y-15303174D02*
X14107467Y-15312698D01*
X14107467Y-15312698D02*
X14116991Y-15331746D01*
X14116991Y-15331746D02*
X14116991Y-15388888D01*
X14116991Y-15388888D02*
X14107467Y-15407936D01*
X14107467Y-15407936D02*
X14097943Y-15417460D01*
X14097943Y-15417460D02*
X14078896Y-15426984D01*
X14078896Y-15426984D02*
X14040801Y-15426984D01*
X14040801Y-15426984D02*
X14021753Y-15417460D01*
X14202705Y-15407936D02*
X14212229Y-15417460D01*
X14212229Y-15417460D02*
X14202705Y-15426984D01*
X14202705Y-15426984D02*
X14193182Y-15417460D01*
X14193182Y-15417460D02*
X14202705Y-15407936D01*
X14202705Y-15407936D02*
X14202705Y-15426984D01*
X14202705Y-15303174D02*
X14212229Y-15312698D01*
X14212229Y-15312698D02*
X14202705Y-15322222D01*
X14202705Y-15322222D02*
X14193182Y-15312698D01*
X14193182Y-15312698D02*
X14202705Y-15303174D01*
X14202705Y-15303174D02*
X14202705Y-15322222D01*
D12*
X12470500Y-15705500D02*
X12570500Y-15805500D01*
X12570500Y-15705500D02*
X12470500Y-15805500D01*
D11*
X12936039Y-15846984D02*
X12821753Y-15846984D01*
X12878896Y-15846984D02*
X12878896Y-15646984D01*
X12878896Y-15646984D02*
X12859848Y-15675555D01*
X12859848Y-15675555D02*
X12840801Y-15694603D01*
X12840801Y-15694603D02*
X12821753Y-15704127D01*
X13021753Y-15827936D02*
X13031277Y-15837460D01*
X13031277Y-15837460D02*
X13021753Y-15846984D01*
X13021753Y-15846984D02*
X13012229Y-15837460D01*
X13012229Y-15837460D02*
X13021753Y-15827936D01*
X13021753Y-15827936D02*
X13021753Y-15846984D01*
X13155086Y-15646984D02*
X13174134Y-15646984D01*
X13174134Y-15646984D02*
X13193182Y-15656508D01*
X13193182Y-15656508D02*
X13202705Y-15666031D01*
X13202705Y-15666031D02*
X13212229Y-15685079D01*
X13212229Y-15685079D02*
X13221753Y-15723174D01*
X13221753Y-15723174D02*
X13221753Y-15770793D01*
X13221753Y-15770793D02*
X13212229Y-15808888D01*
X13212229Y-15808888D02*
X13202705Y-15827936D01*
X13202705Y-15827936D02*
X13193182Y-15837460D01*
X13193182Y-15837460D02*
X13174134Y-15846984D01*
X13174134Y-15846984D02*
X13155086Y-15846984D01*
X13155086Y-15846984D02*
X13136039Y-15837460D01*
X13136039Y-15837460D02*
X13126515Y-15827936D01*
X13126515Y-15827936D02*
X13116991Y-15808888D01*
X13116991Y-15808888D02*
X13107467Y-15770793D01*
X13107467Y-15770793D02*
X13107467Y-15723174D01*
X13107467Y-15723174D02*
X13116991Y-15685079D01*
X13116991Y-15685079D02*
X13126515Y-15666031D01*
X13126515Y-15666031D02*
X13136039Y-15656508D01*
X13136039Y-15656508D02*
X13155086Y-15646984D01*
X13345562Y-15646984D02*
X13364610Y-15646984D01*
X13364610Y-15646984D02*
X13383658Y-15656508D01*
X13383658Y-15656508D02*
X13393182Y-15666031D01*
X13393182Y-15666031D02*
X13402705Y-15685079D01*
X13402705Y-15685079D02*
X13412229Y-15723174D01*
X13412229Y-15723174D02*
X13412229Y-15770793D01*
X13412229Y-15770793D02*
X13402705Y-15808888D01*
X13402705Y-15808888D02*
X13393182Y-15827936D01*
X13393182Y-15827936D02*
X13383658Y-15837460D01*
X13383658Y-15837460D02*
X13364610Y-15846984D01*
X13364610Y-15846984D02*
X13345562Y-15846984D01*
X13345562Y-15846984D02*
X13326515Y-15837460D01*
X13326515Y-15837460D02*
X13316991Y-15827936D01*
X13316991Y-15827936D02*
X13307467Y-15808888D01*
X13307467Y-15808888D02*
X13297943Y-15770793D01*
X13297943Y-15770793D02*
X13297943Y-15723174D01*
X13297943Y-15723174D02*
X13307467Y-15685079D01*
X13307467Y-15685079D02*
X13316991Y-15666031D01*
X13316991Y-15666031D02*
X13326515Y-15656508D01*
X13326515Y-15656508D02*
X13345562Y-15646984D01*
X13536039Y-15646984D02*
X13555086Y-15646984D01*
X13555086Y-15646984D02*
X13574134Y-15656508D01*
X13574134Y-15656508D02*
X13583658Y-15666031D01*
X13583658Y-15666031D02*
X13593182Y-15685079D01*
X13593182Y-15685079D02*
X13602705Y-15723174D01*
X13602705Y-15723174D02*
X13602705Y-15770793D01*
X13602705Y-15770793D02*
X13593182Y-15808888D01*
X13593182Y-15808888D02*
X13583658Y-15827936D01*
X13583658Y-15827936D02*
X13574134Y-15837460D01*
X13574134Y-15837460D02*
X13555086Y-15846984D01*
X13555086Y-15846984D02*
X13536039Y-15846984D01*
X13536039Y-15846984D02*
X13516991Y-15837460D01*
X13516991Y-15837460D02*
X13507467Y-15827936D01*
X13507467Y-15827936D02*
X13497943Y-15808888D01*
X13497943Y-15808888D02*
X13488420Y-15770793D01*
X13488420Y-15770793D02*
X13488420Y-15723174D01*
X13488420Y-15723174D02*
X13497943Y-15685079D01*
X13497943Y-15685079D02*
X13507467Y-15666031D01*
X13507467Y-15666031D02*
X13516991Y-15656508D01*
X13516991Y-15656508D02*
X13536039Y-15646984D01*
X13688420Y-15846984D02*
X13688420Y-15713650D01*
X13688420Y-15732698D02*
X13697943Y-15723174D01*
X13697943Y-15723174D02*
X13716991Y-15713650D01*
X13716991Y-15713650D02*
X13745563Y-15713650D01*
X13745563Y-15713650D02*
X13764610Y-15723174D01*
X13764610Y-15723174D02*
X13774134Y-15742222D01*
X13774134Y-15742222D02*
X13774134Y-15846984D01*
X13774134Y-15742222D02*
X13783658Y-15723174D01*
X13783658Y-15723174D02*
X13802705Y-15713650D01*
X13802705Y-15713650D02*
X13831277Y-15713650D01*
X13831277Y-15713650D02*
X13850324Y-15723174D01*
X13850324Y-15723174D02*
X13859848Y-15742222D01*
X13859848Y-15742222D02*
X13859848Y-15846984D01*
X13955086Y-15846984D02*
X13955086Y-15713650D01*
X13955086Y-15732698D02*
X13964610Y-15723174D01*
X13964610Y-15723174D02*
X13983658Y-15713650D01*
X13983658Y-15713650D02*
X14012229Y-15713650D01*
X14012229Y-15713650D02*
X14031277Y-15723174D01*
X14031277Y-15723174D02*
X14040801Y-15742222D01*
X14040801Y-15742222D02*
X14040801Y-15846984D01*
X14040801Y-15742222D02*
X14050324Y-15723174D01*
X14050324Y-15723174D02*
X14069372Y-15713650D01*
X14069372Y-15713650D02*
X14097943Y-15713650D01*
X14097943Y-15713650D02*
X14116991Y-15723174D01*
X14116991Y-15723174D02*
X14126515Y-15742222D01*
X14126515Y-15742222D02*
X14126515Y-15846984D01*
X14516991Y-15637460D02*
X14345563Y-15894603D01*
X14774134Y-15646984D02*
X14793182Y-15646984D01*
X14793182Y-15646984D02*
X14812229Y-15656508D01*
X14812229Y-15656508D02*
X14821753Y-15666031D01*
X14821753Y-15666031D02*
X14831277Y-15685079D01*
X14831277Y-15685079D02*
X14840801Y-15723174D01*
X14840801Y-15723174D02*
X14840801Y-15770793D01*
X14840801Y-15770793D02*
X14831277Y-15808888D01*
X14831277Y-15808888D02*
X14821753Y-15827936D01*
X14821753Y-15827936D02*
X14812229Y-15837460D01*
X14812229Y-15837460D02*
X14793182Y-15846984D01*
X14793182Y-15846984D02*
X14774134Y-15846984D01*
X14774134Y-15846984D02*
X14755086Y-15837460D01*
X14755086Y-15837460D02*
X14745563Y-15827936D01*
X14745563Y-15827936D02*
X14736039Y-15808888D01*
X14736039Y-15808888D02*
X14726515Y-15770793D01*
X14726515Y-15770793D02*
X14726515Y-15723174D01*
X14726515Y-15723174D02*
X14736039Y-15685079D01*
X14736039Y-15685079D02*
X14745563Y-15666031D01*
X14745563Y-15666031D02*
X14755086Y-15656508D01*
X14755086Y-15656508D02*
X14774134Y-15646984D01*
X14926515Y-15827936D02*
X14936039Y-15837460D01*
X14936039Y-15837460D02*
X14926515Y-15846984D01*
X14926515Y-15846984D02*
X14916991Y-15837460D01*
X14916991Y-15837460D02*
X14926515Y-15827936D01*
X14926515Y-15827936D02*
X14926515Y-15846984D01*
X15059848Y-15646984D02*
X15078896Y-15646984D01*
X15078896Y-15646984D02*
X15097944Y-15656508D01*
X15097944Y-15656508D02*
X15107467Y-15666031D01*
X15107467Y-15666031D02*
X15116991Y-15685079D01*
X15116991Y-15685079D02*
X15126515Y-15723174D01*
X15126515Y-15723174D02*
X15126515Y-15770793D01*
X15126515Y-15770793D02*
X15116991Y-15808888D01*
X15116991Y-15808888D02*
X15107467Y-15827936D01*
X15107467Y-15827936D02*
X15097944Y-15837460D01*
X15097944Y-15837460D02*
X15078896Y-15846984D01*
X15078896Y-15846984D02*
X15059848Y-15846984D01*
X15059848Y-15846984D02*
X15040801Y-15837460D01*
X15040801Y-15837460D02*
X15031277Y-15827936D01*
X15031277Y-15827936D02*
X15021753Y-15808888D01*
X15021753Y-15808888D02*
X15012229Y-15770793D01*
X15012229Y-15770793D02*
X15012229Y-15723174D01*
X15012229Y-15723174D02*
X15021753Y-15685079D01*
X15021753Y-15685079D02*
X15031277Y-15666031D01*
X15031277Y-15666031D02*
X15040801Y-15656508D01*
X15040801Y-15656508D02*
X15059848Y-15646984D01*
X15193182Y-15646984D02*
X15316991Y-15646984D01*
X15316991Y-15646984D02*
X15250325Y-15723174D01*
X15250325Y-15723174D02*
X15278896Y-15723174D01*
X15278896Y-15723174D02*
X15297944Y-15732698D01*
X15297944Y-15732698D02*
X15307467Y-15742222D01*
X15307467Y-15742222D02*
X15316991Y-15761269D01*
X15316991Y-15761269D02*
X15316991Y-15808888D01*
X15316991Y-15808888D02*
X15307467Y-15827936D01*
X15307467Y-15827936D02*
X15297944Y-15837460D01*
X15297944Y-15837460D02*
X15278896Y-15846984D01*
X15278896Y-15846984D02*
X15221753Y-15846984D01*
X15221753Y-15846984D02*
X15202706Y-15837460D01*
X15202706Y-15837460D02*
X15193182Y-15827936D01*
X15412229Y-15846984D02*
X15450325Y-15846984D01*
X15450325Y-15846984D02*
X15469372Y-15837460D01*
X15469372Y-15837460D02*
X15478896Y-15827936D01*
X15478896Y-15827936D02*
X15497944Y-15799365D01*
X15497944Y-15799365D02*
X15507467Y-15761269D01*
X15507467Y-15761269D02*
X15507467Y-15685079D01*
X15507467Y-15685079D02*
X15497944Y-15666031D01*
X15497944Y-15666031D02*
X15488420Y-15656508D01*
X15488420Y-15656508D02*
X15469372Y-15646984D01*
X15469372Y-15646984D02*
X15431277Y-15646984D01*
X15431277Y-15646984D02*
X15412229Y-15656508D01*
X15412229Y-15656508D02*
X15402706Y-15666031D01*
X15402706Y-15666031D02*
X15393182Y-15685079D01*
X15393182Y-15685079D02*
X15393182Y-15732698D01*
X15393182Y-15732698D02*
X15402706Y-15751746D01*
X15402706Y-15751746D02*
X15412229Y-15761269D01*
X15412229Y-15761269D02*
X15431277Y-15770793D01*
X15431277Y-15770793D02*
X15469372Y-15770793D01*
X15469372Y-15770793D02*
X15488420Y-15761269D01*
X15488420Y-15761269D02*
X15497944Y-15751746D01*
X15497944Y-15751746D02*
X15507467Y-15732698D01*
X15678896Y-15713650D02*
X15678896Y-15846984D01*
X15631277Y-15637460D02*
X15583658Y-15780317D01*
X15583658Y-15780317D02*
X15707467Y-15780317D01*
X15774134Y-15646984D02*
X15774134Y-15685079D01*
X15850325Y-15646984D02*
X15850325Y-15685079D01*
X16145563Y-15923174D02*
X16136039Y-15913650D01*
X16136039Y-15913650D02*
X16116991Y-15885079D01*
X16116991Y-15885079D02*
X16107468Y-15866031D01*
X16107468Y-15866031D02*
X16097944Y-15837460D01*
X16097944Y-15837460D02*
X16088420Y-15789841D01*
X16088420Y-15789841D02*
X16088420Y-15751746D01*
X16088420Y-15751746D02*
X16097944Y-15704127D01*
X16097944Y-15704127D02*
X16107468Y-15675555D01*
X16107468Y-15675555D02*
X16116991Y-15656508D01*
X16116991Y-15656508D02*
X16136039Y-15627936D01*
X16136039Y-15627936D02*
X16145563Y-15618412D01*
X16307468Y-15713650D02*
X16307468Y-15846984D01*
X16259848Y-15637460D02*
X16212229Y-15780317D01*
X16212229Y-15780317D02*
X16336039Y-15780317D01*
X16440801Y-15732698D02*
X16421753Y-15723174D01*
X16421753Y-15723174D02*
X16412229Y-15713650D01*
X16412229Y-15713650D02*
X16402706Y-15694603D01*
X16402706Y-15694603D02*
X16402706Y-15685079D01*
X16402706Y-15685079D02*
X16412229Y-15666031D01*
X16412229Y-15666031D02*
X16421753Y-15656508D01*
X16421753Y-15656508D02*
X16440801Y-15646984D01*
X16440801Y-15646984D02*
X16478896Y-15646984D01*
X16478896Y-15646984D02*
X16497944Y-15656508D01*
X16497944Y-15656508D02*
X16507468Y-15666031D01*
X16507468Y-15666031D02*
X16516991Y-15685079D01*
X16516991Y-15685079D02*
X16516991Y-15694603D01*
X16516991Y-15694603D02*
X16507468Y-15713650D01*
X16507468Y-15713650D02*
X16497944Y-15723174D01*
X16497944Y-15723174D02*
X16478896Y-15732698D01*
X16478896Y-15732698D02*
X16440801Y-15732698D01*
X16440801Y-15732698D02*
X16421753Y-15742222D01*
X16421753Y-15742222D02*
X16412229Y-15751746D01*
X16412229Y-15751746D02*
X16402706Y-15770793D01*
X16402706Y-15770793D02*
X16402706Y-15808888D01*
X16402706Y-15808888D02*
X16412229Y-15827936D01*
X16412229Y-15827936D02*
X16421753Y-15837460D01*
X16421753Y-15837460D02*
X16440801Y-15846984D01*
X16440801Y-15846984D02*
X16478896Y-15846984D01*
X16478896Y-15846984D02*
X16497944Y-15837460D01*
X16497944Y-15837460D02*
X16507468Y-15827936D01*
X16507468Y-15827936D02*
X16516991Y-15808888D01*
X16516991Y-15808888D02*
X16516991Y-15770793D01*
X16516991Y-15770793D02*
X16507468Y-15751746D01*
X16507468Y-15751746D02*
X16497944Y-15742222D01*
X16497944Y-15742222D02*
X16478896Y-15732698D01*
X16755087Y-15846984D02*
X16755087Y-15646984D01*
X16840801Y-15846984D02*
X16840801Y-15742222D01*
X16840801Y-15742222D02*
X16831277Y-15723174D01*
X16831277Y-15723174D02*
X16812230Y-15713650D01*
X16812230Y-15713650D02*
X16783658Y-15713650D01*
X16783658Y-15713650D02*
X16764610Y-15723174D01*
X16764610Y-15723174D02*
X16755087Y-15732698D01*
X16964611Y-15846984D02*
X16945563Y-15837460D01*
X16945563Y-15837460D02*
X16936039Y-15827936D01*
X16936039Y-15827936D02*
X16926515Y-15808888D01*
X16926515Y-15808888D02*
X16926515Y-15751746D01*
X16926515Y-15751746D02*
X16936039Y-15732698D01*
X16936039Y-15732698D02*
X16945563Y-15723174D01*
X16945563Y-15723174D02*
X16964611Y-15713650D01*
X16964611Y-15713650D02*
X16993182Y-15713650D01*
X16993182Y-15713650D02*
X17012230Y-15723174D01*
X17012230Y-15723174D02*
X17021753Y-15732698D01*
X17021753Y-15732698D02*
X17031277Y-15751746D01*
X17031277Y-15751746D02*
X17031277Y-15808888D01*
X17031277Y-15808888D02*
X17021753Y-15827936D01*
X17021753Y-15827936D02*
X17012230Y-15837460D01*
X17012230Y-15837460D02*
X16993182Y-15846984D01*
X16993182Y-15846984D02*
X16964611Y-15846984D01*
X17145563Y-15846984D02*
X17126515Y-15837460D01*
X17126515Y-15837460D02*
X17116992Y-15818412D01*
X17116992Y-15818412D02*
X17116992Y-15646984D01*
X17297944Y-15837460D02*
X17278896Y-15846984D01*
X17278896Y-15846984D02*
X17240801Y-15846984D01*
X17240801Y-15846984D02*
X17221753Y-15837460D01*
X17221753Y-15837460D02*
X17212230Y-15818412D01*
X17212230Y-15818412D02*
X17212230Y-15742222D01*
X17212230Y-15742222D02*
X17221753Y-15723174D01*
X17221753Y-15723174D02*
X17240801Y-15713650D01*
X17240801Y-15713650D02*
X17278896Y-15713650D01*
X17278896Y-15713650D02*
X17297944Y-15723174D01*
X17297944Y-15723174D02*
X17307468Y-15742222D01*
X17307468Y-15742222D02*
X17307468Y-15761269D01*
X17307468Y-15761269D02*
X17212230Y-15780317D01*
X17383658Y-15837460D02*
X17402706Y-15846984D01*
X17402706Y-15846984D02*
X17440801Y-15846984D01*
X17440801Y-15846984D02*
X17459849Y-15837460D01*
X17459849Y-15837460D02*
X17469373Y-15818412D01*
X17469373Y-15818412D02*
X17469373Y-15808888D01*
X17469373Y-15808888D02*
X17459849Y-15789841D01*
X17459849Y-15789841D02*
X17440801Y-15780317D01*
X17440801Y-15780317D02*
X17412230Y-15780317D01*
X17412230Y-15780317D02*
X17393182Y-15770793D01*
X17393182Y-15770793D02*
X17383658Y-15751746D01*
X17383658Y-15751746D02*
X17383658Y-15742222D01*
X17383658Y-15742222D02*
X17393182Y-15723174D01*
X17393182Y-15723174D02*
X17412230Y-15713650D01*
X17412230Y-15713650D02*
X17440801Y-15713650D01*
X17440801Y-15713650D02*
X17459849Y-15723174D01*
X17536039Y-15923174D02*
X17545563Y-15913650D01*
X17545563Y-15913650D02*
X17564611Y-15885079D01*
X17564611Y-15885079D02*
X17574134Y-15866031D01*
X17574134Y-15866031D02*
X17583658Y-15837460D01*
X17583658Y-15837460D02*
X17593182Y-15789841D01*
X17593182Y-15789841D02*
X17593182Y-15751746D01*
X17593182Y-15751746D02*
X17583658Y-15704127D01*
X17583658Y-15704127D02*
X17574134Y-15675555D01*
X17574134Y-15675555D02*
X17564611Y-15656508D01*
X17564611Y-15656508D02*
X17545563Y-15627936D01*
X17545563Y-15627936D02*
X17536039Y-15618412D01*
M02*
