%TF.GenerationSoftware,KiCad,Pcbnew,9.0.6*%
%TF.CreationDate,2026-01-08T14:50:16-06:00*%
%TF.ProjectId,QFP-48_7x7_P0.5,5146502d-3438-45f3-9778-375f50302e35,rev?*%
%TF.SameCoordinates,Original*%
%TF.FileFunction,Drillmap*%
%TF.FilePolarity,Positive*%
%FSLAX45Y45*%
G04 Gerber Fmt 4.5, Leading zero omitted, Abs format (unit mm)*
G04 Created by KiCad (PCBNEW 9.0.6) date 2026-01-08 14:50:16*
%MOMM*%
%LPD*%
G01*
G04 APERTURE LIST*
%ADD10C,0.050000*%
%ADD11C,0.200000*%
G04 APERTURE END LIST*
D10*
X12573000Y-9004300D02*
X15113000Y-9004300D01*
X15113000Y-15113000D01*
X12573000Y-15113000D01*
X12573000Y-9004300D01*
D11*
X12831277Y-15426984D02*
X12831277Y-15226984D01*
X12831277Y-15226984D02*
X12878896Y-15226984D01*
X12878896Y-15226984D02*
X12907467Y-15236508D01*
X12907467Y-15236508D02*
X12926515Y-15255555D01*
X12926515Y-15255555D02*
X12936039Y-15274603D01*
X12936039Y-15274603D02*
X12945562Y-15312698D01*
X12945562Y-15312698D02*
X12945562Y-15341269D01*
X12945562Y-15341269D02*
X12936039Y-15379365D01*
X12936039Y-15379365D02*
X12926515Y-15398412D01*
X12926515Y-15398412D02*
X12907467Y-15417460D01*
X12907467Y-15417460D02*
X12878896Y-15426984D01*
X12878896Y-15426984D02*
X12831277Y-15426984D01*
X13031277Y-15426984D02*
X13031277Y-15293650D01*
X13031277Y-15331746D02*
X13040801Y-15312698D01*
X13040801Y-15312698D02*
X13050324Y-15303174D01*
X13050324Y-15303174D02*
X13069372Y-15293650D01*
X13069372Y-15293650D02*
X13088420Y-15293650D01*
X13155086Y-15426984D02*
X13155086Y-15293650D01*
X13155086Y-15226984D02*
X13145562Y-15236508D01*
X13145562Y-15236508D02*
X13155086Y-15246031D01*
X13155086Y-15246031D02*
X13164610Y-15236508D01*
X13164610Y-15236508D02*
X13155086Y-15226984D01*
X13155086Y-15226984D02*
X13155086Y-15246031D01*
X13278896Y-15426984D02*
X13259848Y-15417460D01*
X13259848Y-15417460D02*
X13250324Y-15398412D01*
X13250324Y-15398412D02*
X13250324Y-15226984D01*
X13383658Y-15426984D02*
X13364610Y-15417460D01*
X13364610Y-15417460D02*
X13355086Y-15398412D01*
X13355086Y-15398412D02*
X13355086Y-15226984D01*
X13612229Y-15426984D02*
X13612229Y-15226984D01*
X13612229Y-15226984D02*
X13678896Y-15369841D01*
X13678896Y-15369841D02*
X13745562Y-15226984D01*
X13745562Y-15226984D02*
X13745562Y-15426984D01*
X13926515Y-15426984D02*
X13926515Y-15322222D01*
X13926515Y-15322222D02*
X13916991Y-15303174D01*
X13916991Y-15303174D02*
X13897943Y-15293650D01*
X13897943Y-15293650D02*
X13859848Y-15293650D01*
X13859848Y-15293650D02*
X13840801Y-15303174D01*
X13926515Y-15417460D02*
X13907467Y-15426984D01*
X13907467Y-15426984D02*
X13859848Y-15426984D01*
X13859848Y-15426984D02*
X13840801Y-15417460D01*
X13840801Y-15417460D02*
X13831277Y-15398412D01*
X13831277Y-15398412D02*
X13831277Y-15379365D01*
X13831277Y-15379365D02*
X13840801Y-15360317D01*
X13840801Y-15360317D02*
X13859848Y-15350793D01*
X13859848Y-15350793D02*
X13907467Y-15350793D01*
X13907467Y-15350793D02*
X13926515Y-15341269D01*
X14021753Y-15293650D02*
X14021753Y-15493650D01*
X14021753Y-15303174D02*
X14040801Y-15293650D01*
X14040801Y-15293650D02*
X14078896Y-15293650D01*
X14078896Y-15293650D02*
X14097943Y-15303174D01*
X14097943Y-15303174D02*
X14107467Y-15312698D01*
X14107467Y-15312698D02*
X14116991Y-15331746D01*
X14116991Y-15331746D02*
X14116991Y-15388888D01*
X14116991Y-15388888D02*
X14107467Y-15407936D01*
X14107467Y-15407936D02*
X14097943Y-15417460D01*
X14097943Y-15417460D02*
X14078896Y-15426984D01*
X14078896Y-15426984D02*
X14040801Y-15426984D01*
X14040801Y-15426984D02*
X14021753Y-15417460D01*
X14202705Y-15407936D02*
X14212229Y-15417460D01*
X14212229Y-15417460D02*
X14202705Y-15426984D01*
X14202705Y-15426984D02*
X14193182Y-15417460D01*
X14193182Y-15417460D02*
X14202705Y-15407936D01*
X14202705Y-15407936D02*
X14202705Y-15426984D01*
X14202705Y-15303174D02*
X14212229Y-15312698D01*
X14212229Y-15312698D02*
X14202705Y-15322222D01*
X14202705Y-15322222D02*
X14193182Y-15312698D01*
X14193182Y-15312698D02*
X14202705Y-15303174D01*
X14202705Y-15303174D02*
X14202705Y-15322222D01*
M02*
