G04 #@! TF.GenerationSoftware,KiCad,Pcbnew,9.0.6*
G04 #@! TF.CreationDate,2026-01-08T14:50:14-06:00*
G04 #@! TF.ProjectId,QFP-48_7x7_P0.5,5146502d-3438-45f3-9778-375f50302e35,rev?*
G04 #@! TF.SameCoordinates,Original*
G04 #@! TF.FileFunction,Copper,L2,Bot*
G04 #@! TF.FilePolarity,Positive*
%FSLAX46Y46*%
G04 Gerber Fmt 4.6, Leading zero omitted, Abs format (unit mm)*
G04 Created by KiCad (PCBNEW 9.0.6) date 2026-01-08 14:50:14*
%MOMM*%
%LPD*%
G01*
G04 APERTURE LIST*
G04 #@! TA.AperFunction,ComponentPad*
%ADD10R,1.700000X1.700000*%
G04 #@! TD*
G04 #@! TA.AperFunction,ComponentPad*
%ADD11C,1.700000*%
G04 #@! TD*
G04 #@! TA.AperFunction,SMDPad,CuDef*
%ADD12R,2.510000X1.000000*%
G04 #@! TD*
G04 #@! TA.AperFunction,Conductor*
%ADD13C,0.500000*%
G04 #@! TD*
G04 APERTURE END LIST*
D10*
X127000000Y-91392144D03*
D11*
X127000000Y-93932144D03*
X127000000Y-96472144D03*
X127000000Y-99012144D03*
X127000000Y-101552144D03*
X127000000Y-104092144D03*
X127000000Y-106632144D03*
X127000000Y-109172144D03*
X127000000Y-111712144D03*
X127000000Y-114252144D03*
X127000000Y-116792144D03*
X127000000Y-119332144D03*
X127000000Y-121872144D03*
X127000000Y-124412144D03*
X127000000Y-126952144D03*
X127000000Y-129492144D03*
X127000000Y-132032144D03*
X127000000Y-134572144D03*
X127000000Y-137112144D03*
X127000000Y-139652144D03*
X127000000Y-142192144D03*
X127000000Y-144732144D03*
X127000000Y-147272144D03*
X127000000Y-149812144D03*
X149860000Y-91392144D03*
X149860000Y-93932144D03*
X149860000Y-96472144D03*
X149860000Y-99012144D03*
X149860000Y-101552144D03*
X149860000Y-104092144D03*
X149860000Y-106632144D03*
X149860000Y-109172144D03*
X149860000Y-111712144D03*
X149860000Y-114252144D03*
X149860000Y-116792144D03*
X149860000Y-119332144D03*
X149860000Y-121872144D03*
X149860000Y-124412144D03*
X149860000Y-126952144D03*
X149860000Y-129492144D03*
X149860000Y-132032144D03*
X149860000Y-134572144D03*
X149860000Y-137112144D03*
X149860000Y-139652144D03*
X149860000Y-142192144D03*
X149860000Y-144732144D03*
X149860000Y-147272144D03*
X149860000Y-149812144D03*
D12*
X143125000Y-91387144D03*
X146435000Y-93927144D03*
X143125000Y-96467144D03*
X146435000Y-99007144D03*
X143125000Y-101547144D03*
X146435000Y-104087144D03*
X143125000Y-106627144D03*
X146435000Y-109167144D03*
X143125000Y-111707144D03*
X146435000Y-114247144D03*
X143125000Y-116787144D03*
X146435000Y-119327144D03*
X143125000Y-121867144D03*
X146435000Y-124407144D03*
X143125000Y-126947144D03*
X146435000Y-129487144D03*
X143125000Y-132027144D03*
X146435000Y-134567144D03*
X143125000Y-137107144D03*
X146435000Y-139647144D03*
X143125000Y-142187144D03*
X146435000Y-144727144D03*
X143125000Y-147267144D03*
X146435000Y-149807144D03*
X133735000Y-91387144D03*
X130425000Y-93927144D03*
X133735000Y-96467144D03*
X130425000Y-99007144D03*
X133735000Y-101547144D03*
X130425000Y-104087144D03*
X133735000Y-106627144D03*
X130425000Y-109167144D03*
X133735000Y-111707144D03*
X130425000Y-114247144D03*
X133735000Y-116787144D03*
X130425000Y-119327144D03*
X133735000Y-121867144D03*
X130425000Y-124407144D03*
X133735000Y-126947144D03*
X130425000Y-129487144D03*
X133735000Y-132027144D03*
X130425000Y-134567144D03*
X133735000Y-137107144D03*
X130425000Y-139647144D03*
X133735000Y-142187144D03*
X130425000Y-144727144D03*
X133735000Y-147267144D03*
X130425000Y-149807144D03*
D13*
X143130000Y-91392144D02*
X143125000Y-91387144D01*
X149860000Y-91392144D02*
X143130000Y-91392144D01*
X149855000Y-93927144D02*
X149860000Y-93932144D01*
X146435000Y-93927144D02*
X149855000Y-93927144D01*
X143130000Y-96472144D02*
X143125000Y-96467144D01*
X149860000Y-96472144D02*
X143130000Y-96472144D01*
X149855000Y-99007144D02*
X149860000Y-99012144D01*
X146435000Y-99007144D02*
X149855000Y-99007144D01*
X143130000Y-101552144D02*
X143125000Y-101547144D01*
X149860000Y-101552144D02*
X143130000Y-101552144D01*
X149855000Y-104087144D02*
X149860000Y-104092144D01*
X146435000Y-104087144D02*
X149855000Y-104087144D01*
X143130000Y-106632144D02*
X143125000Y-106627144D01*
X149860000Y-106632144D02*
X143130000Y-106632144D01*
X149855000Y-109167144D02*
X149860000Y-109172144D01*
X146435000Y-109167144D02*
X149855000Y-109167144D01*
X143130000Y-111712144D02*
X143125000Y-111707144D01*
X149860000Y-111712144D02*
X143130000Y-111712144D01*
X149855000Y-114247144D02*
X149860000Y-114252144D01*
X146435000Y-114247144D02*
X149855000Y-114247144D01*
X149860000Y-116792144D02*
X143130000Y-116792144D01*
X143130000Y-116792144D02*
X143125000Y-116787144D01*
X146435000Y-119327144D02*
X149855000Y-119327144D01*
X149855000Y-119327144D02*
X149860000Y-119332144D01*
X143130000Y-121872144D02*
X143125000Y-121867144D01*
X149860000Y-121872144D02*
X143130000Y-121872144D01*
X149855000Y-124407144D02*
X149860000Y-124412144D01*
X146435000Y-124407144D02*
X149855000Y-124407144D01*
X149855000Y-126947144D02*
X149860000Y-126952144D01*
X143125000Y-126947144D02*
X149855000Y-126947144D01*
X149855000Y-129487144D02*
X149860000Y-129492144D01*
X146435000Y-129487144D02*
X149855000Y-129487144D01*
X143130000Y-132032144D02*
X143125000Y-132027144D01*
X149860000Y-132032144D02*
X143130000Y-132032144D01*
X146435000Y-134567144D02*
X149855000Y-134567144D01*
X149855000Y-134567144D02*
X149860000Y-134572144D01*
X143130000Y-137112144D02*
X143125000Y-137107144D01*
X149860000Y-137112144D02*
X143130000Y-137112144D01*
X149855000Y-142187144D02*
X149860000Y-142192144D01*
X143125000Y-142187144D02*
X149855000Y-142187144D01*
X146440000Y-139652144D02*
X146435000Y-139647144D01*
X149860000Y-139652144D02*
X146440000Y-139652144D01*
X146435000Y-144727144D02*
X149855000Y-144727144D01*
X149855000Y-144727144D02*
X149860000Y-144732144D01*
X143130000Y-147272144D02*
X143125000Y-147267144D01*
X149860000Y-147272144D02*
X143130000Y-147272144D01*
X149855000Y-149807144D02*
X149860000Y-149812144D01*
X146435000Y-149807144D02*
X149855000Y-149807144D01*
X130420000Y-149812144D02*
X130425000Y-149807144D01*
X127000000Y-149812144D02*
X130420000Y-149812144D01*
X127005000Y-147267144D02*
X127000000Y-147272144D01*
X133735000Y-147267144D02*
X127005000Y-147267144D01*
X130420000Y-144732144D02*
X130425000Y-144727144D01*
X127000000Y-144732144D02*
X130420000Y-144732144D01*
X127005000Y-142187144D02*
X127000000Y-142192144D01*
X133735000Y-142187144D02*
X127005000Y-142187144D01*
X130420000Y-139652144D02*
X130425000Y-139647144D01*
X127000000Y-139652144D02*
X130420000Y-139652144D01*
X127005000Y-137107144D02*
X127000000Y-137112144D01*
X133735000Y-137107144D02*
X127005000Y-137107144D01*
X127005000Y-134567144D02*
X127000000Y-134572144D01*
X130425000Y-134567144D02*
X127005000Y-134567144D01*
X133730000Y-132032144D02*
X133735000Y-132027144D01*
X127000000Y-132032144D02*
X133730000Y-132032144D01*
X130425000Y-129487144D02*
X127005000Y-129487144D01*
X127005000Y-129487144D02*
X127000000Y-129492144D01*
X133730000Y-126952144D02*
X133735000Y-126947144D01*
X127000000Y-126952144D02*
X133730000Y-126952144D01*
X130420000Y-124412144D02*
X130425000Y-124407144D01*
X127000000Y-124412144D02*
X130420000Y-124412144D01*
X127005000Y-121867144D02*
X127000000Y-121872144D01*
X133735000Y-121867144D02*
X127005000Y-121867144D01*
X130420000Y-119332144D02*
X130425000Y-119327144D01*
X127000000Y-119332144D02*
X130420000Y-119332144D01*
X127005000Y-116787144D02*
X127000000Y-116792144D01*
X133735000Y-116787144D02*
X127005000Y-116787144D01*
X127005000Y-114247144D02*
X127000000Y-114252144D01*
X130425000Y-114247144D02*
X127005000Y-114247144D01*
X133730000Y-111712144D02*
X133735000Y-111707144D01*
X127000000Y-111712144D02*
X133730000Y-111712144D01*
X127005000Y-109167144D02*
X127000000Y-109172144D01*
X130425000Y-109167144D02*
X127005000Y-109167144D01*
X133730000Y-106632144D02*
X133735000Y-106627144D01*
X127000000Y-106632144D02*
X133730000Y-106632144D01*
X130425000Y-104087144D02*
X127005000Y-104087144D01*
X127005000Y-104087144D02*
X127000000Y-104092144D01*
X133730000Y-101552144D02*
X133735000Y-101547144D01*
X127000000Y-101552144D02*
X133730000Y-101552144D01*
X127000000Y-99012144D02*
X130420000Y-99012144D01*
X130420000Y-99012144D02*
X130425000Y-99007144D01*
X127005000Y-96467144D02*
X127000000Y-96472144D01*
X133735000Y-96467144D02*
X127005000Y-96467144D01*
X130420000Y-93932144D02*
X130425000Y-93927144D01*
X127000000Y-93932144D02*
X130420000Y-93932144D01*
X127005000Y-91387144D02*
X127000000Y-91392144D01*
X133735000Y-91387144D02*
X127005000Y-91387144D01*
M02*
