G04 #@! TF.GenerationSoftware,KiCad,Pcbnew,9.0.6*
G04 #@! TF.CreationDate,2026-01-08T14:50:14-06:00*
G04 #@! TF.ProjectId,QFP-48_7x7_P0.5,5146502d-3438-45f3-9778-375f50302e35,rev?*
G04 #@! TF.SameCoordinates,Original*
G04 #@! TF.FileFunction,Paste,Top*
G04 #@! TF.FilePolarity,Positive*
%FSLAX46Y46*%
G04 Gerber Fmt 4.6, Leading zero omitted, Abs format (unit mm)*
G04 Created by KiCad (PCBNEW 9.0.6) date 2026-01-08 14:50:14*
%MOMM*%
%LPD*%
G01*
G04 APERTURE LIST*
G04 Aperture macros list*
%AMRoundRect*
0 Rectangle with rounded corners*
0 $1 Rounding radius*
0 $2 $3 $4 $5 $6 $7 $8 $9 X,Y pos of 4 corners*
0 Add a 4 corners polygon primitive as box body*
4,1,4,$2,$3,$4,$5,$6,$7,$8,$9,$2,$3,0*
0 Add four circle primitives for the rounded corners*
1,1,$1+$1,$2,$3*
1,1,$1+$1,$4,$5*
1,1,$1+$1,$6,$7*
1,1,$1+$1,$8,$9*
0 Add four rect primitives between the rounded corners*
20,1,$1+$1,$2,$3,$4,$5,0*
20,1,$1+$1,$4,$5,$6,$7,0*
20,1,$1+$1,$6,$7,$8,$9,0*
20,1,$1+$1,$8,$9,$2,$3,0*%
G04 Aperture macros list end*
%ADD10RoundRect,0.075000X-0.707107X-0.601041X-0.601041X-0.707107X0.707107X0.601041X0.601041X0.707107X0*%
%ADD11RoundRect,0.075000X-0.707107X0.601041X0.601041X-0.707107X0.707107X-0.601041X-0.601041X0.707107X0*%
G04 APERTURE END LIST*
D10*
X135133115Y-123593332D03*
X134779561Y-123239779D03*
X136193774Y-124653991D03*
X134426009Y-122886226D03*
X135486668Y-123946885D03*
X136547328Y-125007546D03*
X133365348Y-121825565D03*
X133718901Y-122179118D03*
X134072454Y-122532672D03*
X136900882Y-125361099D03*
X135840221Y-124300439D03*
X137254435Y-125714652D03*
X142080439Y-118060221D03*
X139605565Y-115585348D03*
X143141099Y-119120882D03*
X141373332Y-117353115D03*
X143494652Y-119474435D03*
X142787546Y-118767328D03*
X142433991Y-118413774D03*
X141019779Y-116999561D03*
X141726885Y-117706668D03*
X140666226Y-116646009D03*
X140312672Y-116292454D03*
X139959118Y-115938901D03*
D11*
X137254435Y-115585348D03*
X136900882Y-115938901D03*
X136547328Y-116292454D03*
X136193774Y-116646009D03*
X135840221Y-116999561D03*
X135486668Y-117353115D03*
X135133115Y-117706668D03*
X134779561Y-118060221D03*
X134426009Y-118413774D03*
X134072454Y-118767328D03*
X133718901Y-119120882D03*
X133365348Y-119474435D03*
X139605565Y-125714652D03*
X139959118Y-125361099D03*
X140312672Y-125007546D03*
X140666226Y-124653991D03*
X141019779Y-124300439D03*
X141373332Y-123946885D03*
X141726885Y-123593332D03*
X142080439Y-123239779D03*
X142433991Y-122886226D03*
X142787546Y-122532672D03*
X143141099Y-122179118D03*
X143494652Y-121825565D03*
M02*
