M48
; DRILL file {KiCad 9.0.6} date 2026-01-08T14:50:16-0600
; FORMAT={-:-/ absolute / metric / decimal}
; #@! TF.CreationDate,2026-01-08T14:50:16-06:00
; #@! TF.GenerationSoftware,Kicad,Pcbnew,9.0.6
; #@! TF.FileFunction,Plated,1,2,PTH
FMAT,2
METRIC
; #@! TA.AperFunction,Plated,PTH,ComponentDrill
T1C1.000
%
G90
G05
T1
X127.0Y-91.392
X127.0Y-93.932
X127.0Y-96.472
X127.0Y-99.012
X127.0Y-101.552
X127.0Y-104.092
X127.0Y-106.632
X127.0Y-109.172
X127.0Y-111.712
X127.0Y-114.252
X127.0Y-116.792
X127.0Y-119.332
X127.0Y-121.872
X127.0Y-124.412
X127.0Y-126.952
X127.0Y-129.492
X127.0Y-132.032
X127.0Y-134.572
X127.0Y-137.112
X127.0Y-139.652
X127.0Y-142.192
X127.0Y-144.732
X127.0Y-147.272
X127.0Y-149.812
X149.86Y-91.392
X149.86Y-93.932
X149.86Y-96.472
X149.86Y-99.012
X149.86Y-101.552
X149.86Y-104.092
X149.86Y-106.632
X149.86Y-109.172
X149.86Y-111.712
X149.86Y-114.252
X149.86Y-116.792
X149.86Y-119.332
X149.86Y-121.872
X149.86Y-124.412
X149.86Y-126.952
X149.86Y-129.492
X149.86Y-132.032
X149.86Y-134.572
X149.86Y-137.112
X149.86Y-139.652
X149.86Y-142.192
X149.86Y-144.732
X149.86Y-147.272
X149.86Y-149.812
M30
