G04 #@! TF.GenerationSoftware,KiCad,Pcbnew,9.0.6*
G04 #@! TF.CreationDate,2026-01-02T14:07:44-06:00*
G04 #@! TF.ProjectId,QFN-60_7x7,51464e2d-3630-45f3-9778-372e6b696361,rev?*
G04 #@! TF.SameCoordinates,Original*
G04 #@! TF.FileFunction,Legend,Top*
G04 #@! TF.FilePolarity,Positive*
%FSLAX46Y46*%
G04 Gerber Fmt 4.6, Leading zero omitted, Abs format (unit mm)*
G04 Created by KiCad (PCBNEW 9.0.6) date 2026-01-02 14:07:44*
%MOMM*%
%LPD*%
G01*
G04 APERTURE LIST*
G04 Aperture macros list*
%AMRoundRect*
0 Rectangle with rounded corners*
0 $1 Rounding radius*
0 $2 $3 $4 $5 $6 $7 $8 $9 X,Y pos of 4 corners*
0 Add a 4 corners polygon primitive as box body*
4,1,4,$2,$3,$4,$5,$6,$7,$8,$9,$2,$3,0*
0 Add four circle primitives for the rounded corners*
1,1,$1+$1,$2,$3*
1,1,$1+$1,$4,$5*
1,1,$1+$1,$6,$7*
1,1,$1+$1,$8,$9*
0 Add four rect primitives between the rounded corners*
20,1,$1+$1,$2,$3,$4,$5,0*
20,1,$1+$1,$4,$5,$6,$7,0*
20,1,$1+$1,$6,$7,$8,$9,0*
20,1,$1+$1,$8,$9,$2,$3,0*%
%AMRotRect*
0 Rectangle, with rotation*
0 The origin of the aperture is its center*
0 $1 length*
0 $2 width*
0 $3 Rotation angle, in degrees counterclockwise*
0 Add horizontal line*
21,1,$1,$2,0,0,$3*%
G04 Aperture macros list end*
%ADD10C,0.100000*%
%ADD11C,0.300000*%
%ADD12C,0.200000*%
%ADD13C,0.150000*%
%ADD14C,0.120000*%
%ADD15C,0.000000*%
%ADD16RotRect,3.400000X3.400000X315.000000*%
%ADD17RoundRect,0.050000X-0.424264X-0.353553X-0.353553X-0.424264X0.424264X0.353553X0.353553X0.424264X0*%
%ADD18RoundRect,0.050000X-0.424264X0.353553X0.353553X-0.424264X0.424264X-0.353553X-0.353553X0.424264X0*%
%ADD19C,1.700000*%
%ADD20R,1.700000X1.700000*%
G04 APERTURE END LIST*
D10*
X129861750Y-82270850D02*
X146549500Y-82270850D01*
X146549500Y-82677250D01*
X129861750Y-82677250D01*
X129861750Y-82270850D01*
G36*
X129861750Y-82270850D02*
G01*
X146549500Y-82270850D01*
X146549500Y-82677250D01*
X129861750Y-82677250D01*
X129861750Y-82270850D01*
G37*
X129785500Y-80010000D02*
X146600250Y-80010000D01*
X146600250Y-80238600D01*
X129785500Y-80238600D01*
X129785500Y-80010000D01*
G36*
X129785500Y-80010000D02*
G01*
X146600250Y-80010000D01*
X146600250Y-80238600D01*
X129785500Y-80238600D01*
X129785500Y-80010000D01*
G37*
X146041500Y-80010000D02*
X151240000Y-80010000D01*
X151240000Y-82677250D01*
X146041500Y-82677250D01*
X146041500Y-80010000D01*
G36*
X146041500Y-80010000D02*
G01*
X151240000Y-80010000D01*
X151240000Y-82677250D01*
X146041500Y-82677250D01*
X146041500Y-80010000D01*
G37*
X125603000Y-80010000D02*
X130733750Y-80010000D01*
X130733750Y-82677250D01*
X125603000Y-82677250D01*
X125603000Y-80010000D01*
G36*
X125603000Y-80010000D02*
G01*
X130733750Y-80010000D01*
X130733750Y-82677250D01*
X125603000Y-82677250D01*
X125603000Y-80010000D01*
G37*
D11*
G36*
X145376186Y-80724486D02*
G01*
X145476793Y-80825093D01*
X145529972Y-80931452D01*
X145592928Y-81183273D01*
X145592928Y-81360632D01*
X145529972Y-81612453D01*
X145476793Y-81718813D01*
X145376187Y-81819419D01*
X145218585Y-81871953D01*
X145035785Y-81871953D01*
X145035785Y-80671953D01*
X145218588Y-80671953D01*
X145376186Y-80724486D01*
G37*
G36*
X135868361Y-80716660D02*
G01*
X135905365Y-80753664D01*
X135950071Y-80843076D01*
X135950071Y-80986543D01*
X135905364Y-81075956D01*
X135868359Y-81112961D01*
X135778947Y-81157667D01*
X135392928Y-81157667D01*
X135392928Y-80671953D01*
X135778947Y-80671953D01*
X135868361Y-80716660D01*
G37*
G36*
X138891959Y-81443382D02*
G01*
X138593900Y-81443382D01*
X138742929Y-80996294D01*
X138891959Y-81443382D01*
G37*
G36*
X144034816Y-81443382D02*
G01*
X143736757Y-81443382D01*
X143885786Y-80996294D01*
X144034816Y-81443382D01*
G37*
G36*
X142725504Y-80716660D02*
G01*
X142762508Y-80753664D01*
X142807214Y-80843076D01*
X142807214Y-80986543D01*
X142762507Y-81075956D01*
X142725502Y-81112961D01*
X142636090Y-81157667D01*
X142250071Y-81157667D01*
X142250071Y-80671953D01*
X142636090Y-80671953D01*
X142725504Y-80716660D01*
G37*
G36*
X146059595Y-82338620D02*
G01*
X130643429Y-82338620D01*
X130643429Y-80492689D01*
X130810096Y-80492689D01*
X130810096Y-80551217D01*
X130832494Y-80605289D01*
X130873878Y-80646673D01*
X130927950Y-80669071D01*
X130957214Y-80671953D01*
X131235785Y-80671953D01*
X131235785Y-82021953D01*
X131238667Y-82051217D01*
X131261065Y-82105289D01*
X131302449Y-82146673D01*
X131356521Y-82169071D01*
X131415049Y-82169071D01*
X131469121Y-82146673D01*
X131510505Y-82105289D01*
X131532903Y-82051217D01*
X131535785Y-82021953D01*
X131535785Y-80671953D01*
X131814357Y-80671953D01*
X131843621Y-80669071D01*
X131897693Y-80646673D01*
X131939077Y-80605289D01*
X131961475Y-80551217D01*
X131961475Y-80521953D01*
X132164356Y-80521953D01*
X132164356Y-82021953D01*
X132167238Y-82051217D01*
X132189636Y-82105289D01*
X132231020Y-82146673D01*
X132285092Y-82169071D01*
X132343620Y-82169071D01*
X132397692Y-82146673D01*
X132439076Y-82105289D01*
X132461474Y-82051217D01*
X132464356Y-82021953D01*
X132464356Y-81386239D01*
X133021499Y-81386239D01*
X133021499Y-82021953D01*
X133024381Y-82051217D01*
X133046779Y-82105289D01*
X133088163Y-82146673D01*
X133142235Y-82169071D01*
X133200763Y-82169071D01*
X133254835Y-82146673D01*
X133296219Y-82105289D01*
X133318617Y-82051217D01*
X133321499Y-82021953D01*
X133321499Y-80521953D01*
X133735785Y-80521953D01*
X133735785Y-82021953D01*
X133738667Y-82051217D01*
X133761065Y-82105289D01*
X133802449Y-82146673D01*
X133856521Y-82169071D01*
X133885785Y-82171953D01*
X134600071Y-82171953D01*
X134629335Y-82169071D01*
X134683407Y-82146673D01*
X134724791Y-82105289D01*
X134747189Y-82051217D01*
X134747189Y-81992689D01*
X134724791Y-81938617D01*
X134683407Y-81897233D01*
X134629335Y-81874835D01*
X134600071Y-81871953D01*
X134035785Y-81871953D01*
X134035785Y-81386239D01*
X134385785Y-81386239D01*
X134415049Y-81383357D01*
X134469121Y-81360959D01*
X134510505Y-81319575D01*
X134532903Y-81265503D01*
X134532903Y-81206975D01*
X134510505Y-81152903D01*
X134469121Y-81111519D01*
X134415049Y-81089121D01*
X134385785Y-81086239D01*
X134035785Y-81086239D01*
X134035785Y-80671953D01*
X134600071Y-80671953D01*
X134629335Y-80669071D01*
X134683407Y-80646673D01*
X134724791Y-80605289D01*
X134747189Y-80551217D01*
X134747189Y-80521953D01*
X135092928Y-80521953D01*
X135092928Y-82021953D01*
X135095810Y-82051217D01*
X135118208Y-82105289D01*
X135159592Y-82146673D01*
X135213664Y-82169071D01*
X135272192Y-82169071D01*
X135326264Y-82146673D01*
X135367648Y-82105289D01*
X135390046Y-82051217D01*
X135392928Y-82021953D01*
X135392928Y-81457667D01*
X135521973Y-81457667D01*
X135977186Y-82107972D01*
X135996329Y-82130294D01*
X136045686Y-82161747D01*
X136103322Y-82171918D01*
X136160464Y-82159259D01*
X136208412Y-82125695D01*
X136239865Y-82076338D01*
X136250036Y-82018702D01*
X136237377Y-81961560D01*
X136222956Y-81935934D01*
X135878004Y-81443145D01*
X135881439Y-81441831D01*
X136024296Y-81370403D01*
X136036889Y-81362475D01*
X136040549Y-81360960D01*
X136044668Y-81357578D01*
X136049182Y-81354738D01*
X136051778Y-81351744D01*
X136063280Y-81342305D01*
X136134709Y-81270876D01*
X136144150Y-81259371D01*
X136147142Y-81256777D01*
X136149980Y-81252267D01*
X136153364Y-81248145D01*
X136154880Y-81244483D01*
X136162807Y-81231892D01*
X136234235Y-81089034D01*
X136244745Y-81061571D01*
X136245126Y-81056195D01*
X136247189Y-81051217D01*
X136250071Y-81021953D01*
X136250071Y-80807667D01*
X136247189Y-80778403D01*
X136245126Y-80773424D01*
X136244745Y-80768049D01*
X136234235Y-80740586D01*
X136162807Y-80597728D01*
X136154878Y-80585133D01*
X136153363Y-80581474D01*
X136149981Y-80577353D01*
X136147142Y-80572843D01*
X136144150Y-80570248D01*
X136134708Y-80558743D01*
X136097917Y-80521953D01*
X136592928Y-80521953D01*
X136592928Y-82021953D01*
X136595810Y-82051217D01*
X136618208Y-82105289D01*
X136659592Y-82146673D01*
X136713664Y-82169071D01*
X136772192Y-82169071D01*
X136826264Y-82146673D01*
X136867648Y-82105289D01*
X136890046Y-82051217D01*
X136892928Y-82021953D01*
X136892928Y-81198086D01*
X137107001Y-81656815D01*
X137113347Y-81667528D01*
X137114668Y-81671160D01*
X137117019Y-81673728D01*
X137121988Y-81682115D01*
X137138793Y-81697505D01*
X137154195Y-81714323D01*
X137160238Y-81717143D01*
X137165151Y-81721642D01*
X137186571Y-81729431D01*
X137207233Y-81739073D01*
X137213890Y-81739365D01*
X137220153Y-81741643D01*
X137242932Y-81740642D01*
X137265703Y-81741643D01*
X137271962Y-81739366D01*
X137278624Y-81739074D01*
X137299291Y-81729429D01*
X137320706Y-81721642D01*
X137325619Y-81717142D01*
X137331661Y-81714323D01*
X137347056Y-81697510D01*
X137363869Y-81682115D01*
X137368837Y-81673726D01*
X137371188Y-81671160D01*
X137372507Y-81667530D01*
X137378855Y-81656815D01*
X137592928Y-81198087D01*
X137592928Y-82021953D01*
X137595810Y-82051217D01*
X137618208Y-82105289D01*
X137659592Y-82146673D01*
X137713664Y-82169071D01*
X137772192Y-82169071D01*
X137826264Y-82146673D01*
X137867648Y-82105289D01*
X137890046Y-82051217D01*
X137892928Y-82021953D01*
X137892928Y-82003192D01*
X138094107Y-82003192D01*
X138098256Y-82061573D01*
X138124430Y-82113920D01*
X138168644Y-82152267D01*
X138224168Y-82170775D01*
X138282549Y-82166626D01*
X138334896Y-82140452D01*
X138373243Y-82096238D01*
X138385231Y-82069387D01*
X138493900Y-81743382D01*
X138991959Y-81743382D01*
X139100627Y-82069387D01*
X139112615Y-82096238D01*
X139150962Y-82140453D01*
X139203310Y-82166626D01*
X139261690Y-82170776D01*
X139317214Y-82152267D01*
X139361428Y-82113920D01*
X139387602Y-82061573D01*
X139391752Y-82003193D01*
X139385232Y-81974519D01*
X138901042Y-80521953D01*
X139592928Y-80521953D01*
X139592928Y-82021953D01*
X139595810Y-82051217D01*
X139618208Y-82105289D01*
X139659592Y-82146673D01*
X139713664Y-82169071D01*
X139742928Y-82171953D01*
X140457214Y-82171953D01*
X140486478Y-82169071D01*
X140540550Y-82146673D01*
X140581934Y-82105289D01*
X140604332Y-82051217D01*
X140604332Y-81992689D01*
X140581934Y-81938617D01*
X140540550Y-81897233D01*
X140486478Y-81874835D01*
X140457214Y-81871953D01*
X139892928Y-81871953D01*
X139892928Y-80521953D01*
X141950071Y-80521953D01*
X141950071Y-82021953D01*
X141952953Y-82051217D01*
X141975351Y-82105289D01*
X142016735Y-82146673D01*
X142070807Y-82169071D01*
X142129335Y-82169071D01*
X142183407Y-82146673D01*
X142224791Y-82105289D01*
X142247189Y-82051217D01*
X142250071Y-82021953D01*
X142250071Y-82003192D01*
X143236964Y-82003192D01*
X143241113Y-82061573D01*
X143267287Y-82113920D01*
X143311501Y-82152267D01*
X143367025Y-82170775D01*
X143425406Y-82166626D01*
X143477753Y-82140452D01*
X143516100Y-82096238D01*
X143528088Y-82069387D01*
X143636757Y-81743382D01*
X144134816Y-81743382D01*
X144243484Y-82069387D01*
X144255472Y-82096238D01*
X144293819Y-82140453D01*
X144346167Y-82166626D01*
X144404547Y-82170776D01*
X144460071Y-82152267D01*
X144504285Y-82113920D01*
X144530459Y-82061573D01*
X144534609Y-82003193D01*
X144528089Y-81974519D01*
X144043899Y-80521953D01*
X144735785Y-80521953D01*
X144735785Y-82021953D01*
X144738667Y-82051217D01*
X144761065Y-82105289D01*
X144802449Y-82146673D01*
X144856521Y-82169071D01*
X144885785Y-82171953D01*
X145242928Y-82171953D01*
X145257733Y-82170494D01*
X145261688Y-82170776D01*
X145266889Y-82169593D01*
X145272192Y-82169071D01*
X145275849Y-82167555D01*
X145290362Y-82164256D01*
X145504648Y-82092828D01*
X145531499Y-82080840D01*
X145535570Y-82077308D01*
X145540550Y-82075246D01*
X145563280Y-82056591D01*
X145706137Y-81913733D01*
X145715575Y-81902231D01*
X145718570Y-81899635D01*
X145721410Y-81895121D01*
X145724792Y-81891002D01*
X145726307Y-81887342D01*
X145734235Y-81874749D01*
X145805664Y-81731893D01*
X145806483Y-81729750D01*
X145807128Y-81728881D01*
X145811512Y-81716609D01*
X145816173Y-81704429D01*
X145816249Y-81703348D01*
X145817021Y-81701190D01*
X145888449Y-81415476D01*
X145889198Y-81410404D01*
X145890046Y-81408360D01*
X145891131Y-81397337D01*
X145892751Y-81386387D01*
X145892425Y-81384199D01*
X145892928Y-81379096D01*
X145892928Y-81164810D01*
X145892425Y-81159706D01*
X145892751Y-81157519D01*
X145891131Y-81146568D01*
X145890046Y-81135546D01*
X145889198Y-81133501D01*
X145888449Y-81128430D01*
X145817021Y-80842716D01*
X145816249Y-80840557D01*
X145816173Y-80839477D01*
X145811512Y-80827296D01*
X145807128Y-80815025D01*
X145806483Y-80814155D01*
X145805664Y-80812013D01*
X145734235Y-80669157D01*
X145726308Y-80656565D01*
X145724792Y-80652903D01*
X145721408Y-80648780D01*
X145718570Y-80644271D01*
X145715577Y-80641675D01*
X145706137Y-80630173D01*
X145563280Y-80487316D01*
X145540549Y-80468661D01*
X145535569Y-80466598D01*
X145531499Y-80463068D01*
X145504648Y-80451079D01*
X145290362Y-80379651D01*
X145275854Y-80376352D01*
X145272192Y-80374835D01*
X145266883Y-80374312D01*
X145261689Y-80373131D01*
X145257739Y-80373411D01*
X145242928Y-80371953D01*
X144885785Y-80371953D01*
X144856521Y-80374835D01*
X144802449Y-80397233D01*
X144761065Y-80438617D01*
X144738667Y-80492689D01*
X144735785Y-80521953D01*
X144043899Y-80521953D01*
X144028088Y-80474519D01*
X144016100Y-80447668D01*
X144009077Y-80439571D01*
X144004285Y-80429986D01*
X143990076Y-80417662D01*
X143977753Y-80403454D01*
X143968167Y-80398661D01*
X143960071Y-80391639D01*
X143942227Y-80385690D01*
X143925406Y-80377280D01*
X143914717Y-80376520D01*
X143904547Y-80373130D01*
X143885781Y-80374463D01*
X143867025Y-80373131D01*
X143856857Y-80376520D01*
X143846167Y-80377280D01*
X143829343Y-80385691D01*
X143811501Y-80391639D01*
X143803406Y-80398659D01*
X143793819Y-80403453D01*
X143781493Y-80417664D01*
X143767287Y-80429986D01*
X143762494Y-80439570D01*
X143755472Y-80447668D01*
X143743484Y-80474519D01*
X143243484Y-81974519D01*
X143236964Y-82003192D01*
X142250071Y-82003192D01*
X142250071Y-81457667D01*
X142671500Y-81457667D01*
X142700764Y-81454785D01*
X142705742Y-81452722D01*
X142711118Y-81452341D01*
X142738582Y-81441831D01*
X142881439Y-81370403D01*
X142894032Y-81362475D01*
X142897692Y-81360960D01*
X142901811Y-81357578D01*
X142906325Y-81354738D01*
X142908921Y-81351744D01*
X142920423Y-81342305D01*
X142991852Y-81270876D01*
X143001293Y-81259371D01*
X143004285Y-81256777D01*
X143007123Y-81252267D01*
X143010507Y-81248145D01*
X143012023Y-81244483D01*
X143019950Y-81231892D01*
X143091378Y-81089034D01*
X143101888Y-81061571D01*
X143102269Y-81056195D01*
X143104332Y-81051217D01*
X143107214Y-81021953D01*
X143107214Y-80807667D01*
X143104332Y-80778403D01*
X143102269Y-80773424D01*
X143101888Y-80768049D01*
X143091378Y-80740586D01*
X143019950Y-80597728D01*
X143012021Y-80585133D01*
X143010506Y-80581474D01*
X143007124Y-80577353D01*
X143004285Y-80572843D01*
X143001293Y-80570248D01*
X142991851Y-80558743D01*
X142920422Y-80487315D01*
X142908922Y-80477877D01*
X142906325Y-80474883D01*
X142901808Y-80472040D01*
X142897691Y-80468661D01*
X142894034Y-80467146D01*
X142881439Y-80459218D01*
X142738582Y-80387789D01*
X142711119Y-80377280D01*
X142705744Y-80376898D01*
X142700764Y-80374835D01*
X142671500Y-80371953D01*
X142100071Y-80371953D01*
X142070807Y-80374835D01*
X142016735Y-80397233D01*
X141975351Y-80438617D01*
X141952953Y-80492689D01*
X141950071Y-80521953D01*
X139892928Y-80521953D01*
X139890046Y-80492689D01*
X139867648Y-80438617D01*
X139826264Y-80397233D01*
X139772192Y-80374835D01*
X139713664Y-80374835D01*
X139659592Y-80397233D01*
X139618208Y-80438617D01*
X139595810Y-80492689D01*
X139592928Y-80521953D01*
X138901042Y-80521953D01*
X138885231Y-80474519D01*
X138873243Y-80447668D01*
X138866220Y-80439571D01*
X138861428Y-80429986D01*
X138847219Y-80417662D01*
X138834896Y-80403454D01*
X138825310Y-80398661D01*
X138817214Y-80391639D01*
X138799370Y-80385690D01*
X138782549Y-80377280D01*
X138771860Y-80376520D01*
X138761690Y-80373130D01*
X138742924Y-80374463D01*
X138724168Y-80373131D01*
X138714000Y-80376520D01*
X138703310Y-80377280D01*
X138686486Y-80385691D01*
X138668644Y-80391639D01*
X138660549Y-80398659D01*
X138650962Y-80403453D01*
X138638636Y-80417664D01*
X138624430Y-80429986D01*
X138619637Y-80439570D01*
X138612615Y-80447668D01*
X138600627Y-80474519D01*
X138100627Y-81974519D01*
X138094107Y-82003192D01*
X137892928Y-82003192D01*
X137892928Y-80521953D01*
X137891033Y-80502715D01*
X137891189Y-80499177D01*
X137890497Y-80497276D01*
X137890046Y-80492689D01*
X137880085Y-80468643D01*
X137871188Y-80444175D01*
X137868928Y-80441707D01*
X137867648Y-80438617D01*
X137849250Y-80420219D01*
X137831661Y-80401012D01*
X137828627Y-80399596D01*
X137826264Y-80397233D01*
X137802233Y-80387279D01*
X137778624Y-80376261D01*
X137775279Y-80376114D01*
X137772192Y-80374835D01*
X137746168Y-80374835D01*
X137720153Y-80373692D01*
X137717010Y-80374835D01*
X137713664Y-80374835D01*
X137689611Y-80384798D01*
X137665151Y-80393693D01*
X137662683Y-80395952D01*
X137659592Y-80397233D01*
X137641183Y-80415641D01*
X137621988Y-80433220D01*
X137619638Y-80437186D01*
X137618208Y-80438617D01*
X137616852Y-80441889D01*
X137607001Y-80458520D01*
X137242928Y-81238676D01*
X136878855Y-80458520D01*
X136869001Y-80441885D01*
X136867648Y-80438617D01*
X136866219Y-80437188D01*
X136863869Y-80433220D01*
X136844661Y-80415630D01*
X136826264Y-80397233D01*
X136823173Y-80395952D01*
X136820706Y-80393693D01*
X136796240Y-80384796D01*
X136772192Y-80374835D01*
X136768846Y-80374835D01*
X136765703Y-80373692D01*
X136739699Y-80374835D01*
X136713664Y-80374835D01*
X136710573Y-80376115D01*
X136707233Y-80376262D01*
X136683637Y-80387272D01*
X136659592Y-80397233D01*
X136657228Y-80399596D01*
X136654195Y-80401012D01*
X136636605Y-80420219D01*
X136618208Y-80438617D01*
X136616927Y-80441707D01*
X136614668Y-80444175D01*
X136605771Y-80468640D01*
X136595810Y-80492689D01*
X136595358Y-80497277D01*
X136594667Y-80499178D01*
X136594822Y-80502716D01*
X136592928Y-80521953D01*
X136097917Y-80521953D01*
X136063279Y-80487315D01*
X136051779Y-80477877D01*
X136049182Y-80474883D01*
X136044665Y-80472040D01*
X136040548Y-80468661D01*
X136036891Y-80467146D01*
X136024296Y-80459218D01*
X135881439Y-80387789D01*
X135853976Y-80377280D01*
X135848601Y-80376898D01*
X135843621Y-80374835D01*
X135814357Y-80371953D01*
X135242928Y-80371953D01*
X135213664Y-80374835D01*
X135159592Y-80397233D01*
X135118208Y-80438617D01*
X135095810Y-80492689D01*
X135092928Y-80521953D01*
X134747189Y-80521953D01*
X134747189Y-80492689D01*
X134724791Y-80438617D01*
X134683407Y-80397233D01*
X134629335Y-80374835D01*
X134600071Y-80371953D01*
X133885785Y-80371953D01*
X133856521Y-80374835D01*
X133802449Y-80397233D01*
X133761065Y-80438617D01*
X133738667Y-80492689D01*
X133735785Y-80521953D01*
X133321499Y-80521953D01*
X133318617Y-80492689D01*
X133296219Y-80438617D01*
X133254835Y-80397233D01*
X133200763Y-80374835D01*
X133142235Y-80374835D01*
X133088163Y-80397233D01*
X133046779Y-80438617D01*
X133024381Y-80492689D01*
X133021499Y-80521953D01*
X133021499Y-81086239D01*
X132464356Y-81086239D01*
X132464356Y-80521953D01*
X132461474Y-80492689D01*
X132439076Y-80438617D01*
X132397692Y-80397233D01*
X132343620Y-80374835D01*
X132285092Y-80374835D01*
X132231020Y-80397233D01*
X132189636Y-80438617D01*
X132167238Y-80492689D01*
X132164356Y-80521953D01*
X131961475Y-80521953D01*
X131961475Y-80492689D01*
X131939077Y-80438617D01*
X131897693Y-80397233D01*
X131843621Y-80374835D01*
X131814357Y-80371953D01*
X130957214Y-80371953D01*
X130927950Y-80374835D01*
X130873878Y-80397233D01*
X130832494Y-80438617D01*
X130810096Y-80492689D01*
X130643429Y-80492689D01*
X130643429Y-80205286D01*
X146059595Y-80205286D01*
X146059595Y-82338620D01*
G37*
D10*
X129988750Y-161137600D02*
X146168500Y-161137600D01*
X146168500Y-161544000D01*
X129988750Y-161544000D01*
X129988750Y-161137600D01*
G36*
X129988750Y-161137600D02*
G01*
X146168500Y-161137600D01*
X146168500Y-161544000D01*
X129988750Y-161544000D01*
X129988750Y-161137600D01*
G37*
X129023500Y-158876750D02*
X146981250Y-158876750D01*
X146981250Y-159105100D01*
X129023500Y-159105100D01*
X129023500Y-158876750D01*
G36*
X129023500Y-158876750D02*
G01*
X146981250Y-158876750D01*
X146981250Y-159105100D01*
X129023500Y-159105100D01*
X129023500Y-158876750D01*
G37*
X146041500Y-158876750D02*
X151240000Y-158876750D01*
X151240000Y-161544000D01*
X146041500Y-161544000D01*
X146041500Y-158876750D01*
G36*
X146041500Y-158876750D02*
G01*
X151240000Y-158876750D01*
X151240000Y-161544000D01*
X146041500Y-161544000D01*
X146041500Y-158876750D01*
G37*
X125603000Y-158876750D02*
X130674500Y-158876750D01*
X130674500Y-161544000D01*
X125603000Y-161544000D01*
X125603000Y-158876750D01*
G36*
X125603000Y-158876750D02*
G01*
X130674500Y-158876750D01*
X130674500Y-161544000D01*
X125603000Y-161544000D01*
X125603000Y-158876750D01*
G37*
D11*
G36*
X145376186Y-159591236D02*
G01*
X145476793Y-159691843D01*
X145529972Y-159798202D01*
X145592928Y-160050023D01*
X145592928Y-160227382D01*
X145529972Y-160479203D01*
X145476793Y-160585563D01*
X145376187Y-160686169D01*
X145218585Y-160738703D01*
X145035785Y-160738703D01*
X145035785Y-159538703D01*
X145218588Y-159538703D01*
X145376186Y-159591236D01*
G37*
G36*
X135868361Y-159583410D02*
G01*
X135905365Y-159620414D01*
X135950071Y-159709826D01*
X135950071Y-159853293D01*
X135905364Y-159942706D01*
X135868359Y-159979711D01*
X135778947Y-160024417D01*
X135392928Y-160024417D01*
X135392928Y-159538703D01*
X135778947Y-159538703D01*
X135868361Y-159583410D01*
G37*
G36*
X138891959Y-160310132D02*
G01*
X138593900Y-160310132D01*
X138742929Y-159863044D01*
X138891959Y-160310132D01*
G37*
G36*
X144034816Y-160310132D02*
G01*
X143736757Y-160310132D01*
X143885786Y-159863044D01*
X144034816Y-160310132D01*
G37*
G36*
X142725504Y-159583410D02*
G01*
X142762508Y-159620414D01*
X142807214Y-159709826D01*
X142807214Y-159853293D01*
X142762507Y-159942706D01*
X142725502Y-159979711D01*
X142636090Y-160024417D01*
X142250071Y-160024417D01*
X142250071Y-159538703D01*
X142636090Y-159538703D01*
X142725504Y-159583410D01*
G37*
G36*
X146059595Y-161205370D02*
G01*
X130643429Y-161205370D01*
X130643429Y-159359439D01*
X130810096Y-159359439D01*
X130810096Y-159417967D01*
X130832494Y-159472039D01*
X130873878Y-159513423D01*
X130927950Y-159535821D01*
X130957214Y-159538703D01*
X131235785Y-159538703D01*
X131235785Y-160888703D01*
X131238667Y-160917967D01*
X131261065Y-160972039D01*
X131302449Y-161013423D01*
X131356521Y-161035821D01*
X131415049Y-161035821D01*
X131469121Y-161013423D01*
X131510505Y-160972039D01*
X131532903Y-160917967D01*
X131535785Y-160888703D01*
X131535785Y-159538703D01*
X131814357Y-159538703D01*
X131843621Y-159535821D01*
X131897693Y-159513423D01*
X131939077Y-159472039D01*
X131961475Y-159417967D01*
X131961475Y-159388703D01*
X132164356Y-159388703D01*
X132164356Y-160888703D01*
X132167238Y-160917967D01*
X132189636Y-160972039D01*
X132231020Y-161013423D01*
X132285092Y-161035821D01*
X132343620Y-161035821D01*
X132397692Y-161013423D01*
X132439076Y-160972039D01*
X132461474Y-160917967D01*
X132464356Y-160888703D01*
X132464356Y-160252989D01*
X133021499Y-160252989D01*
X133021499Y-160888703D01*
X133024381Y-160917967D01*
X133046779Y-160972039D01*
X133088163Y-161013423D01*
X133142235Y-161035821D01*
X133200763Y-161035821D01*
X133254835Y-161013423D01*
X133296219Y-160972039D01*
X133318617Y-160917967D01*
X133321499Y-160888703D01*
X133321499Y-159388703D01*
X133735785Y-159388703D01*
X133735785Y-160888703D01*
X133738667Y-160917967D01*
X133761065Y-160972039D01*
X133802449Y-161013423D01*
X133856521Y-161035821D01*
X133885785Y-161038703D01*
X134600071Y-161038703D01*
X134629335Y-161035821D01*
X134683407Y-161013423D01*
X134724791Y-160972039D01*
X134747189Y-160917967D01*
X134747189Y-160859439D01*
X134724791Y-160805367D01*
X134683407Y-160763983D01*
X134629335Y-160741585D01*
X134600071Y-160738703D01*
X134035785Y-160738703D01*
X134035785Y-160252989D01*
X134385785Y-160252989D01*
X134415049Y-160250107D01*
X134469121Y-160227709D01*
X134510505Y-160186325D01*
X134532903Y-160132253D01*
X134532903Y-160073725D01*
X134510505Y-160019653D01*
X134469121Y-159978269D01*
X134415049Y-159955871D01*
X134385785Y-159952989D01*
X134035785Y-159952989D01*
X134035785Y-159538703D01*
X134600071Y-159538703D01*
X134629335Y-159535821D01*
X134683407Y-159513423D01*
X134724791Y-159472039D01*
X134747189Y-159417967D01*
X134747189Y-159388703D01*
X135092928Y-159388703D01*
X135092928Y-160888703D01*
X135095810Y-160917967D01*
X135118208Y-160972039D01*
X135159592Y-161013423D01*
X135213664Y-161035821D01*
X135272192Y-161035821D01*
X135326264Y-161013423D01*
X135367648Y-160972039D01*
X135390046Y-160917967D01*
X135392928Y-160888703D01*
X135392928Y-160324417D01*
X135521973Y-160324417D01*
X135977186Y-160974722D01*
X135996329Y-160997044D01*
X136045686Y-161028497D01*
X136103322Y-161038668D01*
X136160464Y-161026009D01*
X136208412Y-160992445D01*
X136239865Y-160943088D01*
X136250036Y-160885452D01*
X136237377Y-160828310D01*
X136222956Y-160802684D01*
X135878004Y-160309895D01*
X135881439Y-160308581D01*
X136024296Y-160237153D01*
X136036889Y-160229225D01*
X136040549Y-160227710D01*
X136044668Y-160224328D01*
X136049182Y-160221488D01*
X136051778Y-160218494D01*
X136063280Y-160209055D01*
X136134709Y-160137626D01*
X136144150Y-160126121D01*
X136147142Y-160123527D01*
X136149980Y-160119017D01*
X136153364Y-160114895D01*
X136154880Y-160111233D01*
X136162807Y-160098642D01*
X136234235Y-159955784D01*
X136244745Y-159928321D01*
X136245126Y-159922945D01*
X136247189Y-159917967D01*
X136250071Y-159888703D01*
X136250071Y-159674417D01*
X136247189Y-159645153D01*
X136245126Y-159640174D01*
X136244745Y-159634799D01*
X136234235Y-159607336D01*
X136162807Y-159464478D01*
X136154878Y-159451883D01*
X136153363Y-159448224D01*
X136149981Y-159444103D01*
X136147142Y-159439593D01*
X136144150Y-159436998D01*
X136134708Y-159425493D01*
X136097917Y-159388703D01*
X136592928Y-159388703D01*
X136592928Y-160888703D01*
X136595810Y-160917967D01*
X136618208Y-160972039D01*
X136659592Y-161013423D01*
X136713664Y-161035821D01*
X136772192Y-161035821D01*
X136826264Y-161013423D01*
X136867648Y-160972039D01*
X136890046Y-160917967D01*
X136892928Y-160888703D01*
X136892928Y-160064836D01*
X137107001Y-160523565D01*
X137113347Y-160534278D01*
X137114668Y-160537910D01*
X137117019Y-160540478D01*
X137121988Y-160548865D01*
X137138793Y-160564255D01*
X137154195Y-160581073D01*
X137160238Y-160583893D01*
X137165151Y-160588392D01*
X137186571Y-160596181D01*
X137207233Y-160605823D01*
X137213890Y-160606115D01*
X137220153Y-160608393D01*
X137242932Y-160607392D01*
X137265703Y-160608393D01*
X137271962Y-160606116D01*
X137278624Y-160605824D01*
X137299291Y-160596179D01*
X137320706Y-160588392D01*
X137325619Y-160583892D01*
X137331661Y-160581073D01*
X137347056Y-160564260D01*
X137363869Y-160548865D01*
X137368837Y-160540476D01*
X137371188Y-160537910D01*
X137372507Y-160534280D01*
X137378855Y-160523565D01*
X137592928Y-160064837D01*
X137592928Y-160888703D01*
X137595810Y-160917967D01*
X137618208Y-160972039D01*
X137659592Y-161013423D01*
X137713664Y-161035821D01*
X137772192Y-161035821D01*
X137826264Y-161013423D01*
X137867648Y-160972039D01*
X137890046Y-160917967D01*
X137892928Y-160888703D01*
X137892928Y-160869942D01*
X138094107Y-160869942D01*
X138098256Y-160928323D01*
X138124430Y-160980670D01*
X138168644Y-161019017D01*
X138224168Y-161037525D01*
X138282549Y-161033376D01*
X138334896Y-161007202D01*
X138373243Y-160962988D01*
X138385231Y-160936137D01*
X138493900Y-160610132D01*
X138991959Y-160610132D01*
X139100627Y-160936137D01*
X139112615Y-160962988D01*
X139150962Y-161007203D01*
X139203310Y-161033376D01*
X139261690Y-161037526D01*
X139317214Y-161019017D01*
X139361428Y-160980670D01*
X139387602Y-160928323D01*
X139391752Y-160869943D01*
X139385232Y-160841269D01*
X138901042Y-159388703D01*
X139592928Y-159388703D01*
X139592928Y-160888703D01*
X139595810Y-160917967D01*
X139618208Y-160972039D01*
X139659592Y-161013423D01*
X139713664Y-161035821D01*
X139742928Y-161038703D01*
X140457214Y-161038703D01*
X140486478Y-161035821D01*
X140540550Y-161013423D01*
X140581934Y-160972039D01*
X140604332Y-160917967D01*
X140604332Y-160859439D01*
X140581934Y-160805367D01*
X140540550Y-160763983D01*
X140486478Y-160741585D01*
X140457214Y-160738703D01*
X139892928Y-160738703D01*
X139892928Y-159388703D01*
X141950071Y-159388703D01*
X141950071Y-160888703D01*
X141952953Y-160917967D01*
X141975351Y-160972039D01*
X142016735Y-161013423D01*
X142070807Y-161035821D01*
X142129335Y-161035821D01*
X142183407Y-161013423D01*
X142224791Y-160972039D01*
X142247189Y-160917967D01*
X142250071Y-160888703D01*
X142250071Y-160869942D01*
X143236964Y-160869942D01*
X143241113Y-160928323D01*
X143267287Y-160980670D01*
X143311501Y-161019017D01*
X143367025Y-161037525D01*
X143425406Y-161033376D01*
X143477753Y-161007202D01*
X143516100Y-160962988D01*
X143528088Y-160936137D01*
X143636757Y-160610132D01*
X144134816Y-160610132D01*
X144243484Y-160936137D01*
X144255472Y-160962988D01*
X144293819Y-161007203D01*
X144346167Y-161033376D01*
X144404547Y-161037526D01*
X144460071Y-161019017D01*
X144504285Y-160980670D01*
X144530459Y-160928323D01*
X144534609Y-160869943D01*
X144528089Y-160841269D01*
X144043899Y-159388703D01*
X144735785Y-159388703D01*
X144735785Y-160888703D01*
X144738667Y-160917967D01*
X144761065Y-160972039D01*
X144802449Y-161013423D01*
X144856521Y-161035821D01*
X144885785Y-161038703D01*
X145242928Y-161038703D01*
X145257733Y-161037244D01*
X145261688Y-161037526D01*
X145266889Y-161036343D01*
X145272192Y-161035821D01*
X145275849Y-161034305D01*
X145290362Y-161031006D01*
X145504648Y-160959578D01*
X145531499Y-160947590D01*
X145535570Y-160944058D01*
X145540550Y-160941996D01*
X145563280Y-160923341D01*
X145706137Y-160780483D01*
X145715575Y-160768981D01*
X145718570Y-160766385D01*
X145721410Y-160761871D01*
X145724792Y-160757752D01*
X145726307Y-160754092D01*
X145734235Y-160741499D01*
X145805664Y-160598643D01*
X145806483Y-160596500D01*
X145807128Y-160595631D01*
X145811512Y-160583359D01*
X145816173Y-160571179D01*
X145816249Y-160570098D01*
X145817021Y-160567940D01*
X145888449Y-160282226D01*
X145889198Y-160277154D01*
X145890046Y-160275110D01*
X145891131Y-160264087D01*
X145892751Y-160253137D01*
X145892425Y-160250949D01*
X145892928Y-160245846D01*
X145892928Y-160031560D01*
X145892425Y-160026456D01*
X145892751Y-160024269D01*
X145891131Y-160013318D01*
X145890046Y-160002296D01*
X145889198Y-160000251D01*
X145888449Y-159995180D01*
X145817021Y-159709466D01*
X145816249Y-159707307D01*
X145816173Y-159706227D01*
X145811512Y-159694046D01*
X145807128Y-159681775D01*
X145806483Y-159680905D01*
X145805664Y-159678763D01*
X145734235Y-159535907D01*
X145726308Y-159523315D01*
X145724792Y-159519653D01*
X145721408Y-159515530D01*
X145718570Y-159511021D01*
X145715577Y-159508425D01*
X145706137Y-159496923D01*
X145563280Y-159354066D01*
X145540549Y-159335411D01*
X145535569Y-159333348D01*
X145531499Y-159329818D01*
X145504648Y-159317829D01*
X145290362Y-159246401D01*
X145275854Y-159243102D01*
X145272192Y-159241585D01*
X145266883Y-159241062D01*
X145261689Y-159239881D01*
X145257739Y-159240161D01*
X145242928Y-159238703D01*
X144885785Y-159238703D01*
X144856521Y-159241585D01*
X144802449Y-159263983D01*
X144761065Y-159305367D01*
X144738667Y-159359439D01*
X144735785Y-159388703D01*
X144043899Y-159388703D01*
X144028088Y-159341269D01*
X144016100Y-159314418D01*
X144009077Y-159306321D01*
X144004285Y-159296736D01*
X143990076Y-159284412D01*
X143977753Y-159270204D01*
X143968167Y-159265411D01*
X143960071Y-159258389D01*
X143942227Y-159252440D01*
X143925406Y-159244030D01*
X143914717Y-159243270D01*
X143904547Y-159239880D01*
X143885781Y-159241213D01*
X143867025Y-159239881D01*
X143856857Y-159243270D01*
X143846167Y-159244030D01*
X143829343Y-159252441D01*
X143811501Y-159258389D01*
X143803406Y-159265409D01*
X143793819Y-159270203D01*
X143781493Y-159284414D01*
X143767287Y-159296736D01*
X143762494Y-159306320D01*
X143755472Y-159314418D01*
X143743484Y-159341269D01*
X143243484Y-160841269D01*
X143236964Y-160869942D01*
X142250071Y-160869942D01*
X142250071Y-160324417D01*
X142671500Y-160324417D01*
X142700764Y-160321535D01*
X142705742Y-160319472D01*
X142711118Y-160319091D01*
X142738582Y-160308581D01*
X142881439Y-160237153D01*
X142894032Y-160229225D01*
X142897692Y-160227710D01*
X142901811Y-160224328D01*
X142906325Y-160221488D01*
X142908921Y-160218494D01*
X142920423Y-160209055D01*
X142991852Y-160137626D01*
X143001293Y-160126121D01*
X143004285Y-160123527D01*
X143007123Y-160119017D01*
X143010507Y-160114895D01*
X143012023Y-160111233D01*
X143019950Y-160098642D01*
X143091378Y-159955784D01*
X143101888Y-159928321D01*
X143102269Y-159922945D01*
X143104332Y-159917967D01*
X143107214Y-159888703D01*
X143107214Y-159674417D01*
X143104332Y-159645153D01*
X143102269Y-159640174D01*
X143101888Y-159634799D01*
X143091378Y-159607336D01*
X143019950Y-159464478D01*
X143012021Y-159451883D01*
X143010506Y-159448224D01*
X143007124Y-159444103D01*
X143004285Y-159439593D01*
X143001293Y-159436998D01*
X142991851Y-159425493D01*
X142920422Y-159354065D01*
X142908922Y-159344627D01*
X142906325Y-159341633D01*
X142901808Y-159338790D01*
X142897691Y-159335411D01*
X142894034Y-159333896D01*
X142881439Y-159325968D01*
X142738582Y-159254539D01*
X142711119Y-159244030D01*
X142705744Y-159243648D01*
X142700764Y-159241585D01*
X142671500Y-159238703D01*
X142100071Y-159238703D01*
X142070807Y-159241585D01*
X142016735Y-159263983D01*
X141975351Y-159305367D01*
X141952953Y-159359439D01*
X141950071Y-159388703D01*
X139892928Y-159388703D01*
X139890046Y-159359439D01*
X139867648Y-159305367D01*
X139826264Y-159263983D01*
X139772192Y-159241585D01*
X139713664Y-159241585D01*
X139659592Y-159263983D01*
X139618208Y-159305367D01*
X139595810Y-159359439D01*
X139592928Y-159388703D01*
X138901042Y-159388703D01*
X138885231Y-159341269D01*
X138873243Y-159314418D01*
X138866220Y-159306321D01*
X138861428Y-159296736D01*
X138847219Y-159284412D01*
X138834896Y-159270204D01*
X138825310Y-159265411D01*
X138817214Y-159258389D01*
X138799370Y-159252440D01*
X138782549Y-159244030D01*
X138771860Y-159243270D01*
X138761690Y-159239880D01*
X138742924Y-159241213D01*
X138724168Y-159239881D01*
X138714000Y-159243270D01*
X138703310Y-159244030D01*
X138686486Y-159252441D01*
X138668644Y-159258389D01*
X138660549Y-159265409D01*
X138650962Y-159270203D01*
X138638636Y-159284414D01*
X138624430Y-159296736D01*
X138619637Y-159306320D01*
X138612615Y-159314418D01*
X138600627Y-159341269D01*
X138100627Y-160841269D01*
X138094107Y-160869942D01*
X137892928Y-160869942D01*
X137892928Y-159388703D01*
X137891033Y-159369465D01*
X137891189Y-159365927D01*
X137890497Y-159364026D01*
X137890046Y-159359439D01*
X137880085Y-159335393D01*
X137871188Y-159310925D01*
X137868928Y-159308457D01*
X137867648Y-159305367D01*
X137849250Y-159286969D01*
X137831661Y-159267762D01*
X137828627Y-159266346D01*
X137826264Y-159263983D01*
X137802233Y-159254029D01*
X137778624Y-159243011D01*
X137775279Y-159242864D01*
X137772192Y-159241585D01*
X137746168Y-159241585D01*
X137720153Y-159240442D01*
X137717010Y-159241585D01*
X137713664Y-159241585D01*
X137689611Y-159251548D01*
X137665151Y-159260443D01*
X137662683Y-159262702D01*
X137659592Y-159263983D01*
X137641183Y-159282391D01*
X137621988Y-159299970D01*
X137619638Y-159303936D01*
X137618208Y-159305367D01*
X137616852Y-159308639D01*
X137607001Y-159325270D01*
X137242928Y-160105426D01*
X136878855Y-159325270D01*
X136869001Y-159308635D01*
X136867648Y-159305367D01*
X136866219Y-159303938D01*
X136863869Y-159299970D01*
X136844661Y-159282380D01*
X136826264Y-159263983D01*
X136823173Y-159262702D01*
X136820706Y-159260443D01*
X136796240Y-159251546D01*
X136772192Y-159241585D01*
X136768846Y-159241585D01*
X136765703Y-159240442D01*
X136739699Y-159241585D01*
X136713664Y-159241585D01*
X136710573Y-159242865D01*
X136707233Y-159243012D01*
X136683637Y-159254022D01*
X136659592Y-159263983D01*
X136657228Y-159266346D01*
X136654195Y-159267762D01*
X136636605Y-159286969D01*
X136618208Y-159305367D01*
X136616927Y-159308457D01*
X136614668Y-159310925D01*
X136605771Y-159335390D01*
X136595810Y-159359439D01*
X136595358Y-159364027D01*
X136594667Y-159365928D01*
X136594822Y-159369466D01*
X136592928Y-159388703D01*
X136097917Y-159388703D01*
X136063279Y-159354065D01*
X136051779Y-159344627D01*
X136049182Y-159341633D01*
X136044665Y-159338790D01*
X136040548Y-159335411D01*
X136036891Y-159333896D01*
X136024296Y-159325968D01*
X135881439Y-159254539D01*
X135853976Y-159244030D01*
X135848601Y-159243648D01*
X135843621Y-159241585D01*
X135814357Y-159238703D01*
X135242928Y-159238703D01*
X135213664Y-159241585D01*
X135159592Y-159263983D01*
X135118208Y-159305367D01*
X135095810Y-159359439D01*
X135092928Y-159388703D01*
X134747189Y-159388703D01*
X134747189Y-159359439D01*
X134724791Y-159305367D01*
X134683407Y-159263983D01*
X134629335Y-159241585D01*
X134600071Y-159238703D01*
X133885785Y-159238703D01*
X133856521Y-159241585D01*
X133802449Y-159263983D01*
X133761065Y-159305367D01*
X133738667Y-159359439D01*
X133735785Y-159388703D01*
X133321499Y-159388703D01*
X133318617Y-159359439D01*
X133296219Y-159305367D01*
X133254835Y-159263983D01*
X133200763Y-159241585D01*
X133142235Y-159241585D01*
X133088163Y-159263983D01*
X133046779Y-159305367D01*
X133024381Y-159359439D01*
X133021499Y-159388703D01*
X133021499Y-159952989D01*
X132464356Y-159952989D01*
X132464356Y-159388703D01*
X132461474Y-159359439D01*
X132439076Y-159305367D01*
X132397692Y-159263983D01*
X132343620Y-159241585D01*
X132285092Y-159241585D01*
X132231020Y-159263983D01*
X132189636Y-159305367D01*
X132167238Y-159359439D01*
X132164356Y-159388703D01*
X131961475Y-159388703D01*
X131961475Y-159359439D01*
X131939077Y-159305367D01*
X131897693Y-159263983D01*
X131843621Y-159241585D01*
X131814357Y-159238703D01*
X130957214Y-159238703D01*
X130927950Y-159241585D01*
X130873878Y-159263983D01*
X130832494Y-159305367D01*
X130810096Y-159359439D01*
X130643429Y-159359439D01*
X130643429Y-159072036D01*
X146059595Y-159072036D01*
X146059595Y-161205370D01*
G37*
D12*
X147093326Y-83399219D02*
X146902850Y-83399219D01*
X146902850Y-83399219D02*
X146807612Y-83446838D01*
X146807612Y-83446838D02*
X146759993Y-83494457D01*
X146759993Y-83494457D02*
X146664755Y-83637314D01*
X146664755Y-83637314D02*
X146617136Y-83827790D01*
X146617136Y-83827790D02*
X146617136Y-84208742D01*
X146617136Y-84208742D02*
X146664755Y-84303980D01*
X146664755Y-84303980D02*
X146712374Y-84351600D01*
X146712374Y-84351600D02*
X146807612Y-84399219D01*
X146807612Y-84399219D02*
X146998088Y-84399219D01*
X146998088Y-84399219D02*
X147093326Y-84351600D01*
X147093326Y-84351600D02*
X147140945Y-84303980D01*
X147140945Y-84303980D02*
X147188564Y-84208742D01*
X147188564Y-84208742D02*
X147188564Y-83970647D01*
X147188564Y-83970647D02*
X147140945Y-83875409D01*
X147140945Y-83875409D02*
X147093326Y-83827790D01*
X147093326Y-83827790D02*
X146998088Y-83780171D01*
X146998088Y-83780171D02*
X146807612Y-83780171D01*
X146807612Y-83780171D02*
X146712374Y-83827790D01*
X146712374Y-83827790D02*
X146664755Y-83875409D01*
X146664755Y-83875409D02*
X146617136Y-83970647D01*
X147807612Y-83399219D02*
X147902850Y-83399219D01*
X147902850Y-83399219D02*
X147998088Y-83446838D01*
X147998088Y-83446838D02*
X148045707Y-83494457D01*
X148045707Y-83494457D02*
X148093326Y-83589695D01*
X148093326Y-83589695D02*
X148140945Y-83780171D01*
X148140945Y-83780171D02*
X148140945Y-84018266D01*
X148140945Y-84018266D02*
X148093326Y-84208742D01*
X148093326Y-84208742D02*
X148045707Y-84303980D01*
X148045707Y-84303980D02*
X147998088Y-84351600D01*
X147998088Y-84351600D02*
X147902850Y-84399219D01*
X147902850Y-84399219D02*
X147807612Y-84399219D01*
X147807612Y-84399219D02*
X147712374Y-84351600D01*
X147712374Y-84351600D02*
X147664755Y-84303980D01*
X147664755Y-84303980D02*
X147617136Y-84208742D01*
X147617136Y-84208742D02*
X147569517Y-84018266D01*
X147569517Y-84018266D02*
X147569517Y-83780171D01*
X147569517Y-83780171D02*
X147617136Y-83589695D01*
X147617136Y-83589695D02*
X147664755Y-83494457D01*
X147664755Y-83494457D02*
X147712374Y-83446838D01*
X147712374Y-83446838D02*
X147807612Y-83399219D01*
X146569517Y-157059219D02*
X147188564Y-157059219D01*
X147188564Y-157059219D02*
X146855231Y-157440171D01*
X146855231Y-157440171D02*
X146998088Y-157440171D01*
X146998088Y-157440171D02*
X147093326Y-157487790D01*
X147093326Y-157487790D02*
X147140945Y-157535409D01*
X147140945Y-157535409D02*
X147188564Y-157630647D01*
X147188564Y-157630647D02*
X147188564Y-157868742D01*
X147188564Y-157868742D02*
X147140945Y-157963980D01*
X147140945Y-157963980D02*
X147093326Y-158011600D01*
X147093326Y-158011600D02*
X146998088Y-158059219D01*
X146998088Y-158059219D02*
X146712374Y-158059219D01*
X146712374Y-158059219D02*
X146617136Y-158011600D01*
X146617136Y-158011600D02*
X146569517Y-157963980D01*
X148140945Y-158059219D02*
X147569517Y-158059219D01*
X147855231Y-158059219D02*
X147855231Y-157059219D01*
X147855231Y-157059219D02*
X147759993Y-157202076D01*
X147759993Y-157202076D02*
X147664755Y-157297314D01*
X147664755Y-157297314D02*
X147569517Y-157344933D01*
X128671435Y-157059219D02*
X129290482Y-157059219D01*
X129290482Y-157059219D02*
X128957149Y-157440171D01*
X128957149Y-157440171D02*
X129100006Y-157440171D01*
X129100006Y-157440171D02*
X129195244Y-157487790D01*
X129195244Y-157487790D02*
X129242863Y-157535409D01*
X129242863Y-157535409D02*
X129290482Y-157630647D01*
X129290482Y-157630647D02*
X129290482Y-157868742D01*
X129290482Y-157868742D02*
X129242863Y-157963980D01*
X129242863Y-157963980D02*
X129195244Y-158011600D01*
X129195244Y-158011600D02*
X129100006Y-158059219D01*
X129100006Y-158059219D02*
X128814292Y-158059219D01*
X128814292Y-158059219D02*
X128719054Y-158011600D01*
X128719054Y-158011600D02*
X128671435Y-157963980D01*
X129909530Y-157059219D02*
X130004768Y-157059219D01*
X130004768Y-157059219D02*
X130100006Y-157106838D01*
X130100006Y-157106838D02*
X130147625Y-157154457D01*
X130147625Y-157154457D02*
X130195244Y-157249695D01*
X130195244Y-157249695D02*
X130242863Y-157440171D01*
X130242863Y-157440171D02*
X130242863Y-157678266D01*
X130242863Y-157678266D02*
X130195244Y-157868742D01*
X130195244Y-157868742D02*
X130147625Y-157963980D01*
X130147625Y-157963980D02*
X130100006Y-158011600D01*
X130100006Y-158011600D02*
X130004768Y-158059219D01*
X130004768Y-158059219D02*
X129909530Y-158059219D01*
X129909530Y-158059219D02*
X129814292Y-158011600D01*
X129814292Y-158011600D02*
X129766673Y-157963980D01*
X129766673Y-157963980D02*
X129719054Y-157868742D01*
X129719054Y-157868742D02*
X129671435Y-157678266D01*
X129671435Y-157678266D02*
X129671435Y-157440171D01*
X129671435Y-157440171D02*
X129719054Y-157249695D01*
X129719054Y-157249695D02*
X129766673Y-157154457D01*
X129766673Y-157154457D02*
X129814292Y-157106838D01*
X129814292Y-157106838D02*
X129909530Y-157059219D01*
X129290482Y-84399219D02*
X128719054Y-84399219D01*
X129004768Y-84399219D02*
X129004768Y-83399219D01*
X129004768Y-83399219D02*
X128909530Y-83542076D01*
X128909530Y-83542076D02*
X128814292Y-83637314D01*
X128814292Y-83637314D02*
X128719054Y-83684933D01*
D10*
X128397000Y-130048000D02*
X148463000Y-130048000D01*
X148463000Y-152527000D01*
X128397000Y-152527000D01*
X128397000Y-130048000D01*
G36*
X128397000Y-130048000D02*
G01*
X148463000Y-130048000D01*
X148463000Y-152527000D01*
X128397000Y-152527000D01*
X128397000Y-130048000D01*
G37*
X128397000Y-99187000D02*
X148463000Y-99187000D01*
X148463000Y-111633000D01*
X128397000Y-111633000D01*
X128397000Y-99187000D01*
G36*
X128397000Y-99187000D02*
G01*
X148463000Y-99187000D01*
X148463000Y-111633000D01*
X128397000Y-111633000D01*
X128397000Y-99187000D01*
G37*
D12*
X136287142Y-154718513D02*
X136191904Y-154670894D01*
X136191904Y-154670894D02*
X136096666Y-154575656D01*
X136096666Y-154575656D02*
X135953809Y-154432798D01*
X135953809Y-154432798D02*
X135858571Y-154385179D01*
X135858571Y-154385179D02*
X135763333Y-154385179D01*
X135810952Y-154623275D02*
X135715714Y-154575656D01*
X135715714Y-154575656D02*
X135620476Y-154480417D01*
X135620476Y-154480417D02*
X135572857Y-154289941D01*
X135572857Y-154289941D02*
X135572857Y-153956608D01*
X135572857Y-153956608D02*
X135620476Y-153766132D01*
X135620476Y-153766132D02*
X135715714Y-153670894D01*
X135715714Y-153670894D02*
X135810952Y-153623275D01*
X135810952Y-153623275D02*
X136001428Y-153623275D01*
X136001428Y-153623275D02*
X136096666Y-153670894D01*
X136096666Y-153670894D02*
X136191904Y-153766132D01*
X136191904Y-153766132D02*
X136239523Y-153956608D01*
X136239523Y-153956608D02*
X136239523Y-154289941D01*
X136239523Y-154289941D02*
X136191904Y-154480417D01*
X136191904Y-154480417D02*
X136096666Y-154575656D01*
X136096666Y-154575656D02*
X136001428Y-154623275D01*
X136001428Y-154623275D02*
X135810952Y-154623275D01*
X137001428Y-154099465D02*
X136668095Y-154099465D01*
X136668095Y-154623275D02*
X136668095Y-153623275D01*
X136668095Y-153623275D02*
X137144285Y-153623275D01*
X137525238Y-154623275D02*
X137525238Y-153623275D01*
X137525238Y-153623275D02*
X138096666Y-154623275D01*
X138096666Y-154623275D02*
X138096666Y-153623275D01*
X138572857Y-154242322D02*
X139334762Y-154242322D01*
X140239523Y-153623275D02*
X140049047Y-153623275D01*
X140049047Y-153623275D02*
X139953809Y-153670894D01*
X139953809Y-153670894D02*
X139906190Y-153718513D01*
X139906190Y-153718513D02*
X139810952Y-153861370D01*
X139810952Y-153861370D02*
X139763333Y-154051846D01*
X139763333Y-154051846D02*
X139763333Y-154432798D01*
X139763333Y-154432798D02*
X139810952Y-154528036D01*
X139810952Y-154528036D02*
X139858571Y-154575656D01*
X139858571Y-154575656D02*
X139953809Y-154623275D01*
X139953809Y-154623275D02*
X140144285Y-154623275D01*
X140144285Y-154623275D02*
X140239523Y-154575656D01*
X140239523Y-154575656D02*
X140287142Y-154528036D01*
X140287142Y-154528036D02*
X140334761Y-154432798D01*
X140334761Y-154432798D02*
X140334761Y-154194703D01*
X140334761Y-154194703D02*
X140287142Y-154099465D01*
X140287142Y-154099465D02*
X140239523Y-154051846D01*
X140239523Y-154051846D02*
X140144285Y-154004227D01*
X140144285Y-154004227D02*
X139953809Y-154004227D01*
X139953809Y-154004227D02*
X139858571Y-154051846D01*
X139858571Y-154051846D02*
X139810952Y-154099465D01*
X139810952Y-154099465D02*
X139763333Y-154194703D01*
X140953809Y-153623275D02*
X141049047Y-153623275D01*
X141049047Y-153623275D02*
X141144285Y-153670894D01*
X141144285Y-153670894D02*
X141191904Y-153718513D01*
X141191904Y-153718513D02*
X141239523Y-153813751D01*
X141239523Y-153813751D02*
X141287142Y-154004227D01*
X141287142Y-154004227D02*
X141287142Y-154242322D01*
X141287142Y-154242322D02*
X141239523Y-154432798D01*
X141239523Y-154432798D02*
X141191904Y-154528036D01*
X141191904Y-154528036D02*
X141144285Y-154575656D01*
X141144285Y-154575656D02*
X141049047Y-154623275D01*
X141049047Y-154623275D02*
X140953809Y-154623275D01*
X140953809Y-154623275D02*
X140858571Y-154575656D01*
X140858571Y-154575656D02*
X140810952Y-154528036D01*
X140810952Y-154528036D02*
X140763333Y-154432798D01*
X140763333Y-154432798D02*
X140715714Y-154242322D01*
X140715714Y-154242322D02*
X140715714Y-154004227D01*
X140715714Y-154004227D02*
X140763333Y-153813751D01*
X140763333Y-153813751D02*
X140810952Y-153718513D01*
X140810952Y-153718513D02*
X140858571Y-153670894D01*
X140858571Y-153670894D02*
X140953809Y-153623275D01*
X135882381Y-155233219D02*
X136549047Y-155233219D01*
X136549047Y-155233219D02*
X136120476Y-156233219D01*
X136834762Y-156233219D02*
X137358571Y-155566552D01*
X136834762Y-155566552D02*
X137358571Y-156233219D01*
X137644286Y-155233219D02*
X138310952Y-155233219D01*
X138310952Y-155233219D02*
X137882381Y-156233219D01*
X138691905Y-156233219D02*
X138691905Y-155566552D01*
X138691905Y-155661790D02*
X138739524Y-155614171D01*
X138739524Y-155614171D02*
X138834762Y-155566552D01*
X138834762Y-155566552D02*
X138977619Y-155566552D01*
X138977619Y-155566552D02*
X139072857Y-155614171D01*
X139072857Y-155614171D02*
X139120476Y-155709409D01*
X139120476Y-155709409D02*
X139120476Y-156233219D01*
X139120476Y-155709409D02*
X139168095Y-155614171D01*
X139168095Y-155614171D02*
X139263333Y-155566552D01*
X139263333Y-155566552D02*
X139406190Y-155566552D01*
X139406190Y-155566552D02*
X139501429Y-155614171D01*
X139501429Y-155614171D02*
X139549048Y-155709409D01*
X139549048Y-155709409D02*
X139549048Y-156233219D01*
X140025238Y-156233219D02*
X140025238Y-155566552D01*
X140025238Y-155661790D02*
X140072857Y-155614171D01*
X140072857Y-155614171D02*
X140168095Y-155566552D01*
X140168095Y-155566552D02*
X140310952Y-155566552D01*
X140310952Y-155566552D02*
X140406190Y-155614171D01*
X140406190Y-155614171D02*
X140453809Y-155709409D01*
X140453809Y-155709409D02*
X140453809Y-156233219D01*
X140453809Y-155709409D02*
X140501428Y-155614171D01*
X140501428Y-155614171D02*
X140596666Y-155566552D01*
X140596666Y-155566552D02*
X140739523Y-155566552D01*
X140739523Y-155566552D02*
X140834762Y-155614171D01*
X140834762Y-155614171D02*
X140882381Y-155709409D01*
X140882381Y-155709409D02*
X140882381Y-156233219D01*
X134049048Y-156843163D02*
X134144286Y-156843163D01*
X134144286Y-156843163D02*
X134239524Y-156890782D01*
X134239524Y-156890782D02*
X134287143Y-156938401D01*
X134287143Y-156938401D02*
X134334762Y-157033639D01*
X134334762Y-157033639D02*
X134382381Y-157224115D01*
X134382381Y-157224115D02*
X134382381Y-157462210D01*
X134382381Y-157462210D02*
X134334762Y-157652686D01*
X134334762Y-157652686D02*
X134287143Y-157747924D01*
X134287143Y-157747924D02*
X134239524Y-157795544D01*
X134239524Y-157795544D02*
X134144286Y-157843163D01*
X134144286Y-157843163D02*
X134049048Y-157843163D01*
X134049048Y-157843163D02*
X133953810Y-157795544D01*
X133953810Y-157795544D02*
X133906191Y-157747924D01*
X133906191Y-157747924D02*
X133858572Y-157652686D01*
X133858572Y-157652686D02*
X133810953Y-157462210D01*
X133810953Y-157462210D02*
X133810953Y-157224115D01*
X133810953Y-157224115D02*
X133858572Y-157033639D01*
X133858572Y-157033639D02*
X133906191Y-156938401D01*
X133906191Y-156938401D02*
X133953810Y-156890782D01*
X133953810Y-156890782D02*
X134049048Y-156843163D01*
X134810953Y-157747924D02*
X134858572Y-157795544D01*
X134858572Y-157795544D02*
X134810953Y-157843163D01*
X134810953Y-157843163D02*
X134763334Y-157795544D01*
X134763334Y-157795544D02*
X134810953Y-157747924D01*
X134810953Y-157747924D02*
X134810953Y-157843163D01*
X135715714Y-157176496D02*
X135715714Y-157843163D01*
X135477619Y-156795544D02*
X135239524Y-157509829D01*
X135239524Y-157509829D02*
X135858571Y-157509829D01*
X136239524Y-157843163D02*
X136239524Y-157176496D01*
X136239524Y-157271734D02*
X136287143Y-157224115D01*
X136287143Y-157224115D02*
X136382381Y-157176496D01*
X136382381Y-157176496D02*
X136525238Y-157176496D01*
X136525238Y-157176496D02*
X136620476Y-157224115D01*
X136620476Y-157224115D02*
X136668095Y-157319353D01*
X136668095Y-157319353D02*
X136668095Y-157843163D01*
X136668095Y-157319353D02*
X136715714Y-157224115D01*
X136715714Y-157224115D02*
X136810952Y-157176496D01*
X136810952Y-157176496D02*
X136953809Y-157176496D01*
X136953809Y-157176496D02*
X137049048Y-157224115D01*
X137049048Y-157224115D02*
X137096667Y-157319353D01*
X137096667Y-157319353D02*
X137096667Y-157843163D01*
X137572857Y-157843163D02*
X137572857Y-157176496D01*
X137572857Y-157271734D02*
X137620476Y-157224115D01*
X137620476Y-157224115D02*
X137715714Y-157176496D01*
X137715714Y-157176496D02*
X137858571Y-157176496D01*
X137858571Y-157176496D02*
X137953809Y-157224115D01*
X137953809Y-157224115D02*
X138001428Y-157319353D01*
X138001428Y-157319353D02*
X138001428Y-157843163D01*
X138001428Y-157319353D02*
X138049047Y-157224115D01*
X138049047Y-157224115D02*
X138144285Y-157176496D01*
X138144285Y-157176496D02*
X138287142Y-157176496D01*
X138287142Y-157176496D02*
X138382381Y-157224115D01*
X138382381Y-157224115D02*
X138430000Y-157319353D01*
X138430000Y-157319353D02*
X138430000Y-157843163D01*
X139668095Y-157843163D02*
X139668095Y-156843163D01*
X139668095Y-156843163D02*
X140049047Y-156843163D01*
X140049047Y-156843163D02*
X140144285Y-156890782D01*
X140144285Y-156890782D02*
X140191904Y-156938401D01*
X140191904Y-156938401D02*
X140239523Y-157033639D01*
X140239523Y-157033639D02*
X140239523Y-157176496D01*
X140239523Y-157176496D02*
X140191904Y-157271734D01*
X140191904Y-157271734D02*
X140144285Y-157319353D01*
X140144285Y-157319353D02*
X140049047Y-157366972D01*
X140049047Y-157366972D02*
X139668095Y-157366972D01*
X140668095Y-157843163D02*
X140668095Y-157176496D01*
X140668095Y-156843163D02*
X140620476Y-156890782D01*
X140620476Y-156890782D02*
X140668095Y-156938401D01*
X140668095Y-156938401D02*
X140715714Y-156890782D01*
X140715714Y-156890782D02*
X140668095Y-156843163D01*
X140668095Y-156843163D02*
X140668095Y-156938401D01*
X141001428Y-157176496D02*
X141382380Y-157176496D01*
X141144285Y-156843163D02*
X141144285Y-157700305D01*
X141144285Y-157700305D02*
X141191904Y-157795544D01*
X141191904Y-157795544D02*
X141287142Y-157843163D01*
X141287142Y-157843163D02*
X141382380Y-157843163D01*
X142144285Y-157795544D02*
X142049047Y-157843163D01*
X142049047Y-157843163D02*
X141858571Y-157843163D01*
X141858571Y-157843163D02*
X141763333Y-157795544D01*
X141763333Y-157795544D02*
X141715714Y-157747924D01*
X141715714Y-157747924D02*
X141668095Y-157652686D01*
X141668095Y-157652686D02*
X141668095Y-157366972D01*
X141668095Y-157366972D02*
X141715714Y-157271734D01*
X141715714Y-157271734D02*
X141763333Y-157224115D01*
X141763333Y-157224115D02*
X141858571Y-157176496D01*
X141858571Y-157176496D02*
X142049047Y-157176496D01*
X142049047Y-157176496D02*
X142144285Y-157224115D01*
X142572857Y-157843163D02*
X142572857Y-156843163D01*
X143001428Y-157843163D02*
X143001428Y-157319353D01*
X143001428Y-157319353D02*
X142953809Y-157224115D01*
X142953809Y-157224115D02*
X142858571Y-157176496D01*
X142858571Y-157176496D02*
X142715714Y-157176496D01*
X142715714Y-157176496D02*
X142620476Y-157224115D01*
X142620476Y-157224115D02*
X142572857Y-157271734D01*
D13*
X125714285Y-78499069D02*
X125714285Y-79213354D01*
X125714285Y-79213354D02*
X125666666Y-79356211D01*
X125666666Y-79356211D02*
X125571428Y-79451450D01*
X125571428Y-79451450D02*
X125428571Y-79499069D01*
X125428571Y-79499069D02*
X125333333Y-79499069D01*
X126714285Y-79499069D02*
X126142857Y-79499069D01*
X126428571Y-79499069D02*
X126428571Y-78499069D01*
X126428571Y-78499069D02*
X126333333Y-78641926D01*
X126333333Y-78641926D02*
X126238095Y-78737164D01*
X126238095Y-78737164D02*
X126142857Y-78784783D01*
X127333333Y-78499069D02*
X127428571Y-78499069D01*
X127428571Y-78499069D02*
X127523809Y-78546688D01*
X127523809Y-78546688D02*
X127571428Y-78594307D01*
X127571428Y-78594307D02*
X127619047Y-78689545D01*
X127619047Y-78689545D02*
X127666666Y-78880021D01*
X127666666Y-78880021D02*
X127666666Y-79118116D01*
X127666666Y-79118116D02*
X127619047Y-79308592D01*
X127619047Y-79308592D02*
X127571428Y-79403830D01*
X127571428Y-79403830D02*
X127523809Y-79451450D01*
X127523809Y-79451450D02*
X127428571Y-79499069D01*
X127428571Y-79499069D02*
X127333333Y-79499069D01*
X127333333Y-79499069D02*
X127238095Y-79451450D01*
X127238095Y-79451450D02*
X127190476Y-79403830D01*
X127190476Y-79403830D02*
X127142857Y-79308592D01*
X127142857Y-79308592D02*
X127095238Y-79118116D01*
X127095238Y-79118116D02*
X127095238Y-78880021D01*
X127095238Y-78880021D02*
X127142857Y-78689545D01*
X127142857Y-78689545D02*
X127190476Y-78594307D01*
X127190476Y-78594307D02*
X127238095Y-78546688D01*
X127238095Y-78546688D02*
X127333333Y-78499069D01*
X128619047Y-79499069D02*
X128047619Y-79499069D01*
X128333333Y-79499069D02*
X128333333Y-78499069D01*
X128333333Y-78499069D02*
X128238095Y-78641926D01*
X128238095Y-78641926D02*
X128142857Y-78737164D01*
X128142857Y-78737164D02*
X128047619Y-78784783D01*
X148574285Y-78499069D02*
X148574285Y-79213354D01*
X148574285Y-79213354D02*
X148526666Y-79356211D01*
X148526666Y-79356211D02*
X148431428Y-79451450D01*
X148431428Y-79451450D02*
X148288571Y-79499069D01*
X148288571Y-79499069D02*
X148193333Y-79499069D01*
X149574285Y-79499069D02*
X149002857Y-79499069D01*
X149288571Y-79499069D02*
X149288571Y-78499069D01*
X149288571Y-78499069D02*
X149193333Y-78641926D01*
X149193333Y-78641926D02*
X149098095Y-78737164D01*
X149098095Y-78737164D02*
X149002857Y-78784783D01*
X150193333Y-78499069D02*
X150288571Y-78499069D01*
X150288571Y-78499069D02*
X150383809Y-78546688D01*
X150383809Y-78546688D02*
X150431428Y-78594307D01*
X150431428Y-78594307D02*
X150479047Y-78689545D01*
X150479047Y-78689545D02*
X150526666Y-78880021D01*
X150526666Y-78880021D02*
X150526666Y-79118116D01*
X150526666Y-79118116D02*
X150479047Y-79308592D01*
X150479047Y-79308592D02*
X150431428Y-79403830D01*
X150431428Y-79403830D02*
X150383809Y-79451450D01*
X150383809Y-79451450D02*
X150288571Y-79499069D01*
X150288571Y-79499069D02*
X150193333Y-79499069D01*
X150193333Y-79499069D02*
X150098095Y-79451450D01*
X150098095Y-79451450D02*
X150050476Y-79403830D01*
X150050476Y-79403830D02*
X150002857Y-79308592D01*
X150002857Y-79308592D02*
X149955238Y-79118116D01*
X149955238Y-79118116D02*
X149955238Y-78880021D01*
X149955238Y-78880021D02*
X150002857Y-78689545D01*
X150002857Y-78689545D02*
X150050476Y-78594307D01*
X150050476Y-78594307D02*
X150098095Y-78546688D01*
X150098095Y-78546688D02*
X150193333Y-78499069D01*
X150907619Y-78594307D02*
X150955238Y-78546688D01*
X150955238Y-78546688D02*
X151050476Y-78499069D01*
X151050476Y-78499069D02*
X151288571Y-78499069D01*
X151288571Y-78499069D02*
X151383809Y-78546688D01*
X151383809Y-78546688D02*
X151431428Y-78594307D01*
X151431428Y-78594307D02*
X151479047Y-78689545D01*
X151479047Y-78689545D02*
X151479047Y-78784783D01*
X151479047Y-78784783D02*
X151431428Y-78927640D01*
X151431428Y-78927640D02*
X150860000Y-79499069D01*
X150860000Y-79499069D02*
X151479047Y-79499069D01*
D14*
X137220847Y-115635728D02*
X136817796Y-115572090D01*
X137157209Y-115232677D01*
X137220847Y-115635728D01*
G36*
X137220847Y-115635728D02*
G01*
X136817796Y-115572090D01*
X137157209Y-115232677D01*
X137220847Y-115635728D01*
G37*
X143535311Y-120804679D02*
X143217113Y-121122877D01*
X143217113Y-120486481D02*
X143535311Y-120804679D01*
X138748198Y-125591792D02*
X138430000Y-125909990D01*
X138430000Y-125909990D02*
X138111802Y-125591792D01*
X138430000Y-115699368D02*
X138748198Y-116017566D01*
X138111802Y-116017566D02*
X138430000Y-115699368D01*
X133642887Y-121122877D02*
X133324689Y-120804679D01*
X133324689Y-120804679D02*
X133642887Y-120486481D01*
D15*
G36*
X145866048Y-85586065D02*
G01*
X145896040Y-85621218D01*
X145926741Y-85655951D01*
X145959724Y-85691897D01*
X145996557Y-85730692D01*
X146038813Y-85773970D01*
X146088063Y-85823367D01*
X146145876Y-85880517D01*
X146199353Y-85932922D01*
X146238590Y-85971309D01*
X146287618Y-86019351D01*
X146345101Y-86075734D01*
X146409702Y-86139144D01*
X146480083Y-86208268D01*
X146554908Y-86281793D01*
X146632838Y-86358403D01*
X146712538Y-86436786D01*
X146792669Y-86515628D01*
X146871894Y-86593614D01*
X146895364Y-86616725D01*
X146981592Y-86701612D01*
X147074708Y-86793232D01*
X147172651Y-86889560D01*
X147273359Y-86988568D01*
X147374768Y-87088230D01*
X147474818Y-87186519D01*
X147571444Y-87281409D01*
X147662585Y-87370873D01*
X147746179Y-87452885D01*
X147801670Y-87507294D01*
X147899833Y-87603533D01*
X147987401Y-87689438D01*
X148064958Y-87765595D01*
X148133087Y-87832589D01*
X148192373Y-87891005D01*
X148243397Y-87941429D01*
X148286743Y-87984445D01*
X148322996Y-88020640D01*
X148352737Y-88050599D01*
X148376551Y-88074906D01*
X148395020Y-88094148D01*
X148408729Y-88108910D01*
X148418260Y-88119776D01*
X148424198Y-88127333D01*
X148427124Y-88132166D01*
X148427623Y-88134860D01*
X148427461Y-88135230D01*
X148419915Y-88142017D01*
X148402014Y-88156066D01*
X148376131Y-88175575D01*
X148344636Y-88198738D01*
X148330712Y-88208829D01*
X148291792Y-88237284D01*
X148251926Y-88267061D01*
X148215493Y-88294851D01*
X148186873Y-88317344D01*
X148183997Y-88319673D01*
X148157733Y-88340747D01*
X148123023Y-88368193D01*
X148083834Y-88398891D01*
X148044135Y-88429724D01*
X148032153Y-88438971D01*
X147870045Y-88568404D01*
X147718470Y-88698717D01*
X147578369Y-88828998D01*
X147450684Y-88958336D01*
X147336359Y-89085819D01*
X147240827Y-89204584D01*
X147122057Y-89373869D01*
X147017026Y-89549977D01*
X146925621Y-89733192D01*
X146847730Y-89923798D01*
X146783242Y-90122078D01*
X146732046Y-90328318D01*
X146694029Y-90542800D01*
X146683682Y-90620976D01*
X146677408Y-90687245D01*
X146672919Y-90765022D01*
X146670217Y-90850427D01*
X146669305Y-90939577D01*
X146670185Y-91028590D01*
X146672858Y-91113583D01*
X146677328Y-91190676D01*
X146683332Y-91253827D01*
X146715736Y-91461996D01*
X146761666Y-91662361D01*
X146821171Y-91855027D01*
X146894300Y-92040101D01*
X146981103Y-92217687D01*
X147081629Y-92387892D01*
X147195928Y-92550820D01*
X147324049Y-92706577D01*
X147402576Y-92791459D01*
X147455217Y-92843934D01*
X147519571Y-92904274D01*
X147595789Y-92972608D01*
X147684025Y-93049066D01*
X147784430Y-93133775D01*
X147897157Y-93226867D01*
X148022359Y-93328469D01*
X148160189Y-93438712D01*
X148254783Y-93513614D01*
X148299542Y-93549275D01*
X148340120Y-93582266D01*
X148374922Y-93611239D01*
X148402355Y-93634844D01*
X148420824Y-93651731D01*
X148428737Y-93660553D01*
X148428903Y-93661010D01*
X148423775Y-93667778D01*
X148408186Y-93685372D01*
X148382527Y-93713381D01*
X148347193Y-93751391D01*
X148302576Y-93798989D01*
X148249069Y-93855762D01*
X148187065Y-93921297D01*
X148116956Y-93995180D01*
X148039136Y-94076999D01*
X147953998Y-94166340D01*
X147861934Y-94262790D01*
X147763337Y-94365937D01*
X147658600Y-94475366D01*
X147548117Y-94590666D01*
X147432279Y-94711422D01*
X147311481Y-94837222D01*
X147195763Y-94957617D01*
X147080353Y-95077637D01*
X146967537Y-95194952D01*
X146857813Y-95309043D01*
X146751682Y-95419390D01*
X146649643Y-95525476D01*
X146552196Y-95626781D01*
X146459839Y-95722786D01*
X146373072Y-95812971D01*
X146292395Y-95896819D01*
X146218307Y-95973809D01*
X146151307Y-96043423D01*
X146091895Y-96105142D01*
X146040571Y-96158446D01*
X145997833Y-96202817D01*
X145964181Y-96237736D01*
X145940115Y-96262683D01*
X145926134Y-96277140D01*
X145923112Y-96280242D01*
X145885875Y-96318068D01*
X145683545Y-96154859D01*
X145587632Y-96077814D01*
X145501703Y-96009540D01*
X145423879Y-95948632D01*
X145352286Y-95893686D01*
X145285047Y-95843297D01*
X145220286Y-95796060D01*
X145156127Y-95750571D01*
X145090692Y-95705425D01*
X145022107Y-95659218D01*
X145016342Y-95655376D01*
X144810050Y-95523679D01*
X144600171Y-95400718D01*
X144388559Y-95287407D01*
X144177069Y-95184660D01*
X143967556Y-95093391D01*
X143761875Y-95014515D01*
X143617819Y-94966106D01*
X143362799Y-94893868D01*
X143101639Y-94835988D01*
X142834368Y-94792469D01*
X142561018Y-94763314D01*
X142281617Y-94748527D01*
X141996197Y-94748109D01*
X141704788Y-94762064D01*
X141563005Y-94773849D01*
X141321717Y-94803574D01*
X141079357Y-94847053D01*
X140838376Y-94903627D01*
X140601224Y-94972636D01*
X140370350Y-95053421D01*
X140148205Y-95145321D01*
X140098071Y-95168209D01*
X140060386Y-95185716D01*
X140021003Y-95203985D01*
X139986660Y-95219890D01*
X139976970Y-95224370D01*
X139868968Y-95277308D01*
X139752213Y-95340095D01*
X139628805Y-95411337D01*
X139500846Y-95489641D01*
X139370435Y-95573614D01*
X139239675Y-95661863D01*
X139110666Y-95752996D01*
X138985508Y-95845619D01*
X138866304Y-95938340D01*
X138755152Y-96029766D01*
X138730799Y-96050592D01*
X138698238Y-96078663D01*
X138657696Y-96113624D01*
X138613025Y-96152153D01*
X138568072Y-96190932D01*
X138537527Y-96217286D01*
X138501095Y-96248105D01*
X138467898Y-96275032D01*
X138440004Y-96296482D01*
X138419481Y-96310867D01*
X138408400Y-96316601D01*
X138407958Y-96316639D01*
X138395222Y-96310086D01*
X138377759Y-96292013D01*
X138363273Y-96272705D01*
X138340311Y-96244043D01*
X138305110Y-96206798D01*
X138258169Y-96161436D01*
X138199987Y-96108423D01*
X138131065Y-96048225D01*
X138051900Y-95981309D01*
X138047132Y-95977337D01*
X137815044Y-95793021D01*
X137579897Y-95623937D01*
X137341403Y-95469941D01*
X137099271Y-95330885D01*
X136853211Y-95206624D01*
X136602935Y-95097012D01*
X136348152Y-95001904D01*
X136088572Y-94921152D01*
X135823906Y-94854612D01*
X135813698Y-94852351D01*
X135572902Y-94806086D01*
X135324140Y-94771348D01*
X135070149Y-94748276D01*
X134813666Y-94737010D01*
X134557426Y-94737691D01*
X134304165Y-94750459D01*
X134132860Y-94766358D01*
X133862343Y-94804195D01*
X133594729Y-94857344D01*
X133330234Y-94925723D01*
X133069074Y-95009249D01*
X132811467Y-95107841D01*
X132557630Y-95221417D01*
X132307779Y-95349894D01*
X132062131Y-95493190D01*
X131855377Y-95627551D01*
X131793555Y-95670106D01*
X131734892Y-95711482D01*
X131677000Y-95753466D01*
X131617489Y-95797849D01*
X131553970Y-95846419D01*
X131484055Y-95900964D01*
X131405354Y-95963275D01*
X131378785Y-95984460D01*
X131301144Y-96046330D01*
X131229613Y-96103091D01*
X131165123Y-96154013D01*
X131108608Y-96198364D01*
X131061000Y-96235414D01*
X131023232Y-96264432D01*
X130996237Y-96284688D01*
X130987567Y-96290951D01*
X130963560Y-96307917D01*
X130385968Y-95701571D01*
X130234042Y-95542075D01*
X130092300Y-95393252D01*
X129960142Y-95254472D01*
X129836966Y-95125099D01*
X129722171Y-95004501D01*
X129615157Y-94892046D01*
X129515324Y-94787099D01*
X129422070Y-94689027D01*
X129334794Y-94597199D01*
X129252896Y-94510979D01*
X129175774Y-94429736D01*
X129102829Y-94352837D01*
X129033460Y-94279647D01*
X128967065Y-94209535D01*
X128903043Y-94141866D01*
X128840795Y-94076008D01*
X128779719Y-94011327D01*
X128719214Y-93947191D01*
X128658680Y-93882967D01*
X128597516Y-93818021D01*
X128535121Y-93751719D01*
X128474802Y-93687584D01*
X128782257Y-93687584D01*
X128970604Y-93886809D01*
X129159790Y-94086803D01*
X129340416Y-94277501D01*
X129514545Y-94461069D01*
X129684236Y-94639675D01*
X129851549Y-94815485D01*
X130018544Y-94990667D01*
X130187283Y-95167386D01*
X130359826Y-95347809D01*
X130363097Y-95351227D01*
X130438249Y-95429762D01*
X130511321Y-95506143D01*
X130581459Y-95579475D01*
X130647808Y-95648863D01*
X130709513Y-95713413D01*
X130765719Y-95772230D01*
X130815572Y-95824420D01*
X130858217Y-95869088D01*
X130892798Y-95905340D01*
X130918462Y-95932281D01*
X130934352Y-95949017D01*
X130936359Y-95951142D01*
X130962455Y-95978286D01*
X130980448Y-95995273D01*
X130992529Y-96003703D01*
X131000889Y-96005175D01*
X131006487Y-96002325D01*
X131016837Y-95993749D01*
X131036454Y-95977178D01*
X131062753Y-95954808D01*
X131093151Y-95928830D01*
X131101235Y-95921903D01*
X131342534Y-95724138D01*
X131587415Y-95541564D01*
X131835971Y-95374138D01*
X132088298Y-95221818D01*
X132344488Y-95084563D01*
X132604636Y-94962331D01*
X132868836Y-94855081D01*
X133137181Y-94762770D01*
X133409766Y-94685357D01*
X133686685Y-94622799D01*
X133968031Y-94575057D01*
X134195364Y-94547600D01*
X134484916Y-94526046D01*
X134770611Y-94519464D01*
X135052607Y-94527897D01*
X135331060Y-94551387D01*
X135606126Y-94589977D01*
X135877963Y-94643710D01*
X136146728Y-94712630D01*
X136412576Y-94796779D01*
X136675665Y-94896200D01*
X136936151Y-95010935D01*
X137194192Y-95141029D01*
X137449943Y-95286524D01*
X137703562Y-95447463D01*
X137851839Y-95549380D01*
X137941692Y-95614279D01*
X138036864Y-95685492D01*
X138133508Y-95760017D01*
X138227775Y-95834850D01*
X138315817Y-95906987D01*
X138381910Y-95963098D01*
X138439296Y-96012791D01*
X138461281Y-95994783D01*
X138473885Y-95984320D01*
X138496236Y-95965627D01*
X138526137Y-95940546D01*
X138561391Y-95910920D01*
X138599800Y-95878593D01*
X138607033Y-95872500D01*
X138740693Y-95763501D01*
X138883664Y-95653542D01*
X139032236Y-95545256D01*
X139182695Y-95441270D01*
X139331329Y-95344217D01*
X139474426Y-95256724D01*
X139484752Y-95250667D01*
X139607057Y-95181975D01*
X139739567Y-95112653D01*
X139878583Y-95044405D01*
X140020405Y-94978936D01*
X140161334Y-94917950D01*
X140297671Y-94863150D01*
X140425716Y-94816241D01*
X140434029Y-94813380D01*
X140706360Y-94728226D01*
X140981333Y-94658454D01*
X141259033Y-94604050D01*
X141539547Y-94565002D01*
X141822959Y-94541297D01*
X142109355Y-94532923D01*
X142313263Y-94536232D01*
X142590362Y-94552917D01*
X142862998Y-94583639D01*
X143131699Y-94628567D01*
X143396990Y-94687870D01*
X143659399Y-94761717D01*
X143919451Y-94850277D01*
X144177675Y-94953720D01*
X144434596Y-95072215D01*
X144690742Y-95205932D01*
X144946638Y-95355038D01*
X145036725Y-95411200D01*
X145212380Y-95526429D01*
X145385933Y-95648265D01*
X145560798Y-95779174D01*
X145713279Y-95899633D01*
X145851587Y-96011379D01*
X145940537Y-95919854D01*
X145958819Y-95900937D01*
X145986979Y-95871658D01*
X146024110Y-95832963D01*
X146069309Y-95785797D01*
X146121668Y-95731109D01*
X146180284Y-95669843D01*
X146244249Y-95602946D01*
X146312660Y-95531365D01*
X146384610Y-95456047D01*
X146459195Y-95377937D01*
X146535508Y-95297982D01*
X146555040Y-95277512D01*
X146647948Y-95180151D01*
X146730923Y-95093230D01*
X146804813Y-95015877D01*
X146870461Y-94947217D01*
X146928713Y-94886377D01*
X146980415Y-94832483D01*
X147026411Y-94784662D01*
X147067547Y-94742039D01*
X147104668Y-94703742D01*
X147138620Y-94668895D01*
X147170248Y-94636626D01*
X147200397Y-94606061D01*
X147229912Y-94576326D01*
X147259639Y-94546547D01*
X147290422Y-94515850D01*
X147323108Y-94483363D01*
X147329027Y-94477488D01*
X147361297Y-94445162D01*
X147389334Y-94416506D01*
X147411389Y-94393356D01*
X147425709Y-94377549D01*
X147430553Y-94370996D01*
X147435831Y-94364090D01*
X147450665Y-94347715D01*
X147473557Y-94323446D01*
X147503008Y-94292860D01*
X147537520Y-94257530D01*
X147565327Y-94229366D01*
X147604739Y-94189468D01*
X147652403Y-94140965D01*
X147705730Y-94086504D01*
X147762132Y-94028736D01*
X147819020Y-93970308D01*
X147873807Y-93913871D01*
X147897591Y-93889308D01*
X148095080Y-93685151D01*
X148065743Y-93660969D01*
X148047431Y-93646842D01*
X148033882Y-93638131D01*
X148030222Y-93636786D01*
X148022139Y-93631961D01*
X148005030Y-93618895D01*
X147981568Y-93599700D01*
X147959732Y-93581100D01*
X147931898Y-93557440D01*
X147895334Y-93527003D01*
X147853575Y-93492698D01*
X147810157Y-93457432D01*
X147778231Y-93431783D01*
X147741302Y-93401984D01*
X147708488Y-93374948D01*
X147681805Y-93352381D01*
X147663270Y-93335989D01*
X147654898Y-93327480D01*
X147654788Y-93327303D01*
X147642899Y-93317591D01*
X147637209Y-93316454D01*
X147627057Y-93312555D01*
X147625878Y-93309455D01*
X147620259Y-93302060D01*
X147604861Y-93286692D01*
X147581874Y-93265423D01*
X147553489Y-93240324D01*
X147545795Y-93233684D01*
X147431163Y-93132489D01*
X147328376Y-93035628D01*
X147235186Y-92940673D01*
X147149349Y-92845201D01*
X147068619Y-92746785D01*
X146990751Y-92643002D01*
X146964116Y-92605473D01*
X146855025Y-92436770D01*
X146757314Y-92259029D01*
X146671703Y-92074091D01*
X146598916Y-91883800D01*
X146539673Y-91690000D01*
X146494695Y-91494532D01*
X146470188Y-91343677D01*
X146449009Y-91125487D01*
X146443083Y-90907580D01*
X146452204Y-90690765D01*
X146476166Y-90475849D01*
X146514764Y-90263640D01*
X146567792Y-90054946D01*
X146635044Y-89850573D01*
X146716313Y-89651331D01*
X146811395Y-89458026D01*
X146920083Y-89271467D01*
X147042171Y-89092461D01*
X147044917Y-89088734D01*
X147065245Y-89060682D01*
X147081551Y-89037210D01*
X147091901Y-89021162D01*
X147094595Y-89015635D01*
X147100128Y-89007255D01*
X147113503Y-88994974D01*
X147114128Y-88994480D01*
X147127779Y-88981428D01*
X147133655Y-88971223D01*
X147133660Y-88971041D01*
X147139256Y-88960996D01*
X147152761Y-88947943D01*
X147153193Y-88947602D01*
X147166876Y-88934189D01*
X147172722Y-88923200D01*
X147172725Y-88923039D01*
X147178377Y-88912946D01*
X147192612Y-88898322D01*
X147200071Y-88892021D01*
X147216628Y-88877235D01*
X147226346Y-88865512D01*
X147227416Y-88862539D01*
X147232743Y-88855082D01*
X147247565Y-88838502D01*
X147270143Y-88814536D01*
X147298737Y-88784923D01*
X147331608Y-88751400D01*
X147367018Y-88715706D01*
X147403226Y-88679577D01*
X147438494Y-88644753D01*
X147471083Y-88612971D01*
X147499253Y-88585968D01*
X147521265Y-88565483D01*
X147535380Y-88553254D01*
X147539651Y-88550536D01*
X147548370Y-88544913D01*
X147562589Y-88530535D01*
X147572126Y-88519284D01*
X147588266Y-88501393D01*
X147601855Y-88490084D01*
X147606959Y-88488032D01*
X147617866Y-88482500D01*
X147632713Y-88468787D01*
X147636398Y-88464593D01*
X147650856Y-88449567D01*
X147662095Y-88441560D01*
X147663871Y-88441154D01*
X147673679Y-88435567D01*
X147686623Y-88422081D01*
X147686986Y-88421622D01*
X147699236Y-88408042D01*
X147707703Y-88402100D01*
X147707895Y-88402089D01*
X147715825Y-88397473D01*
X147733251Y-88384917D01*
X147757566Y-88366365D01*
X147784900Y-88344769D01*
X147819149Y-88317596D01*
X147854620Y-88289952D01*
X147886349Y-88265683D01*
X147903395Y-88252966D01*
X147929479Y-88233412D01*
X147962842Y-88207788D01*
X147998618Y-88179853D01*
X148023371Y-88160237D01*
X148096312Y-88101990D01*
X147999795Y-88007884D01*
X147979732Y-87988271D01*
X147949524Y-87958669D01*
X147910163Y-87920051D01*
X147862637Y-87873391D01*
X147807938Y-87819661D01*
X147747057Y-87759836D01*
X147680984Y-87694888D01*
X147610709Y-87625791D01*
X147537223Y-87553518D01*
X147461516Y-87479042D01*
X147395158Y-87413747D01*
X147316621Y-87336500D01*
X147233936Y-87255244D01*
X147147872Y-87170731D01*
X147059196Y-87083713D01*
X146968677Y-86994939D01*
X146877083Y-86905162D01*
X146785182Y-86815132D01*
X146693742Y-86725601D01*
X146603532Y-86637319D01*
X146515321Y-86551037D01*
X146429875Y-86467507D01*
X146347964Y-86387479D01*
X146270356Y-86311705D01*
X146197819Y-86240936D01*
X146131120Y-86175922D01*
X146071030Y-86117415D01*
X146018315Y-86066165D01*
X145973744Y-86022925D01*
X145938085Y-85988444D01*
X145912107Y-85963474D01*
X145897495Y-85949620D01*
X145873135Y-85927962D01*
X145856040Y-85915988D01*
X145842958Y-85911824D01*
X145833535Y-85912772D01*
X145821048Y-85919433D01*
X145799475Y-85934562D01*
X145771386Y-85956216D01*
X145739347Y-85982454D01*
X145723102Y-85996294D01*
X145501848Y-86177100D01*
X145269877Y-86347045D01*
X145028161Y-86505638D01*
X144777671Y-86652388D01*
X144519378Y-86786805D01*
X144254254Y-86908397D01*
X143983270Y-87016676D01*
X143707397Y-87111149D01*
X143427608Y-87191327D01*
X143289674Y-87225178D01*
X143083043Y-87268352D01*
X142876069Y-87301854D01*
X142665712Y-87326017D01*
X142448930Y-87341172D01*
X142222682Y-87347651D01*
X142164604Y-87347954D01*
X141939180Y-87344226D01*
X141722655Y-87332347D01*
X141510992Y-87311836D01*
X141300151Y-87282209D01*
X141086094Y-87242981D01*
X140864784Y-87193670D01*
X140853694Y-87190989D01*
X140799123Y-87177280D01*
X140739700Y-87161531D01*
X140677290Y-87144314D01*
X140613759Y-87126198D01*
X140550975Y-87107755D01*
X140490803Y-87089554D01*
X140435110Y-87072165D01*
X140385761Y-87056160D01*
X140344622Y-87042109D01*
X140313560Y-87030581D01*
X140294441Y-87022148D01*
X140289197Y-87018446D01*
X140279743Y-87013259D01*
X140260022Y-87006992D01*
X140244273Y-87003192D01*
X140221589Y-86997105D01*
X140206803Y-86990791D01*
X140203546Y-86987293D01*
X140196856Y-86981905D01*
X140184014Y-86980127D01*
X140169326Y-86977792D01*
X140164481Y-86973313D01*
X140157580Y-86967950D01*
X140140331Y-86962815D01*
X140133229Y-86961501D01*
X140113691Y-86956670D01*
X140102793Y-86950664D01*
X140101978Y-86948783D01*
X140095308Y-86942918D01*
X140083003Y-86941062D01*
X140063184Y-86936384D01*
X140052309Y-86929343D01*
X140036859Y-86919606D01*
X140027754Y-86917623D01*
X140011873Y-86912406D01*
X140003199Y-86905904D01*
X139986273Y-86896551D01*
X139972505Y-86894184D01*
X139958085Y-86891876D01*
X139953531Y-86887625D01*
X139946989Y-86879834D01*
X139931500Y-86871191D01*
X139913272Y-86864662D01*
X139901821Y-86862932D01*
X139886776Y-86857755D01*
X139878191Y-86851213D01*
X139861151Y-86841752D01*
X139848056Y-86839493D01*
X139829080Y-86835354D01*
X139819315Y-86829291D01*
X139809740Y-86823039D01*
X139788229Y-86810812D01*
X139756789Y-86793693D01*
X139717428Y-86772761D01*
X139672152Y-86749098D01*
X139633199Y-86729020D01*
X139451541Y-86632460D01*
X139279109Y-86533345D01*
X139112554Y-86429495D01*
X138948524Y-86318730D01*
X138783670Y-86198871D01*
X138614642Y-86067737D01*
X138604409Y-86059554D01*
X138549938Y-86016563D01*
X138505691Y-85983241D01*
X138470283Y-85958801D01*
X138442329Y-85942453D01*
X138420441Y-85933410D01*
X138403236Y-85930881D01*
X138389328Y-85934080D01*
X138386492Y-85935519D01*
X138375858Y-85943228D01*
X138355885Y-85959254D01*
X138328982Y-85981606D01*
X138297559Y-86008297D01*
X138279920Y-86023500D01*
X138112265Y-86161443D01*
X137930888Y-86296963D01*
X137737642Y-86428909D01*
X137534379Y-86556128D01*
X137322953Y-86677470D01*
X137105216Y-86791782D01*
X136883020Y-86897912D01*
X136848977Y-86913254D01*
X136615763Y-87010709D01*
X136374428Y-87098503D01*
X136128043Y-87175737D01*
X135879678Y-87241516D01*
X135632403Y-87294942D01*
X135418096Y-87331035D01*
X135346714Y-87341167D01*
X135283011Y-87349598D01*
X135224497Y-87356480D01*
X135168679Y-87361966D01*
X135113067Y-87366209D01*
X135055170Y-87369361D01*
X134992497Y-87371576D01*
X134922555Y-87373006D01*
X134842855Y-87373803D01*
X134750905Y-87374121D01*
X134714927Y-87374147D01*
X134622423Y-87374031D01*
X134543591Y-87373600D01*
X134476478Y-87372799D01*
X134419132Y-87371572D01*
X134369601Y-87369864D01*
X134325933Y-87367618D01*
X134286175Y-87364780D01*
X134248375Y-87361292D01*
X134242242Y-87360656D01*
X133992433Y-87329322D01*
X133748919Y-87288700D01*
X133514771Y-87239324D01*
X133444432Y-87222290D01*
X133381338Y-87206192D01*
X133320896Y-87190157D01*
X133265024Y-87174747D01*
X133215640Y-87160521D01*
X133174663Y-87148039D01*
X133144010Y-87137861D01*
X133125602Y-87130546D01*
X133121470Y-87128027D01*
X133108109Y-87122032D01*
X133097470Y-87120761D01*
X133080597Y-87118344D01*
X133057128Y-87112253D01*
X133032378Y-87104229D01*
X133011659Y-87096013D01*
X133000287Y-87089343D01*
X132999842Y-87088788D01*
X132990886Y-87084097D01*
X132970626Y-87076938D01*
X132942916Y-87068631D01*
X132933568Y-87066070D01*
X132904351Y-87057662D01*
X132881409Y-87049976D01*
X132868596Y-87044340D01*
X132867294Y-87043232D01*
X132857619Y-87037938D01*
X132838818Y-87032653D01*
X132833952Y-87031684D01*
X132815165Y-87026483D01*
X132805158Y-87020309D01*
X132804654Y-87018838D01*
X132797965Y-87013230D01*
X132785121Y-87011379D01*
X132770438Y-87008704D01*
X132765589Y-87003566D01*
X132758903Y-86997693D01*
X132746056Y-86995753D01*
X132731373Y-86993078D01*
X132726524Y-86987940D01*
X132719838Y-86982067D01*
X132706991Y-86980127D01*
X132692308Y-86977452D01*
X132687459Y-86972314D01*
X132680773Y-86966441D01*
X132667926Y-86964501D01*
X132653238Y-86962181D01*
X132648394Y-86957730D01*
X132641731Y-86951199D01*
X132624894Y-86941980D01*
X132602612Y-86932087D01*
X132579611Y-86923534D01*
X132560620Y-86918336D01*
X132554247Y-86917623D01*
X132541080Y-86914526D01*
X132537710Y-86911206D01*
X132530231Y-86906098D01*
X132510669Y-86895262D01*
X132481030Y-86879738D01*
X132443315Y-86860566D01*
X132399530Y-86838782D01*
X132372361Y-86825468D01*
X132147263Y-86710239D01*
X131930725Y-86587869D01*
X131720067Y-86456638D01*
X131512606Y-86314824D01*
X131305662Y-86160703D01*
X131171741Y-86054399D01*
X131124842Y-86016624D01*
X131087984Y-85988029D01*
X131059311Y-85967661D01*
X131036966Y-85954569D01*
X131019095Y-85947801D01*
X131003839Y-85946405D01*
X130989345Y-85949430D01*
X130976868Y-85954475D01*
X130967932Y-85961157D01*
X130949594Y-85977372D01*
X130921737Y-86003236D01*
X130884244Y-86038863D01*
X130836997Y-86084370D01*
X130779879Y-86139871D01*
X130712772Y-86205482D01*
X130635558Y-86281318D01*
X130548121Y-86367495D01*
X130450342Y-86464127D01*
X130342105Y-86571330D01*
X130223291Y-86689220D01*
X130093783Y-86817911D01*
X129953464Y-86957519D01*
X129865695Y-87044917D01*
X128784875Y-88121488D01*
X128820034Y-88143462D01*
X128841029Y-88158301D01*
X128868991Y-88180395D01*
X128899567Y-88206228D01*
X128917696Y-88222369D01*
X128940398Y-88242797D01*
X128972639Y-88271457D01*
X129012147Y-88306349D01*
X129056652Y-88345472D01*
X129103884Y-88386826D01*
X129151571Y-88428410D01*
X129151779Y-88428592D01*
X129239231Y-88505086D01*
X129316010Y-88573240D01*
X129383595Y-88634539D01*
X129443462Y-88690470D01*
X129497086Y-88742521D01*
X129545946Y-88792179D01*
X129591516Y-88840931D01*
X129635275Y-88890264D01*
X129678697Y-88941664D01*
X129723261Y-88996619D01*
X129752334Y-89033413D01*
X129791555Y-89085206D01*
X129835539Y-89146244D01*
X129881907Y-89212986D01*
X129928281Y-89281895D01*
X129972280Y-89349429D01*
X130011525Y-89412050D01*
X130043638Y-89466218D01*
X130045694Y-89469843D01*
X130141884Y-89655369D01*
X130224381Y-89846799D01*
X130292787Y-90042871D01*
X130346702Y-90242319D01*
X130385730Y-90443880D01*
X130406836Y-90615232D01*
X130409867Y-90661914D01*
X130411796Y-90720514D01*
X130412683Y-90787948D01*
X130412584Y-90861136D01*
X130411559Y-90936994D01*
X130409665Y-91012439D01*
X130406961Y-91084391D01*
X130403505Y-91149766D01*
X130399356Y-91205482D01*
X130394914Y-91246014D01*
X130364105Y-91433728D01*
X130323871Y-91619693D01*
X130274967Y-91801386D01*
X130218147Y-91976282D01*
X130154166Y-92141856D01*
X130083779Y-92295585D01*
X130077244Y-92308580D01*
X129998039Y-92453339D01*
X129908643Y-92594793D01*
X129808344Y-92733752D01*
X129696429Y-92871028D01*
X129572187Y-93007431D01*
X129434906Y-93143771D01*
X129283873Y-93280859D01*
X129118378Y-93419505D01*
X129062113Y-93464441D01*
X129025767Y-93493428D01*
X128993573Y-93519625D01*
X128967603Y-93541307D01*
X128949925Y-93556748D01*
X128942700Y-93564057D01*
X128932098Y-93573293D01*
X128927784Y-93574283D01*
X128916843Y-93578953D01*
X128897447Y-93591292D01*
X128872995Y-93608790D01*
X128846888Y-93628935D01*
X128822526Y-93649218D01*
X128807005Y-93663440D01*
X128782257Y-93687584D01*
X128474802Y-93687584D01*
X128470895Y-93683430D01*
X128470374Y-93682876D01*
X128429229Y-93639116D01*
X128571893Y-93538693D01*
X128679432Y-93462334D01*
X128775636Y-93392523D01*
X128862516Y-93327680D01*
X128942082Y-93266229D01*
X129016346Y-93206589D01*
X129087319Y-93147182D01*
X129157013Y-93086430D01*
X129217298Y-93032049D01*
X129379693Y-92874147D01*
X129527391Y-92710998D01*
X129660456Y-92542484D01*
X129778951Y-92368490D01*
X129882938Y-92188899D01*
X129972480Y-92003596D01*
X130047640Y-91812464D01*
X130108482Y-91615388D01*
X130155067Y-91412250D01*
X130181137Y-91252555D01*
X130188373Y-91185819D01*
X130193800Y-91107908D01*
X130197397Y-91022437D01*
X130199148Y-90933025D01*
X130199032Y-90843288D01*
X130197031Y-90756843D01*
X130193126Y-90677308D01*
X130187299Y-90608300D01*
X130184607Y-90585818D01*
X130148650Y-90371514D01*
X130098207Y-90163051D01*
X130033337Y-89960562D01*
X129954103Y-89764186D01*
X129860564Y-89574057D01*
X129752782Y-89390312D01*
X129630817Y-89213085D01*
X129494731Y-89042515D01*
X129491831Y-89039132D01*
X129413457Y-88950661D01*
X129331481Y-88863894D01*
X129244526Y-88777597D01*
X129151213Y-88690533D01*
X129050168Y-88601470D01*
X128940011Y-88509171D01*
X128819366Y-88412403D01*
X128686856Y-88309929D01*
X128633642Y-88269641D01*
X128474597Y-88149860D01*
X128754744Y-87871072D01*
X128790936Y-87835045D01*
X128837408Y-87788769D01*
X128893374Y-87733027D01*
X128958049Y-87668601D01*
X129030647Y-87596275D01*
X129110381Y-87516832D01*
X129196466Y-87431054D01*
X129288117Y-87339726D01*
X129384547Y-87243629D01*
X129484971Y-87143547D01*
X129588603Y-87040263D01*
X129694656Y-86934560D01*
X129802346Y-86827221D01*
X129910886Y-86719030D01*
X130019491Y-86610768D01*
X130020869Y-86609394D01*
X131006848Y-85626504D01*
X131037678Y-85652885D01*
X131093943Y-85700883D01*
X131150274Y-85748664D01*
X131204722Y-85794596D01*
X131255340Y-85837044D01*
X131300178Y-85874376D01*
X131337287Y-85904957D01*
X131364720Y-85927154D01*
X131367065Y-85929015D01*
X131408888Y-85962073D01*
X131442105Y-85988144D01*
X131470305Y-86009941D01*
X131497076Y-86030179D01*
X131526005Y-86051574D01*
X131560680Y-86076839D01*
X131601455Y-86106351D01*
X131844840Y-86274126D01*
X132089713Y-86426533D01*
X132336679Y-86563803D01*
X132586342Y-86686168D01*
X132839308Y-86793860D01*
X133096181Y-86887111D01*
X133357565Y-86966153D01*
X133624066Y-87031218D01*
X133896287Y-87082538D01*
X134174834Y-87120345D01*
X134269588Y-87130021D01*
X134311429Y-87133004D01*
X134366463Y-87135484D01*
X134432264Y-87137463D01*
X134506405Y-87138939D01*
X134586461Y-87139912D01*
X134670006Y-87140384D01*
X134754615Y-87140353D01*
X134837862Y-87139820D01*
X134917321Y-87138784D01*
X134990566Y-87137246D01*
X135055172Y-87135206D01*
X135108712Y-87132664D01*
X135144641Y-87130021D01*
X135428224Y-87096315D01*
X135704501Y-87049016D01*
X135974341Y-86987848D01*
X136238611Y-86912536D01*
X136498179Y-86822805D01*
X136753914Y-86718380D01*
X137006682Y-86598985D01*
X137257352Y-86464345D01*
X137274863Y-86454331D01*
X137451304Y-86348349D01*
X137631466Y-86231245D01*
X137811896Y-86105548D01*
X137989137Y-85973787D01*
X138159736Y-85838491D01*
X138320238Y-85702190D01*
X138399217Y-85631154D01*
X138419220Y-85612775D01*
X138625794Y-85786100D01*
X138706044Y-85853036D01*
X138777088Y-85911333D01*
X138841323Y-85962821D01*
X138901143Y-86009331D01*
X138958944Y-86052692D01*
X139017122Y-86094733D01*
X139078071Y-86137286D01*
X139144187Y-86182180D01*
X139144887Y-86182650D01*
X139372105Y-86328473D01*
X139598983Y-86460336D01*
X139828132Y-86579627D01*
X140062161Y-86687731D01*
X140217262Y-86752308D01*
X140470525Y-86846431D01*
X140724847Y-86926743D01*
X140982042Y-86993661D01*
X141243924Y-87047600D01*
X141512309Y-87088975D01*
X141789012Y-87118203D01*
X141828646Y-87121359D01*
X141883842Y-87124646D01*
X141951392Y-87127169D01*
X142028043Y-87128929D01*
X142110544Y-87129925D01*
X142195641Y-87130157D01*
X142280081Y-87129625D01*
X142360612Y-87128329D01*
X142433980Y-87126268D01*
X142496934Y-87123442D01*
X142527908Y-87121413D01*
X142804007Y-87092939D01*
X143076225Y-87049850D01*
X143344872Y-86992036D01*
X143610256Y-86919388D01*
X143872684Y-86831794D01*
X144132467Y-86729144D01*
X144389911Y-86611329D01*
X144645325Y-86478238D01*
X144899019Y-86329761D01*
X145094472Y-86204152D01*
X145148611Y-86167082D01*
X145205108Y-86126488D01*
X145265647Y-86081073D01*
X145331913Y-86029539D01*
X145405592Y-85970589D01*
X145488368Y-85902923D01*
X145527238Y-85870774D01*
X145572556Y-85833249D01*
X145614957Y-85798271D01*
X145652661Y-85767298D01*
X145683889Y-85741788D01*
X145706860Y-85723197D01*
X145719797Y-85712984D01*
X145720533Y-85712433D01*
X145734680Y-85699386D01*
X145755078Y-85677328D01*
X145778599Y-85649746D01*
X145794812Y-85629577D01*
X145846827Y-85563182D01*
X145866048Y-85586065D01*
G37*
G36*
X138454147Y-86542423D02*
G01*
X138474266Y-86556069D01*
X138503186Y-86576568D01*
X138539087Y-86602617D01*
X138580152Y-86632913D01*
X138617511Y-86660843D01*
X138872144Y-86843063D01*
X139131804Y-87010499D01*
X139396585Y-87163193D01*
X139666584Y-87301188D01*
X139941894Y-87424528D01*
X140222611Y-87533255D01*
X140508830Y-87627412D01*
X140800647Y-87707042D01*
X141065844Y-87765868D01*
X141114982Y-87775050D01*
X141162494Y-87782905D01*
X141204791Y-87788914D01*
X141238282Y-87792557D01*
X141256345Y-87793419D01*
X141281639Y-87794164D01*
X141299286Y-87796659D01*
X141305177Y-87799962D01*
X141312422Y-87806916D01*
X141331916Y-87812596D01*
X141360291Y-87816340D01*
X141394181Y-87817487D01*
X141394351Y-87817486D01*
X141415422Y-87818202D01*
X141448480Y-87820460D01*
X141489996Y-87823969D01*
X141536440Y-87828435D01*
X141570818Y-87832066D01*
X141623731Y-87837600D01*
X141679137Y-87842923D01*
X141731913Y-87847572D01*
X141776935Y-87851087D01*
X141795441Y-87852305D01*
X141830379Y-87854770D01*
X141858733Y-87857510D01*
X141877391Y-87860174D01*
X141883320Y-87862215D01*
X141890567Y-87863951D01*
X141910123Y-87864892D01*
X141938687Y-87864944D01*
X141961450Y-87864428D01*
X141994233Y-87863983D01*
X142020247Y-87864757D01*
X142036189Y-87866584D01*
X142039593Y-87868335D01*
X142047063Y-87870046D01*
X142068108Y-87871584D01*
X142100675Y-87872883D01*
X142142714Y-87873881D01*
X142192173Y-87874512D01*
X142242723Y-87874713D01*
X142297219Y-87874498D01*
X142346191Y-87873891D01*
X142387589Y-87872951D01*
X142419360Y-87871738D01*
X142439454Y-87870312D01*
X142445864Y-87868854D01*
X142453010Y-87865928D01*
X142471768Y-87863828D01*
X142498126Y-87862995D01*
X142499001Y-87862994D01*
X142572244Y-87861090D01*
X142658026Y-87855609D01*
X142753758Y-87846893D01*
X142856852Y-87835285D01*
X142964721Y-87821130D01*
X143074776Y-87804771D01*
X143184430Y-87786550D01*
X143291095Y-87766811D01*
X143392183Y-87745898D01*
X143408122Y-87742364D01*
X143678740Y-87673936D01*
X143948581Y-87590174D01*
X144217046Y-87491366D01*
X144483533Y-87377803D01*
X144747444Y-87249775D01*
X145008178Y-87107572D01*
X145265134Y-86951484D01*
X145517712Y-86781800D01*
X145748510Y-86611774D01*
X145790229Y-86581045D01*
X145821600Y-86561135D01*
X145843274Y-86551767D01*
X145855903Y-86552661D01*
X145860140Y-86563540D01*
X145860144Y-86564071D01*
X145865585Y-86571218D01*
X145881514Y-86588784D01*
X145907339Y-86616166D01*
X145942472Y-86652764D01*
X145986320Y-86697977D01*
X146038293Y-86751202D01*
X146097802Y-86811838D01*
X146164254Y-86879283D01*
X146237059Y-86952937D01*
X146315627Y-87032198D01*
X146399367Y-87116464D01*
X146487689Y-87205133D01*
X146580001Y-87297606D01*
X146607425Y-87325040D01*
X146726558Y-87444276D01*
X146834714Y-87552734D01*
X146932061Y-87650586D01*
X147018769Y-87738005D01*
X147095006Y-87815165D01*
X147160942Y-87882236D01*
X147216745Y-87939394D01*
X147262586Y-87986809D01*
X147298632Y-88024655D01*
X147325053Y-88053104D01*
X147342017Y-88072330D01*
X147349695Y-88082505D01*
X147350188Y-88084127D01*
X147341332Y-88093630D01*
X147322576Y-88107002D01*
X147299250Y-88120644D01*
X147281293Y-88131680D01*
X147259800Y-88147856D01*
X147233453Y-88170365D01*
X147200933Y-88200397D01*
X147160924Y-88239142D01*
X147112108Y-88287791D01*
X147093129Y-88306943D01*
X147024346Y-88376993D01*
X146964710Y-88438871D01*
X146911962Y-88495085D01*
X146863840Y-88548141D01*
X146818085Y-88600548D01*
X146772438Y-88654812D01*
X146724637Y-88713440D01*
X146708029Y-88734141D01*
X146584364Y-88896477D01*
X146474385Y-89057593D01*
X146376639Y-89220146D01*
X146289677Y-89386796D01*
X146212047Y-89560202D01*
X146142296Y-89743021D01*
X146117316Y-89816239D01*
X146069341Y-89968537D01*
X146029638Y-90111545D01*
X145997586Y-90248824D01*
X145972562Y-90383931D01*
X145953947Y-90520427D01*
X145941118Y-90661872D01*
X145933456Y-90811823D01*
X145931575Y-90880767D01*
X145930527Y-90940976D01*
X145929986Y-90995478D01*
X145929937Y-91042438D01*
X145930369Y-91080024D01*
X145931267Y-91106403D01*
X145932618Y-91119742D01*
X145933296Y-91121016D01*
X145936122Y-91128150D01*
X145937354Y-91146989D01*
X145936771Y-91173670D01*
X145936542Y-91177651D01*
X145936067Y-91211030D01*
X145937724Y-91252964D01*
X145941173Y-91296579D01*
X145943396Y-91316331D01*
X145976978Y-91521710D01*
X146025752Y-91727396D01*
X146089324Y-91932582D01*
X146167298Y-92136460D01*
X146259282Y-92338222D01*
X146364881Y-92537059D01*
X146483700Y-92732163D01*
X146615345Y-92922726D01*
X146759422Y-93107940D01*
X146892482Y-93261791D01*
X146941393Y-93315297D01*
X146986932Y-93364347D01*
X147027999Y-93407808D01*
X147063496Y-93444549D01*
X147092324Y-93473438D01*
X147113384Y-93493343D01*
X147125577Y-93503133D01*
X147127656Y-93503966D01*
X147135488Y-93509243D01*
X147152052Y-93523753D01*
X147175200Y-93545509D01*
X147202785Y-93572525D01*
X147214404Y-93584182D01*
X147245611Y-93615140D01*
X147275645Y-93643939D01*
X147301528Y-93667789D01*
X147320286Y-93683903D01*
X147323566Y-93686435D01*
X147340645Y-93701458D01*
X147350149Y-93714502D01*
X147350911Y-93718906D01*
X147345201Y-93726432D01*
X147329700Y-93744139D01*
X147305430Y-93770925D01*
X147273411Y-93805691D01*
X147234666Y-93847334D01*
X147190215Y-93894753D01*
X147141080Y-93946849D01*
X147088282Y-94002519D01*
X147070717Y-94020974D01*
X147012259Y-94082396D01*
X146953250Y-94144494D01*
X146895321Y-94205545D01*
X146840103Y-94263826D01*
X146789227Y-94317614D01*
X146744325Y-94365187D01*
X146707028Y-94404821D01*
X146680068Y-94433612D01*
X146646945Y-94469054D01*
X146605349Y-94513447D01*
X146557539Y-94564384D01*
X146505776Y-94619460D01*
X146452321Y-94676269D01*
X146399434Y-94732406D01*
X146367988Y-94765747D01*
X146315260Y-94821745D01*
X146259440Y-94881236D01*
X146203032Y-94941540D01*
X146148540Y-94999973D01*
X146098467Y-95053853D01*
X146055317Y-95100496D01*
X146036137Y-95121337D01*
X145998858Y-95161750D01*
X145964248Y-95198911D01*
X145933960Y-95231072D01*
X145909647Y-95256486D01*
X145892964Y-95273405D01*
X145886458Y-95279466D01*
X145862323Y-95289996D01*
X145830717Y-95293138D01*
X145814844Y-95292529D01*
X145800382Y-95289795D01*
X145784600Y-95283576D01*
X145764770Y-95272513D01*
X145738159Y-95255248D01*
X145702039Y-95230419D01*
X145695222Y-95225673D01*
X145511515Y-95099866D01*
X145336694Y-94984834D01*
X145169203Y-94879733D01*
X145007483Y-94783716D01*
X144849977Y-94695938D01*
X144695125Y-94615552D01*
X144541371Y-94541713D01*
X144387156Y-94473575D01*
X144230921Y-94410292D01*
X144109392Y-94364749D01*
X143831278Y-94271898D01*
X143550383Y-94193964D01*
X143266339Y-94130904D01*
X142978777Y-94082672D01*
X142687331Y-94049224D01*
X142391630Y-94030516D01*
X142091308Y-94026503D01*
X141785996Y-94037140D01*
X141547379Y-94055277D01*
X141259305Y-94090017D01*
X140974053Y-94140073D01*
X140691859Y-94205354D01*
X140412958Y-94285764D01*
X140137585Y-94381212D01*
X139865975Y-94491603D01*
X139598363Y-94616844D01*
X139334986Y-94756842D01*
X139076077Y-94911504D01*
X138821873Y-95080736D01*
X138651393Y-95204410D01*
X138595520Y-95245556D01*
X138549653Y-95277243D01*
X138511971Y-95300228D01*
X138480656Y-95315269D01*
X138453889Y-95323123D01*
X138429852Y-95324547D01*
X138406725Y-95320299D01*
X138388731Y-95313781D01*
X138374938Y-95306047D01*
X138350908Y-95290564D01*
X138318947Y-95268901D01*
X138281360Y-95242628D01*
X138240454Y-95213315D01*
X138230090Y-95205777D01*
X137983633Y-95033057D01*
X137738189Y-94875365D01*
X137492859Y-94732218D01*
X137246741Y-94603137D01*
X136998932Y-94487641D01*
X136748533Y-94385248D01*
X136573633Y-94321936D01*
X136328023Y-94244854D01*
X136073123Y-94178721D01*
X135811043Y-94123797D01*
X135543888Y-94080340D01*
X135273765Y-94048607D01*
X135002783Y-94028857D01*
X134733047Y-94021349D01*
X134466665Y-94026341D01*
X134264678Y-94038904D01*
X133972638Y-94070382D01*
X133685137Y-94116602D01*
X133401742Y-94177689D01*
X133122018Y-94253765D01*
X132845530Y-94344952D01*
X132571846Y-94451374D01*
X132300529Y-94573153D01*
X132200839Y-94622036D01*
X132146429Y-94649460D01*
X132095638Y-94675408D01*
X132047370Y-94700540D01*
X132000529Y-94725518D01*
X131954019Y-94751001D01*
X131906742Y-94777650D01*
X131857603Y-94806126D01*
X131805504Y-94837090D01*
X131749350Y-94871203D01*
X131688045Y-94909124D01*
X131620491Y-94951515D01*
X131545592Y-94999037D01*
X131462252Y-95052349D01*
X131369375Y-95112113D01*
X131265863Y-95178989D01*
X131150622Y-95253638D01*
X131124211Y-95270764D01*
X131091741Y-95291215D01*
X131063196Y-95308072D01*
X131041515Y-95319675D01*
X131029641Y-95324364D01*
X131029209Y-95324390D01*
X131021301Y-95318897D01*
X131003902Y-95303220D01*
X130978222Y-95278561D01*
X130945471Y-95246124D01*
X130906859Y-95207112D01*
X130863594Y-95162728D01*
X130816888Y-95114175D01*
X130799378Y-95095818D01*
X130732355Y-95025360D01*
X130671789Y-94961616D01*
X130616360Y-94903173D01*
X130564751Y-94848619D01*
X130515642Y-94796544D01*
X130467715Y-94745535D01*
X130419651Y-94694182D01*
X130370131Y-94641073D01*
X130317836Y-94584796D01*
X130261448Y-94523939D01*
X130199647Y-94457092D01*
X130131116Y-94382843D01*
X130054535Y-94299781D01*
X129976729Y-94215333D01*
X129950551Y-94187022D01*
X129915770Y-94149568D01*
X129874481Y-94105220D01*
X129828779Y-94056223D01*
X129780760Y-94004826D01*
X129732518Y-93953276D01*
X129712667Y-93932090D01*
X129669678Y-93885921D01*
X129630319Y-93843052D01*
X129595830Y-93804881D01*
X129567449Y-93772804D01*
X129546415Y-93748217D01*
X129533969Y-93732516D01*
X129531015Y-93727406D01*
X129536621Y-93718732D01*
X129552090Y-93701937D01*
X129575396Y-93679043D01*
X129604516Y-93652071D01*
X129622817Y-93635754D01*
X129676883Y-93586893D01*
X129737289Y-93530072D01*
X129801220Y-93468107D01*
X129865861Y-93403812D01*
X129928399Y-93340004D01*
X129986019Y-93279498D01*
X130035907Y-93225109D01*
X130055269Y-93203166D01*
X130208720Y-93015946D01*
X130347066Y-92824895D01*
X130381919Y-92769762D01*
X133875337Y-92769762D01*
X134126153Y-92767700D01*
X134376969Y-92765639D01*
X134603021Y-92156227D01*
X134637667Y-92062951D01*
X134670841Y-91973879D01*
X134702131Y-91890102D01*
X134731127Y-91812710D01*
X134757417Y-91742794D01*
X134780589Y-91681445D01*
X134800231Y-91629754D01*
X134815932Y-91588812D01*
X134827280Y-91559709D01*
X134833864Y-91543537D01*
X134835341Y-91540509D01*
X134839622Y-91545666D01*
X134848141Y-91563607D01*
X134860082Y-91592327D01*
X134874627Y-91629825D01*
X134890961Y-91674097D01*
X134899056Y-91696768D01*
X134912392Y-91734489D01*
X134930262Y-91785003D01*
X134951981Y-91846378D01*
X134976864Y-91916678D01*
X135004225Y-91993969D01*
X135033382Y-92076316D01*
X135063647Y-92161786D01*
X135094338Y-92248443D01*
X135117022Y-92312486D01*
X135277541Y-92765639D01*
X135742691Y-92769779D01*
X135738090Y-92752083D01*
X135735225Y-92742578D01*
X135727959Y-92719056D01*
X135716572Y-92682413D01*
X135701343Y-92633540D01*
X135682552Y-92573330D01*
X135660477Y-92502678D01*
X135635398Y-92422475D01*
X135607595Y-92333615D01*
X135577346Y-92236991D01*
X135544931Y-92133496D01*
X135510629Y-92024024D01*
X135474720Y-91909467D01*
X135437482Y-91790718D01*
X135427146Y-91757765D01*
X135185748Y-90988186D01*
X136300962Y-90988186D01*
X136300971Y-91147904D01*
X136301003Y-91292772D01*
X136301066Y-91423563D01*
X136301170Y-91541054D01*
X136301323Y-91646019D01*
X136301533Y-91739233D01*
X136301809Y-91821472D01*
X136302160Y-91893510D01*
X136302594Y-91956123D01*
X136303120Y-92010085D01*
X136303747Y-92056173D01*
X136304482Y-92095159D01*
X136305335Y-92127821D01*
X136306314Y-92154932D01*
X136307428Y-92177269D01*
X136308686Y-92195605D01*
X136310095Y-92210717D01*
X136311665Y-92223378D01*
X136313405Y-92234365D01*
X136314864Y-92242169D01*
X136332455Y-92318404D01*
X136353648Y-92388938D01*
X136377413Y-92450892D01*
X136402716Y-92501387D01*
X136414278Y-92519530D01*
X136419557Y-92527980D01*
X136422102Y-92536639D01*
X136421358Y-92548289D01*
X136416773Y-92565709D01*
X136407791Y-92591679D01*
X136393860Y-92628981D01*
X136390930Y-92636725D01*
X136376697Y-92674547D01*
X136364117Y-92708374D01*
X136354425Y-92734853D01*
X136348859Y-92750633D01*
X136348425Y-92751966D01*
X136342881Y-92769546D01*
X136583657Y-92769426D01*
X136643754Y-92769205D01*
X136698989Y-92768637D01*
X136747376Y-92767772D01*
X136786931Y-92766657D01*
X136815668Y-92765343D01*
X136831601Y-92763878D01*
X136834001Y-92763227D01*
X136843268Y-92750955D01*
X136846103Y-92741861D01*
X136851952Y-92722630D01*
X136857978Y-92709585D01*
X136866583Y-92690198D01*
X136870075Y-92678333D01*
X136875030Y-92660963D01*
X136882611Y-92640631D01*
X136890022Y-92621958D01*
X136894290Y-92609515D01*
X136894324Y-92609380D01*
X136898497Y-92597152D01*
X136905877Y-92578527D01*
X136906044Y-92578128D01*
X136913458Y-92559455D01*
X136917729Y-92547012D01*
X136917763Y-92546876D01*
X136921936Y-92534648D01*
X136929316Y-92516024D01*
X136929483Y-92515624D01*
X136937194Y-92495476D01*
X136941805Y-92480465D01*
X136944689Y-92470090D01*
X136945533Y-92468746D01*
X136947950Y-92462460D01*
X136949262Y-92457026D01*
X136953980Y-92441712D01*
X136961584Y-92421868D01*
X136968999Y-92403195D01*
X136973269Y-92390752D01*
X136973304Y-92390616D01*
X136977477Y-92378388D01*
X136984856Y-92359764D01*
X136985023Y-92359364D01*
X136992455Y-92340689D01*
X136996764Y-92328247D01*
X136996799Y-92328112D01*
X137001377Y-92313594D01*
X137010909Y-92286198D01*
X137024977Y-92247029D01*
X137043161Y-92197196D01*
X137065041Y-92137806D01*
X137090197Y-92069965D01*
X137118211Y-91994782D01*
X137148661Y-91913363D01*
X137181130Y-91826815D01*
X137215197Y-91736246D01*
X137250443Y-91642763D01*
X137286448Y-91547472D01*
X137322792Y-91451482D01*
X137359057Y-91355899D01*
X137394821Y-91261831D01*
X137429667Y-91170385D01*
X137463174Y-91082667D01*
X137494922Y-90999786D01*
X137524493Y-90922848D01*
X137551466Y-90852960D01*
X137575422Y-90791230D01*
X137595942Y-90738765D01*
X137612605Y-90696672D01*
X137624992Y-90666059D01*
X137632685Y-90648032D01*
X137635219Y-90643433D01*
X137636142Y-90652021D01*
X137636968Y-90675067D01*
X137637690Y-90711406D01*
X137638301Y-90759869D01*
X137638795Y-90819289D01*
X137639163Y-90888501D01*
X137639400Y-90966336D01*
X137639498Y-91051628D01*
X137639450Y-91143210D01*
X137639250Y-91239915D01*
X137639077Y-91293544D01*
X137638654Y-91413836D01*
X137638253Y-91519531D01*
X137637791Y-91611657D01*
X137637181Y-91691243D01*
X137636337Y-91759316D01*
X137635175Y-91816906D01*
X137633609Y-91865040D01*
X137631554Y-91904748D01*
X137628923Y-91937057D01*
X137625632Y-91962995D01*
X137621595Y-91983592D01*
X137616726Y-91999875D01*
X137610941Y-92012873D01*
X137604153Y-92023615D01*
X137596278Y-92033128D01*
X137587229Y-92042441D01*
X137576921Y-92052582D01*
X137575914Y-92053585D01*
X137551311Y-92074658D01*
X137524049Y-92089925D01*
X137490850Y-92100446D01*
X137448439Y-92107284D01*
X137397822Y-92111270D01*
X137322294Y-92115432D01*
X137214929Y-92405377D01*
X137190681Y-92470808D01*
X137167592Y-92533012D01*
X137146350Y-92590145D01*
X137127641Y-92640366D01*
X137112151Y-92681831D01*
X137100567Y-92712696D01*
X137093577Y-92731120D01*
X137092785Y-92733164D01*
X137078006Y-92771007D01*
X137365307Y-92767639D01*
X137441025Y-92766695D01*
X137502959Y-92765741D01*
X137552952Y-92764671D01*
X137592846Y-92763377D01*
X137624483Y-92761752D01*
X137649707Y-92759689D01*
X137670358Y-92757081D01*
X137688280Y-92753821D01*
X137705314Y-92749800D01*
X137714659Y-92747312D01*
X137803255Y-92715956D01*
X137881634Y-92673055D01*
X137949873Y-92618504D01*
X138008051Y-92552199D01*
X138056244Y-92474037D01*
X138094531Y-92383912D01*
X138122989Y-92281721D01*
X138140678Y-92175964D01*
X138141909Y-92157686D01*
X138143044Y-92124048D01*
X138144082Y-92075314D01*
X138145020Y-92011751D01*
X138145856Y-91933622D01*
X138146590Y-91841194D01*
X138147198Y-91738232D01*
X138789397Y-91738232D01*
X138789419Y-91923790D01*
X138789967Y-92006739D01*
X138791761Y-92076926D01*
X138795054Y-92137185D01*
X138800101Y-92190347D01*
X138807156Y-92239246D01*
X138816475Y-92286714D01*
X138825385Y-92324206D01*
X138856883Y-92420856D01*
X138899580Y-92506660D01*
X138953190Y-92581371D01*
X139017431Y-92644741D01*
X139092018Y-92696523D01*
X139176666Y-92736467D01*
X139271093Y-92764328D01*
X139344573Y-92776718D01*
X139364676Y-92778160D01*
X139398468Y-92779414D01*
X139444010Y-92780456D01*
X139499367Y-92781260D01*
X139562600Y-92781803D01*
X139631773Y-92782060D01*
X139704948Y-92782007D01*
X139750393Y-92781813D01*
X139833896Y-92781308D01*
X139903395Y-92780766D01*
X139960514Y-92780113D01*
X140006876Y-92779275D01*
X140044103Y-92778178D01*
X140073819Y-92776750D01*
X140097646Y-92774916D01*
X140117208Y-92772604D01*
X140134126Y-92769738D01*
X140150024Y-92766246D01*
X140162453Y-92763121D01*
X140254044Y-92731912D01*
X140336242Y-92688318D01*
X140409146Y-92632245D01*
X140472860Y-92563601D01*
X140527484Y-92482291D01*
X140573120Y-92388223D01*
X140575039Y-92383502D01*
X140598167Y-92321643D01*
X140616865Y-92260703D01*
X140631464Y-92198275D01*
X140642294Y-92131953D01*
X140649682Y-92059330D01*
X140653960Y-91978001D01*
X140655457Y-91885558D01*
X140654854Y-91800736D01*
X140653459Y-91726254D01*
X140651448Y-91664876D01*
X140648384Y-91614083D01*
X140643830Y-91571352D01*
X140637349Y-91534165D01*
X140628503Y-91499999D01*
X140616856Y-91466335D01*
X140601970Y-91430652D01*
X140583878Y-91391419D01*
X140533638Y-91298242D01*
X140473009Y-91209573D01*
X140401073Y-91124485D01*
X140316911Y-91042052D01*
X140219602Y-90961347D01*
X140108229Y-90881445D01*
X140024125Y-90827179D01*
X139904316Y-90751088D01*
X139798293Y-90679922D01*
X139705263Y-90612977D01*
X139624435Y-90549553D01*
X139555016Y-90488949D01*
X139496213Y-90430462D01*
X139447235Y-90373391D01*
X139407288Y-90317034D01*
X139375582Y-90260690D01*
X139369215Y-90247320D01*
X139360727Y-90227338D01*
X139354778Y-90208177D01*
X139350795Y-90186149D01*
X139348205Y-90157569D01*
X139346434Y-90118749D01*
X139345735Y-90096384D01*
X139342658Y-89989787D01*
X139371341Y-89958038D01*
X139387282Y-89941456D01*
X139403299Y-89928025D01*
X139421211Y-89917397D01*
X139442839Y-89909223D01*
X139470001Y-89903155D01*
X139504516Y-89898844D01*
X139548206Y-89895941D01*
X139602888Y-89894098D01*
X139670382Y-89892966D01*
X139713287Y-89892523D01*
X139783847Y-89891969D01*
X139840680Y-89891920D01*
X139885685Y-89892687D01*
X139920759Y-89894578D01*
X139947800Y-89897904D01*
X139968708Y-89902973D01*
X139985378Y-89910095D01*
X139999711Y-89919580D01*
X140013603Y-89931737D01*
X140025516Y-89943435D01*
X140059701Y-89988092D01*
X140085909Y-90045787D01*
X140104196Y-90116681D01*
X140114614Y-90200934D01*
X140115146Y-90208841D01*
X140119964Y-90285018D01*
X140664512Y-90285018D01*
X140664490Y-90095553D01*
X140663337Y-89992971D01*
X140659669Y-89903713D01*
X140655619Y-89855304D01*
X140653137Y-89825631D01*
X140643390Y-89756572D01*
X140630078Y-89694388D01*
X140612851Y-89636927D01*
X140591358Y-89582040D01*
X140575193Y-89547249D01*
X140526930Y-89464094D01*
X140469756Y-89393536D01*
X140402961Y-89334983D01*
X140325831Y-89287840D01*
X140237654Y-89251514D01*
X140210223Y-89243007D01*
X140176452Y-89233867D01*
X140142756Y-89226310D01*
X140107360Y-89220221D01*
X140068493Y-89215488D01*
X140024381Y-89211996D01*
X139973251Y-89209633D01*
X139913331Y-89208284D01*
X139842846Y-89207838D01*
X139760026Y-89208179D01*
X139678680Y-89209004D01*
X139599479Y-89210022D01*
X139534114Y-89211052D01*
X139480794Y-89212190D01*
X139437729Y-89213529D01*
X139403128Y-89215163D01*
X139375202Y-89217189D01*
X139352159Y-89219699D01*
X139332210Y-89222788D01*
X139313565Y-89226552D01*
X139303864Y-89228789D01*
X139204946Y-89259123D01*
X139117090Y-89300475D01*
X139040148Y-89352973D01*
X138973972Y-89416749D01*
X138918415Y-89491931D01*
X138873330Y-89578651D01*
X138855650Y-89623612D01*
X138842645Y-89660884D01*
X138831880Y-89694589D01*
X138823144Y-89726701D01*
X138816229Y-89759193D01*
X138810923Y-89794040D01*
X138807018Y-89833214D01*
X138804304Y-89878689D01*
X138802572Y-89932439D01*
X138801610Y-89996438D01*
X138801211Y-90072660D01*
X138801154Y-90136571D01*
X138801191Y-90437371D01*
X138822682Y-90506001D01*
X138858583Y-90603664D01*
X138903394Y-90693982D01*
X138958837Y-90779705D01*
X139026632Y-90863582D01*
X139085756Y-90926067D01*
X139134667Y-90973312D01*
X139183244Y-91016639D01*
X139234045Y-91057981D01*
X139289627Y-91099272D01*
X139352546Y-91142443D01*
X139425361Y-91189428D01*
X139475595Y-91220704D01*
X139601654Y-91300095D01*
X139713254Y-91374062D01*
X139810544Y-91442726D01*
X139893674Y-91506207D01*
X139962793Y-91564626D01*
X140018050Y-91618104D01*
X140059596Y-91666762D01*
X140087580Y-91710720D01*
X140090905Y-91717531D01*
X140098013Y-91733897D01*
X140103058Y-91749585D01*
X140106386Y-91767671D01*
X140108345Y-91791235D01*
X140109282Y-91823354D01*
X140109544Y-91867106D01*
X140109543Y-91882772D01*
X140108622Y-91943834D01*
X140105376Y-91991583D01*
X140098918Y-92028265D01*
X140088363Y-92056125D01*
X140072827Y-92077411D01*
X140051423Y-92094369D01*
X140023268Y-92109244D01*
X140019655Y-92110879D01*
X140009037Y-92114897D01*
X139995864Y-92118128D01*
X139978301Y-92120685D01*
X139954512Y-92122680D01*
X139922663Y-92124228D01*
X139880918Y-92125440D01*
X139827441Y-92126429D01*
X139760399Y-92127310D01*
X139751172Y-92127416D01*
X139676896Y-92128132D01*
X139616462Y-92128230D01*
X139568090Y-92127414D01*
X139530000Y-92125389D01*
X139500413Y-92121861D01*
X139477548Y-92116533D01*
X139459624Y-92109111D01*
X139444863Y-92099300D01*
X139431483Y-92086803D01*
X139418487Y-92072242D01*
X139394376Y-92038054D01*
X139375094Y-91996587D01*
X139360057Y-91945837D01*
X139348681Y-91883801D01*
X139340381Y-91808476D01*
X139339903Y-91802689D01*
X139334679Y-91738232D01*
X138789397Y-91738232D01*
X138147198Y-91738232D01*
X138147219Y-91734731D01*
X138147742Y-91614498D01*
X138148156Y-91480761D01*
X138148460Y-91333785D01*
X138148652Y-91173836D01*
X138148730Y-91001177D01*
X138148732Y-90968272D01*
X138148728Y-90812200D01*
X138148709Y-90670948D01*
X138148663Y-90543709D01*
X138148581Y-90429678D01*
X138148453Y-90328047D01*
X138148266Y-90238012D01*
X138148012Y-90158764D01*
X138147680Y-90089499D01*
X138147258Y-90029410D01*
X138146737Y-89977690D01*
X138146106Y-89933534D01*
X138145354Y-89896135D01*
X138144472Y-89864687D01*
X138143447Y-89838384D01*
X138142271Y-89816419D01*
X138140933Y-89797986D01*
X138139421Y-89782280D01*
X138137725Y-89768493D01*
X138135836Y-89755819D01*
X138133742Y-89743452D01*
X138132685Y-89737522D01*
X138122921Y-89690241D01*
X138110071Y-89637612D01*
X138096223Y-89587899D01*
X138089331Y-89565976D01*
X138062025Y-89483692D01*
X138117098Y-89338389D01*
X138133933Y-89293740D01*
X138148690Y-89254157D01*
X138160529Y-89221928D01*
X138168611Y-89199343D01*
X138168719Y-89199013D01*
X141234860Y-89199013D01*
X141234860Y-89855304D01*
X141922402Y-89855304D01*
X141922402Y-92769546D01*
X142430246Y-92769546D01*
X143779311Y-92769546D01*
X145657007Y-92769546D01*
X145657007Y-92113255D01*
X144305361Y-92113255D01*
X144305361Y-89199013D01*
X143789704Y-89199013D01*
X143789700Y-90134618D01*
X143789647Y-90276805D01*
X143789492Y-90429863D01*
X143789243Y-90591233D01*
X143788908Y-90758358D01*
X143788495Y-90928681D01*
X143788010Y-91099643D01*
X143787460Y-91268687D01*
X143786855Y-91433256D01*
X143786200Y-91590791D01*
X143785504Y-91738734D01*
X143784773Y-91874529D01*
X143784504Y-91919884D01*
X143779311Y-92769546D01*
X142430246Y-92769546D01*
X142430246Y-89855304D01*
X143109975Y-89855304D01*
X143109975Y-89199013D01*
X141234860Y-89199013D01*
X138168719Y-89199013D01*
X138172096Y-89188689D01*
X138172171Y-89188237D01*
X138164672Y-89187040D01*
X138143428Y-89185950D01*
X138110321Y-89185005D01*
X138067232Y-89184243D01*
X138016043Y-89183702D01*
X137958634Y-89183420D01*
X137930652Y-89183388D01*
X137689133Y-89183388D01*
X137669145Y-89236125D01*
X137663251Y-89251779D01*
X137652353Y-89280824D01*
X137636918Y-89322016D01*
X137617413Y-89374108D01*
X137594302Y-89435854D01*
X137568053Y-89506010D01*
X137539131Y-89583329D01*
X137508003Y-89666566D01*
X137475135Y-89754474D01*
X137440993Y-89845809D01*
X137434524Y-89863117D01*
X137367485Y-90042353D01*
X137303449Y-90213305D01*
X137242575Y-90375557D01*
X137185021Y-90528691D01*
X137130946Y-90672290D01*
X137080509Y-90805937D01*
X137033867Y-90929216D01*
X136991180Y-91041708D01*
X136952607Y-91142997D01*
X136918306Y-91232666D01*
X136888435Y-91310297D01*
X136863153Y-91375474D01*
X136842620Y-91427780D01*
X136826992Y-91466797D01*
X136816430Y-91492109D01*
X136811091Y-91503297D01*
X136810562Y-91503843D01*
X136809681Y-91496210D01*
X136808886Y-91474035D01*
X136808182Y-91438401D01*
X136807576Y-91390391D01*
X136807072Y-91331087D01*
X136806678Y-91261574D01*
X136806399Y-91182934D01*
X136806241Y-91096250D01*
X136806210Y-91002607D01*
X136806311Y-90903086D01*
X136806550Y-90798771D01*
X136806622Y-90775282D01*
X136808951Y-90046722D01*
X136826491Y-89994892D01*
X136850887Y-89942260D01*
X136884050Y-89902241D01*
X136925668Y-89875165D01*
X136946527Y-89867452D01*
X136978898Y-89860845D01*
X137023462Y-89856846D01*
X137081742Y-89855326D01*
X137090930Y-89855304D01*
X137194426Y-89855304D01*
X137211365Y-89810379D01*
X137218002Y-89792671D01*
X137229338Y-89762311D01*
X137244627Y-89721293D01*
X137263128Y-89671614D01*
X137284098Y-89615269D01*
X137306792Y-89554254D01*
X137328483Y-89495907D01*
X137351495Y-89434009D01*
X137372936Y-89376379D01*
X137392161Y-89324745D01*
X137408527Y-89280834D01*
X137421390Y-89246374D01*
X137430106Y-89223092D01*
X137434031Y-89212715D01*
X137434042Y-89212686D01*
X137434654Y-89209223D01*
X137432555Y-89206398D01*
X137426336Y-89204148D01*
X137414585Y-89202408D01*
X137395892Y-89201113D01*
X137368847Y-89200200D01*
X137332040Y-89199603D01*
X137284060Y-89199259D01*
X137223497Y-89199103D01*
X137148940Y-89199071D01*
X137135834Y-89199072D01*
X137061212Y-89199304D01*
X136991420Y-89199939D01*
X136928308Y-89200935D01*
X136873723Y-89202249D01*
X136829514Y-89203838D01*
X136797529Y-89205658D01*
X136781461Y-89207334D01*
X136690499Y-89229026D01*
X136608877Y-89263217D01*
X136536584Y-89309917D01*
X136473609Y-89369141D01*
X136419941Y-89440900D01*
X136375568Y-89525207D01*
X136340479Y-89622075D01*
X136315612Y-89726390D01*
X136313639Y-89737469D01*
X136311852Y-89749168D01*
X136310240Y-89762269D01*
X136308795Y-89777555D01*
X136307508Y-89795807D01*
X136306370Y-89817807D01*
X136305371Y-89844339D01*
X136304503Y-89876182D01*
X136303757Y-89914121D01*
X136303122Y-89958937D01*
X136302591Y-90011413D01*
X136302155Y-90072329D01*
X136301803Y-90142469D01*
X136301527Y-90222615D01*
X136301319Y-90313549D01*
X136301168Y-90416052D01*
X136301066Y-90530908D01*
X136301004Y-90658897D01*
X136300973Y-90800803D01*
X136300963Y-90957408D01*
X136300962Y-90988186D01*
X135185748Y-90988186D01*
X135120803Y-90781142D01*
X135419746Y-89984218D01*
X135459762Y-89877529D01*
X135498207Y-89774999D01*
X135534729Y-89677568D01*
X135568975Y-89586178D01*
X135600594Y-89501771D01*
X135629232Y-89425286D01*
X135654538Y-89357667D01*
X135676160Y-89299853D01*
X135693744Y-89252787D01*
X135706938Y-89217410D01*
X135715390Y-89194662D01*
X135718749Y-89185486D01*
X135718793Y-89185341D01*
X135711315Y-89184869D01*
X135690066Y-89184446D01*
X135656903Y-89184086D01*
X135613679Y-89183803D01*
X135562251Y-89183611D01*
X135504473Y-89183522D01*
X135470833Y-89183522D01*
X135222771Y-89183656D01*
X135047228Y-89656207D01*
X135016790Y-89737950D01*
X134987878Y-89815213D01*
X134960958Y-89886774D01*
X134936498Y-89951411D01*
X134914964Y-90007903D01*
X134896822Y-90055027D01*
X134882539Y-90091560D01*
X134872582Y-90116282D01*
X134867416Y-90127970D01*
X134866843Y-90128758D01*
X134863274Y-90121664D01*
X134854597Y-90101191D01*
X134841291Y-90068553D01*
X134823836Y-90024964D01*
X134802713Y-89971636D01*
X134778402Y-89909784D01*
X134751382Y-89840621D01*
X134722133Y-89765362D01*
X134691135Y-89685218D01*
X134679898Y-89656073D01*
X134497796Y-89183388D01*
X134032457Y-89183388D01*
X134085754Y-89341600D01*
X134096308Y-89372925D01*
X134111388Y-89417669D01*
X134130526Y-89474446D01*
X134153253Y-89541869D01*
X134179103Y-89618550D01*
X134207607Y-89703102D01*
X134238299Y-89794139D01*
X134270710Y-89890273D01*
X134304373Y-89990117D01*
X134338820Y-90092283D01*
X134366925Y-90175636D01*
X134400217Y-90274644D01*
X134431978Y-90369623D01*
X134461860Y-90459505D01*
X134489516Y-90543221D01*
X134514599Y-90619703D01*
X134536761Y-90687883D01*
X134555656Y-90746692D01*
X134570937Y-90795063D01*
X134582256Y-90831927D01*
X134589266Y-90856216D01*
X134591620Y-90866861D01*
X134591599Y-90867085D01*
X134588641Y-90875510D01*
X134580562Y-90897497D01*
X134567761Y-90931989D01*
X134550634Y-90977929D01*
X134529580Y-91034260D01*
X134504995Y-91099925D01*
X134477279Y-91173867D01*
X134446829Y-91255030D01*
X134414043Y-91342355D01*
X134379318Y-91434786D01*
X134343052Y-91531266D01*
X134305643Y-91630738D01*
X134267489Y-91732145D01*
X134228988Y-91834430D01*
X134190537Y-91936536D01*
X134152534Y-92037406D01*
X134115377Y-92135984D01*
X134079464Y-92231211D01*
X134045192Y-92322031D01*
X134012960Y-92407387D01*
X133983165Y-92486222D01*
X133956205Y-92557480D01*
X133932477Y-92620102D01*
X133912380Y-92673032D01*
X133896312Y-92715213D01*
X133884669Y-92745589D01*
X133883674Y-92748168D01*
X133875337Y-92769762D01*
X130381919Y-92769762D01*
X130382056Y-92769546D01*
X130470341Y-92629890D01*
X130578580Y-92430811D01*
X130671815Y-92227536D01*
X130750081Y-92019943D01*
X130813412Y-91807910D01*
X130861841Y-91591317D01*
X130895403Y-91370042D01*
X130914131Y-91143963D01*
X130918059Y-90912959D01*
X130907221Y-90676909D01*
X130881652Y-90435690D01*
X130862591Y-90308457D01*
X130817212Y-90079901D01*
X130757087Y-89855774D01*
X130682519Y-89636791D01*
X130593813Y-89423669D01*
X130491276Y-89217125D01*
X130485277Y-89206826D01*
X131663958Y-89206826D01*
X131663958Y-92769546D01*
X132234306Y-92769546D01*
X132234306Y-92050751D01*
X132234378Y-91943948D01*
X132234588Y-91842312D01*
X132234925Y-91746885D01*
X132235381Y-91658708D01*
X132235945Y-91578823D01*
X132236607Y-91508271D01*
X132237357Y-91448095D01*
X132238186Y-91399335D01*
X132239085Y-91363033D01*
X132240042Y-91340231D01*
X132241048Y-91331970D01*
X132241090Y-91331957D01*
X132245284Y-91338876D01*
X132255654Y-91359007D01*
X132271748Y-91391408D01*
X132293117Y-91435142D01*
X132319308Y-91489267D01*
X132349871Y-91552845D01*
X132384355Y-91624934D01*
X132422309Y-91704596D01*
X132463282Y-91790890D01*
X132506823Y-91882876D01*
X132552481Y-91979615D01*
X132585975Y-92050751D01*
X132924076Y-92769546D01*
X133216860Y-92769546D01*
X133292261Y-92769509D01*
X133353478Y-92769355D01*
X133401953Y-92769014D01*
X133439129Y-92768418D01*
X133466447Y-92767499D01*
X133485350Y-92766188D01*
X133497280Y-92764419D01*
X133503679Y-92762121D01*
X133505989Y-92759227D01*
X133505713Y-92755873D01*
X133502149Y-92747123D01*
X133492708Y-92724927D01*
X133477770Y-92690158D01*
X133457713Y-92643689D01*
X133432916Y-92586393D01*
X133403758Y-92519144D01*
X133370619Y-92442814D01*
X133333878Y-92358277D01*
X133293913Y-92266405D01*
X133251104Y-92168072D01*
X133205829Y-92064150D01*
X133158468Y-91955514D01*
X133109694Y-91843707D01*
X133060664Y-91731231D01*
X133013402Y-91622572D01*
X132968283Y-91518606D01*
X132925684Y-91420209D01*
X132885978Y-91328255D01*
X132849542Y-91243619D01*
X132816751Y-91167176D01*
X132787980Y-91099801D01*
X132763605Y-91042370D01*
X132744000Y-90995757D01*
X132729542Y-90960837D01*
X132720606Y-90938485D01*
X132717566Y-90929589D01*
X132720800Y-90920628D01*
X132730241Y-90898395D01*
X132745485Y-90863778D01*
X132766127Y-90817662D01*
X132791762Y-90760935D01*
X132821986Y-90694481D01*
X132856393Y-90619189D01*
X132894579Y-90535944D01*
X132936138Y-90445633D01*
X132980666Y-90349143D01*
X133027759Y-90247359D01*
X133077011Y-90141168D01*
X133112674Y-90064431D01*
X133163139Y-89955904D01*
X133211734Y-89851332D01*
X133258057Y-89751586D01*
X133301705Y-89657538D01*
X133342272Y-89570060D01*
X133379358Y-89490021D01*
X133412557Y-89418295D01*
X133441467Y-89355752D01*
X133465684Y-89303264D01*
X133484805Y-89261701D01*
X133498427Y-89231935D01*
X133506146Y-89214839D01*
X133507822Y-89210863D01*
X133500297Y-89209946D01*
X133478871Y-89209102D01*
X133445269Y-89208355D01*
X133401218Y-89207730D01*
X133348443Y-89207251D01*
X133288668Y-89206942D01*
X133223619Y-89206827D01*
X133220651Y-89206826D01*
X132933481Y-89206826D01*
X132594522Y-89849444D01*
X132545277Y-89942715D01*
X132497955Y-90032164D01*
X132453082Y-90116807D01*
X132411183Y-90195663D01*
X132372785Y-90267747D01*
X132338413Y-90332076D01*
X132308591Y-90387667D01*
X132283847Y-90433536D01*
X132264705Y-90468700D01*
X132251691Y-90492177D01*
X132245330Y-90502981D01*
X132244935Y-90503502D01*
X132243016Y-90503650D01*
X132241334Y-90499094D01*
X132239876Y-90488939D01*
X132238626Y-90472286D01*
X132237570Y-90448238D01*
X132236693Y-90415896D01*
X132235979Y-90374364D01*
X132235415Y-90322744D01*
X132234984Y-90260137D01*
X132234673Y-90185647D01*
X132234466Y-90098375D01*
X132234349Y-89997425D01*
X132234307Y-89881898D01*
X132234306Y-89860885D01*
X132234306Y-89206826D01*
X131663958Y-89206826D01*
X130485277Y-89206826D01*
X130375211Y-89017874D01*
X130245924Y-88826632D01*
X130212220Y-88781019D01*
X130117569Y-88661460D01*
X130012256Y-88539743D01*
X129900001Y-88419820D01*
X129784524Y-88305646D01*
X129669545Y-88201173D01*
X129654069Y-88187862D01*
X129620991Y-88159027D01*
X129592559Y-88133127D01*
X129570748Y-88112051D01*
X129557535Y-88097690D01*
X129554454Y-88092530D01*
X129559415Y-88085935D01*
X129574352Y-88069583D01*
X129599346Y-88043391D01*
X129634480Y-88007279D01*
X129679834Y-87961164D01*
X129735489Y-87904966D01*
X129801528Y-87838603D01*
X129878032Y-87761993D01*
X129965081Y-87675055D01*
X130062758Y-87577708D01*
X130171144Y-87469870D01*
X130290320Y-87351459D01*
X130420368Y-87222394D01*
X130561370Y-87082594D01*
X130713405Y-86931977D01*
X130795160Y-86851029D01*
X130860168Y-86786901D01*
X130915072Y-86733310D01*
X130960665Y-86689593D01*
X130997738Y-86655087D01*
X131027084Y-86629130D01*
X131049495Y-86611058D01*
X131065763Y-86600208D01*
X131076680Y-86595918D01*
X131083040Y-86597524D01*
X131085633Y-86604363D01*
X131085798Y-86607799D01*
X131092255Y-86615991D01*
X131110713Y-86631363D01*
X131139798Y-86653008D01*
X131178139Y-86680021D01*
X131224363Y-86711497D01*
X131277098Y-86746531D01*
X131334973Y-86784216D01*
X131396614Y-86823647D01*
X131460650Y-86863920D01*
X131525709Y-86904128D01*
X131590418Y-86943366D01*
X131630980Y-86967531D01*
X131892315Y-87115189D01*
X132155898Y-87250602D01*
X132420555Y-87373275D01*
X132685118Y-87482711D01*
X132948416Y-87578415D01*
X133209277Y-87659890D01*
X133363659Y-87701618D01*
X133453318Y-87723745D01*
X133541950Y-87744361D01*
X133627701Y-87763111D01*
X133708715Y-87779639D01*
X133783140Y-87793592D01*
X133849121Y-87804614D01*
X133904804Y-87812351D01*
X133948334Y-87816449D01*
X133966835Y-87817020D01*
X133994320Y-87817712D01*
X134014452Y-87819816D01*
X134023350Y-87822897D01*
X134023479Y-87823344D01*
X134029711Y-87828707D01*
X134048847Y-87833298D01*
X134081544Y-87837192D01*
X134128461Y-87840465D01*
X134190255Y-87843192D01*
X134199244Y-87843505D01*
X134238752Y-87845239D01*
X134272194Y-87847459D01*
X134296707Y-87849917D01*
X134309429Y-87852365D01*
X134310560Y-87853148D01*
X134318719Y-87855741D01*
X134338336Y-87856967D01*
X134365284Y-87856581D01*
X134367230Y-87856493D01*
X134394160Y-87856064D01*
X134413687Y-87857369D01*
X134421877Y-87860128D01*
X134421924Y-87860399D01*
X134429184Y-87862849D01*
X134448831Y-87864398D01*
X134477644Y-87864887D01*
X134503960Y-87864444D01*
X134537626Y-87864000D01*
X134564600Y-87864717D01*
X134581662Y-87866441D01*
X134586016Y-87868351D01*
X134593444Y-87870262D01*
X134614188Y-87871944D01*
X134645937Y-87873304D01*
X134686380Y-87874251D01*
X134733209Y-87874692D01*
X134746184Y-87874713D01*
X134794297Y-87874418D01*
X134836628Y-87873594D01*
X134870865Y-87872333D01*
X134894701Y-87870726D01*
X134905823Y-87868866D01*
X134906347Y-87868351D01*
X134913614Y-87865958D01*
X134933267Y-87864455D01*
X134962083Y-87863994D01*
X134988398Y-87864444D01*
X135022064Y-87865037D01*
X135049035Y-87864722D01*
X135066089Y-87863587D01*
X135070435Y-87862215D01*
X135077713Y-87859917D01*
X135097487Y-87857221D01*
X135126644Y-87854480D01*
X135158314Y-87852268D01*
X135332379Y-87837731D01*
X135516106Y-87814666D01*
X135706479Y-87783684D01*
X135900483Y-87745390D01*
X136095101Y-87700394D01*
X136287317Y-87649304D01*
X136474117Y-87592728D01*
X136519726Y-87577761D01*
X136770817Y-87486968D01*
X137023335Y-87381823D01*
X137275524Y-87263273D01*
X137525626Y-87132263D01*
X137771882Y-86989741D01*
X138012535Y-86836652D01*
X138245827Y-86673942D01*
X138366517Y-86583645D01*
X138396680Y-86561740D01*
X138421774Y-86545866D01*
X138439150Y-86537609D01*
X138444647Y-86536933D01*
X138454147Y-86542423D01*
G37*
D14*
X125620000Y-80044250D02*
X127000000Y-80044250D01*
X125620000Y-81424250D02*
X125620000Y-80044250D01*
X125620000Y-82694250D02*
X125620000Y-161544250D01*
X125620000Y-82694250D02*
X128380000Y-82694250D01*
X125620000Y-161544250D02*
X128380000Y-161544250D01*
X128380000Y-82694250D02*
X128380000Y-161544250D01*
X148480000Y-80044250D02*
X149860000Y-80044250D01*
X148480000Y-81424250D02*
X148480000Y-80044250D01*
X148480000Y-82694250D02*
X148480000Y-161544250D01*
X148480000Y-82694250D02*
X151240000Y-82694250D01*
X148480000Y-161544250D02*
X151240000Y-161544250D01*
X151240000Y-82694250D02*
X151240000Y-161544250D01*
%LPC*%
D16*
X138430000Y-120804679D03*
D17*
X139031040Y-116243841D03*
X139313883Y-116526683D03*
X139596726Y-116809526D03*
X139879569Y-117092368D03*
X140162411Y-117375210D03*
X140445254Y-117658054D03*
X140728097Y-117940897D03*
X141010939Y-118223740D03*
X141293782Y-118506582D03*
X141576625Y-118789425D03*
X141859469Y-119072268D03*
X142142311Y-119355110D03*
X142425153Y-119637953D03*
X142707996Y-119920796D03*
X142990838Y-120203639D03*
X137828960Y-125365517D03*
X137546117Y-125082675D03*
X137263274Y-124799832D03*
X136980431Y-124516990D03*
X136697589Y-124234148D03*
X136414746Y-123951304D03*
X136131903Y-123668461D03*
X135849061Y-123385618D03*
X135566218Y-123102776D03*
X135283375Y-122819933D03*
X135000531Y-122537090D03*
X134717689Y-122254248D03*
X134434847Y-121971405D03*
X134152004Y-121688562D03*
X133869162Y-121405719D03*
D18*
X133869162Y-120203639D03*
X134152004Y-119920796D03*
X135000531Y-119072268D03*
X136980431Y-117092368D03*
X134717689Y-119355110D03*
X135283375Y-118789425D03*
X135566218Y-118506582D03*
X136131903Y-117940897D03*
X136414746Y-117658054D03*
X136697589Y-117375210D03*
X137546117Y-116526683D03*
X137828960Y-116243841D03*
X134434847Y-119637953D03*
X135849061Y-118223740D03*
X137263274Y-116809526D03*
X142990838Y-121405719D03*
X140728097Y-123668461D03*
X141859469Y-122537090D03*
X139879569Y-124516990D03*
X142425153Y-121971405D03*
X141293782Y-123102776D03*
X140445254Y-123951304D03*
X142142311Y-122254248D03*
X139031040Y-125365517D03*
X141576625Y-122819933D03*
X141010939Y-123385618D03*
X139596726Y-124799832D03*
X142707996Y-121688562D03*
X140162411Y-124234148D03*
X139313883Y-125082675D03*
D19*
X127000000Y-81424250D03*
D20*
X127000000Y-83964250D03*
D19*
X127000000Y-86504250D03*
X127000000Y-89044250D03*
X127000000Y-91584250D03*
X127000000Y-94124250D03*
X127000000Y-96664250D03*
X127000000Y-99204250D03*
X127000000Y-101744250D03*
X127000000Y-104284250D03*
X127000000Y-106824250D03*
X127000000Y-109364250D03*
X127000000Y-111904250D03*
X127000000Y-114444250D03*
X127000000Y-116984250D03*
X127000000Y-119524250D03*
X127000000Y-122064250D03*
X127000000Y-124604250D03*
X127000000Y-127144250D03*
X127000000Y-129684250D03*
X127000000Y-132224250D03*
X127000000Y-134764250D03*
X127000000Y-137304250D03*
X127000000Y-139844250D03*
X127000000Y-142384250D03*
X127000000Y-144924250D03*
X127000000Y-147464250D03*
X127000000Y-150004250D03*
X127000000Y-152544250D03*
X127000000Y-155084250D03*
X127000000Y-157624250D03*
X127000000Y-160164250D03*
X149860000Y-81424250D03*
X149860000Y-83964250D03*
X149860000Y-86504250D03*
X149860000Y-89044250D03*
X149860000Y-91584250D03*
X149860000Y-94124250D03*
X149860000Y-96664250D03*
X149860000Y-99204250D03*
X149860000Y-101744250D03*
X149860000Y-104284250D03*
X149860000Y-106824250D03*
X149860000Y-109364250D03*
X149860000Y-111904250D03*
X149860000Y-114444250D03*
X149860000Y-116984250D03*
X149860000Y-119524250D03*
X149860000Y-122064250D03*
X149860000Y-124604250D03*
X149860000Y-127144250D03*
X149860000Y-129684250D03*
X149860000Y-132224250D03*
X149860000Y-134764250D03*
X149860000Y-137304250D03*
X149860000Y-139844250D03*
X149860000Y-142384250D03*
X149860000Y-144924250D03*
X149860000Y-147464250D03*
X149860000Y-150004250D03*
X149860000Y-152544250D03*
X149860000Y-155084250D03*
X149860000Y-157624250D03*
X149860000Y-160164250D03*
%LPD*%
M02*
