G04 #@! TF.GenerationSoftware,KiCad,Pcbnew,9.0.6*
G04 #@! TF.CreationDate,2026-01-07T14:27:30-06:00*
G04 #@! TF.ProjectId,QFN-60_7x7_P0.4,51464e2d-3630-45f3-9778-375f50302e34,rev?*
G04 #@! TF.SameCoordinates,Original*
G04 #@! TF.FileFunction,Soldermask,Top*
G04 #@! TF.FilePolarity,Negative*
%FSLAX46Y46*%
G04 Gerber Fmt 4.6, Leading zero omitted, Abs format (unit mm)*
G04 Created by KiCad (PCBNEW 9.0.6) date 2026-01-07 14:27:30*
%MOMM*%
%LPD*%
G01*
G04 APERTURE LIST*
G04 Aperture macros list*
%AMRoundRect*
0 Rectangle with rounded corners*
0 $1 Rounding radius*
0 $2 $3 $4 $5 $6 $7 $8 $9 X,Y pos of 4 corners*
0 Add a 4 corners polygon primitive as box body*
4,1,4,$2,$3,$4,$5,$6,$7,$8,$9,$2,$3,0*
0 Add four circle primitives for the rounded corners*
1,1,$1+$1,$2,$3*
1,1,$1+$1,$4,$5*
1,1,$1+$1,$6,$7*
1,1,$1+$1,$8,$9*
0 Add four rect primitives between the rounded corners*
20,1,$1+$1,$2,$3,$4,$5,0*
20,1,$1+$1,$4,$5,$6,$7,0*
20,1,$1+$1,$6,$7,$8,$9,0*
20,1,$1+$1,$8,$9,$2,$3,0*%
%AMRotRect*
0 Rectangle, with rotation*
0 The origin of the aperture is its center*
0 $1 length*
0 $2 width*
0 $3 Rotation angle, in degrees counterclockwise*
0 Add horizontal line*
21,1,$1,$2,0,0,$3*%
G04 Aperture macros list end*
%ADD10RoundRect,0.050000X-0.424264X0.353553X0.353553X-0.424264X0.424264X-0.353553X-0.353553X0.424264X0*%
%ADD11RoundRect,0.050000X-0.424264X-0.353553X-0.353553X-0.424264X0.424264X0.353553X0.353553X0.424264X0*%
%ADD12RotRect,3.400000X3.400000X315.000000*%
%ADD13C,1.700000*%
%ADD14R,1.700000X1.700000*%
G04 APERTURE END LIST*
D10*
X137828960Y-116243841D03*
X137546117Y-116526683D03*
X137263274Y-116809526D03*
X136980431Y-117092368D03*
X136697589Y-117375210D03*
X136414746Y-117658054D03*
X136131903Y-117940897D03*
X135849061Y-118223740D03*
X135566218Y-118506582D03*
X135283375Y-118789425D03*
X135000531Y-119072268D03*
X134717689Y-119355110D03*
X134434847Y-119637953D03*
X134152004Y-119920796D03*
X133869162Y-120203639D03*
D11*
X133869162Y-121405719D03*
X134152004Y-121688562D03*
X134434847Y-121971405D03*
X134717689Y-122254248D03*
X135000531Y-122537090D03*
X135283375Y-122819933D03*
X135566218Y-123102776D03*
X135849061Y-123385618D03*
X136131903Y-123668461D03*
X136414746Y-123951304D03*
X136697589Y-124234148D03*
X136980431Y-124516990D03*
X137263274Y-124799832D03*
X137546117Y-125082675D03*
X137828960Y-125365517D03*
D10*
X139031040Y-125365517D03*
X139313883Y-125082675D03*
X139596726Y-124799832D03*
X139879569Y-124516990D03*
X140162411Y-124234148D03*
X140445254Y-123951304D03*
X140728097Y-123668461D03*
X141010939Y-123385618D03*
X141293782Y-123102776D03*
X141576625Y-122819933D03*
X141859469Y-122537090D03*
X142142311Y-122254248D03*
X142425153Y-121971405D03*
X142707996Y-121688562D03*
X142990838Y-121405719D03*
D11*
X142990838Y-120203639D03*
X142707996Y-119920796D03*
X142425153Y-119637953D03*
X142142311Y-119355110D03*
X141859469Y-119072268D03*
X141576625Y-118789425D03*
X141293782Y-118506582D03*
X141010939Y-118223740D03*
X140728097Y-117940897D03*
X140445254Y-117658054D03*
X140162411Y-117375210D03*
X139879569Y-117092368D03*
X139596726Y-116809526D03*
X139313883Y-116526683D03*
X139031040Y-116243841D03*
D12*
X138430000Y-120804679D03*
D13*
X127000000Y-81424250D03*
D14*
X127000000Y-83964250D03*
D13*
X127000000Y-86504250D03*
X127000000Y-89044250D03*
X127000000Y-91584250D03*
X127000000Y-94124250D03*
X127000000Y-96664250D03*
X127000000Y-99204250D03*
X127000000Y-101744250D03*
X127000000Y-104284250D03*
X127000000Y-106824250D03*
X127000000Y-109364250D03*
X127000000Y-111904250D03*
X127000000Y-114444250D03*
X127000000Y-116984250D03*
X127000000Y-119524250D03*
X127000000Y-122064250D03*
X127000000Y-124604250D03*
X127000000Y-127144250D03*
X127000000Y-129684250D03*
X127000000Y-132224250D03*
X127000000Y-134764250D03*
X127000000Y-137304250D03*
X127000000Y-139844250D03*
X127000000Y-142384250D03*
X127000000Y-144924250D03*
X127000000Y-147464250D03*
X127000000Y-150004250D03*
X127000000Y-152544250D03*
X127000000Y-155084250D03*
X127000000Y-157624250D03*
X127000000Y-160164250D03*
X149860000Y-81424250D03*
X149860000Y-83964250D03*
X149860000Y-86504250D03*
X149860000Y-89044250D03*
X149860000Y-91584250D03*
X149860000Y-94124250D03*
X149860000Y-96664250D03*
X149860000Y-99204250D03*
X149860000Y-101744250D03*
X149860000Y-104284250D03*
X149860000Y-106824250D03*
X149860000Y-109364250D03*
X149860000Y-111904250D03*
X149860000Y-114444250D03*
X149860000Y-116984250D03*
X149860000Y-119524250D03*
X149860000Y-122064250D03*
X149860000Y-124604250D03*
X149860000Y-127144250D03*
X149860000Y-129684250D03*
X149860000Y-132224250D03*
X149860000Y-134764250D03*
X149860000Y-137304250D03*
X149860000Y-139844250D03*
X149860000Y-142384250D03*
X149860000Y-144924250D03*
X149860000Y-147464250D03*
X149860000Y-150004250D03*
X149860000Y-152544250D03*
X149860000Y-155084250D03*
X149860000Y-157624250D03*
X149860000Y-160164250D03*
M02*
