G04 #@! TF.GenerationSoftware,KiCad,Pcbnew,9.0.6*
G04 #@! TF.CreationDate,2026-01-07T14:27:30-06:00*
G04 #@! TF.ProjectId,QFN-60_7x7_P0.4,51464e2d-3630-45f3-9778-375f50302e34,rev?*
G04 #@! TF.SameCoordinates,Original*
G04 #@! TF.FileFunction,Paste,Bot*
G04 #@! TF.FilePolarity,Positive*
%FSLAX46Y46*%
G04 Gerber Fmt 4.6, Leading zero omitted, Abs format (unit mm)*
G04 Created by KiCad (PCBNEW 9.0.6) date 2026-01-07 14:27:30*
%MOMM*%
%LPD*%
G01*
G04 APERTURE LIST*
%ADD10R,2.510000X1.000000*%
G04 APERTURE END LIST*
D10*
X133735000Y-81407000D03*
X130425000Y-83947000D03*
X133735000Y-86487000D03*
X130425000Y-89027000D03*
X133735000Y-91567000D03*
X130425000Y-94107000D03*
X133735000Y-96647000D03*
X130425000Y-99187000D03*
X133735000Y-101727000D03*
X130425000Y-104267000D03*
X133735000Y-106807000D03*
X130425000Y-109347000D03*
X133735000Y-111887000D03*
X130425000Y-114427000D03*
X133735000Y-116967000D03*
X130425000Y-119507000D03*
X133735000Y-122047000D03*
X130425000Y-124587000D03*
X133735000Y-127127000D03*
X130425000Y-129667000D03*
X133735000Y-132207000D03*
X130425000Y-134747000D03*
X133735000Y-137287000D03*
X130425000Y-139827000D03*
X133735000Y-142367000D03*
X130425000Y-144907000D03*
X133735000Y-147447000D03*
X130425000Y-149987000D03*
X133735000Y-152527000D03*
X130425000Y-155067000D03*
X133735000Y-157607000D03*
X130425000Y-160147000D03*
X143125000Y-81407000D03*
X146435000Y-83947000D03*
X143125000Y-86487000D03*
X146435000Y-89027000D03*
X143125000Y-91567000D03*
X146435000Y-94107000D03*
X143125000Y-96647000D03*
X146435000Y-99187000D03*
X143125000Y-101727000D03*
X146435000Y-104267000D03*
X143125000Y-106807000D03*
X146435000Y-109347000D03*
X143125000Y-111887000D03*
X146435000Y-114427000D03*
X143125000Y-116967000D03*
X146435000Y-119507000D03*
X143125000Y-122047000D03*
X146435000Y-124587000D03*
X143125000Y-127127000D03*
X146435000Y-129667000D03*
X143125000Y-132207000D03*
X146435000Y-134747000D03*
X143125000Y-137287000D03*
X146435000Y-139827000D03*
X143125000Y-142367000D03*
X146435000Y-144907000D03*
X143125000Y-147447000D03*
X146435000Y-149987000D03*
X143125000Y-152527000D03*
X146435000Y-155067000D03*
X143125000Y-157607000D03*
X146435000Y-160147000D03*
M02*
