G04 #@! TF.GenerationSoftware,KiCad,Pcbnew,9.0.6*
G04 #@! TF.CreationDate,2026-01-07T14:27:30-06:00*
G04 #@! TF.ProjectId,QFN-60_7x7_P0.4,51464e2d-3630-45f3-9778-375f50302e34,rev?*
G04 #@! TF.SameCoordinates,Original*
G04 #@! TF.FileFunction,Legend,Bot*
G04 #@! TF.FilePolarity,Positive*
%FSLAX46Y46*%
G04 Gerber Fmt 4.6, Leading zero omitted, Abs format (unit mm)*
G04 Created by KiCad (PCBNEW 9.0.6) date 2026-01-07 14:27:30*
%MOMM*%
%LPD*%
G01*
G04 APERTURE LIST*
%ADD10C,0.150000*%
%ADD11C,0.120000*%
%ADD12C,1.700000*%
%ADD13R,1.700000X1.700000*%
%ADD14R,2.510000X1.000000*%
G04 APERTURE END LIST*
D10*
X133365714Y-78481819D02*
X133365714Y-79196104D01*
X133365714Y-79196104D02*
X133413333Y-79338961D01*
X133413333Y-79338961D02*
X133508571Y-79434200D01*
X133508571Y-79434200D02*
X133651428Y-79481819D01*
X133651428Y-79481819D02*
X133746666Y-79481819D01*
X132365714Y-79481819D02*
X132937142Y-79481819D01*
X132651428Y-79481819D02*
X132651428Y-78481819D01*
X132651428Y-78481819D02*
X132746666Y-78624676D01*
X132746666Y-78624676D02*
X132841904Y-78719914D01*
X132841904Y-78719914D02*
X132937142Y-78767533D01*
X131746666Y-78481819D02*
X131651428Y-78481819D01*
X131651428Y-78481819D02*
X131556190Y-78529438D01*
X131556190Y-78529438D02*
X131508571Y-78577057D01*
X131508571Y-78577057D02*
X131460952Y-78672295D01*
X131460952Y-78672295D02*
X131413333Y-78862771D01*
X131413333Y-78862771D02*
X131413333Y-79100866D01*
X131413333Y-79100866D02*
X131460952Y-79291342D01*
X131460952Y-79291342D02*
X131508571Y-79386580D01*
X131508571Y-79386580D02*
X131556190Y-79434200D01*
X131556190Y-79434200D02*
X131651428Y-79481819D01*
X131651428Y-79481819D02*
X131746666Y-79481819D01*
X131746666Y-79481819D02*
X131841904Y-79434200D01*
X131841904Y-79434200D02*
X131889523Y-79386580D01*
X131889523Y-79386580D02*
X131937142Y-79291342D01*
X131937142Y-79291342D02*
X131984761Y-79100866D01*
X131984761Y-79100866D02*
X131984761Y-78862771D01*
X131984761Y-78862771D02*
X131937142Y-78672295D01*
X131937142Y-78672295D02*
X131889523Y-78577057D01*
X131889523Y-78577057D02*
X131841904Y-78529438D01*
X131841904Y-78529438D02*
X131746666Y-78481819D01*
X131079999Y-78481819D02*
X130460952Y-78481819D01*
X130460952Y-78481819D02*
X130794285Y-78862771D01*
X130794285Y-78862771D02*
X130651428Y-78862771D01*
X130651428Y-78862771D02*
X130556190Y-78910390D01*
X130556190Y-78910390D02*
X130508571Y-78958009D01*
X130508571Y-78958009D02*
X130460952Y-79053247D01*
X130460952Y-79053247D02*
X130460952Y-79291342D01*
X130460952Y-79291342D02*
X130508571Y-79386580D01*
X130508571Y-79386580D02*
X130556190Y-79434200D01*
X130556190Y-79434200D02*
X130651428Y-79481819D01*
X130651428Y-79481819D02*
X130937142Y-79481819D01*
X130937142Y-79481819D02*
X131032380Y-79434200D01*
X131032380Y-79434200D02*
X131079999Y-79386580D01*
X146065714Y-78481819D02*
X146065714Y-79196104D01*
X146065714Y-79196104D02*
X146113333Y-79338961D01*
X146113333Y-79338961D02*
X146208571Y-79434200D01*
X146208571Y-79434200D02*
X146351428Y-79481819D01*
X146351428Y-79481819D02*
X146446666Y-79481819D01*
X145065714Y-79481819D02*
X145637142Y-79481819D01*
X145351428Y-79481819D02*
X145351428Y-78481819D01*
X145351428Y-78481819D02*
X145446666Y-78624676D01*
X145446666Y-78624676D02*
X145541904Y-78719914D01*
X145541904Y-78719914D02*
X145637142Y-78767533D01*
X144446666Y-78481819D02*
X144351428Y-78481819D01*
X144351428Y-78481819D02*
X144256190Y-78529438D01*
X144256190Y-78529438D02*
X144208571Y-78577057D01*
X144208571Y-78577057D02*
X144160952Y-78672295D01*
X144160952Y-78672295D02*
X144113333Y-78862771D01*
X144113333Y-78862771D02*
X144113333Y-79100866D01*
X144113333Y-79100866D02*
X144160952Y-79291342D01*
X144160952Y-79291342D02*
X144208571Y-79386580D01*
X144208571Y-79386580D02*
X144256190Y-79434200D01*
X144256190Y-79434200D02*
X144351428Y-79481819D01*
X144351428Y-79481819D02*
X144446666Y-79481819D01*
X144446666Y-79481819D02*
X144541904Y-79434200D01*
X144541904Y-79434200D02*
X144589523Y-79386580D01*
X144589523Y-79386580D02*
X144637142Y-79291342D01*
X144637142Y-79291342D02*
X144684761Y-79100866D01*
X144684761Y-79100866D02*
X144684761Y-78862771D01*
X144684761Y-78862771D02*
X144637142Y-78672295D01*
X144637142Y-78672295D02*
X144589523Y-78577057D01*
X144589523Y-78577057D02*
X144541904Y-78529438D01*
X144541904Y-78529438D02*
X144446666Y-78481819D01*
X143256190Y-78815152D02*
X143256190Y-79481819D01*
X143494285Y-78434200D02*
X143732380Y-79148485D01*
X143732380Y-79148485D02*
X143113333Y-79148485D01*
D11*
X130700000Y-80597000D02*
X130700000Y-83137000D01*
X130700000Y-84757000D02*
X130700000Y-88217000D01*
X130700000Y-89837000D02*
X130700000Y-93297000D01*
X130700000Y-94917000D02*
X130700000Y-98377000D01*
X130700000Y-99997000D02*
X130700000Y-103457000D01*
X130700000Y-105077000D02*
X130700000Y-108537000D01*
X130700000Y-110157000D02*
X130700000Y-113617000D01*
X130700000Y-115237000D02*
X130700000Y-118697000D01*
X130700000Y-120317000D02*
X130700000Y-123777000D01*
X130700000Y-125397000D02*
X130700000Y-128857000D01*
X130700000Y-130477000D02*
X130700000Y-133937000D01*
X130700000Y-135557000D02*
X130700000Y-139017000D01*
X130700000Y-140637000D02*
X130700000Y-144097000D01*
X130700000Y-145717000D02*
X130700000Y-149177000D01*
X130700000Y-150797000D02*
X130700000Y-154257000D01*
X130700000Y-155877000D02*
X130700000Y-159337000D01*
X130700000Y-160957000D02*
X130700000Y-161527000D01*
X133460000Y-80027000D02*
X130700000Y-80027000D01*
X133460000Y-80027000D02*
X133460000Y-80597000D01*
X133460000Y-80597000D02*
X134930000Y-80597000D01*
X133460000Y-82217000D02*
X133460000Y-85677000D01*
X133460000Y-87297000D02*
X133460000Y-90757000D01*
X133460000Y-92377000D02*
X133460000Y-95837000D01*
X133460000Y-97457000D02*
X133460000Y-100917000D01*
X133460000Y-102537000D02*
X133460000Y-105997000D01*
X133460000Y-107617000D02*
X133460000Y-111077000D01*
X133460000Y-112697000D02*
X133460000Y-116157000D01*
X133460000Y-117777000D02*
X133460000Y-121237000D01*
X133460000Y-122857000D02*
X133460000Y-126317000D01*
X133460000Y-127937000D02*
X133460000Y-131397000D01*
X133460000Y-133017000D02*
X133460000Y-136477000D01*
X133460000Y-138097000D02*
X133460000Y-141557000D01*
X133460000Y-143177000D02*
X133460000Y-146637000D01*
X133460000Y-148257000D02*
X133460000Y-151717000D01*
X133460000Y-153337000D02*
X133460000Y-156797000D01*
X133460000Y-158417000D02*
X133460000Y-161527000D01*
X133460000Y-161527000D02*
X130700000Y-161527000D01*
X143400000Y-80027000D02*
X143400000Y-80597000D01*
X143400000Y-80597000D02*
X141930000Y-80597000D01*
X143400000Y-82217000D02*
X143400000Y-85677000D01*
X143400000Y-87297000D02*
X143400000Y-90757000D01*
X143400000Y-92377000D02*
X143400000Y-95837000D01*
X143400000Y-97457000D02*
X143400000Y-100917000D01*
X143400000Y-102537000D02*
X143400000Y-105997000D01*
X143400000Y-107617000D02*
X143400000Y-111077000D01*
X143400000Y-112697000D02*
X143400000Y-116157000D01*
X143400000Y-117777000D02*
X143400000Y-121237000D01*
X143400000Y-122857000D02*
X143400000Y-126317000D01*
X143400000Y-127937000D02*
X143400000Y-131397000D01*
X143400000Y-133017000D02*
X143400000Y-136477000D01*
X143400000Y-138097000D02*
X143400000Y-141557000D01*
X143400000Y-143177000D02*
X143400000Y-146637000D01*
X143400000Y-148257000D02*
X143400000Y-151717000D01*
X143400000Y-153337000D02*
X143400000Y-156797000D01*
X143400000Y-158417000D02*
X143400000Y-161527000D01*
X146160000Y-80027000D02*
X143400000Y-80027000D01*
X146160000Y-80027000D02*
X146160000Y-83137000D01*
X146160000Y-80597000D02*
X146160000Y-83137000D01*
X146160000Y-84757000D02*
X146160000Y-88217000D01*
X146160000Y-89837000D02*
X146160000Y-93297000D01*
X146160000Y-94917000D02*
X146160000Y-98377000D01*
X146160000Y-99997000D02*
X146160000Y-103457000D01*
X146160000Y-105077000D02*
X146160000Y-108537000D01*
X146160000Y-110157000D02*
X146160000Y-113617000D01*
X146160000Y-115237000D02*
X146160000Y-118697000D01*
X146160000Y-120317000D02*
X146160000Y-123777000D01*
X146160000Y-125397000D02*
X146160000Y-128857000D01*
X146160000Y-130477000D02*
X146160000Y-133937000D01*
X146160000Y-135557000D02*
X146160000Y-139017000D01*
X146160000Y-140637000D02*
X146160000Y-144097000D01*
X146160000Y-145717000D02*
X146160000Y-149177000D01*
X146160000Y-150797000D02*
X146160000Y-154257000D01*
X146160000Y-155877000D02*
X146160000Y-159337000D01*
X146160000Y-160957000D02*
X146160000Y-161527000D01*
X146160000Y-161527000D02*
X143400000Y-161527000D01*
%LPC*%
D12*
X127000000Y-81424250D03*
D13*
X127000000Y-83964250D03*
D12*
X127000000Y-86504250D03*
X127000000Y-89044250D03*
X127000000Y-91584250D03*
X127000000Y-94124250D03*
X127000000Y-96664250D03*
X127000000Y-99204250D03*
X127000000Y-101744250D03*
X127000000Y-104284250D03*
X127000000Y-106824250D03*
X127000000Y-109364250D03*
X127000000Y-111904250D03*
X127000000Y-114444250D03*
X127000000Y-116984250D03*
X127000000Y-119524250D03*
X127000000Y-122064250D03*
X127000000Y-124604250D03*
X127000000Y-127144250D03*
X127000000Y-129684250D03*
X127000000Y-132224250D03*
X127000000Y-134764250D03*
X127000000Y-137304250D03*
X127000000Y-139844250D03*
X127000000Y-142384250D03*
X127000000Y-144924250D03*
X127000000Y-147464250D03*
X127000000Y-150004250D03*
X127000000Y-152544250D03*
X127000000Y-155084250D03*
X127000000Y-157624250D03*
X127000000Y-160164250D03*
X149860000Y-81424250D03*
X149860000Y-83964250D03*
X149860000Y-86504250D03*
X149860000Y-89044250D03*
X149860000Y-91584250D03*
X149860000Y-94124250D03*
X149860000Y-96664250D03*
X149860000Y-99204250D03*
X149860000Y-101744250D03*
X149860000Y-104284250D03*
X149860000Y-106824250D03*
X149860000Y-109364250D03*
X149860000Y-111904250D03*
X149860000Y-114444250D03*
X149860000Y-116984250D03*
X149860000Y-119524250D03*
X149860000Y-122064250D03*
X149860000Y-124604250D03*
X149860000Y-127144250D03*
X149860000Y-129684250D03*
X149860000Y-132224250D03*
X149860000Y-134764250D03*
X149860000Y-137304250D03*
X149860000Y-139844250D03*
X149860000Y-142384250D03*
X149860000Y-144924250D03*
X149860000Y-147464250D03*
X149860000Y-150004250D03*
X149860000Y-152544250D03*
X149860000Y-155084250D03*
X149860000Y-157624250D03*
X149860000Y-160164250D03*
D14*
X133735000Y-81407000D03*
X130425000Y-83947000D03*
X133735000Y-86487000D03*
X130425000Y-89027000D03*
X133735000Y-91567000D03*
X130425000Y-94107000D03*
X133735000Y-96647000D03*
X130425000Y-99187000D03*
X133735000Y-101727000D03*
X130425000Y-104267000D03*
X133735000Y-106807000D03*
X130425000Y-109347000D03*
X133735000Y-111887000D03*
X130425000Y-114427000D03*
X133735000Y-116967000D03*
X130425000Y-119507000D03*
X133735000Y-122047000D03*
X130425000Y-124587000D03*
X133735000Y-127127000D03*
X130425000Y-129667000D03*
X133735000Y-132207000D03*
X130425000Y-134747000D03*
X133735000Y-137287000D03*
X130425000Y-139827000D03*
X133735000Y-142367000D03*
X130425000Y-144907000D03*
X133735000Y-147447000D03*
X130425000Y-149987000D03*
X133735000Y-152527000D03*
X130425000Y-155067000D03*
X133735000Y-157607000D03*
X130425000Y-160147000D03*
X143125000Y-81407000D03*
X146435000Y-83947000D03*
X143125000Y-86487000D03*
X146435000Y-89027000D03*
X143125000Y-91567000D03*
X146435000Y-94107000D03*
X143125000Y-96647000D03*
X146435000Y-99187000D03*
X143125000Y-101727000D03*
X146435000Y-104267000D03*
X143125000Y-106807000D03*
X146435000Y-109347000D03*
X143125000Y-111887000D03*
X146435000Y-114427000D03*
X143125000Y-116967000D03*
X146435000Y-119507000D03*
X143125000Y-122047000D03*
X146435000Y-124587000D03*
X143125000Y-127127000D03*
X146435000Y-129667000D03*
X143125000Y-132207000D03*
X146435000Y-134747000D03*
X143125000Y-137287000D03*
X146435000Y-139827000D03*
X143125000Y-142367000D03*
X146435000Y-144907000D03*
X143125000Y-147447000D03*
X146435000Y-149987000D03*
X143125000Y-152527000D03*
X146435000Y-155067000D03*
X143125000Y-157607000D03*
X146435000Y-160147000D03*
%LPD*%
M02*
