M48
; DRILL file {KiCad 9.0.6} date 2026-01-07T14:27:32-0600
; FORMAT={-:-/ absolute / metric / decimal}
; #@! TF.CreationDate,2026-01-07T14:27:32-06:00
; #@! TF.GenerationSoftware,Kicad,Pcbnew,9.0.6
; #@! TF.FileFunction,Plated,1,2,PTH
FMAT,2
METRIC
; #@! TA.AperFunction,Plated,PTH,ComponentDrill
T1C0.200
; #@! TA.AperFunction,Plated,PTH,ViaDrill
T2C0.300
; #@! TA.AperFunction,Plated,PTH,ComponentDrill
T3C1.000
%
G90
G05
T1
X136.379Y-120.805
X137.405Y-119.779
X137.405Y-121.83
X138.43Y-118.754
X138.43Y-120.805
X138.43Y-122.855
X139.455Y-119.779
X139.455Y-121.83
X140.481Y-120.805
T2
X138.43Y-94.361
X138.43Y-115.443
X138.43Y-126.238
X138.43Y-147.32
T3
X127.0Y-81.424
X127.0Y-83.964
X127.0Y-86.504
X127.0Y-89.044
X127.0Y-91.584
X127.0Y-94.124
X127.0Y-96.664
X127.0Y-99.204
X127.0Y-101.744
X127.0Y-104.284
X127.0Y-106.824
X127.0Y-109.364
X127.0Y-111.904
X127.0Y-114.444
X127.0Y-116.984
X127.0Y-119.524
X127.0Y-122.064
X127.0Y-124.604
X127.0Y-127.144
X127.0Y-129.684
X127.0Y-132.224
X127.0Y-134.764
X127.0Y-137.304
X127.0Y-139.844
X127.0Y-142.384
X127.0Y-144.924
X127.0Y-147.464
X127.0Y-150.004
X127.0Y-152.544
X127.0Y-155.084
X127.0Y-157.624
X127.0Y-160.164
X149.86Y-81.424
X149.86Y-83.964
X149.86Y-86.504
X149.86Y-89.044
X149.86Y-91.584
X149.86Y-94.124
X149.86Y-96.664
X149.86Y-99.204
X149.86Y-101.744
X149.86Y-104.284
X149.86Y-106.824
X149.86Y-109.364
X149.86Y-111.904
X149.86Y-114.444
X149.86Y-116.984
X149.86Y-119.524
X149.86Y-122.064
X149.86Y-124.604
X149.86Y-127.144
X149.86Y-129.684
X149.86Y-132.224
X149.86Y-134.764
X149.86Y-137.304
X149.86Y-139.844
X149.86Y-142.384
X149.86Y-144.924
X149.86Y-147.464
X149.86Y-150.004
X149.86Y-152.544
X149.86Y-155.084
X149.86Y-157.624
X149.86Y-160.164
M30
