G04 #@! TF.GenerationSoftware,KiCad,Pcbnew,9.0.6*
G04 #@! TF.CreationDate,2026-01-02T14:07:44-06:00*
G04 #@! TF.ProjectId,QFN-60_7x7,51464e2d-3630-45f3-9778-372e6b696361,rev?*
G04 #@! TF.SameCoordinates,Original*
G04 #@! TF.FileFunction,Soldermask,Bot*
G04 #@! TF.FilePolarity,Negative*
%FSLAX46Y46*%
G04 Gerber Fmt 4.6, Leading zero omitted, Abs format (unit mm)*
G04 Created by KiCad (PCBNEW 9.0.6) date 2026-01-02 14:07:44*
%MOMM*%
%LPD*%
G01*
G04 APERTURE LIST*
%ADD10R,2.510000X1.000000*%
%ADD11C,1.700000*%
%ADD12R,1.700000X1.700000*%
G04 APERTURE END LIST*
D10*
X143125000Y-81407000D03*
X146435000Y-83947000D03*
X143125000Y-86487000D03*
X146435000Y-89027000D03*
X143125000Y-91567000D03*
X146435000Y-94107000D03*
X143125000Y-96647000D03*
X146435000Y-99187000D03*
X143125000Y-101727000D03*
X146435000Y-104267000D03*
X143125000Y-106807000D03*
X146435000Y-109347000D03*
X143125000Y-111887000D03*
X146435000Y-114427000D03*
X143125000Y-116967000D03*
X146435000Y-119507000D03*
X143125000Y-122047000D03*
X146435000Y-124587000D03*
X143125000Y-127127000D03*
X146435000Y-129667000D03*
X143125000Y-132207000D03*
X146435000Y-134747000D03*
X143125000Y-137287000D03*
X146435000Y-139827000D03*
X143125000Y-142367000D03*
X146435000Y-144907000D03*
X143125000Y-147447000D03*
X146435000Y-149987000D03*
X143125000Y-152527000D03*
X146435000Y-155067000D03*
X143125000Y-157607000D03*
X146435000Y-160147000D03*
D11*
X127000000Y-81424250D03*
D12*
X127000000Y-83964250D03*
D11*
X127000000Y-86504250D03*
X127000000Y-89044250D03*
X127000000Y-91584250D03*
X127000000Y-94124250D03*
X127000000Y-96664250D03*
X127000000Y-99204250D03*
X127000000Y-101744250D03*
X127000000Y-104284250D03*
X127000000Y-106824250D03*
X127000000Y-109364250D03*
X127000000Y-111904250D03*
X127000000Y-114444250D03*
X127000000Y-116984250D03*
X127000000Y-119524250D03*
X127000000Y-122064250D03*
X127000000Y-124604250D03*
X127000000Y-127144250D03*
X127000000Y-129684250D03*
X127000000Y-132224250D03*
X127000000Y-134764250D03*
X127000000Y-137304250D03*
X127000000Y-139844250D03*
X127000000Y-142384250D03*
X127000000Y-144924250D03*
X127000000Y-147464250D03*
X127000000Y-150004250D03*
X127000000Y-152544250D03*
X127000000Y-155084250D03*
X127000000Y-157624250D03*
X127000000Y-160164250D03*
X149860000Y-81424250D03*
X149860000Y-83964250D03*
X149860000Y-86504250D03*
X149860000Y-89044250D03*
X149860000Y-91584250D03*
X149860000Y-94124250D03*
X149860000Y-96664250D03*
X149860000Y-99204250D03*
X149860000Y-101744250D03*
X149860000Y-104284250D03*
X149860000Y-106824250D03*
X149860000Y-109364250D03*
X149860000Y-111904250D03*
X149860000Y-114444250D03*
X149860000Y-116984250D03*
X149860000Y-119524250D03*
X149860000Y-122064250D03*
X149860000Y-124604250D03*
X149860000Y-127144250D03*
X149860000Y-129684250D03*
X149860000Y-132224250D03*
X149860000Y-134764250D03*
X149860000Y-137304250D03*
X149860000Y-139844250D03*
X149860000Y-142384250D03*
X149860000Y-144924250D03*
X149860000Y-147464250D03*
X149860000Y-150004250D03*
X149860000Y-152544250D03*
X149860000Y-155084250D03*
X149860000Y-157624250D03*
X149860000Y-160164250D03*
D10*
X133735000Y-81407000D03*
X130425000Y-83947000D03*
X133735000Y-86487000D03*
X130425000Y-89027000D03*
X133735000Y-91567000D03*
X130425000Y-94107000D03*
X133735000Y-96647000D03*
X130425000Y-99187000D03*
X133735000Y-101727000D03*
X130425000Y-104267000D03*
X133735000Y-106807000D03*
X130425000Y-109347000D03*
X133735000Y-111887000D03*
X130425000Y-114427000D03*
X133735000Y-116967000D03*
X130425000Y-119507000D03*
X133735000Y-122047000D03*
X130425000Y-124587000D03*
X133735000Y-127127000D03*
X130425000Y-129667000D03*
X133735000Y-132207000D03*
X130425000Y-134747000D03*
X133735000Y-137287000D03*
X130425000Y-139827000D03*
X133735000Y-142367000D03*
X130425000Y-144907000D03*
X133735000Y-147447000D03*
X130425000Y-149987000D03*
X133735000Y-152527000D03*
X130425000Y-155067000D03*
X133735000Y-157607000D03*
X130425000Y-160147000D03*
M02*
